# Blender 5.1.2
# www.blender.org
mtllib Arm.mtl
o Arm
v 0.069258 0.006860 -0.082891
v 0.075558 0.006810 -0.027592
v 0.069258 -0.014250 -0.075691
v 0.069258 0.006210 0.027809
v 0.075558 0.006810 -0.027592
v 0.069258 0.027810 0.020508
v 0.069258 -0.023080 -0.055092
v 0.075558 0.006810 -0.027592
v 0.069258 -0.024250 -0.027592
v 0.052258 0.058580 0.019308
v 0.069258 0.027810 0.020508
v 0.069258 0.036960 -0.000292
v 0.075558 0.006810 -0.027592
v 0.052258 0.042870 0.055008
v 0.069258 0.006210 0.027809
v 0.052258 0.005780 0.067509
v 0.052258 -0.030090 0.055008
v 0.024656 -0.037540 0.071709
v 0.025257 -0.054990 0.029108
v 0.052258 0.005780 0.067509
v 0.069258 0.006210 0.027809
v 0.069258 -0.014680 0.020508
v 0.075558 0.006810 -0.027592
v -0.529943 0.046150 -0.167692
v -0.512642 0.006840 -0.206091
v -0.557842 0.006840 -0.169592
v -0.501043 0.039090 -0.198092
v -0.271544 -0.140950 0.286509
v -0.299442 -0.172350 0.255409
v -0.268942 -0.165020 0.268009
v -0.315443 -0.148280 0.281109
v 0.025057 -0.054890 -0.084391
v 0.052258 -0.029350 -0.110191
v 0.052258 -0.044520 -0.074791
v 0.069258 -0.014250 -0.075691
v 0.069258 -0.023080 -0.055092
v 0.075558 0.006810 -0.027592
v 0.052258 0.058580 0.019308
v 0.024357 0.071710 -0.027891
v 0.025557 0.069030 0.028809
v 0.052258 0.060810 -0.027891
v 0.069258 0.036960 -0.000292
v 0.069258 0.038260 -0.027792
v 0.075558 0.006810 -0.027592
v 0.069258 0.036990 -0.055092
v 0.052258 0.058630 -0.074892
v 0.069258 0.028060 -0.075691
v 0.075558 0.006810 -0.027592
v 0.069258 0.006860 -0.082891
v 0.052258 0.043300 -0.110191
v 0.052258 0.006890 -0.122591
v 0.025057 0.069090 -0.084391
v 0.023857 0.006910 -0.141790
v 0.023457 0.050670 -0.126791
v -0.512642 0.006840 -0.206091
v -0.501043 -0.025400 -0.198092
v -0.529943 -0.032470 -0.167692
v -0.557842 0.006840 -0.169592
v 0.052258 -0.029350 -0.110191
v 0.023857 0.006910 -0.141790
v 0.052258 0.006890 -0.122591
v 0.052258 0.060810 -0.027891
v 0.052258 0.058630 -0.074892
v 0.024357 0.071710 -0.027891
v 0.025057 0.069090 -0.084391
v 0.069258 0.036990 -0.055092
v 0.069258 0.038260 -0.027792
v 0.075558 0.006810 -0.027592
v 0.069258 0.028060 -0.075691
v 0.069258 0.006860 -0.082891
v 0.052258 0.043300 -0.110191
v -0.546543 0.006840 0.149109
v -0.576443 0.006840 0.112209
v -0.535843 -0.025400 0.141109
v -0.552242 -0.032470 0.110409
v 0.052258 -0.044610 0.019609
v 0.024157 -0.057300 -0.027592
v 0.052258 -0.046530 -0.027592
v 0.069258 -0.023130 -0.000092
v 0.069258 -0.024250 -0.027592
v 0.075558 0.006810 -0.027592
v 0.024157 -0.057300 -0.027592
v 0.052258 -0.044520 -0.074791
v 0.025057 -0.054890 -0.084391
v 0.052258 -0.046530 -0.027592
v 0.069258 -0.023080 -0.055092
v 0.052258 -0.044520 -0.074791
v 0.052258 -0.029350 -0.110191
v 0.023457 -0.036650 -0.126791
v 0.023857 0.006910 -0.141790
v 0.069258 -0.014250 -0.075691
v 0.052258 -0.029350 -0.110191
v 0.069258 0.006860 -0.082891
v 0.052258 0.006890 -0.122591
v 0.052258 0.042870 0.055008
v 0.024258 0.050150 0.071709
v 0.025757 0.005570 0.086708
v 0.052258 0.005780 0.067509
v 0.052258 0.042870 0.055008
v 0.025557 0.069030 0.028809
v 0.052258 0.058580 0.019308
v 0.069258 0.027810 0.020508
v 0.069258 0.036960 -0.000292
v 0.052258 0.060810 -0.027891
v 0.075558 0.006810 -0.027592
v 0.069258 0.038260 -0.027792
v -0.308943 -0.102120 0.274609
v -0.271544 -0.140950 0.286509
v -0.275743 -0.105640 0.282309
v -0.315443 -0.148280 0.281109
v 0.025257 -0.054990 0.029108
v 0.024157 -0.057300 -0.027592
v 0.052258 -0.044610 0.019609
v 0.052258 -0.030090 0.055008
v 0.069258 -0.014680 0.020508
v 0.069258 -0.023130 -0.000092
v 0.075558 0.006810 -0.027592
v 0.052258 -0.046530 -0.027592
v 0.069258 -0.024250 -0.027592
v 0.025757 0.005570 0.086708
v 0.052258 0.005780 0.067509
v 0.024656 -0.037540 0.071709
v -0.532143 0.039090 -0.135391
v -0.557842 0.006840 -0.169592
v -0.547243 0.006840 -0.129292
v -0.529943 0.046150 -0.167692
v -0.268942 -0.165020 0.268009
v -0.236143 -0.148580 0.235909
v -0.271544 -0.140950 0.286509
v -0.227743 -0.113210 0.251808
v -0.414743 0.006910 -0.215391
v -0.512642 0.006840 -0.206091
v -0.501043 0.039090 -0.198092
v -0.422543 0.048830 -0.200592
v -0.501043 0.039090 -0.198092
v -0.452242 0.064040 -0.161491
v -0.529943 0.046150 -0.167692
v -0.414743 0.006910 -0.215391
v -0.296642 -0.040770 -0.184891
v -0.422543 -0.034810 -0.200592
v -0.293043 0.007180 -0.201490
v -0.501043 -0.025400 -0.198092
v -0.414743 0.006910 -0.215391
v -0.512642 0.006840 -0.206091
v -0.092443 0.007180 -0.151991
v -0.190844 0.007290 -0.176691
v -0.104242 0.057670 -0.135191
v -0.195543 0.053300 -0.167591
v -0.296642 0.057670 -0.184891
v -0.195543 0.053300 -0.167591
v -0.293043 0.007180 -0.201490
v -0.190844 0.007290 -0.176691
v -0.535843 0.039090 0.141109
v -0.576443 0.006840 0.112209
v -0.546543 0.006840 0.149109
v -0.552242 0.046150 0.110409
v -0.535843 0.039090 0.141109
v -0.484243 0.064010 0.104809
v -0.474443 0.048660 0.144409
v -0.275743 -0.105640 0.282309
v -0.271544 -0.140950 0.286509
v -0.227743 -0.113210 0.251808
v -0.243042 -0.072390 0.248909
v -0.190844 0.007290 -0.176691
v -0.104242 -0.040770 -0.135191
v -0.195543 -0.035770 -0.167591
v -0.092443 0.007180 -0.151991
v -0.568342 0.039090 -0.059292
v -0.606443 0.006840 -0.027891
v -0.580643 0.046150 -0.027891
v -0.580643 0.006840 -0.066492
v -0.507643 0.064140 -0.027891
v -0.568342 0.039090 -0.059292
v -0.506844 0.048860 -0.067390
v -0.143942 -0.033680 0.141308
v -0.096342 -0.048950 0.085808
v -0.079844 -0.004780 0.102209
v -0.158342 -0.072420 0.133209
v -0.321142 -0.156000 0.232109
v -0.299442 -0.172350 0.255409
v -0.336843 -0.133520 0.243608
v -0.315443 -0.148280 0.281109
v -0.414743 0.006910 -0.215391
v -0.296642 0.057670 -0.184891
v -0.293043 0.007180 -0.201490
v -0.422543 0.048830 -0.200592
v -0.422543 0.048830 -0.200592
v -0.359642 0.070320 -0.149191
v -0.452242 0.064040 -0.161491
v -0.606443 0.006840 -0.027891
v -0.568342 -0.025400 -0.059292
v -0.580643 -0.032470 -0.027891
v -0.580643 0.006840 -0.066492
v -0.507643 -0.049790 -0.027592
v -0.568342 -0.025400 -0.059292
v -0.506844 -0.034760 -0.067390
v -0.200142 -0.020730 0.184208
v -0.143942 -0.033680 0.141308
v -0.154642 0.013040 0.137909
v -0.186142 -0.072550 0.194309
v -0.186142 -0.072550 0.194309
v -0.227743 -0.113210 0.251808
v -0.197144 -0.110190 0.183310
v -0.236143 -0.148580 0.235909
v -0.535843 0.039090 0.141109
v -0.474644 0.006800 0.159309
v -0.474443 0.048660 0.144409
v -0.546543 0.006840 0.149109
v -0.308943 -0.102120 0.274609
v -0.336843 -0.133520 0.243608
v -0.315443 -0.148280 0.281109
v -0.329443 -0.101260 0.247108
v -0.079844 -0.004780 0.102209
v -0.154642 0.013040 0.137909
v -0.143942 -0.033680 0.141308
v -0.107143 0.053240 0.086609
v -0.243042 -0.072390 0.248909
v -0.227743 -0.113210 0.251808
v -0.186142 -0.072550 0.194309
v -0.200142 -0.020730 0.184208
v -0.195543 0.053300 -0.167591
v -0.256643 0.077110 -0.143991
v -0.206642 0.073910 -0.147192
v -0.296642 0.057670 -0.184891
v -0.245142 0.083700 -0.089491
v -0.206642 0.073910 -0.147192
v -0.175043 0.077150 -0.117891
v -0.195543 0.053300 -0.167591
v -0.206642 0.073910 -0.147192
v -0.104242 0.057670 -0.135191
v 0.023457 0.050670 -0.126791
v -0.092443 0.007180 -0.151991
v 0.023857 0.006910 -0.141790
v -0.474644 0.006800 0.159309
v -0.535843 -0.025400 0.141109
v -0.475243 -0.034530 0.144308
v -0.546543 0.006840 0.149109
v -0.394543 0.057670 -0.107792
v -0.401842 0.007300 -0.089991
v -0.384342 0.053340 -0.089991
v -0.422943 0.007180 -0.097891
v -0.401842 0.007300 -0.089991
v -0.409344 0.057930 -0.073191
v -0.431543 0.007210 -0.084591
v -0.568342 0.039090 0.003510
v -0.606443 0.006840 -0.027891
v -0.580643 0.006840 0.010708
v -0.580643 0.046150 -0.027891
v -0.568342 0.039090 0.003510
v -0.507643 0.064140 -0.027891
v -0.506844 0.048860 0.011709
v -0.293043 0.007180 -0.201490
v -0.195543 -0.035770 -0.167591
v -0.296642 -0.040770 -0.184891
v -0.190844 0.007290 -0.176691
v -0.195543 -0.035770 -0.167591
v -0.256643 -0.050360 -0.143791
v -0.206642 -0.049380 -0.147192
v -0.175043 -0.050310 -0.117691
v -0.206642 -0.049380 -0.147192
v -0.104242 -0.040770 -0.135191
v -0.545643 0.039090 0.078009
v -0.576443 0.006840 0.112209
v -0.552242 0.046150 0.110409
v -0.557943 0.006840 0.071709
v -0.484243 0.064010 0.104809
v -0.545643 0.039090 0.078009
v -0.490744 0.048830 0.065310
v -0.580643 0.006840 0.010708
v -0.606443 0.006840 -0.027891
v -0.568342 -0.025400 0.003510
v -0.580643 -0.032470 -0.027891
v -0.507643 -0.049790 -0.027592
v -0.568342 -0.025400 0.003510
v -0.506844 -0.034730 0.011909
v -0.409344 -0.040460 -0.072592
v -0.401842 0.007300 -0.089991
v -0.384342 -0.035720 -0.089891
v -0.431543 0.007210 -0.084591
v -0.568342 0.039090 -0.059292
v -0.509842 0.006910 -0.081892
v -0.580643 0.006840 -0.066492
v -0.506844 0.048860 -0.067390
v -0.580643 0.006840 -0.066492
v -0.509842 0.006910 -0.081892
v -0.568342 -0.025400 -0.059292
v -0.506844 -0.034760 -0.067390
v -0.256643 0.077110 -0.143991
v -0.296642 0.057670 -0.184891
v -0.306543 0.076600 -0.133291
v -0.359642 0.070320 -0.149191
v -0.365643 0.055360 0.134708
v -0.474443 0.048660 0.144409
v -0.389643 0.005700 0.151108
v -0.474644 0.006800 0.159309
v -0.576443 0.006840 0.112209
v -0.545643 -0.025400 0.078009
v -0.552242 -0.032470 0.110409
v -0.557943 0.006840 0.071709
v -0.484444 -0.049770 0.105209
v -0.545643 -0.025400 0.078009
v -0.490744 -0.034750 0.065609
v -0.295143 0.036650 0.130209
v -0.285343 -0.016820 0.134308
v -0.263742 0.022890 0.130209
v -0.320543 0.022850 0.136209
v -0.263742 0.022890 0.130209
v -0.294943 0.056480 0.123610
v -0.238443 0.048900 0.118109
v -0.475243 -0.034530 0.144308
v -0.389643 0.005700 0.151108
v -0.474644 0.006800 0.159309
v -0.376642 -0.037460 0.134409
v -0.158342 -0.072420 0.133209
v -0.186142 -0.072550 0.194309
v -0.197144 -0.110190 0.183310
v -0.143942 -0.033680 0.141308
v -0.171343 -0.056340 0.077509
v -0.096342 -0.048950 0.085808
v -0.197542 -0.077780 0.116009
v -0.285343 -0.016820 0.134308
v -0.341143 0.001700 0.141609
v -0.321342 -0.022430 0.131208
v -0.327843 0.078070 -0.071491
v -0.384342 0.053340 -0.089991
v -0.409344 0.057930 -0.073191
v -0.344442 0.074050 -0.089691
v -0.320543 0.022850 0.136209
v -0.341143 0.001700 0.141609
v -0.285343 -0.016820 0.134308
v -0.365643 0.055360 0.134708
v -0.389643 0.005700 0.151108
v -0.341143 0.001700 0.141609
v -0.320543 0.022850 0.136209
v -0.082342 0.072100 -0.085991
v 0.025057 0.069090 -0.084391
v 0.023457 0.050670 -0.126791
v -0.104242 0.057670 -0.135191
v -0.535843 -0.025400 0.141109
v -0.484444 -0.049770 0.105209
v -0.475243 -0.034530 0.144308
v -0.552242 -0.032470 0.110409
v -0.079844 -0.004780 0.102209
v 0.024656 -0.037540 0.071709
v 0.025757 0.005570 0.086708
v -0.096342 -0.048950 0.085808
v -0.266842 -0.154610 0.210508
v -0.268942 -0.165020 0.268009
v -0.299442 -0.172350 0.255409
v -0.236143 -0.148580 0.235909
v -0.422543 -0.034810 -0.200592
v -0.359642 -0.052780 -0.149191
v -0.452242 -0.049910 -0.161491
v -0.296642 -0.040770 -0.184891
v -0.501043 -0.025400 -0.198092
v -0.422543 -0.034810 -0.200592
v -0.529943 -0.032470 -0.167692
v -0.341143 0.001700 0.141609
v -0.389643 0.005700 0.151108
v -0.376642 -0.037460 0.134409
v -0.321342 -0.022430 0.131208
v -0.181242 0.056140 0.105509
v -0.209543 0.022320 0.144609
v -0.178642 0.035050 0.131409
v -0.238443 0.048900 0.118109
v -0.238443 0.048900 0.118109
v -0.236843 0.010740 0.145609
v -0.209543 0.022320 0.144609
v -0.263742 0.022890 0.130209
v -0.294943 0.056480 0.123610
v -0.306843 0.075560 0.091608
v -0.365643 0.055360 0.134708
v -0.281443 0.070140 0.102108
v -0.506844 0.048860 -0.067390
v -0.431543 0.007210 -0.084591
v -0.509842 0.006910 -0.081892
v -0.409344 0.057930 -0.073191
v -0.171442 0.080710 -0.058891
v -0.175043 0.077150 -0.117891
v -0.245142 0.083700 -0.089491
v -0.146643 0.077350 -0.088192
v -0.104242 0.057670 -0.135191
v -0.146643 0.077350 -0.088192
v -0.082342 0.072100 -0.085991
v -0.098843 0.074960 -0.027891
v -0.171442 0.080710 -0.058891
v -0.397743 0.070150 0.093510
v -0.474443 0.048660 0.144409
v -0.365643 0.055360 0.134708
v -0.484243 0.064010 0.104809
v -0.365643 0.055360 0.134708
v -0.339142 0.076310 0.078009
v -0.397743 0.070150 0.093510
v -0.306843 0.075560 0.091608
v -0.200142 -0.020730 0.184208
v -0.236843 0.010740 0.145609
v -0.247242 -0.016820 0.173409
v -0.209543 0.022320 0.144609
v -0.410242 0.071110 -0.027891
v -0.327843 0.078070 -0.071491
v -0.409344 0.057930 -0.073191
v -0.322342 0.079940 -0.027792
v -0.409344 -0.040460 -0.072592
v -0.506844 -0.034760 -0.067390
v -0.431543 0.007210 -0.084591
v -0.509842 0.006910 -0.081892
v 0.024258 0.050150 0.071709
v -0.082542 0.071820 0.030708
v -0.107143 0.053240 0.086609
v 0.025557 0.069030 0.028809
v -0.079844 -0.004780 0.102209
v 0.025757 0.005570 0.086708
v -0.107143 0.053240 0.086609
v -0.410242 0.071110 -0.027891
v -0.506844 0.048860 -0.067390
v -0.507643 0.064140 -0.027891
v -0.409344 0.057930 -0.073191
v -0.328342 0.078060 0.016209
v -0.385542 0.053340 0.034609
v -0.346243 0.074050 0.034309
v -0.409443 0.057930 0.017509
v -0.321342 0.077130 -0.105091
v -0.245142 0.083700 -0.089491
v -0.306543 0.076600 -0.133291
v -0.256643 0.077110 -0.143991
v -0.279743 -0.057390 0.230209
v -0.308943 -0.102120 0.274609
v -0.275743 -0.105640 0.282309
v -0.243042 -0.072390 0.248909
v -0.200142 -0.020730 0.184208
v -0.247242 -0.016820 0.173409
v -0.279743 -0.057390 0.230209
v -0.082342 -0.054180 -0.085691
v 0.023457 -0.036650 -0.126791
v 0.025057 -0.054890 -0.084391
v -0.104242 -0.040770 -0.135191
v 0.024157 -0.057300 -0.027592
v -0.082342 -0.054180 -0.085691
v -0.098843 -0.054330 -0.024891
v -0.092443 0.007180 -0.151991
v 0.023457 -0.036650 -0.126791
v 0.023857 0.006910 -0.141790
v -0.327843 0.078070 -0.071491
v -0.321342 0.077130 -0.105091
v -0.344442 0.074050 -0.089691
v -0.245142 0.083700 -0.089491
v -0.181242 0.056140 0.105509
v -0.172644 0.075500 0.059608
v -0.196243 0.070100 0.082409
v -0.107143 0.053240 0.086609
v -0.107143 0.053240 0.086609
v -0.146442 0.077020 0.032209
v -0.082542 0.071820 0.030708
v -0.098843 0.074960 -0.027891
v -0.171543 0.080670 0.003309
v -0.082542 0.071820 0.030708
v 0.025557 0.069030 0.028809
v 0.024357 0.071710 -0.027891
v -0.098843 0.074960 -0.027891
v -0.171543 0.080670 0.003309
v -0.172644 0.075500 0.059608
v -0.146442 0.077020 0.032209
v -0.248943 0.083180 0.038809
v -0.263742 0.022890 0.130209
v -0.247242 -0.016820 0.173409
v -0.236843 0.010740 0.145609
v -0.285343 -0.016820 0.134308
v 0.024357 0.071710 -0.027891
v -0.082342 0.072100 -0.085991
v -0.098843 0.074960 -0.027891
v 0.025057 0.069090 -0.084391
v -0.171442 0.080710 -0.058891
v -0.171543 0.080670 0.003309
v -0.195143 0.083340 -0.027792
v -0.195143 0.083340 -0.027792
v -0.248943 0.083180 0.038809
v -0.171543 0.080670 0.003309
v -0.247744 0.085020 -0.027491
v -0.195143 0.083340 -0.027792
v -0.245142 0.083700 -0.089491
v -0.171442 0.080710 -0.058891
v -0.328342 0.078060 0.016209
v -0.410242 0.071110 -0.027891
v -0.409443 0.057930 0.017509
v -0.322342 0.079940 -0.027792
v -0.344442 0.074050 -0.089691
v -0.394543 0.057670 -0.107792
v -0.384342 0.053340 -0.089991
v -0.321342 0.077130 -0.105091
v -0.306843 0.075560 0.091608
v -0.332243 0.077090 0.049910
v -0.339142 0.076310 0.078009
v -0.248943 0.083180 0.038809
v -0.196243 0.070100 0.082409
v -0.248943 0.083180 0.038809
v -0.239443 0.070910 0.086309
v -0.172644 0.075500 0.059608
v -0.328342 0.078060 0.016209
v -0.332243 0.077090 0.049910
v -0.346243 0.074050 0.034309
v -0.332243 0.077090 0.049910
v -0.385542 0.053340 0.034609
v -0.404444 0.057670 0.052208
v -0.346243 0.074050 0.034309
v -0.321342 0.077130 -0.105091
v -0.359642 0.070320 -0.149191
v -0.394543 0.057670 -0.107792
v -0.306543 0.076600 -0.133291
v -0.339142 0.076310 0.078009
v -0.404444 0.057670 0.052208
v -0.397743 0.070150 0.093510
v -0.332243 0.077090 0.049910
v -0.321342 -0.022430 0.131208
v -0.311943 -0.043360 0.103708
v -0.297443 -0.033940 0.113209
v -0.376642 -0.037460 0.134409
v -0.247744 0.085020 -0.027491
v -0.327843 0.078070 -0.071491
v -0.322342 0.079940 -0.027792
v -0.245142 0.083700 -0.089491
v -0.328342 0.078060 0.016209
v -0.247744 0.085020 -0.027491
v -0.248943 0.083180 0.038809
v -0.306843 0.075560 0.091608
v -0.281443 0.070140 0.102108
v -0.238443 0.048900 0.118109
v -0.294943 0.056480 0.123610
v -0.320543 0.022850 0.136209
v -0.365643 0.055360 0.134708
v -0.295143 0.036650 0.130209
v -0.238443 0.048900 0.118109
v -0.196243 0.070100 0.082409
v -0.181242 0.056140 0.105509
v -0.107143 0.053240 0.086609
v -0.178642 0.035050 0.131409
v -0.154642 0.013040 0.137909
v -0.200142 -0.020730 0.184208
v -0.178642 0.035050 0.131409
v -0.209543 0.022320 0.144609
v -0.297443 -0.033940 0.113209
v -0.285343 -0.016820 0.134308
v -0.321342 -0.022430 0.131208
v -0.270943 -0.033710 0.102209
v -0.256643 -0.050360 -0.143791
v -0.306543 -0.052070 -0.133192
v -0.296642 -0.040770 -0.184891
v -0.359642 -0.052780 -0.149191
v -0.409443 0.057930 0.017509
v -0.402443 0.007370 0.035109
v -0.385542 0.053340 0.034609
v -0.431543 0.007250 0.029308
v -0.506844 0.048860 0.011709
v -0.410242 0.071110 -0.027891
v -0.507643 0.064140 -0.027891
v -0.409443 0.057930 0.017509
v -0.409443 -0.040080 0.020309
v -0.402443 0.007370 0.035109
v -0.431543 0.007250 0.029308
v -0.385542 -0.035110 0.038208
v 0.024656 -0.037540 0.071709
v -0.096342 -0.048950 0.085808
v -0.081743 -0.054460 0.034109
v 0.025257 -0.054990 0.029108
v -0.384342 -0.035720 -0.089891
v -0.327843 -0.049230 -0.069092
v -0.409344 -0.040460 -0.072592
v -0.344442 -0.049210 -0.089291
v -0.477543 0.048830 -0.121992
v -0.529943 0.046150 -0.167692
v -0.532143 0.039090 -0.135391
v -0.452242 0.064040 -0.161491
v -0.311943 -0.043360 0.103708
v -0.376642 -0.037460 0.134409
v -0.340042 -0.049480 0.088009
v -0.398643 -0.051780 0.096708
v -0.270943 -0.033710 0.102209
v -0.311943 -0.043360 0.103708
v -0.249243 -0.043610 0.063009
v -0.297443 -0.033940 0.113209
v -0.568342 0.039090 0.003510
v -0.509842 0.006920 0.026209
v -0.506844 0.048860 0.011709
v -0.580643 0.006840 0.010708
v -0.404444 0.057670 0.052208
v -0.484243 0.064010 0.104809
v -0.397743 0.070150 0.093510
v -0.490744 0.048830 0.065310
v -0.197144 -0.110190 0.183310
v -0.266842 -0.154610 0.210508
v -0.228643 -0.113530 0.159309
v -0.236143 -0.148580 0.235909
v -0.328342 -0.047480 0.028009
v -0.385542 -0.035110 0.038208
v -0.409443 -0.040080 0.020309
v -0.346243 -0.047470 0.044409
v -0.509842 0.006920 0.026209
v -0.580643 0.006840 0.010708
v -0.568342 -0.025400 0.003510
v -0.506844 -0.034730 0.011909
v -0.146643 -0.052150 -0.087591
v -0.104242 -0.040770 -0.135191
v -0.082342 -0.054180 -0.085691
v -0.175043 -0.050310 -0.117691
v -0.171442 -0.049820 -0.055391
v -0.245142 -0.047770 -0.087391
v -0.489243 0.006910 -0.107691
v -0.547243 0.006840 -0.129292
v -0.532143 -0.025400 -0.135391
v -0.477543 -0.034810 -0.121992
v -0.557842 0.006840 -0.169592
v -0.532143 -0.025400 -0.135391
v -0.529943 -0.032470 -0.167692
v -0.506844 -0.034730 0.011909
v -0.410242 -0.051740 -0.025391
v -0.409443 -0.040080 0.020309
v -0.507643 -0.049790 -0.027592
v -0.410242 -0.051740 -0.025391
v -0.506844 -0.034760 -0.067390
v -0.409344 -0.040460 -0.072592
v -0.475243 -0.034530 0.144308
v -0.398643 -0.051780 0.096708
v -0.376642 -0.037460 0.134409
v -0.484444 -0.049770 0.105209
v -0.404543 -0.040250 0.055208
v -0.490744 -0.034750 0.065609
v -0.398643 -0.051780 0.096708
v -0.529943 -0.032470 -0.167692
v -0.477543 -0.034810 -0.121992
v -0.532143 -0.025400 -0.135391
v -0.452242 -0.049910 -0.161491
v -0.329443 -0.101260 0.247108
v -0.279743 -0.057390 0.230209
v -0.311142 -0.066510 0.202608
v -0.308943 -0.102120 0.274609
v -0.146242 -0.051850 0.043209
v -0.096342 -0.048950 0.085808
v -0.171343 -0.056340 0.077509
v -0.081743 -0.054460 0.034109
v 0.024157 -0.057300 -0.027592
v -0.098843 -0.054330 -0.024891
v 0.025257 -0.054990 0.029108
v -0.146242 -0.051850 0.043209
v -0.098843 -0.054330 -0.024891
v -0.171642 -0.048350 0.015909
v -0.394543 -0.040770 -0.107792
v -0.321342 -0.050330 -0.104891
v -0.344442 -0.049210 -0.089291
v -0.384342 -0.035720 -0.089891
v -0.410242 -0.051740 -0.025391
v -0.327843 -0.049230 -0.069092
v -0.322443 -0.048640 -0.020092
v -0.409344 -0.040460 -0.072592
v -0.409443 -0.040080 0.020309
v -0.410242 -0.051740 -0.025391
v -0.328342 -0.047480 0.028009
v -0.346243 -0.047470 0.044409
v -0.404543 -0.040250 0.055208
v -0.385542 -0.035110 0.038208
v -0.332443 -0.047980 0.062309
v -0.197542 -0.077780 0.116009
v -0.197144 -0.110190 0.183310
v -0.228643 -0.113530 0.159309
v -0.158342 -0.072420 0.133209
v -0.404444 0.057670 0.052208
v -0.402443 0.007370 0.035109
v -0.426243 0.007230 0.042608
v -0.385542 0.053340 0.034609
v -0.394543 0.057670 -0.107792
v -0.452242 0.064040 -0.161491
v -0.477543 0.048830 -0.121992
v -0.359642 0.070320 -0.149191
v -0.175043 -0.050310 -0.117691
v -0.245142 -0.047770 -0.087391
v -0.206642 -0.049380 -0.147192
v -0.256643 -0.050360 -0.143791
v -0.247744 -0.044970 -0.015791
v -0.327843 -0.049230 -0.069092
v -0.245142 -0.047770 -0.087391
v -0.322443 -0.048640 -0.020092
v -0.247744 -0.044970 -0.015791
v -0.328342 -0.047480 0.028009
v -0.249243 -0.043610 0.063009
v -0.332443 -0.047980 0.062309
v -0.311943 -0.043360 0.103708
v -0.340042 -0.049480 0.088009
v -0.249243 -0.043610 0.063009
v -0.332443 -0.047980 0.062309
v -0.328342 -0.047480 0.028009
v -0.346243 -0.047470 0.044409
v -0.321342 -0.050330 -0.104891
v -0.327843 -0.049230 -0.069092
v -0.344442 -0.049210 -0.089291
v -0.245142 -0.047770 -0.087391
v -0.146643 -0.052150 -0.087591
v -0.098843 -0.054330 -0.024891
v -0.171442 -0.049820 -0.055391
v -0.082342 -0.054180 -0.085691
v -0.306543 -0.052070 -0.133192
v -0.245142 -0.047770 -0.087391
v -0.321342 -0.050330 -0.104891
v -0.256643 -0.050360 -0.143791
v -0.171642 -0.048350 0.015909
v -0.249243 -0.043610 0.063009
v -0.195143 -0.046610 -0.017691
v -0.247744 -0.044970 -0.015791
v -0.195143 -0.046610 -0.017691
v -0.247744 -0.044970 -0.015791
v -0.245142 -0.047770 -0.087391
v -0.171442 -0.049820 -0.055391
v -0.311142 -0.066510 0.202608
v -0.247242 -0.016820 0.173409
v -0.285343 -0.016820 0.134308
v -0.279743 -0.057390 0.230209
v -0.171642 -0.048350 0.015909
v -0.171442 -0.049820 -0.055391
v -0.098843 -0.054330 -0.024891
v -0.195143 -0.046610 -0.017691
v -0.402443 0.007370 0.035109
v -0.385542 -0.035110 0.038208
v -0.404543 -0.040250 0.055208
v -0.426243 0.007230 0.042608
v -0.359642 -0.052780 -0.149191
v -0.321342 -0.050330 -0.104891
v -0.394543 -0.040770 -0.107792
v -0.306543 -0.052070 -0.133192
v -0.340042 -0.049480 0.088009
v -0.398643 -0.051780 0.096708
v -0.404543 -0.040250 0.055208
v -0.332443 -0.047980 0.062309
v -0.171642 -0.048350 0.015909
v -0.171343 -0.056340 0.077509
v -0.249243 -0.043610 0.063009
v -0.146242 -0.051850 0.043209
v -0.495842 0.006920 0.051109
v -0.545643 0.039090 0.078009
v -0.490744 0.048830 0.065310
v -0.557943 0.006840 0.071709
v -0.506844 0.048860 0.011709
v -0.431543 0.007250 0.029308
v -0.409443 0.057930 0.017509
v -0.509842 0.006920 0.026209
v -0.266842 -0.154610 0.210508
v -0.321142 -0.156000 0.232109
v -0.299843 -0.133220 0.189209
v -0.299442 -0.172350 0.255409
v -0.431543 0.007250 0.029308
v -0.509842 0.006920 0.026209
v -0.506844 -0.034730 0.011909
v -0.409443 -0.040080 0.020309
v -0.490744 -0.034750 0.065609
v -0.545643 -0.025400 0.078009
v -0.495842 0.006920 0.051109
v -0.557943 0.006840 0.071709
v -0.452242 -0.049910 -0.161491
v -0.394543 -0.040770 -0.107792
v -0.477543 -0.034810 -0.121992
v -0.359642 -0.052780 -0.149191
v -0.171343 -0.056340 0.077509
v -0.239143 -0.062230 0.101809
v -0.249243 -0.043610 0.063009
v -0.197542 -0.077780 0.116009
v -0.490744 0.048830 0.065310
v -0.426243 0.007230 0.042608
v -0.495842 0.006920 0.051109
v -0.404444 0.057670 0.052208
v -0.384342 -0.035720 -0.089891
v -0.401842 0.007300 -0.089991
v -0.394543 -0.040770 -0.107792
v -0.422943 0.007180 -0.097891
v -0.318043 -0.099050 0.188408
v -0.329443 -0.101260 0.247108
v -0.311142 -0.066510 0.202608
v -0.336843 -0.133520 0.243608
v -0.404543 -0.040250 0.055208
v -0.490744 -0.034750 0.065609
v -0.426243 0.007230 0.042608
v -0.495842 0.006920 0.051109
v -0.262842 -0.092420 0.138309
v -0.266842 -0.154610 0.210508
v -0.299843 -0.133220 0.189209
v -0.228643 -0.113530 0.159309
v -0.239143 -0.062230 0.101809
v -0.228643 -0.113530 0.159309
v -0.197542 -0.077780 0.116009
v -0.261343 -0.047180 0.104509
v -0.285343 -0.016820 0.134308
v -0.270943 -0.033710 0.102209
v -0.282143 -0.061600 0.133308
v -0.249243 -0.043610 0.063009
v -0.261343 -0.047180 0.104509
v -0.239143 -0.062230 0.101809
v -0.336843 -0.133520 0.243608
v -0.299843 -0.133220 0.189209
v -0.321142 -0.156000 0.232109
v -0.318043 -0.099050 0.188408
v -0.532143 0.039090 -0.135391
v -0.489243 0.006910 -0.107691
v -0.477543 0.048830 -0.121992
v -0.547243 0.006840 -0.129292
v -0.311142 -0.066510 0.202608
v -0.282143 -0.061600 0.133308
v -0.318043 -0.099050 0.188408
v -0.285343 -0.016820 0.134308
v -0.262842 -0.092420 0.138309
v -0.261343 -0.047180 0.104509
v -0.239143 -0.062230 0.101809
v -0.282143 -0.061600 0.133308
v -0.262842 -0.092420 0.138309
v -0.318043 -0.099050 0.188408
v -0.282143 -0.061600 0.133308
v -0.299843 -0.133220 0.189209
v -0.477543 0.048830 -0.121992
v -0.422943 0.007180 -0.097891
v -0.394543 0.057670 -0.107792
v -0.489243 0.006910 -0.107691
v -0.422943 0.007180 -0.097891
v -0.489243 0.006910 -0.107691
v -0.477543 -0.034810 -0.121992
v -0.394543 -0.040770 -0.107792
v 0.966356 0.035330 0.052608
v 0.966356 0.009330 0.064409
v 0.991358 0.009330 -0.024092
v 0.966356 0.009330 -0.112692
v 0.966356 0.035330 -0.100792
v 0.991358 0.009330 -0.024092
v 0.966356 0.009330 0.064409
v 0.966356 -0.016660 0.052608
v 0.991358 0.009330 -0.024092
v 0.966356 -0.016660 -0.100792
v 0.966356 0.009330 -0.112692
v 0.991358 0.009330 -0.024092
v 0.966356 0.035330 -0.100792
v 0.966356 0.054350 -0.068392
v 0.991358 0.009330 -0.024092
v 0.966356 0.054350 0.020208
v 0.966356 0.035330 0.052608
v 0.991358 0.009330 -0.024092
v 0.966356 -0.016660 0.052608
v 0.966356 -0.035690 0.020208
v 0.991358 0.009330 -0.024092
v 0.966356 -0.035690 -0.068392
v 0.966356 -0.016660 -0.100792
v 0.991358 0.009330 -0.024092
v 0.966356 0.061320 -0.024092
v 0.966356 0.054350 0.020208
v 0.991358 0.009330 -0.024092
v -0.050943 0.019620 -0.054592
v -0.050943 0.006070 -0.059092
v -0.056242 0.006460 -0.024490
v -0.050943 -0.006760 0.005808
v -0.050943 0.006480 0.010309
v -0.056242 0.006460 -0.024490
v -0.050943 0.019780 0.005808
v -0.050943 0.025380 -0.007092
v -0.056242 0.006460 -0.024490
v -0.050943 -0.013040 -0.024391
v -0.050943 -0.012310 -0.007092
v -0.056242 0.006460 -0.024490
v -0.050943 -0.012340 -0.041592
v -0.050943 -0.013040 -0.024391
v -0.056242 0.006460 -0.024490
v -0.050943 0.026180 -0.024292
v -0.050943 0.025360 -0.041491
v -0.056242 0.006460 -0.024490
v -0.050943 0.025380 -0.007092
v -0.050943 0.026180 -0.024292
v -0.056242 0.006460 -0.024490
v -0.027742 0.005460 -0.115292
v -0.050943 0.006070 -0.059092
v -0.027742 0.040890 -0.103291
v -0.050943 0.019620 -0.054592
v -0.027742 -0.028090 0.054508
v -0.050943 0.006480 0.010309
v -0.050943 -0.006760 0.005808
v -0.027742 0.006520 0.066408
v 0.966356 0.009330 0.064409
v 0.922657 0.049510 0.094408
v 0.922657 0.009330 0.112808
v 0.966356 0.035330 0.052608
v 0.922657 0.049510 -0.142691
v 0.966356 0.009330 -0.112692
v 0.922657 0.009330 -0.160992
v 0.966356 0.035330 -0.100792
v 0.966356 0.009330 0.064409
v 0.922657 -0.030840 0.094408
v 0.966356 -0.016660 0.052608
v 0.922657 0.009330 0.112808
v 0.922657 0.009330 -0.160992
v 0.966356 0.009330 -0.112692
v 0.922657 -0.030840 -0.142691
v 0.966356 -0.016660 -0.100792
v -0.050943 0.025360 -0.041491
v -0.027742 0.055900 -0.069191
v -0.050943 0.019620 -0.054592
v -0.056242 0.006460 -0.024490
v -0.027742 0.040890 -0.103291
v -0.027742 -0.042590 0.020708
v -0.050943 -0.006760 0.005808
v -0.050943 -0.012310 -0.007092
v -0.027742 0.055950 0.020809
v -0.050943 0.019780 0.005808
v -0.027742 0.041310 0.054508
v -0.050943 0.025380 -0.007092
v -0.027742 0.006520 0.066408
v 0.016758 0.006540 0.089809
v -0.027742 0.041310 0.054508
v -0.050943 0.006480 0.010309
v -0.050943 0.019780 0.005808
v -0.056242 0.006460 -0.024490
v 0.019056 0.005210 -0.138691
v 0.017656 -0.037900 -0.123692
v -0.027742 -0.028800 -0.103291
v -0.050943 0.006070 -0.059092
v -0.027742 0.005460 -0.115292
v -0.050943 -0.007030 -0.054592
v -0.056242 0.006460 -0.024490
v -0.027742 -0.042590 0.020708
v -0.050943 -0.012310 -0.007092
v -0.027742 -0.044510 -0.024391
v -0.027742 0.058030 -0.024191
v -0.027742 0.055900 -0.069191
v -0.050943 0.025360 -0.041491
v -0.027742 0.058030 -0.024191
v -0.050943 0.025360 -0.041491
v -0.050943 0.026180 -0.024292
v 0.966356 0.035330 -0.100792
v 0.922657 0.078910 -0.092590
v 0.966356 0.054350 -0.068392
v 0.922657 0.049510 -0.142691
v 0.922657 0.049510 0.094408
v 0.966356 0.035330 0.052608
v 0.922657 0.078910 0.044310
v 0.966356 0.054350 0.020208
v 0.922657 -0.060250 0.044310
v 0.966356 -0.016660 0.052608
v 0.922657 -0.030840 0.094408
v 0.966356 -0.035690 0.020208
v 0.966356 -0.016660 -0.100792
v 0.966356 -0.035690 -0.068392
v 0.922657 -0.060250 -0.092590
v 0.922657 -0.030840 -0.142691
v -0.027742 -0.042590 0.020708
v 0.018257 -0.055250 0.032410
v -0.027742 -0.028090 0.054508
v -0.050943 -0.006760 0.005808
v -0.050943 -0.012310 -0.007092
v -0.056242 0.006460 -0.024490
v 0.018457 -0.055350 -0.081091
v -0.027742 -0.028800 -0.103291
v 0.017656 -0.037900 -0.123692
v -0.027742 -0.042670 -0.069490
v -0.050943 -0.007030 -0.054592
v -0.050943 -0.012340 -0.041592
v -0.056242 0.006460 -0.024490
v -0.027742 -0.042670 -0.069490
v 0.017057 -0.057660 -0.024391
v -0.027742 -0.044510 -0.024391
v -0.050943 -0.012340 -0.041592
v -0.050943 -0.013040 -0.024391
v -0.027742 0.055950 0.020809
v 0.017258 0.071340 -0.024092
v -0.027742 0.058030 -0.024191
v -0.050943 0.025380 -0.007092
v -0.050943 0.026180 -0.024292
v -0.027742 -0.028090 0.054508
v 0.016758 0.006540 0.089809
v -0.027742 0.006520 0.066408
v 0.016256 -0.037010 0.074808
v 0.016758 0.006540 0.089809
v 0.016256 0.050300 0.074808
v -0.027742 0.041310 0.054508
v -0.027742 0.040890 -0.103291
v 0.019056 0.005210 -0.138691
v -0.027742 0.005460 -0.115292
v 0.017258 0.049790 -0.123692
v -0.027742 0.005460 -0.115292
v 0.019056 0.005210 -0.138691
v -0.027742 -0.028800 -0.103291
v 0.847157 0.009330 0.139509
v 0.922657 0.049510 0.094408
v 0.847157 0.057360 0.117609
v 0.922657 0.009330 0.112808
v 0.922657 -0.030840 0.094408
v 0.847157 0.009330 0.139509
v 0.847157 -0.038690 0.117609
v 0.922657 0.009330 0.112808
v 0.847157 0.009330 -0.187792
v 0.922657 -0.030840 -0.142691
v 0.847157 -0.038690 -0.165791
v 0.922657 0.009330 -0.160992
v 0.922657 0.078910 -0.092590
v 0.847157 0.105380 -0.024092
v 0.922657 0.089680 -0.024092
v 0.847157 0.092510 -0.105892
v 0.922657 0.089680 -0.024092
v 0.966356 0.054350 -0.068392
v 0.966356 0.061320 -0.024092
v 0.966356 0.061320 -0.024092
v 0.991358 0.009330 -0.024092
v 0.922657 0.049510 -0.142691
v 0.847157 0.092510 -0.105892
v 0.922657 0.078910 -0.092590
v 0.847157 0.057360 -0.165791
v 0.922657 0.049510 -0.142691
v 0.847157 0.009330 -0.187792
v 0.922657 0.009330 -0.160992
v 0.016256 -0.037010 0.074808
v -0.027742 -0.028090 0.054508
v 0.018257 -0.055250 0.032410
v 0.018257 0.068730 0.032410
v -0.027742 0.041310 0.054508
v 0.016256 0.050300 0.074808
v -0.027742 0.055950 0.020809
v -0.027742 0.040890 -0.103291
v 0.018757 0.068670 -0.080791
v 0.017258 0.049790 -0.123692
v -0.027742 0.055900 -0.069191
v -0.027742 -0.028800 -0.103291
v 0.018457 -0.055350 -0.081091
v -0.027742 -0.042670 -0.069490
v 0.847157 0.057360 0.117609
v 0.922657 0.049510 0.094408
v 0.847157 0.092510 0.057709
v 0.922657 0.078910 0.044310
v -0.027742 -0.044510 -0.024391
v 0.017057 -0.057660 -0.024391
v -0.027742 -0.042590 0.020708
v 0.018257 -0.055250 0.032410
v -0.050943 -0.013040 -0.024391
v -0.050943 -0.012310 -0.007092
v 0.847157 -0.073850 0.057709
v 0.922657 -0.030840 0.094408
v 0.847157 -0.038690 0.117609
v 0.922657 -0.060250 0.044310
v 0.922657 -0.030840 -0.142691
v 0.847157 -0.073850 -0.105892
v 0.847157 -0.038690 -0.165791
v 0.922657 -0.060250 -0.092590
v 0.017057 -0.057660 -0.024391
v -0.027742 -0.042670 -0.069490
v 0.018457 -0.055350 -0.081091
v -0.027742 0.055900 -0.069191
v 0.017258 0.071340 -0.024092
v 0.018757 0.068670 -0.080791
v -0.027742 0.058030 -0.024191
v 0.017258 0.071340 -0.024092
v -0.027742 0.055950 0.020809
v 0.018257 0.068730 0.032410
v 0.847157 0.105380 -0.024092
v 0.791958 0.103610 -0.024092
v 0.791557 0.094110 0.048409
v 0.847157 0.092510 0.057709
v 0.847157 0.105380 -0.024092
v 0.922657 0.078910 0.044310
v 0.922657 0.089680 -0.024092
v 0.922657 0.089680 -0.024092
v 0.966356 0.054350 0.020208
v 0.966356 0.061320 -0.024092
v 0.847157 -0.086710 -0.024092
v 0.725258 -0.067410 -0.108591
v 0.847157 -0.073850 -0.105892
v 0.714956 -0.078110 -0.024092
v 0.922657 -0.060250 -0.092590
v 0.847157 -0.086710 -0.024092
v 0.922657 -0.071010 -0.024092
v 0.966356 -0.035690 -0.068392
v 0.922657 -0.071010 -0.024092
v 0.966356 -0.042650 -0.024092
v 0.966356 -0.042650 -0.024092
v 0.991358 0.009330 -0.024092
v 0.847157 -0.086710 -0.024092
v 0.725258 -0.067410 0.060308
v 0.714956 -0.078110 -0.024092
v 0.847157 -0.073850 0.057709
v 0.847157 -0.086710 -0.024092
v 0.922657 -0.060250 0.044310
v 0.922657 -0.071010 -0.024092
v 0.922657 -0.071010 -0.024092
v 0.966356 -0.035690 0.020208
v 0.966356 -0.042650 -0.024092
v 0.966356 -0.042650 -0.024092
v 0.991358 0.009330 -0.024092
v 0.847157 0.009330 -0.187792
v 0.847157 -0.038690 -0.165791
v 0.762957 0.009210 -0.183491
v 0.743057 -0.042090 -0.159691
v 0.847157 -0.038690 0.117609
v 0.762358 0.009210 0.135309
v 0.743057 -0.042090 0.111408
v 0.847157 0.009330 0.139509
v 0.847157 0.009330 0.139509
v 0.781458 0.062380 0.107309
v 0.762358 0.009210 0.135309
v 0.847157 0.057360 0.117609
v 0.847157 0.009330 -0.187792
v 0.781458 0.062380 -0.152290
v 0.847157 0.057360 -0.165791
v 0.762957 0.009210 -0.183491
v 0.847157 -0.038690 -0.165791
v 0.847157 -0.073850 -0.105892
v 0.743057 -0.042090 -0.159691
v 0.725258 -0.067410 -0.108591
v 0.847157 -0.073850 0.057709
v 0.743057 -0.042090 0.111408
v 0.725258 -0.067410 0.060308
v 0.847157 -0.038690 0.117609
v 0.019056 0.005210 -0.138691
v 0.144257 -0.036510 -0.121891
v 0.017656 -0.037900 -0.123692
v 0.147457 0.006480 -0.136591
v 0.781458 0.062380 0.107309
v 0.847157 0.092510 0.057709
v 0.791557 0.094110 0.048409
v 0.847157 0.057360 0.117609
v 0.653057 0.058220 -0.135691
v 0.791557 0.094110 -0.096592
v 0.781458 0.062380 -0.152290
v 0.652958 0.079940 -0.087690
v 0.643757 0.008580 -0.154892
v 0.517057 0.051880 -0.126692
v 0.510656 0.006730 -0.142391
v 0.653057 0.058220 -0.135691
v 0.652958 0.079940 -0.087690
v 0.511858 0.071630 -0.082991
v 0.510656 0.006730 -0.142391
v 0.380056 0.050160 -0.123491
v 0.371357 0.006470 -0.138391
v 0.517057 0.051880 -0.126692
v 0.380056 0.050160 -0.123491
v 0.371357 0.069280 -0.081291
v 0.260057 0.049590 -0.122190
v 0.371357 0.006470 -0.138391
v 0.260057 0.049590 -0.122190
v 0.253757 0.006480 -0.136890
v 0.253757 0.068450 -0.080492
v 0.149357 0.049470 -0.121891
v 0.260057 0.049590 -0.122190
v 0.147457 0.006480 -0.136591
v 0.017258 0.049790 -0.123692
v 0.019056 0.005210 -0.138691
v 0.018757 0.068670 -0.080791
v 0.017258 0.049790 -0.123692
v 0.147457 0.068280 -0.080391
v 0.243357 0.071150 -0.024092
v 0.781458 0.062380 -0.152290
v 0.847157 0.092510 -0.105892
v 0.847157 0.057360 -0.165791
v 0.791557 0.094110 -0.096592
v 0.496656 0.006730 0.094210
v 0.349157 0.050160 0.075308
v 0.349157 0.006470 0.090208
v 0.497658 0.051880 0.078508
v 0.648558 0.079940 0.039509
v 0.646557 0.058220 0.087509
v 0.498457 0.071630 0.034809
v 0.498457 0.071630 0.034809
v 0.350157 0.069280 0.033110
v 0.349157 0.050160 0.075308
v 0.497658 0.051880 0.078508
v 0.237858 0.049590 0.074009
v 0.349157 0.006470 0.090208
v 0.237858 0.006480 0.088709
v 0.791557 0.094110 -0.096592
v 0.847157 0.105380 -0.024092
v 0.847157 0.092510 -0.105892
v 0.791958 0.103610 -0.024092
v 0.791557 0.094110 0.048409
v 0.646557 0.058220 0.087509
v 0.781458 0.062380 0.107309
v 0.648558 0.079940 0.039509
v 0.497658 0.051880 0.078508
v 0.639057 0.008580 0.106709
v 0.496656 0.006730 0.094210
v 0.743057 -0.042090 0.111408
v 0.639057 0.008580 0.106709
v 0.629858 -0.041060 0.091709
v 0.762358 0.009210 0.135309
v 0.762358 0.009210 0.135309
v 0.646557 0.058220 0.087509
v 0.639057 0.008580 0.106709
v 0.781458 0.062380 0.107309
v 0.653057 0.058220 -0.135691
v 0.781458 0.062380 -0.152290
v 0.762957 0.009210 -0.183491
v 0.643757 0.008580 -0.154892
v 0.762957 0.009210 -0.183491
v 0.743057 -0.042090 -0.159691
v 0.643757 0.008580 -0.154892
v 0.631456 -0.041060 -0.139891
v 0.142557 -0.036510 0.073709
v 0.237858 -0.036630 0.074009
v 0.237858 0.006480 0.088709
v 0.142557 0.006480 0.088409
v 0.016758 0.006540 0.089809
v 0.142557 -0.036510 0.073709
v 0.016256 -0.037010 0.074808
v 0.018257 -0.055250 0.032410
v 0.016256 -0.037010 0.074808
v 0.142557 -0.055320 0.032108
v 0.237858 -0.055500 0.032309
v 0.349157 -0.056330 0.033110
v 0.349157 -0.037220 0.075308
v 0.237858 -0.058190 -0.024092
v 0.142557 -0.058010 -0.024092
v 0.018257 -0.055250 0.032410
v 0.017057 -0.057660 -0.024391
v 0.349157 -0.059060 -0.024092
v 0.494556 -0.061000 -0.024092
v 0.494757 -0.058180 0.035309
v 0.349157 0.006470 0.090208
v 0.237858 -0.036630 0.074009
v 0.237858 0.006480 0.088709
v 0.495558 -0.038420 0.079008
v 0.349157 0.006470 0.090208
v 0.496656 0.006730 0.094210
v 0.623756 -0.062780 0.043108
v 0.629858 -0.041060 0.091709
v 0.494757 -0.058180 0.035309
v 0.349157 -0.037220 0.075308
v 0.495558 -0.038420 0.079008
v 0.629858 -0.041060 0.091709
v 0.639057 0.008580 0.106709
v 0.621857 -0.065880 -0.024092
v 0.623756 -0.062780 0.043108
v 0.350157 -0.056330 -0.081291
v 0.349157 -0.059060 -0.024092
v 0.238558 -0.055500 -0.080492
v 0.243357 -0.036630 -0.122190
v 0.494556 -0.061000 -0.024092
v 0.495358 -0.058180 -0.083490
v 0.356857 -0.037220 -0.123491
v 0.253757 0.006480 -0.136890
v 0.356857 -0.037220 -0.123491
v 0.371357 0.006470 -0.138391
v 0.495358 -0.058180 -0.083490
v 0.621857 -0.065880 -0.024092
v 0.623957 -0.062780 -0.091291
v 0.500357 -0.038420 -0.127192
v 0.371357 0.006470 -0.138391
v 0.500357 -0.038420 -0.127192
v 0.510656 0.006730 -0.142391
v 0.631456 -0.041060 -0.139891
v 0.643757 0.008580 -0.154892
v 0.500357 -0.038420 -0.127192
v 0.500357 -0.038420 -0.127192
v 0.623957 -0.062780 -0.091291
v 0.631456 -0.041060 -0.139891
v 0.631456 -0.041060 -0.139891
v 0.743057 -0.042090 -0.159691
v 0.725258 -0.067410 -0.108591
v 0.623957 -0.062780 -0.091291
v 0.743057 -0.042090 0.111408
v 0.629858 -0.041060 0.091709
v 0.725258 -0.067410 0.060308
v 0.623756 -0.062780 0.043108
v 0.147457 0.006480 -0.136591
v 0.243357 -0.036630 -0.122190
v 0.144257 -0.036510 -0.121891
v 0.253757 0.006480 -0.136890
v 0.017656 -0.037900 -0.123692
v 0.018457 -0.055350 -0.081091
v 0.142757 -0.055320 -0.080391
v 0.237858 -0.058190 -0.024092
v 0.142557 -0.058010 -0.024092
v 0.018457 -0.055350 -0.081091
v 0.017057 -0.057660 -0.024391
v 0.238558 0.068450 0.032309
v 0.142757 0.068280 0.032108
v 0.237858 0.049590 0.074009
v 0.144257 0.070970 -0.024092
v 0.017258 0.071340 -0.024092
v 0.018257 0.068730 0.032410
v 0.142557 0.049470 0.073709
v 0.018257 0.068730 0.032410
v 0.016256 0.050300 0.074808
v 0.144257 0.070970 -0.024092
v 0.018757 0.068670 -0.080791
v 0.017258 0.071340 -0.024092
v 0.356857 0.072010 -0.024092
v 0.502657 0.074460 -0.024092
v 0.511858 0.071630 -0.082991
v 0.649357 0.083050 -0.024092
v 0.652958 0.079940 -0.087690
v 0.498457 0.071630 0.034809
v 0.502657 0.074460 -0.024092
v 0.243357 0.071150 -0.024092
v 0.648558 0.079940 0.039509
v 0.502657 0.074460 -0.024092
v 0.649357 0.083050 -0.024092
v 0.648558 0.079940 0.039509
v 0.791958 0.103610 -0.024092
v 0.791557 0.094110 0.048409
v 0.349157 0.050160 0.075308
v 0.237858 0.049590 0.074009
v 0.142557 0.049470 0.073709
v 0.237858 0.006480 0.088709
v 0.142557 0.006480 0.088409
v 0.016758 0.006540 0.089809
v 0.142557 0.049470 0.073709
v 0.016256 0.050300 0.074808
v 0.623957 -0.062780 -0.091291
v 0.725258 -0.067410 -0.108591
v 0.714956 -0.078110 -0.024092
v 0.621857 -0.065880 -0.024092
v 0.621857 -0.065880 -0.024092
v 0.714956 -0.078110 -0.024092
v 0.623756 -0.062780 0.043108
v 0.725258 -0.067410 0.060308
v 0.652958 0.079940 -0.087690
v 0.791958 0.103610 -0.024092
v 0.791557 0.094110 -0.096592
v 0.649357 0.083050 -0.024092
vn 0.9591 -0.0000 -0.2830
vn 1.0000 -0.0000 -0.0000
vn 0.9444 -0.2439 -0.2204
vn 0.9591 -0.0000 0.2830
vn 0.9444 0.2439 0.2204
vn 0.9160 -0.3948 -0.0711
vn 1.0000 -0.0001 -0.0000
vn 0.9082 -0.4185 -0.0000
vn 0.6305 0.7566 0.1734
vn 0.9444 0.2440 0.2203
vn 0.9155 0.3946 0.0789
vn 0.7106 0.4895 0.5053
vn 0.9591 -0.0000 0.2831
vn 0.7492 -0.0000 0.6624
vn 0.7107 -0.4975 0.4975
vn 0.3228 -0.6771 0.6613
vn 0.2203 -0.9599 0.1731
vn 0.7107 -0.4974 0.4975
vn 0.9426 -0.2513 0.2199
vn -0.5652 0.7929 -0.2276
vn -0.4185 -0.0000 -0.9082
vn -0.9541 -0.0000 -0.2995
vn -0.2682 0.6152 -0.7414
vn 0.2902 -0.2431 0.9256
vn -0.2202 -0.9673 0.1258
vn 0.3778 -0.8185 0.4329
vn -0.5455 -0.3557 0.7589
vn 0.2132 -0.9552 -0.2053
vn 0.7011 -0.4963 -0.5120
vn 0.6305 -0.7566 -0.1734
vn 0.9444 -0.2440 -0.2203
vn 0.6304 0.7566 0.1734
vn 0.1977 0.9803 -0.0000
vn 0.2291 0.9479 0.2212
vn 0.6012 0.7991 -0.0000
vn 0.6013 0.7990 -0.0000
vn 0.9082 0.4186 -0.0000
vn 0.9082 0.4185 -0.0000
vn 0.9155 0.3946 -0.0789
vn 0.6305 0.7566 -0.1734
vn 0.9155 0.3946 -0.0790
vn 0.9444 0.2440 -0.2204
vn 0.9444 0.2439 -0.2203
vn 0.7078 0.4876 -0.5112
vn 0.7417 -0.0000 -0.6707
vn 0.2291 0.9479 -0.2212
vn 0.3162 -0.0000 -0.9487
vn 0.2924 0.6480 -0.7033
vn -0.2669 -0.6201 -0.7378
vn -0.5599 -0.7964 -0.2286
vn -0.9541 0.0001 -0.2996
vn 0.3163 -0.0000 -0.9487
vn 0.6305 0.7566 -0.1733
vn 0.2291 0.9479 -0.2211
vn 0.9154 0.3946 -0.0789
vn 0.9155 0.3945 -0.0789
vn 0.9444 0.2440 -0.2203
vn 0.7078 0.4876 -0.5111
vn 0.9444 0.2439 -0.2204
vn -0.5272 -0.0000 0.8498
vn -0.9920 -0.0000 0.1259
vn -0.3713 -0.6242 0.6874
vn -0.6214 -0.7787 0.0865
vn 0.6276 -0.7609 0.1647
vn 0.1734 -0.9849 -0.0000
vn 0.5975 -0.8019 -0.0000
vn 0.9160 -0.3949 0.0711
vn 0.9160 -0.3948 0.0711
vn 0.5974 -0.8019 -0.0000
vn 0.2132 -0.9552 -0.2052
vn 0.9160 -0.3949 -0.0711
vn 0.9082 -0.4186 -0.0000
vn 0.6305 -0.7566 -0.1733
vn 0.2823 -0.6585 -0.6977
vn 0.9444 -0.2440 -0.2204
vn 0.7106 0.4895 0.5054
vn 0.2996 0.6465 0.7017
vn 0.3538 -0.0079 0.9353
vn 0.7491 -0.0000 0.6624
vn 0.7106 0.4896 0.5053
vn 0.2996 0.6465 0.7016
vn 0.9444 0.2440 0.2204
vn 0.9154 0.3946 0.0789
vn 0.9155 0.3945 0.0789
vn -0.4560 0.4717 0.7547
vn 0.2902 -0.2432 0.9255
vn 0.1421 0.3947 0.9078
vn -0.5455 -0.3558 0.7589
vn 0.6276 -0.7609 0.1648
vn 0.7107 -0.4975 0.4974
vn 0.9426 -0.2514 0.2199
vn 0.3537 -0.0079 0.9353
vn 0.3228 -0.6771 0.6614
vn -0.5356 0.6775 0.5041
vn -0.9540 -0.0000 -0.2997
vn -0.7816 -0.0000 0.6238
vn -0.5653 0.7929 -0.2277
vn 0.3778 -0.8185 0.4328
vn 0.6603 -0.7390 0.1336
vn 0.7546 -0.0708 0.6524
vn 0.0236 -0.0000 -0.9997
vn -0.4186 -0.0000 -0.9082
vn -0.0314 0.6747 -0.7375
vn -0.2681 0.6152 -0.7414
vn -0.1342 0.9864 -0.0947
vn -0.0314 0.6747 -0.7374
vn -0.5652 0.7929 -0.2277
vn 0.1021 -0.7228 -0.6835
vn -0.0158 -0.6870 -0.7265
vn 0.1580 -0.0079 -0.9874
vn -0.2669 -0.6200 -0.7378
vn 0.1733 -0.0079 -0.9848
vn 0.2444 -0.0079 -0.9696
vn 0.1731 0.7158 -0.6765
vn 0.2046 0.5822 -0.7869
vn 0.0787 0.6686 -0.7394
vn 0.2045 0.5822 -0.7869
vn 0.2444 -0.0078 -0.9696
vn -0.3694 0.6208 0.6915
vn -0.9920 -0.0001 0.1260
vn -0.6214 0.7787 0.0865
vn -0.1579 0.9867 0.0395
vn -0.6214 0.7787 0.0866
vn -0.0630 0.6776 0.7327
vn 0.7546 -0.0707 0.6524
vn 0.3233 0.5678 0.7570
vn 0.1265 -0.7509 -0.6482
vn 0.1892 -0.6621 -0.7251
vn 0.1734 -0.0079 -0.9848
vn -0.4177 0.6305 -0.6542
vn -1.0000 -0.0000 0.0001
vn -0.6150 0.7885 -0.0000
vn -0.6063 -0.0000 -0.7953
vn -0.1580 0.9874 -0.0000
vn -0.1501 0.6872 -0.7108
vn 0.6779 -0.0552 0.7331
vn 0.2900 -0.8544 0.4311
vn 0.3303 -0.0079 0.9438
vn 0.6047 -0.7933 0.0706
vn -0.6237 -0.7184 -0.3080
vn -0.9807 -0.1898 0.0474
vn 0.0787 0.6686 -0.7395
vn -0.1023 0.9835 -0.1495
vn 0.0786 0.6686 -0.7394
vn -0.1341 0.9864 -0.0947
vn -1.0000 -0.0000 -0.0000
vn -0.4178 -0.6385 -0.6464
vn -0.6151 -0.7885 -0.0000
vn -0.1337 -0.9910 -0.0000
vn -0.6150 -0.7885 -0.0000
vn -0.1338 -0.7008 -0.7007
vn 0.3158 0.5604 0.7657
vn 0.6779 -0.0551 0.7331
vn 0.3935 0.4879 0.7791
vn 0.8112 -0.0472 0.5828
vn 0.8112 -0.0473 0.5828
vn 0.7071 -0.7071 -0.0078
vn 0.6603 -0.7390 0.1337
vn -0.3693 0.6208 0.6915
vn -0.0158 -0.0078 0.9998
vn -0.0630 0.6776 0.7328
vn -0.5454 -0.3558 0.7589
vn -0.8589 0.4412 0.2600
vn 0.3303 -0.0078 0.9438
vn 0.3935 0.4879 0.7792
vn 0.2128 0.7329 0.6462
vn 0.3234 0.5678 0.7570
vn 0.3158 0.5604 0.7656
vn 0.2046 0.5823 -0.7868
vn 0.0236 0.9460 -0.3233
vn 0.1102 0.9127 -0.3935
vn -0.0079 0.9975 -0.0707
vn 0.1102 0.9127 -0.3934
vn 0.0237 0.9460 -0.3232
vn 0.1178 0.9586 -0.2592
vn 0.1179 0.9586 -0.2593
vn 0.1730 0.7159 -0.6765
vn -0.0157 -0.0079 0.9998
vn -0.3714 -0.6242 0.6874
vn -0.0471 -0.6904 0.7219
vn -0.5271 -0.0000 0.8498
vn -0.3152 0.8274 0.4649
vn -0.9846 -0.0236 -0.1733
vn -0.4880 0.8659 -0.1102
vn -0.3373 -0.0078 0.9414
vn -0.2207 0.7570 -0.6150
vn -0.4880 0.8658 -0.1102
vn -0.1733 -0.0079 -0.9848
vn -0.4199 0.6338 0.6496
vn -0.6062 -0.0000 0.7953
vn -0.6151 0.7885 -0.0000
vn -0.1580 0.9874 0.0001
vn -0.1493 0.6913 0.7070
vn 0.1580 -0.0080 -0.9874
vn 0.1892 -0.6621 -0.7252
vn 0.1022 -0.7228 -0.6835
vn 0.0395 -0.9867 -0.1579
vn 0.0550 -0.9740 -0.2200
vn 0.0314 -0.9895 -0.1414
vn 0.1264 -0.7510 -0.6481
vn -0.5039 0.6377 -0.5826
vn -0.9920 -0.0000 0.1260
vn -0.7032 -0.0000 -0.7110
vn -0.1579 0.9867 0.0394
vn -0.2207 0.6936 -0.6857
vn -0.6063 -0.0000 0.7952
vn -0.4178 -0.6385 0.6464
vn -0.1337 -0.9910 0.0001
vn -0.1416 -0.6921 0.7078
vn -0.1577 -0.7966 -0.5836
vn -0.3861 -0.9216 -0.0394
vn -0.1734 -0.0079 -0.9848
vn -0.1260 -0.0078 -0.9920
vn -0.6063 -0.0000 -0.7952
vn -0.1501 0.6871 -0.7109
vn -0.1260 -0.0079 -0.9920
vn -0.1339 -0.7007 -0.7008
vn 0.0236 0.9460 -0.3232
vn -0.0863 0.9812 -0.1727
vn 0.0551 0.6614 0.7480
vn 0.1104 -0.0236 0.9936
vn -0.0157 -0.0078 0.9998
vn -0.5039 -0.6377 -0.5826
vn -0.1259 -0.9913 0.0393
vn -0.1969 -0.7089 -0.6773
vn 0.1258 0.2202 0.9673
vn -0.5744 0.0236 0.8183
vn -0.1020 0.4003 0.9107
vn 0.1415 0.1729 0.9747
vn 0.1182 0.6145 0.7800
vn 0.0314 0.6989 0.7146
vn 0.1104 -0.0237 0.9936
vn 0.1022 -0.7073 0.6995
vn 0.6047 -0.7933 0.0707
vn 0.7071 -0.7071 -0.0079
vn 0.6048 -0.7932 0.0707
vn 0.0079 -0.9715 -0.2370
vn 0.2900 -0.8544 0.4312
vn 0.1021 -0.8718 -0.4791
vn -0.5744 0.0236 0.8182
vn 0.1422 -0.0632 0.9878
vn 0.1176 -0.5882 0.8001
vn -0.1341 0.9857 -0.1025
vn -0.2208 0.7570 -0.6150
vn -0.2746 0.9570 -0.0941
vn 0.0706 0.9810 -0.1805
vn -0.1259 -0.9913 0.0394
vn -0.0471 -0.6905 0.7218
vn 0.2901 -0.8544 0.4311
vn 0.1177 -0.8944 -0.4315
vn -0.2202 -0.9673 0.1259
vn -0.0392 -0.9961 -0.0785
vn -0.1179 -0.9899 -0.0786
vn -0.5598 -0.7964 -0.2287
vn 0.1422 -0.0633 0.9878
vn 0.1021 -0.7073 0.6995
vn 0.1177 -0.5882 0.8001
vn 0.1265 0.8067 0.5773
vn -0.0079 0.6707 0.7417
vn 0.1654 0.6934 0.7013
vn 0.0314 0.6989 0.7145
vn -0.2768 0.6089 0.7434
vn -0.1021 0.4004 0.9106
vn 0.1182 0.6146 0.7800
vn 0.0078 0.9569 0.2903
vn 0.1103 0.8905 0.4413
vn -0.1501 0.6871 -0.7108
vn -0.1733 -0.0078 -0.9848
vn -0.1259 -0.0079 -0.9920
vn 0.0707 0.9970 -0.0314
vn 0.1026 0.9867 -0.1263
vn 0.0706 0.9810 -0.1806
vn 0.0629 0.9980 -0.0000
vn -0.1023 0.9922 0.0709
vn -0.1578 0.9867 0.0395
vn -0.1022 0.9903 0.0944
vn -0.1024 0.9922 0.0709
vn 0.0078 0.9569 0.2902
vn 0.3157 0.5604 0.7657
vn -0.2768 0.6090 0.7434
vn -0.2837 0.7488 0.5991
vn -0.1337 0.9910 -0.0000
vn -0.1182 0.9930 -0.0000
vn -0.1338 -0.7007 -0.7008
vn 0.0710 0.9778 0.1972
vn 0.3537 -0.0078 0.9353
vn -0.1500 0.6872 -0.7108
vn -0.1343 0.9871 0.0868
vn -0.4815 0.8761 0.0237
vn -0.2685 0.9632 0.0157
vn -0.2280 0.7626 0.6054
vn -0.1491 0.9887 -0.0157
vn -0.2756 0.8034 0.5278
vn 0.3157 0.5605 0.7656
vn -0.2837 0.7488 0.5990
vn -0.0000 -0.9888 -0.1491
vn 0.2822 -0.6585 -0.6977
vn 0.2131 -0.9552 -0.2053
vn 0.1733 -0.9849 -0.0000
vn 0.2131 -0.9552 -0.2052
vn -0.0393 -0.9992 -0.0000
vn 0.2822 -0.6584 -0.6977
vn 0.1264 -0.7509 -0.6482
vn 0.3162 -0.0001 -0.9487
vn -0.1340 0.9857 -0.1025
vn -0.2745 0.9570 -0.0941
vn 0.1023 0.9602 0.2598
vn 0.0711 0.9160 0.3948
vn 0.2127 0.7329 0.6462
vn 0.1023 0.9602 0.2597
vn 0.1022 0.9823 0.1572
vn 0.0706 0.9967 0.0392
vn 0.1021 0.9823 0.1572
vn 0.0710 0.9778 0.1971
vn 0.2291 0.9480 0.2212
vn 0.1976 0.9803 -0.0000
vn 0.0706 0.9967 0.0393
vn 0.1023 0.9603 0.2597
vn 0.1021 0.9823 0.1571
vn 0.0079 0.9930 0.1182
vn -0.1021 0.4004 0.9107
vn -0.2838 0.7487 0.5990
vn -0.5743 0.0236 0.8183
vn 0.2290 0.9480 -0.2212
vn 0.0706 0.9970 -0.0314
vn 0.0551 0.9985 -0.0000
vn 0.0550 0.9985 -0.0000
vn -0.0157 0.9999 -0.0000
vn -0.0078 0.9975 -0.0707
vn -0.1343 0.9871 0.0869
vn -0.2280 0.7626 0.6053
vn -0.2746 0.9569 -0.0941
vn -0.1413 0.9892 -0.0392
vn -0.1021 0.9903 0.0943
vn 0.0789 0.9155 0.3946
vn -0.1342 0.9871 0.0868
vn -0.2684 0.9632 0.0158
vn -0.1413 0.9892 -0.0393
vn -0.2902 0.7609 -0.5804
vn -0.1023 0.9835 -0.1494
vn -0.1022 0.9903 0.0943
vn -0.1024 0.9922 0.0708
vn 0.1177 -0.5883 0.8000
vn 0.1495 -0.9202 0.3618
vn 0.1892 -0.8278 0.5282
vn -0.0158 0.9999 -0.0000
vn -0.1342 0.9871 0.0869
vn 0.0079 0.9569 0.2902
vn 0.1182 0.6146 0.7799
vn 0.1181 0.6145 0.7800
vn 0.0552 0.6614 0.7480
vn 0.0711 0.9160 0.3949
vn 0.0789 0.9154 0.3946
vn 0.1265 0.8066 0.5773
vn 0.1655 0.6934 0.7013
vn 0.3935 0.4880 0.7791
vn -0.5744 0.0235 0.8183
vn -0.4089 -0.9121 0.0314
vn 0.0079 -0.9992 -0.0394
vn -0.9961 -0.0157 0.0863
vn -0.1885 0.0157 0.9819
vn -0.1492 0.6913 0.7070
vn -0.1337 0.9910 0.0001
vn -0.1736 -0.7812 0.5996
vn -0.9961 -0.0156 0.0863
vn -0.3468 -0.9379 -0.0000
vn 0.0079 -0.9962 0.0863
vn 0.2203 -0.9599 0.1732
vn -0.3860 -0.9217 -0.0394
vn -0.0158 -0.9994 -0.0314
vn -0.1414 -0.9899 -0.0078
vn -0.2352 0.7290 0.6428
vn -0.5357 0.6774 0.5042
vn 0.1494 -0.9202 0.3618
vn 0.0392 -0.9961 0.0785
vn -0.0157 -0.9988 0.0472
vn -0.4089 -0.9120 0.0314
vn -0.1021 -0.9903 -0.0943
vn -0.1337 0.0079 0.9910
vn -0.6063 -0.0000 0.7953
vn -0.2902 0.7608 -0.5804
vn -0.1023 0.9922 0.0708
vn 0.1656 -0.8278 -0.5360
vn 0.6604 -0.7390 0.1336
vn -0.0079 -0.9980 0.0628
vn -0.1736 -0.7812 0.5997
vn -0.1104 -0.9939 -0.0079
vn -0.1337 0.0078 0.9910
vn -0.0157 -0.9974 -0.0707
vn 0.0314 -0.9895 -0.1413
vn -0.0550 -0.9984 0.0157
vn -0.0000 -0.9995 0.0315
vn -0.2592 -0.0000 0.9658
vn -0.7817 -0.0000 0.6237
vn -0.5357 -0.6775 0.5041
vn -0.2203 -0.7316 0.6451
vn -0.7817 0.0001 0.6237
vn -0.5356 -0.6775 0.5041
vn -0.5598 -0.7964 -0.2286
vn -0.1415 -0.6921 0.7078
vn -0.0393 -0.9992 0.0079
vn -0.0393 -0.9992 0.0078
vn -0.1975 -0.7982 -0.5690
vn -0.0158 -0.9988 0.0472
vn -0.5357 -0.6774 0.5041
vn -0.1179 -0.9899 -0.0785
vn -0.8589 0.4413 0.2600
vn -0.2757 0.8034 0.5277
vn -0.8271 0.5593 0.0552
vn -0.0393 -0.9987 -0.0314
vn 0.0079 -0.9715 -0.2369
vn 0.0078 -0.9962 0.0863
vn 0.2203 -0.9600 0.1731
vn -0.0394 -0.9992 -0.0000
vn -0.0784 -0.9964 -0.0314
vn -0.2522 -0.8353 0.4885
vn -0.0392 -0.9962 0.0784
vn -0.1414 -0.9899 -0.0079
vn -0.0157 -0.9994 -0.0315
vn 0.0079 -0.9997 0.0236
vn 0.0078 -0.9997 0.0236
vn -0.1976 -0.7983 -0.5690
vn 0.0078 -0.9989 -0.0472
vn 0.1022 -0.8718 -0.4791
vn 0.1656 -0.8278 -0.5361
vn -0.9962 -0.0157 0.0862
vn -0.2757 -0.0236 -0.9610
vn -0.2352 0.7291 0.6428
vn 0.0550 -0.9740 -0.2199
vn 0.0395 -0.9867 -0.1578
vn -0.0000 -0.9997 0.0236
vn -0.0078 -0.9980 0.0628
vn 0.0079 -0.9989 -0.0472
vn 0.1494 -0.9202 0.3617
vn 0.0393 -0.9961 0.0784
vn -0.1022 -0.9903 -0.0943
vn -0.0079 -0.9980 0.0629
vn -0.0392 -0.9961 0.0784
vn 0.0079 -0.9992 -0.0393
vn -0.0550 -0.9982 0.0236
vn -0.0785 -0.9964 -0.0314
vn -0.9962 -0.0156 0.0862
vn -0.3469 -0.9379 -0.0000
vn -0.1976 -0.7982 -0.5690
vn -0.2757 -0.0237 -0.9609
vn -0.0392 -0.9961 -0.0784
vn 0.0392 -0.9962 0.0784
vn -0.0157 -0.9988 0.0471
vn -0.0393 -0.9987 -0.0315
vn -0.2203 -0.0078 -0.9754
vn -0.7031 -0.0000 -0.7111
vn -0.1885 0.0158 0.9819
vn -0.6237 -0.7184 -0.3079
vn -0.4328 -0.6295 -0.6453
vn -0.1885 0.0156 0.9819
vn -0.1969 -0.7088 -0.6774
vn -0.2203 -0.0079 -0.9754
vn -0.1178 -0.9899 -0.0785
vn -0.2203 -0.7317 0.6451
vn -0.2996 -0.7726 -0.5597
vn -0.1022 -0.9903 -0.0944
vn -0.2202 -0.0078 -0.9754
vn -0.2903 0.7608 -0.5804
vn -0.9846 -0.0237 -0.1733
vn -0.2521 -0.8353 0.4885
vn -0.3373 -0.0079 0.9414
vn -0.8718 -0.1021 -0.4791
vn -0.8272 0.5593 0.0551
vn -0.1969 -0.7088 -0.6773
vn -0.2202 -0.0079 -0.9754
vn -0.3223 -0.6289 -0.7075
vn -0.4328 -0.6296 -0.6453
vn 0.1655 -0.8278 -0.5361
vn -0.2995 -0.7726 -0.5597
vn -0.6975 -0.5407 -0.4702
vn -0.5744 0.0237 0.8182
vn -0.7717 -0.2362 -0.5906
vn -0.4088 -0.9121 0.0314
vn -0.6975 -0.5408 -0.4702
vn -0.9807 -0.1898 0.0475
vn -0.6237 -0.7185 -0.3079
vn -0.5356 0.6774 0.5042
vn -0.2591 -0.0000 0.9658
vn -0.7717 -0.2362 -0.5905
vn -0.6975 -0.5407 -0.4703
vn -0.2996 -0.7726 -0.5598
vn -0.7716 -0.2363 -0.5906
vn -0.3224 -0.6289 -0.7075
vn -0.7716 -0.2362 -0.5906
vn -0.2591 -0.0000 0.9659
vn 0.8587 0.3623 0.3624
vn 0.8897 -0.0000 0.4566
vn 0.8897 -0.0000 -0.4566
vn 0.8587 0.3624 -0.3624
vn 0.8587 -0.3623 0.3624
vn 0.8587 -0.3624 -0.3624
vn 1.0000 -0.0000 -0.0001
vn 0.8122 0.5519 -0.1892
vn 0.8122 0.5519 0.1892
vn 0.8587 0.3624 0.3624
vn 0.8587 -0.3624 0.3624
vn 0.8122 -0.5519 0.1892
vn 0.8122 -0.5519 -0.1892
vn 0.8587 -0.3624 -0.3623
vn 0.7953 0.6063 -0.0000
vn 0.8121 0.5519 0.1892
vn -0.9604 0.2046 -0.1889
vn -0.9697 -0.0000 -0.2444
vn -0.9589 -0.2121 0.1886
vn -0.9697 -0.0000 0.2443
vn -0.9604 0.2047 0.1889
vn -0.9386 0.3391 0.0631
vn -0.9290 -0.3700 -0.0000
vn -0.9361 -0.3461 0.0629
vn -1.0000 -0.0001 -0.0000
vn -0.9361 -0.3461 -0.0629
vn -0.9290 0.3700 -0.0000
vn -0.9381 0.3389 -0.0709
vn -0.9386 0.3392 0.0631
vn -1.0000 0.0001 -0.0000
vn -0.7526 -0.0000 -0.6585
vn -0.7201 0.4826 -0.4985
vn -0.9604 0.2047 -0.1890
vn -0.7239 -0.4878 0.4878
vn -0.9697 -0.0000 0.2444
vn -0.9588 -0.2122 0.1887
vn -0.7565 -0.0000 0.6540
vn 0.8896 -0.0000 0.4567
vn 0.5503 0.5581 0.6210
vn 0.5924 -0.0000 0.8056
vn 0.5503 0.5581 -0.6210
vn 0.8896 -0.0000 -0.4567
vn 0.5924 -0.0000 -0.8056
vn 0.5503 -0.5581 0.6210
vn 0.5503 -0.5581 -0.6210
vn -0.9381 0.3390 -0.0710
vn -0.6557 0.7347 -0.1738
vn -0.9604 0.2047 -0.1889
vn -0.7201 0.4827 -0.4985
vn -0.6528 -0.7393 0.1652
vn -0.9588 -0.2123 0.1886
vn -0.9361 -0.3461 0.0630
vn -0.6566 0.7357 0.1661
vn -0.7211 0.4860 0.4938
vn -0.7211 0.4859 0.4938
vn -0.9604 0.2046 0.1890
vn -0.2518 -0.0079 -0.9678
vn -0.2353 -0.6510 -0.7217
vn -0.7173 -0.4966 -0.4887
vn -0.9602 -0.2125 -0.1811
vn -0.9361 -0.3462 0.0629
vn -0.6324 -0.7746 -0.0000
vn -0.6324 0.7746 -0.0000
vn -0.9381 0.3390 -0.0709
vn -0.9290 0.3701 -0.0000
vn 0.4733 0.8283 -0.2998
vn 0.8121 0.5520 -0.1893
vn 0.5503 0.5582 -0.6210
vn 0.5503 0.5582 0.6210
vn 0.4733 0.8283 0.2998
vn 0.8121 0.5519 0.1893
vn 0.4733 -0.8283 0.2998
vn 0.5503 -0.5582 0.6210
vn 0.8121 -0.5520 0.1893
vn 0.8121 -0.5520 -0.1892
vn 0.4733 -0.8283 -0.2998
vn 0.5503 -0.5582 -0.6210
vn -0.1894 -0.9548 0.2289
vn -0.7239 -0.4879 0.4878
vn -0.9588 -0.2122 0.1886
vn -0.9589 -0.2122 0.1886
vn -0.1804 -0.9569 -0.2275
vn -0.2353 -0.6510 -0.7216
vn -0.6537 -0.7402 -0.1575
vn -0.9602 -0.2126 -0.1810
vn -0.9361 -0.3461 -0.0630
vn -0.6536 -0.7403 -0.1575
vn -0.1733 -0.9849 -0.0000
vn -0.6324 -0.7747 -0.0000
vn -0.9290 -0.3701 -0.0000
vn -0.1734 0.9849 -0.0000
vn -0.6323 0.7747 -0.0000
vn -0.7239 -0.4878 0.4879
vn -0.2440 -0.6452 0.7240
vn -0.2440 0.6453 0.7240
vn -0.2518 -0.0078 -0.9678
vn -0.2438 0.6370 -0.7313
vn -0.2518 -0.0079 -0.9677
vn 0.1580 0.0158 0.9873
vn 0.5502 0.5582 0.6210
vn 0.1335 0.6520 0.7463
vn 0.5503 -0.5581 0.6211
vn 0.1498 -0.6544 0.7412
vn 0.5924 -0.0000 0.8057
vn 0.1502 0.0158 -0.9885
vn 0.5503 -0.5581 -0.6211
vn 0.1498 -0.6544 -0.7412
vn 0.1182 0.9930 -0.0000
vn 0.4409 0.8976 -0.0000
vn 0.1183 0.9304 -0.3469
vn 0.4409 0.8975 -0.0000
vn 0.8121 0.5520 -0.1892
vn 0.4734 0.8283 -0.2997
vn 0.7952 0.6063 -0.0000
vn 0.8121 0.5519 -0.1892
vn 0.1258 0.6527 -0.7471
vn 0.1503 0.0158 -0.9885
vn 0.1259 0.6527 -0.7471
vn 0.5924 -0.0000 -0.8057
vn -0.2440 -0.6453 0.7240
vn -0.1891 0.9531 0.2363
vn -0.1814 0.9545 -0.2367
vn 0.1336 0.6521 0.7463
vn 0.1183 0.9304 0.3470
vn -0.6323 -0.7747 -0.0000
vn -0.1894 -0.9549 0.2288
vn 0.1103 -0.9372 0.3308
vn 0.1498 -0.6544 0.7411
vn 0.1103 -0.9372 -0.3308
vn 0.1498 -0.6544 -0.7411
vn -0.1804 -0.9569 -0.2274
vn -0.1815 0.9545 -0.2366
vn -0.6324 0.7747 -0.0000
vn -0.0863 0.9963 -0.0000
vn -0.0789 0.9555 0.2842
vn 0.1183 0.9304 0.3469
vn 0.4734 0.8283 0.2997
vn 0.8121 0.5520 0.1892
vn 0.0863 -0.9963 -0.0000
vn -0.0868 -0.9474 -0.3079
vn 0.1102 -0.9373 -0.3308
vn -0.0948 -0.9955 -0.0000
vn 0.0863 -0.9963 -0.0001
vn 0.1103 -0.9373 -0.3307
vn 0.4409 -0.8976 -0.0000
vn 0.4409 -0.8975 -0.0000
vn 0.4733 -0.8283 -0.2997
vn 0.7952 -0.6063 -0.0000
vn 0.7953 -0.6063 -0.0000
vn 0.8121 -0.5519 -0.1892
vn -0.0868 -0.9475 0.3079
vn 0.1102 -0.9372 0.3308
vn 0.4733 -0.8283 0.2997
vn 0.8121 -0.5519 0.1893
vn 0.8121 -0.5519 0.1892
vn -0.1577 0.0552 -0.9859
vn -0.1258 -0.6527 -0.7471
vn -0.1579 0.0395 0.9867
vn -0.1181 -0.6533 0.7478
vn -0.1177 0.7061 0.6983
vn -0.1254 0.7132 -0.6897
vn -0.1578 0.0552 -0.9859
vn 0.1102 -0.9372 -0.3308
vn -0.1258 -0.6528 -0.7470
vn -0.0868 -0.9474 -0.3080
vn -0.1181 -0.6534 0.7478
vn -0.0868 -0.9474 0.3079
vn 0.1498 -0.6545 0.7411
vn 0.0079 -0.6750 -0.7378
vn 0.0079 -0.0001 -1.0000
vn -0.1177 0.7061 0.6982
vn 0.1182 0.9304 0.3470
vn -0.0790 0.9555 0.2843
vn 0.1335 0.6521 0.7463
vn -0.1415 0.7000 -0.7000
vn -0.0866 0.9527 -0.2913
vn -0.1254 0.7132 -0.6896
vn -0.1103 0.9614 -0.2522
vn -0.1806 0.0629 -0.9815
vn -0.0709 0.6772 -0.7324
vn -0.0785 0.0236 -0.9966
vn -0.0709 0.6772 -0.7323
vn -0.0552 0.9700 -0.2366
vn -0.0235 0.6748 -0.7376
vn -0.0708 0.6772 -0.7324
vn -0.0236 0.0079 -0.9997
vn -0.0709 0.6773 -0.7323
vn -0.0235 0.6749 -0.7376
vn -0.0157 0.9714 -0.2369
vn -0.0079 0.6707 -0.7417
vn -0.0079 0.0001 -1.0000
vn -0.0079 0.9715 -0.2370
vn 0.0079 0.6750 -0.7378
vn -0.0079 -0.0000 -1.0000
vn 0.0078 0.6750 -0.7378
vn 0.0079 0.0001 -1.0000
vn -0.2518 -0.0078 -0.9677
vn 0.0001 0.9720 -0.2351
vn -0.0079 1.0000 -0.0000
vn 0.1183 0.9304 -0.3470
vn -0.0866 0.9527 -0.2914
vn -0.0707 0.0158 0.9974
vn -0.0237 0.6705 0.7415
vn -0.0236 -0.0000 0.9997
vn -0.1105 0.9633 0.2448
vn -0.1415 0.7000 0.7000
vn -0.0474 0.9722 0.2293
vn -0.0474 0.9722 0.2292
vn -0.0158 0.9714 0.2370
vn -0.0237 0.6706 0.7415
vn -0.0236 0.6705 0.7415
vn -0.0079 0.0001 1.0000
vn -0.0863 0.9963 -0.0001
vn -0.1416 0.7000 0.7000
vn -0.0631 0.6775 0.7328
vn -0.1807 0.0550 0.9820
vn -0.1421 -0.6552 0.7420
vn -0.1579 0.0394 0.9867
vn -0.1416 0.6999 -0.7000
vn -0.1254 0.7131 -0.6897
vn -0.1806 0.0628 -0.9815
vn -0.1259 -0.6527 -0.7471
vn -0.1498 -0.6544 -0.7412
vn -0.0000 -0.6750 0.7378
vn -0.0079 -0.6707 0.7417
vn -0.0078 -0.0000 1.0000
vn 0.0079 -0.0000 1.0000
vn -0.1893 -0.9549 0.2289
vn -0.0000 -0.9737 0.2277
vn -0.0079 -0.9715 0.2370
vn -0.0158 -0.9714 0.2369
vn -0.0236 -0.6705 0.7415
vn -0.0079 -1.0000 -0.0000
vn -0.0000 -1.0000 -0.0000
vn -0.0157 -0.9999 -0.0000
vn -0.0315 -0.9995 -0.0000
vn -0.0395 -0.9726 0.2293
vn -0.0237 -0.6705 0.7415
vn -0.0079 -0.0001 1.0000
vn -0.0630 -0.6694 0.7403
vn -0.0707 0.0157 0.9974
vn -0.0630 -0.6694 0.7402
vn -0.0942 -0.9654 0.2433
vn -0.0395 -0.9725 0.2294
vn -0.0395 -0.9725 0.2293
vn -0.0158 -0.9714 0.2370
vn -0.0630 -0.6693 0.7403
vn -0.1807 0.0549 0.9820
vn -0.0785 -0.9969 -0.0000
vn -0.0942 -0.9654 0.2432
vn -0.0158 -0.9714 -0.2369
vn -0.0079 -0.9715 -0.2370
vn -0.0079 -0.6707 -0.7417
vn -0.0395 -0.9708 -0.2368
vn -0.0237 -0.6705 -0.7415
vn -0.0236 -0.6705 -0.7415
vn -0.0236 0.0078 -0.9997
vn -0.0395 -0.9708 -0.2367
vn -0.0947 -0.9629 -0.2526
vn -0.0630 -0.6694 -0.7402
vn -0.0630 -0.6694 -0.7403
vn -0.0785 0.0235 -0.9966
vn -0.1806 0.0628 -0.9816
vn -0.1498 -0.6544 -0.7411
vn -0.1420 -0.6552 0.7420
vn -0.0869 -0.9474 0.3079
vn 0.0078 -0.0000 -1.0000
vn 0.0078 -0.6750 -0.7378
vn -0.0078 -0.0001 -1.0000
vn 0.0079 -0.6750 -0.7377
vn -0.0000 -0.9737 -0.2277
vn -0.1803 -0.9569 -0.2274
vn -0.0079 0.9715 0.2370
vn -0.0000 0.9737 0.2278
vn -0.0000 1.0000 -0.0000
vn -0.1733 0.9849 -0.0000
vn -0.1890 0.9531 0.2363
vn 0.0079 0.6750 0.7378
vn -0.2439 0.6453 0.7240
vn -0.1814 0.9545 -0.2366
vn -0.0472 0.9989 -0.0000
vn -0.1104 0.9939 -0.0000
vn -0.1103 0.9614 -0.2521
vn -0.0158 0.9714 0.2369
vn -0.1105 0.9633 0.2447
vn -0.0236 0.6706 0.7415
vn 0.0078 0.6750 0.7378
vn -0.0079 -0.0000 1.0000
vn -0.0947 -0.9629 -0.2525
vn -0.0868 -0.9475 -0.3079
vt 0.847139 0.458813
vt 0.845132 0.467125
vt 0.475291 0.175154
vt 0.480948 0.182033
vt 0.842031 0.475106
vt 0.838518 0.484937
vt 0.485359 0.189759
vt 0.829941 0.501914
vt 0.833848 0.494285
vt 0.824405 0.508376
vt 0.603895 0.197626
vt 0.603530 0.206897
vt 0.611432 0.199703
vt 0.599653 0.202107
vt 0.862232 0.570100
vt 0.869902 0.567127
vt 0.865821 0.566591
vt 0.870263 0.573606
vt 0.490822 0.198975
vt 0.495497 0.208586
vt 0.499496 0.216402
vt 0.502413 0.224712
vt 0.947003 0.459194
vt 0.944213 0.464502
vt 0.949087 0.467975
vt 0.955914 0.464610
vt 0.933083 0.570237
vt 0.941082 0.567417
vt 0.931952 0.564641
vt 0.936241 0.562409
vt 0.501152 0.105878
vt 0.492062 0.104109
vt 0.496592 0.108516
vt 0.498523 0.098478
vt 0.605678 0.193315
vt 0.611278 0.192142
vt 0.863482 0.560274
vt 0.857029 0.560480
vt 0.586168 0.210822
vt 0.586588 0.202266
vt 0.591963 0.194730
vt 0.929687 0.458813
vt 0.907958 0.471969
vt 0.931801 0.466825
vt 0.906730 0.462234
vt 0.523530 0.217709
vt 0.542513 0.214520
vt 0.522696 0.207059
vt 0.541778 0.205546
vt 0.561477 0.201911
vt 0.562348 0.212344
vt 0.560588 0.104291
vt 0.568634 0.098743
vt 0.559988 0.098478
vt 0.565493 0.105151
vt 0.560854 0.114530
vt 0.554265 0.111404
vt 0.489745 0.115566
vt 0.497485 0.117762
vt 0.887187 0.463834
vt 0.868846 0.473535
vt 0.887930 0.472191
vt 0.868331 0.463445
vt 0.606067 0.148465
vt 0.611902 0.140793
vt 0.605301 0.143715
vt 0.611830 0.149183
vt 0.595128 0.148215
vt 0.598651 0.154501
vt 0.850025 0.532013
vt 0.850197 0.516391
vt 0.840437 0.520312
vt 0.858625 0.532867
vt 0.874307 0.566250
vt 0.878232 0.569451
vt 0.573077 0.191602
vt 0.968298 0.518367
vt 0.961045 0.512635
vt 0.961473 0.517213
vt 0.966219 0.510571
vt 0.951089 0.515486
vt 0.952780 0.508858
vt 0.501769 0.134679
vt 0.493035 0.145817
vt 0.501712 0.149510
vt 0.491713 0.130888
vt 0.854492 0.546096
vt 0.861627 0.547779
vt 0.549032 0.105446
vt 0.507186 0.099522
vt 0.506387 0.105364
vt 0.489507 0.160661
vt 0.501445 0.165973
vt 0.551185 0.195631
vt 0.542128 0.199583
vt 0.544900 0.185767
vt 0.534060 0.197012
vt 0.920855 0.566795
vt 0.924222 0.559980
vt 0.581679 0.180490
vt 0.591974 0.173501
vt 0.579369 0.174999
vt 0.594662 0.176878
vt 0.582390 0.166794
vt 0.594541 0.168853
vt 0.602301 0.139955
vt 0.605643 0.135209
vt 0.592848 0.141378
vt 0.899092 0.479455
vt 0.889279 0.477211
vt 0.881613 0.481264
vt 0.569291 0.107982
vt 0.574098 0.104721
vt 0.567697 0.116415
vt 0.963772 0.525048
vt 0.959560 0.521394
vt 0.950491 0.522268
vt 0.935021 0.501289
vt 0.941792 0.493094
vt 0.930004 0.494086
vt 0.945270 0.496719
vt 0.604526 0.159496
vt 0.956899 0.502801
vt 0.560695 0.190441
vt 0.542039 0.127780
vt 0.538155 0.117055
vt 0.938882 0.558644
vt 0.944353 0.560179
vt 0.929241 0.555267
vt 0.934836 0.551460
vt 0.528690 0.134839
vt 0.520595 0.127509
vt 0.521545 0.136723
vt 0.530854 0.129157
vt 0.531412 0.138320
vt 0.521005 0.145168
vt 0.907878 0.558247
vt 0.910149 0.549393
vt 0.866969 0.522010
vt 0.868299 0.533756
vt 0.891941 0.545245
vt 0.900559 0.552755
vt 0.898971 0.546437
vt 0.561415 0.175417
vt 0.566668 0.178423
vt 0.531153 0.123289
vt 0.514439 0.199581
vt 0.869577 0.559729
vt 0.921129 0.479340
vt 0.938330 0.472893
vt 0.512793 0.154807
vt 0.511115 0.142667
vt 0.508416 0.149548
vt 0.514310 0.137298
vt 0.538184 0.143617
vt 0.532029 0.144454
vt 0.528217 0.186513
vt 0.526308 0.194149
vt 0.512090 0.187642
vt 0.553373 0.129518
vt 0.545919 0.141696
vt 0.510240 0.129840
vt 0.576619 0.156388
vt 0.555687 0.165992
vt 0.503490 0.178825
vt 0.552193 0.155357
vt 0.564733 0.141627
vt 0.553557 0.149320
vt 0.572666 0.145071
vt 0.562225 0.183342
vt 0.504966 0.116337
vt 0.861587 0.481879
vt 0.860567 0.494744
vt 0.516848 0.164538
vt 0.518539 0.157757
vt 0.514879 0.172149
vt 0.522392 0.174909
vt 0.533370 0.160321
vt 0.529803 0.178499
vt 0.539881 0.173386
vt 0.548771 0.148172
vt 0.525977 0.152167
vt 0.563002 0.134389
vt 0.899406 0.538574
vt 0.895468 0.540498
vt 0.889450 0.536897
vt 0.909494 0.482780
vt 0.574493 0.133449
vt 0.579525 0.134747
vt 0.931085 0.524270
vt 0.935189 0.533612
vt 0.939407 0.531325
vt 0.923840 0.529468
vt 0.852408 0.504779
vt 0.913191 0.497927
vt 0.917637 0.493456
vt 0.598104 0.188969
vt 0.906661 0.537029
vt 0.917943 0.544431
vt 0.886309 0.525757
vt 0.593107 0.133684
vt 0.868992 0.547216
vt 0.908324 0.522398
vt 0.911458 0.527441
vt 0.952400 0.529337
vt 0.874225 0.485554
vt 0.877237 0.493612
vt 0.894609 0.491002
vt 0.951926 0.481028
vt 0.957139 0.471891
vt 0.951567 0.471766
vt 0.945154 0.477243
vt 0.932216 0.512696
vt 0.924964 0.536774
vt 0.512005 0.113458
vt 0.864720 0.512447
vt 0.872379 0.508832
vt 0.931308 0.488299
vt 0.912348 0.489521
vt 0.909433 0.509963
vt 0.906853 0.530470
vt 0.573878 0.128911
vt 0.891314 0.507075
vt 0.879823 0.503145
vt 0.936142 0.537914
vt 0.575522 0.116287
vt 0.876415 0.558743
vt 0.942005 0.548982
vt 0.879389 0.534156
vt 0.943785 0.489412
vt 0.516213 0.108143
vt 0.877470 0.545741
vt 0.885316 0.536812
vt 0.884123 0.544810
vt 0.882921 0.558417
vt 0.604331 0.183908
vt 0.524458 0.119933
vt 0.942497 0.979199
vt 0.946737 0.983414
vt 0.928295 0.987673
vt 0.909865 0.983356
vt 0.914121 0.979155
vt 0.379441 0.267886
vt 0.383480 0.263752
vt 0.397320 0.271851
vt 0.411091 0.263639
vt 0.415164 0.267739
vt 0.920665 0.977035
vt 0.935958 0.977058
vt 0.389817 0.261606
vt 0.404737 0.261545
vt 0.928312 0.976489
vt 0.907143 0.821734
vt 0.897320 0.822064
vt 0.375044 0.106413
vt 0.365386 0.106571
vt 0.950184 0.821734
vt 0.940550 0.822061
vt 0.396681 0.106492
vt 0.384744 0.106740
vt 0.408606 0.106648
vt 0.928753 0.821872
vt 0.916922 0.822063
vt 0.949549 0.971506
vt 0.957492 0.975642
vt 0.907105 0.971439
vt 0.899134 0.975533
vt 0.376469 0.256395
vt 0.368924 0.260630
vt 0.425618 0.260398
vt 0.418041 0.256226
vt 0.959814 0.821907
vt 0.427839 0.106697
vt 0.418268 0.106413
vt 0.916953 0.969508
vt 0.939695 0.969540
vt 0.386088 0.254297
vt 0.408406 0.254207
vt 0.964311 0.962916
vt 0.954180 0.960784
vt 0.361823 0.248720
vt 0.371507 0.245944
vt 0.432619 0.248433
vt 0.422916 0.245737
vt 0.928334 0.958466
vt 0.928323 0.968948
vt 0.914395 0.959085
vt 0.902544 0.960746
vt 0.892414 0.962744
vt 0.942283 0.959118
vt 0.383383 0.244077
vt 0.411029 0.243967
vt 0.928343 0.950817
vt 0.941240 0.951180
vt 0.397203 0.243259
vt 0.413037 0.226522
vt 0.397128 0.224527
vt 0.397245 0.253632
vt 0.397275 0.261013
vt 0.381236 0.226647
vt 0.434862 0.234267
vt 0.423630 0.230105
vt 0.359449 0.234471
vt 0.370665 0.230312
vt 0.953719 0.950704
vt 0.965771 0.948500
vt 0.903435 0.950550
vt 0.891060 0.948452
vt 0.418296 0.128014
vt 0.427874 0.128524
vt 0.904940 0.929816
vt 0.915451 0.951153
vt 0.915617 0.929536
vt 0.894026 0.927695
vt 0.905941 0.906693
vt 0.895959 0.905103
vt 0.916044 0.905895
vt 0.906701 0.883303
vt 0.897072 0.881549
vt 0.916472 0.881938
vt 0.907109 0.862906
vt 0.897594 0.861711
vt 0.916728 0.861924
vt 0.907273 0.844108
vt 0.897764 0.843755
vt 0.916852 0.843841
vt 0.928613 0.860209
vt 0.960995 0.902993
vt 0.950337 0.878226
vt 0.960033 0.878013
vt 0.950967 0.903577
vt 0.941187 0.928865
vt 0.951899 0.928879
vt 0.940867 0.903753
vt 0.940597 0.878420
vt 0.950103 0.859297
vt 0.959640 0.859210
vt 0.962839 0.927115
vt 0.361453 0.212680
vt 0.372447 0.211622
vt 0.432718 0.213156
vt 0.421692 0.211695
vt 0.375193 0.127922
vt 0.375153 0.144223
vt 0.365555 0.144135
vt 0.365632 0.127933
vt 0.384830 0.127916
vt 0.384834 0.144233
vt 0.384728 0.163322
vt 0.374895 0.163283
vt 0.396800 0.144198
vt 0.396729 0.127878
vt 0.396877 0.163287
vt 0.396979 0.188249
vt 0.384379 0.188368
vt 0.365167 0.163060
vt 0.374159 0.188507
vt 0.364054 0.188235
vt 0.383394 0.210253
vt 0.397067 0.209666
vt 0.409026 0.163390
vt 0.408768 0.144253
vt 0.418457 0.144998
vt 0.409579 0.188369
vt 0.418870 0.164433
vt 0.428090 0.146611
vt 0.428672 0.166593
vt 0.410745 0.210177
vt 0.419805 0.189158
vt 0.429993 0.190349
vt 0.408637 0.127838
vt 0.940491 0.859418
vt 0.940491 0.843129
vt 0.928674 0.843354
vt 0.950064 0.843102
vt 0.928543 0.879531
vt 0.928457 0.904348
vt 0.928386 0.928825
vt 0.959563 0.843120
s 1
usemtl Hand1Mtl.001
f 1/1/1 2/1/2 3/2/3
f 4/3/4 5/3/2 6/4/5
f 7/5/6 8/5/7 9/6/8
f 10/7/9 11/4/10 12/7/11
f 11/4/10 13/4/2 12/7/11
f 14/4/12 15/3/13 11/4/5
f 15/3/13 14/4/12 16/3/14
f 17/8/15 18/8/16 19/9/17
f 20/10/14 17/8/18 21/10/4
f 17/8/18 22/8/19 21/10/4
f 22/8/19 23/8/2 21/10/4
f 24/11/20 25/12/21 26/13/22
f 25/12/21 24/11/20 27/14/23
f 28/15/24 29/16/25 30/17/26
f 29/16/25 28/15/24 31/18/27
f 32/5/28 33/2/29 34/5/30
f 34/5/30 35/2/31 36/5/6
f 35/2/31 37/2/2 36/5/6
f 38/7/32 39/19/33 40/7/34
f 39/19/33 38/7/32 41/19/35
f 41/19/36 42/7/11 43/19/37
f 43/19/38 44/19/2 45/20/39
f 46/20/40 45/20/41 47/21/42
f 47/21/43 48/21/2 49/22/1
f 50/21/44 46/20/40 47/21/42
f 50/21/44 49/22/1 51/22/45
f 46/20/40 50/21/44 52/20/46
f 53/22/47 50/21/44 51/22/45
f 54/21/48 52/20/46 50/21/44
f 50/21/44 53/22/47 54/21/48
f 55/23/21 56/24/49 57/25/50
f 57/25/50 58/26/51 55/23/21
f 59/2/29 60/1/52 61/1/45
f 62/19/36 63/20/53 64/19/33
f 64/19/33 63/20/53 65/20/54
f 63/20/53 62/19/36 66/20/55
f 66/20/55 62/19/36 67/19/37
f 66/20/56 68/20/2 69/21/57
f 70/22/1 71/21/58 69/21/59
f 72/27/60 73/28/61 74/29/62
f 74/29/62 73/28/61 75/30/63
f 76/9/64 77/6/65 78/6/66
f 79/9/67 76/9/64 78/6/66
f 80/6/8 81/6/2 79/9/68
f 82/6/65 83/5/30 78/6/69
f 83/5/30 82/6/65 84/5/70
f 85/6/66 86/5/71 80/6/72
f 86/5/71 85/6/66 87/5/73
f 88/2/29 84/5/28 89/2/74
f 88/2/29 89/2/74 90/1/52
f 91/2/75 87/5/30 88/2/29
f 92/2/29 93/1/1 91/2/3
f 93/1/1 92/2/29 94/1/45
f 95/4/76 96/4/77 97/3/78
f 95/4/76 97/3/78 98/3/79
f 99/4/80 100/7/34 96/4/81
f 100/7/34 99/4/80 101/7/9
f 102/4/82 101/7/9 99/4/80
f 103/7/83 104/19/36 101/7/9
f 103/7/84 105/7/2 106/19/38
f 107/31/85 108/32/86 109/33/87
f 108/32/86 107/31/85 110/34/88
f 111/9/17 112/6/65 113/9/89
f 114/8/90 111/9/17 113/9/89
f 113/9/89 115/8/91 114/8/90
f 115/8/91 113/9/89 116/9/68
f 116/9/68 117/9/2 115/8/91
f 116/9/67 118/6/66 119/6/72
f 120/10/92 114/8/18 121/10/79
f 114/8/18 120/10/92 122/8/93
f 123/35/94 124/13/95 125/36/96
f 124/13/95 123/35/94 126/11/97
f 127/17/98 128/37/99 129/15/24
f 128/37/99 130/38/100 129/15/24
f 131/39/101 132/12/102 133/14/23
f 131/39/101 133/14/23 134/40/103
f 135/14/104 136/41/105 134/40/106
f 136/41/105 135/14/104 137/11/107
f 138/42/101 139/43/108 140/44/109
f 139/43/108 138/42/101 141/45/110
f 142/24/111 143/42/101 140/44/109
f 143/42/101 142/24/111 144/23/21
f 145/46/112 146/47/113 147/48/114
f 146/47/113 148/49/115 147/48/114
f 149/50/116 150/49/117 151/51/110
f 152/47/118 151/51/110 150/49/117
f 153/52/119 154/53/120 155/54/60
f 154/53/120 153/52/119 156/55/121
f 157/52/119 158/56/122 156/55/123
f 158/56/122 157/52/119 159/57/124
f 160/33/87 161/32/86 162/58/125
f 162/58/125 163/59/126 160/33/87
f 164/60/113 165/61/127 166/62/128
f 165/61/127 164/60/113 167/63/129
f 168/64/130 169/65/131 170/66/132
f 169/65/131 168/64/130 171/67/133
f 172/68/134 173/64/130 170/66/132
f 173/64/130 172/68/134 174/69/135
f 175/70/136 176/71/137 177/72/138
f 176/71/137 175/70/136 178/73/139
f 179/74/140 180/16/25 181/75/141
f 180/16/25 182/18/27 181/75/141
f 183/39/101 184/50/142 185/51/110
f 184/50/142 183/39/101 186/40/103
f 187/40/106 188/76/143 184/50/144
f 188/76/143 187/40/106 189/41/145
f 190/77/146 191/78/147 192/79/148
f 191/78/147 190/77/146 193/80/133
f 194/81/149 192/79/150 195/78/147
f 194/81/149 195/78/147 196/82/151
f 197/83/152 198/84/153 199/85/154
f 198/84/153 197/83/152 200/86/155
f 201/87/156 202/38/100 203/88/157
f 204/37/158 203/88/157 202/38/100
f 205/52/159 206/89/160 207/57/161
f 206/89/160 205/52/159 208/54/60
f 209/31/85 210/90/141 211/34/162
f 210/90/141 209/31/85 212/91/163
f 213/92/164 214/85/165 215/84/153
f 214/85/165 213/92/164 216/93/166
f 217/59/167 218/58/125 219/86/155
f 219/86/155 220/83/168 217/59/167
f 221/49/169 222/94/170 223/95/171
f 222/94/170 221/49/169 224/50/116
f 225/96/172 226/95/173 222/94/174
f 226/95/173 225/96/172 227/97/175
f 227/97/176 228/49/169 229/95/171
f 228/49/169 227/97/176 230/48/177
f 230/48/114 231/21/48 232/46/112
f 233/22/47 232/46/112 231/21/48
f 234/98/178 235/29/179 236/99/180
f 235/29/179 234/98/178 237/27/181
f 238/100/182 239/101/183 240/102/184
f 239/101/183 238/100/182 241/103/185
f 242/101/183 243/104/186 240/102/187
f 244/105/188 243/104/186 242/101/183
f 245/106/189 246/65/146 247/107/190
f 246/65/146 245/106/189 248/66/191
f 249/106/189 250/68/192 248/66/191
f 250/68/192 249/106/189 251/108/193
f 252/45/194 253/62/195 254/43/196
f 253/62/195 252/45/194 255/60/113
f 256/62/128 257/109/197 254/43/196
f 257/109/197 256/62/128 258/110/198
f 256/62/195 259/111/199 260/110/198
f 259/111/199 256/62/195 261/61/200
f 262/112/201 263/53/202 264/55/121
f 263/53/202 262/112/201 265/113/203
f 264/55/121 266/56/204 267/112/201
f 268/114/205 267/112/201 266/56/204
f 269/115/206 270/77/146 271/116/207
f 271/116/207 270/77/146 272/79/150
f 273/81/208 274/116/207 272/79/150
f 274/116/207 273/81/208 275/117/209
f 276/118/210 277/119/183 278/120/211
f 277/119/183 276/118/210 279/121/212
f 280/64/130 281/122/213 282/67/214
f 281/122/213 280/64/130 283/69/215
f 284/80/133 285/123/216 286/78/147
f 287/82/217 286/78/147 285/123/216
f 288/94/218 289/50/116 290/124/219
f 289/50/116 291/76/143 290/124/219
f 292/125/220 293/57/124 294/126/221
f 294/126/221 293/57/124 295/89/222
f 296/28/202 297/127/223 298/30/63
f 297/127/223 296/28/202 299/128/203
f 300/129/224 298/30/63 301/127/223
f 300/129/224 301/127/223 302/130/225
f 303/131/226 304/132/227 305/133/228
f 306/134/229 304/132/227 303/131/226
f 307/133/228 308/135/230 303/131/226
f 308/135/230 307/133/228 309/136/231
f 310/99/180 311/137/232 312/98/178
f 311/137/232 310/99/180 313/138/233
f 314/73/234 315/87/156 316/88/235
f 315/87/156 314/73/234 317/70/136
f 314/73/236 318/139/237 319/71/238
f 318/139/237 314/73/236 320/140/239
f 321/141/240 322/142/241 323/143/242
f 324/144/243 325/102/184 326/104/244
f 325/102/184 324/144/243 327/145/245
f 328/134/229 329/146/241 330/132/240
f 331/125/220 332/126/221 333/146/241
f 331/125/220 333/146/241 334/134/229
f 335/147/246 336/20/46 337/21/48
f 335/147/246 337/21/48 338/48/114
f 339/29/62 340/129/247 341/99/248
f 340/129/247 339/29/62 342/30/63
f 343/72/138 344/8/93 345/10/92
f 344/8/93 343/72/138 346/71/249
f 347/148/250 348/17/26 349/16/251
f 348/17/26 347/148/250 350/37/99
f 351/44/109 352/149/252 353/150/253
f 352/149/252 351/44/109 354/43/108
f 353/150/253 355/24/49 356/44/109
f 355/24/49 353/150/253 357/25/254
f 358/142/255 359/137/232 360/138/256
f 360/138/256 361/143/257 358/142/255
f 362/151/258 363/152/259 364/153/260
f 363/152/259 362/151/258 365/136/261
f 366/136/231 367/154/262 368/152/259
f 367/154/262 366/136/231 369/133/263
f 370/135/264 371/155/265 372/125/220
f 371/155/265 370/135/264 373/156/266
f 374/69/267 375/105/268 376/122/269
f 375/105/268 374/69/267 377/104/244
f 378/157/270 379/97/175 380/96/172
f 379/97/175 378/157/270 381/158/271
f 382/48/114 379/97/176 383/158/271
f 383/158/271 384/147/272 382/48/114
f 385/159/273 384/147/246 381/158/271
f 386/157/270 385/159/273 381/158/271
f 387/160/274 388/57/124 389/125/220
f 388/57/124 387/160/274 390/56/275
f 391/125/220 392/161/276 393/160/277
f 392/161/276 391/125/220 394/155/278
f 395/83/279 396/154/280 397/162/281
f 396/154/280 395/83/279 398/152/259
f 399/163/282 400/144/243 401/104/244
f 400/144/243 399/163/282 402/164/283
f 403/118/210 404/82/284 405/121/188
f 404/82/284 406/123/216 405/121/188
f 407/4/81 408/165/285 409/93/166
f 408/165/285 407/4/81 410/7/34
f 407/4/77 411/92/164 412/3/286
f 407/4/77 413/93/166 411/92/164
f 414/163/282 415/69/287 416/68/134
f 415/69/287 414/163/282 417/104/244
f 418/166/288 419/167/289 420/168/290
f 419/167/289 418/166/288 421/169/291
f 422/170/292 423/96/172 424/124/219
f 423/96/172 425/94/174 424/124/219
f 426/171/293 427/31/85 428/33/87
f 426/171/293 428/33/87 429/59/126
f 429/59/126 430/83/294 431/162/295
f 431/162/295 432/171/293 429/59/126
f 433/172/296 434/2/297 435/5/298
f 434/2/297 433/172/296 436/61/127
f 437/6/299 438/172/296 435/5/300
f 437/6/299 439/173/301 438/172/296
f 440/63/112 441/2/302 436/61/303
f 441/2/302 440/63/112 442/1/304
f 443/144/305 444/170/292 445/145/306
f 444/170/292 443/144/305 446/96/172
f 447/151/258 448/174/307 449/175/308
f 448/174/307 447/151/258 450/93/309
f 448/174/310 451/93/166 452/176/311
f 451/93/166 453/165/285 452/176/311
f 454/159/273 455/177/312 452/176/313
f 452/176/313 456/165/314 454/159/273
f 456/165/314 457/7/315 458/19/316
f 456/165/314 458/19/316 459/159/273
f 460/177/317 461/174/318 462/176/319
f 461/174/318 460/177/317 463/178/320
f 464/133/321 465/162/322 466/154/280
f 465/162/322 464/133/321 467/132/323
f 468/19/316 469/147/246 470/159/273
f 469/147/246 468/19/316 471/20/324
f 472/157/325 473/177/317 470/159/273
f 473/177/317 472/157/325 474/179/326
f 475/179/327 476/178/320 477/177/312
f 476/178/320 475/179/327 478/180/328
f 479/179/327 480/96/329 478/180/328
f 480/96/329 479/179/327 481/157/270
f 482/166/330 483/163/282 484/169/331
f 483/163/282 482/166/330 485/164/283
f 486/145/332 487/100/182 488/102/184
f 489/170/292 487/100/182 486/145/332
f 490/155/278 491/181/333 492/161/334
f 491/181/333 490/155/278 493/178/320
f 494/175/308 495/178/320 496/182/335
f 495/178/320 494/175/308 497/174/310
f 498/166/336 499/181/333 495/178/320
f 499/181/333 498/166/336 500/168/337
f 501/181/338 502/167/289 503/183/339
f 502/167/289 501/181/338 504/168/337
f 505/170/292 506/76/340 507/100/182
f 506/76/340 505/170/292 508/124/219
f 509/161/341 510/183/339 511/160/342
f 510/183/339 509/161/341 512/181/338
f 513/143/343 514/184/344 515/185/345
f 514/184/344 513/143/343 516/138/233
f 517/180/346 518/144/305 519/164/283
f 518/144/305 517/180/346 520/96/172
f 521/166/347 522/180/346 519/164/283
f 522/180/346 521/166/347 523/178/320
f 523/178/320 524/155/348 525/156/266
f 496/182/335 523/178/320 525/156/266
f 496/182/335 525/156/266 526/136/261
f 527/135/349 526/136/261 525/156/266
f 528/134/229 527/135/350 529/125/351
f 527/135/350 528/134/229 530/131/226
f 531/136/261 532/175/352 496/182/353
f 532/175/352 531/136/261 533/151/258
f 534/93/166 533/151/354 535/153/355
f 536/85/356 534/93/166 535/153/355
f 537/83/279 536/85/356 538/153/355
f 539/152/259 537/83/279 538/153/355
f 540/185/345 541/141/357 542/143/343
f 541/141/357 540/185/345 543/186/358
f 544/109/197 545/187/359 546/43/108
f 547/149/252 546/43/108 545/187/359
f 548/169/331 549/188/360 550/167/289
f 549/188/360 548/169/331 551/189/361
f 552/108/362 553/163/363 554/68/192
f 553/163/363 552/108/362 555/169/331
f 556/190/364 557/191/365 558/192/361
f 557/191/365 556/190/364 559/193/366
f 560/8/16 561/71/137 562/194/367
f 560/8/16 562/194/367 563/9/368
f 564/120/369 565/195/370 566/118/210
f 565/195/370 564/120/369 567/196/371
f 568/197/372 569/11/107 570/35/373
f 569/11/107 568/197/372 571/41/105
f 572/184/374 573/138/233 574/198/375
f 573/138/233 575/199/376 574/198/375
f 576/186/377 577/184/374 578/200/378
f 577/184/374 576/186/377 579/185/345
f 580/106/189 581/201/379 582/108/193
f 581/201/379 580/106/189 583/107/380
f 584/183/381 585/56/204 586/160/382
f 585/56/204 584/183/381 587/114/205
f 588/88/235 589/148/250 590/202/383
f 589/148/250 588/88/235 591/37/384
f 592/203/385 593/193/366 594/190/386
f 593/193/366 592/203/385 595/204/387
f 596/205/388 597/115/206 598/116/207
f 596/205/388 598/116/207 599/117/209
f 600/206/389 601/61/127 602/172/296
f 601/61/127 600/206/389 603/111/390
f 604/207/391 603/111/390 600/206/389
f 603/111/390 604/207/391 605/208/392
f 606/209/393 607/210/394 608/211/395
f 608/211/395 609/212/396 606/209/393
f 607/210/397 610/26/95 611/211/398
f 611/211/398 610/26/95 612/25/399
f 613/117/400 614/213/401 615/190/386
f 614/213/401 613/117/400 616/81/208
f 617/213/402 616/81/149 618/82/151
f 617/213/402 618/82/151 619/118/210
f 620/99/248 621/199/376 622/138/256
f 621/199/376 620/99/248 623/129/247
f 624/214/403 623/129/224 625/130/225
f 623/129/224 624/214/403 626/199/404
f 627/25/254 628/212/396 629/211/405
f 628/212/396 627/25/254 630/150/406
f 631/91/407 632/171/408 633/215/409
f 632/171/408 631/91/407 634/31/85
f 635/216/410 636/71/238 637/139/411
f 636/71/238 635/216/410 638/194/367
f 639/6/299 638/194/412 640/173/301
f 638/194/412 639/6/299 641/9/413
f 642/216/410 643/173/414 638/194/367
f 643/173/414 642/216/410 644/217/415
f 645/218/416 646/219/417 647/196/418
f 645/218/416 647/196/418 648/120/369
f 649/213/402 650/195/419 651/220/420
f 650/195/419 649/213/402 652/118/210
f 651/220/421 653/190/386 654/213/401
f 653/190/386 651/220/421 655/203/385
f 656/204/387 657/214/422 658/193/366
f 659/221/423 657/214/422 656/204/387
f 660/140/424 661/88/235 662/202/425
f 661/88/235 660/140/424 663/73/236
f 664/183/381 665/188/426 666/222/427
f 665/188/426 664/183/381 667/167/289
f 668/100/182 669/41/145 670/197/428
f 669/41/145 668/100/182 671/76/340
f 672/111/390 673/208/392 674/110/429
f 673/208/392 675/109/430 674/110/429
f 676/223/431 677/195/419 678/208/392
f 677/195/419 676/223/431 679/220/420
f 680/223/431 681/203/432 679/220/420
f 681/203/432 680/223/431 682/200/378
f 683/221/433 684/184/434 685/198/435
f 684/184/434 683/221/433 686/200/436
f 687/221/433 688/203/437 686/200/378
f 688/203/437 687/221/433 689/204/387
f 690/219/438 691/195/419 692/196/371
f 691/195/419 690/219/438 693/208/392
f 694/206/389 695/173/301 696/207/391
f 695/173/301 694/206/389 697/172/296
f 698/187/439 699/208/392 700/219/438
f 699/208/392 698/187/439 701/109/430
f 702/217/415 703/200/436 704/224/440
f 703/200/436 705/223/431 704/224/440
f 706/224/440 707/223/431 708/208/392
f 708/208/392 709/207/391 706/224/440
f 710/215/409 711/162/295 712/132/323
f 711/162/295 710/215/409 713/171/408
f 714/217/441 715/207/391 716/173/301
f 715/207/391 714/217/441 717/224/440
f 718/191/442 719/193/443 720/214/444
f 720/214/444 721/225/445 718/191/442
f 722/149/446 723/219/438 724/218/416
f 723/219/438 722/149/446 725/187/439
f 726/198/447 727/199/448 728/214/444
f 728/214/444 729/221/423 726/198/447
f 730/217/441 731/139/411 732/200/436
f 731/139/411 730/217/441 733/216/449
f 734/226/450 735/112/201 736/114/205
f 735/112/201 734/226/450 737/113/451
f 738/108/362 739/189/452 740/169/331
f 739/189/452 738/108/362 741/201/379
f 742/148/250 743/74/453 744/227/454
f 743/74/453 742/148/250 745/16/25
f 746/192/455 747/205/388 748/117/400
f 748/117/400 749/190/386 746/192/455
f 750/130/456 751/127/223 752/228/457
f 751/127/223 753/128/451 752/228/457
f 754/150/458 755/218/416 756/212/459
f 755/218/416 754/150/458 757/149/446
f 758/139/237 759/229/460 760/200/461
f 759/229/460 758/139/237 761/140/239
f 762/114/205 763/222/427 764/226/462
f 763/222/427 762/114/205 765/183/463
f 766/120/369 767/119/464 768/218/465
f 769/230/466 768/218/465 767/119/464
f 770/231/467 771/91/163 772/215/468
f 771/91/163 770/231/467 773/90/141
f 774/214/444 775/130/469 776/225/427
f 775/130/469 777/228/470 776/225/427
f 778/232/471 779/148/250 780/227/472
f 779/148/250 778/232/471 781/202/473
f 782/229/474 783/202/473 778/232/471
f 783/202/473 782/229/474 784/140/239
f 785/233/475 786/141/476 787/186/358
f 788/234/477 786/141/476 785/233/475
f 787/186/478 789/200/378 790/233/479
f 790/233/479 789/200/378 791/229/460
f 792/75/480 793/227/454 794/74/481
f 793/227/454 792/75/480 795/235/467
f 796/35/482 797/236/483 798/197/372
f 797/236/483 796/35/482 799/36/394
f 800/215/409 801/237/484 802/231/467
f 801/237/484 800/215/409 803/132/227
f 804/232/471 805/233/485 806/229/486
f 805/233/485 804/232/471 807/234/487
f 808/232/488 809/235/467 810/234/489
f 809/235/467 808/232/488 811/227/454
f 812/197/372 813/103/185 814/100/182
f 813/103/185 812/197/372 815/236/483
f 816/230/466 817/209/490 818/212/459
f 818/212/459 819/218/416 816/230/466
f 820/238/491 821/239/492 822/240/2
f 823/241/493 824/242/494 825/240/2
f 826/243/492 827/244/495 828/245/2
f 829/246/496 830/247/493 831/245/497
f 832/242/494 833/248/498 834/240/2
f 835/249/499 836/238/500 837/240/2
f 838/244/501 839/250/502 840/245/2
f 841/251/503 842/246/504 843/245/2
f 844/252/505 845/249/506 846/240/2
f 847/253/507 848/254/508 849/253/146
f 850/255/509 851/256/510 852/255/146
f 853/257/511 854/258/512 855/257/146
f 856/259/513 857/260/514 858/259/515
f 859/261/516 860/259/513 861/261/515
f 862/262/517 863/263/518 864/262/146
f 865/258/519 866/262/517 867/258/520
f 868/254/521 869/254/508 870/253/522
f 871/253/523 870/253/522 869/254/508
f 872/255/524 873/256/525 874/255/526
f 873/256/525 872/255/524 875/256/527
f 876/239/528 877/264/529 878/265/530
f 877/264/529 876/239/528 879/238/500
f 880/266/531 881/241/532 882/267/533
f 881/241/532 880/266/531 883/242/494
f 884/243/492 885/268/534 886/244/501
f 885/268/534 884/243/492 887/269/530
f 888/270/533 889/247/532 890/271/535
f 891/246/496 890/271/535 889/247/532
f 892/263/536 893/263/537 894/253/538
f 892/263/536 894/253/538 895/263/146
f 893/263/537 896/253/539 894/253/538
f 897/260/540 898/255/541 899/260/542
f 900/258/543 901/257/511 902/257/544
f 901/257/511 900/258/543 903/258/519
f 904/272/527 905/272/483 906/257/545
f 906/257/545 907/272/525 904/272/527
f 907/272/525 906/257/545 908/257/546
f 907/272/525 908/257/546 909/272/146
f 910/273/547 911/274/548 912/274/549
f 912/274/549 913/273/508 914/273/521
f 913/273/508 912/274/549 915/274/550
f 913/273/508 915/274/550 916/273/146
f 917/260/540 918/260/551 919/259/552
f 920/262/553 921/263/537 922/263/536
f 923/262/553 924/263/554 925/262/555
f 926/242/494 927/275/556 928/248/557
f 927/275/556 926/242/494 929/266/558
f 930/264/559 931/238/500 932/276/560
f 932/276/560 931/238/500 933/249/561
f 934/277/562 935/244/501 936/268/563
f 935/244/501 934/277/562 937/250/564
f 938/246/496 939/251/565 940/278/566
f 940/278/566 941/271/567 938/246/496
f 942/260/540 943/260/568 944/255/569
f 944/255/569 945/255/570 942/260/540
f 946/260/514 945/255/571 947/260/146
f 948/261/572 949/274/549 950/274/573
f 951/261/574 952/274/575 949/274/549
f 952/274/575 951/261/574 953/261/576
f 952/274/575 953/261/576 954/274/146
f 955/261/577 956/259/578 957/259/579
f 957/259/579 958/261/516 955/261/577
f 958/261/516 957/259/579 959/259/580
f 960/258/543 961/262/581 962/262/582
f 962/262/582 963/258/519 960/258/543
f 963/258/519 962/262/582 964/262/555
f 965/255/583 966/256/393 967/256/527
f 966/256/393 965/255/583 968/255/584
f 969/272/483 970/257/585 971/257/544
f 972/253/539 973/254/586 974/254/521
f 973/254/586 972/253/539 975/253/587
f 976/273/521 977/273/588 978/274/549
f 979/279/589 980/264/590 981/280/591
f 980/264/590 979/279/589 982/265/530
f 983/268/592 984/281/589 985/282/593
f 984/281/589 983/268/592 986/269/594
f 987/283/595 988/271/596 989/284/597
f 988/271/596 987/283/595 990/270/533
f 991/275/556 992/285/598 993/286/599
f 992/285/598 991/275/556 994/287/600
f 995/286/601 996/248/602 991/275/603
f 996/248/602 995/286/601 997/252/604
f 996/248/605 998/252/505 999/240/2
f 1000/266/531 1001/287/600 1002/275/556
f 1001/287/600 1000/266/531 1003/288/606
f 1004/266/531 1005/289/607 1003/288/608
f 1005/289/607 1004/266/531 1006/267/609
f 1007/255/610 1008/255/524 1009/260/568
f 1010/258/611 1011/257/545 1012/257/585
f 1011/257/545 1010/258/611 1013/258/543
f 1014/253/539 1015/263/612 1016/253/587
f 1015/263/612 1014/253/539 1017/263/537
f 1018/274/549 1019/261/572 1020/261/577
f 1021/280/613 1022/264/559 1023/290/614
f 1024/276/560 1023/290/614 1022/264/559
f 1025/259/615 1026/259/578 1027/260/540
f 1026/259/578 1028/260/616 1027/260/540
f 1029/259/580 1025/259/552 1030/260/551
f 1031/291/617 1032/268/534 1033/282/618
f 1032/268/534 1031/291/617 1034/277/562
f 1035/271/567 1036/292/619 1037/284/620
f 1036/292/619 1035/271/567 1038/278/566
f 1039/259/578 1040/261/577 1041/261/621
f 1042/263/537 1043/262/581 1044/263/622
f 1043/262/581 1042/263/537 1045/262/623
f 1046/262/581 1047/258/543 1048/258/611
f 1049/285/598 1050/293/624 1051/294/625
f 1049/285/598 1051/294/625 1052/290/626
f 1053/285/598 1052/290/626 1054/276/560
f 1055/286/599 1053/285/598 1054/276/560
f 1056/286/599 1054/276/627 1057/249/628
f 1058/252/604 1056/286/599 1057/249/628
f 1059/295/629 1060/296/630 1061/292/631
f 1060/296/630 1059/295/629 1062/297/632
f 1063/278/566 1064/295/633 1061/292/634
f 1064/295/633 1063/278/566 1065/298/635
f 1066/251/565 1067/298/636 1063/278/637
f 1067/298/636 1066/251/565 1068/299/638
f 1069/299/639 1066/251/640 1070/245/2
f 1071/295/629 1072/300/641 1073/297/632
f 1072/300/641 1071/295/629 1074/291/642
f 1075/295/629 1076/277/643 1074/291/617
f 1076/277/643 1075/295/629 1077/298/635
f 1078/298/636 1079/250/644 1076/277/562
f 1079/250/644 1078/298/636 1080/299/638
f 1079/250/645 1081/299/639 1082/245/2
f 1083/283/595 1084/284/597 1085/301/646
f 1085/301/646 1084/284/597 1086/302/647
f 1087/282/593 1088/303/648 1089/304/649
f 1088/303/648 1087/282/593 1090/281/589
f 1091/279/589 1092/305/650 1093/306/648
f 1092/305/650 1091/279/589 1094/280/591
f 1095/289/607 1096/307/651 1097/288/606
f 1096/307/651 1095/289/607 1098/308/652
f 1099/284/620 1100/292/653 1101/302/654
f 1101/302/654 1100/292/653 1102/296/655
f 1103/291/642 1104/304/656 1105/300/657
f 1104/304/656 1103/291/642 1106/282/658
f 1107/273/547 1108/309/659 1109/274/548
f 1108/309/659 1107/273/547 1110/310/660
f 1111/305/661 1112/290/662 1113/294/663
f 1112/290/662 1111/305/661 1114/280/664
f 1115/311/665 1116/312/666 1117/307/667
f 1116/312/666 1115/311/665 1118/313/668
f 1119/314/669 1120/315/670 1115/311/665
f 1120/315/670 1119/314/669 1121/316/671
f 1122/311/665 1120/315/672 1123/313/668
f 1124/317/673 1123/313/668 1120/315/672
f 1125/316/671 1126/318/674 1120/315/675
f 1126/318/674 1125/316/671 1127/319/676
f 1128/315/677 1129/318/678 1124/317/673
f 1130/320/679 1124/317/673 1129/318/678
f 1129/318/678 1131/321/680 1130/320/679
f 1132/319/676 1133/321/680 1129/318/674
f 1133/321/680 1132/319/676 1134/322/681
f 1135/323/682 1130/320/679 1131/321/680
f 1131/321/680 1136/324/683 1135/323/682
f 1134/322/684 1136/324/685 1137/321/680
f 1136/324/685 1134/322/684 1138/325/686
f 1138/325/686 1139/253/587 1136/324/685
f 1139/253/587 1138/325/686 1140/254/687
f 1141/263/612 1136/324/683 1142/253/587
f 1136/324/683 1141/263/612 1143/326/688
f 1143/326/688 1135/323/682 1136/324/683
f 1135/323/682 1143/326/688 1144/327/689
f 1145/307/667 1146/287/690 1147/288/606
f 1146/287/690 1145/307/667 1148/312/691
f 1149/328/692 1150/329/693 1151/330/694
f 1150/329/693 1149/328/692 1152/331/161
f 1153/332/695 1152/331/124 1154/333/696
f 1153/332/695 1155/334/697 1152/331/124
f 1156/334/698 1157/335/699 1158/329/700
f 1156/334/698 1158/329/700 1159/331/124
f 1160/336/259 1161/330/694 1158/329/701
f 1161/330/694 1160/336/259 1162/337/702
f 1163/312/666 1164/285/598 1165/287/600
f 1164/285/598 1163/312/666 1166/293/703
f 1167/294/663 1168/333/704 1169/305/661
f 1168/333/704 1167/294/663 1170/332/695
f 1171/331/705 1172/338/706 1168/333/704
f 1172/338/706 1171/331/705 1173/328/692
f 1174/304/649 1175/339/706 1176/340/707
f 1175/339/706 1174/304/649 1177/303/708
f 1178/306/648 1179/333/704 1180/338/706
f 1179/333/704 1178/306/648 1181/305/650
f 1182/311/709 1183/307/710 1184/308/652
f 1182/311/709 1184/308/652 1185/314/711
f 1186/301/646 1187/302/712 1188/341/711
f 1188/341/711 1187/302/712 1189/342/713
f 1190/343/714 1191/344/715 1192/345/716
f 1190/343/714 1192/345/716 1193/346/717
f 1194/256/490 1195/343/714 1193/346/717
f 1195/343/714 1194/256/490 1196/255/610
f 1197/260/718 1195/343/714 1198/255/610
f 1195/343/714 1197/260/718 1199/347/719
f 1195/343/714 1200/348/720 1191/344/715
f 1200/348/720 1195/343/714 1199/347/719
f 1201/349/721 1191/344/715 1200/348/720
f 1191/344/715 1201/349/721 1202/350/722
f 1199/347/719 1203/351/723 1200/348/720
f 1203/351/723 1199/347/719 1204/352/724
f 1205/260/616 1204/352/724 1199/347/719
f 1204/352/724 1205/260/616 1206/259/578
f 1207/353/725 1200/348/720 1203/351/723
f 1200/348/720 1207/353/725 1201/349/721
f 1208/354/726 1201/349/721 1207/353/725
f 1201/349/721 1208/354/726 1209/355/727
f 1210/356/694 1211/344/715 1202/350/728
f 1211/344/715 1210/356/694 1212/345/729
f 1213/357/730 1214/356/694 1202/350/722
f 1214/356/694 1213/357/730 1215/358/731
f 1213/357/732 1216/359/733 1217/340/707
f 1216/359/733 1213/357/732 1218/355/734
f 1218/355/735 1219/350/728 1201/349/736
f 1219/350/728 1218/355/735 1220/357/732
f 1221/340/707 1215/358/731 1220/357/737
f 1215/358/731 1221/340/707 1222/339/738
f 1223/360/739 1218/355/727 1208/354/726
f 1218/355/727 1223/360/739 1224/359/740
f 1225/361/741 1226/353/725 1227/362/742
f 1228/363/743 1225/361/741 1227/362/742
f 1225/361/741 1229/354/726 1226/353/725
f 1225/361/741 1230/364/744 1229/354/726
f 1228/363/743 1231/365/745 1225/361/741
f 1232/366/684 1233/365/746 1228/363/743
f 1233/365/746 1232/366/684 1234/367/747
f 1231/365/745 1235/364/744 1225/361/741
f 1235/364/748 1236/360/739 1229/354/726
f 1237/368/749 1236/360/739 1235/364/748
f 1231/365/745 1238/369/750 1235/364/744
f 1239/367/747 1240/369/751 1231/365/745
f 1240/369/751 1239/367/747 1241/370/752
f 1242/342/713 1241/370/752 1243/341/753
f 1241/370/752 1242/342/713 1244/369/751
f 1245/369/750 1246/368/749 1235/364/744
f 1245/369/750 1247/342/754 1246/368/749
f 1248/342/754 1249/302/647 1250/296/655
f 1248/342/754 1250/296/655 1251/368/749
f 1252/304/649 1253/340/755 1254/300/756
f 1255/359/733 1254/300/756 1253/340/755
f 1256/310/757 1257/363/743 1258/309/758
f 1257/363/743 1256/310/757 1259/366/759
f 1260/274/548 1258/309/760 1261/261/572
f 1262/371/761 1261/261/572 1258/309/760
f 1258/309/760 1227/362/742 1262/371/761
f 1227/362/742 1258/309/760 1228/363/743
f 1263/351/723 1262/371/761 1227/362/742
f 1262/371/761 1263/351/723 1264/352/724
f 1264/352/724 1265/261/762 1262/371/761
f 1265/261/762 1264/352/724 1266/259/578
f 1227/362/742 1226/353/725 1263/351/723
f 1267/372/763 1268/373/764 1269/336/259
f 1270/374/765 1268/373/764 1267/372/763
f 1270/374/765 1271/262/766 1268/373/764
f 1272/258/767 1268/373/764 1271/262/766
f 1273/375/768 1269/336/259 1268/373/764
f 1268/373/764 1274/258/767 1273/375/768
f 1275/257/769 1273/375/768 1274/258/767
f 1143/326/688 1276/374/765 1144/327/689
f 1143/326/688 1277/263/770 1276/374/765
f 1278/262/766 1276/374/765 1277/263/770
f 1135/323/682 1144/327/689 1279/376/328
f 1130/320/679 1135/323/682 1279/376/328
f 1279/376/328 1280/377/771 1130/320/679
f 1281/317/673 1130/320/679 1280/377/771
f 1280/377/771 1282/378/772 1281/317/673
f 1283/313/773 1281/317/673 1282/378/772
f 1279/376/328 1284/334/698 1285/377/771
f 1284/334/698 1279/376/328 1157/335/774
f 1286/327/689 1157/335/774 1279/376/328
f 1287/332/775 1288/377/771 1284/334/698
f 1288/377/771 1287/332/775 1289/378/772
f 1290/332/775 1291/293/624 1289/378/772
f 1291/293/624 1290/332/775 1292/294/663
f 1157/335/774 1286/327/689 1267/372/763
f 1286/327/689 1270/374/765 1267/372/763
f 1267/372/763 1293/329/776 1157/335/774
f 1293/329/776 1267/372/763 1294/336/259
f 1295/375/777 1296/337/778 1294/336/259
f 1296/337/778 1295/375/777 1297/379/717
f 1298/272/490 1297/379/717 1299/375/768
f 1298/272/490 1299/375/768 1300/257/769
f 1301/368/779 1302/296/780 1303/297/632
f 1301/368/779 1303/297/632 1304/360/739
f 1305/360/739 1306/297/632 1307/359/733
f 1306/297/632 1308/300/641 1307/359/733
f 1309/313/773 1310/293/624 1311/312/666
f 1310/293/624 1309/313/773 1312/378/772
