# Blender 5.1.2
# www.blender.org
mtllib Ramp.mtl
o Ramp
v -18.364439 -1.749968 -13.655861
v -18.364439 -1.749967 6.827930
v -18.364439 3.499934 6.827930
v 18.364452 -1.749967 6.827930
v 18.364452 -1.749968 -13.655861
v 18.364452 3.499934 6.827930
v -16.118238 -1.749967 6.827930
v 16.118221 -1.749967 6.827930
v 16.118221 3.499934 6.827930
v -16.118238 3.499934 6.827930
v -18.364439 3.499934 6.827930
v -18.364439 -1.749967 6.827930
v -16.118238 -1.749967 6.827930
v -16.118238 3.499934 6.827930
v 18.364452 -1.749967 6.827930
v 16.118221 3.499934 6.827930
v 16.118221 -1.749967 6.827930
v 18.364452 3.499934 6.827930
v -16.118238 -1.749968 -13.655861
v 16.118221 -1.749968 -13.655861
v 16.118221 -1.749967 6.827930
v -16.118238 -1.749967 6.827930
v -18.364439 -1.749967 6.827930
v -18.364439 -1.749968 -13.655861
v -16.118238 -1.749968 -13.655861
v -16.118238 -1.749967 6.827930
v 18.364452 -1.749968 -13.655861
v 16.118221 -1.749967 6.827930
v 16.118221 -1.749968 -13.655861
v 18.364452 -1.749967 6.827930
v 16.118221 -1.749968 -13.655861
v -16.118238 -1.749968 -13.655861
v 16.118221 3.499934 6.827930
v -16.118238 3.499934 6.827930
v -18.364439 -1.749968 -13.655861
v -16.118238 3.499934 6.827930
v -16.118238 -1.749968 -13.655861
v -18.364439 3.499934 6.827930
v 18.364452 3.499934 6.827930
v 18.364452 -1.749968 -13.655861
v 16.118221 -1.749968 -13.655861
v 16.118221 3.499934 6.827930
vn -1.0000 -0.0000 -0.0000
vn 1.0000 -0.0000 -0.0000
vn -0.0000 -0.0000 1.0000
vn -0.0000 -1.0000 -0.0000
vn -0.0000 0.9678 -0.2518
vt 0.202943 0.051086
vt 0.202943 0.948914
vt 0.134605 0.948914
vt 0.134605 0.051086
vt 0.795174 0.948914
vt 0.538542 0.948914
vt 0.198764 0.948914
vt 0.138784 0.948914
vt 0.795174 0.051086
vt 0.538542 0.051086
vt 0.198764 0.051086
vt 0.138784 0.051086
s 1
usemtl Handle1Mtl.039
f 1/1/1 2/2/1 3/2/1
f 4/3/2 5/4/2 6/3/2
f 7/5/3 8/6/3 9/6/3
f 7/5/3 9/6/3 10/5/3
f 11/2/3 12/2/3 13/7/3
f 13/7/3 14/7/3 11/2/3
f 15/3/3 16/8/3 17/8/3
f 16/8/3 15/3/3 18/3/3
f 19/9/4 20/10/4 21/6/4
f 19/9/4 21/6/4 22/5/4
f 23/2/4 24/1/4 25/11/4
f 25/11/4 26/7/4 23/2/4
f 27/4/4 28/8/4 29/12/4
f 28/8/4 27/4/4 30/3/4
f 31/10/5 32/9/5 33/6/5
f 32/9/5 34/5/5 33/6/5
f 35/1/5 36/7/5 37/11/5
f 36/7/5 35/1/5 38/2/5
f 39/3/5 40/4/5 41/12/5
f 41/12/5 42/8/5 39/3/5
