# Blender 5.1.2
# www.blender.org
mtllib Radio.mtl
o Radio
v -0.337522 -0.021771 -0.015438
v -0.264792 0.050959 -0.015438
v -0.251942 0.035279 -0.015438
v -0.239952 0.010749 -0.015438
v -0.234672 -0.021771 -0.015438
v -0.239952 -0.054301 -0.015438
v -0.251942 -0.078831 -0.015438
v -0.264792 -0.094501 -0.015438
v -0.264792 -0.094501 -0.015438
v -0.280472 -0.107351 -0.015438
v -0.305002 -0.119351 -0.015438
v -0.337522 -0.124631 -0.015438
v -0.370052 -0.119351 -0.015438
v -0.394582 -0.107351 -0.015438
v -0.410252 -0.094501 -0.015438
v -0.410252 -0.094501 -0.015438
v -0.423112 -0.078831 -0.015438
v -0.435102 -0.054301 -0.015438
v -0.440382 -0.021771 -0.015438
v -0.435102 0.010749 -0.015438
v -0.423112 0.035279 -0.015438
v -0.410252 0.050959 -0.015438
v -0.410252 0.050959 -0.015438
v -0.394582 0.063809 -0.015438
v -0.370052 0.075799 -0.015438
v -0.337522 0.081079 -0.015438
v -0.305002 0.075799 -0.015438
v -0.280472 0.063809 -0.015438
v -0.264792 0.050959 -0.015438
v -0.410252 0.050959 -0.115440
v -0.410252 0.050959 -0.015438
v -0.394582 0.063809 -0.115440
v -0.394582 0.063809 -0.015438
v -0.370052 0.075799 -0.115440
v -0.370052 0.075799 -0.015438
v -0.337522 0.081079 -0.115440
v -0.337522 0.081079 -0.015438
v -0.305002 0.075799 -0.115440
v -0.305002 0.075799 -0.015438
v -0.280472 0.063809 -0.115440
v -0.280472 0.063809 -0.015438
v -0.264792 0.050959 -0.115440
v -0.264792 0.050959 -0.015438
v -0.410252 0.050959 -0.015438
v -0.410252 0.050959 -0.115440
v -0.423112 0.035279 -0.015438
v -0.423112 0.035279 -0.115440
v -0.435102 0.010749 -0.015438
v -0.435102 0.010749 -0.115440
v -0.440382 -0.021771 -0.015438
v -0.440382 -0.021771 -0.115440
v -0.435102 -0.054301 -0.015438
v -0.435102 -0.054301 -0.115440
v -0.423112 -0.078831 -0.015438
v -0.423112 -0.078831 -0.115440
v -0.410252 -0.094501 -0.015438
v -0.410252 -0.094501 -0.115440
v -0.337522 -0.021771 -0.115440
v -0.410252 0.050959 -0.115440
v -0.423112 0.035279 -0.115440
v -0.435102 0.010749 -0.115440
v -0.440382 -0.021771 -0.115440
v -0.435102 -0.054301 -0.115440
v -0.423112 -0.078831 -0.115440
v -0.410252 -0.094501 -0.115440
v -0.410252 -0.094501 -0.115440
v -0.394582 -0.107351 -0.115440
v -0.370052 -0.119351 -0.115440
v -0.337522 -0.124631 -0.115440
v -0.305002 -0.119351 -0.115440
v -0.280472 -0.107351 -0.115440
v -0.264792 -0.094501 -0.115440
v -0.264792 -0.094501 -0.115440
v -0.251942 -0.078831 -0.115440
v -0.239952 -0.054301 -0.115440
v -0.234672 -0.021771 -0.115440
v -0.239952 0.010749 -0.115440
v -0.251942 0.035279 -0.115440
v -0.264792 0.050959 -0.115440
v -0.264792 0.050959 -0.115440
v -0.280472 0.063809 -0.115440
v -0.305002 0.075799 -0.115440
v -0.337522 0.081079 -0.115440
v -0.370052 0.075799 -0.115440
v -0.394582 0.063809 -0.115440
v -0.410252 0.050959 -0.115440
v -0.264792 -0.094501 -0.115440
v -0.264792 -0.094501 -0.015438
v -0.280472 -0.107351 -0.115440
v -0.280472 -0.107351 -0.015438
v -0.305002 -0.119351 -0.115440
v -0.305002 -0.119351 -0.015438
v -0.337522 -0.124631 -0.115440
v -0.337522 -0.124631 -0.015438
v -0.370052 -0.119351 -0.115440
v -0.370052 -0.119351 -0.015438
v -0.394582 -0.107351 -0.115440
v -0.394582 -0.107351 -0.015438
v -0.410252 -0.094501 -0.115440
v -0.410252 -0.094501 -0.015438
v -0.264792 0.050959 -0.115440
v -0.264792 0.050959 -0.015438
v -0.251942 0.035279 -0.115440
v -0.251942 0.035279 -0.015438
v -0.239952 0.010749 -0.115440
v -0.239952 0.010749 -0.015438
v -0.234672 -0.021771 -0.115440
v -0.234672 -0.021771 -0.015438
v -0.239952 -0.054301 -0.115440
v -0.239952 -0.054301 -0.015438
v -0.251942 -0.078831 -0.115440
v -0.251942 -0.078831 -0.015438
v -0.264792 -0.094501 -0.115440
v -0.264792 -0.094501 -0.015438
v 0.332468 -0.021771 -0.015438
v 0.405198 0.050959 -0.015438
v 0.418058 0.035279 -0.015438
v 0.430048 0.010749 -0.015438
v 0.435328 -0.021771 -0.015438
v 0.430048 -0.054301 -0.015438
v 0.418058 -0.078831 -0.015438
v 0.405198 -0.094501 -0.015438
v 0.405198 -0.094501 -0.015438
v 0.389528 -0.107361 -0.015438
v 0.364998 -0.119351 -0.015438
v 0.332468 -0.124631 -0.015438
v 0.299948 -0.119351 -0.015438
v 0.275418 -0.107361 -0.015438
v 0.259738 -0.094501 -0.015438
v 0.259738 -0.094501 -0.015438
v 0.246888 -0.078831 -0.015438
v 0.234898 -0.054301 -0.015438
v 0.229618 -0.021771 -0.015438
v 0.234898 0.010749 -0.015438
v 0.246888 0.035279 -0.015438
v 0.259738 0.050959 -0.015438
v 0.259738 0.050959 -0.015438
v 0.275418 0.063809 -0.015438
v 0.299948 0.075799 -0.015438
v 0.332468 0.081079 -0.015438
v 0.364998 0.075799 -0.015438
v 0.389528 0.063809 -0.015438
v 0.405198 0.050959 -0.015438
v 0.259738 0.050959 -0.115440
v 0.259738 0.050959 -0.015438
v 0.275418 0.063809 -0.115440
v 0.275418 0.063809 -0.015438
v 0.299948 0.075799 -0.115440
v 0.299948 0.075799 -0.015438
v 0.332468 0.081079 -0.115440
v 0.332468 0.081079 -0.015438
v 0.364998 0.075799 -0.115440
v 0.364998 0.075799 -0.015438
v 0.389528 0.063809 -0.115440
v 0.389528 0.063809 -0.015438
v 0.405198 0.050959 -0.115440
v 0.405198 0.050959 -0.015438
v 0.259738 0.050959 -0.015438
v 0.259738 0.050959 -0.115440
v 0.246888 0.035279 -0.015438
v 0.246888 0.035279 -0.115440
v 0.234898 0.010749 -0.015438
v 0.234898 0.010749 -0.115440
v 0.229618 -0.021771 -0.015438
v 0.229618 -0.021771 -0.115440
v 0.234898 -0.054301 -0.015438
v 0.234898 -0.054301 -0.115440
v 0.246888 -0.078831 -0.015438
v 0.246888 -0.078831 -0.115440
v 0.259738 -0.094501 -0.015438
v 0.259738 -0.094501 -0.115440
v 0.332468 -0.021771 -0.115440
v 0.259738 0.050959 -0.115440
v 0.246888 0.035279 -0.115440
v 0.234898 0.010749 -0.115440
v 0.229618 -0.021771 -0.115440
v 0.234898 -0.054301 -0.115440
v 0.246888 -0.078831 -0.115440
v 0.259738 -0.094501 -0.115440
v 0.259738 -0.094501 -0.115440
v 0.275418 -0.107361 -0.115440
v 0.299948 -0.119351 -0.115440
v 0.332468 -0.124631 -0.115440
v 0.364998 -0.119351 -0.115440
v 0.389528 -0.107361 -0.115440
v 0.405198 -0.094501 -0.115440
v 0.405198 -0.094501 -0.115440
v 0.418058 -0.078831 -0.115440
v 0.430048 -0.054301 -0.115440
v 0.435328 -0.021771 -0.115440
v 0.430048 0.010749 -0.115440
v 0.418058 0.035279 -0.115440
v 0.405198 0.050959 -0.115440
v 0.405198 0.050959 -0.115440
v 0.389528 0.063809 -0.115440
v 0.364998 0.075799 -0.115440
v 0.332468 0.081079 -0.115440
v 0.299948 0.075799 -0.115440
v 0.275418 0.063809 -0.115440
v 0.259738 0.050959 -0.115440
v 0.405198 -0.094501 -0.115440
v 0.405198 -0.094501 -0.015438
v 0.389528 -0.107361 -0.115440
v 0.389528 -0.107361 -0.015438
v 0.364998 -0.119351 -0.115440
v 0.364998 -0.119351 -0.015438
v 0.332468 -0.124631 -0.115440
v 0.332468 -0.124631 -0.015438
v 0.299948 -0.119351 -0.115440
v 0.299948 -0.119351 -0.015438
v 0.275418 -0.107361 -0.115440
v 0.275418 -0.107361 -0.015438
v 0.259738 -0.094501 -0.115440
v 0.259738 -0.094501 -0.015438
v 0.405198 0.050959 -0.115440
v 0.405198 0.050959 -0.015438
v 0.418058 0.035279 -0.115440
v 0.418058 0.035279 -0.015438
v 0.430048 0.010749 -0.115440
v 0.430048 0.010749 -0.015438
v 0.435328 -0.021771 -0.115440
v 0.435328 -0.021771 -0.015438
v 0.430048 -0.054301 -0.115440
v 0.430048 -0.054301 -0.015438
v 0.418058 -0.078831 -0.115440
v 0.418058 -0.078831 -0.015438
v 0.405198 -0.094501 -0.115440
v 0.405198 -0.094501 -0.015438
v 0.110798 -0.016781 0.004562
v 0.110798 -0.016781 -0.045437
v 0.110798 -0.116781 0.004562
v 0.110798 -0.116781 -0.045437
v 0.160798 -0.016781 -0.045437
v 0.110798 -0.016781 -0.045437
v 0.160798 -0.016781 0.004562
v 0.110798 -0.016781 0.004562
v 0.110798 -0.016781 -0.045437
v 0.160798 -0.016781 -0.045437
v 0.110798 -0.116781 -0.045437
v 0.160798 -0.116781 -0.045437
v 0.160798 -0.016781 -0.045437
v 0.160798 -0.016781 0.004562
v 0.160798 -0.116781 -0.045437
v 0.160798 -0.116781 0.004562
v 0.160798 -0.116781 0.004562
v 0.110798 -0.116781 0.004562
v 0.160798 -0.116781 -0.045437
v 0.110798 -0.116781 -0.045437
v 0.160798 -0.016781 0.004562
v 0.110798 -0.016781 0.004562
v 0.160798 -0.116781 0.004562
v 0.110798 -0.116781 0.004562
v 0.409188 -0.176781 0.614563
v 0.409188 0.276549 0.614563
v -0.420942 0.276549 0.614563
v 0.516388 0.232149 0.614563
v 0.467208 0.265009 0.614563
v 0.560788 0.124949 0.614563
v 0.549248 0.182969 0.614563
v 0.560788 -0.025191 0.614563
v 0.516388 -0.132381 0.614563
v 0.549248 -0.083201 0.614563
v 0.467208 -0.165241 0.614563
v -0.420942 -0.176781 0.614563
v -0.572542 -0.025191 0.614563
v -0.528142 -0.132381 0.614563
v -0.478962 -0.165241 0.614563
v -0.561002 -0.083201 0.614563
v -0.572542 0.124949 0.614563
v -0.528142 0.232149 0.614563
v -0.561002 0.182969 0.614563
v -0.478962 0.265009 0.614563
v -0.385222 -0.042491 0.019360
v -0.391982 -0.017241 -0.065437
v -0.385222 -0.042491 -0.065437
v -0.391982 -0.017241 0.019360
v -0.385222 0.007999 -0.065437
v -0.385222 0.007999 0.019360
v -0.366742 -0.060961 0.019360
v -0.366742 -0.060961 -0.065437
v -0.341502 -0.067731 0.019360
v -0.341502 -0.067731 -0.065437
v 0.354988 0.026479 -0.065437
v 0.354988 0.026479 0.019360
v 0.373468 0.007999 -0.065437
v 0.373468 0.007999 0.019360
v 0.380228 -0.017241 -0.065437
v 0.380228 -0.017241 0.019360
v -0.366742 0.026479 -0.065437
v -0.366742 0.026479 0.019360
v -0.341502 0.033249 -0.065437
v -0.341502 0.033249 0.019360
v -0.385222 0.007999 0.019360
v -0.385222 0.007999 -0.065437
v 0.354988 -0.060961 -0.065437
v 0.354988 -0.060961 0.019360
v 0.329748 -0.067731 -0.065437
v 0.373468 -0.042491 0.019360
v 0.329748 -0.067731 0.019360
v 0.373468 -0.042491 -0.065437
v 0.380228 -0.017241 0.019360
v 0.380228 -0.017241 -0.065437
v 0.304498 -0.060961 -0.065437
v 0.304498 -0.060961 0.019360
v 0.286018 -0.042491 -0.065437
v 0.286018 -0.042491 0.019360
v 0.448218 -0.119401 -0.065437
v 0.409188 -0.176781 -0.065437
v 0.404398 -0.128111 -0.065437
v -0.416152 -0.128111 -0.065437
v 0.467208 -0.165241 -0.065437
v -0.420942 -0.176781 -0.065437
v 0.516388 -0.132381 -0.065437
v -0.459972 -0.119401 -0.065437
v 0.481298 -0.097291 -0.065437
v -0.478962 -0.165241 -0.065437
v 0.503398 -0.064211 -0.065437
v -0.528142 -0.132381 -0.065437
v 0.549248 -0.083201 -0.065437
v -0.493052 -0.097291 -0.065437
v 0.560788 -0.025191 -0.065437
v 0.512118 -0.020391 -0.065437
v -0.515152 -0.064211 -0.065437
v 0.560788 0.124949 -0.065437
v -0.561002 -0.083201 -0.065437
v 0.512118 0.120159 -0.065437
v -0.572542 -0.025191 -0.065437
v 0.503398 0.163979 -0.065437
v -0.523872 -0.020391 -0.065437
v 0.549248 0.182969 -0.065437
v -0.523872 0.120159 -0.065437
v -0.572542 0.124949 -0.065437
v 0.516388 0.232149 -0.065437
v 0.481298 0.197059 -0.065437
v -0.515152 0.163979 -0.065437
v 0.448218 0.219159 -0.065437
v -0.561002 0.182969 -0.065437
v 0.467208 0.265009 -0.065437
v -0.528142 0.232149 -0.065437
v 0.409188 0.276549 -0.065437
v -0.493052 0.197059 -0.065437
v 0.404398 0.227879 -0.065437
v -0.459972 0.219159 -0.065437
v -0.420942 0.276549 -0.065437
v -0.478962 0.265009 -0.065437
v -0.416152 0.227879 -0.065437
v -0.341502 -0.067731 -0.065437
v -0.366742 0.026479 -0.065437
v -0.316252 0.026479 -0.065437
v -0.341502 0.033249 -0.065437
v -0.291012 -0.017241 -0.065437
v -0.297772 0.007999 -0.065437
v -0.316252 -0.060961 -0.065437
v -0.297772 -0.042491 -0.065437
v -0.385222 -0.042491 -0.065437
v -0.366742 -0.060961 -0.065437
v -0.391982 -0.017241 -0.065437
v -0.385222 0.007999 -0.065437
v 0.329748 -0.067731 -0.065437
v 0.304498 0.026479 -0.065437
v 0.354988 0.026479 -0.065437
v 0.329748 0.033249 -0.065437
v 0.373468 0.007999 -0.065437
v 0.286018 0.007999 -0.065437
v 0.373468 -0.042491 -0.065437
v 0.380228 -0.017241 -0.065437
v 0.354988 -0.060961 -0.065437
v 0.286018 -0.042491 -0.065437
v 0.279258 -0.017241 -0.065437
v 0.304498 -0.060961 -0.065437
v 0.329748 0.033249 0.019360
v 0.354988 0.026479 -0.065437
v 0.329748 0.033249 -0.065437
v 0.354988 0.026479 0.019360
v -0.416152 -0.128111 -0.018440
v -0.416152 0.227879 -0.018440
v 0.404398 0.227879 -0.018440
v -0.523872 0.120159 -0.018440
v -0.459972 0.219159 -0.018440
v -0.515152 0.163979 -0.018440
v -0.493052 0.197059 -0.018440
v -0.523872 -0.020391 -0.018440
v -0.459972 -0.119401 -0.018440
v -0.515152 -0.064211 -0.018440
v -0.493052 -0.097291 -0.018440
v 0.404398 -0.128111 -0.018440
v 0.512118 -0.020391 -0.018440
v 0.448218 -0.119401 -0.018440
v 0.503398 -0.064211 -0.018440
v 0.481298 -0.097291 -0.018440
v 0.512118 0.120159 -0.018440
v 0.448218 0.219159 -0.018440
v 0.503398 0.163979 -0.018440
v 0.481298 0.197059 -0.018440
v -0.459972 0.219159 -0.065437
v -0.459972 0.219159 -0.018440
v -0.493052 0.197059 -0.065437
v -0.416152 0.227879 -0.018440
v -0.493052 0.197059 -0.018440
v -0.416152 0.227879 -0.065437
v -0.515152 0.163979 -0.065437
v 0.404398 0.227879 -0.018440
v -0.515152 0.163979 -0.018440
v 0.404398 0.227879 -0.065437
v -0.523872 0.120159 -0.065437
v 0.448218 0.219159 -0.018440
v -0.523872 0.120159 -0.018440
v 0.448218 0.219159 -0.065437
v -0.523872 -0.020391 -0.065437
v 0.481298 0.197059 -0.018440
v -0.523872 -0.020391 -0.018440
v 0.481298 0.197059 -0.065437
v -0.515152 -0.064211 -0.065437
v 0.503398 0.163979 -0.018440
v -0.515152 -0.064211 -0.018440
v 0.503398 0.163979 -0.065437
v -0.493052 -0.097291 -0.065437
v 0.512118 0.120159 -0.018440
v -0.493052 -0.097291 -0.018440
v 0.512118 0.120159 -0.065437
v -0.459972 -0.119401 -0.065437
v 0.512118 -0.020391 -0.018440
v -0.459972 -0.119401 -0.018440
v 0.512118 -0.020391 -0.065437
v -0.416152 -0.128111 -0.065437
v 0.503398 -0.064211 -0.018440
v -0.416152 -0.128111 -0.018440
v 0.503398 -0.064211 -0.065437
v 0.404398 -0.128111 -0.065437
v 0.481298 -0.097291 -0.018440
v 0.404398 -0.128111 -0.018440
v 0.481298 -0.097291 -0.065437
v 0.448218 -0.119401 -0.065437
v 0.448218 -0.119401 -0.018440
v -0.572542 -0.025191 -0.065437
v -0.572542 -0.025191 0.614563
v -0.572542 0.124949 -0.065437
v -0.561002 -0.083201 -0.065437
v -0.572542 0.124949 0.614563
v -0.561002 -0.083201 0.614563
v -0.561002 0.182969 0.614563
v -0.528142 -0.132381 -0.065437
v -0.561002 0.182969 -0.065437
v -0.528142 -0.132381 0.614563
v -0.528142 0.232149 0.614563
v -0.478962 -0.165241 -0.065437
v -0.528142 0.232149 -0.065437
v -0.478962 -0.165241 0.614563
v -0.478962 0.265009 0.614563
v -0.420942 -0.176781 -0.065437
v -0.478962 0.265009 -0.065437
v -0.420942 -0.176781 0.614563
v -0.420942 0.276549 0.614563
v 0.409188 -0.176781 0.614563
v -0.420942 0.276549 -0.065437
v 0.409188 -0.176781 -0.065437
v 0.409188 0.276549 -0.065437
v 0.467208 -0.165241 -0.065437
v 0.409188 0.276549 0.614563
v 0.467208 -0.165241 0.614563
v 0.467208 0.265009 0.614563
v 0.516388 -0.132381 -0.065437
v 0.467208 0.265009 -0.065437
v 0.516388 -0.132381 0.614563
v 0.516388 0.232149 0.614563
v 0.549248 -0.083201 -0.065437
v 0.516388 0.232149 -0.065437
v 0.549248 -0.083201 0.614563
v 0.549248 0.182969 0.614563
v 0.549248 0.182969 -0.065437
v 0.560788 -0.025191 -0.065437
v 0.560788 0.124949 0.614563
v 0.560788 -0.025191 0.614563
v 0.560788 0.124949 -0.065437
v -0.316252 -0.060961 0.019360
v -0.341502 -0.067731 -0.065437
v -0.316252 -0.060961 -0.065437
v -0.341502 -0.067731 0.019360
v -0.341502 0.033249 -0.065437
v -0.341502 0.033249 0.019360
v -0.316252 0.026479 -0.065437
v -0.316252 0.026479 0.019360
v -0.297772 -0.042491 0.019360
v -0.316252 -0.060961 -0.065437
v -0.297772 -0.042491 -0.065437
v -0.316252 -0.060961 0.019360
v 0.304498 0.026479 -0.065437
v 0.304498 0.026479 0.019360
v 0.329748 0.033249 -0.065437
v 0.329748 0.033249 0.019360
v 0.286018 0.007999 0.019360
v 0.286018 0.007999 -0.065437
v -0.316252 0.026479 -0.065437
v -0.316252 0.026479 0.019360
v -0.297772 0.007999 -0.065437
v -0.297772 0.007999 0.019360
v -0.297772 0.007999 -0.065437
v -0.297772 0.007999 0.019360
v -0.291012 -0.017241 -0.065437
v -0.291012 -0.017241 0.019360
v -0.297772 -0.042491 -0.065437
v -0.297772 -0.042491 0.019360
v 0.286018 -0.042491 0.019360
v 0.279258 -0.017241 -0.065437
v 0.286018 -0.042491 -0.065437
v 0.279258 -0.017241 0.019360
v 0.286018 0.007999 -0.065437
v 0.286018 0.007999 0.019360
vn -0.0000 -0.0000 1.0000
vn -0.0002 -0.0000 1.0000
vn -0.0001 -0.0000 1.0000
vn 0.0001 -0.0000 1.0000
vn 0.0002 -0.0000 1.0000
vn -0.7071 0.7071 -0.0000
vn -0.5511 0.8345 -0.0000
vn -0.3162 0.9487 -0.0000
vn -0.0000 1.0000 -0.0000
vn 0.3162 0.9487 -0.0000
vn 0.5511 0.8345 -0.0000
vn 0.7071 0.7071 -0.0000
vn -0.8345 0.5511 -0.0000
vn -0.9487 0.3162 -0.0000
vn -1.0000 -0.0000 -0.0000
vn -0.9487 -0.3162 -0.0000
vn -0.8345 -0.5511 -0.0000
vn -0.8345 -0.5510 -0.0000
vn -0.7071 -0.7071 -0.0000
vn -0.0000 -0.0000 -1.0000
vn 0.0001 -0.0000 -1.0000
vn -0.0002 -0.0000 -1.0000
vn -0.0001 -0.0000 -1.0000
vn 0.0002 -0.0000 -1.0000
vn 0.7071 -0.7071 -0.0000
vn 0.5510 -0.8345 -0.0000
vn 0.5511 -0.8345 -0.0000
vn 0.3162 -0.9487 -0.0000
vn -0.0000 -1.0000 -0.0000
vn -0.3162 -0.9487 -0.0000
vn -0.5511 -0.8345 -0.0000
vn 0.8345 0.5510 -0.0000
vn 0.8345 0.5511 -0.0000
vn 0.9487 0.3162 -0.0000
vn 1.0000 -0.0000 -0.0000
vn 0.9487 -0.3162 -0.0000
vn 0.8345 -0.5511 -0.0000
vn 0.8345 -0.5510 -0.0000
vn 0.5510 0.8345 -0.0000
vn -0.5510 -0.8345 -0.0000
vn -0.8644 -0.5029 -0.0000
vn -0.9659 0.2590 -0.0000
vn -0.9659 0.2591 -0.0000
vn -0.5028 -0.8644 -0.0000
vn -0.5029 -0.8644 -0.0000
vn -0.2591 -0.9659 -0.0000
vn 0.8643 0.5029 -0.0000
vn 0.8644 0.5029 -0.0000
vn 0.9658 0.2592 -0.0000
vn -0.5029 0.8643 -0.0000
vn -0.5029 0.8644 -0.0000
vn -0.2591 0.9659 -0.0000
vn 0.5029 -0.8644 -0.0000
vn 0.5028 -0.8644 -0.0000
vn 0.8644 -0.5029 -0.0000
vn 0.0001 -1.0000 -0.0000
vn 0.9658 -0.2591 -0.0000
vn 0.9659 -0.2591 -0.0000
vn -0.7069 -0.7073 -0.0000
vn 0.2591 0.9659 -0.0000
vn 0.0003 -0.0000 -1.0000
vn 0.3863 -0.9224 -0.0000
vn 0.0948 -0.9955 -0.0000
vn 0.9224 -0.3863 -0.0000
vn -0.0948 -0.9955 -0.0000
vn 0.9955 -0.0948 -0.0000
vn -0.3863 -0.9224 -0.0000
vn 0.9955 0.0948 -0.0000
vn 0.9224 0.3863 -0.0000
vn -0.9224 -0.3863 -0.0000
vn 0.7072 0.7070 -0.0000
vn -0.9955 -0.0948 -0.0000
vn 0.3863 0.9224 -0.0000
vn -0.9955 0.0948 -0.0000
vn 0.0948 0.9955 -0.0000
vn -0.9224 0.3863 -0.0000
vn -0.0948 0.9955 -0.0000
vn -0.7072 0.7070 -0.0000
vn -0.3863 0.9224 -0.0000
vn 0.3862 -0.9224 -0.0000
vn 0.9955 -0.0949 -0.0000
vn 0.2590 -0.9659 -0.0000
vn 0.2594 -0.9658 -0.0000
vn 0.2590 0.9659 -0.0000
vn 0.2593 0.9658 -0.0000
vn 0.7069 -0.7073 -0.0000
vn -0.2593 0.9658 -0.0000
vn -0.2590 0.9659 -0.0000
vn 0.9659 0.2591 -0.0000
vn 0.9660 0.2587 -0.0000
vn 1.0000 0.0001 -0.0000
vn 0.9659 -0.2590 -0.0000
vn -0.9659 -0.2591 -0.0000
vt 0.351336 0.630452
vt 0.462592 0.704623
vt 0.445886 0.725001
vt 0.478188 0.672736
vt 0.485049 0.630452
vt 0.478188 0.588168
vt 0.462592 0.556281
vt 0.445886 0.535902
vt 0.425507 0.519195
vt 0.393620 0.503600
vt 0.351336 0.496738
vt 0.309052 0.503600
vt 0.277165 0.519195
vt 0.256786 0.535902
vt 0.240080 0.556281
vt 0.224484 0.588168
vt 0.217622 0.630452
vt 0.224484 0.672736
vt 0.240080 0.704623
vt 0.256786 0.725001
vt 0.277165 0.741708
vt 0.309052 0.757303
vt 0.351336 0.764165
vt 0.393620 0.757303
vt 0.425507 0.741708
vt 0.565245 0.528330
vt 0.435245 0.528330
vt 0.565245 0.483759
vt 0.435245 0.483759
vt 0.565245 0.439188
vt 0.435245 0.439188
vt 0.565245 0.394617
vt 0.435245 0.394617
vt 0.565245 0.350046
vt 0.435245 0.350046
vt 0.565245 0.305475
vt 0.435245 0.305475
vt 0.565245 0.260904
vt 0.435245 0.260904
vt 0.365113 0.649915
vt 0.476369 0.724086
vt 0.459663 0.744465
vt 0.491965 0.692199
vt 0.498826 0.649915
vt 0.491965 0.607631
vt 0.476369 0.575745
vt 0.459663 0.555366
vt 0.439284 0.538659
vt 0.407397 0.523064
vt 0.365113 0.516202
vt 0.322829 0.523064
vt 0.290942 0.538659
vt 0.270563 0.555366
vt 0.253857 0.575745
vt 0.238261 0.607632
vt 0.231400 0.649915
vt 0.238261 0.692199
vt 0.253857 0.724086
vt 0.270563 0.744465
vt 0.290942 0.761172
vt 0.322829 0.776767
vt 0.365113 0.783629
vt 0.407397 0.776767
vt 0.439284 0.761172
vt 0.592799 0.567258
vt 0.462799 0.567258
vt 0.592799 0.522686
vt 0.462799 0.522686
vt 0.592799 0.478115
vt 0.462799 0.478115
vt 0.592799 0.433544
vt 0.462799 0.433544
vt 0.592799 0.388973
vt 0.462799 0.388973
vt 0.592799 0.344402
vt 0.462799 0.344402
vt 0.592799 0.299831
vt 0.462799 0.299831
vt 0.187133 0.880107
vt 0.122133 0.880107
vt 0.187133 0.750107
vt 0.122133 0.750107
vt 0.187133 0.815107
vt 0.122133 0.815107
vt 0.073696 0.906151
vt 0.006650 0.011688
vt 0.891272 0.004987
vt 0.891272 0.995013
vt 0.108728 0.995013
vt 0.994003 0.695438
vt 0.933060 0.970774
vt 0.985691 0.817295
vt 0.964610 0.909299
vt 0.994003 0.304562
vt 0.933060 0.029226
vt 0.985691 0.182705
vt 0.964610 0.090701
vt 0.108728 0.004987
vt 0.005997 0.304562
vt 0.066940 0.029226
vt 0.014309 0.182705
vt 0.035390 0.090701
vt 0.005997 0.695438
vt 0.066940 0.970774
vt 0.014309 0.817295
vt 0.035390 0.909299
s 1
usemtl Volume1Mtl
f 1/1/1 3/2/1 2/3/2
f 1/1/1 4/4/1 3/2/1
f 1/1/1 5/5/1 4/4/1
f 1/1/1 6/6/1 5/5/1
f 1/1/1 7/7/1 6/6/1
f 1/1/1 8/8/3 7/7/1
f 1/1/1 10/9/1 9/8/4
f 1/1/1 11/10/1 10/9/1
f 1/1/1 12/11/1 11/10/1
f 1/1/1 13/12/1 12/11/1
f 1/1/1 14/13/1 13/12/1
f 1/1/1 15/14/3 14/13/1
f 1/1/1 17/15/1 16/14/4
f 1/1/1 18/16/1 17/15/1
f 1/1/1 19/17/1 18/16/1
f 1/1/1 20/18/1 19/17/1
f 1/1/1 21/19/1 20/18/1
f 1/1/1 22/20/5 21/19/1
f 1/1/1 24/21/4 23/20/4
f 1/1/1 25/22/1 24/21/4
f 1/1/1 26/23/1 25/22/1
f 1/1/1 27/24/1 26/23/1
f 1/1/1 28/25/3 27/24/1
f 1/1/1 29/3/5 28/25/3
f 30/26/6 31/27/6 32/28/7
f 32/28/7 31/27/6 33/29/7
f 32/28/7 33/29/7 34/30/8
f 34/30/8 33/29/7 35/31/8
f 34/30/8 35/31/8 36/32/9
f 36/32/9 35/31/8 37/33/9
f 36/32/9 37/33/9 38/34/10
f 38/34/10 37/33/9 39/35/10
f 38/34/10 39/35/10 40/36/11
f 40/36/11 39/35/10 41/37/11
f 40/36/11 41/37/11 42/38/12
f 42/38/12 41/37/11 43/39/12
f 44/26/6 45/27/6 46/28/13
f 46/28/13 45/27/6 47/29/13
f 46/28/13 47/29/13 48/30/14
f 48/30/14 47/29/13 49/31/14
f 48/30/14 49/31/14 50/32/15
f 50/32/15 49/31/14 51/33/15
f 50/32/15 51/33/15 52/34/16
f 52/34/16 51/33/15 53/35/16
f 52/34/16 53/35/16 54/36/17
f 54/36/17 53/35/16 55/37/18
f 54/36/17 55/37/18 56/38/19
f 56/38/19 55/37/18 57/39/19
f 58/1/20 60/2/21 59/3/22
f 58/1/20 61/4/20 60/2/21
f 58/1/20 62/5/20 61/4/20
f 58/1/20 63/6/20 62/5/20
f 58/1/20 64/7/23 63/6/20
f 58/1/20 65/8/23 64/7/23
f 58/1/20 67/9/21 66/8/21
f 58/1/20 68/10/20 67/9/21
f 58/1/20 69/11/20 68/10/20
f 58/1/20 70/12/20 69/11/20
f 58/1/20 71/13/23 70/12/20
f 58/1/20 72/14/23 71/13/23
f 58/1/20 74/15/21 73/14/21
f 58/1/20 75/16/20 74/15/21
f 58/1/20 76/17/20 75/16/20
f 58/1/20 77/18/20 76/17/20
f 58/1/20 78/19/23 77/18/20
f 58/1/20 79/20/24 78/19/23
f 58/1/20 81/21/20 80/20/22
f 58/1/20 82/22/20 81/21/20
f 58/1/20 83/23/20 82/22/20
f 58/1/20 84/24/20 83/23/20
f 58/1/20 85/25/20 84/24/20
f 58/1/20 86/3/23 85/25/20
f 87/26/25 88/27/25 89/28/26
f 89/28/26 88/27/25 90/29/27
f 89/28/26 90/29/27 91/30/28
f 91/30/28 90/29/27 92/31/28
f 91/30/28 92/31/28 93/32/29
f 93/32/29 92/31/28 94/33/29
f 93/32/29 94/33/29 95/34/30
f 95/34/30 94/33/29 96/35/30
f 95/34/30 96/35/30 97/36/31
f 97/36/31 96/35/30 98/37/31
f 97/36/31 98/37/31 99/38/19
f 99/38/19 98/37/31 100/39/19
f 101/26/12 102/27/12 103/28/32
f 103/28/32 102/27/12 104/29/33
f 103/28/32 104/29/33 105/30/34
f 105/30/34 104/29/33 106/31/34
f 105/30/34 106/31/34 107/32/35
f 107/32/35 106/31/34 108/33/35
f 107/32/35 108/33/35 109/34/36
f 109/34/36 108/33/35 110/35/36
f 109/34/36 110/35/36 111/36/37
f 111/36/37 110/35/36 112/37/38
f 111/36/37 112/37/38 113/38/25
f 113/38/25 112/37/38 114/39/25
f 115/40/1 117/41/1 116/42/2
f 115/40/1 118/43/1 117/41/1
f 115/40/1 119/44/1 118/43/1
f 115/40/1 120/45/1 119/44/1
f 115/40/1 121/46/1 120/45/1
f 115/40/1 122/47/3 121/46/1
f 115/40/1 124/48/1 123/47/3
f 115/40/1 125/49/4 124/48/1
f 115/40/1 126/50/1 125/49/4
f 115/40/1 127/51/3 126/50/1
f 115/40/1 128/52/1 127/51/3
f 115/40/1 129/53/4 128/52/1
f 115/40/1 131/54/1 130/53/4
f 115/40/1 132/55/1 131/54/1
f 115/40/1 133/56/1 132/55/1
f 115/40/1 134/57/1 133/56/1
f 115/40/1 135/58/1 134/57/1
f 115/40/1 136/59/5 135/58/1
f 115/40/1 138/60/4 137/59/2
f 115/40/1 139/61/1 138/60/4
f 115/40/1 140/62/1 139/61/1
f 115/40/1 141/63/1 140/62/1
f 115/40/1 142/64/3 141/63/1
f 115/40/1 143/42/3 142/64/3
f 144/65/6 145/66/6 146/67/7
f 146/67/7 145/66/6 147/68/7
f 146/67/7 147/68/7 148/69/8
f 148/69/8 147/68/7 149/70/8
f 148/69/8 149/70/8 150/71/9
f 150/71/9 149/70/8 151/72/9
f 150/71/9 151/72/9 152/73/10
f 152/73/10 151/72/9 153/74/10
f 152/73/10 153/74/10 154/75/39
f 154/75/39 153/74/10 155/76/39
f 154/75/39 155/76/39 156/77/12
f 156/77/12 155/76/39 157/78/12
f 158/65/6 159/66/6 160/67/13
f 160/67/13 159/66/6 161/68/13
f 160/67/13 161/68/13 162/69/14
f 162/69/14 161/68/13 163/70/14
f 162/69/14 163/70/14 164/71/15
f 164/71/15 163/70/14 165/72/15
f 164/71/15 165/72/15 166/73/16
f 166/73/16 165/72/15 167/74/16
f 166/73/16 167/74/16 168/75/17
f 168/75/17 167/74/16 169/76/17
f 168/75/17 169/76/17 170/77/19
f 170/77/19 169/76/17 171/78/19
f 172/40/20 174/41/21 173/42/22
f 172/40/20 175/43/20 174/41/21
f 172/40/20 176/44/20 175/43/20
f 172/40/20 177/45/20 176/44/20
f 172/40/20 178/46/23 177/45/20
f 172/40/20 179/47/23 178/46/23
f 172/40/20 181/48/21 180/47/24
f 172/40/20 182/49/20 181/48/21
f 172/40/20 183/50/20 182/49/20
f 172/40/20 184/51/20 183/50/20
f 172/40/20 185/52/23 184/51/20
f 172/40/20 186/53/22 185/52/23
f 172/40/20 188/54/21 187/53/21
f 172/40/20 189/55/20 188/54/21
f 172/40/20 190/56/20 189/55/20
f 172/40/20 191/57/20 190/56/20
f 172/40/20 192/58/23 191/57/20
f 172/40/20 193/59/24 192/58/23
f 172/40/20 195/60/20 194/59/21
f 172/40/20 196/61/20 195/60/20
f 172/40/20 197/62/20 196/61/20
f 172/40/20 198/63/20 197/62/20
f 172/40/20 199/64/20 198/63/20
f 172/40/20 200/42/24 199/64/20
f 201/65/25 202/66/25 203/67/27
f 203/67/27 202/66/25 204/68/27
f 203/67/27 204/68/27 205/69/28
f 205/69/28 204/68/27 206/70/28
f 205/69/28 206/70/28 207/71/29
f 207/71/29 206/70/28 208/72/29
f 207/71/29 208/72/29 209/73/30
f 209/73/30 208/72/29 210/74/30
f 209/73/30 210/74/30 211/75/40
f 211/75/40 210/74/30 212/76/31
f 211/75/40 212/76/31 213/77/19
f 213/77/19 212/76/31 214/78/19
f 215/65/12 216/66/12 217/67/32
f 217/67/32 216/66/12 218/68/32
f 217/67/32 218/68/32 219/69/34
f 219/69/34 218/68/32 220/70/34
f 219/69/34 220/70/34 221/71/35
f 221/71/35 220/70/34 222/72/35
f 221/71/35 222/72/35 223/73/36
f 223/73/36 222/72/35 224/74/36
f 223/73/36 224/74/36 225/75/38
f 225/75/38 224/74/36 226/76/37
f 225/75/38 226/76/37 227/77/25
f 227/77/25 226/76/37 228/78/25
usemtl Tunething1Mtl
f 229/79/15 230/80/15 231/81/15
f 231/81/15 230/80/15 232/82/15
f 233/79/9 234/80/9 235/83/9
f 235/83/9 234/80/9 236/84/9
f 237/79/20 238/80/20 239/81/20
f 239/81/20 238/80/20 240/82/20
f 241/79/35 242/80/35 243/81/35
f 243/81/35 242/80/35 244/82/35
f 245/79/29 246/80/29 247/83/29
f 247/83/29 246/80/29 248/84/29
f 249/79/1 250/80/1 251/81/1
f 251/81/1 250/80/1 252/82/1
usemtl Box1Mtl.001
f 253/85/1 254/85/1 255/85/1
f 254/85/1 256/85/1 257/85/1
f 256/85/1 254/85/1 258/85/1
f 258/85/1 254/85/1 253/85/1
f 256/85/1 258/85/1 259/85/2
f 253/85/1 260/85/1 258/85/1
f 261/85/4 260/85/1 253/85/1
f 260/85/1 261/85/4 262/85/1
f 261/85/4 253/85/1 263/85/1
f 255/85/1 264/85/1 253/85/1
f 265/85/1 264/85/1 255/85/1
f 266/85/3 264/85/1 265/85/1
f 264/85/1 266/85/3 267/85/1
f 266/85/3 265/85/1 268/85/1
f 255/85/1 269/85/1 265/85/1
f 270/85/1 269/85/1 255/85/1
f 269/85/1 270/85/1 271/85/2
f 270/85/1 255/85/1 272/85/1
f 273/86/41 274/86/15 275/86/41
f 274/86/15 273/86/41 276/86/15
f 276/86/15 277/86/42 274/86/15
f 277/86/42 276/86/15 278/86/43
f 275/86/41 279/86/44 273/86/41
f 280/86/45 279/86/44 275/86/41
f 280/86/45 281/86/46 279/86/44
f 281/86/46 280/86/45 282/86/46
f 283/86/12 284/86/12 285/86/47
f 285/86/47 284/86/12 286/86/48
f 285/86/47 286/86/48 287/86/49
f 287/86/49 286/86/48 288/86/49
f 289/86/50 290/86/51 291/86/52
f 291/86/52 290/86/51 292/86/52
f 289/86/50 293/86/6 290/86/51
f 293/86/6 289/86/50 294/86/6
f 295/86/53 296/86/54 297/86/29
f 295/86/53 298/86/55 296/86/54
f 297/86/29 296/86/54 299/86/56
f 300/86/55 298/86/55 295/86/53
f 300/86/55 301/86/57 298/86/55
f 301/86/57 300/86/55 302/86/58
f 297/86/29 299/86/56 303/86/45
f 303/86/45 299/86/56 304/86/45
f 303/86/45 304/86/45 305/86/59
f 305/86/59 304/86/45 306/86/59
f 307/85/20 308/85/20 309/85/20
f 308/85/20 310/85/20 309/85/20
f 308/85/20 307/85/20 311/85/20
f 310/85/20 308/85/20 312/85/20
f 311/85/20 307/85/20 313/85/20
f 312/85/20 314/85/20 310/85/20
f 307/85/20 315/85/23 313/85/20
f 314/85/20 312/85/20 316/85/20
f 317/85/20 313/85/20 315/85/23
f 318/85/20 314/85/20 316/85/20
f 313/85/20 317/85/20 319/85/20
f 314/85/20 318/85/20 320/85/21
f 321/85/20 319/85/20 317/85/20
f 321/85/20 317/85/20 322/85/20
f 318/85/20 323/85/20 320/85/21
f 322/85/20 324/85/20 321/85/20
f 318/85/20 325/85/20 323/85/20
f 324/85/20 322/85/20 326/85/20
f 327/85/20 323/85/20 325/85/20
f 328/85/20 324/85/20 326/85/20
f 323/85/20 327/85/20 329/85/20
f 324/85/20 328/85/20 330/85/20
f 331/85/20 329/85/20 327/85/20
f 327/85/20 332/85/20 331/85/20
f 328/85/20 333/85/20 330/85/20
f 334/85/20 333/85/20 328/85/20
f 335/85/20 331/85/20 332/85/20
f 336/85/20 333/85/20 334/85/20
f 335/85/20 332/85/20 337/85/20
f 333/85/20 336/85/20 338/85/20
f 339/85/20 335/85/20 337/85/20
f 340/85/20 338/85/20 336/85/20
f 335/85/20 339/85/20 341/85/21
f 340/85/20 336/85/20 342/85/20
f 339/85/20 343/85/20 341/85/21
f 344/85/20 340/85/20 342/85/20
f 343/85/20 339/85/20 345/85/20
f 344/85/20 343/85/20 345/85/20
f 343/85/20 344/85/20 346/85/20
f 344/85/20 342/85/20 346/85/20
f 347/86/20 348/86/20 349/86/21
f 349/86/21 348/86/20 350/86/20
f 349/86/21 351/86/21 347/86/20
f 351/86/21 349/86/21 352/86/23
f 351/86/21 353/86/22 347/86/20
f 353/86/22 351/86/21 354/86/20
f 347/86/20 355/86/20 348/86/20
f 355/86/20 347/86/20 356/86/20
f 348/86/20 355/86/20 357/86/23
f 348/86/20 357/86/23 358/86/21
f 359/86/20 360/86/20 361/86/20
f 361/86/20 360/86/20 362/86/20
f 359/86/20 361/86/20 363/86/21
f 359/86/20 364/86/23 360/86/20
f 363/86/21 365/86/20 359/86/20
f 365/86/20 363/86/21 366/86/20
f 359/86/20 365/86/20 367/86/20
f 364/86/23 359/86/20 368/86/20
f 364/86/23 368/86/20 369/86/20
f 368/86/20 359/86/20 370/86/20
f 371/86/60 372/86/60 373/86/60
f 372/86/60 371/86/60 374/86/60
f 375/87/20 376/88/20 377/89/20
f 378/90/20 376/88/20 375/87/20
f 376/88/20 378/90/20 379/91/20
f 380/92/20 379/91/20 378/90/20
f 379/91/20 380/92/20 381/93/21
f 375/87/20 382/94/20 378/90/20
f 383/95/21 382/94/20 375/87/20
f 382/94/20 383/95/21 384/96/23
f 384/96/23 383/95/21 385/97/23
f 377/89/20 386/98/20 375/87/20
f 387/99/20 386/98/20 377/89/20
f 386/98/20 387/99/20 388/100/23
f 389/101/61 388/100/23 387/99/20
f 388/100/23 389/101/61 390/102/21
f 377/89/20 391/103/20 387/99/20
f 392/104/20 391/103/20 377/89/20
f 391/103/20 392/104/20 393/105/20
f 393/105/20 392/104/20 394/106/24
f 395/85/62 396/85/62 397/85/25
f 395/85/62 398/85/63 396/85/62
f 397/85/25 396/85/62 399/85/25
f 400/85/63 398/85/63 395/85/62
f 397/85/25 399/85/25 401/85/64
f 400/85/63 402/85/65 398/85/63
f 401/85/64 399/85/25 403/85/64
f 402/85/65 400/85/63 404/85/65
f 401/85/64 403/85/64 405/85/66
f 404/85/65 406/85/67 402/85/65
f 405/85/66 403/85/64 407/85/66
f 408/85/67 406/85/67 404/85/65
f 409/85/68 405/85/66 407/85/66
f 408/85/67 410/85/19 406/85/67
f 409/85/68 407/85/66 411/85/68
f 412/85/19 410/85/19 408/85/67
f 409/85/68 411/85/68 413/85/69
f 412/85/19 414/85/70 410/85/19
f 413/85/69 411/85/68 415/85/69
f 414/85/70 412/85/19 416/85/70
f 415/85/69 417/85/71 413/85/69
f 416/85/70 418/85/72 414/85/70
f 417/85/71 415/85/69 419/85/71
f 420/85/72 418/85/72 416/85/70
f 417/85/71 419/85/71 421/85/73
f 420/85/72 422/85/74 418/85/72
f 421/85/73 419/85/71 423/85/73
f 420/85/72 424/85/74 422/85/74
f 421/85/73 423/85/73 425/85/75
f 424/85/74 426/85/76 422/85/74
f 425/85/75 423/85/73 427/85/75
f 428/85/76 426/85/76 424/85/74
f 427/85/75 429/85/77 425/85/75
f 428/85/76 430/85/78 426/85/76
f 429/85/77 427/85/75 431/85/77
f 432/85/78 430/85/78 428/85/76
f 429/85/77 431/85/77 433/85/79
f 432/85/78 434/85/79 430/85/78
f 433/85/79 431/85/77 434/85/79
f 433/85/79 434/85/79 432/85/78
f 435/85/72 436/85/72 437/85/74
f 436/85/72 435/85/72 438/85/70
f 437/85/74 436/85/72 439/85/74
f 438/85/70 440/85/70 436/85/72
f 441/85/76 437/85/74 439/85/74
f 440/85/70 438/85/70 442/85/19
f 437/85/74 441/85/76 443/85/76
f 442/85/19 444/85/19 440/85/70
f 445/85/6 443/85/76 441/85/76
f 444/85/19 442/85/19 446/85/67
f 443/85/76 445/85/6 447/85/6
f 446/85/67 448/85/67 444/85/19
f 449/85/79 447/85/6 445/85/6
f 448/85/67 446/85/67 450/85/65
f 447/85/6 449/85/79 451/85/79
f 450/85/65 452/85/65 448/85/67
f 453/85/77 451/85/79 449/85/79
f 450/85/65 454/85/63 452/85/65
f 451/85/79 453/85/77 455/85/77
f 450/85/65 456/85/63 454/85/63
f 457/85/75 455/85/77 453/85/77
f 458/85/80 454/85/63 456/85/63
f 457/85/75 453/85/77 459/85/75
f 454/85/63 458/85/80 460/85/62
f 457/85/75 459/85/75 461/85/73
f 462/85/25 460/85/62 458/85/80
f 461/85/73 463/85/73 457/85/75
f 460/85/62 462/85/25 464/85/25
f 463/85/73 461/85/73 465/85/12
f 466/85/64 464/85/25 462/85/25
f 465/85/12 467/85/12 463/85/73
f 464/85/25 466/85/64 468/85/64
f 467/85/12 465/85/12 469/85/69
f 469/85/69 470/85/69 467/85/12
f 471/85/66 468/85/64 466/85/64
f 470/85/69 469/85/69 472/85/68
f 468/85/64 471/85/66 473/85/81
f 471/85/66 472/85/68 473/85/81
f 472/85/68 474/85/68 470/85/69
f 474/85/68 472/85/68 471/85/66
f 475/86/82 476/86/82 477/86/82
f 476/86/82 475/86/82 478/86/83
f 479/86/84 480/86/84 481/86/85
f 481/86/85 480/86/84 482/86/84
f 483/86/86 484/86/86 485/86/86
f 484/86/86 483/86/86 486/86/86
f 487/86/51 488/86/51 489/86/87
f 489/86/87 488/86/51 490/86/88
f 487/86/51 491/86/6 488/86/51
f 492/86/6 491/86/6 487/86/51
f 493/86/12 494/86/12 495/86/12
f 495/86/12 494/86/12 496/86/12
f 497/86/89 498/86/90 499/86/91
f 499/86/91 498/86/90 500/86/35
f 500/86/35 501/86/57 499/86/91
f 501/86/57 500/86/35 502/86/92
f 503/86/93 504/86/15 505/86/93
f 504/86/15 503/86/93 506/86/15
f 506/86/15 507/86/42 504/86/15
f 507/86/42 506/86/15 508/86/43
