# Blender 5.1.2
# www.blender.org
mtllib Tire.mtl
o Tire
v -0.088222 0.312760 1.449005
v -1.025421 0.473100 0.914005
v -1.093422 0.312760 0.975807
v -0.083821 0.473101 1.357204
v -1.093422 -0.353930 0.975807
v -0.088222 -0.353930 1.449005
v -1.025421 -0.491950 0.914005
v -0.083821 -0.491950 1.357204
v -1.469522 0.312760 -0.069492
v -1.025421 0.473100 0.914005
v -1.377722 0.473100 -0.065193
v -1.093422 0.312760 0.975807
v -1.093422 -0.353930 0.975807
v -1.469522 -0.353930 -0.069492
v -1.025421 -0.491950 0.914005
v -1.377722 -0.491950 -0.065193
v -0.934522 0.473100 -1.006695
v -1.469522 0.312760 -0.069492
v -1.377722 0.473100 -0.065193
v -0.996322 0.312760 -1.074696
v -0.996322 -0.353930 -1.074696
v -1.469522 -0.353930 -0.069492
v -0.934522 -0.491950 -1.006695
v -1.377722 -0.491950 -0.065193
v -0.088222 0.312760 1.449005
v 0.957178 0.312760 1.072807
v 0.895278 0.473101 1.004906
v -0.083821 0.473101 1.357204
v -0.088222 -0.353930 1.449005
v 0.957178 -0.353930 1.072807
v 0.895278 -0.491950 1.004906
v -0.083821 -0.491950 1.357204
v -0.934522 0.473100 -1.006695
v 0.044679 0.473100 -1.359093
v 0.048979 0.312760 -1.450893
v -0.996322 0.312760 -1.074696
v 0.048979 -0.353930 -1.450893
v -0.996322 -0.353930 -1.074696
v -0.934522 -0.491950 -1.006695
v 0.044679 -0.491950 -1.359093
v 1.430378 0.312760 0.067707
v 0.895278 0.473101 1.004906
v 0.957178 0.312760 1.072807
v 1.338578 0.473100 0.063305
v 0.957178 -0.353930 1.072807
v 1.430378 -0.353930 0.067707
v 0.895278 -0.491950 1.004906
v 1.338578 -0.491950 0.063305
v 1.430378 0.312760 0.067707
v 1.054178 0.312760 -0.977695
v 0.986178 0.473100 -0.915794
v 1.338578 0.473100 0.063305
v 1.054178 -0.353930 -0.977695
v 1.430378 -0.353930 0.067707
v 0.986178 -0.491950 -0.915794
v 1.338578 -0.491950 0.063305
v 0.986178 0.473100 -0.915794
v 0.048979 0.312760 -1.450893
v 0.044679 0.473100 -1.359093
v 1.054178 0.312760 -0.977695
v 1.054178 -0.353930 -0.977695
v 0.048979 -0.353930 -1.450893
v 0.986178 -0.491950 -0.915794
v 0.044679 -0.491950 -1.359093
v -0.052321 0.473100 0.691505
v -0.532422 0.473100 0.465607
v -1.025421 0.473100 0.914005
v -0.712122 0.473100 -0.033695
v -0.083821 0.473101 1.357204
v 0.446878 0.473100 0.511906
v 0.895278 0.473101 1.004906
v -1.377722 0.473100 -0.065193
v -0.934522 0.473100 -1.006695
v -0.486121 0.473100 -0.513794
v 0.044679 0.473100 -1.359093
v 0.013179 0.473100 -0.693394
v 0.493279 0.473100 -0.467396
v 0.986178 0.473100 -0.915794
v 1.338578 0.473100 0.063305
v 0.446878 0.473100 0.511906
v 0.895278 0.473101 1.004906
v 0.672878 0.473100 0.031807
v 0.493279 0.473100 -0.467396
v 0.986178 0.473100 -0.915794
v -0.052321 -0.491950 0.691605
v -0.083821 -0.491950 1.357204
v -0.532422 -0.491950 0.465607
v 0.895278 -0.491950 1.004906
v -1.025421 -0.491950 0.914005
v 0.446878 -0.491950 0.511906
v -0.712122 -0.491950 -0.033695
v 1.338578 -0.491950 0.063305
v -1.377722 -0.491950 -0.065193
v 0.672878 -0.491950 0.031807
v -0.934522 -0.491950 -1.006695
v 0.493279 -0.491950 -0.467396
v -0.486121 -0.491950 -0.513794
v 0.986178 -0.491950 -0.915794
v 0.044679 -0.491950 -1.359093
v 0.013179 -0.491950 -0.693394
v 0.493279 0.473100 -0.467396
v 0.377078 -0.020590 -0.361694
v 0.672878 0.473100 0.031807
v 0.515979 -0.020590 0.024406
v 0.672878 -0.491950 0.031807
v 0.493279 -0.491950 -0.467396
v 0.672878 0.473100 0.031807
v 0.341178 -0.020590 0.395706
v 0.446878 0.473100 0.511906
v 0.515979 -0.020590 0.024406
v 0.672878 -0.491950 0.031807
v 0.446878 -0.491950 0.511906
v 0.377078 -0.020590 -0.361694
v 0.013179 0.473100 -0.693394
v 0.005778 -0.020590 -0.536495
v 0.493279 0.473100 -0.467396
v 0.013179 -0.491950 -0.693394
v 0.493279 -0.491950 -0.467396
v -0.052321 0.473100 0.691505
v 0.446878 0.473100 0.511906
v 0.341178 -0.020590 0.395706
v -0.044922 -0.020590 0.534706
v -0.052321 -0.491950 0.691605
v 0.446878 -0.491950 0.511906
v 0.005778 -0.020590 -0.536495
v 0.013179 0.473100 -0.693394
v -0.380422 -0.020590 -0.397594
v -0.486121 0.473100 -0.513794
v 0.013179 -0.491950 -0.693394
v -0.486121 -0.491950 -0.513794
v -0.380422 -0.020590 -0.397594
v -0.712122 0.473100 -0.033695
v -0.555222 -0.020590 -0.026295
v -0.486121 0.473100 -0.513794
v -0.712122 -0.491950 -0.033695
v -0.486121 -0.491950 -0.513794
v -0.052321 0.473100 0.691505
v -0.416222 -0.020590 0.359905
v -0.532422 0.473100 0.465607
v -0.044922 -0.020590 0.534706
v -0.052321 -0.491950 0.691605
v -0.532422 -0.491950 0.465607
v -0.712122 0.473100 -0.033695
v -0.416222 -0.020590 0.359905
v -0.555222 -0.020590 -0.026295
v -0.532422 0.473100 0.465607
v -0.712122 -0.491950 -0.033695
v -0.532422 -0.491950 0.465607
vn -0.4265 0.0869 0.9003
vn -0.3772 0.4637 0.8016
vn -0.4262 -0.0947 0.8997
vn -0.3613 -0.5263 0.7697
vn -0.3613 -0.5262 0.7698
vn -0.9374 0.0866 0.3373
vn -0.8338 0.4641 0.2989
vn -0.9369 0.0866 0.3386
vn -0.9367 -0.0945 0.3370
vn -0.9363 -0.0944 0.3383
vn -0.7999 -0.5254 0.2902
vn -0.7999 -0.5254 0.2901
vn -0.8017 0.4637 -0.3773
vn -0.9003 0.0869 -0.4265
vn -0.8997 -0.0947 -0.4262
vn -0.7697 -0.5263 -0.3613
vn 0.3373 0.0866 0.9374
vn 0.3386 0.0867 0.9369
vn 0.2989 0.4641 0.8338
vn 0.3383 -0.0945 0.9363
vn 0.3371 -0.0944 0.9367
vn 0.2901 -0.5254 0.7999
vn -0.2989 0.4641 -0.8338
vn -0.3374 0.0866 -0.9374
vn -0.3386 0.0866 -0.9369
vn -0.3383 -0.0944 -0.9363
vn -0.3371 -0.0945 -0.9367
vn -0.2902 -0.5254 -0.7998
vn -0.2901 -0.5254 -0.7999
vn 0.9003 0.0869 0.4265
vn 0.8017 0.4637 0.3773
vn 0.8017 0.4637 0.3772
vn 0.8997 -0.0948 0.4262
vn 0.8997 -0.0947 0.4262
vn 0.7697 -0.5263 0.3613
vn 0.9374 0.0866 -0.3374
vn 0.9369 0.0867 -0.3386
vn 0.8338 0.4641 -0.2989
vn 0.9367 -0.0944 -0.3371
vn 0.9363 -0.0945 -0.3383
vn 0.7999 -0.5254 -0.2901
vn 0.3773 0.4637 -0.8017
vn 0.4265 0.0869 -0.9003
vn 0.4262 -0.0948 -0.8997
vn 0.3613 -0.5262 -0.7698
vn 0.3613 -0.5263 -0.7697
vn -0.0000 1.0000 -0.0000
vn -0.0000 -1.0000 -0.0000
vn -0.9035 0.2828 0.3221
vn -0.9405 -0.0000 0.3398
vn -0.9035 0.2828 0.3222
vn -0.9000 -0.2921 0.3237
vn -0.8669 0.2837 -0.4098
vn -0.9052 -0.0000 -0.4250
vn -0.8650 -0.2909 -0.4089
vn -0.4250 -0.0000 0.9052
vn -0.4098 0.2837 0.8669
vn -0.4089 -0.2909 0.8650
vn -0.3221 0.2828 -0.9035
vn -0.3398 -0.0000 -0.9405
vn -0.3237 -0.2921 -0.8999
vn 0.3398 -0.0000 0.9405
vn 0.3221 0.2828 0.9035
vn 0.3237 -0.2921 0.9000
vn 0.9052 -0.0000 0.4250
vn 0.8669 0.2837 0.4098
vn 0.8650 -0.2909 0.4089
vn 0.4098 0.2837 -0.8669
vn 0.4251 -0.0000 -0.9051
vn 0.4250 -0.0000 -0.9052
vn 0.4089 -0.2909 -0.8650
vn 0.4089 -0.2910 -0.8650
vn 0.9035 0.2828 -0.3221
vn 0.9405 -0.0000 -0.3398
vn 0.9000 -0.2921 -0.3237
vt 1.000000 0.833852
vt 0.815495 0.999999
vt 0.836823 0.833852
vt 0.968339 0.999999
vt 0.836823 0.143019
vt 1.000000 0.143019
vt 0.815495 0.000000
vt 0.968339 0.000000
vt 0.476340 0.833852
vt 0.477838 0.999999
vt 0.476340 0.143019
vt 0.477838 0.000000
vt 0.153164 0.999999
vt 0.129716 0.833852
vt 0.129716 0.143019
vt 0.153164 0.000000
vt 0.870284 0.833852
vt 0.846836 0.999999
vt 0.870284 0.143019
vt 0.846836 0.000000
vt 0.031661 0.999999
vt 0.000000 0.833852
vt 0.000000 0.143019
vt 0.031661 0.000000
vt 0.523660 0.833852
vt 0.522162 0.999999
vt 0.523660 0.143019
vt 0.522162 0.000000
vt 0.163177 0.833852
vt 0.184505 0.999999
vt 0.163177 0.143019
vt 0.184505 0.000000
vt 0.738796 1.000000
vt 0.660864 1.000000
vt 0.488700 1.000000
vt 0.676844 1.000000
vt 0.323155 1.000000
vt 0.261204 1.000000
vt 0.339136 1.000000
vt 0.511300 1.000000
vt 0.738796 0.000000
vt 0.660864 0.000000
vt 0.676845 0.000000
vt 0.488700 0.000000
vt 0.511300 0.000000
vt 0.339136 0.000000
vt 0.323155 0.000000
vt 0.261204 0.000000
vt 0.375578 0.488435
vt 0.508740 0.488435
vt 0.636782 0.488435
vt 0.315301 0.488435
vt 0.684699 0.488435
vt 0.363218 0.488435
vt 0.491260 0.488435
vt 0.624422 0.488435
s 1
usemtl Tire1Mtl
f 1/1/1 2/2/2 3/3/1
f 2/2/2 1/1/1 4/4/2
f 5/5/3 1/1/1 3/3/1
f 5/5/3 6/6/3 1/1/1
f 6/6/3 5/5/3 7/7/4
f 7/7/4 8/8/5 6/6/3
f 9/9/6 10/2/7 11/10/7
f 9/9/6 12/3/8 10/2/7
f 9/9/6 13/5/9 12/3/8
f 13/5/9 9/9/6 14/11/10
f 14/11/10 15/7/11 13/5/9
f 15/7/11 14/11/10 16/12/12
f 17/13/13 18/9/14 19/10/13
f 18/9/14 17/13/13 20/14/14
f 21/15/15 18/9/14 20/14/14
f 18/9/14 21/15/15 22/11/15
f 23/16/16 22/11/15 21/15/15
f 22/11/15 23/16/16 24/12/16
f 25/1/17 26/17/18 27/18/19
f 25/1/17 27/18/19 28/4/19
f 29/6/20 26/17/18 25/1/17
f 29/6/20 30/19/21 26/17/18
f 29/6/20 31/20/22 30/19/21
f 31/20/22 29/6/20 32/8/22
f 33/13/23 34/21/23 35/22/24
f 33/13/23 35/22/24 36/14/25
f 35/22/24 37/23/26 36/14/25
f 36/14/25 37/23/26 38/15/27
f 37/23/26 39/16/28 38/15/27
f 39/16/28 37/23/26 40/24/29
f 41/25/30 42/18/31 43/17/30
f 42/18/31 41/25/30 44/26/32
f 41/25/30 43/17/30 45/19/33
f 46/27/34 41/25/30 45/19/33
f 46/27/34 45/19/33 47/20/35
f 47/20/35 48/28/35 46/27/34
f 49/25/36 50/29/37 51/30/38
f 51/30/38 52/26/38 49/25/36
f 49/25/36 53/31/39 50/29/37
f 53/31/39 49/25/36 54/27/40
f 54/27/40 55/32/41 53/31/39
f 55/32/41 54/27/40 56/28/41
f 57/30/42 58/22/43 59/21/42
f 58/22/43 57/30/42 60/29/43
f 60/29/43 61/31/44 58/22/43
f 58/22/43 61/31/44 62/23/44
f 62/23/44 61/31/44 63/32/45
f 62/23/44 63/32/45 64/24/46
f 65/33/47 66/34/47 67/2/47
f 68/35/47 67/2/47 66/34/47
f 65/33/47 67/2/47 69/4/47
f 69/4/47 70/36/47 65/33/47
f 70/36/47 69/4/47 71/18/47
f 67/2/47 68/35/47 72/10/47
f 68/35/47 73/13/47 72/10/47
f 73/13/47 68/35/47 74/37/47
f 75/21/47 73/13/47 74/37/47
f 75/21/47 74/37/47 76/38/47
f 77/39/47 75/21/47 76/38/47
f 75/21/47 77/39/47 78/30/47
f 79/26/47 80/36/47 81/18/47
f 80/36/47 79/26/47 82/40/47
f 83/39/47 82/40/47 79/26/47
f 83/39/47 79/26/47 84/30/47
f 85/41/48 86/8/48 87/42/48
f 85/41/48 88/20/48 86/8/48
f 86/8/48 89/7/48 87/42/48
f 88/20/48 85/41/48 90/43/48
f 89/7/48 91/44/48 87/42/48
f 88/20/48 90/43/48 92/28/48
f 91/44/48 89/7/48 93/12/48
f 92/28/48 90/43/48 94/45/48
f 95/16/48 91/44/48 93/12/48
f 96/46/48 92/28/48 94/45/48
f 91/44/48 95/16/48 97/47/48
f 92/28/48 96/46/48 98/32/48
f 99/24/48 97/47/48 95/16/48
f 96/46/48 99/24/48 98/32/48
f 97/47/48 99/24/48 100/48/48
f 99/24/48 96/46/48 100/48/48
f 101/39/49 102/49/50 103/40/51
f 102/49/50 104/50/50 103/40/51
f 102/49/50 105/45/52 104/50/50
f 105/45/52 102/49/50 106/46/52
f 107/40/53 108/51/54 109/36/53
f 108/51/54 107/40/53 110/50/54
f 110/50/54 111/45/55 108/51/54
f 111/45/55 112/43/55 108/51/54
f 113/49/56 114/38/57 115/52/56
f 114/38/57 113/49/56 116/39/57
f 117/48/58 113/49/56 115/52/56
f 118/46/58 113/49/56 117/48/58
f 119/33/59 120/36/59 121/51/60
f 119/33/59 121/51/60 122/53/60
f 121/51/60 123/41/61 122/53/60
f 123/41/61 121/51/60 124/43/61
f 125/52/62 126/38/63 127/54/62
f 127/54/62 126/38/63 128/37/63
f 127/54/62 129/48/64 125/52/62
f 129/48/64 127/54/62 130/47/64
f 131/54/65 132/35/66 133/55/65
f 132/35/66 131/54/65 134/37/66
f 135/44/67 131/54/65 133/55/65
f 131/54/65 135/44/67 136/47/67
f 137/33/68 138/56/69 139/34/68
f 138/56/69 137/33/68 140/53/70
f 138/56/69 140/53/70 141/41/71
f 141/41/71 142/42/72 138/56/69
f 143/35/73 144/56/74 145/55/74
f 144/56/74 143/35/73 146/34/73
f 144/56/74 147/44/75 145/55/74
f 147/44/75 144/56/74 148/42/75
