# Blender 5.1.2
# www.blender.org
mtllib Wire.mtl
o Wire
v 0.211215 -0.010928 -0.714573
v 0.211215 -0.100058 -0.714573
v 0.258886 -0.010928 -0.652372
v 0.258886 -0.100058 -0.652372
v 0.288856 -0.010928 -0.580072
v 0.288856 -0.100058 -0.580072
v 0.299086 -0.010928 -0.502373
v 0.299086 -0.100058 -0.502373
v 0.288856 -0.010928 -0.424772
v 0.288856 -0.100058 -0.424772
v 0.258886 -0.010928 -0.352373
v 0.258886 -0.100058 -0.352373
v 0.211215 -0.010928 -0.290272
v 0.211215 -0.100058 -0.290272
v 0.157396 0.007882 -0.660673
v 0.192976 0.007882 -0.614372
v 0.202946 -0.010928 -0.620071
v 0.165535 -0.010928 -0.668873
v 0.215336 0.007882 -0.560371
v 0.192976 0.007882 -0.614372
v 0.226466 -0.010928 -0.563372
v 0.202946 -0.010928 -0.620071
v 0.222966 0.007882 -0.502373
v 0.215336 0.007882 -0.560371
v 0.234486 -0.010928 -0.502373
v 0.226466 -0.010928 -0.563372
v 0.222966 0.007882 -0.502373
v 0.215336 0.007882 -0.444471
v 0.234486 -0.010928 -0.502373
v 0.226466 -0.010928 -0.441473
v 0.215336 0.007882 -0.444471
v 0.192976 0.007882 -0.390472
v 0.226466 -0.010928 -0.441473
v 0.202946 -0.010928 -0.384672
v 0.202946 -0.010928 -0.384672
v 0.157396 0.007882 -0.344072
v 0.165535 -0.010928 -0.335972
v 0.192976 0.007882 -0.390472
v -0.000915 0.049942 -0.502373
v -0.052354 0.046962 -0.450972
v -0.037294 0.046962 -0.439373
v -0.098764 0.038322 -0.404572
v -0.070104 0.038322 -0.382572
v -0.096144 0.024852 -0.337473
v -0.135584 0.024852 -0.367773
v -0.112864 0.007882 -0.308472
v -0.159225 0.007882 -0.344072
v -0.159225 0.007882 -0.344072
v -0.194804 0.007882 -0.390472
v -0.165854 0.024852 -0.407173
v -0.135584 0.024852 -0.367773
v -0.098764 0.038322 -0.404572
v -0.120754 0.038322 -0.433172
v -0.052354 0.046962 -0.450972
v -0.063914 0.046962 -0.466072
v -0.000915 0.049942 -0.502373
v -0.120754 0.038322 -0.433172
v -0.071184 0.046962 -0.483572
v -0.134574 0.038322 -0.466572
v -0.063914 0.046962 -0.466072
v -0.000915 0.049942 -0.502373
v -0.165854 0.024852 -0.407173
v -0.184875 0.024852 -0.453072
v -0.217175 0.007882 -0.444471
v -0.194804 0.007882 -0.390472
v -0.191364 0.024852 -0.502373
v -0.134574 0.038322 -0.466572
v -0.139284 0.038322 -0.502373
v -0.073664 0.046962 -0.502373
v -0.071184 0.046962 -0.483572
v -0.000915 0.049942 -0.502373
v -0.184875 0.024852 -0.453072
v -0.224804 0.007882 -0.502373
v -0.217175 0.007882 -0.444471
v -0.184875 0.024852 -0.551672
v -0.139284 0.038322 -0.502373
v -0.134574 0.038322 -0.538172
v -0.191364 0.024852 -0.502373
v -0.073664 0.046962 -0.502373
v -0.071184 0.046962 -0.521273
v -0.000915 0.049942 -0.502373
v -0.217175 0.007882 -0.560371
v -0.224804 0.007882 -0.502373
v -0.194804 0.007882 -0.614372
v -0.184875 0.024852 -0.551672
v -0.165854 0.024852 -0.597672
v -0.120754 0.038322 -0.571571
v -0.217175 0.007882 -0.560371
v -0.134574 0.038322 -0.538172
v -0.063914 0.046962 -0.538773
v -0.071184 0.046962 -0.521273
v -0.000915 0.049942 -0.502373
v -0.000915 0.049942 -0.502373
v -0.052354 0.046962 -0.553873
v -0.063914 0.046962 -0.538773
v -0.098764 0.038322 -0.600273
v -0.120754 0.038322 -0.571571
v -0.165854 0.024852 -0.597672
v -0.135584 0.024852 -0.637072
v -0.159225 0.007882 -0.660673
v -0.194804 0.007882 -0.614372
v -0.037294 0.046962 -0.565372
v -0.098764 0.038322 -0.600273
v -0.052354 0.046962 -0.553873
v -0.000915 0.049942 -0.502373
v -0.070104 0.038322 -0.622272
v -0.135584 0.024852 -0.637072
v -0.096144 0.024852 -0.667372
v -0.112864 0.007882 -0.696272
v -0.159225 0.007882 -0.660673
v -0.070104 0.038322 -0.622272
v -0.037294 0.046962 -0.565372
v -0.036735 0.038322 -0.636072
v -0.019744 0.046962 -0.572672
v -0.000915 0.049942 -0.502373
v -0.050214 0.024852 -0.686373
v -0.096144 0.024852 -0.667372
v -0.112864 0.007882 -0.696272
v -0.058865 0.007882 -0.718672
v -0.000915 0.024852 -0.692873
v -0.050214 0.024852 -0.686373
v -0.036735 0.038322 -0.636072
v -0.058865 0.007882 -0.718672
v -0.000915 0.038322 -0.640772
v -0.000915 0.007882 -0.726273
v -0.019744 0.046962 -0.572672
v -0.000915 0.046962 -0.575172
v -0.000915 0.049942 -0.502373
v -0.000915 0.024852 -0.692873
v 0.034895 0.038322 -0.636072
v 0.048376 0.024852 -0.686373
v 0.057025 0.007882 -0.718672
v -0.000915 0.038322 -0.640772
v -0.000915 0.007882 -0.726273
v 0.017906 0.046962 -0.572672
v -0.000915 0.046962 -0.575172
v -0.000915 0.049942 -0.502373
v -0.050214 0.024852 -0.318472
v -0.000915 0.007882 -0.278473
v -0.000915 0.024852 -0.311972
v -0.058865 0.007882 -0.286173
v -0.036735 0.038322 -0.368773
v -0.000915 0.038322 -0.364073
v -0.019744 0.046962 -0.432173
v -0.000915 0.046962 -0.429672
v -0.000915 0.049942 -0.502373
v -0.050214 0.024852 -0.318472
v -0.096144 0.024852 -0.337473
v -0.112864 0.007882 -0.308472
v -0.070104 0.038322 -0.382572
v -0.058865 0.007882 -0.286173
v -0.036735 0.038322 -0.368773
v -0.037294 0.046962 -0.439373
v -0.019744 0.046962 -0.432173
v -0.000915 0.049942 -0.502373
v -0.000915 0.049942 -0.502373
v 0.035456 0.046962 -0.565372
v 0.017906 0.046962 -0.572672
v 0.034895 0.038322 -0.636072
v 0.068265 0.038322 -0.622272
v 0.048376 0.024852 -0.686373
v 0.094306 0.024852 -0.667372
v 0.057025 0.007882 -0.718672
v 0.111026 0.007882 -0.696272
v 0.157396 0.007882 -0.660673
v 0.111026 0.007882 -0.696272
v 0.133746 0.024852 -0.637072
v 0.094306 0.024852 -0.667372
v 0.068265 0.038322 -0.622272
v 0.096926 0.038322 -0.600273
v 0.035456 0.046962 -0.565372
v 0.050516 0.046962 -0.553873
v -0.000915 0.049942 -0.502373
v 0.062076 0.046962 -0.538773
v 0.096926 0.038322 -0.600273
v 0.050516 0.046962 -0.553873
v -0.000915 0.049942 -0.502373
v 0.118916 0.038322 -0.571571
v 0.133746 0.024852 -0.637072
v 0.164016 0.024852 -0.597672
v 0.157396 0.007882 -0.660673
v 0.192976 0.007882 -0.614372
v 0.069345 0.046962 -0.521273
v 0.132736 0.038322 -0.538172
v 0.062076 0.046962 -0.538773
v -0.000915 0.049942 -0.502373
v 0.118916 0.038322 -0.571571
v 0.183036 0.024852 -0.551672
v 0.164016 0.024852 -0.597672
v 0.215336 0.007882 -0.560371
v 0.192976 0.007882 -0.614372
v 0.183036 0.024852 -0.551672
v 0.137445 0.038322 -0.502373
v 0.189526 0.024852 -0.502373
v 0.222966 0.007882 -0.502373
v 0.132736 0.038322 -0.538172
v 0.215336 0.007882 -0.560371
v 0.069345 0.046962 -0.521273
v 0.071826 0.046962 -0.502373
v -0.000915 0.049942 -0.502373
v 0.222966 0.007882 -0.502373
v 0.183036 0.024852 -0.453072
v 0.215336 0.007882 -0.444471
v 0.189526 0.024852 -0.502373
v 0.137445 0.038322 -0.502373
v 0.132736 0.038322 -0.466572
v 0.069345 0.046962 -0.483572
v 0.071826 0.046962 -0.502373
v -0.000915 0.049942 -0.502373
v -0.000915 0.049942 -0.502373
v 0.062076 0.046962 -0.466072
v 0.069345 0.046962 -0.483572
v 0.132736 0.038322 -0.466572
v 0.118916 0.038322 -0.433172
v 0.183036 0.024852 -0.453072
v 0.164016 0.024852 -0.407173
v 0.215336 0.007882 -0.444471
v 0.192976 0.007882 -0.390472
v 0.157396 0.007882 -0.344072
v 0.192976 0.007882 -0.390472
v 0.164016 0.024852 -0.407173
v 0.133746 0.024852 -0.367773
v 0.096926 0.038322 -0.404572
v 0.118916 0.038322 -0.433172
v 0.050516 0.046962 -0.450972
v 0.062076 0.046962 -0.466072
v -0.000915 0.049942 -0.502373
v 0.035456 0.046962 -0.439373
v 0.096926 0.038322 -0.404572
v 0.050516 0.046962 -0.450972
v -0.000915 0.049942 -0.502373
v 0.068265 0.038322 -0.382572
v 0.094306 0.024852 -0.337473
v 0.133746 0.024852 -0.367773
v 0.111026 0.007882 -0.308472
v 0.157396 0.007882 -0.344072
v 0.034895 0.038322 -0.368773
v 0.094306 0.024852 -0.337473
v 0.068265 0.038322 -0.382572
v 0.035456 0.046962 -0.439373
v 0.017906 0.046962 -0.432173
v -0.000915 0.049942 -0.502373
v 0.048376 0.024852 -0.318472
v 0.057025 0.007882 -0.286173
v 0.111026 0.007882 -0.308472
v -0.000915 0.024852 -0.311972
v 0.034895 0.038322 -0.368773
v -0.000915 0.038322 -0.364073
v 0.048376 0.024852 -0.318472
v 0.017906 0.046962 -0.432173
v -0.000915 0.046962 -0.429672
v -0.000915 0.049942 -0.502373
v -0.000915 0.007882 -0.278473
v 0.057025 0.007882 -0.286173
v -0.150914 -0.010928 -0.762173
v -0.167374 -0.010928 -0.668873
v -0.118624 -0.010928 -0.706272
v -0.213054 -0.010928 -0.714573
v -0.204784 -0.010928 -0.620071
v -0.213054 -0.010928 -0.714573
v -0.260725 -0.010928 -0.652372
v -0.167374 -0.010928 -0.668873
v -0.000915 -0.010928 -0.802372
v -0.061844 -0.010928 -0.729773
v -0.000915 -0.010928 -0.737772
v -0.078564 -0.010928 -0.792171
v -0.061844 -0.010928 -0.729773
v -0.150914 -0.010928 -0.762173
v -0.118624 -0.010928 -0.706272
v -0.078564 -0.010928 -0.792171
v -0.290694 -0.010928 -0.580072
v -0.236324 -0.010928 -0.502373
v -0.228304 -0.010928 -0.563372
v -0.300914 -0.010928 -0.502373
v -0.236324 -0.010928 -0.502373
v -0.300914 -0.010928 -0.502373
v -0.290694 -0.010928 -0.424772
v -0.228304 -0.010928 -0.441473
v -0.260725 -0.010928 -0.352373
v -0.204784 -0.010928 -0.384672
v -0.290694 -0.010928 -0.424772
v -0.228304 -0.010928 -0.441473
v -0.290694 -0.010928 -0.580072
v -0.204784 -0.010928 -0.620071
v -0.260725 -0.010928 -0.652372
v -0.228304 -0.010928 -0.563372
v -0.118624 -0.010928 -0.298573
v -0.213054 -0.010928 -0.290272
v -0.150914 -0.010928 -0.242573
v -0.167374 -0.010928 -0.335972
v -0.061844 -0.010928 -0.274973
v -0.150914 -0.010928 -0.242573
v -0.078564 -0.010928 -0.212673
v -0.118624 -0.010928 -0.298573
v -0.000915 -0.010928 -0.266972
v -0.078564 -0.010928 -0.212673
v -0.000915 -0.010928 -0.202372
v -0.078564 -0.010928 -0.212673
v -0.000915 -0.010928 -0.266972
v -0.061844 -0.010928 -0.274973
v -0.167374 -0.010928 -0.335972
v -0.260725 -0.010928 -0.352373
v -0.213054 -0.010928 -0.290272
v -0.204784 -0.010928 -0.384672
v -0.000915 -0.010928 -0.202372
v 0.060006 -0.010928 -0.274973
v -0.000915 -0.010928 -0.266972
v 0.076725 -0.010928 -0.212673
v 0.076725 -0.010928 -0.212673
v 0.116786 -0.010928 -0.298573
v 0.060006 -0.010928 -0.274973
v 0.149086 -0.010928 -0.242573
v 0.116786 -0.010928 -0.298573
v 0.149086 -0.010928 -0.242573
v 0.165535 -0.010928 -0.335972
v 0.211215 -0.010928 -0.290272
v 0.258886 -0.010928 -0.352373
v 0.202946 -0.010928 -0.384672
v 0.211215 -0.010928 -0.290272
v 0.165535 -0.010928 -0.335972
v 0.226466 -0.010928 -0.563372
v 0.258886 -0.010928 -0.652372
v 0.202946 -0.010928 -0.620071
v 0.288856 -0.010928 -0.580072
v 0.258886 -0.010928 -0.352373
v 0.288856 -0.010928 -0.424772
v 0.202946 -0.010928 -0.384672
v 0.226466 -0.010928 -0.441473
v 0.226466 -0.010928 -0.441473
v 0.299086 -0.010928 -0.502373
v 0.234486 -0.010928 -0.502373
v 0.299086 -0.010928 -0.502373
v 0.226466 -0.010928 -0.441473
v 0.288856 -0.010928 -0.424772
v 0.234486 -0.010928 -0.502373
v 0.288856 -0.010928 -0.580072
v 0.226466 -0.010928 -0.563372
v 0.299086 -0.010928 -0.502373
v 0.149086 -0.010928 -0.762173
v 0.060006 -0.010928 -0.729773
v 0.116786 -0.010928 -0.706272
v 0.076725 -0.010928 -0.792171
v 0.076725 -0.010928 -0.792171
v -0.000915 -0.010928 -0.802372
v 0.060006 -0.010928 -0.729773
v -0.000915 -0.010928 -0.737772
v 0.202946 -0.010928 -0.620071
v 0.211215 -0.010928 -0.714573
v 0.165535 -0.010928 -0.668873
v 0.258886 -0.010928 -0.652372
v 0.165535 -0.010928 -0.668873
v 0.211215 -0.010928 -0.714573
v 0.116786 -0.010928 -0.706272
v 0.149086 -0.010928 -0.762173
v -0.078564 -0.100058 -0.212673
v -0.000915 -0.100058 -0.202372
v -0.078564 -0.010928 -0.212673
v -0.000915 -0.010928 -0.202372
v -0.150914 -0.010928 -0.242573
v -0.150914 -0.100058 -0.242573
v -0.213054 -0.010928 -0.290272
v -0.213054 -0.100058 -0.290272
v 0.211215 -0.010928 -0.290272
v 0.211215 -0.100058 -0.290272
v 0.149086 -0.010928 -0.242573
v 0.149086 -0.100058 -0.242573
v 0.076725 -0.010928 -0.212673
v 0.076725 -0.100058 -0.212673
v -0.000915 -0.010928 -0.202372
v -0.000915 -0.100058 -0.202372
v -0.112864 0.007882 -0.308472
v -0.159225 0.007882 -0.344072
v -0.118624 -0.010928 -0.298573
v -0.167374 -0.010928 -0.335972
v -0.000915 0.007882 -0.278473
v -0.058865 0.007882 -0.286173
v -0.000915 -0.010928 -0.266972
v -0.061844 -0.010928 -0.274973
v -0.112864 0.007882 -0.308472
v -0.058865 0.007882 -0.286173
v -0.061844 -0.010928 -0.274973
v -0.118624 -0.010928 -0.298573
v 0.111026 0.007882 -0.308472
v 0.157396 0.007882 -0.344072
v 0.116786 -0.010928 -0.298573
v 0.165535 -0.010928 -0.335972
v 0.057025 0.007882 -0.286173
v 0.111026 0.007882 -0.308472
v 0.060006 -0.010928 -0.274973
v 0.116786 -0.010928 -0.298573
v -0.000915 0.007882 -0.278473
v 0.057025 0.007882 -0.286173
v -0.000915 -0.010928 -0.266972
v 0.060006 -0.010928 -0.274973
v -0.213054 -0.010928 -0.290272
v -0.213054 -0.100058 -0.290272
v -0.260725 -0.010928 -0.352373
v -0.260725 -0.100058 -0.352373
v -0.290694 -0.010928 -0.424772
v -0.290694 -0.100058 -0.424772
v -0.300914 -0.010928 -0.502373
v -0.300914 -0.100058 -0.502373
v -0.290694 -0.010928 -0.580072
v -0.290694 -0.100058 -0.580072
v -0.260725 -0.010928 -0.652372
v -0.260725 -0.100058 -0.652372
v -0.213054 -0.010928 -0.714573
v -0.213054 -0.100058 -0.714573
v -0.204784 -0.010928 -0.384672
v -0.159225 0.007882 -0.344072
v -0.194804 0.007882 -0.390472
v -0.167374 -0.010928 -0.335972
v -0.217175 0.007882 -0.444471
v -0.194804 0.007882 -0.390472
v -0.228304 -0.010928 -0.441473
v -0.204784 -0.010928 -0.384672
v -0.224804 0.007882 -0.502373
v -0.217175 0.007882 -0.444471
v -0.236324 -0.010928 -0.502373
v -0.228304 -0.010928 -0.441473
v -0.217175 0.007882 -0.560371
v -0.224804 0.007882 -0.502373
v -0.236324 -0.010928 -0.502373
v -0.228304 -0.010928 -0.563372
v -0.194804 0.007882 -0.614372
v -0.217175 0.007882 -0.560371
v -0.228304 -0.010928 -0.563372
v -0.204784 -0.010928 -0.620071
v -0.159225 0.007882 -0.660673
v -0.194804 0.007882 -0.614372
v -0.204784 -0.010928 -0.620071
v -0.167374 -0.010928 -0.668873
v 0.211215 -0.100058 -0.714573
v -0.260725 -0.100058 -0.352373
v -0.150914 -0.100058 -0.762173
v 0.076725 -0.100058 -0.792171
v 0.149086 -0.100058 -0.762173
v -0.000915 -0.100058 -0.802372
v -0.078564 -0.100058 -0.792171
v 0.211215 -0.100058 -0.290272
v 0.258886 -0.100058 -0.652372
v -0.300914 -0.100058 -0.502373
v -0.290694 -0.100058 -0.424772
v -0.290694 -0.100058 -0.580072
v -0.213054 -0.100058 -0.714573
v -0.260725 -0.100058 -0.652372
v 0.299086 -0.100058 -0.502373
v 0.288856 -0.100058 -0.580072
v 0.258886 -0.100058 -0.352373
v 0.288856 -0.100058 -0.424772
v -0.150914 -0.100058 -0.242573
v -0.213054 -0.100058 -0.290272
v -0.000915 -0.100058 -0.202372
v -0.078564 -0.100058 -0.212673
v 0.149086 -0.100058 -0.242573
v 0.076725 -0.100058 -0.212673
v -0.213054 -0.010928 -0.714573
v -0.213054 -0.100058 -0.714573
v -0.150914 -0.010928 -0.762173
v -0.150914 -0.100058 -0.762173
v -0.078564 -0.010928 -0.792171
v -0.078564 -0.100058 -0.792171
v -0.000915 -0.010928 -0.802372
v -0.000915 -0.100058 -0.802372
v 0.076725 -0.010928 -0.792171
v 0.076725 -0.100058 -0.792171
v 0.149086 -0.010928 -0.762173
v 0.149086 -0.100058 -0.762173
v 0.211215 -0.010928 -0.714573
v 0.211215 -0.100058 -0.714573
v -0.112864 0.007882 -0.696272
v -0.159225 0.007882 -0.660673
v -0.118624 -0.010928 -0.706272
v -0.167374 -0.010928 -0.668873
v -0.112864 0.007882 -0.696272
v -0.058865 0.007882 -0.718672
v -0.061844 -0.010928 -0.729773
v -0.118624 -0.010928 -0.706272
v -0.058865 0.007882 -0.718672
v -0.000915 0.007882 -0.726273
v -0.000915 -0.010928 -0.737772
v -0.061844 -0.010928 -0.729773
v 0.057025 0.007882 -0.718672
v -0.000915 0.007882 -0.726273
v -0.000915 -0.010928 -0.737772
v 0.060006 -0.010928 -0.729773
v 0.057025 0.007882 -0.718672
v 0.111026 0.007882 -0.696272
v 0.060006 -0.010928 -0.729773
v 0.116786 -0.010928 -0.706272
v 0.157396 0.007882 -0.660673
v 0.116786 -0.010928 -0.706272
v 0.111026 0.007882 -0.696272
v 0.165535 -0.010928 -0.668873
v 0.211215 -0.010928 0.285427
v 0.211215 -0.100058 0.285427
v 0.258886 -0.010928 0.347628
v 0.258886 -0.100058 0.347628
v 0.288856 -0.010928 0.419928
v 0.288856 -0.100058 0.419928
v 0.299086 -0.010928 0.497627
v 0.299086 -0.100058 0.497627
v 0.288856 -0.010928 0.575228
v 0.288856 -0.100058 0.575228
v 0.258886 -0.010928 0.647627
v 0.258886 -0.100058 0.647627
v 0.211215 -0.010928 0.709728
v 0.211215 -0.100058 0.709728
v 0.157396 0.007882 0.339327
v 0.192976 0.007882 0.385628
v 0.202946 -0.010928 0.379929
v 0.165535 -0.010928 0.331127
v 0.215336 0.007882 0.439629
v 0.192976 0.007882 0.385628
v 0.226466 -0.010928 0.436628
v 0.202946 -0.010928 0.379929
v 0.222966 0.007882 0.497627
v 0.215336 0.007882 0.439629
v 0.234486 -0.010928 0.497627
v 0.226466 -0.010928 0.436628
v 0.222966 0.007882 0.497627
v 0.215336 0.007882 0.555529
v 0.234486 -0.010928 0.497627
v 0.226466 -0.010928 0.558527
v 0.215336 0.007882 0.555529
v 0.192976 0.007882 0.609528
v 0.226466 -0.010928 0.558527
v 0.202946 -0.010928 0.615328
v 0.202946 -0.010928 0.615328
v 0.157396 0.007882 0.655928
v 0.165535 -0.010928 0.664028
v 0.192976 0.007882 0.609528
v -0.000915 0.049942 0.497627
v -0.052354 0.046962 0.549028
v -0.037294 0.046962 0.560627
v -0.098764 0.038322 0.595428
v -0.070104 0.038322 0.617428
v -0.096144 0.024852 0.662527
v -0.135584 0.024852 0.632227
v -0.112864 0.007882 0.691528
v -0.159225 0.007882 0.655928
v -0.159225 0.007882 0.655928
v -0.194804 0.007882 0.609528
v -0.165854 0.024852 0.592827
v -0.135584 0.024852 0.632227
v -0.098764 0.038322 0.595428
v -0.120754 0.038322 0.566828
v -0.052354 0.046962 0.549028
v -0.063914 0.046962 0.533928
v -0.000915 0.049942 0.497627
v -0.120754 0.038322 0.566828
v -0.071184 0.046962 0.516428
v -0.134574 0.038322 0.533428
v -0.063914 0.046962 0.533928
v -0.000915 0.049942 0.497627
v -0.165854 0.024852 0.592827
v -0.184875 0.024852 0.546928
v -0.217175 0.007882 0.555529
v -0.194804 0.007882 0.609528
v -0.191364 0.024852 0.497627
v -0.134574 0.038322 0.533428
v -0.139284 0.038322 0.497627
v -0.073664 0.046962 0.497627
v -0.071184 0.046962 0.516428
v -0.000915 0.049942 0.497627
v -0.184875 0.024852 0.546928
v -0.224804 0.007882 0.497627
v -0.217175 0.007882 0.555529
v -0.184875 0.024852 0.448328
v -0.139284 0.038322 0.497627
v -0.134574 0.038322 0.461828
v -0.191364 0.024852 0.497627
v -0.073664 0.046962 0.497627
v -0.071184 0.046962 0.478727
v -0.000915 0.049942 0.497627
v -0.217175 0.007882 0.439629
v -0.224804 0.007882 0.497627
v -0.194804 0.007882 0.385628
v -0.184875 0.024852 0.448328
v -0.165854 0.024852 0.402328
v -0.120754 0.038322 0.428429
v -0.217175 0.007882 0.439629
v -0.134574 0.038322 0.461828
v -0.063914 0.046962 0.461227
v -0.071184 0.046962 0.478727
v -0.000915 0.049942 0.497627
v -0.000915 0.049942 0.497627
v -0.052354 0.046962 0.446127
v -0.063914 0.046962 0.461227
v -0.098764 0.038322 0.399727
v -0.120754 0.038322 0.428429
v -0.165854 0.024852 0.402328
v -0.135584 0.024852 0.362928
v -0.159225 0.007882 0.339327
v -0.194804 0.007882 0.385628
v -0.037294 0.046962 0.434628
v -0.098764 0.038322 0.399727
v -0.052354 0.046962 0.446127
v -0.000915 0.049942 0.497627
v -0.070104 0.038322 0.377728
v -0.135584 0.024852 0.362928
v -0.096144 0.024852 0.332628
v -0.112864 0.007882 0.303728
v -0.159225 0.007882 0.339327
v -0.070104 0.038322 0.377728
v -0.037294 0.046962 0.434628
v -0.036735 0.038322 0.363928
v -0.019744 0.046962 0.427328
v -0.000915 0.049942 0.497627
v -0.050214 0.024852 0.313627
v -0.096144 0.024852 0.332628
v -0.112864 0.007882 0.303728
v -0.058865 0.007882 0.281328
v -0.000915 0.024852 0.307127
v -0.050214 0.024852 0.313627
v -0.036735 0.038322 0.363928
v -0.058865 0.007882 0.281328
v -0.000915 0.038322 0.359228
v -0.000915 0.007882 0.273727
v -0.019744 0.046962 0.427328
v -0.000915 0.046962 0.424828
v -0.000915 0.049942 0.497627
v -0.000915 0.024852 0.307127
v 0.034895 0.038322 0.363928
v 0.048376 0.024852 0.313627
v 0.057025 0.007882 0.281328
v -0.000915 0.038322 0.359228
v -0.000915 0.007882 0.273727
v 0.017906 0.046962 0.427328
v -0.000915 0.046962 0.424828
v -0.000915 0.049942 0.497627
v -0.050214 0.024852 0.681528
v -0.000915 0.007882 0.721527
v -0.000915 0.024852 0.688028
v -0.058865 0.007882 0.713827
v -0.036735 0.038322 0.631227
v -0.000915 0.038322 0.635927
v -0.019744 0.046962 0.567827
v -0.000915 0.046962 0.570328
v -0.000915 0.049942 0.497627
v -0.050214 0.024852 0.681528
v -0.096144 0.024852 0.662527
v -0.112864 0.007882 0.691528
v -0.070104 0.038322 0.617428
v -0.058865 0.007882 0.713827
v -0.036735 0.038322 0.631227
v -0.037294 0.046962 0.560627
v -0.019744 0.046962 0.567827
v -0.000915 0.049942 0.497627
v -0.000915 0.049942 0.497627
v 0.035456 0.046962 0.434628
v 0.017906 0.046962 0.427328
v 0.034895 0.038322 0.363928
v 0.068265 0.038322 0.377728
v 0.048376 0.024852 0.313627
v 0.094306 0.024852 0.332628
v 0.057025 0.007882 0.281328
v 0.111026 0.007882 0.303728
v 0.157396 0.007882 0.339327
v 0.111026 0.007882 0.303728
v 0.133746 0.024852 0.362928
v 0.094306 0.024852 0.332628
v 0.068265 0.038322 0.377728
v 0.096926 0.038322 0.399727
v 0.035456 0.046962 0.434628
v 0.050516 0.046962 0.446127
v -0.000915 0.049942 0.497627
v 0.062076 0.046962 0.461227
v 0.096926 0.038322 0.399727
v 0.050516 0.046962 0.446127
v -0.000915 0.049942 0.497627
v 0.118916 0.038322 0.428429
v 0.133746 0.024852 0.362928
v 0.164016 0.024852 0.402328
v 0.157396 0.007882 0.339327
v 0.192976 0.007882 0.385628
v 0.069345 0.046962 0.478727
v 0.132736 0.038322 0.461828
v 0.062076 0.046962 0.461227
v -0.000915 0.049942 0.497627
v 0.118916 0.038322 0.428429
v 0.183036 0.024852 0.448328
v 0.164016 0.024852 0.402328
v 0.215336 0.007882 0.439629
v 0.192976 0.007882 0.385628
v 0.183036 0.024852 0.448328
v 0.137445 0.038322 0.497627
v 0.189526 0.024852 0.497627
v 0.222966 0.007882 0.497627
v 0.132736 0.038322 0.461828
v 0.215336 0.007882 0.439629
v 0.069345 0.046962 0.478727
v 0.071826 0.046962 0.497627
v -0.000915 0.049942 0.497627
v 0.222966 0.007882 0.497627
v 0.183036 0.024852 0.546928
v 0.215336 0.007882 0.555529
v 0.189526 0.024852 0.497627
v 0.137445 0.038322 0.497627
v 0.132736 0.038322 0.533428
v 0.069345 0.046962 0.516428
v 0.071826 0.046962 0.497627
v -0.000915 0.049942 0.497627
v -0.000915 0.049942 0.497627
v 0.062076 0.046962 0.533928
v 0.069345 0.046962 0.516428
v 0.132736 0.038322 0.533428
v 0.118916 0.038322 0.566828
v 0.183036 0.024852 0.546928
v 0.164016 0.024852 0.592827
v 0.215336 0.007882 0.555529
v 0.192976 0.007882 0.609528
v 0.157396 0.007882 0.655928
v 0.192976 0.007882 0.609528
v 0.164016 0.024852 0.592827
v 0.133746 0.024852 0.632227
v 0.096926 0.038322 0.595428
v 0.118916 0.038322 0.566828
v 0.050516 0.046962 0.549028
v 0.062076 0.046962 0.533928
v -0.000915 0.049942 0.497627
v 0.035456 0.046962 0.560627
v 0.096926 0.038322 0.595428
v 0.050516 0.046962 0.549028
v -0.000915 0.049942 0.497627
v 0.068265 0.038322 0.617428
v 0.094306 0.024852 0.662527
v 0.133746 0.024852 0.632227
v 0.111026 0.007882 0.691528
v 0.157396 0.007882 0.655928
v 0.034895 0.038322 0.631227
v 0.094306 0.024852 0.662527
v 0.068265 0.038322 0.617428
v 0.035456 0.046962 0.560627
v 0.017906 0.046962 0.567827
v -0.000915 0.049942 0.497627
v 0.048376 0.024852 0.681528
v 0.057025 0.007882 0.713827
v 0.111026 0.007882 0.691528
v -0.000915 0.024852 0.688028
v 0.034895 0.038322 0.631227
v -0.000915 0.038322 0.635927
v 0.048376 0.024852 0.681528
v 0.017906 0.046962 0.567827
v -0.000915 0.046962 0.570328
v -0.000915 0.049942 0.497627
v -0.000915 0.007882 0.721527
v 0.057025 0.007882 0.713827
v -0.150914 -0.010928 0.237827
v -0.167374 -0.010928 0.331127
v -0.118624 -0.010928 0.293728
v -0.213054 -0.010928 0.285427
v -0.204784 -0.010928 0.379929
v -0.213054 -0.010928 0.285427
v -0.260725 -0.010928 0.347628
v -0.167374 -0.010928 0.331127
v -0.000915 -0.010928 0.197628
v -0.061844 -0.010928 0.270227
v -0.000915 -0.010928 0.262228
v -0.078564 -0.010928 0.207829
v -0.061844 -0.010928 0.270227
v -0.150914 -0.010928 0.237827
v -0.118624 -0.010928 0.293728
v -0.078564 -0.010928 0.207829
v -0.290694 -0.010928 0.419928
v -0.236324 -0.010928 0.497627
v -0.228304 -0.010928 0.436628
v -0.300914 -0.010928 0.497627
v -0.236324 -0.010928 0.497627
v -0.300914 -0.010928 0.497627
v -0.290694 -0.010928 0.575228
v -0.228304 -0.010928 0.558527
v -0.260725 -0.010928 0.647627
v -0.204784 -0.010928 0.615328
v -0.290694 -0.010928 0.575228
v -0.228304 -0.010928 0.558527
v -0.290694 -0.010928 0.419928
v -0.204784 -0.010928 0.379929
v -0.260725 -0.010928 0.347628
v -0.228304 -0.010928 0.436628
v -0.118624 -0.010928 0.701427
v -0.213054 -0.010928 0.709728
v -0.150914 -0.010928 0.757427
v -0.167374 -0.010928 0.664028
v -0.061844 -0.010928 0.725027
v -0.150914 -0.010928 0.757427
v -0.078564 -0.010928 0.787327
v -0.118624 -0.010928 0.701427
v -0.000915 -0.010928 0.733028
v -0.078564 -0.010928 0.787327
v -0.000915 -0.010928 0.797628
v -0.078564 -0.010928 0.787327
v -0.000915 -0.010928 0.733028
v -0.061844 -0.010928 0.725027
v -0.167374 -0.010928 0.664028
v -0.260725 -0.010928 0.647627
v -0.213054 -0.010928 0.709728
v -0.204784 -0.010928 0.615328
v -0.000915 -0.010928 0.797628
v 0.060006 -0.010928 0.725027
v -0.000915 -0.010928 0.733028
v 0.076725 -0.010928 0.787327
v 0.076725 -0.010928 0.787327
v 0.116786 -0.010928 0.701427
v 0.060006 -0.010928 0.725027
v 0.149086 -0.010928 0.757427
v 0.116786 -0.010928 0.701427
v 0.149086 -0.010928 0.757427
v 0.165535 -0.010928 0.664028
v 0.211215 -0.010928 0.709728
v 0.258886 -0.010928 0.647627
v 0.202946 -0.010928 0.615328
v 0.211215 -0.010928 0.709728
v 0.165535 -0.010928 0.664028
v 0.226466 -0.010928 0.436628
v 0.258886 -0.010928 0.347628
v 0.202946 -0.010928 0.379929
v 0.288856 -0.010928 0.419928
v 0.258886 -0.010928 0.647627
v 0.288856 -0.010928 0.575228
v 0.202946 -0.010928 0.615328
v 0.226466 -0.010928 0.558527
v 0.226466 -0.010928 0.558527
v 0.299086 -0.010928 0.497627
v 0.234486 -0.010928 0.497627
v 0.299086 -0.010928 0.497627
v 0.226466 -0.010928 0.558527
v 0.288856 -0.010928 0.575228
v 0.234486 -0.010928 0.497627
v 0.288856 -0.010928 0.419928
v 0.226466 -0.010928 0.436628
v 0.299086 -0.010928 0.497627
v 0.149086 -0.010928 0.237827
v 0.060006 -0.010928 0.270227
v 0.116786 -0.010928 0.293728
v 0.076725 -0.010928 0.207829
v 0.076725 -0.010928 0.207829
v -0.000915 -0.010928 0.197628
v 0.060006 -0.010928 0.270227
v -0.000915 -0.010928 0.262228
v 0.202946 -0.010928 0.379929
v 0.211215 -0.010928 0.285427
v 0.165535 -0.010928 0.331127
v 0.258886 -0.010928 0.347628
v 0.165535 -0.010928 0.331127
v 0.211215 -0.010928 0.285427
v 0.116786 -0.010928 0.293728
v 0.149086 -0.010928 0.237827
v -0.078564 -0.100058 0.787327
v -0.000915 -0.100058 0.797628
v -0.078564 -0.010928 0.787327
v -0.000915 -0.010928 0.797628
v -0.150914 -0.010928 0.757427
v -0.150914 -0.100058 0.757427
v -0.213054 -0.010928 0.709728
v -0.213054 -0.100058 0.709728
v 0.211215 -0.010928 0.709728
v 0.211215 -0.100058 0.709728
v 0.149086 -0.010928 0.757427
v 0.149086 -0.100058 0.757427
v 0.076725 -0.010928 0.787327
v 0.076725 -0.100058 0.787327
v -0.000915 -0.010928 0.797628
v -0.000915 -0.100058 0.797628
v -0.112864 0.007882 0.691528
v -0.159225 0.007882 0.655928
v -0.118624 -0.010928 0.701427
v -0.167374 -0.010928 0.664028
v -0.000915 0.007882 0.721527
v -0.058865 0.007882 0.713827
v -0.000915 -0.010928 0.733028
v -0.061844 -0.010928 0.725027
v -0.112864 0.007882 0.691528
v -0.058865 0.007882 0.713827
v -0.061844 -0.010928 0.725027
v -0.118624 -0.010928 0.701427
v 0.111026 0.007882 0.691528
v 0.157396 0.007882 0.655928
v 0.116786 -0.010928 0.701427
v 0.165535 -0.010928 0.664028
v 0.057025 0.007882 0.713827
v 0.111026 0.007882 0.691528
v 0.060006 -0.010928 0.725027
v 0.116786 -0.010928 0.701427
v -0.000915 0.007882 0.721527
v 0.057025 0.007882 0.713827
v -0.000915 -0.010928 0.733028
v 0.060006 -0.010928 0.725027
v -0.213054 -0.010928 0.709728
v -0.213054 -0.100058 0.709728
v -0.260725 -0.010928 0.647627
v -0.260725 -0.100058 0.647627
v -0.290694 -0.010928 0.575228
v -0.290694 -0.100058 0.575228
v -0.300914 -0.010928 0.497627
v -0.300914 -0.100058 0.497627
v -0.290694 -0.010928 0.419928
v -0.290694 -0.100058 0.419928
v -0.260725 -0.010928 0.347628
v -0.260725 -0.100058 0.347628
v -0.213054 -0.010928 0.285427
v -0.213054 -0.100058 0.285427
v -0.204784 -0.010928 0.615328
v -0.159225 0.007882 0.655928
v -0.194804 0.007882 0.609528
v -0.167374 -0.010928 0.664028
v -0.217175 0.007882 0.555529
v -0.194804 0.007882 0.609528
v -0.228304 -0.010928 0.558527
v -0.204784 -0.010928 0.615328
v -0.224804 0.007882 0.497627
v -0.217175 0.007882 0.555529
v -0.236324 -0.010928 0.497627
v -0.228304 -0.010928 0.558527
v -0.217175 0.007882 0.439629
v -0.224804 0.007882 0.497627
v -0.236324 -0.010928 0.497627
v -0.228304 -0.010928 0.436628
v -0.194804 0.007882 0.385628
v -0.217175 0.007882 0.439629
v -0.228304 -0.010928 0.436628
v -0.204784 -0.010928 0.379929
v -0.159225 0.007882 0.339327
v -0.194804 0.007882 0.385628
v -0.204784 -0.010928 0.379929
v -0.167374 -0.010928 0.331127
v 0.211215 -0.100058 0.285427
v -0.260725 -0.100058 0.647627
v -0.150914 -0.100058 0.237827
v 0.076725 -0.100058 0.207829
v 0.149086 -0.100058 0.237827
v -0.000915 -0.100058 0.197628
v -0.078564 -0.100058 0.207829
v 0.211215 -0.100058 0.709728
v 0.258886 -0.100058 0.347628
v -0.300914 -0.100058 0.497627
v -0.290694 -0.100058 0.575228
v -0.290694 -0.100058 0.419928
v -0.213054 -0.100058 0.285427
v -0.260725 -0.100058 0.347628
v 0.299086 -0.100058 0.497627
v 0.288856 -0.100058 0.419928
v 0.258886 -0.100058 0.647627
v 0.288856 -0.100058 0.575228
v -0.150914 -0.100058 0.757427
v -0.213054 -0.100058 0.709728
v -0.000915 -0.100058 0.797628
v -0.078564 -0.100058 0.787327
v 0.149086 -0.100058 0.757427
v 0.076725 -0.100058 0.787327
v -0.213054 -0.010928 0.285427
v -0.213054 -0.100058 0.285427
v -0.150914 -0.010928 0.237827
v -0.150914 -0.100058 0.237827
v -0.078564 -0.010928 0.207829
v -0.078564 -0.100058 0.207829
v -0.000915 -0.010928 0.197628
v -0.000915 -0.100058 0.197628
v 0.076725 -0.010928 0.207829
v 0.076725 -0.100058 0.207829
v 0.149086 -0.010928 0.237827
v 0.149086 -0.100058 0.237827
v 0.211215 -0.010928 0.285427
v 0.211215 -0.100058 0.285427
v -0.112864 0.007882 0.303728
v -0.159225 0.007882 0.339327
v -0.118624 -0.010928 0.293728
v -0.167374 -0.010928 0.331127
v -0.112864 0.007882 0.303728
v -0.058865 0.007882 0.281328
v -0.061844 -0.010928 0.270227
v -0.118624 -0.010928 0.293728
v -0.058865 0.007882 0.281328
v -0.000915 0.007882 0.273727
v -0.000915 -0.010928 0.262228
v -0.061844 -0.010928 0.270227
v 0.057025 0.007882 0.281328
v -0.000915 0.007882 0.273727
v -0.000915 -0.010928 0.262228
v 0.060006 -0.010928 0.270227
v 0.057025 0.007882 0.281328
v 0.111026 0.007882 0.303728
v 0.060006 -0.010928 0.270227
v 0.116786 -0.010928 0.293728
v 0.157396 0.007882 0.339327
v 0.116786 -0.010928 0.293728
v 0.111026 0.007882 0.303728
v 0.165535 -0.010928 0.331127
vn 0.8644 -0.0000 -0.5029
vn 0.7071 -0.0000 -0.7071
vn 0.8643 -0.0000 -0.5029
vn 0.9659 -0.0000 -0.2590
vn 0.9659 -0.0000 -0.2589
vn 1.0000 -0.0000 0.0001
vn 0.9659 -0.0000 0.2588
vn 0.9658 -0.0000 0.2593
vn 0.8644 -0.0000 0.5029
vn 0.7071 -0.0000 0.7071
vn 0.4738 0.7423 -0.4738
vn 0.5821 0.7394 -0.3383
vn 0.7406 0.5200 -0.4255
vn 0.6047 0.5183 -0.6047
vn 0.6520 0.7383 -0.1728
vn 0.8258 0.5191 -0.2203
vn 0.6707 0.7417 -0.0000
vn 0.8533 0.5215 -0.0000
vn 0.8259 0.5191 -0.2202
vn 0.6520 0.7383 0.1728
vn 0.8533 0.5214 -0.0000
vn 0.8259 0.5191 0.2202
vn 0.5822 0.7394 0.3382
vn 0.8258 0.5191 0.2202
vn 0.7407 0.5200 0.4254
vn 0.7406 0.5200 0.4255
vn 0.4738 0.7423 0.4738
vn 0.6047 0.5183 0.6047
vn 0.5821 0.7394 0.3383
vn -0.0000 1.0000 -0.0000
vn -0.0632 0.9960 0.0632
vn -0.0474 0.9957 0.0790
vn -0.1411 0.9799 0.1411
vn -0.0942 0.9818 0.1649
vn -0.1807 0.9346 0.3063
vn -0.2513 0.9347 0.2514
vn -0.3383 0.7394 0.5821
vn -0.4738 0.7423 0.4738
vn -0.3063 0.9346 0.1806
vn -0.5821 0.7394 0.3382
vn -0.2514 0.9347 0.2513
vn -0.1649 0.9818 0.0942
vn -0.0790 0.9957 0.0474
vn -0.1650 0.9818 0.0942
vn -0.0869 0.9959 0.0237
vn -0.1883 0.9810 0.0471
vn -0.3453 0.9338 0.0942
vn -0.6519 0.7384 0.1728
vn -0.5821 0.7395 0.3382
vn -0.3606 0.9327 -0.0000
vn -0.1884 0.9810 0.0471
vn -0.1961 0.9806 -0.0000
vn -0.0870 0.9962 -0.0000
vn -0.6707 0.7417 -0.0000
vn -0.6519 0.7383 0.1728
vn -0.3453 0.9338 -0.0942
vn -0.1884 0.9810 -0.0471
vn -0.0869 0.9959 -0.0237
vn -0.6519 0.7384 -0.1728
vn -0.5821 0.7395 -0.3382
vn -0.3063 0.9346 -0.1806
vn -0.1649 0.9818 -0.0943
vn -0.1883 0.9810 -0.0471
vn -0.0790 0.9957 -0.0474
vn -0.0632 0.9960 -0.0632
vn -0.1411 0.9799 -0.1411
vn -0.2514 0.9347 -0.2513
vn -0.4738 0.7423 -0.4738
vn -0.5821 0.7394 -0.3383
vn -0.0474 0.9957 -0.0790
vn -0.0942 0.9818 -0.1649
vn -0.2513 0.9347 -0.2514
vn -0.1806 0.9346 -0.3063
vn -0.3382 0.7394 -0.5821
vn -0.0943 0.9818 -0.1649
vn -0.0471 0.9810 -0.1883
vn -0.0237 0.9959 -0.0869
vn -0.0942 0.9338 -0.3453
vn -0.1728 0.7384 -0.6519
vn -0.0000 0.9327 -0.3606
vn -0.0941 0.9338 -0.3453
vn -0.0471 0.9810 -0.1884
vn -0.0000 0.9806 -0.1961
vn -0.0000 0.7418 -0.6707
vn -0.0000 0.9962 -0.0870
vn 0.0471 0.9810 -0.1884
vn 0.0941 0.9338 -0.3453
vn 0.1728 0.7384 -0.6519
vn -0.0000 0.7417 -0.6707
vn 0.0237 0.9959 -0.0869
vn -0.0942 0.9338 0.3453
vn -0.0000 0.7418 0.6707
vn -0.0000 0.9327 0.3606
vn -0.1728 0.7384 0.6519
vn -0.0471 0.9810 0.1884
vn -0.0000 0.9806 0.1961
vn -0.0237 0.9959 0.0869
vn -0.0000 0.9962 0.0870
vn -0.1806 0.9346 0.3063
vn -0.3382 0.7394 0.5821
vn -0.0943 0.9818 0.1649
vn -0.0471 0.9810 0.1883
vn 0.0474 0.9957 -0.0790
vn 0.0237 0.9959 -0.0870
vn 0.0471 0.9810 -0.1883
vn 0.0943 0.9818 -0.1649
vn 0.0942 0.9338 -0.3453
vn 0.1806 0.9346 -0.3063
vn 0.3382 0.7395 -0.5821
vn 0.3383 0.7395 -0.5821
vn 0.2513 0.9347 -0.2514
vn 0.0942 0.9818 -0.1649
vn 0.1411 0.9799 -0.1411
vn 0.0632 0.9960 -0.0632
vn 0.0790 0.9957 -0.0474
vn 0.1649 0.9818 -0.0943
vn 0.3063 0.9346 -0.1806
vn 0.5821 0.7395 -0.3382
vn 0.0869 0.9959 -0.0237
vn 0.1883 0.9810 -0.0471
vn 0.3453 0.9338 -0.0942
vn 0.6519 0.7383 -0.1728
vn 0.1961 0.9806 -0.0000
vn 0.3606 0.9327 -0.0000
vn 0.6707 0.7418 -0.0000
vn 0.0870 0.9962 -0.0000
vn 0.3453 0.9338 0.0942
vn 0.6519 0.7384 0.1728
vn 0.1883 0.9810 0.0471
vn 0.0869 0.9959 0.0237
vn 0.0790 0.9957 0.0474
vn 0.1649 0.9818 0.0943
vn 0.3063 0.9346 0.1806
vn 0.5821 0.7395 0.3382
vn 0.5820 0.7395 0.3382
vn 0.2514 0.9347 0.2513
vn 0.1411 0.9799 0.1411
vn 0.0632 0.9960 0.0632
vn 0.0474 0.9957 0.0790
vn 0.0942 0.9818 0.1649
vn 0.1807 0.9346 0.3063
vn 0.2513 0.9347 0.2514
vn 0.3382 0.7395 0.5821
vn 0.0471 0.9810 0.1883
vn 0.1806 0.9346 0.3063
vn 0.0942 0.9818 0.1650
vn 0.0237 0.9959 0.0869
vn 0.0942 0.9338 0.3453
vn 0.1728 0.7384 0.6519
vn 0.0941 0.9338 0.3453
vn 0.1728 0.7383 0.6519
vn -0.2593 -0.0000 0.9658
vn -0.0000 -0.0000 1.0000
vn -0.2589 -0.0000 0.9659
vn -0.5029 -0.0000 0.8644
vn -0.7071 -0.0000 0.7071
vn 0.5029 -0.0000 0.8644
vn 0.5029 -0.0000 0.8643
vn 0.2589 -0.0000 0.9659
vn -0.4255 0.5200 0.7406
vn -0.6047 0.5183 0.6047
vn -0.1728 0.7383 0.6520
vn -0.0000 0.5214 0.8533
vn -0.0000 0.7417 0.6707
vn -0.2202 0.5191 0.8259
vn -0.2202 0.5191 0.8258
vn 0.3383 0.7394 0.5821
vn 0.4255 0.5200 0.7406
vn 0.2202 0.5191 0.8258
vn 0.1728 0.7383 0.6520
vn 0.0001 0.5214 0.8533
vn 0.2202 0.5191 0.8259
vn -0.8644 -0.0000 0.5029
vn -0.9659 -0.0000 0.2591
vn -0.9658 -0.0000 0.2593
vn -1.0000 -0.0000 0.0001
vn -0.9658 -0.0000 -0.2594
vn -0.9659 -0.0000 -0.2589
vn -0.8643 -0.0000 -0.5029
vn -0.8644 -0.0000 -0.5029
vn -0.7071 -0.0000 -0.7071
vn -0.7071 0.0001 -0.7071
vn -0.7406 0.5200 0.4255
vn -0.5821 0.7394 0.3383
vn -0.8258 0.5191 0.2202
vn -0.6519 0.7383 0.1729
vn -0.7407 0.5200 0.4254
vn -0.8533 0.5215 0.0001
vn -0.6520 0.7383 -0.1728
vn -0.8533 0.5215 -0.0000
vn -0.8259 0.5191 -0.2202
vn -0.5821 0.7394 -0.3382
vn -0.8258 0.5191 -0.2202
vn -0.6519 0.7383 -0.1728
vn -0.7407 0.5200 -0.4254
vn -0.7406 0.5200 -0.4255
vn -0.6047 0.5183 -0.6047
vn -0.0000 -1.0000 -0.0000
vn -0.5029 -0.0000 -0.8644
vn -0.5029 -0.0000 -0.8643
vn -0.2592 -0.0000 -0.9658
vn -0.0000 -0.0000 -1.0000
vn 0.2592 -0.0000 -0.9658
vn 0.5029 -0.0000 -0.8644
vn -0.3383 0.7394 -0.5821
vn -0.4255 0.5200 -0.7406
vn -0.1728 0.7383 -0.6520
vn -0.2202 0.5191 -0.8258
vn -0.4254 0.5200 -0.7407
vn -0.0000 0.5214 -0.8533
vn -0.2202 0.5191 -0.8259
vn 0.1728 0.7383 -0.6520
vn -0.0000 0.5215 -0.8533
vn 0.2202 0.5191 -0.8259
vn 0.3382 0.7394 -0.5821
vn 0.2202 0.5191 -0.8258
vn 0.4254 0.5200 -0.7407
vn 0.4255 0.5200 -0.7406
vn 0.3383 0.7394 -0.5821
vn 0.9658 -0.0000 0.2591
vn 0.2593 -0.0000 0.9658
vn -0.9658 -0.0000 0.2592
vt -0.042069 0.848434
vt 0.038702 0.732563
vt 0.038702 0.848434
vt -0.042069 0.732563
vt -0.136130 0.848434
vt -0.136130 0.732563
vt -0.237069 0.848434
vt -0.237069 0.732563
vt -0.338009 0.848434
vt -0.338009 0.732563
vt -0.432069 0.848434
vt -0.432069 0.732563
vt -0.512841 0.848434
vt -0.512841 0.732563
vt -0.031266 0.872887
vt -0.091544 0.872887
vt -0.084055 0.848434
vt -0.020675 0.848434
vt -0.161740 0.872887
vt -0.157864 0.848434
vt -0.237069 0.872887
vt -0.312398 0.872887
vt -0.316275 0.848434
vt -0.382594 0.872887
vt -0.390083 0.848434
vt -0.442872 0.872887
vt -0.453464 0.848434
vt -0.237069 0.830063
vt -0.170200 0.896933
vt -0.189785 0.911961
vt -0.109876 0.957257
vt -0.147130 0.985843
vt -0.113278 1.044480
vt -0.062003 1.005130
vt -0.091544 1.082120
vt -0.031266 1.035870
vt -0.022657 0.953854
vt 0.014987 0.975588
vt -0.081290 0.920002
vt -0.155171 0.877347
vt -0.145724 0.854539
vt -0.063320 0.876619
vt 0.002076 0.894142
vt 0.044063 0.905393
vt 0.010512 0.830063
vt -0.057191 0.830063
vt -0.142501 0.830063
vt 0.053980 0.830063
vt 0.002076 0.765984
vt -0.063320 0.783507
vt -0.145724 0.805587
vt 0.044063 0.754734
vt 0.014987 0.684538
vt -0.022657 0.706272
vt -0.081290 0.740124
vt -0.155171 0.782779
vt -0.170200 0.763194
vt -0.109876 0.702870
vt -0.062003 0.654996
vt -0.031266 0.624260
vt -0.189785 0.748165
vt -0.147130 0.674284
vt -0.113278 0.615651
vt -0.091544 0.578007
vt -0.190514 0.656314
vt -0.212593 0.738718
vt -0.172990 0.590918
vt -0.161740 0.548931
vt -0.237069 0.582482
vt -0.237069 0.650184
vt -0.237069 0.539013
vt -0.237069 0.735495
vt -0.283625 0.656314
vt -0.301148 0.590918
vt -0.312399 0.548931
vt -0.261545 0.738718
vt -0.172990 1.069210
vt -0.237069 1.121110
vt -0.237069 1.077650
vt -0.161740 1.111200
vt -0.190514 1.003810
vt -0.237069 1.009940
vt -0.212593 0.921409
vt -0.237069 0.924631
vt -0.284353 0.748165
vt -0.327009 0.674284
vt -0.360860 0.615651
vt -0.382594 0.578007
vt -0.412136 0.654997
vt -0.442873 0.624260
vt -0.364263 0.702870
vt -0.303939 0.763194
vt -0.318967 0.782779
vt -0.392849 0.740124
vt -0.451482 0.706272
vt -0.489126 0.684538
vt -0.328415 0.805587
vt -0.410819 0.783507
vt -0.476215 0.765984
vt -0.518202 0.754734
vt -0.416948 0.830063
vt -0.484651 0.830063
vt -0.528119 0.830063
vt -0.331637 0.830063
vt -0.476215 0.894142
vt -0.518202 0.905392
vt -0.410819 0.876619
vt -0.328415 0.854539
vt -0.318967 0.877347
vt -0.392849 0.920002
vt -0.451482 0.953854
vt -0.489126 0.975588
vt -0.442873 1.035870
vt -0.412136 1.005130
vt -0.364263 0.957257
vt -0.303939 0.896933
vt -0.284353 0.911961
vt -0.327009 0.985843
vt -0.360860 1.044480
vt -0.382594 1.082120
vt -0.283625 1.003810
vt -0.261545 0.921409
vt -0.301148 1.069210
vt -0.312399 1.111200
vt -0.042069 0.492314
vt -0.020675 0.613669
vt -0.084056 0.565035
vt 0.038702 0.554292
vt 0.027959 0.677049
vt 0.100681 0.635063
vt -0.237069 0.440063
vt -0.157864 0.534463
vt -0.237069 0.524035
vt -0.136130 0.453352
vt 0.139642 0.729124
vt 0.068958 0.830063
vt 0.058531 0.750857
vt 0.152931 0.830063
vt 0.139642 0.931003
vt 0.058531 0.909269
vt 0.100680 1.025060
vt 0.027959 0.983077
vt -0.084055 1.095090
vt 0.038702 1.105840
vt -0.042069 1.167810
vt -0.020675 1.046460
vt -0.157864 1.125660
vt -0.136130 1.206770
vt -0.237069 1.136090
vt -0.237069 1.220060
vt -0.316275 1.125660
vt -0.338009 1.206770
vt -0.390083 1.095090
vt -0.432070 1.167810
vt -0.453464 1.046460
vt -0.512841 1.105830
vt -0.574820 1.025060
vt -0.502097 0.983077
vt -0.532670 0.750857
vt -0.574819 0.635063
vt -0.502097 0.677049
vt -0.613781 0.729124
vt -0.613781 0.931003
vt -0.532670 0.909269
vt -0.627069 0.830063
vt -0.543097 0.830063
vt -0.432069 0.492313
vt -0.316275 0.534463
vt -0.390083 0.565035
vt -0.338009 0.453352
vt -0.512841 0.554292
vt -0.453464 0.613669
vt -0.042069 0.848434
vt -0.042069 0.732563
vt -0.442873 0.872887
vt -0.390084 0.848434
vt -0.312399 0.872887
vt -0.084056 0.848434
vt -0.020675 0.848434
vt -0.031266 0.872887
vt -0.091545 0.872887
vt 0.038702 0.554292
vt -0.574819 1.025060
vt -0.432069 0.492314
vt -0.042069 0.492313
vt 0.038702 1.105830
vt 0.100680 0.635063
vt -0.574820 0.635063
vt 0.100681 1.025060
vt -0.432069 1.167810
vt -0.512841 1.105840
vt -0.042069 1.167810
vt 0.634345 1.192120
vt 0.715117 1.076250
vt 0.715117 1.192120
vt 0.634345 1.076250
vt 0.540285 1.192120
vt 0.540285 1.076250
vt 0.439345 1.192120
vt 0.439345 1.076250
vt 0.338406 1.192120
vt 0.338406 1.076250
vt 0.244346 1.192120
vt 0.244346 1.076250
vt 0.163574 1.192120
vt 0.163574 1.076250
vt 0.645149 1.216570
vt 0.584870 1.216570
vt 0.592360 1.192120
vt 0.655740 1.192120
vt 0.514675 1.216570
vt 0.518551 1.192120
vt 0.439345 1.216570
vt 0.364016 1.216570
vt 0.360140 1.192120
vt 0.293821 1.216570
vt 0.286332 1.192120
vt 0.233542 1.216570
vt 0.222951 1.192120
vt 0.439345 1.173750
vt 0.506215 1.240620
vt 0.486629 1.255650
vt 0.566539 1.300940
vt 0.529285 1.329530
vt 0.563136 1.388160
vt 0.614412 1.348810
vt 0.584870 1.425800
vt 0.645149 1.379550
vt 0.653758 1.297540
vt 0.691402 1.319270
vt 0.595125 1.263690
vt 0.521243 1.221030
vt 0.530691 1.198220
vt 0.613095 1.220300
vt 0.678491 1.237830
vt 0.720478 1.249080
vt 0.686927 1.173750
vt 0.619224 1.173750
vt 0.533913 1.173750
vt 0.730395 1.173750
vt 0.678491 1.109670
vt 0.613095 1.127190
vt 0.530691 1.149270
vt 0.720478 1.098420
vt 0.691402 1.028220
vt 0.653758 1.049960
vt 0.595125 1.083810
vt 0.521243 1.126460
vt 0.506215 1.106880
vt 0.566539 1.046550
vt 0.614412 0.998681
vt 0.645149 0.967944
vt 0.486629 1.091850
vt 0.529285 1.017970
vt 0.563136 0.959335
vt 0.584870 0.921691
vt 0.485901 0.999998
vt 0.463821 1.082400
vt 0.503424 0.934602
vt 0.514675 0.892615
vt 0.439345 0.926166
vt 0.439345 0.993869
vt 0.439345 0.882698
vt 0.439345 1.079180
vt 0.392789 0.999998
vt 0.375266 0.934602
vt 0.364016 0.892615
vt 0.414869 1.082400
vt 0.503424 1.412890
vt 0.439345 1.464800
vt 0.439345 1.421330
vt 0.514675 1.454880
vt 0.485901 1.347500
vt 0.439345 1.353630
vt 0.463821 1.265090
vt 0.439345 1.268320
vt 0.392061 1.091850
vt 0.349406 1.017970
vt 0.315555 0.959335
vt 0.293820 0.921691
vt 0.264279 0.998681
vt 0.233542 0.967944
vt 0.312152 1.046550
vt 0.372476 1.106880
vt 0.357447 1.126460
vt 0.283566 1.083810
vt 0.224933 1.049960
vt 0.187289 1.028220
vt 0.348000 1.149270
vt 0.265596 1.127190
vt 0.200200 1.109670
vt 0.158213 1.098420
vt 0.259467 1.173750
vt 0.191764 1.173750
vt 0.148296 1.173750
vt 0.344778 1.173750
vt 0.200200 1.237830
vt 0.158213 1.249080
vt 0.265596 1.220300
vt 0.348000 1.198220
vt 0.357447 1.221030
vt 0.283566 1.263690
vt 0.224933 1.297540
vt 0.187289 1.319270
vt 0.233542 1.379550
vt 0.264279 1.348810
vt 0.312152 1.300940
vt 0.372476 1.240620
vt 0.392061 1.255650
vt 0.349406 1.329530
vt 0.315555 1.388160
vt 0.293820 1.425800
vt 0.392789 1.347500
vt 0.414869 1.265090
vt 0.375266 1.412890
vt 0.364016 1.454880
vt 0.634345 0.835998
vt 0.655740 0.957353
vt 0.592359 0.908720
vt 0.715117 0.897976
vt 0.704373 1.020730
vt 0.777095 0.978748
vt 0.439345 0.783748
vt 0.518551 0.878147
vt 0.439345 0.867720
vt 0.540285 0.797037
vt 0.816056 1.072810
vt 0.745373 1.173750
vt 0.734945 1.094540
vt 0.829345 1.173750
vt 0.816056 1.274690
vt 0.734945 1.252950
vt 0.777095 1.368750
vt 0.704373 1.326760
vt 0.592360 1.438780
vt 0.715117 1.449520
vt 0.634345 1.511500
vt 0.655740 1.390140
vt 0.518551 1.469350
vt 0.540285 1.550460
vt 0.439345 1.479780
vt 0.439345 1.563750
vt 0.360139 1.469350
vt 0.338406 1.550460
vt 0.286332 1.438780
vt 0.244345 1.511500
vt 0.222951 1.390140
vt 0.163574 1.449520
vt 0.101595 1.368750
vt 0.174317 1.326760
vt 0.143745 1.094540
vt 0.101596 0.978748
vt 0.174317 1.020730
vt 0.062634 1.072810
vt 0.062634 1.274690
vt 0.143745 1.252950
vt 0.049345 1.173750
vt 0.133317 1.173750
vt 0.244345 0.835998
vt 0.360139 0.878147
vt 0.286332 0.908720
vt 0.338406 0.797037
vt 0.163574 0.897976
vt 0.222951 0.957353
vt 0.244345 1.192120
vt 0.244345 1.076250
vt 0.634346 1.192120
vt 0.634346 1.076250
vt 0.286331 1.192120
vt 0.293820 1.216570
vt 0.360139 1.192120
vt 0.592359 1.192120
vt 0.645148 1.216570
vt 0.101596 1.368750
vt 0.101595 0.978748
vt 0.634346 1.511500
s 1
usemtl Inputa1Mtl.001
f 3/1/1 2/2/2 1/3/2
f 2/2/2 3/1/1 4/4/3
f 3/1/1 5/5/4 4/4/3
f 4/4/3 5/5/4 6/6/5
f 5/5/4 7/7/6 6/6/5
f 6/6/5 7/7/6 8/8/6
f 7/7/6 9/9/7 8/8/6
f 8/8/6 9/9/7 10/10/8
f 9/9/7 11/11/9 10/10/8
f 10/10/8 11/11/9 12/12/9
f 12/12/9 11/11/9 13/13/10
f 12/12/9 13/13/10 14/14/10
f 15/15/11 16/16/12 17/17/13
f 18/18/14 15/15/11 17/17/13
f 20/16/12 19/19/15 21/20/16
f 21/20/16 22/17/13 20/16/12
f 24/19/15 23/21/17 25/7/18
f 25/7/18 26/20/19 24/19/15
f 28/22/20 29/7/21 27/21/17
f 29/7/21 28/22/20 30/23/22
f 32/24/23 33/23/24 31/22/20
f 33/23/24 32/24/23 34/25/25
f 35/25/26 36/26/27 37/27/28
f 36/26/27 35/25/26 38/24/29
f 39/28/30 40/29/31 41/30/32
f 41/30/32 40/29/31 42/31/33
f 43/32/34 41/30/32 42/31/33
f 42/31/33 44/33/35 43/32/34
f 44/33/35 42/31/33 45/34/36
f 45/34/36 46/35/37 44/33/35
f 46/35/37 45/34/36 47/36/38
f 48/36/38 50/37/39 49/38/40
f 50/37/39 48/36/38 51/34/41
f 50/37/39 51/34/41 52/31/33
f 50/37/39 52/31/33 53/39/42
f 52/31/33 54/29/31 53/39/42
f 53/39/42 54/29/31 55/40/43
f 56/28/30 55/40/43 54/29/31
f 57/39/44 58/41/45 59/42/46
f 58/41/45 57/39/44 60/40/43
f 61/28/30 58/41/45 60/40/43
f 59/42/46 62/37/39 57/39/44
f 62/37/39 59/42/46 63/43/47
f 64/44/48 62/37/39 63/43/47
f 64/44/48 65/38/49 62/37/39
f 66/45/50 67/42/51 68/46/52
f 67/42/51 69/47/53 68/46/52
f 69/47/53 67/42/51 70/41/45
f 71/28/30 69/47/53 70/41/45
f 67/42/51 66/45/50 72/43/47
f 73/48/54 72/43/47 66/45/50
f 72/43/47 73/48/54 74/44/55
f 75/49/56 76/46/52 77/50/57
f 76/46/52 75/49/56 78/45/50
f 79/47/53 77/50/57 76/46/52
f 77/50/57 79/47/53 80/51/58
f 81/28/30 80/51/58 79/47/53
f 82/52/59 78/45/50 75/49/56
f 78/45/50 82/52/59 83/48/54
f 84/53/60 85/49/56 86/54/61
f 85/49/56 87/55/62 86/54/61
f 85/49/56 84/53/60 88/52/59
f 87/55/62 85/49/56 89/50/63
f 89/50/63 90/56/64 87/55/62
f 90/56/64 89/50/63 91/51/58
f 92/28/30 90/56/64 91/51/58
f 93/28/30 94/57/65 95/56/64
f 94/57/65 96/58/66 95/56/64
f 95/56/64 96/58/66 97/55/62
f 96/58/66 98/54/61 97/55/62
f 98/54/61 96/58/66 99/59/67
f 98/54/61 99/59/67 100/60/68
f 98/54/61 100/60/68 101/53/69
f 102/61/70 103/58/66 104/57/65
f 105/28/30 102/61/70 104/57/65
f 103/58/66 102/61/70 106/62/71
f 106/62/71 107/59/72 103/58/66
f 107/59/72 106/62/71 108/63/73
f 107/59/72 108/63/73 109/64/74
f 107/59/72 109/64/74 110/60/68
f 111/62/75 112/61/70 113/65/76
f 112/61/70 114/66/77 113/65/76
f 115/28/30 114/66/77 112/61/70
f 111/62/75 113/65/76 116/67/78
f 117/63/73 111/62/75 116/67/78
f 116/67/78 118/64/74 117/63/73
f 118/64/74 116/67/78 119/68/79
f 120/69/80 121/67/81 122/65/82
f 120/69/80 123/68/79 121/67/81
f 120/69/80 122/65/82 124/70/83
f 123/68/79 120/69/80 125/71/84
f 122/65/82 126/66/77 124/70/83
f 124/70/83 126/66/77 127/72/85
f 128/28/30 127/72/85 126/66/77
f 129/69/80 130/73/86 131/74/87
f 132/75/88 129/69/80 131/74/87
f 130/73/86 129/69/80 133/70/83
f 132/75/88 134/71/89 129/69/80
f 133/70/83 135/76/90 130/73/86
f 135/76/90 133/70/83 136/72/85
f 137/28/30 135/76/90 136/72/85
f 138/77/91 139/78/92 140/79/93
f 139/78/92 138/77/91 141/80/94
f 140/79/93 142/81/95 138/77/91
f 142/81/95 140/79/93 143/82/96
f 143/82/96 144/83/97 142/81/95
f 144/83/97 143/82/96 145/84/98
f 146/28/30 144/83/97 145/84/98
f 147/77/91 148/33/99 149/35/100
f 147/77/91 150/32/101 148/33/99
f 147/77/91 149/35/100 151/80/94
f 150/32/101 147/77/91 152/81/102
f 152/81/102 153/30/32 150/32/101
f 153/30/32 152/81/102 154/83/97
f 155/28/30 153/30/32 154/83/97
f 156/28/30 157/85/103 158/76/104
f 157/85/103 159/73/105 158/76/104
f 159/73/105 157/85/103 160/86/106
f 160/86/106 161/74/107 159/73/105
f 161/74/107 160/86/106 162/87/108
f 162/87/108 163/75/88 161/74/107
f 163/75/88 162/87/108 164/88/109
f 166/88/110 167/89/111 165/90/11
f 167/89/111 166/88/110 168/87/108
f 169/86/112 167/89/111 168/87/108
f 167/89/111 169/86/112 170/91/113
f 171/85/103 170/91/113 169/86/112
f 170/91/113 171/85/103 172/92/114
f 173/28/30 172/92/114 171/85/103
f 174/93/115 175/91/113 176/92/114
f 177/28/30 174/93/115 176/92/114
f 175/91/113 174/93/115 178/94/116
f 178/94/116 179/89/111 175/91/113
f 179/89/111 178/94/116 180/95/117
f 180/95/117 181/90/11 179/89/111
f 181/90/11 180/95/117 182/96/118
f 183/97/119 184/98/120 185/93/115
f 186/28/30 183/97/119 185/93/115
f 185/93/115 184/98/120 187/94/116
f 184/98/120 188/99/121 187/94/116
f 187/94/116 188/99/121 189/95/117
f 189/95/117 188/99/121 190/100/122
f 189/95/117 190/100/122 191/96/118
f 192/99/121 193/101/123 194/102/124
f 192/99/121 194/102/124 195/103/125
f 193/101/123 192/99/121 196/98/120
f 192/99/121 195/103/125 197/100/122
f 196/98/120 198/97/119 193/101/123
f 199/104/126 193/101/123 198/97/119
f 200/28/30 199/104/126 198/97/119
f 201/103/17 202/105/127 203/106/128
f 202/105/127 201/103/17 204/102/124
f 204/102/124 205/101/123 202/105/127
f 205/101/123 206/107/129 202/105/127
f 205/101/123 207/108/130 206/107/129
f 207/108/130 205/101/123 208/104/126
f 209/28/30 207/108/130 208/104/126
f 210/28/30 211/109/131 212/108/130
f 211/109/131 213/107/129 212/108/130
f 213/107/129 211/109/131 214/110/132
f 214/110/132 215/105/127 213/107/129
f 215/105/127 214/110/132 216/111/133
f 216/111/133 217/106/128 215/105/127
f 217/106/128 216/111/133 218/112/134
f 219/113/27 220/112/135 221/111/133
f 219/113/27 221/111/133 222/114/136
f 221/111/133 223/115/137 222/114/136
f 223/115/137 221/111/133 224/110/132
f 224/110/132 225/116/138 223/115/137
f 225/116/138 224/110/132 226/109/131
f 227/28/30 225/116/138 226/109/131
f 228/117/139 229/115/137 230/116/138
f 231/28/30 228/117/139 230/116/138
f 229/115/137 228/117/139 232/118/140
f 233/119/141 229/115/137 232/118/140
f 229/115/137 233/119/141 234/114/142
f 235/120/143 234/114/142 233/119/141
f 234/114/142 235/120/143 236/113/27
f 237/121/144 238/119/145 239/118/146
f 240/117/139 237/121/144 239/118/146
f 237/121/144 240/117/139 241/122/147
f 242/28/30 241/122/147 240/117/139
f 238/119/145 237/121/144 243/123/148
f 244/124/149 238/119/145 243/123/148
f 238/119/145 244/124/149 245/120/143
f 246/79/93 247/121/144 248/82/96
f 247/121/144 246/79/93 249/123/150
f 250/122/147 248/82/96 247/121/144
f 248/82/96 250/122/147 251/84/98
f 252/28/30 251/84/98 250/122/147
f 253/78/92 249/123/150 246/79/93
f 249/123/150 253/78/92 254/124/151
f 255/125/30 256/126/30 257/127/30
f 256/126/30 255/125/30 258/128/30
f 259/129/30 260/128/30 261/130/30
f 260/128/30 259/129/30 262/126/30
f 263/131/30 264/132/30 265/133/30
f 264/132/30 263/131/30 266/134/30
f 267/132/30 268/125/30 269/127/30
f 268/125/30 267/132/30 270/134/30
f 271/135/30 272/136/30 273/137/30
f 272/136/30 271/135/30 274/138/30
f 275/136/30 276/138/30 277/139/30
f 275/136/30 277/139/30 278/140/30
f 279/141/30 280/142/30 281/139/30
f 281/139/30 280/142/30 282/140/30
f 283/135/30 284/129/30 285/130/30
f 284/129/30 283/135/30 286/137/30
f 287/143/30 288/144/30 289/145/30
f 288/144/30 287/143/30 290/146/30
f 291/147/30 292/145/30 293/148/30
f 292/145/30 291/147/30 294/143/30
f 295/149/30 296/148/30 297/150/30
f 298/148/30 299/149/30 300/147/30
f 301/146/30 302/141/30 303/144/30
f 302/141/30 301/146/30 304/142/30
f 305/150/30 306/151/30 307/149/30
f 306/151/30 305/150/30 308/152/30
f 309/152/30 310/153/30 311/151/30
f 310/153/30 309/152/30 312/154/30
f 313/153/30 314/154/30 315/155/30
f 314/154/30 316/156/30 315/155/30
f 317/157/30 318/158/30 319/156/30
f 319/156/30 318/158/30 320/155/30
f 321/159/30 322/160/30 323/161/30
f 322/160/30 321/159/30 324/162/30
f 325/157/30 326/163/30 327/158/30
f 326/163/30 328/164/30 327/158/30
f 329/164/30 330/165/30 331/166/30
f 332/165/30 333/164/30 334/163/30
f 335/166/30 336/162/30 337/159/30
f 336/162/30 335/166/30 338/165/30
f 339/167/30 340/168/30 341/169/30
f 340/168/30 339/167/30 342/170/30
f 343/170/30 344/131/30 345/168/30
f 344/131/30 346/133/30 345/168/30
f 347/161/30 348/171/30 349/172/30
f 348/171/30 347/161/30 350/160/30
f 351/172/30 352/171/30 353/169/30
f 352/171/30 354/167/30 353/169/30
f 355/10/152 356/8/153 357/9/154
f 356/8/153 358/7/153 357/9/154
f 355/10/152 357/9/154 359/11/155
f 360/12/155 355/10/152 359/11/155
f 360/12/155 359/11/155 361/13/156
f 361/13/156 362/14/156 360/12/155
f 364/2/10 363/3/10 365/173/157
f 365/173/157 366/174/158 364/2/10
f 366/174/158 365/173/157 367/5/159
f 368/6/159 366/174/158 367/5/159
f 368/6/159 367/5/159 369/7/153
f 370/8/153 368/6/159 369/7/153
f 372/175/38 373/176/160 371/24/100
f 373/176/160 372/175/38 374/27/161
f 376/177/162 377/7/163 375/21/164
f 377/7/163 376/177/162 378/23/165
f 379/24/100 381/23/166 380/177/162
f 381/23/166 379/24/100 382/176/160
f 384/15/27 383/16/167 385/178/168
f 385/178/168 386/179/28 384/15/27
f 389/20/169 388/16/167 387/19/170
f 389/20/169 390/178/168 388/16/167
f 393/7/171 392/19/170 391/21/164
f 393/7/171 394/20/172 392/19/170
f 397/1/173 396/2/156 395/3/156
f 397/1/173 398/4/173 396/2/156
f 399/5/174 398/4/173 397/1/173
f 399/5/174 400/6/175 398/4/173
f 401/7/176 400/6/175 399/5/174
f 401/7/176 402/8/176 400/6/175
f 403/9/177 402/8/176 401/7/176
f 403/9/177 404/10/178 402/8/176
f 405/11/179 404/10/178 403/9/177
f 405/11/179 406/12/180 404/10/178
f 407/13/181 406/12/180 405/11/179
f 407/13/181 408/14/182 406/12/180
f 409/178/183 410/180/38 411/181/184
f 410/180/38 409/178/183 412/179/161
f 415/20/185 414/181/184 413/19/186
f 414/181/184 415/20/185 416/178/187
f 419/7/188 418/19/55 417/21/54
f 418/19/55 419/7/188 420/20/185
f 421/177/189 423/7/190 422/21/54
f 423/7/190 421/177/189 424/23/191
f 425/24/192 427/23/193 426/177/194
f 427/23/193 425/24/192 428/176/195
f 429/175/68 431/176/196 430/24/69
f 431/176/196 429/175/68 432/27/197
f 433/182/198 434/183/198 435/184/198
f 433/182/198 436/134/198 437/185/198
f 433/182/198 438/131/198 436/134/198
f 435/184/198 438/131/198 433/182/198
f 438/131/198 435/184/198 439/170/198
f 440/186/198 434/183/198 433/182/198
f 440/186/198 433/182/198 441/187/198
f 434/183/198 442/165/198 435/184/198
f 442/165/198 434/183/198 443/163/198
f 444/162/198 435/184/198 442/165/198
f 444/162/198 445/171/198 435/184/198
f 445/171/198 444/162/198 446/188/198
f 447/138/198 440/186/198 441/187/198
f 447/138/198 441/187/198 448/135/198
f 440/186/198 447/138/198 449/189/198
f 449/189/198 447/138/198 450/139/198
f 434/183/198 440/186/198 451/190/198
f 434/183/198 451/190/198 452/191/198
f 451/190/198 440/186/198 453/150/198
f 451/190/198 453/150/198 454/152/198
f 453/150/198 440/186/198 455/192/198
f 453/150/198 455/192/198 456/148/198
f 459/1/199 458/2/181 457/3/181
f 458/2/181 459/1/199 460/4/200
f 461/5/201 460/4/200 459/1/199
f 460/4/200 461/5/201 462/6/201
f 463/7/202 462/6/201 461/5/201
f 462/6/201 463/7/202 464/8/202
f 465/9/203 464/8/202 463/7/202
f 464/8/202 465/9/203 466/10/203
f 467/11/204 466/10/203 465/9/203
f 466/10/203 467/11/204 468/12/204
f 469/13/2 468/12/204 467/11/204
f 468/12/204 469/13/2 470/14/2
f 471/16/205 473/178/206 472/15/68
f 472/15/68 473/178/206 474/179/197
f 475/16/205 476/19/207 477/20/208
f 475/16/205 477/20/208 478/178/209
f 479/19/207 480/21/89 481/7/210
f 479/19/207 481/7/210 482/20/211
f 483/177/212 485/7/213 484/21/89
f 485/7/213 483/177/212 486/23/214
f 488/24/215 489/23/216 487/177/212
f 489/23/216 488/24/215 490/25/217
f 491/175/11 492/25/218 493/24/219
f 492/25/218 491/175/11 494/27/14
f 497/193/1 496/194/2 495/195/2
f 496/194/2 497/193/1 498/196/3
f 497/193/1 499/197/4 498/196/3
f 498/196/3 499/197/4 500/198/5
f 499/197/4 501/199/6 500/198/5
f 500/198/5 501/199/6 502/200/6
f 501/199/6 503/201/220 502/200/6
f 502/200/6 503/201/220 504/202/7
f 503/201/220 505/203/9 504/202/7
f 504/202/7 505/203/9 506/204/9
f 506/204/9 505/203/9 507/205/10
f 506/204/9 507/205/10 508/206/10
f 509/207/11 510/208/12 511/209/13
f 512/210/14 509/207/11 511/209/13
f 514/208/12 513/211/15 515/212/16
f 515/212/16 516/209/13 514/208/12
f 518/211/15 517/213/17 519/199/18
f 519/199/18 520/212/19 518/211/15
f 522/214/20 523/199/21 521/213/17
f 523/199/21 522/214/20 524/215/22
f 526/216/23 527/215/24 525/214/20
f 527/215/24 526/216/23 528/217/25
f 529/217/26 530/218/27 531/219/28
f 530/218/27 529/217/26 532/216/29
f 533/220/30 534/221/31 535/222/32
f 535/222/32 534/221/31 536/223/33
f 537/224/34 535/222/32 536/223/33
f 536/223/33 538/225/35 537/224/34
f 538/225/35 536/223/33 539/226/36
f 539/226/36 540/227/37 538/225/35
f 540/227/37 539/226/36 541/228/38
f 542/228/38 544/229/39 543/230/40
f 544/229/39 542/228/38 545/226/41
f 544/229/39 545/226/41 546/223/33
f 544/229/39 546/223/33 547/231/42
f 546/223/33 548/221/31 547/231/42
f 547/231/42 548/221/31 549/232/43
f 550/220/30 549/232/43 548/221/31
f 551/231/44 552/233/45 553/234/46
f 552/233/45 551/231/44 554/232/43
f 555/220/30 552/233/45 554/232/43
f 553/234/46 556/229/39 551/231/44
f 556/229/39 553/234/46 557/235/47
f 558/236/48 556/229/39 557/235/47
f 558/236/48 559/230/49 556/229/39
f 560/237/50 561/234/51 562/238/52
f 561/234/51 563/239/53 562/238/52
f 563/239/53 561/234/51 564/233/45
f 565/220/30 563/239/53 564/233/45
f 561/234/51 560/237/50 566/235/47
f 567/240/54 566/235/47 560/237/50
f 566/235/47 567/240/54 568/236/55
f 569/241/56 570/238/52 571/242/57
f 570/238/52 569/241/56 572/237/50
f 573/239/53 571/242/57 570/238/52
f 571/242/57 573/239/53 574/243/58
f 575/220/30 574/243/58 573/239/53
f 576/244/59 572/237/50 569/241/56
f 572/237/50 576/244/59 577/240/54
f 578/245/60 579/241/56 580/246/61
f 579/241/56 581/247/62 580/246/61
f 579/241/56 578/245/60 582/244/59
f 581/247/62 579/241/56 583/242/63
f 583/242/63 584/248/64 581/247/62
f 584/248/64 583/242/63 585/243/58
f 586/220/30 584/248/64 585/243/58
f 587/220/30 588/249/65 589/248/64
f 588/249/65 590/250/66 589/248/64
f 589/248/64 590/250/66 591/247/62
f 590/250/66 592/246/61 591/247/62
f 592/246/61 590/250/66 593/251/67
f 592/246/61 593/251/67 594/252/68
f 592/246/61 594/252/68 595/245/69
f 596/253/70 597/250/66 598/249/65
f 599/220/30 596/253/70 598/249/65
f 597/250/66 596/253/70 600/254/71
f 600/254/71 601/251/72 597/250/66
f 601/251/72 600/254/71 602/255/73
f 601/251/72 602/255/73 603/256/74
f 601/251/72 603/256/74 604/252/68
f 605/254/75 606/253/70 607/257/76
f 606/253/70 608/258/77 607/257/76
f 609/220/30 608/258/77 606/253/70
f 605/254/75 607/257/76 610/259/78
f 611/255/73 605/254/75 610/259/78
f 610/259/78 612/256/74 611/255/73
f 612/256/74 610/259/78 613/260/79
f 614/261/80 615/259/81 616/257/82
f 614/261/80 617/260/79 615/259/81
f 614/261/80 616/257/82 618/262/83
f 617/260/79 614/261/80 619/263/84
f 616/257/82 620/258/77 618/262/83
f 618/262/83 620/258/77 621/264/85
f 622/220/30 621/264/85 620/258/77
f 623/261/80 624/265/86 625/266/87
f 626/267/88 623/261/80 625/266/87
f 624/265/86 623/261/80 627/262/83
f 626/267/88 628/263/89 623/261/80
f 627/262/83 629/268/90 624/265/86
f 629/268/90 627/262/83 630/264/85
f 631/220/30 629/268/90 630/264/85
f 632/269/91 633/270/92 634/271/93
f 633/270/92 632/269/91 635/272/94
f 634/271/93 636/273/95 632/269/91
f 636/273/95 634/271/93 637/274/96
f 637/274/96 638/275/97 636/273/95
f 638/275/97 637/274/96 639/276/98
f 640/220/30 638/275/97 639/276/98
f 641/269/91 642/225/99 643/227/100
f 641/269/91 644/224/101 642/225/99
f 641/269/91 643/227/100 645/272/94
f 644/224/101 641/269/91 646/273/102
f 646/273/102 647/222/32 644/224/101
f 647/222/32 646/273/102 648/275/97
f 649/220/30 647/222/32 648/275/97
f 650/220/30 651/277/103 652/268/104
f 651/277/103 653/265/105 652/268/104
f 653/265/105 651/277/103 654/278/106
f 654/278/106 655/266/107 653/265/105
f 655/266/107 654/278/106 656/279/108
f 656/279/108 657/267/88 655/266/107
f 657/267/88 656/279/108 658/280/109
f 660/280/110 661/281/111 659/282/11
f 661/281/111 660/280/110 662/279/108
f 663/278/112 661/281/111 662/279/108
f 661/281/111 663/278/112 664/283/113
f 665/277/103 664/283/113 663/278/112
f 664/283/113 665/277/103 666/284/114
f 667/220/30 666/284/114 665/277/103
f 668/285/115 669/283/113 670/284/114
f 671/220/30 668/285/115 670/284/114
f 669/283/113 668/285/115 672/286/116
f 672/286/116 673/281/111 669/283/113
f 673/281/111 672/286/116 674/287/117
f 674/287/117 675/282/11 673/281/111
f 675/282/11 674/287/117 676/288/118
f 677/289/119 678/290/120 679/285/115
f 680/220/30 677/289/119 679/285/115
f 679/285/115 678/290/120 681/286/116
f 678/290/120 682/291/121 681/286/116
f 681/286/116 682/291/121 683/287/117
f 683/287/117 682/291/121 684/292/122
f 683/287/117 684/292/122 685/288/118
f 686/291/121 687/293/123 688/294/124
f 686/291/121 688/294/124 689/295/125
f 687/293/123 686/291/121 690/290/120
f 686/291/121 689/295/125 691/292/122
f 690/290/120 692/289/119 687/293/123
f 693/296/126 687/293/123 692/289/119
f 694/220/30 693/296/126 692/289/119
f 695/295/17 696/297/127 697/298/128
f 696/297/127 695/295/17 698/294/124
f 698/294/124 699/293/123 696/297/127
f 699/293/123 700/299/129 696/297/127
f 699/293/123 701/300/130 700/299/129
f 701/300/130 699/293/123 702/296/126
f 703/220/30 701/300/130 702/296/126
f 704/220/30 705/301/131 706/300/130
f 705/301/131 707/299/129 706/300/130
f 707/299/129 705/301/131 708/302/132
f 708/302/132 709/297/127 707/299/129
f 709/297/127 708/302/132 710/303/133
f 710/303/133 711/298/128 709/297/127
f 711/298/128 710/303/133 712/304/134
f 713/305/27 714/304/135 715/303/133
f 713/305/27 715/303/133 716/306/136
f 715/303/133 717/307/137 716/306/136
f 717/307/137 715/303/133 718/302/132
f 718/302/132 719/308/138 717/307/137
f 719/308/138 718/302/132 720/301/131
f 721/220/30 719/308/138 720/301/131
f 722/309/139 723/307/137 724/308/138
f 725/220/30 722/309/139 724/308/138
f 723/307/137 722/309/139 726/310/140
f 727/311/141 723/307/137 726/310/140
f 723/307/137 727/311/141 728/306/142
f 729/312/143 728/306/142 727/311/141
f 728/306/142 729/312/143 730/305/27
f 731/313/144 732/311/145 733/310/146
f 734/309/139 731/313/144 733/310/146
f 731/313/144 734/309/139 735/314/147
f 736/220/30 735/314/147 734/309/139
f 732/311/145 731/313/144 737/315/148
f 738/316/149 732/311/145 737/315/148
f 732/311/145 738/316/149 739/312/143
f 740/271/93 741/313/144 742/274/96
f 741/313/144 740/271/93 743/315/150
f 744/314/147 742/274/96 741/313/144
f 742/274/96 744/314/147 745/276/98
f 746/220/30 745/276/98 744/314/147
f 747/270/92 743/315/150 740/271/93
f 743/315/150 747/270/92 748/316/151
f 749/317/30 750/318/30 751/319/30
f 750/318/30 749/317/30 752/320/30
f 753/321/30 754/320/30 755/322/30
f 754/320/30 753/321/30 756/318/30
f 757/323/30 758/324/30 759/325/30
f 758/324/30 757/323/30 760/326/30
f 761/324/30 762/317/30 763/319/30
f 762/317/30 761/324/30 764/326/30
f 765/327/30 766/328/30 767/329/30
f 766/328/30 765/327/30 768/330/30
f 769/328/30 770/330/30 771/331/30
f 769/328/30 771/331/30 772/332/30
f 773/333/30 774/334/30 775/331/30
f 775/331/30 774/334/30 776/332/30
f 777/327/30 778/321/30 779/322/30
f 778/321/30 777/327/30 780/329/30
f 781/335/30 782/336/30 783/337/30
f 782/336/30 781/335/30 784/338/30
f 785/339/30 786/337/30 787/340/30
f 786/337/30 785/339/30 788/335/30
f 789/341/30 790/340/30 791/342/30
f 792/340/30 793/341/30 794/339/30
f 795/338/30 796/333/30 797/336/30
f 796/333/30 795/338/30 798/334/30
f 799/342/30 800/343/30 801/341/30
f 800/343/30 799/342/30 802/344/30
f 803/344/30 804/345/30 805/343/30
f 804/345/30 803/344/30 806/346/30
f 807/345/30 808/346/30 809/347/30
f 808/346/30 810/348/30 809/347/30
f 811/349/30 812/350/30 813/348/30
f 813/348/30 812/350/30 814/347/30
f 815/351/30 816/352/30 817/353/30
f 816/352/30 815/351/30 818/354/30
f 819/349/30 820/355/30 821/350/30
f 820/355/30 822/356/30 821/350/30
f 823/356/30 824/357/30 825/358/30
f 826/357/30 827/356/30 828/355/30
f 829/358/30 830/354/30 831/351/30
f 830/354/30 829/358/30 832/357/30
f 833/359/30 834/360/30 835/361/30
f 834/360/30 833/359/30 836/362/30
f 837/362/30 838/323/30 839/360/30
f 838/323/30 840/325/30 839/360/30
f 841/353/30 842/363/30 843/364/30
f 842/363/30 841/353/30 844/352/30
f 845/364/30 846/363/30 847/361/30
f 846/363/30 848/359/30 847/361/30
f 849/202/154 850/200/153 851/201/154
f 850/200/153 852/199/153 851/201/154
f 849/202/154 851/201/154 853/365/155
f 854/366/155 849/202/154 853/365/155
f 854/366/155 853/365/155 855/205/156
f 855/205/156 856/206/156 854/366/155
f 858/194/10 857/195/10 859/367/157
f 859/367/157 860/368/157 858/194/10
f 860/368/157 859/367/157 861/197/221
f 862/198/159 860/368/157 861/197/221
f 862/198/159 861/197/221 863/199/153
f 864/200/153 862/198/159 863/199/153
f 866/218/38 867/369/160 865/370/100
f 867/369/160 866/218/38 868/219/161
f 870/214/162 871/199/163 869/213/164
f 871/199/163 870/214/162 872/371/165
f 873/370/100 875/371/166 874/214/162
f 875/371/166 873/370/100 876/369/160
f 878/207/27 877/208/167 879/372/168
f 879/372/168 880/210/28 878/207/27
f 883/212/169 882/208/167 881/211/170
f 883/212/169 884/372/168 882/208/167
f 887/199/171 886/211/170 885/213/164
f 887/199/171 888/212/172 886/211/170
f 891/193/173 890/194/156 889/195/156
f 891/193/173 892/196/173 890/194/156
f 893/197/222 892/196/173 891/193/173
f 893/197/222 894/198/222 892/196/173
f 895/199/176 894/198/222 893/197/222
f 895/199/176 896/200/176 894/198/222
f 897/201/177 896/200/176 895/199/176
f 897/201/177 898/202/178 896/200/176
f 899/365/179 898/202/178 897/201/177
f 899/365/179 900/366/180 898/202/178
f 901/205/181 900/366/180 899/365/179
f 901/205/181 902/206/182 900/366/180
f 903/372/183 904/373/38 905/208/184
f 904/373/38 903/372/183 906/210/161
f 909/212/185 908/208/184 907/211/186
f 908/208/184 909/212/185 910/372/187
f 913/199/188 912/211/55 911/213/54
f 912/211/55 913/199/188 914/212/185
f 915/214/189 917/199/190 916/213/54
f 917/199/190 915/214/189 918/371/191
f 919/370/192 921/371/193 920/214/194
f 921/371/193 919/370/192 922/369/195
f 923/218/68 925/369/196 924/370/69
f 925/369/196 923/218/68 926/219/197
f 927/320/198 928/374/198 929/359/198
f 927/320/198 930/326/198 931/317/198
f 927/320/198 932/323/198 930/326/198
f 929/359/198 932/323/198 927/320/198
f 932/323/198 929/359/198 933/362/198
f 934/336/198 928/374/198 927/320/198
f 934/336/198 927/320/198 935/322/198
f 928/374/198 936/357/198 929/359/198
f 936/357/198 928/374/198 937/355/198
f 938/354/198 929/359/198 936/357/198
f 938/354/198 939/363/198 929/359/198
f 939/363/198 938/354/198 940/375/198
f 941/330/198 934/336/198 935/322/198
f 941/330/198 935/322/198 942/327/198
f 934/336/198 941/330/198 943/333/198
f 943/333/198 941/330/198 944/331/198
f 928/374/198 934/336/198 945/346/198
f 928/374/198 945/346/198 946/348/198
f 945/346/198 934/336/198 947/342/198
f 945/346/198 947/342/198 948/344/198
f 947/342/198 934/336/198 949/376/198
f 947/342/198 949/376/198 950/340/198
f 953/193/199 952/194/181 951/195/181
f 952/194/181 953/193/199 954/196/200
f 955/197/201 954/196/200 953/193/199
f 954/196/200 955/197/201 956/198/201
f 957/199/202 956/198/201 955/197/201
f 956/198/201 957/199/202 958/200/202
f 959/201/203 958/200/202 957/199/202
f 958/200/202 959/201/203 960/202/203
f 961/365/204 960/202/203 959/201/203
f 960/202/203 961/365/204 962/366/204
f 963/205/2 962/366/204 961/365/204
f 962/366/204 963/205/2 964/206/2
f 965/208/205 967/372/206 966/207/68
f 966/207/68 967/372/206 968/210/197
f 969/208/205 970/211/207 971/212/208
f 969/208/205 971/212/208 972/372/209
f 973/211/207 974/213/89 975/199/210
f 973/211/207 975/199/210 976/212/211
f 977/214/212 979/199/213 978/213/89
f 979/199/213 977/214/212 980/371/214
f 982/370/215 983/371/216 981/214/212
f 983/371/216 982/370/215 984/217/217
f 985/218/11 986/217/218 987/370/219
f 986/217/218 985/218/11 988/219/14
