# Blender 5.1.2
# www.blender.org
mtllib Trunk.mtl
o Trunk
v 2.774049 -0.178187 0.670738
v 2.774049 0.039093 0.670738
v 2.774049 -0.178187 0.770939
v 2.774049 0.139093 0.770939
v 2.774049 0.139093 -1.441662
v 2.774049 0.039093 -1.441662
v -2.774051 0.139093 -1.441662
v -0.000001 0.139093 0.770939
v -0.000001 0.139093 -1.441662
v -2.774051 0.139093 0.770939
v 2.774049 0.139093 -1.441662
v 2.774049 0.139093 0.770939
v -0.000001 0.139093 0.770939
v -2.774051 0.139093 0.770939
v -0.000001 -0.178187 0.770939
v -2.774051 -0.178187 0.770939
v 2.774049 0.139093 0.770939
v 2.774049 -0.178187 0.770939
v -2.774051 0.039093 0.670738
v -2.774051 0.139093 -1.441662
v -2.774051 0.039093 -1.441662
v -2.774051 0.139093 0.770939
v -2.774051 -0.178187 0.770939
v -2.774051 -0.178187 0.670738
v -2.774051 -0.178187 0.670738
v -0.000001 -0.178187 0.670738
v -0.000001 -0.178187 0.770939
v -2.774051 -0.178187 0.770939
v 2.774049 -0.178187 0.670738
v 2.774049 -0.178187 0.770939
v -0.000001 0.039093 -1.441662
v -0.000001 0.039093 0.670738
v -2.774051 0.039093 -1.441662
v -2.774051 0.039093 0.670738
v 2.774049 0.039093 -1.441662
v 2.774049 0.039093 0.670738
v -0.000001 0.039093 -1.441662
v -2.774051 0.039093 -1.441662
v -0.000001 0.139093 -1.441662
v -2.774051 0.139093 -1.441662
v 2.774049 0.039093 -1.441662
v 2.774049 0.139093 -1.441662
v -2.774051 0.039093 0.670738
v -0.000001 0.039093 0.670738
v -0.000001 -0.178187 0.670738
v -2.774051 -0.178187 0.670738
v 2.774049 0.039093 0.670738
v 2.774049 -0.178187 0.670738
vn 1.0000 -0.0000 -0.0000
vn -0.0000 1.0000 -0.0000
vn -0.0000 -0.0000 1.0000
vn -1.0000 -0.0000 -0.0000
vn -0.0000 -1.0000 -0.0000
vn -0.0000 -0.0000 -1.0000
vt 0.012719 2.509960
vt 0.012719 2.553420
vt -0.007317 2.509960
vt -0.007317 2.573420
vt 0.435209 2.573420
vt 0.435209 2.553420
vt 0.768756 2.320430
vt 0.213946 2.762950
vt 0.213946 2.320430
vt 0.768756 2.762950
vt -0.340864 2.320430
vt -0.340864 2.762950
vt 0.213946 2.573420
vt -0.340864 2.573420
vt 0.213946 2.509960
vt -0.340864 2.509960
vt 0.768756 2.573420
vt 0.768756 2.509960
vt 0.415174 2.553420
vt -0.007316 2.573420
vt -0.007316 2.553420
vt 0.435209 2.509960
vt 0.415174 2.509960
vt -0.340864 2.742920
vt 0.213946 2.742920
vt 0.768756 2.742920
vt 0.213946 2.553420
vt 0.768756 2.553420
vt -0.340864 2.553420
s 1
usemtl Door1Mtl.007
f 1/1/1 2/2/1 3/3/1
f 2/2/1 4/4/1 3/3/1
f 5/5/1 4/4/1 2/2/1
f 5/5/1 2/2/1 6/6/1
f 7/7/2 8/8/2 9/9/2
f 8/8/2 7/7/2 10/10/2
f 8/8/2 11/11/2 9/9/2
f 11/11/2 8/8/2 12/12/2
f 13/13/3 14/14/3 15/15/3
f 16/16/3 15/15/3 14/14/3
f 15/15/3 17/17/3 13/13/3
f 15/15/3 18/18/3 17/17/3
f 19/19/4 20/20/4 21/21/4
f 22/5/4 20/20/4 19/19/4
f 19/19/4 23/22/4 22/5/4
f 24/23/4 23/22/4 19/19/4
f 25/24/5 26/25/5 27/8/5
f 25/24/5 27/8/5 28/12/5
f 29/26/5 27/8/5 26/25/5
f 27/8/5 29/26/5 30/10/5
f 31/9/5 32/25/5 33/11/5
f 33/11/5 32/25/5 34/24/5
f 31/9/5 35/7/5 32/25/5
f 35/7/5 36/26/5 32/25/5
f 37/27/6 38/28/6 39/13/6
f 40/17/6 39/13/6 38/28/6
f 39/13/6 41/29/6 37/27/6
f 39/13/6 42/14/6 41/29/6
f 43/28/6 44/27/6 45/15/6
f 43/28/6 45/15/6 46/18/6
f 44/27/6 47/29/6 45/15/6
f 48/16/6 45/15/6 47/29/6
