# Blender 5.1.2
# www.blender.org
mtllib Tooth.mtl
o Tooth
v 0.044360 -0.115399 -0.018929
v 0.080470 -0.074609 -0.025028
v 0.093190 -0.074609 -0.000029
v 0.093190 -0.074609 -0.000029
v 0.044360 -0.115399 0.018871
v 0.080470 -0.074609 0.024971
v 0.047370 0.093351 -0.025028
v 0.080170 0.078841 -0.000029
v 0.068710 0.070751 -0.025028
v 0.056570 0.103841 -0.000029
v 0.047370 0.093351 0.024971
v 0.080170 0.078841 -0.000029
v 0.056570 0.103841 -0.000029
v 0.068710 0.070751 0.024971
v 0.068710 0.070751 -0.025028
v 0.093190 0.041351 -0.000029
v 0.080470 0.036871 -0.025028
v 0.080170 0.078841 -0.000029
v 0.080170 0.078841 -0.000029
v 0.068710 0.070751 0.024971
v 0.093190 0.041351 -0.000029
v 0.080470 0.036871 0.024971
v 0.080470 0.036871 -0.025028
v 0.093190 -0.074609 -0.000029
v 0.080470 -0.074609 -0.025028
v 0.093190 0.041351 -0.000029
v 0.080470 0.036871 0.024971
v 0.093190 -0.074609 -0.000029
v 0.093190 0.041351 -0.000029
v 0.080470 -0.074609 0.024971
v -0.023870 0.102471 -0.025028
v -0.000810 0.116541 -0.000029
v -0.000810 0.104831 -0.025028
v -0.030390 0.113931 -0.000029
v -0.000810 0.116541 -0.000029
v 0.022240 0.102471 -0.025028
v -0.000810 0.104831 -0.025028
v 0.028760 0.113931 -0.000029
v -0.000810 0.116541 -0.000029
v 0.022240 0.102471 0.024971
v 0.028760 0.113931 -0.000029
v -0.000810 0.104831 0.024971
v -0.049000 0.093351 -0.025028
v -0.030390 0.113931 -0.000029
v -0.023870 0.102471 -0.025028
v -0.058190 0.103841 -0.000029
v 0.022240 0.102471 -0.025028
v 0.047370 0.093351 -0.025028
v 0.028760 0.113931 -0.000029
v 0.056570 0.103841 -0.000029
v -0.058190 0.103841 -0.000029
v -0.049000 0.093351 0.024971
v -0.030390 0.113931 -0.000029
v -0.023870 0.102471 0.024971
v -0.000810 0.104831 0.024971
v 0.022240 0.102471 0.024971
v 0.028760 0.113931 -0.000029
v 0.047370 0.093351 0.024971
v 0.056570 0.103841 -0.000029
v -0.000810 0.116541 -0.000029
v -0.023870 0.102471 0.024971
v -0.030390 0.113931 -0.000029
v -0.069910 -0.115399 -0.000029
v -0.056620 -0.178079 -0.000029
v -0.045990 -0.115399 0.018871
v -0.022070 -0.115399 -0.000029
v 0.020440 -0.115399 -0.000029
v 0.044360 -0.115399 0.018871
v 0.054990 -0.178079 -0.000029
v 0.068280 -0.115399 -0.000029
v 0.093190 -0.074609 -0.000029
v 0.044360 -0.115399 0.018871
v 0.068280 -0.115399 -0.000029
v -0.094820 -0.074609 -0.000029
v -0.045990 -0.115399 0.018871
v -0.069910 -0.115399 -0.000029
v -0.045990 -0.115399 0.018871
v -0.000810 -0.085279 0.023071
v -0.082100 -0.074609 0.024971
v 0.044360 -0.115399 0.018871
v 0.080470 -0.074609 0.024971
v -0.000810 -0.085279 0.023071
v -0.023870 0.102471 0.024971
v -0.000810 0.104831 0.024971
v 0.022240 0.102471 0.024971
v -0.049000 0.093351 0.024971
v 0.047370 0.093351 0.024971
v -0.070330 0.070751 0.024971
v 0.068710 0.070751 0.024971
v -0.082100 0.036871 0.024971
v 0.068710 0.070751 0.024971
v 0.080470 0.036871 0.024971
v -0.082100 0.036871 0.024971
v 0.080470 -0.074609 0.024971
v -0.082100 -0.074609 0.024971
v 0.080470 -0.074609 0.024971
v -0.000810 -0.085279 0.023071
v -0.045990 -0.115399 -0.018929
v -0.094820 -0.074609 -0.000029
v -0.082100 -0.074609 -0.025028
v -0.094820 -0.074609 -0.000029
v -0.045990 -0.115399 0.018871
v -0.082100 -0.074609 0.024971
v -0.081800 0.078841 -0.000029
v -0.049000 0.093351 -0.025028
v -0.070330 0.070751 -0.025028
v -0.058190 0.103841 -0.000029
v -0.081800 0.078841 -0.000029
v -0.049000 0.093351 0.024971
v -0.058190 0.103841 -0.000029
v -0.070330 0.070751 0.024971
v -0.070330 0.070751 -0.025028
v -0.082100 0.036871 -0.025028
v -0.094820 0.041351 -0.000029
v -0.081800 0.078841 -0.000029
v -0.081800 0.078841 -0.000029
v -0.094820 0.041351 -0.000029
v -0.070330 0.070751 0.024971
v -0.082100 0.036871 0.024971
v -0.082100 0.036871 -0.025028
v -0.082100 -0.074609 -0.025028
v -0.094820 -0.074609 -0.000029
v -0.094820 0.041351 -0.000029
v -0.082100 -0.074609 0.024971
v -0.082100 0.036871 0.024971
v -0.094820 -0.074609 -0.000029
v -0.094820 0.041351 -0.000029
v -0.045990 -0.115399 -0.018929
v -0.045990 -0.115399 0.018871
v -0.022070 -0.115399 -0.000029
v -0.000810 -0.085279 -0.022129
v -0.000810 -0.085279 0.023071
v -0.000810 -0.099009 -0.000029
v 0.020440 -0.115399 -0.000029
v 0.044360 -0.115399 -0.018929
v 0.044360 -0.115399 0.018871
v -0.069910 -0.115399 -0.000029
v -0.045990 -0.115399 -0.018929
v -0.056620 -0.178079 -0.000029
v -0.022070 -0.115399 -0.000029
v 0.020440 -0.115399 -0.000029
v 0.044360 -0.115399 -0.018929
v 0.054990 -0.178079 -0.000029
v 0.068280 -0.115399 -0.000029
v 0.044360 -0.115399 -0.018929
v 0.093190 -0.074609 -0.000029
v 0.068280 -0.115399 -0.000029
v -0.045990 -0.115399 -0.018929
v -0.094820 -0.074609 -0.000029
v -0.069910 -0.115399 -0.000029
v -0.000810 0.104831 -0.025028
v -0.082100 -0.074609 -0.025028
v -0.000810 -0.085279 -0.022129
v -0.045990 -0.115399 -0.018929
v 0.080470 -0.074609 -0.025028
v 0.044360 -0.115399 -0.018929
v -0.000810 -0.085279 -0.022129
v -0.023870 0.102471 -0.025028
v 0.022240 0.102471 -0.025028
v -0.049000 0.093351 -0.025028
v 0.047370 0.093351 -0.025028
v -0.070330 0.070751 -0.025028
v 0.068710 0.070751 -0.025028
v 0.068710 0.070751 -0.025028
v -0.082100 0.036871 -0.025028
v 0.080470 0.036871 -0.025028
v 0.080470 -0.074609 -0.025028
v -0.082100 0.036871 -0.025028
v -0.082100 -0.074609 -0.025028
v 0.080470 -0.074609 -0.025028
v -0.000810 -0.085279 -0.022129
vn 0.0316 -0.4022 -0.9150
vn 0.5282 -0.2207 -0.8199
vn 0.9563 -0.2924 -0.0000
vn 0.0315 -0.4088 0.9121
vn 0.5338 -0.2198 0.8165
vn 0.3066 0.4874 -0.8176
vn 0.8533 0.5215 -0.0000
vn 0.4897 0.2922 -0.8214
vn 0.5601 0.8284 -0.0000
vn 0.3066 0.4874 0.8176
vn 0.8533 0.5214 -0.0000
vn 0.5602 0.8284 -0.0000
vn 0.4897 0.2922 0.8214
vn 0.4897 0.2922 -0.8215
vn 0.9849 0.1734 -0.0000
vn 0.5671 0.0866 -0.8191
vn 0.4897 0.2923 0.8214
vn 0.9849 0.1733 -0.0000
vn 0.5671 0.0866 0.8191
vn 0.9563 -0.2925 -0.0000
vn 0.5282 -0.2208 -0.8199
vn 0.5339 -0.2198 0.8165
vn -0.1183 0.5599 -0.8201
vn -0.0000 1.0000 -0.0000
vn -0.0001 0.5745 -0.8185
vn -0.2278 0.9737 -0.0000
vn 0.1183 0.5599 -0.8201
vn -0.0000 0.5745 -0.8185
vn 0.2277 0.9737 -0.0000
vn 0.1182 0.5599 0.8201
vn -0.0000 0.5745 0.8185
vn -0.3066 0.4874 -0.8176
vn -0.2277 0.9737 -0.0000
vn -0.5601 0.8284 -0.0000
vn -0.3066 0.4874 0.8176
vn -0.1183 0.5599 0.8201
vn 0.2278 0.9737 -0.0000
vn 0.1183 0.5599 0.8201
vn -0.1182 0.5599 0.8201
vn -0.1504 -0.9886 -0.0000
vn -0.0314 -0.4088 0.9121
vn -0.8677 -0.4970 -0.0000
vn 0.6623 -0.7492 -0.0079
vn -0.6540 -0.7565 -0.0000
vn 0.1503 -0.9886 -0.0000
vn 0.0314 -0.4088 0.9121
vn 0.8677 -0.4970 -0.0000
vn 0.9563 -0.2925 -0.0001
vn 0.0314 -0.4089 0.9121
vn 0.8677 -0.4970 -0.0001
vn -0.9563 -0.2923 -0.0000
vn -0.8678 -0.4970 -0.0000
vn 0.0078 -0.4155 0.9096
vn -0.5339 -0.2198 0.8165
vn -0.4897 0.2923 0.8214
vn -0.5671 0.0866 0.8191
vn -0.4897 0.2922 0.8214
vn 0.5339 -0.2199 0.8165
vn 0.0079 -0.4155 0.9096
vn -0.0237 -0.4023 -0.9152
vn -0.9563 -0.2924 -0.0000
vn -0.5282 -0.2207 -0.8199
vn -0.0315 -0.4089 0.9121
vn -0.5338 -0.2198 0.8165
vn -0.8533 0.5214 -0.0000
vn -0.4897 0.2923 -0.8215
vn -0.5602 0.8284 -0.0000
vn -0.4897 0.2922 -0.8214
vn -0.5671 0.0866 -0.8191
vn -0.9849 0.1733 -0.0000
vn -0.9849 0.1734 -0.0000
vn -0.4897 0.2922 0.8215
vn -0.5282 -0.2208 -0.8199
vn -0.9563 -0.2925 -0.0000
vn -0.0000 -0.4409 -0.8976
vn 0.6624 -0.7491 -0.0079
vn -0.0237 -0.4024 -0.9152
vn 0.0078 -0.4156 0.9095
vn -0.0315 -0.4089 0.9120
vn -0.0157 -0.9998 -0.0079
vn 0.0316 -0.4023 -0.9150
vn -0.1503 -0.9886 -0.0000
vn 0.6624 -0.7491 -0.0078
vn 0.0315 -0.4023 -0.9150
vn 0.1504 -0.9886 -0.0001
vn 0.9563 -0.2923 -0.0000
vn 0.8678 -0.4970 0.0001
vn -0.9563 -0.2925 0.0001
vn -0.8677 -0.4970 0.0001
vn 0.0315 -0.4022 -0.9150
vn -0.1182 0.5599 -0.8201
vn -0.4897 0.2923 -0.8214
vn 0.4897 0.2923 -0.8214
vn -0.5671 0.0867 -0.8191
vt 0.147103 0.923428
vt 0.153189 0.964216
vt 0.128188 0.964216
vt 0.109275 0.923428
vt 0.103189 0.964216
vt 0.153189 1.132170
vt 0.128188 1.117660
vt 0.153189 1.109570
vt 0.128188 1.142670
vt 0.103189 1.132170
vt 0.103189 1.109570
vt 0.128188 1.080180
vt 0.153189 1.075690
vt 0.103189 1.075690
vt 0.151243 0.983060
vt 0.128189 1.008060
vt 0.128189 0.983060
vt 0.157768 1.008060
vt 0.105135 0.983060
vt 0.098610 1.008060
vt 0.105135 1.033060
vt 0.128189 1.033060
vt 0.176371 0.983060
vt 0.185569 1.008060
vt 0.080007 0.983060
vt 0.070809 1.008060
vt 0.176371 1.033060
vt 0.151243 1.033060
vt 0.080007 1.033060
vt 0.072387 0.860750
vt 0.083018 0.923428
vt 0.059098 0.923428
vt 0.106937 0.923428
vt 0.149441 0.923428
vt 0.183991 0.860750
vt 0.173360 0.923428
vt 0.197280 0.923428
vt 0.222196 0.964216
vt 0.034182 0.964216
vt 0.128189 0.953549
vt 0.046903 0.964216
vt 0.209475 0.964216
vt 0.128189 1.143650
vt 0.105135 1.141290
vt 0.151243 1.141290
vt 0.080007 1.132170
vt 0.176371 1.132170
vt 0.058669 1.109570
vt 0.197709 1.109570
vt 0.046903 1.075690
vt 0.209475 1.075690
vt 0.128189 0.964216
vt 0.128189 1.117660
vt 0.128189 1.142670
vt 0.128189 1.080180
vt 0.128189 0.986007
vt 0.106937 1.008060
vt 0.083018 0.989146
vt 0.128189 1.031210
vt 0.083018 1.026970
vt 0.149441 1.008060
vt 0.173360 0.989146
vt 0.173360 1.026970
s 1
usemtl Tooth1Mtl
f 1/1/1 2/2/2 3/3/3
f 5/4/4 4/3/3 6/5/5
f 7/6/6 8/7/7 9/8/8
f 8/7/7 7/6/6 10/9/9
f 11/10/10 12/7/11 13/9/12
f 12/7/11 11/10/10 14/11/13
f 15/8/14 16/12/15 17/13/16
f 16/12/15 15/8/14 18/7/7
f 19/7/7 20/11/17 21/12/18
f 21/12/18 20/11/17 22/14/19
f 23/13/16 24/3/20 25/2/21
f 24/3/20 23/13/16 26/12/15
f 27/14/19 28/3/20 29/12/18
f 28/3/20 27/14/19 30/5/22
f 31/15/23 32/16/24 33/17/25
f 32/16/24 31/15/23 34/18/26
f 35/16/24 36/19/27 37/17/28
f 36/19/27 35/16/24 38/20/29
f 39/16/24 40/21/30 41/20/29
f 40/21/30 39/16/24 42/22/31
f 43/23/32 44/18/33 45/15/23
f 44/18/33 43/23/32 46/24/34
f 48/25/6 47/19/27 49/20/29
f 49/20/29 50/26/12 48/25/6
f 51/24/34 52/27/35 53/18/33
f 53/18/33 52/27/35 54/28/36
f 57/20/37 56/21/38 58/29/10
f 59/26/12 57/20/37 58/29/10
f 60/16/24 61/28/39 55/22/31
f 61/28/39 60/16/24 62/18/33
f 64/30/40 65/31/41 63/32/42
f 66/33/43 65/31/41 64/30/40
f 67/34/44 69/35/45 68/36/46
f 69/35/45 70/37/47 68/36/46
f 71/38/48 72/36/49 73/37/50
f 75/31/41 74/39/51 76/32/52
f 77/31/41 78/40/53 79/41/54
f 80/36/4 81/42/22 82/40/53
f 84/43/31 83/44/36 85/45/38
f 86/46/35 85/45/38 83/44/36
f 85/45/38 86/46/35 87/47/10
f 88/48/55 87/47/10 86/46/35
f 87/47/10 88/48/55 89/49/17
f 90/50/56 91/49/13 88/48/57
f 91/49/13 90/50/56 92/51/19
f 93/50/56 94/42/58 92/51/19
f 94/42/58 93/50/56 95/41/54
f 96/42/22 95/41/54 97/40/59
f 98/4/60 99/52/61 100/5/62
f 101/52/61 102/1/63 103/2/64
f 104/53/65 105/10/32 106/11/66
f 105/10/32 104/53/65 107/54/67
f 108/53/65 109/6/35 110/54/34
f 109/6/35 108/53/65 111/8/57
f 112/11/68 113/14/69 114/55/70
f 114/55/70 115/53/65 112/11/68
f 116/53/65 117/55/71 118/8/72
f 117/55/71 119/13/56 118/8/72
f 120/14/69 121/5/73 122/52/74
f 120/14/69 122/52/74 123/55/70
f 124/2/54 125/13/56 126/52/74
f 127/55/71 126/52/74 125/13/56
f 131/56/75 130/57/76 128/58/77
f 130/57/76 132/59/78 129/60/79
f 130/57/76 131/56/75 133/16/80
f 132/59/78 130/57/76 133/16/80
f 131/56/75 134/61/44 133/16/80
f 134/61/44 132/59/78 133/16/80
f 134/61/44 131/56/75 135/62/81
f 132/59/78 134/61/44 136/63/4
f 137/37/42 138/36/60 139/35/82
f 140/34/83 139/35/82 138/36/60
f 141/33/44 142/31/84 143/30/85
f 144/32/47 143/30/85 142/31/84
f 145/31/84 146/39/86 147/32/87
f 149/38/88 148/36/77 150/37/89
f 152/42/62 153/40/75 154/36/60
f 155/41/2 156/31/90 157/40/75
f 151/43/28 159/44/27 158/45/91
f 159/44/27 160/47/32 158/45/91
f 161/46/6 160/47/32 159/44/27
f 161/46/6 162/49/92 160/47/32
f 162/49/92 161/46/6 163/48/93
f 164/48/8 165/51/94 162/49/92
f 165/51/94 164/48/8 166/50/16
f 167/41/21 168/51/69 166/50/16
f 168/51/69 167/41/21 169/42/73
f 169/42/73 170/41/2 171/40/75
