# Blender 5.1.2
# www.blender.org
mtllib Light.001.mtl
o Light.001
v 0.107656 0.195427 0.065861
v 0.107656 0.195427 0.180260
v 0.190256 0.112827 0.065861
v 0.190256 0.112827 0.180260
v 0.220487 -0.000003 0.065861
v 0.107656 -0.195433 0.180260
v 0.220487 -0.000003 0.180260
v 0.107656 -0.195433 0.065861
v 0.190256 -0.112833 0.065861
v 0.190256 -0.112833 0.180260
v -0.118004 0.195427 0.065861
v -0.118004 0.195427 0.180260
v -0.005174 0.225667 0.065861
v -0.005174 0.225667 0.180260
v 0.107656 0.195427 0.065861
v 0.107656 0.195427 0.180260
v 0.220487 -0.000003 0.180260
v 0.190256 0.112827 0.180260
v 0.133286 0.079937 0.230457
v 0.107656 0.195427 0.180260
v 0.154696 -0.000003 0.230457
v 0.074766 0.138457 0.230457
v -0.005174 0.225667 0.180260
v 0.190256 -0.112833 0.180260
v 0.133286 -0.079933 0.230457
v 0.107656 -0.195433 0.180260
v 0.074766 -0.138453 0.230457
v -0.005174 -0.225663 0.180260
v -0.005174 0.159877 0.230457
v -0.005174 -0.159873 0.230457
v -0.165044 -0.000003 0.230457
v -0.085114 -0.138453 0.230457
v -0.118004 -0.195433 0.180260
v -0.143623 -0.079933 0.230457
v -0.200603 -0.112833 0.180260
v -0.230833 -0.000003 0.180260
v -0.143623 0.079937 0.230457
v -0.200603 0.112827 0.180260
v -0.085114 0.138457 0.230457
v -0.118004 0.195427 0.180260
v 0.107656 0.195427 0.065861
v -0.005174 0.481307 -0.098843
v -0.005174 0.225667 0.065861
v -0.118004 0.195427 0.065861
v 0.235487 0.416827 -0.098843
v -0.245833 0.416827 -0.098843
v 0.190256 0.112827 0.065861
v 0.411656 0.240657 -0.098843
v -0.200603 0.112827 0.065861
v -0.422013 0.240657 -0.098843
v 0.476136 -0.000003 -0.098843
v -0.486513 -0.000003 -0.098843
v 0.220487 -0.000003 0.065861
v -0.230833 -0.000003 0.065861
v 0.190256 -0.112833 0.065861
v -0.200603 -0.112833 0.065861
v 0.411656 -0.240653 -0.098843
v -0.422013 -0.240653 -0.098843
v 0.107656 -0.195433 0.065861
v -0.118004 -0.195433 0.065861
v 0.235487 -0.416833 -0.098843
v -0.245833 -0.416833 -0.098843
v -0.005174 -0.225663 0.065861
v -0.005174 -0.481313 -0.098843
v -0.200603 0.112827 0.065861
v -0.200603 0.112827 0.180260
v -0.118004 0.195427 0.065861
v -0.230833 -0.000003 0.180260
v -0.118004 0.195427 0.180260
v -0.230833 -0.000003 0.065861
v -0.200603 -0.112833 0.180260
v -0.200603 -0.112833 0.065861
v -0.118004 -0.195433 0.180260
v -0.118004 -0.195433 0.065861
v -0.118004 -0.195433 0.180260
v -0.118004 -0.195433 0.065861
v -0.005174 -0.225663 0.180260
v -0.005174 -0.225663 0.065861
v 0.107656 -0.195433 0.180260
v 0.107656 -0.195433 0.065861
v 0.411636 0.240657 -0.154541
v 0.411636 0.240657 -0.098442
v 0.476127 -0.000003 -0.154541
v 0.476127 -0.000003 -0.098442
v 0.411636 -0.240653 -0.154541
v 0.411636 -0.240653 -0.098442
v 0.411636 0.240657 -0.154541
v 0.235467 0.416827 -0.154541
v 0.235467 0.416827 -0.098442
v 0.411636 0.240657 -0.098442
v -0.005183 0.481317 -0.098442
v -0.005183 0.481317 -0.154541
v -0.245844 0.416827 -0.098442
v -0.245844 0.416827 -0.154541
v -0.245844 0.416827 -0.098442
v -0.245844 0.416827 -0.154541
v -0.422013 0.240657 -0.098442
v -0.422013 0.240657 -0.154541
v -0.486513 -0.000003 -0.098442
v -0.486513 -0.000003 -0.154541
v -0.422013 -0.240653 -0.098442
v -0.422013 -0.240653 -0.154541
v -0.245844 -0.416833 -0.098442
v -0.245844 -0.416833 -0.154541
v 0.411636 -0.240653 -0.154541
v 0.411636 -0.240653 -0.098442
v -0.245844 -0.416833 -0.098442
v -0.245844 -0.416833 -0.154541
v -0.005183 -0.481313 -0.098442
v -0.005183 -0.481313 -0.154541
v 0.235467 -0.416833 -0.098442
v 0.235467 -0.416833 -0.154541
v 0.411636 0.240657 -0.154541
v 0.416697 -0.000003 -0.213940
v 0.360176 0.210947 -0.213940
v 0.205756 0.365367 -0.213940
v 0.235467 0.416827 -0.154541
v 0.476127 -0.000003 -0.154541
v 0.411636 -0.240653 -0.154541
v -0.005183 0.481317 -0.154541
v -0.005183 0.421887 -0.213940
v -0.245844 0.416827 -0.154541
v -0.216133 0.365367 -0.213940
v -0.422013 0.240657 -0.154541
v -0.370514 0.210947 -0.213940
v -0.427114 -0.000003 -0.213940
v -0.486513 -0.000003 -0.154541
v -0.422013 -0.240653 -0.154541
v -0.370514 -0.210943 -0.213940
v -0.005183 -0.421883 -0.213940
v -0.216133 -0.365363 -0.213940
v -0.245844 -0.416833 -0.154541
v -0.005183 -0.481313 -0.154541
v 0.205756 -0.365363 -0.213940
v 0.235467 -0.416833 -0.154541
v 0.360176 -0.210943 -0.213940
vn 0.5029 0.8643 -0.0000
vn 0.8643 0.5029 -0.0000
vn 0.8644 0.5029 -0.0000
vn 1.0000 -0.0000 -0.0000
vn 0.8643 -0.5029 -0.0000
vn 0.5029 -0.8643 0.0001
vn 0.8644 -0.5029 -0.0000
vn 0.5029 -0.8643 -0.0000
vn -0.5028 0.8644 -0.0000
vn -0.5029 0.8644 -0.0000
vn -0.0000 1.0000 -0.0000
vn 0.5029 0.8644 -0.0000
vn 0.5028 0.8644 -0.0000
vn 0.6066 -0.0000 0.7950
vn 0.5275 0.2991 0.7952
vn 0.3157 0.1815 0.9313
vn 0.2992 0.5275 0.7952
vn 0.3632 -0.0000 0.9317
vn 0.1815 0.3157 0.9313
vn -0.0000 0.6066 0.7950
vn 0.5275 -0.2992 0.7952
vn 0.3157 -0.1815 0.9313
vn 0.2992 -0.5275 0.7952
vn 0.1815 -0.3157 0.9314
vn -0.0000 -0.6066 0.7950
vn -0.0000 0.3632 0.9317
vn -0.0000 -0.3632 0.9317
vn -0.3632 -0.0000 0.9317
vn -0.1815 -0.3157 0.9313
vn -0.2992 -0.5275 0.7952
vn -0.3157 -0.1815 0.9313
vn -0.5275 -0.2992 0.7952
vn -0.6066 -0.0000 0.7950
vn -0.3157 0.1815 0.9313
vn -0.5275 0.2992 0.7952
vn -0.1816 0.3157 0.9313
vn -0.2992 0.5275 0.7952
vn 0.2671 0.4713 0.8405
vn -0.0000 0.5420 0.8404
vn -0.0000 0.5419 0.8404
vn -0.2671 0.4713 0.8405
vn 0.4713 0.2671 0.8405
vn -0.4713 0.2671 0.8405
vn 0.5420 -0.0000 0.8404
vn -0.5419 -0.0000 0.8405
vn 0.5416 -0.0000 0.8406
vn -0.5420 -0.0000 0.8404
vn 0.4713 -0.2671 0.8405
vn -0.4713 -0.2671 0.8405
vn 0.2671 -0.4713 0.8405
vn -0.2671 -0.4713 0.8405
vn -0.0000 -0.5416 0.8406
vn -0.8643 0.5029 -0.0000
vn -0.5029 0.8643 0.0001
vn -1.0000 -0.0000 -0.0000
vn -0.5029 0.8643 -0.0000
vn -0.8644 -0.5029 -0.0000
vn -0.8643 -0.5029 -0.0000
vn -0.5029 -0.8643 -0.0000
vn -0.5028 -0.8644 -0.0000
vn -0.0000 -1.0000 -0.0000
vn 0.5028 -0.8644 -0.0000
vn 0.5029 -0.8644 -0.0000
vn 0.9317 -0.0000 -0.3632
vn 0.8091 0.4635 -0.3613
vn 0.8091 -0.4634 -0.3614
vn 0.8644 -0.5028 -0.0000
vn 0.4635 0.8091 -0.3613
vn -0.0000 0.9317 -0.3632
vn -0.4635 0.8091 -0.3613
vn -0.8644 0.5029 -0.0000
vn -0.8091 0.4635 -0.3613
vn -0.9317 -0.0000 -0.3632
vn -0.8091 -0.4635 -0.3613
vn -0.4635 -0.8091 -0.3613
vn -0.0000 -0.9317 -0.3632
vn 0.4635 -0.8091 -0.3613
vn 0.8091 -0.4635 -0.3613
vn 0.8091 0.4634 -0.3613
vn 0.4342 -0.0000 -0.9008
vn 0.3785 0.2208 -0.8989
vn 0.2208 0.3785 -0.8989
vn 0.4635 0.8091 -0.3614
vn 0.8091 -0.4635 -0.3614
vn -0.0000 0.4342 -0.9008
vn -0.4634 0.8091 -0.3614
vn -0.2208 0.3785 -0.8989
vn -0.8091 0.4635 -0.3614
vn -0.3785 0.2208 -0.8989
vn -0.4344 -0.0001 -0.9007
vn -0.3785 -0.2208 -0.8989
vn -0.8091 -0.4635 -0.3614
vn -0.0000 -0.4342 -0.9008
vn -0.2208 -0.3785 -0.8989
vn -0.4634 -0.8091 -0.3614
vn 0.2208 -0.3785 -0.8989
vn 0.3785 -0.2208 -0.8989
vt -0.244041 0.379658
vt -0.266926 0.379658
vt -0.244041 0.363138
vt -0.266926 0.363138
vt -0.244041 0.340572
vt -0.266926 0.340572
vt -0.244041 0.318006
vt -0.244041 0.301486
vt -0.266926 0.318006
vt -0.266926 0.301486
vt -0.221465 0.340582
vt -0.221465 0.363466
vt -0.244032 0.340582
vt -0.244032 0.363466
vt -0.266598 0.340582
vt -0.266598 0.363466
vt -0.198899 0.340572
vt -0.204946 0.363138
vt -0.216341 0.356559
vt -0.221465 0.379658
vt -0.212057 0.340572
vt -0.228044 0.368263
vt -0.244032 0.385705
vt -0.204946 0.318006
vt -0.216341 0.324585
vt -0.221465 0.301486
vt -0.228044 0.312881
vt -0.244032 0.295439
vt -0.244032 0.372547
vt -0.244032 0.308597
vt -0.276006 0.340572
vt -0.260019 0.312881
vt -0.266598 0.301486
vt -0.271723 0.324585
vt -0.283118 0.318006
vt -0.289164 0.340572
vt -0.271723 0.356559
vt -0.283118 0.363138
vt -0.260019 0.368263
vt -0.266598 0.379658
vt -0.244032 0.436834
vt -0.195901 0.423938
vt -0.292163 0.423938
vt -0.160666 0.388703
vt -0.327398 0.388703
vt -0.147769 0.340572
vt -0.340294 0.340572
vt -0.160666 0.292441
vt -0.327397 0.292441
vt -0.195901 0.257206
vt -0.292163 0.257206
vt -0.244032 0.244310
vt -0.244022 0.363138
vt -0.221138 0.363138
vt -0.244022 0.379658
vt -0.221138 0.340572
vt -0.221138 0.379658
vt -0.244022 0.340572
vt -0.221138 0.318006
vt -0.244022 0.318006
vt -0.221138 0.301486
vt -0.244022 0.301486
vt 0.595307 0.924245
vt 0.595307 1.164900
vt 0.539166 1.164900
vt 0.539166 0.924245
vt 0.595307 0.683589
vt 0.539166 0.683589
vt 0.180064 0.925831
vt 0.356238 0.925831
vt 0.356238 0.981973
vt 0.180064 0.981973
vt 0.596893 0.981973
vt 0.596893 0.925831
vt 0.837550 0.981973
vt 0.837550 0.925831
vt 0.598480 1.341070
vt 0.654621 1.164900
vt 0.654621 1.341070
vt 0.598480 1.164900
vt 0.654621 0.924245
vt 0.598480 0.924245
vt 0.654621 0.683589
vt 0.598480 0.683589
vt 0.654621 0.507417
vt 0.598480 0.507417
vt 0.356237 0.925831
vt 0.356237 0.981973
vt 0.837549 0.981973
vt 0.837549 0.925831
vt 1.013720 0.981973
vt 1.013720 0.925831
vt 0.180064 1.164900
vt 0.175008 0.924245
vt 0.231529 1.135190
vt 0.385951 1.289610
vt 0.356238 1.341070
vt 0.115582 0.924245
vt 0.180064 0.683589
vt 0.596893 1.346130
vt 0.596893 1.405560
vt 0.837550 1.341070
vt 0.807836 1.289610
vt 1.013720 1.164900
vt 0.962258 1.135190
vt 1.018780 0.924245
vt 1.078210 0.924245
vt 0.962258 0.713302
vt 1.013720 0.683589
vt 0.596893 0.502359
vt 0.807836 0.558881
vt 0.837550 0.507417
vt 0.596893 0.442933
vt 0.385951 0.558881
vt 0.356238 0.507417
vt 0.231529 0.713302
s 1
usemtl Screw1Mtl
f 1/1/1 2/2/1 3/3/2
f 3/3/2 2/2/1 4/4/3
f 3/3/2 4/4/3 5/5/4
f 5/5/4 4/4/3 7/6/4
f 7/6/4 9/7/5 5/5/4
f 8/8/6 10/9/7 6/10/8
f 9/7/5 7/6/4 10/9/7
f 10/9/7 8/8/6 9/7/5
f 11/11/9 12/12/10 13/13/11
f 13/13/11 12/12/10 14/14/11
f 13/13/11 14/14/11 15/15/12
f 15/15/12 14/14/11 16/16/13
f 17/17/14 18/18/15 19/19/16
f 20/20/17 19/19/16 18/18/15
f 17/17/14 19/19/16 21/21/18
f 19/19/16 20/20/17 22/22/19
f 22/22/19 21/21/18 19/19/16
f 23/23/20 22/22/19 20/20/17
f 24/24/21 17/17/14 21/21/18
f 21/21/18 25/25/22 24/24/21
f 25/25/22 26/26/23 24/24/21
f 26/26/23 25/25/22 27/27/24
f 21/21/18 27/27/24 25/25/22
f 27/27/24 28/28/25 26/26/23
f 29/29/26 21/21/18 22/22/19
f 22/22/19 23/23/20 29/29/26
f 27/27/24 21/21/18 30/30/27
f 28/28/25 27/27/24 30/30/27
f 21/21/18 29/29/26 31/31/28
f 21/21/18 31/31/28 30/30/27
f 32/32/29 28/28/25 30/30/27
f 28/28/25 32/32/29 33/33/30
f 30/30/27 34/34/31 32/32/29
f 34/34/31 33/33/30 32/32/29
f 30/30/27 31/31/28 34/34/31
f 33/33/30 34/34/31 35/35/32
f 31/31/28 35/35/32 34/34/31
f 35/35/32 31/31/28 36/36/33
f 37/37/34 36/36/33 31/31/28
f 29/29/26 37/37/34 31/31/28
f 36/36/33 37/37/34 38/38/35
f 37/37/34 29/29/26 39/39/36
f 39/39/36 38/38/35 37/37/34
f 39/39/36 29/29/26 23/23/20
f 38/38/35 39/39/36 40/40/37
f 23/23/20 40/40/37 39/39/36
f 41/20/38 42/41/39 43/23/40
f 43/23/40 42/41/39 44/40/41
f 42/41/39 41/20/38 45/42/38
f 42/41/39 46/43/41 44/40/41
f 47/18/42 45/42/38 41/20/38
f 45/42/38 47/18/42 48/44/42
f 46/43/41 49/38/43 44/40/41
f 50/45/43 49/38/43 46/43/41
f 48/44/42 47/18/42 51/46/44
f 52/47/45 49/38/43 50/45/43
f 51/46/44 47/18/42 53/17/46
f 49/38/43 52/47/45 54/36/47
f 55/24/48 51/46/44 53/17/46
f 52/47/45 56/35/49 54/36/47
f 51/46/44 55/24/48 57/48/48
f 56/35/49 52/47/45 58/49/49
f 59/26/50 57/48/48 55/24/48
f 56/35/49 58/49/49 60/33/51
f 57/48/48 59/26/50 61/50/50
f 58/49/49 62/51/51 60/33/51
f 63/28/52 61/50/50 59/26/50
f 62/51/51 63/28/52 60/33/51
f 61/50/50 63/28/52 64/52/52
f 64/52/52 63/28/52 62/51/51
f 65/53/53 66/54/53 67/55/54
f 65/53/53 68/56/55 66/54/53
f 67/55/54 66/54/53 69/57/56
f 68/56/55 65/53/53 70/58/55
f 70/58/55 71/59/57 68/56/55
f 72/60/58 71/59/57 70/58/55
f 72/60/58 73/61/59 71/59/57
f 74/62/59 73/61/59 72/60/58
f 76/15/60 77/14/61 75/16/60
f 78/13/61 77/14/61 76/15/60
f 78/13/61 79/12/62 77/14/61
f 80/11/63 79/12/62 78/13/61
usemtl Light1Mtl.002
f 83/63/64 81/64/65 82/65/3
f 83/63/64 82/65/3 84/66/4
f 85/67/66 83/63/64 84/66/4
f 85/67/66 84/66/4 86/68/67
f 87/69/65 88/70/68 89/71/12
f 87/69/65 89/71/12 90/72/2
f 88/70/68 91/73/11 89/71/12
f 91/73/11 88/70/68 92/74/69
f 92/74/69 93/75/10 91/73/11
f 92/74/69 94/76/70 93/75/10
f 96/77/70 97/78/71 95/79/56
f 96/77/70 98/80/72 97/78/71
f 98/80/72 99/81/55 97/78/71
f 98/80/72 100/82/73 99/81/55
f 100/82/73 101/83/58 99/81/55
f 100/82/73 102/84/74 101/83/58
f 102/84/74 103/85/59 101/83/58
f 103/85/59 102/84/74 104/86/75
f 108/87/75 109/73/61 107/88/60
f 109/73/61 108/87/75 110/74/76
f 110/74/76 111/89/63 109/73/61
f 110/74/76 112/90/77 111/89/63
f 112/90/77 106/91/5 111/89/63
f 112/90/77 105/92/78 106/91/5
f 113/93/79 114/94/80 115/95/81
f 116/96/82 113/93/79 115/95/81
f 114/94/80 116/96/82 115/95/81
f 113/93/79 116/96/82 117/97/83
f 114/94/80 113/93/79 118/98/64
f 118/98/64 119/99/84 114/94/80
f 121/100/85 117/97/83 116/96/82
f 120/101/69 117/97/83 121/100/85
f 114/94/80 121/100/85 116/96/82
f 121/100/85 122/102/86 120/101/69
f 122/102/86 121/100/85 123/103/87
f 123/103/87 124/104/88 122/102/86
f 121/100/85 125/105/89 123/103/87
f 124/104/88 123/103/87 125/105/89
f 125/105/89 121/100/85 126/106/90
f 126/106/90 124/104/88 125/105/89
f 126/106/90 121/100/85 114/94/80
f 124/104/88 126/106/90 127/107/73
f 129/108/91 127/107/73 126/106/90
f 128/109/92 127/107/73 129/108/91
f 126/106/90 130/110/93 129/108/91
f 126/106/90 114/94/80 130/110/93
f 129/108/91 131/111/94 128/109/92
f 129/108/91 130/110/93 131/111/94
f 132/112/95 128/109/92 131/111/94
f 131/111/94 133/113/76 132/112/95
f 133/113/76 131/111/94 130/110/93
f 134/114/96 133/113/76 130/110/93
f 114/94/80 134/114/96 130/110/93
f 133/113/76 134/114/96 135/115/77
f 134/114/96 114/94/80 136/116/97
f 136/116/97 135/115/77 134/114/96
f 136/116/97 114/94/80 119/99/84
f 119/99/84 135/115/77 136/116/97
