# Blender 5.1.2
# www.blender.org
mtllib Keyboard.mtl
o Keyboard
v 1.131025 -0.031305 0.187937
v 1.131025 -0.218225 0.694036
v 1.131025 -0.218225 0.187937
v 1.131025 -0.031305 0.694036
v 1.131025 -0.218225 -0.395063
v 1.131025 -0.031305 -0.395063
v 1.046905 0.070665 -0.395063
v 1.046905 0.121275 0.187937
v 1.131025 -0.031305 0.694036
v 1.046905 0.121275 0.694036
v 0.700288 -0.067715 -0.170563
v 0.700288 0.054485 -0.170563
v 0.710425 0.048495 -0.147764
v 0.710425 -0.061735 -0.147764
v 0.710425 0.048495 -0.147764
v 0.710425 -0.061735 0.270836
v 0.710425 -0.061735 -0.147764
v 0.710425 0.048495 0.270836
v 0.512891 -0.067715 -0.170563
v 0.512891 0.054485 -0.170563
v 0.523026 0.048495 -0.147764
v 0.523026 -0.061735 -0.147764
v 0.523026 0.048495 -0.147764
v 0.523026 -0.061735 0.270836
v 0.523026 -0.061735 -0.147764
v 0.523026 0.048495 0.270836
v 0.316859 -0.067715 -0.170563
v 0.316859 0.054485 -0.170563
v 0.326994 0.048495 -0.147764
v 0.326994 -0.061735 -0.147764
v 0.326994 0.048495 -0.147764
v 0.326994 -0.061735 0.270836
v 0.326994 -0.061735 -0.147764
v 0.326994 0.048495 0.270836
v 0.226452 -0.067715 -0.170563
v 0.226452 0.054485 -0.170563
v 0.236587 0.048495 -0.147764
v 0.236587 -0.061735 -0.147764
v 0.236587 0.048495 -0.147764
v 0.236587 -0.061735 0.270836
v 0.236587 -0.061735 -0.147764
v 0.236587 0.048495 0.270836
v -0.066268 -0.067715 -0.170563
v -0.066268 0.054485 -0.170563
v -0.056133 0.048495 -0.147764
v -0.056133 -0.061735 -0.147764
v -0.056133 0.048495 -0.147764
v -0.056133 -0.061735 0.270836
v -0.056133 -0.061735 -0.147764
v -0.056133 0.048495 0.270836
v -0.350530 -0.067715 -0.170563
v -0.350530 0.054485 -0.170563
v -0.340395 0.048495 -0.147764
v -0.340395 -0.061735 -0.147764
v -0.340395 0.048495 -0.147764
v -0.340395 -0.061735 0.270836
v -0.340395 -0.061735 -0.147764
v -0.340395 0.048495 0.270836
v -0.538753 -0.067715 -0.170563
v -0.538753 0.054485 -0.170563
v -0.528618 0.048495 -0.147764
v -0.528618 -0.061735 -0.147764
v -0.528618 0.048495 -0.147764
v -0.528618 -0.061735 0.270836
v -0.528618 -0.061735 -0.147764
v -0.528618 0.048495 0.270836
v -0.659056 0.070665 -0.395063
v -0.659056 -0.029935 0.187937
v -0.659056 -0.031305 -0.395063
v -0.659056 0.121275 0.187937
v -0.608606 0.054485 -0.170563
v -0.618741 0.048495 0.270836
v -0.608606 0.054485 0.293537
v -0.618741 0.048495 -0.147764
v 0.700288 0.054485 -0.170563
v 0.710425 0.048495 0.270836
v 0.710425 0.048495 -0.147764
v 0.700288 0.054485 0.293537
v -0.420383 0.054485 -0.170563
v -0.430518 0.048495 0.270836
v -0.420383 0.054485 0.293537
v -0.430518 0.048495 -0.147764
v 0.512891 0.054485 -0.170563
v 0.523026 0.048495 0.270836
v 0.523026 0.048495 -0.147764
v 0.512891 0.054485 0.293537
v 0.316859 0.054485 -0.170563
v 0.326994 0.048495 0.270836
v 0.326994 0.048495 -0.147764
v 0.316859 0.054485 0.293537
v -0.136121 0.054485 -0.170563
v -0.146256 0.048495 0.270836
v -0.136121 0.054485 0.293537
v -0.146256 0.048495 -0.147764
v 0.226452 0.054485 -0.170563
v 0.236587 0.048495 0.270836
v 0.236587 0.048495 -0.147764
v 0.226452 0.054485 0.293537
v -0.659056 0.121275 0.694036
v 0.745855 0.121275 0.694036
v -0.659056 0.121275 0.187937
v -0.960109 0.121275 0.187937
v -0.960109 0.121275 0.694036
v -0.659056 0.070665 -0.395063
v -0.960109 0.070665 -0.395063
v 0.745855 0.121275 0.187937
v 1.046905 0.121275 0.187937
v 1.046905 0.121275 0.694036
v 0.745855 0.070665 -0.395063
v 1.046905 0.070665 -0.395063
v 0.630435 0.054485 0.293537
v 0.700288 0.054485 -0.170563
v 0.630435 0.054485 -0.170563
v 0.700288 0.054485 0.293537
v 0.443038 0.054485 0.293537
v 0.512891 0.054485 -0.170563
v 0.443038 0.054485 -0.170563
v 0.512891 0.054485 0.293537
v 0.247006 0.054485 -0.170563
v 0.247006 0.054485 0.293537
v 0.316859 0.054485 -0.170563
v 0.316859 0.054485 0.293537
v 0.156599 0.054485 -0.170563
v 0.156599 0.054485 0.293537
v 0.226452 0.054485 -0.170563
v 0.226452 0.054485 0.293537
v -0.136121 0.054485 0.293537
v -0.066268 0.054485 -0.170563
v -0.136121 0.054485 -0.170563
v -0.066268 0.054485 0.293537
v -0.420383 0.054485 -0.170563
v -0.420383 0.054485 0.293537
v -0.350530 0.054485 -0.170563
v -0.350530 0.054485 0.293537
v -0.608606 0.054485 0.293537
v -0.538753 0.054485 -0.170563
v -0.608606 0.054485 -0.170563
v -0.538753 0.054485 0.293537
v 0.156599 0.054485 -0.170563
v 0.146464 0.048495 0.270836
v 0.156599 0.054485 0.293537
v 0.146464 0.048495 -0.147764
v -0.066268 0.054485 -0.170563
v -0.056133 0.048495 0.270836
v -0.056133 0.048495 -0.147764
v -0.066268 0.054485 0.293537
v -0.659056 -0.029935 0.187937
v 0.745855 -0.029935 0.187937
v -0.659056 -0.031305 -0.395063
v 0.745855 -0.031305 -0.395063
v 0.247006 0.054485 -0.170563
v 0.236871 0.048495 0.270836
v 0.247006 0.054485 0.293537
v 0.236871 0.048495 -0.147764
v 0.443038 0.054485 -0.170563
v 0.432903 0.048495 0.270836
v 0.443038 0.054485 0.293537
v 0.432903 0.048495 -0.147764
v -0.350530 0.054485 -0.170563
v -0.340395 0.048495 0.270836
v -0.340395 0.048495 -0.147764
v -0.350530 0.054485 0.293537
v 0.630435 0.054485 -0.170563
v 0.620300 0.048495 0.270836
v 0.630435 0.054485 0.293537
v 0.620300 0.048495 -0.147764
v -0.538753 0.054485 -0.170563
v -0.528618 0.048495 0.270836
v -0.528618 0.048495 -0.147764
v -0.538753 0.054485 0.293537
v -0.659056 -0.031305 0.706636
v 0.745855 0.121275 0.694036
v -0.659056 0.121275 0.694036
v -0.960109 0.121275 0.694036
v -1.044227 -0.031305 0.694036
v -1.044227 -0.218225 0.694036
v -0.658705 -0.218225 0.706636
v 0.745855 -0.031305 0.706636
v 1.046905 0.121275 0.694036
v 0.745505 -0.218225 0.706636
v 1.131025 -0.031305 0.694036
v 1.131025 -0.218225 0.694036
v -1.044227 -0.031305 0.187937
v -1.044227 -0.218225 0.694036
v -1.044227 -0.031305 0.694036
v -1.044227 -0.218225 0.187937
v -1.044227 -0.031305 -0.395063
v -1.044227 -0.218225 -0.395063
v -0.960109 0.070665 -0.395063
v -0.960109 0.121275 0.187937
v -1.044227 -0.031305 0.694036
v -0.960109 0.121275 0.694036
v -0.608606 0.054485 -0.170563
v -0.608606 -0.067715 -0.170563
v -0.618741 -0.061735 -0.147764
v -0.618741 0.048495 -0.147764
v -0.618741 0.048495 0.270836
v -0.618741 0.048495 -0.147764
v -0.618741 -0.061735 -0.147764
v -0.618741 -0.061735 0.270836
v -0.420383 0.054485 -0.170563
v -0.420383 -0.067715 -0.170563
v -0.430518 -0.061735 -0.147764
v -0.430518 0.048495 -0.147764
v -0.430518 0.048495 0.270836
v -0.430518 0.048495 -0.147764
v -0.430518 -0.061735 -0.147764
v -0.430518 -0.061735 0.270836
v -0.136121 0.054485 -0.170563
v -0.136121 -0.067715 -0.170563
v -0.146256 -0.061735 -0.147764
v -0.146256 0.048495 -0.147764
v -0.146256 0.048495 0.270836
v -0.146256 0.048495 -0.147764
v -0.146256 -0.061735 -0.147764
v -0.146256 -0.061735 0.270836
v 0.156599 0.054485 -0.170563
v 0.156599 -0.067715 -0.170563
v 0.146464 -0.061735 -0.147764
v 0.146464 0.048495 -0.147764
v 0.247006 0.054485 -0.170563
v 0.247006 -0.067715 -0.170563
v 0.236871 -0.061735 -0.147764
v 0.236871 0.048495 -0.147764
v 0.146464 0.048495 0.270836
v 0.146464 0.048495 -0.147764
v 0.146464 -0.061735 -0.147764
v 0.146464 -0.061735 0.270836
v 0.236871 0.048495 0.270836
v 0.236871 0.048495 -0.147764
v 0.236871 -0.061735 -0.147764
v 0.236871 -0.061735 0.270836
v 0.443038 0.054485 -0.170563
v 0.443038 -0.067715 -0.170563
v 0.432903 -0.061735 -0.147764
v 0.432903 0.048495 -0.147764
v 0.432903 0.048495 0.270836
v 0.432903 0.048495 -0.147764
v 0.432903 -0.061735 -0.147764
v 0.432903 -0.061735 0.270836
v 0.630435 0.054485 -0.170563
v 0.630435 -0.067715 -0.170563
v 0.620300 -0.061735 -0.147764
v 0.620300 0.048495 -0.147764
v 0.620300 0.048495 0.270836
v 0.620300 0.048495 -0.147764
v 0.620300 -0.061735 -0.147764
v 0.620300 -0.061735 0.270836
v 0.745855 0.070665 -0.395063
v 0.745855 -0.029935 0.187937
v 0.745855 0.121275 0.187937
v 0.745855 -0.031305 -0.395063
v 0.804745 -0.218225 0.187937
v -0.658705 -0.218225 0.706636
v -0.717939 -0.218225 0.187937
v -1.044227 -0.218225 0.694036
v -1.044227 -0.218225 0.187937
v 0.745505 -0.218225 0.706636
v 1.131025 -0.218225 0.694036
v 1.131025 -0.218225 0.187937
v 0.804745 -0.218225 -0.395063
v -0.717939 -0.218225 0.187937
v -0.717939 -0.218225 -0.395063
v -1.044227 -0.218225 0.187937
v -1.044227 -0.218225 -0.395063
v 0.804745 -0.218225 0.187937
v 1.131025 -0.218225 0.187937
v 1.131025 -0.218225 -0.395063
v -0.717939 -0.218225 -0.395063
v 0.745855 -0.031305 -0.395063
v 0.804745 -0.218225 -0.395063
v 1.131025 -0.031305 -0.395063
v 1.131025 -0.218225 -0.395063
v 1.046905 0.070665 -0.395063
v 0.745855 0.070665 -0.395063
v -0.659056 -0.031305 -0.395063
v -1.044227 -0.031305 -0.395063
v -1.044227 -0.218225 -0.395063
v -0.960109 0.070665 -0.395063
v -0.659056 0.070665 -0.395063
v 0.700288 0.054485 -0.170563
v 0.700288 -0.067715 -0.170563
v 0.630435 0.054485 -0.170563
v 0.630435 -0.067715 -0.170563
v 0.512891 0.054485 -0.170563
v 0.512891 -0.067715 -0.170563
v 0.443038 0.054485 -0.170563
v 0.443038 -0.067715 -0.170563
v 0.316859 0.054485 -0.170563
v 0.316859 -0.067715 -0.170563
v 0.247006 0.054485 -0.170563
v 0.247006 -0.067715 -0.170563
v 0.226452 0.054485 -0.170563
v 0.226452 -0.067715 -0.170563
v 0.156599 0.054485 -0.170563
v 0.156599 -0.067715 -0.170563
v -0.066268 0.054485 -0.170563
v -0.066268 -0.067715 -0.170563
v -0.136121 0.054485 -0.170563
v -0.136121 -0.067715 -0.170563
v -0.350530 0.054485 -0.170563
v -0.350530 -0.067715 -0.170563
v -0.420383 0.054485 -0.170563
v -0.420383 -0.067715 -0.170563
v -0.538753 0.054485 -0.170563
v -0.538753 -0.067715 -0.170563
v -0.608606 0.054485 -0.170563
v -0.608606 -0.067715 -0.170563
v -0.659056 0.121275 0.187937
v 0.745855 0.121275 0.187937
v 0.745855 -0.029935 0.187937
v -0.659056 -0.029935 0.187937
v -0.037528 0.106945 0.404737
v -0.055962 0.161715 0.575336
v -0.037528 0.106945 0.594337
v -0.055962 0.161715 0.423737
v -0.277219 0.161715 0.423437
v -0.252906 0.106945 0.588137
v -0.259453 0.106945 0.404337
v -0.271984 0.161715 0.570337
v -0.473672 0.106945 0.408937
v -0.494647 0.161715 0.574137
v -0.476498 0.106945 0.592836
v -0.492387 0.161715 0.427036
v -0.687718 0.106945 0.406036
v -0.712445 0.161715 0.579636
v -0.694726 0.106945 0.599636
v -0.706842 0.161715 0.424736
v -0.203042 0.161715 0.423737
v -0.203042 0.161715 0.575336
v -0.055962 0.161715 0.423737
v -0.055962 0.161715 0.575336
v -0.424206 0.161715 0.428637
v -0.271984 0.161715 0.570337
v -0.277219 0.161715 0.423437
v -0.418971 0.161715 0.575636
v -0.639449 0.161715 0.424837
v -0.494647 0.161715 0.574137
v -0.492387 0.161715 0.427036
v -0.641709 0.161715 0.571836
v -0.853826 0.161715 0.419437
v -0.859429 0.161715 0.574236
v -0.706842 0.161715 0.424736
v -0.712445 0.161715 0.579636
v -0.694726 0.106945 0.599636
v -0.859429 0.161715 0.574236
v -0.878553 0.106945 0.593037
v -0.712445 0.161715 0.579636
v -0.436737 0.106945 0.594736
v -0.252906 0.106945 0.588137
v -0.271984 0.161715 0.570337
v -0.418971 0.161715 0.575636
v -0.221475 0.106945 0.594337
v -0.037528 0.106945 0.594337
v -0.055962 0.161715 0.575336
v -0.203042 0.161715 0.575336
v -0.476498 0.106945 0.592836
v -0.641709 0.161715 0.571836
v -0.660424 0.106945 0.590036
v -0.494647 0.161715 0.574137
v -0.853826 0.161715 0.419437
v -0.878553 0.106945 0.593037
v -0.859429 0.161715 0.574236
v -0.871545 0.106945 0.399336
v -0.639449 0.161715 0.424837
v -0.660424 0.106945 0.590036
v -0.641709 0.161715 0.571836
v -0.657597 0.106945 0.406137
v -0.418971 0.161715 0.575636
v -0.424206 0.161715 0.428637
v -0.443284 0.106945 0.410837
v -0.436737 0.106945 0.594736
v -0.203042 0.161715 0.575336
v -0.203042 0.161715 0.423737
v -0.221475 0.106945 0.404737
v -0.221475 0.106945 0.594337
v -0.037528 0.106945 0.404737
v -0.221475 0.106945 0.404737
v -0.203042 0.161715 0.423737
v -0.055962 0.161715 0.423737
v -0.657597 0.106945 0.406137
v -0.492387 0.161715 0.427036
v -0.473672 0.106945 0.408937
v -0.639449 0.161715 0.424837
v -0.259453 0.106945 0.404337
v -0.443284 0.106945 0.410837
v -0.424206 0.161715 0.428637
v -0.277219 0.161715 0.423437
v -0.871545 0.106945 0.399336
v -0.706842 0.161715 0.424736
v -0.687718 0.106945 0.406036
v -0.853826 0.161715 0.419437
v 0.281064 0.011245 -0.258863
v 0.281064 -0.173395 -0.258863
v 0.271559 0.023455 -0.294264
v 0.271559 -0.185605 -0.294264
v 0.185999 0.011245 -0.258863
v 0.185999 -0.173395 -0.258863
v 0.176493 0.023455 -0.294264
v 0.176493 -0.185605 -0.294264
v 0.090933 0.011245 -0.258863
v 0.090933 -0.173395 -0.258863
v 0.081428 0.023455 -0.294264
v 0.081428 -0.185605 -0.294264
v -0.004132 0.011245 -0.258863
v -0.004132 -0.173395 -0.258863
v -0.013638 0.023455 -0.294264
v -0.013638 -0.185605 -0.294264
v -0.099198 0.011245 -0.258863
v -0.099198 -0.173395 -0.258863
v -0.108704 0.023455 -0.294264
v -0.108704 -0.185605 -0.294264
v -0.194264 0.011245 -0.258863
v -0.194264 -0.173395 -0.258863
v -0.203769 0.023455 -0.294264
v -0.203769 -0.185605 -0.294264
v -0.289329 0.011245 -0.258863
v -0.289329 -0.173395 -0.258863
v -0.298835 0.023455 -0.294264
v -0.298835 -0.185605 -0.294264
v -0.384395 0.011245 -0.258863
v -0.384395 -0.173395 -0.258863
v -0.393900 0.023455 -0.294264
v -0.393900 -0.185605 -0.294264
v -0.479460 0.011245 -0.258863
v -0.479460 -0.173395 -0.258863
v -0.488966 0.023455 -0.294264
v -0.488966 -0.185605 -0.294264
v -0.574526 0.011245 -0.258863
v -0.574526 -0.173395 -0.258863
v -0.584031 0.023455 -0.294264
v -0.584031 -0.185605 -0.294264
v 0.661327 0.011245 -0.258863
v 0.661327 -0.173395 -0.258863
v 0.651821 0.023455 -0.294264
v 0.651821 -0.185605 -0.294264
v 0.566261 0.011245 -0.258863
v 0.566261 -0.173395 -0.258863
v 0.556756 0.023455 -0.294264
v 0.556756 -0.185605 -0.294264
v 0.471196 0.011245 -0.258863
v 0.471196 -0.173395 -0.258863
v 0.461690 0.023455 -0.294264
v 0.461690 -0.185605 -0.294264
v 0.376130 0.011245 -0.258863
v 0.376130 -0.173395 -0.258863
v 0.366624 0.023455 -0.294264
v 0.366624 -0.185605 -0.294264
v -0.194264 0.011245 -0.258863
v -0.203769 0.023455 0.313236
v -0.194264 0.011245 0.277737
v -0.108704 0.023455 0.313236
v -0.108704 0.023455 -0.294264
v -0.099198 0.011245 -0.258863
v -0.099198 0.011245 0.277737
v -0.013638 0.023455 0.313236
v -0.013638 0.023455 -0.294264
v -0.004132 0.011245 -0.258863
v -0.004132 0.011245 0.277737
v 0.081428 0.023455 0.313236
v 0.081428 0.023455 -0.294264
v 0.090933 0.011245 -0.258863
v 0.090933 0.011245 0.277737
v 0.176493 0.023455 0.313236
v 0.176493 0.023455 -0.294264
v 0.185999 0.011245 -0.258863
v 0.185999 0.011245 0.277737
v 0.271559 0.023455 0.313236
v 0.271559 0.023455 -0.294264
v 0.281064 0.011245 -0.258863
v 0.281064 0.011245 0.277737
v 0.366624 0.023455 0.313236
v 0.366624 0.023455 -0.294264
v 0.376130 0.011245 -0.258863
v 0.376130 0.011245 0.277737
v 0.461690 0.023455 0.313236
v 0.461690 0.023455 -0.294264
v 0.471196 0.011245 -0.258863
v 0.471196 0.011245 0.277737
v 0.556756 0.023455 0.313236
v 0.556756 0.023455 -0.294264
v 0.566261 0.011245 -0.258863
v 0.566261 0.011245 0.277737
v 0.651821 0.023455 0.313236
v 0.651821 0.023455 -0.294264
v 0.661327 0.011245 -0.258863
v 0.661327 0.011245 0.277737
v -0.584031 0.023455 -0.294264
v -0.584031 0.023455 0.313236
v -0.574526 0.011245 -0.258863
v -0.574526 0.011245 0.277737
v -0.488966 0.023455 0.313236
v -0.488966 0.023455 -0.294264
v -0.479460 0.011245 -0.258863
v -0.479460 0.011245 0.277737
v -0.393900 0.023455 0.313236
v -0.393900 0.023455 -0.294264
v -0.384395 0.011245 -0.258863
v -0.384395 0.011245 0.277737
v -0.298835 0.023455 0.313236
v -0.298835 0.023455 -0.294264
v -0.289329 0.011245 -0.258863
v -0.289329 0.011245 0.277737
v -0.203769 0.023455 -0.294264
v -0.203769 0.023455 0.313236
v -0.184758 0.023455 -0.294264
v -0.184758 0.023455 0.313236
v -0.108704 0.023455 0.313236
v -0.108704 0.023455 -0.294264
v -0.089692 0.023455 -0.294264
v -0.089692 0.023455 0.313236
v -0.013638 0.023455 0.313236
v -0.013638 0.023455 -0.294264
v 0.005373 0.023455 -0.294264
v 0.005373 0.023455 0.313236
v 0.081428 0.023455 0.313236
v 0.081428 0.023455 -0.294264
v 0.100439 0.023455 -0.294264
v 0.100439 0.023455 0.313236
v 0.176493 0.023455 0.313236
v 0.176493 0.023455 -0.294264
v 0.195505 0.023455 -0.294264
v 0.195505 0.023455 0.313236
v 0.271559 0.023455 0.313236
v 0.271559 0.023455 -0.294264
v 0.290570 0.023455 -0.294264
v 0.290570 0.023455 0.313236
v 0.366624 0.023455 0.313236
v 0.366624 0.023455 -0.294264
v 0.385636 0.023455 -0.294264
v 0.385636 0.023455 0.313236
v 0.461690 0.023455 0.313236
v 0.461690 0.023455 -0.294264
v 0.480701 0.023455 -0.294264
v 0.480701 0.023455 0.313236
v 0.556756 0.023455 0.313236
v 0.556756 0.023455 -0.294264
v 0.575767 0.023455 -0.294264
v 0.575767 0.023455 0.313236
v 0.651821 0.023455 0.313236
v 0.651821 0.023455 -0.294264
v 0.670832 0.023455 -0.294264
v 0.670832 0.023455 0.313236
v 0.756395 0.023455 -0.294264
v 0.756395 0.023455 0.313236
v -0.584031 0.023455 -0.294264
v -0.584031 0.023455 0.313236
v -0.669591 0.023455 -0.294264
v -0.669591 0.023455 0.313236
v -0.565020 0.023455 -0.294264
v -0.565020 0.023455 0.313236
v -0.488966 0.023455 0.313236
v -0.488966 0.023455 -0.294264
v -0.469955 0.023455 -0.294264
v -0.469955 0.023455 0.313236
v -0.393900 0.023455 0.313236
v -0.393900 0.023455 -0.294264
v -0.374889 0.023455 -0.294264
v -0.374889 0.023455 0.313236
v -0.298835 0.023455 0.313236
v -0.298835 0.023455 -0.294264
v -0.279823 0.023455 -0.294264
v -0.279823 0.023455 0.313236
v -0.203769 0.023455 -0.294264
v 0.281064 0.011245 -0.258863
v 0.290570 -0.185605 -0.294264
v 0.281064 -0.173395 -0.258863
v 0.195505 -0.185605 -0.294264
v 0.195505 0.023455 -0.294264
v 0.185999 0.011245 -0.258863
v 0.185999 -0.173395 -0.258863
v 0.100439 -0.185605 -0.294264
v 0.100439 0.023455 -0.294264
v 0.090933 0.011245 -0.258863
v 0.090933 -0.173395 -0.258863
v 0.005373 -0.185605 -0.294264
v 0.005373 0.023455 -0.294264
v -0.004132 0.011245 -0.258863
v -0.004132 -0.173395 -0.258863
v -0.089692 -0.185605 -0.294264
v -0.089692 0.023455 -0.294264
v -0.099198 0.011245 -0.258863
v -0.099198 -0.173395 -0.258863
v -0.184758 -0.185605 -0.294264
v -0.184758 0.023455 -0.294264
v -0.194264 0.011245 -0.258863
v -0.194264 -0.173395 -0.258863
v -0.279823 -0.185605 -0.294264
v -0.279823 0.023455 -0.294264
v -0.289329 0.011245 -0.258863
v -0.289329 -0.173395 -0.258863
v -0.374889 -0.185605 -0.294264
v -0.374889 0.023455 -0.294264
v -0.384395 0.011245 -0.258863
v -0.384395 -0.173395 -0.258863
v -0.469955 -0.185605 -0.294264
v -0.469955 0.023455 -0.294264
v -0.479460 0.011245 -0.258863
v -0.479460 -0.173395 -0.258863
v -0.565020 -0.185605 -0.294264
v -0.565020 0.023455 -0.294264
v -0.574526 0.011245 -0.258863
v -0.574526 -0.173395 -0.258863
v 0.670832 0.023455 -0.294264
v 0.670832 -0.185605 -0.294264
v 0.661327 0.011245 -0.258863
v 0.661327 -0.173395 -0.258863
v 0.575767 -0.185605 -0.294264
v 0.575767 0.023455 -0.294264
v 0.566261 0.011245 -0.258863
v 0.566261 -0.173395 -0.258863
v 0.480701 -0.185605 -0.294264
v 0.480701 0.023455 -0.294264
v 0.471196 0.011245 -0.258863
v 0.471196 -0.173395 -0.258863
v 0.385636 -0.185605 -0.294264
v 0.385636 0.023455 -0.294264
v 0.376130 0.011245 -0.258863
v 0.376130 -0.173395 -0.258863
v 0.290570 0.023455 -0.294264
v -0.194264 0.011245 -0.258863
v -0.194264 0.011245 0.277737
v -0.184758 0.023455 -0.294264
v -0.184758 0.023455 0.313236
v -0.099198 0.011245 -0.258863
v -0.099198 0.011245 0.277737
v -0.089692 0.023455 -0.294264
v -0.089692 0.023455 0.313236
v -0.004132 0.011245 -0.258863
v -0.004132 0.011245 0.277737
v 0.005373 0.023455 -0.294264
v 0.005373 0.023455 0.313236
v 0.090933 0.011245 -0.258863
v 0.090933 0.011245 0.277737
v 0.100439 0.023455 -0.294264
v 0.100439 0.023455 0.313236
v 0.185999 0.011245 -0.258863
v 0.185999 0.011245 0.277737
v 0.195505 0.023455 -0.294264
v 0.195505 0.023455 0.313236
v 0.281064 0.011245 -0.258863
v 0.281064 0.011245 0.277737
v 0.290570 0.023455 -0.294264
v 0.290570 0.023455 0.313236
v 0.376130 0.011245 -0.258863
v 0.376130 0.011245 0.277737
v 0.385636 0.023455 -0.294264
v 0.385636 0.023455 0.313236
v 0.471196 0.011245 -0.258863
v 0.471196 0.011245 0.277737
v 0.480701 0.023455 -0.294264
v 0.480701 0.023455 0.313236
v 0.566261 0.011245 -0.258863
v 0.566261 0.011245 0.277737
v 0.575767 0.023455 -0.294264
v 0.575767 0.023455 0.313236
v 0.661327 0.011245 -0.258863
v 0.661327 0.011245 0.277737
v 0.670832 0.023455 -0.294264
v 0.670832 0.023455 0.313236
v -0.574526 0.011245 -0.258863
v -0.574526 0.011245 0.277737
v -0.565020 0.023455 -0.294264
v -0.565020 0.023455 0.313236
v -0.479460 0.011245 -0.258863
v -0.479460 0.011245 0.277737
v -0.469955 0.023455 -0.294264
v -0.469955 0.023455 0.313236
v -0.384395 0.011245 -0.258863
v -0.384395 0.011245 0.277737
v -0.374889 0.023455 -0.294264
v -0.374889 0.023455 0.313236
v -0.289329 0.011245 -0.258863
v -0.289329 0.011245 0.277737
v -0.279823 0.023455 -0.294264
v -0.279823 0.023455 0.313236
v 0.290570 -0.185605 -0.294264
v 0.271559 0.023455 -0.294264
v 0.271559 -0.185605 -0.294264
v 0.195505 -0.185605 -0.294264
v 0.195505 0.023455 -0.294264
v 0.176493 0.023455 -0.294264
v 0.176493 -0.185605 -0.294264
v 0.100439 -0.185605 -0.294264
v 0.100439 0.023455 -0.294264
v 0.081428 0.023455 -0.294264
v 0.081428 -0.185605 -0.294264
v 0.005373 -0.185605 -0.294264
v 0.005373 0.023455 -0.294264
v -0.013638 0.023455 -0.294264
v -0.013638 -0.185605 -0.294264
v -0.089692 -0.185605 -0.294264
v -0.089692 0.023455 -0.294264
v -0.108704 0.023455 -0.294264
v -0.108704 -0.185605 -0.294264
v -0.184758 -0.185605 -0.294264
v -0.184758 0.023455 -0.294264
v -0.203769 0.023455 -0.294264
v -0.203769 -0.185605 -0.294264
v -0.279823 -0.185605 -0.294264
v -0.279823 0.023455 -0.294264
v -0.298835 0.023455 -0.294264
v -0.298835 -0.185605 -0.294264
v -0.374889 -0.185605 -0.294264
v -0.374889 0.023455 -0.294264
v -0.393900 0.023455 -0.294264
v -0.393900 -0.185605 -0.294264
v -0.469955 -0.185605 -0.294264
v -0.469955 0.023455 -0.294264
v -0.488966 0.023455 -0.294264
v -0.488966 -0.185605 -0.294264
v -0.565020 -0.185605 -0.294264
v -0.565020 0.023455 -0.294264
v -0.584031 0.023455 -0.294264
v -0.584031 -0.185605 -0.294264
v -0.669591 -0.185605 -0.294264
v -0.669591 0.023455 -0.294264
v 0.756395 0.023455 -0.294264
v 0.756395 -0.185605 -0.294264
v 0.670832 0.023455 -0.294264
v 0.670832 -0.185605 -0.294264
v 0.651821 0.023455 -0.294264
v 0.651821 -0.185605 -0.294264
v 0.575767 -0.185605 -0.294264
v 0.575767 0.023455 -0.294264
v 0.556756 0.023455 -0.294264
v 0.556756 -0.185605 -0.294264
v 0.480701 -0.185605 -0.294264
v 0.480701 0.023455 -0.294264
v 0.461690 0.023455 -0.294264
v 0.461690 -0.185605 -0.294264
v 0.385636 -0.185605 -0.294264
v 0.385636 0.023455 -0.294264
v 0.366624 0.023455 -0.294264
v 0.366624 -0.185605 -0.294264
v 0.290570 0.023455 -0.294264
vn 0.9677 0.2518 -0.0079
vn 1.0000 -0.0000 -0.0000
vn 0.9697 0.2443 -0.0000
vn 0.9658 0.2592 -0.0078
vn 0.8342 0.5509 -0.0236
vn 0.8554 0.5179 -0.0078
vn 0.9697 0.2445 -0.0000
vn 0.8764 0.4815 -0.0000
vn 0.9125 -0.0000 -0.4090
vn 0.9125 -0.0000 -0.4091
vn -0.5121 0.8589 -0.0000
vn -0.5122 0.8589 -0.0000
vn 0.5122 0.8589 -0.0000
vn 0.5121 0.8589 -0.0000
vn -0.0000 1.0000 -0.0000
vn -0.0000 0.9999 -0.0158
vn -0.0000 0.9989 -0.0472
vn -0.0000 0.9963 -0.0860
vn -0.0000 0.9963 -0.0865
vn -0.0000 0.9999 -0.0157
vn -0.0079 0.0315 0.9995
vn -0.0000 0.0785 0.9969
vn -0.0157 0.0472 0.9988
vn -0.0315 0.0157 0.9994
vn -0.0315 -0.0000 0.9995
vn -0.0079 -0.0000 1.0000
vn 0.0079 0.0315 0.9995
vn 0.0157 0.0472 0.9988
vn 0.0079 -0.0000 1.0000
vn 0.0315 0.0157 0.9994
vn 0.0314 -0.0000 0.9995
vn -0.9678 0.2518 -0.0079
vn -1.0000 -0.0000 -0.0000
vn -0.9697 0.2443 -0.0000
vn -0.9658 0.2592 -0.0078
vn -0.8342 0.5509 -0.0236
vn -0.8554 0.5179 -0.0078
vn -0.9697 0.2444 -0.0000
vn -0.8764 0.4817 -0.0000
vn -0.9125 -0.0000 -0.4090
vn -0.9125 -0.0000 -0.4091
vn -0.0000 -1.0000 -0.0000
vn -0.0000 -0.0000 -1.0000
vn 0.9463 0.3233 -0.0000
vn 0.9458 0.3231 -0.0315
vn 0.9458 0.3232 -0.0315
vn 0.9462 0.3233 0.0158
vn 0.9458 0.3231 0.0315
vn 0.9458 0.3232 0.0315
vn -0.0314 0.3302 0.9434
vn -0.0315 0.3302 0.9434
vn 0.0315 0.3232 0.9458
vn -0.0000 0.3303 0.9439
vn -0.0000 0.3304 0.9438
vn -0.0158 0.3233 0.9462
vn -0.9458 0.3232 -0.0315
vn -0.9458 0.3231 -0.0315
vn -0.9462 0.3233 -0.0158
vn -0.9458 0.3231 0.0315
vn -0.9458 0.3232 0.0315
vn -0.9463 0.3233 -0.0000
vn -0.0000 0.3304 -0.9439
vn 0.0158 0.3233 -0.9462
vn -0.0315 0.3232 -0.9458
vn -0.0315 0.3231 -0.9458
vn 0.0315 0.3302 -0.9434
vn 0.0314 0.3302 -0.9434
vn 0.2052 -0.0000 -0.9787
vn 0.2053 -0.0001 -0.9787
vn 0.2053 -0.0000 -0.9787
vn 0.2052 -0.0001 -0.9787
vn 0.1810 -0.0000 -0.9835
vn 0.1810 -0.0001 -0.9835
vn -0.0000 1.0000 -0.0001
vn 0.0707 0.9975 0.0001
vn 0.0706 0.9975 -0.0000
vn 0.0706 0.9975 0.0001
vn 0.0628 0.9980 -0.0000
vn 0.0628 0.9980 0.0001
vn 0.0707 0.9975 -0.0000
vn -0.0707 0.9975 -0.0000
vn -0.0629 0.9980 -0.0000
vn 0.0629 0.9980 -0.0000
vn -0.2052 -0.0000 -0.9787
vn -0.2052 0.0001 -0.9787
vn -0.2053 0.0001 -0.9787
vn -0.2053 -0.0000 -0.9787
vn -0.1810 0.0001 -0.9835
vn -0.1810 -0.0000 -0.9835
vn -0.0000 1.0000 0.0001
vn -0.0706 0.9975 -0.0000
vn -0.0628 0.9980 -0.0000
vn 0.1809 -0.0000 -0.9835
vn -0.1809 -0.0000 -0.9835
vt 1.024950 1.282760
vt 0.367032 1.039770
vt 1.024950 1.039770
vt 0.367032 1.282760
vt 1.782820 1.039770
vt 1.782820 1.282760
vt 1.782820 1.415330
vt 1.024950 1.481120
vt 0.367032 1.481120
vt 1.491000 1.235430
vt 1.491000 1.394290
vt 1.461450 1.386510
vt 1.461450 1.243210
vt 0.917235 1.243210
vt 0.917235 1.386510
vt 1.024950 1.284540
vt 1.914360 0.836195
vt 1.927540 1.409960
vt 1.914360 1.439520
vt 1.927540 0.865752
vt 0.212798 0.836195
vt 0.199623 1.409960
vt 0.199623 0.865752
vt 0.212798 1.439520
vt 1.669670 0.836195
vt 1.682850 1.409960
vt 1.669670 1.439520
vt 1.682850 0.865752
vt 0.456414 0.836195
vt 0.443239 1.409960
vt 0.443239 0.865752
vt 0.456414 1.439520
vt 0.711256 0.836195
vt 0.698080 1.409960
vt 0.698080 0.865752
vt 0.711256 1.439520
vt 1.300130 0.836195
vt 1.313310 1.409960
vt 1.300130 1.439520
vt 1.313310 0.865752
vt 0.828785 0.836195
vt 0.815610 1.409960
vt 0.815610 0.865752
vt 0.828785 1.439520
vt 1.979950 1.960170
vt 0.153559 1.960170
vt 1.979950 1.302250
vt 2.371310 1.302250
vt 2.371310 1.960170
vt 1.979950 0.544376
vt 2.371310 0.544376
vt 0.153559 1.302250
vt -0.237810 1.302250
vt -0.237810 1.960170
vt 0.153559 0.544376
vt -0.237810 0.544376
vt 0.303607 1.439520
vt 0.303607 0.836195
vt 0.547223 1.439520
vt 0.547223 0.836195
vt 0.802065 0.836195
vt 0.802065 1.439520
vt 0.919594 0.836195
vt 0.919594 1.439520
vt 1.209320 0.836195
vt 1.209320 1.439520
vt 1.578860 0.836195
vt 1.578860 1.439520
vt 1.823550 0.836195
vt 1.823550 1.439520
vt 0.932770 1.409960
vt 0.932770 0.865752
vt 1.196140 1.409960
vt 1.196140 0.865752
vt 0.815241 1.409960
vt 0.815241 0.865752
vt 0.560399 1.409960
vt 0.560399 0.865752
vt 1.565690 1.409960
vt 1.565690 0.865752
vt 0.316783 1.409960
vt 0.316783 0.865752
vt 1.810380 1.409960
vt 1.810380 0.865752
vt 0.153559 1.282760
vt 1.979950 1.481120
vt 0.153559 1.481120
vt -0.237810 1.481120
vt -0.347164 1.282760
vt -0.347164 1.039770
vt 0.154015 1.039770
vt 1.979950 1.282760
vt 2.371310 1.481120
vt 1.979490 1.039770
vt 2.480670 1.282760
vt 2.480670 1.039770
vt 1.108550 1.282760
vt 1.766470 1.039770
vt 1.766470 1.282760
vt 1.108550 1.039770
vt 0.350682 1.282760
vt 0.350682 1.039770
vt 0.350682 1.415330
vt 1.108550 1.481120
vt 1.766470 1.481120
vt 0.642501 1.394290
vt 0.642501 1.235430
vt 0.672058 1.243210
vt 0.672058 1.386510
vt 1.216270 1.386510
vt 1.216270 1.243210
vt 1.108550 1.284540
vt 2.056490 1.302250
vt 0.154015 1.976520
vt 0.077011 1.302250
vt -0.347164 1.960170
vt -0.347164 1.302250
vt 1.979490 1.976520
vt 2.480670 1.960170
vt 2.480670 1.302250
vt 2.056490 0.544376
vt 0.077011 0.544376
vt -0.347164 0.544376
vt 2.480670 0.544376
vt 2.056490 1.039770
vt 0.077011 1.039770
vt -0.237810 1.415330
vt 0.153559 1.415330
vt 2.371310 1.415330
vt 1.979950 1.415330
vt 0.212798 1.394290
vt 0.212798 1.235430
vt 0.303607 1.394290
vt 0.303607 1.235430
vt 0.456414 1.394290
vt 0.456414 1.235430
vt 0.547223 1.394290
vt 0.547223 1.235430
vt 0.711256 1.394290
vt 0.711256 1.235430
vt 0.802065 1.394290
vt 0.802065 1.235430
vt 0.828785 1.394290
vt 0.828785 1.235430
vt 0.919594 1.394290
vt 0.919594 1.235430
vt 1.209320 1.394290
vt 1.209320 1.235430
vt 1.300130 1.394290
vt 1.300130 1.235430
vt 1.578860 1.394290
vt 1.578860 1.235430
vt 1.669670 1.394290
vt 1.669670 1.235430
vt 1.823550 1.394290
vt 1.823550 1.235430
vt 1.914360 1.394290
vt 1.914360 1.235430
vt 0.153559 1.284540
vt 1.979950 1.284540
vt 0.286526 0.575585
vt 0.064713 0.646789
vt 0.040009 0.575585
vt 0.261822 0.646789
vt 0.262211 0.646789
vt 0.048033 0.575585
vt 0.287013 0.575585
vt 0.071129 0.646789
vt 0.281032 0.575585
vt 0.066258 0.646789
vt 0.041929 0.575585
vt 0.257439 0.646789
vt 0.284834 0.575585
vt 0.059153 0.646789
vt 0.033055 0.575585
vt 0.260469 0.646789
vt -0.168231 0.512633
vt -0.168231 0.709742
vt -0.359434 0.512633
vt -0.359434 0.709742
vt 0.119282 0.519049
vt -0.078605 0.703326
vt -0.071800 0.512244
vt 0.112477 0.710131
vt 0.399098 0.514078
vt 0.210856 0.708197
vt 0.207917 0.517016
vt 0.402037 0.705258
vt 0.677788 0.507072
vt 0.685072 0.708389
vt 0.486710 0.513986
vt 0.493994 0.715302
vt -0.144423 0.575585
vt -0.358537 0.646789
vt -0.383398 0.575585
vt -0.167459 0.646789
vt 0.190963 0.575585
vt 0.429942 0.575585
vt 0.405141 0.646789
vt 0.214058 0.646789
vt 0.470802 0.575585
vt 0.709933 0.575585
vt 0.685969 0.646789
vt 0.494766 0.646789
vt 0.139272 0.575585
vt -0.075501 0.646789
vt -0.099831 0.575585
vt 0.115679 0.646789
vt 0.066158 0.646789
vt 0.280932 0.575585
vt 0.257339 0.646789
vt 0.041829 0.575585
vt -0.144267 0.575585
vt -0.168231 0.646789
vt -0.359434 0.646789
vt 0.422691 0.575585
vt 0.207917 0.646789
vt 0.183588 0.575585
vt 0.399098 0.646789
vt -0.094896 0.575585
vt 0.144084 0.575585
vt 0.119282 0.646789
vt -0.071800 0.646789
vt 0.700824 0.575585
vt 0.486710 0.646789
vt 0.461849 0.575585
vt 0.677788 0.646789
vt 1.046730 0.127178
vt 1.082190 0.324027
vt 1.046730 0.311823
vt 1.082190 0.114974
vt 0.474706 0.324027
vt 0.510171 0.311823
vt 0.930554 0.523244
vt 1.006610 -0.084243
vt 1.006610 0.523244
vt 0.930554 -0.084243
vt 0.835488 0.523244
vt 0.911542 -0.084243
vt 0.911542 0.523244
vt 0.835488 -0.084243
vt 0.740422 0.523244
vt 0.816477 -0.084243
vt 0.816477 0.523244
vt 0.740422 -0.084243
vt 0.645357 0.523244
vt 0.721411 -0.084243
vt 0.721411 0.523244
vt 0.645357 -0.084243
vt 0.550291 0.523244
vt 0.626346 -0.084243
vt 0.626346 0.523244
vt 0.550291 -0.084243
vt 0.455226 0.523244
vt 0.531280 -0.084243
vt 0.531280 0.523244
vt 0.455226 -0.084243
vt 0.360160 0.523244
vt 0.436215 -0.084243
vt 0.436215 0.523244
vt 0.360160 -0.084243
vt 0.265095 0.523244
vt 0.341149 -0.084243
vt 0.341149 0.523244
vt 0.265095 -0.084243
vt 0.170029 0.523244
vt 0.246083 -0.084243
vt 0.246083 0.523244
vt 0.170029 -0.084243
vt 0.151018 -0.084243
vt 0.151018 0.523244
vt 0.065458 -0.084243
vt 0.065458 0.523244
vt 1.491440 -0.084243
vt 1.405880 0.523244
vt 1.405880 -0.084243
vt 1.491440 0.523244
vt 1.310820 0.523244
vt 1.386870 -0.084243
vt 1.386870 0.523244
vt 1.310820 -0.084243
vt 1.215750 0.523244
vt 1.291800 -0.084243
vt 1.291800 0.523244
vt 1.215750 -0.084243
vt 1.120680 0.523244
vt 1.196740 -0.084243
vt 1.196740 0.523244
vt 1.120680 -0.084243
vt 1.025620 0.523244
vt 1.101670 -0.084243
vt 1.101670 0.523244
vt 1.025620 -0.084243
vt 0.474706 0.114974
vt 0.510171 0.127178
vt 0.550291 0.324027
vt 0.550291 0.114974
vt 0.626346 0.114974
vt 0.626346 0.324027
vt 0.645357 0.324027
vt 0.645357 0.114974
vt 0.721411 0.114974
vt 0.721411 0.324027
vt 0.740422 0.324027
vt 0.740422 0.114974
vt 0.816477 0.114974
vt 0.816477 0.324027
vt 0.835488 0.324027
vt 0.835488 0.114974
vt 0.911542 0.114974
vt 0.911542 0.324027
vt 0.930554 0.324027
vt 0.930554 0.114974
vt 1.006610 0.114974
vt 1.006610 0.324027
vt 1.025620 0.324027
vt 1.025620 0.114974
vt 1.101670 0.114974
vt 1.101670 0.324027
vt 1.120680 0.324027
vt 1.120680 0.114974
vt 1.196740 0.114974
vt 1.196740 0.324027
vt 1.215750 0.324027
vt 1.215750 0.114974
vt 1.291800 0.114974
vt 1.291800 0.324027
vt 1.310820 0.324027
vt 1.310820 0.114974
vt 1.386870 0.114974
vt 1.386870 0.324027
vt 1.405880 0.324027
vt 1.405880 0.114974
vt 1.491440 0.114974
vt 1.491440 0.324027
vt 0.065458 0.324027
vt 0.065458 0.114974
vt 0.151018 0.324027
vt 0.151018 0.114974
vt 0.170029 0.324027
vt 0.170029 0.114974
vt 0.246083 0.114974
vt 0.246083 0.324027
vt 0.265095 0.324027
vt 0.265095 0.114974
vt 0.341149 0.114974
vt 0.341149 0.324027
vt 0.360160 0.324027
vt 0.360160 0.114974
vt 0.436215 0.114974
vt 0.436215 0.324027
vt 0.455226 0.324027
vt 0.455226 0.114974
vt 0.531280 0.114974
vt 0.531280 0.324027
s 1
usemtl Handle1Mtl.028
f 1/1/1 2/2/2 3/3/2
f 2/2/2 1/1/1 4/4/3
f 5/5/2 1/1/1 3/3/2
f 6/6/4 1/1/1 5/5/2
f 7/7/5 1/1/1 6/6/4
f 1/1/1 7/7/5 8/8/6
f 8/8/6 9/4/7 1/1/1
f 9/4/7 8/8/6 10/9/8
f 11/10/9 12/11/10 13/12/10
f 11/10/9 13/12/10 14/13/9
f 15/12/2 16/14/2 17/13/2
f 16/14/2 15/12/2 18/15/2
f 19/10/9 20/11/9 21/12/9
f 19/10/9 21/12/9 22/13/10
f 23/12/2 24/14/2 25/13/2
f 24/14/2 23/12/2 26/15/2
f 27/10/9 28/11/9 29/12/9
f 27/10/9 29/12/9 30/13/10
f 31/12/2 32/14/2 33/13/2
f 32/14/2 31/12/2 34/15/2
f 35/10/9 36/11/9 37/12/9
f 35/10/9 37/12/9 38/13/10
f 39/12/2 40/14/2 41/13/2
f 40/14/2 39/12/2 42/15/2
f 43/10/9 44/11/9 45/12/9
f 43/10/9 45/12/9 46/13/10
f 47/12/2 48/14/2 49/13/2
f 48/14/2 47/12/2 50/15/2
f 51/10/9 52/11/9 53/12/9
f 51/10/9 53/12/9 54/13/10
f 55/12/2 56/14/2 57/13/2
f 56/14/2 55/12/2 58/15/2
f 59/10/10 60/11/9 61/12/9
f 59/10/10 61/12/9 62/13/10
f 63/12/2 64/14/2 65/13/2
f 64/14/2 63/12/2 66/15/2
f 67/7/2 68/16/2 69/6/2
f 68/16/2 67/7/2 70/8/2
f 71/17/11 72/18/11 73/19/11
f 72/18/11 71/17/11 74/20/12
f 75/21/13 76/22/13 77/23/13
f 75/21/13 78/24/14 76/22/13
f 79/25/12 80/26/11 81/27/11
f 80/26/11 79/25/12 82/28/11
f 83/29/13 84/30/14 85/31/14
f 83/29/13 86/32/13 84/30/14
f 87/33/14 88/34/14 89/35/14
f 87/33/14 90/36/13 88/34/14
f 91/37/11 92/38/12 93/39/11
f 92/38/12 91/37/11 94/40/12
f 95/41/14 96/42/13 97/43/14
f 95/41/14 98/44/14 96/42/13
f 99/45/15 100/46/15 101/47/16
f 102/48/17 99/45/15 101/47/16
f 99/45/15 102/48/17 103/49/15
f 104/50/18 102/48/17 101/47/16
f 105/51/19 102/48/17 104/50/18
f 106/52/20 101/47/16 100/46/15
f 100/46/15 107/53/17 106/52/20
f 107/53/17 100/46/15 108/54/15
f 109/55/19 106/52/20 107/53/17
f 107/53/17 110/56/19 109/55/19
f 111/57/15 112/21/15 113/58/15
f 112/21/15 111/57/15 114/24/15
f 115/59/15 116/29/15 117/60/15
f 116/29/15 115/59/15 118/32/15
f 119/61/15 120/62/15 121/33/15
f 121/33/15 120/62/15 122/36/15
f 123/63/15 124/64/15 125/41/15
f 125/41/15 124/64/15 126/44/15
f 127/39/15 128/65/15 129/37/15
f 128/65/15 127/39/15 130/66/15
f 131/25/15 132/27/15 133/67/15
f 133/67/15 132/27/15 134/68/15
f 135/19/15 136/69/15 137/17/15
f 136/69/15 135/19/15 138/70/15
f 139/63/12 140/71/11 141/64/11
f 140/71/11 139/63/12 142/72/11
f 143/65/14 144/73/14 145/74/14
f 143/65/14 146/66/14 144/73/14
f 147/47/15 148/52/15 149/50/15
f 150/55/15 149/50/15 148/52/15
f 151/61/12 152/75/11 153/62/11
f 152/75/11 151/61/12 154/76/12
f 155/60/11 156/77/12 157/59/12
f 156/77/12 155/60/11 158/78/11
f 159/67/13 160/79/13 161/80/13
f 159/67/13 162/68/13 160/79/13
f 163/58/12 164/81/12 165/57/12
f 164/81/12 163/58/12 166/82/12
f 167/69/14 168/83/13 169/84/14
f 167/69/14 170/70/13 168/83/13
f 171/85/21 172/86/22 173/87/22
f 174/88/23 171/85/21 173/87/22
f 171/85/21 174/88/23 175/89/24
f 176/90/25 171/85/21 175/89/24
f 171/85/21 176/90/25 177/91/26
f 172/86/22 171/85/21 178/92/27
f 177/91/26 178/92/27 171/85/21
f 178/92/27 179/93/28 172/86/22
f 177/91/26 180/94/29 178/92/27
f 179/93/28 178/92/27 181/95/30
f 182/96/31 178/92/27 180/94/29
f 178/92/27 182/96/31 181/95/30
f 183/97/32 184/98/33 185/99/34
f 184/98/33 183/97/32 186/100/33
f 187/101/35 186/100/33 183/97/32
f 188/102/33 186/100/33 187/101/35
f 183/97/32 189/103/36 187/101/35
f 189/103/36 183/97/32 190/104/37
f 191/99/38 190/104/37 183/97/32
f 190/104/37 191/99/38 192/105/39
f 193/106/40 194/107/40 195/108/40
f 193/106/40 195/108/40 196/109/40
f 197/110/33 198/109/33 199/108/33
f 199/108/33 200/111/33 197/110/33
f 201/106/40 202/107/40 203/108/40
f 201/106/40 203/108/40 204/109/40
f 205/110/33 206/109/33 207/108/33
f 207/108/33 208/111/33 205/110/33
f 209/106/40 210/107/40 211/108/40
f 209/106/40 211/108/40 212/109/40
f 213/110/33 214/109/33 215/108/33
f 215/108/33 216/111/33 213/110/33
f 217/106/40 218/107/40 219/108/41
f 217/106/40 219/108/41 220/109/40
f 221/106/40 222/107/41 223/108/40
f 221/106/40 223/108/40 224/109/40
f 225/110/33 226/109/33 227/108/33
f 227/108/33 228/111/33 225/110/33
f 229/110/33 230/109/33 231/108/33
f 231/108/33 232/111/33 229/110/33
f 233/106/40 234/107/40 235/108/40
f 233/106/40 235/108/40 236/109/40
f 237/110/33 238/109/33 239/108/33
f 239/108/33 240/111/33 237/110/33
f 241/106/40 242/107/40 243/108/40
f 241/106/40 243/108/40 244/109/40
f 245/110/33 246/109/33 247/108/33
f 247/108/33 248/111/33 245/110/33
f 249/103/33 250/112/33 251/104/33
f 250/112/33 249/103/33 252/101/33
f 253/113/42 254/114/42 255/115/42
f 255/115/42 254/114/42 256/116/42
f 257/117/42 255/115/42 256/116/42
f 254/114/42 253/113/42 258/118/42
f 253/113/42 259/119/42 258/118/42
f 253/113/42 260/120/42 259/119/42
f 261/121/42 262/115/42 263/122/42
f 263/122/42 262/115/42 264/117/42
f 264/117/42 265/123/42 263/122/42
f 262/115/42 261/121/42 266/113/42
f 261/121/42 267/120/42 266/113/42
f 268/124/42 267/120/42 261/121/42
f 269/125/43 270/85/43 271/126/43
f 272/89/43 271/126/43 270/85/43
f 271/126/43 272/89/43 273/90/43
f 270/85/43 274/127/43 272/89/43
f 274/127/43 270/85/43 275/128/43
f 270/85/43 269/125/43 276/92/43
f 269/125/43 277/95/43 276/92/43
f 277/95/43 269/125/43 278/96/43
f 276/92/43 277/95/43 279/129/43
f 279/129/43 280/130/43 276/92/43
f 281/131/43 282/132/43 283/133/43
f 283/133/43 282/132/43 284/134/43
f 285/135/43 286/136/43 287/137/43
f 287/137/43 286/136/43 288/138/43
f 289/139/43 290/140/43 291/141/43
f 291/141/43 290/140/43 292/142/43
f 293/143/43 294/144/43 295/145/43
f 295/145/43 294/144/43 296/146/43
f 297/147/43 298/148/43 299/149/43
f 299/149/43 298/148/43 300/150/43
f 301/151/43 302/152/43 303/153/43
f 303/153/43 302/152/43 304/154/43
f 305/155/43 306/156/43 307/157/43
f 307/157/43 306/156/43 308/158/43
f 309/86/43 310/87/43 311/159/43
f 309/86/43 311/159/43 312/160/43
usemtl Buttonz1Mtl
f 313/161/44 314/162/44 315/163/44
f 314/162/44 313/161/44 316/164/44
f 317/165/45 318/166/46 319/167/46
f 318/166/46 317/165/45 320/168/45
f 321/169/47 322/170/47 323/171/47
f 322/170/47 321/169/47 324/172/47
f 325/173/48 326/174/48 327/175/48
f 326/174/48 325/173/48 328/176/49
f 329/177/15 330/178/15 331/179/15
f 331/179/15 330/178/15 332/180/15
f 333/181/15 334/182/15 335/183/15
f 334/182/15 333/181/15 336/184/15
f 337/185/15 338/186/15 339/187/15
f 338/186/15 337/185/15 340/188/15
f 341/189/15 342/190/15 343/191/15
f 343/191/15 342/190/15 344/192/15
f 345/193/50 346/194/50 347/195/51
f 346/194/50 345/193/50 348/196/51
f 349/197/52 350/198/52 351/199/52
f 349/197/52 351/199/52 352/200/52
f 353/201/53 354/202/54 355/203/53
f 353/201/53 355/203/53 356/204/53
f 357/205/55 358/206/55 359/207/55
f 358/206/55 357/205/55 360/208/55
f 361/174/56 362/173/57 363/176/56
f 362/173/57 361/174/56 364/175/57
f 365/209/58 366/210/58 367/211/58
f 366/210/58 365/209/58 368/212/58
f 369/165/59 370/168/59 371/166/59
f 371/166/59 372/167/60 369/165/59
f 373/164/61 374/162/61 375/163/61
f 375/163/61 376/161/61 373/164/61
f 377/195/62 378/213/62 379/214/62
f 377/195/62 379/214/62 380/215/62
f 381/216/63 382/217/63 383/218/63
f 382/217/63 381/216/63 384/219/63
f 385/220/64 386/221/65 387/222/65
f 385/220/64 387/222/65 388/223/64
f 389/224/66 390/225/67 391/226/67
f 390/225/67 389/224/66 392/227/66
usemtl Keys1Mtl
f 394/228/43 395/229/68 393/230/43
f 396/231/69 395/229/68 394/228/43
f 398/228/43 399/229/70 397/230/43
f 400/231/71 399/229/70 398/228/43
f 402/228/43 403/229/68 401/230/43
f 404/231/69 403/229/68 402/228/43
f 406/228/43 407/229/70 405/230/43
f 408/231/71 407/229/70 406/228/43
f 410/228/43 411/229/70 409/230/43
f 412/231/71 411/229/70 410/228/43
f 414/228/43 415/229/68 413/230/43
f 416/231/69 415/229/68 414/228/43
f 418/228/43 419/229/68 417/230/43
f 420/231/71 419/229/68 418/228/43
f 422/228/43 423/229/68 421/230/43
f 424/231/71 423/229/68 422/228/43
f 426/228/43 427/229/70 425/230/43
f 428/231/71 427/229/70 426/228/43
f 430/228/43 431/229/72 429/230/43
f 432/231/73 431/229/72 430/228/43
f 434/228/43 435/229/70 433/230/43
f 436/231/71 435/229/70 434/228/43
f 438/228/43 439/229/68 437/230/43
f 440/231/69 439/229/68 438/228/43
f 442/228/43 443/229/70 441/230/43
f 444/231/71 443/229/70 442/228/43
f 446/228/43 447/229/70 445/230/43
f 448/231/71 447/229/70 446/228/43
f 449/230/74 450/232/75 451/233/15
f 453/229/76 452/232/75 454/230/74
f 454/230/74 452/232/75 455/233/15
f 457/229/76 456/232/77 458/230/74
f 458/230/74 456/232/77 459/233/15
f 461/229/76 460/232/77 462/230/74
f 462/230/74 460/232/77 463/233/15
f 465/229/76 464/232/77 466/230/74
f 466/230/74 464/232/77 467/233/15
f 469/229/76 468/232/77 470/230/74
f 470/230/74 468/232/77 471/233/15
f 473/229/76 472/232/77 474/230/74
f 474/230/74 472/232/77 475/233/15
f 477/229/76 476/232/77 478/230/74
f 478/230/74 476/232/77 479/233/15
f 481/229/76 480/232/77 482/230/74
f 482/230/74 480/232/77 483/233/15
f 485/229/76 484/232/77 486/230/74
f 486/230/74 484/232/77 487/233/15
f 488/229/78 489/232/79 490/230/74
f 490/230/74 489/232/79 491/233/15
f 493/229/76 492/232/77 494/230/74
f 494/230/74 492/232/77 495/233/15
f 497/229/76 496/232/77 498/230/74
f 498/230/74 496/232/77 499/233/15
f 501/229/76 500/232/77 502/230/74
f 502/230/74 500/232/77 503/233/15
f 504/229/76 450/232/75 449/230/74
f 508/234/80 506/235/81 507/236/81
f 506/235/81 508/234/80 509/237/80
f 512/238/80 510/239/81 511/240/81
f 510/239/81 512/238/80 513/241/80
f 516/242/80 514/243/81 515/244/81
f 514/243/81 516/242/80 517/245/80
f 520/246/80 518/247/81 519/248/81
f 518/247/81 520/246/80 521/249/80
f 524/250/80 522/251/81 523/252/81
f 522/251/81 524/250/80 525/253/80
f 528/254/80 526/255/81 527/256/81
f 526/255/81 528/254/80 529/257/80
f 532/258/80 530/259/81 531/260/81
f 530/259/81 532/258/80 533/261/80
f 536/262/80 534/263/81 535/264/81
f 534/263/81 536/262/80 537/265/80
f 540/266/80 538/267/81 539/268/81
f 538/267/81 540/266/80 541/269/80
f 542/270/82 543/271/82 544/272/15
f 544/272/15 543/271/82 545/273/15
f 548/274/15 547/275/83 546/276/83
f 547/275/83 548/274/15 549/277/15
f 552/278/80 550/279/81 551/280/81
f 550/279/81 552/278/80 553/281/80
f 556/282/80 554/283/81 555/284/81
f 554/283/81 556/282/80 557/285/80
f 560/286/80 558/287/81 559/288/81
f 558/287/81 560/286/80 561/289/80
f 505/290/80 562/291/81 563/292/81
f 562/291/81 505/290/80 564/293/80
f 565/233/43 566/294/84 567/295/43
f 569/232/85 568/294/84 570/233/43
f 570/233/43 568/294/84 571/295/43
f 573/232/85 572/294/84 574/233/43
f 574/233/43 572/294/84 575/295/43
f 577/232/86 576/294/87 578/233/43
f 578/233/43 576/294/87 579/295/43
f 581/232/85 580/294/84 582/233/43
f 582/233/43 580/294/84 583/295/43
f 585/232/85 584/294/84 586/233/43
f 586/233/43 584/294/84 587/295/43
f 589/232/85 588/294/84 590/233/43
f 590/233/43 588/294/84 591/295/43
f 593/232/85 592/294/84 594/233/43
f 594/233/43 592/294/84 595/295/43
f 597/232/86 596/294/87 598/233/43
f 598/233/43 596/294/87 599/295/43
f 601/232/85 600/294/84 602/233/43
f 602/233/43 600/294/84 603/295/43
f 604/232/88 605/294/89 606/233/43
f 606/233/43 605/294/89 607/295/43
f 609/232/85 608/294/84 610/233/43
f 610/233/43 608/294/84 611/295/43
f 613/232/86 612/294/87 614/233/43
f 614/233/43 612/294/87 615/295/43
f 617/232/85 616/294/84 618/233/43
f 618/233/43 616/294/84 619/295/43
f 620/232/85 566/294/84 565/233/43
f 622/230/90 623/232/91 621/233/15
f 623/232/91 622/230/90 624/229/81
f 626/230/90 627/232/91 625/233/15
f 627/232/91 626/230/90 628/229/91
f 630/230/15 631/232/91 629/233/15
f 631/232/91 630/230/15 632/229/91
f 634/230/90 635/232/91 633/233/15
f 635/232/91 634/230/90 636/229/81
f 638/230/90 639/232/91 637/233/15
f 639/232/91 638/230/90 640/229/91
f 642/230/90 643/232/91 641/233/15
f 643/232/91 642/230/90 644/229/91
f 646/230/90 647/232/91 645/233/15
f 647/232/91 646/230/90 648/229/91
f 650/230/15 651/232/91 649/233/15
f 651/232/91 650/230/15 652/229/91
f 654/230/90 655/232/91 653/233/15
f 655/232/91 654/230/90 656/229/91
f 658/230/15 659/232/92 657/233/15
f 659/232/92 658/230/15 660/229/92
f 662/230/90 663/232/91 661/233/15
f 663/232/91 662/230/90 664/229/91
f 666/230/15 667/232/91 665/233/15
f 667/232/91 666/230/15 668/229/91
f 670/230/90 671/232/91 669/233/15
f 671/232/91 670/230/90 672/229/91
f 674/230/90 675/232/81 673/233/15
f 675/232/81 674/230/90 676/229/91
f 678/296/68 679/297/68 680/298/84
f 680/298/84 681/299/84 678/296/68
f 682/300/68 683/301/68 684/302/84
f 684/302/84 685/303/84 682/300/68
f 686/304/68 687/305/68 688/306/84
f 688/306/84 689/307/84 686/304/68
f 690/308/68 691/309/68 692/310/84
f 692/310/84 693/311/84 690/308/68
f 694/312/68 695/313/68 696/314/84
f 696/314/84 697/315/84 694/312/68
f 698/316/68 699/317/68 700/318/84
f 700/318/84 701/319/84 698/316/68
f 702/320/68 703/321/68 704/322/84
f 704/322/84 705/323/84 702/320/68
f 706/324/68 707/325/68 708/326/84
f 708/326/84 709/327/84 706/324/68
f 710/328/68 711/329/68 712/330/84
f 712/330/84 713/331/84 710/328/68
f 714/332/93 715/333/93 716/334/43
f 716/334/43 717/335/43 714/332/93
f 718/336/43 719/337/43 720/338/94
f 720/338/94 719/337/43 721/339/94
f 722/340/68 723/341/68 724/342/84
f 724/342/84 725/343/84 722/340/68
f 726/344/68 727/345/68 728/346/84
f 728/346/84 729/347/84 726/344/68
f 730/348/68 731/349/68 732/350/84
f 732/350/84 733/351/84 730/348/68
f 734/352/68 735/353/68 677/354/84
f 677/354/84 736/355/84 734/352/68
