# Blender 5.1.2
# www.blender.org
mtllib Poop.mtl
o Poop
v 0.080338 -0.202257 -0.184933
v 0.145437 -0.138527 -0.151533
v 0.110737 -0.190077 -0.070532
v 0.126738 -0.041897 -0.442133
v 0.202936 -0.035317 -0.253332
v 0.087036 -0.150327 -0.362333
v 0.208237 0.110553 0.322668
v 0.207237 0.212473 0.177668
v 0.288536 0.138513 0.177767
v 0.285936 0.137533 0.021767
v 0.303137 0.025323 -0.094433
v 0.203636 0.200163 -0.079433
v 0.216738 0.213953 0.024067
v 0.099237 0.196553 -0.267933
v 0.086437 0.331343 -0.112932
v 0.184237 0.255523 -0.051432
v 0.177338 0.166083 -0.150133
v 0.229937 0.106733 -0.172333
v 0.145838 0.095203 -0.246132
v 0.087936 0.124733 -0.335632
v 0.100437 0.034913 -0.448833
v 0.231737 0.000263 -0.185833
v 0.246637 -0.087297 -0.131233
v 0.261837 -0.154117 -0.048532
v 0.278736 0.031663 0.209467
v 0.060137 0.134663 0.333467
v 0.091038 0.045363 0.391068
v 0.166737 -0.025457 0.378067
v 0.218138 -0.137717 0.168268
v 0.147636 -0.209617 0.119167
v 0.145838 -0.213047 0.055868
v 0.079737 -0.262137 0.190166
v 0.045036 -0.267207 -0.056232
v -0.000664 -0.052847 0.510767
v 0.081238 -0.103047 0.344168
v 0.125637 -0.194067 0.206768
v 0.097237 -0.020537 0.381268
v 0.030836 0.095793 0.446867
v -0.154663 0.136803 -0.324732
v 0.208237 0.110553 0.322668
v 0.207237 0.212473 0.177668
v 0.126436 0.185453 0.280167
v 0.288536 0.138513 0.177767
v 0.216738 0.213953 0.024067
v -0.069063 0.174873 -0.253933
v 0.099237 0.196553 -0.267933
v -0.043062 0.120903 -0.280632
v -0.272663 0.124493 -0.069532
v -0.249662 0.114903 0.075367
v -0.160963 0.268353 0.050768
v -0.239563 0.099213 -0.213533
v -0.135763 0.211633 -0.175632
v 0.086437 0.331343 -0.112932
v 0.077837 0.281683 0.272568
v -0.012863 0.323603 0.010168
v -0.084364 0.272903 0.175968
v -0.118563 0.270363 -0.111832
v 0.184237 0.255523 -0.051432
v 0.145838 0.095203 -0.246132
v 0.043238 0.115393 -0.413033
v -0.076263 0.102233 -0.342033
v 0.027737 0.138183 -0.306232
v 0.087936 0.124733 -0.335632
v 0.100437 0.034913 -0.448833
v 0.060137 0.134663 0.333467
v -0.183163 0.174583 0.373968
v -0.193964 0.159313 0.073868
v -0.282063 0.107893 0.226267
v -0.146963 0.208633 0.181667
v -0.049864 0.159113 0.421467
v -0.019064 0.212993 0.312868
v -0.096964 0.228463 0.247467
v 0.030836 0.095793 0.446867
v 0.028538 0.254763 0.295368
v 0.080338 -0.202257 -0.184933
v 0.037638 -0.188697 -0.139532
v 0.099636 -0.150627 -0.126732
v 0.208237 0.110553 0.322668
v 0.207237 0.212473 0.177668
v 0.126436 0.185453 0.280167
v -0.220564 0.179413 0.043467
v -0.249662 0.114903 0.075367
v -0.160963 0.268353 0.050768
v 0.077837 0.281683 0.272568
v -0.084364 0.272903 0.175968
v 0.060137 0.134663 0.333467
v 0.091038 0.045363 0.391068
v 0.166737 -0.025457 0.378067
v 0.218138 -0.137717 0.168268
v 0.079737 -0.262137 0.190166
v -0.079563 -0.206977 0.301468
v -0.016764 -0.253487 0.225168
v 0.070337 -0.219157 0.252768
v -0.073362 -0.117627 0.479368
v -0.000664 -0.052847 0.510767
v -0.141663 -0.108107 0.488968
v 0.018637 -0.179727 0.317968
v 0.081238 -0.103047 0.344168
v 0.080936 -0.146517 0.264267
v 0.125637 -0.194067 0.206768
v -0.237963 -0.071617 0.373367
v -0.162163 0.040373 0.473667
v -0.251863 0.067053 0.360067
v -0.183163 0.174583 0.373968
v -0.193964 0.159313 0.073868
v -0.049864 0.159113 0.421467
v -0.019064 0.212993 0.312868
v 0.097237 -0.020537 0.381268
v 0.030836 0.095793 0.446867
v 0.028538 0.254763 0.295368
v -0.135664 -0.075117 -0.334032
v -0.069162 -0.039937 -0.462332
v -0.130262 -0.133317 -0.262533
v -0.131464 -0.026427 -0.354933
v -0.118164 0.017933 -0.377132
v -0.224962 0.010493 -0.292633
v -0.154663 0.136803 -0.324732
v -0.220564 0.179413 0.043467
v -0.272663 0.124493 -0.069532
v -0.249662 0.114903 0.075367
v -0.160963 0.268353 0.050768
v -0.239563 0.099213 -0.213533
v -0.135763 0.211633 -0.175632
v -0.118563 0.270363 -0.111832
v -0.266863 -0.076577 -0.156832
v -0.237762 -0.109467 0.043667
v -0.141663 -0.108107 0.488968
v -0.232862 -0.186387 0.209568
v -0.237963 -0.071617 0.373367
v -0.251863 0.067053 0.360067
v -0.183163 0.174583 0.373968
v -0.193964 0.159313 0.073868
v -0.282063 0.107893 0.226267
v -0.146963 0.208633 0.181667
v -0.296864 0.010803 0.237768
v -0.269262 -0.050607 0.074867
v -0.286062 -0.066657 -0.037933
v -0.169764 -0.153577 0.040167
v -0.126163 -0.176037 -0.078733
v -0.080963 -0.268657 -0.000633
v -0.132664 -0.226047 0.191668
v -0.273163 0.042303 0.085268
v -0.058264 -0.131087 -0.391233
v 0.080338 -0.202257 -0.184933
v 0.037638 -0.188697 -0.139532
v 0.005938 -0.205157 -0.192633
v 0.099636 -0.150627 -0.126732
v 0.145437 -0.138527 -0.151533
v 0.110737 -0.190077 -0.070532
v 0.187437 -0.171677 -0.080833
v 0.202936 -0.035317 -0.253332
v 0.087036 -0.150327 -0.362333
v -0.130262 -0.133317 -0.262533
v 0.246637 -0.087297 -0.131233
v 0.261837 -0.154117 -0.048532
v 0.218138 -0.137717 0.168268
v 0.147636 -0.209617 0.119167
v 0.145838 -0.213047 0.055868
v 0.079737 -0.262137 0.190166
v 0.045036 -0.267207 -0.056232
v -0.032663 -0.176437 -0.139532
v -0.065763 -0.150977 -0.157732
v -0.095663 -0.163637 -0.227432
v -0.155663 -0.178367 -0.161032
v -0.266863 -0.076577 -0.156832
v -0.237762 -0.109467 0.043667
v -0.079563 -0.206977 0.301468
v -0.016764 -0.253487 0.225168
v 0.070337 -0.219157 0.252768
v -0.073362 -0.117627 0.479368
v -0.141663 -0.108107 0.488968
v 0.018637 -0.179727 0.317968
v 0.081238 -0.103047 0.344168
v 0.080936 -0.146517 0.264267
v 0.125637 -0.194067 0.206768
v -0.232862 -0.186387 0.209568
v -0.286062 -0.066657 -0.037933
v -0.169764 -0.153577 0.040167
v -0.126163 -0.176037 -0.078733
v -0.080963 -0.268657 -0.000633
v -0.132664 -0.226047 0.191668
v -0.058264 -0.131087 -0.391233
v -0.016363 -0.207007 -0.296333
v 0.037638 -0.188697 -0.139532
v 0.099636 -0.150627 -0.126732
v 0.145437 -0.138527 -0.151533
v 0.110737 -0.190077 -0.070532
v 0.187437 -0.171677 -0.080833
v 0.126738 -0.041897 -0.442133
v 0.087036 -0.150327 -0.362333
v -0.135664 -0.075117 -0.334032
v -0.069162 -0.039937 -0.462332
v -0.130262 -0.133317 -0.262533
v -0.131464 -0.026427 -0.354933
v -0.118164 0.017933 -0.377132
v -0.224962 0.010493 -0.292633
v -0.154663 0.136803 -0.324732
v 0.303137 0.025323 -0.094433
v 0.203636 0.200163 -0.079433
v -0.069063 0.174873 -0.253933
v 0.099237 0.196553 -0.267933
v -0.043062 0.120903 -0.280632
v -0.135763 0.211633 -0.175632
v 0.086437 0.331343 -0.112932
v -0.118563 0.270363 -0.111832
v 0.184237 0.255523 -0.051432
v 0.177338 0.166083 -0.150133
v 0.229937 0.106733 -0.172333
v 0.145838 0.095203 -0.246132
v 0.043238 0.115393 -0.413033
v -0.076263 0.102233 -0.342033
v 0.027737 0.138183 -0.306232
v 0.006336 0.038933 -0.478233
v 0.100437 0.034913 -0.448833
v 0.026737 -0.056787 -0.489233
v 0.231737 0.000263 -0.185833
v 0.246637 -0.087297 -0.131233
v 0.261837 -0.154117 -0.048532
v 0.045036 -0.267207 -0.056232
v -0.032663 -0.176437 -0.139532
v -0.095663 -0.163637 -0.227432
v -0.155663 -0.178367 -0.161032
v -0.266863 -0.076577 -0.156832
v -0.126163 -0.176037 -0.078733
v -0.080963 -0.268657 -0.000633
v -0.058264 -0.131087 -0.391233
v -0.016363 -0.207007 -0.296333
vn 0.7929 -0.1570 -0.5887
vn 0.8947 -0.1412 -0.4238
vn 0.4892 -0.7654 -0.4181
vn 0.5198 -0.7876 -0.3308
vn 0.8818 0.4566 -0.1181
vn 0.8973 0.3778 0.2282
vn 0.9632 0.0158 -0.2684
vn 0.7622 0.5422 -0.3536
vn 0.7559 0.6535 -0.0394
vn 0.4337 0.5125 -0.7412
vn 0.7476 0.6453 -0.1574
vn 0.6846 0.5193 -0.5115
vn 0.2595 0.9280 -0.2674
vn 0.7476 0.6452 -0.1574
vn 0.6152 0.7414 0.2681
vn 0.7247 0.3545 -0.5908
vn 0.7476 0.3934 -0.5351
vn 0.6608 0.4091 -0.6293
vn 0.5198 0.8349 -0.1812
vn 0.7476 0.3935 -0.5351
vn 0.8337 0.1023 -0.5427
vn 0.7261 -0.4578 -0.5130
vn 0.7576 -0.6313 -0.1657
vn 0.9384 -0.1577 0.3075
vn 0.6151 0.4022 0.6782
vn 0.5598 -0.2996 0.7726
vn 0.7487 -0.5831 0.3152
vn 0.4315 -0.7923 -0.4314
vn 0.4951 -0.8645 -0.0865
vn 0.2286 -0.9066 -0.3547
vn 0.6243 -0.7666 0.1502
vn 0.6222 -0.6301 0.4646
vn 0.3870 -0.8845 0.2606
vn 0.4502 -0.2370 0.8609
vn 0.5118 -0.6455 0.5669
vn 0.4658 -0.2368 0.8526
vn 0.5357 0.5042 0.6774
vn 0.5677 0.2839 0.7727
vn 0.4255 0.5909 0.6854
vn 0.4251 -0.8974 0.1181
vn 0.4262 0.5288 0.7340
vn 0.8973 0.3778 0.2283
vn 0.7559 0.6535 -0.0393
vn -0.6677 0.7384 0.0942
vn -0.8573 0.4012 -0.3225
vn -0.9064 0.4098 -0.1025
vn -0.3939 0.6617 -0.6380
vn 0.2595 0.9280 -0.2673
vn 0.2911 0.8183 0.4957
vn -0.1809 0.9830 0.0314
vn -0.4087 0.8568 0.3144
vn -0.6677 0.7384 0.0943
vn -0.5358 0.7801 -0.3231
vn -0.5190 0.7549 -0.4010
vn -0.0237 0.7187 -0.6949
vn -0.3938 0.6617 -0.6380
vn 0.7475 0.6453 -0.1574
vn 0.1024 0.8578 -0.5036
vn -0.1493 0.7939 -0.5895
vn -0.1184 0.9077 -0.4025
vn 0.5198 0.8349 -0.1811
vn 0.7476 0.3935 -0.5350
vn -0.0629 0.8328 -0.5499
vn 0.4337 0.5125 -0.7411
vn -0.7075 0.6289 0.3223
vn -0.8805 0.4717 0.0471
vn -0.6701 0.7253 0.1577
vn -0.8516 0.5205 0.0630
vn -0.5041 0.7561 0.4174
vn 0.1337 0.7315 0.6686
vn -0.0157 0.7846 0.6198
vn -0.3555 0.8768 0.3239
vn 0.5356 0.5042 0.6774
vn -0.0943 0.6840 0.7233
vn 0.3842 -0.9176 -0.1020
vn 0.1577 -0.9783 -0.1342
vn 0.4254 0.5909 0.6855
vn 0.5677 0.2838 0.7727
vn 0.5597 -0.2996 0.7726
vn -0.1335 -0.9030 0.4083
vn -0.0628 -0.9420 0.3297
vn 0.4895 -0.5842 0.6474
vn 0.1419 -0.7565 0.6384
vn 0.4502 -0.2369 0.8609
vn -0.4326 -0.5270 0.7315
vn 0.4014 -0.7318 0.5508
vn 0.5118 -0.6456 0.5669
vn 0.3236 -0.7184 0.6157
vn 0.6222 -0.6300 0.4647
vn 0.4013 -0.7318 0.5508
vn -0.8573 -0.2910 0.4247
vn -0.4863 0.2432 0.8393
vn -0.8644 0.2122 0.4558
vn -0.5040 0.7561 0.4174
vn 0.6222 -0.6301 0.4647
vn 0.7487 -0.5832 0.3153
vn 0.5117 -0.6456 0.5669
vn 0.5356 0.5041 0.6775
vn 0.1338 0.7315 0.6686
vn -0.0943 0.6840 0.7234
vn 0.2911 0.8183 0.4956
vn 0.6152 0.7414 0.2682
vn -0.4087 0.8568 0.3145
vn -0.6677 0.7385 0.0943
vn -0.7606 0.5175 0.3921
vn -0.8516 0.5204 0.0630
vn -0.6450 -0.1179 -0.7551
vn -0.7514 -0.1582 -0.6406
vn -0.6284 0.2199 -0.7462
vn -0.6772 -0.4961 -0.5434
vn -0.7606 0.5175 0.3920
vn -0.9064 0.4098 -0.1024
vn -0.8516 0.5204 0.0631
vn -0.5358 0.7801 -0.3230
vn -0.6866 -0.7260 0.0395
vn -0.8805 0.4716 0.0472
vn -0.9940 -0.0552 0.0947
vn -0.9675 -0.2517 0.0236
vn -0.9316 -0.3631 0.0158
vn -0.7434 -0.6642 -0.0791
vn -0.4186 -0.8846 -0.2054
vn -0.6084 -0.7822 -0.1343
vn -0.3152 -0.9300 -0.1891
vn -0.4261 -0.8997 0.0947
vn -0.6702 0.7253 0.1576
vn -0.9910 0.1180 -0.0629
vn -0.8801 -0.4165 -0.2279
vn -0.8574 0.4011 -0.3225
vn -0.8423 -0.0630 -0.5353
vn -0.5907 -0.7324 -0.3387
vn -0.6450 -0.1180 -0.7550
vn -0.4635 -0.7070 -0.5342
vn 0.1578 -0.9783 -0.1341
vn -0.1808 -0.9668 0.1808
vn 0.3843 -0.9176 -0.1020
vn 0.4314 -0.7923 -0.4314
vn 0.3154 -0.8595 -0.4021
vn 0.8947 -0.1412 -0.4237
vn 0.7576 -0.6314 -0.1657
vn 0.7487 -0.5832 0.3152
vn 0.6243 -0.7666 0.1501
vn 0.4951 -0.8645 -0.0864
vn 0.3869 -0.8845 0.2606
vn -0.4182 -0.8601 -0.2919
vn -0.2290 -0.9714 -0.0632
vn -0.3701 -0.9214 -0.1181
vn -0.3150 -0.9212 -0.2283
vn -0.7433 -0.6643 -0.0791
vn 0.1418 -0.7566 0.6383
vn -0.6865 -0.7260 0.0395
vn -0.4186 -0.8846 -0.2053
vn -0.4635 -0.7070 -0.5341
vn -0.1735 -0.9540 -0.2444
vn -0.5907 -0.7324 -0.3386
vn 0.4892 -0.7654 -0.4182
vn -0.7513 -0.1582 -0.6407
vn -0.6283 0.2199 -0.7462
vn -0.0237 0.7186 -0.6950
vn -0.0629 0.8328 -0.5500
vn 0.2596 0.9280 -0.2674
vn -0.5189 0.7549 -0.4011
vn 0.6846 0.5194 -0.5115
vn 0.7622 0.5422 -0.3537
vn 0.7247 0.3545 -0.5909
vn 0.7475 0.3934 -0.5352
vn -0.1183 0.9077 -0.4025
vn -0.1494 0.7938 -0.5895
vn -0.6449 -0.1179 -0.7551
vn -0.1895 0.4580 -0.8685
vn 0.1023 0.8578 -0.5037
vn 0.6608 0.4090 -0.6293
vn 0.0868 -0.3943 -0.9149
vn 0.7929 -0.1570 -0.5888
vn 0.8337 0.1022 -0.5427
vn 0.7261 -0.4577 -0.5130
vn 0.3154 -0.8595 -0.4022
vn 0.3843 -0.9176 -0.1019
vn 0.4315 -0.7922 -0.4315
vn 0.2286 -0.9066 -0.3548
vn -0.4182 -0.8601 -0.2920
vn -0.3149 -0.9212 -0.2283
vn -0.3702 -0.9214 -0.1181
vn -0.3153 -0.9300 -0.1891
vt 0.574755 1.289160
vt 0.555882 1.289820
vt 0.566776 1.278320
vt 0.545701 1.279500
vt 0.528374 1.307110
vt 0.512766 1.307210
vt 0.539987 1.295890
vt 0.538492 1.313370
vt 0.528135 1.314750
vt 0.557336 1.313010
vt 0.535688 1.318910
vt 0.545556 1.309960
vt 0.541838 1.326490
vt 0.512782 1.314600
vt 0.547775 1.304030
vt 0.555157 1.302880
vt 0.575430 1.296850
vt 0.564114 1.305830
vt 0.549129 1.293380
vt 0.543670 1.284630
vt 0.535398 1.277940
vt 0.509598 1.296520
vt 0.498278 1.304410
vt 0.492736 1.290810
vt 0.513714 1.279580
vt 0.537601 1.274350
vt 0.524964 1.272050
vt 0.536165 1.266630
vt 0.518633 1.272390
vt 0.509864 1.273950
vt 0.511529 1.267140
vt 0.479472 1.288070
vt 0.496127 1.283050
vt 0.492417 1.291300
vt 0.485862 1.302930
vt 0.491435 1.297890
vt 0.497199 1.306820
vt 0.549037 1.273130
vt 0.508964 1.327680
vt 0.509068 1.313180
vt 0.517149 1.323430
vt 0.500936 1.313190
vt 0.508111 1.297830
vt 0.545885 1.300490
vt 0.553743 1.274060
vt 0.557057 1.288460
vt 0.545250 1.262940
vt 0.521141 1.284120
vt 0.522009 1.322680
vt 0.531071 1.296440
vt 0.538220 1.313010
vt 0.541640 1.284230
vt 0.543366 1.277860
vt 0.536695 1.270020
vt 0.511360 1.290270
vt 0.525460 1.254110
vt 0.537415 1.261220
vt 0.527017 1.264790
vt 0.520995 1.261850
vt 0.515209 1.270800
vt 0.534097 1.267350
vt 0.519864 1.268630
vt 0.519744 1.250530
vt 0.549180 1.302800
vt 0.557992 1.318040
vt 0.544486 1.313590
vt 0.554756 1.302950
vt 0.548104 1.332810
vt 0.534779 1.337560
vt 0.531695 1.326710
vt 0.539481 1.320170
vt 0.523775 1.328760
vt 0.526708 1.340100
vt 0.526939 1.324950
vt 0.539116 1.278290
vt 0.532918 1.274490
vt 0.537185 1.273130
vt 0.549980 1.304410
vt 0.535169 1.306820
vt 0.538260 1.297890
vt 0.545826 1.290810
vt 0.521199 1.272660
vt 0.527476 1.268010
vt 0.536191 1.271440
vt 0.521824 1.281590
vt 0.529090 1.288070
vt 0.514993 1.282540
vt 0.531019 1.275380
vt 0.537280 1.283050
vt 0.537251 1.278700
vt 0.541715 1.273950
vt 0.505363 1.286190
vt 0.512942 1.297390
vt 0.503970 1.300060
vt 0.510840 1.310810
vt 0.537134 1.267140
vt 0.550970 1.279580
vt 0.538881 1.291300
vt 0.532235 1.302930
vt 0.524165 1.309270
vt 0.527248 1.314650
vt 0.532004 1.318830
vt 0.541795 1.311900
vt 0.536934 1.321520
vt 0.549876 1.314600
vt 0.520723 1.320650
vt 0.513059 1.320190
vt 0.507101 1.311300
vt 0.509764 1.309290
vt 0.504188 1.304850
vt 0.482170 1.289360
vt 0.492908 1.290710
vt 0.490683 1.295150
vt 0.494990 1.285840
vt 0.532740 1.311300
vt 0.521440 1.305800
vt 0.535933 1.304850
vt 0.533476 1.320190
vt 0.510839 1.314520
vt 0.495925 1.307040
vt 0.517211 1.320390
vt 0.565733 1.286190
vt 0.549357 1.274720
vt 0.577295 1.282540
vt 0.564400 1.300060
vt 0.565795 1.310810
vt 0.551022 1.304140
vt 0.552173 1.294440
vt 0.535887 1.288290
vt 0.524605 1.286690
vt 0.532764 1.282410
vt 0.528332 1.266490
vt 0.532411 1.278000
vt 0.520528 1.275750
vt 0.547570 1.270750
vt 0.535787 1.309290
vt 0.546568 1.314220
vt 0.536928 1.297590
vt 0.512712 1.285700
vt 0.507047 1.303280
vt 0.499138 1.294400
vt 0.502148 1.280020
vt 0.489271 1.280250
vt 0.537185 1.276920
vt 0.532918 1.281460
vt 0.529753 1.276150
vt 0.539116 1.282740
vt 0.543695 1.280260
vt 0.540233 1.288360
vt 0.547897 1.287330
vt 0.549452 1.270080
vt 0.553821 1.282290
vt 0.555341 1.290560
vt 0.550970 1.312250
vt 0.543921 1.307330
vt 0.543740 1.301000
vt 0.537134 1.314430
vt 0.533658 1.289800
vt 0.525892 1.281460
vt 0.522575 1.279640
vt 0.519589 1.272680
vt 0.513592 1.279320
vt 0.505381 1.299780
vt 0.502471 1.279730
vt 0.537251 1.321840
vt 0.537280 1.329830
vt 0.531019 1.327210
vt 0.541715 1.316100
vt 0.521824 1.343350
vt 0.521199 1.325560
vt 0.514993 1.344310
vt 0.505872 1.316370
vt 0.512184 1.299430
vt 0.516535 1.287550
vt 0.515886 1.314590
vt 0.527476 1.317930
vt 0.521062 1.295350
vt 0.536191 1.320690
vt 0.500548 1.291620
vt 0.523329 1.256290
vt 0.527518 1.265790
vt 0.516129 1.269170
vt 0.537859 1.259190
vt 0.543353 1.285840
vt 0.536707 1.289360
vt 0.542815 1.280020
vt 0.542937 1.290710
vt 0.552284 1.294400
vt 0.541601 1.295150
vt 0.545250 1.307040
vt 0.536695 1.310840
vt 0.519864 1.313010
vt 0.534097 1.305450
vt 0.521141 1.326490
vt 0.541640 1.320390
vt 0.543366 1.314520
vt 0.512050 1.309960
vt 0.511360 1.318910
vt 0.509426 1.313370
vt 0.506791 1.304030
vt 0.515209 1.302880
vt 0.499472 1.295890
vt 0.527017 1.307170
vt 0.537415 1.303580
vt 0.529158 1.297250
vt 0.525460 1.304890
vt 0.519744 1.296850
vt 0.527119 1.287680
vt 0.517116 1.289160
vt 0.506619 1.293380
vt 0.505123 1.284630
vt 0.511047 1.276190
vt 0.515249 1.279500
vt 0.503603 1.277940
vt 0.519828 1.278290
vt 0.518710 1.274350
vt 0.525286 1.266630
vt 0.526026 1.274490
vt 0.533051 1.275710
vt 0.545351 1.275520
vt 0.556473 1.285700
vt 0.539354 1.276990
vt 0.535614 1.280250
vt 0.521085 1.278320
vt 0.531426 1.272650
vt 0.537882 1.266490
vt 0.542409 1.275750
s 1
usemtl Poop1Mtl
f 4/1/1 5/2/2 6/3/3
f 5/2/2 2/4/4 6/3/3
f 10/5/5 9/6/6 11/7/7
f 10/5/5 12/8/8 13/9/9
f 9/6/6 10/5/5 13/9/9
f 14/10/10 16/11/11 17/12/12
f 15/13/13 16/11/11 14/10/10
f 13/9/9 16/11/14 8/14/15
f 12/8/8 16/11/14 13/9/9
f 10/5/5 18/15/16 12/8/8
f 11/7/7 18/15/16 10/5/5
f 14/10/10 17/12/12 19/16/17
f 5/2/2 21/17/18 20/18/19
f 21/17/18 5/2/2 4/1/1
f 19/16/20 5/2/2 20/18/19
f 22/19/21 5/2/2 19/16/20
f 5/2/2 22/19/21 23/20/22
f 11/7/7 24/21/23 23/20/22
f 25/22/24 24/21/23 11/7/7
f 9/6/6 25/22/24 11/7/7
f 7/23/25 25/22/24 9/6/6
f 25/22/24 7/23/25 28/24/26
f 29/25/27 25/22/24 28/24/26
f 24/21/23 25/22/24 29/25/27
f 3/26/28 31/27/29 33/28/30
f 30/29/31 36/30/32 32/31/33
f 34/32/34 35/33/35 37/34/36
f 38/35/37 27/36/38 26/37/39
f 1/38/40 6/3/3 2/4/4
f 40/39/25 41/40/15 42/41/41
f 41/40/15 40/39/25 43/42/42
f 41/40/15 43/42/42 44/43/43
f 50/44/44 51/45/45 48/46/46
f 51/45/45 50/44/44 39/47/47
f 53/48/48 54/49/49 41/40/15
f 54/49/49 53/48/48 55/50/50
f 56/51/51 54/49/49 55/50/50
f 50/44/52 56/51/51 55/50/50
f 50/44/52 55/50/50 57/52/53
f 52/53/54 45/54/55 39/47/56
f 53/48/48 57/52/53 55/50/50
f 41/40/15 58/55/57 53/48/48
f 60/56/58 61/57/59 62/58/60
f 63/59/61 60/56/58 62/58/60
f 62/58/60 59/60/62 63/59/61
f 47/61/63 46/62/64 62/58/60
f 61/57/59 47/61/63 62/58/60
f 39/47/47 47/61/63 61/57/59
f 63/59/61 64/63/18 60/56/58
f 67/64/65 68/65/66 69/66/67
f 68/65/66 67/64/65 49/67/68
f 66/68/69 70/69/70 71/70/71
f 72/71/72 66/68/69 71/70/71
f 66/68/69 72/71/72 69/66/67
f 68/65/66 66/68/69 69/66/67
f 65/72/39 70/69/70 73/73/73
f 56/51/51 74/74/74 54/49/49
f 72/71/72 71/70/71 56/51/51
f 69/66/67 72/71/72 56/51/51
f 50/44/52 69/66/67 56/51/51
f 77/75/75 76/76/76 75/77/40
f 78/78/25 86/79/77 87/80/78
f 78/78/25 87/80/78 88/81/79
f 91/82/80 92/83/81 93/84/82
f 94/85/83 95/86/84 96/87/85
f 95/86/84 94/85/83 97/88/86
f 98/89/87 95/86/84 97/88/86
f 99/90/88 93/84/82 100/91/89
f 97/88/90 93/84/82 99/90/88
f 91/82/80 93/84/82 97/88/90
f 101/92/91 102/93/92 103/94/93
f 102/93/92 101/92/91 96/87/85
f 104/95/94 103/94/93 102/93/92
f 100/91/89 93/84/82 90/96/33
f 88/81/79 100/91/95 89/97/96
f 98/89/97 100/91/95 88/81/79
f 98/89/97 88/81/79 108/98/36
f 95/86/84 87/80/78 109/99/98
f 87/80/78 95/86/84 108/98/36
f 87/80/78 108/98/36 88/81/79
f 109/99/98 102/93/92 95/86/84
f 102/93/92 109/99/98 106/100/70
f 102/93/92 106/100/70 104/95/94
f 95/86/84 102/93/92 96/87/85
f 107/101/71 106/100/99 86/79/77
f 110/102/100 80/103/41 84/104/101
f 80/103/41 110/102/100 86/79/77
f 86/79/77 110/102/100 107/101/71
f 80/103/41 86/79/77 78/78/25
f 80/103/41 79/105/102 84/104/101
f 107/101/71 110/102/100 85/106/103
f 83/107/104 81/108/105 105/109/65
f 105/109/65 81/108/105 82/110/106
f 112/111/107 114/112/108 115/113/109
f 111/114/110 114/112/108 112/111/107
f 118/115/111 119/116/112 120/117/113
f 119/116/112 118/115/111 121/118/52
f 121/118/44 123/119/54 117/120/56
f 123/119/54 121/118/44 124/121/114
f 129/122/91 128/123/115 127/124/85
f 130/125/93 131/126/69 133/127/116
f 130/125/93 133/127/116 135/128/117
f 129/122/91 130/125/93 135/128/117
f 128/123/115 129/122/91 135/128/117
f 128/123/115 135/128/117 136/129/118
f 136/129/118 137/130/119 126/131/120
f 128/123/115 136/129/118 126/131/120
f 140/132/121 138/133/122 139/134/123
f 138/133/122 140/132/121 141/135/124
f 132/136/65 134/137/125 121/118/44
f 133/127/116 120/117/113 142/138/126
f 135/128/117 133/127/116 142/138/126
f 136/129/118 135/128/117 142/138/126
f 119/116/112 137/130/119 142/138/126
f 137/130/119 119/116/112 125/139/127
f 137/130/119 136/129/118 142/138/126
f 119/116/112 142/138/126 120/117/113
f 125/139/127 119/116/112 122/140/128
f 125/139/127 122/140/128 116/141/129
f 122/140/128 117/120/47 116/141/129
f 113/142/130 112/111/131 143/143/132
f 144/144/40 145/145/133 146/146/134
f 147/147/135 144/144/40 148/148/4
f 149/149/136 147/147/135 148/148/4
f 150/150/137 149/149/136 148/148/4
f 148/148/4 151/151/138 154/152/22
f 155/153/139 156/154/140 157/155/141
f 158/156/142 155/153/139 157/155/141
f 158/156/142 157/155/141 159/157/143
f 160/158/30 158/156/142 159/157/143
f 146/146/134 145/145/133 161/159/144
f 162/160/145 146/146/134 161/159/144
f 162/160/145 163/161/146 146/146/134
f 164/162/147 163/161/146 162/160/145
f 164/162/147 166/163/148 165/164/127
f 174/165/88 173/166/97 172/167/90
f 175/168/89 173/166/97 174/165/88
f 170/169/149 167/170/80 172/167/90
f 171/171/85 167/170/80 170/169/149
f 171/171/85 176/172/150 167/170/80
f 178/173/122 176/172/150 166/163/148
f 164/162/147 178/173/122 166/163/148
f 179/174/123 178/173/122 164/162/147
f 176/172/150 178/173/122 181/175/124
f 167/170/80 176/172/150 181/175/124
f 168/176/81 167/170/80 181/175/124
f 180/177/151 168/176/81 181/175/124
f 159/157/143 168/176/81 180/177/151
f 169/178/82 168/176/81 159/157/143
f 156/154/140 175/168/95 157/155/141
f 177/179/119 165/164/127 166/163/148
f 163/161/146 182/180/152 183/181/153
f 182/180/152 163/161/146 153/182/154
f 163/161/146 165/164/127 153/182/154
f 183/181/153 146/146/134 163/161/146
f 144/144/40 183/181/153 152/183/155
f 144/144/40 146/146/134 183/181/153
f 149/149/136 150/150/137 158/156/142
f 158/156/142 150/150/137 155/153/139
f 159/157/143 180/177/151 160/158/30
f 161/159/144 179/174/123 162/160/145
f 162/160/145 179/174/123 164/162/147
f 191/184/110 192/185/131 193/186/130
f 194/187/156 191/184/110 196/188/129
f 195/189/157 194/187/156 196/188/129
f 195/189/157 196/188/129 197/190/56
f 200/191/158 201/192/10 202/193/159
f 197/190/47 200/191/158 202/193/159
f 204/194/160 200/191/158 205/195/53
f 205/195/53 200/191/158 203/196/161
f 201/192/10 200/191/158 204/194/160
f 207/197/162 206/198/11 199/199/163
f 199/199/163 208/200/164 207/197/162
f 209/201/165 208/200/164 198/202/7
f 207/197/162 208/200/164 209/201/165
f 201/192/64 209/201/20 212/203/166
f 195/189/157 197/190/56 211/204/167
f 192/185/168 195/189/157 211/204/167
f 213/205/169 192/185/168 211/204/167
f 210/206/170 213/205/169 211/204/167
f 213/205/169 214/207/171 215/208/172
f 214/207/171 189/209/173 215/208/172
f 214/207/171 213/205/169 210/206/170
f 213/205/169 215/208/172 192/185/168
f 198/202/7 216/210/174 209/201/165
f 216/210/174 198/202/7 217/211/175
f 188/212/176 186/213/4 217/211/22
f 218/214/23 188/212/176 217/211/22
f 185/215/177 187/216/178 219/217/179
f 184/218/133 185/215/177 219/217/179
f 220/219/180 184/218/133 219/217/179
f 222/220/181 223/221/127 221/222/182
f 191/184/110 223/221/127 196/188/129
f 193/186/130 223/221/127 191/184/110
f 226/223/132 190/224/155 227/225/153
f 190/224/155 226/223/132 215/208/172
f 190/224/155 215/208/172 189/209/173
f 226/223/132 192/185/168 215/208/172
f 225/226/121 224/227/183 220/219/180
f 220/219/180 219/217/179 225/226/121
