# Blender 5.1.2
# www.blender.org
mtllib Anchor.mtl
o Anchor
v 0.646275 -0.087423 -0.119155
v 0.762375 -0.087423 -0.445155
v 0.762375 0.087427 -0.445155
v 0.646275 0.087427 -0.119155
v 0.509474 -0.087423 -0.017554
v 0.509474 0.087427 -0.017554
v 0.509474 -0.087423 0.152246
v 0.509474 0.087427 0.152246
v 0.142874 -0.087423 0.295045
v 0.142874 0.087427 0.295045
v 0.164975 -0.087423 0.377546
v 0.164975 0.087427 0.377546
v 0.142874 -0.087423 0.459945
v 0.142874 0.087427 0.459945
v 0.057774 0.123187 0.244846
v 0.084875 0.087427 -0.459553
v 0.082474 0.087427 0.234645
v 0.057774 -0.123193 0.244846
v 0.084875 -0.087423 -0.459553
v 0.082474 -0.087423 0.234645
v 0.082474 -0.087423 0.234645
v 0.084875 -0.087423 -0.459553
v 0.084875 0.087427 -0.459553
v 0.082474 0.087427 0.234645
v -0.040725 0.087427 0.448045
v -0.040725 -0.087423 0.448045
v -0.070526 0.087427 0.418247
v -0.070526 -0.087423 0.418247
v -0.081424 0.087427 0.377546
v -0.081424 -0.087423 0.377546
v -0.070526 0.087427 0.336847
v -0.070526 -0.087423 0.336847
v -0.040725 0.087427 0.307046
v -0.040725 -0.087423 0.307046
v -0.595226 0.087427 -0.390053
v -0.398824 0.123187 -0.546855
v -0.412626 0.087427 -0.567753
v -0.588726 0.123187 -0.361954
v -0.100425 0.123187 -0.670354
v -0.105325 0.087427 -0.695054
v 0.105376 0.087427 -0.695054
v 0.100476 0.123187 -0.670354
v 0.412674 0.087427 -0.567753
v 0.398875 0.123187 -0.546855
v 0.595274 0.087427 -0.390053
v 0.588774 0.123187 -0.361954
v -0.646225 0.087427 -0.119155
v -0.722326 0.123187 -0.405955
v -0.762426 0.087427 -0.445155
v -0.630825 0.123187 -0.149255
v 0.646275 0.087427 -0.119155
v 0.762375 0.087427 -0.445155
v 0.722275 0.123187 -0.405955
v 0.630776 0.123187 -0.149255
v -0.484825 0.123187 0.007146
v -0.509426 0.087427 0.152246
v -0.484825 0.123187 0.127647
v -0.509426 0.087427 -0.017554
v 0.509474 0.087427 0.152246
v 0.509474 0.087427 -0.017554
v 0.484774 0.123187 0.007146
v 0.484774 0.123187 0.127647
v -0.595226 0.087427 -0.390053
v -0.762426 0.087427 -0.445155
v -0.722326 0.123187 -0.405955
v -0.588726 0.123187 -0.361954
v 0.595274 0.087427 -0.390053
v 0.722275 0.123187 -0.405955
v 0.762375 0.087427 -0.445155
v 0.588774 0.123187 -0.361954
v -0.000024 0.087427 0.542445
v 0.069676 0.123187 0.498246
v -0.000024 0.123187 0.516946
v 0.082474 0.087427 0.520345
v -0.082426 0.087427 0.520345
v 0.120776 0.123187 0.447246
v -0.069725 0.123187 0.498246
v 0.142874 0.087427 0.459945
v -0.142826 0.087427 0.459945
v 0.139374 0.123187 0.377546
v -0.120725 0.123187 0.447246
v 0.164975 0.087427 0.377546
v -0.139425 0.123187 0.377546
v -0.164924 0.087427 0.377546
v 0.120776 0.123187 0.307845
v 0.142874 0.087427 0.295045
v 0.082474 0.087427 0.234645
v 0.057774 0.123187 0.244846
v -0.120725 0.123187 0.307845
v -0.142826 0.087427 0.295045
v -0.082426 0.087427 0.234645
v -0.057825 0.123187 0.244846
v -0.057825 0.123187 0.244846
v -0.060325 0.123187 -0.488953
v -0.084924 0.087427 -0.459553
v 0.057774 0.123187 0.244846
v 0.084875 0.087427 -0.459553
v 0.060376 0.123187 -0.488953
v 0.509474 0.087427 -0.017554
v -0.509426 0.087427 -0.017554
v -0.484825 0.123187 0.007146
v 0.484774 0.123187 0.007146
v -0.060325 0.123187 -0.488953
v -0.057825 0.123187 0.244846
v 0.060376 0.123187 -0.488953
v 0.100476 0.123187 -0.670354
v 0.057774 0.123187 0.244846
v 0.307576 0.123187 -0.445553
v -0.100425 0.123187 -0.670354
v 0.398875 0.123187 -0.546855
v -0.307525 0.123187 -0.445553
v -0.398824 0.123187 -0.546855
v 0.481474 0.123187 -0.295354
v -0.481525 0.123187 -0.295354
v 0.588774 0.123187 -0.361954
v -0.588726 0.123187 -0.361954
v 0.630776 0.123187 -0.149255
v 0.722275 0.123187 -0.405955
v 0.374375 0.123187 -0.223553
v -0.630825 0.123187 -0.149255
v -0.374324 0.123187 -0.223553
v -0.722326 0.123187 -0.405955
v -0.053424 0.123187 0.470146
v -0.000024 0.123187 0.516946
v -0.000024 0.123187 0.484447
v 0.053475 0.123187 0.470146
v -0.069725 0.123187 0.498246
v 0.069676 0.123187 0.498246
v -0.092624 0.123187 0.430946
v 0.120776 0.123187 0.447246
v -0.120725 0.123187 0.447246
v 0.092575 0.123187 0.430946
v -0.139425 0.123187 0.377546
v 0.139374 0.123187 0.377546
v -0.106926 0.123187 0.377546
v 0.106974 0.123187 0.377546
v -0.120725 0.123187 0.307845
v 0.092575 0.123187 0.324046
v -0.092624 0.123187 0.324046
v 0.120776 0.123187 0.307845
v -0.053424 0.123187 0.284946
v 0.053475 0.123187 0.284946
v -0.000024 0.123187 0.270545
v 0.484774 0.123187 0.007146
v -0.484825 0.123187 0.007146
v -0.484825 0.123187 0.127647
v 0.484774 0.123187 0.127647
v -0.040725 0.087427 0.448045
v -0.000024 0.123187 0.484447
v -0.000024 0.087427 0.458946
v 0.040675 0.087427 0.448045
v -0.053424 0.123187 0.470146
v 0.053475 0.123187 0.470146
v -0.070526 0.087427 0.418247
v 0.092575 0.123187 0.430946
v -0.092624 0.123187 0.430946
v 0.070475 0.087427 0.418247
v -0.106926 0.123187 0.377546
v -0.081424 0.087427 0.377546
v 0.081375 0.087427 0.377546
v -0.092624 0.123187 0.324046
v 0.106974 0.123187 0.377546
v -0.070526 0.087427 0.336847
v -0.040725 0.087427 0.307046
v -0.053424 0.123187 0.284946
v 0.092575 0.123187 0.324046
v 0.070475 0.087427 0.336847
v 0.040675 0.087427 0.307046
v -0.000024 0.087427 0.296047
v 0.053475 0.123187 0.284946
v -0.000024 0.123187 0.270545
v -0.316724 0.087427 -0.214654
v -0.440925 0.087427 -0.297854
v -0.374324 0.123187 -0.223553
v -0.481525 0.123187 -0.295354
v 0.374375 0.123187 -0.223553
v 0.481474 0.123187 -0.295354
v 0.440874 0.087427 -0.297854
v 0.316676 0.087427 -0.214654
v -0.646225 0.087427 -0.119155
v -0.374324 0.123187 -0.223553
v -0.630825 0.123187 -0.149255
v -0.316724 0.087427 -0.214654
v 0.646275 0.087427 -0.119155
v 0.374375 0.123187 -0.223553
v 0.316676 0.087427 -0.214654
v 0.630776 0.123187 -0.149255
v 0.440874 0.087427 -0.297854
v 0.307576 0.123187 -0.445553
v 0.296574 0.087427 -0.422454
v 0.481474 0.123187 -0.295354
v 0.084875 0.087427 -0.459553
v 0.060376 0.123187 -0.488953
v -0.307525 0.123187 -0.445553
v -0.084924 0.087427 -0.459553
v -0.060325 0.123187 -0.488953
v -0.296526 0.087427 -0.422454
v -0.440925 0.087427 -0.297854
v -0.481525 0.123187 -0.295354
v 0.142874 -0.087423 0.459945
v 0.142874 0.087427 0.459945
v 0.082474 -0.087423 0.520345
v 0.082474 0.087427 0.520345
v -0.000024 -0.087423 0.542445
v -0.000024 0.087427 0.542445
v -0.082426 -0.087423 0.520345
v -0.082426 0.087427 0.520345
v -0.142826 -0.087423 0.459945
v -0.142826 0.087427 0.459945
v -0.484825 0.123187 0.127647
v 0.509474 0.087427 0.152246
v 0.484774 0.123187 0.127647
v -0.509426 0.087427 0.152246
v 0.509474 -0.087423 0.152246
v -0.509426 -0.087423 0.152246
v -0.484825 -0.123193 0.127647
v 0.484774 -0.123193 0.127647
v -0.509426 -0.087423 0.152246
v 0.509474 -0.087423 0.152246
v 0.509474 0.087427 0.152246
v -0.509426 0.087427 0.152246
v -0.040725 0.087427 0.307046
v -0.040725 -0.087423 0.307046
v -0.000024 0.087427 0.296047
v -0.000024 -0.087423 0.296047
v 0.040675 0.087427 0.307046
v 0.040675 -0.087423 0.307046
v 0.316676 -0.087423 -0.214654
v 0.646275 -0.087423 -0.119155
v 0.646275 0.087427 -0.119155
v 0.316676 0.087427 -0.214654
v -0.646225 -0.087423 -0.119155
v -0.316724 -0.087423 -0.214654
v -0.316724 0.087427 -0.214654
v -0.646225 0.087427 -0.119155
v -0.296526 -0.087423 -0.422454
v -0.084924 -0.087423 -0.459553
v -0.084924 0.087427 -0.459553
v -0.296526 0.087427 -0.422454
v 0.084875 -0.087423 -0.459553
v 0.296574 -0.087423 -0.422454
v 0.296574 0.087427 -0.422454
v 0.084875 0.087427 -0.459553
v -0.440925 -0.087423 -0.297854
v -0.296526 -0.087423 -0.422454
v -0.296526 0.087427 -0.422454
v -0.440925 0.087427 -0.297854
v 0.296574 -0.087423 -0.422454
v 0.440874 -0.087423 -0.297854
v 0.440874 0.087427 -0.297854
v 0.296574 0.087427 -0.422454
v -0.762426 -0.087423 -0.445155
v -0.646225 0.087427 -0.119155
v -0.762426 0.087427 -0.445155
v -0.646225 -0.087423 -0.119155
v -0.509426 -0.087423 -0.017554
v -0.509426 0.087427 0.152246
v -0.509426 0.087427 -0.017554
v -0.509426 -0.087423 0.152246
v -0.142826 -0.087423 0.459945
v -0.142826 0.087427 0.459945
v -0.164924 -0.087423 0.377546
v -0.164924 0.087427 0.377546
v -0.142826 -0.087423 0.295045
v -0.142826 0.087427 0.295045
v -0.057825 0.123187 0.244846
v -0.084924 0.087427 -0.459553
v -0.082426 0.087427 0.234645
v -0.057825 -0.123193 0.244846
v -0.084924 -0.087423 -0.459553
v -0.082426 -0.087423 0.234645
v -0.084924 -0.087423 -0.459553
v -0.082426 0.087427 0.234645
v -0.084924 0.087427 -0.459553
v -0.082426 -0.087423 0.234645
v 0.040675 -0.087423 0.448045
v 0.040675 0.087427 0.448045
v 0.070475 -0.087423 0.418247
v 0.070475 0.087427 0.418247
v 0.081375 -0.087423 0.377546
v 0.081375 0.087427 0.377546
v 0.070475 -0.087423 0.336847
v 0.070475 0.087427 0.336847
v 0.040675 0.087427 0.307046
v 0.040675 -0.087423 0.307046
v -0.398824 -0.123193 -0.546855
v -0.588726 -0.123193 -0.361954
v -0.595226 -0.087423 -0.390053
v -0.412626 -0.087423 -0.567753
v -0.100425 -0.123193 -0.670354
v -0.105325 -0.087423 -0.695054
v 0.100476 -0.123193 -0.670354
v 0.105376 -0.087423 -0.695054
v 0.412674 -0.087423 -0.567753
v 0.398875 -0.123193 -0.546855
v 0.595274 -0.087423 -0.390053
v 0.588774 -0.123193 -0.361954
v -0.646225 -0.087423 -0.119155
v -0.762426 -0.087423 -0.445155
v -0.722326 -0.123193 -0.405955
v -0.630825 -0.123193 -0.149254
v 0.646275 -0.087423 -0.119155
v 0.722275 -0.123193 -0.405955
v 0.762375 -0.087423 -0.445155
v 0.630776 -0.123193 -0.149254
v -0.509426 -0.087423 0.152246
v -0.509426 -0.087423 -0.017554
v -0.484825 -0.123193 0.007146
v -0.484825 -0.123193 0.127647
v 0.484774 -0.123193 0.007146
v 0.509474 -0.087423 0.152246
v 0.484774 -0.123193 0.127647
v 0.509474 -0.087423 -0.017554
v -0.595226 -0.087423 -0.390053
v -0.722326 -0.123193 -0.405955
v -0.762426 -0.087423 -0.445155
v -0.588726 -0.123193 -0.361954
v 0.595274 -0.087423 -0.390053
v 0.762375 -0.087423 -0.445155
v 0.722275 -0.123193 -0.405955
v 0.588774 -0.123193 -0.361954
v 0.069676 -0.123193 0.498246
v -0.000024 -0.087423 0.542445
v -0.000024 -0.123193 0.516946
v 0.082474 -0.087423 0.520345
v -0.082426 -0.087423 0.520345
v 0.120776 -0.123193 0.447246
v -0.069725 -0.123193 0.498246
v 0.142874 -0.087423 0.459945
v -0.142826 -0.087423 0.459945
v 0.139374 -0.123193 0.377546
v -0.120725 -0.123193 0.447246
v 0.164975 -0.087423 0.377546
v -0.139425 -0.123193 0.377546
v -0.164924 -0.087423 0.377546
v 0.120776 -0.123193 0.307845
v -0.120725 -0.123193 0.307845
v 0.142874 -0.087423 0.295045
v -0.142826 -0.087423 0.295045
v 0.082474 -0.087423 0.234645
v 0.057774 -0.123193 0.244846
v -0.082426 -0.087423 0.234645
v -0.057825 -0.123193 0.244846
v -0.057825 -0.123193 0.244846
v -0.084924 -0.087423 -0.459553
v -0.060325 -0.123193 -0.488953
v 0.057774 -0.123193 0.244846
v 0.060376 -0.123193 -0.488953
v 0.084875 -0.087423 -0.459553
v 0.509474 -0.087423 -0.017554
v -0.484825 -0.123193 0.007146
v -0.509426 -0.087423 -0.017554
v 0.484774 -0.123193 0.007146
v -0.053424 -0.123193 0.470146
v -0.000024 -0.123193 0.484447
v -0.000024 -0.123193 0.516946
v 0.053475 -0.123193 0.470146
v -0.069725 -0.123193 0.498246
v 0.069676 -0.123193 0.498246
v -0.092624 -0.123193 0.430946
v 0.120776 -0.123193 0.447246
v -0.120725 -0.123193 0.447246
v 0.092575 -0.123193 0.430946
v -0.139425 -0.123193 0.377546
v 0.139374 -0.123193 0.377546
v -0.106926 -0.123193 0.377546
v 0.106974 -0.123193 0.377546
v 0.092575 -0.123193 0.324046
v 0.120776 -0.123193 0.307845
v -0.120725 -0.123193 0.307845
v 0.053475 -0.123193 0.284946
v -0.092624 -0.123193 0.324046
v 0.057774 -0.123193 0.244846
v -0.053424 -0.123193 0.284946
v -0.000024 -0.123193 0.270545
v -0.057825 -0.123193 0.244846
v 0.060376 -0.123193 -0.488953
v -0.060325 -0.123193 -0.488953
v -0.100425 -0.123193 -0.670354
v -0.307525 -0.123193 -0.445553
v 0.100476 -0.123193 -0.670354
v -0.398824 -0.123193 -0.546855
v 0.307576 -0.123193 -0.445553
v -0.481525 -0.123193 -0.295354
v 0.398875 -0.123193 -0.546855
v -0.588726 -0.123193 -0.361954
v 0.481474 -0.123193 -0.295354
v -0.630825 -0.123193 -0.149254
v -0.722326 -0.123193 -0.405955
v -0.374324 -0.123193 -0.223553
v 0.588774 -0.123193 -0.361954
v 0.630776 -0.123193 -0.149254
v 0.374375 -0.123193 -0.223553
v 0.722275 -0.123193 -0.405955
v 0.484774 -0.123193 0.007146
v -0.484825 -0.123193 0.127647
v -0.484825 -0.123193 0.007146
v 0.484774 -0.123193 0.127647
v -0.040725 -0.087423 0.448045
v -0.000024 -0.087423 0.458946
v -0.000024 -0.123193 0.484447
v 0.040675 -0.087423 0.448045
v -0.053424 -0.123193 0.470146
v 0.053475 -0.123193 0.470146
v -0.070526 -0.087423 0.418247
v 0.070475 -0.087423 0.418247
v -0.092624 -0.123193 0.430946
v 0.092575 -0.123193 0.430946
v -0.106926 -0.123193 0.377546
v -0.081424 -0.087423 0.377546
v 0.081375 -0.087423 0.377546
v 0.106974 -0.123193 0.377546
v -0.092624 -0.123193 0.324046
v -0.070526 -0.087423 0.336847
v -0.040725 -0.087423 0.307046
v 0.092575 -0.123193 0.324046
v -0.053424 -0.123193 0.284946
v 0.070475 -0.087423 0.336847
v -0.000024 -0.087423 0.296047
v 0.040675 -0.087423 0.307046
v -0.000024 -0.123193 0.270545
v 0.053475 -0.123193 0.284946
v -0.374324 -0.123193 -0.223553
v -0.481525 -0.123193 -0.295354
v -0.440925 -0.087423 -0.297854
v -0.316724 -0.087423 -0.214654
v 0.316676 -0.087423 -0.214654
v 0.440874 -0.087423 -0.297854
v 0.374375 -0.123193 -0.223553
v 0.481474 -0.123193 -0.295354
v -0.646225 -0.087423 -0.119155
v -0.374324 -0.123193 -0.223553
v -0.316724 -0.087423 -0.214654
v -0.630825 -0.123193 -0.149254
v 0.646275 -0.087423 -0.119155
v 0.374375 -0.123193 -0.223553
v 0.630776 -0.123193 -0.149254
v 0.316676 -0.087423 -0.214654
v 0.307576 -0.123193 -0.445553
v 0.481474 -0.123193 -0.295354
v 0.440874 -0.087423 -0.297854
v 0.296574 -0.087423 -0.422454
v 0.084875 -0.087423 -0.459553
v 0.060376 -0.123193 -0.488953
v -0.307525 -0.123193 -0.445553
v -0.060325 -0.123193 -0.488953
v -0.084924 -0.087423 -0.459553
v -0.296526 -0.087423 -0.422454
v -0.440925 -0.087423 -0.297854
v -0.481525 -0.123193 -0.295354
v -0.105325 -0.087423 -0.695054
v -0.412626 0.087427 -0.567753
v -0.105325 0.087427 -0.695054
v -0.412626 -0.087423 -0.567753
v -0.595226 0.087427 -0.390053
v -0.595226 -0.087423 -0.390053
v 0.105376 -0.087423 -0.695054
v 0.105376 0.087427 -0.695054
v 0.412674 -0.087423 -0.567753
v 0.412674 0.087427 -0.567753
v 0.595274 -0.087423 -0.390053
v 0.595274 0.087427 -0.390053
v 0.142874 -0.087423 0.295045
v 0.142874 0.087427 0.295045
v 0.082474 0.087427 0.234645
v 0.082474 -0.087423 0.234645
v -0.142826 -0.087423 0.295045
v -0.142826 0.087427 0.295045
v -0.082426 -0.087423 0.234645
v -0.082426 0.087427 0.234645
v 0.762375 -0.087423 -0.445155
v 0.595274 0.087427 -0.390053
v 0.762375 0.087427 -0.445155
v 0.595274 -0.087423 -0.390053
v -0.595226 0.087427 -0.390053
v -0.595226 -0.087423 -0.390053
v -0.762426 0.087427 -0.445155
v -0.762426 -0.087423 -0.445155
v -0.509426 0.087427 -0.017554
v 0.509474 0.087427 -0.017554
v 0.509474 -0.087423 -0.017554
v -0.509426 -0.087423 -0.017554
v 0.440874 0.087427 -0.297854
v 0.440874 -0.087423 -0.297854
v 0.316676 0.087427 -0.214654
v 0.316676 -0.087423 -0.214654
v -0.316724 -0.087423 -0.214654
v -0.440925 0.087427 -0.297854
v -0.316724 0.087427 -0.214654
v -0.440925 -0.087423 -0.297854
v -0.040725 0.087427 0.448045
v -0.040725 -0.087423 0.448045
v -0.000024 -0.087423 0.458946
v -0.000024 0.087427 0.458946
v 0.040675 -0.087423 0.448045
v 0.040675 0.087427 0.448045
vn 0.9414 -0.0000 0.3373
vn 1.0000 -0.0000 -0.0000
vn 0.8644 -0.0000 -0.5028
vn 0.8644 -0.0001 -0.5028
vn 1.0000 -0.0000 0.0002
vn 0.8644 -0.0000 0.5028
vn 0.8248 0.5655 -0.0000
vn 0.8248 -0.5654 -0.0000
vn 0.5030 -0.0000 -0.8643
vn 0.5029 -0.0000 -0.8643
vn 0.8643 -0.0000 -0.5029
vn 0.8644 -0.0000 -0.5029
vn 0.8643 -0.0000 0.5029
vn 0.5030 -0.0000 0.8643
vn -0.5746 0.5669 -0.5903
vn -0.4486 0.5744 -0.6846
vn -0.4485 0.5745 -0.6847
vn -0.1575 0.5747 -0.8030
vn -0.1575 0.5748 -0.8030
vn 0.1575 0.5748 -0.8030
vn 0.1575 0.5747 -0.8030
vn 0.4486 0.5745 -0.6847
vn 0.4487 0.5744 -0.6846
vn 0.5746 0.5669 -0.5904
vn 0.5747 0.5668 -0.5903
vn -0.7776 0.5654 0.2749
vn -0.7776 0.5655 0.2749
vn 0.7776 0.5655 0.2749
vn -0.8247 0.5656 -0.0000
vn 0.8247 0.5655 -0.0000
vn 0.2603 0.5679 -0.7808
vn 0.2603 0.5679 -0.7809
vn 0.2602 0.5679 -0.7809
vn -0.2603 0.5679 -0.7809
vn -0.0000 0.5835 0.8121
vn 0.4074 0.5800 0.7054
vn 0.4075 0.5799 0.7054
vn -0.4074 0.5802 0.7053
vn 0.7054 0.5800 0.4075
vn -0.4074 0.5804 0.7051
vn 0.7054 0.5799 0.4076
vn -0.7052 0.5804 0.4071
vn 0.8122 0.5833 -0.0000
vn -0.7053 0.5801 0.4075
vn 0.8121 0.5835 -0.0000
vn -0.8121 0.5835 -0.0000
vn 0.7053 0.5800 -0.4075
vn 0.7054 0.5799 -0.4076
vn 0.5825 0.5668 -0.5825
vn 0.5825 0.5669 -0.5825
vn -0.7054 0.5800 -0.4075
vn -0.7054 0.5799 -0.4075
vn -0.5826 0.5669 -0.5825
vn -0.5826 0.5668 -0.5825
vn -0.8247 0.5655 -0.0000
vn 0.8247 0.5656 -0.0000
vn -0.0000 0.5655 -0.8247
vn -0.0000 1.0000 -0.0000
vn 0.4072 0.5804 -0.7052
vn -0.0000 0.5834 -0.8122
vn -0.0000 0.5835 -0.8121
vn -0.4075 0.5801 -0.7053
vn 0.4073 0.5801 -0.7054
vn -0.4075 0.5800 -0.7054
vn -0.7053 0.5800 -0.4075
vn 0.7054 0.5799 -0.4075
vn -0.7053 0.5801 -0.4074
vn 0.4075 0.5801 0.7053
vn 0.4075 0.5800 0.7054
vn -0.7054 0.5799 0.4076
vn -0.4075 0.5801 0.7053
vn -0.4075 0.5799 0.7054
vn 0.4569 0.5672 -0.6852
vn 0.4569 0.5671 -0.6853
vn 0.4568 0.5671 -0.6853
vn -0.4568 0.5671 -0.6853
vn -0.4569 0.5671 -0.6853
vn -0.4569 0.5672 -0.6853
vn 0.2291 0.5687 0.7900
vn 0.2291 0.5688 0.7899
vn -0.2291 0.5687 0.7900
vn -0.2291 0.5688 0.7899
vn -0.5368 0.5684 0.6236
vn -0.3472 0.5839 0.7338
vn -0.5368 0.5683 0.6235
vn -0.1418 0.5672 0.8113
vn 0.3472 0.5839 0.7338
vn 0.1418 0.5671 0.8113
vn 0.5368 0.5684 0.6236
vn 0.5368 0.5683 0.6236
vn 0.8643 -0.0000 0.5030
vn 0.5028 -0.0000 0.8644
vn 0.5029 -0.0000 0.8643
vn -0.0001 -0.0000 1.0000
vn -0.5029 -0.0000 0.8643
vn -0.5029 -0.0000 0.8644
vn -0.8643 -0.0000 0.5030
vn -0.0000 0.5655 0.8247
vn -0.0000 0.5655 0.8248
vn -0.0000 -0.5655 0.8247
vn -0.0000 -0.5656 0.8247
vn -0.0000 -0.0000 1.0000
vn 0.5029 -0.0000 0.8644
vn -0.5028 -0.0000 0.8644
vn -0.2758 -0.0000 0.9612
vn 0.2757 -0.0000 0.9612
vn 0.1730 -0.0000 0.9849
vn 0.1733 -0.0000 0.9849
vn 0.1732 -0.0000 0.9849
vn -0.1733 -0.0000 0.9849
vn 0.6540 -0.0000 0.7565
vn 0.6541 -0.0000 0.7564
vn -0.6541 -0.0000 0.7564
vn -0.6542 -0.0000 0.7563
vn -0.9414 -0.0000 0.3373
vn -1.0000 -0.0000 -0.0000
vn -0.8644 -0.0000 0.5028
vn -1.0000 -0.0000 0.0002
vn -0.8644 -0.0000 -0.5028
vn -0.8247 -0.5655 -0.0000
vn -0.5029 -0.0000 -0.8643
vn -0.8644 -0.0000 -0.5029
vn -0.5030 -0.0000 -0.8643
vn -0.8643 -0.0000 -0.5029
vn -0.8643 -0.0000 0.5029
vn -0.8644 -0.0000 0.5029
vn -0.5030 -0.0000 0.8643
vn -0.4485 -0.5745 -0.6847
vn -0.5747 -0.5667 -0.5904
vn -0.5746 -0.5669 -0.5903
vn -0.4486 -0.5745 -0.6847
vn -0.1575 -0.5748 -0.8030
vn 0.1575 -0.5747 -0.8030
vn 0.1575 -0.5748 -0.8030
vn 0.4486 -0.5745 -0.6847
vn 0.5747 -0.5667 -0.5904
vn 0.5746 -0.5669 -0.5903
vn -0.7777 -0.5654 0.2749
vn -0.7776 -0.5655 0.2749
vn 0.7776 -0.5655 0.2749
vn -0.8248 -0.5654 -0.0000
vn -0.8247 -0.5656 -0.0000
vn -0.8246 -0.5657 -0.0000
vn 0.8247 -0.5655 -0.0000
vn 0.8248 -0.5655 -0.0000
vn 0.2603 -0.5679 -0.7809
vn 0.2603 -0.5679 -0.7808
vn -0.2603 -0.5679 -0.7809
vn -0.2602 -0.5679 -0.7809
vn 0.4076 -0.5799 0.7054
vn -0.0000 -0.5835 0.8121
vn -0.0000 -0.5834 0.8122
vn 0.4075 -0.5800 0.7054
vn -0.4072 -0.5803 0.7053
vn 0.7054 -0.5799 0.4076
vn -0.4076 -0.5799 0.7054
vn 0.7054 -0.5800 0.4075
vn -0.7053 -0.5803 0.4072
vn 0.8122 -0.5833 -0.0000
vn -0.7051 -0.5803 0.4075
vn 0.8122 -0.5834 -0.0000
vn -0.8121 -0.5835 -0.0000
vn 0.7054 -0.5799 -0.4076
vn -0.7054 -0.5801 -0.4074
vn 0.7054 -0.5800 -0.4075
vn -0.7054 -0.5800 -0.4075
vn 0.5826 -0.5667 -0.5825
vn 0.5825 -0.5669 -0.5825
vn -0.5826 -0.5668 -0.5825
vn -0.5830 -0.5669 -0.5820
vn 0.8247 -0.5656 -0.0000
vn -0.0000 -0.5655 -0.8247
vn -0.0000 -1.0000 -0.0000
vn 0.4075 -0.5799 -0.7054
vn -0.0000 -0.5835 -0.8121
vn -0.4075 -0.5800 -0.7054
vn 0.4076 -0.5799 -0.7054
vn 0.7052 -0.5803 -0.4073
vn 0.8121 -0.5835 -0.0000
vn 0.7053 -0.5800 0.4075
vn 0.7054 -0.5799 0.4075
vn 0.4076 -0.5801 0.7052
vn -0.7053 -0.5800 0.4075
vn 0.4073 -0.5802 0.7053
vn -0.7054 -0.5799 0.4075
vn -0.4076 -0.5800 0.7054
vn -0.4075 -0.5801 0.7053
vn 0.4568 -0.5671 -0.6853
vn 0.4568 -0.5672 -0.6853
vn 0.4569 -0.5672 -0.6853
vn -0.4569 -0.5671 -0.6853
vn -0.4568 -0.5671 -0.6853
vn 0.2291 -0.5687 0.7900
vn 0.2291 -0.5688 0.7899
vn -0.2291 -0.5687 0.7900
vn -0.2291 -0.5688 0.7899
vn -0.3472 -0.5839 0.7338
vn -0.5368 -0.5683 0.6236
vn -0.5367 -0.5684 0.6236
vn -0.1418 -0.5672 0.8113
vn 0.3472 -0.5839 0.7338
vn 0.1418 -0.5672 0.8113
vn 0.1418 -0.5671 0.8113
vn 0.5368 -0.5683 0.6236
vn -0.1962 -0.0000 -0.9806
vn -0.5511 -0.0000 -0.8344
vn -0.1960 -0.0000 -0.9806
vn -0.6992 -0.0000 -0.7149
vn 0.1960 -0.0000 -0.9806
vn 0.1962 -0.0000 -0.9806
vn 0.5510 -0.0000 -0.8345
vn 0.5511 -0.0000 -0.8344
vn 0.6992 -0.0000 -0.7149
vn 0.8643 -0.0000 -0.5030
vn 0.7071 -0.0000 -0.7071
vn -0.8643 -0.0000 -0.5030
vn -0.7071 -0.0000 -0.7071
vn -0.3138 -0.0000 -0.9495
vn -0.3139 -0.0000 -0.9495
vn -0.3137 -0.0000 -0.9495
vn 0.3139 -0.0000 -0.9495
vn 0.3138 -0.0000 -0.9495
vn -0.0000 -0.0000 -1.0000
vn -0.5566 -0.0000 -0.8308
vn 0.5565 -0.0000 -0.8308
vn 0.5028 -0.0000 -0.8644
vn 0.5029 -0.0000 -0.8644
vn -0.5028 -0.0000 -0.8644
vt 1.071500 -0.422031
vt 1.104100 -0.422031
vt 1.104100 -0.404546
vt 1.071500 -0.404546
vt 1.061340 -0.422031
vt 1.061340 -0.404546
vt 1.044360 -0.422031
vt 1.044360 -0.404546
vt 1.030080 -0.422031
vt 1.030080 -0.404546
vt 1.021830 -0.422031
vt 1.021830 -0.404546
vt 1.013590 -0.422031
vt 1.013590 -0.404546
vt 1.105540 -0.404546
vt 1.035100 -0.400970
vt 1.036120 -0.404546
vt 1.035100 -0.425607
vt 1.105540 -0.422031
vt 1.036120 -0.422031
vt 1.014780 -0.404546
vt 1.014780 -0.422031
vt 1.017760 -0.404546
vt 1.017760 -0.422031
vt 1.025910 -0.404546
vt 1.025910 -0.422031
vt 1.028890 -0.404546
vt 1.028890 -0.422031
vt 1.126740 -0.444668
vt 1.107100 -0.460341
vt 1.108480 -0.462438
vt 1.126090 -0.441860
vt 1.077260 -0.472696
vt 1.077750 -0.475161
vt 1.056680 -0.475161
vt 1.057170 -0.472696
vt 1.025950 -0.462438
vt 1.027330 -0.460341
vt 1.007690 -0.444668
vt 1.008340 -0.441860
vt 1.131840 -0.417573
vt 1.139440 -0.446255
vt 1.143450 -0.450171
vt 1.130290 -0.420586
vt 1.002590 -0.417573
vt 0.990973 -0.450171
vt 0.994985 -0.446255
vt 1.004130 -0.420586
vt 1.115690 -0.404950
vt 1.118160 -0.390434
vt 1.115690 -0.392899
vt 1.118160 -0.407415
vt 1.016270 -0.390434
vt 1.016270 -0.407415
vt 1.018740 -0.404950
vt 1.018740 -0.392899
vt 1.067210 -0.351416
vt 1.060240 -0.355835
vt 1.067210 -0.353968
vt 1.058970 -0.353626
vt 1.075460 -0.353626
vt 1.055140 -0.360939
vt 1.074180 -0.355835
vt 1.052930 -0.359663
vt 1.081500 -0.359663
vt 1.053270 -0.367910
vt 1.079290 -0.360939
vt 1.050720 -0.367910
vt 1.081160 -0.367910
vt 1.083710 -0.367910
vt 1.055140 -0.374880
vt 1.052930 -0.376156
vt 1.058970 -0.382193
vt 1.061430 -0.381175
vt 1.079290 -0.374880
vt 1.081500 -0.376156
vt 1.075460 -0.382193
vt 1.072990 -0.381175
vt 1.073250 -0.454552
vt 1.075700 -0.451618
vt 1.058720 -0.451618
vt 1.061180 -0.454552
vt 1.036460 -0.450213
vt 1.097970 -0.450213
vt 1.019060 -0.435195
vt 1.115360 -0.435195
vt 1.029780 -0.428018
vt 1.104650 -0.428018
vt 1.072560 -0.358649
vt 1.067210 -0.357216
vt 1.061870 -0.358649
vt 1.076470 -0.362563
vt 1.057950 -0.362563
vt 1.077910 -0.367910
vt 1.056520 -0.367910
vt 1.057950 -0.373256
vt 1.076470 -0.373256
vt 1.072560 -0.377170
vt 1.061870 -0.377170
vt 1.067210 -0.378603
vt 1.071280 -0.360859
vt 1.067210 -0.359768
vt 1.063140 -0.360859
vt 1.074260 -0.363839
vt 1.060160 -0.363839
vt 1.075360 -0.367910
vt 1.059070 -0.367910
vt 1.074260 -0.371980
vt 1.071280 -0.374960
vt 1.060160 -0.371980
vt 1.063140 -0.374960
vt 1.067210 -0.376051
vt 1.098880 -0.427123
vt 1.111300 -0.435443
vt 1.023120 -0.435443
vt 1.035540 -0.427123
vt 1.037560 -0.447903
vt 1.096870 -0.447903
vt 1.081500 -0.422031
vt 1.081500 -0.404546
vt 1.075460 -0.422031
vt 1.075460 -0.404546
vt 1.067210 -0.422031
vt 1.067210 -0.404546
vt 1.058970 -0.422031
vt 1.058970 -0.404546
vt 1.052930 -0.422031
vt 1.052930 -0.404546
vt 1.018740 -0.400970
vt 1.118160 -0.404546
vt 1.115690 -0.400970
vt 1.016270 -0.404546
vt 1.118160 -0.422031
vt 1.016270 -0.422031
vt 1.018740 -0.425607
vt 1.115690 -0.425607
vt 1.063140 -0.422031
vt 1.063140 -0.404546
vt 1.071280 -0.404546
vt 1.071280 -0.422031
vt 1.098880 -0.422031
vt 1.131840 -0.422031
vt 1.131840 -0.404546
vt 1.098880 -0.404546
vt 1.002590 -0.422031
vt 1.035540 -0.422031
vt 1.035540 -0.404546
vt 1.002590 -0.404546
vt 1.037560 -0.422031
vt 1.058720 -0.422031
vt 1.058720 -0.404546
vt 1.037560 -0.404546
vt 1.075700 -0.422031
vt 1.096870 -0.422031
vt 1.096870 -0.404546
vt 1.075700 -0.404546
vt 1.023120 -0.422031
vt 1.023120 -0.404546
vt 1.111300 -0.422031
vt 1.111300 -0.404546
vt 1.030330 -0.422031
vt 1.062930 -0.404546
vt 1.030330 -0.404546
vt 1.062930 -0.422031
vt 1.073090 -0.422031
vt 1.090070 -0.404546
vt 1.073090 -0.404546
vt 1.090070 -0.422031
vt 1.120840 -0.404546
vt 1.112590 -0.422031
vt 1.120840 -0.422031
vt 1.112590 -0.404546
vt 1.104350 -0.422031
vt 1.104350 -0.404546
vt 1.099330 -0.400970
vt 1.028880 -0.404546
vt 1.098310 -0.404546
vt 1.028880 -0.422031
vt 1.099330 -0.425607
vt 1.098310 -0.422031
vt 1.119640 -0.404546
vt 1.116660 -0.422031
vt 1.119640 -0.422031
vt 1.116660 -0.404546
vt 1.108520 -0.422031
vt 1.108520 -0.404546
vt 1.077750 -0.422031
vt 1.108480 -0.404546
vt 1.077750 -0.404546
vt 1.108480 -0.422031
vt 1.126740 -0.404546
vt 1.126740 -0.422031
vt 1.056680 -0.422031
vt 1.056680 -0.404546
vt 1.025950 -0.422031
vt 1.025950 -0.404546
vt 1.007690 -0.422031
vt 1.007690 -0.404546
vt 0.990973 -0.422031
vt 0.990973 -0.404546
vt 1.143450 -0.404546
vt 1.143450 -0.422031
s 1
usemtl Anchor1Mtl.001
f 1/1/1 2/2/1 3/3/1
f 3/3/1 4/4/1 1/1/1
f 5/5/2 6/6/2 7/7/2
f 6/6/2 8/8/2 7/7/2
f 9/9/3 10/10/4 11/11/5
f 10/10/4 12/12/5 11/11/5
f 11/11/5 12/12/5 13/13/6
f 12/12/5 14/14/6 13/13/6
f 16/15/7 15/16/7 17/17/7
f 18/18/8 19/19/8 20/20/8
f 21/20/2 22/19/2 23/15/2
f 23/15/2 24/17/2 21/20/2
f 25/21/9 26/22/10 27/23/11
f 28/24/12 27/23/11 26/22/10
f 27/23/11 28/24/12 29/12/2
f 30/11/2 29/12/2 28/24/12
f 29/12/2 30/11/2 31/25/13
f 32/26/13 31/25/13 30/11/2
f 31/25/13 32/26/13 33/27/14
f 34/28/14 33/27/14 32/26/13
f 35/29/15 36/30/16 37/31/17
f 36/30/16 35/29/15 38/32/15
f 39/33/18 37/31/17 36/30/16
f 37/31/17 39/33/18 40/34/19
f 41/35/20 40/34/19 39/33/18
f 41/35/20 39/33/18 42/36/21
f 43/37/22 41/35/20 42/36/21
f 42/36/21 44/38/23 43/37/22
f 45/39/24 43/37/22 44/38/23
f 44/38/23 46/40/25 45/39/24
f 47/41/26 48/42/27 49/43/27
f 48/42/27 47/41/26 50/44/27
f 51/45/28 52/46/28 53/47/28
f 51/45/28 53/47/28 54/48/28
f 55/49/29 56/50/29 57/51/29
f 56/50/29 55/49/29 58/52/29
f 59/53/30 60/54/30 61/55/30
f 59/53/30 61/55/30 62/56/30
f 63/29/31 64/43/32 65/42/33
f 65/42/33 66/32/32 63/29/31
f 67/39/34 68/47/34 69/46/34
f 68/47/34 67/39/34 70/40/34
f 71/57/35 72/58/36 73/59/35
f 72/58/36 71/57/35 74/60/37
f 73/59/35 75/61/38 71/57/35
f 74/60/37 76/62/39 72/58/36
f 73/59/35 77/63/40 75/61/38
f 74/60/37 78/64/41 76/62/39
f 79/65/42 75/61/38 77/63/40
f 78/64/41 80/66/43 76/62/39
f 79/65/42 77/63/40 81/67/44
f 78/64/41 82/68/45 80/66/43
f 83/69/46 79/65/42 81/67/44
f 79/65/42 83/69/46 84/70/46
f 85/71/47 80/66/43 82/68/45
f 85/71/47 82/68/45 86/72/48
f 87/73/49 85/71/47 86/72/48
f 85/71/47 87/73/49 88/74/50
f 89/75/51 84/70/46 83/69/46
f 84/70/46 89/75/51 90/76/52
f 89/75/51 91/77/53 90/76/52
f 89/75/51 92/78/54 91/77/53
f 93/78/55 94/79/55 95/80/55
f 96/74/56 97/81/56 98/82/56
f 99/54/57 100/52/57 101/49/57
f 99/54/57 101/49/57 102/55/57
f 103/79/58 104/78/58 105/82/58
f 106/36/58 103/79/58 105/82/58
f 105/82/58 104/78/58 107/74/58
f 108/83/58 106/36/58 105/82/58
f 103/79/58 106/36/58 109/33/58
f 106/36/58 108/83/58 110/38/58
f 109/33/58 111/84/58 103/79/58
f 112/30/58 111/84/58 109/33/58
f 113/85/58 110/38/58 108/83/58
f 112/30/58 114/86/58 111/84/58
f 110/38/58 113/85/58 115/40/58
f 114/86/58 112/30/58 116/32/58
f 117/48/58 115/40/58 113/85/58
f 117/48/58 118/47/58 115/40/58
f 113/85/58 119/87/58 117/48/58
f 120/44/58 114/86/58 116/32/58
f 114/86/58 120/44/58 121/88/58
f 122/42/58 120/44/58 116/32/58
f 123/89/58 124/59/58 125/90/58
f 124/59/58 126/91/58 125/90/58
f 124/59/58 123/89/58 127/63/58
f 126/91/58 124/59/58 128/58/58
f 129/92/58 127/63/58 123/89/58
f 128/58/58 130/62/58 126/91/58
f 131/67/58 127/63/58 129/92/58
f 130/62/58 132/93/58 126/91/58
f 129/92/58 133/69/58 131/67/58
f 130/62/58 134/66/58 132/93/58
f 133/69/58 129/92/58 135/94/58
f 132/93/58 134/66/58 136/95/58
f 135/94/58 137/75/58 133/69/58
f 134/66/58 138/96/58 136/95/58
f 137/75/58 135/94/58 139/97/58
f 138/96/58 134/66/58 140/71/58
f 141/98/58 137/75/58 139/97/58
f 140/71/58 142/99/58 138/96/58
f 104/78/58 137/75/58 141/98/58
f 142/99/58 140/71/58 107/74/58
f 143/100/58 104/78/58 141/98/58
f 107/74/58 143/100/58 142/99/58
f 107/74/58 104/78/58 143/100/58
f 144/55/58 145/49/58 146/51/58
f 144/55/58 146/51/58 147/56/58
f 148/101/59 149/90/60 150/102/61
f 149/90/60 151/103/62 150/102/61
f 149/90/60 148/101/59 152/89/63
f 151/103/62 149/90/60 153/91/64
f 154/104/48 152/89/63 148/101/59
f 155/93/65 151/103/62 153/91/64
f 152/89/63 154/104/48 156/92/66
f 151/103/62 155/93/65 157/105/67
f 158/94/45 156/92/66 154/104/48
f 158/94/45 154/104/48 159/106/45
f 155/93/65 160/107/46 157/105/67
f 159/106/45 161/97/39 158/94/45
f 155/93/65 162/95/46 160/107/46
f 161/97/39 159/106/45 163/108/39
f 164/109/68 161/97/39 163/108/39
f 161/97/39 164/109/68 165/98/69
f 166/96/70 160/107/46 162/95/46
f 160/107/46 166/96/70 167/110/70
f 166/96/70 168/111/71 167/110/70
f 169/112/35 165/98/69 164/109/68
f 168/111/71 166/96/70 170/99/72
f 170/99/72 169/112/35 168/111/71
f 165/98/69 169/112/35 171/100/35
f 170/99/72 171/100/35 169/112/35
f 172/113/73 173/114/74 174/88/75
f 175/86/75 174/88/75 173/114/74
f 176/87/76 177/85/77 178/115/77
f 178/115/77 179/116/78 176/87/76
f 180/41/79 181/88/80 182/44/79
f 180/41/79 183/113/80 181/88/80
f 184/45/81 185/87/81 186/116/82
f 185/87/81 184/45/81 187/48/81
f 188/115/83 189/83/84 190/117/84
f 189/83/84 188/115/83 191/85/85
f 189/83/84 192/81/86 190/117/84
f 189/83/84 193/82/86 192/81/86
f 194/84/87 195/80/88 196/79/88
f 195/80/88 194/84/87 197/118/87
f 194/84/87 198/114/89 197/118/87
f 194/84/87 199/86/90 198/114/89
f 200/119/91 201/120/91 202/121/92
f 202/121/92 201/120/91 203/122/93
f 204/123/94 202/121/92 203/122/93
f 204/123/94 203/122/93 205/124/94
f 206/125/95 204/123/94 205/124/94
f 206/125/95 205/124/94 207/126/96
f 206/125/95 207/126/96 208/127/97
f 208/127/97 207/126/96 209/128/97
f 210/129/98 211/130/98 212/131/99
f 211/130/98 210/129/98 213/132/98
f 214/133/100 215/134/101 216/135/100
f 214/133/100 216/135/100 217/136/101
f 218/134/102 219/133/102 220/130/102
f 218/134/102 220/130/102 221/132/102
f 223/137/92 224/124/102 222/138/103
f 225/123/102 224/124/102 223/137/92
f 225/123/102 226/139/104 224/124/102
f 227/140/96 226/139/104 225/123/102
f 228/141/105 229/142/105 230/143/105
f 228/141/105 230/143/105 231/144/105
f 232/145/106 233/146/106 234/147/106
f 232/145/106 234/147/106 235/148/106
f 236/149/107 237/150/108 238/151/109
f 236/149/107 238/151/109 239/152/108
f 240/153/110 241/154/110 242/155/110
f 240/153/110 242/155/110 243/156/110
f 244/157/111 245/149/112 246/152/111
f 244/157/111 246/152/111 247/158/112
f 248/154/113 249/159/114 250/160/114
f 248/154/113 250/160/114 251/155/113
f 252/161/115 253/162/115 254/163/115
f 253/162/115 252/161/115 255/164/115
f 256/165/116 257/166/116 258/167/116
f 257/166/116 256/165/116 259/168/116
f 261/169/117 262/170/118 260/171/117
f 262/170/118 261/169/117 263/172/118
f 263/172/118 264/173/119 262/170/118
f 264/173/119 263/172/118 265/174/119
f 266/175/55 267/176/55 268/177/55
f 270/178/120 269/179/120 271/180/120
f 272/178/116 273/177/116 274/176/116
f 273/177/116 272/178/116 275/180/116
f 277/181/121 278/182/122 276/183/123
f 278/182/122 277/181/121 279/184/124
f 279/184/124 280/170/116 278/182/122
f 280/170/116 279/184/124 281/172/116
f 281/172/116 282/185/125 280/170/116
f 282/185/125 281/172/116 283/186/126
f 283/186/126 285/19/127 282/185/125
f 285/19/127 283/186/126 284/15/127
f 286/38/128 287/40/129 288/39/130
f 288/39/130 289/37/131 286/38/128
f 290/36/132 286/38/128 289/37/131
f 289/37/131 291/35/132 290/36/132
f 291/35/132 292/33/133 290/36/132
f 291/35/132 293/34/134 292/33/133
f 294/31/135 292/33/133 293/34/134
f 292/33/133 294/31/135 295/30/135
f 296/29/136 295/30/135 294/31/135
f 295/30/135 296/29/136 297/32/137
f 298/45/138 299/46/139 300/47/139
f 298/45/138 300/47/139 301/48/138
f 302/41/140 303/42/140 304/43/140
f 303/42/140 302/41/140 305/44/140
f 306/53/141 307/54/142 308/55/120
f 306/53/141 308/55/120 309/56/143
f 310/49/144 311/50/144 312/51/145
f 311/50/144 310/49/144 313/52/145
f 314/39/146 315/47/146 316/46/146
f 315/47/146 314/39/146 317/40/147
f 318/29/148 319/43/148 320/42/149
f 320/42/149 321/32/148 318/29/148
f 322/63/150 323/57/151 324/59/152
f 323/57/151 322/63/150 325/61/153
f 326/60/154 324/59/152 323/57/151
f 327/67/155 325/61/153 322/63/150
f 324/59/152 326/60/154 328/58/156
f 325/61/153 327/67/155 329/65/157
f 330/64/158 328/58/156 326/60/154
f 331/69/159 329/65/157 327/67/155
f 328/58/156 330/64/158 332/62/160
f 329/65/157 331/69/159 333/70/161
f 330/64/158 334/66/162 332/62/160
f 334/66/162 330/64/158 335/68/162
f 336/75/163 333/70/161 331/69/159
f 335/68/162 337/71/164 334/66/162
f 333/70/161 336/75/163 338/76/165
f 337/71/164 335/68/162 339/72/166
f 336/75/163 340/77/167 338/76/165
f 336/75/163 341/78/168 340/77/167
f 342/73/169 337/71/164 339/72/166
f 337/71/164 342/73/169 343/74/170
f 344/74/120 345/81/120 346/82/120
f 347/78/171 348/79/171 349/80/171
f 350/52/172 351/55/172 352/54/172
f 351/55/172 350/52/172 353/49/172
f 354/91/173 355/90/173 356/59/173
f 357/89/173 356/59/173 355/90/173
f 356/59/173 358/58/173 354/91/173
f 356/59/173 357/89/173 359/63/173
f 358/58/173 360/93/173 354/91/173
f 357/89/173 361/67/173 359/63/173
f 358/58/173 362/62/173 360/93/173
f 361/67/173 357/89/173 363/92/173
f 364/66/173 360/93/173 362/62/173
f 365/69/173 361/67/173 363/92/173
f 360/93/173 364/66/173 366/95/173
f 365/69/173 363/92/173 367/94/173
f 368/97/173 365/69/173 367/94/173
f 365/69/173 368/97/173 369/75/173
f 370/71/173 366/95/173 364/66/173
f 371/98/173 369/75/173 368/97/173
f 366/95/173 370/71/173 372/96/173
f 369/75/173 371/98/173 373/78/173
f 374/99/173 372/96/173 370/71/173
f 373/78/173 371/98/173 375/100/173
f 370/71/173 376/74/173 374/99/173
f 376/74/173 375/100/173 374/99/173
f 375/100/173 376/74/173 373/78/173
f 376/74/173 377/79/173 373/78/173
f 377/79/173 376/74/173 378/82/173
f 379/36/173 377/79/173 378/82/173
f 378/82/173 380/83/173 379/36/173
f 381/33/173 377/79/173 379/36/173
f 380/83/173 382/38/173 379/36/173
f 377/79/173 381/33/173 383/84/173
f 384/85/173 382/38/173 380/83/173
f 381/33/173 385/30/173 383/84/173
f 382/38/173 384/85/173 386/40/173
f 385/30/173 387/86/173 383/84/173
f 388/48/173 386/40/173 384/85/173
f 386/40/173 388/48/173 389/47/173
f 384/85/173 390/87/173 388/48/173
f 387/86/173 385/30/173 391/32/173
f 392/44/173 387/86/173 391/32/173
f 387/86/173 392/44/173 393/88/173
f 394/42/173 392/44/173 391/32/173
f 395/49/173 396/56/173 397/55/173
f 396/56/173 395/49/173 398/51/173
f 399/103/174 400/102/175 401/90/175
f 402/101/176 401/90/175 400/102/175
f 401/90/175 403/91/177 399/103/174
f 401/90/175 402/101/176 404/89/176
f 403/91/177 405/105/178 399/103/174
f 406/104/164 404/89/176 402/101/176
f 403/91/177 407/93/165 405/105/178
f 404/89/176 406/104/164 408/92/164
f 409/95/179 405/105/178 407/93/165
f 405/105/178 409/95/179 410/107/161
f 411/106/162 408/92/164 406/104/164
f 408/92/164 411/106/162 412/94/162
f 413/96/180 410/107/161 409/95/179
f 410/107/161 413/96/180 414/110/181
f 415/111/182 414/110/181 413/96/180
f 416/97/183 412/94/162 411/106/162
f 413/96/180 417/99/184 415/111/182
f 411/106/162 418/108/185 416/97/183
f 417/99/184 419/112/151 415/111/182
f 420/109/186 416/97/183 418/108/185
f 417/99/184 421/100/151 419/112/151
f 416/97/183 420/109/186 422/98/187
f 422/98/187 419/112/151 421/100/151
f 419/112/151 422/98/187 420/109/186
f 423/87/188 424/85/189 425/115/189
f 425/115/189 426/116/190 423/87/188
f 427/113/191 428/114/191 429/88/191
f 430/86/192 429/88/191 428/114/191
f 431/45/193 432/87/194 433/116/193
f 432/87/194 431/45/193 434/48/193
f 435/41/195 436/88/196 437/44/196
f 435/41/195 438/113/195 436/88/196
f 439/84/197 440/86/198 441/114/199
f 439/84/197 441/114/199 442/118/197
f 443/80/200 439/84/197 442/118/197
f 439/84/197 443/80/200 444/79/200
f 445/83/201 446/82/202 447/81/203
f 445/83/201 447/81/203 448/117/201
f 449/115/204 445/83/201 448/117/201
f 445/83/201 449/115/204 450/85/204
f 451/187/205 452/188/206 453/189/207
f 452/188/206 451/187/205 454/190/206
f 452/188/206 454/190/206 455/191/208
f 455/191/208 454/190/206 456/192/208
f 453/189/207 457/193/209 451/187/205
f 453/189/207 458/194/210 457/193/209
f 458/194/210 459/195/211 457/193/209
f 458/194/210 460/196/212 459/195/211
f 460/196/212 461/197/213 459/195/211
f 461/197/213 460/196/212 462/198/213
f 464/128/214 463/127/214 465/126/215
f 465/126/215 463/127/214 466/125/215
f 468/120/216 469/121/217 467/119/216
f 469/121/217 468/120/216 470/122/217
f 471/199/218 472/198/219 473/200/220
f 472/198/219 471/199/218 474/197/220
f 475/191/221 476/192/222 477/201/222
f 477/201/222 476/192/222 478/202/221
f 479/130/223 480/132/223 481/134/223
f 479/130/223 481/134/223 482/133/223
f 483/158/224 484/157/224 485/147/224
f 485/147/224 484/157/224 486/146/224
f 487/141/225 488/160/225 489/144/225
f 488/160/225 487/141/225 490/159/225
f 491/139/226 493/123/223 492/140/227
f 494/124/223 493/123/223 491/139/226
f 494/124/223 495/137/228 493/123/223
f 495/137/228 494/124/223 496/138/121
