# Blender 5.1.2
# www.blender.org
mtllib input.mtl
o input
v 0.294732 0.005947 -0.240001
v 0.234732 -0.144053 -0.300000
v 0.234732 0.005947 -0.300000
v 0.294732 -0.144053 -0.240001
v 0.264732 0.055947 -0.210000
v 0.204732 0.005947 -0.270002
v 0.204732 0.055947 -0.270002
v 0.264732 0.005947 -0.210000
v 0.294732 0.005947 0.239999
v 0.294732 -0.144053 -0.240001
v 0.294732 0.005947 -0.240001
v 0.294732 -0.144053 0.239999
v 0.264732 0.055947 0.210000
v 0.264732 0.005947 -0.210000
v 0.264732 0.055947 -0.210000
v 0.264732 0.005947 0.210000
v -0.215269 0.055947 0.269999
v 0.204732 0.055947 0.269999
v 0.204732 0.055947 -0.270002
v 0.264732 0.055947 0.210000
v 0.264732 0.055947 -0.210000
v -0.275268 0.055947 0.210000
v -0.215269 0.055947 -0.270002
v -0.275268 0.055947 -0.210000
v -0.245268 0.005947 0.300000
v 0.234732 0.005947 0.300000
v 0.234732 0.005947 -0.300000
v 0.294732 0.005947 0.239999
v 0.294732 0.005947 -0.240001
v -0.305268 0.005947 0.239999
v -0.245268 0.005947 -0.300000
v -0.305268 0.005947 -0.240001
v -0.245268 0.005947 0.300000
v -0.305268 0.005947 0.239999
v -0.245268 -0.144053 0.300000
v -0.305268 -0.144053 0.239999
v 0.294732 0.005947 0.239999
v 0.234732 0.005947 0.300000
v 0.294732 -0.144053 0.239999
v 0.234732 -0.144053 0.300000
v -0.275268 0.005947 0.210000
v -0.215269 0.005947 0.269999
v -0.275268 0.055947 0.210000
v -0.215269 0.055947 0.269999
v 0.204732 0.005947 0.269999
v 0.264732 0.005947 0.210000
v 0.204732 0.055947 0.269999
v 0.264732 0.055947 0.210000
v -0.245268 0.005947 0.300000
v 0.234732 -0.144053 0.300000
v 0.234732 0.005947 0.300000
v -0.245268 -0.144053 0.300000
v -0.215269 0.055947 0.269999
v 0.204732 0.005947 0.269999
v 0.204732 0.055947 0.269999
v -0.215269 0.005947 0.269999
v -0.305268 0.005947 -0.240001
v -0.245268 0.005947 -0.300000
v -0.305268 -0.144053 -0.240001
v -0.245268 -0.144053 -0.300000
v -0.215269 0.005947 -0.270002
v -0.275268 0.005947 -0.210000
v -0.215269 0.055947 -0.270002
v -0.275268 0.055947 -0.210000
v -0.305268 0.005947 -0.240001
v -0.305268 -0.144053 0.239999
v -0.305268 0.005947 0.239999
v -0.305268 -0.144053 -0.240001
v -0.275268 0.055947 -0.210000
v -0.275268 0.005947 0.210000
v -0.275268 0.055947 0.210000
v -0.275268 0.005947 -0.210000
v -0.245268 -0.144053 -0.300000
v 0.234732 -0.144053 -0.300000
v 0.294732 -0.144053 0.239999
v 0.294732 -0.144053 -0.240001
v 0.234732 -0.144053 0.300000
v -0.245268 -0.144053 0.300000
v -0.305268 -0.144053 0.239999
v -0.305268 -0.144053 -0.240001
v 0.234732 0.005947 -0.300000
v -0.245268 -0.144053 -0.300000
v -0.245268 0.005947 -0.300000
v 0.234732 -0.144053 -0.300000
v 0.204732 0.055947 -0.270002
v -0.215269 0.005947 -0.270002
v -0.215269 0.055947 -0.270002
v 0.204732 0.005947 -0.270002
v 0.253428 0.112877 -0.224000
v 0.253428 0.112877 0.224000
v 0.213966 -0.090133 -0.224000
v 0.213966 -0.090133 0.224000
v -0.225803 -0.004653 0.224000
v 0.213966 -0.090133 0.224000
v 0.022016 0.096317 0.224000
v -0.186341 0.198367 0.224000
v 0.253428 0.112877 0.224000
v -0.225803 -0.004653 -0.224000
v -0.225803 -0.004653 0.224000
v -0.186341 0.198367 -0.224000
v -0.186341 0.198367 0.224000
v 0.022016 0.096317 -0.224000
v -0.225803 -0.004653 -0.224000
v -0.186341 0.198367 -0.224000
v 0.213966 -0.090133 -0.224000
v 0.253428 0.112877 -0.224000
v -0.225803 -0.004653 -0.224000
v 0.213966 -0.090133 -0.224000
v 0.213966 -0.090133 0.224000
v -0.225803 -0.004653 0.224000
v 0.022016 0.096317 -0.224000
v 0.022016 0.096317 0.224000
v 0.253428 0.112877 -0.224000
v 0.253428 0.112877 0.224000
v -0.186341 0.198367 -0.224000
v -0.186341 0.198367 0.224000
v 0.022016 0.096317 -0.224000
v 0.022016 0.096317 0.224000
vn 0.7071 -0.0000 -0.7071
vn 1.0000 -0.0000 -0.0000
vn -0.0000 1.0000 -0.0000
vn -0.7071 -0.0000 0.7071
vn 0.7071 -0.0000 0.7071
vn -0.0000 -0.0000 1.0000
vn -0.7071 -0.0000 -0.7071
vn -1.0000 -0.0000 -0.0000
vn -0.0000 -1.0000 -0.0000
vn -0.0000 -0.0000 -1.0000
vn 0.9821 -0.1886 -0.0000
vn -0.9821 0.1885 -0.0000
vn -0.1886 -0.9821 -0.0000
vn -0.1885 -0.9821 -0.0000
vn -0.1886 -0.9820 -0.0000
vn -0.0708 0.9975 -0.0000
vn 0.4408 0.8976 -0.0000
vt 0.601953 0.568118
vt 0.679953 0.373118
vt 0.679953 0.568118
vt 0.601953 0.373118
vt 0.562953 0.633118
vt 0.640953 0.568118
vt 0.640953 0.633118
vt 0.562953 0.568118
vt -0.022047 0.568117
vt -0.022047 0.373118
vt 0.016952 0.633117
vt 0.016952 0.568117
vt 0.562953 0.854118
vt 0.016952 0.854118
vt 0.016952 0.152118
vt -0.061048 0.776118
vt -0.061048 0.230118
vt 0.640953 0.776118
vt 0.562953 0.152118
vt 0.640953 0.230118
vt 0.601953 0.893118
vt -0.022047 0.893118
vt -0.022047 0.113118
vt -0.100047 0.815118
vt -0.100047 0.191118
vt 0.679953 0.815118
vt 0.601953 0.113118
vt 0.679953 0.191118
vt -0.022047 0.568117
vt -0.100047 0.568117
vt -0.022047 0.373118
vt -0.100047 0.373118
vt 0.679953 0.568117
vt 0.601953 0.568117
vt -0.061048 0.568117
vt -0.061048 0.633117
vt 0.562953 0.568117
vt 0.640953 0.568117
vt 0.562953 0.633117
vt 0.640953 0.633117
vt -0.022047 0.568118
vt -0.100047 0.568118
vt -0.061048 0.568118
vt 0.016952 0.568118
vt -0.061048 0.633118
vt 0.016952 0.633118
vt 0.625000 0.000000
vt 0.625000 0.250000
vt 0.375000 0.000000
vt 0.375000 0.250000
vt 0.375000 0.500000
vt 0.625000 0.375000
vt 0.625000 0.500000
vt 0.375000 0.750000
vt 0.625000 0.750000
vt 0.625000 0.875000
vt 0.375000 1.000000
vt 0.625000 1.000000
vt 0.125000 0.750000
vt 0.125000 0.500000
vt 0.750000 0.750000
vt 0.750000 0.500000
vt 0.875000 0.750000
vt 0.875000 0.500000
s 1
usemtl Handle1Mtl.056
f 1/1/1 2/2/1 3/3/1
f 2/2/1 1/1/1 4/4/1
f 5/5/1 6/6/1 7/7/1
f 6/6/1 5/5/1 8/8/1
f 9/9/2 10/4/2 11/1/2
f 10/4/2 9/9/2 12/10/2
f 13/11/2 14/8/2 15/5/2
f 14/8/2 13/11/2 16/12/2
f 17/13/3 18/14/3 19/15/3
f 19/15/3 18/14/3 20/16/3
f 19/15/3 20/16/3 21/17/3
f 19/15/3 22/18/3 17/13/3
f 22/18/3 19/15/3 23/19/3
f 22/18/3 23/19/3 24/20/3
f 25/21/3 26/22/3 27/23/3
f 27/23/3 26/22/3 28/24/3
f 27/23/3 28/24/3 29/25/3
f 27/23/3 30/26/3 25/21/3
f 30/26/3 27/23/3 31/27/3
f 30/26/3 31/27/3 32/28/3
f 33/29/4 34/30/4 35/31/4
f 34/30/4 36/32/4 35/31/4
f 37/33/5 38/34/5 39/2/5
f 38/34/5 40/4/5 39/2/5
f 41/35/4 42/12/4 43/36/4
f 44/11/4 43/36/4 42/12/4
f 45/37/5 46/38/5 47/39/5
f 48/40/5 47/39/5 46/38/5
f 49/29/6 50/4/6 51/34/6
f 50/4/6 49/29/6 52/31/6
f 53/11/6 54/37/6 55/39/6
f 54/37/6 53/11/6 56/12/6
f 57/41/7 58/42/7 59/31/7
f 58/42/7 60/32/7 59/31/7
f 61/43/7 62/44/7 63/45/7
f 64/46/7 63/45/7 62/44/7
f 65/41/8 66/4/8 67/34/8
f 66/4/8 65/41/8 68/31/8
f 69/46/8 70/37/8 71/39/8
f 70/37/8 69/46/8 72/44/8
f 73/23/9 74/27/9 75/26/9
f 75/26/9 74/27/9 76/28/9
f 77/21/9 73/23/9 75/26/9
f 73/23/9 77/21/9 78/22/9
f 73/23/9 78/22/9 79/24/9
f 73/23/9 79/24/9 80/25/9
f 81/41/10 82/4/10 83/1/10
f 82/4/10 81/41/10 84/31/10
f 85/46/10 86/8/10 87/5/10
f 86/8/10 85/46/10 88/44/10
usemtl Output1Mtl.006
f 89/47/11 90/48/11 91/49/11
f 91/49/11 90/48/11 92/50/11
f 93/51/6 94/50/6 95/52/6
f 93/51/6 95/52/6 96/53/6
f 94/50/6 97/48/6 95/52/6
f 98/54/12 99/51/12 100/55/12
f 100/55/12 99/51/12 101/53/12
f 102/56/10 103/54/10 104/55/10
f 103/54/10 102/56/10 105/57/10
f 106/58/10 105/57/10 102/56/10
f 107/54/13 108/59/14 109/60/13
f 107/54/13 109/60/13 110/51/15
f 111/61/16 112/62/16 113/63/16
f 113/63/16 112/62/16 114/64/16
f 115/55/17 116/53/17 117/61/17
f 117/61/17 116/53/17 118/62/17
