# Blender 5.1.2
# www.blender.org
mtllib LongStick.mtl
o LongStick
v 0.090000 0.089999 -3.500000
v 0.090000 0.089999 3.500000
v 0.090000 -0.090001 -3.500000
v 0.090000 -0.090000 3.500000
v -0.090000 0.089999 3.500000
v 0.090000 0.089999 3.500000
v -0.090000 0.089999 -3.500000
v 0.090000 0.089999 -3.500000
v 0.090000 0.089999 3.500000
v -0.090000 0.089999 3.500000
v 0.090000 -0.090000 3.500000
v -0.090000 -0.090000 3.500000
v -0.090000 0.089999 3.500000
v -0.090000 0.089999 -3.500000
v -0.090000 -0.090000 3.500000
v -0.090000 -0.090001 -3.500000
v -0.090000 -0.090001 -3.500000
v 0.090000 -0.090001 -3.500000
v -0.090000 -0.090000 3.500000
v 0.090000 -0.090000 3.500000
v -0.090000 0.089999 -3.500000
v 0.090000 0.089999 -3.500000
v -0.090000 -0.090001 -3.500000
v 0.090000 -0.090001 -3.500000
vn 1.0000 -0.0000 -0.0000
vn -0.0000 1.0000 -0.0000
vn -0.0000 -0.0000 1.0000
vn -1.0000 -0.0000 -0.0000
vn -0.0000 -1.0000 -0.0000
vn -0.0000 -0.0000 -1.0000
vt 1.682900 1.198380
vt 0.282899 1.198380
vt 1.682900 1.162380
vt 0.282899 1.162380
vt 0.318899 1.198380
vt 0.318899 -0.201621
vt 0.282899 -0.201621
vt 0.318899 1.162380
s 1
usemtl Longstick1Mtl
f 1/1/1 2/2/1 3/3/1
f 3/3/1 2/2/1 4/4/1
f 5/5/2 6/2/2 7/6/2
f 7/6/2 6/2/2 8/7/2
f 9/5/3 10/2/3 11/8/3
f 11/8/3 10/2/3 12/4/3
f 13/1/4 14/2/4 15/3/4
f 15/3/4 14/2/4 16/4/4
f 17/5/5 18/2/5 19/6/5
f 19/6/5 18/2/5 20/7/5
f 21/5/6 22/2/6 23/8/6
f 23/8/6 22/2/6 24/4/6
