# Blender 5.1.2
# www.blender.org
mtllib Propeller.mtl
o Propeller
v 3.976208 0.025074 -0.339434
v 3.976208 -0.154376 0.286266
v 3.976208 -0.154377 -0.339434
v 3.976208 0.227184 0.286266
v 3.967049 0.006393 -0.397234
v 3.967049 -0.154376 0.344166
v 3.967049 -0.154377 -0.397234
v 3.967049 0.245863 0.344166
v 3.940470 -0.010457 -0.449434
v 3.940470 -0.154376 0.396265
v 3.940470 -0.154377 -0.449434
v 3.940470 0.262713 0.396265
v 3.899070 -0.023827 -0.490835
v 3.899070 -0.154377 -0.490835
v 0.440473 -0.023826 3.896265
v 0.440473 -0.154376 3.896265
v 0.467053 -0.032416 3.844166
v 0.467053 -0.154376 3.844166
v 0.476213 -0.035376 3.786266
v 0.476213 -0.154376 3.786266
v 0.476213 -0.035376 1.215965
v 0.476213 -0.154376 3.786266
v 0.476213 -0.154376 0.473465
v 0.476203 0.287623 -3.839434
v 0.476213 0.287623 -0.526535
v 0.476203 -0.154377 -3.839434
v 0.476213 -0.154377 -0.526535
v 0.467053 0.284673 -3.897234
v 0.467053 -0.154377 -3.897234
v 0.440473 0.276083 -3.949434
v 0.440473 -0.154377 -3.949434
v 0.476213 -0.035376 1.215965
v 0.476213 -0.154376 0.473465
v 0.476213 0.050164 0.844765
v 0.476213 0.287623 0.473465
v -0.523787 0.287623 -0.526535
v -0.895077 0.050164 0.473465
v -0.523787 0.287623 0.473465
v 0.476213 0.287623 -0.526535
v -0.523787 0.050163 -0.897835
v -0.523787 0.287623 -0.526535
v 0.476213 0.287623 0.473465
v 0.847493 0.050163 -0.526535
v 0.476213 0.287623 -0.526535
v -0.523787 0.287623 0.473465
v 0.476213 0.050164 0.844765
v 0.476213 0.287623 0.473465
v -0.523787 0.287623 -0.526535
v -1.266367 -0.035377 0.473465
v -0.895077 0.050164 0.473465
v 0.476213 0.287623 -0.526535
v -0.523787 -0.035377 -1.269135
v -0.523787 0.050163 -0.897835
v 0.476213 0.287623 0.473465
v 1.218783 -0.035377 -0.526535
v 0.847493 0.050163 -0.526535
v -0.523787 0.287623 0.473465
v 0.476213 -0.035376 1.215965
v 0.476213 0.050164 0.844765
v -0.523787 0.287623 -0.526535
v -0.523787 0.287623 0.473465
v 0.476213 0.287623 -0.526535
v 0.476213 0.287623 0.473465
v -0.523787 0.287624 3.786266
v 0.476213 -0.035376 1.215965
v -0.523787 0.287623 0.473465
v 0.476213 -0.035376 3.786266
v 0.289073 0.025074 3.973465
v 0.467053 -0.032416 3.844166
v -0.336657 0.227184 3.973465
v 0.346903 0.006394 3.964266
v 0.399073 -0.010456 3.937666
v 0.440473 -0.023826 3.896265
v -0.514637 0.284674 3.844166
v -0.394487 0.245864 3.964266
v -0.446657 0.262714 3.937666
v -0.488057 0.276084 3.896265
v 3.940470 -0.010457 -0.449434
v 3.846902 -0.032417 -0.517435
v 3.976208 0.025074 -0.339434
v 3.899070 -0.023827 -0.490835
v 3.967049 0.006393 -0.397234
v 3.789075 -0.035377 -0.526535
v 3.789075 0.287623 0.473465
v 1.218783 -0.035377 -0.526535
v 0.476213 0.287623 0.473465
v 3.976208 0.227184 0.286266
v 3.846902 0.284673 0.464266
v 3.967049 0.245863 0.344166
v 3.899071 0.276083 0.437666
v 3.940470 0.262713 0.396265
v -0.523787 -0.035377 -3.839434
v 0.289073 0.227183 -4.026533
v -0.336657 0.025073 -4.026533
v -0.446657 -0.010457 -3.990835
v -0.394487 0.006393 -4.017435
v -0.488057 -0.023827 -3.949434
v -0.514637 -0.032417 -3.897234
v 0.476203 0.287623 -3.839434
v -0.523787 -0.035377 -1.269135
v 0.476213 0.287623 -0.526535
v 0.399073 0.262713 -3.990835
v 0.346903 0.245863 -4.017435
v 0.440473 0.276083 -3.949434
v 0.467053 0.284673 -3.897234
v -3.836657 0.287623 -0.526535
v -1.266367 -0.035377 0.473465
v -0.523787 0.287623 -0.526535
v -3.836657 -0.035377 0.473465
v -4.023787 0.025074 0.286266
v -3.894486 -0.032417 0.464266
v -4.023787 0.227184 -0.339434
v -4.014637 0.006393 0.344166
v -3.988057 -0.010457 0.396265
v -3.946657 -0.023827 0.437666
v -3.894486 0.284673 -0.517435
v -4.014637 0.245863 -0.397234
v -3.988057 0.262713 -0.449434
v -3.946657 0.276083 -0.490835
v 3.940470 -0.154376 0.396265
v 3.940470 0.262713 0.396265
v 3.899070 -0.154376 0.437666
v 3.899071 0.276083 0.437666
v 3.846902 -0.154376 0.464266
v 3.846902 0.284673 0.464266
v 3.789075 -0.154376 0.473465
v 3.789075 0.287623 0.473465
v -0.336657 -0.154376 3.973465
v 0.289073 0.025074 3.973465
v -0.336657 0.227184 3.973465
v 0.289073 -0.154376 3.973465
v -0.394487 -0.154376 3.964266
v 0.346903 0.006394 3.964266
v -0.394487 0.245864 3.964266
v 0.346903 -0.154376 3.964266
v -0.446657 -0.154376 3.937666
v 0.399073 -0.010456 3.937666
v -0.446657 0.262714 3.937666
v 0.399073 -0.154376 3.937666
v -0.488057 -0.154376 3.896265
v 0.440473 -0.023826 3.896265
v -0.488057 0.276084 3.896265
v 0.440473 -0.154376 3.896265
v -3.946657 -0.023827 0.437666
v -3.946657 -0.154376 0.437666
v -3.894486 -0.032417 0.464266
v -3.894486 -0.154376 0.464266
v -3.836657 -0.035377 0.473465
v -3.836657 -0.154376 0.473465
v -1.266367 -0.035377 0.473465
v -0.523787 -0.154376 0.473465
v 3.789075 0.287623 0.473465
v 0.476213 0.287623 0.473465
v 3.789075 -0.154376 0.473465
v 0.476213 -0.154376 0.473465
v -0.523787 0.287623 0.473465
v -0.895077 0.050164 0.473465
v -0.523787 -0.154376 0.473465
v -1.266367 -0.035377 0.473465
v -0.488057 -0.154376 3.896265
v -0.488057 0.276084 3.896265
v -0.514637 -0.154376 3.844166
v -0.514637 0.284674 3.844166
v -0.523787 -0.154376 3.786266
v -0.523787 0.287624 3.786266
v -3.946657 0.276083 -0.490835
v -3.946657 -0.154377 -0.490835
v -3.988057 0.262713 -0.449434
v -3.988057 -0.154377 -0.449434
v -4.014637 0.245863 -0.397234
v -4.014637 -0.154377 -0.397234
v -4.023787 0.227184 -0.339434
v -4.023787 -0.154377 -0.339434
v -4.023787 0.025074 0.286266
v -4.023787 -0.154376 0.286266
v -4.014637 0.006393 0.344166
v -4.014637 -0.154376 0.344166
v -3.988057 -0.010457 0.396265
v -3.988057 -0.154376 0.396265
v -3.946657 -0.023827 0.437666
v -3.946657 -0.154376 0.437666
v -0.488057 -0.023827 -3.949434
v -0.488057 -0.154377 -3.949434
v -0.514637 -0.032417 -3.897234
v -0.514637 -0.154377 -3.897234
v -0.523787 -0.035377 -3.839434
v -0.523787 -0.154377 -3.839434
v -0.523787 -0.035377 -1.269135
v -0.523787 -0.154377 -0.526535
v -0.523787 -0.154376 0.473465
v -0.523787 -0.154376 3.786266
v -0.523787 0.287623 0.473465
v -0.523787 0.287624 3.786266
v -0.523787 -0.035377 -1.269135
v -0.523787 -0.154377 -0.526535
v -0.523787 0.050163 -0.897835
v -0.523787 0.287623 -0.526535
v -0.523787 -0.154377 -0.526535
v 0.476213 -0.154377 -0.526535
v 0.476213 -0.154376 0.473465
v -0.523787 -0.154376 0.473465
v -3.894486 -0.154377 -0.517435
v -3.988057 -0.154377 -0.449434
v -3.946657 -0.154377 -0.490835
v -4.014637 -0.154377 -0.397234
v -4.023787 -0.154377 -0.339434
v -3.836657 -0.154377 -0.526535
v -3.836657 -0.154376 0.473465
v -4.023787 -0.154376 0.286266
v -3.894486 -0.154376 0.464266
v -4.014637 -0.154376 0.344166
v -3.988057 -0.154376 0.396265
v -3.946657 -0.154376 0.437666
v -3.836657 -0.154376 0.473465
v -3.836657 -0.154377 -0.526535
v -0.523787 -0.154376 0.473465
v -0.523787 -0.154377 -0.526535
v -0.523787 -0.154376 3.786266
v -0.523787 -0.154376 0.473465
v 0.476213 -0.154376 0.473465
v -0.336657 -0.154376 3.973465
v -0.523787 -0.154376 3.786266
v 0.476213 -0.154376 3.786266
v 0.476213 -0.154376 0.473465
v -0.514637 -0.154376 3.844166
v 0.289073 -0.154376 3.973465
v -0.394487 -0.154376 3.964266
v -0.446657 -0.154376 3.937666
v -0.488057 -0.154376 3.896265
v 0.467053 -0.154376 3.844166
v 0.346903 -0.154376 3.964266
v 0.399073 -0.154376 3.937666
v 0.440473 -0.154376 3.896265
v 3.976208 -0.154376 0.286266
v 3.789075 -0.154376 0.473465
v 3.789075 -0.154377 -0.526535
v 0.476213 -0.154377 -0.526535
v 3.976208 -0.154377 -0.339434
v 3.899070 -0.154376 0.437666
v 3.846902 -0.154376 0.464266
v 3.967049 -0.154376 0.344166
v 3.940470 -0.154376 0.396265
v 3.846902 -0.154377 -0.517435
v 3.940470 -0.154377 -0.449434
v 3.967049 -0.154377 -0.397234
v 3.899070 -0.154377 -0.490835
v 0.476213 -0.154377 -0.526535
v 3.789075 -0.154376 0.473465
v 0.476213 -0.154376 0.473465
v 0.289073 -0.154377 -4.026533
v 0.476203 -0.154377 -3.839434
v -0.523787 -0.154377 -3.839434
v -0.523787 -0.154377 -0.526535
v 0.476213 -0.154377 -0.526535
v -0.336657 -0.154377 -4.026533
v 0.399073 -0.154377 -3.990835
v 0.346903 -0.154377 -4.017435
v 0.440473 -0.154377 -3.949434
v 0.467053 -0.154377 -3.897234
v -0.446657 -0.154377 -3.990835
v -0.394487 -0.154377 -4.017435
v -0.488057 -0.154377 -3.949434
v -0.514637 -0.154377 -3.897234
v -0.523787 -0.154377 -3.839434
v 0.476203 -0.154377 -3.839434
v -0.523787 -0.154377 -0.526535
v 3.899070 -0.023827 -0.490835
v 3.899070 -0.154377 -0.490835
v 3.846902 -0.032417 -0.517435
v 3.846902 -0.154377 -0.517435
v 3.789075 -0.035377 -0.526535
v 3.789075 -0.154377 -0.526535
v 1.218783 -0.035377 -0.526535
v 3.789075 -0.154377 -0.526535
v 0.476213 -0.154377 -0.526535
v -0.523787 0.287623 -0.526535
v -3.836657 -0.154377 -0.526535
v -3.836657 0.287623 -0.526535
v -0.523787 -0.154377 -0.526535
v -3.894486 0.284673 -0.517435
v -3.894486 -0.154377 -0.517435
v -3.946657 0.276083 -0.490835
v -3.946657 -0.154377 -0.490835
v 0.440473 0.276083 -3.949434
v 0.440473 -0.154377 -3.949434
v 0.399073 0.262713 -3.990835
v 0.399073 -0.154377 -3.990835
v 0.346903 0.245863 -4.017435
v 0.346903 -0.154377 -4.017435
v 0.289073 0.227183 -4.026533
v 0.289073 -0.154377 -4.026533
v -0.336657 0.025073 -4.026533
v -0.336657 -0.154377 -4.026533
v -0.394487 0.006393 -4.017435
v -0.394487 -0.154377 -4.017435
v -0.446657 -0.010457 -3.990835
v -0.446657 -0.154377 -3.990835
v -0.488057 -0.023827 -3.949434
v -0.488057 -0.154377 -3.949434
v 1.218783 -0.035377 -0.526535
v 0.476213 -0.154377 -0.526535
v 0.847493 0.050163 -0.526535
v 0.476213 0.287623 -0.526535
vn 0.9980 -0.0000 -0.0630
vn 0.9969 -0.0000 0.0784
vn 0.9969 -0.0000 -0.0785
vn 0.9955 -0.0000 0.0948
vn 0.9591 -0.0000 -0.2830
vn 0.9518 -0.0000 0.3068
vn 0.9518 -0.0000 -0.3068
vn 0.9413 -0.0000 0.3376
vn 0.8247 -0.0000 -0.5655
vn 0.8084 0.0001 0.5886
vn 0.8084 -0.0000 -0.5887
vn 0.7953 -0.0000 0.6062
vn 0.6063 -0.0000 -0.7952
vn 0.5887 -0.0000 -0.8084
vn 0.7953 -0.0000 0.6063
vn 0.8084 -0.0000 0.5886
vn 0.9487 -0.0000 0.3162
vn 0.9969 -0.0000 0.0785
vn 1.0000 -0.0000 -0.0000
vn 0.9969 -0.0000 -0.0784
vn 0.9541 -0.0000 -0.2995
vn 0.8185 -0.0000 -0.5745
vn 0.8084 -0.0000 -0.5886
vn -0.1810 0.9603 0.2125
vn -0.3453 0.9338 0.0941
vn -0.5364 0.8440 -0.0000
vn -0.2125 0.9602 -0.1810
vn -0.0941 0.9338 -0.3453
vn -0.0000 0.8440 -0.5364
vn 0.1810 0.9603 -0.2125
vn 0.3453 0.9338 -0.0941
vn 0.5364 0.8440 -0.0000
vn 0.2125 0.9602 0.1810
vn 0.0941 0.9338 0.3453
vn -0.0000 0.8440 0.5364
vn -0.1811 0.9602 0.2125
vn -0.0632 0.9634 0.2606
vn -0.3452 0.9338 0.0942
vn -0.2606 0.9634 -0.0632
vn -0.0942 0.9338 -0.3452
vn 0.1811 0.9602 -0.2125
vn 0.0632 0.9634 -0.2606
vn 0.3452 0.9338 -0.0942
vn 0.2125 0.9602 0.1811
vn 0.2606 0.9634 0.0632
vn 0.0942 0.9338 0.3452
vn -0.0000 1.0000 -0.0000
vn 0.3068 0.9518 -0.0000
vn 0.3067 0.9518 -0.0000
vn 0.3069 0.9518 -0.0000
vn 0.3071 0.9517 -0.0002
vn 0.3069 0.9517 -0.0000
vn -0.0000 0.9518 -0.3069
vn -0.0000 0.9518 -0.3068
vn -0.0000 0.9517 -0.3070
vn -0.0000 0.9518 -0.3067
vn -0.0000 0.9517 -0.3069
vn 0.1810 0.9602 -0.2125
vn 0.0001 0.9518 -0.3068
vn -0.3068 0.9518 -0.0000
vn -0.3070 0.9517 -0.0000
vn -0.3067 0.9518 -0.0000
vn -0.3069 0.9517 -0.0000
vn -0.3069 0.9518 -0.0000
vn -0.0000 0.9517 0.3069
vn -0.1810 0.9602 0.2125
vn -0.0000 0.9518 0.3068
vn -0.0000 0.9518 0.3069
vn -0.0002 0.9517 0.3071
vn 0.0001 0.9516 0.3073
vn 0.8084 -0.0000 0.5887
vn 0.7952 -0.0000 0.6063
vn 0.5887 -0.0000 0.8084
vn 0.5745 -0.0000 0.8185
vn 0.3068 -0.0000 0.9518
vn 0.2998 -0.0000 0.9540
vn 0.0785 -0.0000 0.9969
vn -0.0788 -0.0000 0.9969
vn 0.0632 -0.0000 0.9980
vn -0.0949 -0.0000 0.9955
vn -0.3068 -0.0000 0.9518
vn 0.2830 -0.0000 0.9591
vn -0.3378 -0.0000 0.9412
vn -0.5887 -0.0000 0.8084
vn 0.5656 -0.0000 0.8247
vn -0.6063 -0.0000 0.7952
vn -0.8084 0.0001 0.5887
vn -0.8185 -0.0000 0.5745
vn -0.5886 -0.0000 0.8084
vn -0.3162 -0.0000 0.9487
vn -0.6063 -0.0000 0.7953
vn -0.0785 -0.0000 0.9969
vn -0.0000 -0.0000 1.0000
vn -0.9518 -0.0000 0.3068
vn -0.8084 -0.0000 0.5886
vn -0.9541 -0.0000 0.2994
vn -0.9969 -0.0000 0.0785
vn -0.5887 -0.0000 -0.8084
vn -0.7952 -0.0000 -0.6063
vn -0.5746 -0.0000 -0.8185
vn -0.8084 -0.0000 -0.5887
vn -0.9414 -0.0000 -0.3372
vn -0.9518 -0.0000 -0.3068
vn -0.9955 -0.0000 -0.0948
vn -0.9969 -0.0000 -0.0784
vn -0.9980 -0.0000 0.0628
vn -0.9969 -0.0000 0.0783
vn -0.9591 -0.0000 0.2830
vn -0.8247 -0.0000 0.5655
vn -0.8084 -0.0000 0.5887
vn -0.8084 -0.0000 -0.5886
vn -0.9487 -0.0000 -0.3162
vn -0.7953 -0.0000 -0.6063
vn -0.9969 -0.0000 -0.0785
vn -1.0000 -0.0000 -0.0000
vn -0.0000 -1.0000 -0.0000
vn 0.6062 -0.0000 -0.7953
vn 0.5886 -0.0000 -0.8084
vn 0.3163 -0.0000 -0.9487
vn 0.3068 -0.0000 -0.9518
vn 0.0785 -0.0000 -0.9969
vn -0.0000 -0.0000 -1.0000
vn -0.0785 -0.0000 -0.9969
vn -0.2996 -0.0000 -0.9541
vn -0.3067 -0.0000 -0.9518
vn -0.5745 -0.0000 -0.8185
vn -0.5886 -0.0000 -0.8084
vn 0.8185 -0.0000 -0.5746
vn 0.3371 -0.0000 -0.9415
vn 0.0948 -0.0000 -0.9955
vn -0.0625 -0.0000 -0.9980
vn -0.2830 -0.0000 -0.9591
vn -0.3068 -0.0000 -0.9518
vn -0.5655 -0.0000 -0.8247
vt -6.765810 -2.998640
vt -7.391540 -3.178080
vt -6.765810 -3.178080
vt -7.391540 -2.796520
vt -6.707980 -3.017320
vt -7.449370 -3.178080
vt -6.707980 -3.178080
vt -7.449370 -2.777850
vt -6.655820 -3.034170
vt -7.501540 -3.178080
vt -6.655820 -3.178080
vt -7.501540 -2.761000
vt -6.614420 -3.047540
vt -6.614420 -3.178080
vt -11.001500 -3.047540
vt -11.001500 -3.178080
vt -10.949400 -3.056120
vt -10.949400 -3.178080
vt -10.891500 -3.059080
vt -10.891500 -3.178080
vt -8.321250 -3.059080
vt -7.578680 -3.178080
vt -3.265810 -2.736080
vt -6.578680 -2.736080
vt -3.265810 -3.178080
vt -6.578680 -3.178080
vt -3.207980 -2.739040
vt -3.207980 -3.178080
vt -3.155810 -2.747620
vt -3.155820 -3.178080
vt -7.949960 -2.973540
vt -7.578680 -2.736080
vt -6.578680 -3.457080
vt -6.207390 -2.457080
vt -6.578680 -2.457080
vt -7.578680 -3.457080
vt -6.578680 -3.828370
vt -7.578680 -2.457080
vt -7.949960 -3.457080
vt -7.578680 -2.085790
vt -5.836100 -2.457080
vt -6.578680 -4.199650
vt -8.321250 -3.457080
vt -7.578680 -1.714510
vt -6.578680 0.855787
vt -7.578680 0.855787
vt -7.391540 1.042920
vt -7.569520 0.913614
vt -6.765810 1.042920
vt -7.449370 1.033760
vt -7.501540 1.007180
vt -7.542940 0.965781
vt -6.587840 0.913614
vt -6.707980 1.033760
vt -6.655820 1.007180
vt -6.614420 0.965782
vt -11.042900 -3.379940
vt -10.949400 -3.447920
vt -11.078700 -3.269950
vt -11.001500 -3.421340
vt -11.069500 -3.327780
vt -10.891500 -3.457080
vt -10.891500 -2.457080
vt -11.078700 -2.644210
vt -10.949400 -2.466240
vt -11.069500 -2.586390
vt -11.001500 -2.492820
vt -11.042900 -2.534220
vt -6.578680 -6.769950
vt -7.391540 -6.957080
vt -6.765810 -6.957080
vt -6.655820 -6.921340
vt -6.707980 -6.947920
vt -6.614420 -6.879940
vt -6.587830 -6.827770
vt -7.578680 -6.769950
vt -7.501540 -6.921340
vt -7.449370 -6.947920
vt -7.542940 -6.879940
vt -7.569520 -6.827770
vt -3.265810 -3.457080
vt -3.265810 -2.457080
vt -3.078680 -2.644210
vt -3.207980 -2.466240
vt -3.078680 -3.269950
vt -3.087840 -2.586390
vt -3.114420 -2.534220
vt -3.155820 -2.492820
vt -3.207980 -3.447920
vt -3.087840 -3.327770
vt -3.114420 -3.379940
vt -3.155810 -3.421340
vt -3.114420 -3.178080
vt -3.114420 -2.761000
vt -7.542940 -3.178080
vt -7.542940 -2.747620
vt -11.069500 -3.327770
vt -6.614420 0.965781
vt -3.087840 -3.327780
vt -3.155820 -3.421340
vt -6.587840 -6.827770
s 1
usemtl Handle1Mtl.038
f 1/1/1 2/2/2 3/3/3
f 2/2/2 1/1/1 4/4/4
f 1/1/1 3/3/3 5/5/5
f 2/2/2 4/4/4 6/6/6
f 7/7/7 5/5/5 3/3/3
f 8/8/8 6/6/6 4/4/4
f 5/5/5 7/7/7 9/9/9
f 6/6/6 8/8/8 10/10/10
f 11/11/11 9/9/9 7/7/7
f 12/12/12 10/10/10 8/8/8
f 9/9/9 11/11/11 13/13/13
f 14/14/14 13/13/13 11/11/11
f 15/15/15 16/16/16 17/17/17
f 18/18/6 17/17/17 16/16/16
f 17/17/17 18/18/6 19/19/18
f 20/20/18 19/19/18 18/18/6
f 21/21/19 19/19/18 22/20/18
f 22/20/18 23/22/19 21/21/19
f 24/23/3 25/24/19 26/25/20
f 26/25/20 25/24/19 27/26/19
f 24/23/3 26/25/20 28/27/21
f 29/28/7 28/27/21 26/25/20
f 28/27/21 29/28/7 30/29/22
f 31/30/23 30/29/22 29/28/7
f 32/21/19 33/22/19 34/31/19
f 33/22/19 35/32/19 34/31/19
f 36/33/24 37/34/25 38/35/26
f 39/36/27 40/37/28 41/33/29
f 42/38/30 43/39/31 44/36/32
f 45/35/33 46/40/34 47/38/35
f 48/33/36 49/41/37 50/34/38
f 51/36/27 52/42/39 53/37/40
f 54/38/41 55/43/42 56/39/43
f 57/35/44 58/44/45 59/40/46
f 60/33/47 61/35/47 62/36/47
f 62/36/47 61/35/47 63/38/47
f 64/45/48 65/44/45 66/35/33
f 64/45/48 67/46/48 65/44/45
f 68/47/49 67/46/48 64/45/48
f 67/46/48 68/47/49 69/48/49
f 68/47/49 64/45/48 70/49/49
f 71/50/49 69/48/49 68/47/49
f 72/51/50 69/48/49 71/50/49
f 69/48/49 72/51/50 73/52/51
f 74/53/48 70/49/49 64/45/48
f 70/49/49 74/53/48 75/54/52
f 75/54/52 74/53/48 76/55/52
f 76/55/52 74/53/48 77/56/49
f 78/57/53 79/58/54 80/59/54
f 79/58/54 78/57/53 81/60/55
f 78/57/53 80/59/54 82/61/56
f 83/62/53 80/59/54 79/58/54
f 80/59/54 83/62/53 84/63/57
f 84/63/57 83/62/53 85/43/42
f 84/63/57 85/43/42 86/38/58
f 80/59/54 84/63/57 87/64/53
f 88/65/54 87/64/53 84/63/57
f 87/64/53 88/65/54 89/66/59
f 90/67/56 89/66/59 88/65/54
f 89/66/59 90/67/56 91/68/54
f 92/69/60 93/70/61 94/71/62
f 95/72/62 94/71/62 96/73/60
f 95/72/62 92/69/60 94/71/62
f 92/69/60 95/72/62 97/74/60
f 92/69/60 97/74/60 98/75/63
f 93/70/61 92/69/60 99/76/62
f 99/76/62 92/69/60 100/42/39
f 99/76/62 100/42/39 101/36/27
f 102/77/60 93/70/61 99/76/62
f 93/70/61 102/77/60 103/78/63
f 99/76/62 104/79/64 102/77/60
f 104/79/64 99/76/62 105/80/63
f 106/81/65 107/41/37 108/33/66
f 106/81/65 109/82/67 107/41/37
f 110/83/68 109/82/67 106/81/65
f 109/82/67 110/83/68 111/84/67
f 110/83/68 106/81/65 112/85/67
f 113/86/67 111/84/67 110/83/68
f 114/87/67 111/84/67 113/86/67
f 111/84/67 114/87/67 115/88/67
f 116/89/67 112/85/67 106/81/65
f 112/85/67 116/89/67 117/90/67
f 117/90/67 116/89/67 118/91/69
f 118/91/69 116/89/67 119/92/70
f 120/93/71 121/94/72 122/30/73
f 122/30/73 121/94/72 123/29/74
f 122/30/73 123/29/74 124/28/75
f 124/28/75 123/29/74 125/27/76
f 124/28/75 125/27/76 126/25/77
f 126/25/77 125/27/76 127/23/77
f 128/2/78 129/1/79 130/4/80
f 129/1/79 128/2/78 131/3/77
f 128/2/78 130/4/80 132/6/81
f 131/3/77 133/5/82 129/1/79
f 132/6/81 130/4/80 134/8/83
f 135/7/75 133/5/82 131/3/77
f 132/6/81 134/8/83 136/10/84
f 135/7/75 137/9/85 133/5/82
f 136/10/84 134/8/83 138/12/86
f 139/11/73 137/9/85 135/7/75
f 136/10/84 138/12/86 140/95/87
f 139/11/73 141/13/72 137/9/85
f 140/95/87 138/12/86 142/96/88
f 143/14/16 141/13/72 139/11/73
f 145/16/89 146/17/90 144/15/91
f 147/18/81 146/17/90 145/16/89
f 147/18/81 148/19/92 146/17/90
f 149/20/78 148/19/92 147/18/81
f 149/20/78 150/21/93 148/19/92
f 149/20/78 151/22/93 150/21/93
f 152/23/77 153/24/93 154/25/77
f 155/26/93 154/25/77 153/24/93
f 156/32/93 157/31/93 158/22/93
f 159/21/93 158/22/93 157/31/93
f 161/29/88 162/28/94 160/30/95
f 162/28/94 161/29/88 163/27/96
f 163/27/96 164/25/97 162/28/94
f 164/25/97 163/27/96 165/23/97
f 167/95/98 168/12/99 166/96/100
f 168/12/99 167/95/98 169/10/101
f 169/10/101 170/8/102 168/12/99
f 170/8/102 169/10/101 171/6/103
f 171/6/103 172/4/104 170/8/102
f 172/4/104 171/6/103 173/2/105
f 173/2/105 174/1/106 172/4/104
f 174/1/106 173/2/105 175/3/107
f 175/3/107 176/5/108 174/1/106
f 176/5/108 175/3/107 177/7/94
f 177/7/94 178/9/109 176/5/108
f 178/9/109 177/7/94 179/11/110
f 179/11/110 180/13/86 178/9/109
f 180/13/86 179/11/110 181/14/84
f 183/16/111 184/17/112 182/15/113
f 184/17/112 183/16/111 185/18/103
f 185/18/103 186/19/114 184/17/112
f 186/19/114 185/18/103 187/20/105
f 187/20/105 188/21/115 186/19/114
f 187/20/105 189/22/115 188/21/115
f 190/26/115 191/25/97 192/24/115
f 192/24/115 191/25/97 193/23/97
f 194/21/115 195/22/115 196/31/115
f 195/22/115 197/32/115 196/31/115
f 198/36/116 199/33/116 200/35/116
f 198/36/116 200/35/116 201/38/116
f 202/58/116 203/57/116 204/60/116
f 203/57/116 202/58/116 205/97/116
f 205/97/116 202/58/116 206/59/116
f 207/62/116 206/59/116 202/58/116
f 206/59/116 207/62/116 208/63/116
f 206/59/116 208/63/116 209/64/116
f 210/65/116 209/64/116 208/63/116
f 209/64/116 210/65/116 211/66/116
f 210/65/116 212/68/116 211/66/116
f 212/68/116 210/65/116 213/67/116
f 214/63/116 215/62/116 216/38/116
f 215/62/116 217/36/116 216/38/116
f 218/46/116 219/38/116 220/35/116
f 221/47/116 222/46/116 223/45/116
f 223/45/116 222/46/116 224/35/116
f 222/46/116 221/47/116 225/48/116
f 221/47/116 223/45/116 226/49/116
f 227/50/116 225/48/116 221/47/116
f 228/51/116 225/48/116 227/50/116
f 225/48/116 228/51/116 229/52/116
f 230/53/116 226/49/116 223/45/116
f 226/49/116 230/53/116 231/54/116
f 230/53/116 232/55/116 231/54/116
f 232/55/116 230/53/116 233/98/116
f 234/83/116 235/82/116 236/81/116
f 236/81/116 235/82/116 237/33/116
f 234/83/116 236/81/116 238/85/116
f 239/88/116 235/82/116 234/83/116
f 235/82/116 239/88/116 240/84/116
f 239/88/116 234/83/116 241/86/116
f 239/88/116 241/86/116 242/87/116
f 243/89/116 238/85/116 236/81/116
f 244/91/116 238/85/116 243/89/116
f 238/85/116 244/91/116 245/99/116
f 244/91/116 243/89/116 246/100/116
f 247/33/116 248/82/116 249/35/116
f 250/71/116 251/69/116 252/76/116
f 253/36/116 251/69/116 254/33/116
f 250/71/116 252/76/116 255/70/116
f 256/72/116 251/69/116 250/71/116
f 256/72/116 250/71/116 257/73/116
f 251/69/116 256/72/116 258/74/116
f 251/69/116 258/74/116 259/101/116
f 260/77/116 255/70/116 252/76/116
f 255/70/116 260/77/116 261/78/116
f 260/77/116 252/76/116 262/79/116
f 262/79/116 252/76/116 263/80/116
f 264/76/116 265/69/116 266/36/116
f 267/15/117 268/16/118 269/17/119
f 269/17/119 268/16/118 270/18/120
f 269/17/119 270/18/120 271/19/121
f 271/19/121 270/18/120 272/20/121
f 273/21/122 271/19/121 274/20/121
f 274/20/121 275/22/122 273/21/122
f 276/24/122 277/25/123 278/23/123
f 277/25/123 276/24/122 279/26/122
f 278/23/123 277/25/123 280/27/124
f 280/27/124 277/25/123 281/28/125
f 280/27/124 281/28/125 282/29/126
f 282/29/126 281/28/125 283/30/127
f 284/96/128 285/95/11 286/12/13
f 286/12/13 285/95/11 287/10/118
f 286/12/13 287/10/118 288/8/129
f 288/8/129 287/10/118 289/6/120
f 288/8/129 289/6/120 290/4/130
f 290/4/130 289/6/120 291/2/121
f 291/2/121 292/1/131 290/4/130
f 292/1/131 291/2/121 293/3/123
f 292/1/131 293/3/123 294/5/132
f 294/5/132 293/3/123 295/7/133
f 294/5/132 295/7/133 296/9/134
f 296/9/134 295/7/133 297/11/127
f 296/9/134 297/11/127 298/13/99
f 298/13/99 297/11/127 299/14/101
f 300/21/122 301/22/122 302/31/122
f 301/22/122 303/32/122 302/31/122
