# Blender 5.1.2
# www.blender.org
mtllib Trowel.mtl
o Trowel
v 0.199888 0.502850 -0.113741
v -0.002712 0.111020 -0.113741
v 0.126287 0.709660 -0.113741
v 0.230188 0.396750 -0.093641
v 0.164988 0.607030 -0.093641
v -0.002413 0.111020 -0.093641
v 0.042889 -0.119030 -0.014841
v 0.066788 -0.119030 0.005259
v 0.066788 -0.462160 0.005259
v -0.017912 0.072810 -0.121342
v 0.013388 0.004860 -0.038740
v -0.017912 0.004860 -0.038740
v -0.017912 -0.119030 0.152060
v -0.047312 -0.119030 0.141359
v -0.047312 -0.462160 0.141359
v -0.047312 0.072810 0.013159
v -0.071312 0.004860 0.079260
v -0.047312 0.004860 0.095360
v -0.170113 0.607030 -0.113741
v -0.090113 0.811130 -0.113741
v -0.002712 0.111020 -0.113741
v -0.170113 0.607030 -0.093641
v -0.002413 0.111020 -0.093641
v -0.090113 0.811130 -0.093641
v 0.082489 -0.119030 0.094059
v 0.066788 -0.119030 0.121159
v 0.066788 -0.462160 0.121159
v 0.066788 0.072810 -0.003040
v 0.042889 0.004860 0.095360
v 0.066788 0.004860 0.079260
v 0.042889 0.072810 -0.112640
v 0.066788 0.114920 -0.138741
v 0.066788 0.004860 -0.013941
v 0.015589 0.302720 -0.135542
v 0.042889 0.114920 -0.150541
v 0.013388 0.072810 0.021759
v -0.017912 0.004860 0.103958
v -0.020111 0.302720 -0.073742
v -0.071312 0.114920 -0.070541
v 0.013388 0.114920 -0.052441
v -0.071312 -0.119030 0.121159
v -0.087011 -0.462160 0.094059
v -0.071312 -0.462160 0.121159
v 0.042889 -0.462160 0.141359
v -0.092411 -0.119030 0.063259
v -0.087011 -0.119030 0.032459
v -0.087011 -0.462160 0.032459
v -0.047312 -0.051070 0.005560
v -0.017912 -0.051070 -0.002340
v -0.017912 -0.082570 -0.015841
v -0.017912 -0.119030 -0.025541
v 0.013388 -0.462160 -0.025541
v -0.017912 -0.462160 -0.025541
v -0.057611 -0.509030 0.063259
v 0.053188 -0.509030 0.063259
v 0.040188 -0.509030 0.098860
v 0.013388 0.072810 0.021759
v 0.003988 0.302720 -0.069542
v 0.013388 0.114920 -0.052441
v 0.042889 0.114920 -0.058741
v 0.042889 -0.082570 -0.006342
v 0.066788 -0.082570 0.011660
v 0.101488 -0.101540 -0.022341
v 0.042889 0.004860 -0.030142
v -0.087011 0.114920 -0.122742
v -0.071312 0.114920 -0.138741
v -0.071312 0.004860 -0.013941
v -0.035711 0.302720 -0.116840
v 0.082489 -0.119030 0.032459
v 0.087889 -0.462160 0.063259
v 0.082489 -0.462160 0.032459
v 0.082489 -0.462160 0.094059
v -0.087011 -0.082570 0.035759
v -0.105911 -0.101540 -0.022341
v -0.129412 -0.101540 0.017759
v -0.017912 -0.082570 0.142359
v -0.047312 -0.082570 0.132759
v -0.069912 -0.101540 0.178558
v 0.031288 0.302720 -0.116840
v 0.082489 0.114920 -0.122742
v -0.035711 0.302720 -0.092442
v -0.087011 0.114920 -0.086441
v 0.082489 -0.082570 0.090759
v 0.066788 -0.082570 0.114859
v 0.101488 -0.101540 0.148859
v 0.013388 -0.082570 0.142359
v -0.025711 -0.101540 0.194359
v 0.021288 -0.101540 0.194359
v -0.260212 0.288330 -0.093641
v -0.225412 0.202470 -0.093641
v -0.130611 0.155150 -0.093641
v -0.260212 0.288330 -0.113741
v -0.130611 0.155150 -0.113741
v -0.071312 -0.051070 0.020458
v -0.047312 -0.082570 -0.006342
v -0.071312 -0.082570 0.011660
v -0.092411 0.114920 -0.104641
v -0.087011 0.004860 0.007858
v -0.092411 0.004860 0.032660
v 0.082489 -0.082570 0.035759
v 0.087889 -0.082570 0.063259
v 0.133188 -0.101540 0.063259
v 0.124989 -0.101540 0.108759
v -0.071312 -0.462160 0.005259
v 0.025488 -0.509030 0.015259
v -0.029911 -0.509030 0.015259
v -0.071312 -0.119030 0.005259
v 0.021288 -0.101540 -0.067841
v 0.065489 -0.101540 -0.052040
v -0.044712 -0.509030 0.098860
v -0.011812 -0.509030 0.117760
v 0.125387 0.155150 -0.113741
v 0.220287 0.202470 -0.093641
v 0.125387 0.155150 -0.093641
v -0.137611 -0.101540 0.063259
v 0.042889 -0.082570 0.132759
v -0.047312 -0.119030 -0.014841
v -0.047312 -0.462160 -0.014841
v -0.087011 -0.051070 0.040459
v -0.092411 -0.082570 0.063259
v 0.247688 0.233630 -0.113741
v 0.254988 0.288330 -0.113741
v 0.254988 0.288330 -0.093641
v -0.020111 0.302720 -0.135542
v 0.003988 0.302720 -0.139742
v -0.017912 0.114920 -0.156841
v 0.031288 0.302720 -0.092442
v -0.047312 0.072810 -0.112640
v 0.013388 0.114920 -0.156841
v -0.017912 -0.462160 0.152060
v -0.071312 -0.082570 0.114859
v -0.069912 -0.101540 -0.052040
v 0.013388 -0.082570 -0.015841
v -0.071312 0.072810 -0.003040
v -0.087011 0.004860 0.057360
v -0.235413 0.396750 -0.093641
v 0.066788 -0.051070 0.020458
v 0.042889 -0.051070 0.005560
v -0.002413 1.012150 -0.113741
v -0.002413 1.012150 -0.113741
v 0.087889 0.114920 -0.104641
v 0.082489 0.004860 0.057360
v 0.087889 0.004860 0.032660
v -0.002413 1.012150 -0.093641
v -0.252811 0.233630 -0.113741
v -0.249512 0.224910 -0.093641
v 0.082489 0.114920 -0.086441
v 0.066788 0.114920 -0.070541
v 0.247688 0.233630 -0.093641
v 0.013388 -0.119030 -0.025541
v -0.087011 -0.082570 0.090759
v -0.129412 -0.101540 0.108759
v 0.087889 -0.119030 0.063259
v 0.124989 -0.101540 0.017759
v -0.087011 -0.119030 0.094059
v -0.105911 -0.101540 0.148859
v 0.042889 -0.119030 0.141359
v 0.013388 -0.119030 0.152060
v 0.013388 -0.462160 0.152060
v 0.065489 -0.101540 0.178558
v 0.013388 -0.082570 0.142359
v 0.021288 -0.101540 0.194359
v -0.002413 1.012150 -0.093641
v -0.047312 0.004860 -0.030142
v 0.013388 -0.051070 -0.002340
v 0.042889 -0.462160 -0.014841
v 0.082489 0.004860 0.007858
v 0.082489 -0.051070 0.040459
v -0.244411 0.217990 -0.113741
v 0.239288 0.217990 -0.113741
v 0.013388 0.072810 -0.121342
v 0.013388 0.004860 0.103958
v 0.239288 0.217990 -0.093641
v -0.047312 0.114920 -0.150541
v 0.003988 0.302720 -0.069542
v -0.092411 -0.462160 0.063259
v 0.007389 -0.509030 0.117760
v 0.013388 -0.119030 0.152060
v 0.013388 -0.462160 0.152060
v 0.007389 -0.509030 0.117760
v 0.013388 0.004860 0.103958
vn -0.0000 -0.0001 -1.0000
vn 0.0001 -0.0001 -1.0000
vn -0.0001 -0.0000 -1.0000
vn -0.0001 -0.0000 1.0000
vn -0.0000 -0.0001 1.0000
vn -0.0000 -0.0000 1.0000
vn 0.4014 -0.5902 -0.7004
vn 0.6154 -0.5917 -0.5207
vn 0.7309 -0.3301 -0.5973
vn -0.0944 -0.7079 -0.7000
vn 0.1026 -0.6711 -0.7342
vn -0.1104 -0.6705 -0.7336
vn -0.1416 -0.5901 0.7948
vn -0.4014 -0.5902 0.7004
vn -0.4722 -0.3069 0.8263
vn -0.2272 0.7993 0.5564
vn -0.6150 0.4731 0.6308
vn -0.3542 0.5510 0.7556
vn 0.0001 -0.0000 -1.0000
vn -0.0000 -0.0000 -1.0000
vn -0.0001 -0.0001 1.0000
vn 0.0001 -0.0000 1.0000
vn 0.7539 -0.5968 0.2749
vn 0.6154 -0.5917 0.5207
vn 0.7295 -0.3059 0.6118
vn 0.5434 0.6772 0.4961
vn 0.3548 0.5597 0.7489
vn 0.6127 0.4793 0.6284
vn 0.3384 -0.6848 -0.6454
vn 0.5807 -0.2433 -0.7769
vn 0.6047 -0.5183 -0.6047
vn 0.7242 0.2204 -0.6534
vn 0.3150 -0.2835 -0.9058
vn 0.0866 0.8191 0.5671
vn -0.1176 0.5883 0.8000
vn -0.6362 0.1963 0.7462
vn -0.4584 0.5532 0.6956
vn 0.0078 0.5745 0.8185
vn -0.6154 -0.5917 0.5207
vn -0.8957 -0.3064 0.3221
vn -0.7295 -0.3059 0.6118
vn 0.4722 -0.3069 0.8263
vn -0.8019 -0.5974 -0.0000
vn -0.7538 -0.5968 -0.2748
vn -0.8835 -0.3313 -0.3313
vn -0.4167 -0.0943 -0.9041
vn -0.1342 -0.0869 -0.9871
vn -0.1261 0.7093 -0.6935
vn -0.1411 -0.5725 -0.8077
vn 0.1500 -0.3315 -0.9314
vn -0.1500 -0.3315 -0.9315
vn -0.0000 -1.0000 -0.0000
vn 0.0867 0.8191 0.5671
vn 0.2275 0.1333 0.9646
vn 0.0079 0.5745 0.8185
vn 0.2991 0.5509 0.7791
vn 0.3062 0.7223 -0.6202
vn 0.5257 0.6749 -0.5179
vn 0.7565 -0.0000 -0.6540
vn 0.3312 -0.6308 -0.7017
vn -0.8337 -0.1652 -0.5269
vn -0.5807 -0.2433 -0.7769
vn -0.5972 -0.5265 -0.6051
vn -0.7474 0.2124 -0.6295
vn 0.7538 -0.5968 -0.2748
vn 0.9518 -0.3068 -0.0000
vn 0.8835 -0.3313 -0.3313
vn 0.8957 -0.3064 0.3222
vn -0.7312 0.6133 -0.2988
vn -0.7564 -0.0000 -0.6541
vn -0.9379 -0.0079 -0.3468
vn -0.1025 0.7491 0.6545
vn -0.3074 0.7329 0.6070
vn -0.4876 0.0157 0.8729
vn 0.7556 0.2282 -0.6139
vn 0.8326 -0.1728 -0.5263
vn -0.7462 0.2199 0.6284
vn -0.8439 0.3549 0.4022
vn 0.6940 0.6546 0.2997
vn 0.5120 0.7011 0.4963
vn 0.7565 -0.0000 0.6540
vn 0.1025 0.7491 0.6545
vn -0.1733 0.0157 0.9847
vn 0.1656 0.0158 0.9861
vn -0.0000 0.0001 1.0000
vn -0.0000 0.0001 -1.0000
vn -0.6960 -0.0950 -0.7118
vn -0.2994 0.7092 -0.6383
vn -0.5370 0.6633 -0.5212
vn -0.9957 0.0474 -0.0790
vn -0.8740 -0.3150 -0.3701
vn -0.9980 0.0550 0.0314
vn 0.7185 0.6237 -0.3079
vn 0.7990 0.6012 0.0080
vn 0.9999 -0.0157 -0.0000
vn 0.9379 -0.0079 0.3468
vn -0.7309 -0.3301 -0.5973
vn -0.0000 -0.6540 -0.7565
vn -0.3534 -0.7070 -0.6126
vn -0.6154 -0.5917 -0.5207
vn 0.1182 0.0236 -0.9927
vn 0.4876 0.0157 -0.8729
vn -0.4875 -0.6291 0.6054
vn -0.3537 -0.6210 0.6995
vn 0.0001 0.0001 -1.0000
vn 0.4473 -0.8944 -0.0000
vn 0.3868 -0.9221 -0.0001
vn -0.9999 -0.0157 -0.0000
vn 0.3073 0.7329 0.6069
vn -0.4014 -0.5902 -0.7004
vn -0.4722 -0.3069 -0.8263
vn -0.8840 -0.0947 -0.4578
vn -0.7952 0.6062 0.0157
vn 0.9910 -0.1337 -0.0000
vn 0.9910 -0.1336 0.0001
vn -0.1736 0.1105 -0.9786
vn -0.1736 0.1104 -0.9786
vn -0.1022 -0.2909 -0.9513
vn -0.0001 1.0000 -0.0000
vn -0.3625 -0.6935 -0.6226
vn 0.1022 -0.2909 -0.9513
vn -0.1654 -0.3071 0.9372
vn -0.5120 0.7011 0.4963
vn -0.4346 0.0158 -0.9005
vn 0.1020 0.7453 -0.6589
vn -0.5510 0.6769 0.4880
vn -0.8601 0.3235 0.3945
vn 0.6936 -0.1261 -0.7093
vn 0.4251 -0.1181 -0.8974
vn 1.0000 -0.0000 -0.0000
vn 1.0000 -0.0000 -0.0001
vn 0.9961 0.0395 -0.0790
vn 0.8534 0.3399 0.3952
vn 0.9970 0.0706 0.0314
vn -0.9850 -0.1576 0.0710
vn -0.8764 -0.4737 0.0868
vn 0.8365 0.3630 0.4104
vn 0.5127 0.5364 0.6704
vn 0.9910 -0.1338 -0.0000
vn 0.1416 -0.5901 -0.7948
vn -0.6924 0.6530 0.3069
vn -0.9353 -0.0079 0.3537
vn 0.8019 -0.5974 -0.0000
vn 0.9354 -0.0078 -0.3536
vn -0.7538 -0.5968 0.2748
vn -0.7565 -0.0000 0.6540
vn 0.4014 -0.5902 0.7004
vn 0.1417 -0.5902 0.7948
vn 0.1654 -0.3072 0.9372
vn 0.4876 0.0079 0.8730
vn 0.1657 0.0158 0.9861
vn -0.3399 -0.6244 -0.7033
vn 0.1418 -0.0948 -0.9853
vn 0.4722 -0.3069 -0.8263
vn 0.8800 -0.2986 -0.3693
vn 0.7386 -0.2436 -0.6286
vn -0.4713 -0.8561 -0.2121
vn 0.1025 -0.7035 -0.7032
vn 0.1176 0.5883 0.8001
vn 0.7707 -0.6372 -0.0000
vn -0.3158 -0.2762 -0.9077
vn 0.2274 0.1333 0.9646
vn -0.9518 -0.3068 -0.0000
vn 0.1416 -0.5902 0.7948
vn 0.1654 -0.3071 0.9372
vn 0.1177 0.5883 0.8001
vt 0.572331 0.530843
vt 0.988416 0.700090
vt 0.352729 0.592381
vt 0.685000 0.505466
vt 0.461710 0.560072
vt 0.583760 0.314045
vt 0.603601 0.314045
vt 0.603601 0.351178
vt 0.544077 0.221210
vt 0.563919 0.239777
vt 0.544077 0.239777
vt 0.385347 0.314045
vt 0.405188 0.314045
vt 0.405188 0.351178
vt 0.405188 0.221210
vt 0.425030 0.239777
vt 0.405188 0.239777
vt 0.461710 0.840380
vt 0.244976 0.773452
vt 0.988416 0.700362
vt 0.663125 0.314045
vt 0.682966 0.314045
vt 0.682966 0.351178
vt 0.682966 0.221210
vt 0.702808 0.239777
vt 0.682966 0.239777
vt 0.583760 0.221210
vt 0.603601 0.202643
vt 0.603601 0.239777
vt 0.583760 0.184076
vt 0.583760 0.202643
vt 0.365506 0.221210
vt 0.385347 0.239777
vt 0.405188 0.184076
vt 0.425030 0.202643
vt 0.365506 0.202643
vt 0.425030 0.314045
vt 0.444871 0.351178
vt 0.425030 0.351178
vt 0.702808 0.351178
vt 0.464712 0.314045
vt 0.484554 0.314045
vt 0.484554 0.351178
vt 0.524236 0.258344
vt 0.544077 0.258344
vt 0.544077 0.276911
vt 0.544077 0.314045
vt 0.563919 0.351178
vt 0.544077 0.351178
vt 0.464712 0.369745
vt 0.643284 0.369745
vt 0.682966 0.369745
vt 0.722649 0.221210
vt 0.722649 0.184076
vt 0.722649 0.202643
vt 0.702808 0.202643
vt 0.583760 0.276911
vt 0.603601 0.276911
vt 0.603601 0.295478
vt 0.583760 0.239777
vt 0.484554 0.202643
vt 0.504395 0.202643
vt 0.504395 0.239777
vt 0.484554 0.184076
vt 0.623443 0.314045
vt 0.643284 0.351178
vt 0.623443 0.351178
vt 0.663125 0.351178
vt 0.484554 0.276911
vt 0.504395 0.295478
vt 0.484554 0.295478
vt 0.385347 0.276911
vt 0.405188 0.276911
vt 0.405188 0.295478
vt 0.623443 0.184076
vt 0.623443 0.202643
vt 0.444871 0.184076
vt 0.444871 0.202643
vt 0.663125 0.276911
vt 0.682966 0.276911
vt 0.682966 0.295478
vt 0.365506 0.276911
vt 0.385347 0.295478
vt 0.365506 0.295478
vt 0.800127 0.915743
vt 0.891303 0.886656
vt 0.941556 0.807315
vt 0.504395 0.258344
vt 0.524236 0.276911
vt 0.504395 0.276911
vt 0.464712 0.202643
vt 0.484554 0.239777
vt 0.464712 0.239777
vt 0.623443 0.276911
vt 0.643284 0.276911
vt 0.643284 0.295478
vt 0.663125 0.295478
vt 0.504395 0.351178
vt 0.583760 0.369745
vt 0.524236 0.369745
vt 0.504395 0.314045
vt 0.563919 0.295478
vt 0.583760 0.295478
vt 0.425030 0.369745
vt 0.385347 0.369745
vt 0.941556 0.593137
vt 0.891303 0.513796
vt 0.464712 0.295478
vt 0.702808 0.276911
vt 0.524236 0.314045
vt 0.524236 0.351178
vt 0.484554 0.258344
vt 0.464712 0.276911
vt 0.858213 0.490886
vt 0.800127 0.484709
vt 0.524236 0.184076
vt 0.563919 0.184076
vt 0.544077 0.202643
vt 0.663125 0.184076
vt 0.524236 0.221210
vt 0.563919 0.202643
vt 0.385347 0.351178
vt 0.425030 0.276911
vt 0.524236 0.295478
vt 0.563919 0.276911
vt 0.425030 0.221210
vt 0.444871 0.239777
vt 0.685000 0.894986
vt 0.603601 0.258344
vt 0.583760 0.258344
vt 0.031519 0.700362
vt 0.031519 0.700090
vt 0.643284 0.202643
vt 0.663125 0.239777
vt 0.643284 0.239777
vt 0.858213 0.909566
vt 0.867475 0.906829
vt 0.663125 0.202643
vt 0.682966 0.202643
vt 0.563919 0.314045
vt 0.444871 0.276911
vt 0.444871 0.295478
vt 0.643284 0.314045
vt 0.623443 0.295478
vt 0.444871 0.314045
vt 0.425030 0.295478
vt 0.702808 0.314045
vt 0.722649 0.314045
vt 0.722649 0.351178
vt 0.702808 0.295478
vt 0.722649 0.276911
vt 0.722649 0.295478
vt 0.524236 0.239777
vt 0.563919 0.258344
vt 0.583760 0.351178
vt 0.623443 0.239777
vt 0.623443 0.258344
vt 0.874824 0.902571
vt 0.874824 0.497880
vt 0.563919 0.221210
vt 0.365506 0.239777
vt 0.524236 0.202643
vt 0.365506 0.184076
vt 0.464712 0.351178
vt 0.722649 0.369745
vt 0.365506 0.314045
vt 0.365506 0.351178
vt 0.365506 0.369745
vt 0.722649 0.239777
s 1
usemtl Handle1Mtl.059
f 1/1/1 2/2/2 3/3/3
f 4/4/4 5/5/5 6/2/6
f 7/6/7 8/7/8 9/8/9
f 10/9/10 11/10/11 12/11/12
f 13/12/13 14/13/14 15/14/15
f 16/15/16 17/16/17 18/17/18
f 19/18/19 20/19/1 21/20/20
f 22/18/6 23/20/21 24/19/22
f 25/21/23 26/22/24 27/23/25
f 28/24/26 29/25/27 30/26/28
f 31/27/29 32/28/30 33/29/31
f 34/30/32 32/28/30 35/31/33
f 36/32/34 16/15/16 37/33/35
f 38/34/36 39/35/37 40/36/38
f 41/37/39 42/38/40 43/39/41
f 26/22/24 44/40/42 27/23/25
f 45/41/43 46/42/44 47/43/45
f 48/44/46 49/45/47 50/46/48
f 51/47/49 52/48/50 53/49/51
f 54/50/52 55/51/52 56/52/52
f 28/24/26 57/53/53 29/25/27
f 58/54/54 59/55/55 60/56/56
f 61/57/57 62/58/58 63/59/59
f 31/27/29 33/29/31 64/60/60
f 65/61/61 66/62/62 67/63/63
f 68/64/64 66/62/62 65/61/61
f 69/65/65 70/66/66 71/67/67
f 72/68/68 56/52/52 55/51/52
f 73/69/69 74/70/70 75/71/71
f 76/72/72 77/73/73 78/74/74
f 34/30/32 79/75/75 80/76/76
f 38/34/36 81/77/77 82/78/78
f 83/79/79 84/80/80 85/81/81
f 86/82/82 87/83/83 88/84/84
f 89/85/22 90/86/85 91/87/85
f 92/85/19 21/20/20 93/87/86
f 94/88/87 95/89/88 96/90/89
f 97/91/90 98/92/91 99/93/92
f 100/94/93 101/95/94 102/96/95
f 101/95/94 103/97/96 102/96/95
f 46/42/44 104/98/97 47/43/45
f 53/49/51 105/99/98 106/100/99
f 75/71/71 74/70/70 107/101/100
f 108/102/101 109/103/102 7/6/7
f 15/14/15 110/104/103 111/105/104
f 27/23/25 44/40/42 56/52/52
f 1/1/1 112/106/105 2/2/2
f 112/106/105 113/107/106 114/106/107
f 115/108/108 46/42/44 45/41/43
f 87/83/83 14/13/14 13/12/13
f 71/67/67 70/66/66 55/51/52
f 53/49/51 52/48/50 105/99/98
f 30/26/28 29/25/27 116/109/109
f 37/33/35 77/73/73 76/72/72
f 107/101/100 117/110/110 118/111/111
f 74/70/70 117/110/110 107/101/100
f 47/43/45 104/98/97 106/100/99
f 43/39/41 42/38/40 110/104/103
f 103/97/96 26/22/24 25/21/23
f 88/84/84 87/83/83 13/12/13
f 99/93/92 98/92/91 119/112/112
f 120/113/113 73/69/69 75/71/71
f 102/96/95 103/97/96 25/21/23
f 109/103/102 8/7/8 7/6/7
f 1/1/1 5/5/5 4/4/4
f 121/114/114 122/115/115 123/115/114
f 124/116/116 125/117/117 126/118/118
f 127/119/119 125/117/117 124/116/116
f 128/120/120 10/9/10 12/11/12
f 125/117/117 129/121/121 126/118/118
f 130/122/122 15/14/15 111/105/104
f 13/12/13 15/14/15 130/122/122
f 18/17/18 17/16/17 131/123/123
f 99/93/92 119/112/112 120/113/113
f 96/90/89 95/89/88 132/124/124
f 133/125/125 109/103/102 108/102/101
f 134/126/126 82/78/78 135/127/127
f 38/34/36 82/78/78 39/35/37
f 92/85/19 19/18/19 21/20/20
f 136/128/6 23/20/21 22/18/6
f 64/60/60 33/29/31 137/129/128
f 138/130/129 62/58/58 61/57/57
f 21/20/20 91/87/85 93/87/86
f 139/131/130 23/20/21 21/20/20
f 2/2/2 112/106/105 114/106/107
f 140/132/131 2/2/2 6/2/6
f 141/133/132 142/134/133 143/135/134
f 142/134/133 84/80/80 83/79/79
f 5/5/5 144/132/4 6/2/6
f 3/3/3 2/2/2 140/132/131
f 93/87/86 91/87/85 90/86/85
f 145/136/135 146/137/136 89/85/22
f 127/119/119 81/77/77 38/34/36
f 127/119/119 58/54/54 60/56/56
f 147/138/137 28/24/26 30/26/28
f 127/119/119 148/139/138 147/138/137
f 123/115/114 114/106/107 113/107/106
f 121/114/114 123/115/114 149/114/139
f 51/47/49 150/140/140 52/48/50
f 108/102/101 150/140/140 51/47/49
f 17/16/17 151/141/141 131/123/123
f 131/123/123 151/141/141 152/142/142
f 152/142/142 115/108/108 45/41/43
f 151/141/141 115/108/108 152/142/142
f 69/65/65 153/143/143 70/66/66
f 154/144/144 153/143/143 69/65/65
f 41/37/39 155/145/145 42/38/40
f 156/146/146 155/145/145 41/37/39
f 47/43/45 106/100/99 54/50/52
f 54/50/52 106/100/99 105/99/98
f 157/147/147 158/148/148 159/149/149
f 160/150/150 158/148/148 157/147/147
f 54/50/52 105/99/98 55/51/52
f 9/8/9 55/51/52 105/99/98
f 85/81/81 160/150/150 157/147/147
f 84/80/80 160/150/150 85/81/81
f 29/25/27 161/151/82 116/109/109
f 116/109/109 161/151/82 162/152/151
f 92/85/19 136/128/6 19/18/19
f 145/136/135 89/85/22 92/85/19
f 20/19/1 22/18/6 24/19/22
f 3/3/3 140/132/131 144/132/4
f 140/132/131 6/2/6 144/132/4
f 139/131/130 163/131/22 23/20/21
f 66/62/62 164/153/152 67/63/63
f 164/153/152 49/45/47 48/44/46
f 12/11/12 11/10/11 165/154/153
f 64/60/60 137/129/128 138/130/129
f 166/155/154 9/8/9 105/99/98
f 7/6/7 9/8/9 166/155/154
f 167/156/155 101/95/94 168/157/156
f 143/135/134 142/134/133 83/79/79
f 145/136/135 92/85/19 93/87/86
f 93/87/86 90/86/85 169/158/157
f 122/115/115 170/159/20 112/106/105
f 112/106/105 170/159/20 113/107/106
f 80/76/76 141/133/132 143/135/134
f 79/75/75 141/133/132 80/76/76
f 35/31/33 32/28/30 31/27/29
f 126/118/118 129/121/121 171/160/158
f 39/35/37 82/78/78 134/126/126
f 40/36/38 39/35/37 16/15/16
f 138/130/129 137/129/128 62/58/58
f 168/157/156 101/95/94 100/94/93
f 172/161/159 37/33/35 76/72/72
f 36/32/34 37/33/35 172/161/159
f 50/46/48 133/125/125 108/102/101
f 49/45/47 133/125/125 50/46/48
f 1/1/1 3/3/3 5/5/5
f 3/3/3 144/132/4 5/5/5
f 19/18/19 136/128/6 22/18/6
f 19/18/19 22/18/6 20/19/1
f 40/36/38 16/15/16 36/32/34
f 60/56/56 59/55/55 57/53/53
f 49/45/47 165/154/153 133/125/125
f 12/11/12 165/154/153 49/45/47
f 136/128/6 91/87/85 23/20/21
f 21/20/20 23/20/21 91/87/85
f 170/159/20 173/159/160 113/107/106
f 149/114/139 123/115/114 113/107/106
f 67/63/63 164/153/152 48/44/46
f 98/92/91 94/88/87 119/112/112
f 66/62/62 128/120/120 164/153/152
f 124/116/116 174/162/161 66/62/62
f 63/59/59 154/144/144 69/65/65
f 62/58/58 154/144/144 63/59/59
f 132/124/124 108/102/101 51/47/49
f 95/89/88 108/102/101 132/124/124
f 175/163/162 38/34/36 40/36/38
f 127/119/119 38/34/36 175/163/162
f 78/74/74 156/146/146 41/37/39
f 77/73/73 156/146/146 78/74/74
f 42/38/40 45/41/43 176/164/163
f 42/38/40 176/164/163 54/50/52
f 70/66/66 25/21/23 72/68/68
f 70/66/66 72/68/68 55/51/52
f 54/50/52 56/52/52 177/165/52
f 44/40/42 177/165/52 56/52/52
f 4/4/4 6/2/6 114/106/107
f 2/2/2 114/106/107 6/2/6
f 68/64/64 124/116/116 66/62/62
f 127/119/119 124/116/116 68/64/64
f 122/115/115 112/106/105 1/1/1
f 122/115/115 1/1/1 4/4/4
f 178/166/164 13/12/13 179/167/165
f 88/84/84 13/12/13 178/166/164
f 135/127/127 120/113/113 151/141/141
f 151/141/141 120/113/113 115/108/108
f 143/135/134 83/79/79 101/95/94
f 101/95/94 83/79/79 103/97/96
f 54/50/52 111/105/104 110/104/103
f 42/38/40 54/50/52 110/104/103
f 44/40/42 159/149/149 177/165/52
f 157/147/147 159/149/149 44/40/42
f 104/98/97 118/111/111 106/100/99
f 107/101/100 118/111/111 104/98/97
f 30/26/28 116/109/109 84/80/80
f 84/80/80 116/109/109 160/150/150
f 82/78/78 97/91/90 99/93/92
f 81/77/77 97/91/90 82/78/78
f 135/127/127 99/93/92 120/113/113
f 82/78/78 99/93/92 135/127/127
f 167/156/155 143/135/134 101/95/94
f 80/76/76 143/135/134 167/156/155
f 150/140/140 7/6/7 166/155/154
f 108/102/101 7/6/7 150/140/140
f 117/110/110 51/47/49 53/49/51
f 132/124/124 51/47/49 117/110/110
f 26/22/24 157/147/147 44/40/42
f 85/81/81 157/147/147 26/22/24
f 46/42/44 107/101/100 104/98/97
f 75/71/71 107/101/100 46/42/44
f 169/158/157 90/86/85 146/137/136
f 146/137/136 90/86/85 89/85/22
f 18/17/18 131/123/123 77/73/73
f 77/73/73 131/123/123 156/146/146
f 145/136/135 93/87/86 169/158/157
f 169/158/157 146/137/136 145/136/135
f 89/85/22 91/87/85 136/128/6
f 92/85/19 89/85/22 136/128/6
f 141/133/132 147/138/137 142/134/133
f 127/119/119 147/138/137 141/133/132
f 123/115/114 4/4/4 114/106/107
f 122/115/115 4/4/4 123/115/114
f 119/112/112 94/88/87 96/90/89
f 120/113/113 119/112/112 73/69/69
f 148/139/138 57/53/53 28/24/26
f 147/138/137 148/139/138 28/24/26
f 54/50/52 180/168/52 111/105/104
f 179/167/165 111/105/104 180/168/52
f 174/162/161 10/9/10 128/120/120
f 66/62/62 174/162/161 128/120/120
f 20/19/1 139/131/130 21/20/20
f 20/19/1 163/131/22 139/131/130
f 172/161/159 76/72/72 86/82/82
f 86/82/82 76/72/72 87/83/83
f 127/119/119 79/75/75 34/30/32
f 79/75/75 127/119/119 141/133/132
f 97/91/90 65/61/61 98/92/91
f 68/64/64 65/61/61 97/91/90
f 179/167/165 13/12/13 130/122/122
f 179/167/165 130/122/122 111/105/104
f 52/48/50 166/155/154 105/99/98
f 150/140/140 166/155/154 52/48/50
f 9/8/9 69/65/65 71/67/67
f 9/8/9 71/67/67 55/51/52
f 176/164/163 47/43/45 54/50/52
f 45/41/43 47/43/45 176/164/163
f 118/111/111 53/49/51 106/100/99
f 117/110/110 53/49/51 118/111/111
f 72/68/68 27/23/25 56/52/52
f 25/21/23 27/23/25 72/68/68
f 15/14/15 41/37/39 43/39/41
f 15/14/15 43/39/41 110/104/103
f 16/15/16 134/126/126 17/16/17
f 39/35/37 134/126/126 16/15/16
f 171/160/158 31/27/29 64/60/60
f 129/121/121 31/27/29 171/160/158
f 121/114/114 170/159/20 122/115/115
f 170/159/20 121/114/114 173/159/160
f 125/117/117 34/30/32 35/31/33
f 127/119/119 34/30/32 125/117/117
f 81/77/77 68/64/64 97/91/90
f 127/119/119 68/64/64 81/77/77
f 32/28/30 80/76/76 167/156/155
f 34/30/32 80/76/76 32/28/30
f 142/134/133 30/26/28 84/80/80
f 147/138/137 30/26/28 142/134/133
f 98/92/91 67/63/63 94/88/87
f 65/61/61 67/63/63 98/92/91
f 137/129/128 168/157/156 100/94/93
f 33/29/31 168/157/156 137/129/128
f 29/25/27 181/169/166 161/151/82
f 57/53/53 181/169/166 29/25/27
f 17/16/17 135/127/127 151/141/141
f 134/126/126 135/127/127 17/16/17
f 62/58/58 100/94/93 154/144/144
f 137/129/128 100/94/93 62/58/58
f 33/29/31 167/156/155 168/157/156
f 32/28/30 167/156/155 33/29/31
f 14/13/14 41/37/39 15/14/15
f 78/74/74 41/37/39 14/13/14
f 8/7/8 69/65/65 9/8/9
f 63/59/59 69/65/65 8/7/8
f 155/145/145 45/41/43 42/38/40
f 152/142/142 45/41/43 155/145/145
f 94/88/87 48/44/46 95/89/88
f 67/63/63 48/44/46 94/88/87
f 153/143/143 25/21/23 70/66/66
f 102/96/95 25/21/23 153/143/143
f 165/154/153 138/130/129 61/57/57
f 11/10/11 138/130/129 165/154/153
f 164/153/152 12/11/12 49/45/47
f 128/120/120 12/11/12 164/153/152
f 73/69/69 96/90/89 74/70/70
f 119/112/112 96/90/89 73/69/69
f 133/125/125 61/57/57 109/103/102
f 165/154/153 61/57/57 133/125/125
f 37/33/35 18/17/18 77/73/73
f 16/15/16 18/17/18 37/33/35
f 24/19/22 23/20/21 163/131/22
f 20/19/1 24/19/22 163/131/22
f 11/10/11 64/60/60 138/130/129
f 171/160/158 64/60/60 11/10/11
f 156/146/146 152/142/142 155/145/145
f 131/123/123 152/142/142 156/146/146
f 154/144/144 102/96/95 153/143/143
f 100/94/93 102/96/95 154/144/144
f 115/108/108 75/71/71 46/42/44
f 120/113/113 75/71/71 115/108/108
f 129/121/121 35/31/33 31/27/29
f 125/117/117 35/31/33 129/121/121
f 103/97/96 85/81/81 26/22/24
f 83/79/79 85/81/81 103/97/96
f 10/9/10 171/160/158 11/10/11
f 126/118/118 171/160/158 10/9/10
f 174/162/161 126/118/118 10/9/10
f 124/116/116 126/118/118 174/162/161
f 109/103/102 63/59/59 8/7/8
f 61/57/57 63/59/59 109/103/102
f 95/89/88 50/46/48 108/102/101
f 48/44/46 50/46/48 95/89/88
f 74/70/70 132/124/124 117/110/110
f 96/90/89 132/124/124 74/70/70
f 148/139/138 60/56/56 57/53/53
f 127/119/119 60/56/56 148/139/138
f 121/114/114 149/114/139 173/159/160
f 149/114/139 113/107/106 173/159/160
f 87/83/83 78/74/74 14/13/14
f 76/72/72 78/74/74 87/83/83
f 160/150/150 162/152/151 158/148/148
f 116/109/109 162/152/151 160/150/150
