# Blender 5.1.2
# www.blender.org
mtllib Gyro.mtl
o Gyro
v 0.311323 0.000001 0.314667
v 0.399883 -0.014819 0.167068
v 0.305274 -0.014819 0.308666
v 0.407784 0.000001 0.170368
v 0.305274 0.014831 0.308666
v 0.399883 0.014831 0.167068
v 0.399883 0.014831 0.167068
v 0.433103 0.014831 0.000069
v 0.441663 0.000001 0.000069
v 0.399883 -0.014819 0.167068
v 0.433103 -0.014819 0.000069
v 0.099993 -0.051659 0.000069
v 0.028594 -0.051659 -0.098232
v 0.080253 0.051671 -0.060734
v 0.028594 -0.051659 0.098267
v 0.099993 -0.051659 0.000069
v 0.080253 0.051671 0.060768
v 0.099993 -0.051659 0.000069
v 0.080253 0.051671 -0.060734
v 0.080253 0.051671 0.060768
v -0.422667 0.014831 0.000069
v -0.390747 0.014831 0.160469
v -0.382847 0.000001 0.157269
v -0.414107 0.000001 0.000069
v -0.293797 0.000001 0.290466
v -0.390747 0.014831 0.160469
v -0.299847 0.014831 0.296566
v -0.390747 -0.014819 0.160469
v -0.299847 -0.014819 0.296566
v -0.293797 0.000001 0.290466
v -0.382847 0.000001 0.157269
v -0.422667 -0.014819 0.000069
v -0.390747 -0.014819 0.160469
v -0.414107 0.000001 0.000069
v -0.382847 0.000001 -0.157131
v -0.422667 -0.014819 0.000069
v -0.390747 -0.014819 -0.160431
v -0.422667 0.014831 0.000069
v -0.390747 0.014831 -0.160431
v -0.382847 0.000001 -0.157131
v -0.293797 0.000001 -0.290432
v -0.390747 0.014831 -0.160431
v -0.299847 0.014831 -0.296432
v -0.390747 -0.014819 -0.160431
v -0.299847 -0.014819 -0.296432
v -0.293797 0.000001 -0.290432
v 0.311323 0.000001 -0.314632
v 0.399883 -0.014819 -0.166931
v 0.305274 -0.014819 -0.308533
v 0.407784 0.000001 -0.170235
v 0.305274 0.014831 -0.308533
v 0.399883 0.014831 -0.166931
v 0.433103 0.014831 0.000069
v 0.399883 0.014831 -0.166931
v 0.441663 0.000001 0.000069
v 0.399883 -0.014819 -0.166931
v 0.433103 -0.014819 0.000069
v 0.163673 0.014831 0.403267
v -0.003337 0.014831 0.436466
v -0.003337 0.014831 0.419369
v 0.157133 0.014831 0.387466
v 0.157133 0.014831 0.387466
v 0.293163 0.014831 0.296566
v 0.305274 0.014831 0.308666
v 0.163673 0.014831 0.403267
v 0.305274 0.014831 0.308666
v 0.399883 0.014831 0.167068
v 0.293163 0.014831 0.296566
v 0.384063 0.014831 0.160469
v 0.415983 0.014831 0.000069
v 0.384063 0.014831 0.160469
v 0.399883 0.014831 0.167068
v 0.433103 0.014831 0.000069
v -0.035267 0.051671 -0.098232
v -0.106677 0.051671 0.000069
v -0.003337 0.115531 0.000069
v 0.080253 0.051671 -0.060734
v -0.035267 0.051671 -0.098232
v -0.003337 0.115531 0.000069
v 0.080253 0.051671 0.060768
v 0.080253 0.051671 -0.060734
v -0.003337 0.115531 0.000069
v -0.035267 0.051671 0.098267
v 0.080253 0.051671 0.060768
v -0.003337 0.115531 0.000069
v -0.106677 0.051671 0.000069
v -0.035267 0.051671 0.098267
v -0.003337 0.115531 0.000069
v -0.406557 0.014831 0.167068
v -0.439787 0.014831 0.000069
v -0.422667 0.014831 0.000069
v -0.390747 0.014831 0.160469
v -0.390747 0.014831 0.160469
v -0.299847 0.014831 0.296566
v -0.311957 0.014831 0.308666
v -0.406557 0.014831 0.167068
v -0.406557 0.014831 -0.166931
v -0.439787 0.014831 0.000069
v -0.422667 0.014831 0.000069
v -0.390747 0.014831 -0.160431
v -0.390747 0.014831 -0.160431
v -0.299847 0.014831 -0.296432
v -0.311957 0.014831 -0.308533
v -0.406557 0.014831 -0.166931
v -0.311957 0.014831 -0.308533
v -0.170357 0.014831 -0.403233
v -0.299847 0.014831 -0.296432
v -0.163807 0.014831 -0.387333
v -0.003337 0.014831 -0.419334
v -0.163807 0.014831 -0.387333
v -0.170357 0.014831 -0.403233
v -0.003337 0.014831 -0.436432
v 0.163673 0.014831 -0.403233
v -0.003337 0.014831 -0.436432
v -0.003337 0.014831 -0.419334
v 0.157133 0.014831 -0.387333
v 0.157133 0.014831 -0.387333
v 0.293163 0.014831 -0.296432
v 0.305274 0.014831 -0.308533
v 0.163673 0.014831 -0.403233
v 0.305274 0.014831 -0.308533
v 0.399883 0.014831 -0.166931
v 0.293163 0.014831 -0.296432
v 0.384063 0.014831 -0.160431
v 0.415983 0.014831 0.000069
v 0.384063 0.014831 -0.160431
v 0.433103 0.014831 0.000069
v 0.399883 0.014831 -0.166931
v -0.311957 0.014831 0.308666
v -0.170357 0.014831 0.403267
v -0.163807 0.014831 0.387466
v -0.299847 0.014831 0.296566
v -0.003337 0.014831 0.419369
v -0.163807 0.014831 0.387466
v -0.170357 0.014831 0.403267
v -0.003337 0.014831 0.436466
v -0.003337 0.000001 0.445068
v 0.163673 -0.014819 0.403267
v 0.166953 0.000001 0.411167
v 0.163673 0.014831 0.403267
v -0.003337 0.014831 0.436466
v 0.305274 0.014831 0.308666
v 0.163673 0.014831 0.403267
v 0.311323 0.000001 0.314667
v 0.305274 -0.014819 0.308666
v 0.163673 -0.014819 0.403267
v -0.086936 -0.051659 0.060768
v 0.028594 -0.051659 0.098267
v -0.035267 0.051671 0.098267
v 0.028594 -0.051659 0.098267
v 0.080253 0.051671 0.060768
v -0.035267 0.051671 0.098267
v -0.318007 0.000001 0.314667
v -0.293797 0.000001 -0.290432
v -0.293797 0.000001 -0.290432
v -0.163807 -0.014819 -0.387333
v -0.299847 -0.014819 -0.296432
v -0.160537 0.000001 -0.379433
v -0.299847 0.014831 -0.296432
v -0.163807 0.014831 -0.387333
v -0.160537 0.000001 -0.379433
v -0.003337 0.000001 -0.410732
v -0.003337 0.014831 -0.419334
v -0.163807 0.014831 -0.387333
v -0.003337 -0.014819 -0.419334
v -0.163807 -0.014819 -0.387333
v -0.003337 0.000001 -0.410732
v -0.003337 -0.014819 -0.419334
v 0.153853 0.000001 -0.379433
v 0.157133 -0.014819 -0.387333
v -0.003337 0.014831 -0.419334
v 0.157133 0.014831 -0.387333
v 0.153853 0.000001 -0.379433
v 0.287113 0.000001 -0.290432
v 0.157133 0.014831 -0.387333
v 0.293163 0.014831 -0.296432
v 0.157133 -0.014819 -0.387333
v 0.293163 -0.014819 -0.296432
v 0.287113 0.000001 -0.290432
v -0.173637 0.000001 0.411167
v -0.311957 0.014831 0.308666
v -0.311957 -0.014819 0.308666
v -0.170357 0.014831 0.403267
v -0.170357 -0.014819 0.403267
v -0.170357 0.014831 0.403267
v -0.003337 0.014831 0.436466
v -0.170357 -0.014819 0.403267
v -0.003337 -0.014819 0.436466
v -0.003337 -0.014819 0.436466
v 0.287113 0.000001 0.290466
v 0.287113 0.000001 0.290466
v 0.384063 -0.014819 0.160469
v 0.376163 0.000001 0.157269
v 0.293163 -0.014819 0.296566
v 0.293163 0.014831 0.296566
v 0.384063 0.014831 0.160469
v 0.376163 0.000001 0.157269
v 0.415983 0.014831 0.000069
v 0.407423 0.000001 0.000069
v 0.384063 0.014831 0.160469
v 0.415983 -0.014819 0.000069
v 0.384063 -0.014819 0.160469
v 0.407423 0.000001 0.000069
v -0.086936 -0.051659 -0.060734
v -0.086936 -0.051659 0.060768
v -0.106677 0.051671 0.000069
v -0.086936 -0.051659 -0.060734
v -0.106677 0.051671 0.000069
v -0.035267 0.051671 -0.098232
v -0.086936 -0.051659 0.060768
v -0.035267 0.051671 0.098267
v -0.106677 0.051671 0.000069
v -0.406557 0.014831 0.167068
v -0.439787 0.014831 0.000069
v -0.448337 0.000001 0.000069
v -0.414467 0.000001 0.170368
v -0.311957 0.014831 0.308666
v -0.406557 0.014831 0.167068
v -0.318007 0.000001 0.314667
v -0.311957 -0.014819 0.308666
v -0.406557 -0.014819 0.167068
v -0.406557 -0.014819 0.167068
v -0.439787 -0.014819 0.000069
v -0.406557 -0.014819 -0.166931
v -0.439787 -0.014819 0.000069
v -0.414467 0.000001 -0.170235
v -0.406557 0.014831 -0.166931
v -0.439787 0.014831 0.000069
v -0.311957 0.014831 -0.308533
v -0.406557 0.014831 -0.166931
v -0.318007 0.000001 -0.314632
v -0.311957 -0.014819 -0.308533
v -0.406557 -0.014819 -0.166931
v 0.287113 0.000001 -0.290432
v 0.287113 0.000001 -0.290432
v 0.384063 -0.014819 -0.160431
v 0.376163 0.000001 -0.157131
v 0.293163 -0.014819 -0.296432
v 0.293163 0.014831 -0.296432
v 0.384063 0.014831 -0.160431
v 0.376163 0.000001 -0.157131
v 0.415983 0.014831 0.000069
v 0.407423 0.000001 0.000069
v 0.384063 0.014831 -0.160431
v 0.384063 -0.014819 -0.160431
v 0.415983 -0.014819 0.000069
v 0.407423 0.000001 0.000069
v 0.163673 -0.014819 0.403267
v 0.305274 -0.014819 0.308666
v 0.163673 -0.014819 0.403267
v 0.157133 -0.014819 0.387466
v 0.293163 -0.014819 0.296566
v 0.384063 -0.014819 0.160469
v 0.293163 -0.014819 0.296566
v 0.399883 -0.014819 0.167068
v 0.305274 -0.014819 0.308666
v 0.399883 -0.014819 0.167068
v 0.433103 -0.014819 0.000069
v 0.415983 -0.014819 0.000069
v 0.384063 -0.014819 0.160469
v -0.003337 -0.115529 0.000069
v -0.086936 -0.051659 -0.060734
v 0.028594 -0.051659 -0.098232
v -0.086936 -0.051659 -0.060734
v -0.003337 -0.115529 0.000069
v -0.086936 -0.051659 0.060768
v -0.003337 -0.115529 0.000069
v 0.028594 -0.051659 -0.098232
v 0.099993 -0.051659 0.000069
v -0.003337 -0.115529 0.000069
v 0.099993 -0.051659 0.000069
v 0.028594 -0.051659 0.098267
v -0.003337 -0.115529 0.000069
v 0.028594 -0.051659 0.098267
v -0.086936 -0.051659 0.060768
v -0.311957 -0.014819 0.308666
v -0.406557 -0.014819 0.167068
v -0.390747 -0.014819 0.160469
v -0.299847 -0.014819 0.296566
v -0.406557 -0.014819 0.167068
v -0.439787 -0.014819 0.000069
v -0.422667 -0.014819 0.000069
v -0.390747 -0.014819 0.160469
v -0.422667 -0.014819 0.000069
v -0.390747 -0.014819 -0.160431
v -0.406557 -0.014819 -0.166931
v -0.439787 -0.014819 0.000069
v -0.311957 -0.014819 -0.308533
v -0.406557 -0.014819 -0.166931
v -0.390747 -0.014819 -0.160431
v -0.299847 -0.014819 -0.296432
v -0.163807 -0.014819 -0.387333
v -0.299847 -0.014819 -0.296432
v -0.170357 -0.014819 -0.403233
v -0.311957 -0.014819 -0.308533
v -0.170357 -0.014819 -0.403233
v -0.003337 -0.014819 -0.436432
v -0.003337 -0.014819 -0.419334
v -0.163807 -0.014819 -0.387333
v -0.003337 -0.014819 -0.419334
v 0.157133 -0.014819 -0.387333
v 0.163673 -0.014819 -0.403233
v -0.003337 -0.014819 -0.436432
v 0.305274 -0.014819 -0.308533
v 0.163673 -0.014819 -0.403233
v 0.157133 -0.014819 -0.387333
v 0.293163 -0.014819 -0.296432
v 0.384063 -0.014819 -0.160431
v 0.293163 -0.014819 -0.296432
v 0.399883 -0.014819 -0.166931
v 0.305274 -0.014819 -0.308533
v 0.399883 -0.014819 -0.166931
v 0.433103 -0.014819 0.000069
v 0.384063 -0.014819 -0.160431
v 0.415983 -0.014819 0.000069
v -0.311957 -0.014819 0.308666
v -0.170357 -0.014819 0.403267
v -0.163807 -0.014819 0.387466
v -0.299847 -0.014819 0.296566
v -0.170357 -0.014819 0.403267
v -0.003337 -0.014819 0.436466
v -0.003337 -0.014819 0.419369
v -0.163807 -0.014819 0.387466
v -0.003337 -0.014819 0.419369
v 0.157133 -0.014819 0.387466
v -0.003337 -0.014819 0.436466
v -0.003337 0.014831 0.419369
v 0.157133 0.014831 0.387466
v 0.153853 0.000001 0.379566
v -0.003337 0.000001 0.410767
v 0.157133 0.014831 0.387466
v 0.287113 0.000001 0.290466
v 0.293163 0.014831 0.296566
v 0.157133 -0.014819 0.387466
v 0.293163 -0.014819 0.296566
v 0.287113 0.000001 0.290466
v 0.153853 0.000001 0.379566
v 0.028594 -0.051659 -0.098232
v -0.086936 -0.051659 -0.060734
v -0.035267 0.051671 -0.098232
v 0.028594 -0.051659 -0.098232
v -0.035267 0.051671 -0.098232
v 0.080253 0.051671 -0.060734
v -0.293797 0.000001 0.290466
v -0.293797 0.000001 0.290466
v -0.318007 0.000001 -0.314632
v -0.170357 -0.014819 -0.403233
v -0.311957 -0.014819 -0.308533
v -0.173637 0.000001 -0.411133
v -0.311957 0.014831 -0.308533
v -0.170357 0.014831 -0.403233
v -0.170357 0.014831 -0.403233
v -0.003337 0.014831 -0.436432
v -0.003337 0.000001 -0.444931
v -0.170357 -0.014819 -0.403233
v -0.003337 -0.014819 -0.436432
v 0.163673 -0.014819 -0.403233
v -0.003337 -0.014819 -0.436432
v 0.166953 0.000001 -0.411133
v 0.163673 0.014831 -0.403233
v -0.003337 0.014831 -0.436432
v 0.305274 0.014831 -0.308533
v 0.163673 0.014831 -0.403233
v 0.311323 0.000001 -0.314632
v 0.305274 -0.014819 -0.308533
v 0.163673 -0.014819 -0.403233
v -0.163807 0.014831 0.387466
v -0.299847 0.014831 0.296566
v -0.160537 0.000001 0.379566
v -0.163807 -0.014819 0.387466
v -0.299847 -0.014819 0.296566
v -0.160537 0.000001 0.379566
v -0.003337 0.014831 0.419369
v -0.163807 0.014831 0.387466
v -0.003337 -0.014819 0.419369
v -0.163807 -0.014819 0.387466
v -0.003337 0.000001 0.410767
v -0.003337 -0.014819 0.419369
v 0.157133 -0.014819 0.387466
vn 0.9224 -0.0000 0.3863
vn 0.3844 -0.8393 0.3844
vn 0.5025 -0.8401 0.2041
vn 0.7071 -0.0000 0.7071
vn 0.3844 0.8394 0.3843
vn 0.5025 0.8401 0.2041
vn 1.0000 -0.0000 0.0001
vn 0.5419 0.8404 -0.0000
vn 0.9224 -0.0000 0.3862
vn 0.5419 -0.8404 -0.0000
vn 0.7958 -0.1891 -0.5752
vn 0.7958 -0.1891 0.5752
vn 0.9821 0.1885 -0.0000
vn 0.4504 0.8928 -0.0000
vn 0.4182 0.8916 -0.1736
vn 0.9224 -0.0000 -0.3863
vn 1.0000 -0.0000 -0.0000
vn 0.7071 -0.0000 -0.7071
vn 0.4181 0.8916 -0.1736
vn 0.3165 0.8942 -0.3165
vn 0.4182 -0.8916 -0.1736
vn 0.3165 -0.8942 -0.3165
vn 0.4503 -0.8929 -0.0000
vn 0.4504 -0.8928 -0.0000
vn 0.4182 -0.8916 0.1736
vn 0.4182 0.8916 0.1736
vn 0.4181 0.8916 0.1736
vn 0.3165 0.8942 0.3165
vn 0.3166 -0.8942 0.3165
vn 0.3844 -0.8394 -0.3843
vn 0.9224 -0.0000 -0.3864
vn 0.5025 -0.8401 -0.2041
vn 0.3844 0.8393 -0.3844
vn 0.5025 0.8401 -0.2042
vn 0.5420 0.8404 -0.0000
vn 0.9224 -0.0000 -0.3862
vn 0.2042 0.8401 0.5025
vn -0.0000 0.8929 -0.4504
vn -0.0000 0.8404 0.5420
vn -0.1736 0.8916 -0.4182
vn -0.1735 0.8916 -0.4182
vn 0.3844 0.8393 0.3843
vn -0.3165 0.8942 -0.3165
vn 0.2041 0.8401 0.5025
vn 0.3844 0.8393 0.3844
vn -0.4182 0.8916 -0.1736
vn 0.5025 0.8401 0.2042
vn -0.4504 0.8929 -0.0000
vn -0.4891 0.7967 -0.3550
vn 0.1891 0.7958 -0.5752
vn 0.6063 0.7953 -0.0000
vn 0.1891 0.7958 0.5752
vn -0.4891 0.7967 0.3550
vn -0.5025 0.8401 0.2042
vn 0.4504 0.8929 -0.0000
vn -0.5420 0.8404 -0.0000
vn -0.3844 0.8393 0.3844
vn 0.3166 0.8942 -0.3165
vn -0.5025 0.8401 0.2041
vn -0.5025 0.8401 -0.2042
vn -0.3844 0.8393 -0.3844
vn 0.3166 0.8942 0.3165
vn -0.5025 0.8401 -0.2041
vn -0.2041 0.8401 -0.5025
vn -0.3844 0.8393 -0.3843
vn 0.1736 0.8916 0.4182
vn -0.0000 0.8929 0.4504
vn -0.2042 0.8401 -0.5025
vn -0.0000 0.8404 -0.5420
vn 0.2041 0.8401 -0.5025
vn -0.1736 0.8916 0.4182
vn -0.3165 0.8942 0.3165
vn 0.2042 0.8401 -0.5025
vn 0.5025 0.8401 -0.2041
vn 0.3843 0.8393 -0.3844
vn -0.4182 0.8916 0.1736
vn 0.1736 0.8916 -0.4182
vn -0.2041 0.8401 0.5025
vn 0.1735 0.8916 -0.4182
vn -0.0000 -0.0000 1.0000
vn 0.2041 -0.8401 0.5025
vn 0.3862 -0.0000 0.9224
vn -0.0000 0.8404 0.5419
vn 0.3863 -0.0000 0.9224
vn 0.3844 0.8394 0.3844
vn 0.7071 -0.0000 0.7072
vn 0.3843 -0.8394 0.3844
vn 0.2042 -0.8401 0.5025
vn -0.3059 -0.1882 0.9333
vn 0.3058 0.1882 0.9333
vn 0.1736 -0.8916 0.4182
vn 0.3165 -0.8942 0.3165
vn -0.0000 0.8929 0.4503
vn 0.1735 0.8916 0.4182
vn -0.0000 -0.8929 0.4503
vn -0.0000 -0.8929 0.4504
vn -0.3863 -0.0000 0.9224
vn -0.1735 -0.8916 0.4182
vn -0.1735 0.8916 0.4182
vn -0.7071 -0.0000 0.7071
vn -0.3165 0.8942 0.3166
vn -0.1736 -0.8916 0.4182
vn -0.3165 -0.8942 0.3165
vn -0.3844 0.8394 0.3844
vn -0.7071 -0.0000 0.7072
vn -0.3844 -0.8394 0.3844
vn -0.2042 0.8401 0.5025
vn -0.2042 -0.8401 0.5025
vn -0.0000 -0.8404 0.5419
vn -0.4182 -0.8916 -0.1736
vn -0.7071 -0.0000 -0.7071
vn -0.9224 -0.0000 -0.3863
vn -0.3165 -0.8942 -0.3165
vn -0.4181 0.8916 -0.1736
vn -1.0000 -0.0000 -0.0000
vn -0.4503 -0.8929 -0.0000
vn -0.4182 -0.8916 -0.1735
vn -0.9821 -0.1886 -0.0000
vn -0.7958 0.1891 -0.5753
vn -0.7959 0.1891 0.5752
vn -0.5419 0.8404 -0.0000
vn -0.9224 -0.0000 0.3862
vn -0.9224 -0.0000 0.3863
vn -0.5025 -0.8401 0.2041
vn -0.5419 -0.8404 -0.0000
vn -0.5025 -0.8401 -0.2041
vn -0.3844 -0.8393 -0.3844
vn -0.5025 -0.8401 -0.2042
vn -0.4182 -0.8916 0.1736
vn -0.4504 0.8928 -0.0000
vn -0.4182 0.8916 0.1735
vn -0.4504 -0.8928 -0.0000
vn -0.1736 -0.8916 -0.4182
vn -0.3166 -0.8942 -0.3165
vn 0.3846 -0.8393 0.3842
vn 0.5025 -0.8401 0.2042
vn -0.4504 -0.8929 -0.0000
vn 0.5420 -0.8404 -0.0000
vn -0.1891 -0.7958 -0.5752
vn -0.6063 -0.7952 -0.0000
vn 0.4891 -0.7967 -0.3550
vn 0.4891 -0.7967 0.3550
vn -0.1891 -0.7958 0.5752
vn -0.3844 -0.8393 0.3844
vn 0.3166 -0.8942 -0.3165
vn -0.5025 -0.8401 0.2042
vn -0.5420 -0.8404 -0.0000
vn 0.4504 -0.8929 -0.0000
vn 0.3165 -0.8942 0.3166
vn -0.2041 -0.8401 -0.5025
vn -0.2042 -0.8401 -0.5025
vn -0.0000 -0.8404 -0.5420
vn 0.2042 -0.8401 -0.5025
vn 0.3844 -0.8393 -0.3844
vn 0.2041 -0.8401 -0.5025
vn -0.3165 -0.8942 0.3166
vn -0.3166 -0.8942 0.3165
vn 0.1734 -0.8916 -0.4183
vn -0.2041 -0.8401 0.5025
vn 0.3165 -0.8942 -0.3166
vn -0.0000 -0.8929 -0.4504
vn -0.0000 -0.8404 0.5420
vn 0.1736 -0.8916 -0.4182
vn -0.3863 -0.0000 -0.9224
vn -0.0000 -0.0000 -1.0000
vn -0.1736 -0.8916 -0.4181
vn -0.3059 -0.1882 -0.9333
vn 0.3058 0.1882 -0.9333
vn -0.0000 0.8404 -0.5419
vn -0.0001 -0.0000 -1.0000
vn -0.0000 -0.8404 -0.5419
vn 0.0001 -0.0000 -1.0000
vn 0.3863 -0.0000 -0.9224
vn 0.1736 0.8916 -0.4181
vn -0.0000 0.8928 -0.4504
vn -0.0000 -0.8929 -0.4503
vt -0.580272 1.576150
vt -0.760084 1.556880
vt -0.576014 1.556880
vt -0.767951 1.576150
vt -0.760084 1.595410
vt -0.576014 1.595410
vt -0.358889 1.576150
vt -0.358889 1.595410
vt -0.358889 1.556880
vt -0.358889 1.508980
vt -0.231134 1.508980
vt -0.279933 1.643310
vt -0.486645 1.508980
vt -0.437846 1.643310
vt -0.567500 1.595410
vt -0.563242 1.576150
vt -0.736485 1.576150
vt -0.744351 1.595410
vt -0.567500 1.556880
vt -0.744351 1.556880
vt -0.154536 1.576150
vt -0.150279 1.556880
vt -0.150279 1.595410
vt 0.018706 1.576150
vt 0.026572 1.595410
vt 0.026572 1.556880
vt 0.042305 1.556880
vt -0.137507 1.576150
vt -0.141764 1.556880
vt 0.050172 1.576150
vt 0.042305 1.595410
vt -0.141764 1.595410
vt -0.576014 2.100330
vt -0.358889 2.121270
vt -0.358889 2.143520
vt -0.567500 2.079780
vt -0.760084 1.977340
vt -0.744351 1.961610
vt -0.883075 1.793270
vt -0.862519 1.784760
vt -0.904014 1.576150
vt -0.926264 1.576150
vt -0.317380 1.448390
vt -0.224558 1.576150
vt -0.467565 1.497190
vt -0.467565 1.655100
vt -0.317380 1.703900
vt 0.165297 1.793270
vt 0.186236 1.576150
vt 0.208486 1.576150
vt 0.144741 1.784760
vt 0.042305 1.977340
vt 0.026572 1.961610
vt 0.165297 1.359020
vt 0.144741 1.367540
vt 0.042305 1.174950
vt 0.026572 1.190680
vt -0.141764 1.051960
vt -0.150279 1.072520
vt -0.358889 1.031020
vt -0.358889 1.008770
vt -0.576014 1.051960
vt -0.567500 1.072520
vt -0.744351 1.190680
vt -0.760084 1.174950
vt -0.883075 1.359020
vt -0.862519 1.367540
vt -0.150279 2.079780
vt -0.141764 2.100330
vt -0.467565 1.508980
vt -0.317380 1.508980
vt -0.400399 1.643310
vt -0.250214 1.643310
vt -0.736484 1.576150
vt 0.018705 1.576150
vt 0.026572 1.556880
vt 0.026572 1.595410
vt -0.437846 1.508980
vt -0.279933 1.508980
vt -0.358889 1.643310
vt -0.486645 1.643310
vt -0.231134 1.643310
vt -0.567499 1.556880
vt -0.567499 1.595410
vt 0.026572 1.190680
vt -0.400399 1.508980
vt -0.250214 1.508980
vt -0.317380 1.643310
vt -0.467565 1.643310
s 1
usemtl Gyro1Mtl
f 4/1/1 3/2/2 2/3/3
f 4/1/1 1/4/4 3/2/2
f 4/1/1 5/5/5 1/4/4
f 5/5/5 4/1/1 6/6/6
f 7/6/6 9/7/7 8/8/8
f 9/7/7 7/6/6 4/1/9
f 10/3/3 9/7/7 4/1/9
f 9/7/7 10/3/3 11/9/10
f 12/10/11 13/11/11 14/12/11
f 15/13/12 16/10/12 17/14/12
f 18/10/13 19/12/13 20/14/13
f 21/8/14 22/15/15 23/16/16
f 23/16/16 24/7/17 21/8/14
f 25/17/18 23/16/16 26/15/19
f 26/15/19 27/18/20 25/17/18
f 28/19/21 30/17/18 29/20/22
f 30/17/18 28/19/21 31/16/16
f 32/9/23 31/16/16 33/19/21
f 31/16/16 32/9/23 34/7/17
f 35/21/1 34/7/17 36/9/24
f 36/9/24 37/22/25 35/21/1
f 38/8/14 40/21/1 39/23/26
f 40/21/1 38/8/14 24/7/17
f 41/24/4 42/23/27 40/21/9
f 42/23/27 41/24/4 43/25/28
f 44/22/25 45/26/29 46/24/4
f 46/24/4 35/21/1 44/22/25
f 49/27/30 50/28/31 48/29/32
f 50/28/31 49/27/30 47/30/18
f 51/31/33 50/28/31 47/30/18
f 50/28/31 51/31/33 52/32/34
f 55/7/17 54/32/34 53/8/35
f 54/32/34 55/7/17 50/28/36
f 55/7/17 56/29/32 50/28/36
f 56/29/32 55/7/17 57/9/10
f 58/33/37 60/34/38 59/35/39
f 60/34/38 58/33/37 61/36/40
f 62/36/41 64/37/42 63/38/43
f 64/37/42 62/36/41 65/33/44
f 67/39/6 68/38/43 66/37/45
f 68/38/43 67/39/6 69/40/46
f 72/39/47 70/41/48 71/40/46
f 70/41/48 72/39/47 73/42/35
f 74/43/49 75/44/49 76/7/49
f 77/45/50 78/43/50 79/7/50
f 80/46/51 81/45/51 82/7/51
f 83/47/52 84/46/52 85/7/52
f 86/44/53 87/47/53 88/7/53
f 89/48/54 91/49/55 90/50/56
f 91/49/55 89/48/54 92/51/15
f 93/51/15 95/52/57 94/53/58
f 95/52/57 93/51/15 96/48/59
f 97/54/60 98/50/56 99/49/55
f 99/49/55 100/55/26 97/54/60
f 103/56/61 101/55/26 102/57/62
f 101/55/26 103/56/61 104/54/63
f 107/57/28 106/58/64 105/56/65
f 106/58/64 107/57/28 108/59/66
f 109/60/67 111/58/68 110/59/66
f 111/58/68 109/60/67 112/61/69
f 113/62/70 114/61/69 115/60/67
f 115/60/67 116/63/71 113/62/70
f 117/63/71 118/64/72 119/65/33
f 119/65/33 120/62/73 117/63/71
f 122/66/74 121/65/75 123/64/72
f 123/64/72 124/67/76 122/66/74
f 127/42/35 126/67/76 125/41/48
f 126/67/76 127/42/35 128/66/74
f 131/68/77 129/52/57 130/69/78
f 129/52/57 131/68/77 132/53/58
f 135/69/78 133/34/38 134/68/79
f 133/34/38 135/69/78 136/35/39
f 137/7/80 138/29/81 139/28/82
f 137/7/80 139/28/82 140/32/44
f 137/7/80 140/32/44 141/8/83
f 139/28/84 142/31/85 143/32/37
f 139/28/84 144/30/86 142/31/85
f 139/28/84 145/27/87 144/30/86
f 145/27/87 139/28/84 146/29/88
f 147/70/89 148/71/89 149/72/89
f 150/71/90 151/73/90 152/72/90
f 156/19/91 155/74/4 157/20/92
f 155/74/4 156/19/91 158/16/84
f 160/15/66 159/18/28 154/74/4
f 154/74/4 161/16/84 160/15/66
f 161/16/84 162/7/80 163/8/93
f 161/16/84 163/8/93 164/15/94
f 165/9/95 158/16/84 166/19/91
f 158/16/84 165/9/95 167/7/80
f 168/9/96 169/21/97 167/7/80
f 168/9/96 170/22/98 169/21/97
f 171/8/93 173/21/97 172/23/99
f 173/21/97 171/8/93 162/7/80
f 174/24/100 175/23/71 173/21/97
f 175/23/71 174/24/100 176/25/101
f 177/22/102 178/26/103 179/24/100
f 177/22/102 179/24/100 169/21/97
f 180/1/97 181/5/104 153/4/105
f 182/2/106 180/1/97 153/4/105
f 181/5/104 180/1/97 183/6/107
f 182/2/106 184/3/108 180/1/97
f 185/6/107 137/7/80 186/8/83
f 137/7/80 185/6/107 180/1/97
f 187/3/108 137/7/80 180/1/97
f 187/3/108 188/9/109 137/7/80
f 138/29/81 137/7/80 189/9/109
f 192/22/110 191/75/111 193/21/112
f 192/22/110 194/76/113 191/75/111
f 196/23/114 190/75/111 195/77/43
f 190/75/111 196/23/114 197/21/112
f 197/21/112 198/8/48 199/7/115
f 198/8/48 197/21/112 200/23/46
f 193/21/112 201/9/116 202/22/117
f 201/9/116 193/21/112 203/7/115
f 204/78/118 205/79/118 206/80/118
f 207/78/119 208/80/119 209/81/119
f 210/79/120 211/82/120 212/80/120
f 213/32/59 214/8/121 215/7/115
f 215/7/115 216/28/122 213/32/59
f 217/31/104 218/32/54 216/28/123
f 216/28/123 219/30/100 217/31/104
f 216/28/123 220/27/106 219/30/100
f 220/27/106 216/28/123 221/29/124
f 215/7/115 222/29/124 216/28/122
f 222/29/124 215/7/115 223/9/125
f 224/3/126 225/9/125 215/7/115
f 215/7/115 226/1/112 224/3/126
f 215/7/115 227/6/63 226/1/112
f 227/6/63 215/7/115 228/8/121
f 229/5/61 226/1/112 230/6/63
f 226/1/112 229/5/61 231/4/111
f 226/1/112 231/4/111 232/2/127
f 232/2/127 233/3/128 226/1/112
f 235/74/100 236/83/129 237/16/123
f 236/83/129 235/74/100 238/20/103
f 234/74/100 240/84/76 239/18/72
f 240/84/76 234/74/100 241/16/123
f 242/8/130 241/16/123 243/7/115
f 241/16/123 242/8/130 244/84/131
f 246/9/132 237/16/122 245/83/129
f 237/16/122 246/9/132 247/7/115
f 249/52/2 250/69/81 251/68/133
f 251/68/133 252/53/134 249/52/2
f 255/48/3 254/53/134 253/51/110
f 255/48/3 256/52/135 254/53/134
f 257/48/136 259/49/137 258/50/138
f 259/49/137 257/48/136 260/51/110
f 261/7/139 262/45/139 263/43/139
f 264/45/140 265/7/140 266/46/140
f 267/7/141 268/43/141 269/44/141
f 270/7/142 271/44/142 272/47/142
f 273/7/143 274/47/143 275/46/143
f 276/37/144 277/39/124 278/40/21
f 276/37/144 278/40/21 279/38/145
f 280/39/146 281/42/147 282/41/148
f 280/39/146 282/41/148 283/40/21
f 284/41/148 286/66/128 285/67/25
f 286/66/128 284/41/148 287/42/147
f 288/65/127 290/67/25 289/66/126
f 290/67/25 288/65/127 291/64/149
f 293/64/29 294/62/150 292/63/91
f 294/62/150 293/64/29 295/65/127
f 296/62/151 297/61/152 298/60/96
f 296/62/151 298/60/96 299/63/91
f 300/60/96 302/58/153 301/59/102
f 302/58/153 300/60/96 303/61/152
f 304/56/154 306/59/102 305/58/155
f 306/59/102 304/56/154 307/85/156
f 309/85/157 310/54/32 308/55/129
f 310/54/32 309/85/157 311/56/154
f 313/50/138 314/55/129 312/54/32
f 314/55/129 313/50/138 315/49/137
f 316/37/144 318/36/158 317/33/159
f 318/36/158 316/37/144 319/38/160
f 320/33/108 322/34/161 321/35/162
f 322/34/161 320/33/108 323/36/163
f 324/34/161 325/68/133 248/69/88
f 248/69/88 326/35/162 324/34/161
f 329/16/164 327/8/38 328/15/40
f 327/8/38 329/16/164 330/7/165
f 331/15/40 332/17/111 329/16/164
f 331/15/40 333/18/43 332/17/111
f 334/19/166 336/17/111 335/20/113
f 336/17/111 334/19/166 337/16/164
f 338/86/167 339/87/167 340/88/167
f 341/86/168 342/88/168 343/89/168
f 348/27/127 349/28/164 347/29/150
f 349/28/164 348/27/127 346/30/111
f 349/28/164 346/30/111 350/31/61
f 350/31/61 351/32/68 349/28/164
f 352/32/64 353/8/169 354/7/170
f 352/32/64 354/7/170 349/28/164
f 354/7/170 355/29/150 349/28/164
f 355/29/150 354/7/170 356/9/171
f 354/7/172 357/3/155 358/9/171
f 354/7/172 359/1/173 357/3/155
f 354/7/172 360/6/70 359/1/173
f 360/6/70 354/7/172 361/8/169
f 362/5/33 359/1/173 363/6/73
f 359/1/173 362/5/33 364/4/18
f 359/1/173 364/4/18 365/2/154
f 359/1/173 365/2/154 366/3/153
f 367/23/174 344/75/18 368/25/20
f 344/75/18 367/23/174 369/21/173
f 345/75/18 370/22/163 371/26/22
f 345/75/18 372/21/173 370/22/163
f 369/21/173 373/8/175 330/7/165
f 373/8/175 369/21/173 374/23/77
f 372/21/173 375/9/161 376/22/163
f 372/21/173 377/7/165 375/9/161
f 337/16/164 378/9/176 377/7/172
f 378/9/176 337/16/164 379/19/133
