# Blender 5.1.2
# www.blender.org
mtllib AltitudeSensor.mtl
o AltitudeSensor
v 0.275781 0.180000 -0.265912
v 0.275781 0.180000 0.175388
v 0.275781 -0.180000 -0.265912
v 0.275781 -0.180000 0.175388
v 0.220681 0.180000 0.254789
v 0.220681 -0.180000 0.230588
v 0.220681 0.180000 0.230588
v 0.220681 -0.180000 0.254789
v 0.275781 -0.180000 0.175388
v 0.275781 0.180000 0.175388
v 0.299981 0.240000 0.254789
v 0.299981 -0.240000 0.254789
v 0.299981 -0.240000 0.254789
v 0.299981 -0.240000 -0.345212
v 0.275781 -0.180000 -0.265912
v 0.275781 -0.180000 0.175388
v 0.299981 0.240000 -0.345212
v 0.275781 0.180000 0.175388
v 0.275781 0.180000 -0.265912
v 0.299981 0.240000 0.254789
v 0.299981 -0.240000 -0.345212
v 0.299981 0.240000 -0.345212
v 0.275781 0.180000 -0.265912
v 0.275781 -0.180000 -0.265912
v -0.300019 0.240000 -0.345212
v -0.300019 0.240000 0.254789
v 0.299981 0.240000 -0.345212
v 0.299981 0.240000 0.254789
v 0.220681 0.180000 0.230588
v -0.220619 0.180000 0.230588
v -0.220619 0.180000 0.254789
v 0.220681 0.180000 0.254789
v -0.220619 -0.180000 0.254789
v 0.220681 -0.180000 0.254789
v -0.220619 0.180000 0.254789
v 0.220681 0.180000 0.254789
v 0.299981 -0.240000 0.254789
v 0.220681 0.180000 0.230588
v 0.220681 -0.180000 0.230588
v 0.299981 0.240000 0.254789
v -0.300019 0.240000 0.254789
v -0.300019 -0.240000 0.254789
v -0.220619 -0.180000 0.230588
v -0.220619 0.180000 0.230588
v -0.300019 -0.240000 0.254789
v 0.299981 -0.240000 0.254789
v 0.220681 -0.180000 0.230588
v -0.220619 -0.180000 0.230588
v 0.299981 0.240000 0.254789
v -0.300019 0.240000 0.254789
v -0.220619 0.180000 0.230588
v 0.220681 0.180000 0.230588
v -0.275819 0.180000 -0.265912
v -0.275819 -0.180000 -0.265912
v -0.275819 -0.180000 0.175388
v -0.275819 0.180000 0.175388
v -0.220619 -0.180000 0.254789
v -0.220619 0.180000 0.230588
v -0.220619 -0.180000 0.230588
v -0.220619 0.180000 0.254789
v -0.275819 0.180000 0.175388
v -0.275819 -0.180000 0.175388
v -0.300019 -0.240000 0.254789
v -0.300019 0.240000 0.254789
v -0.300019 -0.240000 -0.345212
v -0.275819 -0.180000 0.175388
v -0.275819 -0.180000 -0.265912
v -0.300019 -0.240000 0.254789
v -0.300019 0.240000 0.254789
v -0.300019 0.240000 -0.345212
v -0.275819 0.180000 -0.265912
v -0.275819 0.180000 0.175388
v -0.300019 0.240000 -0.345212
v -0.300019 -0.240000 -0.345212
v -0.275819 -0.180000 -0.265912
v -0.275819 0.180000 -0.265912
v -0.300019 -0.240000 -0.345212
v 0.299981 -0.240000 -0.345212
v 0.299981 -0.240000 0.254789
v -0.300019 -0.240000 0.254789
v -0.220619 -0.180000 0.230588
v 0.220681 -0.180000 0.230588
v 0.220681 -0.180000 0.254789
v -0.220619 -0.180000 0.254789
v 0.220681 0.180000 -0.321011
v -0.220619 -0.180000 -0.321011
v -0.220619 0.180000 -0.321011
v 0.220681 -0.180000 -0.321011
v 0.299981 0.240000 -0.345212
v 0.220681 -0.180000 -0.321011
v 0.220681 0.180000 -0.321011
v 0.299981 -0.240000 -0.345212
v -0.300019 -0.240000 -0.345212
v -0.300019 0.240000 -0.345212
v -0.220619 0.180000 -0.321011
v -0.220619 -0.180000 -0.321011
v 0.299981 -0.240000 -0.345212
v -0.300019 -0.240000 -0.345212
v -0.220619 -0.180000 -0.321011
v 0.220681 -0.180000 -0.321011
v -0.300019 0.240000 -0.345212
v 0.299981 0.240000 -0.345212
v 0.220681 0.180000 -0.321011
v -0.220619 0.180000 -0.321011
vn 1.0000 -0.0000 -0.0000
vn 0.9563 -0.0000 -0.2923
vn 0.9563 -0.0000 -0.2924
vn 0.9263 0.3768 -0.0000
vn 0.9263 -0.3768 -0.0000
vn 0.9564 -0.0000 0.2922
vn 0.9563 -0.0000 0.2923
vn 0.9565 -0.0000 0.2919
vn -0.0000 1.0000 -0.0000
vn -0.0000 -0.0000 1.0000
vn -0.2924 -0.0000 0.9563
vn -0.2922 -0.0000 0.9564
vn -0.2919 -0.0000 0.9565
vn 0.2924 -0.0000 0.9563
vn 0.2923 -0.0000 0.9563
vn 0.2922 -0.0000 0.9564
vn -0.0000 0.3768 0.9263
vn -0.0000 0.3767 0.9263
vn -0.0000 -0.3768 0.9263
vn -1.0000 -0.0000 -0.0000
vn -0.9563 -0.0000 -0.2923
vn -0.9563 -0.0000 -0.2924
vn -0.9263 0.3768 -0.0000
vn -0.9263 -0.3768 -0.0000
vn -0.9565 -0.0000 0.2919
vn -0.9563 -0.0000 0.2923
vn -0.0000 -1.0000 -0.0000
vn -0.0000 -0.0000 -1.0000
vn -0.2924 -0.0000 -0.9563
vn -0.2922 -0.0000 -0.9564
vn 0.2923 -0.0000 -0.9563
vn 0.2924 -0.0000 -0.9563
vn -0.0000 0.3768 -0.9263
vn -0.0000 -0.3768 -0.9263
vt 0.144970 1.930620
vt -0.296281 1.930620
vt 0.144970 1.570620
vt -0.296281 1.570620
vt -0.375655 1.930620
vt -0.351437 1.570620
vt -0.351437 1.930620
vt -0.375655 1.570620
vt -0.375655 1.990620
vt -0.375655 1.510620
vt 0.224345 1.510620
vt 0.224345 1.990620
vt 0.224345 1.450620
vt 0.224345 2.050620
vt -0.375655 1.450620
vt -0.375655 2.050620
vt -0.296281 2.026400
vt 0.144970 2.026400
vt 0.144970 2.050620
vt -0.296281 2.050620
vt 0.224345 1.570620
vt 0.200126 1.930620
vt 0.200126 1.570620
vt 0.224345 1.930620
s 1
usemtl Handle1Mtl.002
f 1/1/1 2/2/1 3/3/1
f 3/3/1 2/2/1 4/4/1
f 5/5/1 6/6/1 7/7/1
f 6/6/1 5/5/1 8/8/1
f 9/4/2 10/2/3 11/9/3
f 9/4/2 11/9/3 12/10/2
f 13/10/4 14/11/4 15/3/4
f 13/10/4 15/3/4 16/4/4
f 17/12/5 18/2/5 19/1/5
f 17/12/5 20/9/5 18/2/5
f 21/11/6 22/12/7 23/1/6
f 21/11/6 23/1/6 24/3/8
f 25/13/9 26/14/9 27/15/9
f 27/15/9 26/14/9 28/16/9
f 29/17/9 30/18/9 31/19/9
f 29/17/9 31/19/9 32/20/9
f 33/4/10 34/3/10 35/2/10
f 34/3/10 36/1/10 35/2/10
f 37/11/11 38/1/12 39/3/12
f 37/11/11 40/12/13 38/1/12
f 41/9/14 42/10/15 43/4/16
f 41/9/14 43/4/16 44/2/14
f 45/10/17 46/11/17 47/3/18
f 45/10/17 47/3/18 48/4/17
f 49/12/19 50/9/19 51/2/19
f 49/12/19 51/2/19 52/1/19
f 53/2/20 54/4/20 55/3/20
f 53/2/20 55/3/20 56/1/20
f 57/21/20 58/22/20 59/23/20
f 58/22/20 57/21/20 60/24/20
f 61/1/21 62/3/22 63/11/21
f 61/1/21 63/11/21 64/12/21
f 65/10/23 66/3/23 67/4/23
f 65/10/23 68/11/23 66/3/23
f 69/12/24 70/9/24 71/2/24
f 69/12/24 71/2/24 72/1/24
f 73/9/25 74/10/26 75/4/26
f 73/9/25 75/4/26 76/2/25
f 77/15/27 78/13/27 79/14/27
f 77/15/27 79/14/27 80/16/27
f 81/17/27 82/18/27 83/19/27
f 81/17/27 83/19/27 84/20/27
f 85/2/28 86/3/28 87/1/28
f 86/3/28 85/2/28 88/4/28
f 89/9/29 90/4/29 91/2/30
f 89/9/29 92/10/29 90/4/29
f 93/11/31 94/12/31 95/1/32
f 93/11/31 95/1/32 96/3/31
f 97/10/33 98/11/33 99/3/33
f 97/10/33 99/3/33 100/4/33
f 101/12/34 102/9/34 103/2/34
f 101/12/34 103/2/34 104/1/34
