# Blender 5.1.2
# www.blender.org
mtllib Anchor.mtl
o Anchor
v 0.645889 -0.087428 -0.120148
v 0.761902 -0.087428 -0.446167
v 0.761902 0.087427 -0.446167
v 0.645889 0.087427 -0.120148
v 0.509903 -0.087428 -0.018158
v 0.509903 0.087427 -0.018158
v 0.509903 -0.087428 0.151825
v 0.509903 0.087427 0.151825
v 0.142899 -0.087428 0.294830
v 0.142899 0.087427 0.294830
v 0.164902 -0.087428 0.376831
v 0.164902 0.087427 0.376831
v 0.142899 -0.087428 0.459839
v 0.142899 0.087427 0.459839
v 0.084900 0.087427 -0.460175
v 0.057892 0.123189 0.243835
v 0.082901 0.087427 0.233826
v 0.057892 -0.123189 0.243835
v 0.084900 -0.087428 -0.460175
v 0.082901 -0.087428 0.233826
v 0.082901 -0.087428 0.233826
v 0.084900 -0.087428 -0.460175
v 0.084900 0.087427 -0.460175
v 0.082901 0.087427 0.233826
v -0.041107 0.087427 0.447845
v -0.041107 -0.087428 0.447845
v -0.070099 0.087427 0.417847
v -0.070099 -0.087428 0.417847
v -0.081100 0.087427 0.376831
v -0.081100 -0.087428 0.376831
v -0.070099 0.087427 0.335846
v -0.070099 -0.087428 0.335846
v -0.041107 0.087427 0.306824
v -0.041107 -0.087428 0.306824
v -0.595108 0.087427 -0.390167
v -0.399109 0.123189 -0.547150
v -0.413101 0.087427 -0.568176
v -0.589111 0.123189 -0.362152
v -0.100098 0.123189 -0.671173
v -0.105103 0.087427 -0.695160
v 0.104889 0.087427 -0.695160
v 0.100891 0.123189 -0.671173
v 0.412903 0.087427 -0.568176
v 0.398895 0.123189 -0.547150
v 0.594894 0.087427 -0.390167
v 0.588898 0.123189 -0.362152
v -0.646103 0.087427 -0.120148
v -0.722107 0.123189 -0.406158
v -0.762100 0.087427 -0.446167
v -0.631104 0.123189 -0.150177
v 0.645889 0.087427 -0.120148
v 0.761902 0.087427 -0.446167
v 0.721893 0.123189 -0.406158
v 0.630890 0.123189 -0.150177
v -0.485107 0.123189 0.006836
v -0.509109 0.087427 0.151825
v -0.485107 0.123189 0.126831
v -0.509109 0.087427 -0.018158
v 0.509903 0.087427 0.151825
v 0.509903 0.087427 -0.018158
v 0.484894 0.123189 0.006836
v 0.484894 0.123189 0.126831
v -0.595108 0.087427 -0.390167
v -0.762100 0.087427 -0.446167
v -0.722107 0.123189 -0.406158
v -0.589111 0.123189 -0.362152
v 0.594894 0.087427 -0.390167
v 0.721893 0.123189 -0.406158
v 0.761902 0.087427 -0.446167
v 0.588898 0.123189 -0.362152
v -0.000107 0.087427 0.541840
v 0.069901 0.123189 0.497833
v -0.000107 0.123189 0.516846
v 0.082901 0.087427 0.519836
v -0.082108 0.087427 0.519836
v 0.120895 0.123189 0.446838
v -0.070099 0.123189 0.497833
v 0.142899 0.087427 0.459839
v -0.143097 0.087427 0.459839
v 0.138901 0.123189 0.376831
v -0.121109 0.123189 0.446838
v 0.164902 0.087427 0.376831
v -0.139099 0.123189 0.376831
v -0.165100 0.087427 0.376831
v 0.120895 0.123189 0.306824
v 0.142899 0.087427 0.294830
v 0.082901 0.087427 0.233826
v 0.057892 0.123189 0.243835
v -0.121109 0.123189 0.306824
v -0.143097 0.087427 0.294830
v -0.082108 0.087427 0.233826
v -0.058105 0.123189 0.243835
v -0.058105 0.123189 0.243835
v -0.060104 0.123189 -0.489166
v -0.085098 0.087427 -0.460175
v 0.057892 0.123189 0.243835
v 0.084900 0.087427 -0.460175
v 0.059891 0.123189 -0.489166
v 0.509903 0.087427 -0.018158
v -0.509109 0.087427 -0.018158
v -0.485107 0.123189 0.006836
v 0.484894 0.123189 0.006836
v -0.060104 0.123189 -0.489166
v -0.058105 0.123189 0.243835
v 0.059891 0.123189 -0.489166
v 0.100891 0.123189 -0.671173
v 0.057892 0.123189 0.243835
v 0.307892 0.123189 -0.446167
v -0.100098 0.123189 -0.671173
v 0.398895 0.123189 -0.547150
v -0.307098 0.123189 -0.446167
v -0.399109 0.123189 -0.547150
v 0.481903 0.123189 -0.296173
v -0.481110 0.123189 -0.296173
v 0.588898 0.123189 -0.362152
v -0.589111 0.123189 -0.362152
v 0.630890 0.123189 -0.150177
v 0.721893 0.123189 -0.406158
v 0.373901 0.123189 -0.224152
v -0.631104 0.123189 -0.150177
v -0.374100 0.123189 -0.224152
v -0.722107 0.123189 -0.406158
v -0.053101 0.123189 0.469849
v -0.000107 0.123189 0.516846
v -0.000107 0.123189 0.483826
v 0.053894 0.123189 0.469849
v -0.070099 0.123189 0.497833
v 0.069901 0.123189 0.497833
v -0.093109 0.123189 0.430847
v 0.120895 0.123189 0.446838
v -0.121109 0.123189 0.446838
v 0.092896 0.123189 0.430847
v -0.139099 0.123189 0.376831
v 0.138901 0.123189 0.376831
v -0.107101 0.123189 0.376831
v 0.106903 0.123189 0.376831
v -0.121109 0.123189 0.306824
v 0.092896 0.123189 0.323853
v -0.093109 0.123189 0.323853
v 0.120895 0.123189 0.306824
v -0.053101 0.123189 0.283844
v 0.053894 0.123189 0.283844
v -0.000107 0.123189 0.269836
v 0.484894 0.123189 0.006836
v -0.485107 0.123189 0.006836
v -0.485107 0.123189 0.126831
v 0.484894 0.123189 0.126831
v -0.041107 0.087427 0.447845
v -0.000107 0.123189 0.483826
v -0.000107 0.087427 0.458832
v 0.040894 0.087427 0.447845
v -0.053101 0.123189 0.469849
v 0.053894 0.123189 0.469849
v -0.070099 0.087427 0.417847
v 0.092896 0.123189 0.430847
v -0.093109 0.123189 0.430847
v 0.070892 0.087427 0.417847
v -0.107101 0.123189 0.376831
v -0.081100 0.087427 0.376831
v 0.080902 0.087427 0.376831
v -0.093109 0.123189 0.323853
v 0.106903 0.123189 0.376831
v -0.070099 0.087427 0.335846
v -0.041107 0.087427 0.306824
v -0.053101 0.123189 0.283844
v 0.092896 0.123189 0.323853
v 0.070892 0.087427 0.335846
v 0.040894 0.087427 0.306824
v -0.000107 0.087427 0.295837
v 0.053894 0.123189 0.283844
v -0.000107 0.123189 0.269836
v -0.317108 0.087427 -0.215149
v -0.441101 0.087427 -0.298157
v -0.374100 0.123189 -0.224152
v -0.481110 0.123189 -0.296173
v 0.373901 0.123189 -0.224152
v 0.481903 0.123189 -0.296173
v 0.440903 0.087427 -0.298157
v 0.316895 0.087427 -0.215149
v -0.646103 0.087427 -0.120148
v -0.374100 0.123189 -0.224152
v -0.631104 0.123189 -0.150177
v -0.317108 0.087427 -0.215149
v 0.645889 0.087427 -0.120148
v 0.373901 0.123189 -0.224152
v 0.316895 0.087427 -0.215149
v 0.630890 0.123189 -0.150177
v 0.440903 0.087427 -0.298157
v 0.307892 0.123189 -0.446167
v 0.296890 0.087427 -0.423157
v 0.481903 0.123189 -0.296173
v 0.084900 0.087427 -0.460175
v 0.059891 0.123189 -0.489166
v -0.307098 0.123189 -0.446167
v -0.085098 0.087427 -0.460175
v -0.060104 0.123189 -0.489166
v -0.296097 0.087427 -0.423157
v -0.441101 0.087427 -0.298157
v -0.481110 0.123189 -0.296173
v 0.142899 -0.087428 0.459839
v 0.142899 0.087427 0.459839
v 0.082901 -0.087428 0.519836
v 0.082901 0.087427 0.519836
v -0.000107 -0.087428 0.541840
v -0.000107 0.087427 0.541840
v -0.082108 -0.087428 0.519836
v -0.082108 0.087427 0.519836
v -0.143097 -0.087428 0.459839
v -0.143097 0.087427 0.459839
v -0.485107 0.123189 0.126831
v 0.509903 0.087427 0.151825
v 0.484894 0.123189 0.126831
v -0.509109 0.087427 0.151825
v 0.509903 -0.087428 0.151825
v -0.509109 -0.087428 0.151825
v -0.485107 -0.123189 0.126831
v 0.484894 -0.123189 0.126831
v -0.509109 -0.087428 0.151825
v 0.509903 -0.087428 0.151825
v 0.509903 0.087427 0.151825
v -0.509109 0.087427 0.151825
v -0.041107 -0.087428 0.306824
v -0.000107 0.087427 0.295837
v -0.041107 0.087427 0.306824
v -0.000107 -0.087428 0.295837
v 0.040894 0.087427 0.306824
v 0.040894 -0.087428 0.306824
v 0.316895 -0.087428 -0.215149
v 0.645889 -0.087428 -0.120148
v 0.645889 0.087427 -0.120148
v 0.316895 0.087427 -0.215149
v -0.646103 -0.087428 -0.120148
v -0.317108 -0.087428 -0.215149
v -0.317108 0.087427 -0.215149
v -0.646103 0.087427 -0.120148
v -0.296097 -0.087428 -0.423157
v -0.085098 -0.087428 -0.460175
v -0.085098 0.087427 -0.460175
v -0.296097 0.087427 -0.423157
v 0.084900 -0.087428 -0.460175
v 0.296890 -0.087428 -0.423157
v 0.296890 0.087427 -0.423157
v 0.084900 0.087427 -0.460175
v -0.441101 -0.087428 -0.298157
v -0.296097 -0.087428 -0.423157
v -0.296097 0.087427 -0.423157
v -0.441101 0.087427 -0.298157
v 0.296890 -0.087428 -0.423157
v 0.440903 -0.087428 -0.298157
v 0.440903 0.087427 -0.298157
v 0.296890 0.087427 -0.423157
v -0.762100 -0.087428 -0.446167
v -0.646103 0.087427 -0.120148
v -0.762100 0.087427 -0.446167
v -0.646103 -0.087428 -0.120148
v -0.509109 -0.087428 -0.018158
v -0.509109 0.087427 0.151825
v -0.509109 0.087427 -0.018158
v -0.509109 -0.087428 0.151825
v -0.143097 0.087427 0.459839
v -0.165100 -0.087428 0.376831
v -0.143097 -0.087428 0.459839
v -0.165100 0.087427 0.376831
v -0.143097 -0.087428 0.294830
v -0.143097 0.087427 0.294830
v -0.058105 0.123189 0.243835
v -0.085098 0.087427 -0.460175
v -0.082108 0.087427 0.233826
v -0.085098 -0.087428 -0.460175
v -0.058105 -0.123189 0.243835
v -0.082108 -0.087428 0.233826
v -0.085098 -0.087428 -0.460175
v -0.082108 0.087427 0.233826
v -0.085098 0.087427 -0.460175
v -0.082108 -0.087428 0.233826
v 0.040894 0.087427 0.447845
v 0.070892 -0.087428 0.417847
v 0.040894 -0.087428 0.447845
v 0.070892 0.087427 0.417847
v 0.080902 -0.087428 0.376831
v 0.080902 0.087427 0.376831
v 0.070892 -0.087428 0.335846
v 0.070892 0.087427 0.335846
v 0.040894 -0.087428 0.306824
v 0.040894 0.087427 0.306824
v -0.399109 -0.123189 -0.547150
v -0.589111 -0.123189 -0.362152
v -0.595108 -0.087428 -0.390167
v -0.413101 -0.087428 -0.568176
v -0.100098 -0.123189 -0.671173
v -0.105103 -0.087428 -0.695160
v 0.100891 -0.123189 -0.671173
v 0.104889 -0.087428 -0.695160
v 0.412903 -0.087428 -0.568176
v 0.398895 -0.123189 -0.547150
v 0.594894 -0.087428 -0.390167
v 0.588898 -0.123189 -0.362152
v -0.646103 -0.087428 -0.120148
v -0.762100 -0.087428 -0.446167
v -0.722107 -0.123189 -0.406158
v -0.631104 -0.123189 -0.150177
v 0.645889 -0.087428 -0.120148
v 0.721893 -0.123189 -0.406158
v 0.761902 -0.087428 -0.446167
v 0.630890 -0.123189 -0.150177
v -0.509109 -0.087428 0.151825
v -0.509109 -0.087428 -0.018158
v -0.485107 -0.123189 0.006836
v -0.485107 -0.123189 0.126831
v 0.484894 -0.123189 0.006836
v 0.509903 -0.087428 0.151825
v 0.484894 -0.123189 0.126831
v 0.509903 -0.087428 -0.018158
v -0.595108 -0.087428 -0.390167
v -0.722107 -0.123189 -0.406158
v -0.762100 -0.087428 -0.446167
v -0.589111 -0.123189 -0.362152
v 0.594894 -0.087428 -0.390167
v 0.761902 -0.087428 -0.446167
v 0.721893 -0.123189 -0.406158
v 0.588898 -0.123189 -0.362152
v 0.069901 -0.123189 0.497833
v -0.000107 -0.087428 0.541840
v -0.000107 -0.123189 0.516846
v 0.082901 -0.087428 0.519836
v -0.082108 -0.087428 0.519836
v 0.120895 -0.123189 0.446838
v -0.070099 -0.123189 0.497833
v 0.142899 -0.087428 0.459839
v -0.143097 -0.087428 0.459839
v 0.138901 -0.123189 0.376831
v -0.121109 -0.123189 0.446838
v 0.164902 -0.087428 0.376831
v -0.139099 -0.123189 0.376831
v -0.165100 -0.087428 0.376831
v 0.120895 -0.123189 0.306824
v -0.121109 -0.123189 0.306824
v 0.142899 -0.087428 0.294830
v -0.143097 -0.087428 0.294830
v 0.082901 -0.087428 0.233826
v 0.057892 -0.123189 0.243835
v -0.082108 -0.087428 0.233826
v -0.058105 -0.123189 0.243835
v -0.058105 -0.123189 0.243835
v -0.085098 -0.087428 -0.460175
v -0.060104 -0.123189 -0.489166
v 0.057892 -0.123189 0.243835
v 0.059891 -0.123189 -0.489166
v 0.084900 -0.087428 -0.460175
v 0.509903 -0.087428 -0.018158
v -0.485107 -0.123189 0.006836
v -0.509109 -0.087428 -0.018158
v 0.484894 -0.123189 0.006836
v -0.053101 -0.123189 0.469849
v -0.000107 -0.123189 0.483826
v -0.000107 -0.123189 0.516846
v 0.053894 -0.123189 0.469849
v -0.070099 -0.123189 0.497833
v 0.069901 -0.123189 0.497833
v -0.093109 -0.123189 0.430847
v 0.120895 -0.123189 0.446838
v -0.121109 -0.123189 0.446838
v 0.092896 -0.123189 0.430847
v -0.139099 -0.123189 0.376831
v 0.138901 -0.123189 0.376831
v -0.107101 -0.123189 0.376831
v 0.106903 -0.123189 0.376831
v 0.092896 -0.123189 0.323853
v 0.120895 -0.123189 0.306824
v -0.121109 -0.123189 0.306824
v 0.053894 -0.123189 0.283844
v -0.093109 -0.123189 0.323853
v 0.057892 -0.123189 0.243835
v -0.053101 -0.123189 0.283844
v -0.000107 -0.123189 0.269836
v -0.058105 -0.123189 0.243835
v 0.059891 -0.123189 -0.489166
v -0.060104 -0.123189 -0.489166
v -0.100098 -0.123189 -0.671173
v -0.307098 -0.123189 -0.446167
v 0.100891 -0.123189 -0.671173
v -0.399109 -0.123189 -0.547150
v 0.307892 -0.123189 -0.446167
v -0.481110 -0.123189 -0.296173
v 0.398895 -0.123189 -0.547150
v -0.589111 -0.123189 -0.362152
v 0.481903 -0.123189 -0.296173
v -0.631104 -0.123189 -0.150177
v -0.722107 -0.123189 -0.406158
v -0.374100 -0.123189 -0.224152
v 0.588898 -0.123189 -0.362152
v 0.630890 -0.123189 -0.150177
v 0.373901 -0.123189 -0.224152
v 0.721893 -0.123189 -0.406158
v 0.484894 -0.123189 0.006836
v -0.485107 -0.123189 0.126831
v -0.485107 -0.123189 0.006836
v 0.484894 -0.123189 0.126831
v -0.041107 -0.087428 0.447845
v -0.000107 -0.087428 0.458832
v -0.000107 -0.123189 0.483826
v 0.040894 -0.087428 0.447845
v -0.053101 -0.123189 0.469849
v 0.053894 -0.123189 0.469849
v -0.070099 -0.087428 0.417847
v 0.070892 -0.087428 0.417847
v -0.093109 -0.123189 0.430847
v 0.092896 -0.123189 0.430847
v -0.107101 -0.123189 0.376831
v -0.081100 -0.087428 0.376831
v 0.080902 -0.087428 0.376831
v 0.106903 -0.123189 0.376831
v -0.093109 -0.123189 0.323853
v -0.070099 -0.087428 0.335846
v -0.041107 -0.087428 0.306824
v 0.092896 -0.123189 0.323853
v -0.053101 -0.123189 0.283844
v 0.070892 -0.087428 0.335846
v -0.000107 -0.087428 0.295837
v 0.040894 -0.087428 0.306824
v -0.000107 -0.123189 0.269836
v 0.053894 -0.123189 0.283844
v -0.374100 -0.123189 -0.224152
v -0.481110 -0.123189 -0.296173
v -0.441101 -0.087428 -0.298157
v -0.317108 -0.087428 -0.215149
v 0.316895 -0.087428 -0.215149
v 0.440903 -0.087428 -0.298157
v 0.373901 -0.123189 -0.224152
v 0.481903 -0.123189 -0.296173
v -0.646103 -0.087428 -0.120148
v -0.374100 -0.123189 -0.224152
v -0.317108 -0.087428 -0.215149
v -0.631104 -0.123189 -0.150177
v 0.645889 -0.087428 -0.120148
v 0.373901 -0.123189 -0.224152
v 0.630890 -0.123189 -0.150177
v 0.316895 -0.087428 -0.215149
v 0.307892 -0.123189 -0.446167
v 0.481903 -0.123189 -0.296173
v 0.440903 -0.087428 -0.298157
v 0.296890 -0.087428 -0.423157
v 0.084900 -0.087428 -0.460175
v 0.059891 -0.123189 -0.489166
v -0.307098 -0.123189 -0.446167
v -0.060104 -0.123189 -0.489166
v -0.085098 -0.087428 -0.460175
v -0.296097 -0.087428 -0.423157
v -0.441101 -0.087428 -0.298157
v -0.481110 -0.123189 -0.296173
v -0.105103 -0.087428 -0.695160
v -0.413101 0.087427 -0.568176
v -0.105103 0.087427 -0.695160
v -0.413101 -0.087428 -0.568176
v -0.595108 0.087427 -0.390167
v -0.595108 -0.087428 -0.390167
v 0.104889 -0.087428 -0.695160
v 0.104889 0.087427 -0.695160
v 0.412903 -0.087428 -0.568176
v 0.412903 0.087427 -0.568176
v 0.594894 -0.087428 -0.390167
v 0.594894 0.087427 -0.390167
v 0.142899 0.087427 0.294830
v 0.142899 -0.087428 0.294830
v 0.082901 0.087427 0.233826
v 0.082901 -0.087428 0.233826
v -0.143097 0.087427 0.294830
v -0.082108 -0.087428 0.233826
v -0.143097 -0.087428 0.294830
v -0.082108 0.087427 0.233826
v 0.761902 -0.087428 -0.446167
v 0.594894 0.087427 -0.390167
v 0.761902 0.087427 -0.446167
v 0.594894 -0.087428 -0.390167
v -0.595108 0.087427 -0.390167
v -0.595108 -0.087428 -0.390167
v -0.762100 0.087427 -0.446167
v -0.762100 -0.087428 -0.446167
v -0.509109 0.087427 -0.018158
v 0.509903 0.087427 -0.018158
v 0.509903 -0.087428 -0.018158
v -0.509109 -0.087428 -0.018158
v 0.440903 0.087427 -0.298157
v 0.440903 -0.087428 -0.298157
v 0.316895 0.087427 -0.215149
v 0.316895 -0.087428 -0.215149
v -0.317108 -0.087428 -0.215149
v -0.441101 0.087427 -0.298157
v -0.317108 0.087427 -0.215149
v -0.441101 -0.087428 -0.298157
v -0.041107 0.087427 0.447845
v -0.000107 -0.087428 0.458832
v -0.041107 -0.087428 0.447845
v -0.000107 0.087427 0.458832
v 0.040894 -0.087428 0.447845
v 0.040894 0.087427 0.447845
vn 0.9421 -0.0000 0.3352
vn 1.0000 -0.0000 -0.0000
vn 0.9659 -0.0000 -0.2591
vn 0.9961 -0.0000 -0.0887
vn 0.9961 -0.0000 0.0883
vn 0.9666 -0.0000 0.2563
vn 0.8196 0.5729 0.0024
vn 0.8198 -0.5726 0.0024
vn 1.0000 -0.0000 0.0029
vn 0.7191 -0.0000 -0.6949
vn 0.7192 -0.0000 -0.6948
vn 0.8258 -0.0000 -0.5639
vn 0.9101 -0.0000 -0.4143
vn 0.9960 -0.0000 -0.0890
vn 0.9960 -0.0000 0.0891
vn 0.9087 -0.0000 0.4175
vn 0.8205 -0.0000 0.5716
vn 0.7074 -0.0000 0.7068
vn 0.7075 -0.0000 0.7068
vn -0.5759 0.5657 -0.5902
vn -0.4811 0.5738 -0.6628
vn -0.3920 0.5714 -0.7210
vn -0.5773 0.5613 -0.5930
vn -0.1969 0.5684 -0.7988
vn -0.1964 0.5650 -0.8014
vn 0.1438 0.5623 -0.8143
vn 0.2450 0.5654 -0.7876
vn 0.3931 0.5693 -0.7220
vn 0.4815 0.5738 -0.6624
vn 0.5759 0.5657 -0.5902
vn 0.5773 0.5613 -0.5930
vn -0.7799 0.5611 0.2774
vn -0.7800 0.5610 0.2774
vn -0.7796 0.5615 0.2774
vn -0.7804 0.5603 0.2775
vn 0.7801 0.5609 0.2774
vn 0.7795 0.5616 0.2774
vn 0.7799 0.5612 0.2773
vn 0.7805 0.5602 0.2775
vn -0.8304 0.5571 -0.0000
vn -0.8303 0.5573 -0.0000
vn -0.8303 0.5574 -0.0000
vn -0.8305 0.5571 -0.0000
vn 0.8195 0.5731 -0.0000
vn 0.8194 0.5732 -0.0000
vn 0.2592 0.5729 -0.7776
vn 0.2599 0.5762 -0.7749
vn 0.2592 0.5728 -0.7776
vn 0.2581 0.5686 -0.7810
vn -0.2592 0.5729 -0.7776
vn -0.2592 0.5728 -0.7776
vn -0.2599 0.5761 -0.7749
vn -0.2581 0.5686 -0.7810
vn 0.0660 0.5741 0.8161
vn 0.3360 0.5765 0.7448
vn -0.0809 0.5723 0.8161
vn 0.4604 0.5806 0.6716
vn -0.3515 0.5721 0.7410
vn 0.6634 0.5800 0.4728
vn -0.4757 0.5746 0.6660
vn 0.7357 0.5826 0.3454
vn -0.7052 0.5811 0.4061
vn 0.8084 0.5831 0.0797
vn -0.7069 0.5812 0.4031
vn 0.8102 0.5829 -0.0621
vn -0.8085 0.5831 0.0797
vn -0.8102 0.5828 -0.0620
vn 0.7016 0.5797 -0.4144
vn 0.7105 0.5738 -0.4074
vn 0.5862 0.5642 -0.5815
vn 0.5812 0.5693 -0.5815
vn -0.7024 0.5766 -0.4173
vn -0.7085 0.5735 -0.4112
vn -0.5869 0.5581 -0.5866
vn -0.5867 0.5581 -0.5867
vn -0.8190 0.5737 0.0022
vn 0.8187 0.5743 0.0022
vn -0.0000 0.5729 -0.8196
vn -0.0000 0.5728 -0.8197
vn -0.0000 1.0000 -0.0000
vn 0.3348 0.5716 -0.7491
vn 0.0001 0.5752 -0.8180
vn -0.0000 0.5727 -0.8198
vn -0.4050 0.5798 -0.7070
vn 0.4584 0.5792 -0.6741
vn -0.4027 0.5814 -0.7070
vn 0.7022 0.5874 -0.4023
vn -0.7061 0.5841 -0.4004
vn 0.6955 0.5943 -0.4038
vn -0.7089 0.5813 -0.3994
vn 0.8059 0.5890 -0.0599
vn 0.8053 0.5870 0.0834
vn -0.8132 0.5819 -0.0000
vn 0.7019 0.5861 0.4047
vn -0.8088 0.5881 -0.0000
vn 0.7030 0.5870 0.4016
vn 0.4780 0.5828 0.6572
vn 0.3537 0.5859 0.7291
vn -0.7057 0.5829 0.4028
vn -0.7111 0.5738 0.4064
vn -0.4775 0.5840 0.6564
vn -0.0000 0.5902 0.8073
vn -0.3520 0.5913 0.7256
vn -0.0000 0.5881 0.8088
vn 0.4605 0.5608 -0.6880
vn 0.4620 0.5591 -0.6885
vn 0.4621 0.5590 -0.6885
vn 0.4637 0.5570 -0.6890
vn -0.4595 0.5622 -0.6876
vn -0.4583 0.5635 -0.6874
vn -0.4595 0.5621 -0.6877
vn -0.4605 0.5607 -0.6881
vn 0.2284 0.5663 0.7919
vn 0.2284 0.5662 0.7920
vn 0.2277 0.5684 0.7906
vn 0.2291 0.5646 0.7929
vn -0.2284 0.5663 0.7919
vn -0.2289 0.5647 0.7929
vn -0.2277 0.5685 0.7905
vn -0.5364 0.5723 0.6203
vn -0.3376 0.5821 0.7397
vn -0.3373 0.5806 0.7411
vn -0.5333 0.5769 0.6187
vn -0.1415 0.5638 0.8137
vn -0.1413 0.5620 0.8150
vn 0.3387 0.5794 0.7413
vn 0.1422 0.5638 0.8136
vn 0.1419 0.5617 0.8151
vn 0.3373 0.5806 0.7411
vn 0.5378 0.5670 0.6239
vn 0.7073 -0.0000 0.7069
vn 0.7070 -0.0000 0.7072
vn 0.5732 -0.0000 0.8194
vn 0.4180 -0.0000 0.9084
vn 0.0884 -0.0000 0.9961
vn -0.0887 -0.0000 0.9961
vn -0.4196 -0.0000 0.9077
vn -0.5713 -0.0000 0.8207
vn -0.7012 -0.0000 0.7130
vn -0.7015 -0.0000 0.7126
vn -0.0000 0.5728 0.8197
vn -0.0000 0.5729 0.8196
vn -0.0000 -0.5729 0.8196
vn -0.0000 -0.5728 0.8197
vn -0.0000 -0.0000 1.0000
vn 0.2587 -0.0000 0.9660
vn 0.0890 -0.0000 0.9960
vn 0.2590 -0.0000 0.9659
vn -0.0890 -0.0000 0.9960
vn -0.2590 -0.0000 0.9659
vn -0.2587 -0.0000 0.9660
vn -0.2775 -0.0000 0.9607
vn 0.2775 -0.0000 0.9607
vn 0.1727 -0.0000 0.9850
vn -0.1719 -0.0000 0.9851
vn 0.6530 -0.0000 0.7574
vn 0.6531 -0.0000 0.7573
vn 0.6529 -0.0000 0.7574
vn 0.6527 -0.0000 0.7576
vn -0.6555 -0.0000 0.7552
vn -0.6553 -0.0000 0.7554
vn -0.6556 -0.0000 0.7551
vn -0.9421 -0.0000 0.3352
vn -1.0000 -0.0000 -0.0000
vn -0.9666 -0.0000 0.2563
vn -0.9961 -0.0000 0.0883
vn -0.9961 -0.0000 -0.0887
vn -0.9659 -0.0000 -0.2591
vn -0.8309 0.5564 0.0036
vn -0.8308 -0.5565 0.0036
vn -1.0000 -0.0000 0.0043
vn -0.7072 -0.0000 -0.7070
vn -0.8219 -0.0000 -0.5696
vn -0.7071 -0.0000 -0.7071
vn -0.9131 -0.0000 -0.4077
vn -0.9967 -0.0000 -0.0811
vn -0.9967 -0.0000 0.0811
vn -0.9117 -0.0000 0.4109
vn -0.8166 -0.0000 0.5772
vn -0.6953 -0.0000 0.7188
vn -0.6953 -0.0000 0.7187
vn -0.4811 -0.5738 -0.6628
vn -0.5773 -0.5613 -0.5930
vn -0.5759 -0.5657 -0.5902
vn -0.3920 -0.5714 -0.7210
vn -0.2442 -0.5677 -0.7862
vn -0.1435 -0.5651 -0.8125
vn 0.1974 -0.5666 -0.8000
vn 0.1971 -0.5612 -0.8039
vn 0.3931 -0.5693 -0.7220
vn 0.4815 -0.5738 -0.6624
vn 0.5759 -0.5657 -0.5902
vn 0.5773 -0.5613 -0.5930
vn -0.7799 -0.5610 0.2774
vn -0.7796 -0.5615 0.2774
vn -0.7796 -0.5614 0.2774
vn -0.7805 -0.5602 0.2775
vn 0.7800 -0.5610 0.2774
vn 0.7799 -0.5612 0.2772
vn 0.7795 -0.5616 0.2774
vn 0.7804 -0.5603 0.2775
vn -0.8302 -0.5575 -0.0000
vn -0.8305 -0.5571 -0.0000
vn -0.8302 -0.5574 -0.0000
vn -0.8301 -0.5576 -0.0000
vn 0.8195 -0.5731 -0.0000
vn 0.8194 -0.5732 -0.0000
vn 0.8192 -0.5734 -0.0000
vn 0.2592 -0.5729 -0.7776
vn 0.2599 -0.5762 -0.7749
vn 0.2585 -0.5685 -0.7810
vn -0.2592 -0.5728 -0.7776
vn -0.2599 -0.5761 -0.7749
vn -0.2585 -0.5685 -0.7810
vn 0.3359 -0.5765 0.7448
vn 0.0660 -0.5741 0.8161
vn -0.0808 -0.5723 0.8161
vn 0.4604 -0.5806 0.6716
vn -0.3515 -0.5721 0.7410
vn 0.6634 -0.5800 0.4727
vn -0.4757 -0.5746 0.6660
vn 0.7357 -0.5826 0.3454
vn -0.7054 -0.5811 0.4059
vn 0.8084 -0.5832 0.0798
vn -0.7069 -0.5812 0.4031
vn 0.8102 -0.5829 -0.0620
vn -0.8085 -0.5831 0.0798
vn -0.8102 -0.5828 -0.0620
vn 0.7016 -0.5798 -0.4144
vn -0.7024 -0.5766 -0.4173
vn 0.7105 -0.5738 -0.4074
vn -0.7085 -0.5735 -0.4112
vn 0.5862 -0.5642 -0.5815
vn 0.5809 -0.5695 -0.5815
vn -0.5869 -0.5579 -0.5868
vn -0.5866 -0.5581 -0.5868
vn -0.8190 -0.5737 0.0022
vn 0.8186 -0.5744 0.0022
vn -0.0000 -0.5729 -0.8196
vn -0.0000 -0.5728 -0.8197
vn -0.0000 -1.0000 -0.0000
vn 0.3348 -0.5716 -0.7491
vn -0.0000 -0.5730 -0.8196
vn 0.0001 -0.5752 -0.8180
vn -0.3289 -0.5764 -0.7480
vn 0.4584 -0.5792 -0.6741
vn -0.4553 -0.5807 -0.6749
vn 0.7022 -0.5874 -0.4024
vn -0.6617 -0.5799 -0.4752
vn 0.6955 -0.5943 -0.4038
vn -0.7351 -0.5832 -0.3457
vn 0.8059 -0.5890 -0.0599
vn 0.8053 -0.5870 0.0834
vn -0.8132 -0.5819 -0.0000
vn -0.8088 -0.5881 -0.0000
vn 0.7019 -0.5861 0.4048
vn 0.7030 -0.5870 0.4016
vn 0.4780 -0.5828 0.6572
vn -0.7058 -0.5829 0.4027
vn 0.3537 -0.5859 0.7291
vn -0.7111 -0.5738 0.4064
vn -0.0000 -0.5902 0.8073
vn -0.4775 -0.5840 0.6565
vn -0.0000 -0.5881 0.8088
vn -0.3520 -0.5913 0.7256
vn 0.4621 -0.5590 -0.6885
vn 0.4635 -0.5572 -0.6889
vn 0.4620 -0.5591 -0.6885
vn 0.4605 -0.5608 -0.6881
vn -0.4605 -0.5608 -0.6881
vn -0.4595 -0.5622 -0.6876
vn -0.4583 -0.5635 -0.6874
vn 0.2284 -0.5663 0.7919
vn 0.2284 -0.5662 0.7920
vn 0.2291 -0.5646 0.7929
vn 0.2278 -0.5683 0.7907
vn -0.2284 -0.5663 0.7919
vn -0.2275 -0.5684 0.7907
vn -0.2291 -0.5645 0.7930
vn -0.3376 -0.5821 0.7397
vn -0.5332 -0.5772 0.6186
vn -0.5363 -0.5724 0.6203
vn -0.3373 -0.5806 0.7411
vn -0.1415 -0.5639 0.8136
vn -0.1413 -0.5620 0.8150
vn 0.3387 -0.5794 0.7413
vn 0.1419 -0.5617 0.8151
vn 0.1421 -0.5637 0.8136
vn 0.3372 -0.5806 0.7411
vn 0.5378 -0.5670 0.6239
vn -0.2939 -0.0000 -0.9558
vn -0.4760 -0.0000 -0.8794
vn -0.1719 -0.0000 -0.9851
vn -0.5836 -0.0000 -0.8120
vn -0.6992 -0.0000 -0.7149
vn 0.1719 -0.0000 -0.9851
vn 0.2938 -0.0000 -0.9559
vn 0.4761 -0.0000 -0.8794
vn 0.5836 -0.0000 -0.8120
vn 0.6993 -0.0000 -0.7149
vn 0.7130 -0.0000 -0.7011
vn 0.7131 -0.0000 -0.7010
vn 0.7131 -0.0000 -0.7011
vn -0.7073 -0.0000 -0.7069
vn -0.7073 -0.0000 -0.7070
vn -0.7071 -0.0000 -0.7072
vn -0.3178 -0.0000 -0.9482
vn -0.3177 -0.0000 -0.9482
vn -0.3179 -0.0000 -0.9481
vn 0.3176 -0.0000 -0.9482
vn 0.3178 -0.0000 -0.9481
vn 0.3181 -0.0000 -0.9481
vn -0.0000 -0.0000 -1.0000
vn -0.5562 -0.0000 -0.8311
vn 0.5562 -0.0000 -0.8310
vn 0.2590 -0.0000 -0.9659
vn 0.0890 -0.0000 -0.9960
vn 0.2587 -0.0000 -0.9660
vn -0.0890 -0.0000 -0.9960
vn -0.2587 -0.0000 -0.9660
vn -0.2590 -0.0000 -0.9659
vt 1.213900 1.755380
vt 1.254650 1.755380
vt 1.254650 1.777240
vt 1.213900 1.777240
vt 1.201210 1.755380
vt 1.201210 1.777240
vt 1.179980 1.755380
vt 1.179980 1.777240
vt 1.162130 1.755380
vt 1.162130 1.777240
vt 1.151820 1.755380
vt 1.151820 1.777240
vt 1.141510 1.755380
vt 1.141510 1.777240
vt 1.256460 1.777240
vt 1.168410 1.781710
vt 1.169680 1.777240
vt 1.168410 1.750910
vt 1.256460 1.755380
vt 1.169680 1.755380
vt 1.143010 1.777240
vt 1.143010 1.755380
vt 1.146730 1.777240
vt 1.146730 1.755380
vt 1.156910 1.777240
vt 1.156910 1.755380
vt 1.160640 1.777240
vt 1.160640 1.755380
vt 1.282950 1.727090
vt 1.258410 1.707500
vt 1.260130 1.704880
vt 1.282140 1.730600
vt 1.221100 1.692050
vt 1.221710 1.688970
vt 1.195380 1.688970
vt 1.195990 1.692050
vt 1.156960 1.704880
vt 1.158690 1.707500
vt 1.134140 1.727090
vt 1.134950 1.730600
vt 1.289330 1.760960
vt 1.298830 1.725100
vt 1.303850 1.720210
vt 1.287400 1.757190
vt 1.127770 1.760960
vt 1.113250 1.720210
vt 1.118260 1.725100
vt 1.129700 1.757190
vt 1.269140 1.776740
vt 1.272230 1.794880
vt 1.269140 1.791800
vt 1.272230 1.773650
vt 1.144870 1.794880
vt 1.144870 1.773650
vt 1.147950 1.776740
vt 1.147950 1.791800
vt 1.208550 1.843650
vt 1.199830 1.838130
vt 1.208550 1.840460
vt 1.198240 1.840890
vt 1.218860 1.840890
vt 1.193450 1.831750
vt 1.217260 1.838130
vt 1.190690 1.833350
vt 1.226400 1.833350
vt 1.191120 1.823040
vt 1.223640 1.831750
vt 1.187930 1.823040
vt 1.225970 1.823040
vt 1.229160 1.823040
vt 1.193450 1.814320
vt 1.190690 1.812730
vt 1.198240 1.805180
vt 1.201320 1.806450
vt 1.223640 1.814320
vt 1.226400 1.812730
vt 1.218860 1.805180
vt 1.215770 1.806450
vt 1.216090 1.714730
vt 1.219160 1.718400
vt 1.197930 1.718400
vt 1.201010 1.714730
vt 1.170110 1.720160
vt 1.246990 1.720160
vt 1.148360 1.738930
vt 1.268740 1.738930
vt 1.161750 1.747900
vt 1.255340 1.747900
vt 1.215230 1.834610
vt 1.208550 1.836400
vt 1.201860 1.834610
vt 1.220120 1.829720
vt 1.196970 1.829720
vt 1.221910 1.823040
vt 1.195180 1.823040
vt 1.196970 1.816350
vt 1.220120 1.816350
vt 1.215230 1.811460
vt 1.201860 1.811460
vt 1.208550 1.809670
vt 1.213640 1.831850
vt 1.208550 1.833210
vt 1.203460 1.831850
vt 1.217360 1.828130
vt 1.199730 1.828130
vt 1.218720 1.823040
vt 1.198370 1.823040
vt 1.217360 1.817950
vt 1.213640 1.814220
vt 1.199730 1.817950
vt 1.203460 1.814220
vt 1.208550 1.812860
vt 1.248130 1.749020
vt 1.263660 1.738620
vt 1.153430 1.738620
vt 1.168960 1.749020
vt 1.171480 1.723040
vt 1.245620 1.723040
vt 1.226400 1.755380
vt 1.226400 1.777240
vt 1.218860 1.755380
vt 1.218860 1.777240
vt 1.208550 1.755380
vt 1.208550 1.777240
vt 1.198240 1.755380
vt 1.198240 1.777240
vt 1.190690 1.755380
vt 1.190690 1.777240
vt 1.147950 1.781710
vt 1.272230 1.777240
vt 1.269140 1.781710
vt 1.144870 1.777240
vt 1.272230 1.755380
vt 1.144870 1.755380
vt 1.147950 1.750910
vt 1.269140 1.750910
vt 1.203460 1.755380
vt 1.203460 1.777240
vt 1.213640 1.777240
vt 1.213640 1.755380
vt 1.248130 1.755380
vt 1.289330 1.755380
vt 1.289330 1.777240
vt 1.248130 1.777240
vt 1.127770 1.755380
vt 1.168960 1.755380
vt 1.168960 1.777240
vt 1.127770 1.777240
vt 1.171480 1.755380
vt 1.197930 1.755380
vt 1.197930 1.777240
vt 1.171480 1.777240
vt 1.219160 1.755380
vt 1.245620 1.755380
vt 1.245620 1.777240
vt 1.219160 1.777240
vt 1.153430 1.755380
vt 1.153430 1.777240
vt 1.263660 1.755380
vt 1.263660 1.777240
vt 1.162440 1.755380
vt 1.203190 1.777240
vt 1.162440 1.777240
vt 1.203190 1.755380
vt 1.215890 1.755380
vt 1.237120 1.777240
vt 1.215890 1.777240
vt 1.237120 1.755380
vt 1.275580 1.777240
vt 1.265270 1.755380
vt 1.275580 1.755380
vt 1.265270 1.777240
vt 1.254960 1.755380
vt 1.254960 1.777240
vt 1.248690 1.781710
vt 1.160630 1.777240
vt 1.247420 1.777240
vt 1.160630 1.755380
vt 1.248690 1.750910
vt 1.247420 1.755380
vt 1.274080 1.777240
vt 1.270360 1.755380
vt 1.274080 1.755380
vt 1.270360 1.777240
vt 1.260180 1.755380
vt 1.260180 1.777240
vt 1.221710 1.755380
vt 1.260130 1.777240
vt 1.221710 1.777240
vt 1.260130 1.755380
vt 1.282950 1.777240
vt 1.282950 1.755380
vt 1.195380 1.755380
vt 1.195380 1.777240
vt 1.156960 1.755380
vt 1.156960 1.777240
vt 1.134140 1.755380
vt 1.134140 1.777240
vt 1.113250 1.755380
vt 1.113250 1.777240
vt 1.303850 1.777240
vt 1.303850 1.755380
s 1
usemtl Anchor1Mtl
f 1/1/1 2/2/1 3/3/1
f 3/3/1 4/4/1 1/1/1
f 5/5/2 6/6/2 7/7/2
f 6/6/2 8/8/2 7/7/2
f 9/9/3 10/10/3 11/11/4
f 10/10/3 12/12/5 11/11/4
f 11/11/4 12/12/5 13/13/6
f 12/12/5 14/14/6 13/13/6
f 15/15/7 16/16/7 17/17/7
f 18/18/8 19/19/8 20/20/8
f 21/20/9 22/19/9 23/15/9
f 23/15/9 24/17/9 21/20/9
f 25/21/10 26/22/11 27/23/12
f 28/24/13 27/23/12 26/22/11
f 27/23/12 28/24/13 29/12/14
f 30/11/15 29/12/14 28/24/13
f 29/12/14 30/11/15 31/25/16
f 32/26/17 31/25/16 30/11/15
f 31/25/16 32/26/17 33/27/18
f 34/28/19 33/27/18 32/26/17
f 35/29/20 36/30/21 37/31/22
f 36/30/21 35/29/20 38/32/23
f 39/33/24 37/31/22 36/30/21
f 37/31/22 39/33/24 40/34/25
f 41/35/26 40/34/25 39/33/24
f 41/35/26 39/33/24 42/36/27
f 43/37/28 41/35/26 42/36/27
f 42/36/27 44/38/29 43/37/28
f 45/39/30 43/37/28 44/38/29
f 44/38/29 46/40/31 45/39/30
f 47/41/32 48/42/33 49/43/34
f 48/42/33 47/41/32 50/44/35
f 51/45/36 52/46/37 53/47/38
f 51/45/36 53/47/38 54/48/39
f 55/49/40 56/50/41 57/51/42
f 56/50/41 55/49/40 58/52/43
f 59/53/44 60/54/44 61/55/44
f 59/53/44 61/55/44 62/56/45
f 63/29/46 64/43/47 65/42/48
f 65/42/48 66/32/49 63/29/46
f 67/39/50 68/47/51 69/46/52
f 68/47/51 67/39/50 70/40/53
f 71/57/54 72/58/55 73/59/56
f 72/58/55 71/57/54 74/60/57
f 73/59/56 75/61/58 71/57/54
f 74/60/57 76/62/59 72/58/55
f 73/59/56 77/63/60 75/61/58
f 74/60/57 78/64/61 76/62/59
f 79/65/62 75/61/58 77/63/60
f 78/64/61 80/66/63 76/62/59
f 79/65/62 77/63/60 81/67/64
f 78/64/61 82/68/65 80/66/63
f 83/69/66 79/65/62 81/67/64
f 79/65/62 83/69/66 84/70/67
f 85/71/68 80/66/63 82/68/65
f 85/71/68 82/68/65 86/72/69
f 87/73/70 85/71/68 86/72/69
f 85/71/68 87/73/70 88/74/71
f 89/75/72 84/70/67 83/69/66
f 84/70/67 89/75/72 90/76/73
f 89/75/72 91/77/74 90/76/73
f 89/75/72 92/78/75 91/77/74
f 93/78/76 94/79/76 95/80/76
f 96/74/77 97/81/77 98/82/77
f 99/54/78 100/52/79 101/49/79
f 99/54/78 101/49/79 102/55/78
f 103/79/80 104/78/80 105/82/80
f 106/36/80 103/79/80 105/82/80
f 105/82/80 104/78/80 107/74/80
f 108/83/80 106/36/80 105/82/80
f 103/79/80 106/36/80 109/33/80
f 106/36/80 108/83/80 110/38/80
f 109/33/80 111/84/80 103/79/80
f 112/30/80 111/84/80 109/33/80
f 113/85/80 110/38/80 108/83/80
f 112/30/80 114/86/80 111/84/80
f 110/38/80 113/85/80 115/40/80
f 114/86/80 112/30/80 116/32/80
f 117/48/80 115/40/80 113/85/80
f 117/48/80 118/47/80 115/40/80
f 113/85/80 119/87/80 117/48/80
f 120/44/80 114/86/80 116/32/80
f 114/86/80 120/44/80 121/88/80
f 122/42/80 120/44/80 116/32/80
f 123/89/80 124/59/80 125/90/80
f 124/59/80 126/91/80 125/90/80
f 124/59/80 123/89/80 127/63/80
f 126/91/80 124/59/80 128/58/80
f 129/92/80 127/63/80 123/89/80
f 128/58/80 130/62/80 126/91/80
f 131/67/80 127/63/80 129/92/80
f 130/62/80 132/93/80 126/91/80
f 129/92/80 133/69/80 131/67/80
f 130/62/80 134/66/80 132/93/80
f 133/69/80 129/92/80 135/94/80
f 132/93/80 134/66/80 136/95/80
f 135/94/80 137/75/80 133/69/80
f 134/66/80 138/96/80 136/95/80
f 137/75/80 135/94/80 139/97/80
f 138/96/80 134/66/80 140/71/80
f 141/98/80 137/75/80 139/97/80
f 140/71/80 142/99/80 138/96/80
f 104/78/80 137/75/80 141/98/80
f 142/99/80 140/71/80 107/74/80
f 143/100/80 104/78/80 141/98/80
f 107/74/80 143/100/80 142/99/80
f 107/74/80 104/78/80 143/100/80
f 144/55/80 145/49/80 146/51/80
f 144/55/80 146/51/80 147/56/80
f 148/101/81 149/90/82 150/102/83
f 149/90/82 151/103/84 150/102/83
f 149/90/82 148/101/81 152/89/85
f 151/103/84 149/90/82 153/91/86
f 154/104/87 152/89/85 148/101/81
f 155/93/88 151/103/84 153/91/86
f 152/89/85 154/104/87 156/92/89
f 151/103/84 155/93/88 157/105/90
f 158/94/91 156/92/89 154/104/87
f 158/94/91 154/104/87 159/106/92
f 155/93/88 160/107/93 157/105/90
f 159/106/92 161/97/94 158/94/91
f 155/93/88 162/95/95 160/107/93
f 161/97/94 159/106/92 163/108/96
f 164/109/97 161/97/94 163/108/96
f 161/97/94 164/109/97 165/98/98
f 166/96/99 160/107/93 162/95/95
f 160/107/93 166/96/99 167/110/100
f 166/96/99 168/111/101 167/110/100
f 169/112/102 165/98/98 164/109/97
f 168/111/101 166/96/99 170/99/103
f 170/99/103 169/112/102 168/111/101
f 165/98/98 169/112/102 171/100/104
f 170/99/103 171/100/104 169/112/102
f 172/113/105 173/114/106 174/88/107
f 175/86/108 174/88/107 173/114/106
f 176/87/109 177/85/110 178/115/111
f 178/115/111 179/116/112 176/87/109
f 180/41/113 181/88/114 182/44/115
f 180/41/113 183/113/116 181/88/114
f 184/45/117 185/87/117 186/116/118
f 185/87/117 184/45/117 187/48/119
f 188/115/120 189/83/121 190/117/122
f 189/83/121 188/115/120 191/85/123
f 189/83/121 192/81/124 190/117/122
f 189/83/121 193/82/125 192/81/124
f 194/84/126 195/80/127 196/79/128
f 195/80/127 194/84/126 197/118/129
f 194/84/126 198/114/130 197/118/129
f 194/84/126 199/86/130 198/114/130
f 200/119/131 201/120/132 202/121/133
f 202/121/133 201/120/132 203/122/134
f 204/123/135 202/121/133 203/122/134
f 204/123/135 203/122/134 205/124/136
f 206/125/137 204/123/135 205/124/136
f 206/125/137 205/124/136 207/126/138
f 206/125/137 207/126/138 208/127/139
f 208/127/139 207/126/138 209/128/140
f 210/129/141 211/130/142 212/131/142
f 211/130/142 210/129/141 213/132/141
f 214/133/143 215/134/144 216/135/144
f 214/133/143 216/135/144 217/136/143
f 218/134/145 219/133/145 220/130/145
f 218/134/145 220/130/145 221/132/145
f 222/137/146 223/124/147 224/138/148
f 225/123/149 223/124/147 222/137/146
f 225/123/149 226/139/150 223/124/147
f 227/140/151 226/139/150 225/123/149
f 228/141/152 229/142/152 230/143/152
f 228/141/152 230/143/152 231/144/152
f 232/145/153 233/146/153 234/147/153
f 232/145/153 234/147/153 235/148/153
f 236/149/154 237/150/154 238/151/154
f 236/149/154 238/151/154 239/152/154
f 240/153/155 241/154/155 242/155/155
f 240/153/155 242/155/155 243/156/155
f 244/157/156 245/149/157 246/152/158
f 244/157/156 246/152/158 247/158/159
f 248/154/160 249/159/161 250/160/160
f 248/154/160 250/160/160 251/155/162
f 252/161/163 253/162/163 254/163/163
f 253/162/163 252/161/163 255/164/163
f 256/165/164 257/166/164 258/167/164
f 257/166/164 256/165/164 259/168/164
f 260/169/165 261/170/166 262/171/165
f 261/170/166 260/169/165 263/172/167
f 263/172/167 264/173/168 261/170/166
f 264/173/168 263/172/167 265/174/168
f 266/175/169 267/176/169 268/177/169
f 269/178/170 270/179/170 271/180/170
f 272/178/171 273/177/171 274/176/171
f 273/177/171 272/178/171 275/180/171
f 276/181/172 277/182/173 278/183/174
f 277/182/173 276/181/172 279/184/175
f 279/184/175 280/170/176 277/182/173
f 280/170/176 279/184/175 281/172/177
f 281/172/177 282/185/178 280/170/176
f 282/185/178 281/172/177 283/186/179
f 283/186/179 284/19/180 282/185/178
f 284/19/180 283/186/179 285/15/181
f 286/38/182 287/40/183 288/39/184
f 288/39/184 289/37/185 286/38/182
f 290/36/186 286/38/182 289/37/185
f 289/37/185 291/35/187 290/36/186
f 291/35/187 292/33/188 290/36/186
f 291/35/187 293/34/189 292/33/188
f 294/31/190 292/33/188 293/34/189
f 292/33/188 294/31/190 295/30/191
f 296/29/192 295/30/191 294/31/190
f 295/30/191 296/29/192 297/32/193
f 298/45/194 299/46/195 300/47/196
f 298/45/194 300/47/196 301/48/197
f 302/41/198 303/42/199 304/43/200
f 303/42/199 302/41/198 305/44/201
f 306/53/202 307/54/203 308/55/204
f 306/53/202 308/55/204 309/56/205
f 310/49/206 311/50/207 312/51/208
f 311/50/207 310/49/206 313/52/206
f 314/39/209 315/47/209 316/46/210
f 315/47/209 314/39/209 317/40/211
f 318/29/212 319/43/213 320/42/212
f 320/42/212 321/32/214 318/29/212
f 322/63/215 323/57/216 324/59/217
f 323/57/216 322/63/215 325/61/218
f 326/60/219 324/59/217 323/57/216
f 327/67/220 325/61/218 322/63/215
f 324/59/217 326/60/219 328/58/221
f 325/61/218 327/67/220 329/65/222
f 330/64/223 328/58/221 326/60/219
f 331/69/224 329/65/222 327/67/220
f 328/58/221 330/64/223 332/62/225
f 329/65/222 331/69/224 333/70/226
f 330/64/223 334/66/227 332/62/225
f 334/66/227 330/64/223 335/68/228
f 336/75/229 333/70/226 331/69/224
f 335/68/228 337/71/230 334/66/227
f 333/70/226 336/75/229 338/76/231
f 337/71/230 335/68/228 339/72/232
f 336/75/229 340/77/233 338/76/231
f 336/75/229 341/78/234 340/77/233
f 342/73/235 337/71/230 339/72/232
f 337/71/230 342/73/235 343/74/236
f 344/74/237 345/81/237 346/82/237
f 347/78/238 348/79/238 349/80/238
f 350/52/239 351/55/240 352/54/240
f 351/55/240 350/52/239 353/49/239
f 354/91/241 355/90/241 356/59/241
f 357/89/241 356/59/241 355/90/241
f 356/59/241 358/58/241 354/91/241
f 356/59/241 357/89/241 359/63/241
f 358/58/241 360/93/241 354/91/241
f 357/89/241 361/67/241 359/63/241
f 358/58/241 362/62/241 360/93/241
f 361/67/241 357/89/241 363/92/241
f 364/66/241 360/93/241 362/62/241
f 365/69/241 361/67/241 363/92/241
f 360/93/241 364/66/241 366/95/241
f 365/69/241 363/92/241 367/94/241
f 368/97/241 365/69/241 367/94/241
f 365/69/241 368/97/241 369/75/241
f 370/71/241 366/95/241 364/66/241
f 371/98/241 369/75/241 368/97/241
f 366/95/241 370/71/241 372/96/241
f 369/75/241 371/98/241 373/78/241
f 374/99/241 372/96/241 370/71/241
f 373/78/241 371/98/241 375/100/241
f 370/71/241 376/74/241 374/99/241
f 376/74/241 375/100/241 374/99/241
f 375/100/241 376/74/241 373/78/241
f 376/74/241 377/79/241 373/78/241
f 377/79/241 376/74/241 378/82/241
f 379/36/241 377/79/241 378/82/241
f 378/82/241 380/83/241 379/36/241
f 381/33/241 377/79/241 379/36/241
f 380/83/241 382/38/241 379/36/241
f 377/79/241 381/33/241 383/84/241
f 384/85/241 382/38/241 380/83/241
f 381/33/241 385/30/241 383/84/241
f 382/38/241 384/85/241 386/40/241
f 385/30/241 387/86/241 383/84/241
f 388/48/241 386/40/241 384/85/241
f 386/40/241 388/48/241 389/47/241
f 384/85/241 390/87/241 388/48/241
f 387/86/241 385/30/241 391/32/241
f 392/44/241 387/86/241 391/32/241
f 387/86/241 392/44/241 393/88/241
f 394/42/241 392/44/241 391/32/241
f 395/49/241 396/56/241 397/55/241
f 396/56/241 395/49/241 398/51/241
f 399/103/242 400/102/243 401/90/244
f 402/101/245 401/90/244 400/102/243
f 401/90/244 403/91/246 399/103/242
f 401/90/244 402/101/245 404/89/247
f 403/91/246 405/105/248 399/103/242
f 406/104/249 404/89/247 402/101/245
f 403/91/246 407/93/250 405/105/248
f 404/89/247 406/104/249 408/92/251
f 409/95/252 405/105/248 407/93/250
f 405/105/248 409/95/252 410/107/253
f 411/106/254 408/92/251 406/104/249
f 408/92/251 411/106/254 412/94/255
f 413/96/256 410/107/253 409/95/252
f 410/107/253 413/96/256 414/110/257
f 415/111/258 414/110/257 413/96/256
f 416/97/259 412/94/255 411/106/254
f 413/96/256 417/99/260 415/111/258
f 411/106/254 418/108/261 416/97/259
f 417/99/260 419/112/262 415/111/258
f 420/109/263 416/97/259 418/108/261
f 417/99/260 421/100/264 419/112/262
f 416/97/259 420/109/263 422/98/265
f 422/98/265 419/112/262 421/100/264
f 419/112/262 422/98/265 420/109/263
f 423/87/266 424/85/267 425/115/268
f 425/115/268 426/116/269 423/87/266
f 427/113/270 428/114/271 429/88/271
f 430/86/272 429/88/271 428/114/271
f 431/45/273 432/87/274 433/116/275
f 432/87/274 431/45/273 434/48/276
f 435/41/277 436/88/277 437/44/278
f 435/41/277 438/113/279 436/88/277
f 439/84/280 440/86/281 441/114/282
f 439/84/280 441/114/282 442/118/283
f 443/80/284 439/84/280 442/118/283
f 439/84/280 443/80/284 444/79/285
f 445/83/286 446/82/287 447/81/288
f 445/83/286 447/81/288 448/117/289
f 449/115/290 445/83/286 448/117/289
f 445/83/286 449/115/290 450/85/290
f 451/187/291 452/188/292 453/189/293
f 452/188/292 451/187/291 454/190/294
f 452/188/292 454/190/294 455/191/295
f 455/191/295 454/190/294 456/192/295
f 453/189/293 457/193/296 451/187/291
f 453/189/293 458/194/297 457/193/296
f 458/194/297 459/195/298 457/193/296
f 458/194/297 460/196/299 459/195/298
f 460/196/299 461/197/300 459/195/298
f 461/197/300 460/196/299 462/198/300
f 463/128/301 464/127/302 465/126/303
f 465/126/303 464/127/302 466/125/301
f 467/120/174 468/121/304 469/119/305
f 468/121/304 467/120/174 470/122/306
f 471/199/307 472/198/307 473/200/308
f 472/198/307 471/199/307 474/197/309
f 475/191/310 476/192/311 477/201/311
f 477/201/311 476/192/311 478/202/312
f 479/130/313 480/132/313 481/134/313
f 479/130/313 481/134/313 482/133/313
f 483/158/314 484/157/314 485/147/314
f 485/147/314 484/157/314 486/146/314
f 487/141/315 488/160/315 489/144/315
f 488/160/315 487/141/315 490/159/315
f 491/139/316 492/123/317 493/140/318
f 494/124/319 492/123/317 491/139/316
f 494/124/319 495/137/320 492/123/317
f 495/137/320 494/124/319 496/138/321
