# Blender 5.1.2
# www.blender.org
mtllib BallSocket.mtl
o BallSocket
v 0.188448 0.143855 0.108070
v 0.144158 0.162065 0.143070
v 0.154038 0.143855 0.152969
v 0.163488 0.181405 0.093670
v 0.210068 0.083555 0.120569
v 0.154038 0.143855 0.152969
v 0.144158 0.162065 0.143070
v 0.154038 0.143855 0.152969
v 0.171698 0.083555 0.170570
v 0.125948 0.187575 0.132570
v 0.144158 0.162065 0.143070
v 0.125948 0.206355 0.108070
v 0.125948 0.187575 0.132570
v 0.109198 0.143855 0.187370
v 0.095558 0.179395 0.163769
v 0.065648 0.227985 0.120569
v 0.095558 0.179395 0.163769
v 0.109198 0.143855 0.187370
v 0.121688 0.083555 0.208969
v 0.048148 0.188345 0.175970
v 0.065648 0.195625 0.162769
v 0.065648 0.195625 0.162769
v 0.048148 0.188345 0.175970
v 0.056978 0.143855 0.208969
v 0.000948 0.143855 0.216370
v 0.056978 0.143855 0.208969
v 0.000948 0.083555 0.241369
v 0.000948 0.195625 0.176569
v 0.000948 0.235355 0.124870
v 0.000948 0.195625 0.176569
v 0.000948 0.195625 0.176569
v 0.000948 0.195625 0.176569
v 0.000948 0.143855 0.216370
v 0.171698 0.083555 0.170570
v 0.171698 0.083555 0.170570
v 0.177718 0.018855 0.176569
v 0.171698 0.083555 0.170570
v 0.154038 0.143855 0.152969
v 0.177718 0.018855 0.176569
v 0.177718 0.018855 0.176569
v 0.217448 0.018855 0.124870
v 0.171698 -0.045855 0.170570
v 0.177718 0.018855 0.176569
v 0.125948 0.018855 0.216370
v 0.121688 0.083555 0.208969
v 0.171698 -0.045855 0.170570
v 0.125948 0.018855 0.216370
v 0.063448 0.083555 0.233070
v 0.121688 -0.045855 0.208969
v 0.171698 -0.045855 0.170570
v 0.063448 0.083555 0.233070
v 0.065648 0.018855 0.241369
v 0.065648 0.018855 0.241369
v 0.000948 0.018855 0.249870
v 0.000948 0.083555 0.241369
v -0.055092 0.143855 0.208969
v 0.177718 0.195625 -0.000130
v 0.217448 0.143855 -0.000130
v 0.174258 0.192175 -0.046631
v 0.177718 0.195625 -0.000130
v 0.210068 0.143855 0.055870
v 0.174258 0.192175 0.046270
v 0.174258 0.192175 0.046270
v 0.210068 0.143855 0.055870
v 0.234198 0.083555 0.062370
v 0.242428 0.083555 -0.000130
v 0.234198 0.083555 0.062370
v 0.174258 0.192175 0.046270
v 0.174258 0.192175 0.046270
v 0.177718 0.195625 -0.000130
v 0.188448 0.143855 0.108070
v 0.163488 0.181405 0.093670
v 0.163488 0.181405 0.093670
v 0.163488 0.181405 0.093670
v 0.210068 0.083555 0.120569
v 0.125948 0.235355 -0.000130
v 0.125948 0.227985 0.055870
v 0.125948 0.235355 -0.000130
v 0.125948 0.227985 0.055870
v 0.065648 0.260335 -0.000130
v 0.065648 0.260335 -0.000130
v 0.000948 0.268855 -0.000130
v 0.000948 0.268855 -0.000130
v 0.065648 0.252105 0.062370
v 0.000948 0.260335 0.064569
v 0.000948 0.260335 0.064569
v 0.000948 0.235355 0.124870
v 0.065648 0.252105 0.062370
v 0.065648 0.227985 0.120569
v -0.063762 0.227985 0.120569
v 0.125948 0.227985 -0.056231
v 0.174258 0.192175 -0.046631
v 0.217448 0.143855 -0.000130
v 0.250948 0.018855 -0.000130
v 0.242428 0.018855 0.064569
v 0.250948 0.018855 -0.000130
v 0.242428 0.083555 -0.000130
v 0.210068 0.143855 -0.056231
v -0.046262 0.188345 0.175970
v -0.046262 0.188345 0.175970
v -0.063762 0.195625 0.162769
v -0.055092 0.143855 0.208969
v -0.107312 0.143855 0.187370
v -0.061552 0.083555 0.233070
v -0.063762 0.195625 0.162769
v -0.107312 0.143855 0.187370
v -0.093672 0.179395 0.163769
v -0.124052 0.187575 0.132570
v -0.124052 0.187575 0.132570
v -0.093672 0.179395 0.163769
v -0.142272 0.162065 0.143070
v -0.124052 0.206355 0.108070
v -0.142272 0.162065 0.143070
v -0.161602 0.181405 0.093670
v -0.061552 0.083555 0.233070
v -0.063762 0.018855 0.241369
v 0.000948 0.018855 0.249870
v -0.119792 0.083555 0.208969
v -0.119802 0.083555 0.208969
v -0.152152 0.143855 0.152969
v -0.169812 0.083555 0.170570
v -0.124052 0.235355 -0.000130
v -0.124052 0.227985 0.055870
v -0.063762 0.260335 -0.000130
v -0.124052 0.235355 -0.000130
v -0.124052 0.235355 -0.000130
v -0.172372 0.192175 0.046270
v -0.063762 0.260335 -0.000130
v -0.063762 0.252105 0.062370
v -0.124052 0.227985 0.055870
v -0.124052 0.206355 0.108070
v -0.063762 0.252105 0.062370
v 0.000948 0.260335 0.064569
v 0.000948 0.260335 -0.064831
v -0.063762 0.227985 0.120569
v -0.124052 0.235355 -0.000130
v -0.124052 0.227985 -0.056231
v -0.172372 0.192175 -0.046631
v -0.175832 0.195635 -0.000130
v 0.210068 -0.045855 0.120569
v 0.154038 -0.106145 0.152969
v 0.210068 -0.045855 0.120569
v 0.171698 -0.045855 0.170570
v 0.154038 -0.106145 0.152969
v 0.125948 0.018855 0.216370
v 0.121688 -0.045855 0.208969
v 0.056978 -0.106145 0.208969
v 0.109198 -0.106145 0.187370
v 0.109198 -0.106145 0.187370
v 0.154038 -0.106145 0.152969
v 0.063448 -0.045855 0.233070
v 0.063448 -0.045855 0.233070
v 0.000948 -0.045855 0.241369
v 0.056978 -0.106145 0.208969
v 0.000948 -0.106145 0.216370
v 0.056978 -0.106145 0.208969
v 0.000948 -0.045855 0.241369
v 0.000948 -0.106145 0.216370
v 0.242428 0.018855 0.064569
v 0.234198 -0.045855 0.062370
v 0.242428 -0.045855 -0.000130
v 0.242428 -0.045855 -0.000130
v 0.234198 -0.045855 0.062370
v 0.210068 -0.106145 0.055870
v 0.210068 -0.106145 0.055870
v 0.188448 -0.106145 0.108070
v 0.217448 0.018855 0.124870
v -0.061552 -0.045855 0.233070
v 0.000948 -0.106145 0.216370
v 0.000948 -0.157925 0.176569
v -0.046252 -0.150635 0.175970
v 0.048148 -0.150635 0.175970
v -0.061552 -0.045855 0.233070
v -0.063762 0.018855 0.241369
v -0.119792 -0.045855 0.208969
v -0.119792 -0.045855 0.208969
v -0.055092 -0.106145 0.208969
v -0.124052 0.018855 0.216370
v -0.107312 -0.106145 0.187370
v -0.055092 -0.106145 0.208969
v -0.093672 -0.141685 0.163769
v 0.163498 0.181395 -0.094030
v 0.188448 0.143855 -0.108431
v 0.144158 0.162065 -0.143330
v 0.174258 0.192175 -0.046631
v 0.174258 0.192175 -0.046631
v 0.177718 0.195625 -0.000130
v 0.163488 0.181405 -0.094030
v 0.125948 0.206355 -0.108431
v 0.125948 0.227985 -0.056231
v 0.144158 0.162065 -0.143330
v 0.065648 0.252105 -0.062630
v 0.000948 0.235355 -0.125130
v 0.000948 0.235355 -0.125130
v 0.000948 0.260335 -0.064831
v -0.063762 0.227985 -0.120930
v 0.000948 0.195625 -0.176929
v 0.048148 0.188345 -0.176331
v 0.000948 0.195625 -0.176929
v 0.065648 0.227985 -0.120930
v 0.065648 0.195635 -0.163031
v 0.065648 0.227985 -0.120930
v 0.125948 0.206355 -0.108431
v 0.125948 0.187575 -0.132931
v 0.065648 0.252105 -0.062630
v -0.063762 0.252105 -0.062630
v 0.234198 0.083555 -0.062630
v 0.188448 0.143855 -0.108431
v 0.210068 0.083555 -0.120930
v 0.234198 0.083555 -0.062630
v 0.210068 0.083555 -0.120930
v 0.217448 0.018855 -0.125130
v 0.171698 0.083555 -0.170931
v 0.171698 0.083555 -0.170931
v 0.217448 0.018855 -0.125130
v 0.210068 0.143855 -0.056231
v 0.242428 0.018855 -0.064831
v 0.242428 0.018855 -0.064831
v -0.124052 0.206355 -0.108431
v -0.063762 0.227985 -0.120930
v -0.124052 0.187575 -0.132830
v -0.124052 0.206355 -0.108431
v -0.063762 0.252105 -0.062630
v 0.217448 -0.106145 -0.000130
v 0.210068 -0.106145 -0.056231
v 0.210068 -0.045855 -0.120930
v 0.171698 -0.045855 -0.170931
v 0.210068 -0.045855 -0.120930
v 0.188448 -0.106145 -0.108431
v 0.234198 -0.045855 -0.062630
v 0.154038 -0.106145 -0.153231
v 0.234198 -0.045855 -0.062630
v 0.163498 -0.143695 -0.094030
v 0.210068 -0.106145 -0.056231
v 0.174258 -0.154465 -0.046631
v 0.174258 -0.154465 -0.046631
v -0.152152 0.143855 0.152969
v -0.142272 0.162065 0.143070
v -0.152152 0.143855 0.152969
v -0.152152 0.143855 0.152969
v -0.161602 0.181395 0.093670
v -0.124052 0.018855 0.216370
v -0.169812 0.083555 0.170570
v -0.208182 0.083555 0.120569
v -0.169812 0.083555 0.170570
v -0.208182 0.083555 0.120569
v -0.169812 0.083555 0.170570
v -0.175832 0.018855 0.176569
v -0.169812 -0.045855 0.170570
v -0.215562 0.018855 0.124870
v -0.175832 0.018855 0.176569
v -0.169812 -0.045855 0.170570
v -0.186552 0.143855 0.108070
v -0.161602 0.181395 0.093670
v -0.186552 0.143855 0.108070
v -0.161602 0.181405 0.093670
v -0.172372 0.192165 0.046270
v -0.172372 0.192165 0.046270
v -0.208182 0.143855 0.055870
v -0.215562 0.143855 -0.000130
v -0.208182 0.143855 0.055870
v -0.172372 0.192175 0.046270
v -0.175832 0.195635 -0.000130
v -0.175832 0.195635 -0.000130
v -0.232312 0.083555 0.062370
v -0.215562 0.018855 0.124870
v -0.240542 0.018855 0.064569
v -0.240542 0.083555 -0.000130
v -0.232312 0.083555 0.062370
v -0.240542 0.083555 -0.000130
v -0.240542 0.018855 0.064569
v -0.249052 0.018855 -0.000130
v -0.232312 -0.045855 0.062370
v -0.169812 -0.045855 0.170570
v -0.175832 0.018855 0.176569
v -0.152152 -0.106145 0.152969
v -0.169812 -0.045855 0.170570
v -0.208182 -0.045855 0.120569
v -0.152152 -0.106145 0.152969
v -0.208182 -0.045855 0.120569
v -0.173702 -0.106145 0.124870
v -0.186552 -0.106145 0.108070
v -0.232312 -0.045855 0.062370
v -0.240542 -0.045855 -0.000130
v -0.208182 -0.106145 0.055870
v -0.240542 -0.045855 -0.000130
v -0.215562 -0.106145 -0.000130
v -0.172372 -0.154465 0.046270
v -0.215562 -0.106145 -0.000130
v -0.208182 -0.106145 -0.056231
v -0.232312 -0.045855 -0.062630
v -0.175832 0.195635 -0.000130
v -0.172372 0.192175 -0.046631
v -0.208182 0.143855 -0.056231
v -0.161602 0.181405 -0.094030
v -0.172372 0.192175 -0.046631
v -0.172372 0.192175 -0.046631
v -0.161602 0.181405 -0.094030
v -0.161602 0.181405 -0.094030
v -0.124052 0.227985 -0.056231
v -0.161602 0.181405 -0.094030
v -0.186552 0.143855 -0.108431
v -0.232312 0.083555 -0.062630
v -0.186552 0.143855 -0.108431
v -0.215562 0.143855 -0.000130
v -0.208182 0.143855 -0.056231
v -0.249052 0.018855 -0.000130
v -0.240542 0.018855 -0.064831
v -0.232312 0.083555 -0.062630
v -0.208182 0.083555 -0.120930
v -0.240542 0.018855 -0.064831
v -0.208182 0.083555 -0.120930
v -0.169812 0.083555 -0.170931
v -0.215562 0.018855 -0.125130
v -0.152152 0.143855 -0.153231
v -0.232312 -0.045855 -0.062630
v -0.208182 -0.106145 -0.056231
v -0.172372 -0.154465 -0.046631
v -0.208182 -0.045855 -0.120930
v -0.186552 -0.106145 -0.108431
v -0.208182 -0.045855 -0.120930
v -0.215562 0.018855 -0.125130
v -0.161602 -0.143695 -0.094030
v -0.186552 -0.106145 -0.108431
v -0.152152 -0.106145 -0.153231
v 0.154038 -0.106145 0.152969
v 0.150938 -0.111845 0.149870
v 0.150938 -0.111845 0.149870
v 0.150938 -0.111845 0.149870
v 0.188448 -0.106145 0.108070
v 0.150938 -0.131145 0.125771
v 0.150938 -0.111845 0.149870
v 0.150938 -0.981145 0.149870
v 0.150938 -0.131145 0.125771
v 0.163498 -0.143695 0.093670
v 0.150938 -0.131145 0.125771
v 0.163488 -0.143695 0.093670
v 0.163498 -0.143695 0.093670
v 0.150938 -0.111845 0.149870
v 0.150948 -0.152035 0.098469
v 0.150948 -0.152035 0.098469
v 0.095558 -0.141685 0.163769
v 0.109098 -0.145335 0.149870
v 0.109098 -0.145335 0.149870
v 0.095558 -0.141685 0.163769
v 0.065648 -0.167825 0.149870
v 0.065648 -0.157925 0.162769
v 0.065648 -0.157925 0.162769
v 0.048148 -0.150635 0.175970
v 0.000948 -0.178475 0.149870
v 0.109098 -0.145335 0.149870
v 0.065648 -0.167825 0.149870
v 0.150938 -0.981145 0.149870
v 0.217448 -0.106145 -0.000130
v 0.174258 -0.154465 0.046270
v 0.177718 -0.157925 -0.000130
v 0.174258 -0.154465 0.046270
v 0.174258 -0.154465 0.046270
v 0.177718 -0.157925 -0.000130
v 0.150938 -0.171745 0.050869
v 0.150938 -0.178475 -0.000130
v 0.150938 -0.171745 0.050869
v 0.163488 -0.143695 0.093670
v 0.174258 -0.154465 0.046270
v 0.150938 -0.178475 -0.000130
v 0.150938 -0.111845 0.149870
v 0.000948 -0.157925 0.176569
v 0.000948 -0.157925 0.176569
v -0.046252 -0.150635 0.175970
v 0.000948 -0.157925 0.176569
v -0.063762 -0.157925 0.162769
v -0.093672 -0.141685 0.163769
v -0.063762 -0.167825 0.149870
v -0.063762 -0.157925 0.162769
v -0.107312 -0.106145 0.187370
v -0.107212 -0.145335 0.149870
v -0.063762 -0.167825 0.149870
v -0.107212 -0.145335 0.149870
v -0.149052 -0.981145 0.149870
v -0.152152 -0.106145 0.152969
v -0.107212 -0.145335 0.149870
v -0.149052 -0.111845 0.149870
v 0.000948 -0.178475 0.149870
v 0.188448 -0.106145 -0.108431
v 0.154038 -0.106145 -0.153231
v 0.150938 -0.111845 -0.150131
v 0.150938 -0.131145 -0.126030
v 0.163488 -0.143695 -0.094030
v 0.174258 -0.154465 -0.046631
v 0.174258 -0.154465 -0.046631
v 0.163488 -0.143695 -0.094030
v 0.163498 -0.143695 -0.094030
v 0.150938 -0.152035 -0.098831
v 0.150938 -0.981145 -0.150131
v 0.177718 -0.157925 -0.000130
v 0.177718 -0.157925 -0.000130
v 0.150948 -0.171745 -0.051229
v 0.150948 -0.171745 -0.051229
v 0.150938 -0.152035 -0.098831
v 0.150938 -0.131145 -0.126030
v 0.150938 -0.131145 -0.126030
v -0.149052 -0.111845 0.149870
v -0.149052 -0.111845 0.149870
v -0.152152 -0.106145 0.152969
v -0.149052 -0.111845 0.149870
v -0.186552 -0.106145 0.108070
v -0.149052 -0.111845 0.149870
v -0.149052 -0.111845 0.149870
v -0.149052 -0.131155 0.125669
v -0.149052 -0.981145 0.149870
v -0.149052 -0.131155 0.125669
v -0.208182 -0.106145 0.055870
v -0.161602 -0.143695 0.093670
v -0.161602 -0.143695 0.093670
v -0.161602 -0.143695 0.093670
v -0.172372 -0.154465 0.046270
v -0.161602 -0.143695 0.093670
v -0.149052 -0.131155 0.125669
v -0.149052 -0.152035 0.098469
v -0.172372 -0.154465 0.046270
v -0.172372 -0.154465 0.046270
v -0.149052 -0.178475 -0.000130
v -0.175832 -0.157925 -0.000130
v -0.175832 -0.157925 -0.000130
v -0.175832 -0.157925 -0.000130
v -0.175832 -0.157925 -0.000130
v -0.149052 -0.171745 0.050869
v -0.149052 -0.152035 0.098469
v -0.149052 -0.171745 0.050869
v 0.150938 -0.981145 0.149870
v -0.149052 -0.981145 0.149870
v 0.150938 -0.981145 -0.150131
v -0.172372 -0.154465 -0.046631
v -0.172372 -0.154465 -0.046631
v -0.149052 -0.171745 -0.051229
v -0.172372 -0.154465 -0.046631
v -0.161602 -0.143695 -0.094030
v -0.161602 -0.143695 -0.094030
v -0.149052 -0.178475 -0.000130
v -0.149052 -0.171745 -0.051229
v -0.149052 -0.981145 -0.150131
v -0.149052 -0.152035 -0.098831
v -0.149052 -0.152035 -0.098831
v -0.149052 -0.131145 -0.126030
v -0.161602 -0.143695 -0.094030
v 0.154038 0.143855 -0.153231
v 0.144158 0.162065 -0.143330
v 0.154038 0.143855 -0.153231
v 0.109198 0.143855 -0.187630
v 0.154038 0.143855 -0.153231
v 0.163498 0.181395 -0.094030
v 0.163488 0.181405 -0.094030
v -0.055092 0.143855 -0.209330
v 0.000948 0.143855 -0.216631
v 0.000948 0.083555 -0.241631
v 0.000948 0.143855 -0.216631
v 0.000948 0.195625 -0.176929
v 0.000948 0.195625 -0.176929
v 0.048148 0.188345 -0.176331
v 0.065648 0.195635 -0.163031
v 0.056978 0.143855 -0.209330
v 0.095558 0.179395 -0.164030
v 0.095558 0.179395 -0.164030
v 0.125948 0.187575 -0.132931
v 0.109198 0.143855 -0.187630
v -0.046262 0.188345 -0.176331
v 0.125948 0.018855 -0.216631
v 0.125948 0.018855 -0.216631
v 0.121688 -0.045855 -0.209330
v 0.065648 0.018855 -0.241631
v 0.171698 0.083555 -0.170931
v 0.121688 0.083555 -0.209330
v 0.154038 0.143855 -0.153231
v 0.171698 0.083555 -0.170931
v 0.121688 0.083555 -0.209330
v 0.177718 0.018855 -0.176929
v 0.177718 0.018855 -0.176929
v 0.171698 -0.045855 -0.170931
v 0.121688 -0.045855 -0.209330
v 0.171698 -0.045855 -0.170931
v 0.177718 0.018855 -0.176929
v 0.177718 0.018855 -0.176929
v 0.000948 0.083555 -0.241631
v 0.056978 0.143855 -0.209330
v 0.063448 0.083555 -0.233431
v 0.063448 0.083555 -0.233431
v -0.093672 0.179395 -0.164030
v -0.124052 0.187575 -0.132830
v -0.093672 0.179395 -0.164030
v -0.107312 0.143855 -0.187630
v -0.142272 0.162065 -0.143330
v -0.142272 0.162065 -0.143330
v -0.063762 0.195625 -0.163031
v -0.063762 0.195625 -0.163031
v -0.046262 0.188345 -0.176331
v -0.119802 0.083555 -0.209330
v -0.107312 0.143855 -0.187630
v -0.061552 0.083555 -0.233431
v -0.152152 0.143855 -0.153231
v -0.169812 0.083555 -0.170931
v -0.119802 0.083555 -0.209330
v -0.124052 0.018855 -0.216631
v -0.061552 0.083555 -0.233431
v -0.063762 0.018855 -0.241631
v 0.000948 0.018855 -0.250130
v 0.000948 0.018855 -0.250130
v 0.000948 0.018855 -0.250130
v 0.171698 -0.045855 -0.170931
v 0.154038 -0.106145 -0.153231
v 0.000948 0.018855 -0.250130
v -0.063762 0.018855 -0.241631
v 0.000948 -0.045855 -0.241631
v 0.063448 -0.045855 -0.233431
v -0.061552 -0.045855 -0.233431
v 0.065648 0.018855 -0.241631
v 0.056978 -0.106145 -0.209330
v 0.063448 -0.045855 -0.233431
v 0.056978 -0.106145 -0.209330
v 0.109198 -0.106145 -0.187630
v 0.109198 -0.106145 -0.187630
v 0.095558 -0.141695 -0.164030
v 0.154038 -0.106145 -0.153231
v -0.124052 0.018855 -0.216631
v -0.175832 0.018855 -0.176929
v -0.119792 -0.045855 -0.209330
v -0.169812 -0.045855 -0.170931
v -0.119792 -0.045855 -0.209330
v -0.107312 -0.106145 -0.187630
v -0.124052 -0.106145 -0.174829
v -0.061552 -0.045855 -0.233431
v -0.055092 -0.106145 -0.209330
v 0.000948 -0.045855 -0.241631
v -0.055092 -0.106145 -0.209330
v 0.000948 -0.106145 -0.216631
v 0.000948 -0.106145 -0.216631
v -0.142272 0.162065 -0.143330
v -0.152152 0.143855 -0.153231
v -0.152152 0.143855 -0.153231
v -0.169812 0.083555 -0.170931
v -0.169812 0.083555 -0.170931
v -0.175832 0.018855 -0.176929
v -0.175832 0.018855 -0.176929
v -0.175832 0.018855 -0.176929
v -0.169812 -0.045855 -0.170931
v -0.169812 -0.045855 -0.170931
v -0.169812 -0.045855 -0.170931
v -0.152152 -0.106145 -0.153231
v -0.152152 -0.106145 -0.153231
v -0.149052 -0.981145 -0.150131
v 0.150938 -0.981145 -0.150131
v -0.149052 -0.981145 -0.150131
v 0.000948 -0.178475 -0.150131
v 0.150938 -0.111845 -0.150131
v 0.150938 -0.111845 -0.150131
v 0.150938 -0.111845 -0.150131
v 0.150938 -0.111845 -0.150131
v 0.109098 -0.145335 -0.150131
v 0.150938 -0.111845 -0.150131
v 0.109098 -0.145335 -0.150131
v 0.065648 -0.167825 -0.150131
v 0.000948 -0.157925 -0.176929
v 0.048148 -0.150635 -0.176331
v 0.000948 -0.178475 -0.150131
v 0.048148 -0.150635 -0.176331
v 0.000948 -0.157925 -0.176929
v 0.000948 -0.157925 -0.176929
v 0.000948 -0.157925 -0.176929
v 0.065648 -0.157925 -0.163031
v 0.065648 -0.157925 -0.163031
v 0.095558 -0.141695 -0.164030
v 0.065648 -0.167825 -0.150131
v 0.109098 -0.145335 -0.150131
v -0.046262 -0.150635 -0.176331
v -0.107312 -0.106145 -0.187630
v -0.093672 -0.141686 -0.164030
v -0.107212 -0.145335 -0.150131
v -0.107212 -0.145335 -0.150131
v -0.093672 -0.141686 -0.164030
v -0.063762 -0.167825 -0.150131
v -0.149052 -0.111845 -0.150131
v -0.107212 -0.145335 -0.150131
v -0.124052 -0.137915 -0.150131
v -0.149052 -0.111845 -0.150131
v -0.046262 -0.150635 -0.176331
v -0.063762 -0.157925 -0.163031
v -0.063762 -0.157925 -0.163031
v -0.063762 -0.167825 -0.150131
v -0.149052 -0.111845 -0.150131
v -0.149052 -0.131145 -0.126030
v -0.149052 -0.111845 -0.150131
v -0.152152 -0.106145 -0.153231
v -0.149052 -0.111845 -0.150131
v -0.149052 -0.111845 -0.150131
v -0.149052 -0.131145 -0.126030
v -0.175832 0.018855 0.176569
vn 0.7476 0.5037 0.4328
vn 0.5774 0.5774 0.5773
vn 0.6116 0.5018 0.6116
vn 0.6545 0.6545 0.3786
vn 0.8368 0.2606 0.4816
vn 0.6116 0.5019 0.6116
vn 0.5774 0.5773 0.5773
vn -0.0000 -0.0000 1.0000
vn 0.6830 0.2591 0.6829
vn 0.5041 0.6774 0.5357
vn 0.5037 0.7476 0.4328
vn 0.5773 0.5774 0.5774
vn 0.4329 0.5037 0.7476
vn 0.3785 0.6466 0.6623
vn 0.2605 0.8368 0.4816
vn 0.4328 0.5037 0.7476
vn 0.4329 0.5036 0.7477
vn 0.4815 0.2605 0.8368
vn 0.1893 0.6784 0.7099
vn 0.2602 0.7098 0.6546
vn 0.2603 0.7098 0.6546
vn 0.1893 0.6783 0.7099
vn 0.2206 0.5042 0.8350
vn -0.0000 0.5029 0.8643
vn 0.2206 0.5041 0.8350
vn -0.0000 0.2591 0.9659
vn -0.0000 0.7071 0.7071
vn -0.0000 0.8643 0.5029
vn -0.0001 0.8643 0.5030
vn 0.2205 0.5041 0.8350
vn -0.0000 0.5029 0.8644
vn -0.0000 0.2591 0.9658
vn 0.7071 0.0001 0.7071
vn 0.6830 0.2590 0.6829
vn 0.6830 0.2590 0.6830
vn 0.7071 -0.0000 0.7071
vn 0.8643 -0.0000 0.5029
vn 0.6830 -0.2590 0.6829
vn 0.6830 -0.2591 0.6829
vn 0.5029 -0.0000 0.8643
vn 0.6829 0.2590 0.6830
vn 0.4816 0.2605 0.8368
vn 0.6830 -0.2590 0.6830
vn 0.2527 0.2606 0.9318
vn 0.5029 0.0001 0.8643
vn 0.4816 -0.2605 0.8368
vn 0.2526 0.2606 0.9318
vn 0.2527 0.2605 0.9318
vn 0.2592 -0.0000 0.9658
vn 0.2591 -0.0000 0.9658
vn 0.2591 -0.0000 0.9659
vn -0.0000 0.2592 0.9658
vn -0.2206 0.5041 0.8350
vn 0.7071 0.7071 -0.0000
vn 0.8677 0.4970 -0.0000
vn 0.6943 0.6943 -0.1893
vn 0.8678 0.4970 -0.0000
vn -0.0000 -0.0000 -1.0000
vn 0.7072 0.7070 -0.0000
vn 0.8350 0.5041 0.2206
vn 0.6944 0.6943 0.1893
vn 0.6943 0.6943 0.1893
vn 0.8350 0.5042 0.2205
vn 0.9318 0.2605 0.2527
vn 0.8383 0.4982 0.2215
vn 0.8678 0.4970 0.0001
vn 0.8383 0.4982 0.2214
vn 0.9658 0.2592 -0.0000
vn 0.9318 0.2606 0.2527
vn 0.6953 0.6933 0.1894
vn 0.7071 0.7071 -0.0001
vn 0.7505 0.4978 0.4346
vn 0.6545 0.6545 0.3785
vn 0.7506 0.4978 0.4345
vn 0.7506 0.4977 0.4346
vn 0.7476 0.5037 0.4329
vn 0.8368 0.2605 0.4816
vn 0.6942 0.6944 0.1894
vn 0.5029 0.8643 -0.0000
vn 0.5042 0.8350 0.2206
vn 0.6943 0.6943 0.1894
vn 0.4970 0.8678 -0.0000
vn 0.5037 0.7476 0.4329
vn 0.1893 -0.6784 -0.7099
vn 0.2590 -0.7535 -0.6043
vn -0.0000 -0.7952 -0.6063
vn -0.2214 -0.4983 -0.8383
vn -0.0000 -0.5029 -0.8643
vn -0.1893 -0.6783 -0.7099
vn 0.2592 0.9658 -0.0000
vn 0.2591 0.9659 -0.0000
vn 0.0001 1.0000 -0.0000
vn 0.2591 0.9658 -0.0000
vn -0.0000 1.0000 -0.0000
vn 0.2606 0.9318 0.2527
vn -0.0000 0.9659 0.2591
vn -0.0000 0.8678 0.4970
vn -0.0000 0.9658 0.2592
vn 0.0001 0.9658 0.2591
vn 0.2590 0.9659 -0.0000
vn 0.5041 0.8350 0.2206
vn 0.5036 0.7477 0.4328
vn 0.2605 0.8368 0.4815
vn 0.0001 0.8643 0.5029
vn 0.5036 0.7477 0.4329
vn -0.0001 0.9659 0.2591
vn -0.0000 0.8677 0.4970
vn -0.2605 0.8368 0.4816
vn 0.5041 0.8350 -0.2205
vn 0.6943 0.6944 -0.1893
vn 0.6943 0.6943 -0.1894
vn 0.9658 0.2591 -0.0000
vn 1.0000 -0.0000 -0.0001
vn 0.9658 -0.0000 0.2591
vn 1.0000 -0.0000 -0.0000
vn 0.8350 0.5041 -0.2206
vn -0.1893 0.6784 0.7099
vn -0.1893 0.6783 0.7099
vn -0.2603 0.7098 0.6546
vn -0.4329 0.5037 0.7476
vn -0.2206 0.5042 0.8350
vn -0.2526 0.2606 0.9318
vn -0.4328 0.5037 0.7476
vn -0.3785 0.6466 0.6623
vn -0.5041 0.6774 0.5357
vn -0.3786 0.6465 0.6623
vn -0.4329 0.5036 0.7477
vn -0.2527 0.2606 0.9318
vn -0.5774 0.5774 0.5773
vn -0.5037 0.7476 0.4329
vn -0.5773 0.5774 0.5774
vn -0.6545 0.6545 0.3785
vn -0.2591 -0.0000 0.9658
vn -0.4816 0.2605 0.8368
vn -0.4815 0.2605 0.8368
vn -0.2592 -0.0000 0.9658
vn -0.6116 0.5018 0.6117
vn -0.6829 0.2591 0.6830
vn -0.4970 0.8678 -0.0000
vn -0.5041 0.8350 0.2205
vn -0.2592 0.9658 -0.0000
vn -0.5042 0.8350 0.2206
vn -0.4970 0.8677 -0.0000
vn -0.6943 0.6943 0.1894
vn -0.2591 0.9659 -0.0000
vn -0.0001 1.0000 -0.0000
vn -0.2591 0.9658 -0.0001
vn -0.2606 0.9318 0.2527
vn -0.4969 0.8678 -0.0000
vn -0.5041 0.8350 0.2206
vn -0.4982 0.8383 0.2214
vn -0.4983 0.8383 0.2214
vn -0.2590 0.9659 -0.0000
vn -0.2591 0.9658 -0.0000
vn -0.2605 0.9318 0.2527
vn -0.0000 0.9658 -0.2591
vn -0.4982 0.8383 0.2215
vn -0.5037 0.7477 0.4328
vn -0.5036 0.7476 0.4329
vn -0.2605 0.8368 0.4815
vn -0.0000 0.9658 0.2591
vn -0.5041 0.8350 -0.2206
vn -0.6943 0.6943 -0.1894
vn -0.4971 0.8677 -0.0000
vn -0.7071 0.7071 -0.0000
vn 0.8368 -0.2605 0.4816
vn 0.6830 -0.2591 0.6830
vn 0.6117 -0.5018 0.6116
vn 0.6140 -0.4960 0.6140
vn 0.4970 -0.0000 0.8678
vn 0.4815 -0.2605 0.8368
vn 0.2205 -0.5042 0.8350
vn 0.4346 -0.4978 0.7506
vn 0.4346 -0.4977 0.7506
vn 0.6140 -0.4959 0.6140
vn 0.4329 -0.5037 0.7476
vn 0.2527 -0.2606 0.9318
vn 0.2206 -0.5041 0.8350
vn -0.0000 -0.2591 0.9659
vn 0.2527 -0.2605 0.9318
vn 0.2206 -0.5042 0.8350
vn 0.2214 -0.4982 0.8383
vn -0.0000 -0.5029 0.8644
vn 0.4328 -0.5036 0.7477
vn 0.4815 -0.2606 0.8368
vn -0.0000 -0.2592 0.9658
vn -0.0000 -0.2591 0.9658
vn -0.0000 -0.4970 0.8677
vn 0.9658 -0.0000 0.2592
vn 1.0000 0.0001 -0.0000
vn 0.9318 -0.2606 0.2527
vn 0.8368 -0.2605 0.4815
vn 0.9659 -0.2591 -0.0001
vn 0.9659 -0.2591 -0.0000
vn 0.8350 -0.5041 0.2205
vn 0.8350 -0.5041 0.2206
vn 0.7477 -0.5037 0.4328
vn 0.8643 -0.0001 0.5029
vn 0.8368 -0.2604 0.4816
vn 0.8677 -0.0000 0.4970
vn 0.9658 0.0001 0.2592
vn 0.8678 -0.0000 0.4970
vn 0.8368 -0.2606 0.4815
vn 0.8368 -0.2606 0.4816
vn 0.7476 -0.5037 0.4329
vn 0.8349 -0.5042 0.2206
vn 1.0000 -0.0001 -0.0000
vn 0.9659 -0.2590 -0.0000
vn -0.2527 -0.2606 0.9318
vn -0.0000 -0.4970 0.8678
vn -0.0000 -0.7071 0.7071
vn -0.1893 -0.6783 0.7099
vn 0.1893 -0.6783 0.7099
vn -0.2527 -0.2605 0.9318
vn -0.4815 -0.2605 0.8368
vn -0.4815 -0.2606 0.8368
vn -0.2215 -0.4982 0.8383
vn -0.2591 -0.0000 0.9659
vn -0.4970 -0.0000 0.8678
vn -0.4346 -0.4978 0.7506
vn -0.1894 -0.6784 0.7099
vn -0.2214 -0.4982 0.8383
vn -0.4816 -0.2605 0.8368
vn -0.3785 -0.6466 0.6624
vn -0.4970 -0.0001 0.8678
vn 0.6545 0.6545 -0.3785
vn 0.7476 0.5037 -0.4328
vn 0.5774 0.5774 -0.5773
vn 0.8350 0.5042 -0.2206
vn 0.6953 0.6933 -0.1893
vn 0.6944 0.6943 -0.1894
vn 0.6953 0.6933 -0.1894
vn 0.5037 0.7476 -0.4328
vn 0.5041 0.8350 -0.2206
vn 0.2606 0.9318 -0.2527
vn 0.5042 0.8350 -0.2206
vn -0.0000 0.8677 -0.4971
vn -0.0001 0.9658 -0.2592
vn -0.0000 0.8678 -0.4969
vn -0.2605 0.8368 -0.4815
vn -0.0000 0.7071 -0.7071
vn -0.0000 0.8678 -0.4970
vn 0.1893 0.6784 -0.7099
vn -0.0001 0.8677 -0.4970
vn 0.2605 0.8368 -0.4816
vn 0.2603 0.7098 -0.6546
vn 0.2604 0.8368 -0.4815
vn 0.2605 0.9318 -0.2527
vn 0.4977 0.7506 -0.4347
vn 0.4977 0.7506 -0.4345
vn 0.4978 0.7506 -0.4346
vn 0.5041 0.6774 -0.5357
vn 0.5037 0.7476 -0.4329
vn 0.5042 0.6774 -0.5357
vn 0.2607 0.9318 -0.2527
vn 0.2605 0.8368 -0.4815
vn 0.2592 -0.0000 -0.9658
vn 0.4815 -0.2605 -0.8368
vn 0.2527 -0.2605 -0.9318
vn -0.4970 -0.0000 -0.8678
vn -0.6830 -0.2590 -0.6830
vn -0.7071 -0.0000 -0.7071
vn -0.0000 0.9658 -0.2592
vn -0.0000 0.8677 -0.4970
vn -0.0001 0.9659 -0.2591
vn -0.2606 0.9318 -0.2527
vn 0.9658 -0.2591 -0.0000
vn 0.9659 0.2591 -0.0000
vn 0.9318 0.2606 -0.2527
vn 0.9658 0.2591 -0.0001
vn 0.7476 0.5037 -0.4329
vn 0.8350 0.5041 -0.2205
vn 0.7506 0.4978 -0.4345
vn 0.8368 0.2605 -0.4816
vn 0.8368 0.2605 -0.4815
vn 0.7506 0.4977 -0.4345
vn 0.8644 -0.0000 -0.5029
vn 0.6831 0.2590 -0.6829
vn 0.6830 0.2590 -0.6829
vn 0.8643 -0.0000 -0.5029
vn 0.8368 0.2604 -0.4815
vn 0.6830 0.2591 -0.6829
vn 0.8643 -0.0000 -0.5030
vn 0.9318 0.2605 -0.2527
vn 0.8383 0.4982 -0.2215
vn 0.7505 0.4978 -0.4347
vn 0.9658 -0.0000 -0.2591
vn 0.9318 0.2606 -0.2528
vn 0.9659 0.2590 -0.0000
vn 0.9658 0.0001 -0.2592
vn 0.9658 -0.0000 -0.2592
vn -0.5036 0.7476 -0.4329
vn -0.2605 0.8368 -0.4816
vn -0.5041 0.6775 -0.5357
vn -0.4816 0.2605 -0.8368
vn -0.5029 -0.0000 -0.8643
vn -0.6829 0.2590 -0.6830
vn -0.0000 0.2591 -0.9659
vn 0.2527 0.2606 -0.9318
vn -0.5037 0.7477 -0.4328
vn -0.2605 0.9318 -0.2527
vn 0.9658 -0.2592 -0.0000
vn 0.8678 -0.4970 -0.0000
vn 0.8383 -0.4982 -0.2214
vn 0.8368 -0.2605 -0.4816
vn 0.6830 -0.2590 -0.6829
vn 0.8368 -0.2605 -0.4815
vn 0.6831 -0.2590 -0.6829
vn 0.7506 -0.4978 -0.4346
vn 0.9318 -0.2606 -0.2527
vn 0.6140 -0.4959 -0.6140
vn 0.6830 -0.2591 -0.6829
vn 0.8383 -0.4983 -0.2214
vn 0.8383 -0.4982 -0.2215
vn 0.6545 -0.6545 -0.3785
vn 0.9318 -0.2606 -0.2528
vn 0.8383 -0.4983 -0.2215
vn 0.6944 -0.6942 -0.1894
vn 0.6944 -0.6943 -0.1893
vn 0.8677 -0.4970 -0.0000
vn 0.6944 -0.6942 -0.1893
vn -0.6116 0.5018 0.6116
vn -0.5774 0.5773 0.5773
vn -0.6116 0.5019 0.6116
vn -0.6830 0.2590 0.6829
vn -0.5029 -0.0000 0.8643
vn -0.6830 0.2591 0.6829
vn -0.8368 0.2605 0.4815
vn -0.8368 0.2604 0.4815
vn -0.7071 0.0001 0.7071
vn -0.7071 -0.0000 0.7071
vn -0.6830 -0.2591 0.6830
vn -0.8677 -0.0000 0.4970
vn -0.6830 0.2590 0.6830
vn -0.6830 -0.2590 0.6829
vn -0.7476 0.5036 0.4329
vn -0.6544 0.6545 0.3786
vn -0.7476 0.5037 0.4329
vn -0.7476 0.5037 0.4328
vn -0.8350 0.5042 0.2205
vn -0.6943 0.6943 0.1893
vn -0.8643 0.5029 -0.0000
vn -0.8350 0.5042 0.2206
vn -0.8350 0.5041 0.2206
vn -0.8643 0.5030 -0.0001
vn -0.6943 0.6944 0.1893
vn -0.9318 0.2606 0.2527
vn -0.8368 0.2605 0.4816
vn -0.8368 0.2604 0.4816
vn -0.8677 0.0001 0.4970
vn -0.9658 -0.0001 0.2592
vn -0.9658 0.2592 -0.0000
vn -0.9658 -0.0000 0.2592
vn -0.9659 0.2590 -0.0000
vn -0.9658 0.0001 0.2591
vn -0.8678 -0.0000 0.4970
vn -1.0000 -0.0001 -0.0001
vn -0.9318 -0.2606 0.2527
vn -1.0000 -0.0000 -0.0000
vn -0.9659 0.2591 -0.0000
vn -0.9659 0.0001 0.2591
vn -0.9659 -0.0000 0.2591
vn -0.6830 -0.2591 0.6829
vn -0.6116 -0.5018 0.6116
vn -0.7071 -0.0001 0.7071
vn -0.8368 -0.2605 0.4816
vn -0.7011 -0.5042 0.5042
vn -0.7476 -0.5037 0.4329
vn -0.7476 -0.5036 0.4329
vn -0.7477 -0.5036 0.4328
vn -0.9659 -0.2590 -0.0000
vn -0.8383 -0.4982 0.2214
vn -0.9658 -0.2592 -0.0000
vn -0.9659 -0.2591 -0.0000
vn -1.0000 -0.0001 -0.0000
vn -0.9658 -0.2591 -0.0000
vn -0.9658 -0.2591 -0.0001
vn -0.8383 -0.4983 0.2214
vn -0.8677 -0.4970 -0.0000
vn -0.6943 -0.6943 0.1893
vn -0.8678 -0.4970 0.0001
vn -0.8382 -0.4983 0.2214
vn -0.8383 -0.4982 -0.2214
vn -0.8678 -0.4970 -0.0000
vn -0.9318 -0.2606 -0.2527
vn -0.6943 0.6943 -0.1893
vn -0.6933 0.6953 0.1894
vn -0.9659 0.2591 -0.0001
vn -0.8350 0.5042 -0.2206
vn -0.6545 0.6545 -0.3785
vn -0.6943 0.6944 -0.1894
vn -0.6545 0.6545 -0.3786
vn -0.6544 0.6545 -0.3786
vn -0.5036 0.7477 -0.4329
vn -0.6944 0.6943 -0.1894
vn -0.8350 0.5041 -0.2206
vn -0.7477 0.5036 -0.4328
vn -0.9318 0.2606 -0.2527
vn -0.7476 0.5036 -0.4329
vn -0.5037 0.7476 -0.4328
vn -0.5037 0.7476 -0.4329
vn -0.5042 0.6774 -0.5356
vn -0.6942 0.6944 -0.1894
vn -0.8382 0.4983 -0.2215
vn -0.8678 0.4970 -0.0000
vn -0.9658 0.2591 -0.0000
vn -0.9658 0.2591 -0.0001
vn -0.8678 0.4969 -0.0000
vn -0.8383 0.4982 -0.2214
vn -0.9658 -0.0000 -0.2592
vn -0.9318 0.2605 -0.2527
vn -0.8383 0.4983 -0.2215
vn -0.8643 0.5030 -0.0000
vn -0.8383 0.4982 -0.2215
vn -0.9318 0.2607 -0.2527
vn -0.8368 0.2605 -0.4816
vn -0.9658 -0.0000 -0.2591
vn -0.9659 -0.0000 -0.2591
vn -0.7476 0.5037 -0.4329
vn -0.8368 0.2605 -0.4815
vn -0.6831 0.2590 -0.6829
vn -0.8644 -0.0000 -0.5029
vn -0.6141 0.4959 -0.6140
vn -0.6830 0.2591 -0.6829
vn -0.8383 -0.4983 -0.2214
vn -0.9318 -0.2606 -0.2528
vn -0.6943 -0.6943 -0.1893
vn -0.6944 -0.6942 -0.1893
vn -0.8368 -0.2606 -0.4815
vn -0.7506 -0.4978 -0.4346
vn -0.8368 -0.2605 -0.4816
vn -0.9318 -0.2605 -0.2527
vn -0.8368 -0.2605 -0.4815
vn -0.7506 -0.4977 -0.4345
vn -0.8383 -0.4982 -0.2215
vn -0.6545 -0.6545 -0.3785
vn -0.7506 -0.4977 -0.4346
vn -0.6115 -0.5019 -0.6117
vn -0.7476 -0.5037 -0.4329
vn -0.6117 -0.5018 -0.6116
vn -0.8368 -0.2606 -0.4816
vn 0.6001 -0.5290 0.6000
vn 0.6116 -0.5019 0.6116
vn 0.7476 -0.5036 0.4329
vn 1.0000 -0.0000 0.0001
vn 0.6072 -0.6072 0.5125
vn 0.6545 -0.6545 0.3785
vn 0.6072 -0.6072 0.5126
vn 0.6000 -0.5290 0.6001
vn 0.4328 -0.5037 0.7476
vn 0.6036 -0.6898 0.3998
vn 0.3785 -0.6466 0.6623
vn 0.4411 -0.6616 0.6065
vn 0.4410 -0.6616 0.6064
vn 0.2590 -0.7535 0.6043
vn 0.1893 -0.6784 0.7099
vn 0.2603 -0.7098 0.6546
vn 0.2602 -0.7098 0.6546
vn -0.0000 -0.7952 0.6063
vn 0.8643 -0.5029 -0.0000
vn 0.8350 -0.5042 0.2206
vn 0.6943 -0.6943 0.1894
vn 0.8678 -0.4970 0.0001
vn 0.7072 -0.7070 -0.0000
vn 0.7071 -0.7071 -0.0000
vn 0.6048 -0.7697 0.2042
vn 0.8644 -0.5029 -0.0000
vn 0.6063 -0.7952 -0.0000
vn -0.1893 -0.6784 0.7099
vn -0.0001 -0.7071 0.7071
vn -0.2602 -0.7098 0.6545
vn -0.3785 -0.6466 0.6623
vn -0.2590 -0.7535 0.6043
vn -0.2603 -0.7098 0.6546
vn -0.4346 -0.4978 0.7505
vn -0.6116 -0.5019 0.6116
vn -0.4328 -0.5037 0.7476
vn -0.3786 -0.6465 0.6623
vn -0.4410 -0.6616 0.6064
vn -0.4411 -0.6616 0.6065
vn -0.4329 -0.5037 0.7476
vn -0.6000 -0.5290 0.6001
vn 0.7505 -0.4978 -0.4346
vn 0.7476 -0.5037 -0.4329
vn 0.6116 -0.5019 -0.6116
vn 0.7476 -0.5037 -0.4328
vn 0.6001 -0.5290 -0.6000
vn 0.7477 -0.5036 -0.4328
vn 0.6072 -0.6072 -0.5125
vn 0.6545 -0.6545 -0.3786
vn 0.6943 -0.6944 -0.1894
vn 0.6943 -0.6943 -0.1894
vn 0.6036 -0.6898 -0.3998
vn 0.6943 -0.6943 0.1893
vn 0.6943 -0.6943 -0.1893
vn 0.6048 -0.7698 -0.2042
vn -0.6001 -0.5290 0.6000
vn -0.6117 -0.5018 0.6116
vn -0.7476 -0.5037 0.4328
vn -0.6072 -0.6072 0.5125
vn -0.8350 -0.5041 0.2205
vn -0.7011 -0.5041 0.5042
vn -0.6545 -0.6545 0.3785
vn -0.8350 -0.5042 0.2206
vn -0.6545 -0.6545 0.3786
vn -0.6942 -0.6944 0.1894
vn -0.6544 -0.6546 0.3785
vn -0.6074 -0.6069 0.5126
vn -0.6036 -0.6898 0.3998
vn -0.6944 -0.6942 0.1894
vn -0.8350 -0.5041 0.2206
vn -0.6944 -0.6943 0.1893
vn -0.6943 -0.6943 0.1894
vn -0.6062 -0.7953 0.0001
vn -0.7072 -0.7070 -0.0000
vn -0.8677 -0.4971 -0.0000
vn -0.7071 -0.7071 -0.0000
vn -0.6048 -0.7697 0.2042
vn -0.6063 -0.7953 -0.0000
vn -0.6063 -0.7952 -0.0000
vn -0.0000 -1.0000 -0.0000
vn -0.6943 -0.6943 -0.1894
vn -0.6047 -0.7698 -0.2042
vn -0.7070 -0.7072 -0.0000
vn -0.6048 -0.7697 -0.2042
vn -0.6942 -0.6944 -0.1894
vn -0.6048 -0.7698 -0.2042
vn -0.6036 -0.6898 -0.3998
vn -0.6072 -0.6072 -0.5125
vn -0.6072 -0.6071 -0.5126
vn -0.6545 -0.6544 -0.3786
vn 0.6116 0.5018 -0.6116
vn 0.5773 0.5773 -0.5774
vn 0.6116 0.5019 -0.6116
vn 0.4328 0.5037 -0.7476
vn 0.5042 0.6774 -0.5356
vn -0.2205 0.5041 -0.8350
vn -0.0000 0.4969 -0.8678
vn -0.0000 0.2591 -0.9658
vn -0.0000 0.4970 -0.8678
vn -0.2206 0.5041 -0.8350
vn -0.0001 0.7071 -0.7071
vn -0.0000 0.5029 -0.8643
vn 0.1893 0.6783 -0.7099
vn 0.2214 0.4982 -0.8383
vn 0.3785 0.6466 -0.6623
vn 0.3785 0.6466 -0.6624
vn 0.3784 0.6466 -0.6624
vn 0.4345 0.4978 -0.7506
vn -0.1893 0.6784 -0.7099
vn 0.5029 -0.0000 -0.8643
vn 0.4816 -0.2605 -0.8368
vn 0.4969 -0.0000 -0.8678
vn 0.2591 -0.0000 -0.9658
vn 0.6116 0.5018 -0.6117
vn 0.6829 0.2591 -0.6830
vn 0.4815 0.2605 -0.8368
vn 0.4816 0.2605 -0.8368
vn 0.6830 0.2590 -0.6830
vn 0.7071 -0.0000 -0.7071
vn 0.5029 -0.0000 -0.8644
vn 0.6829 -0.2590 -0.6830
vn 0.8643 0.0001 -0.5029
vn -0.0000 0.2592 -0.9658
vn 0.2215 0.4983 -0.8383
vn 0.2215 0.4982 -0.8383
vn 0.4346 0.4978 -0.7506
vn 0.2527 0.2605 -0.9318
vn 0.2526 0.2606 -0.9318
vn 0.5029 0.0001 -0.8644
vn -0.3785 0.6466 -0.6623
vn -0.5041 0.6774 -0.5357
vn -0.4328 0.5037 -0.7476
vn -0.2206 0.5042 -0.8350
vn -0.5774 0.5774 -0.5773
vn -0.5773 0.5773 -0.5774
vn -0.2603 0.7098 -0.6546
vn -0.1893 0.6783 -0.7099
vn -0.6001 -0.5290 -0.6000
vn -0.0000 0.2590 -0.9659
vn -0.4815 0.2606 -0.8368
vn -0.4345 0.4978 -0.7506
vn -0.2527 0.2606 -0.9318
vn -0.4346 0.4978 -0.7506
vn -0.6140 0.4959 -0.6140
vn -0.6830 0.2591 -0.6830
vn -0.4815 0.2605 -0.8368
vn -0.4816 0.2606 -0.8368
vn -0.5029 -0.0000 -0.8644
vn -0.2527 0.2605 -0.9318
vn -0.2591 -0.0000 -0.9658
vn -0.2590 -0.0000 -0.9659
vn 0.6830 -0.2591 -0.6830
vn 0.6140 -0.4959 -0.6141
vn -0.0000 -0.2591 -0.9658
vn 0.2527 -0.2606 -0.9318
vn -0.2527 -0.2606 -0.9318
vn 0.2591 -0.0000 -0.9659
vn 0.2590 -0.0000 -0.9659
vn 0.2206 -0.5041 -0.8350
vn 0.4816 -0.2606 -0.8368
vn 0.2215 -0.4982 -0.8383
vn 0.4346 -0.4977 -0.7506
vn 0.2206 -0.5042 -0.8349
vn 0.4970 -0.0000 -0.8678
vn 0.4346 -0.4978 -0.7505
vn 0.3785 -0.6466 -0.6623
vn 0.4346 -0.4978 -0.7506
vn 0.5029 -0.0001 -0.8644
vn 0.2214 -0.4982 -0.8383
vn 0.4345 -0.4978 -0.7506
vn -0.4970 -0.0000 -0.8677
vn -0.7071 -0.0001 -0.7071
vn -0.4815 -0.2605 -0.8368
vn -0.4328 -0.5037 -0.7476
vn -0.4816 -0.2605 -0.8368
vn -0.6830 -0.2590 -0.6829
vn -0.4329 -0.5036 -0.7476
vn -0.5042 -0.5041 -0.7011
vn -0.2591 -0.0000 -0.9659
vn -0.4328 -0.5036 -0.7477
vn -0.2526 -0.2606 -0.9318
vn -0.2214 -0.4982 -0.8383
vn -0.0000 -0.2592 -0.9658
vn -0.4329 -0.5037 -0.7476
vn -0.2206 -0.5042 -0.8349
vn -0.2215 -0.4982 -0.8383
vn -0.0000 -0.2590 -0.9659
vn -0.0000 -0.5028 -0.8644
vn -0.0000 -0.2591 -0.9659
vn -0.0000 -0.5029 -0.8644
vn -0.7476 0.5037 -0.4328
vn -0.6116 0.5018 -0.6116
vn -0.5774 0.5773 -0.5774
vn -0.6117 0.5018 -0.6116
vn -0.6830 0.2590 -0.6829
vn -0.6830 0.2590 -0.6830
vn -0.8643 -0.0000 -0.5029
vn -0.8643 -0.0000 -0.5030
vn -0.8368 -0.2604 -0.4815
vn -0.9658 -0.0001 -0.2592
vn -0.6830 -0.2591 -0.6829
vn -0.6140 -0.4959 -0.6140
vn -0.6829 -0.2591 -0.6830
vn 0.6001 -0.5290 -0.6001
vn 0.6000 -0.5290 -0.6001
vn 0.4411 -0.6616 -0.6064
vn -0.0000 -0.7071 -0.7071
vn 0.0001 -0.7953 -0.6063
vn 0.2603 -0.7098 -0.6546
vn 0.3785 -0.6466 -0.6624
vn 0.4410 -0.6616 -0.6064
vn -0.0000 -0.7953 -0.6063
vn -0.1893 -0.6784 -0.7099
vn -0.5042 -0.5043 -0.7011
vn -0.3785 -0.6466 -0.6623
vn -0.2206 -0.5042 -0.8350
vn -0.4411 -0.6616 -0.6065
vn -0.4410 -0.6616 -0.6064
vn -0.2590 -0.7535 -0.6043
vn -0.5042 -0.5042 -0.7011
vn -0.6000 -0.5290 -0.6001
vn -0.2603 -0.7098 -0.6546
vn -0.2602 -0.7098 -0.6546
vn -0.0001 -0.0000 -1.0000
vn -0.6140 -0.4960 -0.6140
vn -0.6116 -0.5019 -0.6116
vn -0.6001 -0.5290 -0.6001
vn -0.6545 -0.6545 -0.3786
vn 0.6829 0.2591 0.6830
vn 0.3785 0.6466 0.6624
vn 0.8368 0.2605 0.4815
vn 0.8644 -0.0000 0.5029
vn 0.5029 -0.0000 0.8644
vn 0.6829 -0.2591 0.6830
vn 0.8368 0.2606 0.4815
vn -0.3785 0.6466 0.6624
vn -0.2606 0.9318 0.2526
vn 0.7476 -0.5037 0.4328
vn 0.6546 -0.6545 0.3785
vn 0.6830 0.2591 -0.6830
vn -0.8644 0.5029 -0.0000
vn -0.8383 -0.4982 0.2215
vt -1.334650 2.656340
vt -1.380100 2.680020
vt -1.392950 2.656340
vt -1.315930 2.705160
vt -1.350890 2.577960
vt -2.805380 2.656340
vt -2.818230 2.680020
vt -1.415900 2.577960
vt 2.234810 3.069260
vt 2.211140 3.082900
vt 2.234810 3.037450
vt -2.841900 2.713190
vt -2.863670 2.656340
vt 2.274310 3.109770
vt 2.313200 3.053690
vt -2.881400 2.702550
vt -2.847440 2.577960
vt 2.335950 3.125730
vt 2.313200 3.108500
vt -2.920290 2.723650
vt -2.943040 2.714180
vt -2.931560 2.656340
vt -3.004400 2.656340
vt -3.004400 2.577960
vt 2.397310 3.126530
vt 2.397310 3.059220
vt -3.004400 2.723650
vt -2.782420 2.577960
vt -2.774590 2.493840
vt -1.423730 2.493840
vt -1.356430 2.493840
vt -1.415900 2.409730
vt -2.841900 2.493840
vt -2.782420 2.409730
vt -2.923150 2.577960
vt -2.847440 2.409730
vt -2.920290 2.493840
vt -3.004400 2.493840
vt -3.077250 2.656340
vt -1.193930 2.723650
vt -1.193930 2.656340
vt -1.133550 2.719160
vt -1.266770 2.656340
vt -1.254300 2.719160
vt -1.275170 2.577960
vt -1.193930 2.577960
vt 2.172000 2.957100
vt 2.167500 2.896720
vt 2.186000 3.018730
vt 2.234810 2.896720
vt 2.234810 2.969570
vt -2.943040 2.667720
vt -2.920290 2.701720
vt -3.004400 2.701720
vt 2.470160 2.331340
vt 2.397310 2.331340
vt 2.458670 2.273510
vt 2.313200 2.896720
vt 2.397310 2.896720
vt 2.313200 2.977970
vt 2.397310 2.980840
vt 2.481430 3.053690
vt 2.234810 2.823880
vt 2.172000 2.836350
vt -1.193930 2.493840
vt -1.278040 2.493840
vt -1.121080 2.656340
vt 2.458680 3.125730
vt -3.065770 2.714180
vt -3.088520 2.723650
vt -3.145130 2.656340
vt -3.085650 2.577960
vt 2.481430 3.108500
vt -3.127410 2.702550
vt -3.166900 2.713190
vt 2.559810 3.069260
vt 2.520320 3.109770
vt 2.583490 3.082900
vt 2.559810 3.037450
vt -3.190580 2.680010
vt 2.608630 3.018720
vt -3.088520 2.493840
vt -3.161370 2.577960
vt -3.203420 2.656340
vt -3.226380 2.577960
vt 2.559810 2.896720
vt 2.559810 2.969570
vt 2.481430 2.896720
vt 2.622630 2.957100
vt 2.481430 2.977970
vt 2.397310 2.812610
vt 2.559810 2.823880
vt 2.622630 2.836350
vt 2.627120 2.896720
vt -1.350890 2.409730
vt -1.392950 2.331340
vt -2.931560 2.331340
vt -2.863670 2.331340
vt -2.805380 2.331340
vt -2.923150 2.409730
vt -3.004400 2.409730
vt -3.004400 2.331340
vt -1.275170 2.409730
vt -1.193930 2.409730
vt -1.193920 2.409730
vt -1.275180 2.409730
vt -1.266770 2.331340
vt -1.334650 2.331340
vt -1.356420 2.493840
vt -3.085650 2.409730
vt -3.004400 2.264030
vt -3.065760 2.273510
vt -2.943040 2.273510
vt -3.161370 2.409730
vt -3.077250 2.331340
vt -3.166900 2.493840
vt -3.145130 2.331340
vt -3.127410 2.285140
vt -1.071920 2.705150
vt -1.053200 2.656340
vt -1.007750 2.680010
vt 2.186000 2.774720
vt 2.234810 2.756000
vt 2.211130 2.710550
vt 2.313200 2.815470
vt 2.397310 2.734220
vt 2.481430 2.739760
vt 2.397310 2.666910
vt 2.335950 2.667720
vt 2.313200 2.739760
vt 2.313200 2.684950
vt 2.234810 2.724190
vt 2.313200 2.493840
vt 2.240350 2.409730
vt 2.316060 2.409730
vt 2.559810 2.493840
vt 2.619290 2.409730
vt 2.627120 2.493840
vt 2.481430 2.815470
vt -1.112680 2.577960
vt -1.036960 2.577960
vt -1.031430 2.493840
vt -0.971946 2.577960
vt -0.971947 2.577960
vt -1.031420 2.493840
vt -1.109810 2.493840
vt 2.559810 2.756000
vt 2.559810 2.724190
vt 2.554280 2.577960
vt 2.619290 2.577960
vt 2.397310 2.577960
vt 2.316060 2.577960
vt 2.397310 2.493840
vt -1.193920 2.331340
vt -1.121080 2.331340
vt -1.036960 2.409730
vt -0.971947 2.409730
vt -1.053200 2.331340
vt -1.112670 2.409730
vt -0.994904 2.331340
vt -1.112680 2.409730
vt -1.071920 2.282540
vt -1.133550 2.268530
vt 0.785857 2.656340
vt 0.773014 2.680010
vt 2.608630 3.018730
vt 0.808815 2.577960
vt 0.743797 2.577960
vt 0.743798 2.577960
vt -3.234210 2.493840
vt -3.226380 2.409730
vt 0.749336 2.493840
vt 0.816645 2.493840
vt 0.808814 2.409730
vt 0.727564 2.656340
vt 0.708838 2.705150
vt 0.727563 2.656340
vt 0.708836 2.705160
vt 0.647209 2.719150
vt 0.659683 2.656340
vt 0.586836 2.656340
vt 0.659684 2.656340
vt 0.647207 2.719160
vt 0.586836 2.723650
vt 0.668087 2.577960
vt 0.749335 2.493840
vt 0.670952 2.493840
vt 0.586834 2.577960
vt 0.668086 2.577960
vt 0.586835 2.577960
vt 0.670951 2.493840
vt 0.586836 2.493840
vt 0.668085 2.409730
vt 0.808815 2.409730
vt 0.816646 2.493840
vt -3.203420 2.331340
vt 0.743798 2.409730
vt 0.785857 2.331340
vt 0.743799 2.409730
vt 0.749336 2.331340
vt 0.727565 2.331340
vt 0.668084 2.409730
vt 0.586837 2.409730
vt 0.659681 2.331340
vt 0.586836 2.409730
vt 0.586837 2.331340
vt 0.647207 2.268530
vt 0.586836 2.331340
vt 0.513988 2.331340
vt 0.505585 2.409730
vt 0.526463 2.719160
vt 0.513988 2.656340
vt 0.464834 2.705160
vt 0.526462 2.719160
vt 0.464835 2.705160
vt 2.608630 2.774720
vt 0.446107 2.656340
vt 0.505587 2.577960
vt 0.586834 2.656340
vt 0.513990 2.656340
vt 0.586835 2.493850
vt 0.502722 2.493850
vt 0.505588 2.577960
vt 0.429874 2.577960
vt 0.502719 2.493840
vt 0.429872 2.577960
vt 0.364856 2.577960
vt 0.424335 2.493840
vt 0.387814 2.656340
vt 0.526463 2.268530
vt 0.429873 2.409730
vt 0.446107 2.331340
vt 0.424336 2.493840
vt 0.464834 2.282530
vt 0.387815 2.331340
vt -2.809400 2.323930
vt -1.388920 2.323930
vt -1.357580 2.298850
vt -1.388930 1.193840
vt -2.793090 3.018730
vt -2.809400 3.060380
vt -1.315930 2.282530
vt -1.388930 2.323930
vt -1.322190 2.271690
vt -2.809400 3.024980
vt -2.881400 2.285140
vt -2.863810 2.280400
vt -2.863810 3.091720
vt -2.881400 3.109770
vt -2.920290 3.091720
vt -2.920290 2.264030
vt -2.920290 3.108500
vt -2.943040 3.125730
vt -3.004400 3.091720
vt -2.920290 2.251160
vt -2.809400 1.193840
vt -1.193930 2.331340
vt -1.254300 2.268530
vt -2.774590 2.896720
vt -2.779090 2.957100
vt -1.193930 2.264030
vt -1.260320 2.246060
vt -1.193930 2.237320
vt -2.809400 2.963120
vt -2.809400 2.896720
vt -3.004400 3.126530
vt -3.065760 3.125730
vt -3.088520 3.108500
vt -3.127410 3.109770
vt -3.088520 3.091720
vt -3.088520 2.264030
vt -3.145000 3.091720
vt -3.088520 2.251160
vt -3.145000 2.280400
vt -3.199400 1.193840
vt -3.199400 2.323930
vt -3.004400 2.237320
vt -0.994906 2.331340
vt -0.998928 2.323930
vt -1.030270 2.298850
vt -2.793090 2.774720
vt -2.779090 2.836350
vt -1.071920 2.282530
vt -2.809400 2.768460
vt -0.998925 1.193840
vt -1.193920 2.264030
vt -1.127530 2.246060
vt -2.809400 2.830330
vt -1.065670 2.271690
vt -2.809400 2.733070
vt 0.781836 2.323930
vt 0.750475 2.298840
vt 0.781836 1.193840
vt 0.659682 2.331340
vt 0.708838 2.282530
vt -3.215710 3.018730
vt -3.215720 3.018730
vt -3.229720 2.957100
vt 0.708840 2.282530
vt -3.199400 3.060360
vt -3.199400 3.024990
vt -3.199400 2.896720
vt 0.586836 2.264030
vt -3.234210 2.896720
vt -3.199400 2.963120
vt 0.715097 2.271690
vt 0.653227 2.246060
vt -2.809400 3.091720
vt -3.199400 3.091720
vt -2.809400 2.701720
vt -3.229710 2.836350
vt -3.229720 2.836350
vt -3.199400 2.830330
vt 0.526464 2.268530
vt -3.215720 2.774720
vt 0.586835 2.237320
vt 0.520444 2.246060
vt 0.391836 1.193840
vt 0.458576 2.271690
vt -3.199400 2.768460
vt -3.199400 2.733080
vt -0.994905 2.656340
vt 2.211130 2.680010
vt 2.198290 2.656340
vt 2.256580 2.656340
vt -1.071920 2.705160
vt 2.470160 2.656340
vt 2.397310 2.656340
vt 2.397310 2.723650
vt 2.335950 2.714180
vt 2.313200 2.723650
vt 2.324470 2.656340
vt 2.274310 2.683680
vt 2.274310 2.702550
vt 2.234810 2.713190
vt 2.256590 2.656340
vt 2.458670 2.667720
vt 2.234810 2.493840
vt 2.175330 2.577960
vt 2.240350 2.577960
vt 2.167500 2.493840
vt 2.175330 2.409730
vt -0.964116 2.493840
vt 2.520320 2.683680
vt 2.559810 2.713190
vt 2.520320 2.702550
vt 2.538040 2.656340
vt 2.583490 2.710550
vt 2.583490 2.680020
vt 2.481430 2.684950
vt 2.481430 2.723650
vt 2.458670 2.714180
vt 0.391836 2.323930
vt 0.423187 2.298850
vt 2.478560 2.577960
vt 2.596330 2.656340
vt 2.481430 2.493840
vt -0.971946 2.409730
vt 2.198290 2.331340
vt 2.397310 2.409730
vt 2.478560 2.409730
vt 2.324470 2.331340
vt 2.256580 2.331340
vt 2.274310 2.285140
vt 2.554280 2.409730
vt 2.538040 2.331340
vt 2.559810 2.331340
vt 0.400660 2.680020
vt 0.387815 2.656340
vt 0.357026 2.493840
vt 0.364857 2.409730
vt 2.596340 2.331340
vt -3.199400 2.701720
vt 2.202310 1.193840
vt 2.592310 1.193840
vt 2.397310 2.237320
vt -0.998925 2.323930
vt 2.202310 2.323930
vt 2.256720 2.280400
vt 2.313200 2.251160
vt -3.004400 2.666910
vt 2.335950 2.273510
vt 2.397310 2.264030
vt 2.313200 2.264030
vt -2.920290 2.684950
vt -2.881400 2.683680
vt -2.863810 2.701720
vt -3.065760 2.667720
vt 2.520320 2.285140
vt 2.537910 2.280400
vt -3.145000 2.701720
vt -3.127400 2.683680
vt -3.088520 2.701720
vt 2.592310 2.323930
vt 2.559810 2.290040
vt 2.481430 2.264030
vt -3.088520 2.684950
vt 2.481430 2.251160
vt 2.596330 2.331340
s 1
usemtl Handle1Mtl.004
f 1/1/1 2/2/2 3/3/3
f 2/2/2 1/1/1 4/4/4
f 1/1/1 3/3/3 5/5/5
s 0
f 6/6/6 7/7/7 8/6/8
s 1
f 5/5/5 3/3/3 9/8/9
f 10/9/10 11/10/2 12/11/11
f 7/7/12 13/12/10 14/13/13
f 15/14/14 10/9/10 16/15/15
f 13/12/10 17/16/14 14/13/13
s 0
f 14/13/16 17/16/14 18/13/8
f 8/6/6 14/13/8 18/13/13
s 1
f 14/13/13 8/6/6 7/7/12
f 8/6/3 18/13/17 19/17/18
f 20/18/19 21/19/20 16/15/15
f 22/20/21 23/21/22 24/22/23
f 24/22/23 23/21/22 25/23/24
s 0
f 26/22/8 24/22/25 27/24/26
f 24/22/8 26/22/25 18/13/13
s 1
f 28/25/27 20/18/19 29/26/28
f 23/21/22 30/27/27 25/23/24
s 0
f 31/25/8 28/25/27 29/26/29
f 30/27/8 32/27/27 25/23/24
s 1
f 24/22/30 33/23/31 27/24/32
s 0
f 33/23/31 24/22/25 25/23/8
s 1
f 16/15/15 21/19/20 15/14/14
f 16/15/15 10/9/10 12/11/11
s 0
f 34/28/8 35/28/9 36/29/33
f 37/8/8 9/8/34 3/3/6
f 37/8/34 3/3/8 38/3/6
f 39/29/33 34/28/9 36/29/8
s 1
f 9/8/35 40/30/36 41/31/37
f 41/31/37 40/30/36 42/32/38
s 0
f 40/30/8 43/30/36 42/32/39
s 1
f 44/33/40 35/28/41 45/17/42
f 35/28/41 44/33/40 36/29/36
f 36/29/36 44/33/40 46/34/43
s 0
f 47/33/8 44/33/40 45/17/42
f 44/33/8 47/33/40 46/34/39
s 1
f 19/17/18 18/13/17 48/35/44
s 0
f 45/17/8 19/17/42 47/33/45
f 19/17/8 45/17/42 35/28/34
f 46/34/38 49/36/46 50/34/8
s 1
f 49/36/46 46/34/43 47/33/40
f 18/13/17 26/22/25 48/35/44
s 0
f 48/35/8 51/35/47 27/24/26
f 51/35/8 48/35/48 26/22/25
s 1
f 19/17/18 48/35/44 52/37/49
f 53/37/50 48/35/47 54/38/8
s 0
f 48/35/48 53/37/8 52/37/51
f 27/24/26 33/23/24 55/24/8
s 1
f 27/24/32 51/35/44 26/22/30
s 0
f 27/24/8 55/24/32 48/35/44
s 1
f 55/24/52 25/23/31 56/39/53
s 0
f 25/23/24 55/24/26 33/23/8
s 1
f 57/40/54 58/41/55 59/42/56
s 0
f 58/41/57 57/40/58 60/40/59
f 61/43/60 62/44/8 63/44/61
s 1
f 62/44/62 61/43/63 58/41/55
s 0
f 64/43/8 61/43/60 65/45/64
f 61/43/8 64/43/65 58/41/66
s 1
f 58/41/57 64/43/67 66/46/68
s 0
f 64/43/65 65/45/8 67/45/69
f 68/47/8 69/47/70 70/48/71
f 71/1/72 72/4/8 4/4/4
s 1
f 72/4/73 71/1/74 61/43/60
f 61/43/60 71/1/74 65/45/69
s 0
f 1/1/8 71/1/75 4/4/73
f 71/1/8 1/1/76 5/5/77
f 73/49/8 74/49/4 68/47/78
f 5/5/77 9/8/34 75/5/8
s 1
f 76/50/79 77/51/80 68/47/81
s 0
f 77/51/80 76/50/58 78/50/82
s 1
f 68/47/81 70/48/54 76/50/79
s 0
f 76/50/79 70/48/54 78/50/58
s 1
f 68/47/81 77/51/80 73/49/73
f 73/49/73 12/11/11 11/10/2
f 12/11/11 73/49/73 77/51/80
s 0
f 12/11/83 77/51/8 79/51/80
s 1
f 562/52/84 571/53/85 563/54/86
f 531/55/87 534/56/88 584/57/89
s 0
f 80/58/58 81/58/90 78/50/82
f 81/58/58 80/58/91 82/59/92
s 1
f 81/58/93 83/59/94 84/60/95
s 0
f 83/59/92 81/58/93 82/59/58
f 85/61/8 86/61/96 87/26/97
f 86/61/8 85/61/98 84/60/95
f 84/60/95 85/61/99 88/60/8
f 81/58/100 84/60/8 88/60/95
s 1
f 78/50/82 81/58/90 79/51/101
f 79/51/101 88/60/95 12/11/102
f 88/60/95 79/51/101 81/58/90
s 0
f 79/51/8 77/51/101 78/50/82
s 1
f 85/61/98 87/26/97 16/15/103
f 16/15/15 29/26/28 20/18/19
s 0
f 29/26/104 16/15/15 87/26/8
f 89/15/8 16/15/15 12/11/105
f 16/15/8 89/15/15 85/61/106
s 1
f 88/60/95 89/15/103 12/11/102
f 89/15/103 88/60/95 85/61/98
s 0
f 29/26/8 87/26/107 90/62/108
s 1
f 91/63/109 78/50/82 92/64/110
f 78/50/82 91/63/109 80/58/93
f 92/64/110 78/50/82 70/48/54
s 0
f 58/41/8 93/41/55 59/42/111
f 93/41/58 58/41/55 66/46/112
f 67/45/8 65/45/64 5/5/77
f 94/65/113 95/66/114 96/65/58
s 1
f 95/66/114 94/65/115 67/45/69
s 0
f 5/5/8 75/5/77 41/31/37
s 1
f 41/31/37 75/5/77 9/8/35
f 93/41/57 97/46/112 98/67/116
s 0
f 97/46/68 93/41/57 66/46/58
s 1
f 99/68/117 31/25/27 29/26/28
f 32/27/27 100/69/118 25/23/31
f 56/39/53 100/69/118 101/70/119
f 100/69/118 56/39/53 25/23/31
s 0
f 102/39/8 56/39/53 103/71/120
f 56/39/8 102/39/121 104/72/122
s 1
f 55/24/52 56/39/53 104/72/122
f 105/73/119 99/68/117 90/62/108
f 106/71/123 107/74/124 108/75/125
s 0
f 107/74/126 106/71/8 103/71/120
s 1
f 102/39/53 103/71/127 104/72/128
f 109/76/125 110/77/124 90/62/108
f 111/78/129 109/76/125 112/79/130
f 108/75/125 113/80/131 106/71/123
f 112/79/130 109/76/125 90/62/108
f 111/78/129 112/79/130 114/81/132
f 90/62/108 110/77/124 105/73/119
f 90/62/108 99/68/117 29/26/28
s 0
f 115/72/8 104/72/128 116/82/133
f 104/72/8 115/72/128 55/24/26
s 1
f 55/24/32 115/72/128 117/38/8
f 118/83/134 103/71/127 119/83/135
f 103/71/127 118/83/134 104/72/128
f 104/72/128 118/83/134 119/83/135
f 116/82/136 104/72/128 119/83/135
f 120/84/137 119/83/135 103/71/127
f 119/83/135 120/84/137 121/85/138
f 122/86/139 123/87/140 124/88/141
s 0
f 123/87/142 122/86/58 125/86/139
f 125/86/58 122/86/58 126/86/58
s 1
f 123/87/142 125/86/143 127/89/144
s 0
f 124/88/58 128/88/145 83/59/146
f 128/88/58 124/88/147 129/90/148
f 126/86/58 122/86/149 124/88/141
f 130/87/8 123/87/150 131/79/130
f 123/87/8 130/87/151 129/90/148
f 129/90/148 130/87/152 132/90/8
f 128/88/153 129/90/8 132/90/148
s 1
f 83/59/94 128/88/154 132/90/155
s 0
f 133/61/98 132/90/148 86/61/8
s 1
f 132/90/155 133/61/96 83/59/94
s 0
f 83/59/146 133/61/8 86/61/98
f 83/59/58 82/59/94 134/91/156
s 1
f 130/87/157 131/79/158 132/90/148
s 0
f 135/62/108 131/79/8 112/79/159
s 1
f 131/79/158 135/62/160 132/90/148
f 132/90/148 135/62/160 86/61/161
s 0
f 90/62/8 135/62/108 112/79/159
f 135/62/8 90/62/108 87/26/107
f 136/86/58 126/86/149 124/88/141
f 126/86/58 136/86/58 125/86/58
s 1
f 137/92/162 136/86/139 124/88/154
f 136/86/139 137/92/162 138/93/163
s 0
f 136/86/164 139/94/165 125/86/58
s 1
f 139/94/165 136/86/139 138/93/163
f 140/95/166 42/32/167 141/96/168
s 0
f 42/32/38 140/95/8 142/95/166
f 42/32/8 143/32/38 144/96/169
f 145/33/8 47/33/40 52/37/51
f 47/33/8 145/33/170 49/36/46
s 1
f 49/36/171 145/33/170 52/37/50
s 0
f 146/36/8 49/36/46 147/97/172
f 49/36/8 146/36/46 50/34/38
f 148/98/173 146/36/46 149/98/8
s 1
f 146/36/46 148/98/174 150/99/175
s 0
f 150/99/169 148/98/8 149/98/176
f 52/37/8 53/37/51 54/38/8
s 1
f 151/100/177 52/37/50 117/38/8
f 52/37/50 151/100/177 49/36/171
f 49/36/171 151/100/177 147/97/178
s 0
f 152/100/8 151/100/177 153/101/179
f 151/100/8 152/100/180 147/97/181
f 147/97/8 154/97/182 155/102/183
f 154/97/8 147/97/172 152/100/177
f 149/98/176 147/97/8 156/97/178
s 1
f 147/97/178 149/98/184 146/36/185
s 0
f 52/37/51 54/38/8 117/38/8
s 1
f 155/102/183 154/97/182 157/101/186
f 157/101/186 154/97/182 152/100/177
s 0
f 158/102/8 155/102/183 153/101/187
f 155/102/8 158/102/188 147/97/178
f 95/66/189 67/45/69 159/66/8
f 95/66/8 159/66/189 96/65/190
s 1
f 160/103/191 159/66/114 142/95/192
f 159/66/114 160/103/191 96/65/115
s 0
f 161/104/193 160/103/191 162/105/58
s 1
f 160/103/191 161/104/194 96/65/115
s 0
f 163/106/8 160/103/191 142/95/166
f 160/103/8 163/106/191 164/107/195
s 1
f 165/107/196 163/106/191 166/108/197
s 0
f 163/106/191 165/107/8 164/107/196
f 167/109/8 41/31/198 142/95/199
f 41/31/8 167/109/200 159/66/201
s 1
f 159/66/114 167/109/202 142/95/192
f 163/106/191 142/95/203 166/108/197
s 0
f 142/95/8 140/95/204 166/108/205
f 165/107/206 166/108/205 164/107/8
f 96/65/207 161/104/58 162/105/208
f 117/38/8 54/38/8 55/24/26
s 1
f 153/101/187 117/38/8 168/110/209
f 117/38/8 153/101/187 151/100/177
s 0
f 157/101/8 153/101/179 155/102/183
f 153/101/8 157/101/187 152/100/177
f 169/102/8 158/102/210 153/101/187
f 158/102/8 169/102/188 147/97/178
s 1
f 170/111/211 169/102/188 171/112/212
f 169/102/188 170/111/211 172/113/213
f 115/72/128 116/82/133 117/38/8
f 117/38/8 116/82/133 168/110/209
f 173/110/214 174/82/136 175/114/215
s 0
f 174/82/133 173/110/8 168/110/214
f 168/110/8 173/110/209 176/114/216
s 1
f 153/101/187 168/110/209 177/115/217
s 0
f 174/82/8 116/82/218 178/116/219
f 116/82/8 174/82/218 168/110/209
s 1
f 177/115/217 168/110/209 179/117/220
s 0
f 180/115/8 177/115/217 171/112/221
f 177/115/8 180/115/217 169/102/210
s 1
f 169/102/188 180/115/222 171/112/212
f 174/82/136 178/116/219 175/114/215
s 0
f 173/110/214 175/114/8 176/114/223
s 1
f 177/115/217 179/117/220 181/118/224
s 0
f 176/114/8 175/114/223 178/116/225
s 1
f 182/119/226 183/120/227 184/121/228
f 183/120/227 182/119/226 98/67/229
s 0
f 185/64/58 92/64/230 70/48/54
f 186/42/58 59/42/231 98/67/116
s 1
f 98/67/116 59/42/56 93/41/57
s 0
f 187/48/54 185/64/232 70/48/58
s 1
f 188/122/226 189/123/233 190/63/234
f 189/123/233 188/122/226 191/124/228
f 190/63/234 189/123/233 192/125/235
s 0
f 92/64/111 190/63/58 91/63/236
s 1
f 190/63/234 92/64/111 188/122/226
s 0
f 193/126/58 194/126/237 195/91/238
f 194/126/58 193/126/239 196/127/240
s 1
f 197/128/241 193/126/242 198/129/243
s 0
f 193/126/244 197/128/58 199/128/241
s 1
f 200/130/245 193/126/242 134/91/156
f 193/126/242 200/130/245 198/129/243
f 198/129/243 200/130/245 201/131/246
s 0
f 202/130/58 200/130/247 192/125/248
f 200/130/58 202/130/245 203/123/249
f 203/123/250 202/130/245 189/123/58
s 1
f 200/130/245 203/123/251 204/132/252
s 0
f 203/123/58 189/123/253 204/132/254
s 1
f 205/125/235 134/91/156 82/59/94
f 134/91/156 205/125/235 200/130/245
s 0
f 192/125/58 205/125/255 91/63/109
f 205/125/58 192/125/235 200/130/256
s 1
f 202/130/256 192/125/235 189/123/233
f 470/133/257 469/134/258 513/135/259
f 523/136/260 526/137/261 524/138/262
s 0
f 195/91/58 134/91/263 193/126/264
f 192/125/235 91/63/58 190/63/234
s 1
f 83/59/94 134/91/265 206/139/266
f 205/125/235 80/58/93 91/63/109
f 80/58/93 205/125/235 82/59/94
s 0
f 94/65/58 96/65/115 162/105/267
s 1
f 97/46/268 94/65/115 207/140/269
f 94/65/115 97/46/268 67/45/69
s 0
f 97/46/58 66/46/270 67/45/69
f 208/120/58 183/120/271 98/67/272
f 183/120/58 208/120/273 209/141/274
s 1
f 209/141/275 208/120/276 210/140/269
s 0
f 211/141/58 209/141/275 212/142/277
f 209/141/58 211/141/274 213/143/278
s 1
f 214/144/279 211/141/274 215/145/280
s 0
f 211/141/281 214/144/58 213/143/282
f 215/145/283 211/141/275 212/142/58
f 216/67/58 98/67/116 210/140/284
f 98/67/58 216/67/285 208/120/286
s 1
f 208/120/276 216/67/285 210/140/269
f 209/141/275 210/140/269 217/146/287
s 0
f 207/140/58 210/140/288 97/46/289
f 210/140/58 207/140/284 217/146/290
s 1
f 218/146/287 207/140/269 94/65/115
s 0
f 207/140/269 218/146/58 217/146/287
f 218/146/291 94/65/190 217/146/58
s 1
f 219/147/292 220/127/293 221/148/294
s 0
f 220/127/293 219/147/58 222/147/292
f 196/127/58 220/127/240 222/147/292
f 220/127/58 196/127/240 193/126/239
s 1
f 194/126/242 196/127/240 195/91/263
f 496/149/295 502/136/296 540/150/297
f 483/151/298 486/152/299 510/153/58
f 206/139/266 137/92/162 124/88/154
f 137/92/162 206/139/266 222/147/300
s 0
f 223/139/58 206/139/301 134/91/265
f 206/139/58 223/139/301 196/127/240
s 1
f 196/127/240 223/139/266 195/91/263
s 0
f 195/91/156 223/139/266 134/91/58
s 1
f 206/139/266 124/88/154 83/59/94
f 162/105/302 224/154/303 225/155/304
f 224/154/303 162/105/302 164/107/195
f 164/107/195 162/105/302 160/103/191
f 212/142/280 226/156/305 227/157/306
s 0
f 226/156/307 212/142/277 228/156/58
f 226/156/58 228/156/305 227/157/308
s 1
f 229/158/309 228/156/307 230/159/310
f 228/156/307 229/158/309 231/160/311
f 228/156/307 231/160/311 227/157/312
f 230/159/310 217/146/287 94/65/115
f 217/146/287 230/159/310 228/156/307
f 225/155/304 232/161/310 162/105/302
s 0
f 232/161/310 225/155/313 230/159/58
s 1
f 229/158/309 225/155/314 233/162/315
f 225/155/314 229/158/309 230/159/310
s 0
f 232/161/58 230/159/316 162/105/208
f 234/155/58 225/155/317 224/154/303
f 225/155/58 234/155/304 235/163/318
s 1
f 235/163/319 234/155/304 224/154/320
s 0
f 235/163/321 224/154/320 236/163/58
f 237/164/322 238/165/323 239/164/8
s 1
f 113/80/131 120/84/324 106/71/123
s 0
f 106/71/120 120/84/324 103/71/8
f 120/84/8 240/84/322 121/85/325
s 1
f 111/78/129 114/81/132 241/166/132
f 242/116/326 119/83/135 121/85/138
f 119/83/135 242/116/326 116/82/136
s 0
f 178/116/8 242/116/326 176/114/223
f 242/116/8 178/116/219 116/82/133
s 1
f 243/167/327 239/164/322 244/168/328
s 0
f 245/167/8 243/167/327 246/169/329
f 121/85/8 247/85/325 248/170/330
s 1
f 242/116/326 248/170/331 249/171/332
f 248/170/331 242/116/326 121/85/138
f 176/114/223 242/116/326 249/171/332
f 250/172/333 251/173/331 245/167/334
f 251/173/331 250/172/333 252/174/335
s 0
f 253/175/336 254/176/337 255/177/8
s 1
f 254/176/132 253/175/338 238/165/129
s 0
f 239/164/324 253/175/8 255/177/339
s 1
f 253/175/338 239/164/324 238/165/129
f 254/176/132 256/178/132 257/179/144
f 258/89/144 114/81/132 127/89/144
f 259/180/340 257/179/341 260/181/342
s 0
f 257/179/144 259/180/8 261/182/343
f 259/180/344 260/181/345 261/182/8
s 1
f 257/179/346 262/183/144 263/184/165
f 139/94/165 127/89/144 125/86/143
f 260/181/342 257/179/341 264/184/165
f 123/87/142 127/89/144 114/81/132
f 114/81/132 112/79/130 123/87/142
f 244/168/328 255/177/339 265/185/347
f 255/177/339 244/168/328 239/164/322
s 0
f 246/169/8 244/168/348 266/186/333
f 244/168/8 246/169/348 243/167/325
s 1
f 245/167/334 246/169/348 250/172/333
s 0
f 246/169/349 266/186/8 250/172/350
f 250/172/8 266/186/333 267/187/351
s 1
f 255/177/339 261/182/344 265/185/347
f 261/182/344 255/177/339 254/176/132
f 265/185/347 261/182/344 268/188/352
f 244/168/328 265/185/347 267/187/353
s 0
f 269/189/8 265/185/347 270/190/354
f 265/185/8 269/189/347 267/187/355
s 1
f 267/187/353 266/186/356 244/168/328
s 0
f 271/191/8 267/187/353 272/192/357
f 267/187/8 271/191/353 273/193/358
s 1
f 272/192/359 269/189/347 270/190/360
f 269/189/347 272/192/359 267/187/361
f 271/191/362 272/192/359 273/193/358
s 0
f 274/194/363 275/195/8 251/173/331
s 1
f 176/114/223 249/171/332 276/196/364
s 0
f 252/174/8 274/194/363 251/173/365
f 249/171/8 277/171/335 276/196/364
s 1
f 252/174/335 250/172/333 278/197/366
f 279/198/364 280/199/366 281/200/367
f 280/199/366 279/198/364 252/174/363
f 278/197/366 250/172/333 267/187/353
s 0
f 280/199/8 278/197/366 282/201/368
f 278/197/8 280/199/366 252/174/335
s 1
f 281/200/367 280/199/366 282/201/369
f 278/197/366 273/193/358 282/201/370
f 273/193/358 278/197/366 267/187/353
s 0
f 283/202/8 273/193/358 284/203/371
f 273/193/8 283/202/358 285/204/372
s 1
f 285/204/372 283/202/358 286/205/373
s 0
f 284/203/374 272/192/375 286/205/58
s 1
f 272/192/359 284/203/376 273/193/358
s 0
f 283/202/358 284/203/58 286/205/377
s 1
f 285/204/378 287/206/379 288/207/380
s 0
f 287/206/381 285/204/382 289/208/8
s 1
f 286/205/373 290/209/383 289/208/384
f 290/209/383 286/205/373 291/210/385
s 0
f 292/94/58 139/94/165 138/93/386
f 263/184/58 264/184/165 257/179/387
f 265/185/347 268/188/58 270/190/388
s 1
f 264/184/165 293/211/163 260/181/342
f 294/212/389 293/211/163 295/213/390
f 293/211/163 294/212/389 260/181/342
s 0
f 296/93/58 138/93/391 137/92/162
f 293/211/58 297/214/391 298/215/392
s 1
f 299/216/390 296/93/163 300/92/162
s 0
f 301/216/58 299/216/393 222/147/394
f 298/215/58 295/213/390 293/211/395
s 1
f 294/212/396 302/217/397 303/218/398
s 0
f 302/217/399 294/212/396 304/217/58
s 1
f 222/147/400 299/216/390 300/92/162
s 0
f 222/147/58 219/147/401 221/148/402
f 300/92/162 296/93/403 137/92/58
f 222/147/400 300/92/58 137/92/162
f 305/219/8 260/181/342 306/220/404
f 260/181/58 305/219/405 268/188/406
s 1
f 268/188/407 305/219/408 306/220/409
s 0
f 270/190/58 268/188/354 307/221/375
f 270/190/352 307/221/58 272/192/359
f 272/192/8 307/221/359 308/222/410
f 306/220/58 294/212/396 303/218/411
f 294/212/58 306/220/412 260/181/413
f 306/220/414 303/218/58 309/223/415
f 309/223/58 303/218/398 310/224/416
s 1
f 268/188/407 309/223/398 307/221/359
f 309/223/398 268/188/407 306/220/409
s 0
f 308/222/417 309/223/398 311/225/58
s 1
f 309/223/398 308/222/418 307/221/359
s 0
f 272/192/375 308/222/58 311/225/417
f 310/224/416 302/217/58 304/217/419
s 1
f 302/217/397 310/224/420 303/218/398
s 0
f 312/226/58 310/224/416 313/227/421
f 310/224/58 312/226/420 314/228/422
s 1
f 310/224/416 315/229/423 313/227/424
f 315/229/423 310/224/416 304/217/399
s 0
f 291/210/58 316/210/385 317/209/425
f 316/210/58 291/210/426 286/205/371
f 290/209/383 291/210/385 317/209/58
s 1
f 289/208/384 290/209/383 318/230/427
s 0
f 290/209/58 317/209/425 318/230/428
s 1
f 316/210/385 319/231/429 320/232/430
s 0
f 319/231/431 316/210/432 321/231/58
s 1
f 321/231/433 311/225/417 322/233/422
f 311/225/417 321/231/433 316/210/385
s 0
f 320/232/434 319/231/58 321/231/433
s 1
f 317/209/435 320/232/430 323/234/436
f 320/232/430 317/209/435 316/210/385
s 0
f 324/232/58 320/232/437 325/235/438
f 320/232/58 324/232/439 323/234/436
s 1
f 325/235/440 320/232/437 321/231/441
s 0
f 326/99/8 150/99/175 327/236/442
f 144/96/8 141/96/443 42/32/39
s 1
f 140/95/166 141/96/168 166/108/444
s 0
f 328/236/442 326/99/443 327/236/8
s 1
f 141/96/443 329/237/442 330/108/205
f 331/238/445 332/237/115 333/239/115
f 329/237/442 334/238/446 330/108/205
f 335/240/447 336/241/448 337/240/447
f 334/238/446 338/242/447 330/108/205
s 0
f 332/237/58 339/243/115 333/239/115
s 1
f 327/236/449 150/99/169 149/98/450
f 340/244/445 331/238/445 333/239/115
f 336/241/448 341/245/451 337/240/447
f 342/246/452 149/98/450 156/97/181
f 149/98/450 342/246/452 343/247/453
f 344/248/454 345/249/452 346/250/455
s 0
f 156/97/8 147/97/181 172/113/456
s 1
f 156/97/181 172/113/213 347/251/457
f 345/249/452 348/252/458 346/250/455
f 347/251/457 342/246/452 156/97/181
f 346/250/455 348/252/458 349/253/456
f 346/250/455 349/253/456 350/254/459
f 351/247/8 352/255/8 353/256/8
f 354/257/460 164/107/461 355/258/462
s 0
f 164/107/461 354/257/8 224/154/463
f 356/259/464 357/260/8 358/260/462
s 1
f 355/258/462 359/261/465 354/257/460
f 355/258/462 164/107/461 338/242/447
f 333/239/115 360/262/113 340/244/445
f 360/262/113 333/239/115 361/263/445
s 0
f 330/108/8 166/108/205 141/96/443
f 166/108/8 330/108/205 338/242/447
s 1
f 358/260/462 337/240/447 362/264/466
s 0
f 363/242/447 364/258/8 355/258/462
f 354/257/467 359/261/464 224/154/58
s 1
f 337/240/447 341/245/451 362/264/466
f 358/260/462 362/264/466 365/265/468
f 351/247/8 353/256/8 366/236/8
s 0
f 349/253/456 367/266/8 368/266/211
s 1
f 368/266/211 369/267/469 350/254/459
s 0
f 171/112/469 370/111/8 170/111/470
s 1
f 371/268/471 372/269/472 373/270/473
f 181/118/224 374/271/474 177/115/217
f 369/267/469 371/268/471 373/270/473
f 374/271/474 171/112/212 177/115/217
s 0
f 375/117/8 179/117/475 276/196/476
f 179/117/8 375/117/477 181/118/478
s 1
f 376/272/479 373/270/473 372/269/472
f 377/273/8 378/274/8 379/275/8
s 0
f 375/117/477 276/196/8 380/196/364
s 1
f 381/274/480 181/118/472 375/117/481
f 381/274/480 375/117/481 382/276/482
f 368/266/211 350/254/459 349/253/456
f 383/277/8 379/275/8 353/256/8
f 379/275/8 383/277/8 377/273/8
f 352/255/8 383/277/8 353/256/8
s 0
f 384/158/58 229/158/483 233/162/315
f 229/158/58 384/158/484 231/160/311
s 1
f 385/278/485 384/158/486 386/279/487
s 0
f 384/158/488 385/278/58 231/160/311
s 1
f 384/158/486 233/162/315 387/280/489
f 384/158/486 387/280/489 386/279/487
s 0
f 388/281/490 389/282/58 390/282/491
s 1
f 235/163/492 391/283/315 225/155/314
f 392/281/315 388/281/315 393/284/493
f 391/283/315 233/162/315 225/155/314
f 361/263/445 333/239/115 394/285/115
s 0
f 395/259/8 356/259/465 358/260/494
f 359/261/58 396/286/465 236/163/495
s 1
f 390/282/492 395/259/465 365/265/468
f 365/265/468 395/259/465 358/260/462
f 397/287/115 361/263/445 394/285/115
f 365/265/468 398/288/496 390/282/492
f 390/282/492 398/288/496 388/281/315
f 399/289/113 397/287/115 394/285/115
f 398/288/496 393/284/493 388/281/315
f 399/289/113 394/285/115 400/280/115
f 392/281/315 393/284/493 401/290/489
f 379/275/8 378/274/8 402/276/8
f 375/117/481 380/196/476 382/276/482
s 0
f 403/291/497 404/198/8 279/198/498
f 379/275/8 402/276/8 405/276/8
s 1
f 279/198/364 281/200/367 406/201/499
f 407/291/497 279/198/364 406/201/499
s 0
f 279/198/476 407/291/8 403/291/497
s 1
f 408/291/359 409/292/359 410/293/359
f 411/292/500 407/291/497 406/201/499
s 0
f 406/201/8 282/201/368 412/294/501
f 282/201/8 406/201/368 281/200/502
s 1
f 413/295/503 406/201/499 412/294/504
f 406/201/499 413/295/503 411/292/500
s 0
f 414/296/8 415/297/505 416/298/506
f 413/295/8 417/299/507 411/292/508
s 1
f 418/300/500 414/296/503 419/301/509
s 0
f 412/294/8 285/204/378 288/207/510
f 285/204/8 412/294/511 282/201/368
f 412/294/504 288/207/8 420/207/512
f 416/298/8 421/298/513 422/302/514
s 1
f 420/207/513 413/295/503 412/294/504
s 0
f 423/303/515 287/206/58 289/208/516
s 1
f 287/206/379 423/303/517 288/207/380
s 0
f 421/298/380 424/304/8 425/304/517
f 423/303/517 289/208/516 426/303/58
s 1
f 419/301/509 414/296/503 427/305/518
f 427/305/518 416/298/513 422/302/519
f 416/298/513 427/305/518 414/296/503
f 428/306/359 429/307/359 410/293/359
f 422/302/520 421/298/380 425/304/517
f 430/308/521 431/309/521 432/310/521
s 0
f 433/311/58 434/312/522 435/313/523
f 318/230/58 436/314/427 426/303/524
s 1
f 425/304/517 433/311/427 422/302/520
f 434/312/522 437/315/436 435/313/525
s 0
f 438/234/436 318/230/526 323/234/58
s 1
f 429/307/359 439/316/359 410/293/359
f 433/311/427 435/313/527 422/302/520
f 439/316/359 440/317/359 441/318/359
f 439/316/359 441/318/359 410/293/359
f 440/317/359 442/319/359 441/318/359
f 443/320/528 435/313/525 437/315/436
f 443/320/528 437/315/436 444/321/529
s 0
f 444/321/530 437/315/58 445/315/531
s 1
f 446/322/532 184/121/228 183/120/227
f 447/323/533 448/324/534 449/325/535
s 0
f 449/325/535 448/324/58 450/324/532
s 1
f 446/322/532 183/120/227 209/141/274
f 451/122/226 191/124/228 188/122/226
f 182/119/226 452/326/226 186/42/111
f 189/123/233 191/124/228 204/132/536
f 453/327/537 454/328/538 455/151/539
s 0
f 454/328/540 453/327/541 456/328/58
f 457/329/58 458/329/241 459/330/243
f 457/329/542 454/328/58 456/328/543
s 1
f 454/328/540 457/329/241 459/330/544
f 459/330/544 460/331/246 461/332/545
f 462/333/546 201/131/246 200/130/245
f 460/331/246 463/334/547 461/332/545
f 449/325/535 463/334/546 464/335/252
s 0
f 463/334/548 449/325/58 465/336/549
s 1
f 463/334/547 465/336/549 461/332/545
f 204/132/252 462/333/546 200/130/245
f 464/335/252 447/323/533 449/325/535
s 0
f 449/325/535 450/324/534 465/336/58
s 1
f 193/126/264 466/337/550 220/127/293
f 466/337/550 193/126/264 199/128/241
s 0
f 467/338/58 468/338/551 469/134/552
f 468/338/58 467/338/553 470/133/554
s 1
f 450/324/555 471/339/556 472/340/557
s 0
f 213/143/279 473/322/58 446/322/534
f 471/339/58 474/339/279 475/340/558
s 1
f 474/339/559 468/338/551 475/340/558
f 468/338/551 474/339/559 476/341/560
s 0
f 468/338/561 476/341/58 477/341/560
s 1
f 478/342/562 479/134/552 468/338/551
s 0
f 479/134/552 478/342/58 480/342/306
f 481/343/560 215/145/58 212/142/277
f 215/145/563 481/343/58 482/343/560
s 1
f 212/142/277 209/141/275 217/146/287
f 459/330/544 461/332/545 454/328/540
f 454/328/540 461/332/545 483/151/564
s 0
f 484/332/58 461/332/545 465/336/549
f 461/332/58 484/332/565 485/152/299
s 1
f 485/152/299 484/332/566 465/336/567
s 0
f 486/152/58 485/152/568 470/133/554
f 485/152/58 486/152/569 483/151/539
s 1
f 472/340/557 465/336/567 450/324/555
f 465/336/567 472/340/557 485/152/299
f 485/152/299 472/340/557 470/133/257
s 0
f 475/340/58 472/340/558 471/339/279
f 472/340/58 475/340/558 468/338/570
s 1
f 487/344/571 221/148/294 220/127/293
f 488/345/572 489/346/571 490/347/573
f 490/347/573 489/346/571 453/327/574
f 221/148/402 491/348/575 222/147/401
f 492/349/576 488/345/572 490/347/573
f 493/350/577 487/344/571 220/127/293
f 489/346/571 494/351/577 453/327/574
f 466/337/550 493/350/577 220/127/293
f 494/351/577 495/352/578 453/327/574
f 453/327/574 495/352/578 456/328/543
f 483/151/564 461/332/545 485/152/299
f 470/133/257 472/340/557 468/338/561
f 324/232/439 592/353/579 594/354/529
f 495/352/578 457/329/241 456/328/543
f 410/293/359 409/292/359 428/306/359
s 0
f 455/151/580 454/328/540 483/151/58
s 1
f 496/149/581 497/347/582 498/355/583
s 0
f 497/347/584 496/149/295 490/347/58
s 1
f 499/356/585 496/149/295 500/150/586
f 496/149/295 499/356/585 490/347/573
s 0
f 501/149/58 496/149/587 498/355/583
f 496/149/58 501/149/588 502/136/589
s 1
f 497/347/582 453/327/541 498/355/583
s 0
f 453/327/574 497/347/58 490/347/573
f 498/355/583 453/327/541 503/355/58
f 501/149/587 498/355/58 503/355/590
s 1
f 504/357/591 503/355/583 505/153/58
f 503/355/583 504/357/591 501/149/587
s 0
f 455/151/58 483/151/580 505/153/58
s 1
f 503/355/583 455/151/539 505/153/58
f 455/151/539 503/355/583 453/327/537
s 0
f 504/357/592 505/153/58 506/153/58
f 505/153/58 483/151/580 507/153/58
s 1
f 227/157/306 481/343/560 212/142/280
f 477/341/560 478/342/562 468/338/551
s 0
f 508/358/58 227/157/306 231/160/311
s 1
f 480/342/593 509/359/594 479/134/552
f 212/142/277 217/146/287 228/156/307
s 0
f 510/153/58 507/153/58 483/151/580
f 507/153/58 510/153/58 511/357/592
s 1
f 512/360/595 510/153/58 513/135/596
f 510/153/58 512/360/595 514/361/597
f 510/153/58 514/361/597 511/357/591
f 486/152/299 470/133/598 510/153/58
s 0
f 515/133/58 470/133/598 513/135/259
f 470/133/58 515/133/599 510/153/58
s 1
f 510/153/58 515/133/554 513/135/596
f 512/360/595 513/135/596 516/362/600
s 0
f 517/135/58 513/135/596 469/134/601
f 513/135/58 517/135/596 516/362/600
s 1
f 518/362/602 517/135/596 519/363/603
s 0
f 517/135/596 518/362/58 516/362/604
s 1
f 470/133/257 467/338/605 469/134/258
s 0
f 517/135/596 469/134/58 479/134/601
s 1
f 519/363/603 479/134/552 509/359/594
f 479/134/552 519/363/603 517/135/596
s 0
f 520/363/58 519/363/606 521/364/607
f 519/363/58 520/363/608 518/362/602
f 479/134/58 469/134/601 468/338/609
f 518/362/610 520/363/611 516/362/58
f 519/363/606 509/359/58 522/359/485
f 523/136/58 502/136/296 501/149/295
f 502/136/58 523/136/612 524/138/613
s 1
f 525/365/614 523/136/260 511/357/591
f 523/136/260 525/365/614 526/137/261
s 0
f 527/365/58 525/365/614 528/366/615
f 525/365/58 527/365/616 526/137/617
s 1
f 527/365/616 528/366/618 529/367/619
s 0
f 511/357/58 504/357/592 507/153/58
f 504/357/58 511/357/620 501/149/581
s 1
f 511/357/591 523/136/260 501/149/587
f 511/357/591 514/361/597 525/365/614
f 525/365/614 514/361/597 528/366/621
s 0
f 530/361/58 514/361/622 512/360/595
f 514/361/58 530/361/597 531/55/87
s 1
f 531/55/623 530/361/597 532/360/624
s 0
f 528/366/625 531/55/58 533/55/626
s 1
f 531/55/627 528/366/621 514/361/597
s 0
f 506/153/58 505/153/58 507/153/58
f 506/153/58 507/153/58 504/357/592
f 532/360/58 512/360/628 534/56/629
f 512/360/58 532/360/630 530/361/597
f 535/56/88 532/360/595 534/56/58
s 1
f 532/360/624 535/56/631 531/55/623
s 0
f 531/55/627 535/56/58 534/56/88
s 1
f 491/348/575 301/216/390 222/147/401
f 295/213/390 536/368/575 304/217/632
s 0
f 304/217/399 537/369/58 315/229/423
s 1
f 537/369/633 304/217/632 536/368/575
s 0
f 492/349/634 499/356/58 538/356/635
s 1
f 499/356/585 492/349/576 490/347/573
f 311/225/410 309/223/398 310/224/420
s 0
f 315/229/585 539/227/58 313/227/424
f 540/150/58 500/150/636 496/149/295
s 1
f 312/226/416 313/227/637 314/228/638
f 524/138/262 540/150/297 502/136/296
s 0
f 313/227/424 541/370/58 542/370/262
f 322/233/58 314/228/639 321/231/640
f 314/228/58 322/233/638 311/225/641
f 543/138/58 524/138/262 526/137/642
s 1
f 314/228/638 542/370/262 544/371/617
f 542/370/262 314/228/638 313/227/637
s 0
f 545/137/642 543/138/613 526/137/58
f 321/231/640 544/371/58 546/371/642
s 1
f 544/371/617 321/231/431 314/228/638
f 321/231/441 546/371/642 547/235/643
f 526/137/644 527/365/616 548/372/643
f 527/365/616 529/367/619 548/372/643
f 432/310/521 431/309/521 549/373/521
f 550/374/58 551/375/58 552/376/58
s 0
f 553/377/58 554/279/115 394/285/115
f 555/378/58 556/378/645 522/359/485
s 1
f 519/363/608 522/359/485 556/378/646
f 557/379/58 558/378/58 550/374/58
f 556/378/646 559/379/647 519/363/608
f 519/363/608 559/379/647 521/364/607
f 394/285/115 554/279/115 400/280/115
f 550/374/58 560/380/58 557/379/58
f 560/380/58 550/374/58 552/376/58
f 512/360/595 516/362/600 534/56/88
f 561/381/648 562/52/84 563/54/86
s 0
f 564/382/84 565/383/58 566/383/648
f 567/381/58 561/381/648 563/54/649
s 1
f 564/382/84 516/362/600 568/384/650
f 516/362/600 564/382/84 534/56/88
f 569/385/650 570/386/607 571/53/85
f 521/364/651 568/384/650 516/362/600
f 562/52/84 569/385/650 571/53/85
f 520/363/611 521/364/651 516/362/600
f 570/386/607 572/387/652 571/53/85
f 567/381/648 563/54/653 573/388/654
f 373/270/473 350/254/459 369/267/469
f 311/225/410 310/224/420 314/228/422
s 0
f 529/367/655 528/366/58 574/366/615
s 1
f 575/389/656 574/366/615 533/55/657
f 574/366/615 575/389/656 576/390/658
f 577/391/659 578/392/656 579/393/660
f 529/367/661 576/390/658 580/394/662
f 576/390/658 529/367/661 574/366/615
f 581/390/58 582/395/58 583/394/58
f 582/395/58 581/390/58 551/375/58
s 0
f 533/55/58 531/55/627 584/57/654
f 533/55/657 574/366/58 528/366/615
s 1
f 533/55/657 584/57/654 585/396/663
f 586/397/664 573/388/654 579/393/660
f 578/392/656 586/397/664 579/393/660
f 585/396/663 575/389/656 533/55/657
f 566/383/648 534/56/88 564/382/84
f 534/56/88 566/383/648 584/57/89
f 581/390/58 587/398/58 551/375/58
f 587/398/58 552/376/58 551/375/58
f 563/54/653 579/393/660 573/388/654
f 588/353/359 441/318/359 589/354/359
f 551/375/58 590/394/665 582/395/58
s 0
f 591/399/58 548/372/666 529/367/661
f 547/235/58 325/235/667 321/231/431
s 1
f 324/232/439 325/235/667 592/353/579
f 580/394/662 591/399/667 529/367/661
s 0
f 593/353/668 594/354/530 592/353/58
s 1
f 594/354/529 323/234/669 324/232/439
s 0
f 590/394/58 583/394/58 582/395/58
s 1
f 589/354/359 441/318/359 442/319/359
f 35/28/670 8/6/3 19/17/18
f 17/16/671 22/20/21 24/22/23
f 17/16/671 24/22/23 18/13/16
f 67/45/69 5/5/672 159/66/114
f 5/5/672 41/31/673 159/66/114
f 41/31/37 42/32/38 142/95/166
f 47/33/674 19/17/18 52/37/49
f 50/34/675 146/36/46 150/99/175
f 48/35/47 55/24/32 54/38/8
f 58/41/55 60/40/54 62/44/62
f 61/43/60 63/44/81 72/4/73
f 71/1/74 5/5/676 65/45/69
f 64/43/67 67/45/69 66/46/68
f 84/60/95 83/59/94 86/61/161
f 87/26/97 86/61/161 135/62/160
f 97/46/112 210/140/269 98/67/116
f 56/39/53 101/70/119 107/74/677
f 56/39/53 107/74/677 103/71/123
s 0
f 112/79/8 131/79/130 123/87/140
f 248/170/331 247/85/327 595/170/8
s 1
f 123/87/140 129/90/678 124/88/141
f 149/98/450 343/247/453 327/236/449
f 147/97/172 169/102/188 172/113/213
f 153/101/187 177/115/217 169/102/210
f 166/108/679 338/242/447 164/107/461
f 363/242/680 355/258/462 338/242/447
f 162/105/267 230/159/310 94/65/115
f 168/110/209 176/114/223 179/117/220
f 179/117/220 176/114/223 276/196/364
f 182/119/226 186/42/111 98/67/229
f 213/143/681 446/322/532 209/141/274
f 214/144/279 215/145/280 482/343/560
f 222/147/300 206/139/266 196/127/240
f 224/154/320 359/261/465 236/163/492
f 254/176/132 257/179/144 261/182/344
f 268/188/352 261/182/344 260/181/682
f 286/205/376 272/192/359 316/210/385
f 282/201/370 273/193/358 285/204/683
f 285/204/372 286/205/373 289/208/384
f 426/303/517 289/208/384 318/230/427
f 272/192/359 311/225/417 316/210/385
f 318/230/522 317/209/435 323/234/436
f 294/212/389 295/213/390 304/217/632
