# Blender 5.1.2
# www.blender.org
mtllib Base.mtl
o Base
v 2.000000 0.249999 -2.000000
v 2.000000 0.250000 2.000000
v 2.000000 -0.250001 -2.000000
v 2.000000 -0.250000 2.000000
v -2.000000 0.250000 2.000000
v 2.000000 0.250000 2.000000
v -2.000000 0.249999 -2.000000
v 2.000000 0.249999 -2.000000
v 2.000000 0.250000 2.000000
v -2.000000 0.250000 2.000000
v 2.000000 -0.250000 2.000000
v -2.000000 -0.250000 2.000000
v -2.000000 0.250000 2.000000
v -2.000000 0.249999 -2.000000
v -2.000000 -0.250000 2.000000
v -2.000000 -0.250001 -2.000000
v -2.000000 -0.250001 -2.000000
v 2.000000 -0.250001 -2.000000
v -2.000000 -0.250000 2.000000
v 2.000000 -0.250000 2.000000
v -2.000000 0.249999 -2.000000
v 2.000000 0.249999 -2.000000
v -2.000000 -0.250001 -2.000000
v 2.000000 -0.250001 -2.000000
vn 1.0000 -0.0000 -0.0000
vn -0.0000 1.0000 -0.0000
vn -0.0000 -0.0000 1.0000
vn -1.0000 -0.0000 -0.0000
vn -0.0000 -1.0000 -0.0000
vn -0.0000 -0.0000 -1.0000
vt 0.068109 0.409877
vt -0.731891 0.409877
vt 0.068109 0.309877
vt -0.731891 0.309877
vt 0.068109 -0.390123
vt -0.731891 -0.390123
s 1
usemtl Base1Mtl
f 1/1/1 2/2/1 3/3/1
f 3/3/1 2/2/1 4/4/1
f 5/1/2 6/2/2 7/5/2
f 7/5/2 6/2/2 8/6/2
f 9/1/3 10/2/3 11/3/3
f 11/3/3 10/2/3 12/4/3
f 13/1/4 14/2/4 15/3/4
f 15/3/4 14/2/4 16/4/4
f 17/1/5 18/2/5 19/5/5
f 19/5/5 18/2/5 20/6/5
f 21/1/6 22/2/6 23/3/6
f 23/3/6 22/2/6 24/4/6
