# Blender 5.1.2
# www.blender.org
mtllib BeachBall.mtl
o BeachBall
v 0.157205 -1.086455 -0.070034
v 0.310535 -1.046165 -0.138336
v 0.332495 -1.046165 -0.070736
v 0.168315 -1.086455 -0.035835
v 0.139215 -1.086455 -0.101234
v 0.275005 -1.046165 -0.199837
v 0.115145 -1.086455 -0.127937
v 0.227455 -1.046165 -0.252636
v 0.086035 -1.086455 -0.149136
v 0.169965 -1.046165 -0.294437
v 0.053175 -1.086455 -0.163734
v 0.105045 -1.046165 -0.323337
v 0.017985 -1.086455 -0.171234
v 0.035535 -1.046165 -0.338135
v -0.017985 -1.086455 -0.171234
v -0.035535 -1.046165 -0.338135
v -0.053175 -1.086455 -0.163734
v -0.105045 -1.046165 -0.323337
v -0.086035 -1.086455 -0.149136
v -0.169955 -1.046165 -0.294437
v -0.115145 -1.086455 -0.127937
v -0.227445 -1.046165 -0.252636
v -0.139215 -1.086455 -0.101234
v -0.274995 -1.046165 -0.199837
v -0.157205 -1.086455 -0.070034
v -0.310535 -1.046165 -0.138336
v -0.168315 -1.086455 -0.035835
v -0.332485 -1.046165 -0.070736
v -0.172075 -1.086455 -0.000034
v -0.339915 -1.046165 -0.000034
v -0.168315 -1.086455 0.035664
v -0.332485 -1.046165 0.070564
v -0.157205 -1.086455 0.069965
v -0.310535 -1.046165 0.138165
v -0.139215 -1.086455 0.101063
v -0.274995 -1.046165 0.199764
v -0.115145 -1.086455 0.127865
v -0.227445 -1.046165 0.252564
v -0.086035 -1.086455 0.148964
v -0.169955 -1.046165 0.294365
v -0.053175 -1.086455 0.163563
v -0.105045 -1.046165 0.323265
v -0.017985 -1.086455 0.171063
v -0.035535 -1.046165 0.337963
v 0.017985 -1.086455 0.171063
v 0.035535 -1.046165 0.337963
v 0.053175 -1.086455 0.163563
v 0.105045 -1.046165 0.323265
v 0.086035 -1.086455 0.148964
v 0.169965 -1.046165 0.294365
v 0.115145 -1.086455 0.127865
v 0.227455 -1.046165 0.252564
v 0.139215 -1.086455 0.101063
v 0.275005 -1.046165 0.199764
v 0.157205 -1.086455 0.069965
v 0.310535 -1.046165 0.138165
v 0.168315 -1.086455 0.035664
v 0.332495 -1.046165 0.070564
v 0.172075 -1.086455 -0.000034
v 0.339915 -1.046165 -0.000034
v 0.310535 -1.046165 -0.138336
v 0.456215 -0.980105 -0.203236
v 0.488475 -0.980105 -0.103935
v 0.332495 -1.046165 -0.070736
v 0.275005 -1.046165 -0.199837
v 0.404015 -0.980105 -0.293636
v 0.227455 -1.046165 -0.252636
v 0.334155 -0.980105 -0.371136
v 0.404015 -0.980105 -0.293636
v 0.275005 -1.046165 -0.199837
v 0.169965 -1.046165 -0.294437
v 0.249695 -0.980105 -0.432537
v 0.105045 -1.046165 -0.323337
v 0.154325 -0.980105 -0.475037
v 0.035535 -1.046165 -0.338135
v 0.052205 -0.980105 -0.496735
v -0.035535 -1.046165 -0.338135
v -0.052195 -0.980105 -0.496735
v -0.105045 -1.046165 -0.323337
v -0.154315 -0.980105 -0.475037
v -0.052195 -0.980105 -0.496735
v -0.035535 -1.046165 -0.338135
v -0.169955 -1.046165 -0.294437
v -0.249695 -0.980105 -0.432537
v -0.227445 -1.046165 -0.252636
v -0.334155 -0.980105 -0.371136
v -0.274995 -1.046165 -0.199837
v -0.404015 -0.980105 -0.293636
v -0.310535 -1.046165 -0.138336
v -0.456215 -0.980105 -0.203236
v -0.332485 -1.046165 -0.070736
v -0.488475 -0.980105 -0.103935
v -0.456215 -0.980105 -0.203236
v -0.310535 -1.046165 -0.138336
v -0.339915 -1.046165 -0.000034
v -0.499385 -0.980105 -0.000034
v -0.332485 -1.046165 0.070564
v -0.488475 -0.980105 0.103764
v -0.310535 -1.046165 0.138165
v -0.456215 -0.980105 0.203064
v -0.274995 -1.046165 0.199764
v -0.404015 -0.980105 0.293465
v -0.227445 -1.046165 0.252564
v -0.334155 -0.980105 0.371063
v -0.404015 -0.980105 0.293465
v -0.274995 -1.046165 0.199764
v -0.169955 -1.046165 0.294365
v -0.249695 -0.980105 0.432465
v -0.105045 -1.046165 0.323265
v -0.154315 -0.980105 0.474865
v -0.035535 -1.046165 0.337963
v -0.052195 -0.980105 0.496563
v 0.035535 -1.046165 0.337963
v 0.052205 -0.980105 0.496563
v 0.105045 -1.046165 0.323265
v 0.154325 -0.980105 0.474865
v 0.052205 -0.980105 0.496563
v 0.035535 -1.046165 0.337963
v 0.169965 -1.046165 0.294365
v 0.249695 -0.980105 0.432465
v 0.227455 -1.046165 0.252564
v 0.334155 -0.980105 0.371063
v 0.275005 -1.046165 0.199764
v 0.404015 -0.980105 0.293465
v 0.310535 -1.046165 0.138165
v 0.456215 -0.980105 0.203064
v 0.332495 -1.046165 0.070564
v 0.488475 -0.980105 0.103764
v 0.456215 -0.980105 0.203064
v 0.310535 -1.046165 0.138165
v 0.339915 -1.046165 -0.000034
v 0.499395 -0.980105 -0.000034
v 0.590665 -0.889925 -0.263035
v 0.632435 -0.889925 -0.134537
v 0.523085 -0.889925 -0.380135
v 0.432635 -0.889925 -0.480537
v 0.523085 -0.889925 -0.380135
v 0.323285 -0.889925 -0.560036
v 0.199805 -0.889925 -0.614937
v 0.067585 -0.889925 -0.643036
v -0.067585 -0.889925 -0.643036
v -0.199795 -0.889925 -0.614937
v -0.067585 -0.889925 -0.643036
v -0.323285 -0.889925 -0.560036
v -0.432635 -0.889925 -0.480537
v -0.523085 -0.889925 -0.380135
v -0.590665 -0.889925 -0.263035
v -0.632435 -0.889925 -0.134537
v -0.590665 -0.889925 -0.263035
v -0.646565 -0.889925 -0.000034
v -0.632435 -0.889925 0.134365
v -0.590665 -0.889925 0.262962
v -0.523085 -0.889925 0.379963
v -0.432635 -0.889925 0.480465
v -0.523085 -0.889925 0.379963
v -0.323285 -0.889925 0.559864
v -0.199795 -0.889925 0.614864
v -0.067585 -0.889925 0.642963
v 0.067585 -0.889925 0.642963
v 0.199805 -0.889925 0.614864
v 0.067585 -0.889925 0.642963
v 0.323285 -0.889925 0.559864
v 0.432635 -0.889925 0.480465
v 0.523085 -0.889925 0.379963
v 0.590665 -0.889925 0.262962
v 0.632435 -0.889925 0.134365
v 0.590665 -0.889925 0.262962
v 0.646565 -0.889925 -0.000034
v 0.710575 -0.777815 -0.316437
v 0.760825 -0.777815 -0.161735
v 0.629265 -0.777815 -0.457237
v 0.520465 -0.777815 -0.578136
v 0.629265 -0.777815 -0.457237
v 0.388905 -0.777815 -0.673637
v 0.240355 -0.777815 -0.739838
v 0.081305 -0.777815 -0.773636
v -0.081305 -0.777815 -0.773636
v -0.240355 -0.777815 -0.739838
v -0.081305 -0.777815 -0.773636
v -0.388905 -0.777815 -0.673637
v -0.520465 -0.777815 -0.578136
v -0.629265 -0.777815 -0.457237
v -0.710575 -0.777815 -0.316437
v -0.760815 -0.777815 -0.161735
v -0.710575 -0.777815 -0.316437
v -0.777815 -0.777815 -0.000034
v -0.760815 -0.777815 0.161663
v -0.710575 -0.777815 0.316265
v -0.629265 -0.777815 0.457165
v -0.520465 -0.777815 0.577965
v -0.629265 -0.777815 0.457165
v -0.388905 -0.777815 0.673565
v -0.240355 -0.777815 0.739666
v -0.081305 -0.777815 0.773464
v 0.081305 -0.777815 0.773464
v 0.240355 -0.777815 0.739666
v 0.081305 -0.777815 0.773464
v 0.388905 -0.777815 0.673565
v 0.520465 -0.777815 0.577965
v 0.629265 -0.777815 0.457165
v 0.710575 -0.777815 0.316265
v 0.760825 -0.777815 0.161663
v 0.710575 -0.777815 0.316265
v 0.777815 -0.777815 -0.000034
v 0.812985 -0.646565 -0.362038
v 0.870475 -0.646565 -0.185135
v 0.719965 -0.646565 -0.523136
v 0.595475 -0.646565 -0.661434
v 0.719965 -0.646565 -0.523136
v 0.444965 -0.646565 -0.770737
v 0.275005 -0.646565 -0.846435
v 0.093025 -0.646565 -0.885136
v -0.093025 -0.646565 -0.885136
v -0.274995 -0.646565 -0.846435
v -0.093025 -0.646565 -0.885136
v -0.444955 -0.646565 -0.770737
v -0.595475 -0.646565 -0.661434
v -0.719955 -0.646565 -0.523136
v -0.812985 -0.646565 -0.362038
v -0.870475 -0.646565 -0.185135
v -0.812985 -0.646565 -0.362038
v -0.889915 -0.646565 -0.000034
v -0.870475 -0.646565 0.184963
v -0.812985 -0.646565 0.361866
v -0.719955 -0.646565 0.523064
v -0.595475 -0.646565 0.661263
v -0.719955 -0.646565 0.523064
v -0.444955 -0.646565 0.770664
v -0.274995 -0.646565 0.846264
v -0.093025 -0.646565 0.884964
v 0.093025 -0.646565 0.884964
v 0.275005 -0.646565 0.846264
v 0.093025 -0.646565 0.884964
v 0.444965 -0.646565 0.770664
v 0.595475 -0.646565 0.661263
v 0.719965 -0.646565 0.523064
v 0.812985 -0.646565 0.361866
v 0.870475 -0.646565 0.184963
v 0.812985 -0.646565 0.361866
v 0.889915 -0.646565 -0.000034
v 0.895375 -0.499395 -0.398735
v 0.958695 -0.499395 -0.203834
v 0.792925 -0.499395 -0.576137
v 0.655825 -0.499395 -0.728435
v 0.792925 -0.499395 -0.576137
v 0.490055 -0.499395 -0.848835
v 0.302875 -0.499395 -0.932236
v 0.102445 -0.499395 -0.974834
v -0.102445 -0.499395 -0.974834
v -0.302865 -0.499395 -0.932236
v -0.102445 -0.499395 -0.974834
v -0.490055 -0.499395 -0.848835
v -0.655815 -0.499395 -0.728435
v -0.792925 -0.499395 -0.576137
v -0.895375 -0.499395 -0.398735
v -0.958685 -0.499395 -0.203834
v -0.895375 -0.499395 -0.398735
v -0.980105 -0.499395 -0.000034
v -0.958685 -0.499395 0.203663
v -0.895375 -0.499395 0.398563
v -0.792925 -0.499395 0.576065
v -0.655815 -0.499395 0.728264
v -0.792925 -0.499395 0.576065
v -0.490055 -0.499395 0.848763
v -0.302865 -0.499395 0.932064
v -0.102445 -0.499395 0.974663
v 0.102445 -0.499395 0.974663
v 0.302875 -0.499395 0.932064
v 0.102445 -0.499395 0.974663
v 0.490055 -0.499395 0.848763
v 0.655825 -0.499395 0.728264
v 0.792925 -0.499395 0.576065
v 0.895375 -0.499395 0.398563
v 0.958695 -0.499395 0.203663
v 0.895375 -0.499395 0.398563
v 0.980105 -0.499395 -0.000034
v 0.955715 -0.339925 -0.425537
v 1.023305 -0.339925 -0.217537
v 0.846365 -0.339925 -0.614937
v 0.700025 -0.339925 -0.777534
v 0.846365 -0.339925 -0.614937
v 0.523085 -0.339925 -0.906036
v 0.323285 -0.339925 -0.995037
v 0.109355 -0.339925 -1.040535
v -0.109355 -0.339925 -1.040535
v -0.323285 -0.339925 -0.995037
v -0.109355 -0.339925 -1.040535
v -0.523085 -0.339925 -0.906036
v -0.700015 -0.339925 -0.777534
v -0.846365 -0.339925 -0.614937
v -0.955715 -0.339925 -0.425537
v -1.023305 -0.339925 -0.217537
v -0.955715 -0.339925 -0.425537
v -1.046165 -0.339925 -0.000034
v -1.023305 -0.339925 0.217464
v -0.955715 -0.339925 0.425465
v -0.846365 -0.339925 0.614864
v -0.700015 -0.339925 0.777363
v -0.846365 -0.339925 0.614864
v -0.523085 -0.339925 0.905964
v -0.323285 -0.339925 0.994865
v -0.109355 -0.339925 1.040363
v 0.109355 -0.339925 1.040363
v 0.323285 -0.339925 0.994865
v 0.109355 -0.339925 1.040363
v 0.523085 -0.339925 0.905964
v 0.700015 -0.339925 0.777363
v 0.846365 -0.339925 0.614864
v 0.955715 -0.339925 0.425465
v 1.023305 -0.339925 0.217464
v 0.955715 -0.339925 0.425465
v 1.046165 -0.339925 -0.000034
v 0.992525 -0.172075 -0.441936
v 1.062715 -0.172075 -0.225937
v 0.878965 -0.172075 -0.638638
v 0.726985 -0.172075 -0.807434
v 0.878965 -0.172075 -0.638638
v 0.543235 -0.172075 -0.940937
v 0.335735 -0.172075 -1.033337
v 0.113565 -0.172075 -1.080536
v -0.113565 -0.172075 -1.080536
v -0.335735 -0.172075 -1.033337
v -0.113565 -0.172075 -1.080536
v -0.543225 -0.172075 -0.940937
v -0.726985 -0.172075 -0.807434
v -0.878965 -0.172075 -0.638638
v -0.992525 -0.172075 -0.441936
v -1.062715 -0.172075 -0.225937
v -0.992525 -0.172075 -0.441936
v -1.086455 -0.172075 -0.000034
v -1.062715 -0.172075 0.225864
v -0.992525 -0.172075 0.441864
v -0.878965 -0.172075 0.638565
v -0.726985 -0.172075 0.807365
v -0.878965 -0.172075 0.638565
v -0.543225 -0.172075 0.940865
v -0.335735 -0.172075 1.033264
v -0.113565 -0.172075 1.080463
v 0.113565 -0.172075 1.080463
v 0.335735 -0.172075 1.033264
v 0.113565 -0.172075 1.080463
v 0.543225 -0.172075 0.940865
v 0.726985 -0.172075 0.807365
v 0.878965 -0.172075 0.638565
v 0.992525 -0.172075 0.441864
v 1.062715 -0.172075 0.225864
v 0.992525 -0.172075 0.441864
v 1.086455 -0.172075 -0.000034
v 1.004905 -0.000005 -0.447437
v 1.075965 -0.000005 -0.228737
v 0.889925 -0.000005 -0.646637
v 0.736045 -0.000005 -0.817535
v 0.889925 -0.000005 -0.646637
v 0.550005 -0.000005 -0.952736
v 0.339915 -0.000005 -1.046234
v 0.114985 -0.000005 -1.094036
v -0.114985 -0.000005 -1.094036
v -0.339915 -0.000005 -1.046234
v -0.114985 -0.000005 -1.094036
v -0.549995 -0.000005 -0.952736
v -0.736045 -0.000005 -0.817535
v -0.889915 -0.000005 -0.646637
v -1.004905 -0.000005 -0.447437
v -1.075965 -0.000005 -0.228737
v -1.004905 -0.000005 -0.447437
v -1.099995 -0.000005 -0.000034
v -1.075965 -0.000005 0.228664
v -1.004905 -0.000005 0.447365
v -0.889915 -0.000005 0.646465
v -0.736045 -0.000005 0.817364
v -0.889915 -0.000005 0.646465
v -0.549995 -0.000005 0.952564
v -0.339915 -0.000005 1.046062
v -0.114985 -0.000005 1.093864
v 0.114985 -0.000005 1.093864
v 0.339915 -0.000005 1.046062
v 0.114985 -0.000005 1.093864
v 0.550005 -0.000005 0.952564
v 0.736045 -0.000005 0.817364
v 0.889915 -0.000005 0.646465
v 1.004905 -0.000005 0.447365
v 1.075965 -0.000005 0.228664
v 1.004905 -0.000005 0.447365
v 1.100005 -0.000005 -0.000034
v 0.992525 0.172075 -0.441936
v 1.062715 0.172075 -0.225937
v 0.878965 0.172075 -0.638638
v 0.726985 0.172075 -0.807434
v 0.878965 0.172075 -0.638638
v 0.543235 0.172075 -0.940937
v 0.335735 0.172075 -1.033337
v 0.113565 0.172075 -1.080536
v -0.113565 0.172075 -1.080536
v -0.335735 0.172075 -1.033337
v -0.113565 0.172075 -1.080536
v -0.543225 0.172075 -0.940937
v -0.726985 0.172075 -0.807434
v -0.878965 0.172075 -0.638638
v -0.992525 0.172075 -0.441936
v -1.062715 0.172075 -0.225937
v -0.992525 0.172075 -0.441936
v -1.086455 0.172075 -0.000034
v -1.062715 0.172075 0.225864
v -0.992525 0.172075 0.441864
v -0.878965 0.172075 0.638565
v -0.726985 0.172075 0.807365
v -0.878965 0.172075 0.638565
v -0.543225 0.172075 0.940865
v -0.335735 0.172075 1.033264
v -0.113565 0.172075 1.080463
v 0.113565 0.172075 1.080463
v 0.335735 0.172075 1.033264
v 0.113565 0.172075 1.080463
v 0.543225 0.172075 0.940865
v 0.726985 0.172075 0.807365
v 0.878965 0.172075 0.638565
v 0.992525 0.172075 0.441864
v 1.062715 0.172075 0.225864
v 0.992525 0.172075 0.441864
v 1.086455 0.172075 -0.000034
v 0.955715 0.339915 -0.425537
v 1.023305 0.339915 -0.217537
v 0.846365 0.339915 -0.614937
v 0.700025 0.339915 -0.777534
v 0.846365 0.339915 -0.614937
v 0.523085 0.339915 -0.906036
v 0.323285 0.339915 -0.995037
v 0.109355 0.339915 -1.040535
v -0.109355 0.339915 -1.040535
v -0.323285 0.339915 -0.995037
v -0.109355 0.339915 -1.040535
v -0.523085 0.339915 -0.906036
v -0.700015 0.339915 -0.777534
v -0.846365 0.339915 -0.614937
v -0.955715 0.339915 -0.425537
v -1.023305 0.339915 -0.217537
v -0.955715 0.339915 -0.425537
v -1.046165 0.339915 -0.000034
v -1.023305 0.339915 0.217464
v -0.955715 0.339915 0.425465
v -0.846365 0.339915 0.614864
v -0.700015 0.339915 0.777363
v -0.846365 0.339915 0.614864
v -0.523085 0.339915 0.905964
v -0.323285 0.339915 0.994865
v -0.109355 0.339915 1.040363
v 0.109355 0.339915 1.040363
v 0.323285 0.339915 0.994865
v 0.109355 0.339915 1.040363
v 0.523085 0.339915 0.905964
v 0.700015 0.339915 0.777363
v 0.846365 0.339915 0.614864
v 0.955715 0.339915 0.425465
v 1.023305 0.339915 0.217464
v 0.955715 0.339915 0.425465
v 1.046165 0.339915 -0.000034
v 0.895375 0.499385 -0.398735
v 0.958695 0.499385 -0.203835
v 0.792925 0.499385 -0.576138
v 0.655825 0.499385 -0.728436
v 0.792925 0.499385 -0.576138
v 0.490055 0.499385 -0.848835
v 0.302875 0.499385 -0.932236
v 0.102445 0.499385 -0.974835
v -0.102445 0.499385 -0.974835
v -0.302865 0.499385 -0.932236
v -0.102445 0.499385 -0.974835
v -0.490055 0.499385 -0.848835
v -0.655815 0.499385 -0.728436
v -0.792925 0.499385 -0.576138
v -0.895375 0.499385 -0.398735
v -0.958685 0.499385 -0.203835
v -0.895375 0.499385 -0.398735
v -0.980105 0.499385 -0.000034
v -0.958685 0.499385 0.203663
v -0.895375 0.499385 0.398563
v -0.792925 0.499385 0.576065
v -0.655815 0.499385 0.728264
v -0.792925 0.499385 0.576065
v -0.490055 0.499385 0.848762
v -0.302865 0.499385 0.932064
v -0.102445 0.499385 0.974663
v 0.102445 0.499385 0.974663
v 0.302875 0.499385 0.932064
v 0.102445 0.499385 0.974663
v 0.490055 0.499385 0.848762
v 0.655825 0.499385 0.728264
v 0.792925 0.499385 0.576065
v 0.895375 0.499385 0.398563
v 0.958695 0.499385 0.203663
v 0.895375 0.499385 0.398563
v 0.980105 0.499385 -0.000034
v 0.812985 0.646565 -0.362038
v 0.870475 0.646565 -0.185135
v 0.719965 0.646565 -0.523136
v 0.595475 0.646565 -0.661434
v 0.719965 0.646565 -0.523136
v 0.444965 0.646565 -0.770737
v 0.275005 0.646565 -0.846436
v 0.093025 0.646565 -0.885136
v -0.093025 0.646565 -0.885136
v -0.274995 0.646565 -0.846436
v -0.093025 0.646565 -0.885136
v -0.444955 0.646565 -0.770737
v -0.595475 0.646565 -0.661434
v -0.719955 0.646565 -0.523136
v -0.812985 0.646565 -0.362038
v -0.870475 0.646565 -0.185135
v -0.812985 0.646565 -0.362038
v -0.889915 0.646565 -0.000034
v -0.870475 0.646565 0.184963
v -0.812985 0.646565 0.361866
v -0.719955 0.646565 0.522964
v -0.595475 0.646565 0.661262
v -0.719955 0.646565 0.522964
v -0.444955 0.646565 0.770664
v -0.274995 0.646565 0.846264
v -0.093025 0.646565 0.884964
v 0.093025 0.646565 0.884964
v 0.275005 0.646565 0.846264
v 0.093025 0.646565 0.884964
v 0.444965 0.646565 0.770664
v 0.595475 0.646565 0.661262
v 0.719965 0.646565 0.522964
v 0.812985 0.646565 0.361866
v 0.870475 0.646565 0.184963
v 0.812985 0.646565 0.361866
v 0.889915 0.646565 -0.000034
v 0.710575 0.777815 -0.316437
v 0.760825 0.777815 -0.161736
v 0.629265 0.777815 -0.457237
v 0.520465 0.777815 -0.578137
v 0.629265 0.777815 -0.457237
v 0.388905 0.777815 -0.673637
v 0.240355 0.777815 -0.739838
v 0.081305 0.777815 -0.773636
v -0.081305 0.777815 -0.773636
v -0.240355 0.777815 -0.739838
v -0.081305 0.777815 -0.773636
v -0.388905 0.777815 -0.673637
v -0.520465 0.777815 -0.578137
v -0.629265 0.777815 -0.457237
v -0.710575 0.777815 -0.316437
v -0.760815 0.777815 -0.161736
v -0.710575 0.777815 -0.316437
v -0.777815 0.777815 -0.000034
v -0.760815 0.777815 0.161663
v -0.710575 0.777815 0.316265
v -0.629265 0.777815 0.457165
v -0.520465 0.777815 0.577965
v -0.629265 0.777815 0.457165
v -0.388905 0.777815 0.673565
v -0.240355 0.777815 0.739666
v -0.081305 0.777815 0.773464
v 0.081305 0.777815 0.773464
v 0.240355 0.777815 0.739666
v 0.081305 0.777815 0.773464
v 0.388905 0.777815 0.673565
v 0.520465 0.777815 0.577965
v 0.629265 0.777815 0.457165
v 0.710575 0.777815 0.316265
v 0.760825 0.777815 0.161663
v 0.710575 0.777815 0.316265
v 0.777815 0.777815 -0.000034
v 0.590665 0.889915 -0.263035
v 0.632435 0.889915 -0.134537
v 0.523085 0.889915 -0.380135
v 0.432635 0.889915 -0.480537
v 0.523085 0.889915 -0.380135
v 0.323285 0.889915 -0.560036
v 0.199805 0.889915 -0.614937
v 0.067585 0.889915 -0.643135
v -0.067585 0.889915 -0.643135
v -0.199795 0.889915 -0.614937
v -0.067585 0.889915 -0.643135
v -0.323285 0.889915 -0.560036
v -0.432635 0.889915 -0.480537
v -0.523085 0.889915 -0.380135
v -0.590665 0.889915 -0.263035
v -0.632435 0.889915 -0.134537
v -0.590665 0.889915 -0.263035
v -0.646565 0.889915 -0.000034
v -0.632435 0.889915 0.134365
v -0.590665 0.889915 0.262962
v -0.523085 0.889915 0.379963
v -0.432635 0.889915 0.480465
v -0.523085 0.889915 0.379963
v -0.323285 0.889915 0.559864
v -0.199795 0.889915 0.614864
v -0.067585 0.889915 0.642963
v 0.067585 0.889915 0.642963
v 0.199805 0.889915 0.614864
v 0.067585 0.889915 0.642963
v 0.323285 0.889915 0.559864
v 0.432635 0.889915 0.480465
v 0.523085 0.889915 0.379963
v 0.590665 0.889915 0.262962
v 0.632435 0.889915 0.134365
v 0.590665 0.889915 0.262962
v 0.646565 0.889915 -0.000034
v 0.456215 0.980105 -0.203236
v 0.488475 0.980105 -0.103935
v 0.404015 0.980105 -0.293636
v 0.334155 0.980105 -0.371136
v 0.404015 0.980105 -0.293636
v 0.249695 0.980105 -0.432537
v 0.154325 0.980105 -0.475037
v 0.052205 0.980105 -0.496735
v -0.052195 0.980105 -0.496735
v -0.154315 0.980105 -0.475037
v -0.052195 0.980105 -0.496735
v -0.249695 0.980105 -0.432537
v -0.334155 0.980105 -0.371136
v -0.404015 0.980105 -0.293636
v -0.456215 0.980105 -0.203236
v -0.488475 0.980105 -0.103935
v -0.456215 0.980105 -0.203236
v -0.499385 0.980105 -0.000034
v -0.488475 0.980105 0.103764
v -0.456215 0.980105 0.203064
v -0.404015 0.980105 0.293465
v -0.334155 0.980105 0.371063
v -0.404015 0.980105 0.293465
v -0.249695 0.980105 0.432465
v -0.154315 0.980105 0.474865
v -0.052195 0.980105 0.496563
v 0.052205 0.980105 0.496563
v 0.154325 0.980105 0.474865
v 0.052205 0.980105 0.496563
v 0.249695 0.980105 0.432465
v 0.334155 0.980105 0.371063
v 0.404015 0.980105 0.293465
v 0.456215 0.980105 0.203064
v 0.488475 0.980105 0.103764
v 0.456215 0.980105 0.203064
v 0.499395 0.980105 -0.000034
v 0.310535 1.046165 -0.138336
v 0.332495 1.046165 -0.070736
v 0.275005 1.046165 -0.199837
v 0.227455 1.046165 -0.252636
v 0.275005 1.046165 -0.199837
v 0.169965 1.046165 -0.294437
v 0.105045 1.046165 -0.323338
v 0.035535 1.046165 -0.338135
v -0.035535 1.046165 -0.338135
v -0.105045 1.046165 -0.323338
v -0.035535 1.046165 -0.338135
v -0.169955 1.046165 -0.294437
v -0.227445 1.046165 -0.252636
v -0.274995 1.046165 -0.199837
v -0.310535 1.046165 -0.138336
v -0.332485 1.046165 -0.070736
v -0.310535 1.046165 -0.138336
v -0.339915 1.046165 -0.000034
v -0.332485 1.046165 0.070564
v -0.310535 1.046165 0.138164
v -0.274995 1.046165 0.199764
v -0.227445 1.046165 0.252563
v -0.274995 1.046165 0.199764
v -0.169955 1.046165 0.294365
v -0.105045 1.046165 0.323265
v -0.035535 1.046165 0.337963
v 0.035535 1.046165 0.337963
v 0.105045 1.046165 0.323265
v 0.035535 1.046165 0.337963
v 0.169965 1.046165 0.294365
v 0.227455 1.046165 0.252563
v 0.275005 1.046165 0.199764
v 0.310535 1.046165 0.138164
v 0.332495 1.046165 0.070564
v 0.310535 1.046165 0.138164
v 0.339915 1.046165 -0.000034
v 0.310535 1.046165 -0.138336
v 0.157205 1.086455 -0.070034
v 0.168315 1.086455 -0.035835
v 0.332495 1.046165 -0.070736
v 0.275005 1.046165 -0.199837
v 0.139215 1.086455 -0.101235
v 0.227455 1.046165 -0.252636
v 0.115145 1.086455 -0.127937
v 0.169965 1.046165 -0.294437
v 0.086035 1.086455 -0.149136
v 0.105045 1.046165 -0.323338
v 0.053175 1.086455 -0.163735
v 0.035535 1.046165 -0.338135
v 0.017985 1.086455 -0.171234
v -0.035535 1.046165 -0.338135
v -0.017985 1.086455 -0.171234
v -0.105045 1.046165 -0.323338
v -0.053175 1.086455 -0.163735
v -0.169955 1.046165 -0.294437
v -0.086035 1.086455 -0.149136
v -0.227445 1.046165 -0.252636
v -0.115145 1.086455 -0.127937
v -0.274995 1.046165 -0.199837
v -0.139215 1.086455 -0.101235
v -0.310535 1.046165 -0.138336
v -0.157205 1.086455 -0.070034
v -0.332485 1.046165 -0.070736
v -0.168315 1.086455 -0.035835
v -0.339915 1.046165 -0.000034
v -0.172075 1.086455 -0.000034
v -0.332485 1.046165 0.070564
v -0.168315 1.086455 0.035664
v -0.310535 1.046165 0.138164
v -0.157205 1.086455 0.069965
v -0.274995 1.046165 0.199764
v -0.139215 1.086455 0.101063
v -0.227445 1.046165 0.252563
v -0.115145 1.086455 0.127865
v -0.169955 1.046165 0.294365
v -0.086035 1.086455 0.148964
v -0.105045 1.046165 0.323265
v -0.053175 1.086455 0.163563
v -0.035535 1.046165 0.337963
v -0.017985 1.086455 0.171062
v 0.035535 1.046165 0.337963
v 0.017985 1.086455 0.171062
v 0.105045 1.046165 0.323265
v 0.053175 1.086455 0.163563
v 0.169965 1.046165 0.294365
v 0.086035 1.086455 0.148964
v 0.227455 1.046165 0.252563
v 0.115145 1.086455 0.127865
v 0.275005 1.046165 0.199764
v 0.139215 1.086455 0.101063
v 0.310535 1.046165 0.138164
v 0.157205 1.086455 0.069965
v 0.332495 1.046165 0.070564
v 0.168315 1.086455 0.035664
v 0.339915 1.046165 -0.000034
v 0.172075 1.086455 -0.000034
v 0.000005 -1.100005 -0.000034
v 0.000005 1.099995 -0.000034
vn 0.2214 -0.9726 -0.0712
vn 0.2053 -0.9715 -0.1185
vn 0.2054 -0.9715 -0.1185
vn 0.1738 -0.9720 -0.1580
vn 0.1738 -0.9720 -0.1581
vn 0.1421 -0.9715 -0.1895
vn 0.1422 -0.9715 -0.1896
vn 0.0949 -0.9723 -0.2134
vn 0.0474 -0.9722 -0.2292
vn -0.0000 -0.9715 -0.2370
vn -0.0474 -0.9722 -0.2292
vn -0.0949 -0.9723 -0.2134
vn -0.1422 -0.9715 -0.1896
vn -0.1422 -0.9715 -0.1895
vn -0.1739 -0.9720 -0.1580
vn -0.1738 -0.9720 -0.1581
vn -0.2053 -0.9715 -0.1184
vn -0.2054 -0.9715 -0.1185
vn -0.2214 -0.9726 -0.0711
vn -0.2214 -0.9726 -0.0712
vn -0.2369 -0.9713 -0.0237
vn -0.2369 -0.9712 -0.0237
vn -0.2369 -0.9713 0.0237
vn -0.2369 -0.9712 0.0237
vn -0.2214 -0.9726 0.0712
vn -0.2211 -0.9727 0.0711
vn -0.2053 -0.9715 0.1185
vn -0.2054 -0.9715 0.1185
vn -0.1738 -0.9720 0.1580
vn -0.1739 -0.9720 0.1580
vn -0.1421 -0.9715 0.1895
vn -0.1422 -0.9715 0.1896
vn -0.0948 -0.9723 0.2134
vn -0.0474 -0.9722 0.2292
vn -0.0000 -0.9715 0.2369
vn -0.0000 -0.9715 0.2370
vn 0.0474 -0.9722 0.2292
vn 0.0475 -0.9722 0.2292
vn 0.0949 -0.9723 0.2134
vn 0.1422 -0.9715 0.1896
vn 0.1738 -0.9720 0.1580
vn 0.1739 -0.9720 0.1580
vn 0.2053 -0.9715 0.1185
vn 0.2054 -0.9715 0.1185
vn 0.2214 -0.9726 0.0711
vn 0.2369 -0.9713 0.0237
vn 0.2369 -0.9712 0.0237
vn 0.3634 -0.9241 -0.1185
vn 0.3318 -0.9241 -0.1896
vn 0.1739 -0.9720 -0.1581
vn 0.2840 -0.9228 -0.2603
vn 0.3317 -0.9241 -0.1896
vn 0.2283 -0.9212 -0.3150
vn 0.0949 -0.9723 -0.2135
vn 0.1575 -0.9217 -0.3545
vn 0.0788 -0.9223 -0.3784
vn -0.0000 -0.9224 -0.3863
vn -0.0475 -0.9722 -0.2293
vn -0.0788 -0.9223 -0.3784
vn -0.0949 -0.9723 -0.2135
vn -0.1576 -0.9217 -0.3545
vn -0.2284 -0.9212 -0.3150
vn -0.1739 -0.9720 -0.1581
vn -0.2840 -0.9228 -0.2603
vn -0.3318 -0.9241 -0.1896
vn -0.3634 -0.9241 -0.1185
vn -0.3860 -0.9217 -0.0394
vn -0.3860 -0.9216 0.0394
vn -0.3633 -0.9241 0.1185
vn -0.3318 -0.9241 0.1896
vn -0.1739 -0.9720 0.1581
vn -0.2840 -0.9228 0.2603
vn -0.3317 -0.9241 0.1896
vn -0.2283 -0.9212 0.3150
vn -0.0949 -0.9723 0.2135
vn -0.1576 -0.9217 0.3545
vn -0.0788 -0.9223 0.3784
vn -0.0000 -0.9224 0.3863
vn 0.0475 -0.9722 0.2293
vn 0.0789 -0.9223 0.3784
vn 0.0949 -0.9723 0.2135
vn 0.1576 -0.9217 0.3545
vn 0.2283 -0.9212 0.3150
vn 0.1739 -0.9720 0.1581
vn 0.2840 -0.9228 0.2603
vn 0.3317 -0.9241 0.1896
vn 0.2214 -0.9726 0.0712
vn 0.3633 -0.9241 0.1185
vn 0.3318 -0.9241 0.1896
vn 0.3860 -0.9217 0.0394
vn 0.4969 -0.8518 -0.1657
vn 0.4969 -0.8518 -0.1656
vn 0.4569 -0.8507 -0.2600
vn 0.3930 -0.8488 -0.3537
vn 0.3074 -0.8511 -0.4256
vn 0.2127 -0.8508 -0.4806
vn 0.1104 -0.8516 -0.5125
vn -0.0000 -0.8498 -0.5272
vn -0.1104 -0.8515 -0.5125
vn -0.2127 -0.8508 -0.4805
vn -0.3074 -0.8511 -0.4256
vn -0.3930 -0.8488 -0.3537
vn -0.4569 -0.8507 -0.2600
vn -0.4969 -0.8518 -0.1656
vn -0.4569 -0.8507 -0.2599
vn -0.5207 -0.8520 -0.0552
vn -0.5207 -0.8520 0.0552
vn -0.4969 -0.8518 0.1657
vn -0.4569 -0.8507 0.2600
vn -0.3930 -0.8488 0.3537
vn -0.3073 -0.8511 0.4256
vn -0.2127 -0.8508 0.4806
vn -0.1104 -0.8515 0.5125
vn -0.0000 -0.8498 0.5272
vn 0.1104 -0.8515 0.5125
vn -0.0000 -0.8497 0.5272
vn 0.2127 -0.8508 0.4805
vn 0.3074 -0.8511 0.4256
vn 0.3930 -0.8488 0.3537
vn 0.4569 -0.8507 0.2600
vn 0.4969 -0.8518 0.1656
vn 0.4569 -0.8507 0.2599
vn 0.5207 -0.8520 0.0552
vn 0.6220 -0.7558 -0.2047
vn 0.5678 -0.7570 -0.3233
vn 0.4828 -0.7598 -0.4354
vn 0.3861 -0.7564 -0.5279
vn 0.2675 -0.7555 -0.5981
vn 0.1341 -0.7574 -0.6391
vn -0.0000 -0.7565 -0.6540
vn -0.1342 -0.7574 -0.6391
vn -0.0001 -0.7565 -0.6540
vn -0.2676 -0.7555 -0.5981
vn -0.3861 -0.7564 -0.5279
vn -0.4828 -0.7599 -0.4353
vn -0.5678 -0.7570 -0.3233
vn -0.6220 -0.7558 -0.2047
vn -0.6479 -0.7584 -0.0711
vn -0.6478 -0.7584 0.0711
vn -0.6220 -0.7558 0.2047
vn -0.5678 -0.7570 0.3233
vn -0.4828 -0.7598 0.4354
vn -0.5678 -0.7570 0.3234
vn -0.3861 -0.7564 0.5280
vn -0.2675 -0.7555 0.5981
vn -0.1341 -0.7574 0.6391
vn -0.0000 -0.7565 0.6540
vn 0.1341 -0.7574 0.6391
vn 0.2676 -0.7554 0.5981
vn 0.3861 -0.7564 0.5279
vn 0.4829 -0.7598 0.4353
vn 0.5678 -0.7570 0.3233
vn 0.6220 -0.7558 0.2047
vn 0.6479 -0.7584 0.0711
vn 0.7253 -0.6465 -0.2366
vn 0.7253 -0.6465 -0.2365
vn 0.6623 -0.6466 -0.3785
vn 0.5669 -0.6456 -0.5118
vn 0.4498 -0.6471 -0.6156
vn 0.3084 -0.6485 -0.6959
vn 0.1574 -0.6453 -0.7476
vn -0.0000 -0.6456 -0.7637
vn -0.1574 -0.6452 -0.7476
vn -0.3084 -0.6485 -0.6959
vn -0.4499 -0.6471 -0.6155
vn -0.5669 -0.6456 -0.5117
vn -0.6624 -0.6466 -0.3785
vn -0.7254 -0.6465 -0.2365
vn -0.6624 -0.6466 -0.3784
vn -0.7580 -0.6474 -0.0789
vn -0.7580 -0.6475 0.0790
vn -0.7253 -0.6465 0.2365
vn -0.6624 -0.6466 0.3785
vn -0.5669 -0.6456 0.5118
vn -0.6623 -0.6466 0.3785
vn -0.4498 -0.6471 0.6156
vn -0.3084 -0.6485 0.6960
vn -0.1574 -0.6453 0.7476
vn -0.0000 -0.6456 0.7637
vn 0.1574 -0.6453 0.7476
vn 0.0001 -0.6456 0.7637
vn 0.3085 -0.6485 0.6959
vn 0.4499 -0.6471 0.6155
vn 0.5669 -0.6456 0.5117
vn 0.6623 -0.6466 0.3785
vn 0.7253 -0.6465 0.2365
vn 0.6624 -0.6466 0.3784
vn 0.7580 -0.6475 0.0789
vn 0.8112 -0.5198 -0.2678
vn 0.7406 -0.5200 -0.4255
vn 0.6355 -0.5178 -0.5728
vn 0.5029 -0.5186 -0.6915
vn 0.3468 -0.5203 -0.7804
vn 0.1811 -0.5198 -0.8349
vn -0.0000 -0.5214 -0.8533
vn -0.1812 -0.5198 -0.8349
vn -0.0001 -0.5214 -0.8533
vn -0.3469 -0.5203 -0.7804
vn -0.5029 -0.5186 -0.6915
vn -0.6355 -0.5178 -0.5727
vn -0.7406 -0.5200 -0.4255
vn -0.8112 -0.5198 -0.2678
vn -0.7407 -0.5200 -0.4254
vn -0.8501 -0.5195 -0.0866
vn -0.8501 -0.5195 0.0866
vn -0.8112 -0.5198 0.2678
vn -0.7407 -0.5200 0.4255
vn -0.6355 -0.5178 0.5728
vn -0.7406 -0.5200 0.4255
vn -0.5029 -0.5186 0.6915
vn -0.3468 -0.5203 0.7804
vn -0.1811 -0.5198 0.8349
vn -0.0000 -0.5214 0.8533
vn 0.1812 -0.5198 0.8349
vn 0.0001 -0.5214 0.8533
vn 0.3469 -0.5202 0.7804
vn 0.5029 -0.5186 0.6915
vn 0.6355 -0.5178 0.5727
vn 0.7406 -0.5200 0.4255
vn 0.8113 -0.5198 0.2677
vn 0.7407 -0.5200 0.4254
vn 0.8501 -0.5195 0.0865
vn 0.8815 -0.3778 -0.2834
vn 0.8815 -0.3777 -0.2833
vn 0.8017 -0.3772 -0.4637
vn 0.6853 -0.3781 -0.6224
vn 0.8016 -0.3773 -0.4637
vn 0.5439 -0.3784 -0.7490
vn 0.3788 -0.3788 -0.8444
vn 0.1891 -0.3782 -0.9062
vn -0.0000 -0.3795 -0.9252
vn -0.1891 -0.3782 -0.9062
vn -0.3788 -0.3788 -0.8444
vn -0.5440 -0.3784 -0.7489
vn -0.6854 -0.3781 -0.6223
vn -0.8017 -0.3772 -0.4637
vn -0.8815 -0.3778 -0.2833
vn -0.8017 -0.3773 -0.4637
vn -0.9210 -0.3778 -0.0944
vn -0.9210 -0.3778 0.0945
vn -0.8815 -0.3778 0.2834
vn -0.8017 -0.3772 0.4637
vn -0.6854 -0.3781 0.6223
vn -0.8016 -0.3773 0.4637
vn -0.5440 -0.3784 0.7489
vn -0.3788 -0.3788 0.8444
vn -0.1891 -0.3782 0.9062
vn -0.0000 -0.3795 0.9252
vn 0.1892 -0.3782 0.9062
vn -0.0000 -0.3796 0.9252
vn 0.3788 -0.3788 0.8444
vn 0.5440 -0.3784 0.7489
vn 0.6854 -0.3781 0.6223
vn 0.8017 -0.3772 0.4637
vn 0.8815 -0.3778 0.2833
vn 0.9210 -0.3778 0.0944
vn 0.9257 -0.2294 -0.3007
vn 0.9257 -0.2294 -0.3006
vn 0.8424 -0.2283 -0.4881
vn 0.7229 -0.2279 -0.6522
vn 0.8424 -0.2283 -0.4882
vn 0.5740 -0.2280 -0.7864
vn 0.3939 -0.2285 -0.8903
vn 0.2045 -0.2281 -0.9519
vn -0.0000 -0.2277 -0.9737
vn -0.2046 -0.2281 -0.9519
vn -0.3940 -0.2285 -0.8903
vn -0.5741 -0.2280 -0.7864
vn -0.7230 -0.2279 -0.6522
vn -0.8424 -0.2283 -0.4881
vn -0.9257 -0.2294 -0.3006
vn -0.9682 -0.2283 -0.1023
vn -0.9682 -0.2283 0.1023
vn -0.9257 -0.2294 0.3007
vn -0.8424 -0.2283 0.4881
vn -0.7229 -0.2279 0.6522
vn -0.5741 -0.2280 0.7864
vn -0.3939 -0.2284 0.8903
vn -0.2045 -0.2281 0.9519
vn -0.0000 -0.2277 0.9737
vn 0.2046 -0.2281 0.9519
vn 0.3939 -0.2285 0.8903
vn 0.5741 -0.2280 0.7864
vn 0.7230 -0.2279 0.6522
vn 0.8424 -0.2283 0.4881
vn 0.9257 -0.2294 0.3006
vn 0.9682 -0.2283 0.1023
vn 0.9481 -0.0790 -0.3082
vn 0.9481 -0.0792 -0.3079
vn 0.8651 -0.0786 -0.4955
vn 0.7394 -0.0786 -0.6687
vn 0.5854 -0.0791 -0.8069
vn 0.4012 -0.0786 -0.9126
vn 0.2045 -0.0787 -0.9757
vn -0.0000 -0.0785 -0.9969
vn -0.2046 -0.0787 -0.9757
vn -0.4012 -0.0787 -0.9126
vn -0.5854 -0.0791 -0.8069
vn -0.7394 -0.0787 -0.6686
vn -0.8651 -0.0786 -0.4955
vn -0.9481 -0.0790 -0.3081
vn -0.8651 -0.0786 -0.4954
vn -0.9916 -0.0787 -0.1023
vn -0.9916 -0.0787 0.1024
vn -0.9481 -0.0790 0.3081
vn -0.8651 -0.0786 0.4955
vn -0.7394 -0.0786 0.6687
vn -0.5854 -0.0791 0.8069
vn -0.4012 -0.0787 0.9126
vn -0.2045 -0.0787 0.9757
vn -0.0000 -0.0785 0.9969
vn 0.2046 -0.0787 0.9757
vn 0.4013 -0.0786 0.9126
vn 0.5854 -0.0791 0.8069
vn 0.7394 -0.0786 0.6686
vn 0.8651 -0.0786 0.4954
vn 0.9481 -0.0790 0.3081
vn 0.9916 -0.0787 0.1023
vn 0.9480 0.0790 -0.3082
vn 0.9482 0.0787 -0.3079
vn 0.8651 0.0787 -0.4954
vn 0.7394 0.0787 -0.6686
vn 0.8650 0.0787 -0.4955
vn 0.5854 0.0791 -0.8069
vn 0.4012 0.0787 -0.9126
vn 0.2045 0.0787 -0.9757
vn -0.0000 0.0785 -0.9969
vn -0.2046 0.0787 -0.9757
vn -0.4012 0.0787 -0.9126
vn -0.5854 0.0791 -0.8069
vn -0.7394 0.0787 -0.6686
vn -0.8651 0.0787 -0.4954
vn -0.9481 0.0790 -0.3081
vn -0.8651 0.0786 -0.4954
vn -0.9916 0.0787 -0.1023
vn -0.9916 0.0787 0.1023
vn -0.9480 0.0790 0.3082
vn -0.8651 0.0787 0.4955
vn -0.7394 0.0787 0.6686
vn -0.8651 0.0786 0.4955
vn -0.5854 0.0791 0.8069
vn -0.4012 0.0787 0.9126
vn -0.2045 0.0787 0.9757
vn -0.0000 0.0785 0.9969
vn 0.2046 0.0787 0.9757
vn 0.4012 0.0787 0.9126
vn 0.5854 0.0791 0.8069
vn 0.7394 0.0787 0.6686
vn 0.8651 0.0787 0.4954
vn 0.9481 0.0790 0.3081
vn 0.8651 0.0786 0.4954
vn 0.9916 0.0787 0.1023
vn 0.9257 0.2295 -0.3007
vn 0.9257 0.2295 -0.3006
vn 0.8424 0.2283 -0.4881
vn 0.7229 0.2279 -0.6522
vn 0.8424 0.2283 -0.4882
vn 0.5741 0.2280 -0.7864
vn 0.3939 0.2285 -0.8903
vn 0.2045 0.2282 -0.9519
vn -0.0000 0.2277 -0.9737
vn -0.2046 0.2282 -0.9519
vn -0.0001 0.2277 -0.9737
vn -0.3940 0.2285 -0.8903
vn -0.5741 0.2281 -0.7864
vn -0.7230 0.2279 -0.6522
vn -0.8424 0.2283 -0.4881
vn -0.9257 0.2295 -0.3006
vn -0.9682 0.2283 -0.1023
vn -0.9682 0.2283 0.1023
vn -0.9257 0.2295 0.3007
vn -0.8424 0.2283 0.4881
vn -0.7229 0.2279 0.6522
vn -0.5741 0.2281 0.7864
vn -0.3939 0.2285 0.8903
vn -0.2045 0.2282 0.9519
vn -0.0000 0.2277 0.9737
vn 0.2046 0.2282 0.9519
vn 0.3940 0.2285 0.8903
vn 0.5741 0.2281 0.7864
vn 0.7230 0.2279 0.6522
vn 0.8424 0.2284 0.4881
vn 0.9257 0.2295 0.3006
vn 0.8424 0.2283 0.4881
vn 0.9682 0.2283 0.1023
vn 0.8815 0.3778 -0.2834
vn 0.8815 0.3778 -0.2833
vn 0.8017 0.3773 -0.4637
vn 0.6853 0.3781 -0.6224
vn 0.8016 0.3773 -0.4637
vn 0.5440 0.3784 -0.7489
vn 0.3788 0.3788 -0.8444
vn 0.1891 0.3782 -0.9062
vn -0.0000 0.3796 -0.9252
vn -0.1892 0.3783 -0.9062
vn -0.3788 0.3788 -0.8444
vn -0.5440 0.3784 -0.7489
vn -0.6854 0.3781 -0.6223
vn -0.8016 0.3773 -0.4637
vn -0.8815 0.3778 -0.2833
vn -0.8017 0.3773 -0.4637
vn -0.9210 0.3779 -0.0944
vn -0.9210 0.3779 0.0945
vn -0.8815 0.3778 0.2833
vn -0.8017 0.3773 0.4637
vn -0.6853 0.3781 0.6224
vn -0.8016 0.3773 0.4637
vn -0.5439 0.3784 0.7490
vn -0.3788 0.3788 0.8444
vn -0.1891 0.3782 0.9062
vn -0.0000 0.3796 0.9252
vn 0.1891 0.3783 0.9062
vn 0.3788 0.3788 0.8444
vn 0.5440 0.3784 0.7489
vn 0.6854 0.3781 0.6223
vn 0.8016 0.3773 0.4637
vn 0.8815 0.3778 0.2833
vn 0.8017 0.3773 0.4637
vn 0.9210 0.3779 0.0944
vn 0.8112 0.5198 -0.2678
vn 0.8112 0.5198 -0.2677
vn 0.7406 0.5200 -0.4255
vn 0.6355 0.5178 -0.5727
vn 0.5029 0.5186 -0.6915
vn 0.3468 0.5203 -0.7804
vn 0.1811 0.5198 -0.8348
vn -0.0000 0.5214 -0.8533
vn -0.1812 0.5198 -0.8348
vn -0.0000 0.5215 -0.8533
vn -0.3469 0.5203 -0.7804
vn -0.5029 0.5186 -0.6915
vn -0.6355 0.5178 -0.5727
vn -0.7406 0.5200 -0.4255
vn -0.8112 0.5198 -0.2677
vn -0.7407 0.5200 -0.4254
vn -0.8501 0.5195 -0.0866
vn -0.8501 0.5195 0.0866
vn -0.8112 0.5198 0.2678
vn -0.7406 0.5200 0.4255
vn -0.6355 0.5178 0.5727
vn -0.5029 0.5186 0.6915
vn -0.3468 0.5203 0.7804
vn -0.1811 0.5198 0.8349
vn -0.0000 0.5214 0.8533
vn 0.1812 0.5198 0.8348
vn -0.0000 0.5215 0.8533
vn 0.3469 0.5203 0.7804
vn 0.5029 0.5186 0.6915
vn 0.6355 0.5178 0.5727
vn 0.7406 0.5201 0.4255
vn 0.8112 0.5198 0.2678
vn 0.7406 0.5200 0.4254
vn 0.8501 0.5195 0.0866
vn 0.7253 0.6465 -0.2366
vn 0.7253 0.6465 -0.2365
vn 0.6623 0.6466 -0.3785
vn 0.5668 0.6456 -0.5118
vn 0.4498 0.6471 -0.6155
vn 0.3084 0.6485 -0.6959
vn 0.1574 0.6453 -0.7476
vn -0.0000 0.6456 -0.7637
vn -0.1574 0.6453 -0.7475
vn -0.3084 0.6485 -0.6959
vn -0.4498 0.6471 -0.6155
vn -0.5669 0.6456 -0.5117
vn -0.6623 0.6466 -0.3785
vn -0.7253 0.6465 -0.2365
vn -0.6624 0.6466 -0.3784
vn -0.7580 0.6475 -0.0789
vn -0.7580 0.6475 0.0790
vn -0.7253 0.6465 0.2365
vn -0.6623 0.6466 0.3785
vn -0.5669 0.6456 0.5117
vn -0.4498 0.6471 0.6155
vn -0.3084 0.6485 0.6959
vn -0.1574 0.6453 0.7476
vn -0.0000 0.6456 0.7637
vn 0.1574 0.6453 0.7476
vn 0.3084 0.6485 0.6959
vn 0.4498 0.6471 0.6155
vn 0.5669 0.6456 0.5117
vn 0.6623 0.6466 0.3785
vn 0.7253 0.6465 0.2365
vn 0.7580 0.6475 0.0789
vn 0.6220 0.7558 -0.2047
vn 0.5678 0.7570 -0.3233
vn 0.4828 0.7598 -0.4353
vn 0.5677 0.7571 -0.3233
vn 0.3861 0.7565 -0.5279
vn 0.2676 0.7555 -0.5981
vn 0.1341 0.7574 -0.6390
vn -0.0000 0.7565 -0.6540
vn -0.1341 0.7574 -0.6390
vn -0.2676 0.7555 -0.5980
vn -0.3861 0.7564 -0.5279
vn -0.4828 0.7599 -0.4353
vn -0.5678 0.7571 -0.3233
vn -0.6220 0.7558 -0.2047
vn -0.6478 0.7585 -0.0711
vn -0.6478 0.7585 0.0711
vn -0.6220 0.7558 0.2047
vn -0.5677 0.7571 0.3233
vn -0.4828 0.7599 0.4353
vn -0.5678 0.7570 0.3233
vn -0.3861 0.7564 0.5279
vn -0.2675 0.7555 0.5981
vn -0.1341 0.7574 0.6390
vn -0.0000 0.7565 0.6540
vn 0.1341 0.7574 0.6390
vn 0.2676 0.7555 0.5980
vn 0.3861 0.7565 0.5279
vn 0.4828 0.7599 0.4353
vn 0.5677 0.7571 0.3233
vn 0.6220 0.7558 0.2047
vn 0.5678 0.7570 0.3233
vn 0.6478 0.7585 0.0711
vn 0.4969 0.8519 -0.1656
vn 0.4568 0.8507 -0.2599
vn 0.3929 0.8488 -0.3537
vn 0.4568 0.8507 -0.2600
vn 0.3073 0.8512 -0.4255
vn 0.2127 0.8508 -0.4805
vn 0.1104 0.8516 -0.5125
vn -0.0000 0.8498 -0.5272
vn -0.1104 0.8516 -0.5125
vn -0.0000 0.8498 -0.5271
vn -0.2127 0.8508 -0.4805
vn -0.3074 0.8512 -0.4255
vn -0.3930 0.8488 -0.3537
vn -0.4569 0.8507 -0.2599
vn -0.4969 0.8519 -0.1656
vn -0.5206 0.8520 -0.0552
vn -0.5206 0.8520 0.0552
vn -0.4969 0.8519 0.1656
vn -0.4568 0.8507 0.2599
vn -0.3929 0.8488 0.3537
vn -0.4568 0.8507 0.2600
vn -0.3073 0.8511 0.4256
vn -0.2127 0.8508 0.4805
vn -0.1104 0.8516 0.5125
vn -0.0000 0.8498 0.5271
vn 0.1104 0.8516 0.5125
vn -0.0000 0.8498 0.5272
vn 0.2127 0.8508 0.4805
vn 0.3074 0.8511 0.4255
vn 0.3930 0.8488 0.3537
vn 0.4569 0.8507 0.2599
vn 0.4969 0.8519 0.1656
vn 0.5207 0.8520 0.0552
vn 0.3633 0.9241 -0.1185
vn 0.3317 0.9241 -0.1895
vn 0.2839 0.9228 -0.2603
vn 0.3317 0.9241 -0.1896
vn 0.2283 0.9212 -0.3150
vn 0.1576 0.9217 -0.3545
vn 0.0788 0.9223 -0.3784
vn -0.0000 0.9224 -0.3863
vn -0.0788 0.9223 -0.3784
vn -0.1576 0.9217 -0.3545
vn -0.2283 0.9212 -0.3149
vn -0.2840 0.9228 -0.2603
vn -0.3317 0.9241 -0.1896
vn -0.3633 0.9241 -0.1185
vn -0.3860 0.9217 -0.0394
vn -0.3860 0.9217 0.0394
vn -0.3633 0.9241 0.1185
vn -0.3317 0.9241 0.1896
vn -0.2840 0.9228 0.2603
vn -0.2283 0.9212 0.3150
vn -0.1576 0.9217 0.3545
vn -0.0788 0.9223 0.3784
vn -0.0000 0.9224 0.3863
vn 0.0788 0.9223 0.3784
vn 0.1576 0.9217 0.3545
vn 0.2283 0.9212 0.3149
vn 0.2840 0.9228 0.2603
vn 0.3318 0.9241 0.1896
vn 0.3633 0.9241 0.1185
vn 0.3318 0.9241 0.1895
vn 0.3860 0.9217 0.0394
vn 0.2214 0.9726 -0.0712
vn 0.3317 0.9242 -0.1895
vn 0.2054 0.9715 -0.1185
vn 0.1738 0.9720 -0.1580
vn 0.2283 0.9212 -0.3149
vn 0.1422 0.9715 -0.1895
vn 0.1575 0.9217 -0.3545
vn 0.0949 0.9723 -0.2134
vn 0.0788 0.9223 -0.3783
vn 0.0474 0.9722 -0.2292
vn -0.0000 0.9224 -0.3862
vn -0.0000 0.9715 -0.2369
vn -0.0788 0.9223 -0.3783
vn -0.0474 0.9722 -0.2292
vn -0.1575 0.9217 -0.3545
vn -0.0949 0.9723 -0.2134
vn -0.2283 0.9213 -0.3149
vn -0.1422 0.9715 -0.1896
vn -0.2839 0.9228 -0.2603
vn -0.1738 0.9720 -0.1580
vn -0.3317 0.9242 -0.1895
vn -0.2053 0.9715 -0.1185
vn -0.2214 0.9726 -0.0712
vn -0.2369 0.9713 -0.0237
vn -0.3859 0.9217 0.0394
vn -0.2369 0.9713 0.0237
vn -0.2214 0.9726 0.0712
vn -0.3317 0.9241 0.1895
vn -0.2053 0.9715 0.1185
vn -0.2839 0.9228 0.2603
vn -0.1738 0.9720 0.1580
vn -0.2283 0.9212 0.3149
vn -0.1421 0.9715 0.1895
vn -0.1575 0.9217 0.3545
vn -0.0949 0.9723 0.2134
vn -0.0788 0.9223 0.3783
vn -0.0474 0.9722 0.2292
vn -0.0000 0.9715 0.2369
vn 0.0788 0.9223 0.3783
vn 0.0474 0.9722 0.2292
vn 0.1575 0.9217 0.3545
vn 0.0949 0.9723 0.2134
vn 0.1422 0.9715 0.1896
vn 0.2839 0.9228 0.2603
vn 0.1738 0.9720 0.1580
vn 0.3317 0.9241 0.1895
vn 0.2054 0.9715 0.1185
vn 0.2214 0.9726 0.0712
vn 0.2369 0.9712 0.0237
vn 0.0784 -0.9966 -0.0235
vn 0.0784 0.9966 -0.0235
vt 0.199782 0.794426
vt 0.196367 0.762100
vt 0.210049 0.762100
vt 0.206650 0.794420
vt 0.193064 0.795865
vt 0.183017 0.764954
vt 0.186802 0.798658
vt 0.170542 0.770517
vt 0.181260 0.802707
vt 0.159490 0.778556
vt 0.176663 0.807799
vt 0.150341 0.788728
vt 0.173229 0.813726
vt 0.143520 0.800564
vt 0.171117 0.820265
vt 0.139312 0.813552
vt 0.170424 0.827091
vt 0.137890 0.827145
vt 0.171149 0.833916
vt 0.139316 0.840742
vt 0.173253 0.840443
vt 0.143546 0.853741
vt 0.176703 0.846376
vt 0.150390 0.865557
vt 0.181299 0.851483
vt 0.159548 0.875722
vt 0.186861 0.855511
vt 0.170605 0.883739
vt 0.193117 0.858313
vt 0.183096 0.889291
vt 0.199836 0.859715
vt 0.196459 0.892113
vt 0.206705 0.859715
vt 0.210161 0.892097
vt 0.213425 0.858272
vt 0.223519 0.889255
vt 0.219680 0.855474
vt 0.236007 0.883693
vt 0.225220 0.851423
vt 0.247042 0.875643
vt 0.229818 0.846327
vt 0.256211 0.865460
vt 0.233248 0.840391
vt 0.263024 0.853620
vt 0.235357 0.833868
vt 0.267222 0.840625
vt 0.236053 0.827027
vt 0.268623 0.827030
vt 0.235335 0.820210
vt 0.267185 0.813449
vt 0.233215 0.813684
vt 0.262948 0.800451
vt 0.229781 0.807750
vt 0.256093 0.788639
vt 0.225184 0.802656
vt 0.246940 0.778492
vt 0.219625 0.798632
vt 0.235886 0.770475
vt 0.213361 0.795849
vt 0.223404 0.764910
vt 0.527248 0.658438
vt 0.495507 0.668299
vt 0.492171 0.647697
vt 0.524848 0.644401
vt 0.531965 0.671659
vt 0.501522 0.687533
vt 0.984577 0.728245
vt 0.952934 0.718527
vt 0.958553 0.699298
vt 0.989465 0.715039
vt 0.982186 0.742462
vt 0.949651 0.739074
vt 0.982068 0.756962
vt 0.949467 0.759967
vt 0.984341 0.771142
vt 0.952431 0.780385
vt 0.989068 0.784395
vt 0.957948 0.799828
vt 0.526550 0.135630
vt 0.494663 0.125642
vt 0.500374 0.106491
vt 0.531160 0.122445
vt 0.524166 0.149778
vt 0.491561 0.146155
vt 0.524044 0.164195
vt 0.491515 0.166999
vt 0.526269 0.178340
vt 0.494551 0.187800
vt 0.530835 0.191694
vt 0.500115 0.207191
vt 0.981207 0.253583
vt 0.949179 0.244014
vt 0.955123 0.224765
vt 0.985748 0.240425
vt 0.979041 0.267681
vt 0.946267 0.264375
vt 0.978984 0.282025
vt 0.946324 0.285120
vt 0.981394 0.296058
vt 0.949566 0.305755
vt 0.985994 0.309353
vt 0.955466 0.325045
vt 0.527870 0.375800
vt 0.496066 0.365621
vt 0.501961 0.346587
vt 0.532585 0.362672
vt 0.525431 0.389920
vt 0.492876 0.386143
vt 0.525288 0.404336
vt 0.492691 0.406978
vt 0.527411 0.418484
vt 0.495614 0.427769
vt 0.531909 0.431833
vt 0.501015 0.447136
vt 0.982653 0.495900
vt 0.950579 0.486321
vt 0.956598 0.467143
vt 0.987135 0.482721
vt 0.980428 0.510028
vt 0.947629 0.506689
vt 0.980383 0.524338
vt 0.947749 0.527445
vt 0.982689 0.538362
vt 0.950901 0.548042
vt 0.987359 0.551672
vt 0.956819 0.567410
vt 0.526830 0.615965
vt 0.494727 0.606561
vt 0.500564 0.587325
vt 0.531289 0.602785
vt 0.524712 0.630072
vt 0.491945 0.626958
vt 0.463172 0.677322
vt 0.459254 0.650739
vt 0.470236 0.702333
vt 0.920246 0.709536
vt 0.926752 0.684592
vt 0.916629 0.736087
vt 0.916405 0.762727
vt 0.919821 0.789142
vt 0.925995 0.814222
vt 0.462151 0.116613
vt 0.468808 0.091746
vt 0.458509 0.143040
vt 0.458384 0.169598
vt 0.461930 0.196137
vt 0.468543 0.221407
vt 0.916712 0.235006
vt 0.923402 0.210252
vt 0.913181 0.261458
vt 0.913416 0.287965
vt 0.917214 0.314581
vt 0.924119 0.339663
vt 0.463585 0.356405
vt 0.470588 0.331549
vt 0.459799 0.382729
vt 0.459554 0.409346
vt 0.462880 0.435912
vt 0.469312 0.461205
vt 0.918220 0.477348
vt 0.924976 0.452566
vt 0.914624 0.503725
vt 0.914766 0.530208
vt 0.918596 0.556758
vt 0.925428 0.581937
vt 0.462367 0.597830
vt 0.469021 0.572902
vt 0.458897 0.624245
vt 0.430864 0.684991
vt 0.426749 0.653425
vt 0.438060 0.715454
vt 0.888011 0.701779
vt 0.894739 0.671473
vt 0.884058 0.733505
vt 0.883850 0.765145
vt 0.887073 0.796621
vt 0.893390 0.826792
vt 0.429805 0.108916
vt 0.436604 0.078896
vt 0.425937 0.140350
vt 0.425821 0.171857
vt 0.429319 0.203438
vt 0.436121 0.233890
vt 0.884258 0.227549
vt 0.891101 0.197439
vt 0.880713 0.258978
vt 0.880894 0.290508
vt 0.884819 0.322064
vt 0.891935 0.352639
vt 0.431383 0.348376
vt 0.438510 0.318447
vt 0.427223 0.379799
vt 0.426902 0.411364
vt 0.430295 0.443011
vt 0.436821 0.473596
vt 0.885623 0.469784
vt 0.892522 0.439898
vt 0.882046 0.501143
vt 0.882271 0.532615
vt 0.886168 0.564134
vt 0.893227 0.594625
vt 0.429825 0.590476
vt 0.436463 0.560493
vt 0.426430 0.621919
vt 0.398245 0.691425
vt 0.394408 0.655619
vt 0.404908 0.726275
vt 0.855315 0.695471
vt 0.861276 0.660548
vt 0.851806 0.731349
vt 0.851484 0.767055
vt 0.854474 0.802683
vt 0.860309 0.837628
vt 0.397108 0.102684
vt 0.403392 0.068143
vt 0.393535 0.138207
vt 0.393414 0.173688
vt 0.396677 0.209465
vt 0.403028 0.244599
vt 0.851824 0.221405
vt 0.857853 0.186839
vt 0.848354 0.256998
vt 0.848551 0.292482
vt 0.852300 0.328272
vt 0.858870 0.363356
vt 0.398683 0.341795
vt 0.405250 0.307360
vt 0.394803 0.377391
vt 0.394481 0.412981
vt 0.397556 0.448746
vt 0.403604 0.483909
vt 0.853096 0.463530
vt 0.859395 0.429067
vt 0.849738 0.499137
vt 0.849904 0.534606
vt 0.853554 0.570328
vt 0.860231 0.605238
vt 0.397326 0.584576
vt 0.403435 0.549877
vt 0.394079 0.620107
vt 0.365544 0.696365
vt 0.362392 0.657333
vt 0.371076 0.735149
vt 0.822793 0.690664
vt 0.827491 0.652143
vt 0.819702 0.729771
vt 0.819484 0.768459
vt 0.821973 0.807483
vt 0.826342 0.845941
vt 0.364416 0.097864
vt 0.369570 0.059845
vt 0.361464 0.136539
vt 0.361401 0.175185
vt 0.364068 0.214071
vt 0.369564 0.253238
vt 0.819083 0.216719
vt 0.824120 0.178558
vt 0.816357 0.255441
vt 0.816531 0.294106
vt 0.819635 0.333102
vt 0.825055 0.371772
vt 0.366127 0.336636
vt 0.371347 0.298687
vt 0.362805 0.375568
vt 0.362308 0.414226
vt 0.364738 0.453257
vt 0.369759 0.492016
vt 0.820464 0.458708
vt 0.825705 0.420480
vt 0.817728 0.497534
vt 0.817914 0.536192
vt 0.820897 0.575106
vt 0.826550 0.613969
vt 0.364724 0.579931
vt 0.369738 0.541725
vt 0.362094 0.618658
vt 0.332933 0.699825
vt 0.330606 0.658627
vt 0.337084 0.741722
vt 0.790008 0.687217
vt 0.793251 0.646052
vt 0.787987 0.728559
vt 0.787698 0.769533
vt 0.789262 0.810679
vt 0.792312 0.851831
vt 0.331719 0.094366
vt 0.335629 0.053585
vt 0.329672 0.135471
vt 0.329523 0.176175
vt 0.331516 0.217439
vt 0.335474 0.259079
vt 0.786357 0.213364
vt 0.789961 0.172690
vt 0.784516 0.254446
vt 0.784767 0.295302
vt 0.786918 0.336517
vt 0.791029 0.378104
vt 0.333382 0.333027
vt 0.337406 0.292053
vt 0.330946 0.374056
vt 0.330476 0.414969
vt 0.332030 0.456310
vt 0.335751 0.498035
vt 0.787773 0.455259
vt 0.791414 0.414626
vt 0.785916 0.496453
vt 0.786144 0.537255
vt 0.788479 0.578554
vt 0.792715 0.620434
vt 0.332025 0.576654
vt 0.335580 0.535958
vt 0.330280 0.617742
vt 0.300370 0.702066
vt 0.298947 0.659340
vt 0.302589 0.745304
vt 0.757372 0.685285
vt 0.758855 0.642131
vt 0.756329 0.727894
vt 0.756114 0.769974
vt 0.756705 0.812519
vt 0.757706 0.855242
vt 0.299221 0.092332
vt 0.301118 0.049705
vt 0.298103 0.134718
vt 0.297966 0.176819
vt 0.298869 0.219398
vt 0.300859 0.262431
vt 0.753753 0.211550
vt 0.755478 0.168922
vt 0.752920 0.253912
vt 0.753141 0.295942
vt 0.754401 0.338578
vt 0.756628 0.382051
vt 0.300845 0.330672
vt 0.302830 0.288241
vt 0.299298 0.373196
vt 0.298825 0.415307
vt 0.299390 0.458275
vt 0.301050 0.501212
vt 0.755039 0.453547
vt 0.756722 0.410938
vt 0.754287 0.495905
vt 0.754586 0.538086
vt 0.755988 0.580718
vt 0.758230 0.624015
vt 0.299462 0.574914
vt 0.301137 0.532274
vt 0.298700 0.617286
vt 0.267665 0.702848
vt 0.267481 0.659750
vt 0.267756 0.746322
vt 0.724777 0.684561
vt 0.724073 0.641177
vt 0.724904 0.727563
vt 0.724659 0.770135
vt 0.724171 0.812907
vt 0.723132 0.856136
vt 0.266677 0.091630
vt 0.266369 0.048772
vt 0.266647 0.134446
vt 0.266491 0.176924
vt 0.266358 0.219889
vt 0.266265 0.263758
vt 0.721207 0.210941
vt 0.720888 0.168125
vt 0.721463 0.253761
vt 0.721685 0.296354
vt 0.721834 0.339417
vt 0.721908 0.383058
vt 0.268189 0.329738
vt 0.268043 0.287042
vt 0.267869 0.372831
vt 0.267324 0.415365
vt 0.266756 0.458494
vt 0.266254 0.502314
vt 0.722432 0.452959
vt 0.721981 0.410210
vt 0.722774 0.495956
vt 0.723130 0.538493
vt 0.723397 0.581551
vt 0.723581 0.625096
vt 0.266943 0.574342
vt 0.266603 0.531512
vt 0.267245 0.617159
vt 0.235056 0.702209
vt 0.236062 0.659541
vt 0.233068 0.745245
vt 0.692263 0.685404
vt 0.689551 0.642295
vt 0.693451 0.727798
vt 0.693287 0.769673
vt 0.691735 0.812001
vt 0.688700 0.854542
vt 0.234209 0.092543
vt 0.231916 0.049934
vt 0.235211 0.134768
vt 0.235100 0.176764
vt 0.233853 0.219259
vt 0.231676 0.262184
vt 0.688723 0.211906
vt 0.686457 0.169423
vt 0.690028 0.254182
vt 0.690259 0.296112
vt 0.689351 0.338667
vt 0.687239 0.382011
vt 0.235623 0.330360
vt 0.233622 0.288008
vt 0.236466 0.372738
vt 0.235943 0.414756
vt 0.234185 0.457588
vt 0.231472 0.500459
vt 0.689825 0.454113
vt 0.687387 0.411613
vt 0.691348 0.496357
vt 0.691695 0.538427
vt 0.690880 0.580987
vt 0.689042 0.624130
vt 0.234489 0.575312
vt 0.232215 0.532820
vt 0.235806 0.617601
vt 0.202607 0.700086
vt 0.204565 0.659043
vt 0.198509 0.741723
vt 0.659785 0.687443
vt 0.655132 0.646359
vt 0.662005 0.728372
vt 0.661890 0.768955
vt 0.659406 0.809658
vt 0.654148 0.850555
vt 0.201843 0.094669
vt 0.197630 0.054039
vt 0.203771 0.135564
vt 0.203693 0.176085
vt 0.201391 0.217178
vt 0.197167 0.258607
vt 0.656279 0.214116
vt 0.651971 0.173617
vt 0.658615 0.254956
vt 0.658767 0.295616
vt 0.656925 0.336671
vt 0.652809 0.378053
vt 0.203240 0.332335
vt 0.199318 0.291489
vt 0.204986 0.373127
vt 0.204582 0.413833
vt 0.201837 0.454978
vt 0.197032 0.496508
vt 0.657259 0.456407
vt 0.652963 0.415949
vt 0.659855 0.497315
vt 0.660282 0.537940
vt 0.658533 0.579080
vt 0.654602 0.620755
vt 0.202072 0.577500
vt 0.197752 0.536993
vt 0.204397 0.618351
vt 0.170221 0.696753
vt 0.172978 0.657975
vt 0.164613 0.735385
vt 0.627323 0.690946
vt 0.621093 0.652449
vt 0.630481 0.729480
vt 0.630419 0.767649
vt 0.627186 0.806046
vt 0.620776 0.844163
vt 0.169384 0.098294
vt 0.163584 0.060493
vt 0.172224 0.136673
vt 0.172130 0.175051
vt 0.169208 0.213673
vt 0.163485 0.252503
vt 0.623855 0.217823
vt 0.618290 0.179926
vt 0.627053 0.256213
vt 0.627209 0.294601
vt 0.624427 0.333342
vt 0.618817 0.371819
vt 0.170828 0.335533
vt 0.165223 0.297788
vt 0.173466 0.374132
vt 0.173116 0.412443
vt 0.169633 0.451144
vt 0.163250 0.489574
vt 0.624943 0.460369
vt 0.619011 0.422403
vt 0.628314 0.498833
vt 0.628711 0.537210
vt 0.626247 0.575891
vt 0.620650 0.614605
vt 0.169677 0.581177
vt 0.164095 0.543260
vt 0.172872 0.619588
vt 0.137780 0.692010
vt 0.141273 0.656512
vt 0.131129 0.726669
vt 0.595044 0.695835
vt 0.587830 0.661021
vt 0.598749 0.731005
vt 0.598815 0.766079
vt 0.595121 0.801091
vt 0.587396 0.835558
vt 0.136979 0.103259
vt 0.130434 0.068941
vt 0.140471 0.138379
vt 0.140462 0.173520
vt 0.137017 0.208938
vt 0.129995 0.243782
vt 0.591630 0.222779
vt 0.584977 0.188549
vt 0.595388 0.258001
vt 0.595526 0.293158
vt 0.592047 0.328663
vt 0.585447 0.363519
vt 0.138508 0.340314
vt 0.131939 0.306088
vt 0.141850 0.375450
vt 0.141483 0.410573
vt 0.137489 0.445897
vt 0.129767 0.480523
vt 0.592805 0.465609
vt 0.585606 0.431539
vt 0.596657 0.500837
vt 0.596992 0.536001
vt 0.593847 0.571415
vt 0.587375 0.606178
vt 0.137576 0.586150
vt 0.130754 0.551795
vt 0.141187 0.621314
vt 0.105647 0.685855
vt 0.109354 0.654609
vt 0.098252 0.716195
vt 0.562915 0.702009
vt 0.554999 0.671731
vt 0.566851 0.733070
vt 0.566929 0.764086
vt 0.563038 0.794939
vt 0.555606 0.824930
vt 0.104828 0.109490
vt 0.097782 0.079623
vt 0.108500 0.140508
vt 0.108496 0.171639
vt 0.104768 0.202816
vt 0.097711 0.232986
vt 0.559528 0.229189
vt 0.552298 0.199434
vt 0.563480 0.260229
vt 0.563616 0.291400
vt 0.560011 0.322643
vt 0.552662 0.353066
vt 0.106393 0.346342
vt 0.099199 0.316574
vt 0.109966 0.377280
vt 0.109654 0.408299
vt 0.105510 0.439377
vt 0.097438 0.469299
vt 0.560634 0.472329
vt 0.553103 0.442805
vt 0.564786 0.503268
vt 0.565043 0.534393
vt 0.561630 0.565614
vt 0.554445 0.595971
vt 0.105417 0.592390
vt 0.098278 0.562834
vt 0.109295 0.623448
vt 0.073555 0.678492
vt 0.077202 0.652274
vt 0.066338 0.703403
vt 0.530912 0.709535
vt 0.523337 0.684709
vt 0.534666 0.735547
vt 0.534727 0.761675
vt 0.531077 0.787596
vt 0.523714 0.812379
vt 0.072668 0.117003
vt 0.065882 0.092352
vt 0.076333 0.143108
vt 0.076295 0.169318
vt 0.072739 0.195462
vt 0.065744 0.220495
vt 0.527616 0.236917
vt 0.520479 0.212460
vt 0.531321 0.262946
vt 0.531456 0.289134
vt 0.527862 0.315379
vt 0.520760 0.340336
vt 0.074387 0.353659
vt 0.067356 0.329039
vt 0.077842 0.379580
vt 0.077544 0.405648
vt 0.073668 0.431584
vt 0.066366 0.456494
vt 0.528672 0.480348
vt 0.521317 0.455895
vt 0.532565 0.506272
vt 0.532895 0.532425
vt 0.529501 0.558615
vt 0.522596 0.583701
vt 0.073409 0.600104
vt 0.066307 0.575464
vt 0.077137 0.626097
vt 0.041609 0.669844
vt 0.044651 0.649577
vt 0.035538 0.689065
vt 0.498868 0.718358
vt 0.492407 0.699172
vt 0.502140 0.738577
vt 0.502244 0.758972
vt 0.499162 0.779246
vt 0.492866 0.798436
vt 0.040703 0.125869
vt 0.034776 0.106862
vt 0.043810 0.146126
vt 0.043743 0.166671
vt 0.040686 0.187029
vt 0.034664 0.206350
vt 0.495635 0.245884
vt 0.489418 0.226901
vt 0.498775 0.266080
vt 0.498913 0.286546
vt 0.495924 0.306853
vt 0.489908 0.326086
vt 0.042427 0.362201
vt 0.036346 0.343308
vt 0.045375 0.382374
vt 0.045137 0.402711
vt 0.041829 0.422844
vt 0.035416 0.441952
vt 0.496743 0.489465
vt 0.490460 0.470593
vt 0.500106 0.509655
vt 0.500311 0.530118
vt 0.497455 0.550446
vt 0.491612 0.569776
vt 0.041571 0.608877
vt 0.035356 0.589922
vt 0.044597 0.629130
vt 0.009696 0.660465
vt 0.011903 0.646573
vt 0.005236 0.673581
vt 0.466958 0.728183
vt 0.462442 0.715068
vt 0.469261 0.742011
vt 0.469392 0.756071
vt 0.467308 0.769874
vt 0.462996 0.783080
vt 0.008871 0.135678
vt 0.004345 0.122573
vt 0.011180 0.149585
vt 0.011200 0.163757
vt 0.008935 0.177673
vt 0.004383 0.190890
vt 0.463830 0.255756
vt 0.459153 0.242733
vt 0.466107 0.269583
vt 0.466180 0.283656
vt 0.463940 0.297568
vt 0.459542 0.310725
vt 0.010524 0.371797
vt 0.006172 0.358750
vt 0.012608 0.385573
vt 0.012428 0.399560
vt 0.010106 0.413315
vt 0.005588 0.426381
vt 0.465027 0.499541
vt 0.460391 0.486511
vt 0.467458 0.513345
vt 0.467626 0.527457
vt 0.465535 0.541355
vt 0.461150 0.554533
vt 0.009713 0.618669
vt 0.005086 0.605647
vt 0.011961 0.632508
vt 0.402426 0.805687
vt 0.371522 0.815766
vt 0.368732 0.809505
vt 0.396852 0.793213
vt 0.405297 0.819055
vt 0.372950 0.822485
vt 0.405314 0.832728
vt 0.372972 0.829347
vt 0.402522 0.846114
vt 0.371549 0.836060
vt 0.396983 0.858597
vt 0.368779 0.842334
vt 0.388945 0.869673
vt 0.364754 0.847894
vt 0.378802 0.878848
vt 0.359641 0.852507
vt 0.366978 0.885699
vt 0.353697 0.855937
vt 0.353985 0.889947
vt 0.347180 0.858059
vt 0.340360 0.891361
vt 0.340360 0.858787
vt 0.326753 0.889980
vt 0.333528 0.858064
vt 0.313767 0.885739
vt 0.326997 0.855962
vt 0.301930 0.878917
vt 0.321045 0.852533
vt 0.291756 0.869774
vt 0.315935 0.847946
vt 0.283711 0.858722
vt 0.311897 0.842383
vt 0.278153 0.846237
vt 0.309090 0.836127
vt 0.275306 0.832871
vt 0.307678 0.829414
vt 0.275306 0.819197
vt 0.307679 0.822542
vt 0.278125 0.805824
vt 0.309109 0.815831
vt 0.283671 0.793345
vt 0.311873 0.809559
vt 0.291709 0.782291
vt 0.315900 0.804006
vt 0.301845 0.773147
vt 0.321011 0.799405
vt 0.313655 0.766312
vt 0.326945 0.795978
vt 0.326632 0.762072
vt 0.333453 0.793864
vt 0.340219 0.760650
vt 0.340271 0.793146
vt 0.353809 0.762043
vt 0.347106 0.793851
vt 0.366791 0.766256
vt 0.353634 0.795935
vt 0.378633 0.773040
vt 0.359570 0.799369
vt 0.388805 0.782187
vt 0.364673 0.803966
vt 0.203235 0.827054
vt 0.340318 0.825952
s 1
usemtl Beachball1Mtl
f 1/1/1 2/2/1 3/3/1
f 3/3/1 4/4/1 1/1/1
f 5/5/2 6/6/3 2/2/1
f 2/2/1 1/1/1 5/5/2
f 7/7/4 8/8/5 6/6/3
f 6/6/3 5/5/2 7/7/4
f 9/9/6 10/10/7 8/8/5
f 8/8/5 7/7/4 9/9/6
f 11/11/8 12/12/8 10/10/7
f 10/10/7 9/9/6 11/11/8
f 13/13/9 14/14/9 12/12/8
f 12/12/8 11/11/8 13/13/9
f 15/15/10 16/16/10 14/14/9
f 14/14/9 13/13/9 15/15/10
f 17/17/11 18/18/11 16/16/10
f 16/16/10 15/15/10 17/17/11
f 19/19/12 20/20/12 18/18/11
f 18/18/11 17/17/11 19/19/12
f 21/21/13 22/22/14 20/20/12
f 20/20/12 19/19/12 21/21/13
f 23/23/15 24/24/16 22/22/14
f 22/22/14 21/21/13 23/23/15
f 25/25/17 26/26/18 24/24/16
f 24/24/16 23/23/15 25/25/17
f 27/27/19 28/28/20 26/26/18
f 26/26/18 25/25/17 27/27/19
f 29/29/21 30/30/22 28/28/20
f 28/28/20 27/27/19 29/29/21
f 31/31/23 32/32/24 30/30/22
f 30/30/22 29/29/21 31/31/23
f 33/33/25 34/34/26 32/32/24
f 32/32/24 31/31/23 33/33/25
f 35/35/27 36/36/28 34/34/26
f 34/34/26 33/33/25 35/35/27
f 37/37/29 38/38/30 36/36/28
f 36/36/28 35/35/27 37/37/29
f 39/39/31 40/40/32 38/38/30
f 38/38/30 37/37/29 39/39/31
f 41/41/33 42/42/33 40/40/32
f 40/40/32 39/39/31 41/41/33
f 43/43/34 44/44/34 42/42/33
f 42/42/33 41/41/33 43/43/34
f 45/45/35 46/46/36 44/44/34
f 44/44/34 43/43/34 45/45/35
f 47/47/37 48/48/38 46/46/36
f 46/46/36 45/45/35 47/47/37
f 49/49/39 50/50/39 48/48/38
f 48/48/38 47/47/37 49/49/39
f 51/51/40 52/52/40 50/50/39
f 50/50/39 49/49/39 51/51/40
f 53/53/41 54/54/42 52/52/40
f 52/52/40 51/51/40 53/53/41
f 55/55/43 56/56/44 54/54/42
f 54/54/42 53/53/41 55/55/43
f 57/57/45 58/58/45 56/56/44
f 56/56/44 55/55/43 57/57/45
f 59/59/46 60/60/47 58/58/45
f 58/58/45 57/57/45 59/59/46
f 4/4/1 3/3/1 60/60/47
f 60/60/47 59/59/46 4/4/1
f 61/61/1 62/62/48 63/63/48
f 63/63/48 64/64/1 61/61/1
f 65/65/3 66/66/49 62/62/48
f 62/62/48 61/61/1 65/65/3
f 67/67/50 68/68/51 69/69/52
f 69/69/52 70/70/3 67/67/50
f 71/71/7 72/72/53 68/68/51
f 68/68/51 67/67/50 71/71/7
f 73/73/54 74/74/55 72/72/53
f 72/72/53 71/71/7 73/73/54
f 75/75/9 76/76/56 74/74/55
f 74/74/55 73/73/54 75/75/9
f 77/77/10 78/78/57 76/76/56
f 76/76/56 75/75/9 77/77/10
f 79/79/58 80/80/59 81/81/57
f 81/81/57 82/82/10 79/79/58
f 83/83/60 84/84/61 80/80/59
f 80/80/59 79/79/58 83/83/60
f 85/85/13 86/86/62 84/84/61
f 84/84/61 83/83/60 85/85/13
f 87/87/63 88/88/64 86/86/62
f 86/86/62 85/85/13 87/87/63
f 89/89/18 90/90/65 88/88/64
f 88/88/64 87/87/63 89/89/18
f 91/91/20 92/92/66 93/93/65
f 93/93/65 94/94/18 91/91/20
f 95/95/22 96/96/67 92/92/66
f 92/92/66 91/91/20 95/95/22
f 97/97/24 98/98/68 96/96/67
f 96/96/67 95/95/22 97/97/24
f 99/99/25 100/100/69 98/98/68
f 98/98/68 97/97/24 99/99/25
f 101/101/28 102/102/70 100/100/69
f 100/100/69 99/99/25 101/101/28
f 103/103/71 104/104/72 105/105/73
f 105/105/73 106/106/28 103/103/71
f 107/107/32 108/108/74 104/104/72
f 104/104/72 103/103/71 107/107/32
f 109/109/75 110/110/76 108/108/74
f 108/108/74 107/107/32 109/109/75
f 111/111/34 112/112/77 110/110/76
f 110/110/76 109/109/75 111/111/34
f 113/113/36 114/114/78 112/112/77
f 112/112/77 111/111/34 113/113/36
f 115/115/79 116/116/80 117/117/78
f 117/117/78 118/118/36 115/115/79
f 119/119/81 120/120/82 116/116/80
f 116/116/80 115/115/79 119/119/81
f 121/121/40 122/122/83 120/120/82
f 120/120/82 119/119/81 121/121/40
f 123/123/84 124/124/85 122/122/83
f 122/122/83 121/121/40 123/123/84
f 125/125/44 126/126/86 124/124/85
f 124/124/85 123/123/84 125/125/44
f 127/127/87 128/128/88 129/129/89
f 129/129/89 130/130/44 127/127/87
f 131/131/47 132/132/90 128/128/88
f 128/128/88 127/127/87 131/131/47
f 64/64/1 63/63/48 132/132/90
f 132/132/90 131/131/47 64/64/1
f 62/62/48 133/133/91 134/134/92
f 134/134/92 63/63/48 62/62/48
f 66/66/49 135/135/93 133/133/91
f 133/133/91 62/62/48 66/66/49
f 68/68/51 136/136/94 137/137/93
f 137/137/93 69/69/52 68/68/51
f 72/72/53 138/138/95 136/136/94
f 136/136/94 68/68/51 72/72/53
f 74/74/55 139/139/96 138/138/95
f 138/138/95 72/72/53 74/74/55
f 76/76/56 140/140/97 139/139/96
f 139/139/96 74/74/55 76/76/56
f 78/78/57 141/141/98 140/140/97
f 140/140/97 76/76/56 78/78/57
f 80/80/59 142/142/99 143/143/98
f 143/143/98 81/81/57 80/80/59
f 84/84/61 144/144/100 142/142/99
f 142/142/99 80/80/59 84/84/61
f 86/86/62 145/145/101 144/144/100
f 144/144/100 84/84/61 86/86/62
f 88/88/64 146/146/102 145/145/101
f 145/145/101 86/86/62 88/88/64
f 90/90/65 147/147/103 146/146/102
f 146/146/102 88/88/64 90/90/65
f 92/92/66 148/148/104 149/149/105
f 149/149/105 93/93/65 92/92/66
f 96/96/67 150/150/106 148/148/104
f 148/148/104 92/92/66 96/96/67
f 98/98/68 151/151/107 150/150/106
f 150/150/106 96/96/67 98/98/68
f 100/100/69 152/152/108 151/151/107
f 151/151/107 98/98/68 100/100/69
f 102/102/70 153/153/109 152/152/108
f 152/152/108 100/100/69 102/102/70
f 104/104/72 154/154/110 155/155/109
f 155/155/109 105/105/73 104/104/72
f 108/108/74 156/156/111 154/154/110
f 154/154/110 104/104/72 108/108/74
f 110/110/76 157/157/112 156/156/111
f 156/156/111 108/108/74 110/110/76
f 112/112/77 158/158/113 157/157/112
f 157/157/112 110/110/76 112/112/77
f 114/114/78 159/159/114 158/158/113
f 158/158/113 112/112/77 114/114/78
f 116/116/80 160/160/115 161/161/116
f 161/161/116 117/117/78 116/116/80
f 120/120/82 162/162/117 160/160/115
f 160/160/115 116/116/80 120/120/82
f 122/122/83 163/163/118 162/162/117
f 162/162/117 120/120/82 122/122/83
f 124/124/85 164/164/119 163/163/118
f 163/163/118 122/122/83 124/124/85
f 126/126/86 165/165/120 164/164/119
f 164/164/119 124/124/85 126/126/86
f 128/128/88 166/166/121 167/167/122
f 167/167/122 129/129/89 128/128/88
f 132/132/90 168/168/123 166/166/121
f 166/166/121 128/128/88 132/132/90
f 63/63/48 134/134/92 168/168/123
f 168/168/123 132/132/90 63/63/48
f 133/133/91 169/169/124 170/170/124
f 170/170/124 134/134/92 133/133/91
f 135/135/93 171/171/125 169/169/124
f 169/169/124 133/133/91 135/135/93
f 136/136/94 172/172/126 173/173/125
f 173/173/125 137/137/93 136/136/94
f 138/138/95 174/174/127 172/172/126
f 172/172/126 136/136/94 138/138/95
f 139/139/96 175/175/128 174/174/127
f 174/174/127 138/138/95 139/139/96
f 140/140/97 176/176/129 175/175/128
f 175/175/128 139/139/96 140/140/97
f 141/141/98 177/177/130 176/176/129
f 176/176/129 140/140/97 141/141/98
f 142/142/99 178/178/131 179/179/132
f 179/179/132 143/143/98 142/142/99
f 144/144/100 180/180/133 178/178/131
f 178/178/131 142/142/99 144/144/100
f 145/145/101 181/181/134 180/180/133
f 180/180/133 144/144/100 145/145/101
f 146/146/102 182/182/135 181/181/134
f 181/181/134 145/145/101 146/146/102
f 147/147/103 183/183/136 182/182/135
f 182/182/135 146/146/102 147/147/103
f 148/148/104 184/184/137 185/185/136
f 185/185/136 149/149/105 148/148/104
f 150/150/106 186/186/138 184/184/137
f 184/184/137 148/148/104 150/150/106
f 151/151/107 187/187/139 186/186/138
f 186/186/138 150/150/106 151/151/107
f 152/152/108 188/188/140 187/187/139
f 187/187/139 151/151/107 152/152/108
f 153/153/109 189/189/141 188/188/140
f 188/188/140 152/152/108 153/153/109
f 154/154/110 190/190/142 191/191/143
f 191/191/143 155/155/109 154/154/110
f 156/156/111 192/192/144 190/190/142
f 190/190/142 154/154/110 156/156/111
f 157/157/112 193/193/145 192/192/144
f 192/192/144 156/156/111 157/157/112
f 158/158/113 194/194/146 193/193/145
f 193/193/145 157/157/112 158/158/113
f 159/159/114 195/195/147 194/194/146
f 194/194/146 158/158/113 159/159/114
f 160/160/115 196/196/148 197/197/147
f 197/197/147 161/161/116 160/160/115
f 162/162/117 198/198/149 196/196/148
f 196/196/148 160/160/115 162/162/117
f 163/163/118 199/199/150 198/198/149
f 198/198/149 162/162/117 163/163/118
f 164/164/119 200/200/151 199/199/150
f 199/199/150 163/163/118 164/164/119
f 165/165/120 201/201/152 200/200/151
f 200/200/151 164/164/119 165/165/120
f 166/166/121 202/202/153 203/203/152
f 203/203/152 167/167/122 166/166/121
f 168/168/123 204/204/154 202/202/153
f 202/202/153 166/166/121 168/168/123
f 134/134/92 170/170/124 204/204/154
f 204/204/154 168/168/123 134/134/92
f 169/169/124 205/205/155 206/206/156
f 206/206/156 170/170/124 169/169/124
f 171/171/125 207/207/157 205/205/155
f 205/205/155 169/169/124 171/171/125
f 172/172/126 208/208/158 209/209/157
f 209/209/157 173/173/125 172/172/126
f 174/174/127 210/210/159 208/208/158
f 208/208/158 172/172/126 174/174/127
f 175/175/128 211/211/160 210/210/159
f 210/210/159 174/174/127 175/175/128
f 176/176/129 212/212/161 211/211/160
f 211/211/160 175/175/128 176/176/129
f 177/177/130 213/213/162 212/212/161
f 212/212/161 176/176/129 177/177/130
f 178/178/131 214/214/163 215/215/162
f 215/215/162 179/179/132 178/178/131
f 180/180/133 216/216/164 214/214/163
f 214/214/163 178/178/131 180/180/133
f 181/181/134 217/217/165 216/216/164
f 216/216/164 180/180/133 181/181/134
f 182/182/135 218/218/166 217/217/165
f 217/217/165 181/181/134 182/182/135
f 183/183/136 219/219/167 218/218/166
f 218/218/166 182/182/135 183/183/136
f 184/184/137 220/220/168 221/221/169
f 221/221/169 185/185/136 184/184/137
f 186/186/138 222/222/170 220/220/168
f 220/220/168 184/184/137 186/186/138
f 187/187/139 223/223/171 222/222/170
f 222/222/170 186/186/138 187/187/139
f 188/188/140 224/224/172 223/223/171
f 223/223/171 187/187/139 188/188/140
f 189/189/141 225/225/173 224/224/172
f 224/224/172 188/188/140 189/189/141
f 190/190/142 226/226/174 227/227/175
f 227/227/175 191/191/143 190/190/142
f 192/192/144 228/228/176 226/226/174
f 226/226/174 190/190/142 192/192/144
f 193/193/145 229/229/177 228/228/176
f 228/228/176 192/192/144 193/193/145
f 194/194/146 230/230/178 229/229/177
f 229/229/177 193/193/145 194/194/146
f 195/195/147 231/231/179 230/230/178
f 230/230/178 194/194/146 195/195/147
f 196/196/148 232/232/180 233/233/181
f 233/233/181 197/197/147 196/196/148
f 198/198/149 234/234/182 232/232/180
f 232/232/180 196/196/148 198/198/149
f 199/199/150 235/235/183 234/234/182
f 234/234/182 198/198/149 199/199/150
f 200/200/151 236/236/184 235/235/183
f 235/235/183 199/199/150 200/200/151
f 201/201/152 237/237/185 236/236/184
f 236/236/184 200/200/151 201/201/152
f 202/202/153 238/238/186 239/239/187
f 239/239/187 203/203/152 202/202/153
f 204/204/154 240/240/188 238/238/186
f 238/238/186 202/202/153 204/204/154
f 170/170/124 206/206/156 240/240/188
f 240/240/188 204/204/154 170/170/124
f 205/205/155 241/241/189 242/242/189
f 242/242/189 206/206/156 205/205/155
f 207/207/157 243/243/190 241/241/189
f 241/241/189 205/205/155 207/207/157
f 208/208/158 244/244/191 245/245/190
f 245/245/190 209/209/157 208/208/158
f 210/210/159 246/246/192 244/244/191
f 244/244/191 208/208/158 210/210/159
f 211/211/160 247/247/193 246/246/192
f 246/246/192 210/210/159 211/211/160
f 212/212/161 248/248/194 247/247/193
f 247/247/193 211/211/160 212/212/161
f 213/213/162 249/249/195 248/248/194
f 248/248/194 212/212/161 213/213/162
f 214/214/163 250/250/196 251/251/197
f 251/251/197 215/215/162 214/214/163
f 216/216/164 252/252/198 250/250/196
f 250/250/196 214/214/163 216/216/164
f 217/217/165 253/253/199 252/252/198
f 252/252/198 216/216/164 217/217/165
f 218/218/166 254/254/200 253/253/199
f 253/253/199 217/217/165 218/218/166
f 219/219/167 255/255/201 254/254/200
f 254/254/200 218/218/166 219/219/167
f 220/220/168 256/256/202 257/257/203
f 257/257/203 221/221/169 220/220/168
f 222/222/170 258/258/204 256/256/202
f 256/256/202 220/220/168 222/222/170
f 223/223/171 259/259/205 258/258/204
f 258/258/204 222/222/170 223/223/171
f 224/224/172 260/260/206 259/259/205
f 259/259/205 223/223/171 224/224/172
f 225/225/173 261/261/207 260/260/206
f 260/260/206 224/224/172 225/225/173
f 226/226/174 262/262/208 263/263/209
f 263/263/209 227/227/175 226/226/174
f 228/228/176 264/264/210 262/262/208
f 262/262/208 226/226/174 228/228/176
f 229/229/177 265/265/211 264/264/210
f 264/264/210 228/228/176 229/229/177
f 230/230/178 266/266/212 265/265/211
f 265/265/211 229/229/177 230/230/178
f 231/231/179 267/267/213 266/266/212
f 266/266/212 230/230/178 231/231/179
f 232/232/180 268/268/214 269/269/215
f 269/269/215 233/233/181 232/232/180
f 234/234/182 270/270/216 268/268/214
f 268/268/214 232/232/180 234/234/182
f 235/235/183 271/271/217 270/270/216
f 270/270/216 234/234/182 235/235/183
f 236/236/184 272/272/218 271/271/217
f 271/271/217 235/235/183 236/236/184
f 237/237/185 273/273/219 272/272/218
f 272/272/218 236/236/184 237/237/185
f 238/238/186 274/274/220 275/275/221
f 275/275/221 239/239/187 238/238/186
f 240/240/188 276/276/222 274/274/220
f 274/274/220 238/238/186 240/240/188
f 206/206/156 242/242/189 276/276/222
f 276/276/222 240/240/188 206/206/156
f 241/241/189 277/277/223 278/278/224
f 278/278/224 242/242/189 241/241/189
f 243/243/190 279/279/225 277/277/223
f 277/277/223 241/241/189 243/243/190
f 244/244/191 280/280/226 281/281/227
f 281/281/227 245/245/190 244/244/191
f 246/246/192 282/282/228 280/280/226
f 280/280/226 244/244/191 246/246/192
f 247/247/193 283/283/229 282/282/228
f 282/282/228 246/246/192 247/247/193
f 248/248/194 284/284/230 283/283/229
f 283/283/229 247/247/193 248/248/194
f 249/249/195 285/285/231 284/284/230
f 284/284/230 248/248/194 249/249/195
f 250/250/196 286/286/232 287/287/231
f 287/287/231 251/251/197 250/250/196
f 252/252/198 288/288/233 286/286/232
f 286/286/232 250/250/196 252/252/198
f 253/253/199 289/289/234 288/288/233
f 288/288/233 252/252/198 253/253/199
f 254/254/200 290/290/235 289/289/234
f 289/289/234 253/253/199 254/254/200
f 255/255/201 291/291/236 290/290/235
f 290/290/235 254/254/200 255/255/201
f 256/256/202 292/292/237 293/293/238
f 293/293/238 257/257/203 256/256/202
f 258/258/204 294/294/239 292/292/237
f 292/292/237 256/256/202 258/258/204
f 259/259/205 295/295/240 294/294/239
f 294/294/239 258/258/204 259/259/205
f 260/260/206 296/296/241 295/295/240
f 295/295/240 259/259/205 260/260/206
f 261/261/207 297/297/242 296/296/241
f 296/296/241 260/260/206 261/261/207
f 262/262/208 298/298/243 299/299/244
f 299/299/244 263/263/209 262/262/208
f 264/264/210 300/300/245 298/298/243
f 298/298/243 262/262/208 264/264/210
f 265/265/211 301/301/246 300/300/245
f 300/300/245 264/264/210 265/265/211
f 266/266/212 302/302/247 301/301/246
f 301/301/246 265/265/211 266/266/212
f 267/267/213 303/303/248 302/302/247
f 302/302/247 266/266/212 267/267/213
f 268/268/214 304/304/249 305/305/250
f 305/305/250 269/269/215 268/268/214
f 270/270/216 306/306/251 304/304/249
f 304/304/249 268/268/214 270/270/216
f 271/271/217 307/307/252 306/306/251
f 306/306/251 270/270/216 271/271/217
f 272/272/218 308/308/253 307/307/252
f 307/307/252 271/271/217 272/272/218
f 273/273/219 309/309/254 308/308/253
f 308/308/253 272/272/218 273/273/219
f 274/274/220 310/310/255 311/311/254
f 311/311/254 275/275/221 274/274/220
f 276/276/222 312/312/256 310/310/255
f 310/310/255 274/274/220 276/276/222
f 242/242/189 278/278/224 312/312/256
f 312/312/256 276/276/222 242/242/189
f 277/277/223 313/313/257 314/314/258
f 314/314/258 278/278/224 277/277/223
f 279/279/225 315/315/259 313/313/257
f 313/313/257 277/277/223 279/279/225
f 280/280/226 316/316/260 317/317/261
f 317/317/261 281/281/227 280/280/226
f 282/282/228 318/318/262 316/316/260
f 316/316/260 280/280/226 282/282/228
f 283/283/229 319/319/263 318/318/262
f 318/318/262 282/282/228 283/283/229
f 284/284/230 320/320/264 319/319/263
f 319/319/263 283/283/229 284/284/230
f 285/285/231 321/321/265 320/320/264
f 320/320/264 284/284/230 285/285/231
f 286/286/232 322/322/266 323/323/265
f 323/323/265 287/287/231 286/286/232
f 288/288/233 324/324/267 322/322/266
f 322/322/266 286/286/232 288/288/233
f 289/289/234 325/325/268 324/324/267
f 324/324/267 288/288/233 289/289/234
f 290/290/235 326/326/269 325/325/268
f 325/325/268 289/289/234 290/290/235
f 291/291/236 327/327/270 326/326/269
f 326/326/269 290/290/235 291/291/236
f 292/292/237 328/328/271 329/329/270
f 329/329/270 293/293/238 292/292/237
f 294/294/239 330/330/272 328/328/271
f 328/328/271 292/292/237 294/294/239
f 295/295/240 331/331/273 330/330/272
f 330/330/272 294/294/239 295/295/240
f 296/296/241 332/332/274 331/331/273
f 331/331/273 295/295/240 296/296/241
f 297/297/242 333/333/275 332/332/274
f 332/332/274 296/296/241 297/297/242
f 298/298/243 334/334/276 335/335/275
f 335/335/275 299/299/244 298/298/243
f 300/300/245 336/336/277 334/334/276
f 334/334/276 298/298/243 300/300/245
f 301/301/246 337/337/278 336/336/277
f 336/336/277 300/300/245 301/301/246
f 302/302/247 338/338/279 337/337/278
f 337/337/278 301/301/246 302/302/247
f 303/303/248 339/339/280 338/338/279
f 338/338/279 302/302/247 303/303/248
f 304/304/249 340/340/281 341/341/280
f 341/341/280 305/305/250 304/304/249
f 306/306/251 342/342/282 340/340/281
f 340/340/281 304/304/249 306/306/251
f 307/307/252 343/343/283 342/342/282
f 342/342/282 306/306/251 307/307/252
f 308/308/253 344/344/284 343/343/283
f 343/343/283 307/307/252 308/308/253
f 309/309/254 345/345/285 344/344/284
f 344/344/284 308/308/253 309/309/254
f 310/310/255 346/346/286 347/347/285
f 347/347/285 311/311/254 310/310/255
f 312/312/256 348/348/287 346/346/286
f 346/346/286 310/310/255 312/312/256
f 278/278/224 314/314/258 348/348/287
f 348/348/287 312/312/256 278/278/224
f 313/313/257 349/349/288 350/350/289
f 350/350/289 314/314/258 313/313/257
f 315/315/259 351/351/290 349/349/288
f 349/349/288 313/313/257 315/315/259
f 316/316/260 352/352/291 353/353/290
f 353/353/290 317/317/261 316/316/260
f 318/318/262 354/354/292 352/352/291
f 352/352/291 316/316/260 318/318/262
f 319/319/263 355/355/293 354/354/292
f 354/354/292 318/318/262 319/319/263
f 320/320/264 356/356/294 355/355/293
f 355/355/293 319/319/263 320/320/264
f 321/321/265 357/357/295 356/356/294
f 356/356/294 320/320/264 321/321/265
f 322/322/266 358/358/296 359/359/295
f 359/359/295 323/323/265 322/322/266
f 324/324/267 360/360/297 358/358/296
f 358/358/296 322/322/266 324/324/267
f 325/325/268 361/361/298 360/360/297
f 360/360/297 324/324/267 325/325/268
f 326/326/269 362/362/299 361/361/298
f 361/361/298 325/325/268 326/326/269
f 327/327/270 363/363/300 362/362/299
f 362/362/299 326/326/269 327/327/270
f 328/328/271 364/364/301 365/365/302
f 365/365/302 329/329/270 328/328/271
f 330/330/272 366/366/303 364/364/301
f 364/364/301 328/328/271 330/330/272
f 331/331/273 367/367/304 366/366/303
f 366/366/303 330/330/272 331/331/273
f 332/332/274 368/368/305 367/367/304
f 367/367/304 331/331/273 332/332/274
f 333/333/275 369/369/306 368/368/305
f 368/368/305 332/332/274 333/333/275
f 334/334/276 370/370/307 371/371/306
f 371/371/306 335/335/275 334/334/276
f 336/336/277 372/372/308 370/370/307
f 370/370/307 334/334/276 336/336/277
f 337/337/278 373/373/309 372/372/308
f 372/372/308 336/336/277 337/337/278
f 338/338/279 374/374/310 373/373/309
f 373/373/309 337/337/278 338/338/279
f 339/339/280 375/375/311 374/374/310
f 374/374/310 338/338/279 339/339/280
f 340/340/281 376/376/312 377/377/311
f 377/377/311 341/341/280 340/340/281
f 342/342/282 378/378/313 376/376/312
f 376/376/312 340/340/281 342/342/282
f 343/343/283 379/379/314 378/378/313
f 378/378/313 342/342/282 343/343/283
f 344/344/284 380/380/315 379/379/314
f 379/379/314 343/343/283 344/344/284
f 345/345/285 381/381/316 380/380/315
f 380/380/315 344/344/284 345/345/285
f 346/346/286 382/382/317 383/383/316
f 383/383/316 347/347/285 346/346/286
f 348/348/287 384/384/318 382/382/317
f 382/382/317 346/346/286 348/348/287
f 314/314/258 350/350/289 384/384/318
f 384/384/318 348/348/287 314/314/258
f 349/349/288 385/385/319 386/386/320
f 386/386/320 350/350/289 349/349/288
f 351/351/290 387/387/321 385/385/319
f 385/385/319 349/349/288 351/351/290
f 352/352/291 388/388/322 389/389/323
f 389/389/323 353/353/290 352/352/291
f 354/354/292 390/390/324 388/388/322
f 388/388/322 352/352/291 354/354/292
f 355/355/293 391/391/325 390/390/324
f 390/390/324 354/354/292 355/355/293
f 356/356/294 392/392/326 391/391/325
f 391/391/325 355/355/293 356/356/294
f 357/357/295 393/393/327 392/392/326
f 392/392/326 356/356/294 357/357/295
f 358/358/296 394/394/328 395/395/327
f 395/395/327 359/359/295 358/358/296
f 360/360/297 396/396/329 394/394/328
f 394/394/328 358/358/296 360/360/297
f 361/361/298 397/397/330 396/396/329
f 396/396/329 360/360/297 361/361/298
f 362/362/299 398/398/331 397/397/330
f 397/397/330 361/361/298 362/362/299
f 363/363/300 399/399/332 398/398/331
f 398/398/331 362/362/299 363/363/300
f 364/364/301 400/400/333 401/401/334
f 401/401/334 365/365/302 364/364/301
f 366/366/303 402/402/335 400/400/333
f 400/400/333 364/364/301 366/366/303
f 367/367/304 403/403/336 402/402/335
f 402/402/335 366/366/303 367/367/304
f 368/368/305 404/404/337 403/403/336
f 403/403/336 367/367/304 368/368/305
f 369/369/306 405/405/338 404/404/337
f 404/404/337 368/368/305 369/369/306
f 370/370/307 406/406/339 407/407/340
f 407/407/340 371/371/306 370/370/307
f 372/372/308 408/408/341 406/406/339
f 406/406/339 370/370/307 372/372/308
f 373/373/309 409/409/342 408/408/341
f 408/408/341 372/372/308 373/373/309
f 374/374/310 410/410/343 409/409/342
f 409/409/342 373/373/309 374/374/310
f 375/375/311 411/411/344 410/410/343
f 410/410/343 374/374/310 375/375/311
f 376/376/312 412/412/345 413/413/344
f 413/413/344 377/377/311 376/376/312
f 378/378/313 414/414/346 412/412/345
f 412/412/345 376/376/312 378/378/313
f 379/379/314 415/415/347 414/414/346
f 414/414/346 378/378/313 379/379/314
f 380/380/315 416/416/348 415/415/347
f 415/415/347 379/379/314 380/380/315
f 381/381/316 417/417/349 416/416/348
f 416/416/348 380/380/315 381/381/316
f 382/382/317 418/418/350 419/419/351
f 419/419/351 383/383/316 382/382/317
f 384/384/318 420/420/352 418/418/350
f 418/418/350 382/382/317 384/384/318
f 350/350/289 386/386/320 420/420/352
f 420/420/352 384/384/318 350/350/289
f 385/385/319 421/421/353 422/422/354
f 422/422/354 386/386/320 385/385/319
f 387/387/321 423/423/355 421/421/353
f 421/421/353 385/385/319 387/387/321
f 388/388/322 424/424/356 425/425/357
f 425/425/357 389/389/323 388/388/322
f 390/390/324 426/426/358 424/424/356
f 424/424/356 388/388/322 390/390/324
f 391/391/325 427/427/359 426/426/358
f 426/426/358 390/390/324 391/391/325
f 392/392/326 428/428/360 427/427/359
f 427/427/359 391/391/325 392/392/326
f 393/393/327 429/429/361 428/428/360
f 428/428/360 392/392/326 393/393/327
f 394/394/328 430/430/362 431/431/363
f 431/431/363 395/395/327 394/394/328
f 396/396/329 432/432/364 430/430/362
f 430/430/362 394/394/328 396/396/329
f 397/397/330 433/433/365 432/432/364
f 432/432/364 396/396/329 397/397/330
f 398/398/331 434/434/366 433/433/365
f 433/433/365 397/397/330 398/398/331
f 399/399/332 435/435/367 434/434/366
f 434/434/366 398/398/331 399/399/332
f 400/400/333 436/436/368 437/437/367
f 437/437/367 401/401/334 400/400/333
f 402/402/335 438/438/369 436/436/368
f 436/436/368 400/400/333 402/402/335
f 403/403/336 439/439/370 438/438/369
f 438/438/369 402/402/335 403/403/336
f 404/404/337 440/440/371 439/439/370
f 439/439/370 403/403/336 404/404/337
f 405/405/338 441/441/372 440/440/371
f 440/440/371 404/404/337 405/405/338
f 406/406/339 442/442/373 443/443/372
f 443/443/372 407/407/340 406/406/339
f 408/408/341 444/444/374 442/442/373
f 442/442/373 406/406/339 408/408/341
f 409/409/342 445/445/375 444/444/374
f 444/444/374 408/408/341 409/409/342
f 410/410/343 446/446/376 445/445/375
f 445/445/375 409/409/342 410/410/343
f 411/411/344 447/447/377 446/446/376
f 446/446/376 410/410/343 411/411/344
f 412/412/345 448/448/378 449/449/377
f 449/449/377 413/413/344 412/412/345
f 414/414/346 450/450/379 448/448/378
f 448/448/378 412/412/345 414/414/346
f 415/415/347 451/451/380 450/450/379
f 450/450/379 414/414/346 415/415/347
f 416/416/348 452/452/381 451/451/380
f 451/451/380 415/415/347 416/416/348
f 417/417/349 453/453/382 452/452/381
f 452/452/381 416/416/348 417/417/349
f 418/418/350 454/454/383 455/455/384
f 455/455/384 419/419/351 418/418/350
f 420/420/352 456/456/385 454/454/383
f 454/454/383 418/418/350 420/420/352
f 386/386/320 422/422/354 456/456/385
f 456/456/385 420/420/352 386/386/320
f 421/421/353 457/457/386 458/458/387
f 458/458/387 422/422/354 421/421/353
f 423/423/355 459/459/388 457/457/386
f 457/457/386 421/421/353 423/423/355
f 424/424/356 460/460/389 461/461/390
f 461/461/390 425/425/357 424/424/356
f 426/426/358 462/462/391 460/460/389
f 460/460/389 424/424/356 426/426/358
f 427/427/359 463/463/392 462/462/391
f 462/462/391 426/426/358 427/427/359
f 428/428/360 464/464/393 463/463/392
f 463/463/392 427/427/359 428/428/360
f 429/429/361 465/465/394 464/464/393
f 464/464/393 428/428/360 429/429/361
f 430/430/362 466/466/395 467/467/394
f 467/467/394 431/431/363 430/430/362
f 432/432/364 468/468/396 466/466/395
f 466/466/395 430/430/362 432/432/364
f 433/433/365 469/469/397 468/468/396
f 468/468/396 432/432/364 433/433/365
f 434/434/366 470/470/398 469/469/397
f 469/469/397 433/433/365 434/434/366
f 435/435/367 471/471/399 470/470/398
f 470/470/398 434/434/366 435/435/367
f 436/436/368 472/472/400 473/473/401
f 473/473/401 437/437/367 436/436/368
f 438/438/369 474/474/402 472/472/400
f 472/472/400 436/436/368 438/438/369
f 439/439/370 475/475/403 474/474/402
f 474/474/402 438/438/369 439/439/370
f 440/440/371 476/476/404 475/475/403
f 475/475/403 439/439/370 440/440/371
f 441/441/372 477/477/405 476/476/404
f 476/476/404 440/440/371 441/441/372
f 442/442/373 478/478/406 479/479/407
f 479/479/407 443/443/372 442/442/373
f 444/444/374 480/480/408 478/478/406
f 478/478/406 442/442/373 444/444/374
f 445/445/375 481/481/409 480/480/408
f 480/480/408 444/444/374 445/445/375
f 446/446/376 482/482/410 481/481/409
f 481/481/409 445/445/375 446/446/376
f 447/447/377 483/483/411 482/482/410
f 482/482/410 446/446/376 447/447/377
f 448/448/378 484/484/412 485/485/411
f 485/485/411 449/449/377 448/448/378
f 450/450/379 486/486/413 484/484/412
f 484/484/412 448/448/378 450/450/379
f 451/451/380 487/487/414 486/486/413
f 486/486/413 450/450/379 451/451/380
f 452/452/381 488/488/415 487/487/414
f 487/487/414 451/451/380 452/452/381
f 453/453/382 489/489/416 488/488/415
f 488/488/415 452/452/381 453/453/382
f 454/454/383 490/490/417 491/491/418
f 491/491/418 455/455/384 454/454/383
f 456/456/385 492/492/419 490/490/417
f 490/490/417 454/454/383 456/456/385
f 422/422/354 458/458/387 492/492/419
f 492/492/419 456/456/385 422/422/354
f 457/457/386 493/493/420 494/494/421
f 494/494/421 458/458/387 457/457/386
f 459/459/388 495/495/422 493/493/420
f 493/493/420 457/457/386 459/459/388
f 460/460/389 496/496/423 497/497/422
f 497/497/422 461/461/390 460/460/389
f 462/462/391 498/498/424 496/496/423
f 496/496/423 460/460/389 462/462/391
f 463/463/392 499/499/425 498/498/424
f 498/498/424 462/462/391 463/463/392
f 464/464/393 500/500/426 499/499/425
f 499/499/425 463/463/392 464/464/393
f 465/465/394 501/501/427 500/500/426
f 500/500/426 464/464/393 465/465/394
f 466/466/395 502/502/428 503/503/429
f 503/503/429 467/467/394 466/466/395
f 468/468/396 504/504/430 502/502/428
f 502/502/428 466/466/395 468/468/396
f 469/469/397 505/505/431 504/504/430
f 504/504/430 468/468/396 469/469/397
f 470/470/398 506/506/432 505/505/431
f 505/505/431 469/469/397 470/470/398
f 471/471/399 507/507/433 506/506/432
f 506/506/432 470/470/398 471/471/399
f 472/472/400 508/508/434 509/509/435
f 509/509/435 473/473/401 472/472/400
f 474/474/402 510/510/436 508/508/434
f 508/508/434 472/472/400 474/474/402
f 475/475/403 511/511/437 510/510/436
f 510/510/436 474/474/402 475/475/403
f 476/476/404 512/512/438 511/511/437
f 511/511/437 475/475/403 476/476/404
f 477/477/405 513/513/439 512/512/438
f 512/512/438 476/476/404 477/477/405
f 478/478/406 514/514/440 515/515/439
f 515/515/439 479/479/407 478/478/406
f 480/480/408 516/516/441 514/514/440
f 514/514/440 478/478/406 480/480/408
f 481/481/409 517/517/442 516/516/441
f 516/516/441 480/480/408 481/481/409
f 482/482/410 518/518/443 517/517/442
f 517/517/442 481/481/409 482/482/410
f 483/483/411 519/519/444 518/518/443
f 518/518/443 482/482/410 483/483/411
f 484/484/412 520/520/445 521/521/446
f 521/521/446 485/485/411 484/484/412
f 486/486/413 522/522/447 520/520/445
f 520/520/445 484/484/412 486/486/413
f 487/487/414 523/523/448 522/522/447
f 522/522/447 486/486/413 487/487/414
f 488/488/415 524/524/449 523/523/448
f 523/523/448 487/487/414 488/488/415
f 489/489/416 525/525/450 524/524/449
f 524/524/449 488/488/415 489/489/416
f 490/490/417 526/526/451 527/527/452
f 527/527/452 491/491/418 490/490/417
f 492/492/419 528/528/453 526/526/451
f 526/526/451 490/490/417 492/492/419
f 458/458/387 494/494/421 528/528/453
f 528/528/453 492/492/419 458/458/387
f 493/493/420 529/529/454 530/530/455
f 530/530/455 494/494/421 493/493/420
f 495/495/422 531/531/456 529/529/454
f 529/529/454 493/493/420 495/495/422
f 496/496/423 532/532/457 533/533/456
f 533/533/456 497/497/422 496/496/423
f 498/498/424 534/534/458 532/532/457
f 532/532/457 496/496/423 498/498/424
f 499/499/425 535/535/459 534/534/458
f 534/534/458 498/498/424 499/499/425
f 500/500/426 536/536/460 535/535/459
f 535/535/459 499/499/425 500/500/426
f 501/501/427 537/537/461 536/536/460
f 536/536/460 500/500/426 501/501/427
f 502/502/428 538/538/462 539/539/461
f 539/539/461 503/503/429 502/502/428
f 504/504/430 540/540/463 538/538/462
f 538/538/462 502/502/428 504/504/430
f 505/505/431 541/541/464 540/540/463
f 540/540/463 504/504/430 505/505/431
f 506/506/432 542/542/465 541/541/464
f 541/541/464 505/505/431 506/506/432
f 507/507/433 543/543/466 542/542/465
f 542/542/465 506/506/432 507/507/433
f 508/508/434 544/544/467 545/545/468
f 545/545/468 509/509/435 508/508/434
f 510/510/436 546/546/469 544/544/467
f 544/544/467 508/508/434 510/510/436
f 511/511/437 547/547/470 546/546/469
f 546/546/469 510/510/436 511/511/437
f 512/512/438 548/548/471 547/547/470
f 547/547/470 511/511/437 512/512/438
f 513/513/439 549/549/472 548/548/471
f 548/548/471 512/512/438 513/513/439
f 514/514/440 550/550/473 551/551/472
f 551/551/472 515/515/439 514/514/440
f 516/516/441 552/552/474 550/550/473
f 550/550/473 514/514/440 516/516/441
f 517/517/442 553/553/475 552/552/474
f 552/552/474 516/516/441 517/517/442
f 518/518/443 554/554/476 553/553/475
f 553/553/475 517/517/442 518/518/443
f 519/519/444 555/555/477 554/554/476
f 554/554/476 518/518/443 519/519/444
f 520/520/445 556/556/478 557/557/477
f 557/557/477 521/521/446 520/520/445
f 522/522/447 558/558/479 556/556/478
f 556/556/478 520/520/445 522/522/447
f 523/523/448 559/559/480 558/558/479
f 558/558/479 522/522/447 523/523/448
f 524/524/449 560/560/481 559/559/480
f 559/559/480 523/523/448 524/524/449
f 525/525/450 561/561/482 560/560/481
f 560/560/481 524/524/449 525/525/450
f 526/526/451 562/562/483 563/563/482
f 563/563/482 527/527/452 526/526/451
f 528/528/453 564/564/484 562/562/483
f 562/562/483 526/526/451 528/528/453
f 494/494/421 530/530/455 564/564/484
f 564/564/484 528/528/453 494/494/421
f 529/529/454 565/565/485 566/566/485
f 566/566/485 530/530/455 529/529/454
f 531/531/456 567/567/486 565/565/485
f 565/565/485 529/529/454 531/531/456
f 532/532/457 568/568/487 569/569/488
f 569/569/488 533/533/456 532/532/457
f 534/534/458 570/570/489 568/568/487
f 568/568/487 532/532/457 534/534/458
f 535/535/459 571/571/490 570/570/489
f 570/570/489 534/534/458 535/535/459
f 536/536/460 572/572/491 571/571/490
f 571/571/490 535/535/459 536/536/460
f 537/537/461 573/573/492 572/572/491
f 572/572/491 536/536/460 537/537/461
f 538/538/462 574/574/493 575/575/492
f 575/575/492 539/539/461 538/538/462
f 540/540/463 576/576/494 574/574/493
f 574/574/493 538/538/462 540/540/463
f 541/541/464 577/577/495 576/576/494
f 576/576/494 540/540/463 541/541/464
f 542/542/465 578/578/496 577/577/495
f 577/577/495 541/541/464 542/542/465
f 543/543/466 579/579/497 578/578/496
f 578/578/496 542/542/465 543/543/466
f 544/544/467 580/580/498 581/581/497
f 581/581/497 545/545/468 544/544/467
f 546/546/469 582/582/499 580/580/498
f 580/580/498 544/544/467 546/546/469
f 547/547/470 583/583/500 582/582/499
f 582/582/499 546/546/469 547/547/470
f 548/548/471 584/584/501 583/583/500
f 583/583/500 547/547/470 548/548/471
f 549/549/472 585/585/502 584/584/501
f 584/584/501 548/548/471 549/549/472
f 550/550/473 586/586/503 587/587/504
f 587/587/504 551/551/472 550/550/473
f 552/552/474 588/588/505 586/586/503
f 586/586/503 550/550/473 552/552/474
f 553/553/475 589/589/506 588/588/505
f 588/588/505 552/552/474 553/553/475
f 554/554/476 590/590/507 589/589/506
f 589/589/506 553/553/475 554/554/476
f 555/555/477 591/591/508 590/590/507
f 590/590/507 554/554/476 555/555/477
f 556/556/478 592/592/509 593/593/508
f 593/593/508 557/557/477 556/556/478
f 558/558/479 594/594/510 592/592/509
f 592/592/509 556/556/478 558/558/479
f 559/559/480 595/595/511 594/594/510
f 594/594/510 558/558/479 559/559/480
f 560/560/481 596/596/512 595/595/511
f 595/595/511 559/559/480 560/560/481
f 561/561/482 597/597/513 596/596/512
f 596/596/512 560/560/481 561/561/482
f 562/562/483 598/598/514 599/599/515
f 599/599/515 563/563/482 562/562/483
f 564/564/484 600/600/516 598/598/514
f 598/598/514 562/562/483 564/564/484
f 530/530/455 566/566/485 600/600/516
f 600/600/516 564/564/484 530/530/455
f 565/565/485 601/601/517 602/602/517
f 602/602/517 566/566/485 565/565/485
f 567/567/486 603/603/518 601/601/517
f 601/601/517 565/565/485 567/567/486
f 568/568/487 604/604/519 605/605/520
f 605/605/520 569/569/488 568/568/487
f 570/570/489 606/606/521 604/604/519
f 604/604/519 568/568/487 570/570/489
f 571/571/490 607/607/522 606/606/521
f 606/606/521 570/570/489 571/571/490
f 572/572/491 608/608/523 607/607/522
f 607/607/522 571/571/490 572/572/491
f 573/573/492 609/609/524 608/608/523
f 608/608/523 572/572/491 573/573/492
f 574/574/493 610/610/525 611/611/526
f 611/611/526 575/575/492 574/574/493
f 576/576/494 612/612/527 610/610/525
f 610/610/525 574/574/493 576/576/494
f 577/577/495 613/613/528 612/612/527
f 612/612/527 576/576/494 577/577/495
f 578/578/496 614/614/529 613/613/528
f 613/613/528 577/577/495 578/578/496
f 579/579/497 615/615/530 614/614/529
f 614/614/529 578/578/496 579/579/497
f 580/580/498 616/616/531 617/617/530
f 617/617/530 581/581/497 580/580/498
f 582/582/499 618/618/532 616/616/531
f 616/616/531 580/580/498 582/582/499
f 583/583/500 619/619/533 618/618/532
f 618/618/532 582/582/499 583/583/500
f 584/584/501 620/620/534 619/619/533
f 619/619/533 583/583/500 584/584/501
f 585/585/502 621/621/535 620/620/534
f 620/620/534 584/584/501 585/585/502
f 586/586/503 622/622/536 623/623/537
f 623/623/537 587/587/504 586/586/503
f 588/588/505 624/624/538 622/622/536
f 622/622/536 586/586/503 588/588/505
f 589/589/506 625/625/539 624/624/538
f 624/624/538 588/588/505 589/589/506
f 590/590/507 626/626/540 625/625/539
f 625/625/539 589/589/506 590/590/507
f 591/591/508 627/627/541 626/626/540
f 626/626/540 590/590/507 591/591/508
f 592/592/509 628/628/542 629/629/543
f 629/629/543 593/593/508 592/592/509
f 594/594/510 630/630/544 628/628/542
f 628/628/542 592/592/509 594/594/510
f 595/595/511 631/631/545 630/630/544
f 630/630/544 594/594/510 595/595/511
f 596/596/512 632/632/546 631/631/545
f 631/631/545 595/595/511 596/596/512
f 597/597/513 633/633/547 632/632/546
f 632/632/546 596/596/512 597/597/513
f 598/598/514 634/634/548 635/635/547
f 635/635/547 599/599/515 598/598/514
f 600/600/516 636/636/549 634/634/548
f 634/634/548 598/598/514 600/600/516
f 566/566/485 602/602/517 636/636/549
f 636/636/549 600/600/516 566/566/485
f 601/601/517 637/637/550 638/638/550
f 638/638/550 602/602/517 601/601/517
f 603/603/518 639/639/551 637/637/550
f 637/637/550 601/601/517 603/603/518
f 604/604/519 640/640/552 641/641/553
f 641/641/553 605/605/520 604/604/519
f 606/606/521 642/642/554 640/640/552
f 640/640/552 604/604/519 606/606/521
f 607/607/522 643/643/555 642/642/554
f 642/642/554 606/606/521 607/607/522
f 608/608/523 644/644/556 643/643/555
f 643/643/555 607/607/522 608/608/523
f 609/609/524 645/645/557 644/644/556
f 644/644/556 608/608/523 609/609/524
f 610/610/525 646/646/558 647/647/557
f 647/647/557 611/611/526 610/610/525
f 612/612/527 648/648/559 646/646/558
f 646/646/558 610/610/525 612/612/527
f 613/613/528 649/649/560 648/648/559
f 648/648/559 612/612/527 613/613/528
f 614/614/529 650/650/561 649/649/560
f 649/649/560 613/613/528 614/614/529
f 615/615/530 651/651/562 650/650/561
f 650/650/561 614/614/529 615/615/530
f 616/616/531 652/652/563 653/653/562
f 653/653/562 617/617/530 616/616/531
f 618/618/532 654/654/564 652/652/563
f 652/652/563 616/616/531 618/618/532
f 619/619/533 655/655/565 654/654/564
f 654/654/564 618/618/532 619/619/533
f 620/620/534 656/656/566 655/655/565
f 655/655/565 619/619/533 620/620/534
f 621/621/535 657/657/567 656/656/566
f 656/656/566 620/620/534 621/621/535
f 622/622/536 658/658/568 659/659/567
f 659/659/567 623/623/537 622/622/536
f 624/624/538 660/660/569 658/658/568
f 658/658/568 622/622/536 624/624/538
f 625/625/539 661/661/570 660/660/569
f 660/660/569 624/624/538 625/625/539
f 626/626/540 662/662/571 661/661/570
f 661/661/570 625/625/539 626/626/540
f 627/627/541 663/663/572 662/662/571
f 662/662/571 626/626/540 627/627/541
f 628/628/542 664/664/573 665/665/572
f 665/665/572 629/629/543 628/628/542
f 630/630/544 666/666/574 664/664/573
f 664/664/573 628/628/542 630/630/544
f 631/631/545 667/667/575 666/666/574
f 666/666/574 630/630/544 631/631/545
f 632/632/546 668/668/576 667/667/575
f 667/667/575 631/631/545 632/632/546
f 633/633/547 669/669/577 668/668/576
f 668/668/576 632/632/546 633/633/547
f 634/634/548 670/670/578 671/671/579
f 671/671/579 635/635/547 634/634/548
f 636/636/549 672/672/580 670/670/578
f 670/670/578 634/634/548 636/636/549
f 602/602/517 638/638/550 672/672/580
f 672/672/580 636/636/549 602/602/517
f 673/673/550 674/674/581 675/675/581
f 675/675/581 676/676/550 673/673/550
f 677/677/582 678/678/583 674/674/581
f 674/674/581 673/673/550 677/677/582
f 679/679/552 680/680/584 678/678/583
f 678/678/583 677/677/582 679/679/552
f 681/681/585 682/682/586 680/680/584
f 680/680/584 679/679/552 681/681/585
f 683/683/587 684/684/588 682/682/586
f 682/682/586 681/681/585 683/683/587
f 685/685/589 686/686/590 684/684/588
f 684/684/588 683/683/587 685/685/589
f 687/687/591 688/688/592 686/686/590
f 686/686/590 685/685/589 687/687/591
f 689/689/593 690/690/594 688/688/592
f 688/688/592 687/687/591 689/689/593
f 691/691/595 692/692/596 690/690/594
f 690/690/594 689/689/593 691/691/595
f 693/693/597 694/694/598 692/692/596
f 692/692/596 691/691/595 693/693/597
f 695/695/599 696/696/600 694/694/598
f 694/694/598 693/693/597 695/695/599
f 697/697/601 698/698/602 696/696/600
f 696/696/600 695/695/599 697/697/601
f 699/699/563 700/700/603 698/698/602
f 698/698/602 697/697/601 699/699/563
f 701/701/564 702/702/604 700/700/603
f 700/700/603 699/699/563 701/701/564
f 703/703/605 704/704/606 702/702/604
f 702/702/604 701/701/564 703/703/605
f 705/705/566 706/706/607 704/704/606
f 704/704/606 703/703/605 705/705/566
f 707/707/608 708/708/609 706/706/607
f 706/706/607 705/705/566 707/707/608
f 709/709/610 710/710/611 708/708/609
f 708/708/609 707/707/608 709/709/610
f 711/711/612 712/712/613 710/710/611
f 710/710/611 709/709/610 711/711/612
f 713/713/614 714/714/615 712/712/613
f 712/712/613 711/711/612 713/713/614
f 715/715/616 716/716/617 714/714/615
f 714/714/615 713/713/614 715/715/616
f 717/717/572 718/718/618 716/716/617
f 716/716/617 715/715/616 717/717/572
f 719/719/619 720/720/620 718/718/618
f 718/718/618 717/717/572 719/719/619
f 721/721/621 722/722/622 720/720/620
f 720/720/620 719/719/619 721/721/621
f 723/723/575 724/724/623 722/722/622
f 722/722/622 721/721/621 723/723/575
f 725/725/624 726/726/625 724/724/623
f 724/724/623 723/723/575 725/725/624
f 727/727/626 728/728/627 726/726/625
f 726/726/625 725/725/624 727/727/626
f 729/729/578 730/730/628 728/728/627
f 728/728/627 727/727/626 729/729/578
f 731/731/580 732/732/629 730/730/628
f 730/730/628 729/729/578 731/731/580
f 676/676/550 675/675/581 732/732/629
f 732/732/629 731/731/580 676/676/550
f 1/1/1 4/4/1 733/733/630
f 5/5/2 1/1/1 733/733/630
f 7/7/4 5/5/2 733/733/630
f 9/9/6 7/7/4 733/733/630
f 11/11/8 9/9/6 733/733/630
f 13/13/9 11/11/8 733/733/630
f 15/15/10 13/13/9 733/733/630
f 17/17/11 15/15/10 733/733/630
f 19/19/12 17/17/11 733/733/630
f 21/21/13 19/19/12 733/733/630
f 23/23/15 21/21/13 733/733/630
f 25/25/17 23/23/15 733/733/630
f 27/27/19 25/25/17 733/733/630
f 29/29/21 27/27/19 733/733/630
f 31/31/23 29/29/21 733/733/630
f 33/33/25 31/31/23 733/733/630
f 35/35/27 33/33/25 733/733/630
f 37/37/29 35/35/27 733/733/630
f 39/39/31 37/37/29 733/733/630
f 41/41/33 39/39/31 733/733/630
f 43/43/34 41/41/33 733/733/630
f 45/45/35 43/43/34 733/733/630
f 47/47/37 45/45/35 733/733/630
f 49/49/39 47/47/37 733/733/630
f 51/51/40 49/49/39 733/733/630
f 53/53/41 51/51/40 733/733/630
f 55/55/43 53/53/41 733/733/630
f 57/57/45 55/55/43 733/733/630
f 59/59/46 57/57/45 733/733/630
f 4/4/1 59/59/46 733/733/630
f 675/675/581 674/674/581 734/734/631
f 674/674/581 678/678/583 734/734/631
f 678/678/583 680/680/584 734/734/631
f 680/680/584 682/682/586 734/734/631
f 682/682/586 684/684/588 734/734/631
f 684/684/588 686/686/590 734/734/631
f 686/686/590 688/688/592 734/734/631
f 688/688/592 690/690/594 734/734/631
f 690/690/594 692/692/596 734/734/631
f 692/692/596 694/694/598 734/734/631
f 694/694/598 696/696/600 734/734/631
f 696/696/600 698/698/602 734/734/631
f 698/698/602 700/700/603 734/734/631
f 700/700/603 702/702/604 734/734/631
f 702/702/604 704/704/606 734/734/631
f 704/704/606 706/706/607 734/734/631
f 706/706/607 708/708/609 734/734/631
f 708/708/609 710/710/611 734/734/631
f 710/710/611 712/712/613 734/734/631
f 712/712/613 714/714/615 734/734/631
f 714/714/615 716/716/617 734/734/631
f 716/716/617 718/718/618 734/734/631
f 718/718/618 720/720/620 734/734/631
f 720/720/620 722/722/622 734/734/631
f 722/722/622 724/724/623 734/734/631
f 724/724/623 726/726/625 734/734/631
f 726/726/625 728/728/627 734/734/631
f 728/728/627 730/730/628 734/734/631
f 730/730/628 732/732/629 734/734/631
f 732/732/629 675/675/581 734/734/631
