# Blender 5.1.2
# www.blender.org
mtllib Body.mtl
o Body
v 0.040531 0.789266 -0.208286
v -0.001419 0.718736 -0.269787
v -0.001119 0.789266 -0.211685
v 0.000001 0.828786 0.000412
v -0.042719 0.789266 -0.207787
v -0.001579 0.599686 -0.300488
v -0.054429 0.718736 -0.264885
v -0.060629 0.599686 -0.295086
v -0.001989 0.526986 -0.377987
v -0.076259 0.526986 -0.371086
v -0.117009 0.599686 -0.278385
v -0.082449 0.789266 -0.196087
v -0.105039 0.718736 -0.249886
v -0.118649 0.789266 -0.175888
v -0.151159 0.718736 -0.224186
v -0.168389 0.599686 -0.249786
v -0.211799 0.526986 -0.314087
v -0.191759 0.718736 -0.189785
v -0.150519 0.789266 -0.148888
v -0.268729 0.526986 -0.265884
v -0.213609 0.599686 -0.211388
v -0.313729 0.450116 -0.310486
v -0.251929 0.599686 -0.165688
v -0.177539 0.789266 -0.116688
v -0.226179 0.718736 -0.148785
v -0.316929 0.527006 -0.208485
v -0.281629 0.599686 -0.113785
v -0.252829 0.718736 -0.102085
v -0.198479 0.789266 -0.080086
v 0.105031 0.718736 0.249813
v 0.151151 0.718736 0.224213
v 0.118641 0.789266 0.176014
v 0.117002 0.599686 0.278313
v 0.082441 0.789266 0.196213
v 0.000001 0.828786 0.000412
v 0.060621 0.599686 0.295013
v 0.076251 0.526986 0.371113
v 0.054421 0.718736 0.264812
v 0.042711 0.789266 0.207912
v 0.001571 0.599686 0.300514
v 0.001981 0.526986 0.378014
v 0.002311 0.450116 0.441414
v -0.072359 0.526986 0.371815
v -0.057528 0.599686 0.295612
v -0.114079 0.599686 0.279514
v 0.001411 0.718736 0.269714
v 0.001111 0.789266 0.211815
v -0.040539 0.789266 0.208412
v -0.051639 0.718736 0.265415
v -0.080379 0.789266 0.197014
v -0.102409 0.718736 0.250915
v -0.116789 0.789266 0.177315
v -0.148799 0.718736 0.225716
v -0.165749 0.599686 0.251514
v -0.208488 0.526986 0.316315
v -0.189749 0.718736 0.191715
v -0.148939 0.789266 0.150616
v -0.176299 0.789266 0.118713
v -0.265829 0.526986 0.268612
v -0.310529 0.450116 0.313713
v -0.211379 0.599686 0.213615
v -0.250229 0.599686 0.168312
v -0.224609 0.718736 0.151115
v -0.314729 0.527006 0.211716
v -0.369629 0.450166 0.247513
v -0.280429 0.599686 0.116714
v -0.251729 0.718736 0.104713
v -0.197618 0.789266 0.082313
v -0.352729 0.527646 0.146812
v -0.209149 0.789266 0.042416
v -0.212809 0.789266 0.001213
v -0.271129 0.718736 0.001415
v -0.266429 0.718736 0.053913
v -0.302029 0.599686 0.001614
v -0.296829 0.599686 0.060013
v -0.379828 0.530386 0.002014
v -0.373329 0.529836 0.075512
v 0.374111 0.529836 0.071613
v 0.281672 0.599686 0.113712
v 0.354291 0.527646 0.143013
v 0.316911 0.527006 0.208412
v 0.379871 0.530386 -0.001987
v 0.297421 0.599686 0.056915
v 0.302001 0.599686 -0.001587
v 0.313751 0.450116 0.310413
v 0.268671 0.526986 0.265812
v 0.211791 0.526986 0.314114
v 0.251951 0.599686 0.165714
v 0.168381 0.599686 0.249714
v 0.213601 0.599686 0.211315
v 0.191751 0.718736 0.189712
v 0.226171 0.718736 0.148712
v 0.252851 0.718736 0.102116
v 0.266991 0.718736 0.051113
v 0.271111 0.718736 -0.001488
v 0.209571 0.789266 0.040214
v 0.212801 0.789266 -0.001087
v 0.198471 0.789266 0.080215
v 0.177531 0.789266 0.116814
v 0.150511 0.789266 0.149013
v 0.437961 0.449836 -0.168587
v 0.491831 0.354866 -0.212288
v 0.369661 0.450166 -0.247585
v 0.541411 0.354866 -0.092785
v 0.352761 0.527646 -0.146786
v 0.451111 0.474506 -0.081688
v 0.546821 0.354866 -0.002888
v 0.456532 0.477286 -0.002388
v 0.379871 0.530386 -0.001987
v 0.373331 0.529836 -0.075485
v 0.296811 0.599686 -0.060085
v 0.302001 0.599686 -0.001587
v 0.280451 0.599686 -0.116688
v 0.314701 0.527006 -0.211784
v 0.310472 0.450116 -0.313786
v 0.265871 0.526986 -0.268684
v 0.250191 0.599686 -0.168385
v 0.211371 0.599686 -0.213585
v 0.189741 0.718736 -0.191788
v 0.224601 0.718736 -0.151085
v 0.176291 0.789266 -0.118588
v 0.251761 0.718736 -0.104786
v 0.197611 0.789266 -0.082188
v 0.266441 0.718736 -0.053886
v 0.271111 0.718736 -0.001488
v 0.209141 0.789266 -0.042187
v 0.212801 0.789266 -0.001087
v -0.147169 0.526986 -0.350086
v -0.171869 0.450116 -0.408886
v -0.089059 0.450116 -0.433388
v -0.101859 0.355786 -0.495686
v -0.002319 0.450116 -0.441387
v -0.002659 0.355786 -0.504887
v -0.002949 0.245586 -0.560787
v 0.084491 0.450116 -0.434288
v -0.196579 0.355786 -0.467587
v 0.096642 0.355786 -0.496788
v -0.113129 0.245586 -0.550488
v -0.247329 0.450116 -0.366886
v -0.218328 0.245586 -0.519386
v -0.282928 0.355786 -0.419586
v -0.003189 0.124236 -0.605385
v -0.122139 0.124236 -0.594387
v 0.107331 0.245586 -0.551685
v -0.003369 -0.014244 -0.639988
v 0.115881 0.124236 -0.595585
v 0.191651 0.355786 -0.469685
v 0.212852 0.245586 -0.521587
v 0.167551 0.450116 -0.410587
v 0.243461 0.450116 -0.369385
v 0.278471 0.355786 -0.422585
v 0.208481 0.526986 -0.316387
v 0.143481 0.526986 -0.351585
v 0.072351 0.526986 -0.371887
v 0.114071 0.599686 -0.279587
v 0.057521 0.599686 -0.295685
v 0.165741 0.599686 -0.251488
v 0.148791 0.718736 -0.225784
v 0.102401 0.718736 -0.250988
v 0.051631 0.718736 -0.265385
v 0.116791 0.789266 -0.177086
v 0.080371 0.789266 -0.196888
v 0.148932 0.789266 -0.150486
v 0.128211 -0.437474 0.622315
v 0.003491 -0.321144 0.665615
v 0.003321 -0.437534 0.633713
v 0.117491 -0.525434 0.558712
v 0.134281 -0.321144 0.653515
v 0.133931 -0.171494 0.651714
v 0.226651 -0.524164 0.529514
v 0.258471 -0.171494 0.614815
v 0.249151 -0.014244 0.592712
v 0.247421 -0.437314 0.587315
v 0.259161 -0.321144 0.616512
v 0.358571 -0.014244 0.531815
v 0.339211 0.124236 0.503113
v 0.371981 -0.171494 0.551712
v 0.430321 0.124236 0.425816
v 0.398582 0.245586 0.394413
v 0.454871 -0.014244 0.450115
v 0.372972 -0.321144 0.553112
v 0.507092 0.124306 0.333813
v 0.471891 -0.171494 0.466915
v 0.535542 -0.014244 0.352913
v 0.555571 -0.171494 0.366116
v 0.473141 -0.321144 0.468212
v 0.557051 -0.321144 0.367115
v 0.451431 -0.437024 0.446514
v 0.356001 -0.437124 0.527412
v 0.411592 -0.521824 0.406113
v 0.325671 -0.522604 0.478313
v 0.531121 -0.437124 0.349815
v 0.619181 -0.321144 0.252613
v 0.617551 -0.171494 0.252014
v 0.589981 -0.437314 0.240315
v 0.595271 -0.014244 0.242912
v 0.654871 -0.321144 0.127415
v 0.653141 -0.171494 0.127014
v 0.665631 -0.321144 -0.003487
v 0.663871 -0.171494 -0.003487
v 0.623701 -0.437474 0.121014
v 0.633831 -0.437534 -0.003387
v 0.629591 -0.014244 0.122513
v 0.639931 -0.014244 -0.003387
v 0.565751 0.123886 0.229214
v 0.599871 0.121036 0.115414
v 0.609891 0.120306 -0.003185
v 0.471601 0.245846 0.309216
v 0.358881 0.355786 0.355114
v 0.543871 0.248726 0.205414
v 0.425551 0.355706 0.280014
v 0.587451 0.217706 0.102512
v 0.596811 0.214166 -0.003185
v 0.542351 0.354866 0.087112
v 0.546821 0.354866 -0.002888
v 0.494031 0.354866 0.207012
v 0.372241 0.450166 0.243614
v 0.439701 0.449836 0.163914
v 0.451951 0.474506 0.076912
v 0.456532 0.477286 -0.002388
v -0.297429 0.599686 -0.056885
v -0.267029 0.718736 -0.051086
v -0.209579 0.789266 -0.039986
v -0.302029 0.599686 0.001614
v -0.271129 0.718736 0.001415
v -0.212809 0.789266 0.001213
v -0.379828 0.530386 0.002014
v -0.374129 0.529836 -0.071587
v -0.354329 0.527646 -0.143086
v -0.451929 0.474506 -0.076885
v -0.456529 0.477286 0.002415
v -0.546829 0.354866 0.002815
v -0.439729 0.449836 -0.163986
v -0.542329 0.354866 -0.087086
v -0.596828 0.214166 0.003113
v -0.372229 0.450166 -0.243687
v -0.494029 0.354866 -0.207085
v -0.587429 0.217706 -0.102585
v -0.609929 0.120306 0.003212
v -0.543929 0.248726 -0.205387
v -0.425529 0.355706 -0.279987
v -0.599929 0.121036 -0.115387
v -0.639929 -0.014244 0.003315
v -0.358929 0.355786 -0.355186
v -0.471629 0.245846 -0.309185
v -0.565729 0.123896 -0.229187
v -0.629629 -0.014244 -0.122486
v -0.663829 -0.171494 0.003513
v -0.653129 -0.171494 -0.127087
v -0.665629 -0.321144 0.003513
v -0.595329 -0.014244 -0.242886
v -0.507129 0.124306 -0.333786
v -0.398629 0.245586 -0.394386
v -0.535529 -0.014244 -0.352985
v -0.314229 0.245586 -0.465984
v -0.430329 0.124236 -0.425888
v -0.339229 0.124236 -0.503086
v -0.235709 0.124236 -0.560688
v -0.129109 -0.014244 -0.628284
v -0.249129 -0.014244 -0.592686
v -0.358529 -0.014244 -0.531788
v -0.454929 -0.014244 -0.450188
v -0.167559 0.450116 0.410614
v -0.143489 0.526986 0.351612
v -0.084499 0.450116 0.434216
v -0.096649 0.355786 0.496716
v -0.243429 0.450116 0.369415
v -0.191659 0.355786 0.469612
v 0.002651 0.355786 0.504814
v -0.107339 0.245586 0.551613
v 0.002941 0.245586 0.560715
v 0.089051 0.450116 0.433315
v 0.101851 0.355786 0.495613
v 0.003181 0.124236 0.605415
v 0.113121 0.245586 0.550514
v 0.171861 0.450116 0.408813
v 0.196571 0.355786 0.467613
v 0.147161 0.526986 0.350113
v 0.247331 0.450116 0.366814
v 0.218321 0.245586 0.519314
v 0.282891 0.355786 0.419514
v 0.122131 0.124236 0.594315
v 0.314191 0.245586 0.466015
v 0.235701 0.124236 0.560715
v 0.129101 -0.014244 0.628212
v 0.003361 -0.014244 0.639915
v -0.115889 0.124236 0.595615
v 0.003481 -0.171494 0.663815
v -0.122499 -0.014244 0.629612
v -0.212859 0.245586 0.521614
v -0.229809 0.124236 0.563114
v -0.278429 0.355786 0.422512
v -0.309329 0.245586 0.469215
v -0.355129 0.355786 0.358913
v -0.333929 0.124236 0.506615
v -0.394429 0.245586 0.398613
v -0.242929 -0.014244 0.595215
v -0.127079 -0.171494 0.653114
v -0.352929 -0.014244 0.535515
v -0.252028 -0.171494 0.617516
v -0.127419 -0.321144 0.654816
v -0.366129 -0.171494 0.555515
v -0.425829 0.124236 0.430313
v -0.450129 -0.014244 0.454815
v -0.503529 0.124306 0.339115
v -0.531829 -0.014244 0.358513
v -0.468328 0.245846 0.314114
v -0.592729 -0.014244 0.249115
v -0.422629 0.355706 0.284412
v -0.563329 0.123886 0.235115
v -0.541729 0.248726 0.211113
v -0.614829 -0.171494 0.258514
v -0.551729 -0.171494 0.372013
v -0.466928 -0.171494 0.471912
v -0.616529 -0.321144 0.259113
v -0.491829 0.354866 0.212215
v -0.553129 -0.321144 0.372913
v -0.468229 -0.321144 0.473114
v -0.367129 -0.321144 0.557014
v -0.446729 -0.437024 0.451313
v -0.527429 -0.437124 0.355415
v -0.252629 -0.321144 0.619213
v -0.350429 -0.437124 0.531113
v -0.241229 -0.437314 0.589912
v -0.407329 -0.521824 0.410416
v -0.320629 -0.522604 0.481712
v -0.121669 -0.437474 0.623615
v -0.221089 -0.524164 0.531914
v -0.286129 -0.586224 0.414913
v -0.198099 -0.591234 0.450413
v -0.111619 -0.525434 0.559914
v -0.100239 -0.595144 0.469215
v 0.002981 -0.525934 0.568214
v 0.002491 -0.596674 0.474415
v -0.451129 0.474506 0.081615
v -0.456529 0.477286 0.002415
v -0.546829 0.354866 0.002815
v -0.437929 0.449836 0.168613
v -0.541429 0.354866 0.092815
v -0.596828 0.214166 0.003113
v -0.586329 0.217706 0.108715
v -0.609929 0.120306 0.003212
v -0.598629 0.121036 0.121716
v -0.639929 -0.014244 0.003315
v -0.628229 -0.014244 0.129112
v -0.663829 -0.171494 0.003513
v -0.651729 -0.171494 0.133915
v -0.665629 -0.321144 0.003513
v -0.653529 -0.321144 0.134316
v -0.622429 -0.437474 0.127613
v -0.633829 -0.437534 0.003315
v -0.587429 -0.437314 0.246513
v -0.559529 -0.525434 0.112415
v -0.569029 -0.525934 0.003014
v -0.530029 -0.524164 0.219513
v -0.478329 -0.522604 0.320915
v -0.473829 -0.597284 0.089314
v -0.480429 -0.598674 0.002514
v -0.451429 -0.593294 0.179813
v -0.413329 -0.586654 0.275715
v -0.359229 -0.583124 0.358513
v -0.394929 -0.663864 0.064415
v -0.400329 -0.665514 0.002014
v -0.273529 -0.707224 0.001312
v -0.271829 -0.704024 0.056515
v -0.359729 -0.660704 0.133915
v -0.150409 -0.726894 0.000614
v -0.340129 -0.631624 0.239113
v -0.267329 -0.689304 0.141712
v -0.153099 -0.722454 0.058914
v -0.086039 -0.717924 0.000412
v -0.178769 -0.703714 0.129314
v -0.086259 -0.713564 0.072613
v 0.000001 -0.719114 0.000015
v -0.260929 -0.657364 0.233814
v -0.320729 -0.617654 0.312313
v -0.262029 -0.629514 0.332115
v -0.176619 -0.671554 0.241913
v -0.181119 -0.639684 0.351414
v -0.088229 -0.700704 0.154713
v -0.088559 -0.679844 0.254814
v -0.091569 -0.646764 0.363213
v 0.000411 -0.714954 0.078213
v 0.000851 -0.703114 0.163513
v 0.001371 -0.683204 0.260815
v 0.001921 -0.649514 0.366913
v 0.087011 -0.713564 0.071713
v 0.086031 -0.717924 -0.000484
v 0.089841 -0.700704 0.153812
v 0.091221 -0.679844 0.253914
v 0.153711 -0.722454 0.057312
v 0.150401 -0.726894 -0.000885
v 0.180111 -0.703714 0.127415
v 0.272381 -0.704024 0.053616
v 0.273511 -0.707224 -0.001587
v 0.179152 -0.671554 0.240013
v 0.268811 -0.689304 0.138912
v 0.395601 -0.663864 0.060215
v 0.400311 -0.665514 -0.002186
v 0.480401 -0.598674 -0.002586
v 0.361141 -0.660704 0.130116
v 0.474711 -0.597284 0.084312
v 0.569001 -0.525934 -0.002987
v 0.263321 -0.657364 0.231014
v 0.342571 -0.631624 0.235516
v 0.453251 -0.593294 0.175015
v 0.560681 -0.525434 0.106613
v 0.532291 -0.524164 0.213913
v 0.416231 -0.586654 0.271313
v 0.481691 -0.522604 0.315914
v 0.324001 -0.617654 0.308914
v 0.362961 -0.583124 0.354713
v 0.265481 -0.629514 0.329414
v 0.290471 -0.586224 0.411915
v 0.184801 -0.639684 0.349514
v 0.202811 -0.591234 0.448315
v 0.095371 -0.646764 0.362213
v 0.105161 -0.595144 0.468113
v -0.258529 -0.171494 -0.614887
v -0.133939 -0.171494 -0.651787
v -0.003489 -0.171494 -0.663887
v -0.372029 -0.171494 -0.551685
v 0.122491 -0.014244 -0.629585
v -0.003499 -0.321144 -0.665688
v -0.134289 -0.321144 -0.653484
v -0.259129 -0.321144 -0.616486
v 0.127071 -0.171494 -0.653187
v 0.229801 0.124236 -0.563187
v 0.242911 -0.014244 -0.595287
v 0.309281 0.245586 -0.469288
v 0.333911 0.124236 -0.506687
v 0.355121 0.355786 -0.358887
v 0.394411 0.245586 -0.398586
v 0.425821 0.124236 -0.430286
v 0.352962 -0.014244 -0.535587
v 0.252001 -0.171494 -0.617588
v 0.127411 -0.321144 -0.654884
v 0.366161 -0.171494 -0.555588
v 0.450121 -0.014244 -0.454887
v 0.252671 -0.321144 -0.619186
v 0.466961 -0.171494 -0.471886
v 0.121661 -0.437474 -0.623585
v 0.367131 -0.321144 -0.557087
v 0.241231 -0.437314 -0.589985
v 0.350441 -0.437124 -0.531185
v 0.468191 -0.321144 -0.473186
v 0.446712 -0.437024 -0.451286
v 0.553161 -0.321144 -0.372986
v 0.551702 -0.171494 -0.371986
v 0.407301 -0.521824 -0.410484
v 0.531801 -0.014244 -0.358585
v 0.527421 -0.437124 -0.355385
v 0.616491 -0.321144 -0.259186
v 0.614861 -0.171494 -0.258488
v 0.503551 0.124306 -0.339085
v 0.592691 -0.014244 -0.249187
v 0.468321 0.245846 -0.314186
v 0.563311 0.123896 -0.235188
v 0.422591 0.355706 -0.284485
v 0.541691 0.248726 -0.211086
v 0.628261 -0.014244 -0.129086
v 0.598631 0.121036 -0.121685
v 0.639931 -0.014244 -0.003387
v 0.609891 0.120306 -0.003185
v 0.663871 -0.171494 -0.003487
v 0.586341 0.217706 -0.108788
v 0.596811 0.214166 -0.003185
v 0.651772 -0.171494 -0.133987
v 0.665631 -0.321144 -0.003487
v 0.653502 -0.321144 -0.134285
v 0.622391 -0.437474 -0.127586
v 0.633831 -0.437534 -0.003387
v 0.587421 -0.437314 -0.246586
v 0.559531 -0.525434 -0.112488
v 0.569001 -0.525934 -0.002987
v 0.530021 -0.524164 -0.219486
v 0.478351 -0.522604 -0.320988
v 0.473761 -0.597264 -0.089386
v 0.480401 -0.598674 -0.002586
v 0.451351 -0.593274 -0.179787
v 0.413351 -0.586644 -0.275684
v 0.359211 -0.583124 -0.358486
v 0.394651 -0.663704 -0.064587
v 0.400311 -0.665514 -0.002186
v 0.273511 -0.707224 -0.001587
v 0.359461 -0.660484 -0.134087
v 0.271731 -0.703884 -0.056786
v 0.153211 -0.722254 -0.059185
v 0.150401 -0.726894 -0.000885
v 0.086031 -0.717924 -0.000484
v 0.178811 -0.703464 -0.129585
v 0.086271 -0.713544 -0.072685
v 0.000001 -0.719114 0.000015
v 0.267161 -0.688954 -0.141987
v 0.340051 -0.631604 -0.239185
v 0.260851 -0.657314 -0.233787
v 0.320731 -0.617654 -0.312385
v 0.262012 -0.629514 -0.332188
v 0.176621 -0.671524 -0.241985
v 0.088231 -0.700684 -0.154785
v 0.181121 -0.639684 -0.351387
v 0.286121 -0.586224 -0.414986
v 0.088552 -0.679834 -0.254887
v 0.198092 -0.591234 -0.450485
v 0.320621 -0.522604 -0.481686
v 0.221081 -0.524164 -0.531887
v 0.091561 -0.646764 -0.363285
v 0.100231 -0.595144 -0.469288
v 0.111621 -0.525434 -0.559986
v -0.003329 -0.437534 -0.633785
v -0.002989 -0.525934 -0.568287
v -0.128219 -0.437474 -0.622288
v -0.117499 -0.525434 -0.558784
v -0.002499 -0.596674 -0.474384
v -0.001929 -0.649514 -0.366886
v -0.105169 -0.595144 -0.468185
v -0.226659 -0.524164 -0.529587
v -0.001379 -0.683204 -0.260887
v -0.095379 -0.646764 -0.362286
v -0.202819 -0.591234 -0.448387
v -0.247429 -0.437314 -0.587387
v -0.325629 -0.522604 -0.478287
v -0.356029 -0.437124 -0.527386
v -0.372929 -0.321144 -0.553185
v -0.411629 -0.521824 -0.406185
v -0.471929 -0.171494 -0.466988
v -0.451429 -0.437024 -0.446587
v -0.473129 -0.321144 -0.468185
v -0.555629 -0.171494 -0.366188
v -0.557029 -0.321144 -0.367187
v -0.531129 -0.437124 -0.349888
v -0.619229 -0.321144 -0.252686
v -0.617529 -0.171494 -0.251987
v -0.654929 -0.321144 -0.127388
v -0.590029 -0.437314 -0.240387
v -0.623729 -0.437474 -0.121086
v -0.633829 -0.437534 0.003315
v -0.481729 -0.522604 -0.315987
v -0.532329 -0.524164 -0.213985
v -0.560729 -0.525434 -0.106586
v -0.569029 -0.525934 0.003014
v -0.474729 -0.597264 -0.084385
v -0.480429 -0.598674 0.002514
v -0.453229 -0.593274 -0.175087
v -0.416229 -0.586644 -0.271385
v -0.362929 -0.583124 -0.354687
v -0.395329 -0.663704 -0.060387
v -0.400329 -0.665514 0.002014
v -0.273529 -0.707224 0.001312
v -0.360829 -0.660484 -0.130287
v -0.272329 -0.703884 -0.053886
v -0.153829 -0.722254 -0.057587
v -0.150409 -0.726894 0.000614
v -0.086039 -0.717924 0.000412
v -0.180169 -0.703464 -0.127685
v -0.087039 -0.713544 -0.071785
v -0.268629 -0.688954 -0.139187
v -0.342529 -0.631604 -0.235588
v -0.263329 -0.657314 -0.231087
v -0.324029 -0.617654 -0.308987
v -0.265529 -0.629514 -0.329388
v -0.179159 -0.671524 -0.240086
v -0.290429 -0.586224 -0.411987
v -0.184809 -0.639684 -0.349487
v -0.091228 -0.679834 -0.253986
v -0.089859 -0.700684 -0.153885
v -0.000859 -0.703114 -0.163586
v -0.000419 -0.714954 -0.078285
vn 0.0948 0.8529 -0.5133
vn -0.0079 0.4503 -0.8928
vn -0.0000 0.8533 -0.5215
vn -0.0000 1.0000 -0.0000
vn -0.1026 0.8523 -0.5129
vn -0.0078 0.5179 -0.8554
vn -0.1660 0.4505 -0.8772
vn -0.1647 0.5178 -0.8395
vn -0.0000 0.6832 -0.7303
vn -0.1415 0.6841 -0.7155
vn -0.3310 0.5200 -0.7874
vn -0.2052 0.8522 -0.4813
vn -0.3456 0.4477 -0.8247
vn -0.2992 0.8503 -0.4330
vn -0.5119 0.4489 -0.7324
vn -0.4883 0.5198 -0.7010
vn -0.4170 0.6845 -0.5980
vn -0.6315 0.4499 -0.6315
vn -0.3706 0.8517 -0.3706
vn -0.5115 0.6846 -0.5193
vn -0.6047 0.5183 -0.6047
vn -0.5613 0.6008 -0.5692
vn -0.7010 0.5198 -0.4883
vn -0.4266 0.8532 -0.3002
vn -0.7324 0.4489 -0.5119
vn -0.5722 0.6976 -0.4311
vn -0.7814 0.5288 -0.3315
vn -0.8247 0.4477 -0.3456
vn -0.4873 0.8490 -0.2044
vn 0.3456 0.4477 0.8247
vn 0.5119 0.4489 0.7324
vn 0.2992 0.8503 0.4330
vn 0.3308 0.5198 0.7876
vn 0.2052 0.8522 0.4813
vn 0.1647 0.5178 0.8395
vn 0.1415 0.6841 0.7156
vn 0.1660 0.4505 0.8772
vn 0.1026 0.8523 0.5129
vn 0.0078 0.5179 0.8554
vn -0.0000 0.6832 0.7303
vn 0.0078 0.5975 0.8019
vn -0.1338 0.6848 0.7163
vn -0.1494 0.5191 0.8416
vn -0.3237 0.5212 0.7897
vn 0.0078 0.4472 0.8944
vn -0.0000 0.8533 0.5215
vn -0.0948 0.8529 0.5134
vn -0.1572 0.4479 0.8801
vn -0.1968 0.8503 0.4881
vn -0.3387 0.4489 0.8269
vn -0.2920 0.8523 0.4340
vn -0.5031 0.4481 0.7390
vn -0.4796 0.5189 0.7077
vn -0.4086 0.6835 0.6049
vn -0.6283 0.4477 0.6362
vn -0.3706 0.8516 0.3706
vn -0.4256 0.8511 0.3073
vn -0.5115 0.6846 0.5194
vn -0.5587 0.5981 0.5745
vn -0.5968 0.5183 0.6125
vn -0.6942 0.5206 0.4970
vn -0.7258 0.4497 0.5206
vn -0.5669 0.7008 0.4331
vn -0.5963 0.6199 0.5100
vn -0.7793 0.5274 0.3385
vn -0.8199 0.4494 0.3548
vn -0.4813 0.8522 0.2051
vn -0.6004 0.7346 0.3160
vn -0.5133 0.8529 0.0948
vn -0.5214 0.8533 -0.0000
vn -0.8928 0.4504 0.0079
vn -0.8773 0.4505 0.1658
vn -0.8497 0.5272 0.0079
vn -0.8347 0.5276 0.1575
vn -0.6199 0.7847 -0.0000
vn -0.6157 0.7736 0.1500
vn 0.6213 0.7707 0.1415
vn 0.7814 0.5288 0.3315
vn 0.6069 0.7330 0.3074
vn 0.5722 0.6976 0.4311
vn 0.6199 0.7847 -0.0000
vn 0.8358 0.5283 0.1498
vn 0.8497 0.5272 -0.0078
vn 0.5613 0.6008 0.5692
vn 0.5115 0.6846 0.5193
vn 0.4170 0.6845 0.5980
vn 0.7010 0.5198 0.4883
vn 0.4883 0.5198 0.7010
vn 0.6047 0.5183 0.6047
vn 0.6315 0.4499 0.6315
vn 0.7324 0.4488 0.5120
vn 0.8247 0.4477 0.3456
vn 0.8801 0.4479 0.1572
vn 0.8928 0.4504 -0.0079
vn 0.5137 0.8535 0.0870
vn 0.5214 0.8533 -0.0000
vn 0.4874 0.8489 0.2044
vn 0.4266 0.8532 0.3002
vn 0.3706 0.8516 0.3706
vn 0.6525 0.6526 -0.3852
vn 0.7485 0.4806 -0.4570
vn 0.5963 0.6199 -0.5101
vn 0.8622 0.4703 -0.1881
vn 0.6004 0.7346 -0.3160
vn 0.6854 0.7091 -0.1655
vn 0.8847 0.4661 -0.0079
vn 0.6992 0.7149 -0.0000
vn 0.6157 0.7736 -0.1500
vn 0.8347 0.5277 -0.1575
vn 0.8497 0.5272 -0.0079
vn 0.7793 0.5274 -0.3385
vn 0.5669 0.7008 -0.4330
vn 0.5588 0.5981 -0.5745
vn 0.5115 0.6846 -0.5194
vn 0.6942 0.5207 -0.4970
vn 0.5968 0.5183 -0.6125
vn 0.6284 0.4477 -0.6362
vn 0.7258 0.4497 -0.5206
vn 0.4266 0.8532 -0.3002
vn 0.8199 0.4494 -0.3548
vn 0.4813 0.8522 -0.2051
vn 0.8772 0.4505 -0.1659
vn 0.5133 0.8530 -0.0949
vn -0.2838 0.6858 -0.6701
vn -0.3071 0.5983 -0.7401
vn -0.1497 0.5982 -0.7872
vn -0.1650 0.5028 -0.8485
vn -0.0078 0.5975 -0.8019
vn -0.0078 0.5029 -0.8643
vn -0.0079 0.4025 -0.9154
vn 0.1419 0.5989 -0.7881
vn -0.3315 0.5050 -0.7969
vn 0.1573 0.5035 -0.8496
vn -0.1735 0.4022 -0.8990
vn -0.4557 0.5972 -0.6600
vn -0.3549 0.4022 -0.8439
vn -0.4896 0.5053 -0.7106
vn -0.0079 0.2924 -0.9563
vn -0.1815 0.2920 -0.9390
vn 0.1646 0.3999 -0.9017
vn -0.0078 0.1961 -0.9806
vn 0.1738 0.2924 -0.9404
vn 0.3244 0.5063 -0.7990
vn 0.3457 0.4006 -0.8485
vn 0.2999 0.5998 -0.7418
vn 0.4495 0.5993 -0.6624
vn 0.4808 0.5044 -0.7172
vn 0.4086 0.6835 -0.6049
vn 0.2751 0.6837 -0.6759
vn 0.1338 0.6848 -0.7163
vn 0.3237 0.5211 -0.7897
vn 0.1494 0.5191 -0.8416
vn 0.4796 0.5190 -0.7076
vn 0.5031 0.4481 -0.7390
vn 0.3387 0.4489 -0.8269
vn 0.1572 0.4479 -0.8801
vn 0.2920 0.8523 -0.4340
vn 0.1968 0.8503 -0.4881
vn 0.3638 0.8541 -0.3717
vn 0.1654 -0.4253 0.8898
vn 0.0078 -0.1260 0.9920
vn 0.0078 -0.4314 0.9021
vn 0.1261 -0.6935 0.7093
vn 0.1885 -0.1257 0.9740
vn 0.1894 0.0789 0.9787
vn 0.2750 -0.6838 0.6759
vn 0.3851 0.0786 0.9195
vn 0.3777 0.1967 0.9048
vn 0.3480 -0.4194 0.8385
vn 0.3860 -0.1260 0.9139
vn 0.5601 0.1972 0.8046
vn 0.5433 0.2913 0.7874
vn 0.5674 0.0788 0.8196
vn 0.6765 0.2911 0.6765
vn 0.6460 0.3939 0.6538
vn 0.6971 0.1960 0.6896
vn 0.5647 -0.1254 0.8157
vn 0.7875 0.2756 0.5512
vn 0.7088 0.0788 0.7010
vn 0.8109 0.1968 0.5511
vn 0.8258 0.0787 0.5584
vn 0.7054 -0.1254 0.6976
vn 0.8193 -0.1260 0.5593
vn 0.6531 -0.4091 0.6373
vn 0.5204 -0.4100 0.7490
vn 0.5426 -0.6605 0.5190
vn 0.4175 -0.6695 0.6144
vn 0.7561 -0.4174 0.5041
vn 0.9179 -0.1255 0.3765
vn 0.9223 0.0788 0.3784
vn 0.8403 -0.4241 0.3377
vn 0.9089 0.1897 0.3715
vn 0.9754 -0.1259 0.1809
vn 0.9805 0.0784 0.1804
vn 0.9920 -0.1260 -0.0079
vn 0.9969 0.0785 -0.0078
vn 0.8880 -0.4322 0.1571
vn 0.9021 -0.4314 -0.0078
vn 0.9667 0.1886 0.1729
vn 0.9835 0.1810 -0.0078
vn 0.8887 0.2359 0.3932
vn 0.9619 0.1971 0.1892
vn 0.9835 0.1810 -0.0079
vn 0.7310 0.3694 0.5738
vn 0.6067 0.5042 0.6146
vn 0.8519 0.3155 0.4181
vn 0.6598 0.4948 0.5655
vn 0.9495 0.2511 0.1883
vn 0.9737 0.2277 -0.0078
vn 0.8635 0.4710 0.1805
vn 0.7512 0.4823 0.4507
vn 0.6037 0.6194 0.5018
vn 0.6590 0.6511 0.3766
vn 0.6854 0.7091 0.1655
vn -0.8358 0.5283 -0.1498
vn -0.8801 0.4479 -0.1572
vn -0.5137 0.8535 -0.0870
vn -0.8497 0.5271 0.0078
vn -0.6213 0.7707 -0.1415
vn -0.6069 0.7330 -0.3074
vn -0.6854 0.7091 -0.1655
vn -0.6992 0.7149 -0.0000
vn -0.8847 0.4661 0.0079
vn -0.6590 0.6511 -0.3766
vn -0.8635 0.4710 -0.1805
vn -0.9737 0.2277 0.0078
vn -0.6037 0.6194 -0.5018
vn -0.7512 0.4823 -0.4507
vn -0.9495 0.2511 -0.1883
vn -0.9835 0.1810 0.0079
vn -0.8519 0.3155 -0.4181
vn -0.6598 0.4948 -0.5655
vn -0.9619 0.1971 -0.1892
vn -0.9835 0.1810 0.0078
vn -0.6067 0.5042 -0.6146
vn -0.7310 0.3694 -0.5738
vn -0.8887 0.2359 -0.3932
vn -0.9667 0.1886 -0.1729
vn -0.9969 0.0785 0.0078
vn -0.9805 0.0785 -0.1804
vn -0.9920 -0.1260 0.0079
vn -0.9089 0.1897 -0.3714
vn -0.7875 0.2756 -0.5513
vn -0.6460 0.3939 -0.6538
vn -0.8109 0.1968 -0.5511
vn -0.5190 0.4010 -0.7549
vn -0.6765 0.2911 -0.6765
vn -0.5433 0.2913 -0.7874
vn -0.3702 0.2915 -0.8821
vn -0.1892 0.1971 -0.9619
vn -0.3777 0.1967 -0.9048
vn -0.5601 0.1972 -0.8046
vn -0.6971 0.1960 -0.6896
vn -0.2999 0.5998 0.7418
vn -0.2752 0.6837 0.6759
vn -0.1419 0.5989 0.7881
vn -0.1573 0.5035 0.8496
vn -0.4495 0.5993 0.6624
vn -0.3244 0.5063 0.7990
vn 0.0079 0.5029 0.8643
vn -0.1646 0.3998 0.9017
vn 0.0079 0.4025 0.9154
vn 0.1496 0.5983 0.7872
vn 0.1650 0.5028 0.8485
vn 0.0079 0.2924 0.9563
vn 0.1735 0.4021 0.8990
vn 0.3070 0.5983 0.7401
vn 0.3314 0.5050 0.7970
vn 0.2838 0.6858 0.6701
vn 0.4558 0.5972 0.6600
vn 0.3549 0.4023 0.8439
vn 0.4896 0.5053 0.7106
vn 0.1815 0.2920 0.9390
vn 0.5190 0.4010 0.7549
vn 0.3702 0.2914 0.8821
vn 0.1892 0.1971 0.9619
vn 0.0078 0.1961 0.9806
vn -0.1739 0.2924 0.9404
vn 0.0079 0.0785 0.9969
vn -0.1727 0.1962 0.9652
vn -0.3457 0.4006 0.8485
vn -0.3633 0.2923 0.8846
vn -0.4808 0.5044 0.7172
vn -0.5132 0.4026 0.7580
vn -0.5987 0.5042 0.6223
vn -0.5343 0.2907 0.7937
vn -0.6380 0.3938 0.6617
vn -0.3709 0.1973 0.9075
vn -0.1804 0.0784 0.9805
vn -0.5510 0.1968 0.8109
vn -0.3784 0.0788 0.9223
vn -0.1733 -0.1260 0.9768
vn -0.5584 0.0786 0.8258
vn -0.6686 0.2910 0.6843
vn -0.6897 0.1959 0.6971
vn -0.7776 0.2749 0.5655
vn -0.8046 0.1972 0.5601
vn -0.7240 0.3699 0.5823
vn -0.9035 0.1885 0.3850
vn -0.6524 0.4952 0.5738
vn -0.8842 0.2368 0.4026
vn -0.8468 0.3166 0.4274
vn -0.9195 0.0786 0.3851
vn -0.8196 0.0789 0.5674
vn -0.7010 0.0788 0.7088
vn -0.9138 -0.1260 0.3860
vn -0.7485 0.4806 0.4570
vn -0.8157 -0.1254 0.5647
vn -0.6976 -0.1254 0.7054
vn -0.5593 -0.1261 0.8193
vn -0.6452 -0.4092 0.6452
vn -0.7497 -0.4181 0.5130
vn -0.3766 -0.1255 0.9179
vn -0.5116 -0.4092 0.7555
vn -0.3388 -0.4176 0.8431
vn -0.5348 -0.6606 0.5269
vn -0.4089 -0.6685 0.6213
vn -0.1577 -0.4258 0.8910
vn -0.2664 -0.6816 0.6816
vn -0.3069 -0.8263 0.4722
vn -0.1966 -0.8414 0.5033
vn -0.1183 -0.6942 0.7100
vn -0.0866 -0.8501 0.5195
vn -0.0000 -0.6992 0.7149
vn -0.0000 -0.8498 0.5272
vn -0.6854 0.7091 0.1655
vn -0.6525 0.6525 0.3852
vn -0.8622 0.4703 0.1881
vn -0.9737 0.2277 0.0079
vn -0.9472 0.2526 0.1973
vn -0.9605 0.1968 0.1968
vn -0.9640 0.1881 0.1881
vn -0.9969 0.0785 0.0079
vn -0.9787 0.0789 0.1894
vn -0.9740 -0.1257 0.1885
vn -0.8857 -0.4311 0.1724
vn -0.9021 -0.4314 0.0079
vn -0.8356 -0.4258 0.3469
vn -0.7163 -0.6848 0.1338
vn -0.7303 -0.6832 -0.0000
vn -0.6759 -0.6838 0.2751
vn -0.6151 -0.6782 0.4022
vn -0.6046 -0.7853 0.1335
vn -0.6371 -0.7708 -0.0000
vn -0.5344 -0.8094 0.2436
vn -0.4862 -0.8156 0.3137
vn -0.4161 -0.8165 0.4004
vn -0.4713 -0.8718 0.1335
vn -0.4877 -0.8730 -0.0000
vn -0.2370 -0.9715 -0.0000
vn -0.2277 -0.9656 0.1255
vn -0.3858 -0.8897 0.2441
vn -0.0079 -1.0000 -0.0000
vn -0.3616 -0.8884 0.2830
vn -0.2199 -0.9426 0.2514
vn -0.0236 -0.9918 0.1259
vn 0.0550 -0.9985 -0.0000
vn -0.0945 -0.9690 0.2284
vn 0.0236 -0.9918 0.1259
vn -0.0000 -1.0000 -0.0000
vn -0.2283 -0.9290 0.2913
vn -0.3385 -0.8895 0.3070
vn -0.2437 -0.9119 0.3302
vn -0.1340 -0.9540 0.2681
vn -0.1580 -0.9243 0.3476
vn -0.0395 -0.9795 0.1975
vn -0.0790 -0.9643 0.2529
vn -0.0788 -0.9288 0.3621
vn -0.0000 -0.9947 0.1026
vn -0.0000 -0.9849 0.1733
vn -0.0000 -0.9678 0.2518
vn -0.0000 -0.9290 0.3700
vn -0.0550 -0.9985 -0.0000
vn 0.0395 -0.9795 0.1975
vn 0.0790 -0.9643 0.2529
vn 0.0315 -0.9915 0.1259
vn 0.0079 -1.0000 -0.0000
vn 0.0945 -0.9690 0.2285
vn 0.2279 -0.9665 0.1179
vn 0.2370 -0.9715 -0.0000
vn 0.1341 -0.9540 0.2681
vn 0.2199 -0.9426 0.2514
vn 0.4717 -0.8727 0.1258
vn 0.4877 -0.8730 -0.0000
vn 0.6371 -0.7708 -0.0000
vn 0.3925 -0.8870 0.2434
vn 0.6052 -0.7861 0.1258
vn 0.7303 -0.6832 -0.0000
vn 0.2288 -0.9311 0.2841
vn 0.3616 -0.8883 0.2830
vn 0.5354 -0.8109 0.2362
vn 0.7170 -0.6855 0.1261
vn 0.6773 -0.6852 0.2678
vn 0.4874 -0.8176 0.3066
vn 0.6219 -0.6770 0.3936
vn 0.3393 -0.8916 0.2998
vn 0.4239 -0.8163 0.3925
vn 0.2443 -0.9143 0.3231
vn 0.3141 -0.8243 0.4710
vn 0.1657 -0.9231 0.3471
vn 0.1966 -0.8414 0.5033
vn 0.0865 -0.9282 0.3618
vn 0.0944 -0.8495 0.5191
vn -0.3851 0.0786 -0.9195
vn -0.1894 0.0789 -0.9787
vn -0.0079 0.0785 -0.9969
vn -0.5674 0.0788 -0.8196
vn 0.1727 0.1962 -0.9652
vn -0.0079 -0.1260 -0.9920
vn -0.1885 -0.1257 -0.9740
vn -0.3860 -0.1261 -0.9138
vn 0.1804 0.0784 -0.9805
vn 0.3633 0.2923 -0.8846
vn 0.3709 0.1973 -0.9075
vn 0.5132 0.4026 -0.7580
vn 0.5344 0.2908 -0.7937
vn 0.5987 0.5041 -0.6224
vn 0.6380 0.3939 -0.6616
vn 0.6686 0.2910 -0.6843
vn 0.5510 0.1968 -0.8110
vn 0.3784 0.0788 -0.9223
vn 0.1733 -0.1260 -0.9768
vn 0.5584 0.0787 -0.8258
vn 0.6896 0.1959 -0.6972
vn 0.3765 -0.1255 -0.9179
vn 0.7010 0.0788 -0.7088
vn 0.1577 -0.4258 -0.8910
vn 0.5593 -0.1260 -0.8193
vn 0.3388 -0.4176 -0.8431
vn 0.5115 -0.4093 -0.7555
vn 0.6976 -0.1254 -0.7054
vn 0.6452 -0.4092 -0.6452
vn 0.8157 -0.1254 -0.5647
vn 0.8196 0.0788 -0.5674
vn 0.5348 -0.6606 -0.5269
vn 0.8046 0.1972 -0.5601
vn 0.7497 -0.4181 -0.5130
vn 0.9138 -0.1261 -0.3860
vn 0.9195 0.0786 -0.3851
vn 0.7776 0.2749 -0.5655
vn 0.9035 0.1886 -0.3849
vn 0.7240 0.3699 -0.5823
vn 0.8842 0.2368 -0.4026
vn 0.6524 0.4952 -0.5738
vn 0.8468 0.3166 -0.4274
vn 0.9640 0.1881 -0.1881
vn 0.9605 0.1968 -0.1968
vn 0.9969 0.0785 -0.0079
vn 0.9472 0.2526 -0.1974
vn 0.9737 0.2277 -0.0079
vn 0.9787 0.0789 -0.1894
vn 0.9740 -0.1257 -0.1885
vn 0.8857 -0.4311 -0.1724
vn 0.9021 -0.4314 -0.0079
vn 0.8357 -0.4258 -0.3469
vn 0.7163 -0.6849 -0.1338
vn 0.6759 -0.6838 -0.2750
vn 0.6151 -0.6781 -0.4022
vn 0.6046 -0.7853 -0.1335
vn 0.5344 -0.8094 -0.2436
vn 0.4874 -0.8176 -0.3066
vn 0.4161 -0.8164 -0.4004
vn 0.4651 -0.8750 -0.1340
vn 0.4876 -0.8730 -0.0000
vn 0.3858 -0.8897 -0.2441
vn 0.2277 -0.9656 -0.1256
vn 0.0314 -0.9905 -0.1336
vn 0.0945 -0.9690 -0.2284
vn -0.0236 -0.9918 -0.1259
vn 0.2199 -0.9426 -0.2514
vn 0.3616 -0.8883 -0.2830
vn 0.2288 -0.9311 -0.2841
vn 0.3385 -0.8895 -0.3070
vn 0.2437 -0.9119 -0.3302
vn 0.1340 -0.9540 -0.2681
vn 0.0395 -0.9795 -0.1975
vn 0.1580 -0.9242 -0.3476
vn 0.3069 -0.8263 -0.4722
vn 0.0790 -0.9643 -0.2529
vn 0.1966 -0.8414 -0.5033
vn 0.4089 -0.6684 -0.6213
vn 0.2663 -0.6816 -0.6816
vn 0.0787 -0.9288 -0.3621
vn 0.0866 -0.8501 -0.5195
vn 0.1183 -0.6942 -0.7100
vn -0.0078 -0.4315 -0.9021
vn -0.0000 -0.6992 -0.7149
vn -0.1654 -0.4253 -0.8898
vn -0.1261 -0.6935 -0.7093
vn -0.0001 -0.8498 -0.5272
vn -0.0000 -0.9290 -0.3700
vn -0.0944 -0.8495 -0.5191
vn -0.2751 -0.6838 -0.6759
vn -0.0000 -0.9678 -0.2518
vn -0.0865 -0.9282 -0.3619
vn -0.1966 -0.8414 -0.5033
vn -0.3478 -0.4195 -0.8385
vn -0.4175 -0.6695 -0.6144
vn -0.5204 -0.4100 -0.7490
vn -0.5647 -0.1255 -0.8157
vn -0.5426 -0.6605 -0.5190
vn -0.7088 0.0788 -0.7010
vn -0.6530 -0.4091 -0.6373
vn -0.7054 -0.1254 -0.6976
vn -0.8258 0.0786 -0.5584
vn -0.8193 -0.1261 -0.5594
vn -0.7561 -0.4174 -0.5040
vn -0.9179 -0.1255 -0.3765
vn -0.9223 0.0788 -0.3784
vn -0.9754 -0.1259 -0.1809
vn -0.8403 -0.4241 -0.3377
vn -0.8880 -0.4322 -0.1572
vn -0.9021 -0.4314 0.0078
vn -0.6219 -0.6770 -0.3936
vn -0.6773 -0.6852 -0.2678
vn -0.7170 -0.6855 -0.1261
vn -0.6052 -0.7861 -0.1258
vn -0.5354 -0.8109 -0.2362
vn -0.4874 -0.8176 -0.3066
vn -0.4239 -0.8163 -0.3925
vn -0.4713 -0.8718 -0.1335
vn -0.3925 -0.8870 -0.2433
vn -0.2277 -0.9656 -0.1256
vn -0.0314 -0.9905 -0.1337
vn -0.0945 -0.9690 -0.2285
vn 0.0158 -0.9919 -0.1259
vn -0.2199 -0.9426 -0.2514
vn -0.3616 -0.8883 -0.2830
vn -0.2288 -0.9311 -0.2841
vn -0.3393 -0.8916 -0.2999
vn -0.2443 -0.9143 -0.3231
vn -0.1340 -0.9540 -0.2681
vn -0.3142 -0.8242 -0.4711
vn -0.1657 -0.9231 -0.3471
vn -0.0790 -0.9643 -0.2529
vn -0.0395 -0.9795 -0.1975
vn -0.0000 -0.9849 -0.1733
vn -0.0000 -0.9947 -0.1026
vt 0.078026 0.190155
vt 0.083143 0.204104
vt 0.073946 0.194643
vt 0.049129 0.169112
vt 0.069344 0.198594
vt 0.096941 0.218299
vt 0.077187 0.209315
vt 0.089170 0.224977
vt 0.109218 0.230930
vt 0.100278 0.238944
vt 0.080709 0.230784
vt 0.064196 0.201829
vt 0.070606 0.213708
vt 0.058481 0.204133
vt 0.063273 0.217069
vt 0.071549 0.235874
vt 0.080038 0.252475
vt 0.055244 0.219533
vt 0.052274 0.205586
vt 0.068420 0.258011
vt 0.061497 0.240075
vt 0.075595 0.273610
vt 0.050547 0.243162
vt 0.045595 0.206296
vt 0.046610 0.221226
vt 0.055751 0.262802
vt 0.038737 0.245197
vt 0.037352 0.221876
vt 0.038511 0.206034
vt 0.719009 0.305510
vt 0.715442 0.298273
vt 0.728232 0.293135
vt 0.702220 0.316092
vt 0.730696 0.298784
vt 0.762910 0.282873
vt 0.708263 0.324388
vt 0.694612 0.335886
vt 0.723586 0.311967
vt 0.734075 0.303838
vt 0.715158 0.331970
vt 0.702875 0.344599
vt 0.692018 0.355762
vt 0.711814 0.352617
vt 0.722928 0.338651
vt 0.731390 0.344462
vt 0.728963 0.317775
vt 0.738153 0.308326
vt 0.742754 0.312279
vt 0.734919 0.322989
vt 0.747900 0.315516
vt 0.741500 0.327385
vt 0.753614 0.317822
vt 0.748834 0.330749
vt 0.740549 0.349556
vt 0.732052 0.366156
vt 0.756863 0.333218
vt 0.759820 0.319278
vt 0.766499 0.319991
vt 0.743670 0.371698
vt 0.736488 0.387295
vt 0.750600 0.353761
vt 0.761552 0.356854
vt 0.765499 0.334915
vt 0.756338 0.376494
vt 0.750412 0.393883
vt 0.773362 0.358895
vt 0.774760 0.335570
vt 0.773584 0.319733
vt 0.770175 0.380265
vt 0.780660 0.317876
vt 0.787755 0.314605
vt 0.794912 0.332250
vt 0.784475 0.334577
vt 0.798476 0.358646
vt 0.785740 0.359544
vt 0.801166 0.381602
vt 0.785169 0.381843
vt 0.663358 0.263372
vt 0.686626 0.274536
vt 0.665352 0.278316
vt 0.669506 0.292043
vt 0.663154 0.247374
vt 0.685633 0.262181
vt 0.686177 0.249425
vt 0.659261 0.312186
vt 0.674653 0.304573
vt 0.680515 0.316032
vt 0.688994 0.286285
vt 0.696873 0.307077
vt 0.692390 0.297147
vt 0.712752 0.290315
vt 0.710815 0.281730
vt 0.709903 0.272491
vt 0.710626 0.262752
vt 0.712661 0.252254
vt 0.727426 0.266101
vt 0.730499 0.258918
vt 0.725767 0.273226
vt 0.725706 0.280315
vt 0.726604 0.286972
vt 0.169077 0.168173
vt 0.187540 0.179163
vt 0.159809 0.184796
vt 0.197634 0.156919
vt 0.146750 0.164663
vt 0.168356 0.150289
vt 0.202773 0.138617
vt 0.169712 0.133722
vt 0.148950 0.133722
vt 0.148744 0.149720
vt 0.126471 0.148528
vt 0.125928 0.135772
vt 0.125479 0.160881
vt 0.142594 0.178388
vt 0.152835 0.198531
vt 0.137446 0.190915
vt 0.123110 0.172628
vt 0.119713 0.183487
vt 0.099357 0.176654
vt 0.101294 0.168072
vt 0.086398 0.166633
vt 0.102206 0.158835
vt 0.086337 0.159545
vt 0.101483 0.149099
vt 0.099446 0.138603
vt 0.084676 0.152421
vt 0.081601 0.145240
vt 0.090626 0.246152
vt 0.099734 0.259305
vt 0.110241 0.251062
vt 0.121239 0.264006
vt 0.120071 0.242095
vt 0.131823 0.254185
vt 0.143979 0.266691
vt 0.129314 0.232523
vt 0.110047 0.273242
vt 0.141940 0.243884
vt 0.132838 0.277197
vt 0.088235 0.266761
vt 0.121205 0.287302
vt 0.097862 0.281871
vt 0.156163 0.279225
vt 0.144699 0.290210
vt 0.154797 0.255853
vt 0.169079 0.292513
vt 0.167468 0.268078
vt 0.151490 0.232958
vt 0.165228 0.244510
vt 0.137851 0.222254
vt 0.145631 0.210971
vt 0.160462 0.221023
vt 0.131582 0.202372
vt 0.124962 0.212776
vt 0.117483 0.222221
vt 0.109881 0.202427
vt 0.103837 0.210721
vt 0.115229 0.193415
vt 0.096666 0.184610
vt 0.093098 0.191844
vt 0.088520 0.198298
vt 0.083871 0.179453
vt 0.081406 0.185101
vt 0.085499 0.173290
vt 0.596034 0.433236
vt 0.616752 0.433150
vt 0.606800 0.443384
vt 0.587163 0.443127
vt 0.605448 0.422559
vt 0.617635 0.409344
vt 0.576276 0.434004
vt 0.605759 0.398491
vt 0.619783 0.383600
vt 0.584561 0.423709
vt 0.593743 0.412451
vt 0.607854 0.371706
vt 0.622388 0.357973
vt 0.593265 0.387376
vt 0.610958 0.344626
vt 0.626660 0.332422
vt 0.595228 0.358962
vt 0.581092 0.402386
vt 0.598989 0.329990
vt 0.579703 0.375727
vt 0.581707 0.345261
vt 0.564851 0.363506
vt 0.566998 0.392102
vt 0.551620 0.381819
vt 0.558212 0.405913
vt 0.572081 0.414683
vt 0.551239 0.418163
vt 0.564499 0.425702
vt 0.542617 0.397219
vt 0.534196 0.371280
vt 0.548288 0.350294
vt 0.525020 0.388970
vt 0.566988 0.329847
vt 0.513502 0.359822
vt 0.529444 0.335353
vt 0.487597 0.346864
vt 0.507365 0.317581
vt 0.504181 0.381183
vt 0.478462 0.374020
vt 0.551141 0.312508
vt 0.533483 0.291964
vt 0.586373 0.313593
vt 0.573051 0.295438
vt 0.559070 0.273970
vt 0.616281 0.317454
vt 0.642994 0.321538
vt 0.604459 0.298968
vt 0.634350 0.307223
vt 0.588645 0.283522
vt 0.577887 0.263600
vt 0.614467 0.270567
vt 0.609330 0.252264
vt 0.624557 0.292813
vt 0.652289 0.298450
vt 0.643023 0.281825
vt 0.643746 0.263941
vt 0.642392 0.247374
vt 0.026361 0.245839
vt 0.027640 0.220877
vt 0.031437 0.204172
vt 0.013626 0.244934
vt 0.017206 0.218544
vt 0.024346 0.200894
vt 0.010924 0.267888
vt 0.026920 0.268137
vt 0.041914 0.266567
vt 0.026933 0.287756
vt 0.010335 0.288642
vt 0.014290 0.321828
vt 0.044790 0.288985
vt 0.032730 0.317210
vt 0.024734 0.353579
vt 0.061669 0.280192
vt 0.055251 0.307752
vt 0.044951 0.343387
vt 0.034571 0.372681
vt 0.060838 0.328015
vt 0.069932 0.298369
vt 0.056424 0.359310
vt 0.051837 0.398764
vt 0.084484 0.290132
vt 0.079650 0.316719
vt 0.074947 0.346506
vt 0.072870 0.381693
vt 0.076708 0.425595
vt 0.095095 0.404025
vt 0.105423 0.446180
vt 0.090649 0.366341
vt 0.091694 0.334357
vt 0.094903 0.306766
vt 0.106471 0.352061
vt 0.108649 0.297058
vt 0.106660 0.322805
vt 0.120323 0.311755
vt 0.132900 0.301009
vt 0.157538 0.303767
vt 0.145867 0.315080
vt 0.133642 0.326670
vt 0.120547 0.338932
vt 0.712352 0.372980
vt 0.721466 0.359829
vt 0.701846 0.364733
vt 0.690843 0.377675
vt 0.723849 0.380441
vt 0.702033 0.386915
vt 0.680262 0.367850
vt 0.679239 0.390863
vt 0.668101 0.380354
vt 0.682777 0.346187
vt 0.670147 0.357546
vt 0.655914 0.392884
vt 0.657286 0.369512
vt 0.674242 0.335915
vt 0.660599 0.346617
vt 0.687134 0.326439
vt 0.666464 0.324629
vt 0.646857 0.358166
vt 0.651629 0.334679
vt 0.644611 0.381734
vt 0.636752 0.345889
vt 0.633484 0.370243
vt 0.631420 0.394949
vt 0.642994 0.406169
vt 0.667374 0.403873
vt 0.629215 0.420336
vt 0.654531 0.417426
vt 0.690870 0.400973
vt 0.679170 0.414676
vt 0.714216 0.395549
vt 0.703424 0.410732
vt 0.727592 0.403815
vt 0.691744 0.425426
vt 0.717166 0.420446
vt 0.666199 0.428743
vt 0.640525 0.431606
vt 0.678420 0.440337
vt 0.651704 0.443176
vt 0.627654 0.444156
vt 0.663162 0.455355
vt 0.705404 0.436481
vt 0.691510 0.452603
vt 0.720366 0.448038
vt 0.705582 0.465737
vt 0.732417 0.430405
vt 0.721399 0.480023
vt 0.742141 0.412058
vt 0.737108 0.460194
vt 0.751223 0.441708
vt 0.701480 0.499283
vt 0.687812 0.483094
vt 0.675183 0.468588
vt 0.680894 0.513953
vt 0.756818 0.421447
vt 0.669874 0.496830
vt 0.659168 0.481744
vt 0.648497 0.467941
vt 0.645607 0.490910
vt 0.654732 0.506257
vt 0.638084 0.455575
vt 0.636455 0.477291
vt 0.627085 0.465066
vt 0.633556 0.498221
vt 0.625651 0.485176
vt 0.617243 0.453863
vt 0.617025 0.473635
vt 0.614892 0.493217
vt 0.606395 0.483144
vt 0.607603 0.463006
vt 0.596889 0.473482
vt 0.597529 0.452916
vt 0.586934 0.463810
vt 0.785145 0.401463
vt 0.801743 0.402356
vt 0.797773 0.435541
vt 0.767288 0.402683
vt 0.779335 0.430915
vt 0.787316 0.467287
vt 0.767104 0.457086
vt 0.777473 0.486384
vt 0.755625 0.473005
vt 0.760198 0.512461
vt 0.739172 0.495381
vt 0.735318 0.539280
vt 0.716939 0.517705
vt 0.706596 0.559855
vt 0.692923 0.534321
vt 0.671830 0.544231
vt 0.679706 0.569741
vt 0.663467 0.523618
vt 0.651679 0.550507
vt 0.654783 0.573606
vt 0.646842 0.530733
vt 0.640681 0.513379
vt 0.629492 0.554711
vt 0.628901 0.573254
vt 0.628191 0.536925
vt 0.625833 0.519400
vt 0.621703 0.504682
vt 0.608211 0.556695
vt 0.605965 0.569720
vt 0.577963 0.560632
vt 0.582628 0.549487
vt 0.605991 0.541545
vt 0.553504 0.547517
vt 0.610549 0.522135
vt 0.589449 0.533740
vt 0.560841 0.537243
vt 0.541437 0.538984
vt 0.573244 0.527832
vt 0.551271 0.526553
vt 0.526289 0.526167
vt 0.596934 0.517793
vt 0.612375 0.509633
vt 0.604890 0.503318
vt 0.584549 0.509817
vt 0.595325 0.494863
vt 0.561948 0.513789
vt 0.573435 0.499485
vt 0.585188 0.485734
vt 0.538382 0.513732
vt 0.550333 0.501445
vt 0.562680 0.488748
vt 0.575104 0.475974
vt 0.525208 0.501206
vt 0.513055 0.511382
vt 0.537669 0.490177
vt 0.551648 0.478296
vt 0.514255 0.491937
vt 0.504189 0.499557
vt 0.523317 0.479276
vt 0.501409 0.470498
vt 0.490398 0.475472
vt 0.541010 0.467474
vt 0.516960 0.463242
vt 0.493491 0.445125
vt 0.480534 0.447733
vt 0.476364 0.424903
vt 0.508698 0.446923
vt 0.494883 0.423797
vt 0.475291 0.399040
vt 0.532693 0.455316
vt 0.527974 0.441827
vt 0.512699 0.424603
vt 0.498468 0.401501
vt 0.518369 0.405786
vt 0.530282 0.426473
vt 0.535888 0.411462
vt 0.540420 0.439653
vt 0.545110 0.430191
vt 0.546942 0.446959
vt 0.556761 0.436681
vt 0.555660 0.456287
vt 0.567066 0.444895
vt 0.565067 0.466166
vt 0.576989 0.454128
vt 0.160357 0.329517
vt 0.171540 0.317951
vt 0.182853 0.306684
vt 0.148895 0.341693
vt 0.180655 0.281296
vt 0.195312 0.319502
vt 0.184408 0.330505
vt 0.173974 0.341921
vt 0.194436 0.295695
vt 0.178598 0.256590
vt 0.192295 0.269951
vt 0.175336 0.232236
vt 0.189696 0.244323
vt 0.169099 0.207885
vt 0.185430 0.218772
vt 0.201129 0.230978
vt 0.204227 0.258059
vt 0.206315 0.284845
vt 0.206620 0.308914
vt 0.218812 0.273733
vt 0.216856 0.245318
vt 0.218328 0.298808
vt 0.232377 0.262087
vt 0.216032 0.319593
vt 0.230982 0.288746
vt 0.227507 0.310069
vt 0.239991 0.301045
vt 0.245079 0.278465
vt 0.253862 0.292279
vt 0.260460 0.268186
vt 0.247232 0.249869
vt 0.260832 0.304531
vt 0.230379 0.231620
vt 0.269460 0.283588
vt 0.277886 0.257649
vt 0.263798 0.236660
vt 0.213101 0.216346
vt 0.245103 0.216209
vt 0.195812 0.203806
vt 0.225720 0.199951
vt 0.177745 0.193572
vt 0.207638 0.185322
vt 0.260953 0.198872
vt 0.239045 0.181798
vt 0.278615 0.178332
vt 0.253031 0.160332
vt 0.304729 0.203954
vt 0.223454 0.169878
vt 0.234216 0.149958
vt 0.282646 0.221722
vt 0.324492 0.233242
vt 0.298584 0.246195
vt 0.307900 0.267559
vt 0.333622 0.260400
vt 0.287060 0.275342
vt 0.313610 0.287879
vt 0.336788 0.285422
vt 0.293707 0.292160
vt 0.276186 0.297833
vt 0.317188 0.310180
vt 0.335708 0.311284
vt 0.299370 0.310982
vt 0.281788 0.312846
vt 0.266959 0.316561
vt 0.318539 0.331534
vt 0.331519 0.334109
vt 0.321620 0.361839
vt 0.303323 0.333324
vt 0.310607 0.356868
vt 0.297772 0.378273
vt 0.307828 0.385924
vt 0.298989 0.397766
vt 0.288711 0.365618
vt 0.286842 0.387582
vt 0.285755 0.412550
vt 0.295043 0.349611
vt 0.284089 0.328204
vt 0.279365 0.341690
vt 0.271647 0.326025
vt 0.265124 0.333331
vt 0.271047 0.353845
vt 0.274383 0.376550
vt 0.256402 0.342656
vt 0.255306 0.323049
vt 0.260408 0.364668
vt 0.244998 0.331260
vt 0.247570 0.312067
vt 0.235791 0.320366
vt 0.246991 0.352534
vt 0.235072 0.340492
vt 0.224900 0.329487
vt 0.205263 0.329739
vt 0.214531 0.339274
vt 0.194816 0.340215
vt 0.204454 0.349361
vt 0.225123 0.350171
vt 0.236951 0.362339
vt 0.215165 0.359841
vt 0.195028 0.359988
vt 0.249372 0.375119
vt 0.226864 0.372098
vt 0.205656 0.369501
vt 0.184970 0.351416
vt 0.186397 0.371528
vt 0.175595 0.363638
vt 0.163557 0.354285
vt 0.178488 0.384570
vt 0.136869 0.354922
vt 0.166439 0.377255
vt 0.152880 0.368083
vt 0.124235 0.369425
vt 0.142168 0.383167
vt 0.157308 0.392600
vt 0.131142 0.400286
vt 0.110561 0.385609
vt 0.119105 0.420651
vt 0.148567 0.409958
vt 0.140196 0.430569
vt 0.132310 0.456077
vt 0.171357 0.399727
vt 0.165189 0.417080
vt 0.160345 0.436853
vt 0.157232 0.459951
vt 0.182535 0.441062
vt 0.183113 0.459606
vt 0.183842 0.423275
vt 0.186205 0.405753
vt 0.190339 0.391036
vt 0.203842 0.443020
vt 0.206048 0.456067
vt 0.234046 0.446959
vt 0.206063 0.427861
vt 0.229390 0.435809
vt 0.251151 0.423588
vt 0.258513 0.433857
vt 0.270600 0.425358
vt 0.238758 0.414172
vt 0.260766 0.412927
vt 0.222579 0.420047
vt 0.201491 0.408489
vt 0.215106 0.404150
vt 0.199667 0.395990
vt 0.207154 0.389677
vt 0.227491 0.396181
vt 0.197155 0.379572
vt 0.216723 0.381224
vt 0.238612 0.385853
vt 0.250093 0.400160
vt 0.261717 0.387820
vt 0.273665 0.400112
s 1
usemtl Handle1Mtl.007
f 1/1/1 2/2/2 3/3/3
f 1/1/1 3/3/3 4/4/4
f 3/3/3 2/2/2 5/5/5
f 3/3/3 5/5/5 4/4/4
f 2/2/2 6/6/6 7/7/7
f 2/2/2 7/7/7 5/5/5
f 7/7/7 6/6/6 8/8/8
f 8/8/8 6/6/6 9/9/9
f 9/9/9 10/10/10 8/8/8
f 8/8/8 10/10/10 11/11/11
f 5/5/5 7/7/7 12/12/12
f 5/5/5 12/12/12 4/4/4
f 7/7/7 8/8/8 13/13/13
f 7/7/7 13/13/13 12/12/12
f 8/8/8 11/11/11 13/13/13
f 12/12/12 13/13/13 14/14/14
f 12/12/12 14/14/14 4/4/4
f 13/13/13 11/11/11 15/15/15
f 13/13/13 15/15/15 14/14/14
f 11/11/11 16/16/16 15/15/15
f 11/11/11 17/17/17 16/16/16
f 18/18/18 14/14/14 15/15/15
f 15/15/15 16/16/16 18/18/18
f 14/14/14 18/18/18 19/19/19
f 14/14/14 19/19/19 4/4/4
f 20/20/20 16/16/16 17/17/17
f 16/16/16 21/21/21 18/18/18
f 16/16/16 20/20/20 21/21/21
f 17/17/17 22/22/22 20/20/20
f 23/23/23 18/18/18 21/21/21
f 20/20/20 23/23/23 21/21/21
f 18/18/18 24/24/24 19/19/19
f 19/19/19 24/24/24 4/4/4
f 18/18/18 23/23/23 25/25/25
f 25/25/25 24/24/24 18/18/18
f 26/26/26 23/23/23 20/20/20
f 22/22/22 26/26/26 20/20/20
f 27/27/27 25/25/25 23/23/23
f 26/26/26 27/27/27 23/23/23
f 28/28/28 24/24/24 25/25/25
f 25/25/25 27/27/27 28/28/28
f 24/24/24 28/28/28 29/29/29
f 24/24/24 29/29/29 4/4/4
f 30/30/30 31/31/31 32/32/32
f 30/30/30 33/33/33 31/31/31
f 34/34/34 30/30/30 32/32/32
f 34/34/34 32/32/32 35/35/4
f 36/36/35 33/33/33 30/30/30
f 37/37/36 33/33/33 36/36/35
f 38/38/37 30/30/30 34/34/34
f 38/38/37 36/36/35 30/30/30
f 39/39/38 38/38/37 34/34/34
f 39/39/38 34/34/34 35/35/4
f 38/38/37 40/40/39 36/36/35
f 36/36/35 41/41/40 37/37/36
f 41/41/40 36/36/35 40/40/39
f 42/42/41 37/37/36 41/41/40
f 43/43/42 42/42/41 41/41/40
f 41/41/40 44/44/43 43/43/42
f 44/44/43 41/41/40 40/40/39
f 45/45/44 43/43/42 44/44/43
f 46/46/45 40/40/39 38/38/37
f 46/46/45 38/38/37 39/39/38
f 47/47/46 46/46/45 39/39/38
f 47/47/46 39/39/38 35/35/4
f 48/48/47 46/46/45 47/47/46
f 48/48/47 47/47/46 35/35/4
f 49/49/48 40/40/39 46/46/45
f 46/46/45 48/48/47 49/49/48
f 40/40/39 49/49/48 44/44/43
f 50/50/49 49/49/48 48/48/47
f 50/50/49 48/48/47 35/35/4
f 51/51/50 44/44/43 49/49/48
f 49/49/48 50/50/49 51/51/50
f 44/44/43 51/51/50 45/45/44
f 52/52/51 51/51/50 50/50/49
f 52/52/51 50/50/49 35/35/4
f 53/53/52 45/45/44 51/51/50
f 51/51/50 52/52/51 53/53/52
f 45/45/44 53/53/52 54/54/53
f 54/54/53 55/55/54 45/45/44
f 56/56/55 53/53/52 52/52/51
f 56/56/55 54/54/53 53/53/52
f 57/57/56 52/52/51 35/35/4
f 57/57/56 56/56/55 52/52/51
f 58/58/57 57/57/56 35/35/4
f 58/58/57 56/56/55 57/57/56
f 59/59/58 55/55/54 54/54/53
f 60/60/59 55/55/54 59/59/58
f 54/54/53 56/56/55 61/61/60
f 61/61/60 59/59/58 54/54/53
f 62/62/61 61/61/60 56/56/55
f 62/62/61 59/59/58 61/61/60
f 56/56/55 58/58/57 63/63/62
f 63/63/62 62/62/61 56/56/55
f 64/64/63 60/60/59 59/59/58
f 59/59/58 62/62/61 64/64/63
f 60/60/59 64/64/63 65/65/64
f 66/66/65 62/62/61 63/63/62
f 66/66/65 64/64/63 62/62/61
f 67/67/66 63/63/62 58/58/57
f 67/67/66 66/66/65 63/63/62
f 68/68/67 67/67/66 58/58/57
f 68/68/67 58/58/57 35/35/4
f 69/69/68 65/65/64 64/64/63
f 64/64/63 66/66/65 69/69/68
f 70/70/69 68/68/67 35/35/4
f 71/71/70 70/70/69 35/35/4
f 71/71/70 72/72/71 70/70/69
f 70/70/69 73/73/72 68/68/67
f 72/72/71 73/73/72 70/70/69
f 73/73/72 67/67/66 68/68/67
f 72/72/71 74/74/73 73/73/72
f 73/73/72 75/75/74 67/67/66
f 73/73/72 74/74/73 75/75/74
f 75/75/74 66/66/65 67/67/66
f 76/76/75 75/75/74 74/74/73
f 77/77/76 66/66/65 75/75/74
f 75/75/74 76/76/75 77/77/76
f 66/66/65 77/77/76 69/69/68
f 78/78/77 79/79/78 80/80/79
f 81/81/80 80/80/79 79/79/78
f 82/82/81 83/83/82 78/78/77
f 79/79/78 78/78/77 83/83/82
f 83/83/82 82/82/81 84/84/83
f 85/85/84 81/81/80 86/86/85
f 87/87/86 85/85/84 86/86/85
f 79/79/78 88/88/87 81/81/80
f 88/88/87 86/86/85 81/81/80
f 86/86/85 89/89/88 87/87/86
f 86/86/85 88/88/87 90/90/89
f 89/89/88 86/86/85 90/90/89
f 33/33/33 87/87/86 89/89/88
f 88/88/87 91/91/90 90/90/89
f 89/89/88 90/90/89 91/91/90
f 79/79/78 92/92/91 88/88/87
f 91/91/90 88/88/87 92/92/91
f 92/92/91 79/79/78 93/93/92
f 83/83/82 93/93/92 79/79/78
f 33/33/33 89/89/88 31/31/31
f 31/31/31 89/89/88 91/91/90
f 93/93/92 83/83/82 94/94/93
f 84/84/83 94/94/93 83/83/82
f 94/94/93 84/84/83 95/95/94
f 95/95/94 96/96/95 94/94/93
f 96/96/95 95/95/94 97/97/96
f 94/94/93 98/98/97 93/93/92
f 98/98/97 94/94/93 96/96/95
f 96/96/95 97/97/96 35/35/4
f 98/98/97 96/96/95 35/35/4
f 99/99/98 93/93/92 98/98/97
f 93/93/92 99/99/98 92/92/91
f 99/99/98 91/91/90 92/92/91
f 99/99/98 98/98/97 35/35/4
f 91/91/90 99/99/98 100/100/99
f 100/100/99 99/99/98 35/35/4
f 32/32/32 91/91/90 100/100/99
f 91/91/90 32/32/32 31/31/31
f 32/32/32 100/100/99 35/35/4
f 101/101/100 102/102/101 103/103/102
f 101/101/100 104/104/103 102/102/101
f 103/103/102 105/105/104 101/101/100
f 104/104/103 101/101/100 106/106/105
f 106/106/105 107/107/106 104/104/103
f 107/107/106 106/106/105 108/108/107
f 109/109/81 108/108/107 106/106/105
f 110/110/108 106/106/105 101/101/100
f 109/109/81 106/106/105 110/110/108
f 101/101/100 105/105/104 110/110/108
f 109/109/81 110/110/108 111/111/109
f 112/112/110 109/109/81 111/111/109
f 105/105/104 113/113/111 110/110/108
f 110/110/108 113/113/111 111/111/109
f 105/105/104 103/103/102 114/114/112
f 114/114/112 113/113/111 105/105/104
f 115/115/113 114/114/112 103/103/102
f 114/114/112 115/115/113 116/116/114
f 116/116/114 117/117/115 114/114/112
f 113/113/111 114/114/112 117/117/115
f 117/117/115 116/116/114 118/118/116
f 117/117/115 118/118/116 119/119/117
f 120/120/118 117/117/115 119/119/117
f 113/113/111 117/117/115 120/120/118
f 119/119/117 121/121/119 120/120/118
f 122/122/120 113/113/111 120/120/118
f 122/122/120 120/120/118 121/121/119
f 111/111/109 113/113/111 122/122/120
f 123/123/121 122/122/120 121/121/119
f 123/123/121 121/121/119 4/4/4
f 124/124/122 111/111/109 122/122/120
f 124/124/122 122/122/120 123/123/121
f 124/124/122 112/112/110 111/111/109
f 125/125/94 112/112/110 124/124/122
f 126/126/123 123/123/121 4/4/4
f 126/126/123 124/124/122 123/123/121
f 125/125/94 124/124/122 126/126/123
f 127/127/96 126/126/123 4/4/4
f 127/127/96 125/125/94 126/126/123
f 128/128/124 129/129/125 17/17/17
f 17/17/17 11/11/11 128/128/124
f 128/128/124 130/130/126 129/129/125
f 130/130/126 128/128/124 10/10/10
f 10/10/10 128/128/124 11/11/11
f 131/131/127 129/129/125 130/130/126
f 10/10/10 132/132/128 130/130/126
f 130/130/126 133/133/129 131/131/127
f 133/133/129 130/130/126 132/132/128
f 132/132/128 10/10/10 9/9/9
f 134/134/130 131/131/127 133/133/129
f 135/135/131 133/133/129 132/132/128
f 129/129/125 131/131/127 136/136/132
f 137/137/133 134/134/130 133/133/129
f 133/133/129 135/135/131 137/137/133
f 131/131/127 134/134/130 138/138/134
f 138/138/134 136/136/132 131/131/127
f 129/129/125 136/136/132 139/139/135
f 129/129/125 139/139/135 17/17/17
f 136/136/132 138/138/134 140/140/136
f 139/139/135 136/136/132 141/141/137
f 136/136/132 140/140/136 141/141/137
f 22/22/22 17/17/17 139/139/135
f 139/139/135 141/141/137 22/22/22
f 142/142/138 138/138/134 134/134/130
f 143/143/139 140/140/136 138/138/134
f 138/138/134 142/142/138 143/143/139
f 144/144/140 142/142/138 134/134/130
f 134/134/130 137/137/133 144/144/140
f 145/145/141 143/143/139 142/142/138
f 142/142/138 144/144/140 146/146/142
f 146/146/142 145/145/141 142/142/138
f 147/147/143 144/144/140 137/137/133
f 148/148/144 146/146/142 144/144/140
f 144/144/140 147/147/143 148/148/144
f 137/137/133 149/149/145 147/147/143
f 149/149/145 137/137/133 135/135/131
f 147/147/143 149/149/145 150/150/146
f 147/147/143 151/151/147 148/148/144
f 150/150/146 151/151/147 147/147/143
f 149/149/145 152/152/148 150/150/146
f 135/135/131 153/153/149 149/149/145
f 152/152/148 149/149/145 153/153/149
f 153/153/149 135/135/131 154/154/150
f 132/132/128 154/154/150 135/135/131
f 154/154/150 132/132/128 9/9/9
f 154/154/150 155/155/151 153/153/149
f 155/155/151 152/152/148 153/153/149
f 9/9/9 156/156/152 154/154/150
f 155/155/151 154/154/150 156/156/152
f 152/152/148 115/115/113 150/150/146
f 151/151/147 150/150/146 115/115/113
f 152/152/148 155/155/151 157/157/153
f 156/156/152 9/9/9 6/6/6
f 157/157/153 116/116/114 152/152/148
f 115/115/113 152/152/148 116/116/114
f 116/116/114 157/157/153 118/118/116
f 155/155/151 158/158/154 157/157/153
f 156/156/152 159/159/155 155/155/151
f 158/158/154 155/155/151 159/159/155
f 159/159/155 156/156/152 160/160/156
f 6/6/6 160/160/156 156/156/152
f 159/159/155 161/161/157 158/158/154
f 119/119/117 157/157/153 158/158/154
f 157/157/153 119/119/117 118/118/116
f 161/161/157 119/119/117 158/158/154
f 161/161/157 159/159/155 162/162/158
f 160/160/156 162/162/158 159/159/155
f 119/119/117 161/161/157 163/163/159
f 162/162/158 160/160/156 1/1/1
f 161/161/157 162/162/158 4/4/4
f 163/163/159 161/161/157 4/4/4
f 162/162/158 1/1/1 4/4/4
f 121/121/119 119/119/117 163/163/159
f 121/121/119 163/163/159 4/4/4
f 2/2/2 1/1/1 160/160/156
f 160/160/156 6/6/6 2/2/2
f 164/164/160 165/165/161 166/166/162
f 166/166/162 167/167/163 164/164/160
f 165/165/161 164/164/160 168/168/164
f 169/169/165 165/165/161 168/168/164
f 170/170/166 164/164/160 167/167/163
f 168/168/164 171/171/167 169/169/165
f 172/172/168 169/169/165 171/171/167
f 173/173/169 168/168/164 164/164/160
f 164/164/160 170/170/166 173/173/169
f 171/171/167 168/168/164 174/174/170
f 168/168/164 173/173/169 174/174/170
f 175/175/171 172/172/168 171/171/167
f 176/176/172 172/172/168 175/175/171
f 177/177/173 171/171/167 174/174/170
f 175/175/171 171/171/167 177/177/173
f 176/176/172 175/175/171 178/178/174
f 179/179/175 176/176/172 178/178/174
f 175/175/171 177/177/173 180/180/176
f 178/178/174 175/175/171 180/180/176
f 177/177/173 174/174/170 181/181/177
f 179/179/175 178/178/174 182/182/178
f 180/180/176 177/177/173 183/183/179
f 183/183/179 177/177/173 181/181/177
f 178/178/174 180/180/176 184/184/180
f 184/184/180 182/182/178 178/178/174
f 185/185/181 180/180/176 183/183/179
f 180/180/176 185/185/181 184/184/180
f 183/183/179 181/181/177 186/186/182
f 183/183/179 187/187/183 185/185/181
f 187/187/183 183/183/179 186/186/182
f 181/181/177 188/188/184 186/186/182
f 186/186/182 188/188/184 187/187/183
f 188/188/184 181/181/177 189/189/185
f 174/174/170 189/189/185 181/181/177
f 189/189/185 174/174/170 173/173/169
f 189/189/185 190/190/186 188/188/184
f 173/173/169 191/191/187 189/189/185
f 190/190/186 189/189/185 191/191/187
f 191/191/187 173/173/169 170/170/166
f 187/187/183 188/188/184 192/192/188
f 188/188/184 190/190/186 192/192/188
f 187/187/183 192/192/188 193/193/189
f 193/193/189 185/185/181 187/187/183
f 185/185/181 193/193/189 194/194/190
f 194/194/190 184/184/180 185/185/181
f 193/193/189 192/192/188 195/195/191
f 184/184/180 194/194/190 196/196/192
f 182/182/178 184/184/180 196/196/192
f 197/197/193 194/194/190 193/193/189
f 193/193/189 195/195/191 197/197/193
f 198/198/194 196/196/192 194/194/190
f 194/194/190 197/197/193 198/198/194
f 199/199/195 198/198/194 197/197/193
f 198/198/194 199/199/195 200/200/196
f 197/197/193 201/201/197 199/199/195
f 197/197/193 195/195/191 201/201/197
f 199/199/195 201/201/197 202/202/198
f 200/200/196 203/203/199 198/198/194
f 196/196/192 198/198/194 203/203/199
f 203/203/199 200/200/196 204/204/200
f 203/203/199 205/205/201 196/196/192
f 205/205/201 182/182/178 196/196/192
f 204/204/200 206/206/202 203/203/199
f 205/205/201 203/203/199 206/206/202
f 206/206/202 204/204/200 207/207/203
f 208/208/204 182/182/178 205/205/201
f 182/182/178 208/208/204 179/179/175
f 209/209/205 179/179/175 208/208/204
f 210/210/206 208/208/204 205/205/201
f 206/206/202 210/210/206 205/205/201
f 208/208/204 211/211/207 209/209/205
f 211/211/207 208/208/204 210/210/206
f 85/85/84 209/209/205 211/211/207
f 207/207/203 212/212/208 206/206/202
f 210/210/206 206/206/202 212/212/208
f 212/212/208 207/207/203 213/213/209
f 213/213/209 214/214/210 212/212/208
f 214/214/210 210/210/206 212/212/208
f 214/214/210 213/213/209 215/215/106
f 216/216/211 211/211/207 210/210/206
f 210/210/206 214/214/210 216/216/211
f 217/217/212 211/211/207 216/216/211
f 211/211/207 217/217/212 85/85/84
f 214/214/210 218/218/213 216/216/211
f 216/216/211 218/218/213 217/217/212
f 215/215/106 219/219/214 214/214/210
f 218/218/213 214/214/210 219/219/214
f 219/219/214 215/215/106 220/220/107
f 219/219/214 220/220/107 82/82/81
f 218/218/213 219/219/214 78/78/77
f 78/78/77 219/219/214 82/82/81
f 80/80/79 217/217/212 218/218/213
f 80/80/79 218/218/213 78/78/77
f 217/217/212 80/80/79 81/81/80
f 81/81/80 85/85/84 217/217/212
f 221/221/215 28/28/28 27/27/27
f 222/222/216 29/29/29 28/28/28
f 28/28/28 221/221/215 222/222/216
f 29/29/29 222/222/216 223/223/217
f 29/29/29 223/223/217 4/4/4
f 224/224/218 222/222/216 221/221/215
f 222/222/216 224/224/218 225/225/71
f 225/225/71 223/223/217 222/222/216
f 223/223/217 225/225/71 226/226/70
f 223/223/217 226/226/70 4/4/4
f 221/221/215 227/227/75 224/224/218
f 27/27/27 228/228/219 221/221/215
f 227/227/75 221/221/215 228/228/219
f 228/228/219 27/27/27 229/229/220
f 229/229/220 27/27/27 26/26/26
f 230/230/221 227/227/75 228/228/219
f 227/227/75 230/230/221 231/231/222
f 230/230/221 232/232/223 231/231/222
f 228/228/219 233/233/224 230/230/221
f 233/233/224 228/228/219 229/229/220
f 232/232/223 230/230/221 234/234/225
f 233/233/224 234/234/225 230/230/221
f 234/234/225 235/235/226 232/232/223
f 236/236/227 229/229/220 26/26/26
f 229/229/220 236/236/227 233/233/224
f 26/26/26 22/22/22 236/236/227
f 234/234/225 233/233/224 237/237/228
f 237/237/228 233/233/224 236/236/227
f 235/235/226 234/234/225 238/238/229
f 238/238/229 239/239/230 235/235/226
f 240/240/231 234/234/225 237/237/228
f 234/234/225 240/240/231 238/238/229
f 236/236/227 241/241/232 237/237/228
f 241/241/232 236/236/227 22/22/22
f 237/237/228 241/241/232 240/240/231
f 239/239/230 238/238/229 242/242/233
f 240/240/231 242/242/233 238/238/229
f 242/242/233 243/243/234 239/239/230
f 22/22/22 244/244/235 241/241/232
f 22/22/22 141/141/137 244/244/235
f 241/241/232 245/245/236 240/240/231
f 245/245/236 241/241/232 244/244/235
f 242/242/233 240/240/231 246/246/237
f 240/240/231 245/245/236 246/246/237
f 243/243/234 242/242/233 247/247/238
f 246/246/237 247/247/238 242/242/233
f 247/247/238 248/248/239 243/243/234
f 248/248/239 247/247/238 249/249/240
f 249/249/240 250/250/241 248/248/239
f 247/247/238 246/246/237 251/251/242
f 251/251/242 249/249/240 247/247/238
f 245/245/236 252/252/243 246/246/237
f 246/246/237 252/252/243 251/251/242
f 252/252/243 245/245/236 253/253/244
f 244/244/235 253/253/244 245/245/236
f 252/252/243 254/254/245 251/251/242
f 244/244/235 255/255/246 253/253/244
f 141/141/137 255/255/246 244/244/235
f 141/141/137 140/140/136 255/255/246
f 253/253/244 256/256/247 252/252/243
f 254/254/245 252/252/243 256/256/247
f 255/255/246 257/257/248 253/253/244
f 253/253/244 257/257/248 256/256/247
f 140/140/136 258/258/249 255/255/246
f 255/255/246 258/258/249 257/257/248
f 140/140/136 143/143/139 258/258/249
f 259/259/250 258/258/249 143/143/139
f 143/143/139 145/145/141 259/259/250
f 258/258/249 260/260/251 257/257/248
f 258/258/249 259/259/250 260/260/251
f 257/257/248 261/261/252 256/256/247
f 257/257/248 260/260/251 261/261/252
f 256/256/247 261/261/252 262/262/253
f 256/256/247 262/262/253 254/254/245
f 55/55/54 263/263/254 264/264/255
f 55/55/54 264/264/255 45/45/44
f 265/265/256 264/264/255 263/263/254
f 264/264/255 265/265/256 43/43/42
f 43/43/42 45/45/44 264/264/255
f 263/263/254 266/266/257 265/265/256
f 42/42/41 43/43/42 265/265/256
f 263/263/254 55/55/54 267/267/258
f 268/268/259 263/263/254 267/267/258
f 266/266/257 263/263/254 268/268/259
f 269/269/260 265/265/256 266/266/257
f 265/265/256 269/269/260 42/42/41
f 268/268/259 270/270/261 266/266/257
f 266/266/257 271/271/262 269/269/260
f 271/271/262 266/266/257 270/270/261
f 269/269/260 272/272/263 42/42/41
f 271/271/262 273/273/264 269/269/260
f 272/272/263 269/269/260 273/273/264
f 270/270/261 274/274/265 271/271/262
f 37/37/36 42/42/41 272/272/263
f 273/273/264 271/271/262 275/275/266
f 274/274/265 275/275/266 271/271/262
f 273/273/264 276/276/267 272/272/263
f 275/275/266 277/277/268 273/273/264
f 276/276/267 273/273/264 277/277/268
f 278/278/269 272/272/263 276/276/267
f 272/272/263 278/278/269 37/37/36
f 278/278/269 276/276/267 87/87/86
f 33/33/33 37/37/36 278/278/269
f 87/87/86 33/33/33 278/278/269
f 276/276/267 277/277/268 279/279/270
f 276/276/267 279/279/270 87/87/86
f 277/277/268 275/275/266 280/280/271
f 279/279/270 277/277/268 281/281/272
f 277/277/268 280/280/271 281/281/272
f 85/85/84 87/87/86 279/279/270
f 279/279/270 281/281/272 85/85/84
f 282/282/273 280/280/271 275/275/266
f 275/275/266 274/274/265 282/282/273
f 281/281/272 280/280/271 283/283/274
f 280/280/271 282/282/273 284/284/275
f 280/280/271 284/284/275 283/283/274
f 281/281/272 283/283/274 209/209/205
f 85/85/84 281/281/272 209/209/205
f 283/283/274 284/284/275 176/176/172
f 209/209/205 283/283/274 179/179/175
f 283/283/274 176/176/172 179/179/175
f 284/284/275 172/172/168 176/176/172
f 285/285/276 284/284/275 282/282/273
f 284/284/275 285/285/276 172/172/168
f 282/282/273 286/286/277 285/285/276
f 286/286/277 282/282/273 274/274/265
f 287/287/278 286/286/277 274/274/265
f 274/274/265 270/270/261 287/287/278
f 288/288/279 285/285/276 286/286/277
f 169/169/165 172/172/168 285/285/276
f 285/285/276 288/288/279 169/169/165
f 286/286/277 287/287/278 289/289/280
f 289/289/280 288/288/279 286/286/277
f 290/290/281 287/287/278 270/270/261
f 270/270/261 268/268/259 290/290/281
f 291/291/282 289/289/280 287/287/278
f 287/287/278 290/290/281 291/291/282
f 268/268/259 292/292/283 290/290/281
f 267/267/258 292/292/283 268/268/259
f 290/290/281 293/293/284 291/291/282
f 292/292/283 293/293/284 290/290/281
f 292/292/283 267/267/258 60/60/59
f 55/55/54 60/60/59 267/267/258
f 293/293/284 292/292/283 294/294/285
f 60/60/59 294/294/285 292/292/283
f 293/293/284 295/295/286 291/291/282
f 294/294/285 296/296/287 293/293/284
f 295/295/286 293/293/284 296/296/287
f 291/291/282 295/295/286 297/297/288
f 289/289/280 291/291/282 297/297/288
f 297/297/288 298/298/289 289/289/280
f 288/288/279 289/289/280 298/298/289
f 295/295/286 299/299/290 297/297/288
f 298/298/289 165/165/161 288/288/279
f 165/165/161 169/169/165 288/288/279
f 298/298/289 297/297/288 300/300/291
f 299/299/290 300/300/291 297/297/288
f 300/300/291 301/301/292 298/298/289
f 165/165/161 298/298/289 301/301/292
f 300/300/291 299/299/290 302/302/293
f 299/299/290 295/295/286 303/303/294
f 296/296/287 303/303/294 295/295/286
f 303/303/294 304/304/295 299/299/290
f 304/304/295 302/302/293 299/299/290
f 296/296/287 305/305/296 303/303/294
f 303/303/294 306/306/297 304/304/295
f 305/305/296 306/306/297 303/303/294
f 307/307/298 305/305/296 296/296/287
f 294/294/285 307/307/298 296/296/287
f 305/305/296 308/308/299 306/306/297
f 309/309/300 307/307/298 294/294/285
f 307/307/298 310/310/301 305/305/296
f 310/310/301 308/308/299 305/305/296
f 311/311/302 310/310/301 307/307/298
f 309/309/300 311/311/302 307/307/298
f 60/60/59 309/309/300 294/294/285
f 306/306/297 308/308/299 312/312/303
f 65/65/64 309/309/300 60/60/59
f 306/306/297 313/313/304 304/304/295
f 306/306/297 312/312/303 313/313/304
f 304/304/295 313/313/304 314/314/305
f 302/302/293 304/304/295 314/314/305
f 313/313/304 312/312/303 315/315/306
f 65/65/64 316/316/307 309/309/300
f 316/316/307 311/311/302 309/309/300
f 314/314/305 313/313/304 317/317/308
f 313/313/304 315/315/306 317/317/308
f 314/314/305 317/317/308 318/318/309
f 314/314/305 319/319/310 302/302/293
f 319/319/310 314/314/305 318/318/309
f 318/318/309 317/317/308 320/320/311
f 320/320/311 319/319/310 318/318/309
f 317/317/308 315/315/306 321/321/312
f 317/317/308 321/321/312 320/320/311
f 322/322/313 302/302/293 319/319/310
f 302/302/293 322/322/313 300/300/291
f 301/301/292 300/300/291 322/322/313
f 323/323/314 322/322/313 319/319/310
f 319/319/310 320/320/311 323/323/314
f 324/324/315 301/301/292 322/322/313
f 322/322/313 323/323/314 324/324/315
f 325/325/316 323/323/314 320/320/311
f 320/320/311 321/321/312 325/325/316
f 326/326/317 324/324/315 323/323/314
f 323/323/314 325/325/316 326/326/317
f 301/301/292 324/324/315 327/327/318
f 327/327/318 165/165/161 301/301/292
f 324/324/315 326/326/317 328/328/319
f 328/328/319 327/327/318 324/324/315
f 325/325/316 329/329/320 326/326/317
f 326/326/317 330/330/321 328/328/319
f 330/330/321 326/326/317 329/329/320
f 327/327/318 328/328/319 331/331/322
f 332/332/323 328/328/319 330/330/321
f 328/328/319 332/332/323 331/331/322
f 331/331/322 166/166/162 327/327/318
f 165/165/161 327/327/318 166/166/162
f 166/166/162 331/331/322 333/333/324
f 331/331/322 334/334/325 333/333/324
f 334/334/325 331/331/322 332/332/323
f 167/167/163 166/166/162 333/333/324
f 334/334/325 167/167/163 333/333/324
f 76/76/75 335/335/326 77/77/76
f 335/335/326 76/76/75 336/336/222
f 337/337/223 335/335/326 336/336/222
f 77/77/76 338/338/327 69/69/68
f 338/338/327 77/77/76 335/335/326
f 65/65/64 69/69/68 338/338/327
f 338/338/327 316/316/307 65/65/64
f 339/339/328 338/338/327 335/335/326
f 338/338/327 339/339/328 316/316/307
f 335/335/326 337/337/223 339/339/328
f 339/339/328 311/311/302 316/316/307
f 339/339/328 337/337/223 340/340/329
f 339/339/328 340/340/329 341/341/330
f 311/311/302 339/339/328 341/341/330
f 342/342/230 341/341/330 340/340/329
f 343/343/331 311/311/302 341/341/330
f 341/341/330 342/342/230 343/343/331
f 311/311/302 343/343/331 310/310/301
f 344/344/230 343/343/331 342/342/230
f 345/345/332 310/310/301 343/343/331
f 343/343/331 344/344/230 345/345/332
f 310/310/301 345/345/332 308/308/299
f 346/346/333 345/345/332 344/344/230
f 347/347/334 308/308/299 345/345/332
f 345/345/332 346/346/333 347/347/334
f 308/308/299 347/347/334 312/312/303
f 348/348/241 347/347/334 346/346/333
f 349/349/335 312/312/303 347/347/334
f 347/347/334 348/348/241 349/349/335
f 312/312/303 349/349/335 315/315/306
f 349/349/335 348/348/241 350/350/336
f 348/348/241 351/351/337 350/350/336
f 315/315/306 349/349/335 352/352/338
f 349/349/335 350/350/336 352/352/338
f 315/315/306 352/352/338 321/321/312
f 350/350/336 351/351/337 353/353/339
f 351/351/337 354/354/340 353/353/339
f 352/352/338 350/350/336 355/355/341
f 350/350/336 353/353/339 355/355/341
f 321/321/312 352/352/338 356/356/342
f 352/352/338 355/355/341 356/356/342
f 321/321/312 356/356/342 325/325/316
f 354/354/340 357/357/343 353/353/339
f 357/357/343 354/354/340 358/358/344
f 353/353/339 359/359/345 355/355/341
f 359/359/345 353/353/339 357/357/343
f 355/355/341 360/360/346 356/356/342
f 360/360/346 355/355/341 359/359/345
f 356/356/342 361/361/347 325/325/316
f 361/361/347 356/356/342 360/360/346
f 329/329/320 325/325/316 361/361/347
f 358/358/344 362/362/348 357/357/343
f 362/362/348 358/358/344 363/363/349
f 364/364/350 362/362/348 363/363/349
f 362/362/348 364/364/350 365/365/351
f 366/366/352 357/357/343 362/362/348
f 357/357/343 366/366/352 359/359/345
f 362/362/348 365/365/351 366/366/352
f 367/367/353 365/365/351 364/364/350
f 368/368/354 359/359/345 366/366/352
f 359/359/345 368/368/354 360/360/346
f 366/366/352 365/365/351 369/369/355
f 369/369/355 368/368/354 366/366/352
f 365/365/351 367/367/353 370/370/356
f 367/367/353 371/371/357 370/370/356
f 365/365/351 372/372/358 369/369/355
f 365/365/351 370/370/356 372/372/358
f 371/371/357 373/373/359 370/370/356
f 373/373/359 372/372/358 370/370/356
f 371/371/357 374/374/360 373/373/359
f 372/372/358 375/375/361 369/369/355
f 368/368/354 369/369/355 375/375/361
f 375/375/361 376/376/362 368/368/354
f 376/376/362 360/360/346 368/368/354
f 360/360/346 376/376/362 361/361/347
f 377/377/363 361/361/347 376/376/362
f 376/376/362 375/375/361 377/377/363
f 361/361/347 377/377/363 329/329/320
f 375/375/361 372/372/358 378/378/364
f 378/378/364 377/377/363 375/375/361
f 379/379/365 329/329/320 377/377/363
f 377/377/363 378/378/364 379/379/365
f 329/329/320 379/379/365 330/330/321
f 372/372/358 380/380/366 378/378/364
f 373/373/359 380/380/366 372/372/358
f 378/378/364 381/381/367 379/379/365
f 380/380/366 381/381/367 378/378/364
f 382/382/368 330/330/321 379/379/365
f 381/381/367 382/382/368 379/379/365
f 330/330/321 382/382/368 332/332/323
f 373/373/359 383/383/369 380/380/366
f 374/374/360 383/383/369 373/373/359
f 380/380/366 384/384/370 381/381/367
f 383/383/369 384/384/370 380/380/366
f 381/381/367 385/385/371 382/382/368
f 384/384/370 385/385/371 381/381/367
f 386/386/372 332/332/323 382/382/368
f 385/385/371 386/386/372 382/382/368
f 332/332/323 386/386/372 334/334/325
f 374/374/360 387/387/356 383/383/369
f 387/387/356 374/374/360 388/388/373
f 383/383/369 389/389/374 384/384/370
f 387/387/356 389/389/374 383/383/369
f 384/384/370 390/390/375 385/385/371
f 389/389/374 390/390/375 384/384/370
f 388/388/373 391/391/376 387/387/356
f 391/391/376 388/388/373 392/392/377
f 387/387/356 393/393/378 389/389/374
f 391/391/376 393/393/378 387/387/356
f 392/392/377 394/394/379 391/391/376
f 394/394/379 393/393/378 391/391/376
f 394/394/379 392/392/377 395/395/380
f 393/393/378 396/396/381 389/389/374
f 389/389/374 396/396/381 390/390/375
f 393/393/378 394/394/379 397/397/382
f 395/395/380 398/398/383 394/394/379
f 395/395/380 399/399/384 398/398/383
f 400/400/385 398/398/383 399/399/384
f 394/394/379 398/398/383 401/401/386
f 394/394/379 401/401/386 397/397/382
f 398/398/383 400/400/385 402/402/387
f 402/402/387 401/401/386 398/398/383
f 403/403/388 402/402/387 400/400/385
f 404/404/389 393/393/378 397/397/382
f 393/393/378 404/404/389 396/396/381
f 405/405/390 397/397/382 401/401/386
f 397/397/382 405/405/390 404/404/389
f 401/401/386 402/402/387 406/406/391
f 406/406/391 405/405/390 401/401/386
f 402/402/387 403/403/388 407/407/392
f 407/407/392 406/406/391 402/402/387
f 202/202/198 407/407/392 403/403/388
f 201/201/197 407/407/392 202/202/198
f 201/201/197 408/408/393 407/407/392
f 406/406/391 407/407/392 408/408/393
f 195/195/191 408/408/393 201/201/197
f 405/405/390 406/406/391 409/409/394
f 408/408/393 409/409/394 406/406/391
f 195/195/191 410/410/395 408/408/393
f 409/409/394 408/408/393 410/410/395
f 192/192/188 410/410/395 195/195/191
f 192/192/188 190/190/186 410/410/395
f 409/409/394 411/411/396 405/405/390
f 411/411/396 404/404/389 405/405/390
f 410/410/395 412/412/397 409/409/394
f 411/411/396 409/409/394 412/412/397
f 412/412/397 410/410/395 190/190/186
f 404/404/389 411/411/396 413/413/398
f 412/412/397 413/413/398 411/411/396
f 413/413/398 396/396/381 404/404/389
f 190/190/186 414/414/399 412/412/397
f 413/413/398 412/412/397 414/414/399
f 414/414/399 190/190/186 191/191/187
f 396/396/381 413/413/398 415/415/400
f 414/414/399 415/415/400 413/413/398
f 396/396/381 415/415/400 390/390/375
f 191/191/187 416/416/401 414/414/399
f 415/415/400 414/414/399 416/416/401
f 416/416/401 191/191/187 170/170/166
f 390/390/375 415/415/400 417/417/402
f 416/416/401 417/417/402 415/415/400
f 390/390/375 417/417/402 385/385/371
f 385/385/371 417/417/402 386/386/372
f 417/417/402 416/416/401 418/418/403
f 170/170/166 418/418/403 416/416/401
f 418/418/403 386/386/372 417/417/402
f 418/418/403 170/170/166 167/167/163
f 386/386/372 418/418/403 334/334/325
f 167/167/163 334/334/325 418/418/403
f 261/261/252 260/260/251 419/419/404
f 420/420/405 260/260/251 259/259/250
f 260/260/251 420/420/405 419/419/404
f 259/259/250 421/421/406 420/420/405
f 421/421/406 259/259/250 145/145/141
f 261/261/252 422/422/407 262/262/253
f 261/261/252 419/419/404 422/422/407
f 423/423/408 421/421/406 145/145/141
f 145/145/141 146/146/142 423/423/408
f 424/424/409 420/420/405 421/421/406
f 425/425/410 419/419/404 420/420/405
f 420/420/405 424/424/409 425/425/410
f 422/422/407 419/419/404 426/426/411
f 419/419/404 425/425/410 426/426/411
f 421/421/406 423/423/408 427/427/412
f 427/427/412 424/424/409 421/421/406
f 428/428/413 423/423/408 146/146/142
f 146/146/142 148/148/144 428/428/413
f 429/429/414 427/427/412 423/423/408
f 423/423/408 428/428/413 429/429/414
f 148/148/144 430/430/415 428/428/413
f 151/151/147 430/430/415 148/148/144
f 428/428/413 431/431/416 429/429/414
f 430/430/415 431/431/416 428/428/413
f 430/430/415 151/151/147 432/432/417
f 431/431/416 430/430/415 433/433/418
f 432/432/417 433/433/418 430/430/415
f 115/115/113 432/432/417 151/151/147
f 433/433/418 434/434/419 431/431/416
f 431/431/416 435/435/420 429/429/414
f 435/435/420 431/431/416 434/434/419
f 435/435/420 436/436/421 429/429/414
f 427/427/412 429/429/414 436/436/421
f 436/436/421 437/437/422 427/427/412
f 424/424/409 427/427/412 437/437/422
f 436/436/421 435/435/420 438/438/423
f 434/434/419 439/439/424 435/435/420
f 439/439/424 438/438/423 435/435/420
f 438/438/423 440/440/425 436/436/421
f 437/437/422 436/436/421 440/440/425
f 438/438/423 439/439/424 441/441/426
f 442/442/427 424/424/409 437/437/422
f 440/440/425 438/438/423 443/443/428
f 441/441/426 443/443/428 438/438/423
f 444/444/429 437/437/422 440/440/425
f 437/437/422 444/444/429 442/442/427
f 445/445/430 440/440/425 443/443/428
f 440/440/425 445/445/430 444/444/429
f 443/443/428 441/441/426 446/446/431
f 443/443/428 447/447/432 445/445/430
f 447/447/432 443/443/428 446/446/431
f 441/441/426 448/448/433 446/446/431
f 446/446/431 448/448/433 447/447/432
f 441/441/426 449/449/434 448/448/433
f 439/439/424 449/449/434 441/441/426
f 450/450/435 445/445/430 447/447/432
f 451/451/436 449/449/434 439/439/424
f 434/434/419 451/451/436 439/439/424
f 448/448/433 452/452/437 447/447/432
f 447/447/432 452/452/437 450/450/435
f 449/449/434 453/453/438 448/448/433
f 448/448/433 453/453/438 452/452/437
f 451/451/436 454/454/439 449/449/434
f 449/449/434 454/454/439 453/453/438
f 455/455/440 451/451/436 434/434/419
f 433/433/418 455/455/440 434/434/419
f 451/451/436 456/456/441 454/454/439
f 455/455/440 456/456/441 451/451/436
f 457/457/442 455/455/440 433/433/418
f 432/432/417 457/457/442 433/433/418
f 458/458/443 456/456/441 455/455/440
f 457/457/442 458/458/443 455/455/440
f 459/459/444 457/457/442 432/432/417
f 115/115/113 459/459/444 432/432/417
f 460/460/445 458/458/443 457/457/442
f 459/459/444 460/460/445 457/457/442
f 458/458/443 461/461/446 456/456/441
f 103/103/102 459/459/444 115/115/113
f 460/460/445 462/462/447 458/458/443
f 461/461/446 458/458/443 462/462/447
f 102/102/101 460/460/445 459/459/444
f 103/103/102 102/102/101 459/459/444
f 462/462/447 463/463/203 461/461/446
f 463/463/203 462/462/447 464/464/203
f 465/465/448 461/461/446 463/463/203
f 466/466/449 464/464/203 462/462/447
f 462/462/447 460/460/445 466/466/449
f 464/464/203 466/466/449 467/467/450
f 460/460/445 104/104/103 466/466/449
f 104/104/103 467/467/450 466/466/449
f 104/104/103 460/460/445 102/102/101
f 104/104/103 107/107/106 467/467/450
f 461/461/446 465/465/448 468/468/451
f 468/468/451 456/456/441 461/461/446
f 469/469/195 468/468/451 465/465/448
f 456/456/441 468/468/451 454/454/439
f 470/470/452 454/454/439 468/468/451
f 468/468/451 469/469/195 470/470/452
f 454/454/439 470/470/452 453/453/438
f 470/470/452 469/469/195 471/471/453
f 469/469/195 472/472/454 471/471/453
f 453/453/438 470/470/452 473/473/455
f 470/470/452 471/471/453 473/473/455
f 453/453/438 473/473/455 452/452/437
f 471/471/453 472/472/454 474/474/456
f 472/472/454 475/475/388 474/474/456
f 473/473/455 471/471/453 476/476/457
f 471/471/453 474/474/456 476/476/457
f 452/452/437 473/473/455 477/477/458
f 473/473/455 476/476/457 477/477/458
f 452/452/437 477/477/458 450/450/435
f 475/475/388 478/478/459 474/474/456
f 478/478/459 475/475/388 479/479/385
f 474/474/456 480/480/460 476/476/457
f 480/480/460 474/474/456 478/478/459
f 476/476/457 481/481/461 477/477/458
f 481/481/461 476/476/457 480/480/460
f 482/482/462 477/477/458 481/481/461
f 477/477/458 482/482/462 450/450/435
f 479/479/385 483/483/463 478/478/459
f 483/483/463 479/479/385 484/484/464
f 485/485/380 483/483/463 484/484/464
f 486/486/465 478/478/459 483/483/463
f 478/478/459 486/486/465 480/480/460
f 483/483/463 485/485/380 487/487/466
f 487/487/466 486/486/465 483/483/463
f 485/485/380 488/488/467 487/487/466
f 488/488/467 485/485/380 489/489/377
f 490/490/373 488/488/467 489/489/377
f 491/491/468 487/487/466 488/488/467
f 488/488/467 490/490/373 492/492/469
f 492/492/469 491/491/468 488/488/467
f 493/493/360 492/492/469 490/490/373
f 486/486/465 487/487/466 494/494/470
f 487/487/466 491/491/468 494/494/470
f 494/494/470 495/495/471 486/486/465
f 495/495/471 480/480/460 486/486/465
f 480/480/460 495/495/471 481/481/461
f 495/495/471 494/494/470 496/496/472
f 491/491/468 496/496/472 494/494/470
f 497/497/473 481/481/461 495/495/471
f 496/496/472 497/497/473 495/495/471
f 481/481/461 497/497/473 482/482/462
f 497/497/473 496/496/472 498/498/474
f 498/498/474 482/482/462 497/497/473
f 496/496/472 491/491/468 499/499/475
f 499/499/475 498/498/474 496/496/472
f 500/500/476 499/499/475 491/491/468
f 491/491/468 492/492/469 500/500/476
f 498/498/474 499/499/475 501/501/477
f 482/482/462 498/498/474 502/502/478
f 501/501/477 502/502/478 498/498/474
f 502/502/478 450/450/435 482/482/462
f 503/503/479 501/501/477 499/499/475
f 499/499/475 500/500/476 503/503/479
f 502/502/478 501/501/477 504/504/480
f 450/450/435 502/502/478 505/505/481
f 504/504/480 505/505/481 502/502/478
f 445/445/430 450/450/435 505/505/481
f 505/505/481 444/444/429 445/445/430
f 444/444/429 505/505/481 506/506/482
f 505/505/481 504/504/480 506/506/482
f 506/506/482 442/442/427 444/444/429
f 507/507/483 504/504/480 501/501/477
f 501/501/477 503/503/479 507/507/483
f 508/508/484 506/506/482 504/504/480
f 504/504/480 507/507/483 508/508/484
f 442/442/427 506/506/482 509/509/485
f 506/506/482 508/508/484 509/509/485
f 509/509/485 510/510/486 442/442/427
f 424/424/409 442/442/427 510/510/486
f 510/510/486 509/509/485 511/511/487
f 512/512/488 424/424/409 510/510/486
f 424/424/409 512/512/488 425/425/410
f 513/513/489 510/510/486 511/511/487
f 510/510/486 513/513/489 512/512/488
f 509/509/485 514/514/490 511/511/487
f 514/514/490 509/509/485 508/508/484
f 514/514/490 513/513/489 511/511/487
f 508/508/484 515/515/491 514/514/490
f 515/515/491 508/508/484 507/507/483
f 513/513/489 514/514/490 516/516/492
f 515/515/491 516/516/492 514/514/490
f 517/517/493 512/512/488 513/513/489
f 516/516/492 517/517/493 513/513/489
f 507/507/483 518/518/494 515/515/491
f 518/518/494 507/507/483 503/503/479
f 516/516/492 515/515/491 519/519/495
f 519/519/495 515/515/491 518/518/494
f 517/517/493 516/516/492 520/520/496
f 519/519/495 520/520/496 516/516/492
f 512/512/488 517/517/493 521/521/497
f 521/521/497 425/425/410 512/512/488
f 425/425/410 521/521/497 426/426/411
f 522/522/498 521/521/497 517/517/493
f 520/520/496 522/522/498 517/517/493
f 523/523/499 426/426/411 521/521/497
f 521/521/497 522/522/498 523/523/499
f 426/426/411 523/523/499 524/524/500
f 422/422/407 426/426/411 524/524/500
f 525/525/501 523/523/499 522/522/498
f 526/526/502 422/422/407 524/524/500
f 262/262/253 422/422/407 526/526/502
f 527/527/503 524/524/500 523/523/499
f 523/523/499 525/525/501 527/527/503
f 526/526/502 524/524/500 528/528/504
f 524/524/500 527/527/503 528/528/504
f 529/529/505 262/262/253 526/526/502
f 262/262/253 529/529/505 254/254/245
f 530/530/506 526/526/502 528/528/504
f 528/528/504 527/527/503 530/530/506
f 526/526/502 530/530/506 529/529/505
f 530/530/506 527/527/503 531/531/507
f 527/527/503 525/525/501 531/531/507
f 532/532/508 529/529/505 530/530/506
f 530/530/506 531/531/507 532/532/508
f 533/533/509 254/254/245 529/529/505
f 529/529/505 532/532/508 533/533/509
f 254/254/245 533/533/509 251/251/242
f 249/249/240 251/251/242 533/533/509
f 533/533/509 534/534/510 249/249/240
f 534/534/510 533/533/509 532/532/508
f 250/250/241 249/249/240 534/534/510
f 532/532/508 531/531/507 535/535/511
f 532/532/508 535/535/511 534/534/510
f 534/534/510 536/536/512 250/250/241
f 534/534/510 535/535/511 536/536/512
f 250/250/241 536/536/512 537/537/513
f 531/531/507 538/538/514 535/535/511
f 531/531/507 525/525/501 538/538/514
f 535/535/511 539/539/515 536/536/512
f 535/535/511 538/538/514 539/539/515
f 536/536/512 540/540/516 537/537/513
f 536/536/512 539/539/515 540/540/516
f 537/537/513 540/540/516 541/541/340
f 542/542/517 541/541/340 540/540/516
f 541/541/340 542/542/517 543/543/344
f 544/544/518 540/540/516 539/539/515
f 540/540/516 544/544/518 542/542/517
f 545/545/519 539/539/515 538/538/514
f 539/539/515 545/545/519 544/544/518
f 538/538/514 546/546/520 545/545/519
f 546/546/520 538/538/514 525/525/501
f 547/547/521 543/543/344 542/542/517
f 543/543/344 547/547/521 548/548/349
f 547/547/521 549/549/350 548/548/349
f 542/542/517 550/550/522 547/547/521
f 550/550/522 542/542/517 544/544/518
f 549/549/350 547/547/521 551/551/523
f 550/550/522 551/551/523 547/547/521
f 552/552/524 549/549/350 551/551/523
f 549/549/350 552/552/524 553/553/353
f 552/552/524 554/554/357 553/553/353
f 551/551/523 555/555/525 552/552/524
f 552/552/524 556/556/526 554/554/357
f 555/555/525 556/556/526 552/552/524
f 556/556/526 493/493/360 554/554/357
f 551/551/523 550/550/522 557/557/527
f 555/555/525 551/551/523 557/557/527
f 558/558/528 557/557/527 550/550/522
f 544/544/518 558/558/528 550/550/522
f 558/558/528 544/544/518 545/545/519
f 557/557/527 558/558/528 559/559/529
f 559/559/529 555/555/525 557/557/527
f 545/545/519 560/560/530 558/558/528
f 560/560/530 559/559/529 558/558/528
f 560/560/530 545/545/519 546/546/520
f 559/559/529 560/560/530 561/561/531
f 546/546/520 561/561/531 560/560/530
f 555/555/525 559/559/529 562/562/532
f 561/561/531 562/562/532 559/559/529
f 561/561/531 546/546/520 563/563/533
f 525/525/501 563/563/533 546/546/520
f 563/563/533 525/525/501 522/522/498
f 522/522/498 520/520/496 563/563/533
f 563/563/533 564/564/534 561/561/531
f 564/564/534 563/563/533 520/520/496
f 562/562/532 561/561/531 564/564/534
f 520/520/496 519/519/495 564/564/534
f 564/564/534 519/519/495 565/565/535
f 564/564/534 565/565/535 562/562/532
f 519/519/495 518/518/494 565/565/535
f 562/562/532 566/566/536 555/555/525
f 562/562/532 565/565/535 566/566/536
f 555/555/525 566/566/536 556/556/526
f 565/565/535 518/518/494 567/567/537
f 565/565/535 567/567/537 566/566/536
f 503/503/479 567/567/537 518/518/494
f 567/567/537 503/503/479 500/500/476
f 566/566/536 567/567/537 568/568/538
f 566/566/536 568/568/538 556/556/526
f 500/500/476 568/568/538 567/567/537
f 556/556/526 568/568/538 493/493/360
f 568/568/538 500/500/476 492/492/469
f 492/492/469 493/493/360 568/568/538
