# Blender 5.1.2
# www.blender.org
mtllib BouncyBall.mtl
o BouncyBall
v 0.461881 0.373842 -0.461906
v 0.511681 0.423642 -0.341206
v 0.550591 0.462562 -0.183605
v 0.565681 0.477652 -0.000004
v 0.550591 0.462562 0.183495
v 0.511681 0.423642 0.341095
v 0.461881 0.373842 0.461895
v 0.511681 0.253082 -0.511703
v 0.582081 0.300022 -0.388104
v 0.641421 0.339582 -0.213806
v 0.665641 0.355722 -0.000004
v 0.641421 0.339582 0.213795
v 0.582081 0.300022 0.387993
v 0.511681 0.253082 0.511696
v 0.550591 0.095502 -0.550606
v 0.641421 0.125772 -0.427605
v 0.723621 0.153172 -0.241207
v 0.758941 0.164952 -0.000004
v 0.723621 0.153172 0.241196
v 0.641421 0.125772 0.427593
v 0.550591 0.095502 0.550594
v 0.565681 -0.088038 -0.565704
v 0.665641 -0.088038 -0.443806
v 0.758941 -0.088038 -0.253006
v 0.800001 -0.088038 -0.000004
v 0.758941 -0.088038 0.252995
v 0.665641 -0.088038 0.443695
v 0.565681 -0.088038 0.565693
v 0.550591 -0.271568 -0.550606
v 0.641421 -0.301848 -0.427605
v 0.723621 -0.329248 -0.241207
v 0.758941 -0.341018 -0.000004
v 0.723621 -0.329248 0.241196
v 0.641421 -0.301848 0.427593
v 0.550591 -0.271568 0.550594
v 0.511681 -0.429158 -0.511703
v 0.582081 -0.476088 -0.388103
v 0.641421 -0.515648 -0.213806
v 0.665641 -0.531798 -0.000004
v 0.641421 -0.515648 0.213795
v 0.582081 -0.476088 0.387993
v 0.511681 -0.429158 0.511696
v 0.461881 -0.549918 -0.461906
v 0.511681 -0.599718 -0.341206
v 0.550591 -0.638628 -0.183605
v 0.565681 -0.653718 -0.000004
v 0.550591 -0.638628 0.183495
v 0.511681 -0.599718 0.341095
v 0.461881 -0.549918 0.461895
v -0.461879 0.373842 0.461895
v -0.341129 0.423642 0.511696
v -0.183539 0.462562 0.550594
v 0.000000 0.477652 0.565693
v 0.183531 0.462562 0.550594
v 0.341121 0.423642 0.511696
v 0.461881 0.373842 0.461895
v -0.511689 0.423642 0.341095
v -0.388059 0.494052 0.387993
v -0.213809 0.553392 0.427593
v 0.000000 0.577602 0.443695
v 0.213801 0.553392 0.427593
v 0.388051 0.494052 0.387993
v 0.511681 0.423642 0.341095
v -0.550599 0.462562 0.183495
v -0.427619 0.553392 0.213795
v -0.241210 0.635592 0.241196
v 0.000000 0.670912 0.252994
v 0.241201 0.635592 0.241196
v 0.427611 0.553392 0.213795
v 0.550591 0.462562 0.183495
v -0.565689 0.477652 -0.000004
v -0.443759 0.577602 -0.000004
v -0.252989 0.670912 -0.000004
v 0.000000 0.711962 -0.000004
v 0.252981 0.670912 -0.000004
v 0.443761 0.577602 -0.000004
v 0.565681 0.477652 -0.000004
v -0.550599 0.462562 -0.183605
v -0.427619 0.553392 -0.213806
v -0.241210 0.635592 -0.241207
v 0.000000 0.670912 -0.253006
v 0.241201 0.635592 -0.241207
v 0.427611 0.553392 -0.213806
v 0.550591 0.462562 -0.183605
v -0.511689 0.423642 -0.341206
v -0.388059 0.494052 -0.388104
v -0.213809 0.553392 -0.427605
v 0.000000 0.577602 -0.443806
v 0.213801 0.553392 -0.427605
v 0.388051 0.494052 -0.388104
v 0.511681 0.423642 -0.341206
v -0.461879 0.373842 -0.461906
v -0.341129 0.423642 -0.511704
v -0.183539 0.462562 -0.550606
v 0.000000 0.477652 -0.565704
v 0.183531 0.462562 -0.550606
v 0.341121 0.423642 -0.511704
v 0.461881 0.373842 -0.461906
v 0.461881 0.373842 0.461895
v 0.341121 0.423642 0.511696
v 0.183531 0.462562 0.550594
v 0.000000 0.477652 0.565693
v -0.183539 0.462562 0.550594
v -0.341129 0.423642 0.511696
v -0.461879 0.373842 0.461895
v 0.511681 0.253082 0.511696
v 0.388051 0.300022 0.582096
v 0.213801 0.339582 0.641396
v 0.000000 0.355722 0.665596
v -0.213809 0.339582 0.641396
v -0.388059 0.300022 0.582096
v -0.511689 0.253082 0.511696
v 0.550591 0.095502 0.550594
v 0.427611 0.125772 0.641396
v 0.241201 0.153172 0.723595
v 0.000000 0.164952 0.758896
v -0.241210 0.153172 0.723595
v -0.427619 0.125772 0.641396
v -0.550599 0.095502 0.550594
v 0.565681 -0.088038 0.565693
v 0.443761 -0.088038 0.665596
v 0.252981 -0.088038 0.758896
v 0.000000 -0.088038 0.799995
v -0.252989 -0.088038 0.758896
v -0.443759 -0.088038 0.665596
v -0.565689 -0.088038 0.565693
v 0.550591 -0.271568 0.550594
v 0.427611 -0.301848 0.641396
v 0.241201 -0.329248 0.723595
v 0.000000 -0.341018 0.758896
v -0.241210 -0.329248 0.723595
v -0.427619 -0.301848 0.641396
v -0.550599 -0.271568 0.550594
v 0.511681 -0.429158 0.511696
v 0.388051 -0.476088 0.582096
v 0.213801 -0.515648 0.641396
v 0.000000 -0.531798 0.665596
v -0.213809 -0.515648 0.641396
v -0.388059 -0.476088 0.582096
v -0.511689 -0.429158 0.511696
v 0.461881 -0.549918 0.461895
v 0.341121 -0.599718 0.511696
v 0.183531 -0.638628 0.550594
v 0.000000 -0.653718 0.565693
v -0.183539 -0.638628 0.550594
v -0.341129 -0.599718 0.511696
v -0.461879 -0.549918 0.461895
v -0.461879 0.373842 0.461895
v -0.511689 0.423642 0.341095
v -0.550599 0.462562 0.183495
v -0.565689 0.477652 -0.000004
v -0.550599 0.462562 -0.183605
v -0.511689 0.423642 -0.341206
v -0.461879 0.373842 -0.461906
v -0.511689 0.253082 0.511696
v -0.582089 0.300022 0.387993
v -0.641429 0.339582 0.213795
v -0.665639 0.355722 -0.000004
v -0.641429 0.339582 -0.213806
v -0.582089 0.300022 -0.388104
v -0.511689 0.253082 -0.511703
v -0.550599 0.095502 0.550594
v -0.641429 0.125772 0.427593
v -0.723629 0.153172 0.241196
v -0.758949 0.164952 -0.000004
v -0.723629 0.153172 -0.241207
v -0.641429 0.125772 -0.427605
v -0.550599 0.095502 -0.550606
v -0.565689 -0.088038 0.565693
v -0.665639 -0.088038 0.443695
v -0.758949 -0.088038 0.252995
v -0.799999 -0.088038 -0.000004
v -0.758949 -0.088038 -0.253006
v -0.665639 -0.088038 -0.443806
v -0.565689 -0.088038 -0.565704
v -0.550599 -0.271568 0.550594
v -0.641429 -0.301848 0.427593
v -0.723629 -0.329248 0.241196
v -0.758949 -0.341018 -0.000004
v -0.723629 -0.329248 -0.241207
v -0.641429 -0.301848 -0.427605
v -0.550599 -0.271568 -0.550606
v -0.511689 -0.429158 0.511696
v -0.582089 -0.476088 0.387993
v -0.641429 -0.515648 0.213795
v -0.665639 -0.531798 -0.000004
v -0.641429 -0.515648 -0.213806
v -0.582089 -0.476088 -0.388103
v -0.511689 -0.429158 -0.511703
v -0.461879 -0.549918 0.461895
v -0.511689 -0.599718 0.341095
v -0.550599 -0.638628 0.183495
v -0.565689 -0.653718 -0.000004
v -0.550599 -0.638628 -0.183605
v -0.511689 -0.599718 -0.341206
v -0.461879 -0.549918 -0.461906
v -0.461879 -0.549918 -0.461906
v -0.341129 -0.599718 -0.511703
v -0.183539 -0.638628 -0.550606
v 0.000000 -0.653718 -0.565704
v 0.183531 -0.638628 -0.550606
v 0.341121 -0.599718 -0.511703
v 0.461881 -0.549918 -0.461906
v -0.511689 -0.599718 -0.341206
v -0.388059 -0.670118 -0.388103
v -0.213809 -0.729458 -0.427605
v 0.000000 -0.753678 -0.443806
v 0.213801 -0.729458 -0.427605
v 0.388051 -0.670118 -0.388103
v 0.511681 -0.599718 -0.341206
v -0.550599 -0.638628 -0.183605
v -0.427619 -0.729458 -0.213806
v -0.241210 -0.811658 -0.241207
v 0.000000 -0.846978 -0.253006
v 0.241201 -0.811658 -0.241207
v 0.427611 -0.729458 -0.213806
v 0.550591 -0.638628 -0.183605
v -0.565689 -0.653718 -0.000004
v -0.443759 -0.753678 -0.000004
v -0.252989 -0.846978 -0.000004
v 0.000000 -0.888038 -0.000004
v 0.252981 -0.846978 -0.000004
v 0.443761 -0.753678 -0.000004
v 0.565681 -0.653718 -0.000004
v -0.550599 -0.638628 0.183495
v -0.427619 -0.729458 0.213795
v -0.241210 -0.811658 0.241196
v 0.000000 -0.846978 0.252995
v 0.241201 -0.811658 0.241196
v 0.427611 -0.729458 0.213795
v 0.550591 -0.638628 0.183495
v -0.511689 -0.599718 0.341095
v -0.388059 -0.670118 0.387993
v -0.213809 -0.729458 0.427593
v 0.000000 -0.753678 0.443695
v 0.213801 -0.729458 0.427593
v 0.388051 -0.670118 0.387993
v 0.511681 -0.599718 0.341095
v -0.461879 -0.549918 0.461895
v -0.341129 -0.599718 0.511696
v -0.183539 -0.638628 0.550594
v 0.000000 -0.653718 0.565693
v 0.183531 -0.638628 0.550594
v 0.341121 -0.599718 0.511696
v 0.461881 -0.549918 0.461895
v -0.461879 0.373842 -0.461906
v -0.341129 0.423642 -0.511704
v -0.183539 0.462562 -0.550606
v 0.000000 0.477652 -0.565704
v 0.183531 0.462562 -0.550606
v 0.341121 0.423642 -0.511704
v 0.461881 0.373842 -0.461906
v -0.511689 0.253082 -0.511703
v -0.388059 0.300022 -0.582104
v -0.213809 0.339582 -0.641506
v 0.000000 0.355722 -0.665707
v 0.213801 0.339582 -0.641506
v 0.388051 0.300022 -0.582104
v 0.511681 0.253082 -0.511703
v -0.550599 0.095502 -0.550606
v -0.427619 0.125772 -0.641506
v -0.241210 0.153172 -0.723705
v 0.000000 0.164952 -0.759007
v 0.241201 0.153172 -0.723705
v 0.427611 0.125772 -0.641506
v 0.550591 0.095502 -0.550606
v -0.565689 -0.088038 -0.565704
v -0.443759 -0.088038 -0.665707
v -0.252989 -0.088038 -0.759007
v 0.000000 -0.088038 -0.800007
v 0.252981 -0.088038 -0.759007
v 0.443761 -0.088038 -0.665707
v 0.565681 -0.088038 -0.565704
v -0.550599 -0.271568 -0.550606
v -0.427619 -0.301848 -0.641506
v -0.241210 -0.329248 -0.723705
v 0.000000 -0.341018 -0.759007
v 0.241201 -0.329248 -0.723705
v 0.427611 -0.301848 -0.641506
v 0.550591 -0.271568 -0.550606
v -0.511689 -0.429158 -0.511703
v -0.388059 -0.476088 -0.582104
v -0.213809 -0.515648 -0.641506
v 0.000000 -0.531798 -0.665707
v 0.213801 -0.515648 -0.641506
v 0.388051 -0.476088 -0.582104
v 0.511681 -0.429158 -0.511703
v -0.461879 -0.549918 -0.461906
v -0.341129 -0.599718 -0.511703
v -0.183539 -0.638628 -0.550606
v 0.000000 -0.653718 -0.565704
v 0.183531 -0.638628 -0.550606
v 0.341121 -0.599718 -0.511703
v 0.461881 -0.549918 -0.461906
v -0.473379 0.385342 0.473293
v -0.349629 0.436402 0.524395
v -0.188099 0.476262 0.564293
v 0.000000 0.491822 0.579796
v 0.188101 0.476262 0.564293
v 0.349621 0.436402 0.524395
v 0.473371 0.385342 0.473293
v -0.524439 0.436402 0.349594
v -0.397820 0.508542 0.397793
v -0.219169 0.569452 0.438293
v 0.000000 0.594302 0.454796
v 0.219161 0.569452 0.438293
v 0.397820 0.508542 0.397793
v 0.524431 0.436402 0.349594
v -0.564299 0.476262 0.188095
v -0.438329 0.569452 0.219093
v -0.247200 0.653702 0.247196
v 0.000000 0.689812 0.259296
v 0.247190 0.653702 0.247196
v 0.438321 0.569452 0.219093
v 0.564291 0.476262 0.188095
v -0.579859 0.491822 -0.000004
v -0.454789 0.594302 -0.000004
v -0.259289 0.689812 -0.000004
v 0.000000 0.731962 -0.000004
v 0.259281 0.689812 -0.000004
v 0.454781 0.594302 -0.000004
v 0.579851 0.491822 -0.000004
v -0.564299 0.476262 -0.188107
v -0.438329 0.569452 -0.219204
v -0.247200 0.653702 -0.247204
v 0.000000 0.689812 -0.259304
v 0.247190 0.653702 -0.247204
v 0.438321 0.569452 -0.219204
v 0.564291 0.476262 -0.188107
v -0.524439 0.436402 -0.349705
v -0.397820 0.508542 -0.397903
v -0.219169 0.569452 -0.438404
v 0.000000 0.594302 -0.454804
v 0.219161 0.569452 -0.438404
v 0.397820 0.508542 -0.397903
v 0.524431 0.436402 -0.349705
v -0.473379 0.385342 -0.473404
v -0.349629 0.436402 -0.524506
v -0.188099 0.476262 -0.564304
v 0.000000 0.491822 -0.579907
v 0.188101 0.476262 -0.564304
v 0.349621 0.436402 -0.524506
v 0.473371 0.385342 -0.473404
vn 0.5774 0.5773 -0.5773
vn 0.6396 0.6396 -0.4264
vn 0.6396 0.4264 -0.6396
vn 0.7239 0.4878 -0.4878
vn 0.6883 0.6882 -0.2294
vn 0.8018 0.5345 -0.2673
vn 0.7071 0.7071 -0.0000
vn 0.8345 0.5510 -0.0000
vn 0.6883 0.6882 0.2294
vn 0.8018 0.5345 0.2673
vn 0.6396 0.6396 0.4264
vn 0.7239 0.4878 0.4878
vn 0.5774 0.5773 0.5773
vn 0.6396 0.4264 0.6396
vn 0.6883 0.2294 -0.6882
vn 0.8018 0.2673 -0.5345
vn 0.9060 0.2993 -0.2993
vn 0.9487 0.3162 -0.0000
vn 0.9060 0.2993 0.2993
vn 0.8018 0.2672 0.5345
vn 0.6883 0.2294 0.6882
vn 0.7071 -0.0000 -0.7071
vn 0.8345 -0.0000 -0.5511
vn 0.9487 -0.0000 -0.3162
vn 1.0000 -0.0000 -0.0000
vn 0.9487 -0.0000 0.3162
vn 0.8345 -0.0000 0.5511
vn 0.7071 -0.0000 0.7071
vn 0.6883 -0.2294 -0.6882
vn 0.8018 -0.2673 -0.5345
vn 0.9060 -0.2994 -0.2994
vn 0.9487 -0.3162 -0.0000
vn 0.9060 -0.2994 0.2994
vn 0.8018 -0.2673 0.5345
vn 0.6883 -0.2294 0.6882
vn 0.6396 -0.4264 -0.6396
vn 0.7239 -0.4878 -0.4878
vn 0.8018 -0.5345 -0.2673
vn 0.8345 -0.5511 -0.0000
vn 0.8018 -0.5345 0.2673
vn 0.7239 -0.4878 0.4878
vn 0.6396 -0.4264 0.6396
vn 0.5774 -0.5773 -0.5773
vn 0.6396 -0.6396 -0.4264
vn 0.6883 -0.6882 -0.2294
vn 0.7071 -0.7071 -0.0000
vn 0.6883 -0.6882 0.2294
vn 0.6396 -0.6396 0.4264
vn 0.5774 -0.5773 0.5773
vn -0.5773 0.5774 0.5773
vn -0.4264 0.6396 0.6396
vn -0.6396 0.6396 0.4264
vn -0.4878 0.7239 0.4878
vn -0.2294 0.6883 0.6882
vn -0.2673 0.8018 0.5345
vn -0.0000 0.7071 0.7071
vn -0.0000 0.8345 0.5511
vn 0.2294 0.6883 0.6882
vn 0.2673 0.8018 0.5345
vn 0.4264 0.6396 0.6396
vn 0.4878 0.7239 0.4878
vn 0.5773 0.5774 0.5773
vn -0.6882 0.6883 0.2294
vn -0.5345 0.8018 0.2673
vn -0.2994 0.9060 0.2994
vn -0.0000 0.9487 0.3162
vn 0.2993 0.9060 0.2993
vn 0.5345 0.8018 0.2673
vn 0.6882 0.6883 0.2294
vn -0.7071 0.7071 -0.0000
vn -0.5511 0.8345 -0.0000
vn -0.3162 0.9487 -0.0000
vn -0.0000 1.0000 -0.0000
vn 0.3162 0.9487 -0.0000
vn 0.5511 0.8345 -0.0000
vn -0.6882 0.6883 -0.2294
vn -0.5345 0.8018 -0.2673
vn -0.2993 0.9060 -0.2993
vn -0.0000 0.9487 -0.3162
vn 0.2994 0.9060 -0.2994
vn 0.5345 0.8018 -0.2673
vn 0.6882 0.6883 -0.2294
vn -0.6396 0.6396 -0.4264
vn -0.4878 0.7239 -0.4878
vn -0.2672 0.8018 -0.5345
vn -0.0000 0.8345 -0.5511
vn 0.2673 0.8018 -0.5345
vn 0.4878 0.7239 -0.4878
vn -0.5773 0.5774 -0.5773
vn -0.4264 0.6396 -0.6396
vn -0.2294 0.6883 -0.6882
vn -0.0000 0.7071 -0.7071
vn 0.2294 0.6883 -0.6882
vn 0.4264 0.6396 -0.6396
vn 0.5773 0.5774 -0.5773
vn 0.5773 0.5773 0.5774
vn 0.4878 0.4878 0.7239
vn 0.2294 0.6882 0.6883
vn 0.2673 0.5345 0.8018
vn -0.0000 0.5511 0.8345
vn -0.2294 0.6882 0.6883
vn -0.2673 0.5345 0.8018
vn -0.4878 0.4878 0.7239
vn -0.5773 0.5773 0.5774
vn -0.6396 0.4264 0.6396
vn 0.6882 0.2294 0.6883
vn 0.5345 0.2673 0.8018
vn 0.2993 0.2993 0.9060
vn -0.0000 0.3162 0.9487
vn -0.2994 0.2994 0.9060
vn -0.5345 0.2673 0.8018
vn -0.6882 0.2294 0.6883
vn 0.5511 -0.0000 0.8345
vn 0.3162 -0.0000 0.9487
vn -0.0000 -0.0000 1.0000
vn -0.3162 -0.0000 0.9487
vn -0.5510 -0.0000 0.8345
vn -0.7071 -0.0000 0.7071
vn 0.6882 -0.2294 0.6883
vn 0.5345 -0.2673 0.8018
vn 0.2994 -0.2994 0.9060
vn -0.0000 -0.3162 0.9487
vn -0.2993 -0.2993 0.9060
vn -0.5345 -0.2673 0.8018
vn -0.6882 -0.2294 0.6883
vn 0.4878 -0.4878 0.7239
vn 0.2673 -0.5345 0.8018
vn -0.0000 -0.5510 0.8345
vn -0.2673 -0.5345 0.8018
vn -0.4878 -0.4878 0.7239
vn -0.6396 -0.4264 0.6396
vn 0.5773 -0.5773 0.5774
vn 0.4264 -0.6396 0.6396
vn 0.2294 -0.6882 0.6883
vn -0.0000 -0.7071 0.7071
vn -0.2294 -0.6882 0.6883
vn -0.4264 -0.6396 0.6396
vn -0.5773 -0.5773 0.5774
vn -0.5774 0.5773 0.5773
vn -0.7239 0.4878 0.4878
vn -0.6883 0.6882 0.2294
vn -0.8018 0.5345 0.2673
vn -0.8345 0.5511 -0.0000
vn -0.6883 0.6882 -0.2294
vn -0.8018 0.5345 -0.2673
vn -0.7239 0.4878 -0.4878
vn -0.5774 0.5774 -0.5773
vn -0.6396 0.4264 -0.6396
vn -0.6883 0.2294 0.6882
vn -0.8018 0.2673 0.5345
vn -0.9060 0.2994 0.2994
vn -0.9487 0.3162 -0.0000
vn -0.9060 0.2993 -0.2993
vn -0.8018 0.2673 -0.5345
vn -0.6883 0.2294 -0.6882
vn -0.8345 -0.0000 0.5511
vn -0.9487 -0.0000 0.3162
vn -1.0000 -0.0000 -0.0000
vn -0.9487 -0.0000 -0.3162
vn -0.8345 -0.0000 -0.5511
vn -0.7071 -0.0000 -0.7071
vn -0.6883 -0.2294 0.6882
vn -0.8018 -0.2673 0.5345
vn -0.9060 -0.2993 0.2993
vn -0.9487 -0.3162 -0.0000
vn -0.9060 -0.2994 -0.2994
vn -0.8018 -0.2673 -0.5345
vn -0.6883 -0.2294 -0.6882
vn -0.7239 -0.4878 0.4878
vn -0.8018 -0.5345 0.2673
vn -0.8345 -0.5511 -0.0000
vn -0.8018 -0.5345 -0.2673
vn -0.7239 -0.4878 -0.4878
vn -0.6396 -0.4264 -0.6396
vn -0.5774 -0.5773 0.5773
vn -0.6396 -0.6396 0.4264
vn -0.6883 -0.6882 0.2294
vn -0.7071 -0.7071 -0.0000
vn -0.6883 -0.6882 -0.2294
vn -0.6396 -0.6396 -0.4264
vn -0.5774 -0.5773 -0.5773
vn -0.5773 -0.5774 -0.5773
vn -0.4264 -0.6396 -0.6396
vn -0.4878 -0.7239 -0.4878
vn -0.2294 -0.6883 -0.6882
vn -0.2673 -0.8018 -0.5345
vn -0.0000 -0.7071 -0.7071
vn -0.0000 -0.8345 -0.5511
vn 0.2294 -0.6883 -0.6882
vn 0.2673 -0.8018 -0.5345
vn 0.4264 -0.6396 -0.6396
vn 0.4878 -0.7239 -0.4878
vn 0.5774 -0.5774 -0.5773
vn -0.6882 -0.6883 -0.2294
vn -0.5345 -0.8018 -0.2673
vn -0.2994 -0.9060 -0.2994
vn -0.0000 -0.9487 -0.3162
vn 0.2994 -0.9060 -0.2994
vn 0.5345 -0.8018 -0.2673
vn 0.6882 -0.6883 -0.2294
vn -0.5511 -0.8345 -0.0000
vn -0.3162 -0.9487 -0.0000
vn -0.0000 -1.0000 -0.0000
vn 0.3162 -0.9487 -0.0000
vn 0.5510 -0.8345 -0.0000
vn -0.6882 -0.6883 0.2294
vn -0.5345 -0.8018 0.2673
vn -0.2993 -0.9060 0.2993
vn -0.0000 -0.9487 0.3162
vn 0.2994 -0.9060 0.2994
vn 0.5345 -0.8018 0.2673
vn 0.6882 -0.6883 0.2294
vn -0.4878 -0.7239 0.4878
vn -0.2673 -0.8018 0.5345
vn -0.0000 -0.8345 0.5511
vn 0.2673 -0.8018 0.5345
vn 0.4878 -0.7239 0.4878
vn -0.5773 -0.5774 0.5773
vn -0.2294 -0.6883 0.6882
vn 0.2294 -0.6883 0.6882
vn 0.5773 -0.5774 0.5773
vn -0.5773 0.5773 -0.5774
vn -0.4878 0.4878 -0.7239
vn -0.2294 0.6882 -0.6883
vn -0.2673 0.5345 -0.8018
vn -0.0000 0.5511 -0.8345
vn 0.2294 0.6882 -0.6883
vn 0.2673 0.5345 -0.8018
vn 0.4878 0.4878 -0.7239
vn 0.5773 0.5773 -0.5774
vn -0.6882 0.2294 -0.6883
vn -0.5345 0.2673 -0.8018
vn -0.2994 0.2994 -0.9060
vn -0.0000 0.3162 -0.9487
vn 0.2993 0.2993 -0.9060
vn 0.5345 0.2673 -0.8018
vn 0.6882 0.2294 -0.6883
vn -0.5511 -0.0000 -0.8345
vn -0.3162 -0.0000 -0.9487
vn -0.0000 -0.0000 -1.0000
vn 0.3162 -0.0000 -0.9487
vn 0.5511 -0.0000 -0.8345
vn -0.6882 -0.2294 -0.6883
vn -0.5345 -0.2673 -0.8018
vn -0.2993 -0.2993 -0.9060
vn -0.0000 -0.3162 -0.9487
vn 0.2993 -0.2993 -0.9060
vn 0.5345 -0.2673 -0.8018
vn 0.6882 -0.2294 -0.6883
vn -0.4878 -0.4878 -0.7239
vn -0.2673 -0.5345 -0.8018
vn -0.0000 -0.5511 -0.8345
vn 0.2673 -0.5345 -0.8018
vn 0.4878 -0.4878 -0.7239
vn -0.5773 -0.5773 -0.5774
vn -0.2294 -0.6882 -0.6883
vn 0.2294 -0.6882 -0.6883
vn 0.5773 -0.5773 -0.5774
vn 0.5774 0.5774 0.5773
vn -0.2994 0.9060 -0.2994
vn 0.2993 0.9060 -0.2993
vn -0.2673 0.8018 -0.5345
vt 2.220760 -0.702637
vt 1.954090 -0.702637
vt 2.220760 -0.969303
vt 1.954090 -0.969303
vt 1.687430 -0.702637
vt 1.687430 -0.969303
vt 1.420760 -0.702637
vt 1.420760 -0.969303
vt 1.154090 -0.702637
vt 1.154090 -0.969303
vt 0.887427 -0.702637
vt 0.887427 -0.969303
vt 0.620760 -0.702637
vt 0.620760 -0.969303
vt 2.220760 -1.235970
vt 1.954090 -1.235970
vt 1.687430 -1.235970
vt 1.420760 -1.235970
vt 1.154090 -1.235970
vt 0.887427 -1.235970
vt 0.620760 -1.235970
vt 2.220760 -1.502640
vt 1.954090 -1.502640
vt 1.687430 -1.502640
vt 1.420760 -1.502640
vt 1.154090 -1.502640
vt 0.887427 -1.502640
vt 0.620760 -1.502640
vt 2.220760 -1.769300
vt 1.954090 -1.769300
vt 1.687430 -1.769300
vt 1.420760 -1.769300
vt 1.154090 -1.769300
vt 0.887427 -1.769300
vt 0.620760 -1.769300
vt 2.220760 -2.035970
vt 1.954090 -2.035970
vt 1.687430 -2.035970
vt 1.420760 -2.035970
vt 1.154090 -2.035970
vt 0.887427 -2.035970
vt 0.620760 -2.035970
vt 2.220760 -2.302640
vt 1.954090 -2.302640
vt 1.687430 -2.302640
vt 1.420760 -2.302640
vt 1.154090 -2.302640
vt 0.887427 -2.302640
vt 0.620760 -2.302640
vt 1.000000 1.000000
vt 0.833333 1.000000
vt 1.000000 0.833333
vt 0.833333 0.833333
vt 0.666667 1.000000
vt 0.666667 0.833333
vt 0.500000 1.000000
vt 0.500000 0.833333
vt 0.333333 1.000000
vt 0.333333 0.833333
vt 0.166667 1.000000
vt 0.166667 0.833333
vt -0.000000 1.000000
vt -0.000000 0.833333
vt 1.000000 0.666667
vt 0.833333 0.666667
vt 0.666667 0.666667
vt 0.500000 0.666667
vt 0.333333 0.666667
vt 0.166667 0.666667
vt -0.000000 0.666667
vt 1.000000 0.500000
vt 0.833333 0.500000
vt 0.666667 0.500000
vt 0.500000 0.500000
vt 0.333333 0.500000
vt 0.166667 0.500000
vt -0.000000 0.500000
vt 1.000000 0.333333
vt 0.833333 0.333333
vt 0.666667 0.333333
vt 0.500000 0.333333
vt 0.333333 0.333333
vt 0.166667 0.333333
vt -0.000000 0.333333
vt 1.000000 0.166667
vt 0.833333 0.166667
vt 0.666667 0.166667
vt 0.500000 0.166667
vt 0.333333 0.166667
vt 0.166667 0.166667
vt -0.000000 0.166667
vt 1.000000 0.000000
vt 0.833333 0.000000
vt 0.666667 0.000000
vt 0.500000 0.000000
vt 0.333333 0.000000
vt 0.166667 0.000000
vt -0.000000 0.000000
s 1
usemtl Bouncyball1Mtl
f 1/1/1 2/2/2 8/3/3
f 8/3/3 2/2/2 9/4/4
f 2/2/2 3/5/5 9/4/4
f 9/4/4 3/5/5 10/6/6
f 3/5/5 4/7/7 10/6/6
f 10/6/6 4/7/7 11/8/8
f 4/7/7 5/9/9 11/8/8
f 11/8/8 5/9/9 12/10/10
f 5/9/9 6/11/11 12/10/10
f 12/10/10 6/11/11 13/12/12
f 6/11/11 7/13/13 13/12/12
f 13/12/12 7/13/13 14/14/14
f 8/3/3 9/4/4 15/15/15
f 15/15/15 9/4/4 16/16/16
f 9/4/4 10/6/6 16/16/16
f 16/16/16 10/6/6 17/17/17
f 10/6/6 11/8/8 17/17/17
f 17/17/17 11/8/8 18/18/18
f 11/8/8 12/10/10 18/18/18
f 18/18/18 12/10/10 19/19/19
f 12/10/10 13/12/12 19/19/19
f 19/19/19 13/12/12 20/20/20
f 13/12/12 14/14/14 20/20/20
f 20/20/20 14/14/14 21/21/21
f 15/15/15 16/16/16 22/22/22
f 22/22/22 16/16/16 23/23/23
f 16/16/16 17/17/17 23/23/23
f 23/23/23 17/17/17 24/24/24
f 17/17/17 18/18/18 24/24/24
f 24/24/24 18/18/18 25/25/25
f 18/18/18 19/19/19 25/25/25
f 25/25/25 19/19/19 26/26/26
f 19/19/19 20/20/20 26/26/26
f 26/26/26 20/20/20 27/27/27
f 20/20/20 21/21/21 27/27/27
f 27/27/27 21/21/21 28/28/28
f 22/22/22 23/23/23 29/29/29
f 29/29/29 23/23/23 30/30/30
f 23/23/23 24/24/24 30/30/30
f 30/30/30 24/24/24 31/31/31
f 24/24/24 25/25/25 31/31/31
f 31/31/31 25/25/25 32/32/32
f 25/25/25 26/26/26 32/32/32
f 32/32/32 26/26/26 33/33/33
f 26/26/26 27/27/27 33/33/33
f 33/33/33 27/27/27 34/34/34
f 27/27/27 28/28/28 34/34/34
f 34/34/34 28/28/28 35/35/35
f 29/29/29 30/30/30 36/36/36
f 36/36/36 30/30/30 37/37/37
f 30/30/30 31/31/31 37/37/37
f 37/37/37 31/31/31 38/38/38
f 31/31/31 32/32/32 38/38/38
f 38/38/38 32/32/32 39/39/39
f 32/32/32 33/33/33 39/39/39
f 39/39/39 33/33/33 40/40/40
f 33/33/33 34/34/34 40/40/40
f 40/40/40 34/34/34 41/41/41
f 34/34/34 35/35/35 41/41/41
f 41/41/41 35/35/35 42/42/42
f 36/36/36 37/37/37 43/43/43
f 43/43/43 37/37/37 44/44/44
f 37/37/37 38/38/38 44/44/44
f 44/44/44 38/38/38 45/45/45
f 38/38/38 39/39/39 45/45/45
f 45/45/45 39/39/39 46/46/46
f 39/39/39 40/40/40 46/46/46
f 46/46/46 40/40/40 47/47/47
f 40/40/40 41/41/41 47/47/47
f 47/47/47 41/41/41 48/48/48
f 41/41/41 42/42/42 48/48/48
f 48/48/48 42/42/42 49/49/49
f 50/1/50 51/2/51 57/3/52
f 57/3/52 51/2/51 58/4/53
f 51/2/51 52/5/54 58/4/53
f 58/4/53 52/5/54 59/6/55
f 52/5/54 53/7/56 59/6/55
f 59/6/55 53/7/56 60/8/57
f 53/7/56 54/9/58 60/8/57
f 60/8/57 54/9/58 61/10/59
f 54/9/58 55/11/60 61/10/59
f 61/10/59 55/11/60 62/12/61
f 55/11/60 56/13/62 62/12/61
f 62/12/61 56/13/62 63/14/11
f 57/3/52 58/4/53 64/15/63
f 64/15/63 58/4/53 65/16/64
f 58/4/53 59/6/55 65/16/64
f 65/16/64 59/6/55 66/17/65
f 59/6/55 60/8/57 66/17/65
f 66/17/65 60/8/57 67/18/66
f 60/8/57 61/10/59 67/18/66
f 67/18/66 61/10/59 68/19/67
f 61/10/59 62/12/61 68/19/67
f 68/19/67 62/12/61 69/20/68
f 62/12/61 63/14/11 69/20/68
f 69/20/68 63/14/11 70/21/69
f 64/15/63 65/16/64 71/22/70
f 71/22/70 65/16/64 72/23/71
f 65/16/64 66/17/65 72/23/71
f 72/23/71 66/17/65 73/24/72
f 66/17/65 67/18/66 73/24/72
f 73/24/72 67/18/66 74/25/73
f 67/18/66 68/19/67 74/25/73
f 74/25/73 68/19/67 75/26/74
f 68/19/67 69/20/68 75/26/74
f 75/26/74 69/20/68 76/27/75
f 69/20/68 70/21/69 76/27/75
f 76/27/75 70/21/69 77/28/7
f 71/22/70 72/23/71 78/29/76
f 78/29/76 72/23/71 79/30/77
f 72/23/71 73/24/72 79/30/77
f 79/30/77 73/24/72 80/31/78
f 73/24/72 74/25/73 80/31/78
f 80/31/78 74/25/73 81/32/79
f 74/25/73 75/26/74 81/32/79
f 81/32/79 75/26/74 82/33/80
f 75/26/74 76/27/75 82/33/80
f 82/33/80 76/27/75 83/34/81
f 76/27/75 77/28/7 83/34/81
f 83/34/81 77/28/7 84/35/82
f 78/29/76 79/30/77 85/36/83
f 85/36/83 79/30/77 86/37/84
f 79/30/77 80/31/78 86/37/84
f 86/37/84 80/31/78 87/38/85
f 80/31/78 81/32/79 87/38/85
f 87/38/85 81/32/79 88/39/86
f 81/32/79 82/33/80 88/39/86
f 88/39/86 82/33/80 89/40/87
f 82/33/80 83/34/81 89/40/87
f 89/40/87 83/34/81 90/41/88
f 83/34/81 84/35/82 90/41/88
f 90/41/88 84/35/82 91/42/2
f 85/36/83 86/37/84 92/43/89
f 92/43/89 86/37/84 93/44/90
f 86/37/84 87/38/85 93/44/90
f 93/44/90 87/38/85 94/45/91
f 87/38/85 88/39/86 94/45/91
f 94/45/91 88/39/86 95/46/92
f 88/39/86 89/40/87 95/46/92
f 95/46/92 89/40/87 96/47/93
f 89/40/87 90/41/88 96/47/93
f 96/47/93 90/41/88 97/48/94
f 90/41/88 91/42/2 97/48/94
f 97/48/94 91/42/2 98/49/95
f 99/1/96 100/2/60 106/3/14
f 106/3/14 100/2/60 107/4/97
f 100/2/60 101/5/98 107/4/97
f 107/4/97 101/5/98 108/6/99
f 101/5/98 102/7/56 108/6/99
f 108/6/99 102/7/56 109/8/100
f 102/7/56 103/9/101 109/8/100
f 109/8/100 103/9/101 110/10/102
f 103/9/101 104/11/51 110/10/102
f 110/10/102 104/11/51 111/12/103
f 104/11/51 105/13/104 111/12/103
f 111/12/103 105/13/104 112/14/105
f 106/3/14 107/4/97 113/15/106
f 113/15/106 107/4/97 114/16/107
f 107/4/97 108/6/99 114/16/107
f 114/16/107 108/6/99 115/17/108
f 108/6/99 109/8/100 115/17/108
f 115/17/108 109/8/100 116/18/109
f 109/8/100 110/10/102 116/18/109
f 116/18/109 110/10/102 117/19/110
f 110/10/102 111/12/103 117/19/110
f 117/19/110 111/12/103 118/20/111
f 111/12/103 112/14/105 118/20/111
f 118/20/111 112/14/105 119/21/112
f 113/15/106 114/16/107 120/22/28
f 120/22/28 114/16/107 121/23/113
f 114/16/107 115/17/108 121/23/113
f 121/23/113 115/17/108 122/24/114
f 115/17/108 116/18/109 122/24/114
f 122/24/114 116/18/109 123/25/115
f 116/18/109 117/19/110 123/25/115
f 123/25/115 117/19/110 124/26/116
f 117/19/110 118/20/111 124/26/116
f 124/26/116 118/20/111 125/27/117
f 118/20/111 119/21/112 125/27/117
f 125/27/117 119/21/112 126/28/118
f 120/22/28 121/23/113 127/29/119
f 127/29/119 121/23/113 128/30/120
f 121/23/113 122/24/114 128/30/120
f 128/30/120 122/24/114 129/31/121
f 122/24/114 123/25/115 129/31/121
f 129/31/121 123/25/115 130/32/122
f 123/25/115 124/26/116 130/32/122
f 130/32/122 124/26/116 131/33/123
f 124/26/116 125/27/117 131/33/123
f 131/33/123 125/27/117 132/34/124
f 125/27/117 126/28/118 132/34/124
f 132/34/124 126/28/118 133/35/125
f 127/29/119 128/30/120 134/36/42
f 134/36/42 128/30/120 135/37/126
f 128/30/120 129/31/121 135/37/126
f 135/37/126 129/31/121 136/38/127
f 129/31/121 130/32/122 136/38/127
f 136/38/127 130/32/122 137/39/128
f 130/32/122 131/33/123 137/39/128
f 137/39/128 131/33/123 138/40/129
f 131/33/123 132/34/124 138/40/129
f 138/40/129 132/34/124 139/41/130
f 132/34/124 133/35/125 139/41/130
f 139/41/130 133/35/125 140/42/131
f 134/36/42 135/37/126 141/43/132
f 141/43/132 135/37/126 142/44/133
f 135/37/126 136/38/127 142/44/133
f 142/44/133 136/38/127 143/45/134
f 136/38/127 137/39/128 143/45/134
f 143/45/134 137/39/128 144/46/135
f 137/39/128 138/40/129 144/46/135
f 144/46/135 138/40/129 145/47/136
f 138/40/129 139/41/130 145/47/136
f 145/47/136 139/41/130 146/48/137
f 139/41/130 140/42/131 146/48/137
f 146/48/137 140/42/131 147/49/138
f 148/1/139 149/2/52 155/3/105
f 155/3/105 149/2/52 156/4/140
f 149/2/52 150/5/141 156/4/140
f 156/4/140 150/5/141 157/6/142
f 150/5/141 151/7/70 157/6/142
f 157/6/142 151/7/70 158/8/143
f 151/7/70 152/9/144 158/8/143
f 158/8/143 152/9/144 159/10/145
f 152/9/144 153/11/83 159/10/145
f 159/10/145 153/11/83 160/12/146
f 153/11/83 154/13/147 160/12/146
f 160/12/146 154/13/147 161/14/148
f 155/3/105 156/4/140 162/15/149
f 162/15/149 156/4/140 163/16/150
f 156/4/140 157/6/142 163/16/150
f 163/16/150 157/6/142 164/17/151
f 157/6/142 158/8/143 164/17/151
f 164/17/151 158/8/143 165/18/152
f 158/8/143 159/10/145 165/18/152
f 165/18/152 159/10/145 166/19/153
f 159/10/145 160/12/146 166/19/153
f 166/19/153 160/12/146 167/20/154
f 160/12/146 161/14/148 167/20/154
f 167/20/154 161/14/148 168/21/155
f 162/15/149 163/16/150 169/22/118
f 169/22/118 163/16/150 170/23/156
f 163/16/150 164/17/151 170/23/156
f 170/23/156 164/17/151 171/24/157
f 164/17/151 165/18/152 171/24/157
f 171/24/157 165/18/152 172/25/158
f 165/18/152 166/19/153 172/25/158
f 172/25/158 166/19/153 173/26/159
f 166/19/153 167/20/154 173/26/159
f 173/26/159 167/20/154 174/27/160
f 167/20/154 168/21/155 174/27/160
f 174/27/160 168/21/155 175/28/161
f 169/22/118 170/23/156 176/29/162
f 176/29/162 170/23/156 177/30/163
f 170/23/156 171/24/157 177/30/163
f 177/30/163 171/24/157 178/31/164
f 171/24/157 172/25/158 178/31/164
f 178/31/164 172/25/158 179/32/165
f 172/25/158 173/26/159 179/32/165
f 179/32/165 173/26/159 180/33/166
f 173/26/159 174/27/160 180/33/166
f 180/33/166 174/27/160 181/34/167
f 174/27/160 175/28/161 181/34/167
f 181/34/167 175/28/161 182/35/168
f 176/29/162 177/30/163 183/36/131
f 183/36/131 177/30/163 184/37/169
f 177/30/163 178/31/164 184/37/169
f 184/37/169 178/31/164 185/38/170
f 178/31/164 179/32/165 185/38/170
f 185/38/170 179/32/165 186/39/171
f 179/32/165 180/33/166 186/39/171
f 186/39/171 180/33/166 187/40/172
f 180/33/166 181/34/167 187/40/172
f 187/40/172 181/34/167 188/41/173
f 181/34/167 182/35/168 188/41/173
f 188/41/173 182/35/168 189/42/174
f 183/36/131 184/37/169 190/43/175
f 190/43/175 184/37/169 191/44/176
f 184/37/169 185/38/170 191/44/176
f 191/44/176 185/38/170 192/45/177
f 185/38/170 186/39/171 192/45/177
f 192/45/177 186/39/171 193/46/178
f 186/39/171 187/40/172 193/46/178
f 193/46/178 187/40/172 194/47/179
f 187/40/172 188/41/173 194/47/179
f 194/47/179 188/41/173 195/48/180
f 188/41/173 189/42/174 195/48/180
f 195/48/180 189/42/174 196/49/181
f 197/1/182 198/2/183 204/3/180
f 204/3/180 198/2/183 205/4/184
f 198/2/183 199/5/185 205/4/184
f 205/4/184 199/5/185 206/6/186
f 199/5/185 200/7/187 206/6/186
f 206/6/186 200/7/187 207/8/188
f 200/7/187 201/9/189 207/8/188
f 207/8/188 201/9/189 208/10/190
f 201/9/189 202/11/191 208/10/190
f 208/10/190 202/11/191 209/12/192
f 202/11/191 203/13/193 209/12/192
f 209/12/192 203/13/193 210/14/44
f 204/3/180 205/4/184 211/15/194
f 211/15/194 205/4/184 212/16/195
f 205/4/184 206/6/186 212/16/195
f 212/16/195 206/6/186 213/17/196
f 206/6/186 207/8/188 213/17/196
f 213/17/196 207/8/188 214/18/197
f 207/8/188 208/10/190 214/18/197
f 214/18/197 208/10/190 215/19/198
f 208/10/190 209/12/192 215/19/198
f 215/19/198 209/12/192 216/20/199
f 209/12/192 210/14/44 216/20/199
f 216/20/199 210/14/44 217/21/200
f 211/15/194 212/16/195 218/22/178
f 218/22/178 212/16/195 219/23/201
f 212/16/195 213/17/196 219/23/201
f 219/23/201 213/17/196 220/24/202
f 213/17/196 214/18/197 220/24/202
f 220/24/202 214/18/197 221/25/203
f 214/18/197 215/19/198 221/25/203
f 221/25/203 215/19/198 222/26/204
f 215/19/198 216/20/199 222/26/204
f 222/26/204 216/20/199 223/27/205
f 216/20/199 217/21/200 223/27/205
f 223/27/205 217/21/200 224/28/46
f 218/22/178 219/23/201 225/29/206
f 225/29/206 219/23/201 226/30/207
f 219/23/201 220/24/202 226/30/207
f 226/30/207 220/24/202 227/31/208
f 220/24/202 221/25/203 227/31/208
f 227/31/208 221/25/203 228/32/209
f 221/25/203 222/26/204 228/32/209
f 228/32/209 222/26/204 229/33/210
f 222/26/204 223/27/205 229/33/210
f 229/33/210 223/27/205 230/34/211
f 223/27/205 224/28/46 230/34/211
f 230/34/211 224/28/46 231/35/212
f 225/29/206 226/30/207 232/36/176
f 232/36/176 226/30/207 233/37/213
f 226/30/207 227/31/208 233/37/213
f 233/37/213 227/31/208 234/38/214
f 227/31/208 228/32/209 234/38/214
f 234/38/214 228/32/209 235/39/215
f 228/32/209 229/33/210 235/39/215
f 235/39/215 229/33/210 236/40/216
f 229/33/210 230/34/211 236/40/216
f 236/40/216 230/34/211 237/41/217
f 230/34/211 231/35/212 237/41/217
f 237/41/217 231/35/212 238/42/48
f 232/36/176 233/37/213 239/43/218
f 239/43/218 233/37/213 240/44/137
f 233/37/213 234/38/214 240/44/137
f 240/44/137 234/38/214 241/45/219
f 234/38/214 235/39/215 241/45/219
f 241/45/219 235/39/215 242/46/135
f 235/39/215 236/40/216 242/46/135
f 242/46/135 236/40/216 243/47/220
f 236/40/216 237/41/217 243/47/220
f 243/47/220 237/41/217 244/48/133
f 237/41/217 238/42/48 244/48/133
f 244/48/133 238/42/48 245/49/221
f 246/1/222 247/2/90 253/3/148
f 253/3/148 247/2/90 254/4/223
f 247/2/90 248/5/224 254/4/223
f 254/4/223 248/5/224 255/6/225
f 248/5/224 249/7/92 255/6/225
f 255/6/225 249/7/92 256/8/226
f 249/7/92 250/9/227 256/8/226
f 256/8/226 250/9/227 257/10/228
f 250/9/227 251/11/94 257/10/228
f 257/10/228 251/11/94 258/12/229
f 251/11/94 252/13/230 258/12/229
f 258/12/229 252/13/230 259/14/3
f 253/3/148 254/4/223 260/15/231
f 260/15/231 254/4/223 261/16/232
f 254/4/223 255/6/225 261/16/232
f 261/16/232 255/6/225 262/17/233
f 255/6/225 256/8/226 262/17/233
f 262/17/233 256/8/226 263/18/234
f 256/8/226 257/10/228 263/18/234
f 263/18/234 257/10/228 264/19/235
f 257/10/228 258/12/229 264/19/235
f 264/19/235 258/12/229 265/20/236
f 258/12/229 259/14/3 265/20/236
f 265/20/236 259/14/3 266/21/237
f 260/15/231 261/16/232 267/22/161
f 267/22/161 261/16/232 268/23/238
f 261/16/232 262/17/233 268/23/238
f 268/23/238 262/17/233 269/24/239
f 262/17/233 263/18/234 269/24/239
f 269/24/239 263/18/234 270/25/240
f 263/18/234 264/19/235 270/25/240
f 270/25/240 264/19/235 271/26/241
f 264/19/235 265/20/236 271/26/241
f 271/26/241 265/20/236 272/27/242
f 265/20/236 266/21/237 272/27/242
f 272/27/242 266/21/237 273/28/22
f 267/22/161 268/23/238 274/29/243
f 274/29/243 268/23/238 275/30/244
f 268/23/238 269/24/239 275/30/244
f 275/30/244 269/24/239 276/31/245
f 269/24/239 270/25/240 276/31/245
f 276/31/245 270/25/240 277/32/246
f 270/25/240 271/26/241 277/32/246
f 277/32/246 271/26/241 278/33/247
f 271/26/241 272/27/242 278/33/247
f 278/33/247 272/27/242 279/34/248
f 272/27/242 273/28/22 279/34/248
f 279/34/248 273/28/22 280/35/249
f 274/29/243 275/30/244 281/36/174
f 281/36/174 275/30/244 282/37/250
f 275/30/244 276/31/245 282/37/250
f 282/37/250 276/31/245 283/38/251
f 276/31/245 277/32/246 283/38/251
f 283/38/251 277/32/246 284/39/252
f 277/32/246 278/33/247 284/39/252
f 284/39/252 278/33/247 285/40/253
f 278/33/247 279/34/248 285/40/253
f 285/40/253 279/34/248 286/41/254
f 279/34/248 280/35/249 286/41/254
f 286/41/254 280/35/249 287/42/36
f 281/36/174 282/37/250 288/43/255
f 288/43/255 282/37/250 289/44/183
f 282/37/250 283/38/251 289/44/183
f 289/44/183 283/38/251 290/45/256
f 283/38/251 284/39/252 290/45/256
f 290/45/256 284/39/252 291/46/187
f 284/39/252 285/40/253 291/46/187
f 291/46/187 285/40/253 292/47/257
f 285/40/253 286/41/254 292/47/257
f 292/47/257 286/41/254 293/48/191
f 286/41/254 287/42/36 293/48/191
f 293/48/191 287/42/36 294/49/258
usemtl Bouncyball2Mtl
f 295/50/50 296/51/51 302/52/52
f 302/52/52 296/51/51 303/53/53
f 296/51/51 297/54/54 303/53/53
f 303/53/53 297/54/54 304/55/55
f 297/54/54 298/56/56 304/55/55
f 304/55/55 298/56/56 305/57/57
f 298/56/56 299/58/58 305/57/57
f 305/57/57 299/58/58 306/59/59
f 299/58/58 300/60/60 306/59/59
f 306/59/59 300/60/60 307/61/61
f 300/60/60 301/62/259 307/61/61
f 307/61/61 301/62/259 308/63/11
f 302/52/52 303/53/53 309/64/63
f 309/64/63 303/53/53 310/65/64
f 303/53/53 304/55/55 310/65/64
f 310/65/64 304/55/55 311/66/65
f 304/55/55 305/57/57 311/66/65
f 311/66/65 305/57/57 312/67/66
f 305/57/57 306/59/59 312/67/66
f 312/67/66 306/59/59 313/68/67
f 306/59/59 307/61/61 313/68/67
f 313/68/67 307/61/61 314/69/68
f 307/61/61 308/63/11 314/69/68
f 314/69/68 308/63/11 315/70/69
f 309/64/63 310/65/64 316/71/70
f 316/71/70 310/65/64 317/72/71
f 310/65/64 311/66/65 317/72/71
f 317/72/71 311/66/65 318/73/72
f 311/66/65 312/67/66 318/73/72
f 318/73/72 312/67/66 319/74/73
f 312/67/66 313/68/67 319/74/73
f 319/74/73 313/68/67 320/75/74
f 313/68/67 314/69/68 320/75/74
f 320/75/74 314/69/68 321/76/75
f 314/69/68 315/70/69 321/76/75
f 321/76/75 315/70/69 322/77/7
f 316/71/70 317/72/71 323/78/76
f 323/78/76 317/72/71 324/79/77
f 317/72/71 318/73/72 324/79/77
f 324/79/77 318/73/72 325/80/260
f 318/73/72 319/74/73 325/80/260
f 325/80/260 319/74/73 326/81/79
f 319/74/73 320/75/74 326/81/79
f 326/81/79 320/75/74 327/82/261
f 320/75/74 321/76/75 327/82/261
f 327/82/261 321/76/75 328/83/81
f 321/76/75 322/77/7 328/83/81
f 328/83/81 322/77/7 329/84/82
f 323/78/76 324/79/77 330/85/83
f 330/85/83 324/79/77 331/86/84
f 324/79/77 325/80/260 331/86/84
f 331/86/84 325/80/260 332/87/262
f 325/80/260 326/81/79 332/87/262
f 332/87/262 326/81/79 333/88/86
f 326/81/79 327/82/261 333/88/86
f 333/88/86 327/82/261 334/89/87
f 327/82/261 328/83/81 334/89/87
f 334/89/87 328/83/81 335/90/88
f 328/83/81 329/84/82 335/90/88
f 335/90/88 329/84/82 336/91/2
f 330/85/83 331/86/84 337/92/89
f 337/92/89 331/86/84 338/93/90
f 331/86/84 332/87/262 338/93/90
f 338/93/90 332/87/262 339/94/91
f 332/87/262 333/88/86 339/94/91
f 339/94/91 333/88/86 340/95/92
f 333/88/86 334/89/87 340/95/92
f 340/95/92 334/89/87 341/96/93
f 334/89/87 335/90/88 341/96/93
f 341/96/93 335/90/88 342/97/94
f 335/90/88 336/91/2 342/97/94
f 342/97/94 336/91/2 343/98/95
