# Blender 5.1.2
# www.blender.org
mtllib BrakeLight.mtl
o BrakeLight
v 0.624016 0.304999 -0.177002
v 0.624016 0.304999 0.176998
v 0.624016 -0.305001 -0.177002
v 0.624016 -0.305001 0.176998
v -0.624014 0.304999 0.176998
v 0.624016 0.304999 0.176998
v -0.624014 0.304999 -0.177002
v 0.624016 0.304999 -0.177002
v 0.624016 0.304999 0.176998
v -0.624014 0.304999 0.176998
v 0.624016 -0.305001 0.176998
v -0.624014 -0.305001 0.176998
v -0.624014 0.304999 0.176998
v -0.624014 0.304999 -0.177002
v -0.624014 -0.305001 0.176998
v -0.624014 -0.305001 -0.177002
v -0.624014 -0.305001 -0.177002
v 0.624016 -0.305001 -0.177002
v -0.624014 -0.305001 0.176998
v 0.624016 -0.305001 0.176998
v -0.624014 0.304999 -0.177002
v 0.624016 0.304999 -0.177002
v -0.624014 -0.305001 -0.177002
v 0.624016 -0.305001 -0.177002
vn 1.0000 -0.0000 -0.0000
vn -0.0000 1.0000 -0.0000
vn -0.0000 -0.0000 1.0000
vn -1.0000 -0.0000 -0.0000
vn -0.0000 -1.0000 -0.0000
vn -0.0000 -0.0000 -1.0000
vt -0.398618 1.513170
vt -0.858818 1.513170
vt -0.398618 0.720174
vt -0.858818 0.720174
vt 0.763582 1.513170
vt 0.763582 1.052970
vt -0.858818 1.052970
vt 0.763582 0.720174
s 1
usemtl Light1Mtl.001
f 1/1/1 2/2/1 3/3/1
f 3/3/1 2/2/1 4/4/1
f 5/5/2 6/2/2 7/6/2
f 7/6/2 6/2/2 8/7/2
f 9/5/3 10/2/3 11/8/3
f 11/8/3 10/2/3 12/4/3
f 13/1/4 14/2/4 15/3/4
f 15/3/4 14/2/4 16/4/4
f 17/5/5 18/2/5 19/6/5
f 19/6/5 18/2/5 20/7/5
f 21/5/6 22/2/6 23/8/6
f 23/8/6 22/2/6 24/4/6
