# Blender 5.1.2
# www.blender.org
mtllib Briefcase.mtl
o Briefcase
v 0.458513 -0.944143 0.935791
v 0.394024 -0.944143 1.000294
v 0.394024 -1.008603 0.935791
v 0.458513 -0.944143 -0.935207
v 0.394024 -1.008603 0.935791
v 0.394024 -1.008603 -0.935207
v 0.458513 -0.944143 0.935791
v 0.458513 0.327087 -0.935207
v 0.394024 -0.944143 -0.999706
v 0.394024 0.327087 -0.999706
v 0.458513 -0.944143 0.935791
v 0.394024 0.327087 1.000294
v 0.394024 -0.944143 1.000294
v 0.458513 0.327087 -0.935207
v 0.394024 0.327087 -0.999706
v 0.394024 0.391547 -0.935207
v 0.458513 0.327087 0.935791
v 0.394024 0.391547 -0.935207
v 0.458513 0.327087 -0.935207
v 0.458513 0.327087 0.935791
v 0.458513 -0.944143 -0.935207
v 0.458513 0.327087 -0.935207
v 0.458513 -0.944143 0.935791
v 0.096303 0.528107 0.209892
v 0.096303 0.391547 0.132591
v 0.096303 0.528107 0.132591
v 0.096303 0.391547 0.209892
v 0.096303 0.606397 0.160892
v 0.096303 0.528107 0.132591
v 0.096303 0.528107 -0.132008
v 0.096303 0.606397 -0.160309
v 0.096303 0.528107 -0.209309
v 0.096303 0.391547 -0.209309
v 0.096303 0.528107 -0.209309
v 0.096303 0.391547 -0.132008
v -0.084566 0.423147 0.619392
v -0.084566 0.391547 0.474194
v -0.084566 0.423147 0.474194
v -0.084566 0.391547 0.619392
v -0.084566 0.423147 -0.473507
v -0.084566 0.391547 -0.618809
v -0.084566 0.423147 -0.618809
v -0.084566 0.391547 -0.473507
v -0.277527 0.391547 -0.935207
v 0.394024 0.391547 -0.935207
v 0.394024 0.327087 -0.999706
v -0.277527 0.327087 -0.999706
v 0.020233 0.606397 -0.160309
v 0.020233 0.606397 0.160892
v 0.096303 0.606397 0.160892
v 0.096303 0.606397 -0.160309
v 0.458513 0.327087 0.935791
v 0.394024 0.391547 -0.935207
v 0.394024 0.391547 0.935791
v -0.084566 0.423147 0.619392
v -0.084566 0.423147 0.474194
v -0.277527 0.423147 0.619392
v -0.277527 0.423147 0.474194
v -0.084566 0.423147 -0.473507
v -0.084566 0.423147 -0.618809
v -0.277527 0.423147 -0.473507
v -0.277527 0.423147 -0.618809
v 0.394024 0.391547 0.935791
v 0.394024 0.391547 -0.935207
v -0.277527 0.391547 0.935791
v -0.277527 0.391547 -0.935207
v 0.394314 -0.898543 0.890194
v -0.277527 -0.898543 -0.889606
v -0.277527 -0.898543 0.890194
v 0.394314 -0.898543 -0.889606
v -0.277527 0.327087 1.000294
v 0.394024 -0.944143 1.000294
v 0.394024 0.327087 1.000294
v -0.277527 -0.944143 1.000294
v 0.458513 -0.944143 0.935791
v 0.458513 0.327087 0.935791
v 0.394024 0.327087 1.000294
v 0.394024 0.327087 1.000294
v 0.458513 0.327087 0.935791
v 0.394024 0.391547 0.935791
v 0.394024 0.391547 0.935791
v -0.277527 0.391547 0.935791
v -0.277527 0.327087 1.000294
v 0.394024 0.327087 1.000294
v -0.277527 0.423147 0.619392
v -0.084566 0.391547 0.619392
v -0.084566 0.423147 0.619392
v -0.277527 0.391547 0.619392
v 0.020233 0.606397 0.160892
v 0.096303 0.528107 0.209892
v 0.096303 0.606397 0.160892
v 0.020233 0.528107 0.209892
v 0.020233 0.528107 0.209892
v 0.096303 0.391547 0.209892
v 0.096303 0.528107 0.209892
v 0.020233 0.391547 0.209892
v 0.020233 0.528107 -0.132008
v 0.096303 0.391547 -0.132008
v 0.096303 0.528107 -0.132008
v 0.020233 0.391547 -0.132008
v -0.277527 0.423147 -0.473507
v -0.084566 0.391547 -0.473507
v -0.084566 0.423147 -0.473507
v -0.277527 0.391547 -0.473507
v 0.394314 -0.898543 -0.889606
v 0.394314 0.281487 -0.889606
v -0.277527 0.281487 -0.889606
v -0.277527 -0.898543 -0.889606
v -0.277527 0.281487 0.890194
v -0.277527 0.327087 1.000294
v -0.277527 0.391547 0.935791
v -0.277527 -0.944143 1.000294
v -0.277527 -0.898543 0.890194
v -0.277527 0.281487 -0.889606
v -0.277527 0.281487 0.890194
v -0.277527 0.391547 -0.935207
v -0.277527 0.327087 -0.999706
v -0.277527 -0.898543 -0.889606
v -0.277527 0.281487 -0.889606
v -0.277527 -0.944143 -0.999706
v -0.277527 -1.008603 -0.935207
v -0.277527 -0.898543 0.890194
v -0.277527 -1.008603 0.935791
v -0.277527 -0.898543 -0.889606
v -0.277527 0.423147 0.474194
v -0.277527 0.391547 0.619392
v -0.277527 0.423147 0.619392
v -0.277527 0.391547 0.474194
v -0.277527 0.423147 -0.618809
v -0.277527 0.391547 -0.473507
v -0.277527 0.423147 -0.473507
v -0.277527 0.391547 -0.618809
v 0.020233 0.528107 0.132591
v 0.020233 0.391547 0.209892
v 0.020233 0.528107 0.209892
v 0.020233 0.391547 0.132591
v 0.020233 0.606397 0.160892
v 0.020233 0.528107 -0.132008
v 0.020233 0.606397 -0.160309
v 0.020233 0.528107 -0.209309
v 0.020233 0.391547 -0.132008
v 0.020233 0.391547 -0.209309
v 0.394314 -0.898543 -0.889606
v 0.394314 0.281487 0.890194
v 0.394314 0.281487 -0.889606
v 0.394314 -0.898543 0.890194
v 0.394024 -0.944143 1.000294
v -0.277527 -0.944143 1.000294
v -0.277527 -1.008603 0.935791
v 0.394024 -1.008603 0.935791
v 0.394024 -1.008603 -0.935207
v 0.394024 -1.008603 0.935791
v -0.277527 -1.008603 -0.935207
v -0.277527 -1.008603 0.935791
v 0.394314 0.281487 -0.889606
v -0.277527 0.281487 0.890194
v -0.277527 0.281487 -0.889606
v 0.394314 0.281487 0.890194
v 0.096303 0.528107 -0.132008
v 0.020233 0.528107 0.132591
v 0.020233 0.528107 -0.132008
v 0.096303 0.528107 0.132591
v -0.277527 -0.944143 -0.999706
v 0.394024 -0.944143 -0.999706
v 0.394024 -1.008603 -0.935207
v -0.277527 -1.008603 -0.935207
v 0.394024 -1.008603 -0.935207
v 0.394024 -0.944143 -0.999706
v 0.458513 -0.944143 -0.935207
v 0.394024 0.327087 -0.999706
v -0.277527 -0.944143 -0.999706
v -0.277527 0.327087 -0.999706
v 0.394024 -0.944143 -0.999706
v 0.458513 0.327087 -0.935207
v 0.394024 -0.944143 -0.999706
v 0.458513 -0.944143 -0.935207
v -0.084566 0.423147 -0.618809
v -0.277527 0.391547 -0.618809
v -0.277527 0.423147 -0.618809
v -0.084566 0.391547 -0.618809
v 0.096303 0.606397 -0.160309
v 0.020233 0.528107 -0.209309
v 0.020233 0.606397 -0.160309
v 0.096303 0.528107 -0.209309
v 0.096303 0.528107 -0.209309
v 0.020233 0.391547 -0.209309
v 0.020233 0.528107 -0.209309
v 0.096303 0.391547 -0.209309
v 0.096303 0.528107 0.132591
v 0.020233 0.391547 0.132591
v 0.020233 0.528107 0.132591
v 0.096303 0.391547 0.132591
v -0.084566 0.423147 0.474194
v -0.277527 0.391547 0.474194
v -0.277527 0.423147 0.474194
v -0.084566 0.391547 0.474194
v 0.394314 0.281487 0.890194
v -0.277527 -0.898543 0.890194
v -0.277527 0.281487 0.890194
v 0.394314 -0.898543 0.890194
v -0.277026 0.327447 -0.999706
v -0.277026 -1.008103 -0.935207
v -0.277026 -0.943653 -0.999706
v -0.277026 0.391897 -0.935207
v -0.277026 -1.008103 0.935791
v -0.277026 0.391897 0.935791
v -0.277026 0.327447 1.000294
v -0.277026 -0.943653 1.000294
v -0.277026 0.327447 1.000294
v -0.277026 0.391897 0.935791
v -0.341427 0.327447 0.935791
v -0.341427 0.327447 -0.935207
v -0.277026 0.391897 -0.935207
v -0.277026 0.327447 -0.999706
v -0.277026 -1.008103 0.935791
v -0.277026 -0.943653 1.000294
v -0.341427 -0.943653 0.935791
v -0.341427 -0.943653 -0.935207
v -0.277026 -0.943653 -0.999706
v -0.277026 -1.008103 -0.935207
v -0.277026 -0.943653 1.000294
v -0.341427 0.327447 0.935791
v -0.341427 -0.943653 0.935791
v -0.277026 0.327447 1.000294
v -0.341427 -0.943653 -0.935207
v -0.341427 0.327447 -0.935207
v -0.277026 0.327447 -0.999706
v -0.277026 -0.943653 -0.999706
v -0.341427 0.327447 -0.935207
v -0.277026 0.391897 0.935791
v -0.277026 0.391897 -0.935207
v -0.341427 0.327447 0.935791
v -0.341427 -0.943653 0.935791
v -0.341427 -0.943653 -0.935207
v -0.277026 -1.008103 -0.935207
v -0.277026 -1.008103 0.935791
v -0.341427 0.327447 -0.935207
v -0.341427 -0.943653 -0.935207
v -0.341427 -0.943653 0.935791
v -0.341427 0.327447 0.935791
vn 0.5773 -0.5773 0.5774
vn 0.7069 -0.7073 -0.0000
vn 0.7072 -0.0000 -0.7071
vn 0.7072 -0.0000 0.7071
vn 0.5773 0.5776 -0.5772
vn 0.7069 0.7073 -0.0000
vn 1.0000 -0.0000 -0.0000
vn -0.0000 0.7073 -0.7069
vn -0.0000 0.7071 -0.7071
vn -0.0000 1.0000 -0.0000
vn -0.0000 -0.0000 1.0000
vn 0.7072 -0.0000 0.7070
vn 0.5774 0.5772 0.5775
vn -0.0000 0.7073 0.7069
vn -0.0000 0.7071 0.7071
vn -0.0000 0.5272 0.8498
vn -0.0000 0.5272 0.8497
vn -1.0000 -0.0000 -0.0000
vn -0.0000 -0.7073 0.7069
vn -0.0000 -1.0000 -0.0000
vn -0.0000 -0.7073 -0.7069
vn 0.5773 -0.5776 -0.5772
vn -0.0000 -0.0000 -1.0000
vn -0.0000 0.5272 -0.8498
vn -0.0000 0.5272 -0.8497
vn -0.5774 0.5774 0.5773
vn -0.5774 0.5774 -0.5773
vn -0.5775 -0.5774 0.5772
vn -0.5773 -0.5774 -0.5774
vn -0.7072 -0.0000 0.7070
vn -0.7072 -0.0000 -0.7070
vn -0.7074 0.7068 -0.0000
vn -0.7074 -0.7068 -0.0000
vn -0.7071 -0.7071 -0.0000
vt -1.131490 0.816941
vt -1.195940 0.816941
vt -1.131490 0.752482
vt 0.739609 0.816941
vt 0.739609 0.752483
vt 0.739609 2.088170
vt 0.804061 0.816941
vt 0.804061 2.088170
vt -1.195940 2.088170
vt 0.739609 2.152630
vt -1.131490 2.088170
vt -0.405588 2.289190
vt -0.328215 2.152630
vt -0.328215 2.289190
vt -0.405587 2.152630
vt -0.356493 2.367480
vt -0.063662 2.289190
vt -0.035384 2.367480
vt 0.013710 2.289190
vt 0.013710 2.152630
vt -0.063662 2.152630
vt -0.815028 2.184230
vt -0.669791 2.152630
vt -0.669791 2.184230
vt -0.815028 2.152630
vt 0.277913 2.184230
vt 0.423150 2.152630
vt 0.423150 2.184230
vt 0.277913 2.152630
vt 0.172061 0.624435
vt -0.499447 0.624435
vt -0.499447 0.559983
vt 0.172061 0.559983
vt -0.125658 1.399430
vt -0.125658 1.720540
vt -0.201728 1.720540
vt -0.201728 1.399430
vt -0.563939 2.495530
vt -0.499447 2.495530
vt -0.020857 2.179070
vt -0.020857 2.033830
vt 0.172061 2.179070
vt 0.172061 2.033830
vt -0.020857 1.086130
vt -0.020857 0.940894
vt 0.172061 1.086130
vt 0.172061 0.940894
vt 0.172061 2.495530
vt -0.499737 2.449900
vt 0.172061 0.670064
vt 0.172061 2.449900
vt -0.499737 0.670064
vt -0.563939 2.088170
vt 0.107570 0.816941
vt 0.107570 2.088170
vt -0.563939 0.816941
vt 0.172061 0.816941
vt 0.172061 2.088170
vt 0.107570 2.152630
vt -0.563939 2.152630
vt -0.563938 2.184230
vt -0.371021 2.152630
vt -0.371021 2.184230
vt -0.563938 2.152630
vt -0.266219 2.367480
vt -0.190150 2.289190
vt -0.190150 2.367480
vt -0.266219 2.289190
vt -0.190150 2.152630
vt -0.266219 2.152630
vt -0.371020 2.152630
vt -0.371020 2.184230
vt 0.107859 0.862543
vt 0.107859 2.042570
vt -0.563939 2.042570
vt -0.563939 0.862543
vt 0.693980 2.042570
vt 0.693979 0.862543
vt -1.085860 2.042570
vt -1.131490 2.152630
vt -1.085860 0.862543
vt -1.131490 0.752483
vt 0.739609 0.752482
vt 0.423151 2.184230
vt -0.815027 2.184230
vt -0.669790 2.152630
vt -0.669790 2.184230
vt -0.815027 2.152630
vt -0.063662 2.152630
vt -0.405588 2.152630
vt 0.107570 2.559980
vt -0.563939 2.559980
vt 0.107570 2.495530
vt 0.107570 0.624434
vt -0.563939 0.624434
vt 0.107859 0.670064
vt -0.563939 2.449900
vt -0.563939 0.670064
vt 0.107859 2.449900
vt -0.190150 1.427710
vt -0.266219 1.692260
vt -0.266219 1.427710
vt -0.190150 1.692260
vt -0.499447 0.816941
vt -0.499447 0.752483
vt 0.172061 0.752483
vt -0.499447 2.088170
vt -0.020857 2.184230
vt 0.172061 2.152630
vt 0.172061 2.184230
vt -0.020857 2.152630
vt -0.201728 2.367480
vt -0.125658 2.289190
vt -0.125658 2.367480
vt -0.201728 2.289190
vt -0.125658 2.152630
vt -0.201728 2.152630
vt -0.020857 2.184230
vt -0.020857 2.152630
vt -0.499737 2.042570
vt 0.172061 0.862543
vt 0.172061 2.042570
vt -0.499737 0.862543
vt 2.229590 1.899100
vt 2.165140 0.563548
vt 2.229590 0.628000
vt 2.165140 1.963550
vt 0.294041 0.563548
vt 0.294041 1.963550
vt 0.229589 1.899100
vt 0.229589 0.628000
vt 2.165140 1.899100
vt 0.294041 1.899100
vt 2.165140 0.628000
vt 0.294041 0.628000
s 1
usemtl Box1Mtl
f 1/1/1 2/2/1 3/3/1
f 4/4/2 5/3/2 6/5/2
f 5/3/2 4/4/2 7/1/2
f 8/6/3 9/7/3 10/8/3
f 12/9/4 13/2/4 11/1/4
f 14/6/5 15/8/5 16/10/5
f 18/10/6 17/11/6 19/6/6
f 20/11/7 21/4/7 22/6/7
f 21/4/7 20/11/7 23/1/7
f 24/12/7 25/13/7 26/14/7
f 25/13/7 24/12/7 27/15/7
f 28/16/7 24/12/7 29/14/7
f 29/14/7 30/17/7 28/16/7
f 31/18/7 28/16/7 30/17/7
f 30/17/7 32/19/7 31/18/7
f 30/17/7 33/20/7 34/19/7
f 33/20/7 30/17/7 35/21/7
f 36/22/7 37/23/7 38/24/7
f 37/23/7 36/22/7 39/25/7
f 40/26/7 41/27/7 42/28/7
f 41/27/7 40/26/7 43/29/7
f 44/30/8 45/31/8 46/32/9
f 44/30/8 46/32/9 47/33/8
f 48/34/10 49/35/10 50/36/10
f 50/36/10 51/37/10 48/34/10
f 52/38/6 53/31/6 54/39/6
f 55/40/10 56/41/10 57/42/10
f 57/42/10 56/41/10 58/43/10
f 59/44/10 60/45/10 61/46/10
f 61/46/10 60/45/10 62/47/10
f 63/39/10 64/31/10 65/48/10
f 65/48/10 64/31/10 66/30/10
f 67/49/10 68/50/10 69/51/10
f 68/50/10 67/49/10 70/52/10
f 71/53/11 72/54/11 73/55/11
f 72/54/11 71/53/11 74/56/11
f 75/57/12 76/58/12 77/55/12
f 78/55/13 79/58/13 80/59/13
f 81/59/14 82/60/15 83/53/14
f 81/59/14 83/53/14 84/55/14
f 85/61/11 86/62/11 87/63/11
f 86/62/11 85/61/11 88/64/11
f 89/65/16 90/66/16 91/67/17
f 90/66/16 89/65/16 92/68/16
f 93/68/11 94/69/11 95/66/11
f 94/69/11 93/68/11 96/70/11
f 97/68/11 98/69/11 99/66/11
f 98/69/11 97/68/11 100/70/11
f 101/61/11 102/71/11 103/72/11
f 102/71/11 101/61/11 104/64/11
f 105/73/11 106/74/11 107/75/11
f 107/75/11 108/76/11 105/73/11
f 109/77/18 110/8/18 111/10/18
f 112/7/18 110/8/18 109/77/18
f 112/7/18 109/77/18 113/78/18
f 111/10/18 114/79/18 115/77/18
f 111/10/18 116/80/18 114/79/18
f 114/79/18 116/80/18 117/9/18
f 117/9/18 118/81/18 119/79/18
f 117/9/18 120/2/18 118/81/18
f 118/81/18 120/2/18 121/82/18
f 122/78/18 123/83/18 112/7/18
f 122/78/18 121/82/18 123/83/18
f 122/78/18 124/81/18 121/82/18
f 125/26/18 126/27/18 127/84/18
f 126/27/18 125/26/18 128/29/18
f 129/85/18 130/86/18 131/87/18
f 130/86/18 129/85/18 132/88/18
f 133/17/18 134/20/18 135/19/18
f 134/20/18 133/17/18 136/89/18
f 133/17/18 135/19/18 137/18/18
f 137/18/18 138/14/18 133/17/18
f 137/18/18 139/16/18 138/14/18
f 138/14/18 139/16/18 140/12/18
f 140/12/18 141/13/18 138/14/18
f 141/13/18 140/12/18 142/90/18
f 143/81/18 144/77/18 145/79/18
f 144/77/18 143/81/18 146/78/18
f 147/91/19 148/92/19 149/38/19
f 147/91/19 149/38/19 150/93/19
f 151/94/20 152/93/20 153/95/20
f 153/95/20 152/93/20 154/38/20
f 155/96/20 156/97/20 157/98/20
f 156/97/20 155/96/20 158/99/20
f 159/100/20 160/101/20 161/102/20
f 160/101/20 159/100/20 162/103/20
f 163/57/21 164/104/21 165/105/21
f 163/57/21 165/105/21 166/106/21
f 167/105/22 168/104/22 169/56/22
f 170/107/23 171/57/23 172/58/23
f 171/57/23 170/107/23 173/104/23
f 175/104/3 174/53/3 176/56/3
f 177/108/23 178/109/23 179/110/23
f 178/109/23 177/108/23 180/111/23
f 181/112/24 182/113/24 183/114/24
f 182/113/24 181/112/24 184/115/25
f 185/115/23 186/116/23 187/113/23
f 186/116/23 185/115/23 188/117/23
f 189/115/23 190/116/23 191/113/23
f 190/116/23 189/115/23 192/117/23
f 193/118/23 194/109/23 195/110/23
f 194/109/23 193/118/23 196/119/23
f 197/120/23 198/121/23 199/122/23
f 198/121/23 197/120/23 200/123/23
usemtl Door1Mtl
f 201/124/7 202/125/7 203/126/7
f 204/127/7 202/125/7 201/124/7
f 202/125/7 204/127/7 205/128/7
f 206/129/7 205/128/7 204/127/7
f 205/128/7 206/129/7 207/130/7
f 205/128/7 207/130/7 208/131/7
f 209/124/26 210/127/26 211/132/26
f 212/133/27 213/129/27 214/130/27
f 215/125/28 216/126/28 217/134/28
f 218/135/29 219/131/29 220/128/29
f 221/126/30 222/132/30 223/134/30
f 222/132/30 221/126/30 224/124/30
f 225/135/31 226/133/31 227/130/31
f 227/130/31 228/131/31 225/135/31
f 229/133/32 230/127/32 231/129/32
f 230/127/32 229/133/32 232/132/32
f 233/134/33 234/135/33 235/128/33
f 235/128/33 236/125/34 233/134/33
f 237/133/18 238/135/18 239/134/18
f 237/133/18 239/134/18 240/132/18
