# Blender 5.1.2
# www.blender.org
mtllib Bumper.mtl
o Bumper
v 3.266230 0.267669 -0.293373
v 3.266230 -0.267670 0.257828
v 3.266230 -0.267670 -0.293373
v 3.266230 0.267669 0.257828
v -3.066230 0.267669 -0.093372
v -3.066230 0.267669 0.257828
v -3.066230 -0.267670 -0.093372
v -3.066230 -0.267670 0.257828
v -3.266230 0.267669 0.257828
v -3.066230 0.267669 -0.093372
v -3.266230 0.267669 -0.293373
v -3.066230 0.267669 0.257828
v -0.000000 0.267669 -0.293373
v -0.000000 0.267669 -0.093372
v 3.066230 0.267669 -0.093372
v 3.266230 0.267669 -0.293373
v 3.266230 0.267669 0.257828
v 3.066230 0.267669 0.257828
v -3.266230 0.267669 0.257828
v -3.266230 -0.267670 0.257828
v -3.066230 -0.267670 0.257828
v -3.066230 0.267669 0.257828
v 3.266230 -0.267670 0.257828
v 3.266230 0.267669 0.257828
v 3.066230 -0.267670 0.257828
v 3.066230 0.267669 0.257828
v -0.000000 0.267669 -0.093372
v -3.066230 0.267669 -0.093372
v -0.000000 -0.267670 -0.093372
v -3.066230 -0.267670 -0.093372
v 3.066230 0.267669 -0.093372
v 3.066230 -0.267670 -0.093372
v -3.266230 0.267669 -0.293373
v -3.266230 -0.267670 -0.293373
v -3.266230 -0.267670 0.257828
v -3.266230 0.267669 0.257828
v 3.066230 0.267669 -0.093372
v 3.066230 -0.267670 -0.093372
v 3.066230 0.267669 0.257828
v 3.066230 -0.267670 0.257828
v -0.000000 -0.267670 -0.293373
v -3.066230 -0.267670 -0.093372
v -3.266230 -0.267670 -0.293373
v -3.266230 -0.267670 0.257828
v -3.066230 -0.267670 0.257828
v -0.000000 -0.267670 -0.093372
v 3.066230 -0.267670 -0.093372
v 3.266230 -0.267670 -0.293373
v 3.266230 -0.267670 0.257828
v 3.066230 -0.267670 0.257828
v -0.000000 0.267669 -0.293373
v -3.266230 -0.267670 -0.293373
v -3.266230 0.267669 -0.293373
v -0.000000 -0.267670 -0.293373
v 3.266230 -0.267670 -0.293373
v 3.266230 0.267669 -0.293373
vn 1.0000 -0.0000 -0.0000
vn -0.0000 1.0000 -0.0000
vn -0.0000 -0.0000 1.0000
vn -1.0000 -0.0000 -0.0000
vn -0.0000 -1.0000 -0.0000
vn -0.0000 -0.0000 -1.0000
vt -3.349030 -2.733720
vt -3.459270 -2.840790
vt -3.349030 -2.840790
vt -3.459270 -2.733720
vt -3.389030 -2.733720
vt -3.389030 -2.840790
vt -2.750900 -2.732130
vt -2.790900 -2.802380
vt -2.750900 -2.842380
vt -2.790900 -2.732130
vt -3.404150 -2.842380
vt -3.404150 -2.802380
vt -4.017390 -2.802380
vt -4.057390 -2.842380
vt -4.057390 -2.732130
vt -4.017390 -2.732130
vt -4.057390 -2.733720
vt -4.057390 -2.840790
vt -4.017390 -2.840790
vt -4.017390 -2.733720
vt -2.750900 -2.840790
vt -2.750900 -2.733720
vt -2.790900 -2.840790
vt -2.790900 -2.733720
vt -3.404150 -2.733720
vt -3.404150 -2.840790
vt -3.419270 -2.733720
vt -3.419270 -2.840790
s 1
usemtl Bumper1Mtl
f 1/1/1 2/2/1 3/3/1
f 2/2/1 1/1/1 4/4/1
f 5/5/1 6/4/1 7/6/1
f 7/6/1 6/4/1 8/2/1
f 9/7/2 10/8/2 11/9/2
f 10/8/2 9/7/2 12/10/2
f 13/11/2 11/9/2 10/8/2
f 13/11/2 10/8/2 14/12/2
f 15/13/2 13/11/2 14/12/2
f 13/11/2 15/13/2 16/14/2
f 17/15/2 16/14/2 15/13/2
f 15/13/2 18/16/2 17/15/2
f 19/17/3 20/18/3 21/19/3
f 21/19/3 22/20/3 19/17/3
f 23/21/3 24/22/3 25/23/3
f 25/23/3 24/22/3 26/24/3
f 27/25/3 28/20/3 29/26/3
f 30/19/3 29/26/3 28/20/3
f 29/26/3 31/24/3 27/25/3
f 29/26/3 32/23/3 31/24/3
f 33/4/4 34/2/4 35/3/4
f 33/4/4 35/3/4 36/1/4
f 37/27/4 38/28/4 39/1/4
f 38/28/4 40/3/4 39/1/4
f 41/11/5 42/13/5 43/14/5
f 44/15/5 43/14/5 42/13/5
f 42/13/5 45/16/5 44/15/5
f 42/13/5 41/11/5 46/12/5
f 41/11/5 47/8/5 46/12/5
f 41/11/5 48/9/5 47/8/5
f 49/7/5 47/8/5 48/9/5
f 47/8/5 49/7/5 50/10/5
f 51/25/6 52/21/6 53/22/6
f 52/21/6 51/25/6 54/26/6
f 51/25/6 55/18/6 54/26/6
f 51/25/6 56/17/6 55/18/6
