# Blender 5.1.2
# www.blender.org
mtllib Button.mtl
o Button
v -0.000425 0.133877 -0.379700
v -0.024704 0.124637 -0.343401
v -0.000425 0.124637 -0.341000
v -0.017155 0.133877 -0.381401
v -0.044125 0.041487 -0.245701
v -0.000425 0.041487 -0.241400
v -0.043294 0.060997 -0.250000
v -0.000425 0.060997 -0.245701
v -0.000425 -0.050893 -0.379700
v -0.000425 -0.041653 -0.341000
v -0.024704 -0.041653 -0.343401
v -0.017155 -0.050893 -0.381401
v -0.000425 -0.029223 -0.307001
v -0.031335 -0.029223 -0.310101
v -0.008955 0.139567 -0.422600
v -0.000425 0.139567 -0.421700
v -0.000425 0.141487 -0.465401
v -0.040805 0.079757 -0.262501
v -0.000425 0.079757 -0.258501
v -0.000425 -0.014063 -0.279200
v -0.036765 -0.014063 -0.282801
v -0.036765 0.097047 -0.282801
v -0.000425 0.097047 -0.279200
v -0.031335 0.112197 -0.310101
v -0.000425 0.112197 -0.307001
v -0.000425 0.003217 -0.258501
v -0.040805 0.003217 -0.262501
v -0.000425 -0.058513 -0.465401
v -0.000425 -0.056593 -0.421700
v -0.008955 -0.056593 -0.422600
v -0.000425 0.021977 -0.245701
v -0.043294 0.021977 -0.250000
v -0.048055 0.124637 -0.350500
v -0.061045 0.112197 -0.319099
v -0.079625 0.003217 -0.274200
v -0.084505 0.021977 -0.262501
v -0.086154 0.041487 -0.258501
v -0.017155 -0.056593 -0.425100
v -0.033235 -0.050893 -0.386200
v -0.033235 0.133877 -0.386200
v -0.084505 0.060997 -0.262501
v -0.048055 -0.041653 -0.350500
v -0.061045 -0.029223 -0.319099
v -0.017155 0.139567 -0.425100
v -0.079625 0.079757 -0.274200
v -0.071705 -0.014063 -0.293400
v -0.071705 0.097047 -0.293400
v -0.103905 -0.014063 -0.310600
v -0.115405 0.003217 -0.293400
v -0.024704 -0.056593 -0.429100
v -0.088425 0.112197 -0.333700
v -0.103905 0.097047 -0.310600
v -0.069565 0.124637 -0.362000
v -0.122485 0.021977 -0.282801
v -0.048055 -0.050893 -0.394199
v -0.048055 0.133877 -0.394199
v -0.124875 0.041487 -0.279200
v -0.122485 0.060997 -0.282801
v -0.069565 -0.041653 -0.362000
v -0.024704 0.139567 -0.429100
v -0.115405 0.079757 -0.293400
v -0.088425 -0.029223 -0.333700
v -0.031335 0.139567 -0.434500
v -0.132124 0.097047 -0.333700
v -0.146765 0.079757 -0.319099
v -0.132124 -0.014063 -0.333700
v -0.112425 -0.029223 -0.353401
v -0.146765 0.003217 -0.319099
v -0.112425 0.112197 -0.353401
v -0.155775 0.021977 -0.310101
v -0.031335 -0.056593 -0.434500
v -0.061045 -0.050893 -0.404800
v -0.088425 0.124637 -0.377399
v -0.061045 0.133877 -0.404800
v -0.158824 0.041487 -0.307001
v -0.088425 -0.041653 -0.377399
v -0.155775 0.060997 -0.310101
v -0.132124 -0.029223 -0.377399
v -0.103905 -0.041653 -0.396299
v -0.036765 0.139567 -0.441200
v -0.183105 0.060997 -0.343401
v -0.172504 0.079757 -0.350500
v -0.155294 0.097047 -0.362000
v -0.155294 -0.014063 -0.362000
v -0.132124 0.112197 -0.377399
v -0.172504 0.003217 -0.350500
v -0.183105 0.021977 -0.343401
v -0.036765 -0.056593 -0.441200
v -0.103905 0.124637 -0.396299
v -0.186675 0.041487 -0.341000
v -0.071705 -0.050893 -0.417801
v -0.071705 0.133877 -0.417801
v -0.115405 0.124637 -0.417801
v -0.079625 0.133877 -0.432600
v -0.207375 0.041487 -0.379700
v -0.203404 0.060997 -0.381401
v -0.115405 -0.041653 -0.417801
v -0.079625 -0.050893 -0.432600
v -0.146765 -0.029223 -0.404800
v -0.040805 0.139567 -0.448700
v -0.191625 0.079757 -0.386200
v -0.172504 -0.014063 -0.394199
v -0.172504 0.097047 -0.394199
v -0.146765 0.112197 -0.404800
v -0.191625 0.003217 -0.386200
v -0.040805 -0.056593 -0.448700
v -0.203404 0.021977 -0.381401
v -0.155775 0.112197 -0.434500
v -0.122485 0.124637 -0.441200
v -0.215905 0.021977 -0.422600
v -0.203404 0.003217 -0.425100
v -0.084505 -0.050893 -0.448700
v -0.043294 -0.056593 -0.456900
v -0.084505 0.133877 -0.448700
v -0.220125 0.041487 -0.421700
v -0.215905 0.060997 -0.422600
v -0.122485 -0.041653 -0.441200
v -0.043294 0.139567 -0.456900
v -0.203404 0.079757 -0.425100
v -0.155775 -0.029223 -0.434500
v -0.183105 -0.014063 -0.429100
v -0.183105 0.097047 -0.429100
v -0.186675 0.097047 -0.465401
v -0.158824 0.112197 -0.465401
v -0.220125 0.021977 -0.465401
v -0.207375 0.003217 -0.465401
v -0.044125 -0.056593 -0.465401
v -0.086154 -0.050893 -0.465401
v -0.124875 0.124637 -0.465401
v -0.086154 0.133877 -0.465401
v -0.224425 0.041487 -0.465401
v -0.124875 -0.041653 -0.465401
v -0.044125 0.139567 -0.465401
v -0.220125 0.060997 -0.465401
v -0.207375 0.079757 -0.465401
v -0.158824 -0.029223 -0.465401
v -0.186675 -0.014063 -0.465401
v -0.203404 0.079757 -0.505800
v -0.215905 0.060997 -0.508301
v -0.183105 0.097047 -0.501801
v -0.155775 -0.029223 -0.496300
v -0.183105 -0.014063 -0.501801
v -0.155775 0.112197 -0.496300
v -0.203404 0.003217 -0.505800
v -0.215905 0.021977 -0.508301
v -0.043294 -0.056593 -0.474001
v -0.122485 0.124637 -0.489700
v -0.220125 0.041487 -0.509100
v -0.084505 -0.050893 -0.482201
v -0.122485 -0.041653 -0.489700
v -0.084505 0.133877 -0.482201
v -0.043294 0.139567 -0.474001
v -0.146765 -0.029223 -0.526001
v -0.115405 -0.041653 -0.513100
v -0.079625 0.133877 -0.498199
v -0.040805 0.139567 -0.482201
v -0.191625 0.079757 -0.544600
v -0.203404 0.060997 -0.549500
v -0.172504 -0.014063 -0.536701
v -0.172504 0.097047 -0.536701
v -0.146765 0.112197 -0.526001
v -0.191625 0.003217 -0.544600
v -0.040805 -0.056593 -0.482201
v -0.115405 0.124637 -0.513100
v -0.203404 0.021977 -0.549500
v -0.207375 0.041487 -0.551201
v -0.079625 -0.050893 -0.498199
v -0.071705 0.133877 -0.513100
v -0.103905 0.124637 -0.534599
v -0.183105 0.021977 -0.587500
v -0.186675 0.041487 -0.589901
v -0.183105 0.060997 -0.587500
v -0.071705 -0.050893 -0.513100
v -0.103905 -0.041653 -0.534599
v -0.036765 0.139567 -0.489700
v -0.172504 0.079757 -0.580400
v -0.132124 -0.029223 -0.553400
v -0.155294 -0.014063 -0.568901
v -0.155294 0.097047 -0.568901
v -0.172504 0.003217 -0.580400
v -0.036765 -0.056593 -0.489700
v -0.132124 0.112197 -0.553400
v -0.146765 0.003217 -0.611801
v -0.155775 0.021977 -0.620800
v -0.031335 -0.056593 -0.496300
v -0.061045 -0.050893 -0.526001
v -0.112425 0.112197 -0.577400
v -0.088425 0.124637 -0.553400
v -0.061045 0.133877 -0.526001
v -0.158824 0.041487 -0.623800
v -0.088425 -0.041653 -0.553400
v -0.031335 0.139567 -0.496300
v -0.155775 0.060997 -0.620800
v -0.146765 0.079757 -0.611801
v -0.112425 -0.029223 -0.577400
v -0.132124 0.097047 -0.597099
v -0.132124 -0.014063 -0.597099
v -0.088425 0.112197 -0.597099
v -0.103905 0.097047 -0.620300
v -0.115405 0.003217 -0.637501
v -0.103905 -0.014063 -0.620300
v -0.122485 0.021977 -0.648100
v -0.024704 -0.056593 -0.501801
v -0.069565 0.124637 -0.568901
v -0.124875 0.041487 -0.651701
v -0.048055 -0.050893 -0.536701
v -0.069565 -0.041653 -0.568901
v -0.048055 0.133877 -0.536701
v -0.024704 0.139567 -0.501801
v -0.122485 0.060997 -0.648100
v -0.088425 -0.029223 -0.597099
v -0.115405 0.079757 -0.637501
v -0.071705 -0.014063 -0.637501
v -0.061045 -0.029223 -0.611801
v -0.079625 0.079757 -0.656601
v -0.071705 0.097047 -0.637501
v -0.061045 0.112197 -0.611801
v -0.079625 0.003217 -0.656601
v -0.017155 -0.056593 -0.505800
v -0.048055 0.124637 -0.580400
v -0.084505 0.021977 -0.668400
v -0.086154 0.041487 -0.672400
v -0.033235 -0.050893 -0.544600
v -0.033235 0.133877 -0.544600
v -0.084505 0.060997 -0.668400
v -0.048055 -0.041653 -0.580400
v -0.017155 0.139567 -0.505800
v -0.008955 0.139567 -0.508301
v -0.017155 0.133877 -0.549500
v -0.043294 0.060997 -0.680901
v -0.040805 0.079757 -0.668400
v -0.031335 -0.029223 -0.620800
v -0.024704 -0.041653 -0.587500
v -0.036765 -0.014063 -0.648100
v -0.036765 0.097047 -0.648100
v -0.040805 0.003217 -0.668400
v -0.008955 -0.056593 -0.508301
v -0.031335 0.112197 -0.620800
v -0.024704 0.124637 -0.587500
v -0.043294 0.021977 -0.680901
v -0.017155 -0.050893 -0.549500
v -0.044125 0.041487 -0.685101
v -0.000425 0.124637 -0.589901
v -0.000425 0.133877 -0.551201
v -0.000425 0.041487 -0.689400
v -0.000425 0.021977 -0.685101
v -0.000425 -0.041653 -0.589901
v -0.000425 -0.050893 -0.551201
v -0.000425 0.139567 -0.509100
v -0.000425 0.060997 -0.685101
v -0.000425 0.079757 -0.672400
v -0.000425 -0.029223 -0.623800
v -0.000425 0.097047 -0.651701
v -0.000425 -0.014063 -0.651701
v -0.000425 0.003217 -0.672400
v -0.000425 0.112197 -0.623800
v -0.000425 -0.056593 -0.509100
v 0.008095 -0.056593 -0.508301
v 0.030475 0.112197 -0.620800
v 0.023845 0.124637 -0.587500
v 0.042435 0.021977 -0.680901
v 0.043275 0.041487 -0.685101
v 0.016295 -0.050893 -0.549500
v 0.023845 -0.041653 -0.587500
v 0.016295 0.133877 -0.549500
v 0.008095 0.139567 -0.508301
v 0.042435 0.060997 -0.680901
v 0.030475 -0.029223 -0.620800
v 0.039945 0.079757 -0.668400
v 0.035905 0.097047 -0.648100
v 0.035905 -0.014063 -0.648100
v 0.039945 0.003217 -0.668400
v 0.070845 0.097047 -0.637501
v 0.078765 0.079757 -0.656601
v 0.060185 0.112197 -0.611801
v 0.070845 -0.014063 -0.637501
v 0.078765 0.003217 -0.656601
v 0.016295 -0.056593 -0.505800
v 0.047195 0.124637 -0.580400
v 0.083645 0.021977 -0.668400
v 0.085295 0.041487 -0.672400
v 0.032375 -0.050893 -0.544600
v 0.032375 0.133877 -0.544600
v 0.083645 0.060997 -0.668400
v 0.047195 -0.041653 -0.580400
v 0.060185 -0.029223 -0.611801
v 0.016295 0.139567 -0.505800
v 0.087565 -0.029223 -0.597099
v 0.103045 -0.014063 -0.620300
v 0.023845 0.139567 -0.501801
v 0.103045 0.097047 -0.620300
v 0.114545 0.079757 -0.637501
v 0.114545 0.003217 -0.637501
v 0.023845 -0.056593 -0.501801
v 0.087565 0.112197 -0.597099
v 0.068706 0.124637 -0.568901
v 0.121625 0.021977 -0.648100
v 0.047195 -0.050893 -0.536701
v 0.047195 0.133877 -0.536701
v 0.124015 0.041487 -0.651701
v 0.121625 0.060997 -0.648100
v 0.068706 -0.041653 -0.568901
v 0.030475 0.139567 -0.496300
v 0.060185 0.133877 -0.526001
v 0.154915 0.060997 -0.620800
v 0.157965 0.041487 -0.623800
v 0.145905 0.079757 -0.611801
v 0.087565 -0.041653 -0.553400
v 0.111575 -0.029223 -0.577400
v 0.131265 0.097047 -0.597099
v 0.131265 -0.014063 -0.597099
v 0.145905 0.003217 -0.611801
v 0.111575 0.112197 -0.577400
v 0.154915 0.021977 -0.620800
v 0.030475 -0.056593 -0.496300
v 0.060185 -0.050893 -0.526001
v 0.087565 0.124637 -0.553400
v 0.185815 0.041487 -0.589901
v 0.182245 0.021977 -0.587500
v 0.035905 -0.056593 -0.489700
v 0.070845 -0.050893 -0.513100
v 0.103045 -0.041653 -0.534599
v 0.070845 0.133877 -0.513100
v 0.103045 0.124637 -0.534599
v 0.035905 0.139567 -0.489700
v 0.182245 0.060997 -0.587500
v 0.131265 -0.029223 -0.553400
v 0.171645 0.079757 -0.580400
v 0.154435 0.097047 -0.568901
v 0.154435 -0.014063 -0.568901
v 0.131265 0.112197 -0.553400
v 0.171645 0.003217 -0.580400
v 0.145905 0.112197 -0.526001
v 0.114545 0.124637 -0.513100
v 0.202545 0.021977 -0.549500
v 0.190765 0.003217 -0.544600
v 0.206515 0.041487 -0.551201
v 0.078765 -0.050893 -0.498199
v 0.039945 -0.056593 -0.482201
v 0.078765 0.133877 -0.498199
v 0.202545 0.060997 -0.549500
v 0.114545 -0.041653 -0.513100
v 0.145905 -0.029223 -0.526001
v 0.039945 0.139567 -0.482201
v 0.190765 0.079757 -0.544600
v 0.171645 -0.014063 -0.536701
v 0.171645 0.097047 -0.536701
v 0.202545 0.003217 -0.505800
v 0.182245 -0.014063 -0.501801
v 0.042435 -0.056593 -0.474001
v 0.182245 0.097047 -0.501801
v 0.154915 0.112197 -0.496300
v 0.121625 0.124637 -0.489700
v 0.215045 0.021977 -0.508301
v 0.083645 -0.050893 -0.482201
v 0.083645 0.133877 -0.482201
v 0.219265 0.041487 -0.509100
v 0.215045 0.060997 -0.508301
v 0.121625 -0.041653 -0.489700
v 0.042435 0.139567 -0.474001
v 0.202545 0.079757 -0.505800
v 0.154915 -0.029223 -0.496300
v 0.043275 0.139567 -0.465401
v 0.206515 0.079757 -0.465401
v 0.185815 0.097047 -0.465401
v 0.185815 -0.014063 -0.465401
v 0.157965 -0.029223 -0.465401
v 0.206515 0.003217 -0.465401
v 0.157965 0.112197 -0.465401
v 0.219265 0.021977 -0.465401
v 0.043275 -0.056593 -0.465401
v 0.085295 -0.050893 -0.465401
v 0.124015 0.124637 -0.465401
v 0.085295 0.133877 -0.465401
v 0.223575 0.041487 -0.465401
v 0.124015 -0.041653 -0.465401
v 0.219265 0.060997 -0.465401
v 0.042435 0.139567 -0.456900
v 0.083645 0.133877 -0.448700
v 0.215045 0.060997 -0.422600
v 0.219265 0.041487 -0.421700
v 0.154915 -0.029223 -0.434500
v 0.121625 -0.041653 -0.441200
v 0.202545 0.079757 -0.425100
v 0.182245 0.097047 -0.429100
v 0.182245 -0.014063 -0.429100
v 0.154915 0.112197 -0.434500
v 0.202545 0.003217 -0.425100
v 0.215045 0.021977 -0.422600
v 0.042435 -0.056593 -0.456900
v 0.121625 0.124637 -0.441200
v 0.083645 -0.050893 -0.448700
v 0.078765 -0.050893 -0.432600
v 0.039945 -0.056593 -0.448700
v 0.114545 0.124637 -0.417801
v 0.078765 0.133877 -0.432600
v 0.202545 0.060997 -0.381401
v 0.206515 0.041487 -0.379700
v 0.114545 -0.041653 -0.417801
v 0.145905 -0.029223 -0.404800
v 0.039945 0.139567 -0.448700
v 0.190765 0.079757 -0.386200
v 0.171645 -0.014063 -0.394199
v 0.171645 0.097047 -0.394199
v 0.145905 0.112197 -0.404800
v 0.190765 0.003217 -0.386200
v 0.202545 0.021977 -0.381401
v 0.154435 0.097047 -0.362000
v 0.131265 0.112197 -0.377399
v 0.103045 0.124637 -0.396299
v 0.171645 0.003217 -0.350500
v 0.182245 0.021977 -0.343401
v 0.035905 -0.056593 -0.441200
v 0.070845 -0.050893 -0.417801
v 0.070845 0.133877 -0.417801
v 0.185815 0.041487 -0.341000
v 0.182245 0.060997 -0.343401
v 0.103045 -0.041653 -0.396299
v 0.035905 0.139567 -0.441200
v 0.171645 0.079757 -0.350500
v 0.131265 -0.029223 -0.377399
v 0.154435 -0.014063 -0.362000
v 0.131265 -0.014063 -0.333700
v 0.145905 0.003217 -0.319099
v 0.131265 0.097047 -0.333700
v 0.111575 0.112197 -0.353401
v 0.154915 0.021977 -0.310101
v 0.030475 -0.056593 -0.434500
v 0.060185 -0.050893 -0.404800
v 0.087565 0.124637 -0.377399
v 0.060185 0.133877 -0.404800
v 0.157965 0.041487 -0.307001
v 0.087565 -0.041653 -0.377399
v 0.030475 0.139567 -0.434500
v 0.154915 0.060997 -0.310101
v 0.145905 0.079757 -0.319099
v 0.111575 -0.029223 -0.353401
v 0.023845 0.139567 -0.429100
v 0.121625 0.060997 -0.282801
v 0.114545 0.079757 -0.293400
v 0.103045 0.097047 -0.310600
v 0.103045 -0.014063 -0.310600
v 0.087565 -0.029223 -0.333700
v 0.087565 0.112197 -0.333700
v 0.114545 0.003217 -0.293400
v 0.121625 0.021977 -0.282801
v 0.023845 -0.056593 -0.429100
v 0.068706 0.124637 -0.362000
v 0.124015 0.041487 -0.279200
v 0.047195 -0.050893 -0.394199
v 0.068706 -0.041653 -0.362000
v 0.047195 0.133877 -0.394199
v 0.085295 0.041487 -0.258501
v 0.083645 0.060997 -0.262501
v 0.047195 -0.041653 -0.350500
v 0.032375 -0.050893 -0.386200
v 0.060185 -0.029223 -0.319099
v 0.016295 0.139567 -0.425100
v 0.032375 0.133877 -0.386200
v 0.078765 0.079757 -0.274200
v 0.070845 -0.014063 -0.293400
v 0.070845 0.097047 -0.293400
v 0.060185 0.112197 -0.319099
v 0.078765 0.003217 -0.274200
v 0.016295 -0.056593 -0.425100
v 0.047195 0.124637 -0.350500
v 0.083645 0.021977 -0.262501
v 0.016295 0.133877 -0.381401
v 0.023845 0.124637 -0.343401
v 0.042435 0.021977 -0.250000
v 0.043275 0.041487 -0.245701
v 0.042435 0.060997 -0.250000
v 0.016295 -0.050893 -0.381401
v 0.023845 -0.041653 -0.343401
v 0.008095 0.139567 -0.422600
v 0.039945 0.079757 -0.262501
v 0.030475 -0.029223 -0.310101
v 0.035905 -0.014063 -0.282801
v 0.035905 0.097047 -0.282801
v 0.039945 0.003217 -0.262501
v 0.008095 -0.056593 -0.422600
v 0.030475 0.112197 -0.310101
v 0.299575 -0.008513 -0.705400
v 0.239575 -0.158513 -0.765400
v 0.239575 -0.008513 -0.765400
v 0.299575 -0.158513 -0.705400
v 0.269575 0.041487 -0.675400
v 0.209575 -0.008513 -0.735401
v 0.209575 0.041487 -0.735401
v 0.269575 -0.008513 -0.675400
v 0.299575 -0.008513 -0.225401
v 0.299575 -0.158513 -0.705400
v 0.299575 -0.008513 -0.705400
v 0.299575 -0.158513 -0.225401
v 0.269575 0.041487 -0.255400
v 0.269575 -0.008513 -0.675400
v 0.269575 0.041487 -0.675400
v 0.269575 -0.008513 -0.255400
v -0.210424 0.041487 -0.195400
v 0.209575 0.041487 -0.195400
v 0.209575 0.041487 -0.735401
v 0.269575 0.041487 -0.255400
v 0.269575 0.041487 -0.675400
v -0.270425 0.041487 -0.255400
v -0.210424 0.041487 -0.735401
v -0.270425 0.041487 -0.675400
v -0.240425 -0.008513 -0.165400
v 0.239575 -0.008513 -0.165400
v 0.239575 -0.008513 -0.765400
v 0.299575 -0.008513 -0.225401
v 0.299575 -0.008513 -0.705400
v -0.300425 -0.008513 -0.225401
v -0.240425 -0.008513 -0.765400
v -0.300425 -0.008513 -0.705400
v -0.240425 -0.008513 -0.165400
v -0.300425 -0.008513 -0.225401
v -0.240425 -0.158513 -0.165400
v -0.300425 -0.158513 -0.225401
v 0.299575 -0.008513 -0.225401
v 0.239575 -0.008513 -0.165400
v 0.299575 -0.158513 -0.225401
v 0.239575 -0.158513 -0.165400
v -0.270425 -0.008513 -0.255400
v -0.210424 -0.008513 -0.195400
v -0.270425 0.041487 -0.255400
v -0.210424 0.041487 -0.195400
v 0.209575 -0.008513 -0.195400
v 0.269575 -0.008513 -0.255400
v 0.209575 0.041487 -0.195400
v 0.269575 0.041487 -0.255400
v -0.240425 -0.008513 -0.165400
v 0.239575 -0.158513 -0.165400
v 0.239575 -0.008513 -0.165400
v -0.240425 -0.158513 -0.165400
v -0.210424 0.041487 -0.195400
v 0.209575 -0.008513 -0.195400
v 0.209575 0.041487 -0.195400
v -0.210424 -0.008513 -0.195400
v -0.300425 -0.008513 -0.705400
v -0.240425 -0.008513 -0.765400
v -0.300425 -0.158513 -0.705400
v -0.240425 -0.158513 -0.765400
v -0.210424 -0.008513 -0.735401
v -0.270425 -0.008513 -0.675400
v -0.210424 0.041487 -0.735401
v -0.270425 0.041487 -0.675400
v -0.300425 -0.008513 -0.705400
v -0.300425 -0.158513 -0.225401
v -0.300425 -0.008513 -0.225401
v -0.300425 -0.158513 -0.705400
v -0.270425 0.041487 -0.675400
v -0.270425 -0.008513 -0.255400
v -0.270425 0.041487 -0.255400
v -0.270425 -0.008513 -0.675400
v -0.240425 -0.158513 -0.765400
v 0.239575 -0.158513 -0.765400
v 0.299575 -0.158513 -0.225401
v 0.299575 -0.158513 -0.705400
v 0.239575 -0.158513 -0.165400
v -0.240425 -0.158513 -0.165400
v -0.300425 -0.158513 -0.225401
v -0.300425 -0.158513 -0.705400
v 0.239575 -0.008513 -0.765400
v -0.240425 -0.158513 -0.765400
v -0.240425 -0.008513 -0.765400
v 0.239575 -0.158513 -0.765400
v 0.209575 0.041487 -0.735401
v -0.210424 -0.008513 -0.735401
v -0.210424 0.041487 -0.735401
v 0.209575 -0.008513 -0.735401
v 0.211705 0.016487 0.322399
v 0.211705 -0.133513 0.322399
v 0.259376 0.016487 0.384600
v 0.259376 -0.133513 0.384600
v 0.289345 0.016487 0.456900
v 0.289345 -0.133513 0.456900
v 0.299575 0.016487 0.534599
v 0.299575 -0.133513 0.534599
v 0.289345 0.016487 0.612200
v 0.289345 -0.133513 0.612200
v 0.259376 0.016487 0.684599
v 0.259376 -0.133513 0.684599
v 0.211705 0.016487 0.746700
v 0.211705 -0.133513 0.746700
v -0.204295 0.016487 0.652300
v -0.158735 -0.015163 0.692900
v -0.194314 -0.015163 0.646500
v -0.166884 0.016487 0.701000
v -0.216685 -0.015163 0.592501
v -0.194314 -0.015163 0.646500
v -0.227815 0.016487 0.595499
v -0.204295 0.016487 0.652300
v -0.224315 -0.015163 0.534599
v -0.216685 -0.015163 0.592501
v -0.235835 0.016487 0.534599
v -0.227815 0.016487 0.595499
v -0.216685 -0.015163 0.476601
v -0.224315 -0.015163 0.534599
v -0.235835 0.016487 0.534599
v -0.227815 0.016487 0.473600
v -0.194314 -0.015163 0.422600
v -0.216685 -0.015163 0.476601
v -0.227815 0.016487 0.473600
v -0.204295 0.016487 0.416901
v -0.158735 -0.015163 0.376299
v -0.194314 -0.015163 0.422600
v -0.204295 0.016487 0.416901
v -0.166884 0.016487 0.368099
v -0.150424 0.016487 0.274799
v -0.166884 0.016487 0.368099
v -0.118134 0.016487 0.330700
v -0.212564 0.016487 0.322399
v -0.204295 0.016487 0.416901
v -0.212564 0.016487 0.322399
v -0.260235 0.016487 0.384600
v -0.166884 0.016487 0.368099
v -0.000425 0.016487 0.234600
v -0.061355 0.016487 0.307199
v -0.000425 0.016487 0.299200
v -0.078074 0.016487 0.244801
v -0.061355 0.016487 0.307199
v -0.150424 0.016487 0.274799
v -0.118134 0.016487 0.330700
v -0.078074 0.016487 0.244801
v -0.290205 0.016487 0.456900
v -0.235835 0.016487 0.534599
v -0.227815 0.016487 0.473600
v -0.300425 0.016487 0.534599
v -0.235835 0.016487 0.534599
v -0.300425 0.016487 0.534599
v -0.290205 0.016487 0.612200
v -0.227815 0.016487 0.595499
v -0.260235 0.016487 0.684599
v -0.204295 0.016487 0.652300
v -0.290205 0.016487 0.612200
v -0.227815 0.016487 0.595499
v -0.290205 0.016487 0.456900
v -0.204295 0.016487 0.416901
v -0.260235 0.016487 0.384600
v -0.227815 0.016487 0.473600
v -0.118134 0.016487 0.738400
v -0.212564 0.016487 0.746700
v -0.150424 0.016487 0.794399
v -0.166884 0.016487 0.701000
v -0.061355 0.016487 0.761999
v -0.150424 0.016487 0.794399
v -0.078074 0.016487 0.824299
v -0.118134 0.016487 0.738400
v -0.000425 0.016487 0.770000
v -0.078074 0.016487 0.824299
v -0.000425 0.016487 0.834600
v -0.078074 0.016487 0.824299
v -0.000425 0.016487 0.770000
v -0.061355 0.016487 0.761999
v -0.166884 0.016487 0.701000
v -0.260235 0.016487 0.684599
v -0.212564 0.016487 0.746700
v -0.204295 0.016487 0.652300
v -0.000425 0.016487 0.834600
v 0.060495 0.016487 0.761999
v -0.000425 0.016487 0.770000
v 0.077215 0.016487 0.824299
v 0.077215 0.016487 0.824299
v 0.117275 0.016487 0.738400
v 0.060495 0.016487 0.761999
v 0.149575 0.016487 0.794399
v 0.117275 0.016487 0.738400
v 0.149575 0.016487 0.794399
v 0.166025 0.016487 0.701000
v 0.211705 0.016487 0.746700
v 0.259376 0.016487 0.684599
v 0.203435 0.016487 0.652300
v 0.211705 0.016487 0.746700
v 0.166025 0.016487 0.701000
v 0.226955 0.016487 0.473600
v 0.259376 0.016487 0.384600
v 0.203435 0.016487 0.416901
v 0.289345 0.016487 0.456900
v 0.259376 0.016487 0.684599
v 0.289345 0.016487 0.612200
v 0.203435 0.016487 0.652300
v 0.226955 0.016487 0.595499
v 0.226955 0.016487 0.595499
v 0.299575 0.016487 0.534599
v 0.234975 0.016487 0.534599
v 0.299575 0.016487 0.534599
v 0.226955 0.016487 0.595499
v 0.289345 0.016487 0.612200
v 0.234975 0.016487 0.534599
v 0.289345 0.016487 0.456900
v 0.226955 0.016487 0.473600
v 0.299575 0.016487 0.534599
v 0.149575 0.016487 0.274799
v 0.060495 0.016487 0.307199
v 0.117275 0.016487 0.330700
v 0.077215 0.016487 0.244801
v 0.077215 0.016487 0.244801
v -0.000425 0.016487 0.234600
v 0.060495 0.016487 0.307199
v -0.000425 0.016487 0.299200
v 0.203435 0.016487 0.416901
v 0.211705 0.016487 0.322399
v 0.166025 0.016487 0.368099
v 0.259376 0.016487 0.384600
v 0.166025 0.016487 0.368099
v 0.211705 0.016487 0.322399
v 0.117275 0.016487 0.330700
v 0.149575 0.016487 0.274799
v 0.069835 -0.080933 0.515699
v 0.133225 -0.066383 0.498800
v 0.062565 -0.080933 0.498199
v -0.000425 -0.085943 0.534599
v 0.119405 -0.066383 0.465401
v 0.183526 -0.043723 0.485300
v 0.164505 -0.043723 0.439301
v 0.215826 -0.015163 0.476601
v 0.193465 -0.015163 0.422600
v 0.183526 -0.043723 0.485300
v 0.137935 -0.066383 0.534599
v 0.190015 -0.043723 0.534599
v 0.223455 -0.015163 0.534599
v 0.133225 -0.066383 0.498800
v 0.215826 -0.015163 0.476601
v 0.069835 -0.080933 0.515699
v 0.072315 -0.080933 0.534599
v -0.000425 -0.085943 0.534599
v 0.223455 -0.015163 0.534599
v 0.183526 -0.043723 0.583900
v 0.215826 -0.015163 0.592501
v 0.190015 -0.043723 0.534599
v 0.137935 -0.066383 0.534599
v 0.133225 -0.066383 0.570400
v 0.069835 -0.080933 0.553400
v 0.072315 -0.080933 0.534599
v -0.000425 -0.085943 0.534599
v -0.000425 -0.085943 0.534599
v 0.062565 -0.080933 0.570900
v 0.069835 -0.080933 0.553400
v 0.133225 -0.066383 0.570400
v 0.119405 -0.066383 0.603800
v 0.183526 -0.043723 0.583900
v 0.164505 -0.043723 0.629799
v 0.215826 -0.015163 0.592501
v 0.193465 -0.015163 0.646500
v 0.157886 -0.015163 0.692900
v 0.193465 -0.015163 0.646500
v 0.164505 -0.043723 0.629799
v 0.134235 -0.043723 0.669199
v 0.097415 -0.066383 0.632401
v 0.119405 -0.066383 0.603800
v 0.051005 -0.080933 0.586000
v 0.062565 -0.080933 0.570900
v -0.000425 -0.085943 0.534599
v 0.035945 -0.080933 0.597599
v 0.097415 -0.066383 0.632401
v 0.051005 -0.080933 0.586000
v -0.000425 -0.085943 0.534599
v 0.068755 -0.066383 0.654400
v 0.094795 -0.043723 0.699499
v 0.134235 -0.043723 0.669199
v 0.111516 -0.015163 0.728500
v 0.157886 -0.015163 0.692900
v 0.035385 -0.066383 0.668200
v 0.094795 -0.043723 0.699499
v 0.068755 -0.066383 0.654400
v 0.035945 -0.080933 0.597599
v 0.018395 -0.080933 0.604799
v -0.000425 -0.085943 0.534599
v 0.048865 -0.043723 0.718500
v 0.057515 -0.015163 0.750799
v 0.111516 -0.015163 0.728500
v -0.049725 -0.043723 0.718500
v -0.000425 -0.015163 0.758499
v -0.000425 -0.043723 0.725000
v -0.058375 -0.015163 0.750799
v -0.036245 -0.066383 0.668200
v -0.000425 -0.066383 0.672899
v -0.019255 -0.080933 0.604799
v -0.000425 -0.080933 0.607300
v -0.000425 -0.085943 0.534599
v -0.049725 -0.043723 0.718500
v -0.095654 -0.043723 0.699499
v -0.112375 -0.015163 0.728500
v -0.069614 -0.066383 0.654400
v -0.058375 -0.015163 0.750799
v -0.036245 -0.066383 0.668200
v -0.036805 -0.080933 0.597599
v -0.019255 -0.080933 0.604799
v -0.000425 -0.085943 0.534599
v -0.000425 -0.085943 0.534599
v -0.051865 -0.080933 0.586000
v -0.036805 -0.080933 0.597599
v -0.098275 -0.066383 0.632401
v -0.069614 -0.066383 0.654400
v -0.095654 -0.043723 0.699499
v -0.135095 -0.043723 0.669199
v -0.112375 -0.015163 0.728500
v -0.158735 -0.015163 0.692900
v -0.158735 -0.015163 0.692900
v -0.194314 -0.015163 0.646500
v -0.165365 -0.043723 0.629799
v -0.135095 -0.043723 0.669199
v -0.098275 -0.066383 0.632401
v -0.120265 -0.066383 0.603800
v -0.051865 -0.080933 0.586000
v -0.063425 -0.080933 0.570900
v -0.000425 -0.085943 0.534599
v -0.120265 -0.066383 0.603800
v -0.070694 -0.080933 0.553400
v -0.134085 -0.066383 0.570400
v -0.063425 -0.080933 0.570900
v -0.000425 -0.085943 0.534599
v -0.165365 -0.043723 0.629799
v -0.184385 -0.043723 0.583900
v -0.216685 -0.015163 0.592501
v -0.194314 -0.015163 0.646500
v -0.069614 -0.066383 0.414700
v -0.036805 -0.080933 0.471600
v -0.036245 -0.066383 0.400900
v -0.019255 -0.080933 0.464300
v -0.000425 -0.085943 0.534599
v -0.049725 -0.043723 0.350599
v -0.095654 -0.043723 0.369600
v -0.112375 -0.015163 0.340700
v -0.058375 -0.015163 0.318300
v -0.000425 -0.043723 0.344099
v -0.049725 -0.043723 0.350599
v -0.036245 -0.066383 0.400900
v -0.058375 -0.015163 0.318300
v -0.000425 -0.066383 0.396200
v -0.000425 -0.015163 0.310699
v -0.019255 -0.080933 0.464300
v -0.000425 -0.080933 0.461800
v -0.000425 -0.085943 0.534599
v -0.000425 -0.043723 0.344099
v 0.035385 -0.066383 0.400900
v 0.048865 -0.043723 0.350599
v 0.057515 -0.015163 0.318300
v -0.000425 -0.066383 0.396200
v -0.000425 -0.015163 0.310699
v 0.018395 -0.080933 0.464300
v -0.000425 -0.080933 0.461800
v -0.000425 -0.085943 0.534599
v -0.000425 -0.085943 0.534599
v 0.035945 -0.080933 0.471600
v 0.018395 -0.080933 0.464300
v 0.035385 -0.066383 0.400900
v 0.068755 -0.066383 0.414700
v 0.048865 -0.043723 0.350599
v 0.094795 -0.043723 0.369600
v 0.057515 -0.015163 0.318300
v 0.111516 -0.015163 0.340700
v 0.157886 -0.015163 0.376299
v 0.111516 -0.015163 0.340700
v 0.134235 -0.043723 0.399900
v 0.094795 -0.043723 0.369600
v 0.068755 -0.066383 0.414700
v 0.097415 -0.066383 0.436699
v 0.035945 -0.080933 0.471600
v 0.051005 -0.080933 0.483099
v -0.000425 -0.085943 0.534599
v 0.062565 -0.080933 0.498199
v 0.097415 -0.066383 0.436699
v 0.051005 -0.080933 0.483099
v -0.000425 -0.085943 0.534599
v 0.119405 -0.066383 0.465401
v 0.134235 -0.043723 0.399900
v 0.164505 -0.043723 0.439301
v 0.157886 -0.015163 0.376299
v 0.193465 -0.015163 0.422600
v -0.000425 -0.043723 0.725000
v 0.035385 -0.066383 0.668200
v -0.000425 -0.066383 0.672899
v 0.048865 -0.043723 0.718500
v 0.018395 -0.080933 0.604799
v -0.000425 -0.080933 0.607300
v -0.000425 -0.085943 0.534599
v -0.000425 -0.015163 0.758499
v 0.057515 -0.015163 0.750799
v -0.190875 -0.043723 0.534599
v -0.134085 -0.066383 0.570400
v -0.138794 -0.066383 0.534599
v -0.073174 -0.080933 0.534599
v -0.070694 -0.080933 0.553400
v -0.000425 -0.085943 0.534599
v -0.184385 -0.043723 0.583900
v -0.224315 -0.015163 0.534599
v -0.216685 -0.015163 0.592501
v -0.184385 -0.043723 0.485300
v -0.138794 -0.066383 0.534599
v -0.134085 -0.066383 0.498800
v -0.190875 -0.043723 0.534599
v -0.073174 -0.080933 0.534599
v -0.070694 -0.080933 0.515699
v -0.000425 -0.085943 0.534599
v -0.216685 -0.015163 0.476601
v -0.224315 -0.015163 0.534599
v -0.194314 -0.015163 0.422600
v -0.184385 -0.043723 0.485300
v -0.165365 -0.043723 0.439301
v -0.120265 -0.066383 0.465401
v -0.216685 -0.015163 0.476601
v -0.134085 -0.066383 0.498800
v -0.063425 -0.080933 0.498199
v -0.070694 -0.080933 0.515699
v -0.000425 -0.085943 0.534599
v -0.000425 -0.085943 0.534599
v -0.051865 -0.080933 0.483099
v -0.063425 -0.080933 0.498199
v -0.098275 -0.066383 0.436699
v -0.120265 -0.066383 0.465401
v -0.165365 -0.043723 0.439301
v -0.135095 -0.043723 0.399900
v -0.158735 -0.015163 0.376299
v -0.194314 -0.015163 0.422600
v -0.036805 -0.080933 0.471600
v -0.098275 -0.066383 0.436699
v -0.051865 -0.080933 0.483099
v -0.000425 -0.085943 0.534599
v -0.069614 -0.066383 0.414700
v -0.135095 -0.043723 0.399900
v -0.095654 -0.043723 0.369600
v -0.112375 -0.015163 0.340700
v -0.158735 -0.015163 0.376299
v -0.078074 -0.133513 0.824299
v -0.000425 -0.133513 0.834600
v -0.078074 0.016487 0.824299
v -0.000425 0.016487 0.834600
v -0.150424 0.016487 0.794399
v -0.150424 -0.133513 0.794399
v -0.212564 0.016487 0.746700
v -0.212564 -0.133513 0.746700
v 0.211705 0.016487 0.746700
v 0.211705 -0.133513 0.746700
v 0.149575 0.016487 0.794399
v 0.149575 -0.133513 0.794399
v 0.077215 0.016487 0.824299
v 0.077215 -0.133513 0.824299
v -0.000425 0.016487 0.834600
v -0.000425 -0.133513 0.834600
v -0.112375 -0.015163 0.340700
v -0.058375 -0.015163 0.318300
v -0.061355 0.016487 0.307199
v -0.118134 0.016487 0.330700
v -0.058375 -0.015163 0.318300
v -0.000425 -0.015163 0.310699
v -0.000425 0.016487 0.299200
v -0.061355 0.016487 0.307199
v 0.057515 -0.015163 0.318300
v -0.000425 -0.015163 0.310699
v -0.000425 0.016487 0.299200
v 0.060495 0.016487 0.307199
v 0.057515 -0.015163 0.318300
v 0.111516 -0.015163 0.340700
v 0.060495 0.016487 0.307199
v 0.117275 0.016487 0.330700
v 0.157886 -0.015163 0.376299
v 0.117275 0.016487 0.330700
v 0.111516 -0.015163 0.340700
v 0.166025 0.016487 0.368099
v -0.112375 -0.015163 0.340700
v -0.158735 -0.015163 0.376299
v -0.118134 0.016487 0.330700
v -0.166884 0.016487 0.368099
v -0.212564 0.016487 0.746700
v -0.212564 -0.133513 0.746700
v -0.260235 0.016487 0.684599
v -0.260235 -0.133513 0.684599
v -0.290205 0.016487 0.612200
v -0.290205 -0.133513 0.612200
v -0.300425 0.016487 0.534599
v -0.300425 -0.133513 0.534599
v -0.290205 0.016487 0.456900
v -0.290205 -0.133513 0.456900
v -0.260235 0.016487 0.384600
v -0.260235 -0.133513 0.384600
v -0.212564 0.016487 0.322399
v -0.212564 -0.133513 0.322399
v 0.215826 -0.015163 0.476601
v 0.193465 -0.015163 0.422600
v 0.226955 0.016487 0.473600
v 0.203435 0.016487 0.416901
v 0.223455 -0.015163 0.534599
v 0.215826 -0.015163 0.476601
v 0.234975 0.016487 0.534599
v 0.226955 0.016487 0.473600
v 0.223455 -0.015163 0.534599
v 0.215826 -0.015163 0.592501
v 0.234975 0.016487 0.534599
v 0.226955 0.016487 0.595499
v 0.215826 -0.015163 0.592501
v 0.193465 -0.015163 0.646500
v 0.226955 0.016487 0.595499
v 0.203435 0.016487 0.652300
v 0.203435 0.016487 0.652300
v 0.157886 -0.015163 0.692900
v 0.166025 0.016487 0.701000
v 0.193465 -0.015163 0.646500
v 0.157886 -0.015163 0.376299
v 0.193465 -0.015163 0.422600
v 0.203435 0.016487 0.416901
v 0.166025 0.016487 0.368099
v 0.211705 -0.133513 0.322399
v -0.260235 -0.133513 0.684599
v -0.150424 -0.133513 0.274799
v 0.077215 -0.133513 0.244801
v 0.149575 -0.133513 0.274799
v -0.000425 -0.133513 0.234600
v -0.078074 -0.133513 0.244801
v 0.211705 -0.133513 0.746700
v 0.259376 -0.133513 0.384600
v -0.300425 -0.133513 0.534599
v -0.290205 -0.133513 0.612200
v -0.290205 -0.133513 0.456900
v -0.212564 -0.133513 0.322399
v -0.260235 -0.133513 0.384600
v 0.299575 -0.133513 0.534599
v 0.289345 -0.133513 0.456900
v 0.259376 -0.133513 0.684599
v 0.289345 -0.133513 0.612200
v -0.150424 -0.133513 0.794399
v -0.212564 -0.133513 0.746700
v -0.000425 -0.133513 0.834600
v -0.078074 -0.133513 0.824299
v 0.149575 -0.133513 0.794399
v 0.077215 -0.133513 0.824299
v -0.212564 0.016487 0.322399
v -0.212564 -0.133513 0.322399
v -0.150424 0.016487 0.274799
v -0.150424 -0.133513 0.274799
v -0.078074 0.016487 0.244801
v -0.078074 -0.133513 0.244801
v -0.000425 0.016487 0.234600
v -0.000425 -0.133513 0.234600
v 0.077215 0.016487 0.244801
v 0.077215 -0.133513 0.244801
v 0.149575 0.016487 0.274799
v 0.149575 -0.133513 0.274799
v 0.211705 0.016487 0.322399
v 0.211705 -0.133513 0.322399
v 0.111516 -0.015163 0.728500
v 0.157886 -0.015163 0.692900
v 0.117275 0.016487 0.738400
v 0.166025 0.016487 0.701000
v 0.057515 -0.015163 0.750799
v 0.111516 -0.015163 0.728500
v 0.060495 0.016487 0.761999
v 0.117275 0.016487 0.738400
v -0.000425 -0.015163 0.758499
v -0.058375 -0.015163 0.750799
v -0.000425 0.016487 0.770000
v -0.061355 0.016487 0.761999
v -0.112375 -0.015163 0.728500
v -0.058375 -0.015163 0.750799
v -0.061355 0.016487 0.761999
v -0.118134 0.016487 0.738400
v -0.112375 -0.015163 0.728500
v -0.158735 -0.015163 0.692900
v -0.118134 0.016487 0.738400
v -0.166884 0.016487 0.701000
v -0.000425 -0.015163 0.758499
v 0.057515 -0.015163 0.750799
v -0.000425 0.016487 0.770000
v 0.060495 0.016487 0.761999
vn -0.0000 0.9224 0.3862
vn -0.1102 0.8270 0.5513
vn -0.0000 0.8284 0.5601
vn -0.0788 0.9223 0.3783
vn -0.1961 -0.0000 0.9806
vn -0.0000 -0.0000 1.0000
vn -0.1913 0.1971 0.9615
vn -0.0000 0.1962 0.9806
vn -0.0000 -0.9224 0.3863
vn -0.0000 -0.8284 0.5601
vn -0.1102 -0.8270 0.5513
vn -0.0788 -0.9223 0.3784
vn -0.0000 -0.7032 0.7110
vn -0.1423 -0.7039 0.6959
vn -0.0395 0.9795 0.1975
vn -0.0000 0.9787 0.2052
vn -0.0000 1.0000 -0.0000
vn -0.1805 0.3788 0.9077
vn -0.0000 0.3796 0.9252
vn -0.0000 -0.5511 0.8345
vn -0.1652 -0.5507 0.8182
vn -0.1630 0.5507 0.8186
vn -0.0000 0.5511 0.8345
vn -0.1388 0.7039 0.6966
vn -0.0000 0.7032 0.7110
vn -0.0000 -0.3796 0.9251
vn -0.1815 -0.3788 0.9075
vn -0.0000 -1.0000 -0.0000
vn -0.0000 -0.9787 0.2052
vn -0.0395 -0.9795 0.1975
vn -0.0000 -0.1962 0.9806
vn -0.1892 -0.1971 0.9619
vn -0.2127 0.8273 0.5200
vn -0.2763 0.7029 0.6554
vn -0.3534 -0.3771 0.8561
vn -0.3777 -0.1967 0.9048
vn -0.3863 -0.0000 0.9224
vn -0.0789 -0.9787 0.1894
vn -0.1494 -0.9202 0.3618
vn -0.1499 0.9202 0.3616
vn -0.3756 0.1967 0.9057
vn -0.2127 -0.8273 0.5200
vn -0.2764 -0.7029 0.6554
vn -0.0789 0.9787 0.1894
vn -0.3549 0.3770 0.8555
vn -0.3152 -0.5516 0.7722
vn -0.3186 0.5516 0.7709
vn -0.4646 -0.5513 0.6930
vn -0.5118 -0.3779 0.7715
vn -0.1106 -0.9799 0.1659
vn -0.3955 0.7026 0.5916
vn -0.4646 0.5513 0.6930
vn -0.3080 0.8294 0.4660
vn -0.5421 -0.1964 0.8171
vn -0.2128 -0.9221 0.3231
vn -0.2128 0.9221 0.3231
vn -0.5565 -0.0000 0.8309
vn -0.5421 0.1964 0.8171
vn -0.3081 -0.8294 0.4660
vn -0.1106 0.9799 0.1659
vn -0.5144 0.3779 0.7698
vn -0.3948 -0.7026 0.5920
vn -0.1422 0.9796 0.1422
vn -0.5905 0.5508 0.5899
vn -0.6545 0.3786 0.6545
vn -0.5901 -0.5508 0.5902
vn -0.5042 -0.7012 0.5042
vn -0.6545 -0.3785 0.6545
vn -0.5042 0.7012 0.5042
vn -0.6933 -0.1970 0.6932
vn -0.1422 -0.9796 0.1422
vn -0.2755 -0.9210 0.2755
vn -0.3948 0.8295 0.3951
vn -0.2752 0.9210 0.2757
vn -0.7070 -0.0000 0.7072
vn -0.3950 -0.8295 0.3949
vn -0.6929 0.1970 0.6935
vn -0.5921 -0.7026 0.3947
vn -0.4660 -0.8294 0.3081
vn -0.1659 0.9799 0.1106
vn -0.8171 0.1964 0.5421
vn -0.7698 0.3779 0.5144
vn -0.6938 0.5513 0.4634
vn -0.6930 -0.5513 0.4646
vn -0.5921 0.7026 0.3947
vn -0.7716 -0.3780 0.5117
vn -0.8170 -0.1964 0.5421
vn -0.1659 -0.9799 0.1106
vn -0.4644 0.8294 0.3105
vn -0.8309 -0.0000 0.5564
vn -0.3231 -0.9221 0.2128
vn -0.3217 0.9221 0.2149
vn -0.5199 0.8273 0.2127
vn -0.3616 0.9202 0.1497
vn -0.9224 -0.0000 0.3863
vn -0.9056 0.1967 0.3756
vn -0.5200 -0.8273 0.2127
vn -0.3617 -0.9202 0.1494
vn -0.6554 -0.7029 0.2764
vn -0.1895 0.9787 0.0787
vn -0.8560 0.3770 0.3537
vn -0.7722 -0.5516 0.3152
vn -0.7702 0.5516 0.3201
vn -0.6554 0.7029 0.2764
vn -0.8561 -0.3770 0.3535
vn -0.1894 -0.9787 0.0789
vn -0.9048 -0.1967 0.3777
vn -0.6959 0.7039 0.1424
vn -0.5513 0.8270 0.1102
vn -0.9619 -0.1971 0.1892
vn -0.9075 -0.3788 0.1815
vn -0.3783 -0.9223 0.0788
vn -0.1975 -0.9795 0.0395
vn -0.3783 0.9223 0.0788
vn -0.9806 -0.0000 0.1962
vn -0.9614 0.1971 0.1918
vn -0.5513 -0.8270 0.1103
vn -0.1975 0.9795 0.0393
vn -0.9077 0.3788 0.1806
vn -0.6959 -0.7039 0.1424
vn -0.8182 -0.5507 0.1652
vn -0.8187 0.5507 0.1624
vn -0.8345 0.5511 -0.0000
vn -0.7110 0.7032 -0.0000
vn -0.9806 -0.1962 -0.0000
vn -0.9252 -0.3796 -0.0000
vn -0.2052 -0.9787 -0.0000
vn -0.3863 -0.9224 -0.0000
vn -0.5601 0.8284 -0.0000
vn -0.3862 0.9224 0.0001
vn -1.0000 -0.0000 0.0001
vn -0.5601 -0.8284 -0.0000
vn -0.2052 0.9787 -0.0000
vn -0.9806 0.1962 0.0001
vn -0.9252 0.3796 0.0001
vn -0.7110 -0.7032 -0.0000
vn -0.8345 -0.5511 -0.0000
vn -0.9076 0.3788 -0.1807
vn -0.9619 0.1972 -0.1892
vn -0.8187 0.5507 -0.1624
vn -0.6959 -0.7039 -0.1424
vn -0.8182 -0.5507 -0.1652
vn -0.6966 0.7039 -0.1392
vn -0.9075 -0.3788 -0.1815
vn -0.9619 -0.1972 -0.1892
vn -0.1974 -0.9795 -0.0395
vn -0.5514 0.8270 -0.1094
vn -0.9806 -0.0000 -0.1961
vn -0.3784 -0.9223 -0.0788
vn -0.5513 -0.8270 -0.1103
vn -0.3783 0.9223 -0.0788
vn -0.1975 0.9795 -0.0392
vn -0.6554 -0.7029 -0.2764
vn -0.5199 -0.8273 -0.2127
vn -0.3618 0.9202 -0.1494
vn -0.1896 0.9787 -0.0785
vn -0.8556 0.3770 -0.3546
vn -0.9048 0.1967 -0.3776
vn -0.7723 -0.5516 -0.3152
vn -0.7707 0.5516 -0.3190
vn -0.6571 0.7028 -0.2725
vn -0.8561 -0.3771 -0.3534
vn -0.1894 -0.9787 -0.0789
vn -0.5193 0.8273 -0.2143
vn -0.9048 -0.1967 -0.3776
vn -0.9224 -0.0000 -0.3863
vn -0.3617 -0.9202 -0.1494
vn -0.3217 0.9221 -0.2150
vn -0.4660 0.8294 -0.3080
vn -0.8170 -0.1964 -0.5421
vn -0.8309 -0.0000 -0.5565
vn -0.8171 0.1964 -0.5421
vn -0.3231 -0.9221 -0.2128
vn -0.4660 -0.8294 -0.3080
vn -0.1656 0.9799 -0.1110
vn -0.7698 0.3779 -0.5143
vn -0.5920 -0.7026 -0.3947
vn -0.6930 -0.5513 -0.4646
vn -0.6936 0.5513 -0.4636
vn -0.7715 -0.3780 -0.5117
vn -0.1659 -0.9799 -0.1106
vn -0.5915 0.7026 -0.3955
vn -0.6545 -0.3785 -0.6545
vn -0.6932 -0.1970 -0.6933
vn -0.1422 -0.9796 -0.1422
vn -0.2754 -0.9210 -0.2755
vn -0.5042 0.7012 -0.5041
vn -0.3948 0.8295 -0.3951
vn -0.2753 0.9210 -0.2756
vn -0.7072 -0.0000 -0.7070
vn -0.3950 -0.8295 -0.3950
vn -0.1423 0.9796 -0.1420
vn -0.6934 0.1970 -0.6931
vn -0.6545 0.3785 -0.6545
vn -0.5042 -0.7012 -0.5042
vn -0.5897 0.5509 -0.5905
vn -0.5902 -0.5509 -0.5901
vn -0.3947 0.7026 -0.5921
vn -0.4646 0.5513 -0.6930
vn -0.5117 -0.3780 -0.7715
vn -0.4646 -0.5513 -0.6930
vn -0.5421 -0.1964 -0.8170
vn -0.1106 -0.9799 -0.1659
vn -0.3105 0.8294 -0.4644
vn -0.5565 -0.0000 -0.8308
vn -0.2128 -0.9221 -0.3231
vn -0.3081 -0.8294 -0.4660
vn -0.2150 0.9221 -0.3217
vn -0.1109 0.9799 -0.1657
vn -0.5445 0.1964 -0.8155
vn -0.3947 -0.7026 -0.5921
vn -0.5142 0.3779 -0.7699
vn -0.3152 -0.5517 -0.7722
vn -0.2764 -0.7029 -0.6554
vn -0.3535 0.3770 -0.8561
vn -0.3194 0.5516 -0.7705
vn -0.2727 0.7029 -0.6570
vn -0.3534 -0.3770 -0.8561
vn -0.0789 -0.9787 -0.1894
vn -0.2127 0.8273 -0.5200
vn -0.3777 -0.1967 -0.9048
vn -0.3863 -0.0000 -0.9224
vn -0.1494 -0.9202 -0.3617
vn -0.1494 0.9202 -0.3618
vn -0.3777 0.1967 -0.9048
vn -0.2127 -0.8273 -0.5199
vn -0.0785 0.9787 -0.1896
vn -0.0395 0.9795 -0.1974
vn -0.0788 0.9223 -0.3783
vn -0.1892 0.1972 -0.9619
vn -0.1808 0.3788 -0.9076
vn -0.1423 -0.7039 -0.6959
vn -0.1102 -0.8270 -0.5513
vn -0.1652 -0.5507 -0.8182
vn -0.1630 0.5507 -0.8186
vn -0.1815 -0.3788 -0.9075
vn -0.0395 -0.9795 -0.1974
vn -0.1384 0.7038 -0.6967
vn -0.1102 0.8270 -0.5513
vn -0.1892 -0.1972 -0.9619
vn -0.0788 -0.9223 -0.3783
vn -0.1961 -0.0000 -0.9806
vn -0.0000 0.8284 -0.5601
vn -0.0000 0.9224 -0.3863
vn -0.0000 -0.0000 -1.0000
vn -0.0000 -0.1962 -0.9806
vn -0.0000 -0.8284 -0.5601
vn -0.0000 -0.9224 -0.3862
vn -0.0000 0.9787 -0.2052
vn -0.0000 0.1962 -0.9806
vn -0.0000 0.3796 -0.9252
vn -0.0000 -0.7032 -0.7110
vn -0.0000 0.5511 -0.8345
vn -0.0001 -0.5511 -0.8345
vn -0.0000 -0.3796 -0.9252
vn -0.0000 0.7032 -0.7110
vn -0.0000 -0.9787 -0.2052
vn 0.0395 -0.9795 -0.1974
vn 0.1424 0.7039 -0.6959
vn 0.1098 0.8270 -0.5514
vn 0.1892 -0.1972 -0.9619
vn 0.1961 -0.0000 -0.9806
vn 0.0788 -0.9223 -0.3783
vn 0.1103 -0.8270 -0.5513
vn 0.0788 0.9223 -0.3783
vn 0.0392 0.9795 -0.1975
vn 0.1892 0.1972 -0.9619
vn 0.1424 -0.7039 -0.6959
vn 0.1815 0.3788 -0.9075
vn 0.1652 0.5507 -0.8182
vn 0.1652 -0.5507 -0.8182
vn 0.1815 -0.3788 -0.9075
vn 0.3152 0.5516 -0.7723
vn 0.3535 0.3770 -0.8561
vn 0.2764 0.7029 -0.6554
vn 0.3152 -0.5517 -0.7722
vn 0.3535 -0.3771 -0.8561
vn 0.0789 -0.9787 -0.1894
vn 0.2150 0.8273 -0.5190
vn 0.3777 -0.1968 -0.9048
vn 0.3863 -0.0000 -0.9224
vn 0.1494 -0.9202 -0.3618
vn 0.1498 0.9202 -0.3616
vn 0.3776 0.1968 -0.9048
vn 0.2127 -0.8273 -0.5199
vn 0.2764 -0.7029 -0.6554
vn 0.0785 0.9787 -0.1896
vn 0.3947 -0.7026 -0.5920
vn 0.4646 -0.5513 -0.6930
vn 0.1106 0.9799 -0.1659
vn 0.4646 0.5513 -0.6930
vn 0.5117 0.3780 -0.7715
vn 0.5118 -0.3779 -0.7715
vn 0.1106 -0.9799 -0.1659
vn 0.3947 0.7026 -0.5921
vn 0.3105 0.8294 -0.4644
vn 0.5421 -0.1964 -0.8170
vn 0.2128 -0.9221 -0.3231
vn 0.2149 0.9221 -0.3217
vn 0.5564 -0.0000 -0.8309
vn 0.5421 0.1964 -0.8170
vn 0.3081 -0.8294 -0.4660
vn 0.1423 0.9796 -0.1421
vn 0.2755 0.9210 -0.2755
vn 0.6932 0.1970 -0.6933
vn 0.7072 -0.0000 -0.7070
vn 0.6545 0.3786 -0.6545
vn 0.3950 -0.8295 -0.3949
vn 0.5042 -0.7012 -0.5041
vn 0.5902 0.5509 -0.5901
vn 0.5901 -0.5509 -0.5902
vn 0.6545 -0.3785 -0.6545
vn 0.5041 0.7011 -0.5042
vn 0.6932 -0.1970 -0.6933
vn 0.1422 -0.9796 -0.1422
vn 0.2755 -0.9210 -0.2754
vn 0.3949 0.8295 -0.3950
vn 0.8309 -0.0000 -0.5565
vn 0.8170 -0.1964 -0.5421
vn 0.1659 -0.9799 -0.1106
vn 0.3231 -0.9221 -0.2128
vn 0.4660 -0.8294 -0.3081
vn 0.3217 0.9221 -0.2150
vn 0.4660 0.8294 -0.3081
vn 0.1656 0.9799 -0.1110
vn 0.8171 0.1964 -0.5421
vn 0.5921 -0.7026 -0.3947
vn 0.7698 0.3779 -0.5143
vn 0.6936 0.5513 -0.4636
vn 0.6930 -0.5513 -0.4646
vn 0.5915 0.7026 -0.3955
vn 0.7715 -0.3779 -0.5118
vn 0.6554 0.7029 -0.2764
vn 0.5193 0.8273 -0.2143
vn 0.9048 -0.1967 -0.3776
vn 0.8561 -0.3771 -0.3535
vn 0.9224 -0.0000 -0.3863
vn 0.3617 -0.9202 -0.1494
vn 0.1894 -0.9787 -0.0789
vn 0.3615 0.9202 -0.1500
vn 0.9057 0.1967 -0.3755
vn 0.5200 -0.8273 -0.2127
vn 0.6554 -0.7029 -0.2764
vn 0.1896 0.9787 -0.0785
vn 0.8556 0.3770 -0.3546
vn 0.7722 -0.5516 -0.3152
vn 0.7707 0.5516 -0.3190
vn 0.9075 -0.3788 -0.1815
vn 0.8182 -0.5507 -0.1653
vn 0.1974 -0.9795 -0.0395
vn 0.8182 0.5507 -0.1652
vn 0.6966 0.7039 -0.1392
vn 0.5513 0.8270 -0.1102
vn 0.9619 -0.1971 -0.1892
vn 0.3783 -0.9223 -0.0788
vn 0.3783 0.9223 -0.0788
vn 0.9806 -0.0000 -0.1961
vn 0.9616 0.1972 -0.1910
vn 0.5513 -0.8270 -0.1103
vn 0.1975 0.9795 -0.0395
vn 0.9076 0.3788 -0.1807
vn 0.6959 -0.7039 -0.1423
vn 0.2052 0.9787 -0.0000
vn 0.9252 0.3796 -0.0000
vn 0.8345 0.5511 0.0001
vn 0.8345 -0.5511 -0.0000
vn 0.7110 -0.7032 -0.0000
vn 0.9252 -0.3796 -0.0000
vn 0.7110 0.7032 -0.0000
vn 0.9806 -0.1961 -0.0000
vn 0.2052 -0.9787 -0.0000
vn 0.3863 -0.9224 -0.0000
vn 0.5601 0.8284 -0.0000
vn 0.3863 0.9224 0.0001
vn 1.0000 -0.0000 0.0001
vn 0.5601 -0.8284 -0.0000
vn 0.9806 0.1961 0.0001
vn 0.1975 0.9795 0.0395
vn 0.3784 0.9223 0.0788
vn 0.9619 0.1972 0.1892
vn 0.9806 -0.0000 0.1960
vn 0.6959 -0.7039 0.1423
vn 0.5513 -0.8270 0.1102
vn 0.9075 0.3788 0.1815
vn 0.8182 0.5507 0.1652
vn 0.8182 -0.5507 0.1652
vn 0.6959 0.7039 0.1423
vn 0.9075 -0.3788 0.1815
vn 0.9619 -0.1972 0.1892
vn 0.1974 -0.9795 0.0395
vn 0.5513 0.8270 0.1102
vn 0.3784 -0.9223 0.0788
vn 0.3618 -0.9202 0.1494
vn 0.1894 -0.9787 0.0789
vn 0.5200 0.8273 0.2127
vn 0.3616 0.9202 0.1497
vn 0.9048 0.1967 0.3776
vn 0.9224 -0.0000 0.3863
vn 0.5200 -0.8273 0.2127
vn 0.6554 -0.7029 0.2764
vn 0.1895 0.9787 0.0787
vn 0.8561 0.3770 0.3535
vn 0.7722 -0.5516 0.3152
vn 0.7722 0.5516 0.3152
vn 0.6554 0.7029 0.2764
vn 0.8561 -0.3770 0.3535
vn 0.9048 -0.1967 0.3777
vn 0.6930 0.5513 0.4646
vn 0.5921 0.7026 0.3947
vn 0.4644 0.8294 0.3105
vn 0.7715 -0.3780 0.5117
vn 0.8170 -0.1964 0.5421
vn 0.1660 -0.9799 0.1106
vn 0.3231 -0.9221 0.2128
vn 0.3217 0.9221 0.2149
vn 0.8309 -0.0000 0.5564
vn 0.8170 0.1964 0.5421
vn 0.4660 -0.8294 0.3081
vn 0.1658 0.9799 0.1108
vn 0.7716 0.3779 0.5117
vn 0.5921 -0.7026 0.3947
vn 0.6930 -0.5513 0.4646
vn 0.5902 -0.5509 0.5901
vn 0.6545 -0.3785 0.6545
vn 0.5902 0.5509 0.5901
vn 0.5041 0.7011 0.5042
vn 0.6932 -0.1970 0.6933
vn 0.1422 -0.9796 0.1422
vn 0.2755 -0.9210 0.2755
vn 0.3949 0.8295 0.3950
vn 0.2753 0.9210 0.2757
vn 0.7070 -0.0000 0.7072
vn 0.3950 -0.8295 0.3949
vn 0.1423 0.9796 0.1421
vn 0.6932 0.1970 0.6932
vn 0.6545 0.3786 0.6545
vn 0.5042 -0.7011 0.5042
vn 0.1106 0.9799 0.1659
vn 0.5421 0.1965 0.8170
vn 0.5144 0.3779 0.7698
vn 0.4635 0.5513 0.6938
vn 0.4646 -0.5513 0.6930
vn 0.3947 -0.7026 0.5921
vn 0.3955 0.7026 0.5915
vn 0.5118 -0.3779 0.7715
vn 0.5421 -0.1965 0.8170
vn 0.1106 -0.9799 0.1659
vn 0.3099 0.8294 0.4648
vn 0.5564 -0.0000 0.8309
vn 0.2128 -0.9221 0.3231
vn 0.3080 -0.8294 0.4660
vn 0.2150 0.9221 0.3216
vn 0.3863 -0.0000 0.9224
vn 0.3756 0.1967 0.9057
vn 0.2127 -0.8273 0.5199
vn 0.1494 -0.9202 0.3618
vn 0.2764 -0.7029 0.6554
vn 0.0784 0.9787 0.1897
vn 0.1494 0.9202 0.3618
vn 0.3549 0.3770 0.8555
vn 0.3152 -0.5516 0.7722
vn 0.3186 0.5516 0.7709
vn 0.2721 0.7029 0.6572
vn 0.3534 -0.3771 0.8561
vn 0.0789 -0.9787 0.1894
vn 0.2148 0.8273 0.5191
vn 0.3776 -0.1967 0.9048
vn 0.0788 0.9223 0.3783
vn 0.1103 0.8270 0.5513
vn 0.1892 -0.1971 0.9619
vn 0.1961 -0.0000 0.9806
vn 0.1914 0.1971 0.9615
vn 0.0788 -0.9223 0.3784
vn 0.1102 -0.8270 0.5513
vn 0.0397 0.9795 0.1974
vn 0.1805 0.3788 0.9077
vn 0.1423 -0.7039 0.6959
vn 0.1652 -0.5507 0.8182
vn 0.1630 0.5507 0.8186
vn 0.1815 -0.3788 0.9075
vn 0.0395 -0.9795 0.1975
vn 0.1388 0.7039 0.6966
vn 0.7071 -0.0000 -0.7071
vn 1.0000 -0.0000 -0.0000
vn -0.7071 -0.0000 0.7071
vn 0.7071 -0.0000 0.7071
vn -0.7071 -0.0000 -0.7071
vn -1.0000 -0.0000 -0.0000
vn 0.8643 -0.0000 -0.5029
vn 0.8644 -0.0000 -0.5029
vn 0.9659 -0.0000 -0.2589
vn 0.9658 -0.0000 -0.2593
vn 0.9658 -0.0000 0.2591
vn 0.9658 -0.0000 0.2593
vn 0.8644 -0.0000 0.5029
vn 0.8128 0.3393 -0.4735
vn 0.5928 0.5453 -0.5927
vn 0.7266 0.5449 -0.4186
vn 0.6649 0.3404 -0.6649
vn 0.9082 0.3396 -0.2449
vn 0.8104 0.5429 -0.2203
vn 0.8128 0.3393 -0.4734
vn 0.9405 0.3398 -0.0000
vn 0.8104 0.5428 -0.2203
vn 0.8381 0.5455 -0.0000
vn 0.9082 0.3396 -0.2448
vn 0.8104 0.5429 0.2203
vn 0.9082 0.3396 0.2448
vn 0.7266 0.5449 0.4185
vn 0.9081 0.3396 0.2449
vn 0.8128 0.3393 0.4734
vn 0.5928 0.5453 0.5927
vn 0.8128 0.3393 0.4735
vn 0.7266 0.5449 0.4186
vn 0.6649 0.3404 0.6649
vn -0.1413 0.9892 0.0393
vn -0.3081 0.9481 0.0790
vn -0.1257 0.9896 0.0707
vn -0.2765 0.9479 0.1580
vn -0.5254 0.8391 0.1412
vn -0.4713 0.8405 0.2671
vn -0.8104 0.5429 0.2203
vn -0.7265 0.5449 0.4185
vn -0.5254 0.8391 0.1411
vn -0.3162 0.9487 -0.0000
vn -0.5419 0.8404 -0.0000
vn -0.8381 0.5456 -0.0000
vn -0.1413 0.9892 0.0392
vn -0.1491 0.9888 -0.0000
vn -0.5254 0.8391 -0.1411
vn -0.8104 0.5429 -0.2203
vn -0.3081 0.9481 -0.0790
vn -0.1413 0.9892 -0.0392
vn -0.1257 0.9896 -0.0707
vn -0.1413 0.9892 -0.0393
vn -0.2765 0.9479 -0.1580
vn -0.5254 0.8391 -0.1412
vn -0.4713 0.8405 -0.2671
vn -0.7265 0.5450 -0.4185
vn -0.5927 0.5454 -0.5927
vn -0.7265 0.5450 -0.4186
vn -0.3844 0.8394 -0.3843
vn -0.2287 0.9463 -0.2287
vn -0.1021 0.9895 -0.1021
vn -0.0707 0.9896 -0.1257
vn -0.1580 0.9479 -0.2765
vn -0.2671 0.8405 -0.4713
vn -0.3844 0.8394 -0.3844
vn -0.4185 0.5449 -0.7265
vn -0.0790 0.9481 -0.3081
vn -0.0392 0.9892 -0.1413
vn -0.1412 0.8391 -0.5254
vn -0.2203 0.5429 -0.8104
vn -0.4185 0.5449 -0.7266
vn 0.1411 0.8391 -0.5254
vn -0.0000 0.5456 -0.8381
vn -0.0000 0.8404 -0.5419
vn 0.2203 0.5429 -0.8104
vn 0.0790 0.9481 -0.3081
vn -0.0000 0.9487 -0.3162
vn 0.0392 0.9892 -0.1413
vn -0.0000 0.9888 -0.1491
vn 0.1412 0.8391 -0.5254
vn 0.2671 0.8405 -0.4713
vn 0.4185 0.5450 -0.7265
vn 0.1580 0.9479 -0.2765
vn 0.0707 0.9896 -0.1257
vn 0.1021 0.9895 -0.1021
vn 0.0707 0.9896 -0.1256
vn 0.2287 0.9463 -0.2287
vn 0.3844 0.8394 -0.3844
vn 0.4186 0.5450 -0.7265
vn 0.5927 0.5453 -0.5927
vn 0.4713 0.8405 -0.2671
vn 0.7265 0.5450 -0.4185
vn 0.2765 0.9479 -0.1580
vn 0.1257 0.9896 -0.0707
vn 0.1413 0.9892 -0.0393
vn 0.3081 0.9481 -0.0790
vn 0.5254 0.8391 -0.1412
vn 0.7265 0.5449 -0.4185
vn 0.1580 0.9479 0.2765
vn 0.0707 0.9896 0.1257
vn 0.0790 0.9481 0.3081
vn 0.0393 0.9892 0.1413
vn 0.1412 0.8391 0.5254
vn 0.2671 0.8405 0.4713
vn 0.4185 0.5449 0.7266
vn 0.2203 0.5429 0.8104
vn -0.0000 0.8404 0.5419
vn 0.1411 0.8391 0.5254
vn -0.0000 0.9487 0.3162
vn -0.0000 0.5456 0.8381
vn -0.0000 0.9888 0.1491
vn -0.0790 0.9481 0.3081
vn -0.1411 0.8391 0.5254
vn -0.2203 0.5429 0.8104
vn -0.0392 0.9892 0.1413
vn -0.0707 0.9896 0.1257
vn -0.0393 0.9892 0.1413
vn -0.1580 0.9479 0.2765
vn -0.1412 0.8391 0.5254
vn -0.2671 0.8405 0.4713
vn -0.4185 0.5449 0.7265
vn -0.4186 0.5449 0.7265
vn -0.3844 0.8394 0.3844
vn -0.5927 0.5453 0.5927
vn -0.2287 0.9463 0.2287
vn -0.0707 0.9896 0.1256
vn -0.1021 0.9895 0.1021
vn -0.3844 0.8394 0.3843
vn -0.7265 0.5450 0.4186
vn -0.1411 0.8391 -0.5254
vn -0.0393 0.9892 -0.1413
vn 0.5419 0.8404 -0.0000
vn 0.3162 0.9487 -0.0000
vn 0.1491 0.9888 -0.0000
vn 0.1413 0.9892 -0.0392
vn 0.5254 0.8391 -0.1411
vn 0.8381 0.5456 -0.0000
vn 0.5254 0.8391 0.1411
vn 0.3081 0.9481 0.0790
vn 0.1413 0.9892 0.0393
vn 0.7265 0.5449 0.4185
vn 0.5254 0.8391 0.1412
vn 0.4713 0.8405 0.2671
vn 0.2765 0.9479 0.1580
vn 0.1257 0.9896 0.0707
vn 0.1021 0.9895 0.1021
vn 0.2287 0.9463 0.2287
vn 0.3844 0.8394 0.3844
vn 0.5927 0.5453 0.5927
vn 0.7265 0.5450 0.4186
vn 0.0707 0.9896 0.1256
vn 0.4185 0.5450 0.7265
vn -0.2589 -0.0000 0.9659
vn -0.2593 -0.0000 0.9658
vn -0.5029 -0.0000 0.8644
vn 0.5029 -0.0000 0.8644
vn 0.2592 -0.0000 0.9658
vn 0.2589 -0.0000 0.9659
vn 0.4186 0.5449 0.7266
vn 0.2448 0.3396 0.9082
vn 0.4734 0.3393 0.8128
vn 0.2203 0.5428 0.8104
vn -0.0000 0.5455 0.8381
vn -0.0000 0.3398 0.9405
vn -0.2203 0.5428 0.8104
vn -0.2448 0.3396 0.9082
vn -0.4185 0.5449 0.7266
vn -0.4734 0.3393 0.8128
vn -0.5927 0.5453 0.5928
vn -0.4735 0.3393 0.8128
vn -0.4186 0.5449 0.7266
vn -0.6649 0.3404 0.6649
vn 0.4735 0.3393 0.8128
vn -0.8644 -0.0000 0.5029
vn -0.9659 -0.0000 0.2591
vn -0.9659 -0.0000 -0.2589
vn -0.8644 -0.0000 -0.5029
vn -0.8643 -0.0000 -0.5029
vn -0.7266 0.5449 0.4186
vn -0.9082 0.3396 0.2449
vn -0.8128 0.3393 0.4735
vn -0.8381 0.5455 -0.0000
vn -0.9405 0.3398 -0.0000
vn -0.9082 0.3396 0.2448
vn -0.9082 0.3396 -0.2448
vn -0.7266 0.5449 -0.4186
vn -0.9081 0.3396 -0.2449
vn -0.8128 0.3393 -0.4735
vn -0.5928 0.5453 -0.5927
vn -0.6649 0.3404 -0.6649
vn -0.5928 0.5453 0.5927
vn -0.5029 -0.0000 -0.8643
vn -0.5029 -0.0000 -0.8644
vn -0.2589 -0.0000 -0.9659
vn 0.2592 -0.0000 -0.9658
vn 0.2588 -0.0000 -0.9659
vn 0.5029 -0.0000 -0.8643
vn -0.5927 0.5453 -0.5927
vn -0.4186 0.5449 -0.7266
vn -0.4735 0.3393 -0.8128
vn -0.2448 0.3396 -0.9082
vn -0.2203 0.5428 -0.8104
vn 0.2203 0.5428 -0.8104
vn -0.0000 0.3398 -0.9405
vn -0.0000 0.5455 -0.8381
vn 0.2448 0.3387 -0.9085
vn 0.4186 0.5449 -0.7266
vn 0.2448 0.3396 -0.9082
vn 0.4735 0.3393 -0.8128
vn 0.5927 0.5453 -0.5928
vt 0.000000 0.000000
vt 0.938983 0.736599
vt 1.016980 0.541599
vt 1.016980 0.736599
vt 0.938983 0.541599
vt 0.899983 0.801599
vt 0.977983 0.736599
vt 0.977983 0.801599
vt 0.899983 0.736599
vt 0.314983 0.736599
vt 0.314983 0.541599
vt 0.353983 0.801599
vt 0.353983 0.736599
vt 0.899983 1.022600
vt 0.353983 1.022600
vt 0.353983 0.320599
vt 0.275983 0.944599
vt 0.275983 0.398599
vt 0.977983 0.944599
vt 0.899983 0.320599
vt 0.977983 0.398599
vt 0.938983 1.061600
vt 0.314983 1.061600
vt 0.314983 0.281599
vt 0.236983 0.983599
vt 0.236983 0.359599
vt 1.016980 0.983599
vt 0.938983 0.281599
vt 1.016980 0.359599
vt 0.236983 0.736599
vt 0.236983 0.541599
vt 0.275983 0.736599
vt 0.275983 0.801599
vt 0.596721 1.243630
vt 0.677492 1.048630
vt 0.677492 1.243630
vt 0.596721 1.048630
vt 0.502660 1.243630
vt 0.502660 1.048630
vt 0.401721 1.243630
vt 0.401721 1.048630
vt 0.300781 1.243630
vt 0.300781 1.048630
vt 0.206721 1.243630
vt 0.206721 1.048630
vt 0.125950 1.243630
vt 0.125950 1.048630
vt 0.248707 1.243630
vt 0.195918 1.202480
vt 0.256196 1.202480
vt 0.185327 1.243630
vt 0.322515 1.243630
vt 0.326392 1.202480
vt 0.401721 1.202480
vt 0.477050 1.202480
vt 0.480927 1.243630
vt 0.547246 1.202480
vt 0.554735 1.243630
vt 0.607524 1.202480
vt 0.618115 1.243630
vt 0.596721 0.808377
vt 0.618115 0.929732
vt 0.554735 0.881099
vt 0.677492 0.870355
vt 0.666749 0.993113
vt 0.739471 0.951127
vt 0.401721 0.756127
vt 0.480927 0.850526
vt 0.401721 0.840099
vt 0.502660 0.769416
vt 0.778432 1.045190
vt 0.707749 1.146130
vt 0.697321 1.066920
vt 0.791721 1.146130
vt 0.778432 1.247070
vt 0.697321 1.225330
vt 0.739470 1.341130
vt 0.666749 1.299140
vt 0.554735 1.411150
vt 0.677492 1.421900
vt 0.596721 1.483880
vt 0.618115 1.362520
vt 0.480927 1.441730
vt 0.502660 1.522840
vt 0.401721 1.452150
vt 0.401721 1.536130
vt 0.322515 1.441730
vt 0.300781 1.522840
vt 0.248707 1.411150
vt 0.206720 1.483880
vt 0.185327 1.362520
vt 0.125949 1.421900
vt 0.063971 1.341130
vt 0.136693 1.299140
vt 0.106121 1.066920
vt 0.063971 0.951127
vt 0.136693 0.993113
vt 0.025010 1.045190
vt 0.025010 1.247070
vt 0.106121 1.225330
vt 0.011721 1.146130
vt 0.095693 1.146130
vt 0.206721 0.808377
vt 0.322515 0.850526
vt 0.248707 0.881099
vt 0.300781 0.769416
vt 0.125950 0.870355
vt 0.185327 0.929732
vt 0.310375 1.121650
vt 0.227972 1.099570
vt 0.319823 1.098840
vt 0.401721 1.146130
vt 0.245941 1.056190
vt 0.162575 1.082050
vt 0.187309 1.022340
vt 0.120589 1.070800
vt 0.149664 1.000600
vt 0.221842 1.146130
vt 0.154139 1.146130
vt 0.110671 1.146130
vt 0.307153 1.146130
vt 0.162575 1.210210
vt 0.120589 1.221460
vt 0.227972 1.192680
vt 0.310375 1.170600
vt 0.319823 1.193410
vt 0.245941 1.236070
vt 0.187309 1.269920
vt 0.149664 1.291650
vt 0.195917 1.351930
vt 0.226654 1.321190
vt 0.274527 1.273320
vt 0.334851 1.213000
vt 0.354437 1.228020
vt 0.311781 1.301910
vt 0.277930 1.360540
vt 0.256196 1.398180
vt 0.355165 1.319880
vt 0.377245 1.237470
vt 0.337642 1.385270
vt 0.326392 1.427260
vt 0.465800 1.385270
vt 0.401721 1.437180
vt 0.401721 1.393710
vt 0.477050 1.427260
vt 0.448277 1.319880
vt 0.401721 1.326010
vt 0.426197 1.237470
vt 0.401721 1.240690
vt 0.525512 1.360540
vt 0.547246 1.398180
vt 0.491660 1.301910
vt 0.449005 1.228020
vt 0.468590 1.213000
vt 0.528914 1.273320
vt 0.576787 1.321190
vt 0.607524 1.351930
vt 0.616133 1.269920
vt 0.653777 1.291650
vt 0.557500 1.236070
vt 0.483619 1.193410
vt 0.493066 1.170600
vt 0.575470 1.192680
vt 0.640866 1.210210
vt 0.682853 1.221460
vt 0.491660 0.990347
vt 0.449005 1.064230
vt 0.448277 0.972377
vt 0.426197 1.054780
vt 0.465800 0.906981
vt 0.525512 0.931714
vt 0.547246 0.894070
vt 0.477050 0.864994
vt 0.401721 0.898545
vt 0.401721 0.966248
vt 0.401721 0.855077
vt 0.401721 1.051560
vt 0.355165 0.972377
vt 0.337642 0.906981
vt 0.326392 0.864994
vt 0.377245 1.054780
vt 0.354437 1.064230
vt 0.311781 0.990347
vt 0.277930 0.931714
vt 0.256196 0.894070
vt 0.226654 0.971060
vt 0.195917 0.940323
vt 0.274527 1.018930
vt 0.334851 1.079260
vt 0.649303 1.146130
vt 0.581599 1.146130
vt 0.496289 1.146130
vt 0.692771 1.146130
vt 0.640866 1.082050
vt 0.575470 1.099570
vt 0.493066 1.121650
vt 0.682853 1.070800
vt 0.653777 1.000600
vt 0.616133 1.022340
vt 0.557500 1.056190
vt 0.483619 1.098840
vt 0.468590 1.079260
vt 0.528914 1.018930
vt 0.576787 0.971060
vt 0.607524 0.940323
vt 0.125949 1.243630
vt 0.125949 1.048630
vt 0.502661 1.243630
vt 0.502661 1.048630
vt 0.195917 1.202480
vt 0.480926 1.243630
vt 0.547245 1.202480
vt 0.185326 1.243630
vt 0.063971 1.341130
vt 0.739470 0.951127
vt 0.125949 0.870355
vt 0.063971 0.951127
vt 0.739471 1.341130
vt 0.206721 1.483880
vt 0.502661 1.522840
s 1
usemtl Button1Mtl
f 1/1/1 2/1/2 3/1/3
f 2/1/2 1/1/1 4/1/4
f 5/1/5 6/1/6 7/1/7
f 6/1/6 8/1/8 7/1/7
f 9/1/9 10/1/10 11/1/11
f 9/1/9 11/1/11 12/1/12
f 13/1/13 11/1/11 10/1/10
f 11/1/11 13/1/13 14/1/14
f 15/1/15 1/1/1 16/1/16
f 1/1/1 15/1/15 4/1/4
f 16/1/16 17/1/17 15/1/15
f 7/1/7 8/1/8 18/1/18
f 8/1/8 19/1/19 18/1/18
f 20/1/20 14/1/14 13/1/13
f 14/1/14 20/1/20 21/1/21
f 18/1/18 19/1/19 22/1/22
f 19/1/19 23/1/23 22/1/22
f 22/1/22 23/1/23 24/1/24
f 23/1/23 25/1/25 24/1/24
f 21/1/21 26/1/26 27/1/27
f 26/1/26 21/1/21 20/1/20
f 28/1/28 29/1/29 30/1/30
f 2/1/2 25/1/25 3/1/3
f 25/1/25 2/1/2 24/1/24
f 27/1/27 31/1/31 32/1/32
f 31/1/31 27/1/27 26/1/26
f 32/1/32 6/1/6 5/1/5
f 6/1/6 32/1/32 31/1/31
f 12/1/12 30/1/30 29/1/29
f 29/1/29 9/1/9 12/1/12
f 33/1/33 24/1/24 2/1/2
f 24/1/24 33/1/33 34/1/34
f 35/1/35 32/1/32 36/1/36
f 32/1/32 35/1/35 27/1/27
f 36/1/36 5/1/5 37/1/37
f 5/1/5 36/1/36 32/1/32
f 12/1/12 38/1/38 30/1/30
f 38/1/38 12/1/12 39/1/39
f 4/1/4 33/1/33 2/1/2
f 33/1/33 4/1/4 40/1/40
f 37/1/37 5/1/5 41/1/41
f 5/1/5 7/1/7 41/1/41
f 12/1/12 11/1/11 42/1/42
f 12/1/12 42/1/42 39/1/39
f 14/1/14 42/1/42 11/1/11
f 42/1/42 14/1/14 43/1/43
f 44/1/44 4/1/4 15/1/15
f 4/1/4 44/1/44 40/1/40
f 15/1/15 17/1/17 44/1/44
f 41/1/41 7/1/7 45/1/45
f 7/1/7 18/1/18 45/1/45
f 21/1/21 43/1/43 14/1/14
f 43/1/43 21/1/21 46/1/46
f 45/1/45 18/1/18 47/1/47
f 18/1/18 22/1/22 47/1/47
f 47/1/47 22/1/22 34/1/34
f 22/1/22 24/1/24 34/1/34
f 27/1/27 46/1/46 21/1/21
f 46/1/46 27/1/27 35/1/35
f 28/1/28 30/1/30 38/1/38
f 35/1/35 48/1/48 46/1/46
f 48/1/48 35/1/35 49/1/49
f 28/1/28 38/1/38 50/1/50
f 51/1/51 52/1/52 47/1/47
f 47/1/47 34/1/34 51/1/51
f 53/1/53 34/1/34 33/1/33
f 34/1/34 53/1/53 51/1/51
f 36/1/36 49/1/49 35/1/35
f 49/1/49 36/1/36 54/1/54
f 38/1/38 39/1/39 55/1/55
f 38/1/38 55/1/55 50/1/50
f 56/1/56 33/1/33 40/1/40
f 33/1/33 56/1/56 53/1/53
f 54/1/54 37/1/37 57/1/57
f 37/1/37 54/1/54 36/1/36
f 57/1/57 37/1/37 58/1/58
f 37/1/37 41/1/41 58/1/58
f 39/1/39 42/1/42 59/1/59
f 39/1/39 59/1/59 55/1/55
f 60/1/60 40/1/40 44/1/44
f 40/1/40 60/1/60 56/1/56
f 58/1/58 41/1/41 61/1/61
f 41/1/41 45/1/45 61/1/61
f 43/1/43 59/1/59 42/1/42
f 59/1/59 43/1/43 62/1/62
f 46/1/46 62/1/62 43/1/43
f 62/1/62 46/1/46 48/1/48
f 44/1/44 17/1/17 60/1/60
f 61/1/61 45/1/45 52/1/52
f 45/1/45 47/1/47 52/1/52
f 60/1/60 17/1/17 63/1/63
f 64/1/64 65/1/65 61/1/61
f 61/1/61 52/1/52 64/1/64
f 66/1/66 62/1/62 48/1/48
f 62/1/62 66/1/66 67/1/67
f 49/1/49 66/1/66 48/1/48
f 66/1/66 49/1/49 68/1/68
f 51/1/51 64/1/64 52/1/52
f 64/1/64 51/1/51 69/1/69
f 54/1/54 68/1/68 49/1/49
f 68/1/68 54/1/54 70/1/70
f 28/1/28 50/1/50 71/1/71
f 55/1/55 71/1/71 50/1/50
f 71/1/71 55/1/55 72/1/72
f 53/1/53 69/1/69 51/1/51
f 69/1/69 53/1/53 73/1/73
f 56/1/56 73/1/73 53/1/53
f 73/1/73 56/1/56 74/1/74
f 70/1/70 57/1/57 75/1/75
f 57/1/57 70/1/70 54/1/54
f 76/1/76 55/1/55 59/1/59
f 55/1/55 76/1/76 72/1/72
f 60/1/60 74/1/74 56/1/56
f 74/1/74 60/1/60 63/1/63
f 75/1/75 57/1/57 77/1/77
f 57/1/57 58/1/58 77/1/77
f 77/1/77 58/1/58 65/1/65
f 58/1/58 61/1/61 65/1/65
f 67/1/67 59/1/59 62/1/62
f 59/1/59 67/1/67 76/1/76
f 78/1/78 76/1/76 67/1/67
f 76/1/76 78/1/78 79/1/79
f 63/1/63 17/1/17 80/1/80
f 81/1/81 65/1/65 82/1/82
f 65/1/65 81/1/81 77/1/77
f 82/1/82 64/1/64 83/1/83
f 64/1/64 82/1/82 65/1/65
f 84/1/84 67/1/67 66/1/66
f 67/1/67 84/1/84 78/1/78
f 83/1/83 69/1/69 85/1/85
f 69/1/69 83/1/83 64/1/64
f 86/1/86 84/1/84 66/1/66
f 86/1/86 66/1/66 68/1/68
f 87/1/87 86/1/86 68/1/68
f 87/1/87 68/1/68 70/1/70
f 28/1/28 71/1/71 88/1/88
f 85/1/85 73/1/73 89/1/89
f 73/1/73 85/1/85 69/1/69
f 90/1/90 87/1/87 70/1/70
f 90/1/90 70/1/70 75/1/75
f 72/1/72 88/1/88 71/1/71
f 88/1/88 72/1/72 91/1/91
f 76/1/76 91/1/91 72/1/72
f 91/1/91 76/1/76 79/1/79
f 89/1/89 73/1/73 92/1/92
f 73/1/73 74/1/74 92/1/92
f 92/1/92 63/1/63 80/1/80
f 63/1/63 92/1/92 74/1/74
f 90/1/90 77/1/77 81/1/81
f 77/1/77 90/1/90 75/1/75
f 93/1/93 92/1/92 94/1/94
f 92/1/92 93/1/93 89/1/89
f 95/1/95 81/1/81 96/1/96
f 81/1/81 95/1/95 90/1/90
f 97/1/97 91/1/91 79/1/79
f 91/1/91 97/1/97 98/1/98
f 78/1/78 97/1/97 79/1/79
f 97/1/97 78/1/78 99/1/99
f 100/1/100 94/1/94 92/1/92
f 92/1/92 80/1/80 100/1/100
f 80/1/80 17/1/17 100/1/100
f 96/1/96 82/1/82 101/1/101
f 82/1/82 96/1/96 81/1/81
f 102/1/102 78/1/78 84/1/84
f 102/1/102 99/1/99 78/1/78
f 101/1/101 83/1/83 103/1/103
f 83/1/83 101/1/101 82/1/82
f 103/1/103 85/1/85 104/1/104
f 85/1/85 103/1/103 83/1/83
f 105/1/105 102/1/102 84/1/84
f 105/1/105 84/1/84 86/1/86
f 28/1/28 88/1/88 106/1/106
f 104/1/104 85/1/85 93/1/93
f 85/1/85 89/1/89 93/1/93
f 107/1/107 105/1/105 86/1/86
f 107/1/107 86/1/86 87/1/87
f 95/1/95 107/1/107 87/1/87
f 95/1/95 87/1/87 90/1/90
f 91/1/91 106/1/106 88/1/88
f 106/1/106 91/1/91 98/1/98
f 108/1/108 93/1/93 109/1/109
f 93/1/93 108/1/108 104/1/104
f 110/1/110 111/1/111 105/1/105
f 110/1/110 105/1/105 107/1/107
f 106/1/106 112/1/112 113/1/113
f 112/1/112 106/1/106 98/1/98
f 114/1/114 109/1/109 93/1/93
f 93/1/93 94/1/94 114/1/114
f 115/1/115 110/1/110 107/1/107
f 115/1/115 107/1/107 95/1/95
f 115/1/115 96/1/96 116/1/116
f 96/1/96 115/1/115 95/1/95
f 98/1/98 117/1/117 112/1/112
f 117/1/117 98/1/98 97/1/97
f 118/1/118 114/1/114 94/1/94
f 94/1/94 100/1/100 118/1/118
f 116/1/116 101/1/101 119/1/119
f 101/1/101 116/1/116 96/1/96
f 97/1/97 120/1/120 117/1/117
f 120/1/120 97/1/97 99/1/99
f 121/1/121 120/1/120 99/1/99
f 121/1/121 99/1/99 102/1/102
f 100/1/100 17/1/17 118/1/118
f 119/1/119 103/1/103 122/1/122
f 103/1/103 119/1/119 101/1/101
f 111/1/111 121/1/121 102/1/102
f 111/1/111 102/1/102 105/1/105
f 28/1/28 106/1/106 113/1/113
f 122/1/122 104/1/104 108/1/108
f 104/1/104 122/1/122 103/1/103
f 123/1/123 108/1/108 124/1/124
f 108/1/108 123/1/123 122/1/122
f 125/1/125 126/1/126 111/1/111
f 125/1/125 111/1/111 110/1/110
f 28/1/28 113/1/113 127/1/127
f 128/1/128 127/1/127 113/1/113
f 128/1/128 113/1/113 112/1/112
f 129/1/129 124/1/124 108/1/108
f 129/1/129 108/1/108 109/1/109
f 129/1/129 114/1/114 130/1/130
f 114/1/114 129/1/129 109/1/109
f 131/1/131 125/1/125 110/1/110
f 131/1/131 110/1/110 115/1/115
f 128/1/128 117/1/117 132/1/132
f 117/1/117 128/1/128 112/1/112
f 133/1/133 130/1/130 114/1/114
f 133/1/133 114/1/114 118/1/118
f 131/1/131 116/1/116 134/1/134
f 116/1/116 131/1/131 115/1/115
f 134/1/134 119/1/119 135/1/135
f 119/1/119 134/1/134 116/1/116
f 132/1/132 120/1/120 136/1/136
f 120/1/120 132/1/132 117/1/117
f 118/1/118 17/1/17 133/1/133
f 135/1/135 122/1/122 123/1/123
f 122/1/122 135/1/135 119/1/119
f 137/1/137 136/1/136 120/1/120
f 137/1/137 120/1/120 121/1/121
f 126/1/126 137/1/137 121/1/121
f 126/1/126 121/1/121 111/1/111
f 138/1/138 139/1/139 134/1/134
f 138/1/138 134/1/134 135/1/135
f 140/1/140 138/1/138 135/1/135
f 140/1/140 135/1/135 123/1/123
f 141/1/141 137/1/137 142/1/142
f 137/1/137 141/1/141 136/1/136
f 143/1/143 140/1/140 123/1/123
f 143/1/143 123/1/123 124/1/124
f 142/1/142 126/1/126 144/1/144
f 126/1/126 142/1/142 137/1/137
f 144/1/144 125/1/125 145/1/145
f 125/1/125 144/1/144 126/1/126
f 28/1/28 127/1/127 146/1/146
f 143/1/143 129/1/129 147/1/147
f 129/1/129 143/1/143 124/1/124
f 145/1/145 131/1/131 148/1/148
f 131/1/131 145/1/145 125/1/125
f 146/1/146 128/1/128 149/1/149
f 128/1/128 146/1/146 127/1/127
f 150/1/150 149/1/149 128/1/128
f 150/1/150 128/1/128 132/1/132
f 151/1/151 147/1/147 129/1/129
f 151/1/151 129/1/129 130/1/130
f 151/1/151 133/1/133 152/1/152
f 133/1/133 151/1/151 130/1/130
f 139/1/139 148/1/148 131/1/131
f 139/1/139 131/1/131 134/1/134
f 141/1/141 150/1/150 132/1/132
f 141/1/141 132/1/132 136/1/136
f 133/1/133 17/1/17 152/1/152
f 153/1/153 154/1/154 150/1/150
f 150/1/150 141/1/141 153/1/153
f 155/1/155 152/1/152 156/1/156
f 152/1/152 155/1/155 151/1/151
f 152/1/152 17/1/17 156/1/156
f 157/1/157 158/1/158 139/1/139
f 157/1/157 139/1/139 138/1/138
f 153/1/153 142/1/142 159/1/159
f 142/1/142 153/1/153 141/1/141
f 160/1/160 157/1/157 138/1/138
f 160/1/160 138/1/138 140/1/140
f 161/1/161 160/1/160 140/1/140
f 161/1/161 140/1/140 143/1/143
f 159/1/159 144/1/144 162/1/162
f 144/1/144 159/1/159 142/1/142
f 28/1/28 146/1/146 163/1/163
f 161/1/161 147/1/147 164/1/164
f 147/1/147 161/1/161 143/1/143
f 162/1/162 145/1/145 165/1/165
f 145/1/145 162/1/162 144/1/144
f 165/1/165 148/1/148 166/1/166
f 148/1/148 165/1/165 145/1/145
f 167/1/167 163/1/163 146/1/146
f 146/1/146 149/1/149 167/1/167
f 147/1/147 155/1/155 164/1/164
f 155/1/155 147/1/147 151/1/151
f 158/1/158 166/1/166 148/1/148
f 158/1/158 148/1/148 139/1/139
f 167/1/167 150/1/150 154/1/154
f 150/1/150 167/1/167 149/1/149
f 164/1/164 168/1/168 169/1/169
f 168/1/168 164/1/164 155/1/155
f 170/1/170 166/1/166 171/1/171
f 166/1/166 170/1/170 165/1/165
f 172/1/172 171/1/171 166/1/166
f 172/1/172 166/1/166 158/1/158
f 173/1/173 154/1/154 174/1/174
f 154/1/154 173/1/173 167/1/167
f 155/1/155 175/1/175 168/1/168
f 175/1/175 155/1/155 156/1/156
f 176/1/176 172/1/172 158/1/158
f 176/1/176 158/1/158 157/1/157
f 174/1/174 154/1/154 177/1/177
f 154/1/154 153/1/153 177/1/177
f 177/1/177 159/1/159 178/1/178
f 159/1/159 177/1/177 153/1/153
f 156/1/156 17/1/17 175/1/175
f 179/1/179 176/1/176 157/1/157
f 179/1/179 157/1/157 160/1/160
f 178/1/178 162/1/162 180/1/180
f 162/1/162 178/1/178 159/1/159
f 28/1/28 163/1/163 181/1/181
f 182/1/182 179/1/179 160/1/160
f 182/1/182 160/1/160 161/1/161
f 182/1/182 164/1/164 169/1/169
f 164/1/164 182/1/182 161/1/161
f 180/1/180 165/1/165 170/1/170
f 165/1/165 180/1/180 162/1/162
f 181/1/181 167/1/167 173/1/173
f 167/1/167 181/1/181 163/1/163
f 183/1/183 170/1/170 184/1/184
f 170/1/170 183/1/183 180/1/180
f 28/1/28 181/1/181 185/1/185
f 186/1/186 185/1/185 181/1/181
f 181/1/181 173/1/173 186/1/186
f 169/1/169 187/1/187 182/1/182
f 187/1/187 169/1/169 188/1/188
f 168/1/168 188/1/188 169/1/169
f 188/1/188 168/1/168 189/1/189
f 184/1/184 171/1/171 190/1/190
f 171/1/171 184/1/184 170/1/170
f 173/1/173 174/1/174 191/1/191
f 173/1/173 191/1/191 186/1/186
f 175/1/175 189/1/189 168/1/168
f 189/1/189 175/1/175 192/1/192
f 193/1/193 190/1/190 171/1/171
f 193/1/193 171/1/171 172/1/172
f 194/1/194 193/1/193 172/1/172
f 194/1/194 172/1/172 176/1/176
f 174/1/174 177/1/177 195/1/195
f 174/1/174 195/1/195 191/1/191
f 175/1/175 17/1/17 192/1/192
f 196/1/196 194/1/194 176/1/176
f 196/1/196 176/1/176 179/1/179
f 178/1/178 197/1/197 177/1/177
f 177/1/177 197/1/197 195/1/195
f 197/1/197 180/1/180 183/1/183
f 180/1/180 197/1/197 178/1/178
f 182/1/182 196/1/196 179/1/179
f 196/1/196 182/1/182 187/1/187
f 198/1/198 196/1/196 187/1/187
f 196/1/196 198/1/198 199/1/199
f 200/1/200 197/1/197 183/1/183
f 197/1/197 200/1/200 201/1/201
f 202/1/202 183/1/183 184/1/184
f 183/1/183 202/1/202 200/1/200
f 28/1/28 185/1/185 203/1/203
f 188/1/188 198/1/198 187/1/187
f 198/1/198 188/1/188 204/1/204
f 205/1/205 184/1/184 190/1/190
f 184/1/184 205/1/205 202/1/202
f 185/1/185 186/1/186 206/1/206
f 185/1/185 206/1/206 203/1/203
f 191/1/191 206/1/206 186/1/186
f 206/1/206 191/1/191 207/1/207
f 189/1/189 204/1/204 188/1/188
f 204/1/204 189/1/189 208/1/208
f 192/1/192 208/1/208 189/1/189
f 208/1/208 192/1/192 209/1/209
f 193/1/193 205/1/205 190/1/190
f 205/1/205 193/1/193 210/1/210
f 195/1/195 211/1/211 191/1/191
f 191/1/191 211/1/211 207/1/207
f 192/1/192 17/1/17 209/1/209
f 210/1/210 194/1/194 212/1/212
f 194/1/194 210/1/210 193/1/193
f 212/1/212 196/1/196 199/1/199
f 196/1/196 212/1/212 194/1/194
f 197/1/197 211/1/211 195/1/195
f 211/1/211 197/1/197 201/1/201
f 213/1/213 211/1/211 201/1/201
f 211/1/211 213/1/213 214/1/214
f 215/1/215 199/1/199 216/1/216
f 199/1/199 215/1/215 212/1/212
f 216/1/216 198/1/198 217/1/217
f 198/1/198 216/1/216 199/1/199
f 218/1/218 201/1/201 200/1/200
f 201/1/201 218/1/218 213/1/213
f 28/1/28 203/1/203 219/1/219
f 220/1/220 198/1/198 204/1/204
f 198/1/198 220/1/220 217/1/217
f 221/1/221 200/1/200 202/1/202
f 200/1/200 221/1/221 218/1/218
f 222/1/222 202/1/202 205/1/205
f 202/1/202 222/1/222 221/1/221
f 203/1/203 206/1/206 223/1/223
f 203/1/203 223/1/223 219/1/219
f 224/1/224 204/1/204 208/1/208
f 204/1/204 224/1/224 220/1/220
f 210/1/210 222/1/222 205/1/205
f 222/1/222 210/1/210 225/1/225
f 207/1/207 223/1/223 206/1/206
f 223/1/223 207/1/207 226/1/226
f 211/1/211 226/1/226 207/1/207
f 226/1/226 211/1/211 214/1/214
f 209/1/209 224/1/224 208/1/208
f 224/1/224 209/1/209 227/1/227
f 209/1/209 17/1/17 227/1/227
f 225/1/225 212/1/212 215/1/215
f 212/1/212 225/1/225 210/1/210
f 224/1/224 227/1/227 228/1/228
f 224/1/224 228/1/228 229/1/229
f 215/1/215 230/1/230 225/1/225
f 230/1/230 215/1/215 231/1/231
f 232/1/232 226/1/226 214/1/214
f 226/1/226 232/1/232 233/1/233
f 234/1/234 214/1/214 213/1/213
f 214/1/214 234/1/234 232/1/232
f 227/1/227 17/1/17 228/1/228
f 231/1/231 216/1/216 235/1/235
f 216/1/216 231/1/231 215/1/215
f 236/1/236 213/1/213 218/1/218
f 213/1/213 236/1/236 234/1/234
f 28/1/28 219/1/219 237/1/237
f 235/1/235 217/1/217 238/1/238
f 217/1/217 235/1/235 216/1/216
f 217/1/217 220/1/220 239/1/239
f 217/1/217 239/1/239 238/1/238
f 240/1/240 218/1/218 221/1/221
f 218/1/218 240/1/240 236/1/236
f 223/1/223 237/1/237 219/1/219
f 237/1/237 223/1/223 241/1/241
f 220/1/220 224/1/224 229/1/229
f 220/1/220 229/1/229 239/1/239
f 242/1/242 221/1/221 222/1/222
f 221/1/221 242/1/242 240/1/240
f 225/1/225 242/1/242 222/1/222
f 242/1/242 225/1/225 230/1/230
f 233/1/233 223/1/223 226/1/226
f 223/1/223 233/1/233 241/1/241
f 243/1/243 239/1/239 244/1/244
f 239/1/239 229/1/229 244/1/244
f 245/1/245 240/1/240 242/1/242
f 240/1/240 245/1/245 246/1/246
f 247/1/247 241/1/241 233/1/233
f 241/1/241 247/1/247 248/1/248
f 249/1/249 244/1/244 229/1/229
f 229/1/229 228/1/228 249/1/249
f 230/1/230 245/1/245 242/1/242
f 245/1/245 230/1/230 250/1/250
f 231/1/231 250/1/250 230/1/230
f 250/1/250 231/1/231 251/1/251
f 252/1/252 233/1/233 232/1/232
f 233/1/233 252/1/252 247/1/247
f 228/1/228 17/1/17 249/1/249
f 235/1/235 251/1/251 231/1/231
f 251/1/251 235/1/235 253/1/253
f 254/1/254 232/1/232 234/1/234
f 232/1/232 254/1/254 252/1/252
f 255/1/255 234/1/234 236/1/236
f 234/1/234 255/1/255 254/1/254
f 253/1/253 238/1/238 256/1/256
f 238/1/238 253/1/253 235/1/235
f 246/1/246 236/1/236 240/1/240
f 236/1/236 246/1/246 255/1/255
f 28/1/28 237/1/237 257/1/257
f 241/1/241 257/1/257 237/1/237
f 257/1/257 241/1/241 248/1/248
f 256/1/256 239/1/239 243/1/243
f 239/1/239 256/1/256 238/1/238
f 28/1/28 257/1/257 258/1/258
f 259/1/259 256/1/256 260/1/260
f 256/1/256 243/1/243 260/1/260
f 245/1/245 261/1/261 246/1/246
f 261/1/261 245/1/245 262/1/262
f 263/1/263 257/1/257 248/1/248
f 257/1/257 263/1/263 258/1/258
f 247/1/247 263/1/263 248/1/248
f 263/1/263 247/1/247 264/1/264
f 260/1/260 244/1/244 265/1/265
f 244/1/244 260/1/260 243/1/243
f 265/1/265 249/1/249 266/1/266
f 249/1/249 265/1/265 244/1/244
f 267/1/267 245/1/245 250/1/250
f 245/1/245 267/1/267 262/1/262
f 252/1/252 264/1/264 247/1/247
f 264/1/264 252/1/252 268/1/268
f 249/1/249 17/1/17 266/1/266
f 269/1/269 250/1/250 251/1/251
f 250/1/250 269/1/269 267/1/267
f 270/1/270 251/1/251 253/1/253
f 251/1/251 270/1/270 269/1/269
f 254/1/254 268/1/268 252/1/252
f 268/1/268 254/1/254 271/1/271
f 259/1/259 253/1/253 256/1/256
f 253/1/253 259/1/259 270/1/270
f 255/1/255 271/1/271 254/1/254
f 271/1/271 255/1/255 272/1/272
f 246/1/246 272/1/272 255/1/255
f 272/1/272 246/1/246 261/1/261
f 273/1/273 269/1/269 270/1/270
f 269/1/269 273/1/273 274/1/274
f 275/1/275 270/1/270 259/1/259
f 270/1/270 275/1/275 273/1/273
f 272/1/272 276/1/276 271/1/271
f 276/1/276 272/1/272 277/1/277
f 28/1/28 258/1/258 278/1/278
f 275/1/275 260/1/260 279/1/279
f 260/1/260 275/1/275 259/1/259
f 261/1/261 277/1/277 272/1/272
f 277/1/277 261/1/261 280/1/280
f 262/1/262 280/1/280 261/1/261
f 280/1/280 262/1/262 281/1/281
f 258/1/258 282/1/282 278/1/278
f 282/1/282 258/1/258 263/1/263
f 279/1/279 265/1/265 283/1/283
f 265/1/265 279/1/279 260/1/260
f 284/1/284 262/1/262 267/1/267
f 262/1/262 284/1/284 281/1/281
f 282/1/282 264/1/264 285/1/285
f 264/1/264 282/1/282 263/1/263
f 285/1/285 268/1/268 286/1/286
f 268/1/268 285/1/285 264/1/264
f 283/1/283 266/1/266 287/1/287
f 266/1/266 283/1/283 265/1/265
f 266/1/266 17/1/17 287/1/287
f 274/1/274 267/1/267 269/1/269
f 267/1/267 274/1/274 284/1/284
f 271/1/271 286/1/286 268/1/268
f 286/1/286 271/1/271 276/1/276
f 288/1/288 276/1/276 289/1/289
f 276/1/276 288/1/288 286/1/286
f 287/1/287 17/1/17 290/1/290
f 291/1/291 274/1/274 273/1/273
f 274/1/274 291/1/291 292/1/292
f 289/1/289 277/1/277 293/1/293
f 277/1/277 289/1/289 276/1/276
f 28/1/28 278/1/278 294/1/294
f 295/1/295 273/1/273 275/1/275
f 273/1/273 295/1/295 291/1/291
f 295/1/295 279/1/279 296/1/296
f 279/1/279 295/1/295 275/1/275
f 280/1/280 293/1/293 277/1/277
f 293/1/293 280/1/280 297/1/297
f 298/1/298 294/1/294 278/1/278
f 298/1/298 278/1/278 282/1/282
f 296/1/296 283/1/283 299/1/299
f 283/1/283 296/1/296 279/1/279
f 281/1/281 297/1/297 280/1/280
f 297/1/297 281/1/281 300/1/300
f 301/1/301 281/1/281 284/1/284
f 281/1/281 301/1/301 300/1/300
f 302/1/302 298/1/298 282/1/282
f 302/1/302 282/1/282 285/1/285
f 290/1/290 299/1/299 283/1/283
f 290/1/290 283/1/283 287/1/287
f 292/1/292 284/1/284 274/1/274
f 284/1/284 292/1/292 301/1/301
f 288/1/288 302/1/302 285/1/285
f 288/1/288 285/1/285 286/1/286
f 303/1/303 304/1/304 299/1/299
f 303/1/303 299/1/299 290/1/290
f 305/1/305 300/1/300 301/1/301
f 300/1/300 305/1/305 306/1/306
f 307/1/307 301/1/301 292/1/292
f 301/1/301 307/1/307 305/1/305
f 308/1/308 288/1/288 309/1/309
f 288/1/288 308/1/308 302/1/302
f 290/1/290 17/1/17 303/1/303
f 310/1/310 292/1/292 291/1/291
f 292/1/292 310/1/310 307/1/307
f 309/1/309 289/1/289 311/1/311
f 289/1/289 309/1/309 288/1/288
f 311/1/311 293/1/293 312/1/312
f 293/1/293 311/1/311 289/1/289
f 291/1/291 313/1/313 310/1/310
f 313/1/313 291/1/291 295/1/295
f 312/1/312 297/1/297 314/1/314
f 297/1/297 312/1/312 293/1/293
f 28/1/28 294/1/294 315/1/315
f 315/1/315 298/1/298 316/1/316
f 298/1/298 315/1/315 294/1/294
f 295/1/295 317/1/317 313/1/313
f 317/1/317 295/1/295 296/1/296
f 317/1/317 299/1/299 304/1/304
f 299/1/299 317/1/317 296/1/296
f 300/1/300 314/1/314 297/1/297
f 314/1/314 300/1/300 306/1/306
f 308/1/308 316/1/316 298/1/298
f 298/1/298 302/1/302 308/1/308
f 306/1/306 318/1/318 314/1/314
f 314/1/314 318/1/318 319/1/319
f 320/1/320 316/1/316 321/1/321
f 316/1/316 320/1/320 315/1/315
f 321/1/321 308/1/308 322/1/322
f 308/1/308 321/1/321 316/1/316
f 317/1/317 323/1/323 324/1/324
f 323/1/323 317/1/317 304/1/304
f 304/1/304 325/1/325 323/1/323
f 325/1/325 304/1/304 303/1/303
f 305/1/305 318/1/318 306/1/306
f 318/1/318 305/1/305 326/1/326
f 322/1/322 309/1/309 327/1/327
f 309/1/309 322/1/322 308/1/308
f 303/1/303 17/1/17 325/1/325
f 307/1/307 326/1/326 305/1/305
f 326/1/326 307/1/307 328/1/328
f 310/1/310 328/1/328 307/1/307
f 328/1/328 310/1/310 329/1/329
f 327/1/327 311/1/311 330/1/330
f 311/1/311 327/1/327 309/1/309
f 310/1/310 331/1/331 329/1/329
f 331/1/331 310/1/310 313/1/313
f 311/1/311 312/1/312 332/1/332
f 311/1/311 332/1/332 330/1/330
f 314/1/314 319/1/319 312/1/312
f 312/1/312 319/1/319 332/1/332
f 28/1/28 315/1/315 320/1/320
f 313/1/313 324/1/324 331/1/331
f 324/1/324 313/1/313 317/1/317
f 324/1/324 333/1/333 331/1/331
f 333/1/333 324/1/324 334/1/334
f 319/1/319 335/1/335 332/1/332
f 332/1/332 335/1/335 336/1/336
f 318/1/318 337/1/337 319/1/319
f 319/1/319 337/1/337 335/1/335
f 338/1/338 339/1/339 320/1/320
f 320/1/320 321/1/321 338/1/338
f 323/1/323 334/1/334 324/1/324
f 334/1/334 323/1/323 340/1/340
f 326/1/326 337/1/337 318/1/318
f 337/1/337 326/1/326 341/1/341
f 342/1/342 338/1/338 321/1/321
f 321/1/321 322/1/322 342/1/342
f 322/1/322 327/1/327 343/1/343
f 322/1/322 343/1/343 342/1/342
f 340/1/340 325/1/325 344/1/344
f 325/1/325 340/1/340 323/1/323
f 325/1/325 17/1/17 344/1/344
f 328/1/328 341/1/341 326/1/326
f 341/1/341 328/1/328 345/1/345
f 327/1/327 330/1/330 346/1/346
f 327/1/327 346/1/346 343/1/343
f 329/1/329 345/1/345 328/1/328
f 345/1/345 329/1/329 347/1/347
f 331/1/331 347/1/347 329/1/329
f 347/1/347 331/1/331 333/1/333
f 332/1/332 336/1/336 330/1/330
f 330/1/330 336/1/336 346/1/346
f 28/1/28 320/1/320 339/1/339
f 336/1/336 348/1/348 346/1/346
f 346/1/346 348/1/348 349/1/349
f 28/1/28 339/1/339 350/1/350
f 333/1/333 351/1/351 347/1/347
f 351/1/351 333/1/333 352/1/352
f 353/1/353 333/1/333 334/1/334
f 333/1/333 353/1/353 352/1/352
f 335/1/335 354/1/354 336/1/336
f 336/1/336 354/1/354 348/1/348
f 350/1/350 338/1/338 355/1/355
f 338/1/338 350/1/350 339/1/339
f 340/1/340 353/1/353 334/1/334
f 353/1/353 340/1/340 356/1/356
f 337/1/337 357/1/357 335/1/335
f 335/1/335 357/1/357 354/1/354
f 341/1/341 357/1/357 337/1/337
f 357/1/357 341/1/341 358/1/358
f 338/1/338 342/1/342 359/1/359
f 338/1/338 359/1/359 355/1/355
f 360/1/360 340/1/340 344/1/344
f 340/1/340 360/1/360 356/1/356
f 345/1/345 358/1/358 341/1/341
f 358/1/358 345/1/345 361/1/361
f 343/1/343 359/1/359 342/1/342
f 359/1/359 343/1/343 362/1/362
f 346/1/346 349/1/349 343/1/343
f 343/1/343 349/1/349 362/1/362
f 344/1/344 17/1/17 360/1/360
f 347/1/347 361/1/361 345/1/345
f 361/1/361 347/1/347 351/1/351
f 360/1/360 17/1/17 363/1/363
f 351/1/351 364/1/364 361/1/361
f 364/1/364 351/1/351 365/1/365
f 349/1/349 366/1/366 362/1/362
f 362/1/362 366/1/366 367/1/367
f 348/1/348 368/1/368 349/1/349
f 349/1/349 368/1/368 366/1/366
f 352/1/352 365/1/365 351/1/351
f 365/1/365 352/1/352 369/1/369
f 354/1/354 370/1/370 348/1/348
f 348/1/348 370/1/370 368/1/368
f 28/1/28 350/1/350 371/1/371
f 350/1/350 355/1/355 372/1/372
f 350/1/350 372/1/372 371/1/371
f 373/1/373 352/1/352 353/1/353
f 352/1/352 373/1/373 369/1/369
f 356/1/356 373/1/373 353/1/353
f 373/1/373 356/1/356 374/1/374
f 357/1/357 375/1/375 354/1/354
f 354/1/354 375/1/375 370/1/370
f 355/1/355 359/1/359 376/1/376
f 355/1/355 376/1/376 372/1/372
f 360/1/360 374/1/374 356/1/356
f 374/1/374 360/1/360 363/1/363
f 358/1/358 375/1/375 357/1/357
f 375/1/375 358/1/358 377/1/377
f 361/1/361 377/1/377 358/1/358
f 377/1/377 361/1/361 364/1/364
f 362/1/362 376/1/376 359/1/359
f 376/1/376 362/1/362 367/1/367
f 378/1/378 374/1/374 363/1/363
f 374/1/374 378/1/378 379/1/379
f 380/1/380 375/1/375 377/1/377
f 375/1/375 380/1/380 381/1/381
f 367/1/367 382/1/382 376/1/376
f 376/1/376 382/1/382 383/1/383
f 363/1/363 17/1/17 378/1/378
f 364/1/364 384/1/384 377/1/377
f 377/1/377 384/1/384 380/1/380
f 365/1/365 385/1/385 364/1/364
f 364/1/364 385/1/385 384/1/384
f 366/1/366 382/1/382 367/1/367
f 382/1/382 366/1/366 386/1/386
f 369/1/369 387/1/387 365/1/365
f 365/1/365 387/1/387 385/1/385
f 368/1/368 386/1/386 366/1/366
f 386/1/386 368/1/368 388/1/388
f 370/1/370 388/1/388 368/1/368
f 388/1/388 370/1/370 389/1/389
f 28/1/28 371/1/371 390/1/390
f 373/1/373 387/1/387 369/1/369
f 387/1/387 373/1/373 391/1/391
f 375/1/375 389/1/389 370/1/370
f 389/1/389 375/1/375 381/1/381
f 372/1/372 390/1/390 371/1/371
f 390/1/390 372/1/372 392/1/392
f 376/1/376 383/1/383 372/1/372
f 372/1/372 383/1/383 392/1/392
f 374/1/374 391/1/391 373/1/373
f 391/1/391 374/1/374 379/1/379
f 393/1/393 390/1/390 392/1/392
f 390/1/390 393/1/393 394/1/394
f 379/1/379 395/1/395 391/1/391
f 395/1/395 379/1/379 396/1/396
f 380/1/380 397/1/397 381/1/381
f 381/1/381 397/1/397 398/1/398
f 399/1/399 392/1/392 383/1/383
f 392/1/392 399/1/399 393/1/393
f 382/1/382 399/1/399 383/1/383
f 399/1/399 382/1/382 400/1/400
f 396/1/396 378/1/378 401/1/401
f 378/1/378 396/1/396 379/1/379
f 378/1/378 17/1/17 401/1/401
f 384/1/384 402/1/402 380/1/380
f 380/1/380 402/1/402 397/1/397
f 386/1/386 400/1/400 382/1/382
f 400/1/400 386/1/386 403/1/403
f 385/1/385 404/1/404 384/1/384
f 384/1/384 404/1/404 402/1/402
f 387/1/387 405/1/405 385/1/385
f 385/1/385 405/1/405 404/1/404
f 388/1/388 403/1/403 386/1/386
f 403/1/403 388/1/388 406/1/406
f 28/1/28 390/1/390 394/1/394
f 387/1/387 391/1/391 395/1/395
f 387/1/387 395/1/395 405/1/405
f 389/1/389 406/1/406 388/1/388
f 406/1/406 389/1/389 407/1/407
f 381/1/381 407/1/407 389/1/389
f 407/1/407 381/1/381 398/1/398
f 408/1/408 404/1/404 409/1/409
f 404/1/404 405/1/405 409/1/409
f 409/1/409 405/1/405 410/1/410
f 405/1/405 395/1/395 410/1/410
f 407/1/407 411/1/411 406/1/406
f 411/1/411 407/1/407 412/1/412
f 393/1/393 413/1/413 394/1/394
f 413/1/413 393/1/393 414/1/414
f 415/1/415 410/1/410 395/1/395
f 395/1/395 396/1/396 415/1/415
f 398/1/398 412/1/412 407/1/407
f 412/1/412 398/1/398 416/1/416
f 397/1/397 417/1/417 398/1/398
f 398/1/398 417/1/417 416/1/416
f 418/1/418 393/1/393 399/1/399
f 393/1/393 418/1/418 414/1/414
f 419/1/419 415/1/415 396/1/396
f 396/1/396 401/1/401 419/1/419
f 402/1/402 420/1/420 397/1/397
f 397/1/397 420/1/420 417/1/417
f 400/1/400 418/1/418 399/1/399
f 418/1/418 400/1/400 421/1/421
f 403/1/403 421/1/421 400/1/400
f 421/1/421 403/1/403 422/1/422
f 401/1/401 17/1/17 419/1/419
f 404/1/404 408/1/408 402/1/402
f 402/1/402 408/1/408 420/1/420
f 406/1/406 422/1/422 403/1/403
f 422/1/422 406/1/406 411/1/411
f 28/1/28 394/1/394 413/1/413
f 411/1/411 423/1/423 422/1/422
f 423/1/423 411/1/411 424/1/424
f 425/1/425 408/1/408 426/1/426
f 408/1/408 409/1/409 426/1/426
f 412/1/412 424/1/424 411/1/411
f 424/1/424 412/1/412 427/1/427
f 28/1/28 413/1/413 428/1/428
f 428/1/428 414/1/414 429/1/429
f 414/1/414 428/1/428 413/1/413
f 426/1/426 410/1/410 430/1/430
f 410/1/410 426/1/426 409/1/409
f 430/1/430 415/1/415 431/1/431
f 415/1/415 430/1/430 410/1/410
f 416/1/416 427/1/427 412/1/412
f 427/1/427 416/1/416 432/1/432
f 418/1/418 429/1/429 414/1/414
f 429/1/429 418/1/418 433/1/433
f 431/1/431 419/1/419 434/1/434
f 419/1/419 431/1/431 415/1/415
f 417/1/417 435/1/435 416/1/416
f 416/1/416 435/1/435 432/1/432
f 417/1/417 420/1/420 436/1/436
f 417/1/417 436/1/436 435/1/435
f 437/1/437 418/1/418 421/1/421
f 418/1/418 437/1/437 433/1/433
f 419/1/419 17/1/17 434/1/434
f 420/1/420 408/1/408 425/1/425
f 420/1/420 425/1/425 436/1/436
f 422/1/422 437/1/437 421/1/421
f 437/1/437 422/1/422 423/1/423
f 434/1/434 17/1/17 438/1/438
f 436/1/436 439/1/439 435/1/435
f 439/1/439 436/1/436 440/1/440
f 425/1/425 440/1/440 436/1/436
f 440/1/440 425/1/425 441/1/441
f 437/1/437 442/1/442 443/1/443
f 442/1/442 437/1/437 423/1/423
f 441/1/441 426/1/426 444/1/444
f 426/1/426 441/1/441 425/1/425
f 445/1/445 442/1/442 423/1/423
f 423/1/423 424/1/424 445/1/445
f 446/1/446 445/1/445 424/1/424
f 424/1/424 427/1/427 446/1/446
f 28/1/28 428/1/428 447/1/447
f 444/1/444 430/1/430 448/1/448
f 430/1/430 444/1/444 426/1/426
f 446/1/446 427/1/427 449/1/449
f 427/1/427 432/1/432 449/1/449
f 450/1/450 447/1/447 428/1/428
f 450/1/450 428/1/428 429/1/429
f 451/1/451 450/1/450 429/1/429
f 451/1/451 429/1/429 433/1/433
f 448/1/448 431/1/431 452/1/452
f 431/1/431 448/1/448 430/1/430
f 452/1/452 434/1/434 438/1/438
f 434/1/434 452/1/452 431/1/431
f 449/1/449 435/1/435 439/1/439
f 435/1/435 449/1/449 432/1/432
f 433/1/433 443/1/443 451/1/451
f 443/1/443 433/1/433 437/1/437
f 453/1/453 439/1/439 454/1/454
f 439/1/439 453/1/453 449/1/449
f 455/1/455 456/1/456 450/1/450
f 455/1/455 450/1/450 451/1/451
f 455/1/455 443/1/443 457/1/457
f 443/1/443 455/1/455 451/1/451
f 458/1/458 459/1/459 452/1/452
f 458/1/458 452/1/452 438/1/438
f 438/1/438 17/1/17 458/1/458
f 454/1/454 440/1/440 460/1/460
f 440/1/440 454/1/454 439/1/439
f 461/1/461 457/1/457 443/1/443
f 443/1/443 442/1/442 461/1/461
f 441/1/441 460/1/460 440/1/440
f 460/1/460 441/1/441 462/1/462
f 444/1/444 462/1/462 441/1/441
f 462/1/462 444/1/444 463/1/463
f 461/1/461 442/1/442 464/1/464
f 442/1/442 445/1/445 464/1/464
f 28/1/28 447/1/447 465/1/465
f 466/1/466 463/1/463 444/1/444
f 466/1/466 444/1/444 448/1/448
f 464/1/464 445/1/445 467/1/467
f 445/1/445 446/1/446 467/1/467
f 467/1/467 446/1/446 453/1/453
f 446/1/446 449/1/449 453/1/453
f 465/1/465 450/1/450 456/1/456
f 450/1/450 465/1/465 447/1/447
f 459/1/459 466/1/466 448/1/448
f 459/1/459 448/1/448 452/1/452
f 466/1/466 468/1/468 469/1/469
f 468/1/468 466/1/466 459/1/459
f 470/1/470 467/1/467 471/1/471
f 467/1/467 453/1/453 471/1/471
f 471/1/471 454/1/454 472/1/472
f 454/1/454 471/1/471 453/1/453
f 473/1/473 455/1/455 474/1/474
f 455/1/455 473/1/473 456/1/456
f 468/1/468 458/1/458 475/1/475
f 458/1/458 468/1/468 459/1/459
f 472/1/472 460/1/460 476/1/476
f 460/1/460 472/1/472 454/1/454
f 474/1/474 457/1/457 477/1/477
f 457/1/457 474/1/474 455/1/455
f 477/1/477 457/1/457 478/1/478
f 457/1/457 461/1/461 478/1/478
f 458/1/458 17/1/17 475/1/475
f 476/1/476 462/1/462 479/1/479
f 462/1/462 476/1/476 460/1/460
f 478/1/478 461/1/461 480/1/480
f 461/1/461 464/1/464 480/1/480
f 28/1/28 465/1/465 481/1/481
f 479/1/479 463/1/463 482/1/482
f 463/1/463 479/1/479 462/1/462
f 482/1/482 466/1/466 469/1/469
f 466/1/466 482/1/482 463/1/463
f 480/1/480 464/1/464 470/1/470
f 464/1/464 467/1/467 470/1/470
f 473/1/473 481/1/481 465/1/465
f 465/1/465 456/1/456 473/1/473
f 26/1/26 480/1/480 31/1/31
f 480/1/480 470/1/470 31/1/31
f 28/1/28 481/1/481 29/1/29
f 29/1/29 473/1/473 9/1/9
f 473/1/473 29/1/29 481/1/481
f 25/1/25 469/1/469 3/1/3
f 469/1/469 25/1/25 482/1/482
f 469/1/469 1/1/1 3/1/3
f 1/1/1 469/1/469 468/1/468
f 31/1/31 470/1/470 6/1/6
f 470/1/470 471/1/471 6/1/6
f 9/1/9 474/1/474 10/1/10
f 474/1/474 9/1/9 473/1/473
f 1/1/1 475/1/475 16/1/16
f 475/1/475 1/1/1 468/1/468
f 6/1/6 472/1/472 8/1/8
f 472/1/472 6/1/6 471/1/471
f 8/1/8 476/1/476 19/1/19
f 476/1/476 8/1/8 472/1/472
f 10/1/10 474/1/474 13/1/13
f 474/1/474 477/1/477 13/1/13
f 475/1/475 17/1/17 16/1/16
f 19/1/19 479/1/479 23/1/23
f 479/1/479 19/1/19 476/1/476
f 13/1/13 477/1/477 20/1/20
f 477/1/477 478/1/478 20/1/20
f 20/1/20 478/1/478 26/1/26
f 478/1/478 480/1/480 26/1/26
f 23/1/23 482/1/482 25/1/25
f 482/1/482 23/1/23 479/1/479
f 573/34/489 572/35/483 571/36/483
f 572/35/483 573/34/489 574/37/490
f 573/34/489 575/38/491 574/37/490
f 574/37/490 575/38/491 576/39/492
f 575/38/491 577/40/375 576/39/492
f 576/39/492 577/40/375 578/41/375
f 577/40/375 579/42/493 578/41/375
f 578/41/375 579/42/493 580/43/494
f 579/42/493 581/44/495 580/43/494
f 580/43/494 581/44/495 582/45/495
f 582/45/495 581/44/495 583/46/486
f 582/45/495 583/46/486 584/47/486
f 585/48/496 586/49/497 587/50/498
f 586/49/497 585/48/496 588/51/499
f 591/52/500 590/50/498 589/53/501
f 590/50/498 591/52/500 592/48/502
f 595/40/503 594/53/504 593/54/505
f 594/53/504 595/40/503 596/52/506
f 597/55/507 599/40/503 598/54/505
f 599/40/503 597/55/507 600/56/508
f 601/57/509 603/56/510 602/55/507
f 603/56/510 601/57/509 604/58/511
f 605/59/512 607/58/513 606/57/514
f 607/58/513 605/59/512 608/60/515
f 609/61/17 610/62/17 611/63/17
f 610/62/17 609/61/17 612/64/17
f 613/65/17 614/64/17 615/66/17
f 614/64/17 613/65/17 616/62/17
f 617/67/17 618/68/17 619/69/17
f 618/68/17 617/67/17 620/70/17
f 621/68/17 622/61/17 623/63/17
f 622/61/17 621/68/17 624/70/17
f 625/71/17 626/72/17 627/73/17
f 626/72/17 625/71/17 628/74/17
f 629/72/17 630/74/17 631/75/17
f 629/72/17 631/75/17 632/76/17
f 633/77/17 634/78/17 635/75/17
f 635/75/17 634/78/17 636/76/17
f 637/71/17 638/65/17 639/66/17
f 638/65/17 637/71/17 640/73/17
f 641/79/17 642/80/17 643/81/17
f 642/80/17 641/79/17 644/82/17
f 645/83/17 646/81/17 647/84/17
f 646/81/17 645/83/17 648/79/17
f 649/85/17 650/84/17 651/86/17
f 652/84/17 653/85/17 654/83/17
f 655/82/17 656/77/17 657/80/17
f 656/77/17 655/82/17 658/78/17
f 659/86/17 660/87/17 661/85/17
f 660/87/17 659/86/17 662/88/17
f 663/88/17 664/89/17 665/87/17
f 664/89/17 663/88/17 666/90/17
f 667/89/17 668/90/17 669/91/17
f 668/90/17 670/92/17 669/91/17
f 671/93/17 672/94/17 673/92/17
f 673/92/17 672/94/17 674/91/17
f 675/95/17 676/96/17 677/97/17
f 676/96/17 675/95/17 678/98/17
f 679/93/17 680/99/17 681/94/17
f 680/99/17 682/100/17 681/94/17
f 683/100/17 684/101/17 685/102/17
f 686/101/17 687/100/17 688/99/17
f 689/102/17 690/98/17 691/95/17
f 690/98/17 689/102/17 692/101/17
f 693/103/17 694/104/17 695/105/17
f 694/104/17 693/103/17 696/106/17
f 697/106/17 698/67/17 699/104/17
f 698/67/17 700/69/17 699/104/17
f 701/97/17 702/107/17 703/108/17
f 702/107/17 701/97/17 704/96/17
f 705/108/17 706/107/17 707/105/17
f 706/107/17 708/103/17 707/105/17
f 709/109/516 710/110/517 711/111/518
f 712/112/17 709/109/516 711/111/518
f 711/111/518 710/110/517 713/113/519
f 710/110/517 714/114/520 713/113/519
f 713/113/519 714/114/520 715/115/521
f 715/115/521 714/114/520 716/116/522
f 715/115/521 716/116/522 717/117/523
f 718/114/524 719/118/525 720/119/526
f 718/114/524 720/119/526 721/120/527
f 719/118/525 718/114/524 722/110/517
f 718/114/524 721/120/527 723/116/522
f 722/110/517 724/109/528 719/118/525
f 725/121/529 719/118/525 724/109/528
f 726/112/17 725/121/529 724/109/528
f 727/120/527 728/122/530 729/123/531
f 728/122/530 727/120/527 730/119/526
f 730/119/526 731/118/525 728/122/530
f 731/118/525 732/124/532 728/122/530
f 731/118/525 733/125/533 732/124/532
f 733/125/533 731/118/525 734/121/529
f 735/112/17 733/125/533 734/121/529
f 736/112/17 737/126/534 738/125/535
f 737/126/534 739/124/532 738/125/535
f 739/124/532 737/126/534 740/127/536
f 740/127/536 741/122/537 739/124/532
f 741/122/537 740/127/536 742/128/538
f 742/128/538 743/123/531 741/122/537
f 743/123/531 742/128/538 744/129/539
f 745/130/540 746/129/541 747/128/538
f 745/130/540 747/128/538 748/131/542
f 747/128/538 749/132/543 748/131/542
f 749/132/543 747/128/538 750/127/536
f 750/127/536 751/133/544 749/132/543
f 751/133/544 750/127/536 752/126/534
f 753/112/17 751/133/544 752/126/534
f 754/134/545 755/132/543 756/133/544
f 757/112/17 754/134/545 756/133/544
f 755/132/543 754/134/545 758/135/546
f 759/136/547 755/132/543 758/135/546
f 755/132/543 759/136/547 760/131/548
f 761/137/549 760/131/548 759/136/547
f 760/131/548 761/137/549 762/130/540
f 763/138/550 764/136/547 765/135/546
f 766/134/545 763/138/550 765/135/546
f 763/138/550 766/134/545 767/139/551
f 768/112/17 767/139/551 766/134/545
f 764/136/547 763/138/550 769/140/552
f 770/141/553 764/136/547 769/140/552
f 764/136/547 770/141/553 771/137/554
f 772/142/555 773/143/556 774/144/557
f 773/143/556 772/142/555 775/145/558
f 774/144/557 776/146/559 772/142/555
f 776/146/559 774/144/557 777/147/560
f 777/147/560 778/148/561 776/146/559
f 778/148/561 777/147/560 779/149/562
f 780/112/17 778/148/561 779/149/562
f 781/142/563 782/150/564 783/151/565
f 781/142/563 784/152/566 782/150/564
f 781/142/563 783/151/565 785/145/558
f 784/152/566 781/142/563 786/146/559
f 786/146/559 787/153/567 784/152/566
f 787/153/567 786/146/559 788/148/561
f 789/112/17 787/153/567 788/148/561
f 790/112/17 791/154/568 792/153/569
f 792/153/569 791/154/568 793/155/570
f 794/152/566 792/153/569 793/155/570
f 793/155/570 795/150/564 794/152/566
f 795/150/564 793/155/570 796/156/571
f 796/156/571 797/151/572 795/150/564
f 797/151/572 796/156/571 798/157/573
f 799/157/573 801/158/574 800/159/575
f 801/158/574 799/157/573 802/156/571
f 801/158/574 802/156/571 803/155/570
f 801/158/574 803/155/570 804/160/576
f 803/155/570 805/154/568 804/160/576
f 804/160/576 805/154/568 806/161/577
f 807/112/17 806/161/577 805/154/568
f 808/160/576 809/162/578 810/163/579
f 809/162/578 808/160/576 811/161/577
f 812/112/17 809/162/578 811/161/577
f 810/163/579 813/158/574 808/160/576
f 813/158/574 810/163/579 814/164/580
f 815/165/501 813/158/574 814/164/580
f 815/165/501 816/159/581 813/158/574
f 817/166/582 818/167/583 819/168/584
f 818/167/583 820/169/585 819/168/584
f 821/112/17 820/169/585 818/167/583
f 817/166/582 819/168/584 822/170/586
f 823/171/587 817/166/582 822/170/586
f 822/170/586 824/172/588 823/171/587
f 824/172/588 822/170/586 825/173/589
f 826/174/590 827/170/591 828/168/584
f 826/174/590 829/173/589 827/170/591
f 826/174/590 828/168/584 830/175/592
f 829/173/589 826/174/590 831/176/593
f 828/168/584 832/169/585 830/175/592
f 830/175/592 832/169/585 833/177/594
f 834/112/17 833/177/594 832/169/585
f 835/174/590 836/178/595 837/179/596
f 838/180/597 835/174/590 837/179/596
f 836/178/595 835/174/590 839/175/592
f 838/180/597 840/176/593 835/174/590
f 839/175/592 841/181/598 836/178/595
f 841/181/598 839/175/592 842/177/594
f 843/112/17 841/181/598 842/177/594
f 844/112/17 845/182/599 846/181/600
f 845/182/599 847/178/595 846/181/600
f 847/178/595 845/182/599 848/183/601
f 848/183/601 849/179/602 847/178/595
f 849/179/602 848/183/601 850/184/603
f 850/184/603 851/180/597 849/179/602
f 851/180/597 850/184/603 852/185/604
f 854/185/605 855/186/606 853/187/607
f 855/186/606 854/185/605 856/184/603
f 857/183/601 855/186/606 856/184/603
f 855/186/606 857/183/601 858/188/608
f 859/182/609 858/188/608 857/183/601
f 858/188/608 859/182/609 860/189/610
f 861/112/17 860/189/610 859/182/609
f 862/111/518 863/188/608 864/189/610
f 865/112/17 862/111/518 864/189/610
f 863/188/608 862/111/518 866/113/519
f 866/113/519 867/186/611 863/188/608
f 867/186/611 866/113/519 868/115/521
f 868/115/521 869/187/607 867/186/611
f 869/187/607 868/115/521 870/117/612
f 871/144/557 872/138/550 873/147/560
f 872/138/550 871/144/557 874/140/613
f 875/139/614 873/147/560 872/138/550
f 873/147/560 875/139/614 876/149/562
f 877/112/17 876/149/562 875/139/614
f 878/143/556 874/140/613 871/144/557
f 874/140/613 878/143/556 879/141/553
f 880/190/615 881/163/579 882/191/616
f 881/163/579 883/192/617 882/191/616
f 883/192/617 881/163/579 884/162/618
f 885/112/17 883/192/617 884/162/618
f 881/163/579 880/190/615 886/164/619
f 887/193/620 886/164/619 880/190/615
f 886/164/619 887/193/620 888/165/501
f 889/194/621 890/191/616 891/195/622
f 890/191/616 889/194/621 892/190/615
f 893/192/617 891/195/622 890/191/616
f 891/195/622 893/192/617 894/196/623
f 895/112/17 894/196/623 893/192/617
f 896/197/507 892/190/615 889/194/621
f 892/190/615 896/197/507 897/193/620
f 898/198/624 899/194/625 900/199/626
f 899/194/625 901/200/627 900/199/626
f 899/194/625 898/198/624 902/197/507
f 901/200/627 899/194/625 903/195/622
f 903/195/622 904/201/628 901/200/627
f 904/201/628 903/195/622 905/196/623
f 906/112/17 904/201/628 905/196/623
f 907/112/17 908/202/629 909/201/628
f 908/202/629 910/203/630 909/201/628
f 909/201/628 910/203/630 911/200/627
f 910/203/630 912/199/626 911/200/627
f 912/199/626 910/203/630 913/204/631
f 912/199/626 913/204/631 914/205/632
f 912/199/626 914/205/632 915/198/633
f 916/167/634 917/203/630 918/202/629
f 919/112/17 916/167/634 918/202/629
f 917/203/630 916/167/634 920/166/582
f 920/166/582 921/204/631 917/203/630
f 921/204/631 920/166/582 922/171/587
f 921/204/631 922/171/587 923/172/635
f 921/204/631 923/172/635 924/205/632
f 925/43/636 926/41/6 927/42/637
f 926/41/6 928/40/6 927/42/637
f 925/43/636 927/42/637 929/44/638
f 930/45/638 925/43/636 929/44/638
f 930/45/638 929/44/638 931/206/485
f 931/206/485 932/207/485 930/45/638
f 934/35/486 933/36/486 935/34/639
f 935/34/639 936/37/639 934/35/486
f 936/37/639 935/34/639 937/208/640
f 938/209/641 936/37/639 937/208/640
f 938/209/641 937/208/640 939/40/6
f 940/41/6 938/209/641 939/40/6
f 941/50/642 942/53/589 943/52/643
f 941/50/642 943/52/643 944/48/644
f 945/53/645 946/54/646 947/40/647
f 945/53/645 947/40/647 948/52/643
f 949/55/648 951/40/647 950/54/646
f 951/40/647 949/55/648 952/56/649
f 954/57/650 955/56/649 953/55/648
f 955/56/649 954/57/650 956/58/651
f 957/59/652 958/58/653 959/57/654
f 958/58/653 957/59/652 960/60/655
f 961/50/642 963/48/656 962/210/632
f 962/210/632 963/48/656 964/51/515
f 967/34/657 966/35/485 965/36/485
f 967/34/657 968/37/657 966/35/485
f 969/38/658 968/37/657 967/34/657
f 969/38/658 970/39/658 968/37/657
f 971/40/131 970/39/658 969/38/658
f 971/40/131 972/41/131 970/39/658
f 973/42/659 972/41/131 971/40/131
f 973/42/659 974/43/659 972/41/131
f 975/44/660 974/43/659 973/42/659
f 975/44/660 976/45/661 974/43/659
f 977/206/487 976/45/661 975/44/660
f 977/206/487 978/207/487 976/45/661
f 980/50/662 979/53/522 981/52/663
f 981/52/663 982/48/664 980/50/662
f 984/53/522 983/54/665 985/40/666
f 985/40/666 986/52/667 984/53/522
f 988/55/531 989/40/666 987/54/665
f 989/40/666 988/55/531 990/211/668
f 992/212/669 993/211/670 991/55/531
f 993/211/670 992/212/669 994/58/671
f 995/58/671 996/59/672 997/60/673
f 996/59/672 995/58/671 998/212/669
f 999/210/674 1000/50/662 1001/48/664
f 1002/213/655 999/210/674 1001/48/664
f 1003/64/28 1004/214/28 1005/103/28
f 1003/64/28 1006/70/28 1007/61/28
f 1003/64/28 1008/67/28 1006/70/28
f 1005/103/28 1008/67/28 1003/64/28
f 1008/67/28 1005/103/28 1009/106/28
f 1010/80/28 1004/214/28 1003/64/28
f 1010/80/28 1003/64/28 1011/215/28
f 1004/214/28 1012/101/28 1005/103/28
f 1012/101/28 1004/214/28 1013/99/28
f 1014/98/28 1005/103/28 1012/101/28
f 1014/98/28 1015/216/28 1005/103/28
f 1015/216/28 1014/98/28 1016/217/28
f 1017/74/28 1010/80/28 1011/215/28
f 1017/74/28 1011/215/28 1018/71/28
f 1010/80/28 1017/74/28 1019/218/28
f 1019/218/28 1017/74/28 1020/75/28
f 1004/214/28 1010/80/28 1021/219/28
f 1004/214/28 1021/219/28 1022/92/28
f 1021/219/28 1010/80/28 1023/86/28
f 1021/219/28 1023/86/28 1024/88/28
f 1023/86/28 1010/80/28 1025/81/28
f 1023/86/28 1025/81/28 1026/220/28
f 1029/34/675 1028/35/487 1027/36/487
f 1028/35/487 1029/34/675 1030/37/676
f 1031/38/677 1030/37/676 1029/34/675
f 1030/37/676 1031/38/677 1032/39/677
f 1033/40/245 1032/39/677 1031/38/677
f 1032/39/677 1033/40/245 1034/41/245
f 1035/42/678 1034/41/245 1033/40/245
f 1034/41/245 1035/42/678 1036/43/679
f 1037/44/680 1036/43/679 1035/42/678
f 1036/43/679 1037/44/680 1038/45/680
f 1039/46/483 1038/45/680 1037/44/680
f 1038/45/680 1039/46/483 1040/47/483
f 1042/210/681 1041/50/682 1043/48/683
f 1043/48/683 1044/51/673 1042/210/681
f 1047/52/684 1046/50/682 1045/53/685
f 1047/52/684 1048/48/683 1046/50/682
f 1050/55/686 1051/40/687 1049/54/688
f 1051/40/687 1050/55/686 1052/56/689
f 1053/57/690 1055/56/691 1054/55/558
f 1055/56/691 1053/57/690 1056/58/692
f 1058/59/693 1059/58/692 1057/57/690
f 1059/58/692 1058/59/693 1060/60/499
f 1063/40/687 1062/53/685 1061/54/688
f 1063/40/687 1064/52/684 1062/53/685
usemtl Handle1Mtl.008
f 483/2/483 484/3/483 485/4/483
f 484/3/483 483/2/483 486/5/483
f 487/6/483 488/7/483 489/8/483
f 488/7/483 487/6/483 490/9/483
f 491/10/484 492/5/484 493/2/484
f 492/5/484 491/10/484 494/11/484
f 495/12/484 496/9/484 497/6/484
f 496/9/484 495/12/484 498/13/484
f 499/14/17 500/15/17 501/16/17
f 501/16/17 500/15/17 502/17/17
f 501/16/17 502/17/17 503/18/17
f 501/16/17 504/19/17 499/14/17
f 504/19/17 501/16/17 505/20/17
f 504/19/17 505/20/17 506/21/17
f 507/22/17 508/23/17 509/24/17
f 509/24/17 508/23/17 510/25/17
f 509/24/17 510/25/17 511/26/17
f 509/24/17 512/27/17 507/22/17
f 512/27/17 509/24/17 513/28/17
f 512/27/17 513/28/17 514/29/17
f 515/10/485 516/30/485 517/11/485
f 516/30/485 518/31/485 517/11/485
f 519/4/486 520/2/486 521/3/486
f 520/2/486 522/5/486 521/3/486
f 523/32/485 524/13/485 525/33/485
f 526/12/485 525/33/485 524/13/485
f 527/9/486 528/7/486 529/6/486
f 530/8/486 529/6/486 528/7/486
f 531/10/6 532/5/6 533/2/6
f 532/5/6 531/10/6 534/11/6
f 535/12/6 536/9/6 537/6/6
f 536/9/6 535/12/6 538/13/6
f 539/10/487 540/30/487 541/11/487
f 540/30/487 542/31/487 541/11/487
f 543/32/487 544/13/487 545/33/487
f 546/12/487 545/33/487 544/13/487
f 547/10/488 548/5/488 549/2/488
f 548/5/488 547/10/488 550/11/488
f 551/12/488 552/9/488 553/6/488
f 552/9/488 551/12/488 554/13/488
f 555/24/28 556/28/28 557/27/28
f 557/27/28 556/28/28 558/29/28
f 559/22/28 555/24/28 557/27/28
f 555/24/28 559/22/28 560/23/28
f 555/24/28 560/23/28 561/25/28
f 555/24/28 561/25/28 562/26/28
f 563/10/245 564/5/245 565/2/245
f 564/5/245 563/10/245 566/11/245
f 567/12/245 568/9/245 569/6/245
f 568/9/245 567/12/245 570/13/245
