# Blender 5.1.2
# www.blender.org
mtllib Cinderblock.mtl
o Cinderblock
v 1.213308 0.730469 -0.501740
v 1.213308 -0.739231 0.585362
v 1.213308 -0.739231 -0.501739
v 1.213308 0.730469 0.585361
v -1.209722 0.730469 -0.501740
v -1.209722 -0.739231 -0.501739
v -1.209722 0.730469 0.585361
v -1.209722 -0.739231 0.585362
v -1.209722 -0.739231 -0.501739
v 1.213308 -0.739231 -0.501739
v 1.213308 -0.739231 0.585362
v -1.209722 -0.739231 0.585362
v 1.213308 0.730469 -0.501740
v -1.209722 0.730469 -0.501740
v -1.209722 0.730469 0.585361
v 1.213308 0.730469 0.585361
v -1.209722 -0.739231 0.585362
v 0.157458 -0.430151 0.585362
v -0.159252 -0.430151 0.585362
v -0.966472 -0.430151 0.585362
v -0.159252 0.469119 0.585361
v 1.213308 -0.739231 0.585362
v -1.209722 0.730469 0.585361
v 0.964678 -0.430151 0.585362
v -0.966472 0.469119 0.585361
v 1.213308 0.730469 0.585361
v 0.157458 0.469119 0.585361
v 0.964678 0.469119 0.585361
v -1.209722 0.730469 -0.501740
v -0.966472 -0.430151 -0.501739
v -1.209722 -0.739231 -0.501739
v -0.966472 0.469119 -0.501740
v -0.159252 -0.430151 -0.501739
v 0.157458 -0.430151 -0.501739
v 1.213308 -0.739231 -0.501739
v 0.964678 -0.430151 -0.501739
v 0.964678 -0.430151 -0.501739
v 1.213308 0.730469 -0.501740
v 1.213308 -0.739231 -0.501739
v 0.964678 0.469119 -0.501740
v 0.157458 0.469119 -0.501740
v -1.209722 0.730469 -0.501740
v -0.159252 0.469119 -0.501740
v -0.966472 0.469119 -0.501740
v -0.159252 -0.430151 -0.501739
v 0.157458 -0.430151 -0.501739
v 0.157458 0.469119 -0.501740
v 0.157458 0.469119 0.585361
v 0.157458 -0.430151 -0.501739
v 0.157458 -0.430151 0.585362
v -0.159252 0.469119 -0.501740
v -0.159252 -0.430151 -0.501739
v -0.159252 -0.430151 0.585362
v -0.159252 0.469119 0.585361
v 0.964678 -0.430151 -0.501739
v 0.157458 -0.430151 -0.501739
v 0.157458 -0.430151 0.585362
v 0.964678 -0.430151 0.585362
v -0.159252 -0.430151 -0.501739
v -0.966472 -0.430151 -0.501739
v -0.966472 -0.430151 0.585362
v -0.159252 -0.430151 0.585362
v 0.964678 0.469119 -0.501740
v 0.964678 0.469119 0.585361
v 0.157458 0.469119 -0.501740
v 0.157458 0.469119 0.585361
v -0.159252 0.469119 -0.501740
v -0.159252 0.469119 0.585361
v -0.966472 0.469119 -0.501740
v -0.966472 0.469119 0.585361
v -0.966472 0.469119 -0.501740
v -0.966472 0.469119 0.585361
v -0.966472 -0.430151 -0.501739
v -0.966472 -0.430151 0.585362
v 0.964678 0.469119 -0.501740
v 0.964678 -0.430151 -0.501739
v 0.964678 -0.430151 0.585362
v 0.964678 0.469119 0.585361
vn 1.0000 -0.0000 -0.0000
vn -1.0000 -0.0000 -0.0000
vn -0.0000 -1.0000 -0.0000
vn -0.0000 1.0000 -0.0000
vn -0.0000 -0.0000 1.0000
vn -0.0000 -0.0000 -1.0000
vt 0.000000 1.000000
vt 0.111861 0.000000
vt 0.000000 0.000000
vt 0.111861 1.000000
vt 0.111861 0.210301
vt 0.111861 0.822170
vt 0.000000 0.210301
vt 0.000000 0.822170
s 1
usemtl Cinderblock1Mtl
f 1/1/1 2/2/1 3/3/1
f 2/2/1 1/1/1 4/4/1
f 5/1/2 6/3/2 7/4/2
f 6/3/2 8/2/2 7/4/2
f 9/3/3 10/3/3 11/2/3
f 9/3/3 11/2/3 12/2/3
f 13/1/4 14/1/4 15/4/4
f 13/1/4 15/4/4 16/4/4
f 17/2/5 18/5/5 19/5/5
f 17/2/5 19/5/5 20/5/5
f 21/6/5 19/5/5 18/5/5
f 18/5/5 17/2/5 22/2/5
f 23/4/5 17/2/5 20/5/5
f 22/2/5 24/5/5 18/5/5
f 20/5/5 25/6/5 23/4/5
f 21/6/5 23/4/5 25/6/5
f 22/2/5 26/4/5 24/5/5
f 21/6/5 18/5/5 27/6/5
f 27/6/5 23/4/5 21/6/5
f 23/4/5 27/6/5 26/4/5
f 26/4/5 28/6/5 24/5/5
f 26/4/5 27/6/5 28/6/5
f 29/1/6 30/7/6 31/3/6
f 30/7/6 29/1/6 32/8/6
f 33/7/6 31/3/6 30/7/6
f 34/7/6 31/3/6 33/7/6
f 31/3/6 34/7/6 35/3/6
f 34/7/6 36/7/6 35/3/6
f 37/7/6 38/1/6 39/3/6
f 38/1/6 37/7/6 40/8/6
f 41/8/6 38/1/6 40/8/6
f 41/8/6 42/1/6 38/1/6
f 42/1/6 41/8/6 43/8/6
f 42/1/6 43/8/6 44/8/6
f 45/7/6 43/8/6 41/8/6
f 45/7/6 41/8/6 46/7/6
f 47/8/1 48/6/1 49/7/1
f 49/7/1 48/6/1 50/5/1
f 51/8/2 52/7/2 53/5/2
f 51/8/2 53/5/2 54/6/2
f 55/7/4 56/7/4 57/5/4
f 55/7/4 57/5/4 58/5/4
f 59/7/4 60/7/4 61/5/4
f 59/7/4 61/5/4 62/5/4
f 63/8/3 64/6/3 65/8/3
f 65/8/3 64/6/3 66/6/3
f 67/8/3 68/6/3 69/8/3
f 69/8/3 68/6/3 70/6/3
f 71/8/1 72/6/1 73/7/1
f 73/7/1 72/6/1 74/5/1
f 75/8/2 76/7/2 77/5/2
f 75/8/2 77/5/2 78/6/2
