# Blender 5.1.2
# www.blender.org
mtllib DoorB.mtl
o DoorB
v -0.254504 1.930721 -0.640469
v 0.330397 -0.921099 1.233635
v 0.330397 -0.921099 -1.523868
v -0.254504 1.930721 1.233635
v -0.444604 1.930721 1.233635
v -0.254504 1.930721 -0.640469
v -0.444604 1.930721 -0.640469
v -0.254504 1.930721 1.233635
v -0.444604 1.930721 1.233635
v 0.140296 -0.921099 1.233635
v -0.254504 1.930721 1.233635
v 0.330397 -0.921099 1.233635
v -0.444604 1.930721 -0.640469
v 0.140296 -0.921099 1.233635
v -0.444604 1.930721 1.233635
v 0.140296 -0.921099 -1.523868
v 0.140296 -0.921099 1.233635
v 0.140296 -0.921099 -1.523868
v 0.330397 -0.921099 -1.523868
v 0.330397 -0.921099 1.233635
v -0.254504 1.930721 -0.640469
v 0.140296 -0.921099 -1.523868
v -0.444604 1.930721 -0.640469
v 0.330397 -0.921099 -1.523868
v 0.383396 -2.697959 1.377533
v 0.383396 -0.921449 1.235832
v 0.383396 -0.921449 1.377533
v 0.383396 -0.921449 -1.521667
v 0.383396 -2.697959 -1.667766
v 0.383396 -0.921449 -1.667766
v -0.228404 2.061591 -0.760765
v -0.228404 2.061591 1.377533
v -0.201504 1.930371 1.235832
v 0.383396 -0.921449 1.377533
v 0.383396 -0.921449 1.235832
v -0.201504 1.930371 -0.638268
v 0.383396 -0.921449 -1.667766
v 0.383396 -0.921449 -1.521667
v -0.518504 2.061591 -0.760765
v -0.518504 2.061591 1.377533
v -0.228404 2.061591 -0.760765
v -0.228404 2.061591 1.377533
v 0.093296 -0.921449 1.235832
v 0.383396 -0.921449 -1.521667
v 0.093296 -0.921449 -1.521667
v 0.383396 -0.921449 1.235832
v 0.093296 -0.921449 1.377533
v 0.093296 -2.697959 1.377533
v 0.383396 -2.697959 1.377533
v 0.383396 -0.921449 1.377533
v -0.228404 2.061591 1.377533
v -0.518504 2.061591 1.377533
v 0.093296 -0.921449 -1.521667
v -0.201504 1.930371 -0.638268
v -0.491604 1.930371 -0.638268
v 0.383396 -0.921449 -1.521667
v -0.518504 2.061591 -0.760765
v -0.491604 1.930371 1.235832
v -0.518504 2.061591 1.377533
v 0.093296 -0.921449 1.377533
v 0.093296 -0.921449 1.235832
v -0.491604 1.930371 -0.638268
v 0.093296 -0.921449 -1.667766
v 0.093296 -0.921449 -1.521667
v 0.093296 -2.697959 -1.667766
v 0.093296 -0.921449 -1.521667
v 0.093296 -0.921449 -1.667766
v 0.093296 -2.697959 1.377533
v 0.093296 -0.921449 1.235832
v 0.093296 -0.921449 1.377533
v 0.383396 -2.697959 -1.667766
v 0.383396 -2.697959 1.377533
v 0.093296 -2.697959 -1.667766
v 0.093296 -2.697959 1.377533
v -0.491604 1.930371 1.235832
v -0.491604 1.930371 -0.638268
v -0.201504 1.930371 -0.638268
v -0.201504 1.930371 1.235832
v 0.383396 -0.921449 -1.667766
v 0.383396 -2.697959 -1.667766
v 0.093296 -0.921449 -1.667766
v 0.093296 -2.697959 -1.667766
v -0.228404 2.061591 -0.760765
v 0.093296 -0.921449 -1.667766
v -0.518504 2.061591 -0.760765
v 0.383396 -0.921449 -1.667766
v 0.093296 -0.921449 1.235832
v -0.491604 1.930371 1.235832
v -0.201504 1.930371 1.235832
v 0.383396 -0.921449 1.235832
vn 0.9787 0.2052 -0.0000
vn -0.0000 1.0000 -0.0000
vn -0.0000 -0.0000 1.0000
vn -0.9787 -0.2052 -0.0000
vn -0.0000 -1.0000 -0.0000
vn -0.0000 0.2996 -0.9541
vn -0.0000 0.2996 -0.9540
vn 1.0000 -0.0000 -0.0000
vn -0.0000 -0.2996 0.9541
vn -1.0000 -0.0000 -0.0000
vn -0.0000 -0.0000 -1.0000
vn -0.0000 0.2904 -0.9569
vn -0.0000 0.2903 -0.9569
vt 3.152870 -0.138625
vt 1.278730 -2.990450
vt 4.036280 -2.990450
vt 1.278730 -0.138625
vt 3.044990 -0.185761
vt 2.854900 -2.059900
vt 3.044990 -2.059900
vt 2.854900 -0.185761
vt 2.270020 -0.138625
vt 2.854900 -2.990450
vt 2.460110 -0.138625
vt 3.044990 -2.990450
vt 2.162140 -0.138625
vt 4.036280 -0.138625
vt 2.854900 -2.943310
vt 3.044990 -2.943310
vt 2.854900 -0.138625
vt 2.460110 -2.990450
vt 3.044990 -0.138625
vt 2.270020 -2.990450
vt -3.714540 -3.375240
vt -3.686190 -3.019930
vt -3.714540 -3.019930
vt -3.134680 -3.019930
vt -3.105470 -3.375240
vt -3.105470 -3.019930
vt -3.286870 -2.423330
vt -3.714540 -2.423330
vt -3.686190 -2.449570
vt -3.311360 -2.449570
vt -3.319820 -3.022410
vt -3.319820 -2.594750
vt -3.377830 -3.022410
vt -3.377830 -2.594750
vt -3.442170 -2.623090
vt -3.500190 -3.174600
vt -3.442170 -3.174600
vt -3.500190 -2.623090
vt -3.377830 -3.019930
vt -3.377830 -3.375240
vt -3.319820 -3.375240
vt -3.319820 -3.019930
vt -3.442170 -2.423330
vt -3.500190 -2.423330
vt -3.436790 -2.449570
vt -3.494810 -2.449570
vt -3.533140 -2.423330
vt -3.133820 -2.449570
vt -3.105470 -2.423330
vt -3.133820 -3.019930
vt -3.508640 -2.449570
vt -3.685330 -3.019930
vt -3.319820 -3.203810
vt -3.377830 -3.203810
vt -3.494810 -2.623090
vt -3.494810 -2.997920
vt -3.436790 -2.997920
vt -3.436790 -2.623090
vt -3.500190 -3.019930
vt -3.500190 -3.375240
vt -3.442170 -3.019930
vt -3.442170 -3.375240
vt -3.377830 -2.423330
vt -3.319820 -2.423330
vt -3.325200 -2.449570
vt -3.383220 -2.449570
s 1
usemtl Glass1Mtl.001
f 1/1/1 2/2/1 3/3/1
f 2/2/1 1/1/1 4/4/1
f 5/5/2 6/6/2 7/7/2
f 6/6/2 5/5/2 8/8/2
f 9/9/3 10/10/3 11/11/3
f 12/12/3 11/11/3 10/10/3
f 13/13/4 14/3/4 15/14/4
f 14/3/4 13/13/4 16/2/4
f 17/8/5 18/15/5 19/16/5
f 19/16/5 20/5/5 17/8/5
f 21/17/6 22/18/6 23/19/7
f 22/18/6 21/17/6 24/20/7
usemtl Door1Mtl.002
f 25/21/8 26/22/8 27/23/8
f 25/21/8 28/24/8 26/22/8
f 28/24/8 25/21/8 29/25/8
f 28/24/8 29/25/8 30/26/8
f 31/27/1 32/28/1 33/29/1
f 34/23/1 33/29/1 32/28/1
f 33/29/1 34/23/1 35/22/1
f 31/27/1 33/29/1 36/30/1
f 36/30/1 37/26/1 31/27/1
f 37/26/1 36/30/1 38/24/1
f 39/31/2 40/32/2 41/33/2
f 41/33/2 40/32/2 42/34/2
f 43/35/2 44/36/2 45/37/2
f 44/36/2 43/35/2 46/38/2
f 47/39/3 48/40/3 49/41/3
f 49/41/3 50/42/3 47/39/3
f 50/42/3 51/43/3 47/39/3
f 47/39/3 51/43/3 52/44/3
f 53/39/9 54/45/9 55/46/9
f 54/45/9 53/39/9 56/42/9
f 57/47/4 58/48/4 59/49/4
f 58/48/4 60/26/4 59/49/4
f 58/48/4 61/50/4 60/26/4
f 58/48/4 57/47/4 62/51/4
f 63/23/4 62/51/4 57/47/4
f 62/51/4 63/23/4 64/52/4
f 65/21/10 66/52/10 67/23/10
f 68/25/10 66/52/10 65/21/10
f 66/52/10 68/25/10 69/50/10
f 69/50/10 68/25/10 70/26/10
f 71/53/5 72/32/5 73/54/5
f 73/54/5 72/32/5 74/34/5
f 75/55/5 76/56/5 77/57/5
f 77/57/5 78/58/5 75/55/5
f 79/59/11 80/60/11 81/61/11
f 81/61/11 80/60/11 82/62/11
f 83/63/12 84/61/12 85/64/13
f 84/61/12 83/63/12 86/59/13
f 87/61/11 88/65/11 89/66/11
f 89/66/11 90/59/11 87/61/11
