# Blender 5.1.2
# www.blender.org
mtllib DoorC.mtl
o DoorC
v -0.130356 -0.807490 -1.243957
v 0.454544 2.044330 0.815243
v -0.130356 -0.807490 1.214241
v 0.454544 2.044330 -1.243958
v 0.454544 2.044330 0.815243
v 0.454544 2.044330 -1.243958
v 0.264444 2.044330 -1.243958
v 0.264444 2.044330 0.815243
v -0.130356 -0.807490 1.214241
v 0.264444 2.044330 0.815243
v -0.320456 -0.807490 1.214241
v 0.454544 2.044330 0.815243
v -0.320456 -0.807490 -1.243957
v 0.264444 2.044330 0.815243
v 0.264444 2.044330 -1.243958
v -0.320456 -0.807490 1.214241
v -0.130356 -0.807490 -1.243957
v -0.130356 -0.807490 1.214241
v -0.320456 -0.807490 -1.243957
v -0.320456 -0.807490 1.214241
v -0.130356 -0.807490 -1.243957
v 0.264444 2.044330 -1.243958
v 0.454544 2.044330 -1.243958
v -0.320456 -0.807490 -1.243957
v -0.076756 -0.807840 -1.395157
v 0.535046 2.175200 -1.395157
v 0.508144 2.043980 -1.253357
v -0.076756 -0.807840 -1.253357
v 0.535046 2.175200 0.939743
v 0.508144 2.043980 0.805843
v -0.076756 -0.807840 1.382740
v -0.076756 -0.807840 1.204743
v -0.076756 -1.704135 1.382740
v -0.076756 -0.807840 -1.253357
v -0.076756 -0.807840 1.204743
v -0.076756 -0.807840 1.382740
v -0.076756 -2.584347 0.990341
v -0.076756 -2.584347 -1.395157
v -0.076756 -0.807840 -1.395157
v 0.535046 2.175200 0.939743
v 0.535046 2.175200 -1.395157
v 0.244946 2.175200 -1.395157
v 0.244946 2.175200 0.939743
v -0.366856 -0.807840 -1.253357
v -0.076756 -0.807840 1.204743
v -0.076756 -0.807840 -1.253357
v -0.366856 -0.807840 1.204743
v -0.076756 -2.584347 0.990341
v -0.366856 -1.704135 1.382740
v -0.366856 -2.584347 0.990341
v -0.076756 -1.704135 1.382740
v -0.076756 -1.704135 1.382740
v -0.076756 -0.807840 1.382740
v -0.366856 -1.704135 1.382740
v -0.366856 -0.807840 1.382740
v -0.076756 -0.807840 1.382740
v 0.244946 2.175200 0.939743
v -0.366856 -0.807840 1.382740
v 0.535046 2.175200 0.939743
v -0.076756 -0.807840 -1.253357
v 0.218044 2.043980 -1.253357
v -0.366856 -0.807840 -1.253357
v 0.508144 2.043980 -1.253357
v -0.366856 -2.584347 -1.395157
v -0.366856 -2.584347 0.990341
v -0.366856 -0.807840 -1.253357
v -0.366856 -0.807840 -1.395157
v -0.366856 -1.704135 1.382740
v -0.366856 -0.807840 1.204743
v -0.366856 -0.807840 1.382740
v -0.366856 -0.807840 -1.395157
v 0.218044 2.043980 -1.253357
v 0.244946 2.175200 -1.395157
v -0.366856 -0.807840 -1.253357
v 0.244946 2.175200 0.939743
v 0.218044 2.043980 0.805843
v -0.366856 -0.807840 1.382740
v -0.366856 -0.807840 1.204743
v -0.076756 -2.584347 -1.395157
v -0.366856 -2.584347 0.990341
v -0.366856 -2.584347 -1.395157
v -0.076756 -2.584347 0.990341
v 0.508144 2.043980 -1.253357
v 0.508144 2.043980 0.805843
v 0.218044 2.043980 -1.253357
v 0.218044 2.043980 0.805843
v -0.076756 -0.807840 -1.395157
v -0.366856 -2.584347 -1.395157
v -0.366856 -0.807840 -1.395157
v -0.076756 -2.584347 -1.395157
v 0.244946 2.175200 -1.395157
v 0.535046 2.175200 -1.395157
v 0.508144 2.043980 0.805843
v -0.076756 -0.807840 1.204743
v 0.218044 2.043980 0.805843
v -0.366856 -0.807840 1.204743
vn 0.9787 -0.2052 -0.0000
vn -0.0000 1.0000 -0.0000
vn -0.0000 0.1414 0.9900
vn -0.0000 0.1415 0.9899
vn -0.9787 0.2052 -0.0000
vn -0.0000 -1.0000 -0.0000
vn -0.0000 -0.0000 -1.0000
vn 1.0000 -0.0000 -0.0000
vn -0.0000 -0.4091 0.9125
vn -0.0000 -0.4090 0.9125
vn -0.0000 -0.0000 1.0000
vn -0.0000 0.1491 0.9888
vn -1.0000 -0.0000 -0.0000
vn -0.0000 -0.1415 -0.9899
vn -0.0000 -0.1414 -0.9899
vn -0.0000 -0.1414 -0.9900
vt 2.489340 0.642650
vt 0.430118 3.494470
vt 0.031163 0.642650
vt 2.489340 3.494470
vt 0.872769 2.898690
vt 0.872769 0.839475
vt 1.062860 0.839475
vt 1.062860 2.898690
vt 1.062860 0.642650
vt 1.457640 3.494470
vt 0.872769 0.642650
vt 1.647730 3.494470
vt 0.031163 0.642650
vt 2.090380 3.494470
vt 0.031163 3.494470
vt 1.062860 3.297650
vt 0.872769 3.297650
vt 1.457640 0.642650
vt 1.062860 3.494470
vt 0.872769 3.494470
vt 1.647730 0.642650
vt 1.899710 4.184600
vt 1.899710 4.781210
vt 1.871370 4.754960
vt 1.871370 4.184600
vt 1.432750 4.781210
vt 1.459520 4.754960
vt 1.344140 4.184600
vt 1.379730 4.184600
vt 1.344140 4.005340
vt 1.422630 3.829300
vt 1.899710 3.829300
vt 1.531740 4.494430
vt 1.531740 4.027460
vt 1.589750 4.027460
vt 1.589750 4.494430
vt 1.712110 4.055810
vt 1.654090 4.547440
vt 1.654090 4.055810
vt 1.712110 4.547440
vt 1.589750 3.829300
vt 1.531740 4.005340
vt 1.531740 3.829300
vt 1.589750 4.005340
vt 1.589750 4.184600
vt 1.531740 4.184600
vt 1.654090 4.781210
vt 1.712110 4.781210
vt 1.648710 4.754960
vt 1.706730 4.754960
vt 1.344140 3.829300
vt 1.821220 3.829300
vt 1.372480 4.184600
vt 1.899710 4.005340
vt 1.864120 4.184600
vt 1.372480 4.754960
vt 1.344140 4.781210
vt 1.811100 4.781210
vt 1.784330 4.754960
vt 1.531740 4.504550
vt 1.589750 4.504550
vt 1.706730 4.055810
vt 1.706730 4.467650
vt 1.648710 4.055810
vt 1.648710 4.467650
vt 1.654090 4.184600
vt 1.712110 3.829300
vt 1.712110 4.184600
vt 1.654090 3.829300
vt 1.589750 4.781210
vt 1.531740 4.781210
vt 1.537120 4.754960
vt 1.595140 4.754960
s 1
usemtl Glass1Mtl.002
f 1/1/1 2/2/1 3/3/1
f 2/2/1 1/1/1 4/4/1
f 5/5/2 6/6/2 7/7/2
f 7/7/2 8/8/2 5/5/2
f 9/9/3 10/10/4 11/11/3
f 10/10/4 9/9/3 12/12/3
f 13/13/5 14/14/5 15/15/5
f 14/14/5 13/13/5 16/1/5
f 17/7/6 18/16/6 19/6/6
f 19/6/6 18/16/6 20/17/6
f 21/18/7 22/19/7 23/20/7
f 22/19/7 21/18/7 24/21/7
usemtl Door1Mtl.003
f 25/22/1 26/23/1 27/24/1
f 25/22/1 27/24/1 28/25/1
f 26/23/1 29/26/1 27/24/1
f 27/24/1 29/26/1 30/27/1
f 31/28/1 30/27/1 29/26/1
f 30/27/1 31/28/1 32/29/1
f 33/30/8 34/25/8 35/29/8
f 33/30/8 35/29/8 36/28/8
f 34/25/8 33/30/8 37/31/8
f 38/32/8 34/25/8 37/31/8
f 34/25/8 38/32/8 39/22/8
f 40/33/2 41/34/2 42/35/2
f 42/35/2 43/36/2 40/33/2
f 44/37/2 45/38/2 46/39/2
f 45/38/2 44/37/2 47/40/2
f 48/41/9 49/42/9 50/43/10
f 49/42/9 48/41/9 51/44/10
f 52/44/11 53/45/11 54/42/11
f 54/42/11 53/45/11 55/46/11
f 56/45/12 57/47/12 58/46/12
f 57/47/12 56/45/12 59/48/12
f 60/45/11 61/49/11 62/46/11
f 61/49/11 60/45/11 63/50/11
f 64/51/13 65/52/13 66/53/13
f 67/28/13 64/51/13 66/53/13
f 68/54/13 66/53/13 65/52/13
f 66/53/13 68/54/13 69/55/13
f 68/54/13 70/22/13 69/55/13
f 71/28/5 72/56/5 73/57/5
f 72/56/5 71/28/5 74/53/5
f 75/58/5 73/57/5 72/56/5
f 75/58/5 72/56/5 76/59/5
f 77/22/5 75/58/5 76/59/5
f 76/59/5 78/55/5 77/22/5
f 79/35/6 80/60/6 81/34/6
f 80/60/6 79/35/6 82/61/6
f 83/62/6 84/63/6 85/64/6
f 85/64/6 84/63/6 86/65/6
f 87/66/7 88/67/7 89/68/7
f 88/67/7 87/66/7 90/69/7
f 89/68/7 91/70/7 87/66/7
f 92/71/7 87/66/7 91/70/7
f 93/72/14 94/66/15 95/73/15
f 95/73/15 94/66/15 96/68/16
