# Blender 5.1.2
# www.blender.org
mtllib DoorA.mtl
o DoorA
v 0.439786 1.930721 -0.640469
v -0.145094 -0.921099 1.233635
v -0.145094 -0.921099 -1.523868
v 0.439786 1.930721 1.233635
v 0.439786 1.930721 1.233635
v 0.439786 1.930721 -0.640469
v 0.249696 1.930721 -0.640469
v 0.249696 1.930721 1.233635
v -0.145094 -0.921099 1.233635
v 0.249696 1.930721 1.233635
v -0.335224 -0.921099 1.233635
v 0.439786 1.930721 1.233635
v 0.249696 1.930721 -0.640469
v -0.335224 -0.921099 1.233635
v 0.249696 1.930721 1.233635
v -0.335224 -0.921099 -1.523868
v -0.145094 -0.921099 -1.523868
v -0.145094 -0.921099 1.233635
v -0.335224 -0.921099 -1.523868
v -0.335224 -0.921099 1.233635
v -0.145094 -0.921099 -1.523868
v 0.249696 1.930721 -0.640469
v 0.439786 1.930721 -0.640469
v -0.335224 -0.921099 -1.523868
v 0.520236 2.061591 -0.760765
v 0.493326 1.930371 1.235832
v 0.493326 1.930371 -0.638268
v -0.091544 -0.921449 -1.667766
v -0.091544 -0.921449 -1.521667
v 0.520236 2.061591 1.377533
v -0.091544 -0.921449 1.377533
v -0.091544 -0.921449 1.235832
v -0.091544 -0.921449 -1.521667
v -0.091544 -2.697959 -1.667766
v -0.091544 -0.921449 -1.667766
v -0.091544 -2.697959 1.377533
v -0.091544 -0.921449 1.235832
v -0.091544 -0.921449 1.377533
v 0.520236 2.061591 1.377533
v 0.520236 2.061591 -0.760765
v 0.230146 2.061591 -0.760765
v 0.230146 2.061591 1.377533
v -0.091544 -0.921449 1.235832
v -0.091544 -0.921449 -1.521667
v -0.381624 -0.921449 -1.521667
v -0.381624 -0.921449 1.235832
v -0.091544 -2.697959 1.377533
v -0.091544 -0.921449 1.377533
v -0.381624 -2.697959 1.377533
v -0.381624 -0.921449 1.377533
v 0.230146 2.061591 1.377533
v 0.520236 2.061591 1.377533
v -0.091544 -0.921449 -1.521667
v 0.203237 1.930371 -0.638268
v -0.381624 -0.921449 -1.521667
v 0.493326 1.930371 -0.638268
v -0.381624 -2.697959 -1.667766
v -0.381624 -2.697959 1.377533
v -0.381624 -0.921449 -1.521667
v -0.381624 -0.921449 -1.667766
v -0.381624 -0.921449 1.235832
v -0.381624 -0.921449 1.377533
v 0.203237 1.930371 1.235832
v 0.230146 2.061591 -0.760765
v 0.203237 1.930371 -0.638268
v -0.381624 -0.921449 -1.667766
v -0.381624 -0.921449 -1.521667
v 0.230146 2.061591 1.377533
v -0.381624 -0.921449 1.377533
v -0.381624 -0.921449 1.235832
v -0.091544 -2.697959 -1.667766
v -0.381624 -2.697959 1.377533
v -0.381624 -2.697959 -1.667766
v -0.091544 -2.697959 1.377533
v 0.493326 1.930371 1.235832
v 0.203237 1.930371 -0.638268
v 0.493326 1.930371 -0.638268
v 0.203237 1.930371 1.235832
v -0.091544 -0.921449 -1.667766
v -0.381624 -2.697959 -1.667766
v -0.381624 -0.921449 -1.667766
v -0.091544 -2.697959 -1.667766
v -0.091544 -0.921449 -1.667766
v 0.230146 2.061591 -0.760765
v 0.520236 2.061591 -0.760765
v -0.381624 -0.921449 -1.667766
v 0.493326 1.930371 1.235832
v -0.091544 -0.921449 1.235832
v 0.203237 1.930371 1.235832
v -0.381624 -0.921449 1.235832
vn 0.9787 -0.2052 -0.0000
vn -0.0000 1.0000 -0.0000
vn -0.0000 -0.0000 1.0000
vn -0.9787 0.2052 -0.0000
vn -0.0000 -1.0000 -0.0000
vn -0.0000 0.2996 -0.9541
vn 1.0000 -0.0000 -0.0000
vn -0.0000 -0.2996 0.9541
vn -1.0000 -0.0000 -0.0000
vn -0.0000 -0.0000 -1.0000
vn -0.0000 0.2903 -0.9569
vn -0.0000 0.2902 -0.9570
vt -0.350405 0.526119
vt -2.224550 -2.325700
vt 0.533004 -2.325700
vt -2.224550 0.526119
vt -1.233250 0.478982
vt -1.233250 -1.395160
vt -1.043160 -1.395160
vt -1.043160 0.478982
vt -1.043160 -2.325700
vt -0.648380 0.526119
vt -1.233250 -2.325700
vt -0.458290 0.526119
vt -1.341140 0.526119
vt 0.533004 0.526119
vt -1.043160 -2.278570
vt -1.233250 -2.278570
vt -0.648380 -2.325700
vt -1.043160 0.526119
vt -1.233250 0.526119
vt -0.458290 -2.325700
vt 1.219130 5.366110
vt 0.819810 5.339870
vt 1.194640 5.339870
vt 1.400530 4.769500
vt 1.371320 4.769500
vt 0.791464 5.366110
vt 0.791464 4.769500
vt 0.819810 4.769500
vt 1.400530 4.414200
vt 0.791464 4.414200
vt 1.005810 5.194690
vt 1.005810 4.767020
vt 1.063830 4.767020
vt 1.063830 5.194690
vt 1.128170 5.166340
vt 1.128170 4.614830
vt 1.186190 4.614830
vt 1.186190 5.166340
vt 1.063830 4.414200
vt 1.063830 4.769500
vt 1.005810 4.414200
vt 1.005810 4.769500
vt 1.128170 5.366110
vt 1.186190 5.366110
vt 1.122790 5.339870
vt 1.180800 5.339870
vt 0.820677 4.769500
vt 1.372190 4.769500
vt 1.372190 5.339870
vt 0.972865 5.366110
vt 0.997359 5.339870
vt 1.400530 5.366110
vt 1.063830 4.585620
vt 1.005810 4.585620
vt 1.180800 5.166340
vt 1.122790 4.791520
vt 1.180800 4.791520
vt 1.122790 5.166340
vt 1.128170 4.769500
vt 1.186190 4.414200
vt 1.186190 4.769500
vt 1.128170 4.414200
vt 1.063830 5.366110
vt 1.005810 5.366110
vt 1.011190 5.339870
vt 1.069210 5.339870
s 1
usemtl Glass1Mtl
f 1/1/1 2/2/1 3/3/1
f 2/2/1 1/1/1 4/4/1
f 5/5/2 6/6/2 7/7/2
f 7/7/2 8/8/2 5/5/2
f 9/9/3 10/10/3 11/11/3
f 10/10/3 9/9/3 12/12/3
f 13/13/4 14/3/4 15/14/4
f 14/3/4 13/13/4 16/2/4
f 17/15/5 18/8/5 19/16/5
f 19/16/5 18/8/5 20/5/5
f 21/17/6 22/18/6 23/19/6
f 22/18/6 21/17/6 24/20/6
usemtl Door1Mtl.001
f 25/21/1 26/22/1 27/23/1
f 27/23/1 28/24/1 25/21/1
f 28/24/1 27/23/1 29/25/1
f 26/22/1 25/21/1 30/26/1
f 30/26/1 31/27/1 26/22/1
f 32/28/1 26/22/1 31/27/1
f 33/25/7 34/29/7 35/24/7
f 34/29/7 33/25/7 36/30/7
f 36/30/7 33/25/7 37/28/7
f 36/30/7 37/28/7 38/27/7
f 39/31/2 40/32/2 41/33/2
f 41/33/2 42/34/2 39/31/2
f 43/35/2 44/36/2 45/37/2
f 45/37/2 46/38/2 43/35/2
f 47/39/3 48/40/3 49/41/3
f 49/41/3 48/40/3 50/42/3
f 51/43/3 50/42/3 48/40/3
f 48/40/3 52/44/3 51/43/3
f 53/40/8 54/45/8 55/42/8
f 54/45/8 53/40/8 56/46/8
f 57/30/9 58/29/9 59/47/9
f 57/30/9 59/47/9 60/27/9
f 58/29/9 61/48/9 59/47/9
f 61/48/9 58/29/9 62/24/9
f 63/49/4 64/50/4 65/51/4
f 66/27/4 65/51/4 64/50/4
f 65/51/4 66/27/4 67/47/4
f 68/52/4 64/50/4 63/49/4
f 63/49/4 69/24/4 68/52/4
f 69/24/4 63/49/4 70/48/4
f 71/53/5 72/31/5 73/54/5
f 72/31/5 71/53/5 74/34/5
f 75/55/5 76/56/5 77/57/5
f 76/56/5 75/55/5 78/58/5
f 79/59/10 80/60/10 81/61/10
f 80/60/10 79/59/10 82/62/10
f 83/59/11 84/63/11 85/64/11
f 84/63/11 83/59/11 86/61/12
f 87/65/10 88/59/10 89/66/10
f 89/66/10 88/59/10 90/61/10
