# Blender 5.1.2
# www.blender.org
mtllib GasCap.mtl
o GasCap
v 0.049999 0.322299 -0.322300
v 0.049999 0.322300 0.322300
v 0.049999 -0.322300 -0.322300
v 0.049999 -0.322300 0.322300
v -0.050001 0.322300 0.322300
v 0.049999 0.322300 0.322300
v -0.050001 0.322299 -0.322300
v 0.049999 0.322299 -0.322300
v 0.049999 0.322300 0.322300
v -0.050001 0.322300 0.322300
v 0.049999 -0.322300 0.322300
v -0.050001 -0.322300 0.322300
v -0.050001 0.322300 0.322300
v -0.050001 0.322299 -0.322300
v -0.050001 -0.322300 0.322300
v -0.050001 -0.322300 -0.322300
v -0.050001 -0.322300 -0.322300
v 0.049999 -0.322300 -0.322300
v -0.050001 -0.322300 0.322300
v 0.049999 -0.322300 0.322300
v -0.050001 0.322299 -0.322300
v 0.049999 0.322299 -0.322300
v -0.050001 -0.322300 -0.322300
v 0.049999 -0.322300 -0.322300
vn 1.0000 -0.0000 -0.0000
vn -0.0000 1.0000 -0.0000
vn -0.0000 -0.0000 1.0000
vn -1.0000 -0.0000 -0.0000
vn -0.0000 -1.0000 -0.0000
vn -0.0000 -0.0000 -1.0000
vt 0.244572 1.049580
vt 0.115652 1.049580
vt 0.244572 0.920663
vt 0.115652 0.920663
vt 0.135652 1.049580
vt 0.135652 0.920663
s 1
usemtl Door1Mtl.005
f 1/1/1 2/2/1 3/3/1
f 3/3/1 2/2/1 4/4/1
f 5/5/2 6/2/2 7/6/2
f 7/6/2 6/2/2 8/4/2
f 9/5/3 10/2/3 11/6/3
f 11/6/3 10/2/3 12/4/3
f 13/1/4 14/2/4 15/3/4
f 15/3/4 14/2/4 16/4/4
f 17/5/5 18/2/5 19/6/5
f 19/6/5 18/2/5 20/4/5
f 21/5/6 22/2/6 23/6/6
f 23/6/6 22/2/6 24/4/6
