# Blender 5.1.2
# www.blender.org
mtllib Gate-NOT.mtl
o Gate-NOT
v 0.405058 -0.067257 -0.627203
v -0.394942 -0.067257 -0.627203
v 0.405058 -0.067257 1.572796
v -0.394942 -0.067257 1.572796
v -0.394942 -0.267257 -0.627203
v -0.394942 -0.067257 -0.627203
v 0.405058 -0.267257 -0.627203
v 0.405058 -0.067257 -0.627203
v -0.394942 -0.067257 -0.627203
v -0.394942 -0.267257 -0.627203
v -0.394942 -0.067257 1.572796
v -0.394942 -0.267257 1.572796
v -0.394942 -0.267257 -0.627203
v 0.405058 -0.267257 -0.627203
v -0.394942 -0.267257 1.572796
v 0.405058 -0.267257 1.572796
v 0.405058 -0.267257 1.572796
v 0.405058 -0.067257 1.572796
v -0.394942 -0.267257 1.572796
v -0.394942 -0.067257 1.572796
v 0.405058 -0.267257 -0.627203
v 0.405058 -0.067257 -0.627203
v 0.405058 -0.267257 1.572796
v 0.405058 -0.067257 1.572796
v 0.210078 0.057743 -0.446404
v 0.210078 -0.092257 -0.446404
v 0.257759 0.057743 -0.384304
v 0.257759 -0.092257 -0.384304
v 0.287728 0.057743 -0.311903
v 0.287728 -0.092257 -0.311903
v 0.297948 0.057743 -0.234304
v 0.297948 -0.092257 -0.234304
v 0.287728 0.057743 -0.156605
v 0.287728 -0.092257 -0.156605
v 0.257759 0.057743 -0.084305
v 0.257759 -0.092257 -0.084305
v 0.210078 0.057743 -0.022104
v 0.210078 -0.092257 -0.022104
v -0.205922 0.057743 -0.116604
v -0.160362 0.026093 -0.076004
v -0.195941 0.026093 -0.122303
v -0.168501 0.057743 -0.067804
v -0.218302 0.026093 -0.176304
v -0.195941 0.026093 -0.122303
v -0.229432 0.057743 -0.173304
v -0.205922 0.057743 -0.116604
v -0.225932 0.026093 -0.234304
v -0.218302 0.026093 -0.176304
v -0.237452 0.057743 -0.234304
v -0.229432 0.057743 -0.173304
v -0.218302 0.026093 -0.292204
v -0.225932 0.026093 -0.234304
v -0.237452 0.057743 -0.234304
v -0.229432 0.057743 -0.295204
v -0.195941 0.026093 -0.346205
v -0.218302 0.026093 -0.292204
v -0.229432 0.057743 -0.295204
v -0.205922 0.057743 -0.352003
v -0.160362 0.026093 -0.392605
v -0.195941 0.026093 -0.346205
v -0.205922 0.057743 -0.352003
v -0.168501 0.057743 -0.400703
v -0.152051 0.057743 -0.494104
v -0.168501 0.057743 -0.400703
v -0.119751 0.057743 -0.438105
v -0.214181 0.057743 -0.446404
v -0.205922 0.057743 -0.352003
v -0.214181 0.057743 -0.446404
v -0.261852 0.057743 -0.384304
v -0.168501 0.057743 -0.400703
v -0.002052 0.057743 -0.534304
v -0.062972 0.057743 -0.461603
v -0.002052 0.057743 -0.469704
v -0.079691 0.057743 -0.524004
v -0.062972 0.057743 -0.461603
v -0.152051 0.057743 -0.494104
v -0.119751 0.057743 -0.438105
v -0.079691 0.057743 -0.524004
v -0.291831 0.057743 -0.311903
v -0.237452 0.057743 -0.234304
v -0.229432 0.057743 -0.295204
v -0.302052 0.057743 -0.234304
v -0.237452 0.057743 -0.234304
v -0.302052 0.057743 -0.234304
v -0.291831 0.057743 -0.156605
v -0.229432 0.057743 -0.173304
v -0.261852 0.057743 -0.084305
v -0.205922 0.057743 -0.116604
v -0.291831 0.057743 -0.156605
v -0.229432 0.057743 -0.173304
v -0.291831 0.057743 -0.311903
v -0.205922 0.057743 -0.352003
v -0.261852 0.057743 -0.384304
v -0.229432 0.057743 -0.295204
v -0.119751 0.057743 -0.030403
v -0.214181 0.057743 -0.022104
v -0.152051 0.057743 0.025496
v -0.168501 0.057743 -0.067804
v -0.062972 0.057743 -0.006905
v -0.152051 0.057743 0.025496
v -0.079691 0.057743 0.055496
v -0.119751 0.057743 -0.030403
v -0.002052 0.057743 0.001097
v -0.079691 0.057743 0.055496
v -0.002052 0.057743 0.065697
v -0.079691 0.057743 0.055496
v -0.002052 0.057743 0.001097
v -0.062972 0.057743 -0.006905
v -0.168501 0.057743 -0.067804
v -0.261852 0.057743 -0.084305
v -0.214181 0.057743 -0.022104
v -0.205922 0.057743 -0.116604
v -0.002052 0.057743 0.065697
v 0.058878 0.057743 -0.006905
v -0.002052 0.057743 0.001097
v 0.075598 0.057743 0.055496
v 0.075598 0.057743 0.055496
v 0.115658 0.057743 -0.030403
v 0.058878 0.057743 -0.006905
v 0.147948 0.057743 0.025496
v 0.115658 0.057743 -0.030403
v 0.147948 0.057743 0.025496
v 0.164408 0.057743 -0.067804
v 0.210078 0.057743 -0.022104
v 0.257759 0.057743 -0.084305
v 0.201818 0.057743 -0.116604
v 0.210078 0.057743 -0.022104
v 0.164408 0.057743 -0.067804
v 0.225338 0.057743 -0.295204
v 0.257759 0.057743 -0.384304
v 0.201818 0.057743 -0.352003
v 0.287728 0.057743 -0.311903
v 0.257759 0.057743 -0.084305
v 0.287728 0.057743 -0.156605
v 0.201818 0.057743 -0.116604
v 0.225338 0.057743 -0.173304
v 0.225338 0.057743 -0.173304
v 0.297948 0.057743 -0.234304
v 0.233358 0.057743 -0.234304
v 0.297948 0.057743 -0.234304
v 0.225338 0.057743 -0.173304
v 0.287728 0.057743 -0.156605
v 0.233358 0.057743 -0.234304
v 0.287728 0.057743 -0.311903
v 0.225338 0.057743 -0.295204
v 0.297948 0.057743 -0.234304
v 0.147948 0.057743 -0.494104
v 0.058878 0.057743 -0.461603
v 0.115658 0.057743 -0.438105
v 0.075598 0.057743 -0.524004
v 0.075598 0.057743 -0.524004
v -0.002052 0.057743 -0.534304
v 0.058878 0.057743 -0.461603
v -0.002052 0.057743 -0.469704
v 0.201818 0.057743 -0.352003
v 0.210078 0.057743 -0.446404
v 0.164408 0.057743 -0.400703
v 0.257759 0.057743 -0.384304
v 0.164408 0.057743 -0.400703
v 0.210078 0.057743 -0.446404
v 0.115658 0.057743 -0.438105
v 0.147948 0.057743 -0.494104
v 0.068218 -0.039677 -0.253103
v 0.131608 -0.025127 -0.270103
v 0.060948 -0.039677 -0.270603
v -0.002052 -0.044687 -0.234304
v 0.117778 -0.025127 -0.303404
v 0.181909 -0.002467 -0.283604
v 0.162879 -0.002467 -0.329504
v 0.214209 0.026093 -0.292204
v 0.191838 0.026093 -0.346205
v 0.181909 -0.002467 -0.283604
v 0.136318 -0.025127 -0.234304
v 0.188398 -0.002467 -0.234304
v 0.221838 0.026093 -0.234304
v 0.131608 -0.025127 -0.270103
v 0.214209 0.026093 -0.292204
v 0.068218 -0.039677 -0.253103
v 0.070698 -0.039677 -0.234304
v -0.002052 -0.044687 -0.234304
v 0.221838 0.026093 -0.234304
v 0.181909 -0.002467 -0.185003
v 0.214209 0.026093 -0.176304
v 0.188398 -0.002467 -0.234304
v 0.136318 -0.025127 -0.234304
v 0.131608 -0.025127 -0.198404
v 0.068218 -0.039677 -0.215405
v 0.070698 -0.039677 -0.234304
v -0.002052 -0.044687 -0.234304
v -0.002052 -0.044687 -0.234304
v 0.060948 -0.039677 -0.197905
v 0.068218 -0.039677 -0.215405
v 0.131608 -0.025127 -0.198404
v 0.117778 -0.025127 -0.165104
v 0.181909 -0.002467 -0.185003
v 0.162879 -0.002467 -0.139004
v 0.214209 0.026093 -0.176304
v 0.191838 0.026093 -0.122303
v 0.156259 0.026093 -0.076004
v 0.191838 0.026093 -0.122303
v 0.162879 -0.002467 -0.139004
v 0.132618 -0.002467 -0.099604
v 0.095788 -0.025127 -0.136404
v 0.117778 -0.025127 -0.165104
v 0.049388 -0.039677 -0.182804
v 0.060948 -0.039677 -0.197905
v -0.002052 -0.044687 -0.234304
v 0.034318 -0.039677 -0.171305
v 0.095788 -0.025127 -0.136404
v 0.049388 -0.039677 -0.182804
v -0.002052 -0.044687 -0.234304
v 0.067138 -0.025127 -0.114405
v 0.093178 -0.002467 -0.069304
v 0.132618 -0.002467 -0.099604
v 0.109889 0.026093 -0.040403
v 0.156259 0.026093 -0.076004
v 0.033768 -0.025127 -0.100603
v 0.093178 -0.002467 -0.069304
v 0.067138 -0.025127 -0.114405
v 0.034318 -0.039677 -0.171305
v 0.016778 -0.039677 -0.164003
v -0.002052 -0.044687 -0.234304
v 0.047238 -0.002467 -0.050304
v 0.055898 0.026093 -0.018003
v 0.109889 0.026093 -0.040403
v -0.051342 -0.002467 -0.050304
v -0.002052 0.026093 -0.010405
v -0.002052 -0.002467 -0.043804
v -0.059992 0.026093 -0.018003
v -0.037862 -0.025127 -0.100603
v -0.002052 -0.025127 -0.095903
v -0.020882 -0.039677 -0.164003
v -0.002052 -0.039677 -0.161505
v -0.002052 -0.044687 -0.234304
v -0.051342 -0.002467 -0.050304
v -0.097271 -0.002467 -0.069304
v -0.113992 0.026093 -0.040403
v -0.071232 -0.025127 -0.114405
v -0.059992 0.026093 -0.018003
v -0.037862 -0.025127 -0.100603
v -0.038422 -0.039677 -0.171305
v -0.020882 -0.039677 -0.164003
v -0.002052 -0.044687 -0.234304
v -0.002052 -0.044687 -0.234304
v -0.053492 -0.039677 -0.182804
v -0.038422 -0.039677 -0.171305
v -0.099892 -0.025127 -0.136404
v -0.071232 -0.025127 -0.114405
v -0.097271 -0.002467 -0.069304
v -0.136712 -0.002467 -0.099604
v -0.113992 0.026093 -0.040403
v -0.160362 0.026093 -0.076004
v -0.160362 0.026093 -0.076004
v -0.195941 0.026093 -0.122303
v -0.166982 -0.002467 -0.139004
v -0.136712 -0.002467 -0.099604
v -0.099892 -0.025127 -0.136404
v -0.121881 -0.025127 -0.165104
v -0.053492 -0.039677 -0.182804
v -0.065052 -0.039677 -0.197905
v -0.002052 -0.044687 -0.234304
v -0.121881 -0.025127 -0.165104
v -0.072311 -0.039677 -0.215405
v -0.135702 -0.025127 -0.198404
v -0.065052 -0.039677 -0.197905
v -0.002052 -0.044687 -0.234304
v -0.166982 -0.002467 -0.139004
v -0.186012 -0.002467 -0.185003
v -0.218302 0.026093 -0.176304
v -0.195941 0.026093 -0.122303
v -0.071232 -0.025127 -0.354103
v -0.038422 -0.039677 -0.297304
v -0.037862 -0.025127 -0.367905
v -0.020882 -0.039677 -0.304504
v -0.002052 -0.044687 -0.234304
v -0.051342 -0.002467 -0.418203
v -0.097271 -0.002467 -0.399204
v -0.113992 0.026093 -0.428204
v -0.059992 0.026093 -0.450504
v -0.002052 -0.002467 -0.424704
v -0.051342 -0.002467 -0.418203
v -0.037862 -0.025127 -0.367905
v -0.059992 0.026093 -0.450504
v -0.002052 -0.025127 -0.372604
v -0.002052 0.026093 -0.458103
v -0.020882 -0.039677 -0.304504
v -0.002052 -0.039677 -0.307003
v -0.002052 -0.044687 -0.234304
v -0.002052 -0.002467 -0.424704
v 0.033768 -0.025127 -0.367905
v 0.047238 -0.002467 -0.418203
v 0.055898 0.026093 -0.450504
v -0.002052 -0.025127 -0.372604
v -0.002052 0.026093 -0.458103
v 0.016778 -0.039677 -0.304504
v -0.002052 -0.039677 -0.307003
v -0.002052 -0.044687 -0.234304
v -0.002052 -0.044687 -0.234304
v 0.034318 -0.039677 -0.297304
v 0.016778 -0.039677 -0.304504
v 0.033768 -0.025127 -0.367905
v 0.067138 -0.025127 -0.354103
v 0.047238 -0.002467 -0.418203
v 0.093178 -0.002467 -0.399204
v 0.055898 0.026093 -0.450504
v 0.109889 0.026093 -0.428204
v 0.156259 0.026093 -0.392605
v 0.109889 0.026093 -0.428204
v 0.132618 -0.002467 -0.368904
v 0.093178 -0.002467 -0.399204
v 0.067138 -0.025127 -0.354103
v 0.095788 -0.025127 -0.332104
v 0.034318 -0.039677 -0.297304
v 0.049388 -0.039677 -0.285704
v -0.002052 -0.044687 -0.234304
v 0.060948 -0.039677 -0.270603
v 0.095788 -0.025127 -0.332104
v 0.049388 -0.039677 -0.285704
v -0.002052 -0.044687 -0.234304
v 0.117778 -0.025127 -0.303404
v 0.132618 -0.002467 -0.368904
v 0.162879 -0.002467 -0.329504
v 0.156259 0.026093 -0.392605
v 0.191838 0.026093 -0.346205
v -0.002052 -0.002467 -0.043804
v 0.033768 -0.025127 -0.100603
v -0.002052 -0.025127 -0.095903
v 0.047238 -0.002467 -0.050304
v 0.016778 -0.039677 -0.164003
v -0.002052 -0.039677 -0.161505
v -0.002052 -0.044687 -0.234304
v -0.002052 0.026093 -0.010405
v 0.055898 0.026093 -0.018003
v -0.192492 -0.002467 -0.234304
v -0.135702 -0.025127 -0.198404
v -0.140421 -0.025127 -0.234304
v -0.074791 -0.039677 -0.234304
v -0.072311 -0.039677 -0.215405
v -0.002052 -0.044687 -0.234304
v -0.186012 -0.002467 -0.185003
v -0.225932 0.026093 -0.234304
v -0.218302 0.026093 -0.176304
v -0.186012 -0.002467 -0.283604
v -0.140421 -0.025127 -0.234304
v -0.135702 -0.025127 -0.270103
v -0.192492 -0.002467 -0.234304
v -0.074791 -0.039677 -0.234304
v -0.072311 -0.039677 -0.253103
v -0.002052 -0.044687 -0.234304
v -0.218302 0.026093 -0.292204
v -0.225932 0.026093 -0.234304
v -0.195941 0.026093 -0.346205
v -0.186012 -0.002467 -0.283604
v -0.166982 -0.002467 -0.329504
v -0.121881 -0.025127 -0.303404
v -0.218302 0.026093 -0.292204
v -0.135702 -0.025127 -0.270103
v -0.065052 -0.039677 -0.270603
v -0.072311 -0.039677 -0.253103
v -0.002052 -0.044687 -0.234304
v -0.002052 -0.044687 -0.234304
v -0.053492 -0.039677 -0.285704
v -0.065052 -0.039677 -0.270603
v -0.099892 -0.025127 -0.332104
v -0.121881 -0.025127 -0.303404
v -0.166982 -0.002467 -0.329504
v -0.136712 -0.002467 -0.368904
v -0.160362 0.026093 -0.392605
v -0.195941 0.026093 -0.346205
v -0.038422 -0.039677 -0.297304
v -0.099892 -0.025127 -0.332104
v -0.053492 -0.039677 -0.285704
v -0.002052 -0.044687 -0.234304
v -0.071232 -0.025127 -0.354103
v -0.136712 -0.002467 -0.368904
v -0.097271 -0.002467 -0.399204
v -0.113992 0.026093 -0.428204
v -0.160362 0.026093 -0.392605
v -0.079691 -0.092257 0.055496
v -0.002052 -0.092257 0.065697
v -0.079691 0.057743 0.055496
v -0.002052 0.057743 0.065697
v -0.152051 0.057743 0.025496
v -0.152051 -0.092257 0.025496
v -0.214181 0.057743 -0.022104
v -0.214181 -0.092257 -0.022104
v 0.210078 0.057743 -0.022104
v 0.210078 -0.092257 -0.022104
v 0.147948 0.057743 0.025496
v 0.147948 -0.092257 0.025496
v 0.075598 0.057743 0.055496
v 0.075598 -0.092257 0.055496
v -0.002052 0.057743 0.065697
v -0.002052 -0.092257 0.065697
v -0.113992 0.026093 -0.428204
v -0.059992 0.026093 -0.450504
v -0.062972 0.057743 -0.461603
v -0.119751 0.057743 -0.438105
v -0.059992 0.026093 -0.450504
v -0.002052 0.026093 -0.458103
v -0.002052 0.057743 -0.469704
v -0.062972 0.057743 -0.461603
v 0.055898 0.026093 -0.450504
v -0.002052 0.026093 -0.458103
v -0.002052 0.057743 -0.469704
v 0.058878 0.057743 -0.461603
v 0.055898 0.026093 -0.450504
v 0.109889 0.026093 -0.428204
v 0.058878 0.057743 -0.461603
v 0.115658 0.057743 -0.438105
v 0.156259 0.026093 -0.392605
v 0.115658 0.057743 -0.438105
v 0.109889 0.026093 -0.428204
v 0.164408 0.057743 -0.400703
v -0.113992 0.026093 -0.428204
v -0.160362 0.026093 -0.392605
v -0.119751 0.057743 -0.438105
v -0.168501 0.057743 -0.400703
v -0.214181 0.057743 -0.022104
v -0.214181 -0.092257 -0.022104
v -0.261852 0.057743 -0.084305
v -0.261852 -0.092257 -0.084305
v -0.291831 0.057743 -0.156605
v -0.291831 -0.092257 -0.156605
v -0.302052 0.057743 -0.234304
v -0.302052 -0.092257 -0.234304
v -0.291831 0.057743 -0.311903
v -0.291831 -0.092257 -0.311903
v -0.261852 0.057743 -0.384304
v -0.261852 -0.092257 -0.384304
v -0.214181 0.057743 -0.446404
v -0.214181 -0.092257 -0.446404
v 0.214209 0.026093 -0.292204
v 0.191838 0.026093 -0.346205
v 0.225338 0.057743 -0.295204
v 0.201818 0.057743 -0.352003
v 0.221838 0.026093 -0.234304
v 0.214209 0.026093 -0.292204
v 0.233358 0.057743 -0.234304
v 0.225338 0.057743 -0.295204
v 0.221838 0.026093 -0.234304
v 0.214209 0.026093 -0.176304
v 0.233358 0.057743 -0.234304
v 0.225338 0.057743 -0.173304
v 0.214209 0.026093 -0.176304
v 0.191838 0.026093 -0.122303
v 0.225338 0.057743 -0.173304
v 0.201818 0.057743 -0.116604
v 0.201818 0.057743 -0.116604
v 0.156259 0.026093 -0.076004
v 0.164408 0.057743 -0.067804
v 0.191838 0.026093 -0.122303
v 0.156259 0.026093 -0.392605
v 0.191838 0.026093 -0.346205
v 0.201818 0.057743 -0.352003
v 0.164408 0.057743 -0.400703
v 0.210078 -0.092257 -0.446404
v -0.261852 -0.092257 -0.084305
v -0.152051 -0.092257 -0.494104
v 0.075598 -0.092257 -0.524004
v 0.147948 -0.092257 -0.494104
v -0.002052 -0.092257 -0.534304
v -0.079691 -0.092257 -0.524004
v 0.210078 -0.092257 -0.022104
v 0.257759 -0.092257 -0.384304
v -0.302052 -0.092257 -0.234304
v -0.291831 -0.092257 -0.156605
v -0.291831 -0.092257 -0.311903
v -0.214181 -0.092257 -0.446404
v -0.261852 -0.092257 -0.384304
v 0.297948 -0.092257 -0.234304
v 0.287728 -0.092257 -0.311903
v 0.257759 -0.092257 -0.084305
v 0.287728 -0.092257 -0.156605
v -0.152051 -0.092257 0.025496
v -0.214181 -0.092257 -0.022104
v -0.002052 -0.092257 0.065697
v -0.079691 -0.092257 0.055496
v 0.147948 -0.092257 0.025496
v 0.075598 -0.092257 0.055496
v -0.214181 0.057743 -0.446404
v -0.214181 -0.092257 -0.446404
v -0.152051 0.057743 -0.494104
v -0.152051 -0.092257 -0.494104
v -0.079691 0.057743 -0.524004
v -0.079691 -0.092257 -0.524004
v -0.002052 0.057743 -0.534304
v -0.002052 -0.092257 -0.534304
v 0.075598 0.057743 -0.524004
v 0.075598 -0.092257 -0.524004
v 0.147948 0.057743 -0.494104
v 0.147948 -0.092257 -0.494104
v 0.210078 0.057743 -0.446404
v 0.210078 -0.092257 -0.446404
v 0.109889 0.026093 -0.040403
v 0.156259 0.026093 -0.076004
v 0.115658 0.057743 -0.030403
v 0.164408 0.057743 -0.067804
v 0.055898 0.026093 -0.018003
v 0.109889 0.026093 -0.040403
v 0.058878 0.057743 -0.006905
v 0.115658 0.057743 -0.030403
v -0.002052 0.026093 -0.010405
v -0.059992 0.026093 -0.018003
v -0.002052 0.057743 0.001097
v -0.062972 0.057743 -0.006905
v -0.113992 0.026093 -0.040403
v -0.059992 0.026093 -0.018003
v -0.062972 0.057743 -0.006905
v -0.119751 0.057743 -0.030403
v -0.113992 0.026093 -0.040403
v -0.160362 0.026093 -0.076004
v -0.119751 0.057743 -0.030403
v -0.168501 0.057743 -0.067804
v -0.002052 0.026093 -0.010405
v 0.055898 0.026093 -0.018003
v -0.002052 0.057743 0.001097
v 0.058878 0.057743 -0.006905
v 0.305048 0.032743 0.932796
v 0.245049 -0.117257 0.872797
v 0.245049 0.032743 0.872797
v 0.305048 -0.117257 0.932796
v 0.275048 0.082743 0.962795
v 0.215048 0.032743 0.902796
v 0.215048 0.082743 0.902796
v 0.275048 0.032743 0.962795
v 0.305048 0.032743 1.412796
v 0.305048 -0.117257 0.932796
v 0.305048 0.032743 0.932796
v 0.305048 -0.117257 1.412796
v 0.275048 0.082743 1.382795
v 0.275048 0.032743 0.962795
v 0.275048 0.082743 0.962795
v 0.275048 0.032743 1.382795
v -0.204952 0.082743 1.442797
v 0.215048 0.082743 1.442797
v 0.215048 0.082743 0.902796
v 0.275048 0.082743 1.382795
v 0.275048 0.082743 0.962795
v -0.264952 0.082743 1.382795
v -0.204952 0.082743 0.902796
v -0.264952 0.082743 0.962795
v -0.234951 0.032743 1.472795
v 0.245049 0.032743 1.472795
v 0.245049 0.032743 0.872797
v 0.305048 0.032743 1.412796
v 0.305048 0.032743 0.932796
v -0.294951 0.032743 1.412796
v -0.234951 0.032743 0.872797
v -0.294951 0.032743 0.932796
v -0.234951 0.032743 1.472795
v -0.294951 0.032743 1.412796
v -0.234951 -0.117257 1.472795
v -0.294951 -0.117257 1.412796
v 0.305048 0.032743 1.412796
v 0.245049 0.032743 1.472795
v 0.305048 -0.117257 1.412796
v 0.245049 -0.117257 1.472795
v -0.264952 0.032743 1.382795
v -0.204952 0.032743 1.442797
v -0.264952 0.082743 1.382795
v -0.204952 0.082743 1.442797
v 0.215048 0.032743 1.442797
v 0.275048 0.032743 1.382795
v 0.215048 0.082743 1.442797
v 0.275048 0.082743 1.382795
v -0.234951 0.032743 1.472795
v 0.245049 -0.117257 1.472795
v 0.245049 0.032743 1.472795
v -0.234951 -0.117257 1.472795
v -0.204952 0.082743 1.442797
v 0.215048 0.032743 1.442797
v 0.215048 0.082743 1.442797
v -0.204952 0.032743 1.442797
v -0.294951 0.032743 0.932796
v -0.234951 0.032743 0.872797
v -0.294951 -0.117257 0.932796
v -0.234951 -0.117257 0.872797
v -0.204952 0.032743 0.902796
v -0.264952 0.032743 0.962795
v -0.204952 0.082743 0.902796
v -0.264952 0.082743 0.962795
v -0.294951 0.032743 0.932796
v -0.294951 -0.117257 1.412796
v -0.294951 0.032743 1.412796
v -0.294951 -0.117257 0.932796
v -0.264952 0.082743 0.962795
v -0.264952 0.032743 1.382795
v -0.264952 0.082743 1.382795
v -0.264952 0.032743 0.962795
v -0.234951 -0.117257 0.872797
v 0.245049 -0.117257 0.872797
v 0.305048 -0.117257 1.412796
v 0.305048 -0.117257 0.932796
v 0.245049 -0.117257 1.472795
v -0.234951 -0.117257 1.472795
v -0.294951 -0.117257 1.412796
v -0.294951 -0.117257 0.932796
v 0.245049 0.032743 0.872797
v -0.234951 -0.117257 0.872797
v -0.234951 0.032743 0.872797
v 0.245049 -0.117257 0.872797
v 0.215048 0.082743 0.902796
v -0.204952 0.032743 0.902796
v -0.204952 0.082743 0.902796
v 0.215048 0.032743 0.902796
vn -0.0000 1.0000 -0.0000
vn -0.0000 -0.0000 -1.0000
vn -1.0000 -0.0000 -0.0000
vn -0.0000 -1.0000 -0.0000
vn -0.0000 -0.0000 1.0000
vn 1.0000 -0.0000 -0.0000
vn 0.8643 -0.0000 -0.5029
vn 0.7071 -0.0000 -0.7071
vn 0.8644 -0.0000 -0.5029
vn 0.9659 -0.0000 -0.2591
vn 1.0000 -0.0000 -0.0001
vn 0.9659 -0.0000 0.2589
vn 0.8643 -0.0000 0.5029
vn 0.7071 -0.0000 0.7071
vn 0.8128 0.3393 -0.4735
vn 0.5928 0.5453 -0.5927
vn 0.7266 0.5449 -0.4186
vn 0.6649 0.3404 -0.6649
vn 0.9082 0.3396 -0.2448
vn 0.8104 0.5428 -0.2203
vn 0.9405 0.3398 -0.0000
vn 0.8381 0.5455 -0.0000
vn 0.8104 0.5429 0.2203
vn 0.9082 0.3396 0.2448
vn 0.7266 0.5449 0.4185
vn 0.9081 0.3396 0.2449
vn 0.8104 0.5428 0.2203
vn 0.8128 0.3393 0.4735
vn 0.5928 0.5453 0.5927
vn 0.7266 0.5449 0.4186
vn 0.6649 0.3404 0.6649
vn -0.1413 0.9892 0.0393
vn -0.3081 0.9481 0.0790
vn -0.1257 0.9896 0.0707
vn -0.2765 0.9479 0.1580
vn -0.5254 0.8391 0.1412
vn -0.4713 0.8405 0.2671
vn -0.8104 0.5429 0.2203
vn -0.7265 0.5450 0.4185
vn -0.5254 0.8391 0.1411
vn -0.3162 0.9487 -0.0000
vn -0.5419 0.8404 -0.0000
vn -0.8381 0.5456 -0.0000
vn -0.1491 0.9888 -0.0000
vn -0.5254 0.8391 -0.1411
vn -0.8104 0.5429 -0.2203
vn -0.3081 0.9481 -0.0790
vn -0.1413 0.9892 -0.0392
vn -0.1256 0.9896 -0.0707
vn -0.2765 0.9479 -0.1580
vn -0.5254 0.8391 -0.1412
vn -0.4713 0.8405 -0.2671
vn -0.7265 0.5450 -0.4185
vn -0.5927 0.5453 -0.5927
vn -0.7265 0.5450 -0.4186
vn -0.3844 0.8394 -0.3844
vn -0.2287 0.9463 -0.2287
vn -0.1021 0.9895 -0.1021
vn -0.1257 0.9896 -0.0707
vn -0.0707 0.9896 -0.1256
vn -0.1580 0.9479 -0.2765
vn -0.2671 0.8405 -0.4713
vn -0.3843 0.8394 -0.3844
vn -0.4185 0.5449 -0.7265
vn -0.0790 0.9481 -0.3081
vn -0.0707 0.9896 -0.1257
vn -0.0393 0.9892 -0.1413
vn -0.1412 0.8391 -0.5254
vn -0.2203 0.5429 -0.8104
vn 0.1411 0.8391 -0.5254
vn -0.0000 0.5456 -0.8381
vn -0.0000 0.8404 -0.5419
vn 0.2203 0.5429 -0.8104
vn 0.0790 0.9481 -0.3081
vn -0.0000 0.9487 -0.3162
vn 0.0392 0.9892 -0.1413
vn -0.0000 0.9888 -0.1491
vn 0.1412 0.8391 -0.5254
vn 0.2671 0.8405 -0.4713
vn 0.4186 0.5449 -0.7265
vn 0.1580 0.9479 -0.2765
vn 0.0707 0.9896 -0.1257
vn 0.0393 0.9892 -0.1413
vn 0.1021 0.9895 -0.1021
vn 0.2287 0.9463 -0.2287
vn 0.3843 0.8394 -0.3844
vn 0.5927 0.5453 -0.5927
vn 0.4713 0.8405 -0.2671
vn 0.7265 0.5450 -0.4185
vn 0.3844 0.8394 -0.3844
vn 0.2765 0.9479 -0.1580
vn 0.1257 0.9896 -0.0707
vn 0.1413 0.9892 -0.0392
vn 0.3081 0.9481 -0.0790
vn 0.5254 0.8391 -0.1411
vn 0.8104 0.5429 -0.2203
vn 0.7266 0.5449 -0.4185
vn 0.1580 0.9479 0.2765
vn 0.0707 0.9896 0.1256
vn 0.0790 0.9481 0.3081
vn 0.0393 0.9892 0.1413
vn 0.1412 0.8391 0.5254
vn 0.2671 0.8405 0.4713
vn 0.4185 0.5450 0.7265
vn 0.2203 0.5429 0.8104
vn -0.0000 0.8404 0.5419
vn -0.0000 0.9487 0.3162
vn -0.0000 0.5456 0.8381
vn -0.0000 0.9888 0.1491
vn -0.0790 0.9481 0.3081
vn -0.1412 0.8391 0.5254
vn -0.2203 0.5429 0.8104
vn -0.0393 0.9892 0.1413
vn -0.0707 0.9896 0.1257
vn -0.1580 0.9479 0.2765
vn -0.2671 0.8405 0.4713
vn -0.4185 0.5450 0.7265
vn -0.4186 0.5449 0.7265
vn -0.3844 0.8394 0.3844
vn -0.5927 0.5453 0.5927
vn -0.2287 0.9463 0.2287
vn -0.0707 0.9896 0.1256
vn -0.1021 0.9895 0.1021
vn -0.1256 0.9896 0.0707
vn -0.1411 0.8391 -0.5254
vn -0.0392 0.9892 -0.1413
vn 0.5419 0.8404 -0.0000
vn 0.3162 0.9487 -0.0000
vn 0.1491 0.9888 -0.0000
vn 0.1413 0.9892 -0.0393
vn 0.8380 0.5456 -0.0000
vn 0.5254 0.8391 0.1411
vn 0.3081 0.9481 0.0790
vn 0.1413 0.9892 0.0393
vn 0.8381 0.5456 -0.0000
vn 0.7265 0.5450 0.4186
vn 0.5254 0.8391 0.1412
vn 0.4713 0.8405 0.2671
vn 0.2765 0.9479 0.1580
vn 0.1257 0.9896 0.0707
vn 0.1021 0.9895 0.1021
vn 0.2287 0.9463 0.2287
vn 0.3844 0.8394 0.3843
vn 0.5927 0.5454 0.5927
vn 0.3844 0.8394 0.3844
vn 0.5927 0.5453 0.5927
vn -0.2593 -0.0000 0.9658
vn -0.2592 -0.0000 0.9658
vn -0.5029 -0.0000 0.8644
vn -0.7071 -0.0000 0.7071
vn 0.5029 -0.0000 0.8643
vn 0.5029 -0.0000 0.8644
vn 0.2589 -0.0000 0.9659
vn 0.2592 -0.0000 0.9658
vn 0.4186 0.5449 0.7266
vn 0.2203 0.5428 0.8104
vn 0.2448 0.3396 0.9082
vn 0.4735 0.3393 0.8128
vn -0.0000 0.5455 0.8381
vn -0.0000 0.3398 0.9405
vn -0.2448 0.3396 0.9082
vn -0.4185 0.5449 0.7266
vn -0.2448 0.3396 0.9081
vn -0.4735 0.3393 0.8128
vn -0.4186 0.5449 0.7266
vn -0.6649 0.3404 0.6649
vn -0.8644 -0.0000 0.5029
vn -0.9659 -0.0000 0.2589
vn -1.0000 -0.0000 -0.0001
vn -0.9658 -0.0000 -0.2593
vn -0.9658 -0.0000 -0.2591
vn -0.8644 -0.0000 -0.5029
vn -0.7071 -0.0000 -0.7071
vn -0.7266 0.5449 0.4186
vn -0.9082 0.3396 0.2448
vn -0.8128 0.3393 0.4735
vn -0.8381 0.5455 -0.0000
vn -0.9405 0.3398 -0.0000
vn -0.8104 0.5428 -0.2203
vn -0.9082 0.3396 -0.2448
vn -0.7266 0.5449 -0.4185
vn -0.9081 0.3396 -0.2448
vn -0.8128 0.3393 -0.4735
vn -0.6649 0.3404 -0.6649
vn -0.7266 0.5449 -0.4186
vn -0.5029 -0.0000 -0.8644
vn -0.2589 -0.0000 -0.9659
vn 0.2592 -0.0000 -0.9658
vn 0.5029 -0.0000 -0.8644
vn -0.4186 0.5449 -0.7266
vn -0.4738 0.3378 -0.8132
vn -0.2448 0.3396 -0.9082
vn -0.4734 0.3393 -0.8128
vn 0.2203 0.5428 -0.8104
vn -0.0000 0.3398 -0.9405
vn -0.0000 0.5455 -0.8381
vn 0.2448 0.3396 -0.9082
vn 0.4185 0.5449 -0.7266
vn 0.2448 0.3396 -0.9081
vn 0.4734 0.3393 -0.8128
vn 0.5927 0.5453 -0.5928
vn 0.4735 0.3393 -0.8128
vn 0.4186 0.5449 -0.7266
vt 0.019784 1.102800
vt -0.140216 1.102800
vt 0.019784 0.662803
vt -0.140216 0.662803
vt -0.100216 1.102800
vt -0.100216 0.942803
vt -0.140216 0.942803
vt -0.100216 0.662803
vt 0.784153 1.332650
vt 0.846285 1.182650
vt 0.846285 1.332650
vt 0.784153 1.182650
vt 0.711799 1.332650
vt 0.711799 1.182650
vt 0.634153 1.332650
vt 0.634153 1.182650
vt 0.556507 1.332650
vt 0.556507 1.182650
vt 0.484153 1.332650
vt 0.484153 1.182650
vt 0.422021 1.332650
vt 0.422021 1.182650
vt 0.516450 1.332650
vt 0.475843 1.300990
vt 0.522211 1.300990
vt 0.467696 1.332650
vt 0.573225 1.332650
vt 0.576207 1.300990
vt 0.634153 1.300990
vt 0.692099 1.300990
vt 0.695081 1.332650
vt 0.746095 1.300990
vt 0.751856 1.332650
vt 0.792463 1.300990
vt 0.800610 1.332650
vt 0.784153 0.997840
vt 0.800610 1.091190
vt 0.751856 1.053780
vt 0.846285 1.045520
vt 0.838021 1.139940
vt 0.893961 1.107650
vt 0.634153 0.957647
vt 0.695081 1.030260
vt 0.634153 1.022240
vt 0.711799 0.967870
vt 0.923931 1.180000
vt 0.869559 1.257650
vt 0.861538 1.196720
vt 0.934153 1.257650
vt 0.923931 1.335290
vt 0.861538 1.318580
vt 0.893960 1.407650
vt 0.838021 1.375350
vt 0.751856 1.461510
vt 0.846285 1.469780
vt 0.784153 1.517450
vt 0.800610 1.424100
vt 0.695081 1.485030
vt 0.711799 1.547430
vt 0.634153 1.493050
vt 0.634153 1.557650
vt 0.573225 1.485030
vt 0.556507 1.547430
vt 0.516450 1.461510
vt 0.484153 1.517450
vt 0.467696 1.424100
vt 0.422021 1.469780
vt 0.374345 1.407650
vt 0.430285 1.375350
vt 0.406768 1.196720
vt 0.374346 1.107650
vt 0.430285 1.139940
vt 0.344375 1.180000
vt 0.344375 1.335290
vt 0.406768 1.318570
vt 0.334153 1.257650
vt 0.398747 1.257650
vt 0.484153 0.997840
vt 0.573225 1.030260
vt 0.516450 1.053780
vt 0.556507 0.967870
vt 0.422021 1.045520
vt 0.467696 1.091190
vt 0.563887 1.238820
vt 0.500500 1.221830
vt 0.571155 1.221280
vt 0.634153 1.257650
vt 0.514323 1.188460
vt 0.450195 1.208360
vt 0.469221 1.162420
vt 0.417897 1.199700
vt 0.440263 1.145710
vt 0.495785 1.257650
vt 0.443706 1.257650
vt 0.410269 1.257650
vt 0.561409 1.257650
vt 0.450195 1.306940
vt 0.417897 1.315590
vt 0.500500 1.293460
vt 0.563887 1.276470
vt 0.571155 1.294020
vt 0.514323 1.326830
vt 0.469221 1.352870
vt 0.440263 1.369590
vt 0.475843 1.415960
vt 0.499486 1.392310
vt 0.536312 1.355490
vt 0.582715 1.309090
vt 0.597781 1.320650
vt 0.564969 1.377480
vt 0.538929 1.422580
vt 0.522211 1.451540
vt 0.598341 1.391300
vt 0.615325 1.327910
vt 0.584862 1.441610
vt 0.576207 1.473900
vt 0.683444 1.441610
vt 0.634153 1.481530
vt 0.634153 1.448090
vt 0.692099 1.473900
vt 0.669965 1.391300
vt 0.634153 1.396020
vt 0.652981 1.327910
vt 0.634153 1.330390
vt 0.729377 1.422580
vt 0.746095 1.451540
vt 0.703337 1.377480
vt 0.670525 1.320650
vt 0.685591 1.309090
vt 0.731994 1.355490
vt 0.768820 1.392310
vt 0.792463 1.415960
vt 0.799085 1.352870
vt 0.828043 1.369590
vt 0.753983 1.326830
vt 0.697151 1.294020
vt 0.704419 1.276470
vt 0.767807 1.293460
vt 0.818111 1.306940
vt 0.850409 1.315590
vt 0.703337 1.137820
vt 0.670525 1.194650
vt 0.669965 1.123990
vt 0.652981 1.187380
vt 0.683444 1.073690
vt 0.729377 1.092720
vt 0.746095 1.063760
vt 0.692099 1.041390
vt 0.634153 1.067200
vt 0.634153 1.119280
vt 0.634153 1.033760
vt 0.634153 1.184900
vt 0.598341 1.123990
vt 0.584862 1.073690
vt 0.576207 1.041390
vt 0.615325 1.187380
vt 0.597781 1.194650
vt 0.564969 1.137820
vt 0.538929 1.092720
vt 0.522211 1.063760
vt 0.499486 1.122980
vt 0.475843 1.099340
vt 0.536312 1.159810
vt 0.582715 1.206210
vt 0.824600 1.257650
vt 0.772521 1.257650
vt 0.706898 1.257650
vt 0.858038 1.257650
vt 0.818111 1.208360
vt 0.767806 1.221830
vt 0.704419 1.238820
vt 0.850409 1.199700
vt 0.828043 1.145710
vt 0.799085 1.162420
vt 0.753983 1.188460
vt 0.697151 1.221280
vt 0.685591 1.206210
vt 0.731994 1.159810
vt 0.768820 1.122980
vt 0.792463 1.099340
vt 0.692098 1.300990
vt 0.695080 1.332650
vt 0.374346 1.407650
vt 0.893960 1.107650
vt 0.374345 1.107650
vt 0.893961 1.407650
vt -0.027190 0.637034
vt 0.032810 0.487034
vt 0.032810 0.637034
vt -0.027190 0.487034
vt -0.057190 0.687034
vt 0.002810 0.637034
vt 0.002810 0.687034
vt -0.057190 0.637034
vt -0.507190 0.637033
vt -0.507190 0.487034
vt -0.477190 0.687033
vt -0.477190 0.637033
vt -0.057190 0.857034
vt -0.477190 0.857034
vt -0.477190 0.317034
vt -0.537190 0.797034
vt -0.537190 0.377034
vt 0.002810 0.797034
vt -0.057190 0.317034
vt 0.002810 0.377034
vt -0.027190 0.887034
vt -0.507190 0.887034
vt -0.507190 0.287034
vt -0.567190 0.827034
vt -0.567190 0.347034
vt 0.032810 0.827034
vt -0.027190 0.287034
vt 0.032810 0.347034
vt -0.567190 0.637033
vt -0.567190 0.487034
vt 0.032810 0.637033
vt -0.027190 0.637033
vt -0.537190 0.637033
vt -0.537190 0.687033
vt -0.057190 0.637033
vt 0.002810 0.637033
vt -0.057190 0.687033
vt 0.002810 0.687033
vt -0.507190 0.637034
vt -0.567190 0.637034
vt -0.537190 0.637034
vt -0.477190 0.637034
vt -0.537190 0.687034
vt -0.477190 0.687034
vt -0.027190 0.487034
vt -0.027190 0.637033
vt -0.057190 0.637033
vt -0.057190 0.687033
s 1
usemtl Handle1Mtl.018
f 1/1/1 2/2/1 3/3/1
f 3/3/1 2/2/1 4/4/1
f 5/5/2 6/2/2 7/6/2
f 7/6/2 6/2/2 8/7/2
f 9/5/3 10/2/3 11/8/3
f 11/8/3 10/2/3 12/4/3
f 13/1/4 14/2/4 15/3/4
f 15/3/4 14/2/4 16/4/4
f 17/5/5 18/2/5 19/6/5
f 19/6/5 18/2/5 20/7/5
f 21/5/6 22/2/6 23/8/6
f 23/8/6 22/2/6 24/4/6
usemtl Inputa1Mtl
f 27/9/7 26/10/8 25/11/8
f 26/10/8 27/9/7 28/12/9
f 27/9/7 29/13/10 28/12/9
f 28/12/9 29/13/10 30/14/10
f 29/13/10 31/15/11 30/14/10
f 30/14/10 31/15/11 32/16/11
f 31/15/11 33/17/12 32/16/11
f 32/16/11 33/17/12 34/18/12
f 33/17/12 35/19/13 34/18/12
f 34/18/12 35/19/13 36/20/13
f 36/20/13 35/19/13 37/21/14
f 36/20/13 37/21/14 38/22/14
f 39/23/15 40/24/16 41/25/17
f 40/24/16 39/23/15 42/26/18
f 45/27/19 44/25/17 43/28/20
f 44/25/17 45/27/19 46/23/15
f 49/15/21 48/28/20 47/29/22
f 48/28/20 49/15/21 50/27/19
f 51/30/23 53/15/21 52/29/22
f 53/15/21 51/30/23 54/31/24
f 55/32/25 57/31/26 56/30/27
f 57/31/26 55/32/25 58/33/28
f 59/34/29 61/33/28 60/32/30
f 61/33/28 59/34/29 62/35/31
f 63/36/1 64/37/1 65/38/1
f 64/37/1 63/36/1 66/39/1
f 67/40/1 68/39/1 69/41/1
f 68/39/1 67/40/1 70/37/1
f 71/42/1 72/43/1 73/44/1
f 72/43/1 71/42/1 74/45/1
f 75/43/1 76/36/1 77/38/1
f 76/36/1 75/43/1 78/45/1
f 79/46/1 80/47/1 81/48/1
f 80/47/1 79/46/1 82/49/1
f 83/47/1 84/49/1 85/50/1
f 83/47/1 85/50/1 86/51/1
f 87/52/1 88/53/1 89/50/1
f 89/50/1 88/53/1 90/51/1
f 91/46/1 92/40/1 93/41/1
f 92/40/1 91/46/1 94/48/1
f 95/54/1 96/55/1 97/56/1
f 96/55/1 95/54/1 98/57/1
f 99/58/1 100/56/1 101/59/1
f 100/56/1 99/58/1 102/54/1
f 103/60/1 104/59/1 105/61/1
f 106/59/1 107/60/1 108/58/1
f 109/57/1 110/52/1 111/55/1
f 110/52/1 109/57/1 112/53/1
f 113/61/1 114/62/1 115/60/1
f 114/62/1 113/61/1 116/63/1
f 117/63/1 118/64/1 119/62/1
f 118/64/1 117/63/1 120/65/1
f 121/64/1 122/65/1 123/66/1
f 122/65/1 124/67/1 123/66/1
f 125/68/1 126/69/1 127/67/1
f 127/67/1 126/69/1 128/66/1
f 129/70/1 130/71/1 131/72/1
f 130/71/1 129/70/1 132/73/1
f 133/68/1 134/74/1 135/69/1
f 134/74/1 136/75/1 135/69/1
f 137/75/1 138/76/1 139/77/1
f 140/76/1 141/75/1 142/74/1
f 143/77/1 144/73/1 145/70/1
f 144/73/1 143/77/1 146/76/1
f 147/78/1 148/79/1 149/80/1
f 148/79/1 147/78/1 150/81/1
f 151/81/1 152/42/1 153/79/1
f 152/42/1 154/44/1 153/79/1
f 155/72/1 156/82/1 157/83/1
f 156/82/1 155/72/1 158/71/1
f 159/83/1 160/82/1 161/80/1
f 160/82/1 162/78/1 161/80/1
f 163/84/32 164/85/33 165/86/34
f 166/87/1 163/84/32 165/86/34
f 165/86/34 164/85/33 167/88/35
f 164/85/33 168/89/36 167/88/35
f 167/88/35 168/89/36 169/90/37
f 169/90/37 168/89/36 170/91/38
f 169/90/37 170/91/38 171/92/39
f 172/89/40 173/93/41 174/94/42
f 172/89/40 174/94/42 175/95/43
f 173/93/41 172/89/40 176/85/33
f 172/89/40 175/95/43 177/91/38
f 176/85/33 178/84/32 173/93/41
f 179/96/44 173/93/41 178/84/32
f 180/87/1 179/96/44 178/84/32
f 181/95/43 182/97/45 183/98/46
f 182/97/45 181/95/43 184/94/42
f 184/94/42 185/93/41 182/97/45
f 185/93/41 186/99/47 182/97/45
f 185/93/41 187/100/48 186/99/47
f 187/100/48 185/93/41 188/96/44
f 189/87/1 187/100/48 188/96/44
f 190/87/1 191/101/49 192/100/48
f 191/101/49 193/99/47 192/100/48
f 193/99/47 191/101/49 194/102/50
f 194/102/50 195/97/51 193/99/47
f 195/97/51 194/102/50 196/103/52
f 196/103/52 197/98/46 195/97/51
f 197/98/46 196/103/52 198/104/53
f 199/105/54 200/104/55 201/103/52
f 199/105/54 201/103/52 202/106/56
f 201/103/52 203/107/57 202/106/56
f 203/107/57 201/103/52 204/102/50
f 204/102/50 205/108/58 203/107/57
f 205/108/58 204/102/50 206/101/59
f 207/87/1 205/108/58 206/101/59
f 208/109/60 209/107/57 210/108/58
f 211/87/1 208/109/60 210/108/58
f 209/107/57 208/109/60 212/110/61
f 213/111/62 209/107/57 212/110/61
f 209/107/57 213/111/62 214/106/63
f 215/112/64 214/106/63 213/111/62
f 214/106/63 215/112/64 216/105/54
f 217/113/65 218/111/62 219/110/61
f 220/109/66 217/113/65 219/110/61
f 217/113/65 220/109/66 221/114/67
f 222/87/1 221/114/67 220/109/66
f 218/111/62 217/113/65 223/115/68
f 224/116/69 218/111/62 223/115/68
f 218/111/62 224/116/69 225/112/64
f 226/117/70 227/118/71 228/119/72
f 227/118/71 226/117/70 229/120/73
f 228/119/72 230/121/74 226/117/70
f 230/121/74 228/119/72 231/122/75
f 231/122/75 232/123/76 230/121/74
f 232/123/76 231/122/75 233/124/77
f 234/87/1 232/123/76 233/124/77
f 235/117/78 236/125/79 237/126/80
f 235/117/78 238/127/81 236/125/79
f 235/117/78 237/126/80 239/120/73
f 238/127/81 235/117/78 240/121/74
f 240/121/74 241/128/82 238/127/81
f 241/128/82 240/121/74 242/123/83
f 243/87/1 241/128/82 242/123/83
f 244/87/1 245/129/84 246/128/82
f 246/128/82 245/129/84 247/130/85
f 248/127/81 246/128/82 247/130/85
f 247/130/85 249/125/79 248/127/81
f 249/125/79 247/130/85 250/131/86
f 250/131/86 251/126/80 249/125/79
f 251/126/80 250/131/86 252/132/87
f 253/132/87 255/133/88 254/134/89
f 255/133/88 253/132/87 256/131/90
f 255/133/88 256/131/90 257/130/85
f 255/133/88 257/130/85 258/135/91
f 257/130/85 259/129/84 258/135/91
f 258/135/91 259/129/84 260/136/92
f 261/87/1 260/136/92 259/129/84
f 262/135/91 263/137/93 264/138/94
f 263/137/93 262/135/91 265/136/92
f 266/87/1 263/137/93 265/136/92
f 264/138/94 267/133/88 262/135/91
f 267/133/88 264/138/94 268/139/95
f 269/140/96 267/133/88 268/139/95
f 269/140/96 270/134/97 267/133/88
f 271/141/98 272/142/99 273/143/100
f 272/142/99 274/144/101 273/143/100
f 275/87/1 274/144/101 272/142/99
f 271/141/98 273/143/100 276/145/102
f 277/146/103 271/141/98 276/145/102
f 276/145/102 278/147/104 277/146/103
f 278/147/104 276/145/102 279/148/105
f 280/149/106 281/145/102 282/143/100
f 280/149/106 283/148/105 281/145/102
f 280/149/106 282/143/100 284/150/107
f 283/148/105 280/149/106 285/151/108
f 282/143/100 286/144/101 284/150/107
f 284/150/107 286/144/101 287/152/109
f 288/87/1 287/152/109 286/144/101
f 289/149/106 290/153/110 291/154/111
f 292/155/112 289/149/106 291/154/111
f 290/153/110 289/149/106 293/150/107
f 292/155/112 294/151/108 289/149/106
f 293/150/107 295/156/113 290/153/110
f 295/156/113 293/150/107 296/152/109
f 297/87/1 295/156/113 296/152/109
f 298/87/1 299/157/114 300/156/113
f 299/157/114 301/153/110 300/156/113
f 301/153/110 299/157/114 302/158/115
f 302/158/115 303/154/111 301/153/110
f 303/154/111 302/158/115 304/159/116
f 304/159/116 305/155/112 303/154/111
f 305/155/112 304/159/116 306/160/117
f 308/160/118 309/161/119 307/162/120
f 309/161/119 308/160/118 310/159/116
f 311/158/115 309/161/119 310/159/116
f 309/161/119 311/158/115 312/163/121
f 313/157/122 312/163/121 311/158/115
f 312/163/121 313/157/122 314/164/123
f 315/87/1 314/164/123 313/157/122
f 316/86/124 317/163/121 318/164/123
f 319/87/1 316/86/124 318/164/123
f 317/163/121 316/86/124 320/88/35
f 320/88/35 321/161/119 317/163/121
f 321/161/119 320/88/35 322/90/37
f 322/90/37 323/162/120 321/161/119
f 323/162/120 322/90/37 324/92/39
f 325/119/72 326/113/65 327/122/75
f 326/113/65 325/119/72 328/115/125
f 329/114/126 327/122/75 326/113/65
f 327/122/75 329/114/126 330/124/77
f 331/87/1 330/124/77 329/114/126
f 332/118/71 328/115/125 325/119/72
f 328/115/125 332/118/71 333/116/69
f 334/165/127 335/138/94 336/166/128
f 335/138/94 337/167/129 336/166/128
f 337/167/129 335/138/94 338/137/130
f 339/87/1 337/167/129 338/137/130
f 335/138/94 334/165/127 340/139/95
f 341/168/131 340/139/95 334/165/127
f 340/139/95 341/168/131 342/140/96
f 343/169/132 344/166/128 345/170/133
f 344/166/128 343/169/132 346/165/127
f 347/167/129 345/170/133 344/166/128
f 345/170/133 347/167/129 348/171/134
f 349/87/1 348/171/134 347/167/129
f 350/172/23 346/165/127 343/169/132
f 346/165/127 350/172/23 351/168/135
f 352/173/136 353/169/137 354/174/138
f 353/169/137 355/175/139 354/174/138
f 353/169/137 352/173/136 356/172/23
f 355/175/139 353/169/137 357/170/133
f 357/170/133 358/176/140 355/175/139
f 358/176/140 357/170/133 359/171/134
f 360/87/1 358/176/140 359/171/134
f 361/87/1 362/177/141 363/176/140
f 362/177/141 364/178/142 363/176/140
f 363/176/140 364/178/142 365/175/139
f 364/178/142 366/174/138 365/175/139
f 366/174/138 364/178/142 367/179/143
f 366/174/138 367/179/143 368/180/144
f 366/174/138 368/180/144 369/173/136
f 370/142/99 371/178/142 372/177/141
f 373/87/1 370/142/99 372/177/141
f 371/178/142 370/142/99 374/141/98
f 374/141/98 375/179/145 371/178/142
f 375/179/145 374/141/98 376/146/103
f 375/179/145 376/146/103 377/147/104
f 375/179/145 377/147/104 378/180/146
f 379/18/147 380/16/5 381/17/148
f 380/16/5 382/15/5 381/17/148
f 379/18/147 381/17/148 383/19/149
f 384/20/149 379/18/147 383/19/149
f 384/20/149 383/19/149 385/21/150
f 385/21/150 386/22/150 384/20/149
f 388/10/14 387/11/14 389/9/151
f 389/9/151 390/12/152 388/10/14
f 390/12/152 389/9/151 391/13/153
f 392/14/154 390/12/152 391/13/153
f 392/14/154 391/13/153 393/15/5
f 394/16/5 392/14/154 393/15/5
f 395/25/155 396/28/156 397/27/157
f 395/25/155 397/27/157 398/23/158
f 399/28/156 400/29/159 401/15/160
f 399/28/156 401/15/160 402/27/157
f 403/30/112 405/15/160 404/29/159
f 405/15/160 403/30/112 406/31/161
f 408/32/162 409/31/163 407/30/112
f 409/31/163 408/32/162 410/33/164
f 411/34/120 412/33/164 413/32/165
f 412/33/164 411/34/120 414/35/166
f 415/25/155 417/23/158 416/24/146
f 416/24/146 417/23/158 418/26/31
f 421/9/167 420/10/150 419/11/150
f 421/9/167 422/12/167 420/10/150
f 423/13/168 422/12/167 421/9/167
f 423/13/168 424/14/168 422/12/167
f 425/15/169 424/14/168 423/13/168
f 425/15/169 426/16/169 424/14/168
f 427/17/170 426/16/169 425/15/169
f 427/17/170 428/18/171 426/16/169
f 429/19/172 428/18/171 427/17/170
f 429/19/172 430/20/172 428/18/171
f 431/21/173 430/20/172 429/19/172
f 431/21/173 432/22/173 430/20/172
f 434/25/174 433/28/38 435/27/175
f 435/27/175 436/23/176 434/25/174
f 438/28/38 437/29/177 439/15/178
f 439/15/178 440/27/175 438/28/38
f 442/181/179 443/15/178 441/29/177
f 443/15/178 442/181/179 444/182/180
f 446/32/181 447/182/182 445/181/46
f 447/182/182 446/32/181 448/33/183
f 449/33/183 450/34/54 451/35/184
f 450/34/54 449/33/183 452/32/185
f 453/24/120 454/25/174 455/23/176
f 456/26/166 453/24/120 455/23/176
f 457/39/4 458/183/4 459/78/4
f 457/39/4 460/45/4 461/36/4
f 457/39/4 462/42/4 460/45/4
f 459/78/4 462/42/4 457/39/4
f 462/42/4 459/78/4 463/81/4
f 464/55/4 458/183/4 457/39/4
f 464/55/4 457/39/4 465/184/4
f 458/183/4 466/76/4 459/78/4
f 466/76/4 458/183/4 467/74/4
f 468/73/4 459/78/4 466/76/4
f 468/73/4 469/82/4 459/78/4
f 469/82/4 468/73/4 470/185/4
f 471/49/4 464/55/4 465/184/4
f 471/49/4 465/184/4 472/46/4
f 464/55/4 471/49/4 473/186/4
f 473/186/4 471/49/4 474/50/4
f 458/183/4 464/55/4 475/65/4
f 458/183/4 475/65/4 476/67/4
f 475/65/4 464/55/4 477/61/4
f 475/65/4 477/61/4 478/63/4
f 477/61/4 464/55/4 479/56/4
f 477/61/4 479/56/4 480/59/4
f 483/9/186 482/10/173 481/11/173
f 482/10/173 483/9/186 484/12/186
f 485/13/187 484/12/186 483/9/186
f 484/12/186 485/13/187 486/14/187
f 487/15/2 486/14/187 485/13/187
f 486/14/187 487/15/2 488/16/2
f 489/17/188 488/16/2 487/15/2
f 488/16/2 489/17/188 490/18/188
f 491/19/189 490/18/188 489/17/188
f 490/18/188 491/19/189 492/20/189
f 493/21/8 492/20/189 491/19/189
f 492/20/189 493/21/8 494/22/8
f 496/24/54 495/25/190 497/23/191
f 497/23/191 498/26/184 496/24/54
f 501/27/192 500/25/190 499/28/69
f 501/27/192 502/23/193 500/25/190
f 504/30/194 505/15/195 503/29/196
f 505/15/195 504/30/194 506/31/197
f 507/32/198 509/31/199 508/30/194
f 509/31/199 507/32/198 510/33/200
f 512/34/201 513/33/202 511/32/203
f 513/33/202 512/34/201 514/35/18
f 517/15/195 516/28/69 515/29/196
f 517/15/195 518/27/192 516/28/69
usemtl Output1Mtl.002
f 519/187/8 520/188/8 521/189/8
f 520/188/8 519/187/8 522/190/8
f 523/191/8 524/192/8 525/193/8
f 524/192/8 523/191/8 526/194/8
f 527/195/6 528/190/6 529/187/6
f 528/190/6 527/195/6 530/196/6
f 531/197/6 532/194/6 533/191/6
f 532/194/6 531/197/6 534/198/6
f 535/199/1 536/200/1 537/201/1
f 537/201/1 536/200/1 538/202/1
f 537/201/1 538/202/1 539/203/1
f 537/201/1 540/204/1 535/199/1
f 540/204/1 537/201/1 541/205/1
f 540/204/1 541/205/1 542/206/1
f 543/207/1 544/208/1 545/209/1
f 545/209/1 544/208/1 546/210/1
f 545/209/1 546/210/1 547/211/1
f 545/209/1 548/212/1 543/207/1
f 548/212/1 545/209/1 549/213/1
f 548/212/1 549/213/1 550/214/1
f 551/195/150 552/215/150 553/196/150
f 552/215/150 554/216/150 553/196/150
f 555/217/14 556/218/14 557/188/14
f 556/218/14 558/190/14 557/188/14
f 559/219/150 560/198/150 561/220/150
f 562/197/150 561/220/150 560/198/150
f 563/221/14 564/222/14 565/223/14
f 566/224/14 565/223/14 564/222/14
f 567/195/5 568/190/5 569/218/5
f 568/190/5 567/195/5 570/196/5
f 571/197/5 572/221/5 573/223/5
f 572/221/5 571/197/5 574/198/5
f 575/225/173 576/226/173 577/196/173
f 576/226/173 578/216/173 577/196/173
f 579/227/173 580/228/173 581/229/173
f 582/230/173 581/229/173 580/228/173
f 583/225/3 584/231/3 585/232/3
f 584/231/3 583/225/3 586/196/3
f 587/230/3 588/233/3 589/234/3
f 588/233/3 587/230/3 590/228/3
f 591/209/4 592/213/4 593/212/4
f 593/212/4 592/213/4 594/214/4
f 595/207/4 591/209/4 593/212/4
f 591/209/4 595/207/4 596/208/4
f 591/209/4 596/208/4 597/210/4
f 591/209/4 597/210/4 598/211/4
f 599/225/2 600/190/2 601/187/2
f 600/190/2 599/225/2 602/196/2
f 603/230/2 604/194/2 605/191/2
f 604/194/2 603/230/2 606/228/2
