# Blender 5.1.2
# www.blender.org
mtllib Googie.mtl
o Googie
v 0.499994 0.500000 -0.500023
v 0.499994 0.500000 0.499977
v 0.499994 -0.500000 -0.500023
v 0.499994 -0.500000 0.499977
v -0.500006 0.500000 0.499977
v 0.499994 0.500000 0.499977
v -0.500006 0.500000 -0.500023
v 0.499994 0.500000 -0.500023
v 0.499994 0.500000 0.499977
v -0.500006 0.500000 0.499977
v 0.499994 -0.500000 0.499977
v -0.500006 -0.500000 0.499977
v -0.500006 0.500000 0.499977
v -0.500006 0.500000 -0.500023
v -0.500006 -0.500000 0.499977
v -0.500006 -0.500000 -0.500023
v -0.500006 -0.500000 -0.500023
v 0.499994 -0.500000 -0.500023
v -0.500006 -0.500000 0.499977
v 0.499994 -0.500000 0.499977
v -0.500006 0.500000 -0.500023
v 0.499994 0.500000 -0.500023
v -0.500006 -0.500000 -0.500023
v 0.499994 -0.500000 -0.500023
v 0.499994 0.500000 0.519974
v -0.500006 0.500000 0.519974
v 0.499994 -0.500000 0.519974
v -0.500006 -0.500000 0.519974
v 0.519993 0.500000 -0.500023
v 0.519993 0.500000 0.499977
v 0.519993 -0.500000 -0.500023
v 0.519993 -0.500000 0.499977
v -0.500006 0.500000 -0.520023
v 0.499994 0.500000 -0.520023
v -0.500006 -0.500000 -0.520023
v 0.499994 -0.500000 -0.520023
v -0.520006 0.500000 0.499977
v -0.520006 0.500000 -0.500023
v -0.520006 -0.500000 0.499977
v -0.520006 -0.500000 -0.500023
v -0.500006 0.520000 0.499977
v 0.499994 0.520000 0.499977
v -0.500006 0.520000 -0.500023
v 0.499994 0.520000 -0.500023
v 0.499994 -0.520000 0.499977
v -0.500006 -0.520000 0.499977
v 0.499994 -0.520000 -0.500023
v -0.500006 -0.520000 -0.500023
vn 1.0000 -0.0000 -0.0000
vn -0.0000 1.0000 -0.0000
vn -0.0000 -0.0000 1.0000
vn -1.0000 -0.0000 -0.0000
vn -0.0000 -1.0000 -0.0000
vn -0.0000 -0.0000 -1.0000
vt 0.445561 0.220702
vt -0.854439 0.220702
vt 0.445561 -1.079300
vt -0.854439 -1.079300
vt 1.000000 1.000000
vt 0.000000 1.000000
vt 1.000000 0.000000
vt 0.000000 0.000000
s 1
usemtl Googie1Mtl
f 1/1/1 2/2/1 3/3/1
f 3/3/1 2/2/1 4/4/1
f 5/1/2 6/2/2 7/3/2
f 7/3/2 6/2/2 8/4/2
f 9/1/3 10/2/3 11/3/3
f 11/3/3 10/2/3 12/4/3
f 13/1/4 14/2/4 15/3/4
f 15/3/4 14/2/4 16/4/4
f 17/1/5 18/2/5 19/3/5
f 19/3/5 18/2/5 20/4/5
f 21/1/6 22/2/6 23/3/6
f 23/3/6 22/2/6 24/4/6
usemtl Googie2Mtl
f 25/5/3 26/6/3 27/7/3
f 27/7/3 26/6/3 28/8/3
f 29/5/1 30/6/1 31/7/1
f 31/7/1 30/6/1 32/8/1
f 33/5/6 34/6/6 35/7/6
f 35/7/6 34/6/6 36/8/6
f 37/5/4 38/6/4 39/7/4
f 39/7/4 38/6/4 40/8/4
f 41/5/2 42/6/2 43/7/2
f 43/7/2 42/6/2 44/8/2
f 45/5/5 46/6/5 47/7/5
f 47/7/5 46/6/5 48/8/5
