# Blender 5.1.2
# www.blender.org
mtllib Grenade.mtl
o Grenade
v -0.056686 0.189836 -0.064562
v -0.032688 0.240922 -0.042662
v -0.026985 0.213283 -0.064562
v -0.082287 0.201844 -0.042662
v -0.012085 0.225006 -0.097361
v -0.007885 0.260461 -0.097361
v -0.001385 0.201276 -0.042662
v 0.023312 0.220815 -0.097361
v -0.050987 0.162198 -0.042662
v -0.071587 0.178113 -0.097361
v -0.075787 0.142659 -0.097361
v -0.106987 0.182305 -0.097361
v -0.076485 0.174205 -0.173861
v -0.111187 0.146850 -0.097361
v -0.082287 0.201844 -0.152061
v -0.050987 0.162198 -0.152061
v -0.032688 0.240922 -0.152061
v -0.001385 0.201276 -0.152061
v -0.007187 0.228914 -0.173861
v 0.027512 0.256269 -0.097361
v -0.012085 0.225006 -0.097361
v -0.032688 0.240922 -0.152061
v -0.026985 0.213283 -0.130161
v -0.007885 0.260461 -0.097361
v -0.001385 0.201276 -0.152061
v 0.023312 0.220815 -0.097361
v -0.050987 0.162198 -0.152061
v -0.056686 0.189836 -0.130161
v -0.082287 0.201844 -0.152061
v -0.071587 0.178113 -0.097361
v -0.075787 0.142659 -0.097361
v -0.106987 0.182305 -0.097361
v -0.076485 0.174205 -0.020861
v -0.111187 0.146850 -0.097361
v -0.050987 0.162198 -0.042662
v -0.082287 0.201844 -0.042662
v -0.001385 0.201276 -0.042662
v -0.032688 0.240922 -0.042662
v -0.007187 0.228914 -0.020861
v 0.027512 0.256269 -0.097361
v -0.046585 -0.314584 0.197639
v -0.113987 -0.366832 0.088839
v -0.046585 -0.366832 0.116739
v -0.046585 -0.385180 0.021439
v -0.141888 -0.366832 0.021439
v -0.222786 -0.314584 0.021439
v 0.020912 -0.366832 0.088839
v 0.048813 -0.366832 0.021439
v 0.129715 -0.314584 0.021439
v -0.171188 -0.314584 0.146038
v -0.276787 -0.236388 0.021439
v 0.078114 -0.314584 0.146038
v 0.183712 -0.236388 0.021439
v -0.046585 -0.236388 0.251638
v -0.209385 -0.236388 0.184238
v -0.298885 -0.138605 0.021439
v 0.116314 -0.236388 0.184238
v 0.205814 -0.138605 0.021439
v -0.046585 -0.138605 0.273739
v -0.224987 -0.138605 0.199839
v 0.131912 -0.138605 0.199839
v 0.125912 -0.037126 0.193838
v 0.197315 -0.037126 0.021439
v -0.218987 -0.037126 0.193838
v -0.290386 -0.037126 0.021439
v 0.093212 0.036090 0.161139
v -0.046585 -0.037126 0.265240
v -0.186287 0.036090 0.161139
v -0.244186 0.036090 0.021439
v 0.151012 0.036090 0.021439
v -0.046585 0.036090 0.218939
v -0.124187 0.072982 0.099039
v -0.156387 0.072982 0.021439
v -0.046585 0.072982 0.131239
v 0.031113 0.072982 0.099039
v 0.063313 0.072982 0.021439
v 0.020912 -0.366832 -0.046061
v 0.129715 -0.314584 0.021439
v 0.048813 -0.366832 0.021439
v -0.046585 -0.385180 0.021439
v 0.078114 -0.314584 -0.103262
v 0.183712 -0.236388 0.021439
v -0.046585 -0.366832 -0.073961
v 0.116314 -0.236388 -0.141460
v 0.205814 -0.138605 0.021439
v -0.046585 -0.314584 -0.154861
v -0.113987 -0.366832 -0.046061
v -0.141888 -0.366832 0.021439
v -0.222786 -0.314584 0.021439
v -0.171188 -0.314584 -0.103262
v -0.276787 -0.236388 0.021439
v -0.046585 -0.236388 -0.208860
v -0.209385 -0.236388 -0.141460
v -0.298885 -0.138605 0.021439
v -0.046585 -0.138605 -0.230961
v -0.224987 -0.138605 -0.157061
v -0.218987 -0.037126 -0.151062
v -0.290386 -0.037126 0.021439
v 0.131912 -0.138605 -0.157061
v -0.186287 0.036090 -0.118361
v 0.125912 -0.037126 -0.151062
v 0.197315 -0.037126 0.021439
v -0.046585 -0.037126 -0.222462
v 0.093212 0.036090 -0.118361
v 0.151012 0.036090 0.021439
v -0.046585 0.036090 -0.176161
v -0.244186 0.036090 0.021439
v -0.046585 0.072982 -0.088461
v 0.031113 0.072982 -0.056261
v 0.063313 0.072982 0.021439
v -0.124187 0.072982 -0.056261
v -0.156387 0.072982 0.021439
v 0.024212 0.072982 0.021439
v 0.031113 0.072982 0.099039
v 0.003513 0.072982 0.071440
v -0.046585 0.072982 0.131239
v -0.046585 0.072982 0.092138
v -0.096588 0.072982 0.071440
v -0.124187 0.072982 0.099039
v -0.117287 0.072982 0.021439
v -0.096588 0.072982 -0.028662
v -0.117287 0.138300 0.021439
v -0.096588 0.138300 -0.028662
v -0.046585 0.072982 -0.049360
v -0.046585 0.138300 -0.049360
v 0.003513 0.072982 -0.028662
v 0.003513 0.138300 -0.028662
v 0.024212 0.138300 0.021439
v -0.046585 0.138300 0.092138
v -0.096588 0.072982 0.071440
v -0.046585 0.072982 0.092138
v -0.096588 0.138300 0.071440
v -0.117287 0.072982 0.021439
v -0.117287 0.138300 0.021439
v 0.003513 0.138300 0.071440
v 0.003513 0.072982 0.071440
v 0.024212 0.138300 0.021439
v 0.024212 0.072982 0.021439
v -0.100086 0.314701 -0.066662
v 0.077015 0.314701 -0.066662
v 0.077015 0.137600 -0.066662
v -0.100086 0.314701 0.109438
v 0.077015 0.314701 0.109438
v -0.135986 0.314701 -0.039261
v -0.135986 0.314701 0.082039
v -0.135986 0.137600 -0.039261
v -0.135986 0.137600 0.082039
v -0.100086 0.137600 -0.066662
v -0.100086 0.137600 0.109438
v 0.077015 0.137600 0.109438
v 0.190113 0.162391 -0.006561
v 0.190113 0.162391 0.049339
v 0.270412 -0.063115 0.049339
v 0.138313 0.118798 -0.006561
v 0.270412 -0.063115 -0.006561
v 0.288013 -0.286110 0.049339
v 0.221115 -0.071644 -0.006561
v 0.288013 -0.286110 -0.006561
v 0.240112 -0.355414 0.049339
v 0.235912 -0.282509 -0.006561
v 0.221115 -0.071644 0.049339
v 0.240112 -0.355414 -0.006561
v 0.209614 -0.323003 -0.006561
v 0.235912 -0.282509 0.049339
v 0.209614 -0.323003 0.049339
v -0.100086 0.137600 0.109438
v 0.077015 0.137600 0.109438
v 0.077015 0.314701 0.109438
v -0.100086 0.314701 0.109438
v -0.135986 0.314701 0.082039
v -0.135986 0.137600 0.082039
v 0.190113 0.162391 0.049339
v 0.077015 0.314701 -0.066662
v 0.138313 0.118798 0.049339
v 0.077015 0.137600 -0.066662
v 0.138313 0.118798 -0.006561
v 0.221115 -0.071644 -0.006561
v 0.221115 -0.071644 0.049339
v 0.270412 -0.063115 0.049339
v 0.270412 -0.063115 -0.006561
v 0.190113 0.162391 -0.006561
v 0.235912 -0.282509 0.049339
v 0.288013 -0.286110 0.049339
v 0.235912 -0.282509 -0.006561
v 0.209614 -0.323003 -0.006561
v 0.240112 -0.355414 0.049339
v 0.209614 -0.323003 0.049339
v 0.240112 -0.355414 -0.006561
v 0.288013 -0.286110 -0.006561
vn 0.3938 0.3072 -0.8664
vn -0.4253 0.8425 0.3307
vn -0.3938 -0.3072 -0.8664
vn -0.7238 0.6058 0.3304
vn -0.7847 -0.6199 -0.0000
vn -0.2758 0.9612 -0.0000
vn 0.7238 -0.6058 0.3304
vn 0.8730 -0.4877 -0.0000
vn 0.4252 -0.8425 0.3307
vn 0.7847 0.6199 -0.0000
vn 0.2758 -0.9612 -0.0000
vn -0.8730 0.4877 -0.0000
vn -0.8731 0.4876 -0.0000
vn -0.7238 0.6058 -0.3305
vn 0.4252 -0.8425 -0.3307
vn -0.4252 0.8425 -0.3307
vn 0.7238 -0.6058 -0.3304
vn 0.8730 -0.4876 -0.0000
vn -0.3938 -0.3072 0.8664
vn -0.2758 0.9612 0.0001
vn 0.3938 0.3072 0.8664
vn -0.7238 0.6058 -0.3304
vn 0.2758 -0.9612 0.0001
vn -0.8730 0.4876 0.0001
vn 0.2757 -0.9612 -0.0000
vn -0.8731 0.4876 -0.0001
vn -0.7238 0.6057 0.3304
vn 0.7238 -0.6057 0.3304
vn -0.4252 0.8425 0.3308
vn -0.2757 0.9612 -0.0000
vn -0.0000 -0.6668 0.7452
vn -0.3397 -0.8770 0.3397
vn -0.0001 -0.8764 0.4816
vn -0.0000 -1.0000 -0.0000
vn -0.4816 -0.8764 0.0001
vn -0.7452 -0.6668 -0.0000
vn 0.3397 -0.8770 0.3397
vn 0.4816 -0.8764 0.0001
vn 0.7452 -0.6668 0.0001
vn -0.5264 -0.6678 0.5264
vn -0.9317 -0.3632 -0.0000
vn 0.5264 -0.6678 0.5264
vn 0.9317 -0.3632 -0.0000
vn -0.0000 -0.3632 0.9317
vn -0.6594 -0.3611 0.6594
vn -0.9980 -0.0629 -0.0000
vn 0.6594 -0.3611 0.6594
vn 0.9980 -0.0629 -0.0000
vn -0.0000 -0.0629 0.9980
vn -0.7057 -0.0627 0.7057
vn 0.7057 -0.0627 0.7057
vn 0.6815 0.2663 0.6816
vn 0.9633 0.2685 -0.0000
vn -0.6816 0.2664 0.6816
vn -0.9633 0.2685 -0.0000
vn 0.5069 0.6971 0.5070
vn -0.0001 0.2685 0.9633
vn -0.5070 0.6971 0.5070
vn -0.7188 0.6952 -0.0000
vn 0.7189 0.6952 -0.0000
vn -0.0000 0.6952 0.7189
vn -0.2445 0.9383 0.2445
vn -0.3398 0.9405 -0.0000
vn -0.0000 0.9405 0.3398
vn 0.2444 0.9383 0.2444
vn 0.3398 0.9405 -0.0000
vn 0.3397 -0.8770 -0.3397
vn 0.7452 -0.6668 -0.0000
vn 0.4816 -0.8764 -0.0000
vn 0.5264 -0.6678 -0.5264
vn 0.9317 -0.3632 -0.0001
vn -0.0000 -0.8764 -0.4816
vn 0.6594 -0.3611 -0.6594
vn -0.0000 -0.6668 -0.7452
vn -0.3397 -0.8770 -0.3397
vn -0.4816 -0.8764 -0.0000
vn -0.7452 -0.6668 -0.0001
vn -0.5264 -0.6678 -0.5264
vn -0.0000 -0.3632 -0.9317
vn -0.6594 -0.3611 -0.6594
vn -0.0000 -0.0629 -0.9980
vn -0.7057 -0.0627 -0.7057
vn -0.6816 0.2664 -0.6815
vn 0.7057 -0.0627 -0.7057
vn -0.5070 0.6971 -0.5070
vn 0.6816 0.2664 -0.6816
vn -0.0001 0.2685 -0.9633
vn 0.5070 0.6971 -0.5070
vn 0.7188 0.6952 -0.0000
vn -0.0000 0.6952 -0.7189
vn -0.0000 0.9405 -0.3398
vn 0.2444 0.9384 -0.2444
vn -0.2445 0.9384 -0.2443
vn 0.7226 0.6913 -0.0000
vn 0.2444 0.9384 0.2444
vn 0.5108 0.6915 0.5107
vn -0.0000 0.6912 0.7227
vn -0.5108 0.6915 0.5108
vn -0.2444 0.9384 0.2444
vn -0.7226 0.6912 -0.0000
vn -0.5109 0.6916 -0.5106
vn -1.0000 -0.0000 -0.0000
vn -0.7071 -0.0000 -0.7071
vn -0.0000 0.6912 -0.7226
vn -0.0000 -0.0000 -1.0000
vn 0.5108 0.6915 -0.5108
vn 0.7071 -0.0000 -0.7071
vn 1.0000 -0.0000 -0.0000
vn -0.0000 -0.0000 1.0000
vn -0.5108 0.6916 0.5108
vn -0.0000 0.6913 0.7226
vn -0.7071 -0.0000 0.7071
vn -0.7226 0.6913 -0.0000
vn 0.7068 -0.0000 0.7074
vn 0.5108 0.6915 0.5108
vn -0.0943 0.6677 -0.7384
vn 0.2994 0.7092 -0.6383
vn 0.1100 -0.6285 -0.7700
vn -0.0942 0.6677 0.7384
vn 0.2994 0.7092 0.6383
vn -0.9362 0.2675 -0.2281
vn -0.9362 0.2674 0.2282
vn -0.9362 -0.2675 -0.2281
vn -0.9362 -0.2674 0.2281
vn -0.0943 -0.6677 -0.7384
vn -0.0943 -0.6677 0.7384
vn 0.1100 -0.6285 0.7700
vn 0.8181 0.3697 -0.4405
vn 0.8181 0.3697 0.4405
vn 0.7466 0.1650 0.6445
vn -0.1575 -0.4883 -0.8584
vn 0.7466 0.1650 -0.6445
vn 0.8026 -0.0865 0.5902
vn -0.6368 -0.1572 -0.7548
vn 0.8026 -0.0866 -0.5902
vn 0.3772 -0.8017 0.4637
vn -0.6621 0.0315 -0.7488
vn -0.6368 -0.1572 0.7548
vn 0.3773 -0.8016 -0.4637
vn -0.7700 -0.0472 -0.6364
vn -0.6620 0.0316 0.7488
vn -0.7699 -0.0472 -0.6364
vn -0.7699 -0.0471 0.6364
vn -0.0942 -0.6677 0.7384
vn -0.0943 0.6677 0.7384
vn -0.9362 0.2675 0.2281
vn -0.9362 -0.2675 0.2281
vn -0.1575 -0.4883 0.8584
vn 0.1099 -0.6285 -0.7700
vn -0.6368 -0.1573 -0.7548
vn 0.7466 0.1651 0.6444
vn 0.7466 0.1651 -0.6445
vn 0.7466 0.1651 0.6445
vn -0.6620 0.0315 0.7488
vn 0.8026 -0.0866 0.5902
vn -0.6620 0.0315 -0.7488
vn -0.7699 -0.0471 -0.6364
vn 0.3772 -0.8016 -0.4637
vn 0.8026 -0.0865 -0.5902
vt 0.875660 0.500000
vt 0.868579 0.959253
vt 0.870350 0.500000
vt 0.877431 0.959253
vt 0.867694 0.500000
vt 0.864154 0.959253
vt 0.868579 0.040747
vt 0.864154 0.040747
vt 0.877431 0.040747
vt 0.878316 0.500000
vt 0.881857 0.040747
vt 0.881857 0.959253
vt 0.879201 0.500000
vt 0.885397 0.500000
vt 0.866809 0.500000
vt 0.860613 0.500000
vt 0.232937 0.170044
vt 0.273299 0.079852
vt 0.232937 0.079852
vt 0.232937 0.048180
vt 0.290017 0.079852
vt 0.338407 0.170044
vt 0.192576 0.079852
vt 0.175857 0.079852
vt 0.127467 0.170044
vt 0.307516 0.170044
vt 0.370740 0.305028
vt 0.158359 0.170044
vt 0.095134 0.305028
vt 0.232937 0.305028
vt 0.330379 0.305028
vt 0.383958 0.473822
vt 0.135496 0.305028
vt 0.081916 0.473822
vt 0.232937 0.473822
vt 0.339725 0.473822
vt 0.126149 0.473822
vt 0.129746 0.648997
vt 0.087003 0.648997
vt 0.336128 0.648997
vt 0.378872 0.648997
vt 0.149320 0.775384
vt 0.232937 0.648997
vt 0.316554 0.775384
vt 0.351189 0.775384
vt 0.114685 0.775384
vt 0.232937 0.775384
vt 0.279425 0.839067
vt 0.298682 0.839067
vt 0.232937 0.839067
vt 0.186449 0.839067
vt 0.167193 0.839067
vt 0.190613 0.839067
vt 0.203010 0.839067
vt 0.262865 0.839067
vt 0.275261 0.839067
vt 0.275261 0.951820
vt 0.262865 0.951820
vt 0.232937 0.951820
vt 0.203010 0.951820
vt 0.190613 0.951820
vt 0.635430 0.959253
vt 0.598862 0.959253
vt 0.598862 0.710759
vt 0.642853 0.959253
vt 0.642853 0.710759
vt 0.635430 0.710759
vt 0.580888 0.704234
vt 0.563190 0.426233
vt 0.586209 0.684378
vt 0.560203 0.110445
vt 0.569111 0.417165
vt 0.566047 0.040747
vt 0.566059 0.121297
vt 0.570855 0.065928
s 1
usemtl Pin1Mtl
f 1/1/1 2/2/2 3/3/3
f 2/2/2 1/1/1 4/4/4
f 2/2/2 5/5/5 3/3/3
f 2/2/2 6/6/6 5/5/5
f 5/5/5 7/7/7 3/3/3
f 7/7/7 5/5/5 8/8/8
f 9/9/9 3/3/3 7/7/7
f 3/3/3 9/9/9 1/1/1
f 9/9/9 10/10/10 1/1/1
f 10/10/10 4/4/4 1/1/1
f 10/10/10 9/9/9 11/11/11
f 4/4/4 10/10/10 12/12/12
f 13/13/3 11/11/11 14/14/5
f 12/12/13 13/13/3 14/14/5
f 13/13/3 12/12/13 15/4/14
f 11/11/11 13/13/3 16/9/15
f 17/2/16 13/13/3 15/4/14
f 18/7/17 16/9/15 13/13/3
f 13/13/3 17/2/16 19/15/1
f 13/13/3 19/15/1 18/7/17
f 6/6/6 19/15/1 17/2/16
f 8/8/18 18/7/17 19/15/1
f 19/15/1 6/6/6 20/16/10
f 19/15/1 20/16/10 8/8/18
f 21/5/5 22/2/16 23/3/19
f 22/2/16 21/5/5 24/6/20
f 25/7/17 21/5/5 23/3/19
f 25/7/17 26/8/8 21/5/5
f 23/3/19 27/9/15 25/7/17
f 22/2/16 28/1/21 23/3/19
f 27/9/15 23/3/19 28/1/21
f 22/2/16 29/4/22 28/1/21
f 30/10/10 27/9/15 28/1/21
f 29/4/22 30/10/10 28/1/21
f 27/9/15 30/10/10 31/11/23
f 30/10/10 29/4/22 32/12/24
f 31/11/25 33/13/19 34/14/5
f 33/13/19 32/12/26 34/14/5
f 33/13/19 31/11/25 35/9/9
f 32/12/26 33/13/19 36/4/27
f 37/7/28 33/13/19 35/9/9
f 38/2/29 36/4/27 33/13/19
f 33/13/19 37/7/28 39/15/21
f 33/13/19 39/15/21 38/2/29
f 26/8/18 39/15/21 37/7/28
f 39/15/21 24/6/30 38/2/29
f 39/15/21 26/8/18 40/16/10
f 39/15/21 40/16/10 24/6/30
usemtl Handle1Mtl.021
f 41/17/31 42/18/32 43/19/33
f 43/19/33 42/18/32 44/20/34
f 42/18/32 45/21/35 44/20/34
f 42/18/32 46/22/36 45/21/35
f 47/23/37 43/19/33 44/20/34
f 47/23/37 41/17/31 43/19/33
f 48/24/38 47/23/37 44/20/34
f 49/25/39 47/23/37 48/24/38
f 46/22/36 42/18/32 50/26/40
f 42/18/32 41/17/31 50/26/40
f 50/26/40 51/27/41 46/22/36
f 49/25/39 52/28/42 47/23/37
f 41/17/31 47/23/37 52/28/42
f 53/29/43 52/28/42 49/25/39
f 41/17/31 54/30/44 50/26/40
f 52/28/42 54/30/44 41/17/31
f 51/27/41 50/26/40 55/31/45
f 50/26/40 54/30/44 55/31/45
f 55/31/45 56/32/46 51/27/41
f 53/29/43 57/33/47 52/28/42
f 54/30/44 52/28/42 57/33/47
f 58/34/48 57/33/47 53/29/43
f 54/30/44 59/35/49 55/31/45
f 57/33/47 59/35/49 54/30/44
f 56/32/46 55/31/45 60/36/50
f 55/31/45 59/35/49 60/36/50
f 57/33/47 58/34/48 61/37/51
f 59/35/49 57/33/47 61/37/51
f 58/34/48 62/38/52 61/37/51
f 61/37/51 62/38/52 59/35/49
f 62/38/52 58/34/48 63/39/53
f 56/32/46 60/36/50 64/40/54
f 59/35/49 64/40/54 60/36/50
f 65/41/55 56/32/46 64/40/54
f 63/39/53 66/42/56 62/38/52
f 59/35/49 62/38/52 67/43/57
f 64/40/54 59/35/49 67/43/57
f 67/43/57 62/38/52 66/42/56
f 65/41/55 64/40/54 68/44/58
f 67/43/57 68/44/58 64/40/54
f 68/44/58 69/45/59 65/41/55
f 66/42/56 63/39/53 70/46/60
f 68/44/58 67/43/57 71/47/61
f 67/43/57 66/42/56 71/47/61
f 68/44/58 72/48/62 69/45/59
f 69/45/59 72/48/62 73/49/63
f 68/44/58 74/50/64 72/48/62
f 74/50/64 68/44/58 71/47/61
f 66/42/56 74/50/64 71/47/61
f 74/50/64 66/42/56 75/51/65
f 70/46/60 75/51/65 66/42/56
f 75/51/65 70/46/60 76/52/66
f 77/23/67 78/25/68 79/24/69
f 77/23/67 79/24/69 80/20/34
f 78/25/68 77/23/67 81/28/70
f 81/28/70 82/29/71 78/25/68
f 83/19/72 77/23/67 80/20/34
f 82/29/71 81/28/70 84/33/73
f 84/33/73 85/34/48 82/29/71
f 86/17/74 81/28/70 77/23/67
f 86/17/74 77/23/67 83/19/72
f 87/18/75 83/19/72 80/20/34
f 87/18/75 86/17/74 83/19/72
f 88/21/76 87/18/75 80/20/34
f 87/18/75 88/21/76 89/22/77
f 87/18/75 89/22/77 90/26/78
f 86/17/74 87/18/75 90/26/78
f 90/26/78 89/22/77 91/27/41
f 92/30/79 81/28/70 86/17/74
f 90/26/78 92/30/79 86/17/74
f 92/30/79 84/33/73 81/28/70
f 91/27/41 93/31/80 90/26/78
f 92/30/79 90/26/78 93/31/80
f 93/31/80 91/27/41 94/32/46
f 95/35/81 84/33/73 92/30/79
f 93/31/80 95/35/81 92/30/79
f 94/32/46 96/36/82 93/31/80
f 95/35/81 93/31/80 96/36/82
f 94/32/46 97/40/83 96/36/82
f 97/40/83 95/35/81 96/36/82
f 97/40/83 94/32/46 98/41/55
f 95/35/81 99/37/84 84/33/73
f 85/34/48 84/33/73 99/37/84
f 98/41/55 100/44/85 97/40/83
f 101/38/86 85/34/48 99/37/84
f 95/35/81 101/38/86 99/37/84
f 85/34/48 101/38/86 102/39/53
f 97/40/83 103/43/87 95/35/81
f 101/38/86 95/35/81 103/43/87
f 103/43/87 97/40/83 100/44/85
f 104/42/88 102/39/53 101/38/86
f 103/43/87 104/42/88 101/38/86
f 102/39/53 104/42/88 105/46/89
f 104/42/88 103/43/87 106/47/90
f 100/44/85 106/47/90 103/43/87
f 100/44/85 98/41/55 107/45/59
f 104/42/88 106/47/90 108/50/91
f 100/44/85 108/50/91 106/47/90
f 105/46/89 104/42/88 109/51/92
f 109/51/92 104/42/88 108/50/91
f 105/46/89 109/51/92 110/52/66
f 107/45/59 111/48/93 100/44/85
f 108/50/91 100/44/85 111/48/93
f 111/48/93 107/45/59 112/49/63
f 109/51/92 113/53/94 110/52/66
f 113/53/94 114/51/95 110/52/66
f 114/51/95 113/53/94 115/54/96
f 116/50/64 114/51/95 115/54/96
f 115/54/96 117/50/97 116/50/64
f 118/55/98 116/50/64 117/50/97
f 116/50/64 118/55/98 119/48/99
f 120/56/100 119/48/99 118/55/98
f 119/48/99 120/56/100 112/49/63
f 111/48/93 112/49/63 120/56/100
f 111/48/93 120/56/100 121/55/101
f 121/55/101 108/50/91 111/48/93
f 121/55/101 120/56/100 122/57/102
f 123/58/103 121/55/101 122/57/102
f 123/58/103 124/50/104 121/55/101
f 108/50/91 121/55/101 124/50/104
f 123/58/103 125/59/105 124/50/104
f 126/54/106 108/50/91 124/50/104
f 125/59/105 126/54/106 124/50/104
f 108/50/91 126/54/106 109/51/92
f 125/59/105 127/60/107 126/54/106
f 113/53/94 109/51/92 126/54/106
f 127/60/107 113/53/94 126/54/106
f 113/53/94 127/60/107 128/61/108
f 129/59/109 130/55/110 131/50/111
f 130/55/110 129/59/109 132/58/112
f 133/56/113 130/55/110 132/58/112
f 134/57/102 133/56/113 132/58/112
f 131/50/111 135/60/114 129/59/109
f 135/60/114 131/50/111 136/54/115
f 136/54/115 137/61/108 135/60/114
f 137/61/108 136/54/115 138/53/94
f 139/62/116 140/63/117 141/64/118
f 140/63/117 142/62/119 143/63/120
f 139/62/116 142/62/119 140/63/117
f 144/65/121 142/62/119 139/62/116
f 142/62/119 144/65/121 145/65/122
f 144/65/121 146/66/123 145/65/122
f 146/66/123 144/65/121 139/62/116
f 146/66/123 147/66/124 145/65/122
f 139/62/116 148/67/125 146/66/123
f 147/66/124 146/66/123 148/67/125
f 139/62/116 141/64/118 148/67/125
f 148/67/125 149/67/126 147/66/124
f 148/67/125 150/64/127 149/67/126
f 148/67/125 141/64/118 150/64/127
f 141/64/118 140/63/117 151/68/128
f 151/68/128 140/63/117 152/68/129
f 152/68/129 153/69/130 151/68/128
f 141/64/118 151/68/128 154/70/131
f 151/68/128 155/69/132 154/70/131
f 153/69/130 156/71/133 155/69/132
f 154/70/131 155/69/132 157/72/134
f 158/71/135 155/69/132 156/71/133
f 158/71/135 156/71/133 159/73/136
f 155/69/132 160/74/137 157/72/134
f 160/74/137 155/69/132 158/71/135
f 160/74/137 161/72/138 157/72/134
f 158/71/135 162/73/139 160/74/137
f 160/74/137 162/73/139 163/75/140
f 164/74/141 163/75/142 165/75/143
f 166/67/144 167/64/127 168/63/120
f 166/67/144 168/63/120 169/62/145
f 166/67/144 169/62/145 170/65/146
f 170/65/146 171/66/147 166/67/144
f 167/64/127 172/68/129 168/63/120
f 173/63/117 168/63/120 172/68/129
f 172/68/129 167/64/127 174/70/148
f 167/64/127 175/64/149 176/70/131
f 167/64/127 176/70/131 174/70/148
f 177/72/150 174/70/148 176/70/131
f 174/70/148 177/72/150 178/72/138
f 174/70/148 179/69/151 172/68/129
f 179/69/151 174/70/148 178/72/138
f 180/69/152 181/68/128 179/69/153
f 179/69/151 178/72/138 182/74/154
f 183/71/155 179/69/151 182/74/154
f 178/72/138 184/74/156 182/74/154
f 185/75/157 182/74/154 184/74/156
f 182/74/154 186/73/136 183/71/155
f 186/73/136 182/74/154 187/75/143
f 188/73/158 187/75/143 185/75/157
f 187/75/143 188/73/158 186/73/136
f 188/73/158 189/71/159 186/73/136
