# Blender 5.1.2
# www.blender.org
mtllib HalfConnectorBall.mtl
o HalfConnectorBall
v 0.128407 0.142419 0.023247
v 0.128407 0.142419 0.023247
v 0.113207 0.142417 0.023247
v 0.128407 0.142419 0.023247
v 0.128407 0.142419 0.023247
v 0.113207 0.142417 0.023247
v 0.461706 0.142421 0.023247
v 0.264706 0.142417 0.023247
v 0.461706 0.142421 0.023247
v 0.128407 0.142419 0.023247
v 0.461706 0.142419 0.023247
v 0.461706 0.142419 0.023247
v 0.461706 0.142419 0.023247
v 0.461706 0.142419 0.023247
v 0.128407 0.142419 0.356647
v 0.128407 0.142419 0.023247
v 0.128407 0.475749 0.023247
v 0.128407 0.142419 0.356647
v 0.128407 0.142419 0.356647
v 0.128407 0.142419 0.023247
v 0.128407 0.142419 0.356647
v 0.128407 -0.190915 0.356647
v 0.128407 0.142419 0.356647
v 0.128407 0.142419 0.356647
v 0.128407 -0.190915 0.356647
v 0.128407 0.142419 0.356647
v 0.128407 0.142419 0.023247
v 0.113207 0.142417 0.023247
v 0.128407 0.475749 0.023247
v -0.204994 0.142421 0.356647
v -0.204994 0.142419 0.356647
v -0.204994 0.142419 0.356647
v -0.204994 0.142419 0.356647
v -0.204994 0.142421 0.356647
v -0.204994 0.142419 0.356647
v -0.204994 0.142419 0.356647
v -0.204994 0.142419 0.356647
v -0.204994 0.142419 0.356647
v -0.038294 0.142419 0.356647
v -0.204994 0.142419 0.356647
v 0.128407 0.142419 0.356647
v -0.038294 0.475749 0.023247
v -0.204994 0.142419 0.023247
v -0.204994 0.142417 0.349047
v -0.204994 0.142419 0.023247
v -0.204994 0.142417 0.349047
v -0.204994 0.142419 0.023247
v -0.204994 0.142419 0.023247
v 0.128407 0.142419 0.023247
v 0.128407 0.475749 0.023247
v -0.204994 0.142419 -0.310053
v -0.204994 0.142419 0.023247
v -0.204994 0.142421 -0.310053
v -0.204994 0.142419 0.023247
v -0.204994 0.142421 -0.310053
v -0.204994 0.142419 0.023247
v -0.204994 0.142419 0.023247
v -0.204994 0.142419 0.023247
v -0.204994 0.142419 0.023247
v -0.204994 0.142419 0.023247
v -0.204994 0.142419 -0.310053
v -0.204994 0.475749 -0.143353
v -0.204994 0.142419 0.023247
v -0.204994 0.142417 0.349047
v -0.204994 0.475749 0.023247
v -0.538294 0.142419 0.023247
v -0.538294 0.142419 0.023247
v -0.538294 -0.190915 0.023247
v -0.538294 0.142419 0.023247
v -0.538294 0.142419 0.023247
v -0.538294 0.142419 -0.310053
v -0.538294 0.142419 -0.310053
v -0.538294 0.142419 0.023247
v -0.538294 0.142419 0.023247
v -0.538294 0.142419 0.023247
v -0.538294 0.142419 -0.310053
v -0.538294 -0.190915 0.023247
v -0.538294 0.142419 -0.310053
v 0.461706 0.142419 0.023247
v 0.461706 0.142421 -0.310053
v 0.128407 0.475749 -0.310053
v 0.461706 0.142421 -0.310053
v 0.461706 0.142419 0.023247
v 0.461706 0.142419 -0.310053
v -0.204994 0.142419 0.023247
v -0.204994 0.142419 0.023247
v -0.538294 0.142419 0.023247
v -0.538294 0.142419 0.023247
v -0.538294 0.142419 0.023247
v -0.204994 0.142419 0.023247
v -0.204994 0.475749 0.023247
v -0.038294 0.142419 0.356647
v 0.128407 0.142417 0.356647
v 0.128407 0.142417 0.356647
v -0.038294 0.142419 0.356647
v 0.128407 0.142417 0.356647
v -0.204994 0.142417 0.356647
v -0.204994 0.142417 0.356647
v -0.204994 0.142419 0.356647
v -0.204994 0.142417 0.356647
v -0.204994 0.142417 0.356647
v -0.538294 -0.190915 -0.310053
v -0.204994 -0.190917 0.023247
v -0.204994 -0.190915 -0.310053
v -0.538294 -0.190917 0.023247
v -0.538294 -0.190915 0.023247
v -0.204994 -0.190915 0.023247
v -0.204994 -0.190917 0.356647
v -0.204994 -0.190915 0.023247
v -0.538294 -0.190915 0.023247
v -0.538294 0.142417 0.023247
v -0.204994 0.142419 0.023247
v -0.204994 -0.190913 0.023247
v -0.204994 -0.190915 0.023247
v -0.204994 -0.190913 0.023247
v -0.204994 -0.190915 0.356647
v -0.204994 -0.190915 0.023247
v -0.204994 -0.190915 0.023247
v 0.128407 -0.190915 0.023247
v 0.128407 -0.190917 0.023247
v 0.128407 -0.190915 0.023247
v 0.128407 -0.190917 -0.143352
v 0.128407 -0.190917 -0.143352
v 0.128407 -0.190915 -0.310053
v 0.128407 -0.190913 0.023247
v 0.128407 -0.190915 -0.310053
v 0.461706 -0.190915 -0.310053
v 0.461706 -0.190915 0.023247
v 0.128407 -0.190915 0.023247
v 0.264706 -0.190915 0.023247
v 0.461706 -0.190915 0.023247
v 0.461706 -0.190913 0.023247
v 0.461706 -0.190917 0.023247
v 0.461706 -0.190915 0.023247
v 0.461706 -0.190913 0.023247
v 0.461706 -0.190917 0.023247
v 0.128407 0.142419 0.023247
v 0.128407 -0.190915 0.023247
v 0.128407 -0.190915 0.356647
v 0.128407 -0.190915 0.023247
v 0.128407 0.142419 0.023247
v 0.264706 0.142417 0.023247
v 0.128407 -0.190913 0.023247
v 0.264706 -0.190915 0.023247
v 0.264706 -0.190915 0.023247
v 0.128407 -0.190913 0.023247
v 0.128407 -0.190915 -0.310053
v -0.204994 -0.190913 0.023247
v -0.204994 -0.190913 0.023247
v -0.204994 -0.190913 0.023247
v -0.204994 -0.190913 0.023247
v 0.128407 -0.190915 0.356647
v 0.128407 -0.190915 -0.310053
v -0.204994 -0.190915 -0.310053
v 0.128407 0.142421 -0.310053
v 0.128407 -0.524249 -0.310053
v 0.264706 0.142417 0.023247
v 0.128407 0.142419 0.023247
v 0.128407 0.142419 0.356647
v 0.461706 -0.190913 0.023247
v 0.461706 -0.190913 0.023247
v 0.461706 -0.190913 0.023247
v 0.461706 -0.190915 -0.310053
v 0.461706 -0.190915 0.023247
v 0.461706 -0.190915 -0.310053
v 0.461706 0.142419 -0.310053
v 0.461706 0.142419 0.023247
v 0.461706 -0.190913 0.023247
v 0.461706 -0.190915 0.023247
v 0.128407 0.142419 0.356647
v 0.461706 -0.190913 0.023247
v 0.461706 -0.190915 0.023247
v 0.461706 -0.190915 -0.310053
v 0.461706 0.142419 0.023247
v 0.461706 0.142419 0.023247
v -0.538294 -0.190915 0.023247
v -0.204994 -0.190915 -0.310053
v -0.204994 -0.190913 0.023247
v -0.538294 -0.190915 -0.310053
v -0.538294 -0.190915 -0.310053
v -0.538294 0.142419 -0.310053
v -0.538294 0.142419 -0.310053
v -0.538294 -0.190915 -0.310053
v -0.204994 0.142419 -0.310053
v 0.461706 -0.190915 0.023247
v 0.461706 -0.190915 -0.310053
v 0.461706 -0.190913 0.023247
v 0.128407 -0.524249 -0.143352
v 0.461706 -0.190915 0.023247
v 0.461706 -0.190915 0.023247
v 0.461706 -0.190915 0.023247
v 0.461706 -0.190915 0.023247
v 0.461706 -0.190915 0.023247
v 0.461706 -0.190915 0.023247
v 0.461706 -0.190915 0.023247
v 0.461706 -0.190915 0.023247
v 0.461706 -0.190915 0.023247
v 0.461706 -0.190915 0.023247
v 0.461706 -0.190915 0.023247
v 0.461706 -0.190915 0.023247
v 0.461706 -0.190915 0.023247
v -0.204994 -0.190917 0.356647
v -0.204994 -0.190915 0.356647
v -0.204994 -0.190913 0.356647
v -0.204994 -0.190915 0.356647
v -0.204994 -0.190915 0.356647
v -0.538294 -0.190915 0.023247
v -0.538294 0.142417 0.023247
v 0.128407 -0.190917 0.023247
v 0.128407 -0.190917 -0.143352
v 0.128407 -0.524249 -0.143352
v 0.461706 -0.190917 0.023247
v 0.461706 -0.190917 0.023247
v 0.461706 -0.190917 0.023247
v 0.461706 -0.190917 0.023247
v 0.461706 -0.190915 0.023247
v 0.128407 -0.190917 0.023247
v 0.128407 -0.190915 0.356647
v 0.128407 -0.190917 0.023247
v 0.128407 -0.190915 0.023247
v 0.128407 -0.190917 0.023247
v 0.128407 -0.190917 0.023247
v 0.128407 -0.190915 0.356647
v 0.461706 -0.190915 0.023247
v 0.461706 -0.190915 0.023247
v 0.461706 -0.190915 0.023247
v -0.204994 -0.190915 0.356647
v -0.204994 -0.190915 0.356647
v 0.128407 0.142419 0.356647
v 0.128407 0.142417 0.356647
v -0.204994 0.142417 0.356647
v -0.204994 -0.190913 0.356647
v -0.204994 -0.190915 0.356647
v -0.204994 0.142419 0.356647
v -0.204994 -0.190913 0.356647
v -0.204994 -0.190915 0.356647
v -0.204994 -0.524249 0.023247
v -0.204994 -0.190917 0.023247
v -0.538294 -0.190917 0.023247
v -0.204994 -0.190917 0.023247
v -0.204994 -0.524249 0.023247
v -0.204994 -0.524251 -0.310053
v 0.461706 -0.190915 0.023247
v 0.128407 -0.524251 0.023247
v 0.128407 -0.524251 0.023247
v 0.128407 -0.524251 0.023247
v 0.128407 -0.524249 -0.143352
v 0.128407 -0.524249 -0.143352
v -0.204994 -0.524249 0.023247
v -0.204994 -0.327870 0.023247
v -0.204994 -0.327870 0.023247
v -0.204994 -0.524249 0.023247
v -0.204994 -0.190919 0.356647
v -0.204994 -0.524251 0.023247
v -0.204994 -0.524249 0.023247
v -0.204994 -0.327870 0.023247
v -0.204994 -0.190919 0.023247
v 0.128407 -0.327870 0.023247
v -0.204994 -0.190919 0.023247
v -0.204994 -0.190919 0.356647
v -0.204994 -0.524251 0.023247
v 0.128407 -0.190919 0.356647
v -0.204994 -0.524249 0.023247
v -0.204994 -0.524249 0.023247
v -0.204994 -0.524251 0.023247
v -0.204994 -0.524251 0.023247
v -0.204994 -0.524249 0.023247
v 0.128407 -0.524249 0.023247
v -0.204994 -0.524249 -0.310053
v -0.204994 -0.524251 0.023247
v 0.128407 -0.327870 0.023247
v -0.204994 -0.190915 -0.310053
v -0.204994 -0.524249 -0.310053
v -0.204994 -0.524249 -0.310053
v 0.128407 -0.524249 -0.143352
v 0.128407 -0.327870 0.023247
v 0.128407 -0.190919 0.023247
v 0.128407 -0.190919 0.356647
v 0.128407 -0.190919 0.023247
v 0.128407 -0.524249 0.023247
v 0.128407 -0.524251 0.023247
v 0.128407 -0.524249 0.023247
v 0.128407 -0.524249 0.023247
v 0.128407 -0.524251 0.023247
v 0.128407 -0.524249 -0.219152
v 0.128407 -0.524251 0.023247
v 0.128407 -0.524249 -0.219152
v 0.128407 -0.524249 0.023247
v 0.128407 -0.524249 0.023247
v 0.128407 -0.524251 0.023247
v 0.128407 -0.524249 -0.219152
v 0.128407 -0.524249 -0.294853
v 0.128407 -0.524249 -0.219152
v 0.128407 -0.524249 -0.294853
v 0.128407 -0.524249 -0.310053
v 0.128407 -0.524247 -0.294853
v 0.128407 -0.524249 -0.310053
v 0.461706 -0.190915 -0.310053
v 0.128407 -0.524249 -0.310053
v 0.128407 -0.524247 -0.294853
v 0.128407 -0.524249 -0.310053
v 0.128407 -0.524249 -0.310053
v -0.204994 -0.190919 0.023247
v -0.204994 -0.190919 0.356647
v 0.128407 -0.190919 0.356647
v 0.128407 -0.524251 0.023247
v 0.128407 -0.190919 0.023247
v -0.204994 -0.524251 -0.310053
v -0.538294 -0.190917 0.023247
v -0.538294 -0.190915 -0.310053
v -0.204994 -0.524249 0.023247
v -0.204994 -0.524251 -0.310053
v -0.538294 -0.190915 -0.310053
v 0.461706 0.142419 -0.310053
v 0.461706 0.142419 0.023247
v -0.204994 0.142421 -0.310053
v -0.204994 0.475749 -0.310053
v -0.204994 0.142419 0.356647
v -0.204994 0.142419 0.356647
v -0.204994 0.142419 0.356647
v -0.204994 0.142419 0.349047
v -0.204994 0.142419 0.356647
v -0.204994 0.142419 0.356647
v -0.204994 0.475749 0.023247
v -0.204994 0.142419 0.356647
v -0.204994 0.142419 0.356647
v -0.538294 0.142417 0.023247
v -0.204994 0.142419 0.356647
v -0.204994 0.142419 0.349047
v -0.204994 0.142419 0.349047
v -0.204994 0.142419 0.356647
v -0.204994 0.142419 0.023247
v -0.204994 0.475749 0.023247
v 0.128407 0.475749 0.023247
v 0.113207 0.475749 0.023247
v 0.128407 0.475749 0.023247
v 0.113207 0.475749 0.023247
v 0.128407 0.475749 0.023247
v 0.128407 0.475749 0.023247
v 0.128407 0.475749 0.023247
v 0.128407 0.475749 0.023247
v 0.113207 0.475749 0.023247
v 0.113207 0.475749 0.023247
v 0.128407 0.475749 -0.143353
v -0.038294 0.475749 0.023247
v -0.038294 0.475749 0.023247
v -0.038294 0.475749 0.023247
v -0.204994 0.475749 0.023247
v -0.204994 0.475749 -0.310053
v -0.204994 0.475749 -0.310053
v -0.204994 0.475749 -0.310053
v -0.204994 0.475749 -0.310053
v -0.204994 0.475749 -0.310053
v -0.204994 0.475749 -0.143353
v -0.204994 0.475749 -0.310053
v -0.204994 0.475749 -0.310053
v -0.204994 0.475749 -0.310053
v -0.204994 0.475749 -0.310053
v -0.204994 0.475749 -0.310053
v -0.204994 0.475749 0.023247
v 0.128407 0.475749 -0.310053
v 0.128407 0.475749 -0.310053
v 0.461706 0.142419 0.023247
v 0.128407 0.475749 0.023247
v 0.128407 0.142419 0.023247
v 0.128407 0.475749 0.023247
v 0.128407 0.475749 0.023247
v 0.128407 0.475749 0.023247
v 0.128407 0.475749 -0.310053
v 0.128407 0.475749 -0.310053
v 0.128407 0.475749 -0.310053
v 0.128407 0.475749 -0.310053
v 0.128407 0.475749 -0.310053
v 0.461706 0.142421 -0.310053
v -0.204994 0.475749 0.023247
v -0.204994 0.475749 -0.310053
v -0.204994 0.475749 -0.310053
v -0.204994 0.475749 0.023247
v 0.128407 0.475749 -0.310053
v 0.128407 0.475749 -0.310053
v 0.128407 0.475749 -0.310053
v 0.128407 0.475749 -0.310053
v 0.128407 0.475749 -0.310053
v 0.128407 0.475749 -0.310053
v 0.128407 0.475749 -0.310053
v 0.128407 0.142421 -0.310053
v 0.128407 0.475749 -0.143353
v 0.128407 0.475749 0.023247
v 0.128407 0.475749 0.023247
v 0.128407 0.475749 -0.310053
v 0.128407 0.475749 -0.310053
v 0.128407 0.475749 -0.143353
v 0.128407 0.142421 -0.310053
v 0.128407 0.475749 -0.310053
v -0.204994 0.475749 0.023247
v -0.204994 0.475749 0.023247
v -0.204994 0.475749 0.023247
v -0.204994 0.475749 0.023247
v -0.204994 0.475749 0.023247
v -0.204994 0.142419 0.023247
v -0.204994 0.475749 -0.310053
v -0.204994 0.475749 -0.310053
v -0.204994 0.475749 -0.310053
v -0.204994 0.475749 -0.310053
v -0.204994 0.475749 -0.310053
v -0.204994 -0.190915 -0.310053
vn -0.0000 -0.0000 1.0000
vn -0.0000 -0.0000 -0.0000
vn 1.0000 -0.0000 -0.0000
vn -0.0000 1.0000 -0.0000
vn -0.0000 -0.0000 -1.0000
vn -0.0001 1.0000 -0.0000
vn -1.0000 -0.0000 -0.0000
vn -0.0000 0.7072 0.7070
vn -0.0000 1.0000 0.0001
vn 0.7071 0.7071 -0.0000
vn -0.0000 -1.0000 -0.0000
vn -0.0000 0.7071 0.7071
vn -0.0001 0.7071 0.7071
vn -0.0000 1.0000 -0.0001
vn 0.7071 -0.0000 0.7071
vn 0.0001 -1.0000 -0.0000
vn 0.7072 -0.0000 0.7070
vn 0.7071 -0.7071 -0.0000
vn 0.7071 -0.7071 -0.0001
vn -0.7071 0.7071 -0.0000
vn 0.7072 -0.7071 -0.0000
vn -0.7071 -0.0000 0.7071
vn -0.0000 -1.0000 -0.0001
vn -0.7072 -0.0000 0.7070
vn 0.7072 -0.7070 -0.0000
vn 0.7071 -0.0000 0.7072
vn -0.0000 -0.7072 0.7070
vn 1.0000 -0.0003 -0.0000
vn -0.0000 -1.0000 0.0001
vn -0.7071 -0.7071 -0.0000
vn -0.0001 0.7072 0.7070
vn -0.7071 -0.0001 0.7071
vn -0.0001 1.0000 -0.0001
vn 0.7071 0.7071 -0.0001
vn 0.7072 0.7070 -0.0000
vt -2.645560 -431.188995
vt -2.648590 -431.188995
vt 4.487770 -431.122009
vt 4.454440 -431.122009
vt 4.487770 -431.255005
vt 4.421110 -431.255005
vt 4.487770 -431.321991
vt -2.578900 -431.188995
vt -2.618290 -431.188995
vt 4.387770 -1.221680
vt 4.321110 -1.221680
vt 4.354440 -431.188995
vt 4.421110 -431.188995
vt 4.421110 -431.122009
vt 4.387770 -1.155020
vt 4.354440 -431.255005
vt -2.645560 -431.255005
vt 4.387770 -431.188995
vt 4.390810 -431.188995
vt 4.387770 -431.122009
vt 4.454440 -1.155020
vt -2.612230 -431.188995
vt -2.712230 -431.188995
vt -2.678900 -431.188995
vt -2.678900 -431.122009
vt 4.454440 -1.221680
vt 4.454440 -1.156540
vt -2.613750 -431.188995
vt 4.454440 -1.288350
vt -2.745560 -431.188995
vt 4.487770 -431.188995
vt -2.778900 -431.188995
vt -2.778900 -431.255005
vt 4.521110 -1.221680
vt 4.521110 -1.288350
vt -2.678900 -431.255005
vt 4.321110 -1.288350
vt 4.387770 -1.288350
vt -2.578900 -1.288350
vt -2.578900 -1.221680
vt -2.712230 -1.221680
vt -2.778900 -1.221680
vt -2.712230 -431.122009
vt -2.712230 -431.255005
vt -2.645560 -431.282990
vt 4.321110 -431.188995
vt 4.454440 -431.188995
vt 4.521110 -431.255005
vt 4.521110 -431.188995
vt -2.712230 -1.288350
vt -2.712230 -1.155020
vt 4.454440 -431.255005
vt 4.387770 -1.255020
vt 4.321110 -431.255005
vt 4.387770 -431.255005
vt 4.360500 -431.255005
vt -2.612230 -431.255005
vt 4.360500 -431.188995
vt -2.618290 -431.255005
vt -2.618290 -1.221680
vt -2.645560 -1.221680
vt -2.645560 -1.288350
vt -2.645560 -1.155020
vt 4.387770 -431.321991
vt 4.360500 -1.221680
vt -2.578900 -431.255005
vt -2.745560 -431.255005
vt -2.778900 -1.288350
vt -2.645560 -1.255020
vt -2.745560 -431.122009
vt -2.712230 -431.321991
vt 4.421110 -431.321991
vt -2.645560 -431.321991
vt -2.678900 -431.321991
vt 4.454440 -431.321991
vt -2.712230 -431.282990
vt -2.678900 -431.282990
vt 4.454440 -431.282990
vt 4.387770 -431.282990
vt -2.745560 -431.321991
vt 4.421110 -431.282990
vt 4.469590 -431.321991
vt -2.645560 -1.270170
vt 4.484740 -431.321991
vt -2.645560 -1.285320
vt -2.645560 -431.122009
vt -2.648590 -431.122009
vt 4.390810 -1.221680
vt 4.390810 -431.122009
vt 4.421110 -1.221680
s 0
usemtl Handle1Mtl.024
f 1/1/1 2/1/1 3/2/1
f 352/3/2 62/4/2 357/3/2
s 1
f 406/5/3 240/6/3 242/7/3
f 7/8/1 2/1/1 8/9/1
s 0
f 4/10/4 9/11/4 10/10/5
f 11/8/1 7/8/1 12/8/1
f 9/11/6 13/11/5 14/11/4
s 1
f 15/12/3 16/13/3 17/14/3
s 0
f 5/10/2 18/15/2 19/15/2
s 1
f 20/13/3 21/12/3 22/16/3
s 0
f 19/15/2 4/10/2 5/10/2
f 23/1/1 24/1/1 25/17/1
f 26/15/5 19/15/5 18/15/5
s 1
f 27/18/5 28/19/5 29/20/5
s 0
f 30/21/6 31/21/5 32/21/4
f 33/22/7 34/22/7 35/22/5
f 34/22/7 36/22/5 37/22/7
f 32/21/5 31/21/4 18/15/4
f 18/15/4 31/21/4 26/15/5
f 24/1/1 38/23/1 39/24/1
s 1
f 40/23/8 41/1/8 42/25/8
s 0
f 43/26/2 44/27/2 45/26/2
f 46/28/2 47/24/2 48/24/2
f 20/13/5 49/13/3 50/14/3
s 1
f 51/29/4 52/26/9 53/29/9
s 0
f 52/26/2 51/29/2 54/26/2
f 55/30/2 56/24/2 47/24/2
f 57/23/1 58/23/1 59/23/1
f 54/26/5 43/26/5 52/26/5
s 1
f 60/13/3 61/31/3 62/4/3
f 63/24/7 64/28/7 65/25/7
s 0
f 66/32/1 67/32/1 68/33/1
f 69/34/2 70/34/2 71/35/2
f 72/30/2 73/24/2 74/24/2
s 1
f 75/24/7 76/30/7 77/36/7
s 0
f 78/35/2 69/34/2 71/35/2
s 1
f 79/11/10 80/37/10 81/38/10
f 82/39/11 83/40/11 84/39/11
s 0
f 85/41/5 86/41/11 87/42/11
s 1
f 59/23/1 66/32/1 68/33/1
s 0
f 88/42/11 85/41/11 87/42/5
s 1
f 89/32/1 90/23/1 91/43/1
f 143/17/1 178/44/1 271/45/1
f 374/46/5 166/46/5 155/18/5
f 184/47/5 180/48/5 182/49/5
s 0
f 97/23/1 98/23/12 99/23/13
f 402/50/5 404/50/5 405/50/5
s 1
f 102/35/4 103/26/4 104/29/4
f 103/26/4 102/35/4 105/34/4
f 106/42/11 107/41/11 108/51/11
f 109/52/5 110/48/5 111/49/5
s 0
f 109/52/5 112/47/5 113/52/5
s 1
f 112/47/5 109/52/5 111/49/5
f 114/6/3 115/6/3 116/16/3
s 0
f 113/52/5 117/52/5 109/52/5
f 107/41/2 118/41/2 108/51/2
f 119/10/4 120/10/4 121/10/5
s 1
f 120/10/4 119/10/4 122/53/4
f 123/52/3 124/5/3 125/6/3
f 126/38/4 122/53/4 127/37/4
s 0
f 128/54/5 129/55/5 130/56/5
s 1
f 119/10/4 131/11/4 122/53/4
f 127/37/4 131/11/4 132/11/14
f 131/11/4 127/37/4 122/53/4
s 0
f 133/6/15 134/6/15 135/6/15
f 131/11/4 136/11/4 132/11/6
s 1
f 137/24/7 138/36/7 139/57/7
s 0
f 138/36/7 137/24/7 140/36/5
s 1
f 129/55/5 141/18/5 142/58/5
f 143/17/1 144/59/1 8/9/1
f 145/60/11 146/61/11 147/62/11
s 0
f 148/41/5 149/41/11 146/61/11
f 150/36/5 151/36/7 47/24/7
s 1
f 148/41/11 146/61/11 152/63/11
f 153/55/5 154/52/5 155/18/5
f 154/52/5 153/55/5 156/64/5
f 157/65/4 158/10/4 159/15/4
f 142/58/5 130/56/5 129/55/5
s 0
f 134/6/15 160/6/1 135/6/15
s 1
f 161/54/5 128/54/5 130/56/5
f 162/40/16 163/39/11 164/40/11
f 163/39/11 162/40/16 145/60/11
f 165/54/5 153/55/5 155/18/5
f 147/62/11 163/39/11 145/60/11
f 165/54/5 155/18/5 166/46/5
s 0
f 133/6/15 135/6/15 167/13/15
f 12/8/1 168/66/1 169/66/1
s 1
f 133/6/15 167/13/17 170/12/17
s 0
f 171/40/5 162/40/11 164/40/16
s 1
f 172/6/3 173/5/3 174/13/3
f 157/65/4 159/15/4 175/11/4
f 8/9/1 12/8/1 7/8/1
f 149/41/11 176/42/11 177/50/11
f 68/33/1 178/44/1 59/23/1
f 77/36/7 76/30/7 179/67/7
s 0
f 180/48/5 181/49/5 182/49/5
s 1
f 176/42/11 183/68/11 177/50/11
f 154/52/5 180/48/5 184/47/5
f 185/40/18 186/39/18 187/40/18
f 186/39/18 185/40/18 188/69/18
s 0
f 189/54/5 128/54/5 190/54/5
f 185/40/1 191/40/18 188/69/19
s 1
f 354/43/20 72/30/20 74/24/20
s 0
f 194/40/5 195/40/21 187/40/18
f 187/40/18 195/40/5 185/40/21
f 402/50/5 403/50/5 404/50/5
f 196/40/5 197/40/5 198/40/5
f 197/40/5 196/40/5 199/40/5
s 1
f 401/70/20 72/30/20 354/43/20
s 0
f 199/40/5 196/40/5 200/40/5
f 192/6/1 201/6/1 134/6/1
s 1
f 182/49/5 359/4/5 184/47/5
s 0
f 202/44/22 203/44/22 204/44/22
s 1
f 205/51/11 108/51/23 118/41/11
s 0
f 206/16/2 114/6/2 116/16/2
s 1
f 207/33/24 202/44/24 208/32/24
f 209/36/7 210/44/7 211/71/7
s 0
f 187/40/18 212/40/25 194/40/18
f 213/11/4 132/11/6 136/11/5
f 214/66/1 215/66/1 216/66/1
s 1
f 139/57/7 138/36/7 217/36/7
f 133/6/15 170/12/17 218/16/17
s 0
f 219/17/1 220/17/1 221/17/1
s 1
f 222/61/11 200/40/11 223/63/11
s 0
f 224/66/1 219/17/1 221/17/1
f 193/6/15 133/6/15 225/6/1
s 1
f 218/16/17 225/6/26 133/6/15
s 0
f 226/40/11 223/63/11 200/40/5
f 226/40/5 200/40/5 196/40/5
f 354/43/2 356/70/2 401/70/2
f 397/43/1 57/23/1 348/43/1
s 1
f 227/51/11 148/41/11 152/63/11
s 0
f 203/44/1 228/44/22 204/44/22
s 1
f 139/57/7 229/22/7 137/24/7
f 22/16/3 125/6/3 20/13/3
s 0
f 400/23/1 395/43/1 57/23/1
s 1
f 230/1/1 39/24/1 25/17/1
s 0
f 227/51/11 152/63/11 205/51/5
f 202/44/22 204/44/22 231/23/22
f 35/22/7 232/57/7 233/57/7
f 204/44/22 234/23/22 231/23/22
s 1
f 202/44/24 231/23/22 208/32/24
s 0
f 235/51/11 227/51/5 205/51/11
s 1
f 39/24/1 38/23/1 236/44/1
f 236/44/1 25/17/1 39/24/1
s 0
f 33/22/5 35/22/7 233/57/7
s 1
f 237/71/1 238/44/1 239/33/1
f 240/6/3 241/72/3 242/7/3
s 0
f 243/40/18 244/61/18 191/40/5
s 1
f 245/73/1 224/66/1 221/17/1
f 246/74/7 209/36/7 211/71/7
s 0
f 247/75/3 123/52/3 248/75/5
s 1
f 244/61/18 188/69/18 191/40/18
s 0
f 249/71/1 250/76/1 178/44/1
s 1
f 251/77/7 252/74/7 253/57/7
f 252/74/7 254/74/7 253/57/7
s 0
f 254/74/7 252/74/5 255/74/7
s 1
f 256/78/5 257/52/5 258/79/5
f 259/36/7 251/77/7 253/57/7
f 260/51/27 261/41/27 262/63/27
s 0
f 263/41/5 264/41/11 265/41/16
s 1
f 266/75/5 267/75/5 268/64/5
f 254/74/7 150/36/7 269/80/7
s 0
f 178/44/1 270/71/1 249/71/1
s 1
f 178/44/1 250/76/1 271/45/1
f 269/80/7 150/36/7 272/67/7
f 273/75/5 154/52/5 156/64/5
f 263/41/11 274/50/11 275/69/11
f 274/50/11 263/41/11 265/41/23
f 276/81/3 277/6/3 278/16/3
f 279/55/5 258/79/5 257/52/5
f 280/61/11 263/41/11 275/69/11
s 0
f 281/72/3 282/72/5 283/72/3
s 1
f 268/64/5 284/64/5 266/75/5
s 0
f 247/75/2 248/75/2 285/82/2
s 1
f 248/75/3 125/6/3 281/72/3
f 125/6/3 248/75/3 123/52/3
f 280/61/11 275/69/11 286/61/23
f 275/69/11 274/50/11 287/83/11
f 276/81/3 278/16/3 283/72/3
s 0
f 271/45/1 288/73/1 143/17/1
f 289/61/5 280/61/11 286/61/16
f 290/73/1 143/17/1 288/73/1
s 1
f 186/39/18 188/69/18 291/83/18
s 0
f 292/84/2 293/82/2 285/82/2
s 1
f 291/83/18 294/85/18 186/39/18
s 0
f 293/82/2 247/75/2 285/82/2
s 1
f 295/7/3 292/84/3 296/84/3
f 294/85/18 297/62/18 186/39/18
f 298/54/5 299/64/5 153/55/5
f 300/85/11 287/83/11 274/50/11
f 285/82/28 296/84/3 292/84/3
f 274/50/11 301/62/29 300/85/11
s 0
f 296/84/2 302/7/2 295/7/2
f 153/55/5 299/64/5 156/64/5
s 1
f 303/26/4 304/21/4 305/15/4
f 278/16/3 281/72/3 283/72/3
f 306/61/27 262/63/27 261/41/27
f 305/15/4 307/10/4 303/26/4
f 308/80/30 309/36/30 310/67/30
f 309/36/30 308/80/30 311/74/30
f 312/75/5 313/48/5 154/52/5
f 2/1/1 143/17/1 8/9/1
f 174/13/3 173/5/3 314/31/3
s 0
f 169/66/1 11/8/1 12/8/1
f 315/13/3 172/6/3 174/13/5
f 24/1/1 230/1/1 25/17/1
s 1
f 230/1/1 24/1/1 39/24/1
f 154/52/5 316/47/5 155/18/5
s 0
f 316/47/5 154/52/5 184/47/5
s 1
f 155/18/5 316/47/5 317/4/5
s 0
f 395/43/1 348/43/1 57/23/1
s 1
f 231/23/22 234/23/22 208/32/24
s 0
f 319/21/2 320/21/2 321/27/2
f 322/23/1 323/23/1 40/23/1
f 322/23/1 40/23/12 324/43/31
f 325/22/5 35/22/7 34/22/7
f 234/23/1 326/23/22 208/32/32
f 327/34/33 328/21/5 319/21/6
f 325/22/7 34/22/7 37/22/5
s 1
f 327/34/4 319/21/4 321/27/4
f 329/28/7 46/28/7 48/24/7
f 64/28/7 330/28/7 65/25/7
f 330/28/7 331/22/7 65/25/7
s 0
f 151/36/7 48/24/5 47/24/7
s 1
f 332/26/4 327/34/4 321/27/4
s 0
f 178/44/1 57/23/1 59/23/1
s 1
f 333/14/3 60/13/3 62/4/3
f 41/1/8 334/86/8 335/87/8
f 3/2/1 2/1/1 336/86/1
f 3/2/1 336/86/1 337/87/1
s 0
f 338/10/5 339/10/5 340/10/5
f 50/14/5 341/14/3 20/13/3
f 342/88/4 338/10/5 340/10/4
s 1
f 28/19/5 343/89/5 29/20/5
f 342/88/4 340/10/4 344/53/4
f 42/25/8 41/1/8 335/87/8
s 0
f 345/25/1 337/87/1 346/25/1
s 1
f 324/43/8 40/23/8 42/25/8
f 347/90/4 342/88/4 344/53/4
s 0
f 345/25/1 346/25/1 348/43/1
f 349/4/5 350/4/5 351/4/5
f 352/3/2 353/3/2 62/4/2
f 354/43/2 355/70/2 356/70/2
s 1
f 61/31/3 357/3/3 62/4/3
s 0
f 358/4/5 184/47/5 359/4/5
s 1
f 360/25/20 354/43/20 74/24/20
s 0
f 81/38/5 361/38/34 79/11/35
f 361/38/5 81/38/5 362/38/5
s 1
f 363/8/1 364/86/1 365/1/1
f 366/10/10 79/11/10 361/38/10
s 0
f 367/86/1 365/1/1 364/86/1
s 1
f 14/11/4 10/10/6 9/11/6
s 0
f 368/86/1 367/86/1 364/86/1
f 369/62/5 370/62/5 371/62/5
f 372/20/5 155/18/5 373/20/5
s 1
f 155/18/5 372/20/5 374/46/5
f 375/25/7 376/70/7 55/30/7
f 377/29/4 378/26/4 347/90/4
f 375/25/7 55/30/7 47/24/7
s 0
f 379/20/5 380/20/5 381/20/5
f 382/62/5 369/62/5 371/62/5
f 383/70/5 384/70/5 385/70/5
s 1
f 385/70/7 386/30/7 387/43/7
s 0
f 387/43/2 388/25/2 383/70/2
f 388/25/2 387/43/2 389/25/2
f 385/70/2 387/43/2 383/70/2
s 1
f 344/53/4 390/38/4 377/29/4
f 391/3/3 392/4/3 393/31/3
f 344/53/4 377/29/4 347/90/4
f 155/18/5 317/4/5 394/20/5
s 0
f 395/43/1 345/25/1 348/43/1
f 348/43/1 396/43/1 397/43/1
f 378/26/5 398/26/4 347/90/4
f 399/25/5 375/25/7 47/24/7
