# Blender 5.1.2
# www.blender.org
mtllib Joust.mtl
o Joust
v 0.541238 0.026321 -0.032984
v 0.541238 -0.009398 -0.041183
v 0.541238 0.009392 -0.041183
v 0.541238 -0.038038 -0.018284
v 0.541238 -0.026319 -0.032984
v 0.541238 0.009392 0.041115
v 0.541238 0.038041 0.018316
v 0.541238 0.038041 -0.018284
v 0.541238 0.042222 0.000015
v 0.541238 0.026321 0.033016
v 0.541238 -0.038038 0.018316
v 0.541238 -0.042218 0.000015
v 0.541238 -0.009398 0.041115
v 0.541238 -0.026319 0.033016
v 0.132678 0.124702 0.156315
v 0.097848 0.028862 0.013916
v 0.132678 0.180192 0.086716
v 0.097848 0.032042 0.000015
v 0.097848 0.019971 0.025015
v 0.132678 0.200001 0.000015
v 0.132678 0.044502 0.195015
v 0.097848 0.028862 -0.013884
v 0.097848 0.007132 0.031216
v 0.132678 0.180192 -0.086784
v 0.097848 -0.007128 0.031216
v 0.132678 0.124701 -0.156384
v 0.132678 -0.044508 0.195015
v 0.097848 0.019971 -0.025084
v 0.097848 -0.019979 0.025015
v 0.132678 0.044502 -0.194984
v 0.132678 -0.124699 0.156315
v 0.097848 0.007132 -0.031284
v 0.132678 -0.180198 0.086716
v 0.132678 -0.044508 -0.194984
v 0.097848 -0.028868 0.013916
v 0.097848 -0.007128 -0.031284
v 0.097848 -0.032038 0.000015
v 0.097848 -0.019979 -0.025084
v 0.132678 -0.199999 0.000015
v 0.132678 -0.124699 -0.156383
v 0.132678 -0.180198 -0.086784
v 0.097848 -0.028868 -0.013884
v -0.026112 -0.127679 -0.061483
v 0.132678 -0.199999 0.000015
v -0.026112 -0.141709 0.000015
v 0.132678 -0.180198 -0.086784
v -0.275692 -0.092489 -0.044584
v -0.275692 -0.102648 0.000015
v -0.026112 -0.088349 -0.110785
v 0.132678 -0.124699 -0.156383
v 0.132678 -0.044508 -0.194984
v -0.275692 -0.063998 -0.080284
v -0.026112 -0.031528 -0.138184
v 0.132678 0.044502 -0.194984
v -1.438462 -0.020638 -0.009985
v -1.438462 -0.022898 0.000015
v -1.777052 0.000001 0.000015
v -1.438462 -0.014279 -0.017885
v -0.275692 -0.022839 -0.100084
v -0.026112 0.031532 -0.138184
v -1.438462 -0.005099 -0.022385
v -0.275692 0.022841 -0.100084
v -1.438462 0.005091 -0.022385
v -1.438462 0.014282 -0.017885
v -0.275692 0.064002 -0.080284
v -0.026112 0.088351 -0.110785
v 0.132678 0.124701 -0.156384
v 0.132678 0.180192 -0.086784
v -0.026112 0.127671 -0.061483
v 0.132678 0.200001 0.000015
v -0.026112 0.141711 0.000015
v -0.275692 0.092481 -0.044584
v -0.275692 0.102651 0.000015
v -1.438462 0.020632 -0.009985
v -1.438462 0.022902 0.000015
v 0.132678 0.180192 0.086716
v -0.026112 0.088351 0.110815
v 0.132678 0.124702 0.156315
v 0.132678 0.044502 0.195015
v -0.026112 0.127671 0.061516
v 0.132678 0.200001 0.000015
v -0.026112 0.141711 0.000015
v -0.026112 0.031532 0.138115
v 0.132678 -0.044508 0.195015
v -0.275692 0.064002 0.080215
v -0.275692 0.092481 0.044516
v -0.275692 0.102651 0.000015
v -1.438462 0.020632 0.009916
v -1.438462 0.022902 0.000015
v -1.777052 0.000001 0.000015
v -1.438462 0.014282 0.017916
v -0.275692 0.022841 0.100016
v -1.438462 0.005091 0.022316
v -0.275692 -0.022839 0.100016
v -1.438462 -0.005099 0.022316
v -1.438462 -0.014279 0.017916
v -1.438462 -0.020638 0.009916
v -1.438462 -0.022898 0.000015
v -0.275692 -0.102648 0.000015
v -0.275692 -0.092489 0.044516
v -0.026112 -0.141709 0.000015
v -0.275692 -0.063998 0.080215
v -0.026112 -0.031528 0.138115
v -0.026112 -0.127679 0.061516
v 0.132678 -0.199999 0.000015
v 0.132678 -0.180198 0.086716
v -0.026112 -0.088349 0.110815
v 0.132678 -0.124699 0.156315
v 0.097848 -0.028868 -0.013884
v 0.515348 -0.051479 0.000015
v 0.097848 -0.032038 0.000015
v 0.515348 -0.046379 -0.022385
v 0.097848 -0.019979 -0.025084
v 0.541238 -0.038038 -0.018284
v 0.541238 -0.042218 0.000015
v 0.541238 -0.026319 -0.032984
v 0.515348 -0.032099 -0.040285
v 0.515348 -0.011459 -0.050184
v 0.541238 -0.009398 -0.041183
v 0.097848 -0.007128 -0.031284
v 0.541238 0.009392 -0.041183
v 0.515348 0.011451 -0.050184
v 0.097848 0.007132 -0.031284
v 0.541238 0.026321 -0.032984
v 0.097848 0.019971 -0.025084
v 0.515348 0.032091 -0.040285
v 0.515348 0.046381 -0.022385
v 0.541238 0.038041 -0.018284
v 0.097848 0.028862 -0.013884
v 0.515348 0.051471 0.000015
v 0.541238 0.042222 0.000015
v 0.097848 0.032042 0.000015
v 0.097848 0.019971 0.025015
v 0.515348 0.046381 0.022316
v 0.097848 0.028862 0.013916
v 0.515348 0.051471 0.000015
v 0.097848 0.032042 0.000015
v 0.541238 0.038041 0.018316
v 0.541238 0.042222 0.000015
v 0.541238 0.026321 0.033016
v 0.515348 0.032091 0.040216
v 0.515348 0.011451 0.050215
v 0.541238 0.009392 0.041115
v 0.097848 0.007132 0.031216
v 0.541238 -0.009398 0.041115
v 0.515348 -0.011459 0.050215
v 0.097848 -0.007128 0.031216
v 0.541238 -0.026319 0.033016
v 0.097848 -0.019979 0.025015
v 0.515348 -0.032099 0.040216
v 0.515348 -0.046379 0.022316
v 0.541238 -0.038038 0.018316
v 0.097848 -0.028868 0.013916
v 0.515348 -0.051479 0.000015
v 0.541238 -0.042218 0.000015
v 0.097848 -0.032038 0.000015
vn 1.0000 -0.0000 -0.0000
vn 1.0000 -0.0001 -0.0000
vn 1.0000 0.0001 -0.0000
vn 0.9793 -0.1264 -0.1580
vn 0.9795 -0.1817 -0.0869
vn 0.9787 -0.2052 -0.0000
vn 0.9792 -0.0474 -0.1974
vn 0.9795 -0.1817 0.0869
vn 0.9792 0.0473 -0.1974
vn 0.9793 -0.1264 0.1580
vn 0.9792 0.0474 -0.1974
vn 0.9793 0.1264 -0.1580
vn 0.9792 -0.0473 0.1974
vn 0.9793 0.1263 -0.1579
vn 0.9795 0.1816 -0.0869
vn 0.9792 0.0474 0.1974
vn 0.9795 0.1817 -0.0869
vn 0.9792 0.0473 0.1974
vn 0.9787 0.2052 -0.0000
vn 0.9793 0.1264 0.1580
vn 0.9793 0.1264 0.1581
vn 0.9795 0.1816 0.0868
vn 0.9795 0.1817 0.0869
vn -0.2518 -0.8733 -0.4170
vn -0.3468 -0.9379 -0.0000
vn -0.2518 -0.9678 -0.0001
vn -0.3469 -0.8436 -0.4099
vn -0.0944 -0.8966 -0.4326
vn -0.0948 -0.9955 -0.0001
vn -0.2516 -0.6056 -0.7550
vn -0.3472 -0.5839 -0.7338
vn -0.3465 -0.2126 -0.9136
vn -0.0944 -0.6209 -0.7782
vn -0.2518 -0.2124 -0.9442
vn -0.3465 0.2127 -0.9136
vn -0.0709 -0.8984 -0.4334
vn -0.0707 -0.9975 -0.0000
vn -1.0000 -0.0001 -0.0000
vn -0.0709 -0.6222 -0.7797
vn -0.0947 -0.2210 -0.9707
vn -0.2518 0.2124 -0.9442
vn -0.0706 -0.2197 -0.9730
vn -0.0947 0.2210 -0.9707
vn -0.0706 0.2197 -0.9730
vn -0.0708 0.6222 -0.7797
vn -0.0943 0.6210 -0.7782
vn -0.2517 0.6055 -0.7550
vn -0.3472 0.5839 -0.7338
vn -0.3469 0.8436 -0.4100
vn -0.2518 0.8733 -0.4170
vn -0.3468 0.9379 -0.0001
vn -0.2518 0.9678 -0.0000
vn -0.0944 0.8966 -0.4326
vn -0.0948 0.9955 -0.0000
vn -0.0709 0.8984 -0.4334
vn -0.0707 0.9975 -0.0000
vn -0.3469 0.8436 0.4100
vn -0.2517 0.6056 0.7550
vn -0.3472 0.5839 0.7338
vn -0.3465 0.2126 0.9136
vn -0.2518 0.8733 0.4170
vn -0.3468 0.9379 0.0001
vn -0.2518 0.9678 0.0001
vn -0.2518 0.2124 0.9442
vn -0.3465 -0.2126 0.9136
vn -0.0943 0.6210 0.7782
vn -0.0944 0.8966 0.4326
vn -0.0709 0.8984 0.4334
vn -1.0000 0.0001 -0.0000
vn -0.0708 0.6222 0.7797
vn -0.0947 0.2210 0.9707
vn -0.0706 0.2197 0.9730
vn -0.0947 -0.2210 0.9707
vn -0.0706 -0.2197 0.9730
vn -0.0708 -0.6222 0.7797
vn -0.0709 -0.8984 0.4334
vn -0.0948 -0.9955 -0.0000
vn -0.0944 -0.8966 0.4326
vn -0.2518 -0.9678 -0.0000
vn -0.0944 -0.6209 0.7782
vn -0.2518 -0.2124 0.9442
vn -0.2518 -0.8733 0.4170
vn -0.3469 -0.8436 0.4100
vn -0.2516 -0.6056 0.7550
vn -0.3472 -0.5839 0.7338
vn -0.0473 -0.8997 -0.4340
vn -0.0236 -0.9997 -0.0000
vn -0.0472 -0.9989 -0.0000
vn -0.0237 -0.9004 -0.4344
vn -0.0473 -0.6231 -0.7807
vn 0.3377 -0.8483 -0.4079
vn 0.3373 -0.9414 -0.0000
vn 0.3386 -0.5906 -0.7324
vn -0.0236 -0.6236 -0.7814
vn -0.0236 -0.2202 -0.9752
vn 0.3371 -0.2117 -0.9173
vn -0.0472 -0.2200 -0.9744
vn 0.3371 0.2117 -0.9174
vn -0.0235 0.2202 -0.9752
vn -0.0471 0.2200 -0.9744
vn 0.3386 0.5907 -0.7324
vn -0.0473 0.6231 -0.7807
vn -0.0236 0.6236 -0.7814
vn -0.0237 0.9004 -0.4344
vn 0.3377 0.8482 -0.4082
vn -0.0474 0.8996 -0.4341
vn -0.0236 0.9997 -0.0000
vn 0.3373 0.9414 -0.0001
vn -0.0472 0.9989 -0.0000
vn -0.0473 0.6230 0.7808
vn -0.0237 0.9006 0.4339
vn -0.0473 0.8996 0.4341
vn 0.3376 0.8481 0.4084
vn 0.3373 0.9414 -0.0000
vn 0.3387 0.5907 0.7324
vn -0.0236 0.6236 0.7814
vn -0.0235 0.2202 0.9752
vn 0.3372 0.2117 0.9173
vn -0.0471 0.2200 0.9744
vn 0.3372 -0.2117 0.9173
vn -0.0236 -0.2202 0.9752
vn -0.0471 -0.2200 0.9744
vn 0.3386 -0.5906 0.7324
vn -0.0473 -0.6230 0.7808
vn -0.0236 -0.6236 0.7814
vn -0.0237 -0.9004 0.4344
vn 0.3376 -0.8481 0.4083
vn -0.0474 -0.8997 0.4340
vn 0.3373 -0.9414 0.0001
vn -0.0472 -0.9989 0.0001
vt 0.069396 0.018110
vt 0.111968 0.018110
vt 0.089573 0.018110
vt 0.146108 0.018110
vt 0.132145 0.018110
vt 0.089573 0.018110
vt 0.055433 0.018110
vt 0.050450 0.018110
vt 0.151092 0.018110
vt 0.544412 0.213936
vt 0.536057 0.219838
vt 0.540733 0.210998
vt 0.535298 0.219742
vt 0.536668 0.220276
vt 0.535931 0.210145
vt 0.546368 0.218277
vt 0.534540 0.220011
vt 0.537012 0.220967
vt 0.530940 0.211712
vt 0.537024 0.221774
vt 0.526867 0.215498
vt 0.546351 0.223196
vt 0.533936 0.220594
vt 0.536705 0.222540
vt 0.524687 0.220705
vt 0.544420 0.227848
vt 0.533611 0.221375
vt 0.540895 0.231453
vt 0.524909 0.226133
vt 0.536115 0.223119
vt 0.533629 0.222194
vt 0.535368 0.223396
vt 0.533987 0.222887
vt 0.536337 0.233348
vt 0.527409 0.230554
vt 0.531529 0.233084
vt 0.534608 0.223315
vt 0.431535 0.250293
vt 0.404645 0.104603
vt 0.436903 0.224203
vt 0.397070 0.141426
vt 0.503827 0.333357
vt 0.507716 0.314457
vt 0.416495 0.323398
vt 0.375842 0.244603
vt 0.345168 0.393698
vt 0.492932 0.386313
vt 0.394761 0.429038
vt 0.311123 0.559182
vt 0.875843 0.549132
vt 0.876711 0.544915
vt 0.984280 0.611429
vt 0.873412 0.560947
vt 0.477189 0.462838
vt 0.370638 0.546289
vt 0.869900 0.578021
vt 0.459714 0.547774
vt 0.866001 0.596972
vt 0.862488 0.614046
vt 0.443971 0.624298
vt 0.348905 0.651929
vt 0.280449 0.708277
vt 0.259222 0.811454
vt 0.333864 0.725034
vt 0.251646 0.848277
vt 0.328497 0.751125
vt 0.433076 0.677255
vt 0.429187 0.696155
vt 0.860057 0.625861
vt 0.859190 0.630078
vt 0.345168 0.393699
vt 0.477188 0.462838
vt 0.397069 0.141426
vt 0.156049 0.981890
vt 0.162125 0.053526
vt 0.162125 0.981890
vt 0.156049 0.053526
vt 0.139025 0.981890
vt 0.139025 0.053526
vt 0.114423 0.053526
vt 0.114423 0.981890
vt 0.087118 0.053526
vt 0.087118 0.981890
vt 0.062517 0.981890
vt 0.062517 0.053526
vt 0.045492 0.053526
vt 0.045492 0.981890
vt 0.039416 0.053526
vt 0.039416 0.981890
s 1
usemtl Visual1Mtl
f 1/1/1 2/2/1 3/3/1
f 2/2/1 1/1/1 4/4/1
f 2/2/1 4/4/1 5/5/1
f 4/4/1 1/1/1 6/6/1
f 6/6/1 1/1/1 7/7/1
f 7/7/1 1/1/1 8/7/2
f 7/7/1 8/7/2 9/8/3
f 6/6/1 7/7/1 10/1/2
f 4/4/1 6/6/1 11/4/1
f 4/4/1 11/4/1 12/9/2
f 11/4/1 6/6/1 13/2/1
f 11/4/1 13/2/1 14/5/3
f 15/10/4 16/11/5 17/12/5
f 18/13/6 17/12/5 16/11/5
f 16/11/5 15/10/4 19/14/4
f 17/12/5 18/13/6 20/15/6
f 21/16/7 19/14/4 15/10/4
f 22/17/8 20/15/6 18/13/6
f 19/14/4 21/16/7 23/18/7
f 20/15/6 22/17/8 24/19/8
f 23/18/7 21/16/7 25/20/9
f 22/17/8 26/21/10 24/19/8
f 21/16/7 27/22/11 25/20/9
f 28/23/10 26/21/10 22/17/8
f 25/20/9 27/22/11 29/24/12
f 28/23/10 30/25/13 26/21/10
f 31/26/14 29/24/12 27/22/11
f 30/25/13 28/23/10 32/27/13
f 33/28/15 29/24/12 31/26/14
f 30/25/13 32/27/13 34/29/16
f 29/24/12 33/28/15 35/30/17
f 34/29/16 32/27/13 36/31/18
f 33/28/15 37/32/19 35/30/17
f 38/33/20 34/29/16 36/31/18
f 37/32/19 33/28/15 39/34/19
f 34/29/16 38/33/20 40/35/21
f 41/36/22 37/32/19 39/34/19
f 41/36/22 40/35/21 38/33/20
f 37/32/19 41/36/22 42/37/23
f 42/37/23 41/36/22 38/33/20
f 43/38/24 44/39/25 45/40/26
f 44/39/25 43/38/24 46/41/27
f 45/40/26 47/42/28 43/38/24
f 47/42/28 45/40/26 48/43/29
f 49/44/30 46/41/27 43/38/24
f 46/41/27 49/44/30 50/45/31
f 50/45/31 49/44/30 51/46/32
f 43/38/24 52/47/33 49/44/30
f 52/47/33 43/38/24 47/42/28
f 51/46/32 49/44/30 53/48/34
f 49/44/30 52/47/33 53/48/34
f 51/46/32 53/48/34 54/49/35
f 48/43/29 55/50/36 47/42/28
f 55/50/36 48/43/29 56/51/37
f 55/50/36 56/51/37 57/52/38
f 58/53/39 47/42/28 55/50/36
f 47/42/28 58/53/39 52/47/33
f 58/53/39 55/50/36 57/52/38
f 53/48/34 52/47/33 59/54/40
f 52/47/33 58/53/39 59/54/40
f 53/48/34 59/54/40 60/55/41
f 54/49/35 53/48/34 60/55/41
f 59/54/40 58/53/39 61/56/42
f 61/56/42 58/53/39 57/52/38
f 60/55/41 59/54/40 62/57/43
f 61/56/42 62/57/43 59/54/40
f 62/57/43 61/56/42 63/58/44
f 63/58/44 61/56/42 57/52/38
f 64/59/45 62/57/43 63/58/44
f 64/59/45 63/58/44 57/52/38
f 65/60/46 60/55/41 62/57/43
f 62/57/43 64/59/45 65/60/46
f 66/61/47 54/49/35 60/55/41
f 60/55/41 65/60/46 66/61/47
f 54/49/35 66/61/47 67/62/48
f 67/62/48 66/61/47 68/63/49
f 69/64/50 68/63/49 66/61/47
f 65/60/46 69/64/50 66/61/47
f 68/63/49 69/64/50 70/65/51
f 71/66/52 70/65/51 69/64/50
f 69/64/50 65/60/46 72/67/53
f 72/67/53 71/66/52 69/64/50
f 64/59/45 72/67/53 65/60/46
f 71/66/52 72/67/53 73/68/54
f 74/69/55 72/67/53 64/59/45
f 74/69/55 73/68/54 72/67/53
f 74/69/55 64/59/45 57/52/38
f 73/68/54 74/69/55 75/70/56
f 75/70/56 74/69/55 57/52/38
f 76/63/57 77/61/58 78/62/59
f 77/61/58 79/49/60 78/62/59
f 77/61/58 76/63/57 80/64/61
f 81/65/62 80/64/61 76/63/57
f 80/64/61 81/65/62 82/66/63
f 83/55/64 79/49/60 77/61/58
f 83/55/64 84/71/65 79/49/60
f 80/64/61 85/60/66 77/61/58
f 83/55/64 77/61/58 85/60/66
f 82/66/63 86/67/67 80/64/61
f 85/60/66 80/64/61 86/67/67
f 86/67/67 82/66/63 87/68/54
f 87/68/54 88/69/68 86/67/67
f 88/69/68 87/68/54 89/70/56
f 88/69/68 89/70/56 90/52/69
f 91/59/70 86/67/67 88/69/68
f 86/67/67 91/59/70 85/60/66
f 91/59/70 88/69/68 90/52/69
f 85/60/66 91/59/70 92/57/71
f 92/57/71 83/55/64 85/60/66
f 93/58/72 92/57/71 91/59/70
f 93/58/72 91/59/70 90/52/69
f 94/72/73 83/55/64 92/57/71
f 94/72/73 92/57/71 93/58/72
f 95/56/74 93/58/72 90/52/69
f 95/56/74 94/72/73 93/58/72
f 96/53/75 95/56/74 90/52/69
f 96/53/75 94/72/73 95/56/74
f 97/50/76 96/53/75 90/52/69
f 98/51/37 97/50/76 90/52/69
f 98/51/37 99/43/77 97/50/76
f 100/42/78 97/50/76 99/43/77
f 97/50/76 100/42/78 96/53/75
f 99/43/77 101/40/79 100/42/78
f 94/72/73 96/53/75 102/47/80
f 102/47/80 96/53/75 100/42/78
f 83/55/64 94/72/73 103/48/81
f 102/47/80 103/48/81 94/72/73
f 103/48/81 84/71/65 83/55/64
f 104/38/82 100/42/78 101/40/79
f 100/42/78 104/38/82 102/47/80
f 105/39/25 104/38/82 101/40/79
f 104/38/82 105/39/25 106/73/83
f 107/44/84 84/71/65 103/48/81
f 103/48/81 102/47/80 107/44/84
f 107/44/84 102/47/80 104/38/82
f 106/73/83 107/44/84 104/38/82
f 84/71/65 107/44/84 108/45/85
f 107/44/84 106/73/83 108/45/85
f 109/74/86 110/75/87 111/76/88
f 110/75/87 109/74/86 112/77/89
f 113/78/90 112/77/89 109/74/86
f 114/4/91 110/75/87 112/77/89
f 110/75/87 114/4/91 115/9/92
f 112/77/89 116/5/93 114/4/91
f 112/77/89 113/78/90 117/79/94
f 116/5/93 112/77/89 117/79/94
f 117/79/94 113/78/90 118/80/95
f 118/80/95 116/5/93 117/79/94
f 116/5/93 118/80/95 119/2/96
f 118/80/95 113/78/90 120/81/97
f 121/3/98 119/2/96 118/80/95
f 118/80/95 120/81/97 122/82/99
f 121/3/98 118/80/95 122/82/99
f 122/82/99 120/81/97 123/83/100
f 121/3/98 122/82/99 124/1/101
f 125/84/102 122/82/99 123/83/100
f 122/82/99 126/85/103 124/1/101
f 122/82/99 125/84/102 126/85/103
f 127/86/104 124/1/101 126/85/103
f 126/85/103 125/84/102 127/86/104
f 124/1/101 127/86/104 128/7/105
f 129/87/106 127/86/104 125/84/102
f 130/88/107 128/7/105 127/86/104
f 127/86/104 129/87/106 130/88/107
f 128/7/105 130/88/107 131/8/108
f 132/89/109 130/88/107 129/87/106
f 133/84/110 134/86/111 135/87/112
f 135/87/112 136/88/107 137/89/109
f 136/88/107 135/87/112 134/86/111
f 136/88/107 134/86/111 138/7/113
f 139/8/114 136/88/107 138/7/113
f 138/7/113 134/86/111 140/1/115
f 134/86/111 133/84/110 141/85/116
f 141/85/116 140/1/115 134/86/111
f 133/84/110 142/82/117 141/85/116
f 142/82/117 140/1/115 141/85/116
f 140/1/115 142/82/117 143/6/118
f 144/83/119 142/82/117 133/84/110
f 142/82/117 145/2/120 143/6/118
f 144/83/119 146/80/121 142/82/117
f 146/80/121 145/2/120 142/82/117
f 147/81/122 146/80/121 144/83/119
f 146/80/121 148/5/123 145/2/120
f 149/78/124 146/80/121 147/81/122
f 150/79/125 148/5/123 146/80/121
f 146/80/121 149/78/124 150/79/125
f 151/77/126 148/5/123 150/79/125
f 149/78/124 151/77/126 150/79/125
f 148/5/123 151/77/126 152/4/127
f 151/77/126 149/78/124 153/74/128
f 154/75/87 152/4/127 151/77/126
f 153/74/128 154/75/87 151/77/126
f 152/4/127 154/75/87 155/9/129
f 154/75/87 153/74/128 156/76/130
