# Blender 5.1.2
# www.blender.org
mtllib Jug.mtl
o Jug
v -0.004139 -1.554737 0.509560
v 0.492717 -1.554737 0.012760
v 0.347192 -1.554737 0.364060
v -0.500999 -1.554737 0.012760
v -0.355474 -1.554737 0.364060
v -0.004139 -1.554737 -0.484142
v -0.355474 -1.554737 -0.338642
v 0.347192 -1.554737 -0.338642
v -0.214490 0.949293 0.223057
v -0.004141 0.949293 0.216358
v -0.148118 0.949293 0.156658
v -0.004141 0.949293 0.310158
v 0.139834 0.949293 0.156658
v -0.004141 0.949293 0.216358
v -0.004141 0.949293 0.310158
v 0.206208 0.949293 0.223057
v 0.293338 0.949293 0.012760
v 0.139834 0.949293 0.156658
v 0.206208 0.949293 0.223057
v 0.199471 0.949293 0.012760
v 0.206208 0.949293 -0.197640
v 0.199471 0.949293 0.012760
v 0.293338 0.949293 0.012760
v 0.139834 0.949293 -0.131241
v -0.004141 0.949293 -0.284741
v 0.139834 0.949293 -0.131241
v 0.206208 0.949293 -0.197640
v -0.004141 0.949293 -0.190842
v -0.214490 0.949293 -0.197640
v -0.004141 0.949293 -0.190842
v -0.004141 0.949293 -0.284741
v -0.148118 0.949293 -0.131241
v -0.301620 0.949293 0.012760
v -0.148118 0.949293 -0.131241
v -0.214490 0.949293 -0.197640
v -0.207753 0.949293 0.012760
v -0.148118 0.949293 0.156658
v -0.214490 0.949293 0.223057
v -0.004139 -1.554737 0.509560
v -0.004139 -1.320517 0.701859
v -0.355474 -1.554737 0.364060
v 0.347192 -1.554737 0.364060
v -0.693249 -1.320517 0.012760
v -0.500999 -1.554737 0.012760
v -0.491414 -1.320517 0.499958
v -0.491414 0.124423 0.499958
v -0.693249 0.124423 0.012760
v -0.301620 0.474143 0.012760
v -0.004139 0.124423 0.701859
v -0.214490 0.474143 0.223057
v -0.214490 0.949293 0.223057
v -0.301620 0.949293 0.012760
v -0.004141 0.949293 0.310158
v -0.004141 0.474143 0.310158
v 0.206208 0.949293 0.223057
v 0.206208 0.474143 0.223057
v 0.293338 0.949293 0.012760
v 0.293338 0.474143 0.012760
v 0.684966 0.124423 0.012760
v 0.483135 0.124423 0.499958
v 0.483135 -1.320517 0.499958
v 0.684966 -1.320517 0.012760
v 0.492717 -1.554737 0.012760
v 0.347192 -1.554737 -0.338642
v 0.684966 -1.320517 0.012760
v 0.492717 -1.554737 0.012760
v 0.483135 -1.320517 -0.474541
v -0.004139 -1.320517 -0.676342
v -0.004139 -1.554737 -0.484142
v 0.483135 0.124423 -0.474541
v 0.684966 0.124423 0.012760
v -0.355474 -1.554737 -0.338642
v -0.004139 0.124423 -0.676342
v 0.206208 0.474143 -0.197639
v 0.293338 0.474143 0.012760
v 0.206208 0.949293 -0.197640
v 0.293338 0.949293 0.012760
v -0.004141 0.949293 -0.284741
v -0.004141 0.474143 -0.284740
v -0.214490 0.949293 -0.197640
v -0.491414 0.124423 -0.474541
v -0.214490 0.474143 -0.197639
v -0.301620 0.949293 0.012760
v -0.301620 0.474143 0.012760
v -0.693249 0.124423 0.012760
v -0.491414 -1.320517 -0.474541
v -0.693249 -1.320517 0.012760
v -0.500999 -1.554737 0.012760
v 0.139834 0.352083 -0.131241
v 0.199471 0.949293 0.012760
v 0.139834 0.949293 -0.131241
v 0.199471 0.352083 0.012760
v 0.635974 -1.213897 0.012760
v 0.448487 -1.213897 -0.439941
v -0.004141 -1.213897 -0.627342
v -0.004141 0.352083 -0.190842
v -0.004141 0.949293 -0.190842
v -0.148118 0.352083 -0.131241
v -0.456771 -1.213897 -0.439941
v -0.644256 -1.213897 0.012760
v -0.148118 0.949293 -0.131241
v -0.207753 0.352083 0.012760
v -0.207753 0.949293 0.012760
v -0.644256 -1.213897 0.012760
v 0.635974 -1.213897 0.012760
v -0.004141 -1.213897 -0.627342
v -0.456771 -1.213897 -0.439941
v 0.448487 -1.213897 -0.439941
v -0.004141 -1.213897 0.652859
v 0.448487 -1.213897 0.465359
v 0.139834 0.352083 0.156658
v 0.199471 0.352083 0.012760
v -0.456771 -1.213897 0.465359
v -0.148118 0.352083 0.156658
v -0.207753 0.352083 0.012760
v -0.207753 0.949293 0.012760
v -0.148118 0.949293 0.156658
v -0.004141 0.352083 0.216358
v -0.004141 0.949293 0.216358
v 0.139834 0.949293 0.156658
v 0.199471 0.949293 0.012760
vn -0.0000 -1.0000 -0.0000
vn -0.0000 1.0000 -0.0000
vn -0.0000 -0.6371 0.7708
vn -0.0000 -0.0863 0.9963
vn -0.5441 -0.6387 0.5441
vn 0.5441 -0.6387 0.5441
vn -0.9963 -0.0863 -0.0000
vn -0.7708 -0.6371 -0.0000
vn -0.7044 -0.0871 0.7044
vn -0.7007 0.1339 0.7008
vn -0.9910 0.1337 -0.0000
vn -0.8345 0.5511 -0.0000
vn -0.0000 0.1338 0.9910
vn -0.5902 0.5508 0.5902
vn -0.7070 -0.0000 0.7072
vn -1.0000 -0.0000 -0.0000
vn -0.0000 -0.0000 1.0000
vn -0.0000 0.5510 0.8345
vn 0.7070 -0.0000 0.7072
vn 0.5901 0.5508 0.5902
vn 1.0000 -0.0000 -0.0000
vn 0.8345 0.5511 -0.0000
vn 0.9910 0.1337 -0.0000
vn 0.7007 0.1339 0.7008
vn 0.7044 -0.0871 0.7044
vn 0.9963 -0.0863 -0.0000
vn 0.7708 -0.6371 -0.0000
vn 0.5441 -0.6387 -0.5441
vn 0.7044 -0.0871 -0.7044
vn -0.0000 -0.0863 -0.9963
vn -0.0000 -0.6371 -0.7708
vn 0.7008 0.1339 -0.7007
vn -0.5441 -0.6387 -0.5441
vn -0.0000 0.1337 -0.9910
vn 0.5902 0.5508 -0.5902
vn 0.8345 0.5511 -0.0001
vn 0.7071 -0.0000 -0.7071
vn -0.0000 -0.0000 -1.0000
vn -0.0000 0.5510 -0.8345
vn -0.7071 -0.0000 -0.7071
vn -0.7008 0.1339 -0.7007
vn -0.5902 0.5508 -0.5902
vn -1.0000 -0.0000 -0.0001
vn -0.7044 -0.0871 -0.7044
vn -0.6883 -0.2294 0.6882
vn -0.7071 -0.0000 0.7071
vn -0.9737 -0.2277 -0.0000
vn -0.5029 0.8644 -0.0000
vn -0.3542 0.8656 0.3541
vn -0.0001 0.8643 0.5029
vn -0.0000 -0.2277 0.9737
vn 0.6883 -0.2294 0.6883
vn 0.3541 0.8656 0.3541
vn 0.5029 0.8644 -0.0000
vn 0.9737 -0.2277 -0.0000
vn 0.5029 0.8643 -0.0000
vn -0.5029 0.8643 -0.0000
vn -0.0000 0.8644 0.5029
vn -0.3541 0.8656 0.3541
vn -0.0000 0.8643 -0.5029
vn -0.3541 0.8656 -0.3541
vn -0.6883 -0.2294 -0.6882
vn -0.9737 -0.2277 -0.0001
vn 0.3541 0.8656 -0.3541
vn 0.6883 -0.2294 -0.6882
vn 0.7072 -0.0000 -0.7070
vn -0.0000 -0.2277 -0.9737
vn -0.7072 -0.0000 -0.7071
vt 0.946397 0.000000
vt 0.907748 0.000000
vt 0.919068 0.000000
vt 0.985046 0.000000
vt 0.973726 0.000000
vt 0.962759 1.000000
vt 0.946397 1.000000
vt 0.957596 1.000000
vt 0.935198 1.000000
vt 0.930035 1.000000
vt 0.923257 1.000000
vt 0.930559 1.000000
vt 0.969537 1.000000
vt 0.962235 1.000000
vt 0.946397 0.093536
vt 1.000000 0.093536
vt 0.984300 0.093536
vt 0.984300 0.670585
vt 1.000000 0.670585
vt 0.969537 0.810247
vt 0.946397 0.670585
vt 0.962759 0.810247
vt 0.946397 0.810247
vt 0.930035 0.810247
vt 0.923257 0.810247
vt 0.892794 0.670585
vt 0.908494 0.670585
vt 0.908494 0.093536
vt 0.892794 0.093536
vt 0.935198 0.761502
vt 0.930559 0.761502
vt 0.896605 0.136116
vt 0.911189 0.136116
vt 0.946397 0.136116
vt 0.946397 0.761502
vt 0.957596 0.761502
vt 0.981605 0.136116
vt 0.996189 0.136116
vt 0.962235 0.761502
s 1
usemtl Handle1Mtl.027
f 1/1/1 2/2/1 3/3/1
f 2/2/1 1/1/1 4/4/1
f 4/4/1 1/1/1 5/5/1
f 4/4/1 6/1/1 2/2/1
f 6/1/1 4/4/1 7/5/1
f 2/2/1 6/1/1 8/3/1
f 9/6/2 10/7/2 11/8/2
f 10/7/2 9/6/2 12/7/2
f 13/9/2 14/7/2 15/7/2
f 15/7/2 16/10/2 13/9/2
f 17/11/2 18/9/2 19/10/2
f 18/9/2 17/11/2 20/12/2
f 21/10/2 22/12/2 23/11/2
f 22/12/2 21/10/2 24/9/2
f 25/7/2 26/9/2 27/10/2
f 26/9/2 25/7/2 28/7/2
f 29/6/2 30/7/2 31/7/2
f 30/7/2 29/6/2 32/8/2
f 33/13/2 34/8/2 35/6/2
f 34/8/2 33/13/2 36/14/2
f 33/13/2 37/8/2 36/14/2
f 33/13/2 38/6/2 37/8/2
f 39/1/3 40/15/4 41/5/5
f 42/3/6 40/15/4 39/1/3
f 41/5/5 43/16/7 44/4/8
f 43/16/7 41/5/5 45/17/9
f 41/5/5 40/15/4 45/17/9
f 45/17/9 46/18/10 43/16/7
f 47/19/11 43/16/7 46/18/10
f 46/18/10 48/20/12 47/19/11
f 45/17/9 49/21/13 46/18/10
f 40/15/4 49/21/13 45/17/9
f 48/20/12 46/18/10 50/22/14
f 50/22/14 51/6/15 48/20/12
f 52/13/16 48/20/12 51/6/15
f 50/22/14 53/7/17 51/6/15
f 46/18/10 54/23/18 50/22/14
f 53/7/17 50/22/14 54/23/18
f 54/23/18 46/18/10 49/21/13
f 54/23/18 55/10/19 53/7/17
f 56/24/20 55/10/19 54/23/18
f 54/23/18 49/21/13 56/24/20
f 56/24/20 57/11/21 55/10/19
f 57/11/21 56/24/20 58/25/22
f 56/24/20 59/26/23 58/25/22
f 49/21/13 60/27/24 56/24/20
f 59/26/23 56/24/20 60/27/24
f 40/15/4 60/27/24 49/21/13
f 61/28/25 59/26/23 60/27/24
f 61/28/25 60/27/24 40/15/4
f 59/26/23 61/28/25 62/29/26
f 40/15/4 42/3/6 61/28/25
f 62/29/26 61/28/25 42/3/6
f 62/29/26 42/3/6 63/2/27
f 64/3/28 65/29/26 66/2/27
f 65/29/26 64/3/28 67/28/29
f 68/15/30 67/28/29 64/3/28
f 68/15/30 64/3/28 69/1/31
f 70/27/32 65/29/26 67/28/29
f 65/29/26 70/27/32 71/26/23
f 72/5/33 68/15/30 69/1/31
f 70/27/32 67/28/29 73/21/34
f 73/21/34 67/28/29 68/15/30
f 71/26/23 70/27/32 74/24/35
f 73/21/34 74/24/35 70/27/32
f 71/26/23 74/24/35 75/25/36
f 76/10/37 75/25/36 74/24/35
f 75/25/36 76/10/37 77/11/21
f 76/10/37 74/24/35 78/7/38
f 78/7/38 74/24/35 79/23/39
f 74/24/35 73/21/34 79/23/39
f 78/7/38 79/23/39 80/6/40
f 81/18/41 79/23/39 73/21/34
f 73/21/34 68/15/30 81/18/41
f 80/6/40 79/23/39 82/22/42
f 79/23/39 81/18/41 82/22/42
f 80/6/40 82/22/42 83/13/43
f 84/20/12 83/13/43 82/22/42
f 81/18/41 84/20/12 82/22/42
f 81/18/41 85/19/11 84/20/12
f 81/18/41 68/15/30 86/17/44
f 81/18/41 86/17/44 85/19/11
f 68/15/30 72/5/33 86/17/44
f 87/16/7 85/19/11 86/17/44
f 86/17/44 72/5/33 87/16/7
f 72/5/33 88/4/8 87/16/7
f 89/30/45 90/12/16 91/9/46
f 90/12/16 89/30/45 92/31/47
f 89/30/45 93/32/48 92/31/47
f 93/32/48 89/30/45 94/33/49
f 94/33/49 89/30/45 95/34/50
f 89/30/45 91/9/46 96/35/51
f 95/34/50 89/30/45 96/35/51
f 96/35/51 91/9/46 97/7/17
f 98/36/52 95/34/50 96/35/51
f 96/35/51 97/7/17 98/36/52
f 95/34/50 98/36/52 99/37/53
f 99/37/53 98/36/52 100/38/54
f 98/36/52 97/7/17 101/8/19
f 102/39/55 100/38/54 98/36/52
f 98/36/52 101/8/19 102/39/55
f 103/14/21 102/39/55 101/8/19
f 104/38/56 105/32/57 106/34/58
f 104/38/56 106/34/58 107/37/53
f 106/34/58 105/32/57 108/33/59
f 105/32/57 104/38/56 109/34/60
f 105/32/57 109/34/60 110/33/61
f 111/30/62 105/32/57 110/33/61
f 109/34/60 111/30/62 110/33/61
f 105/32/57 111/30/62 112/31/63
f 109/34/60 104/38/56 113/37/64
f 104/38/56 114/36/65 113/37/64
f 114/36/65 109/34/60 113/37/64
f 114/36/65 104/38/56 115/39/55
f 115/39/55 116/14/21 114/36/65
f 117/8/66 114/36/65 116/14/21
f 118/35/67 109/34/60 114/36/65
f 117/8/66 118/35/67 114/36/65
f 111/30/62 109/34/60 118/35/67
f 119/7/38 118/35/67 117/8/66
f 119/7/38 111/30/62 118/35/67
f 120/9/68 111/30/62 119/7/38
f 120/9/68 112/31/63 111/30/62
f 112/31/63 120/9/68 121/12/16
