# Blender 5.1.2
# www.blender.org
mtllib Leafblower.mtl
o Leafblower
v -1.499469 0.223516 -0.140221
v -1.500019 0.273306 -0.130020
v -1.498329 0.230347 -0.161221
v -1.498329 0.177247 -0.161221
v -1.500719 0.255426 -0.117022
v -1.499469 0.184076 -0.140221
v -1.502738 0.267617 -0.079620
v -1.500019 0.134296 -0.130020
v -1.502738 0.289717 -0.079620
v -1.500719 0.152166 -0.117022
v -1.504769 0.255426 -0.042122
v -1.502738 0.117887 -0.079620
v -1.505469 0.273306 -0.029221
v -1.502738 0.139987 -0.079620
v -1.507149 0.230347 0.001980
v -1.504769 0.152166 -0.042122
v -1.506019 0.223516 -0.019020
v -1.505469 0.134296 -0.029221
v -1.507149 0.177247 0.001980
v -1.506019 0.184076 -0.019020
v 0.389631 -0.188794 -0.102621
v 0.404921 -0.151824 -0.101822
v 0.388541 -0.188794 -0.082521
v 0.403831 -0.151824 -0.081621
v 0.377131 -0.188794 0.128778
v 0.392421 -0.151824 0.129580
v 0.376041 -0.188794 0.148878
v 0.391331 -0.151824 0.149679
v 0.354951 -0.239143 -0.084320
v 0.326701 -0.267434 -0.085821
v 0.356041 -0.239143 -0.104422
v 0.327791 -0.267434 -0.106022
v 0.342441 -0.239143 0.147079
v 0.314191 -0.267434 0.145578
v 0.343531 -0.239143 0.126879
v 0.315281 -0.267434 0.125380
v 0.416721 -0.092433 -0.101221
v 0.416721 -0.052423 -0.101221
v 0.415631 -0.092433 -0.081020
v 0.415631 -0.052423 -0.081020
v 0.404211 -0.092433 0.130178
v 0.404211 -0.052423 0.130178
v 0.403131 -0.092433 0.150379
v 0.403131 -0.052423 0.150379
v 0.240601 -0.316393 -0.110722
v 0.277511 -0.301084 -0.108721
v 0.239511 -0.316393 -0.090521
v 0.276421 -0.301084 -0.088520
v 0.228091 -0.316393 0.120680
v 0.265001 -0.301084 0.122679
v 0.227001 -0.316393 0.140879
v 0.263911 -0.301084 0.142778
v -0.475419 0.235776 -0.122622
v -0.476499 0.311727 -0.102720
v -0.473889 0.245027 -0.151020
v -0.473889 0.162577 -0.151020
v -0.477448 0.287527 -0.085121
v -0.475419 0.171816 -0.122622
v -0.480729 0.337206 -0.024422
v -0.476499 0.095867 -0.102720
v -0.480729 0.307297 -0.024422
v -0.477448 0.120067 -0.085121
v -0.484959 0.311727 0.053879
v -0.480729 0.100296 -0.024422
v -0.484019 0.287527 0.036379
v -0.480729 0.070396 -0.024422
v -0.486039 0.235776 0.073879
v -0.484959 0.095867 0.053879
v -0.487579 0.245027 0.102280
v -0.484019 0.120067 0.036379
v -0.486039 0.171816 0.073879
v -0.487579 0.162577 0.102280
v 0.404921 0.006977 -0.101822
v 0.389631 0.043937 -0.102621
v 0.403831 0.006977 -0.081621
v 0.388541 0.043937 -0.082521
v 0.392421 0.006977 0.129580
v 0.377131 0.043937 0.128778
v 0.391331 0.006977 0.149679
v 0.376041 0.043937 0.148878
v 0.141341 -0.328204 -0.116020
v 0.181291 -0.328204 -0.113920
v 0.140251 -0.328204 -0.095921
v 0.180201 -0.328204 -0.093721
v 0.128831 -0.328204 0.115278
v 0.168781 -0.328204 0.117479
v 0.127741 -0.328204 0.135479
v 0.167691 -0.328204 0.137579
v 0.326701 0.122587 -0.085821
v 0.354951 0.094296 -0.084320
v 0.327791 0.122587 -0.106022
v 0.356041 0.094296 -0.104422
v 0.314191 0.122587 0.145578
v 0.342441 0.094296 0.147079
v 0.315281 0.122587 0.125380
v 0.343531 0.094296 0.126879
v 0.211801 -0.149223 0.143879
v 0.172911 -0.167984 0.141779
v 0.174611 -0.167984 0.110378
v 0.238711 -0.115424 0.145378
v 0.213501 -0.149223 0.112478
v 0.240411 -0.115424 0.113878
v 0.045121 -0.301084 -0.121222
v 0.082031 -0.316393 -0.119221
v 0.044031 -0.301084 -0.101122
v 0.080941 -0.316393 -0.099121
v 0.032611 -0.301084 0.110079
v 0.069521 -0.316393 0.112080
v 0.031521 -0.301084 0.130280
v 0.068431 -0.316393 0.132278
v 0.082031 -0.316393 -0.119221
v 0.276421 0.156227 -0.088520
v 0.080941 -0.316393 -0.099121
v 0.277511 0.156227 -0.108721
v 0.069521 -0.316393 0.112080
v 0.263911 0.156227 0.142778
v 0.068431 -0.316393 0.132278
v 0.265001 0.156227 0.122679
v 0.354951 0.094296 -0.084320
v -0.006249 -0.267434 -0.103821
v -0.005159 -0.267434 -0.124022
v 0.356041 0.094296 -0.104422
v 0.342441 0.094296 0.147079
v -0.018759 -0.267434 0.127579
v -0.017669 -0.267434 0.107380
v 0.343531 0.094296 0.126879
v 0.276421 0.156227 -0.088520
v 0.240601 0.171536 -0.110722
v 0.239511 0.171536 -0.090521
v 0.277511 0.156227 -0.108721
v 0.263911 0.156227 0.142778
v 0.228091 0.171536 0.120680
v 0.227001 0.171536 0.140879
v 0.265001 0.156227 0.122679
v 0.394851 -0.073274 -0.076321
v 0.371961 0.027146 -0.077621
v 0.375801 0.027146 -0.148621
v 0.311671 0.107687 -0.152021
v 0.398681 -0.073274 -0.147322
v 0.307831 0.107687 -0.081121
v 0.371961 -0.173704 -0.077621
v 0.218991 0.152377 -0.157021
v 0.375801 -0.173704 -0.148621
v 0.215161 0.152377 -0.086121
v 0.307831 -0.254233 -0.081121
v 0.116141 0.152377 -0.162621
v 0.311671 -0.254233 -0.152021
v 0.112301 0.152377 -0.091621
v 0.215161 -0.298934 -0.086121
v 0.023461 0.107687 -0.167622
v 0.218991 -0.298934 -0.157021
v 0.019631 0.107687 -0.096621
v 0.112301 -0.298934 -0.091621
v -0.040669 0.027146 -0.171122
v 0.116141 -0.298934 -0.162621
v -0.044499 0.027146 -0.100121
v 0.019631 -0.254233 -0.096621
v -0.063559 -0.073274 -0.172321
v 0.023461 -0.254233 -0.167622
v -0.067389 -0.073274 -0.101320
v -0.044499 -0.173704 -0.100121
v -0.040669 -0.173704 -0.171122
v 0.180201 0.183357 -0.093721
v 0.180201 -0.328204 -0.093721
v 0.181291 -0.328204 -0.113920
v 0.181291 0.183357 -0.113920
v 0.167691 0.183357 0.137579
v 0.167691 -0.328204 0.137579
v 0.168781 -0.328204 0.117479
v 0.168781 0.183357 0.117479
v 0.277531 -0.108823 0.075579
v 0.385511 -0.088213 0.117880
v 0.324731 -0.099614 0.114578
v 0.403831 0.006977 -0.081621
v -0.068099 -0.188794 -0.107222
v -0.067009 -0.188794 -0.127321
v 0.404921 0.006977 -0.101822
v 0.391331 0.006977 0.149679
v -0.080599 -0.188794 0.124180
v -0.079509 -0.188794 0.104078
v 0.392421 0.006977 0.129580
v 0.293291 0.107687 0.187979
v 0.297131 0.107687 0.116980
v 0.357421 0.027146 0.191380
v 0.361261 0.027146 0.120480
v 0.204451 0.152377 0.111979
v 0.380311 -0.073274 0.192678
v 0.200621 0.152377 0.182980
v 0.384151 -0.073274 0.121679
v 0.101601 0.152377 0.106379
v 0.357421 -0.173704 0.191380
v 0.097761 0.152377 0.177380
v 0.361261 -0.173704 0.120480
v 0.008921 0.107687 0.101379
v 0.293291 -0.254233 0.187979
v 0.005091 0.107687 0.172379
v 0.297131 -0.254233 0.116980
v -0.055209 0.027146 0.097979
v 0.200621 -0.298934 0.182980
v -0.059039 0.027146 0.168879
v 0.204451 -0.298934 0.111979
v -0.078089 -0.073274 0.096680
v 0.097761 -0.298934 0.177380
v -0.081929 -0.073274 0.167679
v 0.101601 -0.298934 0.106379
v -0.055209 -0.173704 0.097979
v 0.005091 -0.254233 0.172379
v -0.059039 -0.173704 0.168879
v 0.008921 -0.254233 0.101379
v -0.034499 -0.239143 -0.105322
v -0.005159 -0.267434 -0.124022
v -0.006249 -0.267434 -0.103821
v -0.033409 -0.239143 -0.125521
v -0.046999 -0.239143 0.125978
v -0.017669 -0.267434 0.107380
v -0.018759 -0.267434 0.127579
v -0.045919 -0.239143 0.105879
v 0.080941 0.171536 -0.099121
v 0.276421 -0.301084 -0.088520
v 0.277511 -0.301084 -0.108721
v 0.082031 0.171536 -0.119221
v 0.068431 0.171536 0.132278
v 0.263911 -0.301084 0.142778
v 0.265001 -0.301084 0.122679
v 0.069521 0.171536 0.112080
v 0.260721 -0.073274 -0.083620
v 0.262421 -0.073274 -0.115122
v 0.251121 -0.031134 -0.084122
v 0.252821 -0.031134 -0.115622
v 0.224201 0.002666 -0.085621
v 0.225911 0.002666 -0.117022
v 0.185311 0.021427 -0.087721
v 0.187011 0.021427 -0.119122
v 0.142151 0.021427 -0.090021
v 0.143851 0.021427 -0.121521
v 0.252821 -0.115424 -0.115622
v 0.251121 -0.115424 -0.084122
v 0.225911 -0.149223 -0.117022
v 0.224201 -0.149223 -0.085621
v 0.187011 -0.167984 -0.119122
v 0.185311 -0.167984 -0.087721
v 0.143851 -0.167984 -0.121521
v 0.142151 -0.167984 -0.090021
v 0.104951 -0.149223 -0.123621
v 0.103251 -0.149223 -0.092121
v 0.078041 -0.115424 -0.125021
v 0.076341 -0.115424 -0.093620
v 0.068441 -0.073274 -0.125521
v 0.066731 -0.073274 -0.094120
v 0.078041 -0.031134 -0.125021
v 0.076341 -0.031134 -0.093620
v 0.104951 0.002666 -0.123621
v 0.398681 -0.073274 -0.147322
v 0.417821 0.047417 -0.146320
v 0.445331 -0.073274 -0.144821
v 0.375801 0.027146 -0.148621
v 0.398681 -0.073274 -0.147322
v 0.417821 -0.193974 -0.146320
v 0.375801 -0.173704 -0.148621
v 0.445331 -0.073274 -0.144821
v 0.311671 -0.254233 -0.152021
v 0.375801 -0.173704 -0.148621
v 0.417821 -0.193974 -0.146320
v 0.340751 -0.290763 -0.150421
v 0.218991 -0.298934 -0.157021
v 0.311671 -0.254233 -0.152021
v 0.340751 -0.290763 -0.150421
v 0.229371 -0.344473 -0.156521
v 0.105761 -0.344473 -0.163120
v 0.116141 -0.298934 -0.162621
v 0.023461 -0.254233 -0.167622
v 0.105761 -0.344473 -0.163120
v -0.005619 -0.290763 -0.169222
v 0.116141 -0.298934 -0.162621
v -0.005619 -0.290763 -0.169222
v -0.040669 -0.173704 -0.171122
v 0.023461 -0.254233 -0.167622
v -0.082689 -0.193974 -0.173321
v -0.063559 -0.073274 -0.172321
v -0.040669 -0.173704 -0.171122
v -0.082689 -0.193974 -0.173321
v -0.110199 -0.073274 -0.174822
v -0.110199 -0.073274 -0.174822
v -0.082689 0.047417 -0.173321
v -0.040669 0.027146 -0.171122
v -0.063559 -0.073274 -0.172321
v 0.023461 0.107687 -0.167622
v -0.082689 0.047417 -0.173321
v -0.005619 0.144207 -0.169222
v -0.040669 0.027146 -0.171122
v -0.005619 0.144207 -0.169222
v 0.116141 0.152377 -0.162621
v 0.023461 0.107687 -0.167622
v 0.105761 0.197916 -0.163120
v 0.229371 0.197916 -0.156521
v 0.218991 0.152377 -0.157021
v 0.218991 0.152377 -0.157021
v 0.340751 0.144207 -0.150421
v 0.311671 0.107687 -0.152021
v 0.229371 0.197916 -0.156521
v 0.417821 0.047417 -0.146320
v 0.311671 0.107687 -0.152021
v 0.340751 0.144207 -0.150421
v 0.375801 0.027146 -0.148621
v 0.293291 0.107687 0.187979
v 0.357421 0.027146 0.191380
v 0.399451 0.047417 0.193680
v 0.322371 0.144207 0.189480
v 0.200621 0.152377 0.182980
v 0.293291 0.107687 0.187979
v 0.322371 0.144207 0.189480
v 0.211001 0.197917 0.183479
v 0.211001 0.197917 0.183479
v 0.087381 0.197917 0.176779
v 0.097761 0.152377 0.177380
v 0.200621 0.152377 0.182980
v -0.023989 0.144207 0.170778
v 0.097761 0.152377 0.177380
v 0.087381 0.197917 0.176779
v 0.005091 0.107687 0.172379
v 0.005091 0.107687 0.172379
v -0.101069 0.047417 0.166578
v -0.059039 0.027146 0.168879
v -0.023989 0.144207 0.170778
v -0.059039 0.027146 0.168879
v -0.128579 -0.073274 0.165178
v -0.081929 -0.073274 0.167679
v -0.101069 0.047417 0.166578
v -0.101069 -0.193974 0.166578
v -0.059039 -0.173704 0.168879
v -0.023989 -0.290763 0.170778
v -0.059039 -0.173704 0.168879
v -0.101069 -0.193974 0.166578
v 0.005091 -0.254233 0.172379
v 0.005091 -0.254233 0.172379
v 0.087381 -0.344473 0.176779
v 0.097761 -0.298934 0.177380
v -0.023989 -0.290763 0.170778
v 0.200621 -0.298934 0.182980
v 0.211001 -0.344473 0.183479
v 0.200621 -0.298934 0.182980
v 0.322371 -0.290763 0.189480
v 0.293291 -0.254233 0.187979
v 0.211001 -0.344473 0.183479
v 0.399451 -0.193974 0.193680
v 0.293291 -0.254233 0.187979
v 0.322371 -0.290763 0.189480
v 0.357421 -0.173704 0.191380
v 0.380311 -0.073274 0.192678
v 0.399451 -0.193974 0.193680
v 0.426961 -0.073274 0.195179
v 0.357421 -0.173704 0.191380
v 0.380311 -0.073274 0.192678
v 0.399451 0.047417 0.193680
v 0.357421 0.027146 0.191380
v 0.426961 -0.073274 0.195179
v -0.473889 0.245027 -0.151020
v -0.309859 0.302637 -0.087021
v -0.307459 0.241557 -0.131420
v -0.476499 0.311727 -0.102720
v -0.480729 0.337206 -0.024422
v -0.313729 0.325976 -0.015322
v -0.277799 0.284846 -0.072420
v -0.280979 0.303987 -0.013620
v 0.123581 0.303987 0.008280
v -0.307459 0.166047 -0.131420
v -0.473889 0.162577 -0.151020
v -0.275829 0.234756 -0.108721
v 0.126761 0.284846 -0.050522
v 0.246011 0.257637 -0.044121
v 0.250881 0.274987 0.015179
v 0.128731 0.234756 -0.086821
v -0.275829 0.172836 -0.108721
v 0.361141 0.174346 -0.037821
v 0.374431 0.184047 0.021879
v 0.446311 0.062306 0.025679
v -0.277799 0.122746 -0.072420
v 0.430711 0.058786 -0.034121
v 0.458591 -0.075483 0.026379
v 0.442991 -0.079003 -0.033421
v 0.383511 0.049567 -0.073120
v 0.395791 -0.088213 -0.072420
v 0.319991 0.148956 -0.076521
v 0.322731 0.038177 -0.076422
v 0.180201 0.183357 -0.093721
v 0.141341 0.183357 -0.116020
v 0.140251 0.183357 -0.095921
v 0.181291 0.183357 -0.113920
v 0.167691 0.183357 0.137579
v 0.128831 0.183357 0.115278
v 0.127741 0.183357 0.135479
v 0.168781 0.183357 0.117479
v 0.114531 -0.008173 -0.140621
v 0.184881 0.007906 -0.136822
v 0.249531 -0.073274 -0.133322
v 0.241301 -0.037144 -0.133821
v 0.218221 -0.008173 -0.135021
v 0.147871 0.007906 -0.138821
v 0.184881 -0.154463 -0.136822
v 0.241301 -0.109414 -0.133821
v 0.218221 -0.138383 -0.135021
v 0.114531 -0.138383 -0.140621
v 0.147871 -0.154463 -0.138821
v 0.091461 -0.109414 -0.141920
v 0.091461 -0.037144 -0.141920
v 0.083221 -0.073274 -0.142321
v 0.098531 -0.008173 0.155378
v 0.098531 -0.138383 0.155378
v 0.168881 -0.154463 0.159180
v 0.131871 -0.154463 0.157179
v 0.075461 -0.109414 0.154079
v 0.075461 -0.037144 0.154079
v 0.067221 -0.073274 0.153679
v 0.233531 -0.073274 0.162680
v 0.225301 -0.109414 0.162180
v 0.202221 -0.138383 0.160978
v 0.168881 0.007906 0.159180
v 0.131871 0.007906 0.157179
v 0.225301 -0.037144 0.162180
v 0.202221 -0.008173 0.160978
v -0.933568 0.242086 -0.166922
v -0.753889 0.304047 -0.112122
v -0.751459 0.242086 -0.157021
v -0.935999 0.304047 -0.121922
v -0.757819 0.327716 -0.039322
v -0.939929 0.327716 -0.049221
v -0.960839 0.288446 -0.111921
v -0.964159 0.308426 -0.050522
v -0.933568 0.165506 -0.166922
v -0.751459 0.165506 -0.157021
v -0.958789 0.236126 -0.149921
v -1.330089 0.281567 -0.126822
v -1.333138 0.299927 -0.070421
v -1.500019 0.273306 -0.130020
v -1.502738 0.289717 -0.079620
v -1.328199 0.233507 -0.161720
v -1.498329 0.230347 -0.161221
v -1.328199 0.174097 -0.161720
v -1.498329 0.177247 -0.161221
v -1.500019 0.134296 -0.130020
v -0.958789 0.171466 -0.149921
v -1.330089 0.126037 -0.126822
v -1.333138 0.107676 -0.070421
v -1.502738 0.117887 -0.079620
v -0.964159 0.099166 -0.050522
v -0.960839 0.119146 -0.111921
v -0.939929 0.079886 -0.049221
v -0.935999 0.103547 -0.121922
v -0.753889 0.103547 -0.112122
v -0.757819 0.079886 -0.039322
v -0.943859 0.103547 0.023579
v -0.757819 0.079886 -0.039322
v -0.761749 0.103547 0.033379
v -0.939929 0.079886 -0.049221
v -0.946289 0.165506 0.068480
v -0.967479 0.119146 0.010880
v -0.964159 0.099166 -0.050522
v -0.764179 0.165506 0.078279
v -1.336179 0.126037 -0.014021
v -1.333138 0.107676 -0.070421
v -1.505469 0.134296 -0.029221
v -1.502738 0.117887 -0.079620
v -1.338068 0.174097 0.020880
v -1.507149 0.177247 0.001980
v -0.969529 0.171466 0.048880
v -1.338068 0.233507 0.020880
v -1.507149 0.230347 0.001980
v -1.505469 0.273306 -0.029221
v -0.969529 0.236126 0.048880
v -1.336179 0.281567 -0.014021
v -1.333138 0.299927 -0.070421
v -1.502738 0.289717 -0.079620
v -0.964159 0.308426 -0.050522
v -0.967479 0.288446 0.010879
v -0.939929 0.327716 -0.049221
v -0.946289 0.242086 0.068480
v -0.764179 0.242086 0.078279
v -0.943859 0.304047 0.023579
v -0.761749 0.304047 0.033379
v -0.757819 0.327716 -0.039322
v 0.403131 -0.052423 0.150379
v -0.107689 -0.052423 0.122780
v -0.107689 -0.092433 0.122780
v 0.403131 -0.092433 0.150379
v 0.167691 -0.328204 0.137579
v 0.167691 0.183357 0.137579
v 0.127741 0.183357 0.135479
v 0.127741 -0.328204 0.135479
v -0.095889 -0.151824 0.123379
v 0.391331 0.006977 0.149679
v 0.376041 0.043937 0.148878
v -0.080599 -0.188794 0.124180
v 0.068431 0.171536 0.132278
v 0.227001 -0.316393 0.140879
v 0.263911 -0.301084 0.142778
v 0.031521 0.156227 0.130280
v 0.314191 0.122587 0.145578
v -0.046999 -0.239143 0.125978
v -0.018759 -0.267434 0.127579
v 0.342441 0.094296 0.147079
v 0.314191 -0.267434 0.145578
v -0.018759 0.122587 0.127579
v -0.046999 0.094296 0.125978
v 0.342441 -0.239143 0.147079
v -0.080599 0.043937 0.124180
v 0.376041 -0.188794 0.148878
v 0.391331 -0.151824 0.149679
v -0.095889 0.006977 0.123379
v 0.068431 -0.316393 0.132278
v 0.263911 0.156227 0.142778
v 0.227001 0.171536 0.140879
v 0.031521 -0.301084 0.130280
v 0.416721 -0.092433 -0.101221
v -0.094089 -0.092433 -0.128820
v -0.094089 -0.052423 -0.128820
v 0.416721 -0.052423 -0.101221
v 0.141341 -0.328204 -0.116020
v 0.181291 0.183357 -0.113920
v 0.181291 -0.328204 -0.113920
v 0.141341 0.183357 -0.116020
v -0.082289 -0.151824 -0.128120
v 0.404921 0.006977 -0.101822
v -0.067009 -0.188794 -0.127321
v 0.389631 0.043937 -0.102621
v 0.240601 -0.316393 -0.110722
v 0.082031 0.171536 -0.119221
v 0.277511 -0.301084 -0.108721
v 0.045121 0.156227 -0.121222
v 0.356041 0.094296 -0.104422
v -0.033409 -0.239143 -0.125521
v 0.327791 0.122587 -0.106022
v -0.005159 -0.267434 -0.124022
v 0.327791 -0.267434 -0.106022
v -0.033409 0.094296 -0.125521
v -0.005159 0.122587 -0.124022
v 0.356041 -0.239143 -0.104422
v 0.389631 -0.188794 -0.102621
v -0.082289 0.006977 -0.128120
v -0.067009 0.043937 -0.127321
v 0.404921 -0.151824 -0.101822
v 0.240601 0.171536 -0.110722
v 0.082031 -0.316393 -0.119221
v 0.045121 -0.301084 -0.121222
v 0.277511 0.156227 -0.108721
v 0.415631 -0.092433 -0.081020
v -0.095179 -0.092433 -0.108622
v -0.094089 -0.092433 -0.128820
v 0.416721 -0.092433 -0.101221
v 0.403131 -0.092433 0.150379
v -0.107689 -0.092433 0.122780
v -0.106599 -0.092433 0.102579
v 0.404211 -0.092433 0.130178
v 0.429551 0.060116 0.125278
v 0.440371 0.060116 -0.075022
v 0.344361 0.167087 0.120680
v 0.355191 0.167087 -0.079721
v 0.470781 -0.073274 -0.073421
v 0.322371 0.144207 0.189480
v 0.221271 0.226447 0.114079
v 0.399451 0.047417 0.193680
v 0.211001 0.197917 0.183479
v 0.459951 -0.073274 0.126980
v 0.426961 -0.073274 0.195179
v 0.440371 -0.206664 -0.075022
v 0.399451 -0.193974 0.193680
v 0.084651 0.226447 0.106680
v 0.087381 0.197917 0.176779
v 0.232101 0.226447 -0.086321
v -0.023989 0.144207 0.170778
v 0.095481 0.226447 -0.093721
v 0.429551 -0.206664 0.125278
v 0.355191 -0.313633 -0.079721
v 0.322371 -0.290763 0.189480
v 0.344361 -0.313633 0.120680
v -0.038439 0.167087 0.099979
v -0.027609 0.167087 -0.100321
v 0.221271 -0.373003 0.114079
v -0.123619 0.060116 0.095379
v -0.112789 0.060116 -0.104921
v -0.101069 0.047417 0.166578
v 0.232101 -0.373003 -0.086321
v 0.211001 -0.344473 0.183479
v 0.095481 -0.373003 -0.093721
v -0.154019 -0.073274 0.093779
v -0.128579 -0.073274 0.165178
v -0.101069 -0.193974 0.166578
v 0.084651 -0.373003 0.106680
v 0.087381 -0.344473 0.176779
v -0.027609 -0.313633 -0.100321
v -0.023989 -0.290763 0.170778
v -0.038439 -0.313633 0.099979
v -0.112789 -0.206664 -0.104921
v -0.123619 -0.206664 0.095379
v -0.143189 -0.073274 -0.106621
v 0.260721 -0.073274 -0.083620
v 0.252821 -0.115424 -0.115622
v 0.262421 -0.073274 -0.115122
v 0.241301 -0.109414 -0.133821
v 0.249531 -0.073274 -0.133322
v 0.218221 -0.138383 -0.135021
v 0.241301 -0.037144 -0.133821
v 0.225911 -0.149223 -0.117022
v 0.252821 -0.031134 -0.115622
v 0.187011 -0.167984 -0.119122
v 0.218221 -0.008173 -0.135021
v 0.184881 -0.154463 -0.136822
v 0.225911 0.002666 -0.117022
v 0.147871 -0.154463 -0.138821
v 0.187011 0.021427 -0.119122
v 0.143851 -0.167984 -0.121521
v 0.184881 0.007906 -0.136822
v 0.114531 -0.138383 -0.140621
v 0.104951 -0.149223 -0.123621
v 0.078041 -0.115424 -0.125021
v 0.091461 -0.109414 -0.141920
v 0.068441 -0.073274 -0.125521
v 0.083221 -0.073274 -0.142321
v 0.091461 -0.037144 -0.141920
v 0.078041 -0.031134 -0.125021
v 0.114531 -0.008173 -0.140621
v 0.104951 0.002666 -0.123621
v 0.143851 0.021427 -0.121521
v 0.147871 0.007906 -0.138821
v 0.103251 0.002666 -0.092121
v 0.142151 0.021427 -0.090021
v 0.076341 -0.031134 -0.093620
v -0.083379 -0.151824 -0.108021
v -0.067009 -0.188794 -0.127321
v -0.068099 -0.188794 -0.107222
v -0.082289 -0.151824 -0.128120
v -0.095889 -0.151824 0.123379
v -0.079509 -0.188794 0.104078
v -0.080599 -0.188794 0.124180
v -0.094799 -0.151824 0.103279
v 0.394851 -0.073274 -0.076321
v 0.251121 -0.031134 -0.084122
v 0.371961 0.027146 -0.077621
v 0.260721 -0.073274 -0.083620
v 0.224201 0.002666 -0.085621
v 0.307831 0.107687 -0.081121
v 0.394851 -0.073274 -0.076321
v 0.251121 -0.115424 -0.084122
v 0.260721 -0.073274 -0.083620
v 0.371961 -0.173704 -0.077621
v 0.251121 -0.115424 -0.084122
v 0.371961 -0.173704 -0.077621
v 0.224201 -0.149223 -0.085621
v 0.307831 -0.254233 -0.081121
v 0.215161 -0.298934 -0.086121
v 0.224201 -0.149223 -0.085621
v 0.307831 -0.254233 -0.081121
v 0.185311 -0.167984 -0.087721
v 0.112301 -0.298934 -0.091621
v 0.185311 -0.167984 -0.087721
v 0.215161 -0.298934 -0.086121
v 0.142151 -0.167984 -0.090021
v 0.019631 -0.254233 -0.096621
v 0.142151 -0.167984 -0.090021
v 0.112301 -0.298934 -0.091621
v 0.103251 -0.149223 -0.092121
v 0.103251 -0.149223 -0.092121
v -0.044499 -0.173704 -0.100121
v 0.076341 -0.115424 -0.093620
v 0.019631 -0.254233 -0.096621
v 0.076341 -0.115424 -0.093620
v -0.044499 -0.173704 -0.100121
v 0.066731 -0.073274 -0.094120
v -0.067389 -0.073274 -0.101320
v -0.044499 0.027146 -0.100121
v 0.066731 -0.073274 -0.094120
v -0.067389 -0.073274 -0.101320
v 0.076341 -0.031134 -0.093620
v 0.019631 0.107687 -0.096621
v 0.076341 -0.031134 -0.093620
v -0.044499 0.027146 -0.100121
v 0.103251 0.002666 -0.092121
v 0.112301 0.152377 -0.091621
v 0.103251 0.002666 -0.092121
v 0.019631 0.107687 -0.096621
v 0.142151 0.021427 -0.090021
v 0.142151 0.021427 -0.090021
v 0.215161 0.152377 -0.086121
v 0.185311 0.021427 -0.087721
v 0.112301 0.152377 -0.091621
v 0.307831 0.107687 -0.081121
v 0.185311 0.021427 -0.087721
v 0.215161 0.152377 -0.086121
v 0.224201 0.002666 -0.085621
v 0.240411 -0.031134 0.113878
v 0.361261 0.027146 0.120480
v 0.213501 0.002666 0.112478
v 0.297131 0.107687 0.116980
v 0.204451 0.152377 0.111979
v 0.174611 0.021427 0.110378
v 0.297131 0.107687 0.116980
v 0.213501 0.002666 0.112478
v 0.131441 0.021427 0.107979
v 0.204451 0.152377 0.111979
v 0.101601 0.152377 0.106379
v 0.174611 0.021427 0.110378
v 0.092551 0.002666 0.105879
v 0.101601 0.152377 0.106379
v 0.008921 0.107687 0.101379
v 0.131441 0.021427 0.107979
v 0.008921 0.107687 0.101379
v 0.065641 -0.031134 0.104479
v 0.092551 0.002666 0.105879
v -0.055209 0.027146 0.097979
v 0.065641 -0.031134 0.104479
v -0.055209 0.027146 0.097979
v 0.056031 -0.073274 0.103979
v -0.078089 -0.073274 0.096680
v -0.055209 -0.173704 0.097979
v 0.056031 -0.073274 0.103979
v -0.078089 -0.073274 0.096680
v 0.065641 -0.115424 0.104479
v 0.092551 -0.149223 0.105879
v -0.055209 -0.173704 0.097979
v 0.008921 -0.254233 0.101379
v 0.065641 -0.115424 0.104479
v 0.131441 -0.167984 0.107979
v 0.101601 -0.298934 0.106379
v 0.131441 -0.167984 0.107979
v 0.101601 -0.298934 0.106379
v 0.174611 -0.167984 0.110378
v 0.204451 -0.298934 0.111979
v 0.297131 -0.254233 0.116980
v 0.213501 -0.149223 0.112478
v 0.204451 -0.298934 0.111979
v 0.174611 -0.167984 0.110378
v 0.361261 -0.173704 0.120480
v 0.213501 -0.149223 0.112478
v 0.297131 -0.254233 0.116980
v 0.240411 -0.115424 0.113878
v 0.384151 -0.073274 0.121679
v 0.240411 -0.115424 0.113878
v 0.361261 -0.173704 0.120480
v 0.250021 -0.073274 0.114479
v 0.384151 -0.073274 0.121679
v 0.240411 -0.031134 0.113878
v 0.250021 -0.073274 0.114479
v 0.361261 0.027146 0.120480
v 0.356041 -0.239143 -0.104422
v -0.006249 0.122587 -0.103821
v 0.354951 -0.239143 -0.084320
v -0.005159 0.122587 -0.124022
v -0.018759 0.122587 0.127579
v 0.342441 -0.239143 0.147079
v 0.343531 -0.239143 0.126879
v -0.017669 0.122587 0.107380
v 0.080941 0.171536 -0.099121
v 0.045121 0.156227 -0.121222
v 0.044031 0.156227 -0.101122
v 0.082031 0.171536 -0.119221
v 0.068431 0.171536 0.132278
v 0.032611 0.156227 0.110079
v 0.031521 0.156227 0.130280
v 0.069521 0.171536 0.112080
v -1.502738 0.139987 -0.079620
v -1.504769 0.152166 -0.042122
v -0.434699 0.203796 -0.021921
v -1.506019 0.184076 -0.019020
v -1.506019 0.223516 -0.019020
v -1.504769 0.255426 -0.042122
v -1.502738 0.267617 -0.079620
v -1.500719 0.255426 -0.117022
v -1.499469 0.223516 -0.140221
v -0.434699 0.203796 -0.021921
v -1.502738 0.267617 -0.079620
v -1.499469 0.184076 -0.140221
v -1.500719 0.152166 -0.117022
v -1.502738 0.139987 -0.079620
v 0.211801 0.002666 0.143879
v 0.238711 -0.031134 0.145378
v 0.240411 -0.031134 0.113878
v 0.213501 0.002666 0.112478
v 0.250021 -0.073274 0.114479
v 0.202221 -0.008173 0.160978
v 0.248321 -0.073274 0.145880
v 0.240411 -0.115424 0.113878
v 0.225301 -0.037144 0.162180
v 0.233531 -0.073274 0.162680
v 0.238711 -0.115424 0.145378
v 0.225301 -0.109414 0.162180
v 0.202221 -0.138383 0.160978
v 0.211801 -0.149223 0.143879
v 0.174611 -0.167984 0.110378
v 0.213501 -0.149223 0.112478
v 0.172911 -0.167984 0.141779
v 0.168881 -0.154463 0.159180
v 0.131441 -0.167984 0.107979
v 0.131871 -0.154463 0.157179
v 0.129741 -0.167984 0.139479
v 0.092551 -0.149223 0.105879
v 0.098531 -0.138383 0.155378
v 0.090851 -0.149223 0.137379
v 0.065641 -0.115424 0.104479
v 0.063941 -0.115424 0.135979
v 0.075461 -0.109414 0.154079
v 0.056031 -0.073274 0.103979
v 0.054331 -0.073274 0.135380
v 0.067221 -0.073274 0.153679
v 0.065641 -0.031134 0.104479
v 0.075461 -0.037144 0.154079
v 0.063941 -0.031134 0.135979
v 0.092551 0.002666 0.105879
v 0.098531 -0.008173 0.155378
v 0.090851 0.002666 0.137379
v 0.131441 0.021427 0.107979
v 0.129741 0.021427 0.139479
v 0.131871 0.007906 0.157179
v 0.174611 0.021427 0.110378
v 0.168881 0.007906 0.159180
v 0.172911 0.021427 0.141779
v -0.752499 0.235776 -0.137621
v -0.477448 0.287527 -0.085121
v -0.475419 0.235776 -0.122622
v -0.754529 0.287527 -0.100121
v -0.480729 0.307297 -0.024422
v -0.757819 0.307297 -0.039322
v -0.752499 0.171816 -0.137621
v -0.475419 0.171816 -0.122622
v -0.754529 0.120067 -0.100121
v -0.477448 0.120067 -0.085121
v -0.757819 0.100296 -0.039322
v -0.480729 0.100296 -0.024422
v -0.317609 0.104957 0.056379
v -0.480729 0.070396 -0.024422
v -0.313729 0.081626 -0.015322
v -0.484959 0.095867 0.053879
v -0.487579 0.162577 0.102280
v -0.284149 0.122746 0.045179
v -0.280979 0.103617 -0.013620
v -0.319999 0.166047 0.100679
v 0.123581 0.103617 0.008280
v -0.319999 0.241557 0.100679
v -0.487579 0.245027 0.102280
v -0.286119 0.172836 0.081579
v 0.120411 0.122746 0.067080
v 0.166631 0.093246 0.010578
v 0.171501 0.110597 0.069880
v 0.201951 0.082487 0.012480
v -0.317609 0.302637 0.056379
v -0.484959 0.311727 0.053879
v -0.480729 0.337206 -0.024422
v -0.313729 0.325976 -0.015322
v -0.284149 0.284846 0.045179
v -0.280979 0.303987 -0.013620
v -0.286119 0.234756 0.081579
v 0.120411 0.284846 0.067080
v 0.123581 0.303987 0.008280
v 0.118441 0.234756 0.103378
v 0.118441 0.172836 0.103378
v 0.239661 0.257637 0.073580
v 0.250881 0.274987 0.015179
v 0.216631 0.212196 0.108780
v 0.190601 0.156036 0.107279
v 0.354791 0.174346 0.079779
v 0.374431 0.184047 0.021879
v 0.446311 0.062306 0.025679
v 0.309701 0.148956 0.113779
v 0.256401 0.117577 0.110880
v 0.215251 0.092186 0.072180
v 0.265251 0.028956 0.074879
v 0.249641 0.025436 0.015079
v 0.312451 0.038177 0.113878
v 0.373221 0.049567 0.117180
v 0.324731 -0.099614 0.114578
v 0.385511 -0.088213 0.117880
v 0.277531 -0.108823 0.075579
v 0.261931 -0.112343 0.015780
v 0.424351 0.058786 0.083479
v 0.436641 -0.079003 0.084179
v 0.458591 -0.075483 0.026379
v 0.283891 -0.108823 -0.042021
v 0.442991 -0.079003 -0.033421
v 0.395791 -0.088213 -0.072420
v 0.335021 -0.099614 -0.075722
v -0.761099 0.120067 0.021379
v -0.480729 0.100296 -0.024422
v -0.484019 0.120067 0.036379
v -0.757819 0.100296 -0.039322
v -0.763129 0.171816 0.058979
v -0.486039 0.171816 0.073879
v -0.763129 0.235776 0.058979
v -0.486039 0.235776 0.073879
v -0.761099 0.287527 0.021379
v -0.484019 0.287527 0.036379
v -0.757819 0.307297 -0.039322
v -0.480729 0.307297 -0.024422
v 0.441021 0.048027 0.060080
v 0.335891 0.049757 0.054379
v 0.339631 0.049757 -0.014721
v 0.387211 0.256456 0.057178
v 0.444761 0.048027 -0.009022
v 0.390951 0.256456 -0.011921
v 0.496081 0.254736 -0.006222
v 0.347381 0.295136 0.054979
v 0.492341 0.254736 0.062880
v 0.351111 0.295136 -0.014021
v 0.493061 0.301877 -0.006420
v 0.203341 0.391006 0.047178
v 0.489331 0.301877 0.062679
v 0.207071 0.391006 -0.021820
v 0.417011 0.372597 -0.010521
v 0.077191 0.426847 0.040379
v 0.413281 0.372597 0.058578
v 0.080921 0.426847 -0.028622
v 0.183501 0.511477 -0.023121
v 0.038201 0.290826 0.038279
v 0.179771 0.511477 0.045979
v 0.041931 0.290826 -0.030722
v 0.023361 0.549996 -0.031721
v -0.139159 0.290826 -0.040522
v 0.019631 0.549996 0.037279
v -0.142889 0.290826 0.028479
v -0.019189 0.522966 -0.034021
v -0.022919 0.522966 0.034979
v -0.095179 -0.052423 -0.108622
v -0.094089 -0.092433 -0.128820
v -0.095179 -0.092433 -0.108622
v -0.094089 -0.052423 -0.128820
v -0.107689 -0.052423 0.122780
v -0.106599 -0.092433 0.102579
v -0.107689 -0.092433 0.122780
v -0.106599 -0.052423 0.102579
v 0.388541 -0.188794 -0.082521
v -0.083379 0.006977 -0.108021
v -0.082289 0.006977 -0.128120
v 0.389631 -0.188794 -0.102621
v 0.376041 -0.188794 0.148878
v -0.095889 0.006977 0.123379
v -0.094799 0.006977 0.103279
v 0.377131 -0.188794 0.128778
v -0.142889 0.290826 0.028479
v 0.077191 0.426847 0.040379
v -0.022919 0.522966 0.034979
v 0.038201 0.290826 0.038279
v 0.019631 0.549996 0.037279
v 0.179771 0.511477 0.045979
v 0.203341 0.391006 0.047178
v 0.413281 0.372597 0.058578
v 0.347381 0.295136 0.054979
v 0.387211 0.256456 0.057178
v 0.489331 0.301877 0.062679
v 0.492341 0.254736 0.062880
v 0.441021 0.048027 0.060080
v 0.335891 0.049757 0.054379
v -0.139159 0.290826 -0.040522
v 0.080921 0.426847 -0.028622
v 0.041931 0.290826 -0.030722
v -0.019189 0.522966 -0.034021
v 0.023361 0.549996 -0.031721
v 0.183501 0.511477 -0.023121
v 0.207071 0.391006 -0.021820
v 0.417011 0.372597 -0.010521
v 0.351111 0.295136 -0.014021
v 0.390951 0.256456 -0.011921
v 0.493061 0.301877 -0.006420
v 0.496081 0.254736 -0.006222
v 0.444761 0.048027 -0.009022
v 0.339631 0.049757 -0.014721
v -0.006249 0.122587 -0.103821
v -0.033409 0.094296 -0.125521
v -0.034499 0.094296 -0.105322
v -0.005159 0.122587 -0.124022
v -0.018759 0.122587 0.127579
v -0.045919 0.094296 0.105879
v -0.046999 0.094296 0.125978
v -0.017669 0.122587 0.107380
v -0.068099 0.043937 -0.107222
v -0.082289 0.006977 -0.128120
v -0.083379 0.006977 -0.108021
v -0.067009 0.043937 -0.127321
v -0.080599 0.043937 0.124180
v -0.094799 0.006977 0.103279
v -0.095889 0.006977 0.123379
v -0.079509 0.043937 0.104078
v 0.221271 0.226447 0.114079
v 0.344361 0.167087 0.120680
v 0.355191 0.167087 -0.079721
v 0.232101 0.226447 -0.086321
v 0.340751 0.144207 -0.150421
v 0.440371 0.060116 -0.075022
v 0.229371 0.197916 -0.156521
v 0.417821 0.047417 -0.146320
v 0.095481 0.226447 -0.093721
v 0.470781 -0.073274 -0.073421
v 0.105761 0.197916 -0.163120
v 0.445331 -0.073274 -0.144821
v -0.005619 0.144207 -0.169222
v 0.417821 -0.193974 -0.146320
v -0.027609 0.167087 -0.100321
v 0.440371 -0.206664 -0.075022
v 0.340751 -0.290763 -0.150421
v 0.355191 -0.313633 -0.079721
v -0.112789 0.060116 -0.104921
v 0.232101 -0.373003 -0.086321
v 0.344361 -0.313633 0.120680
v 0.229371 -0.344473 -0.156521
v 0.095481 -0.373003 -0.093721
v 0.105761 -0.344473 -0.163120
v -0.005619 -0.290763 -0.169222
v -0.027609 -0.313633 -0.100321
v 0.084651 -0.373003 0.106680
v -0.038439 -0.313633 0.099979
v -0.112789 -0.206664 -0.104921
v -0.082689 -0.193974 -0.173321
v -0.143189 -0.073274 -0.106621
v -0.110199 -0.073274 -0.174822
v -0.082689 0.047417 -0.173321
v -0.154019 -0.073274 0.093779
v -0.123619 0.060116 0.095379
v -0.068099 0.043937 -0.107222
v 0.403831 -0.151824 -0.081621
v 0.404921 -0.151824 -0.101822
v -0.067009 0.043937 -0.127321
v -0.080599 0.043937 0.124180
v 0.391331 -0.151824 0.149679
v 0.392421 -0.151824 0.129580
v -0.079509 0.043937 0.104078
v 0.335021 -0.099614 -0.075722
v 0.226911 0.212196 -0.081520
v 0.266691 0.117577 -0.079420
v 0.271601 0.028956 -0.042721
v 0.283891 -0.108823 -0.042021
v 0.249641 0.025436 0.015079
v 0.261931 -0.112343 0.015780
v 0.201951 0.082487 0.012480
v 0.221601 0.092186 -0.045422
v 0.200881 0.156036 -0.082920
v 0.177861 0.110597 -0.047722
v 0.166631 0.093246 0.010578
v 0.126761 0.122746 -0.050522
v 0.123581 0.103617 0.008280
v -0.280979 0.103617 -0.013620
v 0.128731 0.172836 -0.086821
v -0.313729 0.081626 -0.015322
v -0.309859 0.104957 -0.087021
v -0.480729 0.070396 -0.024422
v -0.476499 0.095867 -0.102720
v 0.326701 -0.267434 -0.085821
v -0.034499 0.094296 -0.105322
v -0.033409 0.094296 -0.125521
v 0.327791 -0.267434 -0.106022
v 0.314191 -0.267434 0.145578
v -0.046999 0.094296 0.125978
v -0.045919 0.094296 0.105879
v 0.315281 -0.267434 0.125380
v -0.095179 -0.052423 -0.108622
v 0.415631 -0.052423 -0.081020
v 0.416721 -0.052423 -0.101221
v -0.094089 -0.052423 -0.128820
v -0.107689 -0.052423 0.122780
v 0.403131 -0.052423 0.150379
v 0.404211 -0.052423 0.130178
v -0.106599 -0.052423 0.102579
v 0.415631 -0.052423 -0.081020
v -0.095179 -0.052423 -0.108622
v -0.095179 -0.092433 -0.108622
v 0.415631 -0.092433 -0.081020
v 0.180201 -0.328204 -0.093721
v 0.180201 0.183357 -0.093721
v 0.140251 0.183357 -0.095921
v 0.140251 -0.328204 -0.095921
v -0.083379 -0.151824 -0.108021
v 0.403831 0.006977 -0.081621
v 0.388541 0.043937 -0.082521
v -0.068099 -0.188794 -0.107222
v 0.080941 0.171536 -0.099121
v 0.239511 -0.316393 -0.090521
v 0.276421 -0.301084 -0.088520
v 0.044031 0.156227 -0.101122
v 0.326701 0.122587 -0.085821
v -0.034499 -0.239143 -0.105322
v -0.006249 -0.267434 -0.103821
v 0.354951 0.094296 -0.084320
v 0.326701 -0.267434 -0.085821
v -0.006249 0.122587 -0.103821
v -0.034499 0.094296 -0.105322
v 0.354951 -0.239143 -0.084320
v -0.068099 0.043937 -0.107222
v 0.388541 -0.188794 -0.082521
v 0.403831 -0.151824 -0.081621
v -0.083379 0.006977 -0.108021
v 0.080941 -0.316393 -0.099121
v 0.276421 0.156227 -0.088520
v 0.239511 0.171536 -0.090521
v 0.044031 -0.301084 -0.101122
v 0.404211 -0.092433 0.130178
v -0.106599 -0.092433 0.102579
v -0.106599 -0.052423 0.102579
v 0.404211 -0.052423 0.130178
v 0.128831 -0.328204 0.115278
v 0.168781 0.183357 0.117479
v 0.168781 -0.328204 0.117479
v 0.128831 0.183357 0.115278
v -0.094799 -0.151824 0.103279
v 0.392421 0.006977 0.129580
v -0.079509 -0.188794 0.104078
v 0.377131 0.043937 0.128778
v 0.228091 -0.316393 0.120680
v 0.069521 0.171536 0.112080
v 0.265001 -0.301084 0.122679
v 0.032611 0.156227 0.110079
v 0.343531 0.094296 0.126879
v -0.045919 -0.239143 0.105879
v 0.315281 0.122587 0.125380
v -0.017669 -0.267434 0.107380
v 0.315281 -0.267434 0.125380
v -0.045919 0.094296 0.105879
v -0.017669 0.122587 0.107380
v 0.343531 -0.239143 0.126879
v 0.377131 -0.188794 0.128778
v -0.094799 0.006977 0.103279
v -0.079509 0.043937 0.104078
v 0.392421 -0.151824 0.129580
v 0.228091 0.171536 0.120680
v 0.069521 -0.316393 0.112080
v 0.032611 -0.301084 0.110079
v 0.265001 0.156227 0.122679
v 0.239511 -0.316393 -0.090521
v 0.044031 0.156227 -0.101122
v 0.045121 0.156227 -0.121222
v 0.240601 -0.316393 -0.110722
v 0.227001 -0.316393 0.140879
v 0.031521 0.156227 0.130280
v 0.032611 0.156227 0.110079
v 0.228091 -0.316393 0.120680
v -0.083379 -0.151824 -0.108021
v 0.388541 0.043937 -0.082521
v 0.389631 0.043937 -0.102621
v -0.082289 -0.151824 -0.128120
v -0.095889 -0.151824 0.123379
v 0.376041 0.043937 0.148878
v 0.377131 0.043937 0.128778
v -0.094799 -0.151824 0.103279
v 0.140251 -0.328204 -0.095921
v 0.140251 0.183357 -0.095921
v 0.141341 0.183357 -0.116020
v 0.141341 -0.328204 -0.116020
v 0.127741 -0.328204 0.135479
v 0.127741 0.183357 0.135479
v 0.128831 0.183357 0.115278
v 0.128831 -0.328204 0.115278
v -0.034499 -0.239143 -0.105322
v 0.326701 0.122587 -0.085821
v 0.327791 0.122587 -0.106022
v -0.033409 -0.239143 -0.125521
v 0.315281 0.122587 0.125380
v -0.046999 -0.239143 0.125978
v 0.314191 0.122587 0.145578
v -0.045919 -0.239143 0.105879
v 0.044031 -0.301084 -0.101122
v 0.239511 0.171536 -0.090521
v 0.240601 0.171536 -0.110722
v 0.045121 -0.301084 -0.121222
v 0.031521 -0.301084 0.130280
v 0.227001 0.171536 0.140879
v 0.228091 0.171536 0.120680
v 0.032611 -0.301084 0.110079
v -0.751459 0.242086 -0.157021
v -0.753889 0.304047 -0.112122
v -0.754529 0.287527 -0.100121
v -0.757819 0.327716 -0.039322
v -0.752499 0.235776 -0.137621
v -0.757819 0.307297 -0.039322
v -0.752499 0.171816 -0.137621
v -0.761749 0.304047 0.033379
v -0.751459 0.165506 -0.157021
v -0.761099 0.287527 0.021379
v -0.753889 0.103547 -0.112122
v -0.764179 0.242086 0.078279
v -0.754529 0.120067 -0.100121
v -0.763129 0.235776 0.058979
v -0.757819 0.100296 -0.039322
v -0.764179 0.165506 0.078279
v -0.757819 0.079886 -0.039322
v -0.763129 0.171816 0.058979
v -0.761749 0.103547 0.033379
v -0.761099 0.120067 0.021379
vn -0.9985 -0.0000 -0.0551
vn -0.9985 -0.0000 -0.0550
vn -0.9985 -0.0000 -0.0549
vn 0.9214 -0.3858 0.0473
vn 0.9213 -0.3859 0.0473
vn 0.9213 -0.3859 0.0472
vn 0.7065 -0.7066 0.0392
vn 0.7066 -0.7066 0.0392
vn 0.7066 -0.7066 0.0393
vn 0.9985 -0.0000 0.0550
vn 0.9985 -0.0000 0.0551
vn 0.3862 -0.9221 0.0236
vn 0.3862 -0.9221 0.0237
vn 0.9214 0.3858 0.0473
vn 0.9213 0.3859 0.0472
vn 0.9213 0.3859 0.0473
vn -0.0000 -1.0000 -0.0000
vn 0.7065 0.7066 0.0392
vn 0.7066 0.7066 0.0393
vn 0.7066 0.7065 0.0393
vn 0.5917 -0.7574 0.2761
vn 0.2045 -0.9438 0.2595
vn 0.2203 -0.9753 0.0157
vn 0.8601 -0.4183 0.2919
vn 0.6235 -0.7812 0.0316
vn 0.8996 -0.4341 0.0474
vn -0.3862 -0.9221 -0.0236
vn -0.3862 -0.9221 -0.0237
vn 0.3862 0.9221 0.0236
vn 0.3862 0.9221 0.0237
vn -0.8996 -0.4340 -0.0474
vn -0.8996 -0.4340 -0.0473
vn -0.6234 -0.7812 -0.0315
vn -0.6234 -0.7813 -0.0316
vn -0.8996 0.4340 -0.0473
vn -0.2202 -0.9753 -0.0157
vn -0.6234 0.7812 -0.0316
vn 0.2202 -0.9753 0.0157
vn -0.6234 0.7813 -0.0316
vn -0.2202 0.9753 -0.0157
vn 0.6234 -0.7813 0.0316
vn -0.2203 0.9753 -0.0157
vn 0.2202 0.9753 0.0157
vn 0.8996 -0.4340 0.0473
vn 0.8996 -0.4340 0.0474
vn 0.6234 0.7812 0.0316
vn 0.8996 0.4340 0.0474
vn 0.8996 0.4340 0.0473
vn -0.1025 -0.9780 0.1814
vn 0.2517 -0.9125 0.3225
vn 0.0553 -0.9472 0.3157
vn -0.8996 0.4340 -0.0474
vn 0.6234 -0.7812 0.0316
vn 0.2203 0.9753 0.0157
vn -0.7066 -0.7066 -0.0392
vn -0.7065 -0.7066 -0.0392
vn 0.9821 -0.0000 -0.1885
vn 0.8861 0.4193 -0.1977
vn 0.6234 0.7813 0.0316
vn 0.6161 0.7583 -0.2132
vn 0.2283 0.9445 -0.2361
vn -0.2045 0.9438 -0.2595
vn 0.8860 -0.4193 -0.1977
vn 0.9985 -0.0001 0.0550
vn 0.8997 -0.4340 0.0474
vn 0.6161 -0.7583 -0.2132
vn 0.2283 -0.9445 -0.2361
vn -0.2045 -0.9438 -0.2595
vn -0.2203 -0.9753 -0.0157
vn -0.5917 -0.7574 -0.2761
vn -0.8601 -0.4182 -0.2919
vn -0.9541 -0.0000 -0.2996
vn -0.8601 0.4182 -0.2919
vn -0.8997 0.4340 -0.0473
vn -0.5917 0.7574 -0.2761
vn 0.0550 -0.0000 -0.9985
vn 0.0551 -0.0000 -0.9985
vn 0.0549 0.0001 -0.9985
vn 0.0550 -0.0001 -0.9985
vn 0.0551 0.0001 -0.9985
vn 0.0552 -0.0001 -0.9985
vn 0.0551 -0.0001 -0.9985
vn -0.0550 -0.0000 0.9985
vn -0.0551 0.0001 0.9985
vn -0.0551 -0.0000 0.9985
vn -0.0551 -0.0001 0.9985
vn -0.0549 -0.0000 0.9985
vn -0.0552 -0.0000 0.9985
vn -0.0550 0.0001 0.9985
vn 0.1180 0.3070 -0.9444
vn 0.1728 0.8010 -0.5732
vn 0.1972 0.3059 -0.9314
vn 0.1019 0.8079 -0.5805
vn 0.0629 0.9980 -0.0000
vn 0.1414 0.9899 0.0078
vn 0.0943 0.8075 -0.5822
vn 0.0550 0.9985 -0.0001
vn 0.1973 -0.3076 -0.9308
vn 0.1180 -0.3070 -0.9444
vn 0.1103 0.3082 -0.9449
vn 0.0711 0.8138 -0.5768
vn 0.3854 0.7629 -0.5191
vn 0.4249 0.9049 0.0236
vn 0.0708 0.3225 -0.9439
vn 0.1103 -0.3072 -0.9452
vn 0.6456 0.5668 -0.5118
vn 0.7412 0.6702 0.0394
vn 0.9526 0.2991 0.0551
vn 0.0943 -0.8085 -0.5809
vn 0.8172 0.2514 -0.5186
vn 0.4875 -0.8728 0.0235
vn 0.4411 -0.8821 -0.1654
vn 0.3864 0.1183 -0.9147
vn 0.2836 -0.9136 -0.2914
vn 0.3235 0.2683 -0.9074
vn -0.1895 -0.0711 -0.9793
vn -0.0000 1.0000 -0.0000
vn 0.0549 -0.0000 -0.9985
vn 0.0548 -0.0000 -0.9985
vn -0.0236 0.3067 -0.9515
vn 0.0314 0.8080 -0.5883
vn 0.0550 0.3063 -0.9503
vn -0.0475 0.8066 -0.5892
vn -0.0785 0.9969 -0.0079
vn -0.0474 0.8047 -0.5917
vn -0.0236 -0.3067 -0.9515
vn 0.0550 -0.3063 -0.9503
vn -0.0315 0.3067 -0.9513
vn -0.0000 0.8084 -0.5886
vn -0.0315 0.9995 -0.0000
vn -0.0314 0.8080 -0.5884
vn -0.0629 0.9980 -0.0000
vn 0.0157 0.3067 -0.9517
vn -0.0079 0.3068 -0.9517
vn 0.0157 -0.3067 -0.9517
vn -0.0079 -0.3067 -0.9518
vn -0.0313 -0.8080 -0.5884
vn -0.0315 -0.3066 -0.9513
vn -0.0000 -0.8084 -0.5886
vn -0.0315 -0.9995 -0.0000
vn -0.0628 -0.9980 -0.0000
vn -0.0785 -0.9969 -0.0079
vn -0.0474 -0.8047 -0.5917
vn -0.0474 -0.8048 -0.5917
vn 0.0314 -0.8080 -0.5883
vn -0.1105 -0.8045 0.5836
vn -0.0000 -1.0000 0.0001
vn -0.0314 -0.8080 0.5883
vn -0.0785 -0.9969 -0.0078
vn -0.1258 -0.3066 0.9435
vn -0.1183 -0.8038 0.5831
vn -0.0550 -0.3063 0.9503
vn -0.0629 -0.8105 0.5823
vn -0.0315 -0.9995 0.0001
vn -0.0942 -0.8085 0.5809
vn -0.0629 -0.9980 -0.0000
vn -0.0869 -0.3079 0.9474
vn -0.1103 -0.3072 0.9452
vn -0.1336 -0.3063 0.9425
vn -0.0869 0.3079 0.9474
vn -0.1103 0.3072 0.9452
vn -0.0942 0.8085 0.5809
vn -0.1336 0.3063 0.9425
vn -0.0630 0.8105 0.5823
vn -0.0629 0.9980 0.0001
vn -0.0785 0.9969 -0.0078
vn -0.1183 0.8037 0.5831
vn -0.1258 0.3066 0.9435
vn -0.0550 0.3063 0.9503
vn -0.1104 0.8045 0.5836
vn -0.0314 0.8080 0.5883
vn 0.0552 -0.0000 -0.9985
vn 0.0550 0.0001 -0.9985
vn 0.8895 0.4317 0.1495
vn 0.8997 0.4340 -0.0473
vn 0.6133 0.7784 0.1337
vn 0.6225 0.7801 -0.0630
vn 0.9989 -0.0000 -0.0471
vn 0.5504 0.7234 0.4168
vn 0.2131 0.9708 0.1105
vn 0.8084 0.4003 0.4317
vn 0.1817 0.9005 0.3950
vn 0.9888 -0.0000 0.1491
vn 0.9006 -0.0000 0.4346
vn 0.8996 -0.4340 -0.0473
vn 0.8084 -0.4003 0.4316
vn -0.2286 0.9696 0.0867
vn -0.2282 0.8973 0.3778
vn 0.2286 0.9697 -0.0867
vn -0.5959 0.7214 0.3528
vn -0.2131 0.9708 -0.1105
vn 0.8890 -0.4327 0.1495
vn 0.6225 -0.7801 -0.0630
vn 0.5504 -0.7234 0.4168
vn 0.6133 -0.7784 0.1337
vn -0.6225 0.7801 0.0630
vn -0.6133 0.7784 -0.1336
vn 0.2131 -0.9708 0.1105
vn -0.8996 0.4340 0.0474
vn -0.8890 0.4328 -0.1495
vn -0.8508 0.4017 0.3388
vn 0.2286 -0.9697 -0.0867
vn 0.1817 -0.9005 0.3950
vn -0.2131 -0.9708 -0.1105
vn -0.9989 -0.0000 0.0472
vn -0.9414 -0.0000 0.3374
vn -0.8508 -0.4017 0.3388
vn -0.2286 -0.9696 0.0868
vn -0.2282 -0.8973 0.3778
vn -0.6133 -0.7785 -0.1336
vn -0.5959 -0.7214 0.3528
vn -0.6225 -0.7801 0.0631
vn -0.8891 -0.4327 -0.1494
vn -0.6134 -0.7784 -0.1337
vn -0.8997 -0.4340 0.0474
vn -0.9888 -0.0000 -0.1491
vn 0.8861 -0.4193 -0.1978
vn 0.9821 -0.0000 -0.1886
vn 0.7394 -0.3383 -0.5821
vn 0.8185 -0.0000 -0.5745
vn 0.5207 -0.6154 -0.5917
vn 0.7394 0.3383 -0.5821
vn 0.6161 -0.7583 -0.2133
vn 0.8861 0.4193 -0.1978
vn 0.2283 -0.9445 -0.2362
vn 0.5207 0.6154 -0.5917
vn 0.2055 -0.7665 -0.6085
vn 0.6161 0.7582 -0.2133
vn -0.1417 -0.7637 -0.6298
vn -0.2045 -0.9438 -0.2596
vn 0.2054 0.7665 -0.6085
vn -0.4561 -0.6134 -0.6448
vn -0.5917 -0.7574 -0.2762
vn -0.8601 -0.4182 -0.2920
vn -0.6728 -0.3404 -0.6569
vn -0.7492 -0.0000 -0.6624
vn -0.6728 0.3404 -0.6569
vn -0.8601 0.4182 -0.2920
vn -0.4561 0.6134 -0.6448
vn -0.5917 0.7574 -0.2762
vn -0.2045 0.9438 -0.2596
vn -0.1417 0.7637 -0.6298
vn -0.8996 0.4341 -0.0473
vn -0.9213 -0.3859 -0.0473
vn -0.9214 -0.3858 -0.0473
vn -0.9213 -0.3859 -0.0472
vn -0.0551 0.0002 0.9985
vn -0.0549 -0.0001 0.9985
vn 0.7066 0.7066 0.0392
vn -0.3862 0.9221 -0.0237
vn -0.3862 0.9221 -0.0236
vn -0.0628 0.9980 -0.0000
vn -0.0079 -0.3068 -0.9517
vn -0.0314 -0.8080 -0.5884
vn -0.0629 -0.9980 -0.0001
vn 0.5917 0.7574 0.2761
vn 0.8601 0.4182 0.2920
vn 0.4561 0.6133 0.6448
vn 0.9541 -0.0000 0.2996
vn 0.6727 0.3403 0.6570
vn 0.7491 -0.0000 0.6624
vn 0.8601 -0.4182 0.2920
vn 0.6728 -0.3403 0.6569
vn 0.4561 -0.6134 0.6448
vn 0.2045 -0.9438 0.2596
vn 0.1417 -0.7637 0.6298
vn -0.2055 -0.7665 0.6085
vn -0.2285 -0.9445 0.2361
vn -0.5207 -0.6154 0.5917
vn -0.6167 -0.7578 0.2133
vn -0.8860 -0.4193 0.1978
vn -0.7394 -0.3383 0.5821
vn -0.9821 -0.0000 0.1886
vn -0.8185 -0.0000 0.5746
vn -0.7394 0.3383 0.5821
vn -0.8860 0.4193 0.1978
vn -0.5207 0.6154 0.5917
vn -0.6166 0.7578 0.2133
vn -0.2283 0.9445 0.2361
vn -0.2055 0.7665 0.6085
vn 0.1417 0.7637 0.6298
vn 0.2045 0.9438 0.2596
vn 0.0314 0.8081 -0.5882
vn 0.0549 -0.3063 -0.9503
vn -0.0000 -1.0000 -0.0001
vn 0.1099 -0.8008 0.5888
vn 0.0629 -0.9980 -0.0000
vn 0.1414 -0.9899 0.0079
vn 0.0314 -0.8080 0.5883
vn 0.0157 -0.3067 0.9517
vn 0.0314 -0.8074 0.5892
vn 0.0947 -0.3057 0.9474
vn -0.0236 -0.9997 -0.0000
vn 0.0947 0.3077 0.9468
vn 0.0157 0.3067 0.9517
vn 0.0080 -0.3088 0.9511
vn -0.0552 -0.8044 0.5915
vn -0.2830 -0.9590 -0.0157
vn -0.2752 -0.7469 0.6054
vn -0.6282 -0.7774 -0.0314
vn 0.1100 0.8008 0.5888
vn 0.0314 0.8080 0.5883
vn 0.1414 0.9899 0.0079
vn 0.0079 0.3068 0.9518
vn 0.0079 0.8121 0.5835
vn 0.0550 0.9985 -0.0000
vn -0.0315 0.3232 0.9458
vn -0.0631 -0.2918 0.9544
vn 0.3298 0.7618 0.5576
vn 0.1102 0.3541 0.9287
vn -0.1336 -0.2200 0.9663
vn 0.5852 0.5694 0.5773
vn 0.7411 0.6702 0.0395
vn 0.9526 0.2992 0.0552
vn 0.2207 0.2680 0.9378
vn -0.2203 -0.1731 0.9599
vn -0.5508 -0.5980 0.5823
vn -0.7784 -0.2359 0.5818
vn -0.9503 -0.3063 -0.0549
vn -0.2917 -0.0709 0.9539
vn 0.2904 0.1177 0.9496
vn 0.0552 -0.9472 0.3158
vn -0.1025 -0.9781 0.1814
vn -0.1491 -0.9888 -0.0078
vn 0.7550 0.2517 0.6055
vn 0.4179 -0.8832 0.2129
vn 0.4876 -0.8728 0.0236
vn -0.0788 -0.9772 -0.1970
vn 0.4410 -0.8821 -0.1654
vn 0.2835 -0.9136 -0.2914
vn 0.0869 -0.9475 -0.3079
vn -0.0314 0.8080 0.5884
vn -0.0000 1.0000 0.0001
vn 0.7946 -0.6058 0.0394
vn -0.9665 -0.2515 -0.0522
vn -0.9663 -0.2514 -0.0550
vn -0.9974 0.0471 -0.0543
vn 0.7944 -0.6058 0.0430
vn -0.9974 0.0471 -0.0550
vn 0.9806 -0.1882 0.0549
vn -0.5884 -0.8080 -0.0314
vn -0.5883 -0.8080 -0.0319
vn 0.8275 0.5595 0.0473
vn -0.4408 -0.8973 -0.0238
vn -0.4408 -0.8973 -0.0236
vn 0.5599 0.8280 0.0315
vn 0.5177 -0.8550 0.0314
vn 0.4089 0.9123 0.0236
vn 0.5269 -0.8493 0.0315
vn 0.0548 0.9985 0.0030
vn -0.9665 -0.2514 -0.0522
vn -0.8431 0.5358 -0.0456
vn -0.8430 0.5358 -0.0473
vn -0.7065 0.7066 -0.0392
vn -0.7066 0.7066 -0.0392
vn -0.7065 0.7066 -0.0391
vn -0.9213 0.3859 -0.0473
vn -0.9213 0.3859 -0.0472
vn -0.9214 0.3858 -0.0473
vn 0.6133 0.7785 0.1337
vn 0.6225 0.7801 -0.0631
vn 0.2286 0.9696 -0.0868
vn 0.5959 0.7214 -0.3529
vn 0.8996 0.4340 -0.0474
vn 0.2283 0.8973 -0.3778
vn 0.8508 0.4018 -0.3387
vn -0.2131 0.9708 -0.1106
vn 0.9989 -0.0000 -0.0473
vn -0.1817 0.9005 -0.3950
vn 0.9414 -0.0000 -0.3373
vn -0.5504 0.7234 -0.4168
vn 0.8508 -0.4017 -0.3388
vn -0.6133 0.7784 -0.1337
vn 0.8996 -0.4340 -0.0474
vn 0.5959 -0.7214 -0.3529
vn 0.6225 -0.7801 -0.0631
vn -0.8890 0.4327 -0.1495
vn 0.2286 -0.9696 -0.0867
vn 0.6133 -0.7785 0.1337
vn 0.2282 -0.8973 -0.3778
vn -0.1817 -0.9005 -0.3950
vn -0.5505 -0.7234 -0.4168
vn -0.6133 -0.7784 -0.1337
vn -0.2287 -0.9696 0.0867
vn -0.6224 -0.7801 0.0630
vn -0.6133 -0.7785 -0.1337
vn -0.8890 -0.4327 -0.1496
vn -0.8084 -0.4003 -0.4316
vn -0.9888 -0.0000 -0.1492
vn -0.9007 -0.0000 -0.4345
vn -0.8084 0.4003 -0.4317
vn -0.8997 0.4340 0.0473
vn 0.0868 -0.9474 -0.3079
vn 0.2120 0.3534 -0.9111
vn -0.1183 -0.1735 -0.9777
vn -0.7141 -0.2355 -0.6592
vn -0.9503 -0.3063 -0.0550
vn -0.1491 -0.9888 -0.0079
vn -0.6282 -0.7774 -0.0315
vn -0.4789 -0.5967 -0.6438
vn -0.0314 -0.2202 -0.9750
vn -0.2124 -0.7474 -0.6294
vn -0.2830 -0.9590 -0.0158
vn 0.0078 -0.8019 -0.5975
vn 0.0474 -0.2921 -0.9552
vn 0.1414 -0.9899 0.0078
vn 0.1728 -0.8010 -0.5732
vn 0.1020 -0.8079 -0.5804
vn 0.9985 -0.0000 0.0549
vt 0.128368 0.725856
vt 0.128368 0.827076
vt 0.128368 0.739740
vt 0.128368 0.631786
vt 0.128368 0.790729
vt 0.128368 0.645669
vt 0.128368 0.815508
vt 0.128368 0.544450
vt 0.128368 0.860436
vt 0.128368 0.580797
vt 0.128368 0.511090
vt 0.128368 0.556018
vt 0.238768 0.307545
vt 0.240932 0.368680
vt 0.234013 0.224266
vt 0.230015 0.177475
vt 0.242602 0.466914
vt 0.242602 0.533086
vt 0.217674 0.096507
vt 0.222898 0.121830
vt 0.248846 0.750786
vt 0.248846 0.905190
vt 0.248846 0.769576
vt 0.248846 0.601949
vt 0.248846 0.855996
vt 0.248846 0.620739
vt 0.248846 0.956989
vt 0.248846 0.466336
vt 0.248846 0.896183
vt 0.248846 0.515529
vt 0.248846 0.905189
vt 0.248846 0.475343
vt 0.248846 0.414536
vt 0.240932 0.631320
vt 0.238768 0.692455
vt 0.203624 0.076967
vt 0.209279 0.076967
vt 0.230015 0.822525
vt 0.234013 0.775735
vt 0.800437 0.388339
vt 0.780393 0.360761
vt 0.814307 0.438033
vt 0.190005 0.121830
vt 0.195230 0.096507
vt 0.222898 0.878170
vt 0.182889 0.177475
vt 0.217674 0.903493
vt 0.888381 0.500000
vt 0.876585 0.647655
vt 0.843534 0.766066
vt 0.876585 0.352344
vt 0.795775 0.831779
vt 0.843534 0.233934
vt 0.742765 0.831779
vt 0.795775 0.168221
vt 0.695006 0.766066
vt 0.742765 0.168221
vt 0.661955 0.647655
vt 0.695006 0.233934
vt 0.650159 0.500000
vt 0.661955 0.352345
vt 0.209279 0.923033
vt 0.338608 0.050168
vt 0.351568 0.092066
vt 0.344404 0.068905
vt 0.174135 0.307545
vt 0.178890 0.224266
vt 0.195230 0.903493
vt 0.819257 0.500000
vt 0.814307 0.561967
vt 0.800437 0.611660
vt 0.780393 0.639238
vt 0.758147 0.639238
vt 0.758147 0.360761
vt 0.738103 0.388339
vt 0.724233 0.438033
vt 0.719282 0.500000
vt 0.724233 0.561967
vt 0.738103 0.611661
vt 0.898243 0.677455
vt 0.912420 0.500000
vt 0.898243 0.322544
vt 0.858522 0.180236
vt 0.801124 0.101261
vt 0.737416 0.101261
vt 0.680017 0.180236
vt 0.640296 0.322544
vt 0.626120 0.500000
vt 0.640296 0.677456
vt 0.680017 0.819764
vt 0.737416 0.898739
vt 0.801124 0.898739
vt 0.858522 0.819764
vt 0.268533 0.886718
vt 0.268533 0.762521
vt 0.268533 0.934157
vt 0.272395 0.850550
vt 0.272395 0.889452
vt 0.320086 0.889452
vt 0.268533 0.609005
vt 0.272395 0.748706
vt 0.320086 0.850550
vt 0.334143 0.795212
vt 0.335092 0.830497
vt 0.320086 0.748706
vt 0.272395 0.622819
vt 0.347715 0.625881
vt 0.349657 0.645597
vt 0.358130 0.398088
vt 0.272395 0.520975
vt 0.355916 0.390931
vt 0.359578 0.117960
vt 0.357364 0.110803
vt 0.350120 0.372194
vt 0.342632 0.574265
vt 0.342956 0.349033
vt 0.203624 0.923033
vt 0.742551 0.595727
vt 0.778806 0.619369
vt 0.812124 0.500000
vt 0.807880 0.553124
vt 0.795989 0.595727
vt 0.759734 0.619369
vt 0.778806 0.380631
vt 0.807880 0.446876
vt 0.795989 0.404273
vt 0.742551 0.404273
vt 0.759734 0.380631
vt 0.730659 0.446876
vt 0.730659 0.553124
vt 0.726416 0.500000
vt 0.194714 0.763614
vt 0.216183 0.889581
vt 0.216183 0.763614
vt 0.194714 0.889581
vt 0.216183 0.937696
vt 0.194714 0.937696
vt 0.191858 0.857862
vt 0.191858 0.898489
vt 0.194714 0.607911
vt 0.216183 0.607911
vt 0.191858 0.751499
vt 0.148362 0.843868
vt 0.148362 0.881192
vt 0.148362 0.746154
vt 0.148362 0.625372
vt 0.191858 0.620027
vt 0.148362 0.527657
vt 0.148362 0.490333
vt 0.191858 0.473036
vt 0.191858 0.513663
vt 0.194714 0.433829
vt 0.194714 0.481944
vt 0.216183 0.481944
vt 0.216183 0.433829
vt 0.194714 0.481945
vt 0.216183 0.481945
vt 0.194714 0.763615
vt 0.216183 0.763615
vt 0.170301 0.533086
vt 0.170301 0.466914
vt 0.171971 0.368680
vt 0.190005 0.878170
vt 0.182889 0.822525
vt 0.178890 0.775735
vt 0.174135 0.692455
vt 0.171971 0.631320
vt 0.911810 0.696122
vt 0.867911 0.853400
vt 0.927478 0.500000
vt 0.804475 0.940683
vt 0.911810 0.303878
vt 0.734065 0.940683
vt 0.867911 0.146600
vt 0.670629 0.853401
vt 0.804475 0.059317
vt 0.626729 0.696123
vt 0.734065 0.059317
vt 0.611062 0.500000
vt 0.670629 0.146600
vt 0.626729 0.303878
vt 0.254272 0.685763
vt 0.216183 0.750786
vt 0.216183 0.855996
vt 0.216183 0.896183
vt 0.216183 0.620739
vt 0.216183 0.515529
vt 0.216183 0.475343
vt 0.268533 0.484808
vt 0.268533 0.437369
vt 0.272395 0.482074
vt 0.320086 0.482074
vt 0.320086 0.520975
vt 0.325160 0.460992
vt 0.326109 0.496277
vt 0.329324 0.439130
vt 0.320086 0.622819
vt 0.331660 0.702836
vt 0.328591 0.588653
vt 0.336349 0.510463
vt 0.331266 0.458846
vt 0.337160 0.330296
vt 0.334946 0.323139
vt 0.336394 0.043011
vt 0.338608 0.050168
vt 0.901914 0.059317
vt 0.849548 0.062342
vt 0.875112 0.425276
vt 0.927478 0.422251
vt 0.855271 0.493196
vt 0.925975 0.505029
vt 0.783522 0.661526
vt 0.888096 0.629195
vt 0.720687 0.724453
vt 0.771783 0.873037
vt 0.701265 0.485615
vt 0.692013 0.940683
vt 0.611062 0.485615
vt 0.670820 0.893215
s 1
usemtl Handle1Mtl.029
f 1/1/1 2/2/2 3/3/1
f 4/4/2 1/1/1 3/3/1
f 2/2/2 1/1/1 5/5/1
f 1/1/1 4/4/2 6/6/2
f 7/7/3 2/2/2 5/5/1
f 8/8/2 6/6/2 4/4/2
f 2/2/2 7/7/3 9/9/2
f 6/6/2 8/8/2 10/10/2
f 11/5/1 9/9/2 7/7/3
f 12/11/1 10/10/2 8/8/2
f 9/9/2 11/5/1 13/2/1
f 10/10/2 12/11/1 14/12/1
f 11/5/1 15/3/2 13/2/1
f 12/11/1 16/10/2 14/12/1
f 15/3/2 11/5/1 17/1/2
f 16/10/2 12/11/1 18/8/2
f 19/4/2 15/3/2 17/1/2
f 20/6/2 16/10/2 18/8/2
f 18/8/2 19/4/2 20/6/2
f 19/4/2 17/1/2 20/6/2
f 21/13/4 22/14/4 23/13/5
f 24/14/4 23/13/5 22/14/4
f 25/13/4 26/14/6 27/13/4
f 28/14/6 27/13/4 26/14/6
f 29/15/7 30/16/7 31/15/7
f 30/16/7 32/16/8 31/15/7
f 33/15/7 34/16/7 35/15/7
f 34/16/7 36/16/9 35/15/7
f 37/17/10 38/18/11 39/17/11
f 40/18/10 39/17/11 38/18/11
f 41/17/10 42/18/11 43/17/11
f 44/18/10 43/17/11 42/18/11
f 45/19/12 46/20/12 47/19/12
f 48/20/12 47/19/12 46/20/12
f 49/19/13 50/20/13 51/19/12
f 52/20/12 51/19/12 50/20/13
f 53/21/1 54/22/1 55/23/2
f 56/24/2 53/21/1 55/23/2
f 54/22/1 53/21/1 57/25/2
f 53/21/1 56/24/2 58/26/2
f 59/27/2 54/22/1 57/25/2
f 60/28/2 58/26/2 56/24/2
f 59/27/2 57/25/2 61/29/2
f 58/26/2 60/28/2 62/30/1
f 63/31/2 59/27/2 61/29/2
f 60/28/2 64/32/1 62/30/1
f 61/29/2 65/25/2 63/31/2
f 64/32/1 60/28/2 66/33/2
f 67/21/2 63/31/2 65/25/2
f 68/28/1 64/32/1 66/33/2
f 63/31/2 67/21/2 69/23/2
f 64/32/1 68/28/1 70/30/2
f 71/26/1 69/23/2 67/21/2
f 71/26/1 70/30/2 68/28/1
f 69/23/2 71/26/1 72/24/1
f 68/28/1 72/24/1 71/26/1
f 73/34/14 74/35/15 75/34/15
f 76/35/16 75/34/15 74/35/15
f 77/34/16 78/35/16 79/34/16
f 80/35/16 79/34/16 78/35/16
f 81/36/17 82/37/17 83/36/17
f 84/37/17 83/36/17 82/37/17
f 85/36/17 86/37/17 87/36/17
f 88/37/17 87/36/17 86/37/17
f 89/38/18 90/39/18 91/38/18
f 90/39/18 92/39/19 91/38/18
f 93/38/20 94/39/18 95/38/18
f 94/39/18 96/39/19 95/38/18
f 97/40/21 98/41/22 99/41/23
f 100/42/24 97/40/21 101/40/25
f 100/42/24 101/40/25 102/42/26
f 103/43/27 104/44/27 105/43/28
f 106/44/27 105/43/28 104/44/27
f 107/43/28 108/44/27 109/43/27
f 110/44/27 109/43/27 108/44/27
f 111/44/6 112/45/5 113/44/4
f 112/45/5 111/44/6 114/45/6
f 115/44/6 116/45/6 117/44/4
f 116/45/6 115/44/6 118/45/4
f 119/39/7 120/46/7 121/46/9
f 119/39/7 121/46/9 122/39/7
f 123/39/7 124/46/7 125/46/7
f 123/39/7 125/46/7 126/39/7
f 127/45/29 128/47/29 129/47/29
f 128/47/29 127/45/29 130/45/29
f 131/45/30 132/47/29 133/47/30
f 132/47/29 131/45/30 134/45/29
f 135/48/1 136/49/31 137/49/32
f 136/49/31 138/50/33 137/49/32
f 135/48/1 137/49/32 139/48/2
f 136/49/31 140/50/34 138/50/33
f 141/51/35 135/48/1 139/48/2
f 140/50/34 142/52/36 138/50/33
f 141/51/35 139/48/2 143/51/35
f 140/50/34 144/52/36 142/52/36
f 145/53/37 141/51/35 143/51/35
f 144/52/36 146/54/38 142/52/36
f 145/53/37 143/51/35 147/53/39
f 144/52/36 148/54/38 146/54/38
f 149/55/40 145/53/37 147/53/39
f 148/54/38 150/56/41 146/54/38
f 149/55/40 147/53/39 151/55/42
f 148/54/38 152/56/41 150/56/41
f 153/57/43 149/55/40 151/55/42
f 152/56/41 154/58/44 150/56/41
f 153/57/43 151/55/42 155/57/43
f 152/56/41 156/58/45 154/58/44
f 157/59/46 153/57/43 155/57/43
f 156/58/45 158/60/10 154/58/44
f 157/59/46 155/57/43 159/59/46
f 156/58/45 160/60/11 158/60/10
f 161/61/47 157/59/46 159/59/46
f 160/60/11 162/61/48 158/60/10
f 161/61/47 159/59/46 162/61/48
f 160/60/11 161/61/47 162/61/48
f 163/62/10 164/37/10 165/37/10
f 163/62/10 165/37/10 166/62/10
f 167/62/11 168/37/11 169/37/11
f 167/62/11 169/37/11 170/62/11
f 171/63/49 172/64/50 173/65/51
f 174/34/12 175/66/12 176/66/12
f 174/34/12 176/66/12 177/34/12
f 178/34/12 179/66/12 180/66/13
f 178/34/12 180/66/13 181/34/12
f 182/50/34 183/50/34 184/49/31
f 184/49/31 183/50/34 185/49/32
f 182/50/34 186/52/36 183/50/34
f 184/49/31 185/49/32 187/48/2
f 188/52/36 186/52/36 182/50/34
f 187/48/2 185/49/32 189/48/2
f 188/52/36 190/54/38 186/52/36
f 187/48/2 189/48/2 191/51/52
f 192/54/38 190/54/38 188/52/36
f 191/51/52 189/48/2 193/51/35
f 192/54/38 194/56/53 190/54/38
f 193/51/35 195/53/39 191/51/52
f 196/56/41 194/56/53 192/54/38
f 195/53/39 193/51/35 197/53/37
f 196/56/41 198/58/45 194/56/53
f 195/53/39 197/53/37 199/55/40
f 198/58/45 196/56/41 200/58/45
f 199/55/40 197/53/37 201/55/42
f 200/58/45 202/60/10 198/58/45
f 199/55/40 201/55/42 203/57/54
f 204/60/10 202/60/10 200/58/45
f 203/57/54 201/55/42 205/57/43
f 204/60/10 206/61/47 202/60/10
f 203/57/54 205/57/43 207/59/46
f 206/61/47 204/60/10 208/61/48
f 207/59/46 205/57/43 209/59/46
f 208/61/48 209/59/46 206/61/47
f 209/59/46 208/61/48 207/59/46
f 210/67/55 211/46/55 212/46/55
f 211/46/55 210/67/55 213/67/56
f 214/67/56 215/46/56 216/46/56
f 215/46/56 214/67/56 217/67/56
f 218/68/16 219/20/15 220/20/15
f 218/68/16 220/20/15 221/68/16
f 222/68/14 223/20/16 224/20/16
f 222/68/14 224/20/16 225/68/14
f 226/69/10 227/69/57 228/70/48
f 228/70/48 227/69/57 229/70/58
f 229/70/58 230/71/59 228/70/48
f 230/71/59 229/70/58 231/71/60
f 231/71/60 232/72/43 230/71/59
f 232/72/43 231/71/60 233/72/61
f 232/72/43 233/72/61 234/73/40
f 234/73/40 233/72/61 235/73/62
f 236/42/63 226/69/64 237/42/65
f 237/42/65 238/40/66 236/42/63
f 239/40/41 238/40/66 237/42/65
f 239/40/41 240/41/67 238/40/66
f 240/41/67 239/40/41 241/41/38
f 241/41/38 242/74/68 240/41/67
f 243/74/69 242/74/68 241/41/38
f 243/74/69 244/75/70 242/74/68
f 245/75/34 244/75/70 243/74/69
f 245/75/34 246/76/71 244/75/70
f 246/76/71 245/75/34 247/76/31
f 247/76/31 248/77/72 246/76/71
f 249/77/3 248/77/72 247/76/31
f 249/77/3 250/78/73 248/77/72
f 251/78/74 250/78/73 249/77/3
f 251/78/74 252/79/75 250/78/73
f 253/48/76 254/80/77 255/81/77
f 254/80/77 253/48/76 256/49/76
f 257/48/76 258/82/78 259/51/79
f 258/82/78 257/48/76 260/81/76
f 261/53/76 262/51/80 263/82/80
f 263/82/80 264/83/76 261/53/76
f 265/55/76 266/53/80 267/83/77
f 267/83/77 268/84/76 265/55/76
f 269/85/76 265/55/76 268/84/76
f 265/55/76 269/85/76 270/57/76
f 271/59/76 272/85/76 273/86/81
f 272/85/76 271/59/76 274/57/76
f 275/86/76 276/61/77 277/59/81
f 276/61/77 275/86/76 278/87/76
f 279/60/77 280/61/77 281/87/77
f 281/87/77 282/88/77 279/60/77
f 283/88/76 284/89/76 285/58/77
f 283/88/76 285/58/77 286/60/77
f 287/56/77 288/89/76 289/90/76
f 288/89/76 287/56/77 290/58/76
f 291/90/77 292/54/77 293/56/76
f 292/54/77 291/90/77 294/91/76
f 295/92/76 292/54/77 294/91/76
f 292/54/77 295/92/76 296/52/76
f 297/52/77 298/93/77 299/50/82
f 298/93/77 297/52/77 300/92/76
f 301/80/76 302/50/76 303/93/76
f 302/50/76 301/80/76 304/49/77
f 305/50/83 306/49/84 307/80/85
f 307/80/85 308/93/83 305/50/83
f 309/52/85 310/50/85 311/93/83
f 311/93/83 312/92/83 309/52/85
f 313/92/83 314/91/83 315/54/85
f 313/92/83 315/54/85 316/52/83
f 317/90/86 318/54/83 319/91/85
f 318/54/83 317/90/86 320/56/86
f 321/56/85 322/89/85 323/58/87
f 322/89/85 321/56/85 324/90/83
f 325/58/83 326/88/83 327/60/83
f 326/88/83 325/58/83 328/89/86
f 329/87/83 327/60/83 326/88/83
f 327/60/83 329/87/83 330/61/85
f 331/86/85 332/61/85 333/87/88
f 332/61/85 331/86/85 334/59/85
f 335/59/83 336/85/85 337/57/85
f 336/85/85 335/59/83 338/86/85
f 336/85/85 339/55/83 337/57/85
f 336/85/85 340/84/83 339/55/83
f 341/55/85 342/83/85 343/53/83
f 342/83/85 341/55/85 344/84/83
f 345/82/85 346/53/83 347/83/83
f 346/53/83 345/82/85 348/51/83
f 349/48/85 350/82/83 351/81/85
f 350/82/83 349/48/85 352/51/83
f 353/48/83 354/80/89 355/49/89
f 354/80/89 353/48/83 356/81/85
f 357/23/90 358/94/91 359/95/92
f 358/94/91 357/23/90 360/22/93
f 361/27/94 358/94/91 360/22/93
f 358/94/91 361/27/94 362/96/95
f 362/96/95 363/97/96 358/94/91
f 359/95/92 358/94/91 363/97/96
f 363/97/96 362/96/95 364/98/94
f 365/99/97 363/97/96 364/98/94
f 366/100/98 357/23/90 359/95/92
f 357/23/90 366/100/98 367/24/99
f 368/101/100 359/95/92 363/97/96
f 363/97/96 365/99/97 369/102/101
f 363/97/96 369/102/101 368/101/100
f 365/99/97 370/103/102 369/102/101
f 370/103/102 365/99/97 371/104/103
f 372/105/104 368/101/100 369/102/101
f 369/102/101 370/103/102 372/105/104
f 373/106/105 359/95/92 368/101/100
f 359/95/92 373/106/105 366/100/98
f 368/101/100 372/105/104 373/106/105
f 371/104/103 374/107/106 370/103/102
f 374/107/106 371/104/103 375/108/107
f 376/109/108 374/107/106 375/108/107
f 377/110/109 366/100/98 373/106/105
f 374/107/106 376/109/108 378/111/110
f 379/112/111 378/111/110 376/109/108
f 378/111/110 379/112/111 380/113/112
f 380/113/112 381/114/113 378/111/110
f 381/114/113 374/107/106 378/111/110
f 382/64/114 381/114/113 380/113/112
f 374/107/106 381/114/113 383/115/115
f 383/115/115 370/103/102 374/107/106
f 382/64/114 384/116/116 381/114/113
f 384/116/116 383/115/115 381/114/113
f 385/62/117 386/117/117 387/117/117
f 386/117/117 385/62/117 388/62/117
f 389/62/117 390/117/117 391/117/117
f 390/117/117 389/62/117 392/62/117
f 393/118/118 394/119/77 395/120/77
f 395/120/77 394/119/77 396/121/76
f 396/121/76 394/119/77 397/122/76
f 394/119/77 393/118/118 398/123/77
f 399/124/76 393/118/118 395/120/77
f 399/124/76 395/120/77 400/125/76
f 399/124/76 400/125/76 401/126/76
f 399/124/76 402/127/119 393/118/118
f 402/127/119 399/124/76 403/128/76
f 393/118/118 402/127/119 404/129/76
f 404/129/76 405/130/77 393/118/118
f 405/130/77 404/129/76 406/131/76
f 407/118/87 408/127/87 409/124/83
f 409/124/83 408/127/87 410/128/83
f 408/127/87 407/118/87 411/129/85
f 411/129/85 407/118/87 412/130/83
f 411/129/85 412/130/83 413/131/83
f 414/120/83 407/118/87 409/124/83
f 414/120/83 409/124/83 415/125/83
f 415/125/83 409/124/83 416/126/83
f 414/120/83 417/119/85 407/118/87
f 407/118/87 417/119/85 418/123/85
f 417/119/85 414/120/83 419/121/85
f 417/119/85 419/121/85 420/122/83
f 421/132/120 422/133/121 423/134/122
f 422/133/121 421/132/120 424/135/123
f 422/133/121 424/135/123 425/136/117
f 426/137/124 425/136/117 424/135/123
f 426/137/124 424/135/123 427/138/125
f 421/132/120 427/138/125 424/135/123
f 427/138/125 428/139/124 426/137/124
f 423/134/122 429/140/126 421/132/120
f 429/140/126 423/134/122 430/141/127
f 427/138/125 421/132/120 431/142/128
f 427/138/125 432/143/129 428/139/124
f 431/142/128 432/143/129 427/138/125
f 433/144/130 428/139/124 432/143/129
f 432/143/129 434/2/131 433/144/130
f 435/9/132 433/144/130 434/2/131
f 436/145/133 434/2/131 432/143/129
f 432/143/129 431/142/128 436/145/133
f 434/2/131 436/145/133 437/3/134
f 438/146/135 437/3/134 436/145/133
f 431/142/128 438/146/135 436/145/133
f 437/3/134 438/146/135 439/4/136
f 438/146/135 440/8/137 439/4/136
f 438/146/135 431/142/128 441/147/138
f 421/132/120 441/147/138 431/142/128
f 441/147/138 421/132/120 429/140/126
f 441/147/138 442/148/139 438/146/135
f 440/8/137 438/146/135 442/148/139
f 443/149/140 440/8/137 442/148/139
f 440/8/137 443/149/140 444/11/141
f 442/148/139 445/150/142 443/149/140
f 442/148/139 441/147/138 446/151/143
f 445/150/142 442/148/139 446/151/143
f 429/140/126 446/151/143 441/147/138
f 446/151/143 447/152/142 445/150/142
f 446/151/143 429/140/126 448/153/144
f 447/152/142 446/151/143 448/153/144
f 430/141/127 448/153/144 429/140/126
f 448/153/144 430/141/127 449/154/145
f 449/154/145 447/152/142 448/153/144
f 447/152/142 449/154/145 450/155/17
f 451/156/146 452/155/147 453/157/148
f 452/155/147 451/156/146 454/152/149
f 453/157/148 455/140/150 451/156/146
f 456/151/151 454/152/149 451/156/146
f 455/140/150 456/151/151 451/156/146
f 454/152/149 456/151/151 457/150/149
f 455/140/150 453/157/148 458/141/152
f 459/148/153 457/150/149 456/151/151
f 457/150/149 459/148/153 460/149/154
f 461/8/155 460/149/154 459/148/153
f 460/149/154 461/8/155 462/11/156
f 463/146/157 461/8/155 459/148/153
f 461/8/155 463/146/157 464/4/158
f 465/147/159 459/148/153 456/151/151
f 459/148/153 465/147/159 463/146/157
f 456/151/151 455/140/150 465/147/159
f 466/145/160 464/4/158 463/146/157
f 465/147/159 466/145/160 463/146/157
f 464/4/158 466/145/160 467/3/161
f 466/145/160 468/2/162 467/3/161
f 466/145/160 465/147/159 469/142/163
f 455/140/150 469/142/163 465/147/159
f 468/2/162 466/145/160 470/143/164
f 469/142/163 470/143/164 466/145/160
f 471/144/130 468/2/162 470/143/164
f 468/2/162 471/144/130 472/9/165
f 470/143/164 473/139/166 471/144/130
f 473/139/166 470/143/164 474/138/167
f 470/143/164 469/142/163 474/138/167
f 474/138/167 475/137/166 473/139/166
f 469/142/163 455/140/150 476/158/168
f 476/158/168 474/138/167 469/142/163
f 458/141/152 476/158/168 455/140/150
f 476/158/168 458/141/152 477/159/169
f 474/138/167 476/158/168 478/135/170
f 477/159/169 478/135/170 476/158/168
f 475/137/166 474/138/167 478/135/170
f 478/135/170 477/159/169 479/133/171
f 478/135/170 479/133/171 475/137/166
f 480/136/117 475/137/166 479/133/171
f 481/18/85 482/160/85 483/161/85
f 481/18/85 483/161/85 484/17/88
f 485/37/85 486/62/85 487/117/85
f 487/117/85 488/36/85 485/37/85
f 489/162/85 490/34/83 491/35/83
f 490/34/83 489/162/85 492/66/85
f 493/68/83 494/19/85 495/20/83
f 494/19/85 493/68/83 496/163/85
f 497/38/85 498/67/83 499/46/83
f 499/46/83 500/39/85 497/38/85
f 501/16/83 502/164/83 503/165/83
f 502/164/83 501/16/83 504/15/85
f 505/166/85 506/13/85 507/14/85
f 506/13/85 505/166/85 508/167/85
f 509/44/85 510/45/83 511/47/85
f 509/44/85 511/47/85 512/43/85
f 513/17/77 514/161/172 515/160/77
f 513/17/77 515/160/77 516/18/76
f 517/36/76 518/62/77 519/37/77
f 518/62/77 517/36/76 520/117/77
f 521/162/76 522/34/76 523/66/76
f 522/34/76 521/162/76 524/35/76
f 525/19/77 526/68/77 527/20/77
f 526/68/77 525/19/77 528/163/77
f 529/39/76 530/67/76 531/38/76
f 530/67/76 529/39/76 532/46/77
f 533/16/76 534/165/77 535/164/76
f 535/164/76 536/15/173 533/16/76
f 537/13/77 538/167/77 539/166/77
f 539/166/77 540/14/77 537/13/77
f 541/47/76 542/44/77 543/43/76
f 542/44/77 541/47/76 544/45/77
f 545/17/17 546/161/17 547/161/17
f 545/17/17 547/161/17 548/17/17
f 549/17/17 550/161/17 551/161/17
f 549/17/17 551/161/17 552/17/17
f 553/168/174 554/168/175 555/169/176
f 555/169/176 554/168/175 556/169/177
f 553/168/174 557/170/178 554/168/175
f 553/168/174 555/169/176 558/93/179
f 559/171/180 558/93/179 555/169/176
f 558/93/179 560/80/181 553/168/174
f 558/93/179 559/171/180 561/92/182
f 560/80/181 562/170/183 553/168/174
f 553/168/174 562/170/183 557/170/178
f 560/80/181 563/81/184 562/170/183
f 562/170/183 564/172/185 557/170/178
f 565/82/186 562/170/183 563/81/184
f 566/173/187 561/92/182 559/171/180
f 561/92/182 566/173/187 567/91/188
f 566/173/187 559/171/180 568/171/189
f 569/90/190 567/91/188 566/173/187
f 566/173/187 568/171/189 570/173/191
f 562/170/183 565/82/186 571/172/192
f 562/170/183 571/172/192 564/172/185
f 571/172/192 572/174/193 564/172/185
f 573/83/194 571/172/192 565/82/186
f 574/174/195 572/174/193 571/172/192
f 571/172/192 573/83/194 574/174/195
f 575/175/196 566/173/187 570/173/191
f 566/173/187 575/175/196 569/90/190
f 575/175/196 570/173/191 576/175/197
f 577/176/198 574/174/195 573/83/194
f 578/177/199 569/90/190 575/175/196
f 575/175/196 576/175/197 578/177/199
f 578/177/199 576/175/197 579/177/200
f 569/90/190 578/177/199 580/89/201
f 574/174/195 577/176/198 581/176/202
f 573/83/194 582/84/203 577/176/198
f 577/176/198 583/178/204 581/176/202
f 584/179/205 580/89/201 578/177/199
f 580/89/201 584/179/205 585/88/206
f 586/87/207 585/88/206 584/179/205
f 582/84/203 587/178/208 577/176/198
f 577/176/198 587/178/208 583/178/204
f 582/84/203 588/85/209 587/178/208
f 587/178/208 589/180/210 583/178/204
f 590/86/211 587/178/208 588/85/209
f 587/178/208 590/86/211 591/180/212
f 591/180/212 592/181/213 589/180/214
f 590/86/211 586/87/207 593/181/215
f 593/181/215 591/180/212 590/86/211
f 593/181/215 592/181/213 591/180/212
f 586/87/207 584/179/205 593/181/215
f 593/181/215 594/179/216 592/181/213
f 593/181/215 584/179/205 594/179/216
f 595/69/10 596/42/217 597/69/218
f 597/69/218 596/42/217 598/125/219
f 597/69/218 598/125/219 599/120/220
f 596/42/217 600/126/221 598/125/219
f 601/121/222 597/69/218 599/120/220
f 602/40/223 600/126/221 596/42/217
f 597/69/218 601/121/222 603/70/224
f 604/41/225 600/126/221 602/40/223
f 605/122/226 603/70/224 601/121/222
f 600/126/221 604/41/225 606/124/227
f 603/70/224 605/122/226 607/71/228
f 604/41/225 608/128/229 606/124/227
f 607/71/228 605/122/226 609/72/61
f 604/41/225 610/74/230 608/128/229
f 609/72/61 605/122/226 611/119/231
f 610/74/230 612/127/232 608/128/229
f 613/75/233 612/127/232 610/74/230
f 614/76/234 612/127/232 613/75/233
f 612/127/232 614/76/234 615/129/235
f 616/77/72 615/129/235 614/76/234
f 615/129/235 616/77/72 617/131/236
f 616/77/72 618/130/237 617/131/236
f 616/77/72 619/78/238 618/130/237
f 619/78/238 620/118/239 618/130/237
f 621/79/240 620/118/239 619/78/238
f 611/119/231 622/73/241 609/72/61
f 622/73/241 620/118/239 621/79/240
f 622/73/241 611/119/231 623/123/242
f 620/118/239 622/73/241 623/123/242
f 624/79/37 622/73/241 621/79/240
f 625/73/42 622/73/241 624/79/37
f 624/79/37 621/79/240 626/78/243
f 627/162/244 628/66/245 629/66/246
f 628/66/245 627/162/244 630/162/244
f 631/162/246 632/66/244 633/66/245
f 632/66/244 631/162/246 634/162/245
f 635/48/77 636/70/76 637/49/76
f 636/70/76 635/48/77 638/69/76
f 639/71/77 637/49/76 636/70/76
f 637/49/76 639/71/77 640/50/77
f 641/48/77 642/42/77 643/69/77
f 642/42/77 641/48/77 644/51/76
f 645/42/76 646/51/77 647/40/77
f 646/51/77 648/53/77 647/40/77
f 649/55/77 650/40/76 651/53/77
f 650/40/76 649/55/77 652/41/76
f 653/57/77 654/41/77 655/55/77
f 654/41/77 653/57/77 656/74/76
f 657/59/77 658/74/77 659/57/77
f 658/74/77 657/59/77 660/75/76
f 661/75/77 662/61/77 663/76/80
f 662/61/77 661/75/77 664/59/77
f 665/76/76 666/61/77 667/77/76
f 666/61/77 668/60/76 667/77/76
f 669/58/76 670/77/76 671/60/76
f 670/77/76 669/58/76 672/78/76
f 673/56/76 674/78/76 675/58/76
f 674/78/76 673/56/76 676/79/76
f 677/54/77 678/79/77 679/56/77
f 678/79/77 677/54/77 680/73/76
f 681/73/76 682/52/77 683/72/76
f 682/52/77 681/73/76 684/54/77
f 685/50/77 686/72/76 687/52/76
f 686/72/76 685/50/77 688/71/76
f 689/70/83 690/49/85 691/71/85
f 690/49/85 692/50/88 691/71/85
f 693/52/83 694/72/85 695/50/85
f 696/71/83 695/50/85 694/72/85
f 697/73/247 698/52/85 699/54/83
f 698/52/85 697/73/247 700/72/83
f 701/79/85 702/54/83 703/56/83
f 702/54/83 701/79/85 704/73/83
f 705/56/85 706/78/83 707/79/85
f 706/78/83 705/56/85 708/58/85
f 709/78/83 710/58/85 711/77/83
f 710/58/85 712/60/85 711/77/83
f 713/61/83 714/77/83 715/60/83
f 714/77/83 713/61/83 716/76/85
f 717/75/83 718/61/83 719/59/83
f 718/61/83 717/75/83 720/76/85
f 719/59/83 721/74/83 717/75/83
f 721/74/83 719/59/83 722/57/83
f 723/74/248 724/57/85 725/41/247
f 724/57/85 726/55/87 725/41/247
f 727/53/83 728/40/83 729/55/83
f 730/41/85 729/55/83 728/40/83
f 731/51/85 732/40/83 733/53/83
f 732/40/83 731/51/85 734/42/83
f 735/48/85 736/42/83 737/51/83
f 736/42/83 735/48/85 738/69/83
f 739/48/85 740/70/83 741/69/83
f 740/70/83 739/48/85 742/49/85
f 743/15/18 744/164/18 745/15/18
f 744/164/18 743/15/18 746/164/18
f 747/164/18 748/15/18 749/15/18
f 747/164/18 749/15/18 750/164/249
f 751/68/250 752/163/251 753/163/251
f 752/163/251 751/68/250 754/68/251
f 755/68/251 756/163/251 757/163/251
f 756/163/251 755/68/251 758/68/251
f 759/12/252 760/10/131 761/182/2
f 760/10/131 762/6/134 761/182/2
f 762/6/134 763/1/253 761/182/2
f 763/1/253 764/5/254 761/182/2
f 764/5/254 765/7/255 761/182/2
f 766/5/155 767/1/158 768/182/1
f 769/7/156 766/5/155 768/182/1
f 767/1/158 770/6/161 768/182/1
f 770/6/161 771/10/162 768/182/1
f 771/10/162 772/12/252 768/182/1
f 773/71/256 774/70/257 775/70/47
f 773/71/256 775/70/47 776/71/46
f 774/70/257 777/69/11 775/70/47
f 774/70/257 773/71/256 778/122/258
f 774/70/257 779/69/259 777/69/11
f 779/69/259 780/42/65 777/69/11
f 778/122/258 781/121/260 774/70/257
f 779/69/259 774/70/257 781/121/260
f 781/121/260 782/120/261 779/69/259
f 779/69/259 783/42/262 780/42/65
f 784/125/263 779/69/259 782/120/261
f 779/69/259 784/125/263 783/42/262
f 785/126/264 783/42/262 784/125/263
f 783/42/262 785/126/264 786/40/21
f 786/40/21 787/41/23 788/40/41
f 789/41/265 786/40/21 785/126/264
f 785/126/264 790/124/266 789/41/265
f 789/41/265 791/74/36 787/41/38
f 792/128/267 789/41/265 790/124/266
f 789/41/265 793/74/268 791/74/36
f 789/41/265 792/128/267 793/74/268
f 793/74/268 794/75/34 791/74/36
f 795/127/269 793/74/268 792/128/267
f 793/74/268 796/75/270 794/75/34
f 793/74/268 795/127/269 796/75/270
f 796/75/270 797/76/32 794/75/34
f 798/76/271 796/75/270 795/127/269
f 796/75/270 798/76/271 797/76/32
f 795/127/269 799/129/272 798/76/271
f 798/76/271 800/77/1 797/76/32
f 801/77/273 798/76/271 799/129/272
f 798/76/271 801/77/273 800/77/1
f 799/129/272 802/131/274 801/77/273
f 801/77/273 803/78/35 800/77/1
f 804/130/275 801/77/273 802/131/274
f 801/77/273 805/78/276 803/78/35
f 801/77/273 804/130/275 805/78/276
f 805/78/276 806/79/39 803/78/35
f 807/118/277 805/78/276 804/130/275
f 805/78/276 808/79/278 806/79/39
f 805/78/276 807/118/277 808/79/278
f 808/79/278 809/73/40 806/79/39
f 810/73/279 808/79/278 807/118/277
f 808/79/278 810/73/279 809/73/40
f 807/118/277 811/123/280 810/73/279
f 810/73/279 812/72/43 809/73/40
f 813/119/281 810/73/279 811/123/280
f 810/73/279 814/72/282 812/72/43
f 810/73/279 813/119/281 814/72/282
f 814/72/282 776/71/46 812/72/43
f 778/122/258 814/72/282 813/119/281
f 814/72/282 773/71/256 776/71/46
f 814/72/282 778/122/258 773/71/256
f 815/183/122 816/25/121 817/21/122
f 816/25/121 815/183/122 818/184/283
f 816/25/121 818/184/283 819/29/117
f 820/185/117 819/29/117 818/184/283
f 817/21/122 821/186/127 815/183/122
f 821/186/127 817/21/122 822/26/284
f 822/26/284 823/187/145 821/186/127
f 823/187/145 822/26/284 824/30/145
f 824/30/145 825/188/285 823/187/145
f 825/188/285 824/30/145 826/32/17
f 827/189/286 828/33/287 829/190/288
f 828/33/287 827/189/286 830/28/289
f 827/189/286 831/24/290 830/28/289
f 829/190/288 832/110/291 827/189/286
f 832/110/291 829/190/288 833/191/287
f 831/24/290 827/189/286 834/100/292
f 834/100/292 827/189/286 832/110/291
f 833/191/287 835/192/293 832/110/291
f 836/95/294 831/24/290 834/100/292
f 831/24/290 836/95/294 837/23/295
f 838/106/296 834/100/292 832/110/291
f 836/95/294 834/100/292 838/106/296
f 839/193/297 832/110/291 835/192/293
f 832/110/291 839/193/297 838/106/296
f 839/193/297 835/192/293 840/194/298
f 841/195/299 839/193/297 840/194/298
f 841/195/299 840/194/298 842/196/300
f 843/94/301 837/23/295 836/95/294
f 837/23/295 843/94/301 844/31/302
f 844/31/302 843/94/301 845/27/94
f 846/96/303 845/27/94 843/94/301
f 847/97/302 846/96/303 843/94/301
f 836/95/294 847/97/302 843/94/301
f 846/96/303 847/97/302 848/98/94
f 847/97/302 836/95/294 849/101/304
f 838/106/296 849/101/304 836/95/294
f 850/102/305 848/98/94 847/97/302
f 848/98/94 850/102/305 851/99/306
f 849/101/304 852/105/307 847/97/302
f 850/102/305 847/97/302 852/105/307
f 838/106/296 853/197/308 849/101/304
f 852/105/307 849/101/304 853/197/308
f 853/197/308 838/106/296 839/193/297
f 854/103/309 851/99/306 850/102/305
f 852/105/307 854/103/309 850/102/305
f 851/99/306 854/103/309 855/104/103
f 853/197/308 856/198/310 852/105/307
f 854/103/309 852/105/307 856/198/310
f 839/193/297 857/199/311 853/197/308
f 856/198/310 853/197/308 857/199/311
f 857/199/311 839/193/297 841/195/299
f 858/107/312 855/104/103 854/103/309
f 855/104/103 858/107/312 859/108/313
f 858/107/312 860/109/314 859/108/313
f 861/115/315 854/103/309 856/198/310
f 858/107/312 854/103/309 861/115/315
f 862/200/316 856/198/310 857/199/311
f 856/198/310 862/200/316 861/115/315
f 863/201/317 857/199/311 841/195/299
f 863/201/317 862/200/316 857/199/311
f 842/196/300 863/201/317 841/195/299
f 842/196/300 864/202/318 863/201/317
f 864/202/318 862/200/316 863/201/317
f 864/202/318 842/196/300 865/203/319
f 866/116/320 861/115/315 862/200/316
f 862/200/316 864/202/318 866/116/320
f 861/115/315 866/116/320 867/114/321
f 867/114/321 858/107/312 861/115/315
f 864/202/318 868/65/322 866/116/320
f 869/64/50 866/116/320 868/65/322
f 866/116/320 869/64/50 867/114/321
f 868/65/322 864/202/318 870/63/323
f 865/203/319 870/63/323 864/202/318
f 870/63/323 865/203/319 871/204/324
f 858/107/312 867/114/321 872/111/325
f 860/109/314 858/107/312 872/111/325
f 873/113/326 867/114/321 869/64/50
f 870/63/323 873/113/326 869/64/50
f 867/114/321 873/113/326 872/111/325
f 872/111/325 874/112/327 860/109/314
f 874/112/327 872/111/325 873/113/326
f 870/63/323 874/112/327 873/113/326
f 871/204/324 874/112/327 870/63/323
f 875/205/328 874/112/327 871/204/324
f 874/112/327 875/205/328 876/113/329
f 875/205/328 877/64/330 876/113/329
f 877/64/330 875/205/328 878/65/331
f 879/187/148 880/32/17 881/30/148
f 880/32/17 879/187/148 882/188/17
f 881/30/148 883/186/152 879/187/148
f 883/186/152 881/30/148 884/26/152
f 884/26/152 885/183/169 883/186/152
f 885/183/169 884/26/152 886/21/169
f 886/21/169 887/184/332 885/183/169
f 887/184/332 886/21/169 888/25/171
f 887/184/332 888/25/171 889/185/117
f 890/29/333 889/185/117 888/25/171
f 891/206/334 892/207/335 893/207/336
f 892/207/335 894/208/337 893/207/336
f 891/206/334 893/207/336 895/206/338
f 896/208/339 893/207/336 894/208/337
f 897/209/340 891/206/334 895/206/338
f 896/208/339 894/208/337 898/210/341
f 891/206/334 897/209/340 899/209/340
f 898/210/341 900/210/342 896/208/339
f 901/211/343 899/209/340 897/209/340
f 898/210/341 902/212/344 900/210/342
f 899/209/340 901/211/343 903/211/343
f 904/212/345 900/210/342 902/212/344
f 905/213/346 903/211/343 901/211/343
f 902/212/344 906/214/347 904/212/345
f 903/211/343 905/213/346 907/213/346
f 908/214/347 904/212/345 906/214/347
f 909/215/348 907/213/346 905/213/346
f 906/214/347 910/216/349 908/214/347
f 907/213/346 909/215/348 911/215/348
f 912/216/349 908/214/347 910/216/349
f 913/217/306 911/215/348 909/215/348
f 910/216/349 914/218/336 912/216/349
f 911/215/348 913/217/306 915/217/350
f 910/216/349 916/218/351 914/218/336
f 917/219/352 915/217/350 913/217/306
f 918/219/353 914/218/336 916/218/351
f 915/217/350 917/219/352 918/219/353
f 914/218/336 918/219/353 917/219/352
f 919/160/1 920/161/1 921/161/1
f 920/161/1 919/160/1 922/160/1
f 923/160/2 924/161/1 925/161/2
f 924/161/1 923/160/2 926/160/2
f 927/13/27 928/167/27 929/167/28
f 927/13/27 929/167/28 930/13/27
f 931/13/27 932/167/27 933/167/27
f 931/13/27 933/167/27 934/13/27
f 935/218/85 936/214/85 937/219/85
f 936/214/85 935/218/85 938/216/83
f 937/219/85 936/214/85 939/217/85
f 936/214/85 940/215/83 939/217/85
f 940/215/83 936/214/85 941/212/83
f 941/212/83 942/213/83 940/215/83
f 942/213/83 941/212/83 943/210/83
f 944/208/85 942/213/83 943/210/83
f 942/213/83 944/208/85 945/211/83
f 945/211/83 944/208/85 946/209/85
f 944/208/85 947/206/83 946/209/85
f 947/206/83 944/208/85 948/207/83
f 949/218/77 950/214/77 951/216/77
f 950/214/77 949/218/77 952/219/77
f 950/214/77 952/219/77 953/217/77
f 950/214/77 953/217/77 954/215/76
f 955/212/118 950/214/77 954/215/76
f 954/215/76 956/213/77 955/212/118
f 955/212/118 956/213/77 957/210/77
f 956/213/77 958/208/77 957/210/77
f 958/208/77 956/213/77 959/211/76
f 958/208/77 959/211/76 960/209/77
f 958/208/77 960/209/77 961/206/77
f 962/207/77 958/208/77 961/206/77
f 963/164/354 964/165/354 965/165/355
f 964/165/354 963/164/354 966/164/356
f 967/164/354 968/165/355 969/165/354
f 968/165/355 967/164/354 970/164/354
f 971/166/357 972/167/358 973/167/358
f 972/167/358 971/166/357 974/166/357
f 975/166/358 976/167/358 977/167/359
f 976/167/358 975/166/358 978/166/358
f 979/171/180 980/169/360 981/169/361
f 979/171/180 981/169/361 982/171/362
f 981/169/361 983/93/363 982/171/362
f 984/168/364 983/93/363 981/169/361
f 982/171/362 983/93/363 985/92/365
f 983/93/363 984/168/364 986/80/366
f 985/92/365 987/173/367 982/171/362
f 988/170/368 986/80/366 984/168/364
f 987/173/367 985/92/365 989/91/369
f 986/80/366 988/170/368 990/81/370
f 991/90/371 987/173/367 989/91/369
f 988/170/368 992/82/372 990/81/370
f 987/173/367 991/90/371 993/175/373
f 994/172/374 992/82/372 988/170/368
f 994/172/374 995/83/375 992/82/372
f 996/174/376 995/83/375 994/172/374
f 993/175/373 991/90/371 997/177/377
f 998/176/378 995/83/375 996/174/376
f 999/174/379 998/176/378 996/174/376
f 995/83/375 998/176/378 1000/84/380
f 1001/178/204 1000/84/380 998/176/378
f 1000/84/380 1001/178/204 1002/85/381
f 1001/178/204 1003/86/382 1002/85/381
f 1004/180/383 1003/86/382 1001/178/204
f 1005/178/384 1006/180/385 1004/180/386
f 1007/181/387 1003/86/382 1004/180/383
f 1003/86/382 1007/181/387 1008/87/388
f 1009/179/389 1008/87/388 1007/181/387
f 1008/87/388 1009/179/389 1010/88/390
f 1009/179/389 1011/89/391 1010/88/390
f 997/177/377 1011/89/391 1009/179/389
f 997/177/377 991/90/371 1011/89/391
f 1012/179/205 997/177/377 1009/179/389
f 1012/179/205 1013/177/392 997/177/377
f 1014/166/29 1015/14/30 1016/14/30
f 1014/166/29 1016/14/30 1017/166/29
f 1018/166/29 1019/14/30 1020/14/29
f 1018/166/29 1020/14/29 1021/166/29
f 382/64/114 1022/65/393 384/116/116
f 370/103/102 383/115/115 1023/198/394
f 372/105/104 370/103/102 1023/198/394
f 383/115/115 384/116/116 1024/200/395
f 1024/200/395 1023/198/394 383/115/115
f 1022/65/393 1025/202/396 384/116/116
f 1025/202/396 1024/200/395 384/116/116
f 1026/205/328 1025/202/396 1022/65/393
f 1025/202/396 1026/205/328 1027/203/397
f 1028/204/398 1027/203/397 1026/205/328
f 1027/203/397 1029/196/399 1025/202/396
f 1024/200/395 1025/202/396 1030/201/400
f 1029/196/399 1030/201/400 1025/202/396
f 1023/198/394 1024/200/395 1031/199/401
f 1030/201/400 1031/199/401 1024/200/395
f 1029/196/399 1032/195/402 1030/201/400
f 1031/199/401 1030/201/400 1032/195/402
f 1032/195/402 1029/196/399 1033/194/403
f 1033/194/403 1034/193/404 1032/195/402
f 1034/193/404 1031/199/401 1032/195/402
f 1034/193/404 1033/194/403 1035/192/293
f 1035/192/293 1036/191/287 1034/193/404
f 1037/197/405 1023/198/394 1031/199/401
f 1037/197/405 1031/199/401 1034/193/404
f 372/105/104 1023/198/394 1037/197/405
f 1037/197/405 373/106/105 372/105/104
f 373/106/105 1037/197/405 377/110/109
f 1034/193/404 377/110/109 1037/197/405
f 377/110/109 1034/193/404 1036/191/287
f 1036/191/287 1038/190/406 377/110/109
f 1038/190/406 1039/189/407 377/110/109
f 366/100/98 377/110/109 1039/189/407
f 1040/33/287 1039/189/407 1038/190/406
f 1039/189/407 367/24/99 366/100/98
f 1039/189/407 1040/33/287 1041/28/408
f 367/24/99 1039/189/407 1041/28/408
f 1042/16/56 1043/165/55 1044/165/56
f 1042/16/56 1044/165/56 1045/16/56
f 1046/16/56 1047/165/56 1048/165/56
f 1046/16/56 1048/165/56 1049/16/56
f 1050/160/117 1051/18/117 1052/18/117
f 1050/160/117 1052/18/117 1053/160/117
f 1054/160/117 1055/18/117 1056/18/117
f 1054/160/117 1056/18/117 1057/160/117
f 1058/18/85 1059/160/83 1060/161/85
f 1058/18/85 1060/161/85 1061/17/85
f 1062/37/88 1063/62/83 1064/117/83
f 1064/117/83 1065/36/88 1062/37/88
f 1066/162/83 1067/34/83 1068/35/83
f 1067/34/83 1066/162/83 1069/66/85
f 1070/68/83 1071/19/88 1072/20/88
f 1071/19/88 1070/68/83 1073/163/83
f 1074/38/85 1075/67/85 1076/46/83
f 1076/46/83 1077/39/85 1074/38/85
f 1078/16/83 1079/164/85 1080/165/83
f 1079/164/85 1078/16/83 1081/15/85
f 1082/166/85 1083/13/83 1084/14/83
f 1083/13/83 1082/166/85 1085/167/85
f 1086/44/88 1087/45/85 1088/47/88
f 1086/44/88 1088/47/88 1089/43/85
f 1090/17/77 1091/161/76 1092/160/77
f 1090/17/77 1092/160/77 1093/18/76
f 1094/36/77 1095/62/76 1096/37/77
f 1095/62/76 1094/36/77 1097/117/76
f 1098/162/76 1099/34/76 1100/66/77
f 1099/34/76 1098/162/76 1101/35/77
f 1102/19/77 1103/68/76 1104/20/77
f 1103/68/76 1102/19/77 1105/163/77
f 1106/39/77 1107/67/77 1108/38/77
f 1107/67/77 1106/39/77 1109/46/76
f 1110/16/77 1111/165/76 1112/164/76
f 1112/164/76 1113/15/77 1110/16/77
f 1114/13/76 1115/167/76 1116/166/77
f 1116/166/77 1117/14/77 1114/13/76
f 1118/47/77 1119/44/77 1120/43/76
f 1119/44/77 1118/47/77 1121/45/76
f 1122/19/244 1123/163/246 1124/163/246
f 1122/19/244 1124/163/246 1125/19/246
f 1126/19/246 1127/163/246 1128/163/246
f 1126/19/246 1128/163/246 1129/19/244
f 1130/162/251 1131/35/251 1132/35/251
f 1130/162/251 1132/35/251 1133/162/251
f 1134/162/251 1135/35/251 1136/35/251
f 1134/162/251 1136/35/251 1137/162/251
f 1138/36/1 1139/117/1 1140/117/2
f 1138/36/1 1140/117/2 1141/36/1
f 1142/36/1 1143/117/2 1144/117/2
f 1142/36/1 1144/117/2 1145/36/2
f 1146/67/354 1147/38/354 1148/38/354
f 1146/67/354 1148/38/354 1149/67/355
f 1150/38/354 1151/67/354 1152/38/354
f 1151/67/354 1150/38/354 1153/67/355
f 1154/43/358 1155/47/358 1156/47/359
f 1154/43/358 1156/47/359 1157/43/358
f 1158/43/358 1159/47/357 1160/47/357
f 1158/43/358 1160/47/357 1161/43/358
f 1162/134/11 1163/133/11 1164/184/10
f 1165/136/11 1164/184/10 1163/133/11
f 1162/134/11 1164/184/10 1166/183/11
f 1164/184/10 1165/136/11 1167/185/11
f 1168/186/11 1162/134/11 1166/183/11
f 1169/133/409 1167/185/11 1165/136/11
f 1162/134/11 1168/186/11 1170/141/10
f 1167/185/11 1169/133/409 1171/184/409
f 1172/154/10 1170/141/10 1168/186/11
f 1173/159/10 1171/184/409 1169/133/409
f 1172/154/10 1168/186/11 1174/187/11
f 1171/184/409 1173/159/10 1175/183/10
f 1176/188/11 1172/154/10 1174/187/11
f 1177/141/10 1175/183/10 1173/159/10
f 1172/154/10 1176/188/11 1178/155/11
f 1175/183/10 1177/141/10 1179/186/409
f 1176/188/11 1180/157/11 1178/155/11
f 1180/157/11 1179/186/409 1177/141/10
f 1180/157/11 1176/188/11 1181/187/10
f 1179/186/409 1180/157/11 1181/187/10
