# Blender 5.1.2
# www.blender.org
mtllib Looper.mtl
o Looper
v 0.083317 0.259809 -0.090057
v 0.045817 0.194859 -0.090057
v 0.011017 0.289779 -0.090057
v 0.145517 0.212139 -0.090057
v -0.066683 0.224999 -0.090057
v -0.008383 0.217339 -0.090057
v -0.066683 0.224999 0.059942
v -0.008383 0.217339 -0.090057
v -0.066683 0.224999 -0.090057
v -0.144282 0.289779 -0.090057
v -0.124883 0.217339 -0.090057
v -0.216682 0.259809 -0.090057
v -0.144282 0.289779 -0.090057
v -0.216682 0.259809 -0.090057
v -0.144282 0.289779 0.059942
v -0.066683 0.299999 -0.090057
v -0.066683 0.299999 0.059942
v -0.066683 0.299999 -0.090057
v 0.011017 0.289779 -0.090057
v 0.011017 0.289779 0.059942
v 0.083317 0.259809 -0.090057
v 0.083317 0.259809 0.059942
v 0.092418 0.159099 -0.090057
v 0.193117 0.149999 -0.090057
v 0.045817 0.194859 -0.090057
v -0.008383 0.217339 0.059942
v 0.193117 0.149999 -0.090057
v 0.145517 0.212139 -0.090057
v 0.193117 0.149999 0.059942
v 0.128218 0.112509 -0.090057
v 0.150717 0.058229 -0.090057
v 0.092418 0.159099 -0.090057
v 0.045817 0.194859 0.059942
v 0.223117 0.077649 -0.090057
v 0.223117 0.077649 -0.090057
v 0.233317 -0.000001 -0.090057
v 0.092418 0.159099 -0.090057
v 0.128218 0.112509 -0.090057
v 0.092418 0.159099 0.059942
v 0.233317 -0.000001 -0.090057
v 0.233317 -0.000001 0.059942
v 0.158318 0.000009 -0.090057
v 0.223117 -0.077641 -0.090057
v 0.150717 0.058229 -0.090057
v 0.150717 0.058229 0.059942
v 0.223117 -0.077641 -0.090057
v 0.150717 -0.058231 -0.090057
v 0.128218 -0.112501 -0.090057
v 0.158318 0.000009 -0.090057
v 0.158318 0.000009 0.059942
v 0.193117 -0.150001 -0.090057
v 0.223117 -0.077641 0.059942
v 0.193117 -0.150001 -0.090057
v 0.092418 -0.159101 -0.090057
v 0.150717 -0.058231 -0.090057
v 0.145517 -0.212131 -0.090057
v 0.193117 -0.150001 0.059942
v 0.145517 -0.212131 -0.090057
v 0.083317 -0.259801 -0.090057
v 0.128218 -0.112501 -0.090057
v 0.150717 -0.058231 0.059942
v 0.083317 -0.259801 -0.090057
v 0.145517 -0.212131 -0.090057
v 0.145517 -0.212131 0.059942
v 0.045817 -0.194851 -0.090057
v -0.008383 -0.217331 -0.090057
v 0.092418 -0.159101 -0.090057
v 0.092418 -0.159101 0.059942
v 0.011017 -0.289771 -0.090057
v 0.083317 -0.259801 0.059942
v 0.011017 -0.289771 -0.090057
v -0.066683 -0.225001 -0.090057
v 0.092418 -0.159101 -0.090057
v 0.045817 -0.194851 -0.090057
v 0.092418 -0.159101 0.059942
v -0.066683 -0.300001 -0.090057
v 0.011017 -0.289771 0.059942
v -0.066683 -0.300001 -0.090057
v -0.144282 -0.289771 -0.090057
v -0.008383 -0.217331 -0.090057
v 0.045817 -0.194851 0.059942
v -0.144282 -0.289771 -0.090057
v -0.066683 -0.300001 0.059942
v -0.124883 -0.217331 -0.090057
v -0.216682 -0.259801 -0.090057
v -0.066683 -0.225001 -0.090057
v -0.008383 -0.217331 0.059942
v -0.216682 -0.259801 -0.090057
v -0.144282 -0.289771 0.059942
v -0.179183 -0.194851 -0.090057
v -0.225782 -0.159101 -0.090057
v -0.124883 -0.217331 -0.090057
v -0.066683 -0.225001 0.059942
v -0.278783 -0.212131 -0.090057
v -0.216682 -0.259801 0.059942
v -0.278783 -0.212131 -0.090057
v -0.261483 -0.112501 -0.090057
v -0.179183 -0.194851 -0.090057
v -0.124883 -0.217331 0.059942
v -0.326483 -0.150001 -0.090057
v -0.278783 -0.212131 -0.090057
v -0.326483 -0.150001 0.059942
v -0.326483 -0.150001 -0.090057
v -0.356483 -0.077641 -0.090057
v -0.225782 -0.159101 -0.090057
v -0.179183 -0.194851 0.059942
v -0.356483 -0.077641 -0.090057
v -0.283982 -0.058231 -0.090057
v -0.291683 -0.000001 -0.090057
v -0.225782 -0.159101 -0.090057
v -0.261483 -0.112501 -0.090057
v -0.261483 -0.112501 0.059942
v -0.366683 -0.000001 -0.090057
v -0.356483 -0.077641 0.059942
v -0.366683 -0.000001 -0.090057
v -0.356483 0.077649 -0.090057
v -0.283982 -0.058231 -0.090057
v -0.356483 0.077649 -0.090057
v -0.356483 0.077649 0.059942
v -0.283982 0.058239 -0.090057
v -0.261483 0.112499 -0.090057
v -0.291683 -0.000001 -0.090057
v -0.291683 -0.000001 0.059942
v -0.326483 0.149999 -0.090057
v -0.326483 0.149999 0.059942
v -0.326483 0.149999 -0.090057
v -0.225782 0.159099 -0.090057
v -0.283982 0.058239 -0.090057
v -0.278783 0.212139 -0.090057
v -0.278783 0.212139 -0.090057
v -0.261483 0.112499 -0.090057
v -0.261483 0.112499 0.059942
v -0.278783 0.212139 -0.090057
v -0.278783 0.212139 0.059942
v -0.179183 0.194859 -0.090057
v -0.225782 0.159099 -0.090057
v -0.225782 0.159099 0.059942
v -0.225782 0.159099 -0.090057
v -0.179183 0.194859 -0.090057
v -0.225782 0.159099 0.059942
v -0.124883 0.217339 -0.090057
v -0.179183 0.194859 0.059942
v -0.124883 0.217339 0.059942
v -0.066683 0.299999 0.059942
v -0.144282 0.289779 0.059942
v -0.066683 0.224999 0.059942
v -0.216682 0.259809 0.059942
v -0.216682 0.259809 0.059942
v -0.124883 0.217339 0.059942
v -0.008383 0.217339 0.059942
v 0.011017 0.289779 0.059942
v 0.083317 0.259809 0.059942
v 0.045817 0.194859 0.059942
v 0.145517 0.212139 0.059942
v 0.145517 0.212139 0.059942
v 0.092418 0.159099 0.059942
v 0.193117 0.149999 0.059942
v 0.145517 0.212139 0.059942
v 0.092418 0.159099 0.059942
v 0.223117 0.077649 0.059942
v 0.223117 0.077649 0.059942
v 0.150717 0.058229 0.059942
v 0.128218 0.112509 0.059942
v 0.128218 0.112509 0.059942
v 0.233317 -0.000001 0.059942
v 0.223117 -0.077641 0.059942
v 0.158318 0.000009 0.059942
v 0.193117 -0.150001 0.059942
v 0.128218 -0.112501 0.059942
v 0.150717 -0.058231 0.059942
v 0.145517 -0.212131 0.059942
v 0.145517 -0.212131 0.059942
v 0.092418 -0.159101 0.059942
v 0.128218 -0.112501 0.059942
v 0.083317 -0.259801 0.059942
v 0.011017 -0.289771 0.059942
v -0.008383 -0.217331 0.059942
v 0.045817 -0.194851 0.059942
v -0.066683 -0.300001 0.059942
v -0.066683 -0.225001 0.059942
v -0.144282 -0.289771 0.059942
v -0.216682 -0.259801 0.059942
v -0.124883 -0.217331 0.059942
v -0.278783 -0.212131 0.059942
v -0.278783 -0.212131 0.059942
v -0.225782 -0.159101 0.059942
v -0.179183 -0.194851 0.059942
v -0.278783 -0.212131 0.059942
v -0.326483 -0.150001 0.059942
v -0.261483 -0.112501 0.059942
v -0.225782 -0.159101 0.059942
v -0.356483 -0.077641 0.059942
v -0.225782 -0.159101 0.059942
v -0.366683 -0.000001 0.059942
v -0.366683 -0.000001 0.059942
v -0.291683 -0.000001 0.059942
v -0.283982 -0.058231 0.059942
v -0.283982 -0.058231 0.059942
v -0.356483 0.077649 0.059942
v -0.326483 0.149999 0.059942
v -0.261483 0.112499 0.059942
v -0.283982 0.058239 0.059942
v -0.283982 0.058239 0.059942
v -0.278783 0.212139 0.059942
v -0.225782 0.159099 0.059942
v -0.278783 0.212139 0.059942
v -0.179183 0.194859 0.059942
v 0.145517 0.212139 -0.090057
v 0.409118 0.179999 -0.235758
v 0.409118 0.179999 0.205542
v 0.409118 -0.180001 -0.235758
v 0.409118 -0.180001 0.205542
v 0.354017 0.179999 0.284943
v 0.354017 -0.180001 0.260742
v 0.354017 0.179999 0.260742
v 0.354017 -0.180001 0.284943
v 0.409118 -0.180001 0.205542
v 0.409118 0.179999 0.205542
v 0.433317 0.239999 0.284943
v 0.433317 -0.240001 0.284943
v 0.433317 -0.240001 0.284943
v 0.433317 -0.240001 -0.315058
v 0.409118 -0.180001 -0.235758
v 0.409118 -0.180001 0.205542
v 0.433317 0.239999 -0.315058
v 0.409118 0.179999 0.205542
v 0.409118 0.179999 -0.235758
v 0.433317 0.239999 0.284943
v 0.433317 -0.240001 -0.315058
v 0.433317 0.239999 -0.315058
v 0.409118 0.179999 -0.235758
v 0.409118 -0.180001 -0.235758
v -0.166683 0.239999 -0.315058
v -0.166683 0.239999 0.284943
v 0.433317 0.239999 -0.315058
v 0.433317 0.239999 0.284943
v 0.354017 0.179999 0.260742
v -0.087283 0.179999 0.260742
v -0.087283 0.179999 0.284943
v 0.354017 0.179999 0.284943
v -0.087283 -0.180001 0.284943
v 0.354017 -0.180001 0.284943
v -0.087283 0.179999 0.284943
v 0.354017 0.179999 0.284943
v 0.433317 -0.240001 0.284943
v 0.354017 0.179999 0.260742
v 0.354017 -0.180001 0.260742
v 0.433317 0.239999 0.284943
v -0.166683 0.239999 0.284943
v -0.166683 -0.240001 0.284943
v -0.087283 -0.180001 0.260742
v -0.087283 0.179999 0.260742
v -0.166683 -0.240001 0.284943
v 0.433317 -0.240001 0.284943
v 0.354017 -0.180001 0.260742
v -0.087283 -0.180001 0.260742
v 0.433317 0.239999 0.284943
v -0.166683 0.239999 0.284943
v -0.087283 0.179999 0.260742
v 0.354017 0.179999 0.260742
v -0.142483 0.179999 -0.235758
v -0.142483 -0.180001 -0.235758
v -0.142483 -0.180001 0.205542
v -0.142483 0.179999 0.205542
v -0.087283 -0.180001 0.284943
v -0.087283 0.179999 0.260742
v -0.087283 -0.180001 0.260742
v -0.087283 0.179999 0.284943
v -0.142483 0.179999 0.205542
v -0.142483 -0.180001 0.205542
v -0.166683 -0.240001 0.284943
v -0.166683 0.239999 0.284943
v -0.166683 -0.240001 -0.315058
v -0.142483 -0.180001 0.205542
v -0.142483 -0.180001 -0.235758
v -0.166683 -0.240001 0.284943
v -0.166683 0.239999 0.284943
v -0.166683 0.239999 -0.315058
v -0.142483 0.179999 -0.235758
v -0.142483 0.179999 0.205542
v -0.166683 0.239999 -0.315058
v -0.166683 -0.240001 -0.315058
v -0.142483 -0.180001 -0.235758
v -0.142483 0.179999 -0.235758
v -0.166683 -0.240001 -0.315058
v 0.433317 -0.240001 -0.315058
v 0.433317 -0.240001 0.284943
v -0.166683 -0.240001 0.284943
v -0.087283 -0.180001 0.260742
v 0.354017 -0.180001 0.260742
v 0.354017 -0.180001 0.284943
v -0.087283 -0.180001 0.284943
v 0.354017 0.179999 -0.290857
v -0.087283 -0.180001 -0.290857
v -0.087283 0.179999 -0.290857
v 0.354017 -0.180001 -0.290857
v 0.433317 0.239999 -0.315058
v 0.354017 -0.180001 -0.290857
v 0.354017 0.179999 -0.290857
v 0.433317 -0.240001 -0.315058
v -0.166683 -0.240001 -0.315058
v -0.166683 0.239999 -0.315058
v -0.087283 0.179999 -0.290857
v -0.087283 -0.180001 -0.290857
v 0.433317 -0.240001 -0.315058
v -0.166683 -0.240001 -0.315058
v -0.087283 -0.180001 -0.290857
v 0.354017 -0.180001 -0.290857
v -0.166683 0.239999 -0.315058
v 0.433317 0.239999 -0.315058
v 0.354017 0.179999 -0.290857
v -0.087283 0.179999 -0.290857
vn -0.0000 -0.0000 -1.0000
vn 0.0001 -1.0000 -0.0000
vn -0.2589 -0.9659 -0.0000
vn -0.2587 0.9659 -0.0000
vn -0.4970 0.8678 -0.0000
vn -0.2591 0.9659 -0.0000
vn -0.0001 1.0000 -0.0000
vn 0.2594 0.9658 -0.0000
vn 0.2592 0.9658 -0.0000
vn 0.5029 0.8644 -0.0000
vn -0.5029 -0.8644 -0.0000
vn -0.2593 -0.9658 -0.0000
vn 0.8678 0.4970 -0.0000
vn 0.7071 0.7071 -0.0000
vn 0.8677 0.4970 -0.0000
vn -0.0001 -0.0000 -1.0000
vn -0.7071 -0.7071 -0.0000
vn 0.9659 0.2589 -0.0000
vn -0.8644 -0.5029 -0.0000
vn 1.0000 -0.0000 -0.0000
vn -0.9659 -0.2591 -0.0000
vn -0.9658 -0.2592 -0.0000
vn 0.9659 -0.2588 -0.0000
vn -1.0000 -0.0000 -0.0000
vn 0.8677 -0.4970 -0.0000
vn 0.9658 -0.2593 -0.0000
vn -0.9659 0.2591 -0.0000
vn 0.7071 -0.7071 -0.0000
vn -0.8643 0.5029 -0.0000
vn -0.9658 0.2592 -0.0000
vn 0.5029 -0.8644 -0.0000
vn -0.7071 0.7071 -0.0000
vn 0.2589 -0.9659 -0.0000
vn -0.5029 0.8643 -0.0000
vn -0.0001 -1.0000 -0.0000
vn 0.2590 -0.9659 -0.0000
vn -0.2590 0.9659 -0.0000
vn -0.5029 0.8644 -0.0000
vn -0.2591 -0.9658 -0.0000
vn 0.0001 1.0000 -0.0000
vn -0.4970 -0.8677 -0.0000
vn 0.2593 0.9658 -0.0000
vn 0.2591 0.9658 -0.0000
vn -0.8643 -0.5029 -0.0000
vn -0.9659 -0.2589 -0.0000
vn 0.9658 0.2593 -0.0000
vn -0.9659 0.2589 -0.0000
vn 0.8644 -0.5029 -0.0000
vn 0.8643 -0.5029 -0.0000
vn 0.5029 -0.8643 -0.0000
vn 0.2592 -0.9658 -0.0000
vn 0.2591 -0.9659 -0.0000
vn -0.0000 -0.0000 1.0000
vn -0.8644 0.5029 -0.0000
vn -0.0001 -0.0000 1.0000
vn 0.0001 -0.0000 1.0000
vn 0.9658 0.2592 -0.0000
vn 0.9658 -0.2592 -0.0000
vn 0.9563 -0.0000 -0.2924
vn 0.9263 0.3768 -0.0000
vn 0.9263 -0.3768 -0.0000
vn 0.9563 -0.0000 0.2923
vn 0.9563 -0.0000 0.2924
vn -0.0000 1.0000 -0.0000
vn -0.2924 -0.0000 0.9563
vn -0.2923 -0.0000 0.9563
vn -0.2922 -0.0000 0.9563
vn 0.2924 -0.0000 0.9563
vn -0.0000 0.3768 0.9263
vn -0.0000 -0.3768 0.9263
vn -0.9563 -0.0000 -0.2924
vn -0.9563 -0.0000 -0.2923
vn -0.9263 0.3768 -0.0000
vn -0.9263 -0.3768 -0.0000
vn -0.9564 -0.0000 0.2922
vn -0.9563 -0.0000 0.2924
vn -0.9563 -0.0000 0.2923
vn -0.0000 -1.0000 -0.0000
vn -0.2924 -0.0000 -0.9563
vn -0.2923 -0.0000 -0.9563
vn -0.2922 -0.0000 -0.9563
vn 0.2924 -0.0000 -0.9563
vn 0.2923 -0.0000 -0.9563
vn -0.0000 0.3768 -0.9263
vn -0.0000 -0.3768 -0.9263
vt -187.261002 -2.103560
vt -187.223007 -2.168510
vt -187.188004 -2.073590
vt -187.322998 -2.151230
vt -1.924760 187.707001
vt -1.924760 187.764999
vt -2.074760 187.707001
vt -187.169006 -2.146030
vt -187.110992 -2.138360
vt -187.033005 -2.073590
vt -187.052002 -2.146030
vt -186.960999 -2.103560
vt 0.705848 187.630005
vt 0.705848 187.557007
vt 0.855848 187.630005
vt 0.705848 187.707001
vt 0.855848 187.707001
vt -187.110992 -2.063360
vt 0.705848 187.785004
vt 0.855848 187.785004
vt 0.705848 187.856995
vt 0.855848 187.856995
vt -187.270004 -2.204270
vt -187.369995 -2.213370
vt -1.924760 187.820007
vt -2.074760 187.764999
vt -1.924760 -2.213370
vt -1.924760 -2.151230
vt -2.074760 -2.213370
vt -187.304993 -2.250860
vt -187.328003 -2.305130
vt -1.924760 187.865997
vt -2.074760 187.820007
vt -1.924760 -2.285720
vt -187.399994 -2.285720
vt -187.410995 -2.363370
vt 0.705848 -2.204270
vt 0.705848 -2.250860
vt 0.855848 -2.204270
vt -1.924760 -2.363370
vt -2.074760 -2.363370
vt -187.335999 -2.363360
vt -187.399994 -2.441010
vt 0.705848 -2.305130
vt 0.855848 -2.305130
vt -1.924760 -2.441010
vt -187.328003 -2.421600
vt -187.304993 -2.475870
vt 0.705848 -2.363360
vt 0.855848 -2.363360
vt -1.924760 -2.513360
vt -2.074760 -2.441010
vt -187.369995 -2.513360
vt -187.270004 -2.522460
vt 0.705848 -2.421600
vt -1.924760 -2.575500
vt -2.074760 -2.513360
vt -187.322998 -2.575500
vt -187.261002 -2.623170
vt 0.705848 -2.475870
vt 0.855848 -2.421600
vt -1.924760 187.856995
vt -1.924760 187.919006
vt -2.074760 187.919006
vt -187.223007 -2.558220
vt -187.169006 -2.580700
vt 0.705848 -2.522460
vt 0.855848 -2.522460
vt -1.924760 187.785004
vt -2.074760 187.856995
vt -187.188004 -2.653140
vt -187.110992 -2.588360
vt 0.705848 187.865997
vt 0.705848 187.820007
vt 0.855848 187.865997
vt -2.074760 187.785004
vt -187.110992 -2.663360
vt -187.033005 -2.653140
vt 0.705848 187.764999
vt 0.855848 187.820007
vt -1.924760 187.630005
vt -187.052002 -2.580700
vt -186.960999 -2.623170
vt 0.855848 187.764999
vt -1.924760 187.557007
vt -2.074760 187.630005
vt -186.998001 -2.558220
vt -186.951004 -2.522460
vt 0.705848 187.649002
vt -1.924760 187.494995
vt -2.074760 187.557007
vt -186.897995 -2.575500
vt -186.916000 -2.475860
vt 0.705848 187.595001
vt 0.855848 187.649002
vt 0.705848 -2.513370
vt 0.705848 -2.575500
vt 0.855848 -2.513370
vt -186.850998 -2.513370
vt -186.820999 -2.441010
vt 0.705848 187.548004
vt 0.855848 187.595001
vt 0.705848 -2.441010
vt -186.893005 -2.421600
vt -186.886002 -2.363370
vt -1.924760 -2.522460
vt -1.924760 -2.475860
vt -2.074760 -2.475860
vt 0.705848 -2.363370
vt 0.855848 -2.441010
vt -186.811005 -2.363370
vt -186.820999 -2.285720
vt -1.924760 -2.421600
vt 0.705848 -2.285720
vt 0.855848 -2.285720
vt -186.893005 -2.305130
vt -186.916000 -2.250860
vt 0.705848 -2.213360
vt 0.855848 -2.213360
vt -186.850998 -2.213360
vt -186.951004 -2.204260
vt -1.924760 -2.305130
vt 0.705848 -2.151230
vt -186.897995 -2.151230
vt -1.924760 -2.250860
vt -2.074760 -2.250860
vt 0.705848 187.494995
vt 0.855848 187.494995
vt -186.998001 -2.168510
vt -1.924760 -2.204260
vt -2.074760 -2.204260
vt -1.924760 187.548004
vt -1.924760 187.595001
vt -2.074760 187.548004
vt -1.924760 187.649002
vt -2.074760 187.595001
vt -2.074760 187.649002
vt 185.891998 -2.063360
vt 185.813995 -2.073590
vt 185.891998 -2.138360
vt 0.855848 187.557007
vt 185.742004 -2.103560
vt 185.832993 -2.146030
vt 185.949997 -2.146030
vt 185.968994 -2.073590
vt 186.042007 -2.103560
vt 186.003998 -2.168510
vt 186.104004 -2.151230
vt 0.855848 187.919006
vt 186.050995 -2.204270
vt 186.151001 -2.213370
vt -2.074760 -2.151230
vt -2.074760 187.865997
vt -2.074760 -2.285720
vt 186.181000 -2.285720
vt 186.108994 -2.305130
vt 0.855848 -2.250860
vt 186.085999 -2.250860
vt 186.192001 -2.363370
vt 186.181000 -2.441010
vt 186.117004 -2.363360
vt 186.151001 -2.513360
vt 186.085999 -2.475870
vt 186.108994 -2.421600
vt -2.074760 -2.575500
vt 186.104004 -2.575500
vt 186.050995 -2.522460
vt 0.855848 -2.475870
vt 186.042007 -2.623170
vt 185.968994 -2.653140
vt 185.949997 -2.580700
vt 186.003998 -2.558220
vt 185.891998 -2.663360
vt 185.891998 -2.588360
vt 185.813995 -2.653140
vt 185.742004 -2.623170
vt 185.832993 -2.580700
vt -2.074760 187.494995
vt 185.679001 -2.575500
vt 185.733002 -2.522460
vt 185.779007 -2.558220
vt 0.855848 -2.575500
vt 185.632004 -2.513370
vt 185.697006 -2.475860
vt 0.855848 187.548004
vt 185.602005 -2.441010
vt -2.074760 -2.522460
vt 0.855848 -2.363370
vt 185.591995 -2.363370
vt 185.667007 -2.363370
vt -2.074760 -2.421600
vt 185.673996 -2.421600
vt 185.602005 -2.285720
vt 185.632004 -2.213360
vt 185.697006 -2.250860
vt -2.074760 -2.305130
vt 185.673996 -2.305130
vt 185.679001 -2.151230
vt 185.733002 -2.204260
vt 0.855848 -2.151230
vt 185.779007 -2.168510
vt 0.705848 187.919006
vt 0.523477 1.402560
vt 0.082226 1.402560
vt 0.523477 1.042560
vt 0.082226 1.042560
vt 0.002852 1.402560
vt 0.027070 1.042560
vt 0.027070 1.402560
vt 0.002852 1.042560
vt 0.002852 1.462560
vt 0.002852 0.982560
vt 0.602852 0.982560
vt 0.602852 1.462560
vt 0.602852 0.922560
vt 0.602852 1.522560
vt 0.002852 0.922560
vt 0.002852 1.522560
vt 0.082226 1.498340
vt 0.523477 1.498340
vt 0.523477 1.522560
vt 0.082226 1.522560
vt 0.602852 1.042560
vt 0.578634 1.402560
vt 0.578634 1.042560
vt 0.602852 1.402560
s 1
usemtl Circle1Mtl
f 1/1/1 2/2/1 3/3/1
f 2/2/1 1/1/1 4/4/1
f 5/5/2 6/6/3 7/7/2
f 8/8/1 9/9/1 3/3/1
f 10/10/1 11/11/1 12/12/1
f 11/11/1 10/10/1 9/9/1
f 13/13/4 14/14/5 15/15/6
f 16/16/7 13/13/4 17/17/7
f 10/10/1 18/18/1 9/9/1
f 19/19/8 16/16/7 20/20/9
f 18/18/1 3/3/1 9/9/1
f 21/21/10 19/19/8 22/22/10
f 4/4/1 23/23/1 2/2/1
f 23/23/1 4/4/1 24/24/1
f 6/6/3 25/25/11 26/26/12
f 2/2/1 8/8/1 3/3/1
f 27/27/13 28/28/14 29/29/15
f 24/24/1 30/30/16 23/23/1
f 30/30/16 24/24/1 31/31/1
f 25/25/11 32/32/17 33/33/11
f 34/34/18 27/27/13 29/29/15
f 24/24/1 35/35/1 31/31/1
f 31/31/1 35/35/1 36/36/1
f 37/37/17 38/38/19 39/39/17
f 40/40/20 34/34/18 41/41/20
f 36/36/1 42/42/1 31/31/1
f 42/42/1 36/36/1 43/43/1
f 38/38/19 44/44/21 45/45/22
f 46/46/23 40/40/20 41/41/20
f 43/43/1 47/47/1 42/42/1
f 47/47/1 43/43/1 48/48/1
f 44/44/21 49/49/24 50/50/24
f 51/51/25 46/46/23 52/52/26
f 43/43/1 53/53/1 48/48/1
f 48/48/1 53/53/1 54/54/1
f 49/49/24 55/55/27 50/50/24
f 56/56/28 51/51/25 57/57/25
f 53/53/1 58/58/1 54/54/1
f 54/54/1 58/58/1 59/59/1
f 55/55/27 60/60/29 61/61/30
f 62/62/31 63/63/28 64/64/28
f 59/59/1 65/65/1 54/54/1
f 65/65/1 59/59/1 66/66/1
f 60/60/29 67/67/32 68/68/32
f 69/69/33 62/62/31 70/70/31
f 59/59/1 71/71/1 66/66/1
f 66/66/1 71/71/1 72/72/1
f 73/73/32 74/74/34 75/75/32
f 76/5/35 69/69/33 77/76/36
f 71/71/1 78/77/1 72/72/1
f 72/72/1 78/77/1 79/78/1
f 74/74/34 80/79/37 81/80/38
f 82/81/39 76/5/35 83/7/35
f 79/78/1 84/82/1 72/72/1
f 84/82/1 79/78/1 85/83/1
f 80/79/37 86/16/40 87/84/37
f 88/85/41 82/81/39 89/86/39
f 85/83/1 90/87/1 84/82/1
f 90/87/1 85/83/1 91/88/1
f 86/16/40 92/89/42 93/17/40
f 94/90/17 88/85/41 95/91/41
f 85/83/1 96/92/1 91/88/1
f 91/88/1 96/92/1 97/93/1
f 92/89/42 98/94/10 99/95/43
f 100/96/44 101/97/17 102/98/44
f 96/92/1 103/99/1 97/93/1
f 97/93/1 103/99/1 104/100/1
f 98/94/10 105/101/14 106/102/10
f 107/103/22 100/96/44 102/98/44
f 104/100/1 108/104/1 97/93/1
f 108/104/1 104/100/1 109/105/1
f 110/106/14 111/107/13 112/108/13
f 113/109/24 107/103/22 114/110/45
f 104/100/1 115/111/1 109/105/1
f 109/105/1 115/111/1 116/112/1
f 111/107/13 117/113/46 112/108/13
f 118/114/47 113/109/24 119/115/30
f 116/112/1 120/116/1 109/105/1
f 120/116/1 116/112/1 121/117/1
f 117/113/46 122/40/20 123/41/20
f 124/118/29 118/114/47 125/119/29
f 116/112/1 126/120/1 121/117/1
f 121/117/1 126/120/1 127/121/1
f 122/40/20 128/122/26 123/41/20
f 129/123/32 124/118/29 125/119/29
f 126/120/1 130/124/1 127/121/1
f 127/121/1 130/124/1 12/12/1
f 128/122/26 131/125/48 132/126/49
f 14/14/5 133/127/32 134/128/32
f 127/121/1 12/12/1 135/129/1
f 131/125/48 136/130/28 137/131/28
f 12/12/1 11/11/1 135/129/1
f 138/132/28 139/133/50 140/134/28
f 139/133/50 141/135/51 142/136/31
f 141/135/51 5/5/2 143/137/52
f 15/15/6 17/17/7 13/13/4
f 144/138/53 145/139/53 146/140/53
f 147/141/5 15/15/6 14/14/5
f 145/139/53 148/142/53 149/143/53
f 146/140/53 145/139/53 149/143/53
f 26/26/12 7/7/2 6/6/3
f 146/140/53 150/144/53 151/145/53
f 152/146/53 153/147/53 154/148/53
f 153/147/53 152/146/53 151/145/53
f 22/22/10 155/149/14 21/21/10
f 20/20/9 22/22/10 19/19/8
f 17/17/7 20/20/9 16/16/7
f 151/145/53 144/138/53 146/140/53
f 33/33/11 26/26/12 25/25/11
f 150/144/53 153/147/53 151/145/53
f 154/148/53 156/150/53 157/151/53
f 156/150/53 154/148/53 153/147/53
f 158/152/14 29/29/15 28/28/14
f 159/153/17 33/33/11 32/32/17
f 29/29/15 160/154/18 34/34/18
f 161/155/53 157/151/53 162/156/53
f 163/157/44 39/39/17 38/38/19
f 156/150/53 164/158/53 157/151/53
f 160/154/18 41/41/20 34/34/18
f 165/159/53 161/155/53 162/156/53
f 45/45/22 163/157/44 38/38/19
f 164/158/53 162/156/53 157/151/53
f 41/41/20 52/52/26 46/46/23
f 166/160/53 165/159/53 167/161/53
f 50/50/24 45/45/22 44/44/21
f 162/156/53 167/161/53 165/159/53
f 52/52/26 57/57/25 51/51/25
f 168/162/53 166/160/53 169/163/53
f 61/61/30 50/50/24 55/55/27
f 167/161/53 170/164/53 166/160/53
f 57/57/25 171/165/28 56/56/28
f 172/166/53 168/162/53 173/167/53
f 174/168/54 61/61/30 60/60/29
f 170/164/53 169/163/53 166/160/53
f 64/64/28 70/70/31 62/62/31
f 175/169/53 172/166/53 173/167/53
f 68/68/32 174/168/54 60/60/29
f 169/163/53 173/167/53 168/162/53
f 70/70/31 77/76/36 69/69/33
f 176/170/53 175/169/53 177/171/53
f 81/80/38 75/75/32 74/74/34
f 173/167/53 178/172/55 175/169/53
f 77/76/36 83/7/35 76/5/35
f 179/173/53 176/170/53 180/174/53
f 87/84/37 81/80/38 80/79/37
f 178/172/55 177/171/53 175/169/53
f 83/7/35 89/86/39 82/81/39
f 181/175/53 179/173/53 180/174/53
f 93/17/40 87/84/37 86/16/40
f 177/171/53 180/174/53 176/170/53
f 89/86/39 95/91/41 88/85/41
f 182/176/53 181/175/53 183/177/53
f 99/95/43 93/17/40 92/89/42
f 180/174/53 183/177/53 181/175/53
f 95/91/41 184/178/17 94/90/17
f 185/179/53 182/176/53 186/180/53
f 106/102/10 99/95/43 98/94/10
f 183/177/53 187/181/56 182/176/53
f 188/182/17 102/98/44 101/97/17
f 189/183/53 185/179/53 190/184/53
f 191/185/14 106/102/10 105/101/14
f 187/181/56 186/180/53 182/176/53
f 102/98/44 114/110/45 107/103/22
f 192/186/53 189/183/53 190/184/53
f 112/108/13 193/187/14 110/106/14
f 186/180/53 190/184/53 185/179/53
f 114/110/45 194/188/24 113/109/24
f 195/189/53 192/186/53 196/190/53
f 197/191/57 112/108/13 117/113/46
f 190/184/53 198/192/53 192/186/53
f 194/188/24 119/115/30 113/109/24
f 199/193/53 195/189/53 196/190/53
f 123/41/20 197/191/57 117/113/46
f 198/192/53 196/190/53 192/186/53
f 119/115/30 125/119/29 118/114/47
f 200/194/53 199/193/53 201/195/53
f 202/196/58 123/41/20 128/122/26
f 196/190/53 203/197/53 199/193/53
f 134/128/32 147/141/5 14/14/5
f 148/142/53 204/198/53 205/199/53
f 125/119/29 206/200/32 129/123/32
f 204/198/53 200/194/53 205/199/53
f 132/126/49 202/196/58 128/122/26
f 203/197/53 201/195/53 199/193/53
f 205/199/53 200/194/53 201/195/53
f 137/131/28 132/126/49 131/125/48
f 148/142/53 205/199/53 207/201/53
f 142/136/31 140/134/28 139/133/50
f 148/142/53 207/201/53 149/143/53
f 143/137/52 142/136/31 141/135/51
f 7/7/2 143/137/52 5/5/2
f 155/149/14 208/202/14 21/21/10
f 209/203/20 210/204/20 211/205/20
f 211/205/20 210/204/20 212/206/20
f 213/207/20 214/208/20 215/209/20
f 214/208/20 213/207/20 216/210/20
f 217/206/59 218/204/59 219/211/59
f 217/206/59 219/211/59 220/212/59
f 221/212/60 222/213/60 223/205/60
f 221/212/60 223/205/60 224/206/60
f 225/214/61 226/204/61 227/203/61
f 225/214/61 228/211/61 226/204/61
f 229/213/62 230/214/62 231/203/62
f 229/213/62 231/203/62 232/205/63
f 233/215/64 234/216/64 235/217/64
f 235/217/64 234/216/64 236/218/64
f 237/219/64 238/220/64 239/221/64
f 237/219/64 239/221/64 240/222/64
f 241/206/53 242/205/53 243/204/53
f 242/205/53 244/203/53 243/204/53
f 245/213/65 246/203/66 247/205/67
f 245/213/65 248/214/65 246/203/66
f 249/211/68 250/212/68 251/206/68
f 249/211/68 251/206/68 252/204/68
f 253/212/69 254/213/69 255/205/69
f 253/212/69 255/205/69 256/206/69
f 257/214/70 258/211/70 259/204/70
f 257/214/70 259/204/70 260/203/70
f 261/204/24 262/206/24 263/205/24
f 261/204/24 263/205/24 264/203/24
f 265/223/24 266/224/24 267/225/24
f 266/224/24 265/223/24 268/226/24
f 269/203/71 270/205/72 271/213/71
f 269/203/71 271/213/71 272/214/71
f 273/212/73 274/205/73 275/206/73
f 273/212/73 276/213/73 274/205/73
f 277/214/74 278/211/74 279/204/74
f 277/214/74 279/204/74 280/203/74
f 281/211/75 282/212/76 283/206/77
f 281/211/75 283/206/77 284/204/75
f 285/217/78 286/215/78 287/216/78
f 285/217/78 287/216/78 288/218/78
f 289/219/78 290/220/78 291/221/78
f 289/219/78 291/221/78 292/222/78
f 293/204/1 294/205/1 295/203/1
f 294/205/1 293/204/1 296/206/1
f 297/211/79 298/206/80 299/204/81
f 297/211/79 300/212/80 298/206/80
f 301/213/82 302/214/83 303/203/82
f 301/213/82 303/203/82 304/205/82
f 305/212/84 306/213/84 307/205/84
f 305/212/84 307/205/84 308/206/84
f 309/214/85 310/211/85 311/204/85
f 309/214/85 311/204/85 312/203/85
