# Blender 5.1.2
# www.blender.org
mtllib Mag.mtl
o Mag
v -0.041834 0.219136 -0.023144
v -0.041834 0.219136 0.023155
v 0.074302 0.219136 -0.023144
v 0.074302 0.219136 0.023155
v 0.078692 -0.052484 0.029057
v 0.078692 -0.052484 -0.029045
v 0.078692 -0.042814 -0.029045
v 0.078692 -0.042814 0.029057
v 0.074302 0.219136 -0.023144
v 0.074302 -0.042814 0.023155
v 0.074302 -0.042814 -0.023144
v 0.074302 0.219136 0.023155
v -0.057615 -0.052484 -0.029045
v -0.057615 -0.042814 0.029057
v -0.057615 -0.042814 -0.029045
v -0.057615 -0.052484 0.029057
v -0.041834 -0.042814 0.023155
v -0.041834 0.219136 0.023155
v -0.041834 -0.042814 -0.023144
v -0.041834 0.219136 -0.023144
v -0.057615 -0.042814 -0.029045
v -0.041834 -0.042814 -0.031445
v -0.057615 -0.052484 -0.029045
v -0.041834 -0.052484 -0.031445
v -0.057615 -0.052484 0.029057
v -0.041834 -0.052484 0.031456
v -0.057615 -0.042814 0.029057
v -0.041834 -0.042814 0.031456
v -0.041834 -0.052484 -0.023144
v 0.074302 -0.052484 -0.023144
v 0.074302 -0.052484 0.023155
v 0.078692 -0.052484 0.029057
v 0.078692 -0.052484 -0.029045
v -0.041834 -0.052484 -0.031445
v -0.041834 -0.052484 0.031456
v -0.041834 -0.052484 0.023155
v -0.051370 -0.052484 0.023155
v -0.057615 -0.052484 0.029057
v -0.051370 -0.052484 -0.023144
v -0.057615 -0.052484 -0.029045
v -0.041834 -0.052484 0.031456
v 0.078692 -0.052484 0.029057
v 0.078692 -0.042814 0.029057
v -0.041834 -0.042814 0.031456
v -0.041834 -0.042814 -0.031445
v 0.078692 -0.042814 -0.029045
v 0.078692 -0.052484 -0.029045
v -0.041834 -0.052484 -0.031445
v 0.074302 0.219136 -0.023144
v 0.074302 -0.042814 -0.023144
v -0.041834 0.219136 -0.023144
v -0.041834 -0.042814 -0.023144
v 0.074302 -0.042814 0.023155
v 0.074302 0.219136 0.023155
v -0.041834 -0.042814 0.023155
v -0.041834 0.219136 0.023155
v -0.051370 -0.042814 -0.023144
v -0.041834 -0.042814 0.023155
v -0.041834 -0.042814 -0.023144
v -0.041834 -0.042814 -0.031445
v 0.074302 -0.042814 -0.023144
v 0.078692 -0.042814 -0.029045
v -0.057615 -0.042814 -0.029045
v 0.074302 -0.042814 0.023155
v 0.078692 -0.042814 0.029057
v -0.041834 -0.042814 0.031456
v -0.051370 -0.042814 0.023155
v -0.057615 -0.042814 0.029057
vn -0.0000 1.0000 -0.0000
vn 1.0000 -0.0000 -0.0000
vn -1.0000 -0.0000 -0.0000
vn -0.1491 -0.0000 -0.9888
vn -0.1491 -0.0000 0.9888
vn -0.0000 -1.0000 -0.0000
vn 0.0236 -0.0000 0.9997
vn 0.0236 -0.0000 -0.9997
vn -0.0000 -0.0000 -1.0000
vn -0.0000 -0.0000 1.0000
vt 0.884221 1.000000
vt 0.032209 1.000000
vt -0.000000 0.000000
vt -0.000000 0.035597
vt 0.032209 0.035597
vt 1.000000 0.000000
vt 1.000000 0.035597
vt 0.884221 0.035597
vt 0.884221 0.000000
vt 0.032209 0.000000
vt 0.954186 0.000000
vt 0.954186 0.035597
s 1
usemtl Mag1Mtl
f 1/1/1 2/1/1 3/2/1
f 3/2/1 2/1/1 4/2/1
f 5/3/2 6/3/2 7/4/2
f 7/4/2 8/4/2 5/3/2
f 9/2/2 10/5/2 11/5/2
f 10/5/2 9/2/2 12/2/2
f 13/6/3 14/7/3 15/7/3
f 14/7/3 13/6/3 16/6/3
f 17/8/3 18/1/3 19/8/3
f 20/1/3 19/8/3 18/1/3
f 21/7/4 22/8/4 23/6/4
f 22/8/4 24/9/4 23/6/4
f 25/6/5 26/9/5 27/7/5
f 26/9/5 28/8/5 27/7/5
f 29/9/6 30/10/6 31/10/6
f 30/10/6 32/3/6 31/10/6
f 32/3/6 30/10/6 33/3/6
f 34/9/6 33/3/6 30/10/6
f 34/9/6 30/10/6 29/9/6
f 35/9/6 31/10/6 32/3/6
f 31/10/6 35/9/6 36/9/6
f 29/9/6 31/10/6 36/9/6
f 36/9/6 35/9/6 37/11/6
f 29/9/6 36/9/6 37/11/6
f 37/11/6 35/9/6 38/6/6
f 39/11/6 34/9/6 29/9/6
f 37/11/6 39/11/6 29/9/6
f 38/6/6 39/11/6 37/11/6
f 34/9/6 39/11/6 40/6/6
f 38/6/6 40/6/6 39/11/6
f 41/9/7 42/3/7 43/4/7
f 41/9/7 43/4/7 44/8/7
f 45/8/8 46/4/8 47/3/8
f 45/8/8 47/3/8 48/9/8
f 49/2/9 50/5/9 51/1/9
f 51/1/9 50/5/9 52/8/9
f 53/5/10 54/2/10 55/8/10
f 55/8/10 54/2/10 56/1/10
f 57/12/1 58/8/1 59/8/1
f 60/8/1 57/12/1 59/8/1
f 61/5/1 60/8/1 59/8/1
f 60/8/1 61/5/1 62/4/1
f 63/7/1 57/12/1 60/8/1
f 64/5/1 62/4/1 61/5/1
f 62/4/1 64/5/1 65/4/1
f 64/5/1 66/8/1 65/4/1
f 64/5/1 58/8/1 66/8/1
f 63/7/1 67/12/1 57/12/1
f 58/8/1 57/12/1 67/12/1
f 67/12/1 66/8/1 58/8/1
f 63/7/1 68/7/1 67/12/1
f 66/8/1 67/12/1 68/7/1
