# Blender 5.1.2
# www.blender.org
mtllib MatchingGyro.mtl
o MatchingGyro
v 0.133599 0.249994 1.205990
v 0.133599 0.249994 1.305988
v 0.133599 -0.250006 1.205990
v 0.133599 -0.250006 1.305988
v -0.166400 0.249994 1.305988
v 0.133599 0.249994 1.305988
v -0.166400 0.249994 1.205990
v 0.133599 0.249994 1.205990
v 0.133599 0.249994 1.305988
v -0.166400 0.249994 1.305988
v 0.133599 -0.250006 1.305988
v -0.166400 -0.250006 1.305988
v -0.166400 0.249994 1.305988
v -0.166400 0.249994 1.205990
v -0.166400 -0.250006 1.305988
v -0.166400 -0.250006 1.205990
v -0.166400 -0.250006 1.205990
v 0.133599 -0.250006 1.205990
v -0.166400 -0.250006 1.305988
v 0.133599 -0.250006 1.305988
v -0.166400 0.249994 1.205990
v 0.133599 0.249994 1.205990
v -0.166400 -0.250006 1.205990
v 0.133599 -0.250006 1.205990
v -0.016400 -0.000006 1.475988
v 0.178760 -0.017326 1.427090
v 0.182590 -0.000006 1.436390
v 0.178760 0.017314 1.427090
v -0.016400 0.017314 1.465990
v -0.016400 0.017314 1.445990
v 0.171110 0.017314 1.408689
v 0.167279 -0.000006 1.399389
v -0.016400 -0.000006 1.435989
v 0.171110 0.017314 1.408689
v 0.323009 -0.000006 1.295389
v 0.330080 0.017314 1.302488
v 0.344220 0.017314 1.316589
v 0.178760 0.017314 1.427090
v 0.351290 -0.000006 1.323689
v 0.344220 -0.017326 1.316589
v 0.178760 -0.017326 1.427090
v 0.171110 -0.017326 1.408689
v 0.330080 -0.017326 1.302488
v 0.323009 -0.000006 1.295389
v 0.167279 -0.000006 1.399389
v 0.436299 -0.017326 1.143490
v 0.427060 -0.000006 1.139688
v 0.330080 -0.017326 1.302488
v 0.454770 -0.017326 1.151089
v 0.344220 -0.017326 1.316589
v 0.464009 -0.000006 1.154989
v 0.344220 0.017314 1.316589
v 0.454770 0.017314 1.151089
v 0.330080 0.017314 1.302488
v 0.436299 0.017314 1.143490
v 0.427060 -0.000006 1.139688
v 0.473590 0.017314 0.955990
v 0.463590 -0.000006 0.955990
v 0.436299 0.017314 1.143490
v 0.454770 0.017314 1.151089
v 0.493600 0.017314 0.955990
v 0.503600 -0.000006 0.955990
v 0.454770 -0.017326 1.151089
v 0.493600 -0.017326 0.955990
v 0.473590 -0.017326 0.955990
v 0.436299 -0.017326 1.143490
v 0.463590 -0.000006 0.955990
v -0.016400 -0.135006 0.955990
v -0.114090 -0.060386 0.884989
v 0.020909 -0.060386 0.841089
v -0.114090 -0.060386 0.884989
v -0.016400 -0.135006 0.955990
v -0.114090 -0.060386 1.026890
v -0.016400 -0.135006 0.955990
v 0.020909 -0.060386 0.841089
v 0.104340 -0.060386 0.955990
v -0.016400 -0.135006 0.955990
v 0.104340 -0.060386 0.955990
v 0.020909 -0.060386 1.070789
v -0.016400 -0.135006 0.955990
v 0.020909 -0.060386 1.070789
v -0.114090 -0.060386 1.026890
v -0.114090 -0.060386 0.884989
v -0.114090 -0.060386 1.026890
v -0.137151 0.060364 0.955990
v 0.020909 -0.060386 0.841089
v -0.114090 -0.060386 0.884989
v -0.053720 0.060364 0.841089
v 0.104340 -0.060386 0.955990
v 0.020909 -0.060386 0.841089
v 0.081280 0.060364 0.884989
v -0.114090 -0.060386 1.026890
v 0.020909 -0.060386 1.070789
v -0.053720 0.060364 1.070789
v -0.114090 -0.060386 0.884989
v -0.137151 0.060364 0.955990
v -0.053720 0.060364 0.841089
v 0.020909 -0.060386 0.841089
v -0.053720 0.060364 0.841089
v 0.081280 0.060364 0.884989
v 0.020909 -0.060386 1.070789
v 0.081280 0.060364 1.026890
v -0.053720 0.060364 1.070789
v -0.114090 -0.060386 1.026890
v -0.053720 0.060364 1.070789
v -0.137151 0.060364 0.955990
v -0.053720 0.060364 0.841089
v -0.137151 0.060364 0.955990
v -0.016400 0.134994 0.955990
v 0.081280 0.060364 0.884989
v -0.053720 0.060364 0.841089
v -0.016400 0.134994 0.955990
v 0.081280 0.060364 1.026890
v 0.081280 0.060364 0.884989
v -0.016400 0.134994 0.955990
v -0.053720 0.060364 1.070789
v 0.081280 0.060364 1.026890
v -0.016400 0.134994 0.955990
v -0.137151 0.060364 0.955990
v -0.053720 0.060364 1.070789
v -0.016400 0.134994 0.955990
v 0.020909 -0.060386 1.070789
v 0.104340 -0.060386 0.955990
v 0.081280 0.060364 1.026890
v 0.104340 -0.060386 0.955990
v 0.081280 0.060364 0.884989
v 0.081280 0.060364 1.026890
v -0.487580 0.017314 1.151089
v -0.526410 0.017314 0.955990
v -0.536410 -0.000006 0.955990
v -0.506400 0.017314 0.955990
v -0.469110 0.017314 1.143490
v -0.459870 -0.000006 1.139688
v -0.496400 -0.000006 0.955990
v -0.496820 -0.000006 1.154989
v -0.355821 -0.000006 1.295389
v -0.469110 0.017314 1.143490
v -0.362890 0.017314 1.302488
v -0.377030 0.017314 1.316589
v -0.487580 0.017314 1.151089
v -0.384100 -0.000006 1.323689
v -0.377030 -0.017326 1.316589
v -0.487580 -0.017326 1.151089
v -0.469110 -0.017326 1.143490
v -0.362890 -0.017326 1.302488
v -0.355821 -0.000006 1.295389
v -0.459870 -0.000006 1.139688
v -0.487580 -0.017326 1.151089
v -0.526410 -0.017326 0.955990
v -0.506400 -0.017326 0.955990
v -0.469110 -0.017326 1.143490
v -0.496400 -0.000006 0.955990
v -0.459870 -0.000006 0.772289
v -0.506400 -0.017326 0.955990
v -0.469110 -0.017326 0.768490
v -0.487580 -0.017326 0.760790
v -0.526410 -0.017326 0.955990
v -0.496820 -0.000006 0.756989
v -0.487580 0.017314 0.760790
v -0.526410 0.017314 0.955990
v -0.506400 0.017314 0.955990
v -0.469110 0.017314 0.768490
v -0.459870 -0.000006 0.772289
v -0.355821 -0.000006 0.616589
v -0.469110 0.017314 0.768490
v -0.362890 0.017314 0.609489
v -0.377030 0.017314 0.595289
v -0.487580 0.017314 0.760790
v -0.384100 -0.000006 0.588289
v -0.377030 -0.017326 0.595289
v -0.487580 -0.017326 0.760790
v -0.469110 -0.017326 0.768490
v -0.362890 -0.017326 0.609489
v -0.355821 -0.000006 0.616589
v -0.203920 -0.017326 0.503288
v -0.362890 -0.017326 0.609489
v -0.200090 -0.000006 0.512489
v -0.211571 -0.017326 0.484789
v -0.377030 -0.017326 0.595289
v -0.215401 -0.000006 0.475590
v -0.377030 0.017314 0.595289
v -0.211571 0.017314 0.484789
v -0.362890 0.017314 0.609489
v -0.203920 0.017314 0.503288
v -0.200090 -0.000006 0.512489
v -0.016400 -0.000006 0.475988
v -0.016400 0.017314 0.465990
v -0.203920 0.017314 0.503288
v -0.211571 0.017314 0.484789
v -0.016400 0.017314 0.445990
v -0.016400 -0.000006 0.435989
v -0.211571 -0.017326 0.484789
v -0.016400 -0.017326 0.445990
v -0.016400 -0.017326 0.465990
v -0.203920 -0.017326 0.503288
v -0.016400 -0.000006 0.475988
v -0.016400 -0.017326 0.465990
v 0.167279 -0.000006 0.512489
v 0.171110 -0.017326 0.503288
v 0.178760 -0.017326 0.484789
v -0.016400 -0.017326 0.445990
v 0.182590 -0.000006 0.475590
v 0.178760 0.017314 0.484789
v -0.016400 0.017314 0.445990
v -0.016400 0.017314 0.465990
v 0.171110 0.017314 0.503288
v 0.167279 -0.000006 0.512489
v 0.323009 -0.000006 0.616589
v 0.171110 0.017314 0.503288
v 0.330080 0.017314 0.609489
v 0.344220 0.017314 0.595289
v 0.178760 0.017314 0.484789
v 0.351290 -0.000006 0.588289
v 0.344220 -0.017326 0.595289
v 0.178760 -0.017326 0.484789
v 0.171110 -0.017326 0.503288
v 0.330080 -0.017326 0.609489
v 0.323009 -0.000006 0.616589
v 0.436299 -0.017326 0.768490
v 0.427060 -0.000006 0.772289
v 0.330080 -0.017326 0.609489
v 0.454770 -0.017326 0.760790
v 0.344220 -0.017326 0.595289
v 0.464009 -0.000006 0.756989
v 0.344220 0.017314 0.595289
v 0.454770 0.017314 0.760790
v 0.330080 0.017314 0.609489
v 0.436299 0.017314 0.768490
v 0.427060 -0.000006 0.772289
v 0.473590 0.017314 0.955990
v 0.463590 -0.000006 0.955990
v 0.436299 0.017314 0.768490
v 0.493600 0.017314 0.955990
v 0.454770 0.017314 0.760790
v 0.503600 -0.000006 0.955990
v 0.454770 -0.017326 0.760790
v 0.493600 -0.017326 0.955990
v 0.436299 -0.017326 0.768490
v 0.473590 -0.017326 0.955990
v 0.463590 -0.000006 0.955990
v -0.215401 -0.000006 1.436390
v -0.377030 0.017314 1.316589
v -0.377030 -0.017326 1.316589
v -0.211571 0.017314 1.427090
v -0.203920 0.017314 1.408689
v -0.362890 0.017314 1.302488
v -0.200090 -0.000006 1.399389
v -0.211571 -0.017326 1.427090
v -0.203920 -0.017326 1.408689
v -0.362890 -0.017326 1.302488
v -0.200090 -0.000006 1.399389
v -0.016400 0.017314 1.445990
v -0.203920 0.017314 1.408689
v -0.211571 0.017314 1.427090
v -0.016400 0.017314 1.465990
v -0.211571 -0.017326 1.427090
v -0.016400 -0.017326 1.465990
v -0.016400 -0.017326 1.445990
v -0.203920 -0.017326 1.408689
v -0.016400 -0.000006 1.435989
v -0.016400 -0.017326 1.445990
v 0.171110 -0.017326 1.408689
v -0.016400 -0.017326 1.465990
v 0.008590 -0.000006 0.045990
v 0.398930 -0.034646 -0.051710
v 0.406590 -0.000006 -0.033211
v 0.398930 0.034634 -0.051710
v 0.008590 0.034634 0.025990
v 0.008590 0.034634 -0.014011
v 0.383619 0.034634 -0.088612
v 0.375970 -0.000006 -0.107111
v 0.008590 -0.000006 -0.034010
v 0.383619 0.034634 -0.088612
v 0.687420 -0.000006 -0.315210
v 0.701560 0.034634 -0.301111
v 0.729839 0.034634 -0.272810
v 0.398930 0.034634 -0.051710
v 0.743990 -0.000006 -0.258612
v 0.729839 -0.034646 -0.272810
v 0.398930 -0.034646 -0.051710
v 0.383619 -0.034646 -0.088612
v 0.701560 -0.034646 -0.301111
v 0.687420 -0.000006 -0.315210
v 0.375970 -0.000006 -0.107111
v 0.914000 -0.034646 -0.619011
v 0.895519 -0.000006 -0.626711
v 0.701560 -0.034646 -0.301111
v 0.950950 -0.034646 -0.603710
v 0.729839 -0.034646 -0.272810
v 0.969430 -0.000006 -0.596010
v 0.729839 0.034634 -0.272810
v 0.950950 0.034634 -0.603710
v 0.701560 0.034634 -0.301111
v 0.914000 0.034634 -0.619011
v 0.895519 -0.000006 -0.626711
v 0.988589 0.034634 -0.994011
v 0.968590 -0.000006 -0.994011
v 0.914000 0.034634 -0.619011
v 0.950950 0.034634 -0.603710
v 1.028600 0.034634 -0.994011
v 1.048590 -0.000006 -0.994011
v 0.950950 -0.034646 -0.603710
v 1.028600 -0.034646 -0.994011
v 0.988589 -0.034646 -0.994011
v 0.914000 -0.034646 -0.619011
v 0.968590 -0.000006 -0.994011
v 0.008590 -0.270006 -0.994011
v -0.186780 -0.120756 -1.136011
v 0.083220 -0.120756 -1.223711
v -0.186780 -0.120756 -1.136011
v 0.008590 -0.270006 -0.994011
v -0.186780 -0.120756 -0.852110
v 0.008590 -0.270006 -0.994011
v 0.083220 -0.120756 -1.223711
v 0.250090 -0.120756 -0.994011
v 0.008590 -0.270006 -0.994011
v 0.250090 -0.120756 -0.994011
v 0.083220 -0.120756 -0.764410
v 0.008590 -0.270006 -0.994011
v 0.083220 -0.120756 -0.764410
v -0.186780 -0.120756 -0.852110
v -0.186780 -0.120756 -1.136011
v -0.186780 -0.120756 -0.852110
v -0.232901 0.120744 -0.994011
v 0.083220 -0.120756 -1.223711
v -0.186780 -0.120756 -1.136011
v -0.066031 0.120744 -1.223711
v 0.250090 -0.120756 -0.994011
v 0.083220 -0.120756 -1.223711
v 0.203970 0.120744 -1.136011
v -0.186780 -0.120756 -0.852110
v 0.083220 -0.120756 -0.764410
v -0.066031 0.120744 -0.764410
v -0.186780 -0.120756 -1.136011
v -0.232901 0.120744 -0.994011
v -0.066031 0.120744 -1.223711
v 0.083220 -0.120756 -1.223711
v -0.066031 0.120744 -1.223711
v 0.203970 0.120744 -1.136011
v 0.083220 -0.120756 -0.764410
v 0.203970 0.120744 -0.852110
v -0.066031 0.120744 -0.764410
v -0.186780 -0.120756 -0.852110
v -0.066031 0.120744 -0.764410
v -0.232901 0.120744 -0.994011
v -0.066031 0.120744 -1.223711
v -0.232901 0.120744 -0.994011
v 0.008590 0.269994 -0.994011
v 0.203970 0.120744 -1.136011
v -0.066031 0.120744 -1.223711
v 0.008590 0.269994 -0.994011
v 0.203970 0.120744 -0.852110
v 0.203970 0.120744 -1.136011
v 0.008590 0.269994 -0.994011
v -0.066031 0.120744 -0.764410
v 0.203970 0.120744 -0.852110
v 0.008590 0.269994 -0.994011
v -0.232901 0.120744 -0.994011
v -0.066031 0.120744 -0.764410
v 0.008590 0.269994 -0.994011
v 0.083220 -0.120756 -0.764410
v 0.250090 -0.120756 -0.994011
v 0.203970 0.120744 -0.852110
v 0.250090 -0.120756 -0.994011
v 0.203970 0.120744 -1.136011
v 0.203970 0.120744 -0.852110
v -0.933730 0.034634 -0.603710
v -1.011431 0.034634 -0.994011
v -1.031430 -0.000006 -0.994011
v -0.971430 0.034634 -0.994011
v -0.896811 0.034634 -0.619011
v -0.878330 -0.000006 -0.626711
v -0.951430 -0.000006 -0.994011
v -0.952230 -0.000006 -0.596010
v -0.670230 -0.000006 -0.315210
v -0.896811 0.034634 -0.619011
v -0.684370 0.034634 -0.301111
v -0.712650 0.034634 -0.272810
v -0.933730 0.034634 -0.603710
v -0.726800 -0.000006 -0.258612
v -0.712650 -0.034646 -0.272810
v -0.933730 -0.034646 -0.603710
v -0.896811 -0.034646 -0.619011
v -0.684370 -0.034646 -0.301111
v -0.670230 -0.000006 -0.315210
v -0.878330 -0.000006 -0.626711
v -0.933730 -0.034646 -0.603710
v -1.011431 -0.034646 -0.994011
v -0.971430 -0.034646 -0.994011
v -0.896811 -0.034646 -0.619011
v -0.951430 -0.000006 -0.994011
v -0.878330 -0.000006 -1.361410
v -0.971430 -0.034646 -0.994011
v -0.896811 -0.034646 -1.369110
v -0.933730 -0.034646 -1.384411
v -1.011431 -0.034646 -0.994011
v -0.952230 -0.000006 -1.392012
v -0.933730 0.034634 -1.384411
v -1.011431 0.034634 -0.994011
v -0.971430 0.034634 -0.994011
v -0.896811 0.034634 -1.369110
v -0.878330 -0.000006 -1.361410
v -0.670230 -0.000006 -1.672911
v -0.896811 0.034634 -1.369110
v -0.684370 0.034634 -1.687012
v -0.712650 0.034634 -1.715311
v -0.933730 0.034634 -1.384411
v -0.726800 -0.000006 -1.729410
v -0.712650 -0.034646 -1.715311
v -0.933730 -0.034646 -1.384411
v -0.896811 -0.034646 -1.369110
v -0.684370 -0.034646 -1.687012
v -0.670230 -0.000006 -1.672911
v -0.366430 -0.034646 -1.899410
v -0.684370 -0.034646 -1.687012
v -0.358780 -0.000006 -1.881010
v -0.381741 -0.034646 -1.936411
v -0.712650 -0.034646 -1.715311
v -0.389400 -0.000006 -1.954910
v -0.712650 0.034634 -1.715311
v -0.381741 0.034634 -1.936411
v -0.684370 0.034634 -1.687012
v -0.366430 0.034634 -1.899410
v -0.358780 -0.000006 -1.881010
v 0.008590 -0.000006 -1.954010
v 0.008590 0.034634 -1.974010
v -0.366430 0.034634 -1.899410
v -0.381741 0.034634 -1.936411
v 0.008590 0.034634 -2.014011
v 0.008590 -0.000006 -2.034010
v -0.381741 -0.034646 -1.936411
v 0.008590 -0.034646 -2.014011
v 0.008590 -0.034646 -1.974010
v -0.366430 -0.034646 -1.899410
v 0.008590 -0.000006 -1.954010
v 0.008590 -0.034646 -1.974010
v 0.375970 -0.000006 -1.881010
v 0.383619 -0.034646 -1.899410
v 0.398930 -0.034646 -1.936411
v 0.008590 -0.034646 -2.014011
v 0.406590 -0.000006 -1.954910
v 0.398930 0.034634 -1.936411
v 0.008590 0.034634 -2.014011
v 0.008590 0.034634 -1.974010
v 0.383619 0.034634 -1.899410
v 0.375970 -0.000006 -1.881010
v 0.687420 -0.000006 -1.672911
v 0.383619 0.034634 -1.899410
v 0.701560 0.034634 -1.687012
v 0.729839 0.034634 -1.715311
v 0.398930 0.034634 -1.936411
v 0.743990 -0.000006 -1.729410
v 0.729839 -0.034646 -1.715311
v 0.398930 -0.034646 -1.936411
v 0.383619 -0.034646 -1.899410
v 0.701560 -0.034646 -1.687012
v 0.687420 -0.000006 -1.672911
v 0.914000 -0.034646 -1.369110
v 0.895519 -0.000006 -1.361410
v 0.701560 -0.034646 -1.687012
v 0.950950 -0.034646 -1.384411
v 0.729839 -0.034646 -1.715311
v 0.969430 -0.000006 -1.392012
v 0.729839 0.034634 -1.715311
v 0.950950 0.034634 -1.384411
v 0.701560 0.034634 -1.687012
v 0.914000 0.034634 -1.369110
v 0.895519 -0.000006 -1.361410
v 0.988589 0.034634 -0.994011
v 0.968590 -0.000006 -0.994011
v 0.914000 0.034634 -1.369110
v 1.028600 0.034634 -0.994011
v 0.950950 0.034634 -1.384411
v 1.048590 -0.000006 -0.994011
v 0.950950 -0.034646 -1.384411
v 1.028600 -0.034646 -0.994011
v 0.914000 -0.034646 -1.369110
v 0.988589 -0.034646 -0.994011
v 0.968590 -0.000006 -0.994011
v -0.389400 -0.000006 -0.033211
v -0.712650 0.034634 -0.272810
v -0.712650 -0.034646 -0.272810
v -0.381741 0.034634 -0.051710
v -0.366430 0.034634 -0.088612
v -0.684370 0.034634 -0.301111
v -0.358780 -0.000006 -0.107111
v -0.381741 -0.034646 -0.051710
v -0.366430 -0.034646 -0.088612
v -0.684370 -0.034646 -0.301111
v -0.358780 -0.000006 -0.107111
v 0.008590 0.034634 -0.014011
v -0.366430 0.034634 -0.088612
v -0.381741 0.034634 -0.051710
v 0.008590 0.034634 0.025990
v -0.381741 -0.034646 -0.051710
v 0.008590 -0.034646 0.025990
v 0.008590 -0.034646 -0.014011
v -0.366430 -0.034646 -0.088612
v 0.008590 -0.000006 -0.034010
v 0.008590 -0.034646 -0.014011
v 0.383619 -0.034646 -0.088612
v 0.008590 -0.034646 0.025990
v -0.316401 0.274994 -1.619011
v 0.233600 0.274994 -1.619011
v -0.316401 -0.275006 -1.619011
v 0.233600 -0.275006 -1.619011
v 0.233600 0.274994 -1.369011
v 0.233600 0.274994 -1.619011
v -0.316401 0.274994 -1.369011
v -0.316401 0.274994 -1.619011
v 0.233600 0.274994 -1.619011
v 0.233600 0.274994 -1.369011
v 0.233600 -0.275006 -1.619011
v 0.233600 -0.275006 -1.369011
v 0.233600 0.274994 -1.369011
v -0.316401 0.274994 -1.369011
v 0.233600 -0.275006 -1.369011
v -0.316401 -0.275006 -1.369011
v -0.316401 -0.275006 -1.369011
v -0.316401 -0.275006 -1.619011
v 0.233600 -0.275006 -1.369011
v 0.233600 -0.275006 -1.619011
v -0.316401 0.274994 -1.369011
v -0.316401 0.274994 -1.619011
v -0.316401 -0.275006 -1.369011
v -0.316401 -0.275006 -1.619011
v -0.141400 0.124994 0.555988
v 0.108600 0.124994 0.555988
v -0.141400 -0.125006 0.555988
v 0.108600 -0.125006 0.555988
v 0.108600 0.124994 0.755989
v 0.108600 0.124994 0.555988
v -0.141400 0.124994 0.755989
v -0.141400 0.124994 0.555988
v 0.108600 0.124994 0.555988
v 0.108600 0.124994 0.755989
v 0.108600 -0.125006 0.555988
v 0.108600 -0.125006 0.755989
v 0.108600 0.124994 0.755989
v -0.141400 0.124994 0.755989
v 0.108600 -0.125006 0.755989
v -0.141400 -0.125006 0.755989
v -0.141400 -0.125006 0.755989
v -0.141400 -0.125006 0.555988
v 0.108600 -0.125006 0.755989
v 0.108600 -0.125006 0.555988
v -0.141400 0.124994 0.755989
v -0.141400 0.124994 0.555988
v -0.141400 -0.125006 0.755989
v -0.141400 -0.125006 0.555988
v 0.233600 0.249994 0.705990
v 0.233600 0.249994 1.205990
v 0.233600 -0.250006 0.705990
v 0.233600 -0.250006 1.205990
v -0.266400 0.249994 1.205990
v 0.233600 0.249994 1.205990
v -0.266400 0.249994 0.705990
v 0.233600 0.249994 0.705990
v 0.233600 0.249994 1.205990
v -0.266400 0.249994 1.205990
v 0.233600 -0.250006 1.205990
v -0.266400 -0.250006 1.205990
v -0.266400 0.249994 1.205990
v -0.266400 0.249994 0.705990
v -0.266400 -0.250006 1.205990
v -0.266400 -0.250006 0.705990
v -0.266400 -0.250006 0.705990
v 0.233600 -0.250006 0.705990
v -0.266400 -0.250006 1.205990
v 0.233600 -0.250006 1.205990
v -0.266400 0.249994 0.705990
v 0.233600 0.249994 0.705990
v -0.266400 -0.250006 0.705990
v 0.233600 -0.250006 0.705990
v 0.483600 0.499994 -1.494011
v 0.483600 0.499994 -0.494011
v 0.483600 -0.500006 -1.494011
v 0.483600 -0.500006 -0.494011
v -0.516400 0.499994 -0.494011
v 0.483600 0.499994 -0.494011
v -0.516400 0.499994 -1.494011
v 0.483600 0.499994 -1.494011
v 0.483600 0.499994 -0.494011
v -0.516400 0.499994 -0.494011
v 0.483600 -0.500006 -0.494011
v -0.516400 -0.500006 -0.494011
v -0.516400 0.499994 -0.494011
v -0.516400 0.499994 -1.494011
v -0.516400 -0.500006 -0.494011
v -0.516400 -0.500006 -1.494011
v -0.516400 -0.500006 -1.494011
v 0.483600 -0.500006 -1.494011
v -0.516400 -0.500006 -0.494011
v 0.483600 -0.500006 -0.494011
v -0.516400 0.499994 -1.494011
v 0.483600 0.499994 -1.494011
v -0.516400 -0.500006 -1.494011
v 0.483600 -0.500006 -1.494011
vn 1.0000 -0.0000 -0.0000
vn -0.0000 1.0000 -0.0000
vn -0.0000 -0.0000 1.0000
vn -1.0000 -0.0000 -0.0000
vn -0.0000 -1.0000 -0.0000
vn -0.0000 -0.0000 -1.0000
vn 0.2041 -0.8401 0.5025
vn 0.3863 -0.0000 0.9224
vn 0.2041 0.8401 0.5025
vn -0.0000 0.8404 0.5420
vn -0.0000 0.8928 -0.4504
vn -0.1736 0.8916 -0.4182
vn -0.3863 -0.0000 -0.9224
vn -0.7071 -0.0000 -0.7071
vn -0.3165 0.8942 -0.3166
vn 0.3844 0.8394 0.3844
vn 0.2042 0.8401 0.5025
vn 0.7071 -0.0000 0.7071
vn 0.3844 -0.8393 0.3844
vn 0.2042 -0.8401 0.5025
vn -0.1736 -0.8916 -0.4182
vn -0.3165 -0.8942 -0.3166
vn -0.4182 -0.8916 -0.1736
vn -0.9224 -0.0000 -0.3863
vn -0.3165 -0.8942 -0.3165
vn 0.5025 -0.8401 0.2042
vn 0.3844 -0.8394 0.3844
vn 0.9224 -0.0000 0.3863
vn 0.3844 0.8393 0.3844
vn 0.5025 0.8401 0.2042
vn -0.3165 0.8942 -0.3165
vn -0.4182 0.8916 -0.1736
vn -0.4504 0.8928 -0.0000
vn 0.5025 0.8401 0.2041
vn 0.5419 0.8404 -0.0000
vn 0.9224 -0.0000 0.3862
vn 0.5025 -0.8401 0.2041
vn 0.5419 -0.8404 -0.0000
vn -0.4504 -0.8928 -0.0000
vn -1.0000 -0.0000 -0.0001
vn -0.1891 -0.7958 -0.5753
vn -0.6063 -0.7952 -0.0000
vn 0.4891 -0.7967 -0.3550
vn 0.4891 -0.7967 0.3550
vn -0.1891 -0.7958 0.5753
vn -0.9821 -0.1886 -0.0000
vn -0.3058 -0.1882 -0.9333
vn 0.7958 -0.1891 -0.5752
vn -0.3059 -0.1882 0.9333
vn -0.7958 0.1891 -0.5752
vn 0.3059 0.1882 -0.9333
vn 0.3058 0.1882 0.9333
vn -0.7958 0.1891 0.5752
vn -0.4891 0.7967 -0.3550
vn 0.1891 0.7958 -0.5752
vn 0.6063 0.7952 -0.0000
vn 0.1891 0.7958 0.5753
vn -0.4891 0.7967 0.3550
vn 0.7958 -0.1891 0.5753
vn 0.9821 0.1886 -0.0000
vn -0.5025 0.8401 0.2041
vn -0.5419 0.8404 -0.0000
vn 0.4504 0.8928 -0.0000
vn 0.4182 0.8916 -0.1736
vn 0.9224 -0.0000 -0.3863
vn 1.0000 -0.0000 -0.0001
vn -0.9224 -0.0000 0.3862
vn 0.7071 -0.0000 -0.7071
vn 0.3166 0.8942 -0.3165
vn -0.3844 0.8394 0.3844
vn -0.9224 -0.0000 0.3863
vn -0.7071 -0.0000 0.7071
vn -0.3844 -0.8394 0.3844
vn -0.5025 -0.8401 0.2041
vn 0.4182 -0.8916 -0.1736
vn 0.3166 -0.8942 -0.3165
vn 0.9224 -0.0000 -0.3862
vn -0.5419 -0.8404 -0.0000
vn 0.4504 -0.8928 -0.0000
vn 0.4182 -0.8916 0.1736
vn -0.5025 -0.8401 -0.2041
vn -0.5420 -0.8404 -0.0000
vn -0.5025 0.8401 -0.2041
vn 0.4182 0.8916 0.1736
vn 0.3166 0.8942 0.3165
vn -0.3844 0.8393 -0.3843
vn -0.5025 0.8401 -0.2042
vn -0.3844 -0.8394 -0.3844
vn -0.5025 -0.8401 -0.2042
vn 0.3166 -0.8942 0.3165
vn 0.1736 -0.8916 0.4182
vn 0.3165 -0.8942 0.3165
vn 0.3862 -0.0000 0.9224
vn -0.2042 -0.8401 -0.5025
vn -0.3843 -0.8394 -0.3844
vn -0.3843 0.8394 -0.3844
vn -0.2042 0.8401 -0.5025
vn 0.3165 0.8942 0.3165
vn 0.1736 0.8916 0.4182
vn -0.0000 0.8928 0.4504
vn 0.1735 0.8916 0.4182
vn -0.2041 0.8401 -0.5025
vn -0.0000 0.8404 -0.5420
vn -0.3862 -0.0000 -0.9224
vn -0.2041 -0.8401 -0.5025
vn -0.0000 -0.8404 -0.5419
vn -0.0000 -0.8928 0.4504
vn 0.1735 -0.8916 0.4182
vn -0.3863 -0.0000 0.9224
vn -0.1736 -0.8916 0.4182
vn 0.2041 -0.8401 -0.5025
vn 0.3862 -0.0000 -0.9224
vn 0.2041 0.8401 -0.5025
vn -0.0000 0.8404 -0.5419
vn -0.1736 0.8916 0.4182
vn -0.3862 -0.0000 0.9224
vn -0.3165 0.8942 0.3166
vn 0.3844 0.8393 -0.3844
vn 0.2042 0.8401 -0.5025
vn 0.3863 -0.0000 -0.9224
vn 0.3844 -0.8394 -0.3844
vn 0.2042 -0.8401 -0.5025
vn -0.3165 -0.8942 0.3166
vn -0.4182 -0.8916 0.1736
vn -0.3166 -0.8942 0.3165
vn 0.5025 -0.8401 -0.2042
vn 0.3844 -0.8394 -0.3843
vn 0.3844 0.8394 -0.3843
vn 0.5025 0.8401 -0.2042
vn -0.3166 0.8942 0.3165
vn -0.4182 0.8916 0.1736
vn 0.5420 0.8404 -0.0000
vn 0.5025 0.8401 -0.2041
vn 0.5025 -0.8401 -0.2041
vn -0.3844 0.8393 0.3844
vn -0.2042 0.8401 0.5025
vn 0.1736 0.8916 -0.4182
vn 0.3165 0.8942 -0.3166
vn -0.2042 -0.8401 0.5025
vn 0.1736 -0.8916 -0.4182
vn 0.3165 -0.8942 -0.3166
vn -0.2041 0.8401 0.5025
vn -0.0000 0.8404 0.5419
vn -0.2041 -0.8401 0.5025
vn -0.0000 -0.8404 0.5419
vn -0.0000 -0.8928 -0.4504
vn 0.0001 -0.0000 1.0000
vn 0.3843 0.8394 0.3844
vn 0.7071 -0.0000 0.7072
vn 0.3843 -0.8393 0.3844
vn 0.3844 -0.8394 0.3843
vn 0.3844 0.8393 0.3843
vn -0.9224 -0.0000 -0.3862
vn -0.4182 0.8916 -0.1735
vn 0.5420 -0.8404 -0.0000
vn -0.4182 -0.8916 -0.1735
vn -0.1891 -0.7958 -0.5752
vn -0.6064 -0.7952 -0.0000
vn -0.1891 -0.7958 0.5752
vn -0.9821 -0.1885 -0.0000
vn -0.3059 -0.1882 -0.9333
vn 0.3059 0.1882 0.9333
vn 0.1891 0.7958 0.5752
vn 0.7958 -0.1891 0.5752
vn 0.9821 0.1885 -0.0000
vn -0.5420 0.8404 -0.0000
vn -0.5025 0.8401 0.2042
vn 0.3165 -0.8942 -0.3165
vn -0.3844 -0.8394 -0.3843
vn 0.3165 -0.8942 0.3166
vn -0.3844 -0.8393 -0.3844
vn -0.3844 0.8394 -0.3844
vn 0.3165 0.8942 0.3166
vn -0.0001 -0.0000 -1.0000
vn -0.1735 -0.8916 0.4182
vn -0.0000 -0.8404 -0.5420
vn 0.0001 -0.0000 -1.0000
vn -0.1735 0.8916 0.4182
vn -0.3165 0.8942 0.3165
vn 0.3844 0.8394 -0.3844
vn -0.3165 -0.8942 0.3165
vn -0.4182 0.8916 0.1735
vn -0.4182 -0.8916 0.1735
vn -0.3843 0.8393 0.3844
vn -0.7071 -0.0000 0.7072
vn 0.1735 0.8916 -0.4182
vn -0.0000 -0.8404 0.5420
vn 0.1735 -0.8916 -0.4182
vt 0.394591 1.119230
vt 0.294591 1.119230
vt 0.394591 0.619228
vt 0.294591 0.619228
vt 0.594591 1.119230
vt 0.594591 1.019230
vt 0.294591 1.019230
vt 0.594591 0.619228
vt 0.750000 0.500000
vt 0.812500 0.333333
vt 0.812500 0.500000
vt 0.812500 0.666667
vt 0.750000 0.666667
vt 0.750000 0.833333
vt 0.812500 0.833333
vt 0.812500 1.000000
vt 0.750000 1.000000
vt 0.875000 1.000000
vt 0.875000 0.833333
vt 0.875000 0.666667
vt 0.875000 0.500000
vt 0.875000 0.333333
vt 0.812500 0.166667
vt 0.875000 0.166667
vt 0.875000 0.000000
vt 0.812500 0.000000
vt 0.937500 0.166667
vt 0.937500 0.000000
vt 0.937500 0.333333
vt 0.937500 0.500000
vt 0.937500 0.666667
vt 0.937500 0.833333
vt 0.937500 1.000000
vt 1.000000 0.833333
vt 1.000000 1.000000
vt 1.000000 0.666667
vt 1.000000 0.500000
vt 1.000000 0.333333
vt 1.000000 0.166667
vt 1.000000 0.000000
vt 0.818181 0.000000
vt 0.727272 0.157461
vt 0.909090 0.157461
vt 0.636363 0.000000
vt 0.545454 0.157461
vt 0.090909 0.000000
vt 0.000000 0.157461
vt 0.181818 0.157461
vt 0.272727 0.000000
vt 0.363636 0.157461
vt 0.454545 0.000000
vt 0.636363 0.314921
vt 0.818181 0.314921
vt 0.090909 0.314921
vt 0.454545 0.314921
vt 1.000000 0.314921
vt 0.272727 0.314921
vt 0.727272 0.472382
vt 0.909090 0.472382
vt 0.181818 0.472382
vt 0.363636 0.472382
vt 0.545454 0.472382
vt 0.562500 0.666667
vt 0.500000 0.666667
vt 0.500000 0.500000
vt 0.500000 0.833333
vt 0.562500 0.833333
vt 0.562500 1.000000
vt 0.500000 1.000000
vt 0.562500 0.500000
vt 0.625000 1.000000
vt 0.625000 0.833333
vt 0.625000 0.666667
vt 0.625000 0.500000
vt 0.625000 0.333333
vt 0.562500 0.333333
vt 0.562500 0.166667
vt 0.625000 0.166667
vt 0.625000 0.000000
vt 0.562500 0.000000
vt 0.500000 0.333333
vt 0.500000 0.166667
vt 0.500000 0.000000
vt 0.437500 0.000000
vt 0.437500 0.166667
vt 0.437500 0.333333
vt 0.437500 0.500000
vt 0.437500 0.666667
vt 0.437500 0.833333
vt 0.437500 1.000000
vt 0.375000 1.000000
vt 0.375000 0.833333
vt 0.375000 0.666667
vt 0.375000 0.500000
vt 0.375000 0.333333
vt 0.375000 0.166667
vt 0.375000 0.000000
vt 0.312500 0.166667
vt 0.312500 0.000000
vt 0.312500 0.333333
vt 0.312500 0.500000
vt 0.312500 0.666667
vt 0.312500 0.833333
vt 0.312500 1.000000
vt 0.250000 1.000000
vt 0.250000 0.833333
vt 0.250000 0.666667
vt 0.250000 0.500000
vt 0.250000 0.333333
vt 0.250000 0.166667
vt 0.250000 0.000000
vt 0.187500 0.000000
vt 0.187500 0.166667
vt 0.187500 0.333333
vt 0.187500 0.500000
vt 0.187500 0.666667
vt 0.187500 0.833333
vt 0.187500 1.000000
vt 0.125000 1.000000
vt 0.125000 0.833333
vt 0.125000 0.666667
vt 0.125000 0.500000
vt 0.125000 0.333333
vt 0.125000 0.166667
vt 0.125000 0.000000
vt 0.062500 0.166667
vt 0.062500 0.000000
vt 0.062500 0.333333
vt 0.062500 0.500000
vt 0.062500 0.666667
vt 0.062500 0.833333
vt 0.062500 1.000000
vt 0.000000 0.833333
vt 0.000000 1.000000
vt 0.000000 0.666667
vt 0.000000 0.500000
vt 0.000000 0.333333
vt 0.000000 0.166667
vt 0.000000 0.000000
vt 0.687500 0.500000
vt 0.687500 0.666667
vt 0.687500 0.833333
vt 0.687500 1.000000
vt 0.687500 0.333333
vt 0.687500 0.166667
vt 0.687500 0.000000
vt 0.750000 0.333333
vt 0.750000 0.166667
vt 0.750000 0.000000
vt 0.961851 0.675097
vt 0.411851 0.675097
vt 0.961851 0.125097
vt 0.411851 0.125097
vt 0.661851 0.675097
vt 0.661851 0.125097
vt 0.125079 0.911885
vt -0.124921 0.911885
vt 0.125079 0.661885
vt -0.124921 0.661885
vt 0.075079 0.911885
vt 0.075079 0.661885
vt 0.213725 1.747180
vt -0.286275 1.747180
vt 0.213725 1.247180
vt -0.286275 1.247180
vt 1.079460 -0.462833
vt 0.079455 -0.462833
vt 1.079460 -1.462830
vt 0.079455 -1.462830
s 1
usemtl Handle1Mtl.031
f 1/1/1 2/2/1 3/3/1
f 3/3/1 2/2/1 4/4/1
f 5/5/2 6/2/2 7/6/2
f 7/6/2 6/2/2 8/7/2
f 9/5/3 10/2/3 11/8/3
f 11/8/3 10/2/3 12/4/3
f 13/1/4 14/2/4 15/3/4
f 15/3/4 14/2/4 16/4/4
f 17/5/5 18/2/5 19/6/5
f 19/6/5 18/2/5 20/7/5
f 21/5/6 22/2/6 23/8/6
f 23/8/6 22/2/6 24/4/6
usemtl Basedecor1Mtl
f 25/9/3 26/10/7 27/11/8
f 25/9/3 27/11/8 28/12/9
f 25/9/3 28/12/9 29/13/10
f 28/12/9 30/14/11 29/13/10
f 30/14/11 28/12/9 31/15/12
f 32/16/13 30/14/11 31/15/12
f 30/14/11 32/16/13 33/17/6
f 34/15/12 35/18/14 32/16/13
f 34/15/12 36/19/15 35/18/14
f 34/15/12 37/20/16 36/19/15
f 37/20/16 34/15/12 38/12/17
f 27/11/8 37/20/16 38/12/17
f 27/11/8 39/21/18 37/20/16
f 27/11/8 40/22/19 39/21/18
f 40/22/19 27/11/8 41/10/20
f 40/22/19 41/10/20 42/23/21
f 42/23/21 43/24/22 40/22/19
f 42/23/21 44/25/14 43/24/22
f 44/25/14 42/23/21 45/26/13
f 46/27/23 44/25/14 47/28/24
f 46/27/23 48/24/25 44/25/14
f 49/29/26 48/24/25 46/27/23
f 49/29/26 50/22/27 48/24/25
f 51/30/28 50/22/27 49/29/26
f 51/30/28 39/21/18 50/22/27
f 51/30/28 52/20/29 39/21/18
f 52/20/29 51/30/28 53/31/30
f 53/31/30 54/19/31 52/20/29
f 54/19/31 53/31/30 55/32/32
f 55/32/32 35/18/14 54/19/31
f 35/18/14 55/32/32 56/33/24
f 56/33/24 57/34/33 58/35/4
f 57/34/33 56/33/24 59/32/32
f 60/31/34 57/34/33 59/32/32
f 57/34/33 60/31/34 61/36/35
f 60/31/34 62/37/1 61/36/35
f 62/37/1 60/31/34 51/30/36
f 63/29/37 62/37/1 51/30/36
f 62/37/1 63/29/37 64/38/38
f 63/29/37 65/39/39 64/38/38
f 65/39/39 63/29/37 66/27/23
f 47/28/24 65/39/39 66/27/23
f 65/39/39 47/28/24 67/40/40
f 68/41/41 69/42/41 70/43/41
f 71/42/42 72/44/42 73/45/42
f 74/46/43 75/47/43 76/48/43
f 77/49/44 78/48/44 79/50/44
f 80/51/45 81/50/45 82/45/45
f 83/42/46 84/45/46 85/52/46
f 86/43/47 87/42/47 88/53/47
f 89/48/48 90/47/48 91/54/48
f 92/45/49 93/50/49 94/55/49
f 95/42/50 96/52/50 97/53/50
f 98/43/51 99/53/51 100/56/51
f 101/50/52 102/57/52 103/55/52
f 104/45/53 105/55/53 106/52/53
f 107/53/54 108/52/54 109/58/54
f 110/56/55 111/53/55 112/59/55
f 113/57/56 114/54/56 115/60/56
f 116/55/57 117/57/57 118/61/57
f 119/52/58 120/55/58 121/62/58
f 122/50/59 123/48/59 124/57/59
f 125/48/60 126/54/60 127/57/60
f 128/63/61 129/64/62 130/65/4
f 128/63/61 131/66/63 129/64/62
f 131/66/63 128/63/61 132/67/64
f 131/66/63 132/67/64 133/68/65
f 133/68/65 134/69/66 131/66/63
f 130/65/4 135/70/67 128/63/61
f 136/71/68 133/68/65 137/67/64
f 137/67/64 138/72/69 136/71/68
f 137/67/64 139/73/70 138/72/69
f 139/73/70 137/67/64 140/63/61
f 139/73/70 140/63/61 135/70/71
f 135/70/71 141/74/72 139/73/70
f 135/70/71 142/75/73 141/74/72
f 142/75/73 135/70/71 143/76/74
f 142/75/73 143/76/74 144/77/75
f 142/75/73 144/77/75 145/78/76
f 144/77/75 146/79/68 145/78/76
f 146/79/68 144/77/75 147/80/77
f 130/65/4 148/76/74 135/70/67
f 148/76/74 130/65/4 149/81/78
f 148/76/74 149/81/78 150/82/79
f 148/76/74 150/82/79 151/77/75
f 150/82/79 147/80/65 151/77/75
f 147/80/65 150/82/79 152/83/1
f 153/84/28 152/83/1 154/82/79
f 154/82/79 155/85/80 153/84/28
f 154/82/79 156/86/81 155/85/80
f 156/86/81 154/82/79 157/81/82
f 156/86/81 157/81/82 130/65/40
f 130/65/40 158/87/24 156/86/81
f 130/65/40 159/88/83 158/87/24
f 159/88/83 130/65/40 160/64/62
f 159/88/83 160/64/62 161/66/63
f 161/66/63 162/89/84 159/88/83
f 161/66/63 163/90/28 162/89/84
f 163/90/28 161/66/63 134/69/1
f 164/91/18 165/89/84 163/90/28
f 165/89/84 164/91/18 166/92/85
f 167/93/86 165/89/84 166/92/85
f 165/89/84 167/93/86 168/88/87
f 167/93/86 158/87/24 168/88/87
f 158/87/24 167/93/86 169/94/14
f 158/87/24 169/94/14 170/95/88
f 170/95/88 171/86/89 158/87/24
f 170/95/88 172/85/80 171/86/89
f 172/85/80 170/95/88 173/96/90
f 172/85/80 173/96/90 174/97/18
f 174/97/18 153/84/28 172/85/80
f 175/98/91 174/97/18 176/96/92
f 174/97/18 175/98/91 177/99/93
f 176/96/92 178/100/94 175/98/91
f 178/100/94 176/96/92 179/95/95
f 179/95/95 180/101/13 178/100/94
f 180/101/13 179/95/95 169/94/14
f 180/101/13 169/94/14 181/93/96
f 181/93/96 182/102/97 180/101/13
f 183/92/98 182/102/97 181/93/96
f 182/102/97 183/92/98 184/103/99
f 184/103/99 183/92/98 164/91/18
f 164/91/18 185/104/8 184/103/99
f 185/104/8 186/105/3 187/106/100
f 185/104/8 187/106/100 188/103/101
f 187/106/100 189/102/102 188/103/101
f 189/102/102 187/106/100 190/107/103
f 189/102/102 190/107/103 191/108/6
f 189/102/102 191/108/6 180/101/104
f 191/108/6 192/100/105 180/101/104
f 192/100/105 191/108/6 193/109/106
f 192/100/105 193/109/106 194/110/107
f 192/100/105 194/110/107 195/98/108
f 194/110/107 177/99/8 195/98/108
f 177/99/8 194/110/107 196/111/3
f 197/110/107 198/112/109 196/111/3
f 197/110/107 199/113/110 198/112/109
f 197/110/107 200/114/111 199/113/110
f 200/114/111 197/110/107 201/109/106
f 191/108/6 200/114/111 201/109/106
f 191/108/6 202/115/112 200/114/111
f 191/108/6 203/116/113 202/115/112
f 203/116/113 191/108/6 204/107/114
f 203/116/113 204/107/114 205/106/100
f 205/106/100 206/117/115 203/116/113
f 205/106/100 207/118/116 206/117/115
f 207/118/116 205/106/100 186/105/3
f 208/119/72 209/117/115 207/118/116
f 209/117/115 208/119/72 210/120/117
f 209/117/115 210/120/117 211/121/118
f 211/121/118 212/116/119 209/117/115
f 211/121/118 202/115/120 212/116/119
f 202/115/120 211/121/118 213/122/68
f 202/115/120 213/122/68 214/123/121
f 202/115/120 214/123/121 215/114/122
f 214/123/121 216/113/110 215/114/122
f 216/113/110 214/123/121 217/124/123
f 216/113/110 217/124/123 218/125/72
f 216/113/110 218/125/72 198/112/109
f 218/125/72 219/126/124 220/127/71
f 219/126/124 218/125/72 221/124/125
f 221/124/125 222/128/126 219/126/124
f 222/128/126 221/124/125 223/123/127
f 223/123/127 224/129/65 222/128/126
f 224/129/65 223/123/127 213/122/68
f 225/121/128 224/129/65 213/122/68
f 224/129/65 225/121/128 226/130/129
f 226/130/129 225/121/128 227/120/130
f 227/120/130 228/131/131 226/130/129
f 208/119/72 228/131/131 227/120/130
f 228/131/131 208/119/72 229/132/71
f 230/133/33 229/132/71 231/134/4
f 229/132/71 230/133/33 232/131/131
f 233/135/132 232/131/131 230/133/33
f 232/131/131 233/135/132 234/130/133
f 235/136/66 234/130/133 233/135/132
f 234/130/133 235/136/66 224/129/65
f 235/136/66 236/128/134 224/129/65
f 236/128/134 235/136/66 237/137/38
f 237/137/38 238/126/124 236/128/134
f 238/126/124 237/137/38 239/138/39
f 239/138/39 220/127/71 238/126/124
f 220/127/71 239/138/39 240/139/4
f 241/140/109 242/73/135 141/74/72
f 243/75/73 241/140/109 141/74/72
f 242/73/135 241/140/109 244/141/136
f 245/142/137 242/73/135 244/141/136
f 242/73/135 245/142/137 246/72/138
f 245/142/137 136/71/68 246/72/138
f 136/71/68 245/142/137 247/143/120
f 243/75/73 248/144/139 241/140/109
f 243/75/73 249/145/140 248/144/139
f 249/145/140 243/75/73 250/78/141
f 146/79/68 249/145/140 250/78/141
f 146/79/68 251/146/120 249/145/140
f 247/143/112 252/14/11 33/17/6
f 252/14/11 247/143/112 253/142/137
f 254/141/142 252/14/11 253/142/137
f 252/14/11 254/141/142 255/13/143
f 254/141/142 25/9/3 255/13/143
f 25/9/3 254/141/142 241/140/109
f 256/144/144 25/9/3 241/140/109
f 256/144/144 257/147/145 25/9/3
f 256/144/144 258/148/146 257/147/145
f 258/148/146 256/144/144 259/145/140
f 251/146/120 258/148/146 259/145/140
f 251/146/120 260/149/6 258/148/146
f 45/26/13 261/148/146 260/149/6
f 261/148/146 45/26/13 262/23/21
f 261/148/146 262/23/21 26/10/7
f 26/10/7 263/147/145 261/148/146
f 26/10/7 25/9/3 263/147/145
f 527/156/6 528/157/6 529/158/6
f 529/158/6 528/157/6 530/159/6
f 531/160/2 532/157/2 533/161/2
f 533/161/2 532/157/2 534/159/2
f 535/160/1 536/157/1 537/161/1
f 537/161/1 536/157/1 538/159/1
f 539/156/3 540/157/3 541/158/3
f 541/158/3 540/157/3 542/159/3
f 543/160/5 544/157/5 545/161/5
f 545/161/5 544/157/5 546/159/5
f 547/160/4 548/157/4 549/161/4
f 549/161/4 548/157/4 550/159/4
f 551/162/1 552/163/1 553/164/1
f 553/164/1 552/163/1 554/165/1
f 555/162/2 556/163/2 557/164/2
f 557/164/2 556/163/2 558/165/2
f 559/162/3 560/163/3 561/164/3
f 561/164/3 560/163/3 562/165/3
f 563/162/4 564/163/4 565/164/4
f 565/164/4 564/163/4 566/165/4
f 567/162/5 568/163/5 569/164/5
f 569/164/5 568/163/5 570/165/5
f 571/162/6 572/163/6 573/164/6
f 573/164/6 572/163/6 574/165/6
usemtl Remotedecor1Mtl
f 264/9/147 265/10/7 266/11/93
f 264/9/147 266/11/93 267/12/9
f 264/9/147 267/12/9 268/13/143
f 267/12/9 269/14/11 268/13/143
f 269/14/11 267/12/9 270/15/12
f 271/16/13 269/14/11 270/15/12
f 269/14/11 271/16/13 272/17/6
f 273/15/12 274/18/14 271/16/13
f 273/15/12 275/19/15 274/18/14
f 273/15/12 276/20/148 275/19/15
f 276/20/148 273/15/12 277/12/9
f 266/11/8 276/20/148 277/12/9
f 266/11/8 278/21/149 276/20/148
f 266/11/8 279/22/150 278/21/149
f 279/22/150 266/11/8 280/10/7
f 279/22/150 280/10/7 281/23/21
f 281/23/21 282/24/22 279/22/150
f 281/23/21 283/25/14 282/24/22
f 283/25/14 281/23/21 284/26/13
f 285/27/23 283/25/14 286/28/24
f 285/27/23 287/24/25 283/25/14
f 288/29/26 287/24/25 285/27/23
f 288/29/26 289/22/151 287/24/25
f 290/30/28 289/22/151 288/29/26
f 290/30/28 278/21/18 289/22/151
f 290/30/28 291/20/152 278/21/18
f 291/20/152 290/30/28 292/31/30
f 292/31/30 293/19/31 291/20/152
f 293/19/31 292/31/30 294/32/32
f 294/32/32 274/18/14 293/19/31
f 274/18/14 294/32/32 295/33/153
f 295/33/153 296/34/33 297/35/4
f 296/34/33 295/33/153 298/32/154
f 299/31/34 296/34/33 298/32/154
f 296/34/33 299/31/34 300/36/35
f 299/31/34 301/37/1 300/36/35
f 301/37/1 299/31/34 290/30/36
f 302/29/37 301/37/1 290/30/36
f 301/37/1 302/29/37 303/38/155
f 302/29/37 304/39/39 303/38/155
f 304/39/39 302/29/37 305/27/156
f 286/28/24 304/39/39 305/27/156
f 304/39/39 286/28/24 306/40/4
f 307/41/157 308/42/157 309/43/157
f 310/42/158 311/44/158 312/45/158
f 313/46/43 314/47/43 315/48/43
f 316/49/44 317/48/44 318/50/44
f 319/51/159 320/50/159 321/45/159
f 322/42/160 323/45/160 324/52/160
f 325/43/161 326/42/161 327/53/161
f 328/48/48 329/47/48 330/54/48
f 331/45/49 332/50/49 333/55/49
f 334/42/50 335/52/50 336/53/50
f 337/43/51 338/53/51 339/56/51
f 340/50/162 341/57/162 342/55/162
f 343/45/53 344/55/53 345/52/53
f 346/53/54 347/52/54 348/58/54
f 349/56/55 350/53/55 351/59/55
f 352/57/56 353/54/56 354/60/56
f 355/55/163 356/57/163 357/61/163
f 358/52/58 359/55/58 360/62/58
f 361/50/164 362/48/164 363/57/164
f 364/48/165 365/54/165 366/57/165
f 367/63/61 368/64/166 369/65/4
f 367/63/61 370/66/63 368/64/166
f 370/66/63 367/63/61 371/67/64
f 370/66/63 371/67/64 372/68/65
f 372/68/65 373/69/66 370/66/63
f 369/65/4 374/70/67 367/63/61
f 375/71/68 372/68/65 376/67/64
f 376/67/64 377/72/69 375/71/68
f 376/67/64 378/73/70 377/72/69
f 378/73/70 376/67/64 379/63/167
f 378/73/70 379/63/167 374/70/71
f 374/70/71 380/74/72 378/73/70
f 374/70/71 381/75/73 380/74/72
f 381/75/73 374/70/71 382/76/74
f 381/75/73 382/76/74 383/77/75
f 381/75/73 383/77/75 384/78/168
f 383/77/75 385/79/68 384/78/168
f 385/79/68 383/77/75 386/80/65
f 369/65/4 387/76/74 374/70/67
f 387/76/74 369/65/4 388/81/78
f 387/76/74 388/81/78 389/82/79
f 387/76/74 389/82/79 390/77/75
f 389/82/79 386/80/77 390/77/75
f 386/80/77 389/82/79 391/83/1
f 392/84/28 391/83/1 393/82/79
f 393/82/79 394/85/80 392/84/28
f 393/82/79 395/86/81 394/85/80
f 395/86/81 393/82/79 396/81/82
f 395/86/81 396/81/82 369/65/4
f 369/65/4 397/87/24 395/86/81
f 369/65/4 398/88/83 397/87/24
f 398/88/83 369/65/4 399/64/62
f 398/88/83 399/64/62 400/66/63
f 400/66/63 401/89/84 398/88/83
f 400/66/63 402/90/28 401/89/84
f 402/90/28 400/66/63 373/69/1
f 403/91/18 404/89/84 402/90/28
f 404/89/84 403/91/18 405/92/98
f 406/93/86 404/89/84 405/92/98
f 404/89/84 406/93/86 407/88/87
f 406/93/86 397/87/24 407/88/87
f 397/87/24 406/93/86 408/94/14
f 397/87/24 408/94/14 409/95/169
f 409/95/169 410/86/89 397/87/24
f 409/95/169 411/85/80 410/86/89
f 411/85/80 409/95/169 412/96/92
f 411/85/80 412/96/92 413/97/18
f 413/97/18 392/84/28 411/85/80
f 414/98/91 413/97/18 415/96/170
f 413/97/18 414/98/91 416/99/93
f 415/96/170 417/100/94 414/98/91
f 417/100/94 415/96/170 418/95/171
f 418/95/171 419/101/13 417/100/94
f 419/101/13 418/95/171 408/94/14
f 419/101/13 408/94/14 420/93/172
f 420/93/172 421/102/97 419/101/13
f 422/92/173 421/102/97 420/93/172
f 421/102/97 422/92/173 423/103/99
f 423/103/99 422/92/173 403/91/18
f 403/91/18 424/104/8 423/103/99
f 424/104/8 425/105/3 426/106/100
f 424/104/8 426/106/100 427/103/101
f 426/106/100 428/102/102 427/103/101
f 428/102/102 426/106/100 429/107/103
f 428/102/102 429/107/103 430/108/174
f 428/102/102 430/108/174 419/101/13
f 430/108/174 431/100/105 419/101/13
f 431/100/105 430/108/174 432/109/106
f 431/100/105 432/109/106 433/110/107
f 431/100/105 433/110/107 434/98/91
f 433/110/107 416/99/8 434/98/91
f 416/99/8 433/110/107 435/111/3
f 436/110/107 437/112/109 435/111/3
f 436/110/107 438/113/175 437/112/109
f 436/110/107 439/114/111 438/113/175
f 439/114/111 436/110/107 440/109/176
f 430/108/177 439/114/111 440/109/176
f 430/108/177 441/115/120 439/114/111
f 430/108/177 442/116/113 441/115/120
f 442/116/113 430/108/177 443/107/114
f 442/116/113 443/107/114 444/106/100
f 444/106/100 445/117/178 442/116/113
f 444/106/100 446/118/116 445/117/178
f 446/118/116 444/106/100 425/105/3
f 447/119/72 448/117/115 446/118/109
f 448/117/115 447/119/72 449/120/179
f 448/117/115 449/120/179 450/121/180
f 450/121/180 451/116/119 448/117/115
f 450/121/180 441/115/120 451/116/119
f 441/115/120 450/121/180 452/122/68
f 441/115/120 452/122/68 453/123/121
f 441/115/120 453/123/121 454/114/122
f 453/123/121 455/113/110 454/114/122
f 455/113/110 453/123/121 456/124/181
f 455/113/110 456/124/181 457/125/72
f 455/113/110 457/125/72 437/112/109
f 457/125/72 458/126/124 459/127/67
f 458/126/124 457/125/72 460/124/181
f 460/124/181 461/128/126 458/126/124
f 461/128/126 460/124/181 462/123/121
f 462/123/121 463/129/65 461/128/126
f 463/129/65 462/123/121 452/122/68
f 464/121/180 463/129/65 452/122/68
f 463/129/65 464/121/180 465/130/129
f 465/130/129 464/121/180 466/120/179
f 466/120/179 467/131/131 465/130/129
f 447/119/72 467/131/131 466/120/179
f 467/131/131 447/119/72 468/132/71
f 469/133/33 468/132/71 470/134/4
f 468/132/71 469/133/33 471/131/182
f 472/135/132 471/131/182 469/133/33
f 471/131/182 472/135/132 473/130/133
f 474/136/1 473/130/133 472/135/132
f 473/130/133 474/136/1 463/129/65
f 474/136/1 475/128/134 463/129/65
f 475/128/134 474/136/1 476/137/38
f 476/137/38 477/126/183 475/128/134
f 477/126/183 476/137/38 478/138/39
f 478/138/39 459/127/71 477/126/183
f 459/127/71 478/138/39 479/139/4
f 480/140/109 481/73/184 380/74/185
f 482/75/73 480/140/109 380/74/185
f 481/73/184 480/140/109 483/141/136
f 484/142/137 481/73/184 483/141/136
f 481/73/184 484/142/137 485/72/138
f 484/142/137 375/71/68 485/72/138
f 375/71/68 484/142/137 486/143/120
f 482/75/73 487/144/144 480/140/109
f 482/75/73 488/145/140 487/144/144
f 488/145/140 482/75/73 489/78/141
f 385/79/68 488/145/140 489/78/141
f 385/79/68 490/146/120 488/145/140
f 486/143/120 491/14/11 272/17/6
f 491/14/11 486/143/120 492/142/186
f 493/141/142 491/14/11 492/142/186
f 491/14/11 493/141/142 494/13/143
f 493/141/142 264/9/3 494/13/143
f 264/9/3 493/141/142 480/140/116
f 495/144/144 264/9/3 480/140/116
f 495/144/144 496/147/187 264/9/3
f 495/144/144 497/148/146 496/147/187
f 497/148/146 495/144/144 498/145/188
f 490/146/120 497/148/146 498/145/188
f 490/146/120 499/149/6 497/148/146
f 284/26/13 500/148/146 499/149/6
f 500/148/146 284/26/13 501/23/21
f 500/148/146 501/23/21 265/10/7
f 265/10/7 502/147/145 500/148/146
f 265/10/7 264/9/147 502/147/145
f 503/150/6 504/151/6 505/152/6
f 505/152/6 504/151/6 506/153/6
f 507/154/2 508/151/2 509/155/2
f 509/155/2 508/151/2 510/153/2
f 511/154/1 512/151/1 513/155/1
f 513/155/1 512/151/1 514/153/1
f 515/150/3 516/151/3 517/152/3
f 517/152/3 516/151/3 518/153/3
f 519/154/5 520/151/5 521/155/5
f 521/155/5 520/151/5 522/153/5
f 523/154/4 524/151/4 525/155/4
f 525/155/4 524/151/4 526/153/4
f 575/166/1 576/167/1 577/168/1
f 577/168/1 576/167/1 578/169/1
f 579/166/2 580/167/2 581/168/2
f 581/168/2 580/167/2 582/169/2
f 583/166/3 584/167/3 585/168/3
f 585/168/3 584/167/3 586/169/3
f 587/166/4 588/167/4 589/168/4
f 589/168/4 588/167/4 590/169/4
f 591/166/5 592/167/5 593/168/5
f 593/168/5 592/167/5 594/169/5
f 595/166/6 596/167/6 597/168/6
f 597/168/6 596/167/6 598/169/6
