# Blender 5.1.2
# www.blender.org
mtllib Part.mtl
o Part
v 0.500031 0.499999 -0.425690
v 0.500031 0.499999 0.574310
v 0.500031 -0.499999 -0.425690
v 0.500031 -0.499999 0.574310
v -0.499969 0.499999 0.574310
v 0.500031 0.499999 0.574310
v -0.499969 0.499999 -0.425690
v 0.500031 0.499999 -0.425690
v 0.500031 0.499999 0.574310
v -0.499969 0.499999 0.574310
v 0.500031 -0.499999 0.574310
v -0.499969 -0.499999 0.574310
v -0.499969 0.499999 0.574310
v -0.499969 0.499999 -0.425690
v -0.499969 -0.499999 0.574310
v -0.499969 -0.499999 -0.425690
v -0.499969 -0.499999 -0.425690
v 0.500031 -0.499999 -0.425690
v -0.499969 -0.499999 0.574310
v 0.500031 -0.499999 0.574310
v -0.499969 0.499999 -0.425690
v 0.500031 0.499999 -0.425690
v -0.499969 -0.499999 -0.425690
v 0.500031 -0.499999 -0.425690
v -0.499969 0.499999 -0.445694
v 0.500031 0.499999 -0.445694
v -0.499969 -0.499999 -0.445694
v 0.500031 -0.499999 -0.445694
vn 1.0000 -0.0000 -0.0000
vn -0.0000 1.0000 -0.0000
vn -0.0000 -0.0000 1.0000
vn -1.0000 -0.0000 -0.0000
vn -0.0000 -1.0000 -0.0000
vn -0.0000 -0.0000 -1.0000
vt 6.625000 -0.750000
vt 6.500000 -0.750000
vt 6.625000 -0.875000
vt 6.500000 -0.875000
vt 1.000000 1.000000
vt 0.000000 1.000000
vt 1.000000 0.000000
vt 0.000000 0.000000
s 1
usemtl Handle2Mtl
f 1/1/1 2/2/1 3/3/1
f 3/3/1 2/2/1 4/4/1
f 5/1/2 6/2/2 7/3/2
f 7/3/2 6/2/2 8/4/2
f 9/1/3 10/2/3 11/3/3
f 11/3/3 10/2/3 12/4/3
f 13/1/4 14/2/4 15/3/4
f 15/3/4 14/2/4 16/4/4
f 17/1/5 18/2/5 19/3/5
f 19/3/5 18/2/5 20/4/5
f 21/1/6 22/2/6 23/3/6
f 23/3/6 22/2/6 24/4/6
usemtl Handle3Mtl
f 25/5/6 26/6/6 27/7/6
f 27/7/6 26/6/6 28/8/6
