# Blender 5.1.2
# www.blender.org
mtllib Pie.mtl
o Pie
v 0.190407 0.022562 -0.950891
v 0.068607 -0.430108 -0.801191
v 0.001205 0.022562 -0.969492
v -0.054893 -0.352449 -0.281992
v 0.137409 -0.352448 -0.582092
v 0.203709 -0.352449 -0.326891
v 0.001205 -0.352449 0.000109
v -0.107391 -0.352448 -0.545792
v -0.152691 -0.430108 -0.773891
v -0.187893 0.022562 -0.950891
v -0.367691 -0.430108 -0.714392
v -0.369793 0.022562 -0.895693
v -0.537392 0.022561 -0.806091
v -0.347393 -0.352448 -0.485691
v -0.567894 -0.430108 -0.624891
v -0.684391 0.022561 -0.685492
v -0.310993 -0.352449 -0.224491
v -0.573391 -0.352449 -0.403892
v -0.745792 -0.430108 -0.508991
v -0.804893 0.022561 -0.538591
v -0.894493 0.022561 -0.370993
v -0.776794 -0.430108 -0.303791
v -0.949692 0.022561 -0.189093
v -0.554592 -0.352449 -0.156492
v -0.776592 -0.430108 -0.080692
v -0.968292 0.022561 0.000109
v -0.745892 -0.430108 0.148708
v -0.513393 -0.352449 0.102407
v -0.686493 -0.430108 0.372309
v -0.261093 -0.352449 0.052208
v -0.452393 -0.352449 0.357508
v -0.601292 -0.430108 0.578508
v -0.375092 -0.352449 0.593208
v -0.201191 -0.352449 0.327007
v 0.057308 -0.352449 0.282208
v -0.134995 -0.352449 0.582209
v -0.737892 0.077182 -0.479092
v -0.731991 0.131792 -0.747492
v -0.832794 0.141889 -0.539692
v -0.903091 0.134007 -0.339392
v -0.925392 0.156794 -0.372091
v -0.998093 0.149143 -0.190191
v -0.705791 0.274725 -0.254393
v -0.472893 0.274725 -0.376192
v -0.900494 0.077181 -0.126991
v -0.978794 0.150842 -0.000992
v -0.387993 0.463185 -0.135792
v -0.110191 0.463185 -0.248192
v -0.643692 0.274724 -0.020992
v -0.286194 0.463185 0.109108
v 0.000107 0.569893 -0.000992
v -0.860794 0.077181 0.089209
v -0.982391 0.099968 0.188108
v -0.553894 0.274724 0.212008
v -0.785393 0.077181 0.301008
v -0.942894 0.069203 0.370008
v -0.832794 0.069998 0.537607
v -0.677292 0.077181 0.500208
v -0.708191 0.109246 0.684608
v -0.439892 0.274724 0.435608
v -0.540691 0.077181 0.679108
v -0.567894 0.099968 0.847307
v -0.171593 0.463185 0.349009
v 0.110409 0.463185 0.246109
v -0.305992 0.274724 0.641409
v -0.380795 0.077181 0.831009
v -0.383194 0.122313 0.928207
v -0.195293 0.129376 0.978508
v -0.157394 0.077181 0.821308
v 0.000107 0.099968 0.980108
v -0.048492 0.274724 0.574709
v 0.078308 0.077181 0.777609
v 0.195606 0.059847 0.987709
v 0.216507 0.274724 0.483808
v 0.473206 0.274724 0.374208
v 0.538109 0.077181 0.600908
v 0.314209 0.077181 0.702808
v 0.383507 0.130903 0.894709
v 0.573208 0.099968 0.827208
v 0.833107 0.068140 0.537607
v 0.925606 0.099968 0.370008
v 0.903408 0.077181 0.337309
v 0.982708 0.156997 0.188108
v 0.738106 0.077181 0.477108
v 0.724709 0.143456 0.684608
v 0.900806 0.077181 0.125008
v 1.001907 0.048338 -0.000992
v 0.706108 0.274724 0.252308
v 0.861008 0.077181 -0.091192
v 0.982708 0.099968 -0.190191
v 0.644009 0.274724 0.019009
v 0.388206 0.463185 0.133808
v 0.785706 0.077182 -0.302992
v 0.925606 0.059949 -0.372091
v 0.833107 0.156645 -0.539692
v 0.554207 0.274725 -0.213991
v 0.677608 0.077182 -0.502192
v 0.708508 0.042608 -0.686592
v 0.286507 0.463185 -0.111092
v 0.440208 0.274725 -0.437693
v 0.541008 0.077182 -0.681192
v 0.535309 0.143532 -0.833292
v 0.381008 0.077182 -0.832993
v 0.383507 0.099968 -0.896791
v 0.195606 0.162608 -0.951992
v 0.306309 0.274725 -0.643393
v 0.157707 0.077182 -0.823391
v 0.000107 0.099968 -0.970592
v 0.171806 0.463185 -0.350992
v 0.048809 0.274725 -0.576792
v -0.077991 0.077182 -0.779692
v -0.238991 0.137006 -0.986292
v -0.313992 0.077182 -0.704792
v -0.383194 0.166123 -0.896791
v -0.556393 0.099968 -0.807192
v -0.216194 0.274725 -0.485792
v -0.537891 0.077182 -0.602892
v -0.494194 -0.430108 0.756208
v -0.369793 0.022561 0.895807
v -0.537392 0.022561 0.806208
v -0.684391 0.022561 0.685608
v -0.285393 -0.430108 0.795309
v -0.187893 0.022561 0.951008
v -0.804893 0.022561 0.538708
v -0.066193 -0.430108 0.801308
v 0.001205 0.022561 0.969608
v -0.894493 0.022561 0.371109
v -0.949692 0.022561 0.189209
v 0.155209 -0.430108 0.774008
v 0.190407 0.022561 0.951008
v 0.109806 -0.352449 0.545908
v 0.370106 -0.430108 0.714508
v 0.372208 0.022561 0.895807
v 0.539906 0.022561 0.806208
v 0.570408 -0.430108 0.625008
v 0.686806 0.022561 0.685608
v 0.349808 -0.352449 0.485807
v 0.748306 -0.430108 0.509108
v 0.807407 0.022561 0.538708
v 0.897007 0.022561 0.371109
v 0.575806 -0.352449 0.404108
v 0.779209 -0.430108 0.303907
v 0.952106 -0.029069 0.189209
v 0.313408 -0.352449 0.224607
v 0.557106 -0.352449 0.156708
v 0.779007 -0.430108 0.080809
v 0.970806 0.022561 0.000109
v 0.748306 -0.430108 -0.148592
v 0.952106 0.022561 -0.189093
v 0.515808 -0.352449 -0.102291
v 0.688908 -0.430108 -0.372192
v 0.897007 0.022561 -0.370993
v 0.807407 0.022561 -0.538591
v 0.263607 -0.352449 -0.052092
v 0.454807 -0.352449 -0.357292
v 0.603706 -0.430108 -0.578392
v 0.686806 0.022561 -0.685492
v 0.377506 -0.352448 -0.593092
v 0.496609 -0.430108 -0.756092
v 0.539906 0.022561 -0.806091
v 0.372208 0.022562 -0.895693
v 0.287907 -0.430108 -0.795193
v 0.195606 0.059847 0.987709
v 0.372208 0.022561 0.895807
v 0.383507 0.130903 0.894709
v 0.190407 0.022561 0.951008
v 0.539906 0.022561 0.806208
v 0.000107 0.099968 0.980108
v 0.573208 0.099968 0.827208
v 0.001205 0.022561 0.969608
v 0.686806 0.022561 0.685608
v -0.187893 0.022561 0.951008
v 0.724709 0.143456 0.684608
v -0.195293 0.129376 0.978508
v 0.833107 0.068140 0.537607
v -0.369793 0.022561 0.895807
v 0.807407 0.022561 0.538708
v -0.383194 0.122313 0.928207
v 0.897007 0.022561 0.371109
v -0.537392 0.022561 0.806208
v 0.925606 0.099968 0.370008
v -0.567894 0.099968 0.847307
v 0.952106 -0.029069 0.189209
v -0.684391 0.022561 0.685608
v 0.982708 0.156997 0.188108
v -0.708191 0.109246 0.684608
v 1.001907 0.048338 -0.000992
v -0.832794 0.069998 0.537607
v 0.970806 0.022561 0.000109
v -0.804893 0.022561 0.538708
v 0.982708 0.099968 -0.190191
v -0.894493 0.022561 0.371109
v 0.952106 0.022561 -0.189093
v -0.942894 0.069203 0.370008
v 0.925606 0.059949 -0.372091
v -0.949692 0.022561 0.189209
v 0.897007 0.022561 -0.370993
v -0.982391 0.099968 0.188108
v 0.807407 0.022561 -0.538591
v -0.968292 0.022561 0.000109
v 0.833107 0.156645 -0.539692
v -0.978794 0.150842 -0.000992
v 0.708508 0.042608 -0.686592
v -0.949692 0.022561 -0.189093
v 0.686806 0.022561 -0.685492
v -0.998093 0.149143 -0.190191
v 0.535309 0.143532 -0.833292
v -0.894493 0.022561 -0.370993
v 0.539906 0.022561 -0.806091
v -0.925392 0.156794 -0.372091
v 0.383507 0.099968 -0.896791
v -0.832794 0.141889 -0.539692
v 0.372208 0.022562 -0.895693
v -0.804893 0.022561 -0.538591
v 0.195606 0.162608 -0.951992
v 0.190407 0.022562 -0.950891
v -0.684391 0.022561 -0.685492
v 0.000107 0.099968 -0.970592
v -0.731991 0.131792 -0.747492
v 0.001205 0.022562 -0.969492
v -0.556393 0.099968 -0.807192
v -0.187893 0.022562 -0.950891
v -0.537392 0.022561 -0.806091
v -0.238991 0.137006 -0.986292
v -0.383194 0.166123 -0.896791
v -0.369793 0.022562 -0.895693
vn 0.1572 -0.2672 -0.9507
vn -0.0000 -0.9125 -0.4091
vn 0.0079 -0.3700 -0.9290
vn -0.0000 -1.0000 -0.0000
vn 0.0079 -0.9947 0.1027
vn 0.0158 -0.9954 0.0948
vn -0.0789 -0.9155 -0.3946
vn -0.1571 -0.4635 -0.8720
vn -0.1573 -0.9125 -0.3776
vn -0.3618 -0.4169 -0.8338
vn -0.4407 -0.4171 -0.7949
vn 0.0316 -0.9950 0.0948
vn -0.2441 -0.8897 -0.3858
vn -0.5993 -0.5125 -0.6150
vn 0.1102 -0.9914 0.0708
vn -0.4869 -0.8088 -0.3298
vn -0.7870 -0.3777 -0.4879
vn -0.8512 -0.3940 -0.3468
vn -0.4337 -0.8989 -0.0631
vn -0.8676 -0.4811 -0.1262
vn 0.1026 -0.9947 -0.0079
vn -0.3863 -0.9224 -0.0000
vn -0.8761 -0.4815 0.0237
vn -0.3623 -0.9294 0.0709
vn 0.0948 -0.9954 -0.0158
vn -0.3554 -0.9239 0.1421
vn 0.0948 -0.9950 -0.0316
vn -0.3711 -0.8999 0.2289
vn 0.0708 -0.9914 -0.1102
vn -0.0079 -0.9947 -0.1027
vn -0.0000 0.9955 -0.0948
vn -0.6053 0.4559 -0.6525
vn -0.6293 0.6608 -0.4090
vn 0.1104 0.9934 0.0315
vn -0.6686 0.6843 -0.2910
vn -0.7762 0.6194 -0.1176
vn -0.3154 0.9383 -0.1420
vn -0.2053 0.9236 -0.3237
vn -0.0079 0.9992 0.0393
vn -0.6857 0.7251 0.0631
vn -0.2208 0.9699 -0.1025
vn -0.0944 0.9672 -0.2359
vn -0.3625 0.9298 0.0631
vn -0.2118 0.9728 0.0941
vn -0.0000 1.0000 -0.0000
vn -0.0867 0.9931 0.0788
vn -0.8473 0.5179 0.1177
vn -0.3545 0.9217 0.1576
vn -0.1816 0.9788 0.0947
vn -0.8918 0.3079 0.3315
vn -0.7636 0.3937 0.5117
vn -0.1728 0.9818 0.0786
vn -0.6283 0.5656 0.5341
vn -0.2985 0.9268 0.2278
vn -0.1105 0.9868 0.1184
vn -0.5107 0.4400 0.7386
vn -0.0864 0.9660 0.2435
vn 0.0944 0.9672 0.2359
vn -0.1336 0.9196 0.3695
vn -0.0315 0.9984 0.0472
vn -0.3303 0.5663 0.7551
vn -0.1335 0.6047 0.7852
vn 0.0316 0.9881 0.1502
vn 0.0079 0.5655 0.8247
vn 0.0708 0.9200 0.3854
vn 0.0553 0.9788 0.1974
vn 0.1571 0.4480 0.8801
vn 0.1420 0.9147 0.3785
vn 0.2053 0.9236 0.3237
vn 0.0471 0.9889 0.1413
vn 0.0473 0.9851 0.1655
vn 0.2750 0.6600 0.6992
vn 0.5050 0.5129 0.6942
vn 0.8185 0.3778 0.4328
vn 0.6519 0.6439 0.4005
vn -0.0785 0.9966 0.0236
vn 0.6934 0.7170 0.0710
vn 0.1581 0.9803 0.1186
vn 0.5740 0.6134 0.5425
vn 0.0706 0.9960 -0.0549
vn 0.9221 0.3862 0.0237
vn 0.3451 0.9254 0.1569
vn 0.2125 0.9760 -0.0472
vn 0.8787 0.4315 -0.2041
vn 0.3625 0.9298 -0.0631
vn 0.2208 0.9699 0.1025
vn 0.1655 0.9851 -0.0473
vn 0.8636 0.4004 -0.3062
vn 0.6485 0.6406 -0.4112
vn 0.3545 0.9217 -0.1575
vn 0.1416 0.9838 -0.1102
vn 0.6244 0.4585 -0.6324
vn 0.2119 0.9728 -0.0942
vn 0.2985 0.9268 -0.2278
vn 0.1178 0.9893 -0.0864
vn 0.4339 0.6863 -0.5837
vn 0.0315 0.9990 -0.0315
vn 0.3234 0.6074 -0.7256
vn 0.0942 0.8086 -0.5808
vn 0.1336 0.9196 -0.3695
vn -0.0316 0.9957 -0.0869
vn 0.0473 0.6617 -0.7483
vn 0.0864 0.9660 -0.2435
vn -0.0708 0.9200 -0.3854
vn -0.0237 0.9884 -0.1503
vn -0.2127 0.5672 -0.7956
vn -0.0551 0.9915 -0.1180
vn -0.3215 0.7294 -0.6038
vn -0.4399 0.5734 -0.6912
vn -0.1420 0.9146 -0.3785
vn -0.0706 0.9885 -0.1334
vn -0.3228 -0.8109 0.4881
vn -0.2998 -0.4733 0.8283
vn -0.5013 -0.4543 0.7364
vn -0.6532 -0.4643 0.5981
vn -0.0788 -0.8901 0.4490
vn -0.1341 -0.4494 0.8832
vn -0.6925 -0.5587 0.4564
vn -0.0000 -0.9125 0.4091
vn -0.0079 -0.5121 0.8589
vn -0.6708 -0.6944 0.2604
vn -0.7868 -0.6058 0.1180
vn 0.0789 -0.9155 0.3946
vn 0.1736 -0.5444 0.8207
vn -0.0158 -0.9954 -0.0948
vn 0.1573 -0.9125 0.3776
vn 0.3314 -0.4655 0.8206
vn 0.4571 -0.4412 0.7723
vn 0.2441 -0.8897 0.3858
vn 0.6284 -0.4242 0.6520
vn -0.0316 -0.9950 -0.0948
vn 0.4869 -0.8088 0.3298
vn 0.7588 -0.3793 0.5295
vn 0.8345 -0.4408 0.3307
vn -0.1102 -0.9914 -0.0708
vn 0.4175 -0.9059 0.0709
vn 0.8634 -0.4866 0.1334
vn -0.1026 -0.9947 0.0079
vn 0.3700 -0.9289 -0.0158
vn 0.7951 -0.6061 -0.0236
vn 0.3623 -0.9293 -0.0709
vn 0.7329 -0.6619 -0.1576
vn -0.0948 -0.9954 0.0158
vn 0.3553 -0.9239 -0.1421
vn 0.7537 -0.5730 -0.3219
vn 0.7485 -0.4805 -0.4570
vn -0.0948 -0.9950 0.0316
vn 0.3710 -0.9000 -0.2289
vn 0.6493 -0.3959 -0.6493
vn -0.0708 -0.9914 0.1102
vn 0.3228 -0.8109 -0.4881
vn 0.5197 -0.2913 -0.8031
vn 0.3389 -0.2522 -0.9064
vn 0.0788 -0.8901 -0.4490
vn 0.1571 0.4479 0.8802
vn 0.1736 -0.5445 0.8206
vn 0.4571 -0.4413 0.7723
vn 0.5049 0.5129 0.6943
vn 0.6285 -0.4242 0.6520
vn 0.5740 0.6133 0.5425
vn -0.1336 0.6047 0.7852
vn 0.8185 0.3778 0.4329
vn 0.7587 -0.3794 0.5295
vn -0.3304 0.5663 0.7551
vn 0.6518 0.6440 0.4006
vn -0.5108 0.4400 0.7386
vn 0.6934 0.7171 0.0708
vn -0.6284 0.5656 0.5341
vn -0.7637 0.3937 0.5117
vn 0.7950 -0.6061 -0.0237
vn 0.8787 0.4315 -0.2040
vn 0.7328 -0.6619 -0.1576
vn -0.8918 0.3078 0.3315
vn 0.8636 0.4005 -0.3062
vn 0.7537 -0.5731 -0.3219
vn -0.8473 0.5178 0.1177
vn 0.7485 -0.4806 -0.4570
vn -0.8762 -0.4815 0.0237
vn -0.6857 0.7251 0.0630
vn 0.6245 0.4585 -0.6323
vn 0.4338 0.6863 -0.5838
vn 0.5197 -0.2913 -0.8032
vn -0.6685 0.6843 -0.2911
vn -0.7869 -0.3777 -0.4879
vn 0.0942 0.8085 -0.5809
vn 0.1572 -0.2671 -0.9508
vn -0.4398 0.5734 -0.6912
vn -0.1571 -0.4635 -0.8721
vn -0.4408 -0.4171 -0.7949
vn -0.3215 0.7294 -0.6039
vn -0.3619 -0.4169 -0.8338
vt 0.028743 0.947261
vt 0.042854 0.936502
vt 0.024595 0.937497
vt 0.067705 0.924148
vt 0.055311 0.936514
vt 0.069188 0.936199
vt 0.082865 0.923060
vt 0.053497 0.925164
vt 0.040784 0.926071
vt 0.022696 0.927361
vt 0.040897 0.915486
vt 0.022696 0.917090
vt 0.024984 0.906867
vt 0.053184 0.913709
vt 0.043056 0.905485
vt 0.029529 0.897223
vt 0.066929 0.912051
vt 0.054236 0.902876
vt 0.046799 0.896948
vt 0.036337 0.888588
vt 0.045048 0.881424
vt 0.055751 0.892583
vt 0.055156 0.875936
vt 0.066756 0.900377
vt 0.067000 0.889185
vt 0.066300 0.872257
vt 0.079493 0.887366
vt 0.080572 0.898780
vt 0.092159 0.887362
vt 0.081700 0.910712
vt 0.094502 0.898368
vt 0.103893 0.889095
vt 0.107323 0.899032
vt 0.096523 0.909911
vt 0.098026 0.921962
vt 0.110397 0.909569
vt 0.934914 0.412159
vt 0.987895 0.290777
vt 0.992187 0.404876
vt 0.981515 0.512698
vt 0.999900 0.501546
vt 0.999900 0.602614
vt 0.865328 0.513739
vt 0.787075 0.413188
vt 0.940859 0.613967
vt 0.959023 0.686942
vt 0.696364 0.507350
vt 0.597196 0.407986
vt 0.796007 0.608620
vt 0.608501 0.595024
vt 0.502919 0.495699
vt 0.884496 0.705864
vt 0.921748 0.774669
vt 0.713451 0.696265
vt 0.809467 0.788731
vt 0.868431 0.850794
vt 0.785759 0.906524
vt 0.721671 0.859408
vt 0.699749 0.950332
vt 0.620360 0.773942
vt 0.623918 0.914354
vt 0.603255 0.996896
vt 0.514509 0.677525
vt 0.408879 0.583757
vt 0.520816 0.837683
vt 0.519414 0.952169
vt 0.501800 0.999778
vt 0.405039 0.989111
vt 0.415835 0.908176
vt 0.314187 0.953663
vt 0.415409 0.765095
vt 0.314340 0.845718
vt 0.221945 0.921404
vt 0.312331 0.677181
vt 0.218107 0.580250
vt 0.135231 0.678322
vt 0.219132 0.767663
vt 0.149951 0.843733
vt 0.076141 0.775848
vt 0.011190 0.590684
vt 0.000100 0.494111
vt 0.018292 0.483145
vt 0.000420 0.395389
vt 0.067017 0.582098
vt 0.031791 0.681787
vt 0.056012 0.379734
vt 0.033640 0.299798
vt 0.139298 0.479580
vt 0.116719 0.284652
vt 0.079016 0.215472
vt 0.207199 0.383018
vt 0.308790 0.484646
vt 0.192609 0.199398
vt 0.139006 0.141191
vt 0.215018 0.077472
vt 0.290788 0.293563
vt 0.282646 0.126643
vt 0.306652 0.034827
vt 0.396960 0.395955
vt 0.385600 0.214900
vt 0.383700 0.071267
vt 0.418927 0.000100
vt 0.491165 0.035965
vt 0.502753 0.004985
vt 0.602573 0.011542
vt 0.487359 0.151528
vt 0.594801 0.082246
vt 0.695990 0.044882
vt 0.491925 0.313241
vt 0.592522 0.226304
vt 0.695248 0.147421
vt 0.809119 0.082829
vt 0.788797 0.226996
vt 0.859759 0.150428
vt 0.919591 0.228507
vt 0.694490 0.315690
vt 0.870264 0.317112
vt 0.113545 0.892111
vt 0.130632 0.889894
vt 0.122293 0.882358
vt 0.112353 0.876547
vt 0.118844 0.899995
vt 0.136930 0.898750
vt 0.101351 0.872588
vt 0.122857 0.909550
vt 0.141115 0.908503
vt 0.089668 0.870564
vt 0.077904 0.870561
vt 0.124964 0.919981
vt 0.143055 0.918634
vt 0.112243 0.920921
vt 0.124891 0.930578
vt 0.143099 0.928908
vt 0.140861 0.939142
vt 0.122771 0.940606
vt 0.136376 0.948813
vt 0.112588 0.932393
vt 0.119063 0.949190
vt 0.129637 0.957502
vt 0.120987 0.964753
vt 0.111564 0.943264
vt 0.110067 0.953639
vt 0.110042 0.969220
vt 0.098819 0.934075
vt 0.098999 0.945784
vt 0.098741 0.957024
vt 0.099300 0.974020
vt 0.086184 0.958811
vt 0.087674 0.975656
vt 0.085138 0.947368
vt 0.073492 0.958778
vt 0.075903 0.975600
vt 0.064226 0.973531
vt 0.084025 0.935415
vt 0.071183 0.947753
vt 0.061752 0.957010
vt 0.053239 0.969537
vt 0.058354 0.947060
vt 0.052106 0.953966
vt 0.043320 0.963696
vt 0.035009 0.956136
vt 0.046834 0.946067
vt 0.000000 0.000000
s 1
usemtl Handle1Mtl.033
f 1/1/1 2/2/2 3/3/3
f 4/4/4 5/5/5 6/6/4
f 6/6/4 7/7/4 4/4/4
f 8/8/6 2/2/2 5/5/5
f 5/5/5 4/4/4 8/8/6
f 9/9/7 3/3/3 2/2/2
f 2/2/2 8/8/6 9/9/7
f 3/3/3 9/9/7 10/10/8
f 11/11/9 10/10/8 9/9/7
f 8/8/6 11/11/9 9/9/7
f 10/10/8 11/11/9 12/12/10
f 13/13/11 12/12/10 11/11/9
f 11/11/9 8/8/6 14/14/12
f 4/4/4 14/14/12 8/8/6
f 13/13/11 11/11/9 15/15/13
f 15/15/13 11/11/9 14/14/12
f 13/13/11 15/15/13 16/16/14
f 14/14/12 4/4/4 17/17/4
f 7/7/4 17/17/4 4/4/4
f 15/15/13 14/14/12 18/18/15
f 18/18/15 14/14/12 17/17/4
f 15/15/13 19/19/16 16/16/14
f 19/19/16 15/15/13 18/18/15
f 16/16/14 19/19/16 20/20/17
f 21/21/18 20/20/17 19/19/16
f 22/22/19 21/21/18 19/19/16
f 18/18/15 22/22/19 19/19/16
f 21/21/18 22/22/19 23/23/20
f 18/18/15 17/17/4 24/24/21
f 22/22/19 18/18/15 24/24/21
f 25/25/22 23/23/20 22/22/19
f 22/22/19 24/24/21 25/25/22
f 23/23/20 25/25/22 26/26/23
f 27/27/24 26/26/23 25/25/22
f 25/25/22 28/28/25 27/27/24
f 28/28/25 25/25/22 24/24/21
f 28/28/25 29/29/26 27/27/24
f 30/30/4 24/24/21 17/17/4
f 24/24/21 30/30/4 28/28/25
f 17/17/4 7/7/4 30/30/4
f 29/29/26 28/28/25 31/31/27
f 30/30/4 31/31/27 28/28/25
f 31/31/27 32/32/28 29/29/26
f 32/32/28 31/31/27 33/33/29
f 31/31/27 30/30/4 34/34/4
f 7/7/4 34/34/4 30/30/4
f 34/34/4 33/33/29 31/31/27
f 34/34/4 7/7/4 35/35/4
f 33/33/29 34/34/4 36/36/30
f 35/35/4 36/36/30 34/34/4
f 37/37/31 38/38/32 39/39/33
f 40/40/34 37/37/31 39/39/33
f 40/40/34 39/39/33 41/41/35
f 42/42/36 40/40/34 41/41/35
f 37/37/31 40/40/34 43/43/37
f 43/43/37 44/44/38 37/37/31
f 45/45/39 40/40/34 42/42/36
f 45/45/39 43/43/37 40/40/34
f 45/45/39 42/42/36 46/46/40
f 44/44/38 43/43/37 47/47/41
f 48/48/42 44/44/38 47/47/41
f 43/43/37 45/45/39 49/49/43
f 47/47/41 43/43/37 49/49/43
f 50/50/44 48/48/42 47/47/41
f 47/47/41 49/49/43 50/50/44
f 48/48/42 50/50/44 51/51/45
f 52/52/46 45/45/39 46/46/40
f 49/49/43 45/45/39 52/52/46
f 53/53/47 52/52/46 46/46/40
f 49/49/43 52/52/46 54/54/48
f 50/50/44 49/49/43 54/54/48
f 52/52/46 53/53/47 55/55/49
f 54/54/48 52/52/46 55/55/49
f 55/55/49 53/53/47 56/56/50
f 57/57/51 55/55/49 56/56/50
f 55/55/49 57/57/51 58/58/52
f 58/58/52 54/54/48 55/55/49
f 59/59/53 58/58/52 57/57/51
f 60/60/54 50/50/44 54/54/48
f 54/54/48 58/58/52 60/60/54
f 58/58/52 59/59/53 61/61/55
f 61/61/55 60/60/54 58/58/52
f 62/62/56 61/61/55 59/59/53
f 50/50/44 60/60/54 63/63/57
f 63/63/57 51/51/45 50/50/44
f 51/51/45 63/63/57 64/64/58
f 65/65/59 63/63/57 60/60/54
f 60/60/54 61/61/55 65/65/59
f 61/61/55 62/62/56 66/66/60
f 66/66/60 65/65/59 61/61/55
f 67/67/61 66/66/60 62/62/56
f 66/66/60 67/67/61 68/68/62
f 68/68/62 69/69/63 66/66/60
f 65/65/59 66/66/60 69/69/63
f 69/69/63 68/68/62 70/70/64
f 63/63/57 65/65/59 71/71/65
f 69/69/63 71/71/65 65/65/59
f 71/71/65 64/64/58 63/63/57
f 70/70/64 72/72/66 69/69/63
f 71/71/65 69/69/63 72/72/66
f 72/72/66 70/70/64 73/73/67
f 64/64/58 71/71/65 74/74/68
f 72/72/66 74/74/68 71/71/65
f 75/75/69 64/64/58 74/74/68
f 75/75/69 74/74/68 76/76/70
f 74/74/68 72/72/66 77/77/71
f 73/73/67 77/77/71 72/72/66
f 76/76/70 74/74/68 77/77/71
f 77/77/71 73/73/67 78/78/72
f 76/76/70 77/77/71 79/79/73
f 79/79/73 77/77/71 78/78/72
f 80/80/74 81/81/75 82/82/76
f 81/81/75 83/83/77 82/82/76
f 80/80/74 82/82/76 84/84/78
f 85/85/79 80/80/74 84/84/78
f 82/82/76 83/83/77 86/86/80
f 83/83/77 87/87/81 86/86/80
f 82/82/76 88/88/82 84/84/78
f 86/86/80 88/88/82 82/82/76
f 84/84/78 76/76/70 85/85/79
f 85/85/79 76/76/70 79/79/73
f 88/88/82 75/75/69 84/84/78
f 84/84/78 75/75/69 76/76/70
f 87/87/81 89/89/83 86/86/80
f 87/87/81 90/90/84 89/89/83
f 86/86/80 91/91/85 88/88/82
f 89/89/83 91/91/85 86/86/80
f 88/88/82 92/92/86 75/75/69
f 91/91/85 92/92/86 88/88/82
f 90/90/84 93/93/87 89/89/83
f 90/90/84 94/94/88 93/93/87
f 95/95/89 93/93/87 94/94/88
f 93/93/87 96/96/90 89/89/83
f 89/89/83 96/96/90 91/91/85
f 93/93/87 95/95/89 97/97/91
f 97/97/91 96/96/90 93/93/87
f 98/98/92 97/97/91 95/95/89
f 96/96/90 99/99/93 91/91/85
f 91/91/85 99/99/93 92/92/86
f 96/96/90 97/97/91 100/100/94
f 100/100/94 99/99/93 96/96/90
f 97/97/91 98/98/92 101/101/95
f 101/101/95 100/100/94 97/97/91
f 102/102/96 101/101/95 98/98/92
f 99/99/93 64/64/58 92/92/86
f 92/92/86 64/64/58 75/75/69
f 101/101/95 102/102/96 103/103/97
f 103/103/97 102/102/96 104/104/98
f 104/104/98 105/105/99 103/103/97
f 103/103/97 106/106/100 101/101/95
f 100/100/94 101/101/95 106/106/100
f 105/105/99 107/107/101 103/103/97
f 106/106/100 103/103/97 107/107/101
f 107/107/101 105/105/99 108/108/102
f 106/106/100 109/109/103 100/100/94
f 99/99/93 100/100/94 109/109/103
f 107/107/101 110/110/104 106/106/100
f 109/109/103 106/106/100 110/110/104
f 108/108/102 111/111/105 107/107/101
f 110/110/104 107/107/101 111/111/105
f 111/111/105 108/108/102 112/112/106
f 110/110/104 48/48/42 109/109/103
f 109/109/103 51/51/45 99/99/93
f 51/51/45 109/109/103 48/48/42
f 64/64/58 99/99/93 51/51/45
f 112/112/106 113/113/107 111/111/105
f 113/113/107 112/112/106 114/114/108
f 114/114/108 115/115/109 113/113/107
f 111/111/105 116/116/110 110/110/104
f 116/116/110 111/111/105 113/113/107
f 48/48/42 110/110/104 116/116/110
f 117/117/111 113/113/107 115/115/109
f 113/113/107 117/117/111 116/116/110
f 117/117/111 115/115/109 38/38/32
f 116/116/110 117/117/111 44/44/38
f 116/116/110 44/44/38 48/48/42
f 37/37/31 117/117/111 38/38/32
f 117/117/111 37/37/31 44/44/38
f 118/118/112 119/119/113 120/120/114
f 121/121/115 118/118/112 120/120/114
f 122/122/116 119/119/113 118/118/112
f 119/119/113 122/122/116 123/123/117
f 121/121/115 32/32/28 118/118/112
f 32/32/28 121/121/115 124/124/118
f 118/118/112 33/33/29 122/122/116
f 33/33/29 118/118/112 32/32/28
f 125/125/119 123/123/117 122/122/116
f 123/123/117 125/125/119 126/126/120
f 36/36/30 122/122/116 33/33/29
f 122/122/116 36/36/30 125/125/119
f 124/124/118 29/29/26 32/32/28
f 29/29/26 124/124/118 127/127/121
f 128/128/122 29/29/26 127/127/121
f 129/129/123 126/126/120 125/125/119
f 126/126/120 129/129/123 130/130/124
f 125/125/119 131/131/125 129/129/123
f 131/131/125 125/125/119 36/36/30
f 132/132/126 130/130/124 129/129/123
f 131/131/125 132/132/126 129/129/123
f 130/130/124 132/132/126 133/133/127
f 133/133/127 132/132/126 134/134/128
f 29/29/26 128/128/122 27/27/24
f 26/26/23 27/27/24 128/128/122
f 134/134/128 132/132/126 135/135/129
f 134/134/128 135/135/129 136/136/130
f 131/131/125 137/137/131 132/132/126
f 137/137/131 135/135/129 132/132/126
f 35/35/4 137/137/131 131/131/125
f 36/36/30 35/35/4 131/131/125
f 136/136/130 135/135/129 138/138/132
f 136/136/130 138/138/132 139/139/133
f 138/138/132 140/140/134 139/139/133
f 141/141/135 138/138/132 135/135/129
f 137/137/131 141/141/135 135/135/129
f 140/140/134 138/138/132 142/142/136
f 141/141/135 142/142/136 138/138/132
f 142/142/136 143/143/137 140/140/134
f 144/144/4 141/141/135 137/137/131
f 35/35/4 144/144/4 137/137/131
f 145/145/138 142/142/136 141/141/135
f 144/144/4 145/145/138 141/141/135
f 143/143/137 142/142/136 146/146/139
f 145/145/138 146/146/139 142/142/136
f 146/146/139 147/147/140 143/143/137
f 147/147/140 146/146/139 148/148/141
f 148/148/141 149/149/142 147/147/140
f 150/150/143 146/146/139 145/145/138
f 150/150/143 148/148/141 146/146/139
f 149/149/142 148/148/141 151/151/144
f 150/150/143 151/151/144 148/148/141
f 152/152/145 149/149/142 151/151/144
f 151/151/144 153/153/146 152/152/145
f 145/145/138 154/154/4 150/150/143
f 154/154/4 145/145/138 144/144/4
f 151/151/144 150/150/143 155/155/147
f 154/154/4 155/155/147 150/150/143
f 153/153/146 151/151/144 156/156/148
f 155/155/147 156/156/148 151/151/144
f 156/156/148 157/157/149 153/153/146
f 144/144/4 7/7/4 154/154/4
f 7/7/4 144/144/4 35/35/4
f 155/155/147 154/154/4 6/6/4
f 7/7/4 6/6/4 154/154/4
f 156/156/148 155/155/147 158/158/150
f 6/6/4 158/158/150 155/155/147
f 157/157/149 156/156/148 159/159/151
f 158/158/150 159/159/151 156/156/148
f 157/157/149 159/159/151 160/160/152
f 159/159/151 161/161/153 160/160/152
f 162/162/154 161/161/153 159/159/151
f 159/159/151 158/158/150 162/162/154
f 161/161/153 162/162/154 1/1/1
f 158/158/150 6/6/4 5/5/5
f 5/5/5 162/162/154 158/158/150
f 2/2/2 1/1/1 162/162/154
f 162/162/154 5/5/5 2/2/2
f 163/163/155 164/163/127 165/163/72
f 164/163/127 163/163/155 166/163/156
f 167/163/157 165/163/72 164/163/127
f 168/163/64 166/163/156 163/163/155
f 169/163/158 165/163/72 167/163/157
f 166/163/156 168/163/64 170/163/120
f 171/163/159 169/163/158 167/163/157
f 168/163/64 172/163/117 170/163/120
f 173/163/160 169/163/158 171/163/159
f 172/163/117 168/163/64 174/163/161
f 171/163/159 175/163/162 173/163/160
f 174/163/161 176/163/113 172/163/117
f 175/163/162 171/163/159 177/163/163
f 176/163/113 174/163/161 178/163/164
f 179/163/134 175/163/162 177/163/163
f 178/163/164 180/163/114 176/163/113
f 175/163/162 179/163/134 181/163/165
f 180/163/114 178/163/164 182/163/166
f 183/163/137 181/163/165 179/163/134
f 182/163/166 184/163/115 180/163/114
f 181/163/165 183/163/137 185/163/167
f 184/163/115 182/163/166 186/163/168
f 183/163/137 187/163/81 185/163/167
f 188/163/169 184/163/115 186/163/168
f 187/163/81 183/163/137 189/163/170
f 184/163/115 188/163/169 190/163/118
f 189/163/170 191/163/171 187/163/81
f 188/163/169 192/163/121 190/163/118
f 191/163/171 189/163/170 193/163/172
f 192/163/121 188/163/169 194/163/173
f 193/163/172 195/163/174 191/163/171
f 194/163/173 196/163/122 192/163/121
f 195/163/174 193/163/172 197/163/175
f 196/163/122 194/163/173 198/163/176
f 199/163/177 195/163/174 197/163/175
f 198/163/176 200/163/178 196/163/122
f 195/163/174 199/163/177 201/163/89
f 200/163/178 198/163/176 202/163/179
f 199/163/177 203/163/180 201/163/89
f 202/163/179 204/163/20 200/163/178
f 203/163/180 199/163/177 205/163/149
f 204/163/20 202/163/179 206/163/36
f 205/163/149 207/163/181 203/163/180
f 206/163/36 208/163/18 204/163/20
f 207/163/181 205/163/149 209/163/182
f 208/163/18 206/163/36 210/163/183
f 209/163/182 211/163/98 207/163/181
f 212/163/33 208/163/18 210/163/183
f 211/163/98 209/163/182 213/163/153
f 208/163/18 212/163/33 214/163/184
f 213/163/153 215/163/185 211/163/98
f 215/163/185 213/163/153 216/163/186
f 212/163/33 217/163/14 214/163/184
f 216/163/186 218/163/102 215/163/185
f 217/163/14 212/163/33 219/163/32
f 218/163/102 216/163/186 220/163/3
f 219/163/32 221/163/187 217/163/14
f 222/163/188 218/163/102 220/163/3
f 217/163/14 221/163/187 223/163/189
f 224/163/106 218/163/102 222/163/188
f 225/163/190 223/163/189 221/163/187
f 226/163/191 224/163/106 222/163/188
f 223/163/189 225/163/190 226/163/191
f 224/163/106 226/163/191 225/163/190
