# Blender 5.1.2
# www.blender.org
mtllib Pipes.mtl
o Pipes
v 1.802174 -0.040000 0.110470
v 1.732275 -0.163630 0.040470
v 1.732275 -0.040000 0.040470
v 1.802174 -0.206850 0.110470
v 1.732275 0.027260 -0.016830
v 1.802174 0.117460 -0.016830
v 1.802174 0.117460 -0.218529
v 1.732275 0.027260 -0.218529
v 1.732275 -0.040000 0.180370
v 1.802174 0.117460 -0.016830
v 1.732275 0.207650 -0.016830
v 1.732275 0.207650 -0.218529
v 1.802174 0.117460 -0.218529
v 0.578175 0.207650 -0.218529
v 0.648075 0.117460 -0.016830
v 0.648075 0.117460 -0.218529
v 0.578175 0.207650 -0.016830
v 0.578175 -0.040000 0.180370
v 0.648075 0.117460 -0.218529
v 0.578175 0.027260 -0.016830
v 0.578175 0.027260 -0.218529
v 0.648075 0.117460 -0.016830
v 0.648075 -0.040000 0.110470
v 0.578175 -0.040000 0.040470
v 0.648075 -0.115880 0.110470
v 0.578175 -0.163630 0.040470
v -0.578125 0.207650 -0.218529
v -0.578125 0.207650 -0.016830
v -0.508226 0.117460 -0.218529
v -0.508226 0.117460 -0.016830
v -0.578125 -0.040000 0.180370
v -0.508226 0.117460 -0.218529
v -0.508226 0.117460 -0.016830
v -0.578125 0.027260 -0.218529
v -0.578125 0.027260 -0.016830
v -0.508226 -0.040000 0.110470
v -0.578125 -0.040000 0.040470
v -0.508226 -0.115880 0.110470
v -0.578125 -0.163630 0.040470
v -1.732225 -0.040000 0.180370
v -1.662325 0.117460 -0.016830
v -1.732225 0.207650 -0.016830
v -1.662325 0.117460 -0.218529
v -1.732225 0.207650 -0.218529
v -1.732225 -0.040000 0.040470
v -1.662325 -0.115880 0.110470
v -1.732225 -0.163630 0.040470
v -1.662325 -0.040000 0.110470
v -1.732225 0.027260 -0.016830
v -1.662325 0.117460 -0.016830
v -1.732225 0.027260 -0.218529
v -1.662325 0.117460 -0.218529
v -1.732225 -0.163630 0.180370
v -0.000025 -0.163630 0.180370
v -1.662325 -0.115880 0.110470
v -0.000025 -0.115880 0.110470
v 1.662275 -0.115880 0.110470
v 1.732275 -0.163630 0.180370
v -1.662325 -0.115880 0.110470
v -0.000025 -0.163630 0.040470
v -1.732225 -0.163630 0.040470
v -0.000025 -0.115880 0.110470
v 1.662275 -0.115880 0.110470
v 1.732275 -0.163630 0.040470
v -1.802225 -0.040000 0.110470
v -1.802225 -0.206850 0.110470
v -1.732225 -0.163630 0.180370
v -1.732225 -0.040000 0.180370
v -1.802225 0.117460 -0.016830
v 1.802174 -0.206850 0.110470
v 1.802174 -0.040000 0.110470
v 1.732275 -0.163630 0.180370
v 1.732275 -0.040000 0.180370
v 1.802174 0.117460 -0.016830
v -0.648125 0.117460 -0.016830
v -0.578125 -0.040000 0.180370
v -0.648125 -0.040000 0.110470
v -0.648125 -0.115880 0.110470
v -0.578125 -0.163630 0.180370
v 0.648075 0.117460 -0.016830
v 0.578175 -0.040000 0.180370
v 0.648075 -0.040000 0.110470
v 0.648075 -0.115880 0.110470
v 0.578175 -0.163630 0.180370
v -0.508226 0.117460 -0.016830
v -0.578125 -0.040000 0.180370
v -0.508226 -0.040000 0.110470
v -0.508226 -0.115880 0.110470
v -0.578125 -0.163630 0.180370
v 0.508175 0.117460 -0.016830
v 0.578175 -0.040000 0.180370
v 0.508175 -0.040000 0.110470
v 0.508175 -0.115880 0.110470
v 0.578175 -0.163630 0.180370
v -1.662325 -0.040000 0.110470
v -1.732225 -0.040000 0.180370
v -1.662325 -0.115880 0.110470
v -1.732225 -0.163630 0.180370
v -1.662325 0.117460 -0.016830
v 1.662275 -0.040000 0.110470
v 1.662275 -0.115880 0.110470
v 1.732275 -0.040000 0.180370
v 1.732275 -0.163630 0.180370
v 1.662275 0.117460 -0.016830
v -1.802225 -0.040000 0.110470
v -1.732225 -0.163630 0.040470
v -1.802225 -0.206850 0.110470
v -1.732225 -0.040000 0.040470
v -1.732225 0.027260 -0.016830
v -1.802225 0.117460 -0.016830
v -1.802225 0.117460 -0.218529
v -1.732225 0.027260 -0.218529
v -1.732225 -0.040000 0.180370
v -1.802225 0.117460 -0.016830
v -1.732225 0.207650 -0.016830
v -1.732225 0.207650 -0.218529
v -1.802225 0.117460 -0.218529
v -0.648125 0.117460 -0.218529
v -0.648125 0.117460 -0.016830
v -0.578125 0.207650 -0.218529
v -0.578125 0.207650 -0.016830
v -0.578125 -0.040000 0.180370
v -0.578125 0.027260 -0.218529
v -0.578125 0.027260 -0.016830
v -0.648125 0.117460 -0.218529
v -0.648125 0.117460 -0.016830
v -0.648125 -0.040000 0.110470
v -0.578125 -0.040000 0.040470
v -0.648125 -0.115880 0.110470
v -0.578125 -0.163630 0.040470
v 0.508175 0.117460 -0.218529
v 0.578175 0.207650 -0.016830
v 0.578175 0.207650 -0.218529
v 0.508175 0.117460 -0.016830
v 0.578175 -0.040000 0.180370
v 0.578175 0.027260 -0.218529
v 0.508175 0.117460 -0.016830
v 0.508175 0.117460 -0.218529
v 0.578175 0.027260 -0.016830
v 0.508175 -0.040000 0.110470
v 0.578175 -0.040000 0.040470
v 0.508175 -0.115880 0.110470
v 0.578175 -0.163630 0.040470
v 1.732275 -0.040000 0.180370
v 1.662275 0.117460 -0.016830
v 1.732275 0.207650 -0.016830
v 1.662275 0.117460 -0.218529
v 1.732275 0.207650 -0.218529
v 1.732275 -0.040000 0.040470
v 1.662275 -0.115880 0.110470
v 1.662275 -0.040000 0.110470
v 1.732275 -0.163630 0.040470
v 1.732275 0.027260 -0.016830
v 1.662275 0.117460 -0.016830
v 1.732275 0.027260 -0.218529
v 1.662275 0.117460 -0.218529
v -1.802225 -0.206850 0.110470
v -0.000025 -0.206850 0.110470
v -1.732225 -0.163630 0.180370
v -0.000025 -0.163630 0.180370
v 1.732275 -0.163630 0.180370
v 1.802174 -0.206850 0.110470
v -0.000025 -0.206850 0.110470
v -1.732225 -0.163630 0.040470
v -0.000025 -0.163630 0.040470
v -1.802225 -0.206850 0.110470
v 1.732275 -0.163630 0.040470
v 1.802174 -0.206850 0.110470
v -0.648125 0.117460 -0.218529
v -0.508226 0.117460 -0.218529
v -0.578125 0.027260 -0.218529
v -0.578125 0.207650 -0.218529
v -1.732225 0.027260 -0.218529
v -1.802225 0.117460 -0.218529
v -1.662325 0.117460 -0.218529
v -1.732225 0.207650 -0.218529
v 0.508175 0.117460 -0.218529
v 0.648075 0.117460 -0.218529
v 0.578175 0.027260 -0.218529
v 0.578175 0.207650 -0.218529
v 1.662275 0.117460 -0.218529
v 1.802174 0.117460 -0.218529
v 1.732275 0.027260 -0.218529
v 1.732275 0.207650 -0.218529
vn 0.6948 -0.2132 -0.6869
vn 0.7071 -0.0000 -0.7071
vn 0.6843 -0.2910 -0.6686
vn 0.7072 -0.0000 -0.7070
vn 0.7310 -0.5738 -0.3694
vn 0.7648 -0.5992 -0.2365
vn 0.7885 -0.6150 -0.0000
vn 0.7648 0.5992 0.2365
vn 0.6911 0.2121 0.6910
vn 0.7321 0.5668 0.3778
vn 0.7885 0.6150 -0.0000
vn 0.6910 0.2120 0.6910
vn 0.7073 -0.0000 -0.7069
vn 0.7648 -0.5993 -0.2366
vn 0.7310 -0.5738 -0.3695
vn 0.6843 -0.2911 -0.6686
vn 0.7072 -0.0000 -0.7071
vn 0.6910 0.2121 0.6910
vn -0.0000 0.8248 0.5655
vn -0.0000 0.8247 0.5655
vn -0.0000 0.8247 -0.5655
vn -0.6780 0.2838 0.6780
vn -0.7070 -0.0000 0.7073
vn -0.7070 -0.0000 0.7072
vn -0.6910 0.2120 0.6910
vn -0.7321 0.5668 0.3779
vn 0.7071 -0.0000 0.7071
vn 0.6780 0.2838 0.6780
vn 0.7321 0.5668 0.3779
vn -0.6780 0.2839 0.6780
vn -0.7069 -0.0000 0.7073
vn -0.7071 -0.0000 0.7072
vn -0.6948 -0.2132 -0.6869
vn -0.7071 -0.0000 -0.7071
vn -0.6843 -0.2910 -0.6686
vn -0.7310 -0.5738 -0.3694
vn -0.7648 -0.5992 -0.2365
vn -0.7885 -0.6150 -0.0000
vn -0.7648 0.5993 0.2366
vn -0.7321 0.5668 0.3778
vn -0.7885 0.6150 -0.0000
vn -0.7648 0.5992 0.2365
vn -0.6910 0.2121 0.6910
vn -0.0000 -0.8498 0.5272
vn -0.0000 -0.8498 -0.5272
vn -0.0000 -0.8498 -0.5271
vn -0.0000 -0.0000 -1.0000
vt -0.344069 0.766511
vt -0.330079 0.741785
vt -0.330079 0.766511
vt -0.344069 0.733142
vt -0.318608 0.779964
vt -0.318608 0.798003
vt -0.278273 0.798003
vt -0.278273 0.779964
vt -0.318608 0.816042
vt -0.358058 0.766511
vt -0.278273 0.816042
vt -0.344069 0.751336
vt -0.344069 0.751335
vt 0.028289 0.814484
vt -0.318166 0.814484
vt 0.014299 0.800495
vt -0.318166 0.800495
vt -0.650630 0.800495
vt -0.664620 0.814484
vt -0.318166 0.786506
vt 0.028289 0.786506
vt -0.664620 0.786506
vt -0.678609 0.766511
vt -0.678609 0.733142
vt -0.664620 0.741785
vt -0.664620 0.766511
vt -0.678609 0.798003
vt 0.042278 0.733142
vt 0.042278 0.766511
vt 0.028289 0.741785
vt 0.028289 0.766511
vt 0.042278 0.798003
vt -0.447783 0.798003
vt -0.447783 0.766511
vt -0.433794 0.766511
vt -0.447783 0.751336
vt -0.433794 0.741785
vt -0.188548 0.798003
vt -0.202537 0.766511
vt -0.188548 0.766511
vt -0.188548 0.751336
vt -0.202537 0.741785
vt -0.419804 0.798003
vt -0.419804 0.766511
vt -0.419804 0.751335
vt -0.216527 0.798003
vt -0.216527 0.766511
vt -0.216527 0.751335
vt -0.650630 0.766511
vt -0.650630 0.751335
vt -0.650630 0.798003
vt 0.014299 0.766511
vt 0.014299 0.751335
vt 0.014299 0.798003
vt -0.292262 0.766511
vt -0.306252 0.741785
vt -0.292262 0.733142
vt -0.306252 0.766511
vt -0.317723 0.779964
vt -0.317723 0.798003
vt -0.358058 0.798003
vt -0.358058 0.779964
vt -0.278273 0.766511
vt -0.317723 0.816042
vt -0.358058 0.816042
vt -0.292262 0.751336
vt -0.292262 0.751335
vt -0.678609 0.800495
vt 0.042278 0.800495
vt -0.202537 0.779964
vt -0.202537 0.816042
vt 0.028289 0.779964
vt 0.028289 0.816042
vt -0.433794 0.779964
vt -0.433794 0.816042
vt -0.664620 0.779964
vt -0.664620 0.816042
s 1
usemtl Pipes1Mtl
f 1/1/1 2/2/2 3/3/3
f 2/2/2 1/1/1 4/4/4
f 5/5/5 1/1/1 3/3/3
f 6/6/6 1/1/1 5/5/5
f 5/5/5 7/7/7 6/6/6
f 7/7/7 5/5/5 8/8/7
f 11/9/8 9/10/9 10/6/10
f 10/6/10 12/11/11 11/9/8
f 12/11/11 10/6/10 13/7/11
f 14/11/11 15/6/10 16/7/11
f 15/6/10 14/11/11 17/9/8
f 17/9/8 18/10/12 15/6/10
f 19/7/7 20/5/5 21/8/7
f 20/5/5 19/7/7 22/6/6
f 22/6/6 23/1/1 20/5/5
f 20/5/5 23/1/1 24/3/3
f 25/12/2 24/3/3 23/1/1
f 26/2/13 24/3/3 25/12/2
f 27/11/11 28/9/8 29/7/11
f 29/7/11 28/9/8 30/6/10
f 31/10/12 30/6/10 28/9/8
f 32/7/7 33/6/14 34/8/7
f 34/8/7 33/6/14 35/5/15
f 36/1/1 35/5/15 33/6/14
f 35/5/15 36/1/1 37/3/16
f 38/13/17 37/3/16 36/1/1
f 37/3/16 38/13/17 39/2/4
f 40/10/18 41/6/10 42/9/8
f 43/7/11 42/9/8 41/6/10
f 44/11/11 42/9/8 43/7/11
f 45/3/3 46/13/2 47/2/4
f 46/13/2 45/3/3 48/1/1
f 49/5/15 48/1/1 45/3/3
f 48/1/1 49/5/15 50/6/6
f 51/8/7 50/6/6 49/5/15
f 52/7/7 50/6/6 51/8/7
f 53/14/19 54/15/20 55/16/20
f 56/17/20 55/16/20 54/15/20
f 57/18/20 56/17/20 54/15/20
f 57/18/20 54/15/20 58/19/20
f 59/16/21 60/20/21 61/21/21
f 60/20/21 59/16/21 62/17/21
f 63/18/21 60/20/21 62/17/21
f 60/20/21 63/18/21 64/22/21
f 65/23/22 66/24/23 67/25/24
f 67/25/24 68/26/25 65/23/22
f 69/27/26 65/23/22 68/26/25
f 70/28/27 71/29/28 72/30/27
f 72/30/27 71/29/28 73/31/12
f 74/32/29 73/31/12 71/29/28
f 75/33/26 77/34/30 76/35/25
f 78/36/31 76/35/25 77/34/30
f 76/35/25 78/36/31 79/37/32
f 80/38/29 81/39/12 82/40/28
f 81/39/12 83/41/27 82/40/28
f 83/41/27 81/39/12 84/42/27
f 85/43/29 86/35/12 87/44/28
f 87/44/28 86/35/12 88/45/27
f 88/45/27 86/35/12 89/37/27
f 91/39/25 90/46/26 92/47/30
f 92/47/30 93/48/31 91/39/25
f 93/48/31 94/42/32 91/39/25
f 95/49/28 96/26/12 97/50/27
f 97/50/27 96/26/12 98/25/27
f 99/51/29 96/26/12 95/49/28
f 100/52/22 101/53/31 102/31/25
f 101/53/31 103/30/32 102/31/25
f 102/31/25 104/54/26 100/52/22
f 105/55/33 106/56/34 107/57/34
f 106/56/34 105/55/33 108/58/35
f 105/55/33 109/59/36 108/58/35
f 105/55/33 110/60/37 109/59/36
f 111/61/38 109/59/36 110/60/37
f 112/62/38 109/59/36 111/61/38
f 113/63/25 115/64/39 114/60/40
f 116/65/41 114/60/40 115/64/39
f 117/61/41 114/60/40 116/65/41
f 118/61/41 119/60/26 120/65/41
f 120/65/41 119/60/26 121/64/39
f 122/63/25 121/64/39 119/60/26
f 123/62/38 124/59/36 125/61/38
f 125/61/38 124/59/36 126/60/37
f 127/55/33 126/60/37 124/59/36
f 127/55/33 124/59/36 128/58/35
f 128/58/35 129/66/34 127/55/33
f 128/58/35 130/56/34 129/66/34
f 131/61/41 132/64/42 133/65/41
f 132/64/42 131/61/41 134/60/26
f 134/60/26 135/63/43 132/64/42
f 136/62/38 137/60/37 138/61/38
f 137/60/37 136/62/38 139/59/36
f 139/59/36 140/55/33 137/60/37
f 140/55/33 139/59/36 141/58/35
f 141/58/35 142/67/34 140/55/33
f 142/67/34 141/58/35 143/56/34
f 145/60/26 144/63/43 146/64/42
f 146/64/42 147/61/41 145/60/26
f 147/61/41 146/64/42 148/65/41
f 149/58/35 150/67/34 151/55/33
f 150/67/34 149/58/35 152/56/34
f 151/55/33 153/59/36 149/58/35
f 153/59/36 151/55/33 154/60/37
f 154/60/37 155/62/38 153/59/36
f 155/62/38 154/60/37 156/61/38
f 157/68/44 158/17/44 159/19/44
f 159/19/44 158/17/44 160/15/44
f 158/17/44 161/14/44 160/15/44
f 158/17/44 162/69/44 161/14/44
f 163/17/45 164/22/45 165/20/46
f 164/22/45 163/17/45 166/68/46
f 167/21/45 163/17/45 165/20/46
f 163/17/45 167/21/45 168/69/45
f 169/38/47 170/46/47 171/70/47
f 170/46/47 169/38/47 172/71/47
f 173/72/47 174/32/47 175/54/47
f 174/32/47 176/73/47 175/54/47
f 177/43/47 178/33/47 179/74/47
f 178/33/47 177/43/47 180/75/47
f 181/51/47 182/27/47 183/76/47
f 182/27/47 181/51/47 184/77/47
