# Blender 5.1.2
# www.blender.org
mtllib RemoteButton.mtl
o RemoteButton
v -0.145797 0.204314 -0.281925
v -0.115907 0.180221 -0.281925
v -0.115907 0.180221 -0.264626
v -0.145797 0.204314 -0.264626
v -0.172878 0.230234 -0.281925
v -0.172878 0.230234 -0.264626
v -0.194347 0.259813 -0.281925
v -0.194347 0.259813 -0.264626
v -0.208348 0.299387 -0.281925
v -0.208348 0.299387 -0.264626
v -0.213017 0.355297 -0.281925
v -0.213017 0.355297 -0.264626
v -0.208348 0.411208 -0.281925
v -0.208348 0.411208 -0.264626
v -0.194347 0.450783 -0.281925
v -0.194347 0.450783 -0.264626
v -0.172878 0.480361 -0.281925
v -0.172878 0.480361 -0.264626
v -0.145797 0.506282 -0.281925
v -0.145797 0.506282 -0.264626
v -0.115907 0.530374 -0.281925
v -0.115907 0.530374 -0.264626
v 0.142092 0.204314 -0.281925
v 0.112212 0.180221 -0.264626
v 0.112212 0.180221 -0.281925
v 0.142092 0.204314 -0.264626
v 0.169173 0.230234 -0.281925
v 0.169173 0.230234 -0.264626
v 0.190643 0.259813 -0.281925
v 0.190643 0.259813 -0.264626
v 0.204643 0.299387 -0.281925
v 0.204643 0.299387 -0.264626
v 0.209312 0.355297 -0.281925
v 0.209312 0.355297 -0.264626
v 0.204643 0.411208 -0.281925
v 0.204643 0.411208 -0.264626
v 0.190643 0.450783 -0.281925
v 0.190643 0.450783 -0.264626
v 0.169173 0.480361 -0.281925
v 0.169173 0.480361 -0.264626
v 0.142092 0.506282 -0.281925
v 0.142092 0.506282 -0.264626
v 0.112212 0.530374 -0.281925
v 0.112212 0.530374 -0.264626
v -0.090117 0.245089 -0.281925
v -0.068297 0.227504 -0.281925
v -0.068297 0.227504 -0.264626
v -0.090117 0.245089 -0.264626
v -0.109877 0.264010 -0.281925
v -0.109877 0.264010 -0.264626
v -0.125547 0.285599 -0.281925
v -0.125547 0.285599 -0.264626
v -0.135767 0.314486 -0.281925
v -0.135767 0.314486 -0.264626
v -0.139178 0.355297 -0.281925
v -0.139178 0.355297 -0.264626
v -0.135767 0.396108 -0.281925
v -0.135767 0.396108 -0.264626
v -0.125547 0.424996 -0.281925
v -0.125547 0.424996 -0.264626
v -0.109877 0.446586 -0.281925
v -0.109877 0.446586 -0.264626
v -0.090117 0.465506 -0.281925
v -0.090117 0.465506 -0.264626
v -0.068297 0.483090 -0.281925
v -0.068297 0.483090 -0.264626
v 0.086343 0.245089 -0.281925
v 0.064523 0.227504 -0.264626
v 0.064523 0.227504 -0.281925
v 0.086343 0.245089 -0.264626
v 0.106102 0.264010 -0.281925
v 0.106102 0.264010 -0.264626
v 0.121773 0.285599 -0.281925
v 0.121773 0.285599 -0.264626
v 0.131993 0.314486 -0.281925
v 0.131993 0.314486 -0.264626
v 0.135402 0.355297 -0.281925
v 0.135402 0.355297 -0.264626
v 0.131993 0.396108 -0.281925
v 0.131993 0.396108 -0.264626
v 0.121773 0.424996 -0.281925
v 0.121773 0.424996 -0.264626
v 0.106102 0.446586 -0.281925
v 0.106102 0.446586 -0.264626
v 0.086343 0.465506 -0.281925
v 0.086343 0.465506 -0.264626
v 0.064523 0.483090 -0.281925
v 0.064523 0.483090 -0.264626
v 0.174212 -0.434474 -0.326626
v 0.174212 -0.434474 -0.219925
v 0.139072 -0.469607 -0.326626
v 0.139072 -0.469607 -0.219925
v 0.139072 -0.434473 -0.184826
v 0.174212 0.026221 -0.219925
v -0.142027 -0.434473 -0.184826
v -0.142027 -0.469607 -0.219925
v -0.177157 -0.434474 -0.219925
v 0.139072 0.026221 -0.184826
v 0.139072 0.061353 -0.219925
v -0.142027 0.061353 -0.219925
v -0.142027 0.026221 -0.184826
v -0.177157 0.026221 -0.219925
v -0.177157 0.026221 -0.326626
v -0.142027 0.061353 -0.326626
v 0.139072 -0.469607 -0.326626
v -0.142027 -0.469607 -0.326626
v 0.139072 -0.434474 -0.361725
v 0.139072 -0.469607 -0.219925
v -0.142027 -0.469607 -0.219925
v 0.174212 -0.434474 -0.326626
v -0.177157 -0.434474 -0.326626
v -0.177157 -0.434474 -0.219925
v -0.177157 0.026221 -0.219925
v -0.177157 0.026221 -0.326626
v -0.142027 -0.434474 -0.361725
v -0.142027 0.026221 -0.361725
v -0.142027 0.061353 -0.326626
v -0.142027 0.061353 -0.219925
v 0.139072 0.026221 -0.361725
v 0.139072 0.061353 -0.326626
v 0.139072 0.061353 -0.219925
v 0.174212 0.026221 -0.326626
v 0.174212 -0.434474 -0.219925
v 0.174212 0.026221 -0.219925
v -0.022107 0.286478 -0.237526
v 0.019153 0.286478 -0.237526
v 0.034253 0.316681 -0.211426
v -0.001477 0.275422 -0.273323
v 0.039783 0.286478 -0.273323
v -0.042737 0.286478 -0.273323
v 0.069983 0.316681 -0.273323
v -0.072937 0.316681 -0.273323
v 0.081043 0.357940 -0.273323
v -0.037207 0.316681 -0.211426
v -0.083997 0.357940 -0.273323
v -0.042737 0.357940 -0.201824
v 0.039783 0.357940 -0.201824
v -0.037207 0.399197 -0.211426
v -0.072937 0.399197 -0.273323
v 0.034253 0.399197 -0.211426
v 0.069983 0.399197 -0.273323
v -0.022107 0.429401 -0.237526
v -0.042737 0.429401 -0.273323
v -0.001477 0.440456 -0.273323
v 0.019153 0.429401 -0.237526
v 0.039783 0.429401 -0.273323
v 0.019153 0.286478 -0.309025
v 0.069983 0.316681 -0.273323
v 0.039783 0.286478 -0.273323
v -0.001477 0.275422 -0.273323
v 0.034253 0.316681 -0.335125
v 0.081043 0.357940 -0.273323
v -0.022107 0.286478 -0.309025
v -0.042737 0.286478 -0.273323
v -0.072937 0.316681 -0.273323
v -0.037207 0.316681 -0.335125
v -0.083997 0.357940 -0.273323
v -0.042737 0.357940 -0.344727
v 0.039783 0.357940 -0.344727
v -0.037207 0.399197 -0.335125
v -0.072937 0.399197 -0.273323
v 0.034253 0.399197 -0.335125
v 0.069983 0.399197 -0.273323
v -0.022107 0.429401 -0.309025
v -0.042737 0.429401 -0.273323
v -0.001477 0.440456 -0.273323
v 0.019153 0.429401 -0.309025
v 0.039783 0.429401 -0.273323
v 0.086343 0.245089 -0.281925
v 0.070903 0.268059 -0.281925
v 0.106102 0.264010 -0.281925
v 0.054933 0.254400 -0.281925
v 0.064523 0.227504 -0.281925
v 0.085372 0.281653 -0.281925
v 0.121773 0.285599 -0.281925
v 0.104352 0.316868 -0.281925
v 0.131993 0.314486 -0.281925
v 0.106843 0.355297 -0.281925
v 0.135402 0.355297 -0.281925
v 0.131993 0.396108 -0.281925
v 0.104352 0.393728 -0.281925
v 0.121773 0.424996 -0.281925
v 0.085372 0.428942 -0.281925
v 0.106102 0.446586 -0.281925
v 0.070903 0.442537 -0.281925
v 0.086343 0.465506 -0.281925
v 0.054933 0.456196 -0.281925
v 0.064523 0.483090 -0.281925
v 0.086343 0.465506 -0.264626
v 0.070903 0.442537 -0.264626
v 0.106102 0.446586 -0.264626
v 0.054933 0.456196 -0.264626
v 0.064523 0.483090 -0.264626
v 0.085372 0.428942 -0.264626
v 0.121773 0.424996 -0.264626
v 0.104352 0.393728 -0.264626
v 0.131993 0.396108 -0.264626
v 0.106843 0.355297 -0.264626
v 0.135402 0.355297 -0.264626
v 0.131993 0.314486 -0.264626
v 0.104352 0.316868 -0.264626
v 0.121773 0.285599 -0.264626
v 0.085372 0.281653 -0.264626
v 0.106102 0.264010 -0.264626
v 0.070903 0.268059 -0.264626
v 0.086343 0.245089 -0.264626
v 0.054933 0.254400 -0.264626
v 0.064523 0.227504 -0.264626
v 0.142092 0.204314 -0.281925
v 0.120943 0.235781 -0.281925
v 0.169173 0.230234 -0.281925
v 0.099062 0.217069 -0.281925
v 0.112212 0.180221 -0.281925
v 0.140773 0.254405 -0.281925
v 0.190643 0.259813 -0.281925
v 0.166773 0.302649 -0.281925
v 0.204643 0.299387 -0.281925
v 0.170192 0.355297 -0.281925
v 0.209312 0.355297 -0.281925
v 0.204643 0.411208 -0.281925
v 0.166773 0.407946 -0.281925
v 0.190643 0.450783 -0.281925
v 0.140773 0.456189 -0.281925
v 0.169173 0.480361 -0.281925
v 0.120943 0.474815 -0.281925
v 0.142092 0.506282 -0.281925
v 0.099062 0.493526 -0.281925
v 0.112212 0.530374 -0.281925
v 0.142092 0.506282 -0.264626
v 0.120943 0.474815 -0.264626
v 0.169173 0.480361 -0.264626
v 0.099062 0.493526 -0.264626
v 0.112212 0.530374 -0.264626
v 0.140773 0.456189 -0.264626
v 0.190643 0.450783 -0.264626
v 0.166773 0.407946 -0.264626
v 0.204643 0.411208 -0.264626
v 0.170192 0.355297 -0.264626
v 0.209312 0.355297 -0.264626
v 0.204643 0.299387 -0.264626
v 0.166773 0.302649 -0.264626
v 0.190643 0.259813 -0.264626
v 0.140773 0.254405 -0.264626
v 0.169173 0.230234 -0.264626
v 0.120943 0.235781 -0.264626
v 0.142092 0.204314 -0.264626
v 0.099062 0.217069 -0.264626
v 0.112212 0.180221 -0.264626
v -0.172878 0.230234 -0.281925
v -0.124647 0.235781 -0.281925
v -0.145797 0.204314 -0.281925
v -0.102767 0.217069 -0.281925
v -0.115907 0.180221 -0.281925
v -0.144477 0.254405 -0.281925
v -0.194347 0.259813 -0.281925
v -0.170467 0.302649 -0.281925
v -0.208348 0.299387 -0.281925
v -0.173898 0.355297 -0.281925
v -0.213017 0.355297 -0.281925
v -0.208348 0.411208 -0.281925
v -0.170467 0.407946 -0.281925
v -0.194347 0.450783 -0.281925
v -0.144477 0.456189 -0.281925
v -0.172878 0.480361 -0.281925
v -0.124647 0.474815 -0.281925
v -0.145797 0.506282 -0.281925
v -0.102767 0.493526 -0.281925
v -0.115907 0.530374 -0.281925
v -0.172878 0.480361 -0.264626
v -0.124647 0.474815 -0.264626
v -0.145797 0.506282 -0.264626
v -0.102767 0.493526 -0.264626
v -0.115907 0.530374 -0.264626
v -0.144477 0.456189 -0.264626
v -0.194347 0.450783 -0.264626
v -0.170467 0.407946 -0.264626
v -0.208348 0.411208 -0.264626
v -0.173898 0.355297 -0.264626
v -0.213017 0.355297 -0.264626
v -0.208348 0.299387 -0.264626
v -0.170467 0.302649 -0.264626
v -0.194347 0.259813 -0.264626
v -0.144477 0.254405 -0.264626
v -0.172878 0.230234 -0.264626
v -0.124647 0.235781 -0.264626
v -0.145797 0.204314 -0.264626
v -0.102767 0.217069 -0.264626
v -0.115907 0.180221 -0.264626
v -0.109877 0.264010 -0.281925
v -0.074677 0.268059 -0.281925
v -0.090117 0.245089 -0.281925
v -0.058707 0.254400 -0.281925
v -0.068297 0.227504 -0.281925
v -0.089148 0.281653 -0.281925
v -0.125547 0.285599 -0.281925
v -0.108127 0.316868 -0.281925
v -0.135767 0.314486 -0.281925
v -0.110627 0.355297 -0.281925
v -0.139178 0.355297 -0.281925
v -0.135767 0.396108 -0.281925
v -0.108127 0.393728 -0.281925
v -0.125547 0.424996 -0.281925
v -0.089148 0.428942 -0.281925
v -0.109877 0.446586 -0.281925
v -0.074677 0.442537 -0.281925
v -0.090117 0.465506 -0.281925
v -0.058707 0.456196 -0.281925
v -0.068297 0.483090 -0.281925
v -0.109877 0.446586 -0.264626
v -0.074677 0.442537 -0.264626
v -0.090117 0.465506 -0.264626
v -0.058707 0.456196 -0.264626
v -0.068297 0.483090 -0.264626
v -0.089148 0.428942 -0.264626
v -0.125547 0.424996 -0.264626
v -0.108127 0.393728 -0.264626
v -0.135767 0.396108 -0.264626
v -0.110627 0.355297 -0.264626
v -0.139178 0.355297 -0.264626
v -0.135767 0.314486 -0.264626
v -0.108127 0.316868 -0.264626
v -0.125547 0.285599 -0.264626
v -0.089148 0.281653 -0.264626
v -0.109877 0.264010 -0.264626
v -0.074677 0.268059 -0.264626
v -0.090117 0.245089 -0.264626
v -0.058707 0.254400 -0.264626
v -0.068297 0.227504 -0.264626
v 0.054933 0.456196 -0.281925
v 0.064523 0.483090 -0.264626
v 0.064523 0.483090 -0.281925
v 0.054933 0.456196 -0.264626
v -0.058707 0.456196 -0.281925
v -0.068297 0.483090 -0.281925
v -0.068297 0.483090 -0.264626
v -0.058707 0.456196 -0.264626
v 0.020592 0.052919 -0.235023
v -0.009687 0.300112 -0.259026
v -0.023547 0.052919 -0.235023
v -0.045618 0.052919 -0.273323
v -0.017907 0.300112 -0.273323
v 0.006742 0.300112 -0.259026
v 0.042663 0.052919 -0.273323
v 0.014952 0.300112 -0.273323
v 0.006742 0.300112 -0.287525
v 0.042663 0.052919 -0.273323
v 0.020592 0.052919 -0.311523
v -0.023547 0.052919 -0.311523
v 0.014952 0.300112 -0.273323
v -0.009687 0.300112 -0.287525
v -0.045618 0.052919 -0.273323
v -0.017907 0.300112 -0.273323
v 0.006742 0.300112 -0.259026
v -0.009687 0.300112 -0.259026
v 0.099062 0.493526 -0.281925
v 0.112212 0.530374 -0.264626
v 0.112212 0.530374 -0.281925
v 0.099062 0.493526 -0.264626
v -0.102767 0.493526 -0.281925
v -0.115907 0.530374 -0.281925
v -0.115907 0.530374 -0.264626
v -0.102767 0.493526 -0.264626
v 0.064523 0.227504 -0.281925
v 0.054933 0.254400 -0.264626
v 0.054933 0.254400 -0.281925
v 0.064523 0.227504 -0.264626
v -0.068297 0.227504 -0.281925
v -0.058707 0.254400 -0.281925
v -0.058707 0.254400 -0.264626
v -0.068297 0.227504 -0.264626
v 0.112212 0.180221 -0.281925
v 0.099062 0.217069 -0.264626
v 0.099062 0.217069 -0.281925
v 0.112212 0.180221 -0.264626
v -0.115907 0.180221 -0.281925
v -0.102767 0.217069 -0.281925
v -0.102767 0.217069 -0.264626
v -0.115907 0.180221 -0.264626
v 0.104352 0.316868 -0.281925
v 0.106843 0.355297 -0.264626
v 0.106843 0.355297 -0.281925
v 0.104352 0.316868 -0.264626
v 0.104352 0.393728 -0.264626
v 0.085372 0.281653 -0.281925
v 0.104352 0.393728 -0.281925
v 0.085372 0.281653 -0.264626
v 0.085372 0.428942 -0.264626
v 0.070903 0.268059 -0.281925
v 0.085372 0.428942 -0.281925
v 0.070903 0.268059 -0.264626
v 0.054933 0.254400 -0.281925
v 0.054933 0.254400 -0.264626
v 0.070903 0.442537 -0.264626
v 0.070903 0.442537 -0.281925
v 0.054933 0.456196 -0.264626
v 0.054933 0.456196 -0.281925
v -0.108127 0.316868 -0.281925
v -0.110627 0.355297 -0.281925
v -0.110627 0.355297 -0.264626
v -0.108127 0.316868 -0.264626
v -0.108127 0.393728 -0.264626
v -0.089148 0.281653 -0.281925
v -0.108127 0.393728 -0.281925
v -0.089148 0.281653 -0.264626
v -0.089148 0.428942 -0.264626
v -0.074677 0.268059 -0.281925
v -0.089148 0.428942 -0.281925
v -0.074677 0.268059 -0.264626
v -0.058707 0.254400 -0.281925
v -0.058707 0.254400 -0.264626
v -0.074677 0.442537 -0.264626
v -0.074677 0.442537 -0.281925
v -0.058707 0.456196 -0.264626
v -0.058707 0.456196 -0.281925
v 0.166773 0.302649 -0.281925
v 0.170192 0.355297 -0.264626
v 0.170192 0.355297 -0.281925
v 0.166773 0.302649 -0.264626
v 0.166773 0.407946 -0.264626
v 0.140773 0.254405 -0.281925
v 0.166773 0.407946 -0.281925
v 0.140773 0.254405 -0.264626
v 0.140773 0.456189 -0.264626
v 0.120943 0.235781 -0.281925
v 0.140773 0.456189 -0.281925
v 0.120943 0.235781 -0.264626
v 0.099062 0.217069 -0.281925
v 0.099062 0.217069 -0.264626
v 0.120943 0.474815 -0.264626
v 0.120943 0.474815 -0.281925
v 0.099062 0.493526 -0.264626
v 0.099062 0.493526 -0.281925
v -0.170467 0.302649 -0.281925
v -0.173898 0.355297 -0.281925
v -0.173898 0.355297 -0.264626
v -0.170467 0.302649 -0.264626
v -0.170467 0.407946 -0.264626
v -0.144477 0.254405 -0.281925
v -0.170467 0.407946 -0.281925
v -0.144477 0.254405 -0.264626
v -0.144477 0.456189 -0.264626
v -0.124647 0.235781 -0.281925
v -0.144477 0.456189 -0.281925
v -0.124647 0.235781 -0.264626
v -0.102767 0.217069 -0.281925
v -0.102767 0.217069 -0.264626
v -0.124647 0.474815 -0.264626
v -0.124647 0.474815 -0.281925
v -0.102767 0.493526 -0.264626
v -0.102767 0.493526 -0.281925
v 0.096033 -0.086512 -0.288124
v 0.096033 -0.086513 -0.368725
v 0.119112 -0.157546 -0.368725
v 0.119112 -0.157546 -0.288124
v 0.119112 -0.157546 -0.368725
v 0.096033 -0.228581 -0.288124
v 0.096033 -0.228582 -0.368725
v 0.119112 -0.157546 -0.288124
v -0.099508 -0.086512 -0.288124
v -0.039088 -0.042610 -0.368725
v -0.099508 -0.086513 -0.368725
v 0.096033 -0.086512 -0.288124
v 0.096033 -0.086513 -0.368725
v 0.035603 -0.042610 -0.288124
v 0.035603 -0.042610 -0.368725
v -0.039088 -0.042610 -0.288124
v -0.039088 -0.042610 -0.368725
v -0.099508 -0.086512 -0.288124
v 0.035603 -0.042610 -0.368725
v 0.035603 -0.042610 -0.288124
v -0.099508 -0.086512 -0.288124
v -0.099508 -0.086513 -0.368725
v -0.122587 -0.157546 -0.288124
v -0.122587 -0.157546 -0.368725
v -0.099508 -0.228581 -0.288124
v -0.099508 -0.228582 -0.368725
v 0.035603 -0.272482 -0.368725
v 0.096033 -0.228582 -0.368725
v 0.096033 -0.228581 -0.288124
v -0.099508 -0.228581 -0.288124
v -0.099508 -0.228582 -0.368725
v -0.039088 -0.272482 -0.288124
v -0.039088 -0.272482 -0.368725
v 0.035603 -0.272482 -0.288124
v 0.035603 -0.272482 -0.368725
v 0.096033 -0.228581 -0.288124
v -0.039088 -0.042610 -0.368725
v 0.035603 -0.042610 -0.368725
v 0.029382 -0.061769 -0.383625
v 0.096033 -0.086513 -0.368725
v 0.079732 -0.098352 -0.383625
v 0.119112 -0.157546 -0.368725
v -0.032857 -0.061769 -0.383625
v -0.099508 -0.086513 -0.368725
v 0.098973 -0.157546 -0.383625
v -0.083217 -0.098352 -0.383625
v -0.122587 -0.157546 -0.368725
v -0.102448 -0.157546 -0.383625
v -0.099508 -0.228582 -0.368725
v -0.039088 -0.272482 -0.368725
v -0.083217 -0.216742 -0.383625
v -0.032857 -0.253325 -0.383625
v 0.029382 -0.253325 -0.383625
v 0.035603 -0.272482 -0.368725
v 0.079732 -0.216742 -0.383625
v 0.096033 -0.228582 -0.368725
v 0.212393 -0.209120 0.072975
v 0.212393 -0.359120 0.072975
v 0.260062 -0.209120 0.135174
v 0.260062 -0.359120 0.135174
v 0.290033 -0.209120 0.207474
v 0.290033 -0.359120 0.207474
v 0.300262 -0.209120 0.285175
v 0.300262 -0.359120 0.285175
v 0.290033 -0.209120 0.362774
v 0.290033 -0.359120 0.362774
v 0.260062 -0.209120 0.435177
v 0.260062 -0.359120 0.435177
v 0.212393 -0.209120 0.497276
v 0.212393 -0.359120 0.497276
v -0.203608 -0.209120 0.402874
v -0.158047 -0.240774 0.443474
v -0.193627 -0.240774 0.397076
v -0.166198 -0.209120 0.451576
v -0.215997 -0.240774 0.343075
v -0.193627 -0.240774 0.397076
v -0.227128 -0.209120 0.346077
v -0.203608 -0.209120 0.402874
v -0.223628 -0.240774 0.285175
v -0.215997 -0.240774 0.343075
v -0.235147 -0.209120 0.285175
v -0.227128 -0.209120 0.346077
v -0.215997 -0.240774 0.227177
v -0.223628 -0.240774 0.285175
v -0.235147 -0.209120 0.285175
v -0.227128 -0.209120 0.224175
v -0.193627 -0.240774 0.173176
v -0.215997 -0.240774 0.227177
v -0.227128 -0.209120 0.224175
v -0.203608 -0.209120 0.167477
v -0.158047 -0.240774 0.126877
v -0.193627 -0.240774 0.173176
v -0.203608 -0.209120 0.167477
v -0.166198 -0.209120 0.118675
v -0.149737 -0.209120 0.025375
v -0.166198 -0.209120 0.118675
v -0.117447 -0.209120 0.081276
v -0.211877 -0.209120 0.072975
v -0.203608 -0.209120 0.167477
v -0.211877 -0.209120 0.072975
v -0.259547 -0.209120 0.135174
v -0.166198 -0.209120 0.118675
v 0.000262 -0.209120 -0.014824
v -0.060668 -0.209120 0.057774
v 0.000262 -0.209120 0.049774
v -0.077388 -0.209120 -0.004623
v -0.060668 -0.209120 0.057774
v -0.149737 -0.209120 0.025375
v -0.117447 -0.209120 0.081276
v -0.077388 -0.209120 -0.004623
v -0.289517 -0.209120 0.207474
v -0.235147 -0.209120 0.285175
v -0.227128 -0.209120 0.224175
v -0.299737 -0.209120 0.285175
v -0.235147 -0.209120 0.285175
v -0.299737 -0.209120 0.285175
v -0.289517 -0.209120 0.362774
v -0.227128 -0.209120 0.346077
v -0.259547 -0.209120 0.435177
v -0.203608 -0.209120 0.402874
v -0.289517 -0.209120 0.362774
v -0.227128 -0.209120 0.346077
v -0.289517 -0.209120 0.207474
v -0.203608 -0.209120 0.167477
v -0.259547 -0.209120 0.135174
v -0.227128 -0.209120 0.224175
v -0.117447 -0.209120 0.488976
v -0.211877 -0.209120 0.497276
v -0.149737 -0.209120 0.544975
v -0.166198 -0.209120 0.451576
v -0.060668 -0.209120 0.512573
v -0.149737 -0.209120 0.544975
v -0.077388 -0.209120 0.574974
v -0.117447 -0.209120 0.488976
v 0.000262 -0.209120 0.520576
v -0.077388 -0.209120 0.574974
v 0.000262 -0.209120 0.585175
v -0.077388 -0.209120 0.574974
v 0.000262 -0.209120 0.520576
v -0.060668 -0.209120 0.512573
v -0.166198 -0.209120 0.451576
v -0.259547 -0.209120 0.435177
v -0.211877 -0.209120 0.497276
v -0.203608 -0.209120 0.402874
v 0.000262 -0.209120 0.585175
v 0.061182 -0.209120 0.512573
v 0.000262 -0.209120 0.520576
v 0.077903 -0.209120 0.574974
v 0.077903 -0.209120 0.574974
v 0.117963 -0.209120 0.488976
v 0.061182 -0.209120 0.512573
v 0.150263 -0.209120 0.544975
v 0.117963 -0.209120 0.488976
v 0.150263 -0.209120 0.544975
v 0.166713 -0.209120 0.451576
v 0.212393 -0.209120 0.497276
v 0.260062 -0.209120 0.435177
v 0.204123 -0.209120 0.402874
v 0.212393 -0.209120 0.497276
v 0.166713 -0.209120 0.451576
v 0.227643 -0.209120 0.224175
v 0.260062 -0.209120 0.135174
v 0.204123 -0.209120 0.167477
v 0.290033 -0.209120 0.207474
v 0.260062 -0.209120 0.435177
v 0.290033 -0.209120 0.362774
v 0.204123 -0.209120 0.402874
v 0.227643 -0.209120 0.346077
v 0.227643 -0.209120 0.346077
v 0.300262 -0.209120 0.285175
v 0.235662 -0.209120 0.285175
v 0.300262 -0.209120 0.285175
v 0.227643 -0.209120 0.346077
v 0.290033 -0.209120 0.362774
v 0.235662 -0.209120 0.285175
v 0.290033 -0.209120 0.207474
v 0.227643 -0.209120 0.224175
v 0.300262 -0.209120 0.285175
v 0.150263 -0.209120 0.025375
v 0.061182 -0.209120 0.057774
v 0.117963 -0.209120 0.081276
v 0.077903 -0.209120 -0.004623
v 0.077903 -0.209120 -0.004623
v 0.000262 -0.209120 -0.014824
v 0.061182 -0.209120 0.057774
v 0.000262 -0.209120 0.049774
v 0.204123 -0.209120 0.167477
v 0.212393 -0.209120 0.072975
v 0.166713 -0.209120 0.118675
v 0.260062 -0.209120 0.135174
v 0.166713 -0.209120 0.118675
v 0.212393 -0.209120 0.072975
v 0.117963 -0.209120 0.081276
v 0.150263 -0.209120 0.025375
v 0.070523 -0.306542 0.266274
v 0.133913 -0.291992 0.249374
v 0.063252 -0.306542 0.248776
v 0.000262 -0.311555 0.285175
v 0.120093 -0.291992 0.215977
v 0.184212 -0.269330 0.235874
v 0.165193 -0.269330 0.189976
v 0.216512 -0.240774 0.227177
v 0.194153 -0.240774 0.173176
v 0.184212 -0.269330 0.235874
v 0.138623 -0.291992 0.285175
v 0.190702 -0.269330 0.285175
v 0.224143 -0.240774 0.285175
v 0.133913 -0.291992 0.249374
v 0.216512 -0.240774 0.227177
v 0.070523 -0.306542 0.266274
v 0.073003 -0.306542 0.285175
v 0.000262 -0.311555 0.285175
v 0.224143 -0.240774 0.285175
v 0.184212 -0.269330 0.334477
v 0.216512 -0.240774 0.343075
v 0.190702 -0.269330 0.285175
v 0.138623 -0.291992 0.285175
v 0.133913 -0.291992 0.320976
v 0.070523 -0.306542 0.303974
v 0.073003 -0.306542 0.285175
v 0.000262 -0.311555 0.285175
v 0.000262 -0.311555 0.285175
v 0.063252 -0.306542 0.321575
v 0.070523 -0.306542 0.303974
v 0.133913 -0.291992 0.320976
v 0.120093 -0.291992 0.354374
v 0.184212 -0.269330 0.334477
v 0.165193 -0.269330 0.380375
v 0.216512 -0.240774 0.343075
v 0.194153 -0.240774 0.397076
v 0.158572 -0.240774 0.443474
v 0.194153 -0.240774 0.397076
v 0.165193 -0.269330 0.380375
v 0.134923 -0.269330 0.419777
v 0.098103 -0.291992 0.382977
v 0.120093 -0.291992 0.354374
v 0.051692 -0.306542 0.336575
v 0.063252 -0.306542 0.321575
v 0.000262 -0.311555 0.285175
v 0.036633 -0.306542 0.348175
v 0.098103 -0.291992 0.382977
v 0.051692 -0.306542 0.336575
v 0.000262 -0.311555 0.285175
v 0.069443 -0.291992 0.404976
v 0.095483 -0.269330 0.450073
v 0.134923 -0.269330 0.419777
v 0.112203 -0.240774 0.479076
v 0.158572 -0.240774 0.443474
v 0.036072 -0.291992 0.418774
v 0.095483 -0.269330 0.450073
v 0.069443 -0.291992 0.404976
v 0.036633 -0.306542 0.348175
v 0.019083 -0.306542 0.355373
v 0.000262 -0.311555 0.285175
v 0.049552 -0.269330 0.469074
v 0.058203 -0.240774 0.501373
v 0.112203 -0.240774 0.479076
v -0.049037 -0.269330 0.469074
v 0.000262 -0.240774 0.509075
v 0.000262 -0.269330 0.475575
v -0.057688 -0.240774 0.501373
v -0.035558 -0.291992 0.418774
v 0.000262 -0.291992 0.423473
v -0.018568 -0.306542 0.355373
v 0.000262 -0.306542 0.357876
v 0.000262 -0.311555 0.285175
v -0.049037 -0.269330 0.469074
v -0.094967 -0.269330 0.450073
v -0.111687 -0.240774 0.479076
v -0.068928 -0.291992 0.404976
v -0.057688 -0.240774 0.501373
v -0.035558 -0.291992 0.418774
v -0.036118 -0.306542 0.348175
v -0.018568 -0.306542 0.355373
v 0.000262 -0.311555 0.285175
v 0.000262 -0.311555 0.285175
v -0.051178 -0.306542 0.336575
v -0.036118 -0.306542 0.348175
v -0.097587 -0.291992 0.382977
v -0.068928 -0.291992 0.404976
v -0.094967 -0.269330 0.450073
v -0.134408 -0.269330 0.419777
v -0.111687 -0.240774 0.479076
v -0.158047 -0.240774 0.443474
v -0.158047 -0.240774 0.443474
v -0.193627 -0.240774 0.397076
v -0.164677 -0.269330 0.380375
v -0.134408 -0.269330 0.419777
v -0.097587 -0.291992 0.382977
v -0.119577 -0.291992 0.354374
v -0.051178 -0.306542 0.336575
v -0.062737 -0.306542 0.321575
v 0.000262 -0.311555 0.285175
v -0.119577 -0.291992 0.354374
v -0.070008 -0.306542 0.303974
v -0.133398 -0.291992 0.320976
v -0.062737 -0.306542 0.321575
v 0.000262 -0.311555 0.285175
v -0.164677 -0.269330 0.380375
v -0.183697 -0.269330 0.334477
v -0.215997 -0.240774 0.343075
v -0.193627 -0.240774 0.397076
v -0.068928 -0.291992 0.165276
v -0.036118 -0.306542 0.222176
v -0.035558 -0.291992 0.151474
v -0.018568 -0.306542 0.214874
v 0.000262 -0.311555 0.285175
v -0.049037 -0.269330 0.101173
v -0.094967 -0.269330 0.120174
v -0.111687 -0.240774 0.091274
v -0.057688 -0.240774 0.068874
v 0.000262 -0.269330 0.094677
v -0.049037 -0.269330 0.101173
v -0.035558 -0.291992 0.151474
v -0.057688 -0.240774 0.068874
v 0.000262 -0.291992 0.146774
v 0.000262 -0.240774 0.061276
v -0.018568 -0.306542 0.214874
v 0.000262 -0.306542 0.212376
v 0.000262 -0.311555 0.285175
v 0.000262 -0.269330 0.094677
v 0.036072 -0.291992 0.151474
v 0.049552 -0.269330 0.101173
v 0.058203 -0.240774 0.068874
v 0.000262 -0.291992 0.146774
v 0.000262 -0.240774 0.061276
v 0.019083 -0.306542 0.214874
v 0.000262 -0.306542 0.212376
v 0.000262 -0.311555 0.285175
v 0.000262 -0.311555 0.285175
v 0.036633 -0.306542 0.222176
v 0.019083 -0.306542 0.214874
v 0.036072 -0.291992 0.151474
v 0.069443 -0.291992 0.165276
v 0.049552 -0.269330 0.101173
v 0.095483 -0.269330 0.120174
v 0.058203 -0.240774 0.068874
v 0.112203 -0.240774 0.091274
v 0.158572 -0.240774 0.126877
v 0.112203 -0.240774 0.091274
v 0.134923 -0.269330 0.150475
v 0.095483 -0.269330 0.120174
v 0.069443 -0.291992 0.165276
v 0.098103 -0.291992 0.187275
v 0.036633 -0.306542 0.222176
v 0.051692 -0.306542 0.233677
v 0.000262 -0.311555 0.285175
v 0.063252 -0.306542 0.248776
v 0.098103 -0.291992 0.187275
v 0.051692 -0.306542 0.233677
v 0.000262 -0.311555 0.285175
v 0.120093 -0.291992 0.215977
v 0.134923 -0.269330 0.150475
v 0.165193 -0.269330 0.189976
v 0.158572 -0.240774 0.126877
v 0.194153 -0.240774 0.173176
v 0.000262 -0.269330 0.475575
v 0.036072 -0.291992 0.418774
v 0.000262 -0.291992 0.423473
v 0.049552 -0.269330 0.469074
v 0.019083 -0.306542 0.355373
v 0.000262 -0.306542 0.357876
v 0.000262 -0.311555 0.285175
v 0.000262 -0.240774 0.509075
v 0.058203 -0.240774 0.501373
v -0.190187 -0.269330 0.285175
v -0.133398 -0.291992 0.320976
v -0.138108 -0.291992 0.285175
v -0.072487 -0.306542 0.285175
v -0.070008 -0.306542 0.303974
v 0.000262 -0.311555 0.285175
v -0.183697 -0.269330 0.334477
v -0.223628 -0.240774 0.285175
v -0.215997 -0.240774 0.343075
v -0.183697 -0.269330 0.235874
v -0.138108 -0.291992 0.285175
v -0.133398 -0.291992 0.249374
v -0.190187 -0.269330 0.285175
v -0.072487 -0.306542 0.285175
v -0.070008 -0.306542 0.266274
v 0.000262 -0.311555 0.285175
v -0.215997 -0.240774 0.227177
v -0.223628 -0.240774 0.285175
v -0.193627 -0.240774 0.173176
v -0.183697 -0.269330 0.235874
v -0.164677 -0.269330 0.189976
v -0.119577 -0.291992 0.215977
v -0.215997 -0.240774 0.227177
v -0.133398 -0.291992 0.249374
v -0.062737 -0.306542 0.248776
v -0.070008 -0.306542 0.266274
v 0.000262 -0.311555 0.285175
v 0.000262 -0.311555 0.285175
v -0.051178 -0.306542 0.233677
v -0.062737 -0.306542 0.248776
v -0.097587 -0.291992 0.187275
v -0.119577 -0.291992 0.215977
v -0.164677 -0.269330 0.189976
v -0.134408 -0.269330 0.150475
v -0.158047 -0.240774 0.126877
v -0.193627 -0.240774 0.173176
v -0.036118 -0.306542 0.222176
v -0.097587 -0.291992 0.187275
v -0.051178 -0.306542 0.233677
v 0.000262 -0.311555 0.285175
v -0.068928 -0.291992 0.165276
v -0.134408 -0.269330 0.150475
v -0.094967 -0.269330 0.120174
v -0.111687 -0.240774 0.091274
v -0.158047 -0.240774 0.126877
v -0.077388 -0.359120 0.574974
v 0.000262 -0.359120 0.585175
v -0.077388 -0.209120 0.574974
v 0.000262 -0.209120 0.585175
v -0.149737 -0.209120 0.544975
v -0.149737 -0.359120 0.544975
v -0.211877 -0.209120 0.497276
v -0.211877 -0.359120 0.497276
v 0.212393 -0.209120 0.497276
v 0.212393 -0.359120 0.497276
v 0.150263 -0.209120 0.544975
v 0.150263 -0.359120 0.544975
v 0.077903 -0.209120 0.574974
v 0.077903 -0.359120 0.574974
v 0.000262 -0.209120 0.585175
v 0.000262 -0.359120 0.585175
v -0.111687 -0.240774 0.091274
v -0.057688 -0.240774 0.068874
v -0.060668 -0.209120 0.057774
v -0.117447 -0.209120 0.081276
v -0.057688 -0.240774 0.068874
v 0.000262 -0.240774 0.061276
v 0.000262 -0.209120 0.049774
v -0.060668 -0.209120 0.057774
v 0.058203 -0.240774 0.068874
v 0.000262 -0.240774 0.061276
v 0.000262 -0.209120 0.049774
v 0.061182 -0.209120 0.057774
v 0.058203 -0.240774 0.068874
v 0.112203 -0.240774 0.091274
v 0.061182 -0.209120 0.057774
v 0.117963 -0.209120 0.081276
v 0.158572 -0.240774 0.126877
v 0.117963 -0.209120 0.081276
v 0.112203 -0.240774 0.091274
v 0.166713 -0.209120 0.118675
v -0.111687 -0.240774 0.091274
v -0.158047 -0.240774 0.126877
v -0.117447 -0.209120 0.081276
v -0.166198 -0.209120 0.118675
v -0.211877 -0.209120 0.497276
v -0.211877 -0.359120 0.497276
v -0.259547 -0.209120 0.435177
v -0.259547 -0.359120 0.435177
v -0.289517 -0.209120 0.362774
v -0.289517 -0.359120 0.362774
v -0.299737 -0.209120 0.285175
v -0.299737 -0.359120 0.285175
v -0.289517 -0.209120 0.207474
v -0.289517 -0.359120 0.207474
v -0.259547 -0.209120 0.135174
v -0.259547 -0.359120 0.135174
v -0.211877 -0.209120 0.072975
v -0.211877 -0.359120 0.072975
v 0.216512 -0.240774 0.227177
v 0.194153 -0.240774 0.173176
v 0.227643 -0.209120 0.224175
v 0.204123 -0.209120 0.167477
v 0.224143 -0.240774 0.285175
v 0.216512 -0.240774 0.227177
v 0.235662 -0.209120 0.285175
v 0.227643 -0.209120 0.224175
v 0.224143 -0.240774 0.285175
v 0.216512 -0.240774 0.343075
v 0.235662 -0.209120 0.285175
v 0.227643 -0.209120 0.346077
v 0.216512 -0.240774 0.343075
v 0.194153 -0.240774 0.397076
v 0.227643 -0.209120 0.346077
v 0.204123 -0.209120 0.402874
v 0.204123 -0.209120 0.402874
v 0.158572 -0.240774 0.443474
v 0.166713 -0.209120 0.451576
v 0.194153 -0.240774 0.397076
v 0.158572 -0.240774 0.126877
v 0.194153 -0.240774 0.173176
v 0.204123 -0.209120 0.167477
v 0.166713 -0.209120 0.118675
v 0.212393 -0.359120 0.072975
v -0.259547 -0.359120 0.435177
v -0.149737 -0.359120 0.025375
v 0.077903 -0.359120 -0.004623
v 0.150263 -0.359120 0.025375
v 0.000262 -0.359120 -0.014824
v -0.077388 -0.359120 -0.004623
v 0.212393 -0.359120 0.497276
v 0.260062 -0.359120 0.135174
v -0.299737 -0.359120 0.285175
v -0.289517 -0.359120 0.362774
v -0.289517 -0.359120 0.207474
v -0.211877 -0.359120 0.072975
v -0.259547 -0.359120 0.135174
v 0.300262 -0.359120 0.285175
v 0.290033 -0.359120 0.207474
v 0.260062 -0.359120 0.435177
v 0.290033 -0.359120 0.362774
v -0.149737 -0.359120 0.544975
v -0.211877 -0.359120 0.497276
v 0.000262 -0.359120 0.585175
v -0.077388 -0.359120 0.574974
v 0.150263 -0.359120 0.544975
v 0.077903 -0.359120 0.574974
v -0.211877 -0.209120 0.072975
v -0.211877 -0.359120 0.072975
v -0.149737 -0.209120 0.025375
v -0.149737 -0.359120 0.025375
v -0.077388 -0.209120 -0.004623
v -0.077388 -0.359120 -0.004623
v 0.000262 -0.209120 -0.014824
v 0.000262 -0.359120 -0.014824
v 0.077903 -0.209120 -0.004623
v 0.077903 -0.359120 -0.004623
v 0.150263 -0.209120 0.025375
v 0.150263 -0.359120 0.025375
v 0.212393 -0.209120 0.072975
v 0.212393 -0.359120 0.072975
v 0.112203 -0.240774 0.479076
v 0.158572 -0.240774 0.443474
v 0.117963 -0.209120 0.488976
v 0.166713 -0.209120 0.451576
v 0.058203 -0.240774 0.501373
v 0.112203 -0.240774 0.479076
v 0.061182 -0.209120 0.512573
v 0.117963 -0.209120 0.488976
v 0.000262 -0.240774 0.509075
v -0.057688 -0.240774 0.501373
v 0.000262 -0.209120 0.520576
v -0.060668 -0.209120 0.512573
v -0.111687 -0.240774 0.479076
v -0.057688 -0.240774 0.501373
v -0.060668 -0.209120 0.512573
v -0.117447 -0.209120 0.488976
v -0.111687 -0.240774 0.479076
v -0.158047 -0.240774 0.443474
v -0.117447 -0.209120 0.488976
v -0.166198 -0.209120 0.451576
v 0.000262 -0.240774 0.509075
v 0.058203 -0.240774 0.501373
v 0.000262 -0.209120 0.520576
v 0.061182 -0.209120 0.512573
vn -0.6624 -0.7491 -0.0000
vn -0.6285 -0.7778 -0.0000
vn -0.6624 -0.7492 -0.0000
vn -0.7526 -0.6585 -0.0000
vn -0.8896 -0.4567 -0.0000
vn -0.8897 -0.4566 -0.0000
vn -0.9821 -0.1886 -0.0000
vn -1.0000 -0.0000 -0.0000
vn -0.9821 0.1886 -0.0000
vn -0.8896 0.4566 -0.0000
vn -0.8896 0.4567 -0.0000
vn -0.7526 0.6584 -0.0000
vn -0.7526 0.6585 -0.0000
vn -0.6624 0.7492 -0.0000
vn -0.6285 0.7778 -0.0000
vn 0.6624 -0.7491 -0.0000
vn 0.6285 -0.7778 -0.0000
vn 0.7526 -0.6585 -0.0000
vn 0.8896 -0.4567 -0.0000
vn 0.8897 -0.4566 -0.0000
vn 0.9821 -0.1886 -0.0000
vn 1.0000 -0.0000 -0.0000
vn 0.9821 0.1886 -0.0000
vn 0.8897 0.4566 -0.0000
vn 0.8896 0.4566 -0.0000
vn 0.7526 0.6585 -0.0000
vn 0.6624 0.7492 -0.0000
vn 0.6624 0.7491 -0.0000
vn 0.6285 0.7778 -0.0000
vn -0.6286 -0.7778 -0.0000
vn -0.9821 -0.1885 -0.0000
vn -0.8897 0.4566 -0.0000
vn 0.6286 -0.7778 -0.0000
vn 0.6624 -0.7492 -0.0000
vn 0.7525 -0.6585 -0.0000
vn 0.9821 -0.1885 -0.0000
vn 0.9718 -0.0553 -0.2291
vn 0.9718 -0.0553 0.2291
vn 0.0945 -0.9690 -0.2284
vn 0.0946 -0.9689 0.2285
vn 0.1025 -0.0630 0.9927
vn 0.9718 0.0553 0.2291
vn -0.1024 -0.0631 0.9927
vn -0.0945 -0.9690 0.2284
vn -0.9718 -0.0553 0.2291
vn 0.1024 0.0631 0.9927
vn 0.0945 0.9690 0.2284
vn -0.0945 0.9690 0.2284
vn -0.1025 0.0631 0.9927
vn -0.9718 0.0553 0.2291
vn -0.9718 0.0553 -0.2292
vn -0.9718 0.0552 0.2291
vn -0.0945 0.9690 -0.2285
vn 0.0946 -0.9689 -0.2285
vn -0.0946 -0.9689 -0.2285
vn 0.1025 -0.0630 -0.9927
vn 0.0945 -0.9690 0.2284
vn -0.0946 -0.9690 0.2284
vn 0.9718 -0.0553 -0.2292
vn -0.9718 -0.0554 -0.2291
vn -0.9718 -0.0554 0.2291
vn -0.1025 -0.0631 -0.9927
vn -0.1024 0.0631 -0.9927
vn -0.0946 0.9689 -0.2285
vn -0.0946 0.9690 0.2284
vn 0.1024 0.0631 -0.9927
vn 0.0946 0.9689 -0.2285
vn 0.0946 0.9690 0.2284
vn 0.9718 0.0554 -0.2292
vn 0.9718 0.0554 0.2291
vn -0.3228 -0.7638 0.5590
vn 0.3228 -0.7638 0.5590
vn 0.4483 -0.4247 0.7865
vn -0.0000 -1.0000 0.0001
vn 0.6456 -0.7637 -0.0000
vn -0.6456 -0.7637 -0.0000
vn 0.9052 -0.4250 -0.0000
vn -0.9052 -0.4250 -0.0000
vn -0.4483 -0.4247 0.7865
vn -0.4970 -0.0000 0.8678
vn 0.4970 -0.0000 0.8677
vn -0.4483 0.4247 0.7865
vn -0.9052 0.4250 -0.0000
vn 0.4483 0.4247 0.7865
vn 0.9052 0.4250 -0.0000
vn -0.3228 0.7638 0.5590
vn -0.6456 0.7637 -0.0000
vn -0.0000 1.0000 -0.0000
vn 0.3228 0.7638 0.5590
vn 0.6456 0.7637 -0.0000
vn 0.3228 -0.7637 -0.5590
vn -0.0000 -1.0000 -0.0000
vn 0.4483 -0.4248 -0.7865
vn -0.3228 -0.7638 -0.5590
vn -0.9052 -0.4251 -0.0000
vn -0.4483 -0.4247 -0.7865
vn -0.5029 -0.0000 -0.8643
vn 0.5029 -0.0000 -0.8644
vn -0.4483 0.4247 -0.7865
vn 0.4483 0.4248 -0.7865
vn 0.9052 0.4251 -0.0000
vn -0.3225 0.7638 -0.5591
vn -0.6456 0.7637 -0.0001
vn 0.3228 0.7637 -0.5590
vn -0.0000 -0.0000 -1.0000
vn 0.0001 -0.0000 -1.0000
vn 0.0002 -0.0000 -1.0000
vn -0.0002 -0.0000 -1.0000
vn -0.0000 -0.0000 1.0000
vn -0.0001 -0.0000 1.0000
vn 0.0001 -0.0000 1.0000
vn 0.0002 -0.0000 1.0000
vn 0.0003 -0.0000 1.0000
vn -0.0002 -0.0000 1.0000
vn -0.0001 -0.0000 -1.0000
vn -0.9414 0.3373 -0.0000
vn 0.9414 0.3373 -0.0000
vn 0.4973 0.1106 0.8605
vn -0.4896 0.1816 0.8528
vn -0.4973 0.1106 0.8605
vn -0.9939 0.1105 -0.0000
vn -0.9835 0.1810 -0.0000
vn 0.4896 0.1816 0.8528
vn 0.9939 0.1104 -0.0000
vn 0.9835 0.1809 -0.0000
vn 0.4896 0.1816 -0.8528
vn 0.4974 0.1105 -0.8605
vn -0.4973 0.1106 -0.8605
vn 0.9835 0.1810 -0.0000
vn -0.4896 0.1816 -0.8528
vn -0.9939 0.1104 -0.0000
vn -0.9835 0.1809 -0.0000
vn -0.9414 -0.3374 -0.0000
vn -0.9414 -0.3373 -0.0000
vn 0.9414 -0.3374 -0.0000
vn 0.9414 -0.3373 -0.0000
vn -0.9591 0.2830 -0.0000
vn -0.9591 -0.2830 -0.0000
vn -0.8247 0.5655 -0.0000
vn -0.8247 0.5656 -0.0000
vn -0.8247 -0.5655 -0.0000
vn -0.6669 0.7451 -0.0000
vn -0.6668 0.7452 -0.0000
vn -0.6499 0.7600 -0.0000
vn -0.6669 -0.7451 -0.0000
vn -0.6668 -0.7452 -0.0000
vn -0.6499 -0.7600 -0.0000
vn 0.9591 0.2830 -0.0000
vn 0.9591 -0.2830 -0.0000
vn 0.8247 0.5655 -0.0000
vn 0.8247 -0.5655 -0.0000
vn 0.6669 0.7452 -0.0000
vn 0.6499 0.7600 -0.0000
vn 0.6503 0.7597 -0.0000
vn 0.6669 -0.7452 -0.0000
vn 0.6499 -0.7600 -0.0000
vn 0.6503 -0.7597 -0.0000
vn -0.8247 -0.5656 -0.0000
vn -0.6669 0.7452 -0.0000
vn -0.6502 0.7597 -0.0000
vn -0.6500 0.7599 -0.0000
vn -0.6669 -0.7452 -0.0000
vn -0.6502 -0.7598 -0.0000
vn -0.6503 -0.7597 -0.0000
vn 0.6668 0.7452 -0.0000
vn 0.8247 -0.5656 -0.0000
vn 0.6500 0.7600 -0.0000
vn 0.6500 0.7599 -0.0000
vn 0.6668 -0.7452 -0.0000
vn 0.8084 0.5886 -0.0000
vn 0.9862 0.0001 -0.1657
vn 0.7956 0.5829 -0.1654
vn 1.0000 0.0001 -0.0000
vn 0.7956 -0.5829 -0.1654
vn 1.0000 -0.0001 -0.0000
vn 0.8084 -0.5886 -0.0000
vn 0.9862 -0.0000 -0.1657
vn -0.8084 0.5887 -0.0000
vn -0.3072 0.9372 -0.1654
vn -0.7955 0.5829 -0.1654
vn 0.8084 0.5887 -0.0000
vn 0.7955 0.5829 -0.1654
vn 0.3068 0.9518 -0.0000
vn 0.3072 0.9372 -0.1654
vn -0.3068 0.9518 -0.0000
vn -0.3071 0.9372 -0.1654
vn 0.3071 0.9372 -0.1654
vn 0.3067 0.9518 -0.0000
vn -0.8084 0.5886 -0.0000
vn -0.7956 0.5829 -0.1654
vn -0.9862 -0.0000 -0.1656
vn -0.8084 -0.5886 -0.0000
vn -0.7956 -0.5829 -0.1654
vn 0.3072 -0.9372 -0.1653
vn 0.7955 -0.5829 -0.1654
vn 0.8084 -0.5887 -0.0000
vn -0.7955 -0.5829 -0.1654
vn -0.3068 -0.9518 -0.0000
vn -0.8084 -0.5887 -0.0000
vn -0.3071 -0.9372 -0.1654
vn 0.3068 -0.9518 -0.0000
vn 0.3071 -0.9372 -0.1654
vn -0.3071 0.9372 -0.1653
vn 0.0157 0.0394 -0.9991
vn 0.0393 0.0236 -0.9989
vn 0.9862 -0.0000 -0.1656
vn -0.0157 0.0394 -0.9991
vn 0.0472 -0.0000 -0.9989
vn -0.0394 0.0236 -0.9989
vn -0.0472 -0.0000 -0.9989
vn -0.0394 -0.0237 -0.9989
vn -0.3071 -0.9372 -0.1653
vn -0.0158 -0.0394 -0.9991
vn 0.0157 -0.0394 -0.9991
vn 0.3071 -0.9372 -0.1653
vn 0.0393 -0.0236 -0.9989
vn 0.8644 -0.0000 -0.5029
vn 0.7071 -0.0000 -0.7071
vn 0.8643 -0.0000 -0.5029
vn 0.9659 -0.0000 -0.2590
vn 0.9658 -0.0000 -0.2593
vn 1.0000 -0.0000 0.0001
vn 0.9659 -0.0000 0.2588
vn 0.9658 -0.0000 0.2593
vn 0.8644 -0.0000 0.5029
vn 0.8643 -0.0000 0.5029
vn 0.7071 -0.0000 0.7071
vn 0.8128 0.3393 -0.4735
vn 0.5927 0.5453 -0.5927
vn 0.7266 0.5449 -0.4186
vn 0.6649 0.3404 -0.6649
vn 0.9082 0.3396 -0.2448
vn 0.8104 0.5429 -0.2203
vn 0.8128 0.3393 -0.4734
vn 0.9405 0.3398 -0.0000
vn 0.8104 0.5428 -0.2203
vn 0.8381 0.5455 -0.0000
vn 0.8104 0.5429 0.2203
vn 0.9082 0.3396 0.2448
vn 0.7266 0.5449 0.4185
vn 0.8104 0.5428 0.2203
vn 0.8128 0.3393 0.4735
vn 0.5928 0.5453 0.5927
vn 0.7266 0.5449 0.4186
vn 0.6649 0.3404 0.6649
vn -0.1413 0.9892 0.0393
vn -0.3081 0.9481 0.0790
vn -0.1257 0.9896 0.0707
vn -0.2765 0.9479 0.1580
vn -0.5254 0.8391 0.1412
vn -0.4713 0.8405 0.2671
vn -0.8104 0.5429 0.2203
vn -0.7266 0.5449 0.4185
vn -0.5254 0.8391 0.1411
vn -0.3162 0.9487 -0.0000
vn -0.5419 0.8404 -0.0000
vn -0.8381 0.5456 -0.0000
vn -0.1491 0.9888 -0.0000
vn -0.5254 0.8391 -0.1411
vn -0.8104 0.5429 -0.2203
vn -0.3081 0.9481 -0.0790
vn -0.1413 0.9892 -0.0392
vn -0.1257 0.9896 -0.0707
vn -0.1413 0.9892 -0.0393
vn -0.2765 0.9479 -0.1580
vn -0.5254 0.8391 -0.1412
vn -0.4713 0.8405 -0.2671
vn -0.7265 0.5449 -0.4186
vn -0.5927 0.5453 -0.5927
vn -0.3844 0.8394 -0.3844
vn -0.2287 0.9463 -0.2287
vn -0.1021 0.9895 -0.1021
vn -0.0707 0.9896 -0.1257
vn -0.1580 0.9479 -0.2765
vn -0.2671 0.8405 -0.4713
vn -0.4185 0.5449 -0.7265
vn -0.0790 0.9481 -0.3081
vn -0.0393 0.9892 -0.1413
vn -0.1411 0.8391 -0.5254
vn -0.2203 0.5429 -0.8104
vn -0.4185 0.5449 -0.7266
vn 0.1411 0.8391 -0.5254
vn -0.0000 0.5456 -0.8381
vn -0.0000 0.8404 -0.5419
vn 0.2203 0.5429 -0.8104
vn 0.0790 0.9481 -0.3081
vn -0.0000 0.9487 -0.3162
vn 0.0392 0.9892 -0.1413
vn -0.0000 0.9888 -0.1491
vn 0.1412 0.8391 -0.5254
vn 0.2671 0.8405 -0.4713
vn 0.4185 0.5450 -0.7265
vn 0.1580 0.9479 -0.2765
vn 0.0707 0.9896 -0.1257
vn 0.0393 0.9892 -0.1413
vn 0.1021 0.9895 -0.1021
vn 0.2287 0.9463 -0.2287
vn 0.3844 0.8394 -0.3844
vn 0.4186 0.5450 -0.7265
vn 0.5927 0.5454 -0.5927
vn 0.4713 0.8405 -0.2671
vn 0.7265 0.5450 -0.4185
vn 0.2765 0.9479 -0.1580
vn 0.1257 0.9896 -0.0707
vn 0.1413 0.9892 -0.0393
vn 0.3081 0.9481 -0.0790
vn 0.5254 0.8391 -0.1412
vn 0.1580 0.9479 0.2765
vn 0.0707 0.9896 0.1257
vn 0.0790 0.9481 0.3081
vn 0.0392 0.9892 0.1413
vn 0.1412 0.8391 0.5254
vn 0.2671 0.8405 0.4713
vn 0.4185 0.5449 0.7266
vn 0.2203 0.5429 0.8104
vn -0.0000 0.8404 0.5419
vn 0.1411 0.8391 0.5254
vn -0.0000 0.9487 0.3162
vn -0.0000 0.5456 0.8381
vn 0.0393 0.9892 0.1413
vn -0.0000 0.9888 0.1491
vn -0.0790 0.9481 0.3081
vn -0.1411 0.8391 0.5254
vn -0.2203 0.5429 0.8104
vn -0.0392 0.9892 0.1413
vn -0.0707 0.9896 0.1257
vn -0.1580 0.9479 0.2765
vn -0.1412 0.8391 0.5254
vn -0.2671 0.8405 0.4713
vn -0.4185 0.5450 0.7265
vn -0.4186 0.5449 0.7265
vn -0.3844 0.8394 0.3844
vn -0.5927 0.5453 0.5927
vn -0.2287 0.9463 0.2287
vn -0.1021 0.9895 0.1021
vn -0.1256 0.9896 0.0707
vn -0.3844 0.8394 0.3843
vn -0.7265 0.5450 0.4185
vn -0.1412 0.8391 -0.5254
vn -0.0000 0.5456 -0.8380
vn 0.5419 0.8404 -0.0000
vn 0.3162 0.9487 -0.0000
vn 0.1491 0.9888 -0.0000
vn 0.5254 0.8391 -0.1411
vn 0.8381 0.5456 -0.0000
vn 0.5254 0.8391 0.1411
vn 0.3081 0.9481 0.0790
vn 0.1413 0.9892 0.0392
vn 0.7265 0.5449 0.4186
vn 0.5254 0.8391 0.1412
vn 0.4713 0.8405 0.2671
vn 0.2765 0.9479 0.1580
vn 0.1257 0.9896 0.0707
vn 0.1413 0.9892 0.0393
vn 0.1021 0.9895 0.1021
vn 0.2287 0.9463 0.2287
vn 0.3844 0.8394 0.3844
vn 0.5927 0.5453 0.5927
vn 0.4185 0.5450 0.7265
vn -0.2592 -0.0000 0.9658
vn -0.2588 -0.0000 0.9659
vn -0.5029 -0.0000 0.8644
vn -0.7071 -0.0000 0.7071
vn 0.5029 -0.0000 0.8644
vn 0.2592 -0.0000 0.9658
vn 0.4186 0.5449 0.7266
vn 0.2448 0.3396 0.9082
vn 0.4735 0.3393 0.8128
vn 0.2203 0.5428 0.8104
vn -0.0000 0.5455 0.8381
vn -0.0000 0.3398 0.9405
vn -0.0001 0.3398 0.9405
vn -0.2448 0.3396 0.9082
vn -0.4185 0.5449 0.7266
vn -0.2203 0.5428 0.8104
vn -0.4735 0.3393 0.8128
vn -0.5927 0.5453 0.5928
vn -0.4186 0.5449 0.7266
vn -0.6649 0.3404 0.6649
vn 0.5927 0.5453 0.5928
vn -0.8644 -0.0000 0.5029
vn -0.9659 -0.0000 0.2591
vn -1.0000 -0.0000 0.0001
vn -0.9659 -0.0000 -0.2589
vn -0.9658 -0.0000 -0.2592
vn -0.8643 -0.0000 -0.5029
vn -0.8644 -0.0000 -0.5029
vn -0.7071 -0.0000 -0.7071
vn -0.7266 0.5449 0.4186
vn -0.9082 0.3396 0.2448
vn -0.8128 0.3393 0.4735
vn -0.8381 0.5455 -0.0000
vn -0.9405 0.3398 -0.0000
vn -0.9082 0.3396 -0.2448
vn -0.7266 0.5449 -0.4185
vn -0.8104 0.5428 -0.2203
vn -0.8128 0.3393 -0.4735
vn -0.6649 0.3404 -0.6649
vn -0.7266 0.5449 -0.4186
vn -0.5928 0.5453 0.5927
vn -0.5029 -0.0000 -0.8644
vn -0.2589 -0.0000 -0.9659
vn -0.2588 -0.0000 -0.9659
vn 0.2592 -0.0000 -0.9658
vn 0.2588 -0.0000 -0.9659
vn 0.5029 -0.0000 -0.8643
vn -0.4186 0.5449 -0.7266
vn -0.4735 0.3393 -0.8128
vn -0.2448 0.3396 -0.9082
vn -0.0000 0.3399 -0.9405
vn -0.0000 0.5455 -0.8381
vn 0.2448 0.3386 -0.9085
vn 0.4186 0.5449 -0.7266
vn 0.2448 0.3396 -0.9082
vn 0.4735 0.3393 -0.8128
vn 0.5927 0.5453 -0.5928
vn -0.0000 0.3398 -0.9405
vt 0.847099 0.117608
vt 0.845146 0.056593
vt 0.848869 0.183256
vt 0.850272 0.258168
vt 0.851187 0.358399
vt 0.851493 0.500000
vt 0.851187 0.641601
vt 0.850272 0.741832
vt 0.848869 0.816744
vt 0.847099 0.882392
vt 0.845146 0.943407
vt 0.828283 0.117608
vt 0.830236 0.056593
vt 0.826513 0.183256
vt 0.825110 0.258168
vt 0.824194 0.358399
vt 0.823889 0.500000
vt 0.824194 0.641601
vt 0.825110 0.741832
vt 0.826513 0.816744
vt 0.828283 0.882392
vt 0.830236 0.943407
vt 0.843460 0.220879
vt 0.842034 0.176342
vt 0.844752 0.268798
vt 0.845776 0.323479
vt 0.846444 0.396640
vt 0.846667 0.500000
vt 0.846444 0.603359
vt 0.845776 0.676521
vt 0.844752 0.731202
vt 0.843460 0.779120
vt 0.842034 0.823657
vt 0.831927 0.220879
vt 0.833353 0.176342
vt 0.830635 0.268798
vt 0.829611 0.323479
vt 0.828943 0.396640
vt 0.828720 0.500000
vt 0.828943 0.603359
vt 0.829611 0.676521
vt 0.830635 0.731202
vt 0.831927 0.779120
vt 0.833353 0.823657
vt 0.285869 0.110349
vt 0.290290 0.050918
vt 0.290290 0.110349
vt 0.285869 0.889651
vt 0.325669 0.110349
vt 0.325669 0.050918
vt 0.330091 0.110349
vt 0.290290 0.889651
vt 0.290290 0.949082
vt 0.325669 0.949082
vt 0.325669 0.889651
vt 0.330091 0.889651
vt 0.565812 0.110116
vt 0.557787 0.110116
vt 0.554849 0.274900
vt 0.561800 0.049801
vt 0.553774 0.110116
vt 0.569825 0.110116
vt 0.547899 0.274900
vt 0.575700 0.274900
vt 0.545748 0.500000
vt 0.568750 0.274900
vt 0.577851 0.500000
vt 0.569825 0.500000
vt 0.553774 0.500000
vt 0.568750 0.725099
vt 0.575700 0.725099
vt 0.554849 0.725099
vt 0.547899 0.725099
vt 0.565812 0.889882
vt 0.569825 0.889882
vt 0.561800 0.950198
vt 0.557787 0.889882
vt 0.553774 0.889882
vt 0.832936 0.279052
vt 0.833980 0.244459
vt 0.831990 0.313484
vt 0.830750 0.402669
vt 0.830587 0.500000
vt 0.830750 0.597330
vt 0.831990 0.686516
vt 0.832936 0.720947
vt 0.833980 0.755540
vt 0.829665 0.197304
vt 0.831095 0.149912
vt 0.828369 0.244475
vt 0.826670 0.366658
vt 0.826446 0.500000
vt 0.826670 0.633342
vt 0.828369 0.755525
vt 0.829665 0.802696
vt 0.831095 0.850087
vt 0.845717 0.197304
vt 0.844287 0.149912
vt 0.847013 0.244475
vt 0.848712 0.366658
vt 0.848936 0.500000
vt 0.848712 0.633342
vt 0.847013 0.755525
vt 0.845717 0.802696
vt 0.844287 0.850087
vt 0.842451 0.279052
vt 0.841407 0.244459
vt 0.843397 0.313484
vt 0.844637 0.402669
vt 0.844800 0.500000
vt 0.844637 0.597330
vt 0.843397 0.686516
vt 0.842451 0.720947
vt 0.841407 0.755540
vt 0.541692 0.033956
vt 0.563227 0.966044
vt 0.573079 0.033956
vt 0.588772 0.033956
vt 0.569069 0.966044
vt 0.551544 0.966044
vt 0.525999 0.033956
vt 0.545702 0.966044
vt -0.138816 1.157620
vt -0.058198 1.086590
vt -0.058198 1.157620
vt -0.138816 1.086590
vt -0.058198 1.015550
vt -0.138816 1.015550
vt 0.006687 1.134320
vt -0.053739 1.053700
vt 0.006687 1.053700
vt -0.188854 1.134320
vt -0.188854 1.053700
vt -0.128429 1.134320
vt -0.128429 1.053700
vt -0.053739 1.134320
vt -0.043351 1.086590
vt -0.043351 1.157620
vt -0.123969 1.157620
vt -0.123969 1.086590
vt -0.043351 1.015550
vt -0.123969 1.015550
vt -0.128428 1.134320
vt -0.128428 1.053700
vt -0.053739 1.201520
vt -0.128429 1.201520
vt -0.122204 1.182370
vt -0.188854 1.157620
vt -0.172558 1.145780
vt -0.211934 1.086590
vt -0.059963 1.182370
vt 0.006687 1.157620
vt -0.191791 1.086590
vt -0.009609 1.145780
vt 0.029768 1.086590
vt 0.009624 1.086590
vt 0.006687 1.015550
vt -0.009609 1.027390
vt -0.053739 0.971651
vt -0.059963 0.990809
vt -0.122204 0.990809
vt -0.128428 0.971651
vt -0.172558 1.027390
vt -0.188854 1.015550
vt -0.414457 1.264660
vt -0.333686 1.069660
vt -0.333686 1.264660
vt -0.414457 1.069660
vt -0.508518 1.264660
vt -0.508518 1.069660
vt -0.609457 1.264660
vt -0.609457 1.069660
vt -0.710397 1.264660
vt -0.710397 1.069660
vt -0.804457 1.264660
vt -0.804457 1.069660
vt -0.885229 1.264660
vt -0.885229 1.069660
vt -0.762471 1.264660
vt -0.815260 1.223510
vt -0.754982 1.223510
vt -0.825852 1.264660
vt -0.688663 1.264660
vt -0.684787 1.223510
vt -0.609457 1.223510
vt -0.534128 1.223510
vt -0.530252 1.264660
vt -0.463932 1.223510
vt -0.456443 1.264660
vt -0.403654 1.223510
vt -0.393063 1.264660
vt -0.414457 0.829410
vt -0.393063 0.950765
vt -0.456444 0.902132
vt -0.333686 0.891388
vt -0.344429 1.014150
vt -0.271707 0.972160
vt -0.609457 0.777160
vt -0.530252 0.871559
vt -0.609457 0.861132
vt -0.508518 0.790449
vt -0.232746 1.066220
vt -0.303430 1.167160
vt -0.313857 1.087950
vt -0.219457 1.167160
vt -0.232746 1.268100
vt -0.313857 1.246370
vt -0.271708 1.362160
vt -0.344429 1.320170
vt -0.456443 1.432190
vt -0.333686 1.442930
vt -0.414457 1.504910
vt -0.393063 1.383550
vt -0.530252 1.462760
vt -0.508518 1.543870
vt -0.609457 1.473190
vt -0.609457 1.557160
vt -0.688663 1.462760
vt -0.710397 1.543870
vt -0.762471 1.432190
vt -0.804458 1.504910
vt -0.825852 1.383550
vt -0.885229 1.442930
vt -0.947208 1.362160
vt -0.874485 1.320170
vt -0.905058 1.087950
vt -0.947207 0.972160
vt -0.874485 1.014150
vt -0.986169 1.066220
vt -0.986169 1.268100
vt -0.905058 1.246370
vt -0.999457 1.167160
vt -0.915485 1.167160
vt -0.804457 0.829410
vt -0.688663 0.871559
vt -0.762471 0.902132
vt -0.710397 0.790449
vt -0.885229 0.891388
vt -0.825852 0.950765
vt -0.700803 1.142680
vt -0.783207 1.120600
vt -0.691355 1.119880
vt -0.609457 1.167160
vt -0.765237 1.077220
vt -0.848603 1.103080
vt -0.823870 1.043370
vt -0.890590 1.091830
vt -0.861514 1.021630
vt -0.789336 1.167160
vt -0.857039 1.167160
vt -0.900507 1.167160
vt -0.704025 1.167160
vt -0.848603 1.231240
vt -0.890590 1.242490
vt -0.783207 1.213720
vt -0.700803 1.191640
vt -0.691355 1.214440
vt -0.765237 1.257100
vt -0.823870 1.290950
vt -0.861514 1.312680
vt -0.815261 1.372960
vt -0.784524 1.342230
vt -0.736651 1.294350
vt -0.676327 1.234030
vt -0.656741 1.249060
vt -0.699397 1.322940
vt -0.733248 1.381570
vt -0.754982 1.419220
vt -0.656013 1.340910
vt -0.633933 1.258510
vt -0.673536 1.406310
vt -0.684787 1.448290
vt -0.545379 1.406310
vt -0.609457 1.458210
vt -0.609457 1.414740
vt -0.534128 1.448290
vt -0.562902 1.340910
vt -0.609457 1.347040
vt -0.584981 1.258510
vt -0.609457 1.261730
vt -0.485666 1.381570
vt -0.463932 1.419220
vt -0.519518 1.322940
vt -0.562173 1.249060
vt -0.542588 1.234030
vt -0.482264 1.294350
vt -0.434391 1.342230
vt -0.403654 1.372960
vt -0.395045 1.290950
vt -0.357401 1.312680
vt -0.453678 1.257100
vt -0.527559 1.214440
vt -0.518112 1.191640
vt -0.435708 1.213720
vt -0.370312 1.231240
vt -0.328325 1.242490
vt -0.519518 1.011380
vt -0.562173 1.085260
vt -0.562902 0.993410
vt -0.584981 1.075810
vt -0.545379 0.928014
vt -0.485666 0.952747
vt -0.463932 0.915103
vt -0.534128 0.886027
vt -0.609457 0.919578
vt -0.609457 0.987281
vt -0.609457 0.876110
vt -0.609457 1.072590
vt -0.656013 0.993410
vt -0.673536 0.928014
vt -0.684787 0.886027
vt -0.633933 1.075810
vt -0.656741 1.085260
vt -0.699397 1.011380
vt -0.733248 0.952747
vt -0.754982 0.915103
vt -0.784524 0.992093
vt -0.815261 0.961356
vt -0.736651 1.039970
vt -0.676327 1.100290
vt -0.361876 1.167160
vt -0.429579 1.167160
vt -0.514889 1.167160
vt -0.318408 1.167160
vt -0.370312 1.103080
vt -0.435708 1.120600
vt -0.518112 1.142680
vt -0.328325 1.091830
vt -0.357401 1.021630
vt -0.395045 1.043370
vt -0.453678 1.077220
vt -0.527559 1.119880
vt -0.542588 1.100290
vt -0.482264 1.039970
vt -0.434391 0.992093
vt -0.403654 0.961356
vt -0.456444 1.264660
vt -0.815261 1.223510
vt -0.762472 1.264660
vt -0.534129 1.223510
vt -0.463933 1.223510
vt -0.947207 1.362160
vt -0.271708 0.972160
vt -0.947208 0.972160
vt -0.271707 1.362160
vt -0.804457 1.504910
s 1
usemtl Handle1Mtl.041
f 1/1/1 2/2/2 3/2/2
f 1/1/1 3/2/2 4/1/3
f 5/3/4 1/1/1 4/1/3
f 5/3/4 4/1/3 6/3/4
f 7/4/5 5/3/4 6/3/4
f 7/4/5 6/3/4 8/4/6
f 9/5/7 7/4/5 8/4/6
f 9/5/7 8/4/6 10/5/7
f 11/6/8 9/5/7 10/5/7
f 11/6/8 10/5/7 12/6/8
f 13/7/9 11/6/8 12/6/8
f 13/7/9 12/6/8 14/7/9
f 15/8/10 13/7/9 14/7/9
f 15/8/10 14/7/9 16/8/11
f 17/9/12 15/8/10 16/8/11
f 17/9/12 16/8/11 18/9/13
f 19/10/14 17/9/12 18/9/13
f 19/10/14 18/9/13 20/10/14
f 21/11/15 19/10/14 20/10/14
f 21/11/15 20/10/14 22/11/15
f 23/12/16 24/13/17 25/13/17
f 24/13/17 23/12/16 26/12/16
f 27/14/18 26/12/16 23/12/16
f 26/12/16 27/14/18 28/14/18
f 29/15/19 28/14/18 27/14/18
f 28/14/18 29/15/19 30/15/20
f 31/16/21 30/15/20 29/15/19
f 30/15/20 31/16/21 32/16/21
f 33/17/22 32/16/21 31/16/21
f 32/16/21 33/17/22 34/17/22
f 35/18/23 34/17/22 33/17/22
f 34/17/22 35/18/23 36/18/23
f 37/19/24 36/18/23 35/18/23
f 36/18/23 37/19/24 38/19/25
f 39/20/26 38/19/25 37/19/24
f 38/19/25 39/20/26 40/20/26
f 41/21/27 40/20/26 39/20/26
f 40/20/26 41/21/27 42/21/28
f 43/22/29 42/21/28 41/21/27
f 42/21/28 43/22/29 44/22/29
f 45/23/1 46/24/2 47/24/30
f 45/23/1 47/24/30 48/23/3
f 49/25/4 45/23/1 48/23/3
f 49/25/4 48/23/3 50/25/4
f 51/26/6 49/25/4 50/25/4
f 51/26/6 50/25/4 52/26/6
f 53/27/31 51/26/6 52/26/6
f 53/27/31 52/26/6 54/27/7
f 55/28/8 53/27/31 54/27/7
f 55/28/8 54/27/7 56/28/8
f 57/29/9 55/28/8 56/28/8
f 57/29/9 56/28/8 58/29/9
f 59/30/11 57/29/9 58/29/9
f 59/30/11 58/29/9 60/30/32
f 61/31/13 59/30/11 60/30/32
f 61/31/13 60/30/32 62/31/13
f 63/32/14 61/31/13 62/31/13
f 63/32/14 62/31/13 64/32/14
f 65/33/15 63/32/14 64/32/14
f 65/33/15 64/32/14 66/33/15
f 67/34/16 68/35/33 69/35/17
f 68/35/33 67/34/16 70/34/34
f 71/36/18 70/34/34 67/34/16
f 70/34/34 71/36/18 72/36/35
f 73/37/20 72/36/35 71/36/18
f 72/36/35 73/37/20 74/37/20
f 75/38/36 74/37/20 73/37/20
f 74/37/20 75/38/36 76/38/21
f 77/39/22 76/38/21 75/38/36
f 76/38/21 77/39/22 78/39/22
f 79/40/23 78/39/22 77/39/22
f 78/39/22 79/40/23 80/40/23
f 81/41/24 80/40/23 79/40/23
f 80/40/23 81/41/24 82/41/24
f 83/42/26 82/41/24 81/41/24
f 82/41/24 83/42/26 84/42/26
f 85/43/27 84/42/26 83/42/26
f 84/42/26 85/43/27 86/43/28
f 87/44/29 86/43/28 85/43/27
f 86/43/28 87/44/29 88/44/29
f 89/45/37 90/45/38 91/46/39
f 91/46/39 90/45/38 92/46/40
f 90/45/38 93/47/41 92/46/40
f 90/45/38 94/48/42 93/47/41
f 93/47/41 95/49/43 92/46/40
f 96/50/44 92/46/40 95/49/43
f 96/50/44 95/49/43 97/51/45
f 93/47/41 94/48/42 98/52/46
f 95/49/43 93/47/41 98/52/46
f 94/48/42 99/53/47 98/52/46
f 99/53/47 100/54/48 98/52/46
f 95/49/43 98/52/46 101/55/49
f 95/49/43 101/55/49 97/51/45
f 101/55/49 98/52/46 100/54/48
f 97/51/45 101/55/49 102/56/50
f 101/55/49 100/54/48 102/56/50
f 103/56/51 102/56/52 104/54/53
f 105/46/54 106/50/55 107/47/56
f 106/50/55 105/46/54 108/46/57
f 106/50/55 108/46/57 109/50/58
f 105/46/54 107/47/56 110/45/59
f 109/50/58 111/51/60 106/50/55
f 111/51/60 109/50/58 112/51/61
f 112/51/61 113/56/50 111/51/60
f 114/56/51 111/51/60 113/56/50
f 111/51/60 115/49/62 106/50/55
f 114/56/51 115/49/62 111/51/60
f 115/49/62 107/47/56 106/50/55
f 116/55/63 115/49/62 114/56/51
f 116/55/63 107/47/56 115/49/62
f 117/54/64 116/55/63 114/56/51
f 117/54/64 113/56/50 118/54/65
f 116/55/63 119/52/66 107/47/56
f 119/52/66 110/45/59 107/47/56
f 117/54/64 120/53/67 116/55/63
f 118/54/65 120/53/67 117/54/64
f 119/52/66 116/55/63 120/53/67
f 120/53/67 118/54/65 121/53/68
f 122/48/69 110/45/59 119/52/66
f 122/48/69 119/52/66 120/53/67
f 120/53/67 121/53/68 122/48/69
f 122/48/69 123/45/38 110/45/59
f 122/48/69 121/53/68 124/48/70
f 123/45/38 122/48/69 124/48/70
f 125/57/71 126/58/72 127/59/73
f 126/58/72 125/57/71 128/60/74
f 129/61/75 126/58/72 128/60/74
f 125/57/71 130/62/76 128/60/74
f 131/63/77 126/58/72 129/61/75
f 131/63/77 127/59/73 126/58/72
f 125/57/71 132/64/78 130/62/76
f 133/65/22 127/59/73 131/63/77
f 132/64/78 125/57/71 134/66/79
f 125/57/71 127/59/73 134/66/79
f 134/66/79 135/67/8 132/64/78
f 135/67/8 134/66/79 136/68/80
f 134/66/79 127/59/73 137/69/81
f 127/59/73 133/65/22 137/69/81
f 134/66/79 137/69/81 136/68/80
f 135/67/8 136/68/80 138/70/82
f 137/69/81 138/70/82 136/68/80
f 139/71/83 135/67/8 138/70/82
f 133/65/22 140/72/84 137/69/81
f 138/70/82 137/69/81 140/72/84
f 140/72/84 133/65/22 141/73/85
f 139/71/83 138/70/82 142/74/86
f 140/72/84 142/74/86 138/70/82
f 143/75/87 139/71/83 142/74/86
f 143/75/87 142/74/86 144/76/88
f 142/74/86 140/72/84 145/77/89
f 141/73/85 145/77/89 140/72/84
f 142/74/86 145/77/89 144/76/88
f 145/77/89 141/73/85 146/78/90
f 145/77/89 146/78/90 144/76/88
f 147/58/91 148/63/77 149/61/75
f 147/58/91 149/61/75 150/60/92
f 148/63/77 147/58/91 151/59/93
f 151/59/93 152/65/22 148/63/77
f 153/57/94 147/58/91 150/60/92
f 154/62/76 153/57/94 150/60/92
f 153/57/94 154/62/76 155/64/95
f 156/66/96 147/58/91 153/57/94
f 156/66/96 153/57/94 155/64/95
f 156/66/96 151/59/93 147/58/91
f 156/66/96 155/64/95 157/67/8
f 158/68/97 151/59/93 156/66/96
f 158/68/97 156/66/96 157/67/8
f 158/68/97 159/69/98 151/59/93
f 152/65/22 151/59/93 159/69/98
f 157/67/8 160/70/99 158/68/97
f 160/70/99 159/69/98 158/68/97
f 160/70/99 157/67/8 161/71/83
f 162/72/100 152/65/22 159/69/98
f 160/70/99 162/72/100 159/69/98
f 152/65/22 162/72/100 163/73/101
f 161/71/83 164/74/102 160/70/99
f 164/74/102 161/71/83 165/75/103
f 164/74/102 165/75/103 166/76/88
f 167/77/104 160/70/99 164/74/102
f 160/70/99 167/77/104 162/72/100
f 167/77/104 164/74/102 166/76/88
f 163/73/101 162/72/100 167/77/104
f 168/78/90 167/77/104 166/76/88
f 163/73/101 167/77/104 168/78/90
f 169/34/105 170/79/106 171/36/105
f 170/79/106 169/34/105 172/80/107
f 172/80/107 169/34/105 173/35/108
f 174/81/106 171/36/105 170/79/106
f 171/36/105 174/81/106 175/37/105
f 176/82/105 175/37/105 174/81/106
f 175/37/105 176/82/105 177/38/105
f 178/83/105 177/38/105 176/82/105
f 177/38/105 178/83/105 179/39/105
f 178/83/105 180/40/105 179/39/105
f 180/40/105 178/83/105 181/84/105
f 180/40/105 181/84/105 182/41/105
f 183/85/106 182/41/105 181/84/105
f 182/41/105 183/85/106 184/42/105
f 185/86/105 184/42/105 183/85/106
f 184/42/105 185/86/105 186/43/105
f 187/87/107 186/43/105 185/86/105
f 186/43/105 187/87/107 188/44/105
f 189/43/109 190/86/110 191/42/109
f 190/86/110 189/43/109 192/87/110
f 192/87/110 189/43/109 193/44/109
f 194/85/110 191/42/109 190/86/110
f 191/42/109 194/85/110 195/41/109
f 196/84/110 195/41/109 194/85/110
f 195/41/109 196/84/110 197/40/110
f 198/83/109 197/40/110 196/84/110
f 197/40/110 198/83/109 199/39/109
f 198/83/109 200/38/111 199/39/109
f 200/38/111 198/83/109 201/82/110
f 200/38/111 201/82/110 202/37/109
f 203/81/109 202/37/109 201/82/110
f 202/37/109 203/81/109 204/36/109
f 205/79/109 204/36/109 203/81/109
f 204/36/109 205/79/109 206/34/111
f 207/80/112 206/34/111 205/79/109
f 206/34/111 207/80/112 208/35/113
f 209/12/106 210/88/105 211/14/105
f 210/88/105 209/12/106 212/89/106
f 212/89/106 209/12/106 213/13/107
f 214/90/105 211/14/105 210/88/105
f 211/14/105 214/90/105 215/15/106
f 216/91/105 215/15/106 214/90/105
f 215/15/106 216/91/105 217/16/105
f 218/92/105 217/16/105 216/91/105
f 217/16/105 218/92/105 219/17/105
f 218/92/105 220/18/105 219/17/105
f 220/18/105 218/92/105 221/93/106
f 220/18/105 221/93/106 222/19/106
f 223/94/107 222/19/106 221/93/106
f 222/19/106 223/94/107 224/20/105
f 225/95/106 224/20/105 223/94/107
f 224/20/105 225/95/106 226/21/105
f 227/96/105 226/21/105 225/95/106
f 226/21/105 227/96/105 228/22/105
f 229/21/110 230/95/109 231/20/109
f 230/95/109 229/21/110 232/96/110
f 232/96/110 229/21/110 233/22/114
f 234/94/109 231/20/109 230/95/109
f 231/20/109 234/94/109 235/19/111
f 236/93/109 235/19/111 234/94/109
f 235/19/111 236/93/109 237/18/109
f 238/92/109 237/18/109 236/93/109
f 237/18/109 238/92/109 239/17/109
f 238/92/109 240/16/109 239/17/109
f 240/16/109 238/92/109 241/91/109
f 240/16/109 241/91/109 242/15/109
f 243/90/111 242/15/109 241/91/109
f 242/15/109 243/90/111 244/14/109
f 245/88/111 244/14/109 243/90/111
f 244/14/109 245/88/111 246/12/109
f 247/89/109 246/12/109 245/88/111
f 246/12/109 247/89/109 248/13/109
f 249/3/105 250/97/106 251/1/115
f 252/98/115 251/1/115 250/97/106
f 251/1/115 252/98/115 253/2/108
f 250/97/106 249/3/105 254/99/105
f 255/4/115 254/99/105 249/3/105
f 254/99/105 255/4/115 256/100/115
f 257/5/105 256/100/115 255/4/115
f 257/5/105 258/101/105 256/100/115
f 258/101/105 257/5/105 259/6/105
f 260/7/105 258/101/105 259/6/105
f 258/101/105 260/7/105 261/102/115
f 262/8/115 261/102/115 260/7/105
f 261/102/115 262/8/115 263/103/115
f 264/9/105 263/103/115 262/8/115
f 263/103/115 264/9/105 265/104/115
f 266/10/105 265/104/115 264/9/105
f 265/104/115 266/10/105 267/105/115
f 267/105/115 266/10/105 268/11/105
f 269/9/109 270/104/111 271/10/111
f 272/105/111 271/10/111 270/104/111
f 271/10/111 272/105/111 273/11/112
f 270/104/111 269/9/109 274/103/111
f 275/8/110 274/103/111 269/9/109
f 274/103/111 275/8/110 276/102/111
f 277/7/111 276/102/111 275/8/110
f 277/7/111 278/101/111 276/102/111
f 278/101/111 277/7/111 279/6/109
f 280/5/109 278/101/111 279/6/109
f 278/101/111 280/5/109 281/100/109
f 282/4/109 281/100/109 280/5/109
f 281/100/109 282/4/109 283/99/110
f 284/3/109 283/99/110 282/4/109
f 283/99/110 284/3/109 285/97/109
f 286/1/109 285/97/109 284/3/109
f 285/97/109 286/1/109 287/98/109
f 287/98/109 286/1/109 288/2/109
f 289/25/105 290/106/108 291/23/106
f 292/107/108 291/23/106 290/106/108
f 291/23/106 292/107/108 293/24/105
f 290/106/108 289/25/105 294/108/115
f 295/26/105 294/108/115 289/25/105
f 294/108/115 295/26/105 296/109/105
f 297/27/105 296/109/105 295/26/105
f 297/27/105 298/110/105 296/109/105
f 298/110/105 297/27/105 299/28/105
f 300/29/105 298/110/105 299/28/105
f 298/110/105 300/29/105 301/111/105
f 302/30/105 301/111/105 300/29/105
f 301/111/105 302/30/105 303/112/115
f 304/31/105 303/112/115 302/30/105
f 303/112/115 304/31/105 305/113/105
f 306/32/106 305/113/105 304/31/105
f 305/113/105 306/32/106 307/114/115
f 307/114/115 306/32/106 308/33/107
f 309/31/109 310/113/109 311/32/109
f 312/114/109 311/32/109 310/113/109
f 311/32/109 312/114/109 313/33/109
f 310/113/109 309/31/109 314/112/109
f 315/30/109 314/112/109 309/31/109
f 314/112/109 315/30/109 316/111/109
f 317/29/109 316/111/109 315/30/109
f 317/29/109 318/110/109 316/111/109
f 318/110/109 317/29/109 319/28/109
f 320/27/110 318/110/109 319/28/109
f 318/110/109 320/27/110 321/109/110
f 322/26/109 321/109/110 320/27/110
f 321/109/110 322/26/109 323/108/111
f 324/25/109 323/108/111 322/26/109
f 323/108/111 324/25/109 325/106/111
f 326/23/110 325/106/111 324/25/109
f 325/106/111 326/23/110 327/107/110
f 327/107/110 326/23/110 328/24/109
f 329/87/116 330/44/116 331/44/116
f 330/44/116 329/87/116 332/87/116
f 333/114/117 334/33/117 335/33/117
f 333/114/117 335/33/117 336/114/117
f 337/115/118 338/116/119 339/117/120
f 339/117/120 338/116/119 340/118/121
f 341/119/122 340/118/121 338/116/119
f 338/116/119 337/115/118 342/120/123
f 343/121/124 342/120/123 337/115/118
f 342/120/123 343/121/124 344/122/125
f 345/120/126 346/121/124 347/115/127
f 348/117/128 345/120/126 347/115/127
f 346/121/124 345/120/126 349/122/129
f 345/120/126 348/117/128 350/116/130
f 350/116/130 349/122/129 345/120/126
f 351/118/131 350/116/130 348/117/128
f 350/116/130 351/118/131 352/119/132
f 349/122/129 350/116/130 352/119/132
f 349/122/129 352/119/132 353/120/123
f 352/119/132 354/116/119 353/120/123
f 355/96/116 356/22/116 357/22/116
f 356/22/116 355/96/116 358/96/116
f 359/105/117 360/11/117 361/11/117
f 359/105/117 361/11/117 362/105/117
f 363/35/133 364/80/133 365/80/134
f 364/80/133 363/35/133 366/35/134
f 367/24/135 368/107/136 369/107/135
f 367/24/135 369/107/135 370/24/136
f 371/13/134 372/89/134 373/89/134
f 372/89/134 371/13/134 374/13/134
f 375/2/136 376/98/136 377/98/136
f 375/2/136 377/98/136 378/2/136
f 379/82/137 380/83/8 381/83/8
f 380/83/8 379/82/137 382/82/137
f 383/84/138 381/83/8 380/83/8
f 384/81/139 382/82/137 379/82/137
f 381/83/8 383/84/138 385/84/138
f 382/82/137 384/81/139 386/81/140
f 387/85/141 385/84/138 383/84/138
f 388/79/142 386/81/140 384/81/139
f 385/84/138 387/85/141 389/85/141
f 386/81/140 388/79/142 390/79/143
f 391/80/144 390/79/143 388/79/142
f 390/79/143 391/80/144 392/80/144
f 393/86/145 389/85/141 387/85/141
f 389/85/141 393/86/145 394/86/146
f 395/87/147 394/86/146 393/86/145
f 394/86/146 395/87/147 396/87/147
f 397/109/148 398/110/22 399/110/22
f 397/109/148 399/110/22 400/109/148
f 398/110/22 401/111/149 399/110/22
f 402/108/150 397/109/148 400/109/148
f 398/110/22 403/111/149 401/111/149
f 402/108/150 400/109/148 404/108/150
f 403/111/149 405/112/151 401/111/149
f 406/106/152 402/108/150 404/108/150
f 403/111/149 407/112/151 405/112/151
f 406/106/152 404/108/150 408/106/152
f 409/107/153 406/106/152 408/106/152
f 409/107/153 408/106/152 410/107/154
f 407/112/151 411/113/155 405/112/151
f 407/112/151 412/113/155 411/113/155
f 412/113/155 413/114/156 411/113/155
f 412/113/155 414/114/157 413/114/156
f 415/91/137 416/92/8 417/92/8
f 416/92/8 415/91/137 418/91/137
f 419/93/138 417/92/8 416/92/8
f 420/90/139 418/91/137 415/91/137
f 417/92/8 419/93/138 421/93/138
f 418/91/137 420/90/139 422/90/139
f 423/94/158 421/93/138 419/93/138
f 424/88/159 422/90/139 420/90/139
f 421/93/138 423/94/158 425/94/141
f 422/90/139 424/88/159 426/88/159
f 427/89/160 426/88/159 424/88/159
f 426/88/159 427/89/160 428/89/161
f 429/95/162 425/94/141 423/94/158
f 425/94/141 429/95/162 430/95/146
f 431/96/163 430/95/146 429/95/162
f 430/95/146 431/96/163 432/96/164
f 433/100/148 434/101/22 435/101/22
f 433/100/148 435/101/22 436/100/148
f 434/101/22 437/102/149 435/101/22
f 438/99/150 433/100/148 436/100/148
f 434/101/22 439/102/149 437/102/149
f 438/99/150 436/100/148 440/99/150
f 439/102/149 441/103/151 437/102/149
f 442/97/165 438/99/150 440/99/150
f 439/102/149 443/103/166 441/103/151
f 442/97/165 440/99/150 444/97/152
f 445/98/167 442/97/165 444/97/152
f 445/98/167 444/97/152 446/98/168
f 443/103/166 447/104/169 441/103/151
f 443/103/166 448/104/169 447/104/169
f 448/104/169 449/105/156 447/104/169
f 448/104/169 450/105/157 449/105/156
usemtl Button1Mtl.001
f 451/123/170 453/124/171 452/125/172
f 453/124/171 451/123/170 454/126/173
f 457/127/174 458/126/175 456/128/176
f 458/126/175 457/127/174 455/124/177
f 459/129/178 460/130/179 461/131/180
f 462/132/181 463/133/182 464/134/183
f 464/134/183 463/133/182 465/135/184
f 466/136/185 467/130/186 468/129/178
f 466/136/185 469/135/187 467/130/186
f 470/134/188 469/135/187 466/136/185
f 473/137/8 471/138/189 472/139/190
f 474/140/191 473/137/8 472/139/190
f 475/141/192 473/137/8 474/140/191
f 476/142/193 475/141/192 474/140/191
f 477/130/194 478/131/195 479/129/196
f 481/133/197 482/143/198 480/132/199
f 481/133/197 483/144/200 482/143/198
f 483/144/200 484/136/201 482/143/198
f 483/144/200 485/130/202 484/136/201
f 485/130/202 486/129/196 484/136/201
f 487/145/203 488/146/187 489/147/204
f 490/148/182 489/147/204 488/146/187
f 489/147/204 490/148/182 491/149/205
f 492/150/206 491/149/205 490/148/182
f 487/145/203 489/147/204 493/151/207
f 493/151/207 494/152/190 487/145/203
f 495/153/208 493/151/207 489/147/204
f 495/153/208 489/147/204 491/149/205
f 491/149/205 492/150/206 495/153/208
f 494/152/190 493/151/207 496/154/209
f 493/151/207 495/153/208 496/154/209
f 497/155/191 494/152/190 496/154/209
f 497/155/191 496/154/209 498/156/210
f 495/153/208 498/156/210 496/154/209
f 499/157/193 497/155/191 498/156/210
f 498/156/210 501/158/211 499/157/193
f 501/158/211 500/159/212 499/157/193
f 498/156/210 502/160/213 501/158/211
f 500/159/212 501/158/211 502/160/213
f 498/156/210 503/161/214 502/160/213
f 503/161/214 500/159/212 502/160/213
f 498/156/210 495/153/208 503/161/214
f 500/159/212 503/161/214 504/162/215
f 505/163/216 504/162/215 503/161/214
f 503/161/214 495/153/208 505/163/216
f 504/162/215 505/163/216 506/164/195
f 495/153/208 506/164/195 505/163/216
f 506/164/195 495/153/208 492/150/206
usemtl Output1Mtl.005
f 509/165/217 508/166/218 507/167/218
f 508/166/218 509/165/217 510/168/219
f 509/165/217 511/169/220 510/168/219
f 510/168/219 511/169/220 512/170/221
f 511/169/220 513/171/222 512/170/221
f 512/170/221 513/171/222 514/172/222
f 513/171/222 515/173/223 514/172/222
f 514/172/222 515/173/223 516/174/224
f 515/173/223 517/175/225 516/174/224
f 516/174/224 517/175/225 518/176/226
f 518/176/226 517/175/225 519/177/227
f 518/176/226 519/177/227 520/178/227
f 521/179/228 522/180/229 523/181/230
f 522/180/229 521/179/228 524/182/231
f 527/183/232 526/181/230 525/184/233
f 526/181/230 527/183/232 528/179/234
f 531/171/235 530/184/236 529/185/237
f 530/184/236 531/171/235 532/183/232
f 533/186/238 535/171/235 534/185/237
f 535/171/235 533/186/238 536/187/239
f 537/188/240 539/187/239 538/186/241
f 539/187/239 537/188/240 540/189/242
f 541/190/243 543/189/242 542/188/244
f 543/189/242 541/190/243 544/191/245
f 545/192/88 546/193/88 547/194/88
f 546/193/88 545/192/88 548/195/88
f 549/196/88 550/195/88 551/197/88
f 550/195/88 549/196/88 552/193/88
f 553/198/88 554/199/88 555/200/88
f 554/199/88 553/198/88 556/201/88
f 557/199/88 558/192/88 559/194/88
f 558/192/88 557/199/88 560/201/88
f 561/202/88 562/203/88 563/204/88
f 562/203/88 561/202/88 564/205/88
f 565/203/88 566/205/88 567/206/88
f 565/203/88 567/206/88 568/207/88
f 569/208/88 570/209/88 571/206/88
f 571/206/88 570/209/88 572/207/88
f 573/202/88 574/196/88 575/197/88
f 574/196/88 573/202/88 576/204/88
f 577/210/88 578/211/88 579/212/88
f 578/211/88 577/210/88 580/213/88
f 581/214/88 582/212/88 583/215/88
f 582/212/88 581/214/88 584/210/88
f 585/216/88 586/215/88 587/217/88
f 588/215/88 589/216/88 590/214/88
f 591/213/88 592/208/88 593/211/88
f 592/208/88 591/213/88 594/209/88
f 595/217/88 596/218/88 597/216/88
f 596/218/88 595/217/88 598/219/88
f 599/219/88 600/220/88 601/218/88
f 600/220/88 599/219/88 602/221/88
f 603/220/88 604/221/88 605/222/88
f 604/221/88 606/223/88 605/222/88
f 607/224/88 608/225/88 609/223/88
f 609/223/88 608/225/88 610/222/88
f 611/226/88 612/227/88 613/228/88
f 612/227/88 611/226/88 614/229/88
f 615/224/88 616/230/88 617/225/88
f 616/230/88 618/231/88 617/225/88
f 619/231/88 620/232/88 621/233/88
f 622/232/88 623/231/88 624/230/88
f 625/233/88 626/229/88 627/226/88
f 626/229/88 625/233/88 628/232/88
f 629/234/88 630/235/88 631/236/88
f 630/235/88 629/234/88 632/237/88
f 633/237/88 634/198/88 635/235/88
f 634/198/88 636/200/88 635/235/88
f 637/228/88 638/238/88 639/239/88
f 638/238/88 637/228/88 640/227/88
f 641/239/88 642/238/88 643/236/88
f 642/238/88 644/234/88 643/236/88
f 645/240/246 646/241/247 647/242/248
f 648/243/88 645/240/246 647/242/248
f 647/242/248 646/241/247 649/244/249
f 646/241/247 650/245/250 649/244/249
f 649/244/249 650/245/250 651/246/251
f 651/246/251 650/245/250 652/247/252
f 651/246/251 652/247/252 653/248/253
f 654/245/254 655/249/255 656/250/256
f 654/245/254 656/250/256 657/251/257
f 655/249/255 654/245/254 658/241/247
f 654/245/254 657/251/257 659/247/252
f 658/241/247 660/240/246 655/249/255
f 661/252/258 655/249/255 660/240/246
f 662/243/88 661/252/258 660/240/246
f 663/251/257 664/253/259 665/254/260
f 664/253/259 663/251/257 666/250/256
f 666/250/256 667/249/255 664/253/259
f 667/249/255 668/255/261 664/253/259
f 667/249/255 669/256/262 668/255/261
f 669/256/262 667/249/255 670/252/258
f 671/243/88 669/256/262 670/252/258
f 672/243/88 673/257/263 674/256/264
f 673/257/263 675/255/261 674/256/264
f 675/255/261 673/257/263 676/258/265
f 676/258/265 677/253/266 675/255/261
f 677/253/266 676/258/265 678/259/267
f 678/259/267 679/254/260 677/253/266
f 679/254/260 678/259/267 680/260/268
f 681/261/269 682/260/268 683/259/267
f 681/261/269 683/259/267 684/262/270
f 683/259/267 685/263/271 684/262/270
f 685/263/271 683/259/267 686/258/265
f 686/258/265 687/264/272 685/263/271
f 687/264/272 686/258/265 688/257/263
f 689/243/88 687/264/272 688/257/263
f 690/265/273 691/263/271 692/264/272
f 693/243/88 690/265/273 692/264/272
f 691/263/271 690/265/273 694/266/274
f 695/267/275 691/263/271 694/266/274
f 691/263/271 695/267/275 696/262/270
f 697/268/276 696/262/270 695/267/275
f 696/262/270 697/268/276 698/261/269
f 699/269/277 700/267/275 701/266/274
f 702/265/273 699/269/277 701/266/274
f 699/269/277 702/265/273 703/270/278
f 704/243/88 703/270/278 702/265/273
f 700/267/275 699/269/277 705/271/279
f 706/272/280 700/267/275 705/271/279
f 700/267/275 706/272/280 707/268/281
f 708/273/282 709/274/283 710/275/284
f 709/274/283 708/273/282 711/276/285
f 710/275/284 712/277/286 708/273/282
f 712/277/286 710/275/284 713/278/287
f 713/278/287 714/279/288 712/277/286
f 714/279/288 713/278/287 715/280/289
f 716/243/88 714/279/288 715/280/289
f 717/273/290 718/281/291 719/282/292
f 717/273/290 720/283/293 718/281/291
f 717/273/290 719/282/292 721/276/285
f 720/283/293 717/273/290 722/277/286
f 722/277/286 723/284/294 720/283/293
f 723/284/294 722/277/286 724/279/295
f 725/243/88 723/284/294 724/279/295
f 726/243/88 727/285/296 728/284/294
f 728/284/294 727/285/296 729/286/297
f 730/283/293 728/284/294 729/286/297
f 729/286/297 731/281/291 730/283/293
f 731/281/291 729/286/297 732/287/298
f 732/287/298 733/282/299 731/281/291
f 733/282/299 732/287/298 734/288/300
f 735/288/229 737/289/301 736/290/302
f 737/289/301 735/288/229 738/287/298
f 737/289/301 738/287/298 739/286/297
f 737/289/301 739/286/297 740/291/303
f 739/286/297 741/285/296 740/291/303
f 740/291/303 741/285/296 742/292/304
f 743/243/88 742/292/304 741/285/296
f 744/291/303 745/293/305 746/294/306
f 745/293/305 744/291/303 747/292/304
f 748/243/88 745/293/305 747/292/304
f 746/294/306 749/289/301 744/291/303
f 749/289/301 746/294/306 750/295/307
f 751/296/233 749/289/301 750/295/307
f 751/296/233 752/290/302 749/289/301
f 753/297/308 754/298/309 755/299/310
f 754/298/309 756/300/311 755/299/310
f 757/243/88 756/300/311 754/298/309
f 753/297/308 755/299/310 758/301/312
f 759/302/313 753/297/308 758/301/312
f 758/301/312 760/303/314 759/302/313
f 760/303/314 758/301/312 761/304/315
f 762/305/316 763/301/317 764/299/310
f 762/305/316 765/304/315 763/301/317
f 762/305/316 764/299/310 766/306/318
f 765/304/315 762/305/316 767/307/319
f 764/299/310 768/300/320 766/306/318
f 766/306/318 768/300/320 769/308/321
f 770/243/88 769/308/321 768/300/320
f 771/305/316 772/309/322 773/310/323
f 774/311/324 771/305/316 773/310/323
f 772/309/322 771/305/316 775/306/318
f 774/311/324 776/307/319 771/305/316
f 775/306/318 777/312/325 772/309/322
f 777/312/325 775/306/318 778/308/321
f 779/243/88 777/312/325 778/308/321
f 780/243/88 781/313/326 782/312/325
f 781/313/326 783/309/322 782/312/325
f 783/309/322 781/313/326 784/314/327
f 784/314/327 785/310/328 783/309/322
f 785/310/328 784/314/327 786/315/329
f 786/315/329 787/311/324 785/310/328
f 787/311/324 786/315/329 788/316/330
f 790/316/331 791/317/332 789/318/333
f 791/317/332 790/316/331 792/315/329
f 793/314/327 791/317/332 792/315/329
f 791/317/332 793/314/327 794/319/334
f 795/313/326 794/319/334 793/314/327
f 794/319/334 795/313/326 796/320/335
f 797/243/88 796/320/335 795/313/326
f 798/242/336 799/319/334 800/320/335
f 801/243/88 798/242/336 800/320/335
f 799/319/334 798/242/336 802/244/249
f 802/244/249 803/317/337 799/319/334
f 803/317/337 802/244/249 804/246/251
f 804/246/251 805/318/333 803/317/337
f 805/318/333 804/246/251 806/248/338
f 807/275/284 808/269/277 809/278/287
f 808/269/277 807/275/284 810/271/339
f 811/270/278 809/278/287 808/269/277
f 809/278/287 811/270/278 812/280/289
f 813/243/88 812/280/289 811/270/278
f 814/274/340 810/271/339 807/275/284
f 810/271/339 814/274/340 815/272/280
f 816/321/341 817/294/306 818/322/342
f 817/294/306 819/323/343 818/322/342
f 819/323/343 817/294/306 820/293/305
f 821/243/88 819/323/343 820/293/305
f 817/294/306 816/321/341 822/295/344
f 823/324/345 822/295/344 816/321/341
f 822/295/344 823/324/345 824/296/233
f 825/325/346 826/322/342 827/326/347
f 826/322/342 825/325/346 828/321/341
f 829/323/343 827/326/347 826/322/342
f 827/326/347 829/323/343 830/327/348
f 831/243/88 830/327/348 829/323/343
f 832/328/238 828/321/341 825/325/346
f 828/321/341 832/328/238 833/324/345
f 834/329/349 835/325/350 836/330/351
f 835/325/350 837/331/352 836/330/351
f 835/325/350 834/329/349 838/328/238
f 837/331/352 835/325/350 839/326/347
f 839/326/347 840/332/353 837/331/352
f 840/332/353 839/326/347 841/327/354
f 842/243/88 840/332/353 841/327/354
f 843/243/88 844/333/355 845/332/353
f 844/333/355 846/334/356 845/332/353
f 845/332/353 846/334/356 847/331/352
f 846/334/356 848/330/351 847/331/352
f 848/330/351 846/334/356 849/335/357
f 848/330/351 849/335/357 850/336/358
f 848/330/351 850/336/358 851/329/349
f 852/298/309 853/334/356 854/333/355
f 855/243/88 852/298/309 854/333/355
f 853/334/356 852/298/309 856/297/308
f 856/297/308 857/335/357 853/334/356
f 857/335/357 856/297/308 858/302/313
f 857/335/357 858/302/313 859/303/359
f 857/335/357 859/303/359 860/336/358
f 861/174/360 862/172/109 863/173/361
f 862/172/109 864/171/109 863/173/361
f 861/174/360 863/173/361 865/175/362
f 866/176/362 861/174/360 865/175/362
f 866/176/362 865/175/362 867/177/363
f 867/177/363 868/178/363 866/176/362
f 870/166/227 869/167/227 871/165/364
f 871/165/364 872/168/364 870/166/227
f 872/168/364 871/165/364 873/169/365
f 874/170/365 872/168/364 873/169/365
f 874/170/365 873/169/365 875/171/109
f 876/172/109 874/170/365 875/171/109
f 877/181/366 878/184/315 879/183/367
f 877/181/366 879/183/367 880/179/368
f 881/184/369 882/185/370 883/171/371
f 881/184/369 883/171/371 884/183/367
f 885/186/324 887/171/372 886/185/370
f 887/171/372 885/186/324 888/187/373
f 890/188/374 891/187/373 889/186/375
f 891/187/373 890/188/374 892/337/376
f 893/190/377 894/337/376 895/188/378
f 894/337/376 893/190/377 896/191/379
f 897/181/366 899/179/368 898/338/380
f 898/338/380 899/179/368 900/182/245
f 903/165/381 902/166/363 901/167/363
f 903/165/381 904/168/381 902/166/363
f 905/169/382 904/168/381 903/165/381
f 905/169/382 906/170/382 904/168/381
f 907/171/383 906/170/382 905/169/382
f 907/171/383 908/172/383 906/170/382
f 909/173/384 908/172/383 907/171/383
f 909/173/384 910/174/385 908/172/383
f 911/175/386 910/174/385 909/173/384
f 911/175/386 912/176/387 910/174/385
f 913/177/388 912/176/387 911/175/386
f 913/177/388 914/178/388 912/176/387
f 916/181/389 915/184/252 917/183/390
f 917/183/390 918/339/391 916/181/389
f 920/184/252 919/185/392 921/171/393
f 921/171/393 922/183/390 920/184/252
f 924/340/260 925/171/393 923/185/392
f 925/171/393 924/340/260 926/187/394
f 928/341/395 929/187/394 927/340/396
f 929/187/394 928/341/395 930/337/397
f 931/337/397 932/190/269 933/191/398
f 932/190/269 931/337/397 934/341/399
f 935/338/400 936/181/389 937/339/391
f 938/182/379 935/338/400 937/339/391
f 939/195/92 940/342/92 941/234/92
f 939/195/92 942/201/92 943/192/92
f 939/195/92 944/198/92 942/201/92
f 941/234/92 944/198/92 939/195/92
f 944/198/92 941/234/92 945/237/92
f 946/211/92 940/342/92 939/195/92
f 946/211/92 939/195/92 947/343/92
f 940/342/92 948/232/92 941/234/92
f 948/232/92 940/342/92 949/230/92
f 950/229/92 941/234/92 948/232/92
f 950/229/92 951/238/92 941/234/92
f 951/238/92 950/229/92 952/344/92
f 953/205/92 946/211/92 947/343/92
f 953/205/92 947/343/92 954/202/92
f 946/211/92 953/205/92 955/345/92
f 955/345/92 953/205/92 956/206/92
f 940/342/92 946/211/92 957/346/92
f 940/342/92 957/346/92 958/223/92
f 957/346/92 946/211/92 959/217/92
f 957/346/92 959/217/92 960/219/92
f 959/217/92 946/211/92 961/212/92
f 959/217/92 961/212/92 962/215/92
f 965/165/401 964/166/388 963/167/388
f 964/166/388 965/165/401 966/168/401
f 967/169/402 966/168/401 965/165/401
f 966/168/401 967/169/402 968/170/403
f 969/171/105 968/170/403 967/169/402
f 968/170/403 969/171/105 970/172/105
f 971/173/404 970/172/105 969/171/105
f 970/172/105 971/173/404 972/174/405
f 973/175/406 972/174/405 971/173/404
f 972/174/405 973/175/406 974/176/406
f 975/177/218 974/176/406 973/175/406
f 974/176/406 975/177/218 976/178/218
f 978/338/269 977/181/407 979/179/408
f 979/179/408 980/182/398 978/338/269
f 983/183/409 982/181/407 981/184/280
f 983/183/409 984/179/408 982/181/407
f 986/186/285 987/171/410 985/185/411
f 987/171/410 986/186/285 988/187/412
f 989/188/413 991/187/414 990/186/285
f 991/187/414 989/188/413 992/189/415
f 994/190/416 995/189/415 993/188/413
f 995/189/415 994/190/416 996/191/231
f 999/171/417 998/184/280 997/185/411
f 999/171/417 1000/183/409 998/184/280
