# Blender 5.1.2
# www.blender.org
mtllib RiotShield.mtl
o RiotShield
v -0.783066 1.119738 -0.019409
v -0.000076 1.119738 -0.152405
v -0.783066 0.235818 -0.019409
v -0.770065 1.119738 -0.004395
v -0.639069 1.255348 -0.042389
v -0.000076 0.235818 -0.152405
v -0.770065 0.235818 -0.004395
v -0.000076 0.235818 -0.132385
v 0.769928 0.235818 -0.004395
v 0.782928 0.235818 -0.019409
v 0.782928 1.119738 -0.019409
v 0.638931 1.255348 -0.042389
v 0.769928 1.119738 -0.004395
v -0.000076 1.255348 -0.152405
v 0.626923 1.255348 -0.026398
v -0.627075 1.255348 -0.026398
v -0.000076 1.255348 -0.132385
v 0.782928 -0.239012 -0.019409
v -0.000076 -1.122932 -0.152405
v -0.000076 -0.239012 -0.152405
v 0.769928 -0.239012 -0.004395
v -0.000076 -0.239012 -0.132385
v -0.770065 -0.239012 -0.004395
v -0.783066 -0.239012 -0.019409
v -0.783066 -1.122932 -0.019409
v -0.639069 -1.258542 -0.042389
v -0.770065 -1.122932 -0.004394
v 0.782928 -1.122932 -0.019409
v 0.769928 -1.122932 -0.004394
v 0.638931 -1.258542 -0.042389
v -0.000076 -1.258542 -0.152405
v 0.626923 -1.258542 -0.026398
v -0.627075 -1.258542 -0.026398
v -0.000076 -1.258542 -0.132385
v -0.770065 0.235818 -0.004395
v -0.000076 0.235818 -0.132385
v -0.770065 1.119738 -0.004395
v -0.783066 0.235818 -0.019409
v -0.639069 1.255348 -0.042389
v -0.627075 1.255348 -0.026398
v -0.000076 1.119738 -0.132385
v -0.000076 1.255348 -0.132385
v 0.626923 1.255348 -0.026398
v 0.769928 1.119738 -0.004395
v 0.638931 1.255348 -0.042389
v 0.769928 0.235818 -0.004395
v 0.782928 1.119738 -0.019409
v -0.000076 -1.122932 -0.132385
v 0.769928 -0.239012 -0.004395
v -0.000076 -0.239012 -0.132385
v 0.769928 -1.122932 -0.004394
v 0.782928 -0.239012 -0.019409
v 0.638931 -1.258542 -0.042389
v 0.626923 -1.258542 -0.026398
v -0.000076 -1.258542 -0.132385
v -0.627075 -1.258542 -0.026398
v -0.770065 -1.122932 -0.004394
v -0.639069 -1.258542 -0.042389
v -0.770065 -0.239012 -0.004395
v -0.783066 -1.122932 -0.019409
v -0.456070 -0.109822 0.183594
v -0.456070 0.111078 0.183594
v -0.503067 -0.109822 0.193604
v -0.469070 -0.189662 0.121613
v -0.516068 -0.189662 0.131592
v -0.503067 0.111078 0.193604
v -0.469070 0.190918 0.121613
v -0.516068 -0.109822 0.132599
v -0.525070 -0.144092 0.090607
v -0.544067 -0.189662 0.000610
v -0.544067 -0.144092 0.000610
v -0.516068 0.111078 0.132599
v -0.516068 0.190918 0.131592
v -0.525070 0.145348 0.090607
v -0.544067 0.190918 0.000610
v -0.544067 0.145348 0.000610
v 0.502930 -0.109822 0.193604
v 0.502930 0.111078 0.193604
v 0.455933 -0.109822 0.183594
v 0.455933 0.111078 0.183594
v 0.468933 0.190918 0.121613
v 0.468933 -0.189662 0.121613
v 0.515930 0.190918 0.131592
v 0.515930 -0.189662 0.131592
v 0.515930 0.111078 0.132599
v 0.515930 -0.109822 0.132599
v 0.524933 0.145348 0.090607
v 0.543930 0.190918 0.000610
v 0.543930 0.145348 0.000610
v 0.524933 -0.144092 0.090607
v 0.543930 -0.189662 0.000610
v 0.543930 -0.144092 0.000610
v -0.853073 1.084288 -0.005402
v -0.783066 0.250628 -0.041412
v -0.853073 0.250628 -0.005402
v -0.853073 -0.249372 -0.005402
v -0.783066 -0.249372 -0.041412
v -0.783066 -1.083032 -0.041412
v -0.853073 -1.083032 -0.005402
v -0.779068 -1.219332 -0.042389
v -0.731064 -1.083032 0.059601
v -0.731064 -0.249372 0.059601
v -0.000076 -0.249372 -0.204407
v -0.679077 -1.163462 0.032593
v -0.000076 -0.249372 -0.090393
v 0.730927 -0.249372 0.059601
v 0.782928 -0.249372 -0.041412
v 0.782928 -1.083032 -0.041412
v 0.730927 -1.083032 0.059601
v 0.678925 -1.163462 0.032593
v -0.730072 -1.163462 -0.068390
v -0.558075 -1.240992 -0.029388
v -0.609070 -1.240992 -0.130402
v -0.620071 -1.318572 -0.124390
v 0.729935 -1.163462 -0.068390
v 0.557922 -1.240992 -0.029388
v 0.778931 -1.219332 -0.042389
v 0.852936 -1.083032 -0.005402
v 0.608932 -1.240992 -0.130402
v 0.619934 -1.318572 -0.124390
v -0.000076 -1.240992 -0.204407
v -0.000076 -1.240992 -0.090393
v -0.000076 -1.318572 -0.204407
v 0.567932 -1.318572 -0.023407
v -0.568069 -1.318572 -0.023407
v -0.000076 -1.318572 -0.090393
v -0.000076 0.250628 -0.204407
v -0.731064 0.250628 0.059601
v -0.000076 0.250628 -0.090393
v 0.730927 0.250628 0.059601
v 0.782928 0.250628 -0.041412
v 0.730927 1.084288 0.059601
v 0.782928 1.084288 -0.041412
v 0.678925 1.163938 0.033600
v 0.852936 0.250628 -0.005402
v 0.852936 1.084288 -0.005402
v 0.778931 1.221358 -0.043396
v 0.852936 -0.249372 -0.005402
v 0.730927 1.163938 -0.067413
v 0.601929 1.239378 -0.134400
v 0.607925 1.317508 -0.130402
v 0.549927 1.239378 -0.033386
v -0.000076 1.317508 -0.204407
v 0.555923 1.317508 -0.030396
v -0.000076 1.239378 -0.204407
v -0.000076 1.239378 -0.090393
v -0.000076 1.317508 -0.090393
v -0.556076 1.317508 -0.030396
v -0.550064 1.239378 -0.033386
v -0.608063 1.317508 -0.130402
v -0.602066 1.239378 -0.134400
v -0.679077 1.163938 0.033600
v -0.779068 1.221358 -0.043396
v -0.731064 1.163938 -0.067413
v -0.783066 1.084288 -0.041412
v -0.731064 1.084288 0.059601
v 0.557922 -1.240992 -0.029388
v -0.000076 -1.318572 -0.090393
v 0.567932 -1.318572 -0.023407
v -0.000076 -1.240992 -0.090393
v -0.558075 -1.240992 -0.029388
v -0.568069 -1.318572 -0.023407
v -0.728073 -1.219332 0.057587
v -0.620071 -1.318572 -0.124390
v -0.679077 -1.163462 0.032593
v -0.779068 -1.219332 -0.042389
v -0.731064 -1.083032 0.059601
v -0.853073 -1.083032 -0.005402
v -0.801071 -1.083032 0.095612
v -0.731064 -0.249372 0.059601
v -0.801071 -0.249372 0.095612
v -0.853073 -0.249372 -0.005402
v -0.801071 0.250628 0.095612
v -0.853073 0.250628 -0.005402
v -0.801071 1.084288 0.095611
v -0.853073 1.084288 -0.005402
v -0.731064 1.084288 0.059601
v -0.727066 1.221358 0.057587
v -0.779068 1.221358 -0.043396
v -0.679077 1.163938 0.033600
v -0.608063 1.317508 -0.130402
v -0.550064 1.239378 -0.033386
v -0.556076 1.317508 -0.030396
v -0.000076 1.317508 -0.090393
v -0.000076 1.239378 -0.090393
v 0.549927 1.239378 -0.033386
v 0.555923 1.317508 -0.030396
v 0.726929 1.221358 0.057587
v 0.607925 1.317508 -0.130402
v 0.678925 1.163938 0.033600
v 0.778931 1.221358 -0.043396
v 0.730927 1.084288 0.059601
v 0.852936 1.084288 -0.005402
v 0.800934 1.084288 0.095611
v -0.783066 0.250628 -0.041412
v -0.000076 0.250628 -0.204407
v -0.783066 -0.249372 -0.041412
v -0.000076 -0.249372 -0.204407
v 0.782928 -0.249372 -0.041412
v 0.782928 0.250628 -0.041412
v 0.023926 -0.109822 0.089600
v 0.023926 0.111078 0.089600
v -0.024063 -0.109822 0.089600
v -0.024063 -0.189662 0.026611
v 0.023926 -0.189662 0.026611
v -0.024063 0.111078 0.089600
v 0.023926 0.190918 0.026611
v -0.024063 0.190918 0.026611
v -0.000076 -0.249372 -0.090393
v -0.731064 0.250628 0.059601
v -0.000076 0.250628 -0.090393
v 0.730927 0.250628 0.059601
v 0.730927 -0.249372 0.059601
v 0.800934 -0.249372 0.095612
v 0.730927 -1.083032 0.059601
v 0.800934 0.250628 0.095612
v 0.852936 0.250628 -0.005402
v 0.852936 -0.249372 -0.005402
v 0.800934 -1.083032 0.095612
v 0.852936 -1.083032 -0.005402
v 0.727936 -1.219332 0.057587
v 0.678925 -1.163462 0.032593
v 0.778931 -1.219332 -0.042389
v 0.619934 -1.318572 -0.124390
v 0.023926 0.111078 0.026611
v 0.023926 -0.109822 0.026611
v -0.024063 0.111078 0.026611
v 0.023926 -0.109822 0.089600
v 0.023926 0.111078 0.089600
v 0.023926 0.190918 0.026611
v 0.023926 -0.189662 0.026611
v 0.023926 0.145348 -0.016388
v 0.023926 -0.144092 -0.016388
v 0.023926 0.190918 -0.107391
v -0.024063 0.190918 0.026611
v 0.023926 0.145348 -0.107391
v -0.024063 0.190918 -0.107391
v -0.024063 0.145348 -0.107391
v -0.024063 0.145348 -0.016388
v -0.024063 0.111078 0.089600
v -0.024063 -0.109822 0.026611
v -0.024063 -0.109822 0.089600
v -0.024063 -0.189662 0.026611
v -0.024063 -0.144092 -0.016388
v 0.023926 -0.144092 -0.107391
v -0.024063 -0.189662 -0.107391
v -0.024063 -0.144092 -0.107391
v 0.023926 -0.189662 -0.107391
v -0.469070 0.111078 0.122589
v -0.469070 -0.109822 0.122589
v -0.516068 0.111078 0.132599
v -0.516068 -0.109822 0.132599
v -0.478073 -0.144092 0.080597
v -0.525070 -0.144092 0.090607
v -0.544067 -0.144092 0.000610
v -0.497070 -0.144092 -0.009399
v -0.544067 -0.189662 0.000610
v -0.469070 -0.189662 0.121613
v -0.497070 -0.189662 -0.009399
v -0.516068 -0.189662 0.131592
v -0.456070 -0.109822 0.183594
v -0.456070 0.111078 0.183594
v -0.469070 0.190918 0.121613
v -0.478073 0.145348 0.080597
v -0.525070 0.145348 0.090607
v -0.544067 0.145348 0.000610
v -0.497070 0.145348 -0.009399
v -0.544067 0.190918 0.000610
v -0.497070 0.190918 -0.009399
v -0.516068 0.190918 0.131592
v 0.515930 0.111078 0.132599
v 0.515930 -0.109822 0.132599
v 0.468933 0.111078 0.122589
v 0.477936 0.145348 0.080597
v 0.524933 0.145348 0.090607
v 0.543930 0.145348 0.000610
v 0.496933 0.145348 -0.009399
v 0.543930 0.190918 0.000610
v 0.468933 0.190918 0.121613
v 0.496933 0.190918 -0.009399
v 0.515930 0.190918 0.131592
v 0.455933 0.111078 0.183594
v 0.468933 -0.109822 0.122589
v 0.455933 -0.109822 0.183594
v 0.468933 -0.189662 0.121613
v 0.477936 -0.144092 0.080597
v 0.524933 -0.144092 0.090607
v 0.543930 -0.144092 0.000610
v 0.496933 -0.144092 -0.009399
v 0.543930 -0.189662 0.000610
v 0.496933 -0.189662 -0.009399
v 0.515930 -0.189662 0.131592
vn -0.1886 -0.0000 -0.9821
vn -0.0000 -0.0000 -1.0000
vn -0.1885 -0.0157 -0.9819
vn 0.1414 -0.0001 0.9900
vn -0.1893 0.0868 -0.9781
vn -0.0000 -0.0157 -0.9999
vn 0.1413 -0.0314 0.9895
vn -0.0000 -0.0236 0.9997
vn -0.1413 -0.0315 0.9895
vn 0.1886 -0.0157 -0.9819
vn 0.1886 -0.0000 -0.9821
vn 0.1893 0.0868 -0.9781
vn -0.1414 0.0001 0.9899
vn -0.0000 0.1182 -0.9930
vn -0.1492 0.1178 0.9818
vn 0.1493 0.1178 0.9818
vn -0.0000 0.1337 0.9910
vn 0.1885 0.0157 -0.9819
vn -0.0000 0.0157 -0.9999
vn -0.1413 0.0314 0.9895
vn -0.0001 0.0236 0.9997
vn 0.1413 0.0315 0.9895
vn -0.1886 0.0157 -0.9819
vn -0.1893 -0.0868 -0.9781
vn -0.1414 0.0001 0.9900
vn 0.1893 -0.0868 -0.9781
vn -0.0000 -0.1182 -0.9930
vn -0.1492 -0.1178 0.9818
vn 0.1492 -0.1178 0.9818
vn -0.0000 -0.1337 0.9910
vn 0.1414 -0.0000 0.9899
vn -0.1885 -0.0156 -0.9819
vn -0.1894 0.0867 -0.9781
vn 0.1492 0.1179 0.9818
vn -0.0000 -0.0000 1.0000
vn -0.1414 -0.0000 0.9900
vn 0.1893 0.0867 -0.9781
vn -0.1414 -0.0314 0.9895
vn -0.1414 0.0314 0.9895
vn -0.0000 0.0236 0.9997
vn -0.1414 -0.0000 0.9899
vn 0.1893 -0.0867 -0.9781
vn -0.1492 -0.1179 0.9818
vn 0.1414 -0.0000 0.9900
vn -0.1894 -0.0867 -0.9781
vn 0.1414 0.0314 0.9895
vn 0.8571 -0.1416 0.4953
vn 0.8571 0.1416 0.4953
vn -0.5813 -0.1414 0.8013
vn 0.5832 -0.7881 0.1970
vn -0.4546 -0.7838 0.4232
vn -0.5813 0.1414 0.8013
vn 0.5832 0.7881 0.1970
vn -0.9394 0.0869 -0.3316
vn -0.8717 0.4869 0.0550
vn -0.6397 -0.7582 -0.1264
vn -0.7698 0.6206 -0.1493
vn -0.9394 -0.0868 -0.3316
vn -0.4545 0.7838 0.4232
vn -0.8717 -0.4869 0.0550
vn -0.6397 0.7582 -0.1264
vn -0.7698 -0.6206 -0.1493
vn 0.5813 -0.1415 0.8013
vn 0.5813 0.1414 0.8013
vn -0.8571 -0.1415 0.4953
vn -0.8571 0.1415 0.4953
vn -0.5832 0.7880 0.1970
vn -0.5832 -0.7881 0.1969
vn 0.4546 0.7837 0.4232
vn 0.4545 -0.7838 0.4232
vn 0.9394 -0.0868 -0.3316
vn 0.9394 0.0868 -0.3316
vn 0.8717 -0.4869 0.0550
vn 0.6397 0.7582 -0.1264
vn 0.7698 -0.6206 -0.1493
vn 0.8717 0.4869 0.0550
vn 0.6397 -0.7582 -0.1263
vn 0.7698 0.6206 -0.1493
vn -0.9922 0.0708 -0.1024
vn -0.0868 0.1343 -0.9871
vn -0.9910 -0.0000 -0.1337
vn -0.0869 -0.1343 -0.9871
vn 0.4338 0.0552 -0.8993
vn -0.9922 -0.0709 -0.1024
vn -0.7342 -0.6711 -0.1027
vn 0.9834 0.0551 0.1731
vn 0.4338 -0.2129 0.8755
vn -0.0000 -0.1886 -0.9821
vn 0.7230 0.5736 0.3851
vn -0.0000 -0.2518 0.9678
vn -0.4338 -0.2129 0.8755
vn 0.0868 -0.1343 -0.9871
vn -0.4338 0.0552 -0.8993
vn -0.9834 0.0551 0.1731
vn -0.7230 0.5736 0.3851
vn 0.1102 0.5747 -0.8109
vn 0.1807 0.8406 0.5107
vn -0.0630 0.6694 -0.7403
vn -0.2287 -0.8124 -0.5364
vn -0.1102 0.5747 -0.8109
vn -0.1807 0.8406 0.5107
vn 0.7343 -0.6711 -0.1026
vn 0.9922 -0.0708 -0.1023
vn 0.0630 0.6694 -0.7403
vn 0.2287 -0.8124 -0.5363
vn -0.0000 0.7708 -0.6371
vn -0.0000 0.8498 0.5272
vn -0.0000 -0.7885 -0.6151
vn 0.0078 -0.8782 0.4783
vn -0.0078 -0.8782 0.4783
vn -0.0000 -0.8440 0.5364
vn -0.0000 0.1886 -0.9821
vn 0.4337 0.2129 0.8755
vn -0.0000 0.2518 0.9678
vn -0.4338 0.2129 0.8755
vn 0.0869 0.1343 -0.9871
vn -0.9838 -0.0472 0.1732
vn -0.4340 -0.0474 -0.8997
vn -0.7076 -0.5818 0.4010
vn 0.9910 -0.0000 -0.1337
vn 0.9922 0.0708 -0.1023
vn 0.7144 0.6910 -0.1100
vn -0.0869 -0.5850 -0.8064
vn 0.0630 -0.6776 -0.7328
vn 0.2207 0.8042 -0.5519
vn -0.1814 -0.8440 0.5048
vn -0.0000 0.7847 -0.6199
vn -0.0000 0.8764 0.4816
vn -0.0000 -0.7746 -0.6324
vn -0.0000 0.8440 0.5364
vn 0.1814 -0.8439 0.5048
vn -0.2208 0.8041 -0.5519
vn -0.0630 -0.6776 -0.7328
vn 0.7076 -0.5817 0.4010
vn -0.7145 0.6909 -0.1099
vn 0.0869 -0.5850 -0.8064
vn 0.4340 -0.0474 -0.8997
vn 0.9838 -0.0472 0.1732
vn -0.1807 0.8406 0.5106
vn 0.1806 0.8406 0.5106
vn -0.0079 -0.8782 0.4783
vn -0.3473 -0.6709 0.6552
vn 0.7229 0.5737 0.3850
vn -0.7343 -0.6711 -0.1026
vn 0.9834 0.0550 0.1730
vn -0.4957 -0.0708 0.8656
vn -0.4722 -0.0000 0.8815
vn -0.4957 0.0708 0.8656
vn 0.9838 -0.0472 0.1731
vn -0.3296 0.6907 0.6436
vn 0.7076 -0.5818 0.4009
vn 0.1814 -0.8440 0.5048
vn 0.3296 0.6907 0.6437
vn 0.2207 0.8041 -0.5519
vn -0.7076 -0.5819 0.4010
vn 0.7145 0.6909 -0.1099
vn -0.9838 -0.0472 0.1731
vn 0.9922 0.0708 -0.1024
vn 0.4957 0.0708 0.8656
vn -0.0869 0.1342 -0.9871
vn -0.0000 0.1885 -0.9821
vn -0.0869 -0.1342 -0.9871
vn -0.0000 -0.1885 -0.9821
vn 0.0869 -0.1342 -0.9871
vn 0.0869 0.1342 -0.9871
vn 0.7346 -0.1422 0.6635
vn 0.7346 0.1422 0.6634
vn -0.7346 -0.1422 0.6634
vn -0.5282 -0.7884 0.3153
vn 0.5283 -0.7884 0.3153
vn -0.7346 0.1422 0.6634
vn 0.5282 0.7884 0.3153
vn -0.5282 0.7884 0.3153
vn -0.0000 -0.2517 0.9678
vn 0.4338 0.2129 0.8755
vn -0.0000 0.2517 0.9678
vn 0.4722 -0.0000 0.8815
vn 0.4957 -0.0709 0.8656
vn 0.9922 -0.0709 -0.1024
vn 0.3473 -0.6709 0.6552
vn -0.7229 0.5737 0.3850
vn 0.2288 -0.8124 -0.5364
vn 0.8501 -0.0866 -0.5195
vn 0.8501 0.0866 -0.5195
vn -0.8501 -0.0866 -0.5195
vn 0.7345 -0.1421 0.6635
vn 0.7345 0.1422 0.6635
vn 0.5282 0.7884 0.3154
vn 0.5282 -0.7884 0.3154
vn 0.8642 -0.4871 -0.1257
vn 0.8642 0.4871 -0.1257
vn 0.5993 0.7570 -0.2603
vn -0.5282 0.7884 0.3154
vn 0.7184 -0.6237 -0.3080
vn -0.5994 0.7570 -0.2603
vn -0.7184 -0.6237 -0.3079
vn -0.8642 -0.4871 -0.1257
vn -0.7345 0.1421 0.6635
vn -0.8501 0.0866 -0.5195
vn -0.7345 -0.1422 0.6635
vn -0.5282 -0.7884 0.3154
vn -0.8642 0.4871 -0.1257
vn 0.7185 0.6237 -0.3079
vn -0.5993 -0.7570 -0.2603
vn -0.7184 0.6237 -0.3080
vn 0.5993 -0.7570 -0.2602
vn 0.7238 -0.0866 -0.6845
vn 0.7238 0.0866 -0.6845
vn -0.9394 -0.0869 -0.3316
vn -0.9394 0.0868 -0.3316
vn 0.8195 0.4886 -0.2995
vn -0.8717 0.4869 0.0549
vn -0.7698 0.6206 -0.1492
vn 0.6393 0.6236 -0.4500
vn -0.6397 -0.7581 -0.1263
vn 0.5352 -0.7555 -0.3778
vn -0.4546 -0.7837 0.4232
vn 0.8570 -0.1415 0.4954
vn 0.8570 0.1416 0.4954
vn 0.8195 -0.4886 -0.2995
vn -0.8717 -0.4869 0.0549
vn -0.7698 -0.6206 -0.1492
vn 0.6393 -0.6236 -0.4499
vn -0.6397 0.7581 -0.1263
vn 0.5352 0.7555 -0.3778
vn -0.4546 0.7837 0.4232
vn 0.9394 -0.0869 -0.3316
vn -0.7238 -0.0866 -0.6845
vn -0.8195 -0.4886 -0.2995
vn 0.8717 -0.4869 0.0549
vn 0.7698 -0.6206 -0.1492
vn -0.6393 -0.6236 -0.4500
vn 0.6397 0.7582 -0.1263
vn -0.5832 0.7881 0.1970
vn -0.5352 0.7555 -0.3778
vn -0.8571 0.1415 0.4954
vn -0.7238 0.0866 -0.6845
vn -0.8570 -0.1416 0.4954
vn -0.5832 -0.7881 0.1970
vn -0.8195 0.4886 -0.2994
vn 0.8717 0.4869 0.0549
vn 0.7698 0.6206 -0.1492
vn -0.6393 0.6236 -0.4500
vn -0.5352 -0.7555 -0.3778
vn 0.4546 -0.7837 0.4232
vt 0.413500 0.151569
vt 0.260882 0.151569
vt 0.413500 0.044244
vt 0.411020 0.151569
vt 0.385595 0.168035
vt 0.260882 0.044244
vt 0.411020 0.044244
vt 0.110745 0.044244
vt 0.108264 0.044244
vt 0.108264 0.151569
vt 0.136170 0.168035
vt 0.110745 0.151569
vt 0.260882 0.168035
vt 0.138650 0.168035
vt 0.383115 0.168035
vt 0.520901 0.155876
vt 0.673519 0.048551
vt 0.673519 0.155876
vt 0.523381 0.155876
vt 0.823657 0.155876
vt 0.826137 0.155876
vt 0.826137 0.048551
vt 0.798232 0.032085
vt 0.823657 0.048551
vt 0.520901 0.048551
vt 0.523381 0.048551
vt 0.548806 0.032085
vt 0.673519 0.032085
vt 0.551287 0.032085
vt 0.795751 0.032085
vt 0.526928 0.499103
vt 0.526928 0.492432
vt 0.526427 0.499103
vt 0.526791 0.501515
vt 0.526289 0.501515
vt 0.526427 0.492432
vt 0.526791 0.490021
vt 0.526290 0.499103
vt 0.526196 0.500139
vt 0.525994 0.501515
vt 0.525994 0.500139
vt 0.526290 0.492432
vt 0.526289 0.490021
vt 0.526196 0.491397
vt 0.525994 0.490021
vt 0.525994 0.491397
vt 0.537056 0.499103
vt 0.537056 0.492432
vt 0.536555 0.499103
vt 0.536555 0.492432
vt 0.536692 0.490021
vt 0.536692 0.501515
vt 0.537193 0.490021
vt 0.537193 0.501515
vt 0.537193 0.492432
vt 0.537193 0.499103
vt 0.537287 0.491397
vt 0.537488 0.490021
vt 0.537488 0.491397
vt 0.537287 0.500139
vt 0.537488 0.501515
vt 0.537488 0.500139
vt 0.571758 0.938345
vt 0.567097 0.902327
vt 0.571758 0.902327
vt 0.571758 0.880725
vt 0.567097 0.880725
vt 0.567097 0.844707
vt 0.571758 0.844707
vt 0.566852 0.838818
vt 0.563641 0.844707
vt 0.563641 0.880725
vt 0.514813 0.880725
vt 0.560124 0.841232
vt 0.465984 0.880725
vt 0.462529 0.880725
vt 0.462529 0.844707
vt 0.465984 0.844707
vt 0.469502 0.841232
vt 0.563579 0.841232
vt 0.552041 0.837883
vt 0.555497 0.837883
vt 0.556191 0.834531
vt 0.466046 0.841232
vt 0.477584 0.837883
vt 0.462774 0.838818
vt 0.457867 0.844707
vt 0.474129 0.837883
vt 0.473434 0.834531
vt 0.514813 0.837883
vt 0.514813 0.834531
vt 0.476890 0.834531
vt 0.552736 0.834531
vt 0.514813 0.902327
vt 0.563641 0.902327
vt 0.465984 0.902327
vt 0.462529 0.902327
vt 0.465984 0.938345
vt 0.462529 0.938345
vt 0.469454 0.941786
vt 0.457867 0.902327
vt 0.457867 0.938345
vt 0.462821 0.944267
vt 0.457867 0.880725
vt 0.465998 0.941786
vt 0.474648 0.945046
vt 0.474221 0.948421
vt 0.478104 0.945046
vt 0.514813 0.948421
vt 0.477677 0.948421
vt 0.514813 0.945046
vt 0.551948 0.948421
vt 0.551522 0.945046
vt 0.555404 0.948421
vt 0.554977 0.945046
vt 0.560172 0.941786
vt 0.566804 0.944267
vt 0.563627 0.941786
vt 0.567097 0.938345
vt 0.563641 0.938345
vt 0.563396 0.838818
vt 0.568302 0.844707
vt 0.568302 0.880725
vt 0.568302 0.902327
vt 0.568302 0.938345
vt 0.563348 0.944267
vt 0.466277 0.944267
vt 0.461323 0.938345
vt 1.000000 0.693487
vt 0.500000 0.693487
vt 1.000000 0.306513
vt 0.500000 0.306513
vt 0.000000 0.306513
vt 0.000000 0.693487
vt 0.531997 0.499103
vt 0.531997 0.492432
vt 0.531485 0.499103
vt 0.531485 0.501515
vt 0.531997 0.501515
vt 0.531485 0.492432
vt 0.531997 0.490021
vt 0.531485 0.490021
vt 0.461323 0.880725
vt 0.461323 0.902327
vt 0.461323 0.844707
vt 0.466229 0.838818
vt 0.531997 0.491397
vt 0.531997 0.500139
vt 0.531485 0.491397
vt 0.531485 0.500139
vt 0.526791 0.492432
vt 0.526791 0.499103
vt 0.526697 0.500139
vt 0.526495 0.500139
vt 0.526495 0.501515
vt 0.526697 0.491397
vt 0.526495 0.491397
vt 0.526495 0.490021
vt 0.536692 0.492432
vt 0.536785 0.491397
vt 0.536987 0.491397
vt 0.536987 0.490021
vt 0.536692 0.499103
vt 0.536785 0.500139
vt 0.536987 0.500139
vt 0.536987 0.501515
s 1
usemtl Window1Mtl
f 1/1/1 2/2/2 3/3/3
f 1/1/1 3/3/3 4/4/4
f 4/4/4 5/5/5 1/1/1
f 2/2/2 1/1/1 5/5/5
f 2/2/2 6/6/6 3/3/3
f 3/3/3 6/6/6 7/7/7
f 8/6/8 7/7/7 6/6/6
f 6/6/6 9/8/9 8/6/8
f 6/6/6 10/9/10 9/8/9
f 2/2/2 10/9/10 6/6/6
f 11/10/11 9/8/9 10/9/10
f 2/2/2 11/10/11 10/9/10
f 2/2/2 12/11/12 11/10/11
f 11/10/11 12/11/12 13/12/13
f 12/11/12 2/2/2 14/13/14
f 5/5/5 14/13/14 2/2/2
f 14/13/14 15/14/15 12/11/12
f 16/15/16 14/13/14 5/5/5
f 15/14/15 14/13/14 17/13/17
f 14/13/14 16/15/16 17/13/17
f 18/16/18 19/17/2 20/18/19
f 18/16/18 20/18/19 21/19/20
f 22/18/21 21/19/20 20/18/19
f 20/18/19 23/20/22 22/18/21
f 20/18/19 24/21/23 23/20/22
f 25/22/1 23/20/22 24/21/23
f 20/18/19 25/22/1 24/21/23
f 25/22/1 20/18/19 19/17/2
f 25/22/1 26/23/24 27/24/4
f 19/17/2 26/23/24 25/22/1
f 19/17/2 18/16/18 28/25/11
f 28/25/11 18/16/18 29/26/25
f 29/26/25 30/27/26 28/25/11
f 30/27/26 19/17/2 28/25/11
f 19/17/2 30/27/26 31/28/27
f 26/23/24 19/17/2 31/28/27
f 32/29/28 31/28/27 30/27/26
f 31/28/27 33/30/29 26/23/24
f 31/28/27 32/29/28 34/28/30
f 33/30/29 31/28/27 34/28/30
f 35/7/7 36/6/8 37/4/31
f 35/7/7 37/4/31 38/3/32
f 39/5/33 37/4/31 40/15/34
f 41/2/35 40/15/34 37/4/31
f 36/6/8 41/2/35 37/4/31
f 40/15/34 41/2/35 42/13/17
f 41/2/35 43/14/15 42/13/17
f 36/6/8 44/12/36 41/2/35
f 43/14/15 41/2/35 44/12/36
f 44/12/36 45/11/37 43/14/15
f 36/6/8 46/8/38 44/12/36
f 46/8/38 47/10/11 44/12/36
f 48/17/35 49/19/39 50/18/40
f 49/19/39 51/26/41 52/16/18
f 49/19/39 48/17/35 51/26/41
f 53/27/42 51/26/41 54/29/43
f 48/17/35 54/29/43 51/26/41
f 54/29/43 48/17/35 55/28/30
f 56/30/29 55/28/30 48/17/35
f 48/17/35 50/18/40 57/24/44
f 48/17/35 57/24/44 56/30/29
f 57/24/44 58/23/45 56/30/29
f 57/24/44 50/18/40 59/20/46
f 59/20/46 60/22/1 57/24/44
usemtl Handle1Mtl.042
f 61/31/47 62/32/48 63/33/49
f 63/33/49 64/34/50 61/31/47
f 64/34/50 63/33/49 65/35/51
f 63/33/49 62/32/48 66/36/52
f 62/32/48 67/37/53 66/36/52
f 68/38/54 65/35/51 63/33/49
f 63/33/49 66/36/52 68/38/54
f 65/35/51 68/38/54 69/39/55
f 69/39/55 70/40/56 65/35/51
f 70/40/56 69/39/55 71/41/57
f 72/42/58 68/38/54 66/36/52
f 66/36/52 67/37/53 73/43/59
f 66/36/52 73/43/59 72/42/58
f 72/42/58 73/43/59 74/44/60
f 75/45/61 74/44/60 73/43/59
f 75/45/61 76/46/62 74/44/60
f 77/47/63 78/48/64 79/49/65
f 79/49/65 78/48/64 80/50/66
f 78/48/64 81/51/67 80/50/66
f 77/47/63 79/49/65 82/52/68
f 81/51/67 78/48/64 83/53/69
f 84/54/70 77/47/63 82/52/68
f 77/47/63 85/55/71 78/48/64
f 85/55/71 83/53/69 78/48/64
f 85/55/71 77/47/63 86/56/72
f 77/47/63 84/54/70 86/56/72
f 83/53/69 85/55/71 87/57/73
f 87/57/73 88/58/74 83/53/69
f 88/58/74 87/57/73 89/59/75
f 86/56/72 84/54/70 90/60/76
f 91/61/77 90/60/76 84/54/70
f 91/61/77 92/62/78 90/60/76
f 93/63/79 94/64/80 95/65/81
f 96/66/81 95/65/81 94/64/80
f 94/64/80 97/67/82 96/66/81
f 97/67/82 98/68/83 96/66/81
f 96/66/81 98/68/83 99/69/84
f 98/68/83 100/70/85 99/69/84
f 98/68/83 97/67/82 101/71/86
f 102/72/87 101/71/86 97/67/82
f 97/67/82 103/73/88 102/72/87
f 98/68/83 101/71/86 104/74/89
f 105/73/90 102/72/87 103/73/88
f 103/73/88 106/75/91 105/73/90
f 103/73/88 107/76/92 106/75/91
f 108/77/93 106/75/91 107/76/92
f 106/75/91 108/77/93 109/78/94
f 108/77/93 110/79/95 109/78/94
f 111/80/96 98/68/83 104/74/89
f 100/70/85 98/68/83 111/80/96
f 104/74/89 112/81/97 111/80/96
f 113/82/98 100/70/85 111/80/96
f 111/80/96 112/81/97 113/82/98
f 114/83/99 100/70/85 113/82/98
f 110/79/95 108/77/93 115/84/100
f 115/84/100 116/85/101 110/79/95
f 108/77/93 117/86/102 115/84/100
f 118/87/103 117/86/102 108/77/93
f 117/86/102 119/88/104 115/84/100
f 116/85/101 115/84/100 119/88/104
f 119/88/104 117/86/102 120/89/105
f 119/88/104 121/90/106 116/85/101
f 122/90/107 116/85/101 121/90/106
f 121/90/106 112/81/97 122/90/107
f 112/81/97 121/90/106 113/82/98
f 119/88/104 123/91/108 121/90/106
f 123/91/108 119/88/104 120/89/105
f 123/91/108 113/82/98 121/90/106
f 113/82/98 123/91/108 114/83/99
f 124/92/109 123/91/108 120/89/105
f 114/83/99 123/91/108 125/93/110
f 123/91/108 124/92/109 126/91/111
f 125/93/110 123/91/108 126/91/111
f 127/94/112 128/95/113 129/94/114
f 130/96/115 127/94/112 129/94/114
f 127/94/112 130/96/115 131/97/116
f 130/96/115 132/98/117 131/97/116
f 128/95/113 127/94/112 94/64/80
f 133/99/118 131/97/116 132/98/117
f 133/99/118 132/98/117 134/100/119
f 133/99/118 135/101/120 131/97/116
f 136/102/121 135/101/120 133/99/118
f 135/101/120 107/76/92 131/97/116
f 133/99/118 137/103/122 136/102/121
f 107/76/92 135/101/120 138/104/120
f 139/105/123 133/99/118 134/100/119
f 137/103/122 133/99/118 139/105/123
f 138/104/120 118/87/103 107/76/92
f 140/106/124 137/103/122 139/105/123
f 134/100/119 140/106/124 139/105/123
f 141/107/125 137/103/122 140/106/124
f 140/106/124 134/100/119 142/108/126
f 107/76/92 118/87/103 108/77/93
f 140/106/124 143/109/127 141/107/125
f 141/107/125 143/109/127 144/110/128
f 142/108/126 145/111/129 140/106/124
f 143/109/127 140/106/124 145/111/129
f 145/111/129 142/108/126 146/111/111
f 147/109/130 144/110/128 143/109/127
f 143/109/127 148/112/128 147/109/130
f 149/113/131 145/111/129 146/111/111
f 148/112/128 143/109/127 150/114/132
f 151/115/133 145/111/129 149/113/131
f 151/115/133 143/109/127 145/111/129
f 143/109/127 151/115/133 150/114/132
f 152/116/134 151/115/133 149/113/131
f 151/115/133 153/117/135 150/114/132
f 151/115/133 152/116/134 154/118/136
f 153/117/135 151/115/133 154/118/136
f 152/116/134 155/119/137 154/118/136
f 155/119/137 153/117/135 154/118/136
f 155/119/137 152/116/134 156/120/138
f 128/95/113 155/119/137 156/120/138
f 93/63/79 153/117/135 155/119/137
f 155/119/137 128/95/113 94/64/80
f 155/119/137 94/64/80 93/63/79
f 157/85/139 158/91/111 159/92/109
f 158/91/111 157/85/139 160/90/107
f 161/81/140 158/91/111 160/90/107
f 158/91/111 161/81/140 162/93/141
f 161/81/140 163/121/142 162/93/141
f 163/121/142 164/83/99 162/93/141
f 163/121/142 161/81/140 165/74/143
f 164/83/99 163/121/142 166/70/144
f 167/71/145 163/121/142 165/74/143
f 163/121/142 168/69/84 166/70/144
f 169/122/146 163/121/142 167/71/145
f 168/69/84 163/121/142 169/122/146
f 167/71/145 170/72/87 169/122/146
f 171/123/147 168/69/84 169/122/146
f 169/122/146 170/72/87 171/123/147
f 168/69/84 171/123/147 172/66/81
f 173/124/147 171/123/147 170/72/87
f 171/123/147 173/124/147 172/66/81
f 174/65/81 172/66/81 173/124/147
f 173/124/147 175/125/148 174/65/81
f 176/63/79 174/65/81 175/125/148
f 173/124/147 177/120/149 175/125/148
f 175/125/148 178/126/150 176/63/79
f 177/120/149 178/126/150 175/125/148
f 179/117/135 176/63/79 178/126/150
f 178/126/150 177/120/149 180/116/151
f 178/126/150 181/114/132 179/117/135
f 182/113/152 178/126/150 180/116/151
f 181/114/132 178/126/150 183/112/128
f 183/112/128 178/126/150 182/113/152
f 182/113/152 184/109/130 183/112/128
f 184/109/130 182/113/152 185/111/111
f 186/108/126 184/109/130 185/111/111
f 184/109/130 186/108/126 187/110/128
f 186/108/126 188/127/153 187/110/128
f 188/127/153 189/107/154 187/110/128
f 188/127/153 186/108/126 190/100/155
f 189/107/154 188/127/153 191/103/156
f 192/98/157 188/127/153 190/100/155
f 188/127/153 193/102/158 191/103/156
f 194/128/159 188/127/153 192/98/157
f 193/102/158 188/127/153 194/128/159
f 195/129/160 196/130/161 197/131/162
f 196/130/161 198/132/163 197/131/162
f 196/130/161 199/133/164 198/132/163
f 196/130/161 200/134/165 199/133/164
f 201/135/166 202/136/167 203/137/168
f 204/138/169 201/135/166 203/137/168
f 204/138/169 205/139/170 201/135/166
f 203/137/168 202/136/167 206/140/171
f 202/136/167 207/141/172 206/140/171
f 206/140/171 207/141/172 208/142/173
f 170/72/87 209/73/174 210/95/175
f 209/73/174 211/94/176 210/95/175
f 209/73/174 212/96/115 211/94/176
f 170/72/87 210/95/175 173/124/147
f 209/73/174 213/75/91 212/96/115
f 177/120/149 173/124/147 210/95/175
f 214/143/177 212/96/115 213/75/91
f 215/78/94 214/143/177 213/75/91
f 212/96/115 214/143/177 216/144/177
f 214/143/177 217/101/120 216/144/177
f 217/101/120 214/143/177 218/104/120
f 193/102/158 216/144/177 217/101/120
f 214/143/177 219/145/178 218/104/120
f 219/145/178 214/143/177 215/78/94
f 220/87/179 218/104/120 219/145/178
f 194/128/159 212/96/115 216/144/177
f 216/144/177 193/102/158 194/128/159
f 212/96/115 194/128/159 192/98/157
f 215/78/94 221/146/180 219/145/178
f 219/145/178 221/146/180 220/87/179
f 221/146/180 215/78/94 222/79/181
f 223/86/102 220/87/179 221/146/180
f 221/146/180 224/89/182 223/86/102
f 157/85/139 221/146/180 222/79/181
f 224/89/182 221/146/180 159/92/109
f 159/92/109 221/146/180 157/85/139
f 225/136/183 226/135/184 227/140/185
f 225/136/183 228/135/186 226/135/184
f 228/135/186 225/136/183 229/136/187
f 225/136/183 230/141/188 229/136/187
f 228/135/186 231/139/189 226/135/184
f 230/141/188 225/136/183 232/147/190
f 226/135/184 231/139/189 233/148/191
f 232/147/190 234/141/192 230/141/188
f 234/141/192 235/142/193 230/141/188
f 234/141/192 232/147/190 236/147/194
f 237/142/195 235/142/193 234/141/192
f 237/142/195 234/141/192 236/147/194
f 236/147/194 232/147/190 238/149/196
f 237/142/195 236/147/194 238/149/196
f 238/149/196 232/147/190 239/149/197
f 237/142/195 238/149/196 239/149/197
f 239/149/197 232/147/190 225/136/183
f 237/142/195 239/149/197 235/142/193
f 239/149/197 225/136/183 227/140/185
f 227/140/185 235/142/193 239/149/197
f 240/140/198 235/142/193 227/140/185
f 227/140/185 241/137/199 240/140/198
f 227/140/185 226/135/184 241/137/199
f 242/137/200 240/140/198 241/137/199
f 233/148/191 241/137/199 226/135/184
f 241/137/199 243/138/201 242/137/200
f 233/148/191 244/150/202 241/137/199
f 243/138/201 241/137/199 244/150/202
f 245/148/203 244/150/202 233/148/191
f 244/150/202 246/138/204 243/138/201
f 246/138/204 231/139/189 243/138/201
f 247/150/205 244/150/202 245/148/203
f 246/138/204 244/150/202 247/150/205
f 248/139/206 245/148/203 233/148/191
f 248/139/206 233/148/191 231/139/189
f 247/150/205 245/148/203 248/139/206
f 248/139/206 231/139/189 246/138/204
f 247/150/205 248/139/206 246/138/204
f 249/151/207 250/152/208 251/42/209
f 251/42/209 250/152/208 252/38/210
f 252/38/210 250/152/208 253/153/211
f 253/153/211 254/39/212 252/38/210
f 253/153/211 255/41/213 254/39/212
f 255/41/213 253/153/211 256/154/214
f 256/154/214 257/40/215 255/41/213
f 250/152/208 258/34/50 253/153/211
f 257/40/215 256/154/214 259/155/216
f 259/155/216 256/154/214 253/153/211
f 259/155/216 253/153/211 258/34/50
f 259/155/216 260/35/217 257/40/215
f 260/35/217 259/155/216 258/34/50
f 261/31/218 258/34/50 250/152/208
f 249/151/207 261/31/218 250/152/208
f 261/31/218 249/151/207 262/32/219
f 249/151/207 263/37/53 262/32/219
f 251/42/209 264/156/220 249/151/207
f 263/37/53 249/151/207 264/156/220
f 264/156/220 251/42/209 265/44/221
f 266/46/222 264/156/220 265/44/221
f 264/156/220 266/46/222 267/157/223
f 268/45/224 267/157/223 266/46/222
f 264/156/220 269/158/225 263/37/53
f 269/158/225 264/156/220 267/157/223
f 268/45/224 269/158/225 267/157/223
f 270/43/226 263/37/53 269/158/225
f 268/45/224 270/43/226 269/158/225
f 271/55/227 272/56/72 273/159/228
f 271/55/227 273/159/228 274/160/229
f 274/160/229 275/57/230 271/55/227
f 274/160/229 276/59/231 275/57/230
f 276/59/231 274/160/229 277/161/232
f 277/161/232 278/58/233 276/59/231
f 273/159/228 279/51/234 274/160/229
f 278/58/233 277/161/232 280/162/235
f 280/162/235 277/161/232 274/160/229
f 280/162/235 274/160/229 279/51/234
f 280/162/235 281/53/69 278/58/233
f 281/53/69 280/162/235 279/51/234
f 282/50/236 279/51/234 273/159/228
f 273/159/228 283/163/237 282/50/236
f 273/159/228 272/56/72 283/163/237
f 284/49/238 282/50/236 283/163/237
f 283/163/237 285/52/239 284/49/238
f 272/56/72 286/164/240 283/163/237
f 285/52/239 283/163/237 286/164/240
f 286/164/240 272/56/72 287/60/241
f 288/62/242 286/164/240 287/60/241
f 286/164/240 288/62/242 289/165/243
f 289/165/243 288/62/242 290/61/77
f 286/164/240 291/166/244 285/52/239
f 291/166/244 286/164/240 289/165/243
f 289/165/243 290/61/77 291/166/244
f 292/54/245 285/52/239 291/166/244
f 290/61/77 292/54/245 291/166/244
