# Blender 5.1.2
# www.blender.org
mtllib RockingChair.mtl
o RockingChair
v 0.799440 0.822855 -1.481751
v 0.799440 0.747025 -1.481750
v 0.744040 0.747025 -1.504051
v 0.744040 0.822855 -1.504051
v 1.597240 0.747026 0.499449
v 1.597240 0.822856 0.499449
v 1.572741 0.822856 0.553949
v 1.572741 0.747026 0.553949
v 1.498641 0.822856 0.254650
v 1.597240 0.822856 0.499449
v 1.597240 0.747026 0.499449
v 1.498641 0.747025 0.254650
v 0.799440 0.822855 -1.481751
v 0.897941 0.822855 -1.236950
v 0.897941 0.747025 -1.236950
v 0.799440 0.747025 -1.481750
v -0.890109 -0.368209 1.364849
v -1.601369 -0.533304 -0.321651
v -0.917749 -0.533304 1.375950
v -1.573719 -0.368209 -0.332750
v 0.744040 0.747025 -1.504051
v -1.084789 0.747025 -0.767551
v -1.084789 0.822856 -0.767551
v 0.744040 0.822855 -1.504051
v -1.109229 0.747025 -0.713150
v -1.109229 0.822856 -0.713150
v -1.578089 -0.575826 -0.551550
v -1.731869 -0.513871 -0.489651
v -1.684589 -0.443424 -0.508650
v -1.551489 -0.410598 -0.562250
v -1.551489 -0.410598 -0.562250
v -1.269679 -0.495335 -0.675751
v -1.578089 -0.575826 -0.551550
v -1.322040 -0.676935 -0.654650
v -1.269679 -0.495335 -0.675751
v -0.917469 -0.582228 -0.817650
v -1.322040 -0.676935 -0.654650
v -0.926079 -0.772167 -0.814150
v -0.917469 -0.582228 -0.817650
v -0.467559 -0.634266 -0.998751
v -0.926079 -0.772167 -0.814150
v -0.476159 -0.824203 -0.995350
v -0.467559 -0.634266 -0.998751
v 0.053941 -0.653068 -1.208750
v -0.476159 -0.824203 -0.995350
v 0.053941 -0.843005 -1.208750
v 0.489541 -0.782868 -1.384151
v 0.053941 -0.843005 -1.208750
v 0.440640 -0.600383 -1.364550
v 0.053941 -0.653068 -1.208750
v 0.692441 -0.740030 -1.465851
v 0.489541 -0.782868 -1.384151
v 0.643540 -0.557544 -1.446251
v 0.440640 -0.600383 -1.364550
v 0.746040 -0.610529 -1.487450
v 0.811641 -0.707338 -1.513851
v 0.692441 -0.740030 -1.465851
v 0.643540 -0.557544 -1.446251
v 1.572741 0.822856 0.553949
v -0.256060 0.822856 1.290350
v -0.256060 0.747026 1.290350
v 1.572741 0.747026 0.553949
v -0.311460 0.822856 1.268049
v -0.311460 0.747026 1.268049
v -0.867279 -0.443424 1.520950
v -0.760779 -0.575825 1.478050
v -0.734179 -0.410598 1.467350
v -0.914559 -0.513871 1.539949
v -0.452359 -0.495334 1.353849
v -0.760779 -0.575825 1.478050
v -0.504759 -0.676934 1.374949
v -0.734179 -0.410598 1.467350
v -0.100160 -0.582227 1.212049
v -0.504759 -0.676934 1.374949
v -0.108759 -0.772167 1.215450
v -0.452359 -0.495334 1.353849
v -0.108759 -0.772167 1.215450
v 0.349741 -0.634265 1.030849
v -0.100160 -0.582227 1.212049
v 0.341141 -0.824202 1.034250
v 0.341141 -0.824202 1.034250
v 0.871241 -0.653067 0.820849
v 0.349741 -0.634265 1.030849
v 0.871241 -0.843005 0.820849
v 0.871241 -0.843005 0.820849
v 1.257941 -0.600382 0.665150
v 0.871241 -0.653067 0.820849
v 1.306841 -0.782868 0.645449
v 1.306841 -0.782868 0.645449
v 1.460841 -0.557543 0.583450
v 1.257941 -0.600382 0.665150
v 1.509741 -0.740029 0.563749
v 1.509741 -0.740029 0.563749
v 1.563341 -0.610528 0.542149
v 1.460841 -0.557543 0.583450
v 1.628941 -0.707337 0.515749
v 1.363941 0.234666 0.457149
v 0.728341 0.128393 -1.259750
v 0.680341 0.234665 -1.240450
v 1.411941 0.128394 0.437849
v -0.803589 -0.614147 -0.801651
v -0.565959 -0.430327 -0.897350
v -0.528359 -0.650340 -0.912451
v -0.779889 -0.426070 -0.811151
v -0.779889 -0.426070 -0.811151
v -0.663360 0.168006 -0.858150
v -0.565959 -0.430327 -0.897350
v -0.913049 0.468975 -0.757551
v -0.787199 0.759386 -0.808250
v -0.663360 0.168006 -0.858150
v -0.913049 0.468975 -0.757551
v -1.026229 0.759386 -0.711950
v 0.198941 -0.650340 -1.205351
v 0.236441 -0.430327 -1.220451
v 0.474141 -0.614147 -1.316151
v 0.450440 -0.426070 -1.306650
v 0.236441 -0.430327 -1.220451
v 0.333840 0.168005 -1.259651
v 0.450440 -0.426070 -1.306650
v 0.583541 0.468975 -1.360250
v 0.333840 0.168005 -1.259651
v 0.457741 0.759385 -1.309551
v 0.583541 0.468975 -1.360250
v 0.696741 0.759385 -1.405851
v 1.511441 -0.707337 0.224049
v 1.628941 -0.707337 0.515749
v 1.509741 -0.740029 0.563749
v 1.392241 -0.740029 0.272049
v 0.929041 -0.707338 -1.222250
v 0.692441 -0.740030 -1.465851
v 0.811641 -0.707338 -1.513851
v 0.809841 -0.740030 -1.174150
v 1.010241 -0.430326 0.701250
v 1.247941 -0.614146 0.605549
v 1.224241 -0.426069 0.615049
v 0.972741 -0.650339 0.716349
v 1.224241 -0.426069 0.615049
v 1.107641 0.168006 0.662050
v 1.010241 -0.430326 0.701250
v 1.357441 0.468976 0.561449
v 1.231541 0.759386 0.612150
v 1.357441 0.468976 0.561449
v 1.470541 0.759386 0.515850
v 1.107641 0.168006 0.662050
v 0.207941 -0.430326 1.024349
v -0.006060 -0.426069 1.110449
v -0.029759 -0.614146 1.120049
v 0.245440 -0.650339 1.009249
v -0.139159 0.468976 1.164150
v -0.006060 -0.426069 1.110449
v 0.110540 0.168006 1.063549
v 0.207941 -0.430326 1.024349
v -0.252359 0.759386 1.209650
v -0.139159 0.468976 1.164150
v -0.013359 0.759386 1.113449
v 0.110540 0.168006 1.063549
v -0.914559 -0.513871 1.539949
v -0.878240 -0.575825 1.186350
v -0.760779 -0.575825 1.478050
v -1.032020 -0.513871 1.248249
v -1.614409 -0.513871 -0.197950
v -1.731869 -0.513871 -0.489651
v -1.460619 -0.575825 -0.259851
v -1.578089 -0.575826 -0.551550
v -0.504759 -0.676934 1.374949
v -0.760779 -0.575825 1.478050
v -0.622159 -0.676934 1.083250
v -0.878240 -0.575825 1.186350
v -1.204579 -0.676934 -0.363050
v -1.460619 -0.575825 -0.259851
v -1.322040 -0.676935 -0.654650
v -1.578089 -0.575826 -0.551550
v 1.509741 -0.740029 0.563749
v 1.189341 -0.782868 0.353750
v 1.392241 -0.740029 0.272049
v 1.306841 -0.782868 0.645449
v 0.809841 -0.740030 -1.174150
v 0.607040 -0.782868 -1.092550
v 0.692441 -0.740030 -1.465851
v 0.489541 -0.782868 -1.384151
v 1.149641 -0.426069 0.429749
v 1.282741 0.468976 0.376150
v 1.224241 -0.426069 0.615049
v 1.357441 0.468976 0.561449
v 0.450440 -0.426070 -1.306650
v 0.583541 0.468975 -1.360250
v 0.525041 -0.426070 -1.121351
v 0.658141 0.468975 -1.174950
v -0.006060 -0.142909 1.016249
v -0.445359 1.852046 1.193149
v -0.069559 -0.182292 1.041849
v -0.586659 1.972956 1.250049
v -0.890109 -0.368209 1.364849
v 1.263841 0.098592 0.497450
v 1.231641 0.270856 0.510450
v -0.917749 -0.533304 1.375950
v 1.363941 0.234666 0.457149
v 1.411941 0.128394 0.437849
v 1.306841 -0.782868 0.645449
v 0.871241 -0.843005 0.820849
v 1.189341 -0.782868 0.353750
v 0.753840 -0.843005 0.529150
v 0.607040 -0.782868 -1.092550
v 0.171441 -0.843005 -0.917051
v 0.489541 -0.782868 -1.384151
v 0.053941 -0.843005 -1.208750
v -0.108759 -0.772167 1.215450
v -0.504759 -0.676934 1.374949
v -0.226259 -0.772167 0.923750
v -0.622159 -0.676934 1.083250
v -0.808619 -0.772167 -0.522451
v -1.204579 -0.676934 -0.363050
v -0.926079 -0.772167 -0.814150
v -1.322040 -0.676935 -0.654650
v 0.580241 0.098591 -1.200151
v -1.601369 -0.533304 -0.321651
v -1.573719 -0.368209 -0.332750
v 0.548040 0.270855 -1.187151
v 0.728341 0.128393 -1.259750
v 0.580241 0.098591 -1.200151
v 0.680341 0.234665 -1.240450
v 0.548040 0.270855 -1.187151
v -0.858269 1.852046 0.167650
v -1.125819 1.972955 -0.088751
v -0.999649 1.972955 0.224550
v -0.984439 1.852046 -0.145750
v -0.719759 1.852046 0.511549
v -0.987299 1.972955 0.255249
v -0.861129 1.972955 0.568550
v -0.845920 1.852046 0.198250
v -0.584660 1.852046 0.847050
v -0.710859 1.852046 0.533749
v -0.726059 1.972956 0.903950
v -0.852209 1.972955 0.590649
v -0.997609 1.852046 -0.178450
v -1.123779 1.852046 -0.491751
v -1.138989 1.972955 -0.121451
v -1.265160 1.972955 -0.434851
v -0.445359 1.852046 1.193149
v -0.571459 1.852046 0.879749
v -0.586659 1.972956 1.250049
v -0.712859 1.972956 0.936748
v -0.748059 -0.182293 -0.643051
v -1.123779 1.852046 -0.491751
v -0.684559 -0.142910 -0.668650
v -1.265160 1.972955 -0.434851
v 0.341141 -0.824202 1.034250
v -0.226259 -0.772167 0.923750
v 0.223741 -0.824202 0.742649
v -0.108759 -0.772167 1.215450
v 0.223741 -0.824202 0.742649
v 0.871241 -0.843005 0.820849
v 0.341141 -0.824202 1.034250
v 0.753840 -0.843005 0.529150
v -0.358659 -0.824203 -0.703651
v -0.926079 -0.772167 -0.814150
v -0.476159 -0.824203 -0.995350
v -0.808619 -0.772167 -0.522451
v -0.476159 -0.824203 -0.995350
v 0.053941 -0.843005 -1.208750
v -0.358659 -0.824203 -0.703651
v 0.171441 -0.843005 -0.917051
v -0.914559 -0.513871 1.539949
v -0.984739 -0.443424 1.229250
v -1.032020 -0.513871 1.248249
v -0.867279 -0.443424 1.520950
v -1.567129 -0.443424 -0.217051
v -1.731869 -0.513871 -0.489651
v -1.614409 -0.513871 -0.197950
v -1.684589 -0.443424 -0.508650
v 1.224241 -0.426069 0.615049
v 1.247941 -0.614146 0.605549
v 1.149641 -0.426069 0.429749
v 1.173341 -0.614146 0.420250
v 0.525041 -0.426070 -1.121351
v 0.548740 -0.614147 -1.130850
v 0.450440 -0.426070 -1.306650
v 0.474141 -0.614147 -1.316151
v 1.443241 0.822856 0.232349
v -0.256060 0.822856 1.290350
v 1.572741 0.822856 0.553949
v 1.597240 0.822856 0.499449
v 1.498641 0.822856 0.254650
v -0.385559 0.822856 0.968750
v -0.311460 0.822856 1.268049
v -0.409959 0.822856 1.023249
v 0.873541 0.822856 -1.182451
v -1.084789 0.822856 -0.767551
v -0.955289 0.822856 -0.446051
v -1.109229 0.822856 -0.713150
v -1.010669 0.822856 -0.468351
v 0.744040 0.822855 -1.504051
v 0.799440 0.822855 -1.481751
v 0.897941 0.822855 -1.236950
v 1.470541 0.759386 0.515850
v 1.282741 0.468976 0.376150
v 1.395941 0.759386 0.330549
v 1.357441 0.468976 0.561449
v 0.771340 0.759385 -1.220551
v 0.658141 0.468975 -1.174950
v 0.696741 0.759385 -1.405851
v 0.583541 0.468975 -1.360250
v -0.311460 0.822856 1.268049
v -0.409959 0.747026 1.023249
v -0.311460 0.747026 1.268049
v -0.409959 0.822856 1.023249
v -1.010669 0.822856 -0.468351
v -1.109229 0.747025 -0.713150
v -1.010669 0.747025 -0.468351
v -1.109229 0.822856 -0.713150
v 0.972741 -0.650339 0.716349
v 0.898141 -0.650339 0.531050
v 1.247941 -0.614146 0.605549
v 1.173341 -0.614146 0.420250
v 0.198941 -0.650340 -1.205351
v 0.548740 -0.614147 -1.130850
v 0.273540 -0.650340 -1.020050
v 0.474141 -0.614147 -1.316151
v 1.470541 0.759386 0.515850
v 1.156940 0.759386 0.426849
v 1.231541 0.759386 0.612150
v 1.395941 0.759386 0.330549
v -0.013359 0.759386 1.113449
v -0.087959 0.759386 0.928150
v -0.252359 0.759386 1.209650
v -0.326960 0.759386 1.024349
v -0.712559 0.759386 -0.622952
v -1.026229 0.759386 -0.711950
v -0.951610 0.759386 -0.526651
v -0.787199 0.759386 -0.808250
v 0.771340 0.759385 -1.220551
v 0.457741 0.759385 -1.309551
v 0.532341 0.759386 -1.124250
v 0.696741 0.759385 -1.405851
v 0.245440 -0.650339 1.009249
v -0.029759 -0.614146 1.120049
v -0.104360 -0.614146 0.934750
v 0.170841 -0.650339 0.823950
v -0.453759 -0.650340 -0.727150
v -0.728959 -0.614147 -0.616350
v -0.803589 -0.614147 -0.801651
v -0.528359 -0.650340 -0.912451
v 1.445841 -0.610528 0.250450
v 1.563341 -0.610528 0.542149
v 1.628941 -0.707337 0.515749
v 1.511441 -0.707337 0.224049
v 0.746040 -0.610529 -1.487450
v 0.863441 -0.610529 -1.195751
v 0.929041 -0.707338 -1.222250
v 0.811641 -0.707338 -1.513851
v -0.145459 -0.142909 0.670149
v -0.584660 1.852046 0.847050
v -0.208960 -0.182292 0.695749
v -0.726059 1.972956 0.903950
v -0.608759 -0.182292 -0.297050
v -0.984439 1.852046 -0.145750
v -0.545259 -0.142909 -0.322550
v -1.125819 1.972955 -0.088751
v -0.999649 1.972955 0.224550
v -0.608759 -0.182292 -0.297050
v -0.482559 -0.182292 0.016350
v -1.125819 1.972955 -0.088751
v -0.344059 -0.182292 0.360249
v -0.987299 1.972955 0.255249
v -0.470160 -0.182292 0.046949
v -0.861129 1.972955 0.568550
v -0.726059 1.972956 0.903950
v -0.335059 -0.182292 0.382450
v -0.208960 -0.182292 0.695749
v -0.852209 1.972955 0.590649
v -1.138989 1.972955 -0.121451
v -0.748059 -0.182293 -0.643051
v -0.621860 -0.182292 -0.329750
v -1.265160 1.972955 -0.434851
v -0.586659 1.972956 1.250049
v -0.195759 -0.182292 0.728449
v -0.069559 -0.182292 1.041849
v -0.712859 1.972956 0.936748
v -0.006060 -0.426069 1.110449
v -0.213860 0.468976 0.978849
v -0.080659 -0.426069 0.925150
v -0.139159 0.468976 1.164150
v -0.838429 0.468976 -0.572250
v -0.779889 -0.426070 -0.811151
v -0.705259 -0.426070 -0.625851
v -0.913049 0.468975 -0.757551
v 1.231641 0.270856 0.510450
v 0.680341 0.234665 -1.240450
v 0.548040 0.270855 -1.187151
v 1.363941 0.234666 0.457149
v -0.006060 -0.426069 1.110449
v -0.104360 -0.614146 0.934750
v -0.029759 -0.614146 1.120049
v -0.080659 -0.426069 0.925150
v -0.705259 -0.426070 -0.625851
v -0.803589 -0.614147 -0.801651
v -0.728959 -0.614147 -0.616350
v -0.779889 -0.426070 -0.811151
v -0.139159 0.468976 1.164150
v -0.326960 0.759386 1.024349
v -0.213860 0.468976 0.978849
v -0.252359 0.759386 1.209650
v -0.838429 0.468976 -0.572250
v -1.026229 0.759386 -0.711950
v -0.913049 0.468975 -0.757551
v -0.951610 0.759386 -0.526651
v -0.280560 -0.142909 0.334749
v -0.719759 1.852046 0.511549
v -0.344059 -0.182292 0.360249
v -0.861129 1.972955 0.568550
v -0.917749 -0.533304 1.375950
v 0.580241 0.098591 -1.200151
v 1.263841 0.098592 0.497450
v -1.601369 -0.533304 -0.321651
v -0.470160 -0.182292 0.046949
v -0.845920 1.852046 0.198250
v -0.406659 -0.142909 0.021450
v -0.987299 1.972955 0.255249
v 0.728341 0.128393 -1.259750
v 1.411941 0.128394 0.437849
v 1.263841 0.098592 0.497450
v 0.580241 0.098591 -1.200151
v 1.231641 0.270856 0.510450
v -1.573719 -0.368209 -0.332750
v -0.890109 -0.368209 1.364849
v 0.548040 0.270855 -1.187151
v 1.460841 -0.557543 0.583450
v 1.445841 -0.610528 0.250450
v 1.343341 -0.557543 0.291750
v 1.563341 -0.610528 0.542149
v 0.761041 -0.557544 -1.154551
v 0.746040 -0.610529 -1.487450
v 0.643540 -0.557544 -1.446251
v 0.863441 -0.610529 -1.195751
v -0.409959 0.747026 1.023249
v -0.385559 0.822856 0.968750
v -0.385559 0.747026 0.968750
v -0.409959 0.822856 1.023249
v -1.010669 0.822856 -0.468351
v -0.955289 0.747025 -0.446051
v -0.955289 0.822856 -0.446051
v -1.010669 0.747025 -0.468351
v -0.482559 -0.182292 0.016350
v -0.608759 -0.182292 -0.297050
v -0.419059 -0.142909 -0.009251
v -0.545259 -0.142909 -0.322550
v -0.344059 -0.182292 0.360249
v -0.406659 -0.142909 0.021450
v -0.280560 -0.142909 0.334749
v -0.470160 -0.182292 0.046949
v -0.208960 -0.182292 0.695749
v -0.335059 -0.182292 0.382450
v -0.145459 -0.142909 0.670149
v -0.271559 -0.142909 0.356850
v -0.621860 -0.182292 -0.329750
v -0.684559 -0.142910 -0.668650
v -0.558359 -0.142909 -0.355251
v -0.748059 -0.182293 -0.643051
v -0.069559 -0.182292 1.041849
v -0.195759 -0.182292 0.728449
v -0.006060 -0.142909 1.016249
v -0.132259 -0.142909 0.702950
v -0.734179 -0.410598 1.467350
v -0.851649 -0.410598 1.175650
v -0.867279 -0.443424 1.520950
v -0.984739 -0.443424 1.229250
v -1.434030 -0.410598 -0.270651
v -1.551489 -0.410598 -0.562250
v -1.567129 -0.443424 -0.217051
v -1.684589 -0.443424 -0.508650
v -0.419059 -0.142909 -0.009251
v -0.858269 1.852046 0.167650
v -0.482559 -0.182292 0.016350
v -0.999649 1.972955 0.224550
v -0.335059 -0.182292 0.382450
v -0.710859 1.852046 0.533749
v -0.271559 -0.142909 0.356850
v -0.852209 1.972955 0.590649
v 0.035941 0.168006 0.878250
v -0.087959 0.759386 0.928150
v 0.110540 0.168006 1.063549
v -0.013359 0.759386 1.113449
v -0.663360 0.168006 -0.858150
v -0.712559 0.759386 -0.622952
v -0.588659 0.168006 -0.672850
v -0.787199 0.759386 -0.808250
v 0.133341 -0.430326 0.839050
v 0.035941 0.168006 0.878250
v 0.207941 -0.430326 1.024349
v 0.110540 0.168006 1.063549
v -0.565959 -0.430327 -0.897350
v -0.663360 0.168006 -0.858150
v -0.491359 -0.430327 -0.712051
v -0.588659 0.168006 -0.672850
v 0.207941 -0.430326 1.024349
v 0.170841 -0.650339 0.823950
v 0.133341 -0.430326 0.839050
v 0.245440 -0.650339 1.009249
v -0.491359 -0.430327 -0.712051
v -0.453759 -0.650340 -0.727150
v -0.565959 -0.430327 -0.897350
v -0.528359 -0.650340 -0.912451
v -0.545259 -0.142909 -0.322550
v -0.858269 1.852046 0.167650
v -0.419059 -0.142909 -0.009251
v -0.984439 1.852046 -0.145750
v -0.406659 -0.142909 0.021450
v -0.719759 1.852046 0.511549
v -0.280560 -0.142909 0.334749
v -0.845920 1.852046 0.198250
v -0.271559 -0.142909 0.356850
v -0.710859 1.852046 0.533749
v -0.145459 -0.142909 0.670149
v -0.584660 1.852046 0.847050
v -0.684559 -0.142910 -0.668650
v -0.997609 1.852046 -0.178450
v -0.558359 -0.142909 -0.355251
v -1.123779 1.852046 -0.491751
v -0.132259 -0.142909 0.702950
v -0.571459 1.852046 0.879749
v -0.006060 -0.142909 1.016249
v -0.445359 1.852046 1.193149
v -0.558359 -0.142909 -0.355251
v -0.997609 1.852046 -0.178450
v -0.621860 -0.182292 -0.329750
v -1.138989 1.972955 -0.121451
v -0.195759 -0.182292 0.728449
v -0.571459 1.852046 0.879749
v -0.132259 -0.142909 0.702950
v -0.712859 1.972956 0.936748
v 0.871241 -0.653067 0.820849
v 0.232341 -0.634265 0.739149
v 0.349741 -0.634265 1.030849
v 0.753840 -0.653067 0.529150
v 0.171441 -0.653068 -0.917051
v -0.467559 -0.634266 -0.998751
v -0.350060 -0.634266 -0.707151
v 0.053941 -0.653068 -1.208750
v 0.349741 -0.634265 1.030849
v -0.217659 -0.582227 0.920349
v -0.100160 -0.582227 1.212049
v 0.232341 -0.634265 0.739149
v -0.350060 -0.634266 -0.707151
v -0.917469 -0.582228 -0.817650
v -0.800009 -0.582228 -0.525951
v -0.467559 -0.634266 -0.998751
v -0.452359 -0.495334 1.353849
v -0.217659 -0.582227 0.920349
v -0.569860 -0.495334 1.062149
v -0.100160 -0.582227 1.212049
v -1.152219 -0.495335 -0.384050
v -0.917469 -0.582228 -0.817650
v -1.269679 -0.495335 -0.675751
v -0.800009 -0.582228 -0.525951
v 1.107641 0.168006 0.662050
v 1.156940 0.759386 0.426849
v 1.033041 0.168006 0.476749
v 1.231541 0.759386 0.612150
v 0.532341 0.759386 -1.124250
v 0.333840 0.168005 -1.259651
v 0.408441 0.168006 -1.074350
v 0.457741 0.759385 -1.309551
v 1.572741 0.747026 0.553949
v -0.256060 0.747026 1.290350
v -0.385559 0.747026 0.968750
v -0.311460 0.747026 1.268049
v -0.409959 0.747026 1.023249
v 1.443241 0.747025 0.232349
v 1.498641 0.747025 0.254650
v 1.597240 0.747026 0.499449
v 0.873541 0.747025 -1.182451
v -0.955289 0.747025 -0.446051
v -1.084789 0.747025 -0.767551
v -1.109229 0.747025 -0.713150
v -1.010669 0.747025 -0.468351
v 0.744040 0.747025 -1.504051
v 0.799440 0.747025 -1.481750
v 0.897941 0.747025 -1.236950
v 0.871241 -0.653067 0.820849
v 1.140541 -0.600382 0.373449
v 0.753840 -0.653067 0.529150
v 1.257941 -0.600382 0.665150
v 0.558141 -0.600383 -1.072851
v 0.053941 -0.653068 -1.208750
v 0.171441 -0.653068 -0.917051
v 0.440640 -0.600383 -1.364550
v 1.010241 -0.430326 0.701250
v 1.033041 0.168006 0.476749
v 0.935640 -0.430326 0.515949
v 1.107641 0.168006 0.662050
v 0.408441 0.168006 -1.074350
v 0.236441 -0.430327 -1.220451
v 0.311041 -0.430327 -1.035151
v 0.333840 0.168005 -1.259651
v 1.010241 -0.430326 0.701250
v 0.898141 -0.650339 0.531050
v 0.972741 -0.650339 0.716349
v 0.935640 -0.430326 0.515949
v 0.273540 -0.650340 -1.020050
v 0.236441 -0.430327 -1.220451
v 0.198941 -0.650340 -1.205351
v 0.311041 -0.430327 -1.035151
v 1.443241 0.747025 0.232349
v -0.385559 0.747026 0.968750
v -0.385559 0.822856 0.968750
v 1.443241 0.822856 0.232349
v 1.498641 0.822856 0.254650
v 1.498641 0.747025 0.254650
v -0.734179 -0.410598 1.467350
v -0.569860 -0.495334 1.062149
v -0.851649 -0.410598 1.175650
v -0.452359 -0.495334 1.353849
v -1.434030 -0.410598 -0.270651
v -1.269679 -0.495335 -0.675751
v -1.551489 -0.410598 -0.562250
v -1.152219 -0.495335 -0.384050
v 0.873541 0.822856 -1.182451
v -0.955289 0.822856 -0.446051
v -0.955289 0.747025 -0.446051
v 0.873541 0.747025 -1.182451
v 0.897941 0.747025 -1.236950
v 0.897941 0.822855 -1.236950
v -0.878240 -0.575825 1.186350
v -1.032020 -0.513871 1.248249
v -0.984739 -0.443424 1.229250
v -0.851649 -0.410598 1.175650
v -0.851649 -0.410598 1.175650
v -0.569860 -0.495334 1.062149
v -0.878240 -0.575825 1.186350
v -0.622159 -0.676934 1.083250
v -0.569860 -0.495334 1.062149
v -0.217659 -0.582227 0.920349
v -0.622159 -0.676934 1.083250
v -0.226259 -0.772167 0.923750
v -0.217659 -0.582227 0.920349
v 0.232341 -0.634265 0.739149
v -0.226259 -0.772167 0.923750
v 0.223741 -0.824202 0.742649
v 0.232341 -0.634265 0.739149
v 0.753840 -0.653067 0.529150
v 0.223741 -0.824202 0.742649
v 0.753840 -0.843005 0.529150
v 1.189341 -0.782868 0.353750
v 0.753840 -0.843005 0.529150
v 1.140541 -0.600382 0.373449
v 0.753840 -0.653067 0.529150
v 1.392241 -0.740029 0.272049
v 1.189341 -0.782868 0.353750
v 1.343341 -0.557543 0.291750
v 1.140541 -0.600382 0.373449
v 1.445841 -0.610528 0.250450
v 1.511441 -0.707337 0.224049
v 1.392241 -0.740029 0.272049
v 1.343341 -0.557543 0.291750
v 1.257941 -0.600382 0.665150
v 1.343341 -0.557543 0.291750
v 1.140541 -0.600382 0.373449
v 1.460841 -0.557543 0.583450
v 0.761041 -0.557544 -1.154551
v 0.440640 -0.600383 -1.364550
v 0.558141 -0.600383 -1.072851
v 0.643540 -0.557544 -1.446251
v -1.567129 -0.443424 -0.217051
v -1.460619 -0.575825 -0.259851
v -1.434030 -0.410598 -0.270651
v -1.614409 -0.513871 -0.197950
v -1.152219 -0.495335 -0.384050
v -1.460619 -0.575825 -0.259851
v -1.204579 -0.676934 -0.363050
v -1.434030 -0.410598 -0.270651
v -0.800009 -0.582228 -0.525951
v -0.808619 -0.772167 -0.522451
v -0.808619 -0.772167 -0.522451
v -0.350060 -0.634266 -0.707151
v -0.800009 -0.582228 -0.525951
v -0.358659 -0.824203 -0.703651
v -0.358659 -0.824203 -0.703651
v 0.171441 -0.653068 -0.917051
v -0.350060 -0.634266 -0.707151
v 0.171441 -0.843005 -0.917051
v 0.171441 -0.843005 -0.917051
v 0.558141 -0.600383 -1.072851
v 0.171441 -0.653068 -0.917051
v 0.607040 -0.782868 -1.092550
v 0.607040 -0.782868 -1.092550
v 0.761041 -0.557544 -1.154551
v 0.558141 -0.600383 -1.072851
v 0.809841 -0.740030 -1.174150
v 0.809841 -0.740030 -1.174150
v 0.863441 -0.610529 -1.195751
v 0.761041 -0.557544 -1.154551
v 0.929041 -0.707338 -1.222250
v 0.898141 -0.650339 0.531050
v 0.935640 -0.430326 0.515949
v 1.173341 -0.614146 0.420250
v 1.149641 -0.426069 0.429749
v 0.935640 -0.430326 0.515949
v 1.033041 0.168006 0.476749
v 1.149641 -0.426069 0.429749
v 1.282741 0.468976 0.376150
v 1.033041 0.168006 0.476749
v 1.156940 0.759386 0.426849
v 1.282741 0.468976 0.376150
v 1.395941 0.759386 0.330549
v -0.104360 -0.614146 0.934750
v 0.133341 -0.430326 0.839050
v 0.170841 -0.650339 0.823950
v -0.080659 -0.426069 0.925150
v -0.080659 -0.426069 0.925150
v 0.035941 0.168006 0.878250
v 0.133341 -0.430326 0.839050
v -0.213860 0.468976 0.978849
v -0.087959 0.759386 0.928150
v 0.035941 0.168006 0.878250
v -0.213860 0.468976 0.978849
v -0.326960 0.759386 1.024349
v -0.491359 -0.430327 -0.712051
v -0.705259 -0.426070 -0.625851
v -0.728959 -0.614147 -0.616350
v -0.453759 -0.650340 -0.727150
v -0.838429 0.468976 -0.572250
v -0.705259 -0.426070 -0.625851
v -0.588659 0.168006 -0.672850
v -0.491359 -0.430327 -0.712051
v -0.951610 0.759386 -0.526651
v -0.838429 0.468976 -0.572250
v -0.712559 0.759386 -0.622952
v -0.588659 0.168006 -0.672850
v 0.311041 -0.430327 -1.035151
v 0.548740 -0.614147 -1.130850
v 0.525041 -0.426070 -1.121351
v 0.273540 -0.650340 -1.020050
v 0.525041 -0.426070 -1.121351
v 0.408441 0.168006 -1.074350
v 0.311041 -0.430327 -1.035151
v 0.658141 0.468975 -1.174950
v 0.532341 0.759386 -1.124250
v 0.658141 0.468975 -1.174950
v 0.771340 0.759385 -1.220551
v 0.408441 0.168006 -1.074350
vn 0.3768 -0.0000 -0.9263
vn -0.3537 -0.0000 -0.9353
vn -0.3538 -0.0000 -0.9353
vn 0.9125 -0.0000 0.4091
vn 0.9125 -0.0000 0.4092
vn 0.3929 -0.0000 0.9196
vn 0.9290 -0.0000 -0.3701
vn 0.9290 -0.0000 -0.3700
vn -0.9116 0.1807 0.3693
vn -0.9115 0.1807 0.3693
vn -0.3930 -0.0000 -0.9195
vn -0.3537 -0.0000 -0.9354
vn -0.9125 -0.0000 -0.4090
vn -0.3700 -0.0000 -0.9290
vn -0.3701 -0.0000 -0.9290
vn 0.3930 -0.0000 0.9196
vn 0.3537 -0.0000 0.9354
vn -0.3768 -0.0000 0.9263
vn 0.3700 -0.0000 0.9290
vn 0.3701 -0.0000 0.9290
vn 0.8323 0.4397 -0.3376
vn 0.2285 -0.9690 -0.0945
vn 0.2285 -0.9690 -0.0944
vn -0.3228 -0.9369 0.1338
vn -0.3228 -0.9369 0.1339
vn -0.3228 -0.9370 0.1339
vn -0.3231 -0.9379 0.1261
vn -0.3232 -0.9379 0.1261
vn 0.1805 -0.9810 -0.0706
vn 0.1805 -0.9810 -0.0707
vn 0.9152 -0.1578 -0.3708
vn 0.1181 -0.9919 -0.0472
vn 0.1178 -0.9919 -0.0475
vn 0.1182 -0.9919 -0.0471
vn 0.1182 -0.9919 -0.0472
vn -0.2046 -0.9757 0.0787
vn 0.5776 0.7834 -0.2294
vn 0.5776 0.7834 -0.2295
vn 0.5777 0.7834 -0.2294
vn -0.1025 -0.9939 0.0394
vn -0.1026 -0.9939 0.0394
vn -0.0315 -0.9994 0.0157
vn -0.7523 0.5860 0.3009
vn -0.7523 0.5860 0.3010
vn -0.7524 0.5860 0.3009
vn 0.9196 0.1336 -0.3694
vn -0.0000 1.0000 -0.0000
vn 0.8559 -0.3848 -0.3455
vn 0.8559 -0.3847 -0.3455
vn -0.9290 -0.0000 0.3700
vn -0.9290 -0.0000 0.3701
vn 0.1103 -0.9928 -0.0473
vn 0.1104 -0.9928 -0.0472
vn -0.1103 -0.9928 0.0473
vn -0.1103 -0.9928 0.0472
vn 0.7488 0.5912 -0.2996
vn 0.7488 0.5912 -0.2995
vn 0.7489 0.5912 -0.2996
vn -0.8974 -0.2519 0.3621
vn -0.8975 -0.2519 0.3621
vn -0.8975 -0.2518 0.3621
vn -0.9152 -0.1578 0.3708
vn 0.2284 0.9690 -0.0945
vn 0.2285 0.9690 -0.0946
vn -0.9196 0.1336 0.3694
vn -0.9196 0.1337 0.3694
vn -0.8559 -0.3848 0.3455
vn -0.8559 -0.3847 0.3455
vn 0.2433 -0.9654 -0.0942
vn 0.1729 -0.9824 -0.0707
vn -0.2523 0.9622 0.1025
vn -0.2524 0.9622 0.1025
vn 0.3999 0.9017 -0.1646
vn 0.3999 0.9017 -0.1647
vn -0.9126 -0.0000 -0.4089
vn -0.3929 -0.0000 -0.9196
vn -0.9125 -0.0000 -0.4091
vn 0.3538 -0.0000 0.9353
vn 0.3537 -0.0000 0.9353
vn 0.4642 -0.8654 -0.1888
vn 0.4641 -0.8654 -0.1888
vn -0.2044 0.9750 0.0865
vn -0.2044 0.9751 0.0865
vn -0.2045 0.9750 0.0865
vn 0.9056 0.2205 -0.3623
vn 0.9056 0.2205 -0.3622
vn 0.9128 0.1731 -0.3699
vn 0.9128 0.1731 -0.3698
vn 0.9115 0.1807 -0.3694
vn 0.9116 0.1807 -0.3693
vn 0.9040 0.2280 -0.3616
vn 0.9040 0.2279 -0.3616
vn 0.0315 0.9994 -0.0158
vn 0.0315 0.9994 -0.0157
vn 0.1026 0.9939 -0.0394
vn 0.1025 0.9939 -0.0394
vn 0.2045 0.9750 -0.0865
vn 0.2044 0.9750 -0.0865
vn 0.2044 0.9751 -0.0865
vn -0.9056 0.2205 0.3622
vn -0.9056 0.2205 0.3623
vn -0.0000 -1.0000 -0.0000
vn -0.1180 0.9919 0.0472
vn -0.1181 0.9919 0.0472
vn -0.9128 0.1731 0.3699
vn -0.9128 0.1731 0.3698
vn -0.9115 0.1807 0.3694
vn -0.3930 -0.0000 -0.9196
vn 0.2524 0.9622 -0.1025
vn 0.2523 0.9622 -0.1025
vn 0.3930 -0.0000 0.9195
vn 0.9126 -0.0000 0.4089
vn -0.1805 0.9810 0.0707
vn -0.1805 0.9810 0.0706
vt 0.666051 0.304245
vt 0.664533 0.288169
vt 0.676152 0.297676
vt 0.677719 0.313749
vt 0.013252 0.287063
vt 0.011742 0.303139
vt 0.000000 0.312607
vt 0.001559 0.296533
vt 0.092602 0.303276
vt 0.093738 0.287200
vt 0.585239 0.304109
vt 0.584095 0.288033
vt 0.106454 0.565709
vt 0.552904 0.541246
vt 0.108662 0.540549
vt 0.555006 0.566406
vt 0.635579 0.680660
vt 0.636797 0.696424
vt 0.623704 0.688010
vt 0.624871 0.703764
vt 0.603592 0.516097
vt 0.601954 0.554271
vt 0.603610 0.558786
vt 0.606180 0.541317
vt 0.609680 0.474994
vt 0.606390 0.451900
vt 0.614444 0.393183
vt 0.611664 0.360868
vt 0.621633 0.295188
vt 0.618710 0.263084
vt 0.631076 0.182760
vt 0.628124 0.148972
vt 0.637560 0.062859
vt 0.639583 0.106603
vt 0.642411 0.023504
vt 0.644500 0.067666
vt 0.645748 0.034032
vt 0.645463 0.001133
vt 0.038238 0.695533
vt 0.039460 0.679768
vt 0.050120 0.702911
vt 0.051290 0.687156
vt 0.070374 0.557954
vt 0.070523 0.515254
vt 0.067950 0.540473
vt 0.071985 0.553444
vt 0.064781 0.474120
vt 0.068024 0.451031
vt 0.060440 0.392272
vt 0.063221 0.359957
vt 0.053812 0.294226
vt 0.056730 0.262122
vt 0.045054 0.181733
vt 0.048006 0.147945
vt 0.037087 0.105523
vt 0.039174 0.061773
vt 0.032466 0.066557
vt 0.034618 0.022389
vt 0.031367 0.032908
vt 0.031744 0.000000
vt 0.063896 0.226114
vt 0.597390 0.194881
vt 0.598104 0.227038
vt 0.064720 0.193951
vt 0.601019 0.369586
vt 0.607545 0.356314
vt 0.605127 0.308848
vt 0.603957 0.399183
vt 0.614437 0.488991
vt 0.614350 0.596840
vt 0.621082 0.632331
vt 0.616604 0.677420
vt 0.618038 0.156323
vt 0.622122 0.188083
vt 0.623811 0.101364
vt 0.626337 0.141008
vt 0.633753 0.280336
vt 0.644353 0.283922
vt 0.646839 0.372960
vt 0.652310 0.317865
vt 0.119970 0.000163
vt 0.121992 0.022549
vt 0.557285 0.000970
vt 0.555084 0.023344
vt 0.054699 0.187090
vt 0.053344 0.100340
vt 0.050795 0.139987
vt 0.058720 0.155335
vt 0.043239 0.279331
vt 0.033044 0.282882
vt 0.030380 0.371940
vt 0.025294 0.316809
vt 0.068183 0.355417
vt 0.071497 0.398309
vt 0.074412 0.368714
vt 0.070653 0.307946
vt 0.060901 0.595987
vt 0.061151 0.488109
vt 0.058486 0.676584
vt 0.054324 0.631469
vt 0.147153 0.515375
vt 0.148168 0.553563
vt 0.525806 0.554153
vt 0.526999 0.515975
vt 0.145415 0.451156
vt 0.529036 0.451776
vt 0.125195 0.061929
vt 0.551584 0.062703
vt 0.106306 0.140085
vt 0.092005 0.282982
vt 0.570856 0.140909
vt 0.585425 0.283821
vt 0.089897 0.444761
vt 0.068842 0.946180
vt 0.091333 0.449643
vt 0.069447 0.999317
vt 0.067838 0.222436
vt 0.065712 0.263795
vt 0.131401 0.148093
vt 0.544772 0.148825
vt 0.142061 0.360088
vt 0.532863 0.360737
vt 0.594222 0.223348
vt 0.596191 0.264702
vt 0.381955 0.946606
vt 0.477132 0.999860
vt 0.381739 0.999732
vt 0.477598 0.946736
vt 0.276937 0.946463
vt 0.372400 0.999720
vt 0.276997 0.999593
vt 0.372592 0.946593
vt 0.174507 0.946324
vt 0.270172 0.946454
vt 0.174835 0.999457
vt 0.270248 0.999584
vt 0.487586 0.946749
vt 0.583219 0.946879
vt 0.487093 0.999873
vt 0.582476 1.000000
vt 0.164517 0.946310
vt 0.164871 0.999444
vt 0.563202 0.450405
vt 0.564593 0.445529
vt 0.137516 0.262261
vt 0.537964 0.262946
vt 0.147028 0.558074
vt 0.526992 0.558666
vt 0.108365 0.100439
vt 0.568819 0.101265
vt 0.105932 0.312786
vt 0.131794 0.695672
vt 0.121145 0.703016
vt 0.571849 0.313571
vt 0.543290 0.696284
vt 0.553882 0.703659
vt 0.085771 0.316911
vt 0.591869 0.317763
vt 0.122027 0.687261
vt 0.553004 0.687905
vt 0.112666 0.155431
vt 0.564121 0.156228
vt 0.089838 0.372039
vt 0.108987 0.631552
vt 0.112316 0.676665
vt 0.566448 0.632248
vt 0.562803 0.677340
vt 0.587415 0.372862
vt 0.125201 0.368798
vt 0.122202 0.308033
vt 0.553603 0.308761
vt 0.550254 0.369502
vt 0.119688 0.033070
vt 0.557475 0.033871
vt 0.187409 0.444918
vt 0.188264 0.449800
vt 0.466308 0.450249
vt 0.467119 0.445371
vt 0.378568 0.450107
vt 0.282229 0.449951
vt 0.369978 0.450093
vt 0.276022 0.449941
vt 0.475471 0.450264
vt 0.179099 0.449785
vt 0.114280 0.596070
vt 0.122852 0.398393
vt 0.560998 0.596757
vt 0.552628 0.399099
vt 0.281937 0.445071
vt 0.370212 0.445214
vt 0.120450 0.066716
vt 0.556564 0.067507
vt 0.132634 0.679907
vt 0.542453 0.680521
vt 0.378852 0.445228
vt 0.275693 0.445061
vt 0.476336 0.445386
vt 0.178190 0.444903
vt 0.145322 0.540594
vt 0.528845 0.541195
vt 0.114514 0.488194
vt 0.561101 0.488906
vt 0.120203 0.355503
vt 0.555551 0.356228
vt 0.135438 0.294364
vt 0.129298 0.181880
vt 0.546876 0.182612
vt 0.540047 0.295050
vt 0.140080 0.392403
vt 0.534844 0.393052
vt 0.143111 0.474246
vt 0.531387 0.474868
vt 0.100194 0.279428
vt 0.576829 0.280239
vt 0.107003 0.296712
vt 0.570770 0.297497
vt 0.123699 0.105679
vt 0.553017 0.106448
vt 0.109427 0.187186
vt 0.567423 0.187987
s 1
usemtl Handle1Mtl.044
f 1/1/1 2/2/1 3/3/2
f 3/3/2 4/4/3 1/1/1
f 5/5/4 6/6/5 7/7/6
f 7/7/6 8/8/6 5/5/4
f 9/9/7 10/6/8 11/5/8
f 11/5/8 12/10/7 9/9/7
f 13/1/8 14/11/8 15/12/8
f 15/12/8 16/2/8 13/1/8
f 17/13/9 18/14/10 19/15/9
f 18/14/10 17/13/9 20/16/10
f 21/3/2 22/17/11 23/18/11
f 21/3/2 23/18/11 24/4/12
f 25/19/13 23/18/11 22/17/11
f 23/18/11 25/19/13 26/20/13
f 27/21/14 28/22/14 29/23/14
f 29/23/14 30/24/14 27/21/14
f 31/24/14 32/25/14 33/21/14
f 33/21/14 32/25/14 34/26/14
f 35/25/14 36/27/14 37/26/14
f 38/28/14 37/26/14 36/27/14
f 39/27/14 40/29/14 41/28/14
f 42/30/14 41/28/14 40/29/14
f 43/29/15 44/31/14 45/30/14
f 46/32/14 45/30/14 44/31/14
f 47/33/14 48/32/14 49/34/15
f 48/32/14 50/31/14 49/34/15
f 51/35/14 52/33/14 53/36/14
f 52/33/14 54/34/14 53/36/14
f 55/37/15 56/38/14 57/35/15
f 57/35/15 58/36/14 55/37/15
f 59/7/16 60/39/17 61/40/17
f 59/7/16 61/40/17 62/8/16
f 63/41/18 61/40/17 60/39/17
f 61/40/17 63/41/18 64/42/18
f 65/43/19 66/44/19 67/45/20
f 66/44/19 65/43/19 68/46/19
f 69/47/19 70/44/19 71/48/19
f 70/44/19 69/47/19 72/45/20
f 73/49/20 74/48/19 75/50/19
f 74/48/19 73/49/20 76/47/19
f 77/50/20 78/51/20 79/49/19
f 78/51/20 77/50/20 80/52/20
f 81/52/19 82/53/19 83/51/20
f 82/53/19 81/52/19 84/54/19
f 85/54/19 86/55/19 87/53/20
f 86/55/19 85/54/19 88/56/19
f 89/56/19 90/57/20 91/55/20
f 90/57/20 89/56/19 92/58/19
f 93/58/19 94/59/20 95/57/19
f 94/59/20 93/58/19 96/60/19
f 97/61/21 98/62/21 99/63/21
f 98/62/21 97/61/21 100/64/21
f 101/65/14 102/66/15 103/67/14
f 102/66/15 101/65/14 104/68/15
f 105/68/14 106/69/15 107/66/14
f 106/69/15 105/68/14 108/70/15
f 109/71/14 110/69/15 111/70/14
f 111/70/14 112/72/14 109/71/14
f 113/73/14 114/74/14 115/75/14
f 115/75/14 114/74/14 116/76/14
f 117/74/14 118/77/15 119/76/15
f 120/78/14 119/76/15 118/77/15
f 121/77/15 122/79/14 123/78/14
f 123/78/14 122/79/14 124/80/14
f 125/81/22 126/60/22 127/58/22
f 127/58/22 128/82/22 125/81/22
f 129/83/22 130/35/23 131/38/22
f 130/35/23 129/83/22 132/84/22
f 133/85/19 134/86/19 135/87/20
f 134/86/19 133/85/19 136/88/20
f 137/87/19 138/89/19 139/85/19
f 138/89/19 137/87/19 140/90/19
f 141/91/19 142/90/20 143/92/19
f 142/90/20 141/91/19 144/89/20
f 145/93/19 146/94/19 147/95/19
f 147/95/19 148/96/20 145/93/19
f 149/97/19 150/94/19 151/98/19
f 150/94/19 152/93/19 151/98/19
f 153/99/20 154/97/19 155/100/20
f 154/97/19 156/98/19 155/100/20
f 157/46/24 158/101/24 159/44/24
f 158/101/24 157/46/24 160/102/24
f 161/103/25 162/22/26 163/104/26
f 163/104/26 162/22/26 164/21/26
f 165/48/27 166/44/28 167/105/28
f 166/44/28 168/101/27 167/105/28
f 169/106/27 170/104/28 171/26/27
f 170/104/28 172/21/27 171/26/27
f 173/58/29 174/107/29 175/82/30
f 174/107/29 173/58/29 176/56/29
f 177/84/30 178/108/29 179/35/29
f 178/108/29 180/33/29 179/35/29
f 181/109/31 182/110/31 183/87/31
f 184/90/31 183/87/31 182/110/31
f 185/76/31 186/78/31 187/111/31
f 188/112/31 187/111/31 186/78/31
f 189/113/19 190/114/19 191/115/20
f 192/116/19 191/115/20 190/114/19
f 193/13/19 194/117/19 195/118/19
f 194/117/19 193/13/19 196/15/19
f 194/117/19 197/61/20 195/118/19
f 197/61/20 194/117/19 198/64/19
f 199/56/32 200/54/32 201/107/33
f 200/54/32 202/119/34 201/107/33
f 203/108/35 204/120/34 205/33/34
f 204/120/34 206/32/33 205/33/34
f 207/50/36 208/48/36 209/121/36
f 208/48/36 210/105/36 209/121/36
f 211/122/36 212/106/36 213/28/36
f 212/106/36 214/26/36 213/28/36
f 215/123/15 216/14/14 217/16/14
f 215/123/15 217/16/14 218/124/14
f 219/62/15 220/123/14 221/63/15
f 220/123/14 222/124/15 221/63/15
f 223/125/37 224/126/38 225/127/39
f 224/126/38 223/125/37 226/128/38
f 227/129/38 228/130/38 229/131/38
f 228/130/38 227/129/38 230/132/38
f 231/133/38 232/134/38 233/135/37
f 233/135/37 232/134/38 234/136/38
f 235/137/39 236/138/38 237/139/38
f 237/139/38 236/138/38 238/140/37
f 239/114/38 240/141/39 241/116/38
f 241/116/38 240/141/39 242/142/38
f 243/143/15 244/138/14 245/144/14
f 244/138/14 243/143/15 246/140/14
f 247/52/40 248/121/40 249/145/41
f 248/121/40 247/52/40 250/50/40
f 251/145/42 252/54/42 253/52/42
f 252/54/42 251/145/42 254/119/42
f 255/146/40 256/28/40 257/30/40
f 256/28/40 255/146/40 258/122/40
f 259/30/42 260/32/42 261/146/42
f 262/120/42 261/146/42 260/32/42
f 263/46/43 264/147/43 265/102/44
f 264/147/43 263/46/43 266/43/43
f 267/148/44 268/22/43 269/103/45
f 268/22/43 267/148/44 270/23/43
f 271/87/46 272/86/46 273/109/46
f 272/86/46 274/149/46 273/109/46
f 275/111/46 276/150/46 277/76/46
f 276/150/46 278/75/46 277/76/46
f 279/151/47 280/39/47 281/7/47
f 279/151/47 281/7/47 282/6/47
f 279/151/47 282/6/47 283/9/47
f 280/39/47 279/151/47 284/152/47
f 284/152/47 285/41/47 280/39/47
f 285/41/47 284/152/47 286/153/47
f 287/154/47 288/18/47 289/155/47
f 289/155/47 288/18/47 290/20/47
f 289/155/47 290/20/47 291/156/47
f 288/18/47 287/154/47 292/4/47
f 287/154/47 293/1/47 292/4/47
f 293/1/47 287/154/47 294/11/47
f 295/92/48 296/110/48 297/157/49
f 296/110/48 295/92/48 298/90/48
f 299/158/48 300/112/48 301/80/48
f 300/112/48 302/78/48 301/80/48
f 303/41/50 304/159/50 305/42/50
f 304/159/50 303/41/50 306/153/50
f 307/156/50 308/19/50 309/160/51
f 308/19/50 307/156/50 310/20/50
f 311/88/52 312/161/52 313/86/52
f 313/86/52 312/161/52 314/149/52
f 315/73/53 316/150/52 317/162/52
f 316/150/52 315/73/53 318/75/52
f 319/92/47 320/163/47 321/91/47
f 320/163/47 319/92/47 322/157/47
f 323/100/47 324/164/47 325/99/47
f 325/99/47 324/164/47 326/165/47
f 327/166/47 328/72/47 329/167/47
f 328/72/47 327/166/47 330/71/47
f 331/158/47 332/79/47 333/168/47
f 332/79/47 331/158/47 334/80/47
f 335/96/54 336/95/54 337/169/54
f 335/96/54 337/169/54 338/170/55
f 339/171/54 340/172/54 341/65/54
f 339/171/54 341/65/54 342/67/54
f 343/173/56 344/59/56 345/60/56
f 345/60/56 346/81/56 343/173/56
f 347/37/57 348/174/57 349/83/56
f 349/83/56 350/38/58 347/37/57
f 351/175/19 352/133/20 353/176/20
f 354/135/20 353/176/20 352/133/20
f 355/177/14 356/128/15 357/178/14
f 356/128/15 355/177/14 358/126/15
f 359/127/59 360/177/60 361/179/60
f 360/177/60 359/127/59 362/126/60
f 363/180/59 364/130/59 365/181/60
f 364/130/59 363/180/59 366/131/60
f 367/135/60 368/182/59 369/176/59
f 368/182/59 367/135/60 370/136/60
f 371/139/60 372/143/60 373/183/59
f 372/143/60 371/139/60 374/140/59
f 375/116/60 376/184/60 377/115/61
f 376/184/60 375/116/60 378/142/60
f 379/94/62 380/185/62 381/186/62
f 380/185/62 379/94/62 382/97/62
f 383/187/62 384/68/62 385/188/62
f 384/68/62 383/187/62 386/70/62
f 387/118/63 388/63/63 389/124/64
f 388/63/63 387/118/63 390/61/63
f 391/94/65 392/169/65 393/95/66
f 392/169/65 391/94/65 394/186/65
f 395/188/65 396/65/65 397/172/65
f 396/65/65 395/188/65 398/68/65
f 399/97/67 400/165/68 401/185/67
f 400/165/68 399/97/67 402/99/67
f 403/187/67 404/72/67 405/70/67
f 404/72/67 403/187/67 406/167/67
f 407/189/19 408/129/19 409/180/19
f 410/131/19 409/180/19 408/129/19
f 411/15/69 412/123/69 413/117/69
f 412/123/69 411/15/69 414/14/69
f 415/181/14 416/132/15 417/190/14
f 416/132/15 415/181/14 418/130/14
f 419/62/70 420/64/70 421/117/70
f 421/117/70 422/123/70 419/62/70
f 423/118/71 424/16/72 425/13/72
f 424/16/72 423/118/71 426/124/71
f 427/57/73 428/173/73 429/191/73
f 428/173/73 427/57/73 430/59/73
f 431/192/74 432/37/74 433/36/73
f 432/37/74 431/192/74 434/174/73
f 435/159/75 436/152/76 437/193/76
f 436/152/76 435/159/75 438/153/77
f 439/156/18 440/194/78 441/155/79
f 440/194/78 439/156/18 442/160/18
f 443/179/80 444/177/80 445/195/81
f 445/195/81 444/177/80 446/178/80
f 447/180/81 448/190/80 449/189/81
f 448/190/80 447/180/81 450/181/80
f 451/176/80 452/182/80 453/175/80
f 453/175/80 452/182/80 454/196/80
f 455/183/80 456/144/80 457/197/80
f 456/144/80 455/183/80 458/143/80
f 459/115/80 460/184/80 461/113/80
f 461/113/80 460/184/80 462/198/80
f 463/45/82 464/199/82 465/43/82
f 465/43/82 464/199/82 466/147/82
f 467/200/83 468/24/83 469/148/84
f 469/148/84 468/24/83 470/23/84
f 471/195/19 472/125/19 473/179/20
f 474/127/20 473/179/20 472/125/19
f 475/182/15 476/134/14 477/196/15
f 476/134/14 475/182/15 478/136/14
f 479/201/85 480/164/86 481/98/86
f 482/100/86 481/98/86 480/164/86
f 483/69/86 484/166/85 485/202/85
f 484/166/85 483/69/86 486/71/85
f 487/203/87 488/201/88 489/93/87
f 490/98/88 489/93/87 488/201/88
f 491/66/87 492/69/87 493/204/88
f 494/202/88 493/204/88 492/69/87
f 495/93/89 496/170/90 497/203/90
f 496/170/90 495/93/89 498/96/90
f 499/204/90 500/171/89 501/66/90
f 500/171/89 502/67/90 501/66/90
f 503/178/91 504/125/91 505/195/92
f 504/125/91 503/178/91 506/128/92
f 507/190/91 508/129/91 509/189/91
f 508/129/91 507/190/91 510/132/91
f 511/196/91 512/134/91 513/175/91
f 514/133/92 513/175/91 512/134/91
f 515/144/91 516/137/92 517/197/91
f 516/137/92 515/144/91 518/138/91
f 519/198/91 520/141/91 521/113/91
f 522/114/91 521/113/91 520/141/91
f 523/197/19 524/137/20 525/183/20
f 526/139/19 525/183/20 524/137/20
f 527/184/14 528/141/14 529/198/15
f 528/141/14 527/184/14 530/142/15
f 531/53/93 532/205/93 533/51/93
f 532/205/93 531/53/93 534/206/93
f 535/207/94 536/29/94 537/208/94
f 536/29/94 535/207/94 538/31/94
f 539/51/95 540/209/95 541/49/96
f 540/209/95 539/51/95 542/205/95
f 543/208/95 544/27/95 545/210/95
f 544/27/95 543/208/95 546/29/95
f 547/47/97 548/209/98 549/211/98
f 548/209/98 547/47/97 550/49/97
f 551/212/98 552/27/98 553/25/98
f 552/27/98 551/212/98 554/210/99
f 555/89/100 556/163/100 557/213/100
f 556/163/100 555/89/100 558/91/100
f 559/168/100 560/77/101 561/214/100
f 560/77/101 559/168/100 562/79/100
f 563/8/102 564/40/102 565/193/102
f 565/193/102 564/40/102 566/42/102
f 565/193/102 566/42/102 567/159/102
f 563/8/102 565/193/102 568/215/102
f 563/8/102 568/215/102 569/10/102
f 563/8/102 569/10/102 570/5/102
f 571/216/102 572/194/102 573/17/102
f 572/194/102 574/19/102 573/17/102
f 574/19/102 572/194/102 575/160/102
f 571/216/102 573/17/102 576/3/102
f 571/216/102 576/3/102 577/2/102
f 571/216/102 577/2/102 578/12/102
f 579/53/103 580/217/104 581/206/104
f 580/217/104 579/53/103 582/55/103
f 583/218/104 584/31/104 585/207/103
f 584/31/104 583/218/104 586/34/103
f 587/85/105 588/213/106 589/219/106
f 588/213/106 587/85/105 590/89/106
f 591/214/105 592/74/106 593/220/106
f 592/74/106 591/214/105 594/77/105
f 595/85/107 596/161/107 597/88/9
f 596/161/107 595/85/107 598/219/9
f 599/162/107 600/74/107 601/73/9
f 600/74/107 599/162/107 602/220/9
f 603/215/12 604/193/108 605/152/108
f 603/215/12 605/152/108 606/151/12
f 603/215/12 606/151/12 607/9/1
f 607/9/1 608/10/1 603/215/12
f 609/45/109 610/211/110 611/199/109
f 610/211/110 609/45/109 612/47/109
f 613/200/109 614/25/109 615/24/109
f 614/25/109 613/200/109 616/212/109
f 617/154/111 618/155/17 619/194/17
f 617/154/111 619/194/17 620/216/111
f 617/154/111 620/216/111 621/12/112
f 621/12/112 622/11/4 617/154/111
f 623/101/15 624/102/14 625/147/14
f 625/147/14 626/199/14 623/101/15
f 627/199/14 628/211/15 629/101/14
f 629/101/14 628/211/15 630/105/14
f 631/211/15 632/209/14 633/105/14
f 634/121/14 633/105/14 632/209/14
f 635/209/14 636/205/15 637/121/14
f 638/145/15 637/121/14 636/205/15
f 639/205/14 640/206/14 641/145/14
f 642/119/14 641/145/14 640/206/14
f 643/107/14 644/119/14 645/217/14
f 644/119/14 646/206/14 645/217/14
f 647/82/14 648/107/14 649/191/15
f 648/107/14 650/217/15 649/191/15
f 651/173/15 652/81/15 653/82/15
f 653/82/15 654/191/14 651/173/15
f 655/55/113 656/191/113 657/217/113
f 656/191/113 655/55/113 658/57/113
f 659/192/113 660/34/114 661/218/113
f 660/34/114 659/192/113 662/36/113
f 663/148/19 664/104/19 665/200/19
f 664/104/19 663/148/19 666/103/19
f 667/212/19 668/104/20 669/106/19
f 668/104/20 667/212/19 670/200/19
f 669/106/19 671/210/19 667/212/19
f 671/210/19 669/106/19 672/122/20
f 673/122/20 674/208/19 675/210/19
f 674/208/19 673/122/20 676/146/19
f 677/146/19 678/207/19 679/208/20
f 678/207/19 677/146/19 680/120/20
f 681/120/20 682/218/20 683/207/20
f 682/218/20 681/120/20 684/108/19
f 685/108/19 686/192/19 687/218/20
f 686/192/19 685/108/19 688/84/19
f 689/84/20 690/174/19 691/192/19
f 690/174/19 689/84/20 692/83/19
f 693/161/14 694/219/14 695/149/15
f 695/149/15 694/219/14 696/109/14
f 697/219/14 698/213/14 699/109/15
f 700/110/14 699/109/15 698/213/14
f 701/213/14 702/163/14 703/110/14
f 703/110/14 702/163/14 704/157/14
f 705/169/15 706/203/14 707/170/14
f 706/203/14 705/169/15 708/186/15
f 709/186/15 710/201/15 711/203/14
f 710/201/15 709/186/15 712/185/14
f 713/164/14 714/201/14 715/185/14
f 715/185/14 716/165/15 713/164/14
f 717/204/19 718/188/19 719/172/19
f 719/172/19 720/171/19 717/204/19
f 721/187/20 722/188/19 723/202/19
f 722/188/19 724/204/20 723/202/19
f 725/167/20 726/187/19 727/166/19
f 726/187/19 728/202/19 727/166/19
f 729/220/20 730/150/19 731/111/19
f 730/150/19 729/220/20 732/162/19
f 733/111/20 734/214/20 735/220/19
f 734/214/20 733/111/20 736/112/20
f 737/168/19 738/112/19 739/158/19
f 738/112/19 737/168/19 740/214/19
