# Blender 5.1.2
# www.blender.org
mtllib RPG.mtl
o RPG
v 1.141434 0.147704 0.061810
v 1.141434 0.102513 0.107010
v 1.161874 0.040783 0.000008
v 1.141434 0.164244 0.000008
v 1.141434 0.040783 0.123508
v 1.141434 0.147704 -0.061691
v 1.141434 -0.020936 0.107010
v 1.141434 0.102513 -0.106892
v 1.141434 0.040783 -0.123390
v 1.141434 -0.066126 0.061810
v 1.141434 -0.020936 -0.106892
v 1.141434 -0.082666 0.000008
v 1.141434 -0.066126 -0.061691
v 0.821024 0.165803 0.073208
v 0.821024 0.112224 0.126808
v 0.937864 0.039033 0.000008
v 0.821024 0.185413 0.000008
v 0.821024 0.039033 0.146408
v 0.821024 0.165803 -0.073090
v 0.821024 -0.034166 0.126808
v 0.821024 0.112224 -0.126690
v 0.821024 0.039033 -0.146290
v 0.821024 -0.087747 0.073208
v 0.821024 -0.034166 -0.126690
v 0.821024 -0.107357 0.000008
v 0.821024 -0.087747 -0.073090
v 0.784094 0.235054 -0.056789
v 0.784094 0.119654 0.000008
v 0.784094 0.104434 -0.056789
v 0.784094 0.250274 0.000008
v 0.784094 0.235054 0.056808
v 0.784094 0.219833 -0.113590
v 0.784094 0.089213 -0.113590
v 0.784094 0.320913 -0.113590
v 0.784094 0.336133 -0.056789
v 0.784094 0.104434 0.056808
v 0.784094 0.219833 0.113609
v 0.784094 0.089213 0.113609
v 0.784094 0.320913 0.113609
v 0.784094 0.336133 0.056808
v 0.565554 -0.073687 -0.006691
v 0.565554 -0.112046 0.006809
v 0.565554 -0.112046 -0.006691
v 0.565554 -0.073687 0.006809
v 0.478834 0.165803 0.073208
v 0.478834 0.112224 0.126808
v 0.651744 0.039033 0.000008
v 0.478834 0.165803 -0.073090
v 0.478834 -0.034166 0.126808
v 0.478834 0.112224 -0.126690
v 0.478834 -0.087747 0.073208
v 0.478834 -0.034166 -0.126690
v 0.478834 -0.087747 -0.073090
v 0.565554 -0.112046 0.006809
v 0.570434 -0.148346 0.006809
v 0.565554 -0.112046 -0.006691
v 0.570434 -0.148346 -0.006691
v 0.577654 -0.167626 0.006809
v 0.577654 -0.167626 -0.006691
v 0.082124 0.332183 -0.053291
v 0.128704 0.195194 0.000008
v 0.128704 0.177124 -0.053291
v 0.082124 0.314114 -0.106590
v 0.128704 0.159053 -0.106590
v 0.082124 0.350254 0.000008
v 0.069314 0.415864 -0.022491
v 0.069314 0.433934 0.000008
v 0.069314 0.415864 0.022610
v 0.082124 0.332183 0.053410
v 0.128704 0.177124 0.053410
v 0.082124 0.314114 0.106709
v 0.128704 0.159053 0.106709
v -1.283666 0.338913 0.172211
v -1.399796 0.206024 0.286209
v -1.283666 0.212914 0.298210
v -1.399796 0.326973 0.165310
v -1.283666 0.385034 0.000008
v -1.399796 0.326973 -0.165192
v -1.399796 0.371253 0.000008
v 0.478834 0.165803 0.073208
v 0.651744 0.039033 0.000008
v 0.478834 0.185413 0.000008
v 0.478834 0.165803 -0.073090
v -1.399796 0.206024 -0.286091
v -1.283666 0.338913 -0.172092
v -1.283666 0.212913 -0.298092
v -1.399796 0.326973 -0.165192
v -1.283666 0.385034 0.000008
v -1.399796 0.326973 0.165310
v -1.399796 0.371253 0.000008
v 0.069314 0.415864 -0.022491
v -0.146346 0.415864 -0.022491
v -0.146346 0.433934 0.000008
v 0.069314 0.433934 0.000008
v 0.069314 0.415864 0.022610
v -0.146346 0.415864 0.022610
v 0.739244 0.336133 0.056808
v 0.739244 0.320913 0.113609
v 0.784094 0.336133 0.056808
v 0.784094 0.320913 0.113609
v 0.784094 0.320913 -0.113590
v 0.739244 0.320913 -0.113590
v 0.784094 0.336133 -0.056789
v 0.739244 0.336133 -0.056789
v -1.399796 -0.104496 0.083908
v -0.870246 -0.008596 0.028610
v -1.399796 -0.126966 0.000008
v -0.870246 -0.008596 -0.028492
v -1.399796 -0.104496 -0.083790
v -1.399796 -0.043087 -0.145191
v -0.159166 0.314114 0.106709
v 0.082124 0.332183 0.053410
v -0.159166 0.332183 0.053410
v 0.082124 0.314114 0.106709
v -0.159166 0.332183 -0.053291
v 0.082124 0.332183 -0.053291
v -0.159166 0.314114 -0.106590
v 0.082124 0.314114 -0.106590
v 0.739244 0.235054 -0.056789
v 0.739244 0.250274 0.000008
v 0.784094 0.235054 -0.056789
v 0.784094 0.250274 0.000008
v 0.784094 0.235054 0.056808
v 0.739244 0.235054 0.056808
v -1.399796 -0.043087 0.145309
v -0.870246 -0.008596 0.028610
v -1.399796 -0.104496 0.083908
v -0.870246 -0.016236 0.000008
v -1.399796 -0.126966 0.000008
v -0.870246 -0.008596 -0.028492
v 0.374234 0.147704 0.061810
v 1.141434 0.147704 0.061810
v 0.374234 0.164244 0.000008
v 1.141434 0.164244 0.000008
v 0.374234 0.147704 -0.061691
v 1.141434 0.147704 -0.061691
v 0.821024 0.165803 -0.073090
v 0.702494 0.165803 -0.073090
v 0.821024 0.185413 0.000008
v 0.702494 0.185413 0.000008
v 0.821024 0.165803 0.073208
v 0.702494 0.165803 0.073208
v 0.478834 0.165803 -0.073090
v 0.179544 0.165803 -0.073090
v 0.478834 0.185413 0.000008
v 0.179544 0.185413 0.000008
v 0.478834 0.165803 0.073208
v 0.179544 0.165803 0.073208
v -1.283666 0.338913 0.172211
v -0.893046 0.117404 0.132809
v -0.893046 0.173493 0.076710
v -1.283666 0.212914 0.298210
v -1.283666 0.385034 0.000008
v -0.893046 0.194024 0.000008
v -0.893046 0.173493 -0.076592
v -0.893046 0.117403 -0.132690
v -1.283666 0.212913 -0.298092
v -1.283666 0.338913 -0.172092
v -0.893046 0.173493 -0.076592
v -1.283666 0.385034 0.000008
v -0.893046 0.173493 0.076710
v -1.283666 0.338913 0.172211
v -1.399796 0.206024 0.286209
v -1.283666 0.212914 0.298210
v -1.283666 0.040783 0.344311
v -1.399796 -0.124446 0.286209
v -1.399796 0.040783 0.330509
v -1.283666 -0.131337 0.298210
v -1.399796 -0.245407 0.165310
v 0.478834 0.112224 0.126808
v 0.651744 0.039033 0.000008
v 0.478834 0.039033 0.146408
v 0.478834 -0.034166 0.126808
v -1.283666 -0.131337 0.298210
v -1.399796 -0.245407 0.165310
v -1.283666 -0.257347 0.172211
v -1.399796 0.040783 0.330509
v -1.283666 0.040783 0.344311
v -1.399796 0.206024 0.286209
v -0.870246 -0.008596 -0.028492
v -1.399796 -0.043087 -0.145191
v -0.870246 0.012273 -0.049290
v -1.399796 0.040783 -0.167690
v -0.870246 0.069293 -0.049290
v -1.399796 0.124663 -0.145191
v -0.870246 0.090164 -0.028492
v -0.159166 0.332183 0.053410
v 0.082124 0.332183 0.053410
v 0.069314 0.415864 0.022610
v -0.146346 0.415864 0.022610
v -1.399796 0.040783 -0.167690
v -0.870246 0.012273 -0.049290
v -0.870246 0.040783 -0.056992
v -0.870246 0.069293 -0.049290
v 0.784094 0.089213 0.113609
v 0.784094 0.219833 0.113609
v 0.739244 0.089213 0.113609
v 0.739244 0.219833 0.113609
v 0.784094 0.320913 0.113609
v 0.739244 0.320913 0.113609
v 0.128704 0.159053 0.106709
v -0.159166 0.314114 0.106709
v -0.205736 0.159053 0.106709
v 0.082124 0.314114 0.106709
v 1.141434 0.102513 0.107010
v 0.374234 0.147704 0.061810
v 0.374234 0.102513 0.107010
v 1.141434 0.147704 0.061810
v 1.141434 0.040783 0.123508
v 0.374234 0.040783 0.123508
v 1.141434 -0.020936 0.107010
v 0.374234 -0.020936 0.107010
v 1.141434 -0.066126 0.061810
v 0.374234 -0.066126 0.061810
v 0.531914 -0.112046 0.006809
v 0.565554 -0.112046 0.006809
v 0.565554 -0.073687 0.006809
v 0.531914 -0.073687 0.006809
v 0.540534 -0.148346 0.006809
v 0.570434 -0.148346 0.006809
v 0.553694 -0.167626 0.006809
v 0.577654 -0.167626 0.006809
v 0.821024 0.112224 0.126808
v 0.702494 0.165803 0.073208
v 0.702494 0.112224 0.126808
v 0.821024 0.165803 0.073208
v 0.821024 0.039033 0.146408
v 0.702494 0.039033 0.146408
v 0.821024 -0.034166 0.126808
v 0.702494 -0.034166 0.126808
v 0.821024 -0.087747 0.073208
v 0.702494 -0.087747 0.073208
v 0.478834 0.112224 0.126808
v 0.179544 0.165803 0.073208
v 0.179544 0.112224 0.126808
v 0.478834 0.165803 0.073208
v 0.478834 0.039033 0.146408
v 0.179544 0.039033 0.146408
v 0.478834 -0.034166 0.126808
v 0.179544 -0.034166 0.126808
v 0.478834 -0.087747 0.073208
v 0.179544 -0.087747 0.073208
v 0.784094 0.235054 -0.056789
v 0.784094 0.336133 -0.056789
v 0.739244 0.235054 -0.056789
v 0.739244 0.336133 -0.056789
v -0.893046 0.117404 0.132809
v -1.283666 0.040783 0.344311
v -0.893046 0.040783 0.153309
v -1.283666 0.212914 0.298210
v -1.283666 -0.131337 0.298210
v -0.893046 -0.035827 0.132809
v -1.283666 -0.257347 0.172211
v -0.893046 0.040783 0.153309
v -1.283666 0.040783 0.344311
v -0.893046 -0.035827 0.132809
v -1.399796 0.326973 0.165310
v -1.399796 0.124663 0.145309
v -1.399796 0.206024 0.286209
v -1.399796 0.186064 0.083908
v -1.399796 0.040783 0.330509
v -1.399796 0.040783 0.167809
v -1.399796 -0.043087 0.145309
v -1.399796 -0.124446 0.286209
v -1.399796 -0.104496 0.083908
v -1.399796 -0.289676 0.000008
v -1.399796 -0.126966 0.000008
v -1.399796 -0.104496 -0.083790
v -1.399796 0.371253 0.000008
v -1.399796 0.208543 0.000008
v -1.399796 0.186064 -0.083790
v -1.399796 -0.124446 -0.286091
v -1.399796 -0.043087 -0.145191
v -1.399796 0.040783 -0.330391
v -1.399796 0.040783 -0.167690
v -1.399796 0.124663 -0.145191
v -1.399796 0.326973 -0.165192
v -1.399796 0.206024 -0.286091
v -1.399796 -0.124446 0.286209
v -1.399796 -0.104496 0.083908
v -1.399796 -0.245407 0.165310
v -1.399796 -0.289676 0.000008
v -1.399796 -0.104496 -0.083790
v -1.399796 -0.245407 -0.165192
v -1.399796 -0.124446 -0.286091
v -1.399796 0.186064 -0.083790
v -1.399796 0.371253 0.000008
v -1.399796 0.326973 -0.165192
v -1.399796 0.186064 0.083908
v -1.399796 0.326973 0.165310
v -0.870246 0.069294 0.049408
v -0.870246 0.090164 0.028610
v -0.870246 0.040783 0.000008
v -0.870246 0.040783 0.057110
v -0.870246 0.097804 0.000008
v -0.870246 0.012273 0.049408
v -0.870246 0.090164 -0.028492
v -0.870246 -0.008596 0.028610
v -0.870246 -0.016236 0.000008
v -0.870246 0.069293 -0.049290
v -0.870246 -0.008596 -0.028492
v -0.870246 0.040783 -0.056992
v -0.870246 0.012273 -0.049290
v -0.159166 0.332183 -0.053291
v -0.205736 0.177124 -0.053291
v -0.205736 0.195194 0.000008
v -0.159166 0.314114 -0.106590
v -0.205736 0.159053 -0.106590
v -0.159166 0.350254 0.000008
v -0.146346 0.415864 -0.022491
v -0.146346 0.433934 0.000008
v -0.146346 0.415864 0.022610
v -0.159166 0.332183 0.053410
v -0.205736 0.177124 0.053410
v -0.159166 0.314114 0.106709
v -0.205736 0.159053 0.106709
v 0.540534 -0.148346 -0.006691
v 0.531914 -0.112046 0.006809
v 0.531914 -0.112046 -0.006691
v 0.540534 -0.148346 0.006809
v 0.553694 -0.167626 -0.006691
v 0.553694 -0.167626 0.006809
v 0.531914 -0.112046 0.006809
v 0.531914 -0.073687 0.006809
v 0.531914 -0.112046 -0.006691
v 0.531914 -0.073687 -0.006691
v 0.702494 0.112224 0.126808
v 0.702494 0.165803 0.073208
v 0.585654 0.039033 0.000008
v 0.702494 0.039033 0.146408
v 0.702494 0.185413 0.000008
v 0.702494 -0.034166 0.126808
v 0.702494 0.165803 -0.073090
v 0.702494 -0.087747 0.073208
v 0.702494 -0.107357 0.000008
v 0.702494 0.112224 -0.126690
v 0.702494 -0.087747 -0.073090
v 0.702494 0.039033 -0.146290
v 0.702494 -0.034166 -0.126690
v 0.739244 0.235054 -0.056789
v 0.739244 0.104434 -0.056789
v 0.739244 0.119654 0.000008
v 0.739244 0.219833 -0.113590
v 0.739244 0.089213 -0.113590
v 0.739244 0.320913 -0.113590
v 0.739244 0.336133 -0.056789
v 0.739244 0.250274 0.000008
v 0.739244 0.235054 0.056808
v 0.739244 0.104434 0.056808
v 0.739244 0.219833 0.113609
v 0.739244 0.089213 0.113609
v 0.739244 0.320913 0.113609
v 0.739244 0.336133 0.056808
v -1.399796 -0.245407 0.165310
v -1.283666 -0.303467 0.000008
v -1.283666 -0.257347 0.172211
v -1.399796 -0.289676 0.000008
v -1.399796 -0.245407 -0.165192
v -1.283666 -0.303467 0.000008
v -1.399796 -0.245407 -0.165192
v -1.283666 -0.257347 -0.172092
v 0.651744 0.039033 0.000008
v 0.478834 -0.087747 0.073208
v 0.478834 -0.107357 0.000008
v 0.478834 -0.087747 -0.073090
v 0.553694 -0.167626 -0.006691
v 0.577654 -0.167626 -0.006691
v 0.577654 -0.167626 0.006809
v 0.553694 -0.167626 0.006809
v -0.870246 0.090164 -0.028492
v -1.399796 0.208543 0.000008
v -0.870246 0.097804 0.000008
v -0.870246 0.090164 0.028610
v -1.399796 0.124663 0.145309
v -1.399796 0.186064 0.083908
v -1.399796 0.208543 0.000008
v -0.870246 0.097804 0.000008
v -0.870246 0.090164 -0.028492
v -1.399796 0.186064 -0.083790
v -1.399796 0.124663 -0.145191
v 1.141434 -0.066126 0.061810
v 0.374234 -0.066126 0.061810
v 1.141434 -0.082666 0.000008
v 0.374234 -0.082666 0.000008
v 1.141434 -0.066126 -0.061691
v 0.374234 -0.066126 -0.061691
v 0.821024 -0.087747 0.073208
v 0.702494 -0.087747 0.073208
v 0.821024 -0.107357 0.000008
v 0.702494 -0.107357 0.000008
v 0.821024 -0.087747 -0.073090
v 0.702494 -0.087747 -0.073090
v 0.784094 0.119654 0.000008
v 0.739244 0.104434 -0.056789
v 0.784094 0.104434 -0.056789
v 0.739244 0.089213 -0.113590
v 0.784094 0.089213 -0.113590
v 0.739244 0.119654 0.000008
v 0.784094 0.104434 0.056808
v 0.739244 0.104434 0.056808
v 0.784094 0.089213 0.113609
v 0.739244 0.089213 0.113609
v 0.478834 -0.087747 0.073208
v 0.179544 -0.087747 0.073208
v 0.478834 -0.107357 0.000008
v 0.179544 -0.107357 0.000008
v 0.478834 -0.087747 -0.073090
v 0.179544 -0.087747 -0.073090
v -0.205736 0.177124 -0.053291
v 0.128704 0.177124 -0.053291
v 0.128704 0.195194 0.000008
v -0.205736 0.159053 -0.106590
v 0.128704 0.159053 -0.106590
v -0.205736 0.195194 0.000008
v 0.128704 0.177124 0.053410
v -0.205736 0.177124 0.053410
v 0.128704 0.159053 0.106709
v -0.205736 0.159053 0.106709
v -0.893046 -0.035827 0.132809
v -1.283666 -0.257347 0.172211
v -0.893046 -0.091917 0.076710
v -1.283666 -0.303467 0.000008
v -0.893046 -0.112446 0.000008
v -0.893046 -0.091917 -0.076591
v -1.283666 -0.257347 -0.172092
v -0.893046 -0.091917 -0.076591
v -1.283666 -0.257347 -0.172092
v -0.893046 -0.035827 -0.132690
v -1.399796 -0.245407 -0.165192
v -1.283666 -0.131337 -0.298092
v -1.283666 -0.257347 -0.172092
v -1.399796 -0.124446 -0.286091
v -1.283666 0.040783 -0.344193
v -1.399796 0.206024 -0.286091
v -1.283666 0.212913 -0.298092
v -1.399796 0.040783 -0.330391
v 0.651744 0.039033 0.000008
v 0.478834 0.112224 -0.126690
v 0.478834 0.039033 -0.146290
v 0.478834 -0.034166 -0.126690
v -1.399796 0.040783 -0.330391
v -1.283666 0.040783 -0.344193
v -1.399796 -0.124446 -0.286091
v -0.870246 0.090164 0.028610
v -1.399796 0.124663 0.145309
v -0.870246 0.069294 0.049408
v 0.069314 0.415864 -0.022491
v -0.159166 0.332183 -0.053291
v -0.146346 0.415864 -0.022491
v 0.082124 0.332183 -0.053291
v -0.870246 0.069294 0.049408
v -1.399796 0.040783 0.167809
v -1.399796 0.124663 0.145309
v -0.870246 0.040783 0.057110
v -1.399796 0.040783 0.167809
v -0.870246 0.012273 0.049408
v -1.399796 -0.043087 0.145309
v -0.870246 0.040783 0.057110
v -0.870246 -0.008596 0.028610
v 0.784094 0.219833 -0.113590
v 0.784094 0.089213 -0.113590
v 0.739244 0.219833 -0.113590
v 0.739244 0.089213 -0.113590
v 0.739244 0.320913 -0.113590
v 0.784094 0.320913 -0.113590
v 0.128704 0.159053 -0.106590
v -0.205736 0.159053 -0.106590
v -0.159166 0.314114 -0.106590
v 0.082124 0.314114 -0.106590
v 0.374234 0.147704 -0.061691
v 1.141434 0.147704 -0.061691
v 0.374234 0.102513 -0.106892
v 1.141434 0.102513 -0.106892
v 0.374234 0.040783 -0.123390
v 1.141434 0.040783 -0.123390
v 1.141434 -0.066126 -0.061691
v 0.374234 -0.020936 -0.106892
v 0.374234 -0.066126 -0.061691
v 1.141434 -0.020936 -0.106892
v 0.531914 -0.073687 -0.006691
v 0.565554 -0.073687 -0.006691
v 0.565554 -0.112046 -0.006691
v 0.531914 -0.112046 -0.006691
v 0.565554 -0.112046 -0.006691
v 0.540534 -0.148346 -0.006691
v 0.531914 -0.112046 -0.006691
v 0.570434 -0.148346 -0.006691
v 0.553694 -0.167626 -0.006691
v 0.577654 -0.167626 -0.006691
v 0.821024 -0.087747 -0.073090
v 0.702494 -0.087747 -0.073090
v 0.821024 -0.034166 -0.126690
v 0.702494 -0.034166 -0.126690
v 0.821024 0.039033 -0.146290
v 0.702494 0.039033 -0.146290
v 0.821024 0.112224 -0.126690
v 0.702494 0.112224 -0.126690
v 0.821024 0.165803 -0.073090
v 0.702494 0.165803 -0.073090
v 0.478834 -0.087747 -0.073090
v 0.179544 -0.087747 -0.073090
v 0.478834 -0.034166 -0.126690
v 0.179544 -0.034166 -0.126690
v 0.478834 0.039033 -0.146290
v 0.179544 0.039033 -0.146290
v 0.478834 0.112224 -0.126690
v 0.179544 0.112224 -0.126690
v 0.478834 0.165803 -0.073090
v 0.179544 0.165803 -0.073090
v 0.784094 0.336133 0.056808
v 0.784094 0.235054 0.056808
v 0.739244 0.336133 0.056808
v 0.739244 0.235054 0.056808
v -1.283666 -0.257347 -0.172092
v -1.283666 -0.131337 -0.298092
v -0.893046 -0.035827 -0.132690
v -1.283666 0.040783 -0.344193
v -0.893046 0.040783 -0.153191
v -0.893046 -0.035827 -0.132690
v -1.283666 0.040783 -0.344193
v -1.283666 -0.131337 -0.298092
v -0.893046 0.040783 -0.153191
v -0.893046 0.117403 -0.132690
v -1.283666 0.212913 -0.298092
v 0.755034 -0.069696 -0.018192
v 0.720354 -0.185096 0.018311
v 0.720354 -0.185096 -0.018192
v 0.755034 -0.069696 0.018311
v 0.780964 -0.023306 -0.037189
v 0.755034 -0.069696 0.018311
v 0.755034 -0.069696 -0.018192
v 0.780964 -0.023306 0.037308
v 0.531904 -0.096956 -0.027992
v 0.531904 -0.096956 0.028111
v 0.506954 -0.175837 -0.027992
v 0.506954 -0.175837 0.028111
v 0.471624 -0.203086 -0.027992
v 0.433744 -0.451046 0.043011
v 0.433744 -0.451046 -0.042892
v 0.471624 -0.203086 0.028111
v 0.434614 -0.497906 0.043011
v 0.434614 -0.497906 -0.042892
v 0.285884 0.154394 0.196808
v 0.374234 0.147704 0.061810
v 0.285884 0.237554 0.113609
v 0.285884 0.267993 0.000008
v 0.374234 0.164244 0.000008
v 0.374234 0.147704 -0.061691
v 0.285884 0.237554 -0.113590
v 0.285884 0.154394 -0.196690
v 0.285884 0.040783 -0.227192
v 0.374234 -0.020936 -0.106892
v 0.285884 -0.072816 -0.196690
v 0.374234 0.102513 -0.106892
v 0.285884 0.154394 -0.196690
v 0.374234 0.147704 -0.061691
v 0.374234 0.040783 0.123508
v 0.285884 0.040783 0.227310
v 0.374234 -0.020936 0.107010
v 0.374234 0.147704 0.061810
v 0.285884 0.154394 0.196808
v 0.374234 0.102513 0.107010
v 0.285884 0.040783 0.227310
v 0.374234 0.040783 0.123508
v 0.285884 -0.072816 0.196808
v 0.374234 -0.020936 0.107010
v 0.285884 -0.155986 0.113609
v 0.374234 -0.066126 0.061810
v 0.285884 -0.186427 0.000008
v 0.374234 -0.082666 0.000008
v 0.374234 -0.066126 -0.061691
v 0.285884 -0.186427 0.000008
v 0.374234 -0.066126 0.061810
v 0.285884 -0.155986 0.113609
v 0.374234 -0.066126 -0.061691
v 0.285884 -0.155986 -0.113590
v 0.374234 -0.020936 -0.106892
v 0.285884 -0.072816 -0.196690
v 0.285884 0.040783 -0.227192
v 0.374234 0.040783 -0.123390
v 0.374234 0.102513 -0.106892
v 0.016764 -0.170456 -0.037189
v -0.013726 -0.224997 0.037308
v -0.013726 -0.224997 -0.037189
v 0.016764 -0.170456 0.037308
v -0.013726 -0.224997 -0.037189
v -0.056146 -0.449857 0.044910
v -0.056146 -0.449857 -0.044891
v -0.013726 -0.224997 0.037308
v -0.063366 -0.511286 0.044910
v -0.063366 -0.511286 -0.044891
v -0.547596 0.117403 -0.132690
v -0.355806 0.237554 -0.113590
v -0.355806 0.154394 -0.196690
v -0.547596 0.173493 -0.076592
v -0.355806 0.267993 0.000008
v -0.547596 0.194024 0.000008
v -0.547596 0.173493 0.076710
v -0.355806 0.237554 0.113609
v -0.547596 0.117403 -0.132690
v -0.355806 0.237554 -0.113590
v -0.547596 0.173493 -0.076592
v -0.547596 0.173493 -0.076592
v -0.893046 0.194024 0.000008
v -0.547596 0.194024 0.000008
v -0.355806 0.237554 0.113609
v -0.547596 0.117404 0.132809
v -0.355806 0.154394 0.196808
v -0.547596 0.173493 0.076710
v -0.355806 0.154394 0.196808
v 0.285884 0.154394 0.196808
v -0.355806 0.237554 0.113609
v 0.285884 0.237554 0.113609
v 0.285884 0.154394 -0.196690
v -0.355806 0.154394 -0.196690
v 0.285884 0.237554 -0.113590
v -0.355806 0.237554 -0.113590
v 0.285884 0.267993 0.000008
v -0.355806 0.267993 0.000008
v 0.285884 0.237554 0.113609
v -0.355806 0.237554 0.113609
v 0.532234 -0.023306 -0.037189
v 0.295934 -0.023306 -0.037189
v 0.295934 -0.023306 0.037308
v 0.532234 -0.023306 0.037308
v 0.749494 -0.023306 0.037308
v 0.749494 -0.023306 -0.037189
v 0.780964 -0.023306 0.037308
v 0.780964 -0.023306 -0.037189
v -0.197786 -0.170456 0.037308
v 0.016764 -0.170456 -0.037189
v -0.197786 -0.170456 -0.037189
v 0.016764 -0.170456 0.037308
v 0.663274 -0.175837 -0.027992
v 0.506954 -0.175837 -0.027992
v 0.506954 -0.175837 0.028111
v 0.663274 -0.175837 0.028111
v -0.893046 0.173493 0.076710
v -0.547596 0.117404 0.132809
v -0.547596 0.173493 0.076710
v -0.547596 0.194024 0.000008
v -0.893046 0.194024 0.000008
v -0.893046 0.117404 0.132809
v -0.547596 0.117403 -0.132690
v -0.893046 0.117403 -0.132690
v -0.547596 0.173493 -0.076592
v -0.893046 0.173493 -0.076592
v -0.547596 0.040783 0.153309
v -0.355806 0.040783 0.227310
v -0.547596 0.117404 0.132809
v -0.547596 0.117404 0.132809
v -0.355806 0.154394 0.196808
v -0.355806 0.040783 0.227310
v -0.547596 -0.035827 0.132809
v -0.547596 0.040783 0.153309
v -0.355806 -0.072816 0.196808
v 0.720354 -0.185096 0.018311
v 0.723564 -0.069696 0.028111
v 0.688884 -0.203086 0.028111
v 0.755034 -0.069696 0.018311
v -0.355806 0.154394 0.196808
v 0.285884 0.154394 0.196808
v 0.285884 0.040783 0.227310
v -0.355806 0.040783 0.227310
v 0.285884 -0.072816 0.196808
v -0.355806 -0.072816 0.196808
v 0.723564 -0.069696 0.028111
v 0.755034 -0.069696 0.018311
v 0.749494 -0.023306 0.037308
v 0.780964 -0.023306 0.037308
v 0.471624 -0.203086 0.028111
v 0.321864 -0.069696 0.037308
v 0.306684 -0.197376 0.037308
v 0.506304 -0.069696 0.028111
v 0.433744 -0.451046 0.043011
v 0.228094 -0.435987 0.043011
v 0.434614 -0.497906 0.043011
v 0.219534 -0.481467 0.043011
v 0.254684 -0.494467 0.043011
v 0.399464 -0.509996 0.043011
v -0.167296 -0.224997 0.037308
v -0.013726 -0.224997 0.037308
v 0.016764 -0.170456 0.037308
v -0.197786 -0.170456 0.037308
v -0.056146 -0.449857 0.044910
v -0.167296 -0.224997 0.037308
v -0.252476 -0.433306 0.044910
v -0.013726 -0.224997 0.037308
v -0.063366 -0.511286 0.044910
v -0.269136 -0.491066 0.044910
v -0.231456 -0.507056 0.044910
v -0.101046 -0.526156 0.044910
v 0.321864 -0.069696 0.037308
v 0.506304 -0.069696 0.028111
v 0.532234 -0.023306 0.037308
v 0.295934 -0.023306 0.037308
v 0.506304 -0.069696 0.028111
v 0.471624 -0.203086 0.028111
v 0.506954 -0.175837 0.028111
v 0.531904 -0.096956 0.028111
v 0.688884 -0.203086 0.028111
v 0.506954 -0.175837 0.028111
v 0.471624 -0.203086 0.028111
v 0.663274 -0.175837 0.028111
v 0.688884 -0.203086 0.028111
v 0.723564 -0.069696 0.028111
v 0.688224 -0.096956 0.028111
v 0.663274 -0.175837 0.028111
v 0.506304 -0.069696 0.028111
v 0.688224 -0.096956 0.028111
v 0.723564 -0.069696 0.028111
v 0.531904 -0.096956 0.028111
v 0.506304 -0.069696 0.028111
v 0.723564 -0.069696 0.028111
v 0.532234 -0.023306 0.037308
v 0.749494 -0.023306 0.037308
v -0.547596 0.117404 0.132809
v -0.893046 0.117404 0.132809
v -0.547596 0.040783 0.153309
v -0.893046 0.040783 0.153309
v -0.547596 -0.035827 0.132809
v -0.893046 -0.035827 0.132809
v -0.197786 -0.170456 -0.037189
v -0.167296 -0.224997 -0.037189
v -0.197786 -0.170456 0.037308
v -0.167296 -0.224997 0.037308
v -0.252476 -0.433306 0.044910
v -0.167296 -0.224997 0.037308
v -0.252476 -0.433306 -0.044891
v -0.167296 -0.224997 -0.037189
v -0.269136 -0.491066 -0.044891
v -0.269136 -0.491066 0.044910
v 0.321864 -0.069696 -0.037189
v 0.306684 -0.197376 -0.037189
v 0.321864 -0.069696 0.037308
v 0.306684 -0.197376 0.037308
v 0.228094 -0.435987 -0.042892
v 0.228094 -0.435987 0.043011
v 0.219534 -0.481467 -0.042892
v 0.219534 -0.481467 0.043011
v 0.295934 -0.023306 -0.037189
v 0.321864 -0.069696 -0.037189
v 0.295934 -0.023306 0.037308
v 0.321864 -0.069696 0.037308
v 0.663274 -0.175837 -0.027992
v 0.663274 -0.175837 0.028111
v 0.658414 -0.096956 -0.027992
v 0.688224 -0.096956 0.028111
v 0.399464 -0.509996 0.043011
v 0.399464 -0.509996 -0.042892
v 0.434614 -0.497906 -0.042892
v 0.434614 -0.497906 0.043011
v -0.231456 -0.507056 -0.044891
v -0.101046 -0.526156 -0.044891
v -0.101046 -0.526156 0.044910
v -0.231456 -0.507056 0.044910
v -0.269136 -0.491066 0.044910
v -0.269136 -0.491066 -0.044891
v 0.720354 -0.185096 -0.018192
v 0.688884 -0.203086 0.028111
v 0.688884 -0.203086 -0.027992
v 0.720354 -0.185096 0.018311
v 0.254684 -0.494467 -0.042892
v 0.399464 -0.509996 -0.042892
v 0.399464 -0.509996 0.043011
v 0.254684 -0.494467 0.043011
v 0.219534 -0.481467 0.043011
v 0.219534 -0.481467 -0.042892
v -0.547596 -0.035827 0.132809
v -0.355806 -0.072816 0.196808
v -0.355806 -0.155986 0.113609
v -0.547596 -0.091917 0.076710
v -0.547596 -0.112446 0.000008
v -0.355806 -0.186427 0.000008
v -0.547596 -0.091917 -0.076591
v -0.355806 -0.155986 -0.113590
v -0.101046 -0.526156 0.044910
v -0.101046 -0.526156 -0.044891
v -0.063366 -0.511286 -0.044891
v -0.063366 -0.511286 0.044910
v -0.547596 -0.035827 -0.132690
v -0.355806 -0.155986 -0.113590
v -0.547596 -0.091917 -0.076591
v -0.355806 -0.072816 -0.196690
v -0.355806 -0.155986 0.113609
v -0.547596 -0.091917 0.076710
v -0.355806 -0.186427 0.000008
v 0.285884 -0.072816 0.196808
v -0.355806 -0.072816 0.196808
v 0.285884 -0.155986 0.113609
v -0.355806 -0.155986 0.113609
v 0.285884 -0.186427 0.000008
v -0.355806 -0.186427 0.000008
v 0.285884 -0.155986 -0.113590
v -0.355806 -0.155986 -0.113590
v 0.285884 -0.072816 -0.196690
v -0.355806 -0.072816 -0.196690
v 0.688884 -0.203086 -0.027992
v 0.471624 -0.203086 0.028111
v 0.471624 -0.203086 -0.027992
v 0.688884 -0.203086 0.028111
v 0.658414 -0.096956 -0.027992
v 0.531904 -0.096956 0.028111
v 0.531904 -0.096956 -0.027992
v 0.688224 -0.096956 0.028111
v -0.547596 -0.035827 0.132809
v -0.893046 -0.035827 0.132809
v -0.547596 -0.091917 0.076710
v -0.893046 -0.091917 0.076710
v -0.547596 -0.112446 0.000008
v -0.893046 -0.112446 0.000008
v -0.547596 -0.091917 -0.076591
v -0.893046 -0.091917 -0.076591
v -0.547596 -0.035827 -0.132690
v -0.893046 -0.035827 -0.132690
v -0.547596 0.117403 -0.132690
v -0.355806 0.040783 -0.227192
v -0.547596 0.040783 -0.153191
v -0.355806 -0.072816 -0.196690
v -0.547596 -0.035827 -0.132690
v -0.355806 0.040783 -0.227192
v -0.547596 0.040783 -0.153191
v -0.547596 0.117403 -0.132690
v -0.355806 0.154394 -0.196690
v 0.720354 -0.185096 -0.018192
v 0.723564 -0.069696 -0.027992
v 0.755034 -0.069696 -0.018192
v 0.688884 -0.203086 -0.027992
v 0.285884 -0.072816 -0.196690
v -0.355806 -0.072816 -0.196690
v 0.285884 0.040783 -0.227192
v -0.355806 0.040783 -0.227192
v 0.285884 0.154394 -0.196690
v -0.355806 0.154394 -0.196690
v 0.755034 -0.069696 -0.018192
v 0.749494 -0.023306 -0.037189
v 0.780964 -0.023306 -0.037189
v 0.723564 -0.069696 -0.027992
v -0.269136 -0.491066 -0.044891
v -0.063366 -0.511286 -0.044891
v -0.231456 -0.507056 -0.044891
v -0.101046 -0.526156 -0.044891
v 0.321864 -0.069696 -0.037189
v 0.506304 -0.069696 -0.027992
v 0.471624 -0.203086 -0.027992
v 0.306684 -0.197376 -0.037189
v 0.433744 -0.451046 -0.042892
v 0.228094 -0.435987 -0.042892
v 0.434614 -0.497906 -0.042892
v 0.219534 -0.481467 -0.042892
v 0.219534 -0.481467 -0.042892
v 0.434614 -0.497906 -0.042892
v 0.254684 -0.494467 -0.042892
v 0.399464 -0.509996 -0.042892
v -0.197786 -0.170456 -0.037189
v 0.016764 -0.170456 -0.037189
v -0.013726 -0.224997 -0.037189
v -0.167296 -0.224997 -0.037189
v -0.013726 -0.224997 -0.037189
v -0.056146 -0.449857 -0.044891
v -0.167296 -0.224997 -0.037189
v -0.252476 -0.433306 -0.044891
v -0.063366 -0.511286 -0.044891
v -0.269136 -0.491066 -0.044891
v 0.295934 -0.023306 -0.037189
v 0.532234 -0.023306 -0.037189
v 0.506304 -0.069696 -0.027992
v 0.321864 -0.069696 -0.037189
v 0.506304 -0.069696 -0.027992
v 0.506954 -0.175837 -0.027992
v 0.471624 -0.203086 -0.027992
v 0.531904 -0.096956 -0.027992
v 0.506304 -0.069696 -0.027992
v 0.723564 -0.069696 -0.027992
v 0.658414 -0.096956 -0.027992
v 0.531904 -0.096956 -0.027992
v 0.658414 -0.096956 -0.027992
v 0.723564 -0.069696 -0.027992
v 0.663274 -0.175837 -0.027992
v 0.688884 -0.203086 -0.027992
v 0.688884 -0.203086 -0.027992
v 0.471624 -0.203086 -0.027992
v 0.506954 -0.175837 -0.027992
v 0.663274 -0.175837 -0.027992
v 0.723564 -0.069696 -0.027992
v 0.532234 -0.023306 -0.037189
v 0.749494 -0.023306 -0.037189
v 0.506304 -0.069696 -0.027992
v -0.547596 -0.035827 -0.132690
v -0.893046 -0.035827 -0.132690
v -0.547596 0.040783 -0.153191
v -0.893046 0.040783 -0.153191
v -0.547596 0.117403 -0.132690
v -0.893046 0.117403 -0.132690
vn 0.9867 0.1421 0.0789
vn 0.9867 0.0789 0.1421
vn 1.0000 -0.0000 -0.0001
vn 0.9862 0.1656 -0.0000
vn 0.9862 -0.0000 0.1656
vn 0.9867 0.1421 -0.0790
vn 0.9867 -0.0789 0.1421
vn 0.9867 0.0789 -0.1421
vn 0.9862 -0.0000 -0.1657
vn 0.9867 -0.1421 0.0789
vn 0.9867 -0.0789 -0.1421
vn 0.9862 -0.1657 -0.0000
vn 0.9867 -0.1421 -0.0789
vn 0.7787 0.5427 0.3146
vn 0.7787 0.3146 0.5427
vn 1.0000 -0.0000 -0.0002
vn 0.7816 0.6238 -0.0001
vn 0.7816 -0.0000 0.6238
vn 0.7788 0.5427 -0.3146
vn 0.7787 -0.3146 0.5428
vn 0.7787 0.3147 -0.5428
vn 0.7814 -0.0000 -0.6241
vn 0.7788 -0.5427 0.3146
vn 0.7787 -0.3146 -0.5428
vn 0.7816 -0.6238 -0.0001
vn 0.7788 -0.5427 -0.3146
vn 1.0000 -0.0000 -0.0000
vn 0.9980 0.0629 -0.0000
vn 0.6466 0.6623 0.3785
vn 0.6466 0.3785 0.6623
vn 1.0000 -0.0001 -0.0000
vn 0.6466 0.3785 -0.6623
vn 0.6466 0.6623 -0.3785
vn 0.6466 -0.3785 0.6623
vn 0.6466 -0.6623 0.3785
vn 0.6466 -0.6623 -0.3785
vn 0.6466 -0.3785 -0.6623
vn 1.0000 0.0001 -0.0000
vn 0.9771 0.2128 -0.0000
vn 0.9354 0.3537 -0.0000
vn 0.9563 0.2766 -0.0948
vn 0.9570 0.2902 -0.0000
vn 0.9542 0.2839 -0.0947
vn 0.9697 0.2444 -0.0000
vn 0.9831 0.1652 -0.0787
vn 0.9831 0.1652 0.0786
vn 0.9563 0.2766 0.0948
vn 0.9542 0.2839 0.0947
vn 0.9542 0.2839 0.0946
vn -0.1182 0.8598 0.4967
vn -0.1183 0.4969 0.8597
vn -0.1183 0.8597 0.4969
vn -0.1182 0.9930 0.0001
vn -0.1182 0.9930 -0.0000
vn -0.1183 0.8597 -0.4969
vn 0.6456 0.7636 -0.0000
vn 0.6466 0.6624 0.3784
vn 0.6466 0.6624 -0.3785
vn -0.1183 0.4969 -0.8597
vn -0.1180 0.8599 -0.4966
vn -0.1182 0.9930 -0.0001
vn -0.0000 0.7816 -0.6238
vn -0.0000 1.0000 -0.0000
vn -0.0000 0.7816 0.6238
vn -0.0000 0.9659 0.2588
vn -0.0000 0.9658 0.2593
vn -0.0000 0.9658 -0.2593
vn -0.0000 0.9659 -0.2588
vn -0.2044 0.8490 -0.4873
vn -0.2052 0.9787 -0.0000
vn -0.2052 0.9787 0.0001
vn -0.2044 0.8489 0.4874
vn -0.2044 0.4874 0.8489
vn -0.0000 0.9463 0.3233
vn -0.0000 0.9463 -0.3233
vn -0.0000 0.9658 -0.2592
vn -0.2044 0.4874 -0.8489
vn -0.2044 0.8489 -0.4874
vn -0.2051 0.9787 0.0001
vn -0.2051 0.9787 -0.0000
vn -0.2044 0.8490 0.4873
vn -0.0000 0.8678 0.4970
vn -0.0001 0.8678 0.4969
vn -0.0000 1.0000 -0.0002
vn -0.0000 0.8678 -0.4969
vn -0.0000 0.8678 -0.4970
vn -0.0000 0.8644 0.5029
vn -0.0000 0.8644 0.5028
vn -0.0000 0.8644 -0.5029
vn 0.4402 0.7781 0.4481
vn 0.4402 0.4481 0.7781
vn 0.4409 0.8976 -0.0000
vn 0.4402 0.7782 0.4480
vn 0.4408 0.8976 -0.0000
vn 0.4402 0.7782 -0.4480
vn 0.4402 0.4481 -0.7781
vn 0.4402 0.7781 -0.4481
vn 0.4409 0.8976 -0.0001
vn -0.1182 0.0001 0.9930
vn -0.1183 0.4968 0.8597
vn -0.1183 -0.4968 0.8597
vn -0.1182 -0.0001 0.9930
vn -0.1182 -0.0000 0.9930
vn -0.1183 -0.4969 0.8597
vn -0.1183 -0.8597 0.4969
vn 0.6466 0.3784 0.6624
vn 0.6458 -0.0000 0.7635
vn 0.6466 -0.3785 0.6624
vn -0.2044 0.4873 0.8490
vn -0.2052 -0.0000 0.9787
vn -0.2044 -0.4874 0.8489
vn -0.2044 -0.4873 0.8490
vn -0.2044 -0.8489 0.4874
vn -0.0000 0.3468 0.9379
vn -0.2051 -0.0000 0.9787
vn -0.2049 -0.0000 0.9788
vn -0.0000 -0.0000 1.0000
vn -0.0000 0.4970 0.8677
vn -0.0000 0.8677 0.4970
vn -0.0000 -0.5029 0.8644
vn -0.0000 -0.5029 0.8643
vn -0.0000 -0.8643 0.5029
vn -0.0000 0.5029 0.8644
vn -0.0000 0.8643 0.5030
vn -0.0000 -0.8643 0.5030
vn -0.0000 0.8643 0.5029
vn 0.4402 0.4480 0.7782
vn 0.4409 -0.0000 0.8976
vn 0.4402 -0.4480 0.7782
vn 0.4402 -0.7781 0.4481
vn 0.4409 -0.0001 0.8976
vn -1.0000 -0.0000 -0.0000
vn -0.9563 0.2766 -0.0948
vn -0.9542 0.2839 -0.0947
vn -0.9570 0.2902 -0.0000
vn -0.9542 0.2839 -0.0946
vn -0.9697 0.2444 -0.0000
vn -0.9831 0.1652 -0.0787
vn -0.9862 0.1657 -0.0000
vn -0.9831 0.1652 0.0787
vn -0.9563 0.2766 0.0948
vn -0.9542 0.2839 0.0947
vn -0.9542 0.2839 0.0946
vn -0.9317 -0.3632 -0.0000
vn -0.9930 -0.1182 -0.0000
vn -0.8248 -0.5655 -0.0000
vn -0.8247 -0.5655 -0.0000
vn -0.7787 0.3146 0.5427
vn -0.7787 0.5427 0.3146
vn -1.0000 -0.0000 -0.0002
vn -0.7816 -0.0000 0.6238
vn -0.7816 0.6238 -0.0001
vn -0.7787 -0.3146 0.5428
vn -0.7787 0.5428 -0.3146
vn -0.7787 -0.5428 0.3146
vn -0.7816 -0.6238 -0.0001
vn -0.7788 0.3146 -0.5427
vn -0.7787 -0.5428 -0.3146
vn -0.7817 -0.0000 -0.6237
vn -0.7787 -0.3146 -0.5427
vn -0.1182 -0.9930 -0.0000
vn -0.1183 -0.8597 -0.4969
vn -0.1182 -0.9930 -0.0001
vn 0.6466 -0.6624 0.3785
vn 0.6458 -0.7635 -0.0000
vn 1.0000 0.0001 -0.0001
vn 0.6466 -0.6624 -0.3784
vn -0.0000 -1.0000 -0.0000
vn -0.2052 -0.9787 0.0001
vn -0.2044 -0.8490 0.4873
vn -0.2044 -0.8490 -0.4873
vn -0.2044 -0.4874 -0.8489
vn -0.2044 -0.8489 -0.4874
vn -0.2052 -0.9787 -0.0000
vn -0.0000 -0.8644 0.5028
vn -0.0000 -1.0000 -0.0002
vn -0.0000 -0.8644 0.5029
vn -0.0000 -0.8644 -0.5029
vn -0.0000 -0.8644 -0.5028
vn -0.0000 -0.8678 -0.4969
vn -0.0000 -0.9659 0.2588
vn -0.0000 -0.9659 -0.2588
vn -0.0000 -0.9658 -0.2592
vn -0.0000 -0.9658 -0.2591
vn -0.0000 -0.9658 -0.2593
vn 0.0001 -0.8644 0.5028
vn -0.0000 -0.9463 0.3233
vn -0.0000 -0.9463 -0.3233
vn 0.4402 -0.4481 0.7781
vn 0.4402 -0.7782 0.4480
vn 0.4401 -0.7782 0.4481
vn 0.4409 -0.8976 -0.0000
vn 0.4410 -0.8975 -0.0000
vn 0.4402 -0.7782 -0.4480
vn 0.4402 -0.7781 -0.4481
vn 0.4402 -0.4481 -0.7781
vn -0.1183 -0.4969 -0.8597
vn -0.1182 -0.0001 -0.9930
vn -0.1182 -0.0000 -0.9930
vn -0.1183 0.4968 -0.8597
vn -0.1182 0.0001 -0.9930
vn 0.6459 -0.0000 -0.7634
vn 0.6466 0.3785 -0.6624
vn 0.6466 -0.3784 -0.6624
vn -0.1183 -0.4968 -0.8597
vn -0.0000 0.3468 -0.9379
vn -0.2044 -0.4873 -0.8490
vn -0.2052 -0.0000 -0.9787
vn -0.2044 0.4873 -0.8490
vn -0.0000 -0.0000 -1.0000
vn -0.0001 0.8677 -0.4970
vn -0.0000 0.4970 -0.8677
vn -0.0000 0.8677 -0.4970
vn -0.0000 -0.5029 -0.8643
vn -0.0000 -0.8643 -0.5029
vn -0.0000 -0.8677 -0.4970
vn -0.0000 -0.5028 -0.8644
vn -0.0000 -0.5029 -0.8644
vn -0.0000 0.5029 -0.8644
vn -0.0000 0.5029 -0.8643
vn -0.0000 0.8643 -0.5030
vn 0.4402 -0.4480 -0.7782
vn 0.4409 -0.0001 -0.8976
vn 0.4409 -0.0000 -0.8976
vn 0.4402 0.4480 -0.7782
vn 0.9570 -0.2902 -0.0000
vn 0.8729 -0.4879 -0.0000
vn 0.8730 -0.4877 -0.0000
vn 0.9541 -0.2996 -0.0000
vn 0.9888 -0.1491 -0.0000
vn 0.9930 -0.1182 -0.0000
vn 0.8643 -0.5029 -0.0000
vn 0.7637 0.3229 0.5590
vn 0.7637 0.5590 0.3228
vn 0.7637 0.6456 -0.0000
vn 0.7637 0.5590 -0.3228
vn 0.7637 0.3228 -0.5590
vn 0.7637 -0.0000 -0.6456
vn 0.7637 -0.3228 -0.5590
vn 0.7637 0.5590 -0.3229
vn 0.7637 -0.0001 0.6456
vn 0.7637 -0.3228 0.5590
vn 0.7637 0.3228 0.5590
vn 0.7637 -0.0000 0.6456
vn 0.7637 -0.3228 0.5591
vn 0.7637 -0.5590 0.3228
vn 0.7637 -0.5590 0.3229
vn 0.7637 -0.6456 -0.0000
vn 0.7637 -0.5591 -0.3228
vn 0.7637 -0.6456 0.0001
vn 0.7637 -0.5591 0.3228
vn 0.7637 -0.5590 -0.3228
vn 0.8729 -0.4880 -0.0000
vn 0.8728 -0.4880 -0.0000
vn 0.9821 -0.1886 -0.0000
vn 0.9849 -0.1733 -0.0000
vn 0.8623 -0.5063 -0.0000
vn 0.8624 -0.5063 -0.0000
vn -0.3613 0.4635 -0.8091
vn -0.3614 0.8091 -0.4635
vn -0.3613 0.8091 -0.4634
vn -0.3632 0.9317 -0.0000
vn -0.3614 0.8091 0.4634
vn -0.3613 0.8091 0.4634
vn -0.3613 0.8091 -0.4635
vn -0.3613 0.8091 0.4635
vn -0.3613 0.4635 0.8091
vn -0.0000 0.5029 0.8643
vn -0.0000 0.8644 -0.5028
vn -0.3632 -0.0000 0.9317
vn -0.3632 0.0001 0.9317
vn -0.3613 0.4634 0.8091
vn -0.3613 -0.4634 0.8091
vn -0.3632 -0.0001 0.9317
vn 0.3221 -0.0864 0.9427
vn 0.3221 -0.0864 0.9428
vn -0.0001 -0.5028 0.8644
vn -0.0000 -0.5028 0.8644
vn 0.1418 -0.3622 0.9213
vn 0.1417 -0.3622 0.9213
vn 0.0394 0.0157 0.9991
vn 0.0550 -0.0079 0.9985
vn 0.0315 0.0236 0.9992
vn 0.0236 0.0315 0.9992
vn 0.0001 -0.0000 1.0000
vn -0.0000 0.0236 0.9997
vn -0.0000 0.0315 0.9995
vn 0.0237 -0.1026 0.9944
vn -0.0003 -0.0000 1.0000
vn 0.0002 -0.0000 1.0000
vn -0.0002 -0.0000 1.0000
vn -0.0000 -0.1962 0.9806
vn -0.8728 -0.4880 -0.0000
vn -0.8729 -0.4880 -0.0000
vn -0.8729 -0.4879 -0.0000
vn -0.9354 0.3537 -0.0000
vn -0.9263 0.3768 -0.0000
vn -0.9263 0.3769 -0.0000
vn -0.9612 -0.2758 -0.0000
vn -0.9930 0.1181 -0.0000
vn -0.9678 0.2518 -0.0000
vn -0.9563 0.2924 -0.0000
vn -0.9096 -0.4156 -0.0000
vn -0.9096 -0.4156 -0.0002
vn -0.8731 -0.4876 -0.0000
vn -0.9596 0.1258 0.2517
vn -0.9596 0.1259 0.2517
vn 0.3233 -0.9463 -0.0000
vn 0.8644 -0.5028 -0.0000
vn 0.8644 -0.5029 -0.0002
vn -0.1414 -0.9899 -0.0000
vn -0.1414 -0.9900 -0.0000
vn -0.9612 -0.2757 -0.0000
vn 0.4969 -0.8678 -0.0000
vn 0.4970 -0.8678 -0.0000
vn -0.1580 -0.9874 -0.0000
vn -0.1104 -0.9939 -0.0000
vn -0.9096 -0.4155 -0.0000
vn -0.3613 -0.4635 0.8091
vn -0.3614 -0.4635 0.8091
vn -0.3613 -0.8091 0.4635
vn -0.3632 -0.9317 -0.0000
vn -0.3632 -0.9317 -0.0001
vn -0.3613 -0.8091 0.4634
vn -0.3613 -0.8091 -0.4634
vn 0.3700 -0.9290 -0.0000
vn -0.3614 -0.4635 -0.8091
vn -0.3613 -0.8091 -0.4635
vn -0.3613 -0.4635 -0.8091
vn -0.3614 -0.8091 0.4634
vn -0.3632 -0.9317 0.0001
vn -0.0000 -0.8678 0.4970
vn -0.0000 -0.8678 -0.4970
vn -0.3613 0.4634 -0.8091
vn -0.3632 0.0001 -0.9317
vn -0.3613 -0.4634 -0.8091
vn -0.3632 -0.0000 -0.9317
vn -0.3614 0.4634 -0.8091
vn 0.3221 -0.0864 -0.9427
vn 0.3221 -0.0864 -0.9428
vn 0.0001 -0.5028 -0.8644
vn 0.1417 -0.3622 -0.9213
vn 0.0550 -0.0079 -0.9985
vn 0.0394 0.0157 -0.9991
vn 0.0315 0.0236 -0.9992
vn 0.0236 0.0315 -0.9992
vn -0.0000 0.0315 -0.9995
vn -0.0000 0.0236 -0.9997
vn 0.0237 -0.1026 -0.9944
vn 0.0237 -0.1025 -0.9944
vn 0.0001 -0.0000 -1.0000
vn 0.0002 -0.0000 -1.0000
vn -0.0000 -0.1961 -0.9806
vn -0.0000 -0.1962 -0.9806
vt 0.784451 -0.397963
vt 0.775414 -0.407001
vt 0.796797 -0.419346
vt 0.796797 -0.394655
vt 0.772106 -0.419346
vt 0.809142 -0.397963
vt 0.775414 -0.431692
vt 0.818180 -0.407001
vt 0.821488 -0.419346
vt 0.784451 -0.440729
vt 0.818180 -0.431692
vt 0.796797 -0.444037
vt 0.809142 -0.440729
vt 0.782159 -0.394344
vt 0.771443 -0.405060
vt 0.796797 -0.419698
vt 0.796797 -0.390422
vt 0.767520 -0.419698
vt 0.811435 -0.394344
vt 0.771443 -0.434336
vt 0.822151 -0.405060
vt 0.826073 -0.419698
vt 0.782159 -0.445052
vt 0.822151 -0.434336
vt 0.796797 -0.448974
vt 0.811435 -0.445052
vt 0.808158 -0.380494
vt 0.796797 -0.403572
vt 0.808158 -0.406616
vt 0.796797 -0.377450
vt 0.785436 -0.380494
vt 0.819518 -0.383538
vt 0.819518 -0.409660
vt 0.819518 -0.363322
vt 0.808158 -0.360278
vt 0.785436 -0.406616
vt 0.774076 -0.383538
vt 0.774076 -0.409660
vt 0.774076 -0.363322
vt 0.785436 -0.360278
vt 0.798147 -0.442241
vt 0.795447 -0.449914
vt 0.798147 -0.449914
vt 0.795447 -0.442241
vt 0.795447 -0.457174
vt 0.798147 -0.457174
vt 0.795447 -0.461029
vt 0.798147 -0.461029
vt 0.807463 -0.361067
vt 0.796797 -0.388466
vt 0.807463 -0.392080
vt 0.818129 -0.364681
vt 0.818129 -0.395694
vt 0.796797 -0.357453
vt 0.801305 -0.344330
vt 0.796797 -0.340716
vt 0.792288 -0.344330
vt 0.786131 -0.361067
vt 0.786131 -0.392080
vt 0.775465 -0.364681
vt 0.775465 -0.395694
vt 1.029740 -0.380031
vt 1.052960 -0.357218
vt 1.029740 -0.354830
vt 1.052960 -0.381410
vt 1.029740 -0.414456
vt 1.052960 -0.447503
vt 1.052960 -0.414456
vt 0.677238 -0.414456
vt 0.677238 -0.399818
vt 0.642655 -0.414456
vt 0.677238 -0.429094
vt 1.052960 -0.471694
vt 1.029740 -0.448881
vt 1.029740 -0.474082
vt 0.759141 -0.418965
vt 0.802275 -0.418965
vt 0.802275 -0.414456
vt 0.759141 -0.414456
vt 0.759141 -0.409948
vt 0.802275 -0.409948
vt 0.625157 -0.403096
vt 0.625157 -0.391735
vt 0.616186 -0.403096
vt 0.616186 -0.391735
vt 0.616186 -0.437177
vt 0.625157 -0.437177
vt 0.616186 -0.425817
vt 0.625157 -0.425817
vt 1.052960 -0.397681
vt 0.947053 -0.408754
vt 0.947053 -0.420158
vt 1.052960 -0.431232
vt 1.052960 -0.443512
vt 0.804837 -0.393124
vt 0.756579 -0.403790
vt 0.804837 -0.403790
vt 0.756579 -0.393124
vt 0.804837 -0.425122
vt 0.756579 -0.425122
vt 0.804837 -0.435788
vt 0.756579 -0.435788
vt 0.625157 -0.414456
vt 0.616186 -0.414456
vt 1.052960 -0.385400
vt 0.947053 -0.414456
vt 0.698158 -0.402111
vt 0.544717 -0.402111
vt 0.698158 -0.414456
vt 0.544717 -0.414456
vt 0.698158 -0.426802
vt 0.544717 -0.426802
vt 0.608800 -0.429094
vt 0.632506 -0.429094
vt 0.608800 -0.414456
vt 0.632506 -0.414456
vt 0.608800 -0.399818
vt 0.632506 -0.399818
vt 0.737097 -0.429094
vt 0.737097 -0.414456
vt 0.737097 -0.399818
vt 0.951614 -0.387915
vt 0.951614 -0.399133
vt 0.951614 -0.414456
vt 0.951614 -0.429780
vt 0.951614 -0.440997
vt 0.563855 -0.419346
vt 0.563855 -0.384921
vt 0.540630 -0.386300
vt 0.540630 -0.452393
vt 0.540630 -0.419346
vt 0.563855 -0.453771
vt 0.540630 -0.476585
vt 0.916356 -0.405060
vt 0.916356 -0.419698
vt 0.950939 -0.419698
vt 0.916356 -0.434336
vt 0.563855 -0.478972
vt 0.646541 -0.425048
vt 0.540630 -0.436122
vt 0.646541 -0.429223
vt 0.646541 -0.413644
vt 0.540630 -0.402571
vt 0.646541 -0.409470
vt 0.788757 -0.361067
vt 0.837015 -0.361067
vt 0.834453 -0.344330
vt 0.791319 -0.344330
vt 0.646541 -0.419346
vt 0.977408 -0.409660
vt 0.977408 -0.383538
vt 0.968437 -0.409660
vt 0.968437 -0.383538
vt 0.977408 -0.363322
vt 0.968437 -0.363322
vt 0.846330 -0.395694
vt 0.788757 -0.364681
vt 0.779441 -0.395694
vt 0.837015 -0.364681
vt 1.048880 -0.407001
vt 0.895435 -0.397963
vt 0.895435 -0.407001
vt 1.048880 -0.397963
vt 1.048880 -0.419346
vt 0.895435 -0.419346
vt 1.048880 -0.431692
vt 0.895435 -0.431692
vt 1.048880 -0.440729
vt 0.895435 -0.440729
vt 0.926972 -0.449914
vt 0.933700 -0.449914
vt 0.933700 -0.442241
vt 0.926972 -0.442241
vt 0.928696 -0.457174
vt 0.934676 -0.457174
vt 0.931328 -0.461029
vt 0.936121 -0.461029
vt 0.984794 -0.405060
vt 0.961087 -0.394344
vt 0.961087 -0.405060
vt 0.984794 -0.394344
vt 0.984794 -0.419698
vt 0.961087 -0.419698
vt 0.984794 -0.434336
vt 0.961087 -0.434336
vt 0.984794 -0.445052
vt 0.961087 -0.445052
vt 0.856497 -0.394344
vt 0.856497 -0.405060
vt 0.916356 -0.394344
vt 0.856497 -0.419698
vt 0.856497 -0.434336
vt 0.916356 -0.445052
vt 0.856497 -0.445052
vt 0.977408 -0.380494
vt 0.977408 -0.360278
vt 0.968437 -0.380494
vt 0.968437 -0.360278
vt 0.641980 -0.404023
vt 0.641980 -0.419346
vt 0.641980 -0.434670
vt 0.829843 -0.362108
vt 0.825853 -0.402571
vt 0.854035 -0.386300
vt 0.813572 -0.390290
vt 0.862890 -0.419346
vt 0.830348 -0.419346
vt 0.825853 -0.436122
vt 0.854035 -0.452393
vt 0.813572 -0.448402
vt 0.796797 -0.485439
vt 0.796797 -0.452897
vt 0.780021 -0.448402
vt 0.796797 -0.353253
vt 0.796797 -0.385795
vt 0.780021 -0.390290
vt 0.739559 -0.452393
vt 0.767741 -0.436122
vt 0.730704 -0.419346
vt 0.763246 -0.419346
vt 0.767741 -0.402571
vt 0.763750 -0.362108
vt 0.739559 -0.386300
vt 0.829843 -0.476585
vt 0.763750 -0.476585
vt 0.806673 -0.413644
vt 0.802499 -0.409470
vt 0.808201 -0.419346
vt 0.796797 -0.407942
vt 0.806673 -0.425048
vt 0.791095 -0.409470
vt 0.802499 -0.429223
vt 0.796797 -0.430750
vt 0.786921 -0.413644
vt 0.791095 -0.429223
vt 0.785393 -0.419346
vt 0.786921 -0.425048
vt 0.563855 -0.414456
vt 0.563855 -0.380031
vt 0.540630 -0.381410
vt 0.540630 -0.414456
vt 0.540630 -0.447503
vt 0.563855 -0.448881
vt 0.916356 -0.399818
vt 0.916356 -0.414456
vt 0.950939 -0.414456
vt 0.916356 -0.429094
vt 0.931328 -0.415806
vt 0.936121 -0.415806
vt 0.936121 -0.413106
vt 0.931328 -0.413106
vt 0.646541 -0.420158
vt 0.646541 -0.414456
vt 0.646541 -0.408754
vt 0.540630 -0.385400
vt 0.540630 -0.397681
vt 0.540630 -0.431232
vt 0.540630 -0.443512
vt 0.895435 -0.402111
vt 1.048880 -0.414456
vt 1.048880 -0.402111
vt 0.895435 -0.414456
vt 1.048880 -0.426802
vt 0.895435 -0.426802
vt 0.961087 -0.399818
vt 0.984794 -0.414456
vt 0.984794 -0.399818
vt 0.961087 -0.414456
vt 0.984794 -0.429094
vt 0.961087 -0.429094
vt 0.977408 -0.414456
vt 0.968437 -0.425817
vt 0.977408 -0.425817
vt 0.968437 -0.437177
vt 0.977408 -0.437177
vt 0.968437 -0.414456
vt 0.977408 -0.403096
vt 0.968437 -0.403096
vt 0.977408 -0.391735
vt 0.968437 -0.391735
vt 0.856497 -0.399818
vt 0.856497 -0.414456
vt 0.856497 -0.429094
vt 0.779441 -0.425122
vt 0.846330 -0.425122
vt 0.846330 -0.414456
vt 0.779441 -0.435788
vt 0.846330 -0.435788
vt 0.779441 -0.414456
vt 0.846330 -0.403790
vt 0.779441 -0.403790
vt 0.846330 -0.393124
vt 0.779441 -0.393124
vt 0.641980 -0.387915
vt 0.641980 -0.399133
vt 0.641980 -0.414456
vt 0.641980 -0.429780
vt 0.641980 -0.440997
vt 1.029740 -0.453771
vt 1.029740 -0.478972
vt 1.052960 -0.476585
vt 1.052960 -0.452393
vt 1.029740 -0.419346
vt 1.052960 -0.386300
vt 1.029740 -0.384921
vt 1.052960 -0.419346
vt 0.677238 -0.419698
vt 0.677238 -0.405060
vt 0.642655 -0.419698
vt 0.677238 -0.434336
vt 0.947053 -0.413644
vt 1.052960 -0.402571
vt 0.947053 -0.409470
vt 0.759141 -0.344330
vt 0.804837 -0.361067
vt 0.802275 -0.344330
vt 0.756579 -0.361067
vt 0.947053 -0.419346
vt 0.947053 -0.425048
vt 1.052960 -0.436122
vt 0.947053 -0.429223
vt 0.616186 -0.383538
vt 0.616186 -0.409660
vt 0.625157 -0.383538
vt 0.625157 -0.409660
vt 0.625157 -0.363322
vt 0.616186 -0.363322
vt 0.747264 -0.395694
vt 0.814153 -0.395694
vt 0.804837 -0.364681
vt 0.756579 -0.364681
vt 0.544717 -0.397963
vt 0.698158 -0.407001
vt 0.698158 -0.397963
vt 0.544717 -0.407001
vt 0.698158 -0.419346
vt 0.544717 -0.419346
vt 0.698158 -0.431692
vt 0.544717 -0.431692
vt 0.698158 -0.440729
vt 0.544717 -0.440729
vt 0.666622 -0.442241
vt 0.659894 -0.442241
vt 0.659894 -0.449914
vt 0.666622 -0.449914
vt 0.664898 -0.457174
vt 0.658917 -0.457174
vt 0.662266 -0.461029
vt 0.657473 -0.461029
vt 0.632506 -0.445052
vt 0.608800 -0.434336
vt 0.608800 -0.445052
vt 0.632506 -0.434336
vt 0.608800 -0.419698
vt 0.632506 -0.419698
vt 0.608800 -0.405060
vt 0.632506 -0.405060
vt 0.608800 -0.394344
vt 0.632506 -0.394344
vt 0.737097 -0.445052
vt 0.677238 -0.445052
vt 0.737097 -0.434336
vt 0.737097 -0.419698
vt 0.737097 -0.405060
vt 0.677238 -0.394344
vt 0.737097 -0.394344
vt 0.616186 -0.360278
vt 0.616186 -0.380494
vt 0.625157 -0.360278
vt 0.625157 -0.380494
vt 0.951614 -0.434670
vt 0.951614 -0.419346
vt 0.951614 -0.404023
vt -0.517917 0.427886
vt -0.525201 0.404805
vt -0.517917 0.404805
vt -0.525201 0.427886
vt -0.514107 0.437163
vt -0.529012 0.437163
vt -0.515955 0.422434
vt -0.527164 0.422434
vt -0.515955 0.406658
vt -0.527164 0.406658
vt -0.515955 0.401207
vt -0.530143 0.351615
vt -0.512976 0.351615
vt -0.527164 0.401207
vt -0.530143 0.342243
vt -0.512976 0.342243
vt -0.560913 0.472703
vt -0.533905 0.471365
vt -0.544280 0.489336
vt -0.521559 0.495424
vt -0.521559 0.474673
vt -0.509214 0.471365
vt -0.498838 0.489336
vt -0.482205 0.472703
vt -0.476117 0.449982
vt -0.500176 0.437636
vt -0.482205 0.427261
vt -0.500176 0.462328
vt -0.546250 0.449982
vt -0.567001 0.449982
vt -0.542942 0.437636
vt -0.542942 0.462328
vt -0.560913 0.427261
vt -0.544280 0.410628
vt -0.533905 0.428599
vt -0.521559 0.404540
vt -0.521559 0.425291
vt -0.509214 0.428599
vt -0.498838 0.410628
vt -0.496868 0.449982
vt -0.514107 0.407734
vt -0.529012 0.396826
vt -0.514107 0.396826
vt -0.529012 0.407734
vt -0.530540 0.351853
vt -0.512578 0.351853
vt -0.530540 0.339567
vt -0.512578 0.339567
vt -0.423248 0.389467
vt -0.461606 0.393287
vt -0.461606 0.376654
vt -0.423248 0.400685
vt -0.461606 0.416009
vt -0.423248 0.416009
vt -0.423248 0.431332
vt -0.461606 0.438730
vt -0.354158 0.416009
vt -0.423248 0.442550
vt -0.461606 0.455363
vt -0.589944 0.455363
vt -0.589944 0.438730
vt -0.589944 0.376654
vt -0.589944 0.393287
vt -0.589944 0.416009
vt -0.639214 0.408556
vt -0.591953 0.408556
vt -0.591953 0.423461
vt -0.639214 0.423461
vt -0.682666 0.423461
vt -0.682666 0.408556
vt -0.688960 0.423461
vt -0.688960 0.408556
vt -0.493211 0.423461
vt -0.536119 0.408556
vt -0.493211 0.408556
vt -0.536119 0.423461
vt -0.665422 0.410404
vt -0.634158 0.410404
vt -0.634158 0.421613
vt -0.665422 0.421613
vt -0.354158 0.431332
vt -0.354158 0.442550
vt -0.354158 0.389467
vt -0.354158 0.400685
vt -0.619871 0.449982
vt -0.581512 0.449982
vt -0.619871 0.465306
vt -0.581512 0.472703
vt -0.619871 0.434658
vt -0.581512 0.427261
vt -0.366281 0.404805
vt -0.365639 0.427886
vt -0.372575 0.401207
vt -0.359345 0.427886
vt -0.453174 0.449982
vt -0.453174 0.472703
vt -0.453174 0.427261
vt -0.360453 0.437163
vt -0.354158 0.437163
vt -0.416027 0.401207
vt -0.445979 0.427886
vt -0.449014 0.402349
vt -0.409091 0.427886
vt -0.423603 0.351615
vt -0.464732 0.354628
vt -0.423429 0.342243
vt -0.466444 0.345531
vt -0.459415 0.342932
vt -0.430459 0.339825
vt -0.543810 0.396826
vt -0.513097 0.396826
vt -0.506999 0.407734
vt -0.549908 0.407734
vt -0.521581 0.351853
vt -0.560847 0.355164
vt -0.523024 0.339567
vt -0.564178 0.343612
vt -0.556642 0.340414
vt -0.530561 0.336593
vt -0.403904 0.437163
vt -0.451165 0.437163
vt -0.408960 0.406658
vt -0.403970 0.422434
vt -0.377697 0.406658
vt -0.372706 0.422434
vt -0.688960 0.465306
vt -0.688960 0.449982
vt -0.688960 0.434658
vt -0.512578 0.355164
vt -0.530540 0.355164
vt -0.530540 0.343612
vt -0.512578 0.343612
vt -0.529012 0.427886
vt -0.529012 0.402349
vt -0.514107 0.427886
vt -0.514107 0.402349
vt -0.530143 0.354628
vt -0.512976 0.354628
vt -0.530143 0.345531
vt -0.512976 0.345531
vt -0.430459 0.424592
vt -0.430459 0.407425
vt -0.423429 0.407425
vt -0.423429 0.424592
vt -0.556642 0.407028
vt -0.530561 0.407028
vt -0.530561 0.424990
vt -0.556642 0.424990
vt -0.564178 0.424990
vt -0.564178 0.407028
vt -0.366281 0.412367
vt -0.372575 0.421613
vt -0.372575 0.410404
vt -0.366281 0.419650
vt -0.459415 0.407425
vt -0.459415 0.424592
vt -0.466444 0.424592
vt -0.466444 0.407425
vt -0.581512 0.455363
vt -0.619871 0.442550
vt -0.581512 0.438730
vt -0.619871 0.431332
vt -0.619871 0.416009
vt -0.581512 0.416009
vt -0.619871 0.400685
vt -0.581512 0.393287
vt -0.523024 0.407028
vt -0.523024 0.424990
vt -0.619871 0.389467
vt -0.581512 0.376654
vt -0.453174 0.438730
vt -0.453174 0.455363
vt -0.453174 0.416009
vt -0.453174 0.393287
vt -0.453174 0.376654
vt -0.416027 0.421613
vt -0.416027 0.410404
vt -0.378669 0.410404
vt -0.403970 0.421613
vt -0.403970 0.410404
vt -0.372706 0.421613
vt -0.688960 0.442550
vt -0.688960 0.431332
vt -0.688960 0.416009
vt -0.688960 0.400685
vt -0.688960 0.389467
vt -0.423248 0.465306
vt -0.461606 0.449982
vt -0.423248 0.449982
vt -0.461606 0.427261
vt -0.423248 0.434658
vt -0.461606 0.472703
vt -0.676837 0.404805
vt -0.677480 0.427886
vt -0.683774 0.427886
vt -0.670543 0.401207
vt -0.589944 0.449982
vt -0.589944 0.427261
vt -0.589944 0.472703
vt -0.682666 0.437163
vt -0.688960 0.437163
vt -0.478940 0.343612
vt -0.520094 0.339567
vt -0.486477 0.340414
vt -0.512558 0.336593
vt -0.597139 0.427886
vt -0.634028 0.427886
vt -0.627091 0.401207
vt -0.594104 0.402349
vt -0.619515 0.351615
vt -0.578387 0.354628
vt -0.619689 0.342243
vt -0.576674 0.345531
vt -0.583704 0.342932
vt -0.612659 0.339825
vt -0.493211 0.407734
vt -0.536119 0.407734
vt -0.530021 0.396826
vt -0.499309 0.396826
vt -0.521537 0.351853
vt -0.482272 0.355164
vt -0.591953 0.437163
vt -0.639214 0.437163
vt -0.634158 0.406658
vt -0.639149 0.422434
vt -0.664449 0.422434
vt -0.665422 0.406658
vt -0.354158 0.434658
vt -0.354158 0.449982
vt -0.354158 0.465306
s 1
usemtl Handle1Mtl.045
f 1/1/1 2/2/2 3/3/3
f 4/4/4 1/1/1 3/3/3
f 2/2/2 5/5/5 3/3/3
f 6/6/6 4/4/4 3/3/3
f 5/5/5 7/7/7 3/3/3
f 8/8/8 6/6/6 3/3/3
f 9/9/9 8/8/8 3/3/3
f 7/7/7 10/10/10 3/3/3
f 11/11/11 9/9/9 3/3/3
f 10/10/10 12/12/12 3/3/3
f 13/13/13 11/11/11 3/3/3
f 12/12/12 13/13/13 3/3/3
f 14/14/14 15/15/15 16/16/16
f 17/17/17 14/14/14 16/16/16
f 15/15/15 18/18/18 16/16/16
f 19/19/19 17/17/17 16/16/16
f 18/18/18 20/20/20 16/16/16
f 21/21/21 19/19/19 16/16/16
f 22/22/22 21/21/21 16/16/16
f 20/20/20 23/23/23 16/16/16
f 24/24/24 22/22/22 16/16/16
f 23/23/23 25/25/25 16/16/16
f 26/26/26 24/24/24 16/16/16
f 25/25/25 26/26/26 16/16/16
f 27/27/27 28/28/27 29/29/27
f 28/28/27 27/27/27 30/30/27
f 28/28/27 30/30/27 31/31/27
f 29/29/27 32/32/27 27/27/27
f 32/32/27 29/29/27 33/33/27
f 34/34/27 27/27/27 32/32/27
f 27/27/27 34/34/27 35/35/27
f 31/31/27 36/36/27 28/28/27
f 37/37/27 36/36/27 31/31/27
f 36/36/27 37/37/27 38/38/27
f 31/31/27 39/39/27 37/37/27
f 39/39/27 31/31/27 40/40/27
f 41/41/27 42/42/28 43/43/28
f 42/42/28 41/41/27 44/44/27
f 45/14/29 46/15/30 47/16/31
f 50/21/32 48/19/33 47/16/27
f 49/20/34 51/23/35 47/16/27
f 53/26/36 52/24/37 47/16/38
f 54/42/28 55/45/39 56/43/28
f 57/46/39 56/43/28 55/45/39
f 57/46/39 55/45/39 58/47/40
f 59/48/40 57/46/39 58/47/40
f 60/49/41 61/50/42 62/51/43
f 62/51/43 63/52/43 60/49/41
f 63/52/43 62/51/43 64/53/43
f 61/50/42 60/49/41 65/54/44
f 66/55/45 65/54/44 60/49/41
f 65/54/44 66/55/45 67/56/4
f 68/57/46 65/54/44 67/56/4
f 65/54/44 68/57/46 69/58/47
f 61/50/42 65/54/44 69/58/47
f 69/58/47 70/59/48 61/50/42
f 71/60/49 70/59/48 69/58/47
f 70/59/48 71/60/49 72/61/48
f 73/62/50 74/63/51 75/64/51
f 74/63/51 73/62/50 76/65/52
f 77/66/53 76/65/52 73/62/50
f 77/66/54 78/67/55 79/68/54
f 82/69/56 80/70/57 81/71/27
f 83/72/58 82/69/56 81/71/27
f 84/73/59 85/74/60 86/75/59
f 85/74/60 84/73/59 87/67/55
f 87/67/55 88/66/61 85/74/60
f 89/65/52 88/66/54 90/68/54
f 91/76/62 92/77/62 93/78/63
f 91/76/62 93/78/63 94/79/63
f 94/79/63 93/78/63 95/80/64
f 96/81/64 95/80/64 93/78/63
f 97/82/65 98/83/66 99/84/66
f 99/84/66 98/83/66 100/85/66
f 101/86/67 102/87/67 103/88/67
f 102/87/67 104/89/68 103/88/67
f 105/90/69 106/91/69 107/68/70
f 107/68/71 108/92/72 109/93/72
f 108/92/72 110/94/73 109/93/72
f 111/95/74 112/96/74 113/97/74
f 112/96/74 111/95/74 114/98/74
f 115/99/75 116/100/75 117/101/75
f 118/102/75 117/101/75 116/100/75
f 119/89/68 120/103/63 121/88/76
f 121/88/76 120/103/63 122/104/63
f 122/104/63 120/103/63 123/84/65
f 120/103/63 124/82/65 123/84/65
f 125/105/77 126/91/78 127/90/78
f 128/106/79 129/68/80 126/91/69
f 130/92/81 129/68/80 128/106/79
f 131/107/82 132/108/83 133/109/84
f 134/110/84 133/109/84 132/108/83
f 133/109/84 134/110/84 135/111/85
f 136/112/85 135/111/85 134/110/84
f 137/113/86 138/114/86 139/115/84
f 138/114/86 140/116/84 139/115/84
f 139/115/84 140/116/84 141/117/87
f 140/116/84 142/118/88 141/117/87
f 143/72/89 144/119/89 145/69/84
f 146/120/84 145/69/84 144/119/89
f 145/69/84 146/120/84 147/70/87
f 148/121/88 147/70/87 146/120/84
f 149/62/90 150/122/91 151/123/90
f 152/64/91 150/122/91 149/62/90
f 153/66/92 151/123/93 154/124/94
f 155/125/95 153/66/92 154/124/94
f 158/74/95 156/126/96 157/75/96
f 156/126/96 158/74/95 159/125/97
f 160/66/98 159/125/97 158/74/95
f 161/123/93 160/66/92 162/62/93
f 165/127/99 164/128/51 163/129/100
f 166/130/101 165/127/102 167/131/103
f 165/127/102 166/130/101 168/132/104
f 169/133/105 168/132/104 166/130/101
f 170/134/106 172/135/107 171/136/3
f 172/135/107 173/137/108 171/136/3
f 174/132/104 175/133/105 176/138/105
f 177/131/103 178/127/99 179/129/51
f 182/139/73 181/140/109 180/141/72
f 182/139/73 183/131/110 181/140/109
f 183/131/110 184/142/111 185/143/112
f 186/144/113 185/143/112 184/142/111
f 187/145/114 188/146/114 189/147/114
f 187/145/114 189/147/114 190/148/114
f 191/131/115 192/139/109 193/149/116
f 194/142/112 191/131/115 193/149/116
f 195/150/117 196/151/117 197/152/117
f 197/152/117 196/151/117 198/153/117
f 196/151/117 199/154/117 198/153/117
f 198/153/117 199/154/117 200/155/117
f 201/156/117 202/157/117 203/158/117
f 202/157/117 201/156/117 204/159/117
f 205/160/118 206/161/119 207/162/118
f 206/161/119 205/160/118 208/163/119
f 207/162/118 209/164/117 205/160/118
f 209/164/117 207/162/118 210/165/117
f 210/165/117 211/166/120 209/164/117
f 211/166/120 210/165/117 212/167/121
f 212/167/121 213/168/122 211/166/120
f 213/168/122 212/167/121 214/169/122
f 215/170/117 216/171/117 217/172/117
f 215/170/117 217/172/117 218/173/117
f 216/171/117 215/170/117 219/174/117
f 219/174/117 220/175/117 216/171/117
f 220/175/117 219/174/117 221/176/117
f 221/176/117 222/177/117 220/175/117
f 223/178/123 224/179/124 225/180/123
f 224/179/124 223/178/123 226/181/124
f 225/180/123 227/182/117 223/178/123
f 227/182/117 225/180/123 228/183/117
f 228/183/117 229/184/121 227/182/117
f 229/184/121 228/183/117 230/185/120
f 230/185/120 231/186/122 229/184/121
f 231/186/122 230/185/120 232/187/125
f 233/134/123 234/188/126 235/189/123
f 234/188/126 233/134/123 236/190/126
f 235/189/123 237/135/117 233/134/123
f 237/135/117 235/189/123 238/191/117
f 238/191/117 239/137/120 237/135/117
f 239/137/120 238/191/117 240/192/120
f 240/192/120 241/193/122 239/137/120
f 241/193/122 240/192/120 242/194/122
f 243/195/117 244/196/117 245/197/117
f 245/197/117 244/196/117 246/198/117
f 247/199/127 248/127/128 249/200/128
f 248/127/128 247/199/127 250/128/127
f 251/132/129 252/201/129 248/127/128
f 253/138/130 252/201/129 251/132/129
f 254/200/131 255/127/131 256/201/129
f 257/202/132 258/203/132 259/204/132
f 258/203/132 257/202/132 260/205/132
f 261/206/132 259/204/132 258/203/132
f 262/207/132 261/206/132 258/203/132
f 263/208/132 261/206/132 262/207/132
f 261/206/132 263/208/132 264/209/132
f 265/210/132 264/209/132 263/208/132
f 266/211/132 265/210/132 267/212/132
f 268/213/132 266/211/132 267/212/132
f 260/205/132 269/214/132 270/215/132
f 269/214/132 271/216/132 270/215/132
f 272/217/132 268/213/132 273/218/132
f 273/218/132 274/219/132 272/217/132
f 274/219/132 273/218/132 275/220/132
f 276/221/132 274/219/132 275/220/132
f 271/216/132 277/222/132 276/221/132
f 274/219/132 276/221/132 278/223/132
f 277/222/132 278/223/132 276/221/132
f 279/209/132 280/210/132 281/224/132
f 281/224/132 280/210/132 282/211/132
f 282/211/132 283/213/132 284/225/132
f 283/213/132 285/217/132 284/225/132
f 286/216/132 287/214/132 288/222/132
f 287/214/132 289/205/132 290/202/132
f 291/226/132 292/227/132 293/3/132
f 294/228/132 291/226/132 293/3/132
f 292/227/132 295/229/132 293/3/132
f 296/230/132 294/228/132 293/3/132
f 295/229/132 297/231/132 293/3/132
f 298/232/132 296/230/132 293/3/132
f 299/233/132 298/232/132 293/3/132
f 297/231/132 300/234/132 293/3/132
f 301/235/132 299/233/132 293/3/132
f 300/234/132 302/236/132 293/3/132
f 303/237/132 301/235/132 293/3/132
f 302/236/132 303/237/132 293/3/132
f 304/58/133 305/59/134 306/50/135
f 307/60/136 305/59/134 304/58/133
f 305/59/134 307/60/136 308/61/134
f 304/58/133 306/50/135 309/54/137
f 309/54/137 310/57/138 304/58/133
f 310/57/138 309/54/137 311/56/139
f 311/56/139 309/54/137 312/55/140
f 313/49/141 312/55/140 309/54/137
f 309/54/137 306/50/135 313/49/141
f 314/51/142 313/49/141 306/50/135
f 314/51/142 315/52/143 313/49/141
f 315/52/143 314/51/142 316/53/142
f 317/45/144 318/43/145 319/42/145
f 318/43/145 317/45/144 320/46/144
f 321/47/146 320/46/144 317/45/144
f 320/46/144 321/47/146 322/48/147
f 323/43/145 324/41/132 325/42/145
f 326/44/132 325/42/145 324/41/132
f 327/21/148 328/19/149 329/16/150
f 330/22/151 327/21/148 329/16/150
f 328/19/149 331/17/152 329/16/150
f 332/24/153 330/22/151 329/16/150
f 331/17/152 333/14/154 329/16/150
f 334/26/155 332/24/153 329/16/150
f 335/25/156 334/26/155 329/16/150
f 333/14/154 336/15/157 329/16/150
f 337/23/158 335/25/156 329/16/150
f 336/15/157 338/18/159 329/16/150
f 339/20/160 337/23/158 329/16/150
f 338/18/159 339/20/160 329/16/150
f 340/31/132 341/36/132 342/28/132
f 343/37/132 341/36/132 340/31/132
f 341/36/132 343/37/132 344/38/132
f 340/31/132 345/39/132 343/37/132
f 345/39/132 340/31/132 346/40/132
f 340/31/132 342/28/132 347/30/132
f 347/30/132 342/28/132 348/27/132
f 349/29/132 348/27/132 342/28/132
f 349/29/132 350/32/132 348/27/132
f 350/32/132 349/29/132 351/33/132
f 348/27/132 350/32/132 352/34/132
f 353/35/132 348/27/132 352/34/132
f 355/238/161 356/239/105 354/240/105
f 357/241/161 355/238/161 354/240/105
f 358/242/162 355/238/161 357/241/161
f 359/238/163 360/242/162 361/243/162
f 363/244/164 364/245/165 362/246/166
f 364/245/165 365/247/167 362/246/166
f 366/248/168 367/249/168 368/250/168
f 366/248/168 368/250/168 369/251/168
f 371/241/169 370/252/170 372/253/169
f 373/254/171 374/255/172 375/256/173
f 376/241/174 373/254/171 375/256/173
f 373/254/171 376/241/174 377/253/174
f 378/252/113 376/241/174 379/257/113
f 380/258/111 378/252/113 379/257/113
f 382/259/175 383/260/176 381/261/177
f 383/260/176 382/259/175 384/262/176
f 384/262/176 385/263/178 383/260/176
f 385/263/178 384/262/176 386/264/179
f 388/265/177 389/266/176 387/267/177
f 389/266/176 388/265/177 390/268/176
f 390/268/176 391/269/180 389/266/176
f 391/269/180 390/268/176 392/270/180
f 393/271/168 394/272/181 395/273/181
f 396/274/181 395/273/181 394/272/181
f 395/273/181 396/274/181 397/275/181
f 394/272/181 393/271/168 398/276/168
f 399/277/182 398/276/168 393/271/168
f 398/276/168 399/277/182 400/278/183
f 401/279/184 400/278/183 399/277/182
f 400/278/183 401/279/184 402/280/185
f 404/281/186 405/245/176 403/244/177
f 405/245/176 404/281/186 406/282/176
f 406/282/176 407/247/178 405/245/176
f 407/247/178 406/282/176 408/283/178
f 409/284/187 410/285/187 411/286/168
f 412/287/187 410/285/187 409/284/187
f 412/287/187 413/288/187 410/285/187
f 409/284/187 411/286/168 414/289/168
f 414/289/168 411/286/168 415/290/188
f 414/289/168 415/290/188 416/291/188
f 416/291/188 415/290/188 417/292/188
f 416/291/188 417/292/188 418/293/188
f 419/294/189 420/239/190 421/295/191
f 422/238/192 421/295/191 420/239/190
f 421/295/191 422/238/192 423/296/193
f 423/296/193 422/238/192 424/297/194
f 425/243/194 424/297/194 422/238/192
f 426/297/195 427/243/195 428/298/196
f 430/299/197 431/300/162 429/301/162
f 432/302/197 430/299/197 429/301/162
f 433/303/198 430/299/197 432/302/197
f 433/303/199 434/304/200 435/305/59
f 434/304/200 433/303/199 436/306/201
f 439/307/202 438/308/203 437/309/38
f 440/310/204 439/307/202 437/309/38
f 441/306/199 442/303/199 443/302/205
f 446/311/172 445/312/172 444/313/173
f 447/314/206 448/315/206 449/316/206
f 448/315/206 447/314/206 450/317/206
f 451/311/207 452/306/208 453/312/207
f 452/306/208 451/311/207 454/318/208
f 455/306/208 456/319/77 457/320/209
f 456/319/77 455/306/208 458/318/208
f 459/321/78 457/320/209 456/319/77
f 460/322/210 461/323/210 462/324/210
f 462/324/210 461/323/210 463/325/210
f 464/326/210 460/322/210 462/324/210
f 465/327/210 460/322/210 464/326/210
f 466/328/210 467/329/210 468/330/210
f 466/328/210 468/330/210 469/331/210
f 471/332/211 472/333/212 470/334/213
f 472/333/212 471/332/211 473/335/212
f 473/335/212 474/336/210 472/333/212
f 474/336/210 473/335/212 475/337/210
f 475/337/210 477/338/214 474/336/210
f 477/338/214 475/337/210 479/339/214
f 478/340/215 479/339/214 476/341/215
f 479/339/214 478/340/215 477/338/214
f 480/342/210 481/343/210 482/344/210
f 480/342/210 482/344/210 483/345/210
f 484/344/210 485/346/210 486/345/210
f 485/346/210 484/344/210 487/347/210
f 487/347/210 488/348/210 485/346/210
f 488/348/210 487/347/210 489/349/210
f 491/350/216 492/351/217 490/352/216
f 492/351/217 491/350/216 493/353/218
f 493/353/218 494/354/210 492/351/217
f 494/354/210 493/353/218 495/355/210
f 495/355/210 496/356/219 494/354/210
f 496/356/219 495/355/210 497/357/219
f 497/357/219 498/358/213 496/356/219
f 498/358/213 497/357/219 499/359/213
f 501/360/215 502/310/214 500/361/215
f 502/310/214 501/360/215 503/362/218
f 503/362/218 504/307/210 502/310/214
f 504/307/210 503/362/218 505/363/210
f 505/363/210 506/308/220 504/307/210
f 506/308/220 505/363/210 507/364/219
f 507/364/219 508/365/221 506/308/220
f 508/365/221 507/364/219 509/366/221
f 510/367/210 511/368/210 512/369/210
f 512/369/210 511/368/210 513/370/210
f 515/299/196 516/371/196 514/300/195
f 516/371/222 517/303/223 518/372/223
f 520/303/224 519/371/222 521/299/222
f 522/372/224 520/303/224 523/373/225
f 524/305/225 523/373/225 520/303/224
usemtl Graypart1Mtl
f 525/374/226 526/375/226 527/376/226
f 526/375/226 525/374/226 528/377/226
f 529/378/227 530/377/227 531/374/228
f 529/378/227 532/379/227 530/377/227
f 533/380/229 534/381/229 535/382/229
f 535/382/229 534/381/229 536/383/229
f 537/384/230 538/385/231 539/386/231
f 538/385/231 537/384/230 540/387/230
f 541/388/232 539/386/231 538/385/231
f 539/386/231 541/388/232 542/389/232
f 543/390/233 544/391/234 545/392/234
f 545/392/234 544/391/234 546/393/235
f 546/393/235 544/391/234 547/394/235
f 548/395/236 546/393/235 547/394/235
f 546/393/235 548/395/236 549/396/236
f 548/395/236 550/397/237 549/396/236
f 551/398/238 552/399/239 553/400/239
f 554/401/237 551/398/238 555/397/237
f 555/397/237 556/395/240 554/401/237
f 557/402/241 558/403/241 559/404/242
f 560/391/234 561/390/243 562/405/243
f 563/403/244 562/405/243 561/390/243
f 562/405/243 563/403/244 564/402/244
f 563/403/244 565/406/245 566/404/242
f 567/407/246 566/404/242 565/406/245
f 566/404/242 567/407/246 568/408/247
f 568/408/246 569/409/248 570/410/248
f 569/409/248 571/411/249 570/410/248
f 572/409/250 573/408/246 574/407/251
f 575/411/252 572/409/248 576/412/252
f 575/411/252 576/412/252 577/399/239
f 576/412/252 578/400/239 577/399/239
f 577/399/239 579/398/238 580/413/238
f 579/398/238 581/401/237 580/413/238
f 582/414/253 583/415/253 584/416/254
f 583/415/253 582/414/253 585/417/227
f 586/416/255 587/418/256 588/419/256
f 587/418/256 586/416/255 589/415/255
f 590/420/257 588/419/256 587/418/256
f 588/419/256 590/420/257 591/421/258
f 592/422/259 593/423/260 594/424/259
f 595/425/261 596/426/262 593/423/261
f 596/426/262 595/425/261 597/427/262
f 598/428/263 596/426/262 597/427/262
f 596/426/262 598/428/263 599/429/264
f 601/423/265 600/422/259 602/425/265
f 603/425/85 604/430/63 605/427/63
f 606/429/266 607/431/267 608/432/267
f 607/431/267 606/429/266 609/428/266
f 610/432/268 611/433/268 612/429/126
f 613/434/126 612/429/126 611/433/268
f 614/435/220 615/424/220 616/436/89
f 617/423/269 616/436/89 615/424/220
f 616/436/89 617/423/269 618/437/63
f 619/426/63 618/437/63 617/423/269
f 618/437/63 619/426/63 620/434/87
f 621/429/87 620/434/87 619/426/63
f 622/438/63 623/439/63 624/440/63
f 622/438/63 624/440/63 625/441/63
f 625/441/63 626/442/63 622/438/63
f 627/443/63 622/438/63 626/442/63
f 627/443/63 626/442/63 628/444/63
f 628/444/63 629/445/63 627/443/63
f 630/446/63 631/447/63 632/448/63
f 631/447/63 630/446/63 633/449/63
f 634/450/63 635/451/63 636/452/63
f 634/450/63 636/452/63 637/453/63
f 638/454/119 639/431/268 640/428/82
f 641/427/63 638/454/119 640/428/82
f 638/454/119 641/427/63 642/430/63
f 639/431/268 638/454/119 643/455/268
f 645/456/220 646/425/213 644/422/220
f 646/425/213 645/456/220 647/457/86
f 642/430/63 646/425/213 647/457/86
f 648/458/270 649/459/271 650/460/272
f 652/461/272 651/460/272 653/459/270
f 654/462/273 653/459/270 655/458/274
f 653/459/270 654/462/273 656/463/273
f 657/464/275 658/465/276 659/466/276
f 658/465/276 657/464/275 660/467/275
f 661/461/123 663/468/117 662/469/123
f 663/468/117 661/461/123 664/459/117
f 664/459/117 665/470/277 663/468/117
f 665/470/277 664/459/117 666/463/278
f 667/465/279 668/467/280 669/471/280
f 669/471/280 668/467/280 670/472/280
f 671/473/281 672/474/282 673/475/283
f 672/474/282 671/473/281 674/476/282
f 673/475/283 675/477/284 671/473/281
f 675/477/284 673/475/283 676/478/284
f 676/478/284 677/479/117 675/477/284
f 677/479/117 676/478/284 678/480/117
f 677/479/117 678/480/117 679/481/285
f 677/479/117 679/481/285 680/482/117
f 681/483/117 682/484/117 683/485/117
f 681/483/117 683/485/117 684/486/117
f 685/487/286 686/483/287 687/488/286
f 686/483/287 685/487/286 688/484/287
f 687/488/286 689/489/117 685/487/286
f 689/489/117 687/488/286 690/490/117
f 689/489/117 690/490/117 691/491/117
f 689/489/117 691/491/117 692/492/117
f 693/474/288 694/476/288 695/493/288
f 693/474/288 695/493/288 696/494/288
f 697/476/117 698/473/289 699/495/290
f 697/476/117 699/495/290 700/496/117
f 701/466/117 702/495/117 703/473/117
f 702/495/117 701/466/117 704/497/117
f 705/466/117 706/465/285 707/498/291
f 705/466/117 707/498/291 708/497/117
f 709/476/117 710/498/117 711/465/117
f 710/498/117 709/476/117 712/496/117
f 713/476/292 714/465/292 715/493/292
f 715/493/292 714/465/292 716/471/292
f 717/460/123 718/499/123 719/458/117
f 720/500/117 719/458/117 718/499/123
f 719/458/117 720/500/117 721/462/120
f 722/501/120 721/462/120 720/500/117
f 723/417/293 724/415/294 725/414/294
f 724/415/294 726/416/295 725/414/294
f 727/502/296 728/416/297 729/503/296
f 730/415/298 729/503/296 728/416/297
f 729/503/296 731/504/299 727/502/296
f 731/504/299 732/505/299 727/502/296
f 733/506/300 734/507/301 735/508/300
f 734/507/301 736/509/301 735/508/300
f 734/507/301 737/510/302 736/509/301
f 738/511/302 736/509/301 737/510/302
f 738/511/302 737/510/302 739/512/303
f 739/512/303 740/513/304 738/511/302
f 741/379/295 742/506/295 743/378/295
f 742/506/295 744/508/305 743/378/295
f 745/383/306 746/382/306 747/381/306
f 747/381/306 746/382/306 748/380/307
f 749/514/308 750/515/308 751/516/309
f 751/516/309 752/517/310 749/514/308
f 753/518/174 754/519/311 755/520/312
f 753/518/174 755/520/312 756/521/174
f 757/522/313 753/518/174 756/521/174
f 753/518/174 757/522/313 758/523/299
f 759/524/314 760/525/315 761/526/314
f 760/525/315 759/524/314 762/527/314
f 763/528/316 764/515/317 765/514/317
f 763/528/316 765/514/317 766/529/316
f 767/530/318 763/528/316 766/529/316
f 763/528/316 767/530/318 768/531/318
f 770/532/319 769/533/320 771/534/321
f 772/535/321 771/534/321 769/533/320
f 773/536/322 774/537/323 772/535/324
f 775/538/325 774/537/323 773/536/322
f 774/537/323 775/538/325 776/539/325
f 777/520/326 778/519/326 779/540/258
f 779/540/258 780/541/258 777/520/326
f 781/542/327 782/539/328 783/538/328
f 782/539/328 781/542/327 784/543/329
f 785/534/324 786/535/330 787/537/331
f 789/532/121 790/544/177 788/545/121
f 790/544/177 789/532/121 791/534/177
f 791/534/177 792/546/168 790/544/177
f 792/546/168 791/534/177 793/537/168
f 793/537/168 794/547/216 792/546/168
f 794/547/216 793/537/168 795/539/216
f 795/539/216 796/548/214 794/547/216
f 796/548/214 795/539/216 797/543/214
f 798/526/168 799/549/168 800/550/168
f 799/549/168 798/526/168 801/525/168
f 802/551/168 803/552/168 804/553/168
f 803/552/168 802/551/168 805/554/168
f 806/533/121 807/555/121 808/535/332
f 809/556/332 808/535/332 807/555/121
f 808/535/332 809/556/332 810/536/176
f 811/557/176 810/536/176 809/556/332
f 810/536/176 811/557/176 812/538/333
f 813/558/216 812/538/333 811/557/176
f 812/538/333 813/558/216 814/542/214
f 815/559/214 814/542/214 813/558/216
f 816/560/334 817/561/335 818/562/335
f 819/563/336 820/564/336 821/561/337
f 822/562/337 821/561/337 820/564/336
f 821/561/337 823/560/338 824/565/334
f 825/566/339 826/567/339 827/568/340
f 826/567/339 825/566/339 828/569/340
f 830/563/341 831/570/210 829/571/217
f 831/570/210 830/563/341 832/561/210
f 832/561/210 833/572/219 831/570/210
f 833/572/219 832/561/210 834/565/219
f 835/568/342 836/573/342 837/574/342
f 836/573/342 835/568/342 838/567/342
f 839/575/210 840/576/210 841/577/210
f 841/577/210 840/576/210 842/578/210
f 843/579/343 844/580/343 845/581/344
f 843/579/343 845/581/344 846/582/345
f 845/581/344 847/583/346 846/582/345
f 847/583/346 848/584/346 846/582/345
f 848/584/346 847/583/346 849/585/210
f 848/584/346 849/585/210 850/586/210
f 851/586/210 852/585/210 853/587/210
f 853/587/210 852/585/210 854/588/210
f 855/589/210 856/590/210 857/591/210
f 855/589/210 857/591/210 858/592/210
f 859/591/347 860/593/348 861/592/347
f 860/593/348 862/594/348 861/592/347
f 862/594/348 860/593/348 863/576/210
f 863/576/210 864/575/210 862/594/348
f 865/595/349 866/596/349 867/580/349
f 865/595/349 867/580/349 868/579/350
f 869/580/351 870/597/210 871/581/210
f 870/597/210 869/580/351 872/598/352
f 873/580/210 874/567/210 875/599/210
f 873/580/210 875/599/210 876/598/210
f 877/599/210 878/567/210 879/600/210
f 878/567/210 880/569/210 879/600/210
f 881/569/210 882/581/210 883/597/210
f 881/569/210 883/597/210 884/600/210
f 885/567/353 886/596/354 887/573/353
f 886/596/354 885/567/353 888/580/354
f 889/564/218 890/601/218 891/562/210
f 892/602/210 891/562/210 890/601/218
f 891/562/210 892/602/210 893/560/219
f 894/603/219 893/560/219 892/602/210
