# Blender 5.1.2
# www.blender.org
mtllib Servo.mtl
o Servo
v 0.065439 -0.017673 0.013340
v 0.065439 0.004877 0.020241
v 0.065439 -0.004873 0.020241
v 0.065439 -0.000003 0.020741
v 0.065439 -0.013893 0.016541
v 0.065439 -0.009563 0.018841
v 0.065439 -0.023093 0.005241
v 0.065439 -0.020783 0.009640
v 0.065439 -0.023093 -0.013859
v 0.065439 -0.024523 0.000542
v 0.065439 -0.025003 -0.004257
v 0.065439 -0.024523 -0.009159
v 0.065439 -0.000003 -0.029259
v 0.065439 -0.017673 -0.021957
v 0.065439 -0.020783 -0.018158
v 0.065439 -0.013893 -0.025059
v 0.065439 -0.004873 -0.028759
v 0.065439 -0.009563 -0.027359
v 0.065439 0.009567 -0.027359
v 0.065439 0.004877 -0.028759
v 0.065439 0.024997 -0.004257
v 0.065439 0.013887 0.016541
v 0.065439 0.009567 0.018841
v 0.065439 0.017677 -0.021957
v 0.065439 0.013887 -0.025059
v 0.065439 0.020787 -0.018158
v 0.065439 0.023097 -0.013859
v 0.065439 0.024517 -0.009159
v 0.065439 0.023097 0.005241
v 0.065439 0.024517 0.000542
v 0.065439 0.017677 0.013340
v 0.065439 0.020787 0.009640
v 0.015438 0.017677 -0.021957
v 0.065439 0.017677 -0.021957
v 0.015438 0.020787 -0.018158
v 0.065439 0.020787 -0.018158
v 0.015438 0.023097 -0.013859
v 0.065439 0.023097 -0.013859
v 0.015438 0.024517 -0.009159
v 0.065439 0.024517 -0.009159
v 0.015438 0.024997 -0.004257
v 0.065439 0.024997 -0.004257
v 0.015438 0.024517 0.000542
v 0.065439 0.024517 0.000542
v 0.015438 0.023097 0.005241
v 0.065439 0.023097 0.005241
v 0.015438 0.020787 0.009640
v 0.065439 0.020787 0.009640
v 0.015438 0.017677 0.013340
v 0.065439 0.017677 0.013340
v 0.015438 0.005727 -0.010059
v 0.028938 0.006767 -0.011059
v 0.028938 0.007967 -0.009659
v 0.015438 0.006727 -0.008759
v 0.028938 0.008847 -0.007957
v 0.015438 0.007477 -0.007359
v 0.028938 0.009397 -0.006157
v 0.015438 0.007937 -0.005859
v 0.028938 0.009577 -0.004257
v 0.015438 0.008097 -0.004257
v 0.015438 0.007937 -0.002659
v 0.028938 0.009397 -0.002460
v 0.015438 0.007477 -0.001160
v 0.028938 0.008847 -0.000660
v 0.015438 0.006727 0.000240
v 0.028938 0.007967 0.001041
v 0.015438 0.005727 0.001442
v 0.028938 0.006767 0.002441
v 0.028938 -0.013973 -0.018257
v 0.015438 -0.013973 0.009640
v 0.028938 -0.013973 0.009640
v 0.015438 -0.016433 0.006641
v 0.028938 -0.016433 0.006641
v 0.015438 -0.018263 0.003242
v 0.028938 -0.018263 0.003242
v 0.015438 -0.019383 -0.000458
v 0.028938 -0.019383 -0.000458
v 0.015438 -0.019763 -0.004257
v 0.028938 -0.019763 -0.004257
v 0.015438 -0.019383 -0.008160
v 0.028938 -0.019383 -0.008160
v 0.015438 -0.018263 -0.011860
v 0.028938 -0.018263 -0.011860
v 0.015438 -0.016433 -0.015259
v 0.028938 -0.016433 -0.015259
v 0.015438 -0.013973 -0.018257
v 0.015438 -0.000003 0.020741
v 0.065439 -0.004873 0.020241
v 0.065439 -0.000003 0.020741
v 0.015438 -0.004873 0.020241
v 0.065439 -0.009563 0.018841
v 0.015438 -0.009563 0.018841
v 0.065439 -0.013893 0.016541
v 0.015438 -0.013893 0.016541
v 0.065439 -0.017673 0.013340
v 0.015438 -0.017673 0.013340
v 0.015438 0.017677 0.013340
v 0.065439 0.017677 0.013340
v 0.065439 0.013887 0.016541
v 0.015438 0.013887 0.016541
v 0.065439 0.009567 0.018841
v 0.015438 0.009567 0.018841
v 0.065439 0.004877 0.020241
v 0.015438 0.004877 0.020241
v 0.065439 -0.000003 0.020741
v 0.015438 -0.000003 0.020741
v 0.015438 -0.005723 0.001442
v 0.028938 -0.006773 0.002441
v 0.028938 -0.005323 0.003643
v 0.015438 -0.004493 0.002441
v 0.028938 -0.003663 0.004539
v 0.015438 -0.003093 0.003139
v 0.028938 -0.001873 0.005142
v 0.015438 -0.001583 0.003643
v 0.028938 -0.000003 0.005241
v 0.015438 -0.000003 0.003841
v 0.015438 0.005727 0.001442
v 0.028938 0.006767 0.002441
v 0.028938 0.005317 0.003643
v 0.015438 0.004497 0.002441
v 0.028938 0.003667 0.004539
v 0.015438 0.003097 0.003139
v 0.028938 0.001867 0.005142
v 0.015438 0.001577 0.003643
v 0.028938 -0.000003 0.005241
v 0.015438 -0.000003 0.003841
v 0.028938 -0.010983 -0.020760
v 0.015438 -0.010983 -0.020760
v 0.028938 -0.013973 -0.018257
v 0.015438 -0.007563 -0.022560
v 0.028938 -0.007563 -0.022560
v 0.015438 -0.003853 -0.023659
v 0.028938 -0.003853 -0.023659
v 0.015438 -0.000003 -0.024059
v 0.028938 -0.000003 -0.024059
v 0.015438 0.003857 -0.023659
v 0.028938 0.003857 -0.023659
v 0.015438 0.007567 -0.022560
v 0.028938 0.007567 -0.022560
v 0.015438 0.010977 -0.020760
v 0.028938 0.010977 -0.020760
v 0.015438 0.013977 -0.018257
v 0.028938 0.013977 -0.018257
v 0.015438 -0.013973 -0.018257
v 0.015438 -0.003853 0.015141
v 0.015438 -0.009563 0.018841
v 0.015438 -0.004873 0.020241
v 0.015438 -0.000003 0.015442
v 0.015438 -0.000003 0.020741
v 0.015438 -0.007563 0.013943
v 0.015438 -0.010983 0.012142
v 0.015438 -0.013893 0.016541
v 0.015438 -0.013973 0.009640
v 0.015438 -0.017673 0.013340
v 0.015438 -0.016433 0.006641
v 0.015438 -0.020783 0.009640
v 0.015438 -0.018263 0.003242
v 0.015438 -0.023093 0.005241
v 0.015438 -0.019383 -0.000458
v 0.015438 -0.024523 0.000542
v 0.015438 -0.019763 -0.004257
v 0.015438 -0.025003 -0.004257
v 0.015438 -0.019383 -0.008160
v 0.015438 -0.024523 -0.009159
v 0.015438 -0.018263 -0.011860
v 0.015438 -0.023093 -0.013859
v 0.015438 -0.016433 -0.015259
v 0.015438 -0.020783 -0.018158
v 0.015438 -0.013973 -0.018257
v 0.015438 -0.017673 -0.021957
v 0.015438 -0.013893 -0.025059
v 0.015438 -0.010983 -0.020760
v 0.015438 -0.007563 -0.022560
v 0.015438 -0.009563 -0.027359
v 0.015438 -0.004873 -0.028759
v 0.015438 -0.003853 -0.023659
v 0.015438 -0.000003 -0.029259
v 0.015438 -0.000003 -0.024059
v 0.015438 0.003857 -0.023659
v 0.015438 0.004877 -0.028759
v 0.015438 0.007567 -0.022560
v 0.015438 0.009567 -0.027359
v 0.015438 0.010977 -0.020760
v 0.015438 0.013887 -0.025059
v 0.015438 0.013977 -0.018257
v 0.015438 0.017677 -0.021957
v 0.015438 0.020787 -0.018158
v 0.015438 0.016437 -0.015259
v 0.015438 0.018257 -0.011860
v 0.015438 0.023097 -0.013859
v 0.015438 0.024517 -0.009159
v 0.015438 0.019387 -0.008160
v 0.015438 0.024997 -0.004257
v 0.015438 0.019767 -0.004257
v 0.015438 0.019387 -0.000458
v 0.015438 0.024517 0.000542
v 0.015438 0.023097 0.005241
v 0.015438 0.018257 0.003242
v 0.015438 0.020787 0.009640
v 0.015438 0.016437 0.006641
v 0.015438 0.017677 0.013340
v 0.015438 0.013977 0.009640
v 0.015438 0.013887 0.016541
v 0.015438 0.010977 0.012142
v 0.015438 0.009567 0.018841
v 0.015438 0.007567 0.013943
v 0.015438 0.004877 0.020241
v 0.015438 0.003857 0.015141
v 0.015438 -0.000003 0.020741
v 0.015438 -0.000003 0.015442
v 0.015438 -0.007473 -0.001160
v 0.015438 -0.003093 0.003139
v 0.015438 -0.000003 -0.012360
v 0.015438 -0.004493 0.002441
v 0.015438 -0.005723 0.001442
v 0.015438 -0.006733 0.000240
v 0.015438 -0.000003 0.003841
v 0.015438 -0.001583 0.003643
v 0.015438 -0.004493 -0.011059
v 0.015438 -0.007933 -0.002659
v 0.015438 -0.008093 -0.004257
v 0.015438 -0.001583 -0.012260
v 0.015438 -0.003093 -0.011757
v 0.015438 -0.007473 -0.007359
v 0.015438 -0.007933 -0.005859
v 0.015438 -0.006733 -0.008759
v 0.015438 -0.005723 -0.010059
v 0.015438 0.008097 -0.004257
v 0.015438 0.006727 0.000240
v 0.015438 0.007937 -0.002659
v 0.015438 0.007477 -0.001160
v 0.015438 0.005727 0.001442
v 0.015438 0.001577 0.003643
v 0.015438 0.003097 0.003139
v 0.015438 0.004497 0.002441
v 0.015438 0.007477 -0.007359
v 0.015438 0.007937 -0.005859
v 0.015438 0.001577 -0.012260
v 0.015438 0.005727 -0.010059
v 0.015438 0.006727 -0.008759
v 0.015438 0.003097 -0.011757
v 0.015438 0.004497 -0.011059
v 0.028938 -0.018263 0.003242
v 0.028938 -0.009393 -0.002460
v 0.028938 -0.019383 -0.000458
v 0.028938 -0.008843 -0.000660
v 0.028938 -0.009573 -0.004257
v 0.028938 -0.007963 0.001041
v 0.028938 -0.019763 -0.004257
v 0.028938 -0.016433 0.006641
v 0.028938 -0.009393 -0.006157
v 0.028938 -0.013973 0.009640
v 0.028938 -0.019383 -0.008160
v 0.028938 -0.006773 0.002441
v 0.028938 -0.008843 -0.007957
v 0.028938 -0.010983 0.012142
v 0.028938 -0.018263 -0.011860
v 0.028938 -0.005323 0.003643
v 0.028938 -0.007963 -0.009659
v 0.028938 -0.016433 -0.015259
v 0.028938 -0.007563 0.013943
v 0.028938 -0.003663 0.004539
v 0.028938 -0.001873 0.005142
v 0.028938 -0.006773 -0.011059
v 0.028938 -0.003853 0.015141
v 0.028938 -0.000003 0.005241
v 0.028938 -0.000003 0.015442
v 0.028938 -0.013973 -0.018257
v 0.028938 -0.010983 -0.020760
v 0.028938 -0.005323 -0.012260
v 0.028938 -0.003663 -0.013157
v 0.028938 -0.007563 -0.022560
v 0.028938 -0.003853 -0.023659
v 0.028938 -0.001873 -0.013660
v 0.028938 -0.000003 -0.024059
v 0.028938 -0.000003 -0.013859
v 0.028938 0.001867 -0.013660
v 0.028938 0.003857 -0.023659
v 0.028938 0.003667 -0.013157
v 0.028938 0.007567 -0.022560
v 0.028938 0.005317 -0.012260
v 0.028938 0.010977 -0.020760
v 0.028938 0.013977 -0.018257
v 0.028938 0.006767 -0.011059
v 0.028938 0.016437 -0.015259
v 0.028938 0.007967 -0.009659
v 0.028938 0.018257 -0.011860
v 0.028938 0.008847 -0.007957
v 0.028938 0.019387 -0.008160
v 0.028938 0.009397 -0.006157
v 0.028938 0.019767 -0.004257
v 0.028938 0.009577 -0.004257
v 0.028938 0.009397 -0.002460
v 0.028938 0.019387 -0.000458
v 0.028938 0.018257 0.003242
v 0.028938 0.008847 -0.000660
v 0.028938 0.016437 0.006641
v 0.028938 0.007967 0.001041
v 0.028938 0.013977 0.009640
v 0.028938 0.006767 0.002441
v 0.028938 0.010977 0.012142
v 0.028938 0.005317 0.003643
v 0.028938 0.007567 0.013943
v 0.028938 0.003667 0.004539
v 0.028938 0.003857 0.015141
v 0.028938 0.001867 0.005142
v 0.028938 -0.000003 0.015442
v 0.028938 -0.000003 0.005241
v 0.065439 -0.017673 0.013340
v 0.015438 -0.017673 0.013340
v 0.015438 -0.020783 0.009640
v 0.065439 -0.020783 0.009640
v 0.015438 -0.023093 0.005241
v 0.065439 -0.023093 0.005241
v 0.015438 -0.024523 0.000542
v 0.065439 -0.024523 0.000542
v 0.015438 -0.025003 -0.004257
v 0.065439 -0.025003 -0.004257
v 0.015438 -0.024523 -0.009159
v 0.065439 -0.024523 -0.009159
v 0.015438 -0.023093 -0.013859
v 0.065439 -0.023093 -0.013859
v 0.015438 -0.020783 -0.018158
v 0.065439 -0.020783 -0.018158
v 0.015438 -0.017673 -0.021957
v 0.065439 -0.017673 -0.021957
v 0.028938 -0.009393 -0.006157
v 0.015438 -0.007473 -0.007359
v 0.028938 -0.008843 -0.007957
v 0.015438 -0.007933 -0.005859
v 0.015438 -0.006733 -0.008759
v 0.028938 -0.009573 -0.004257
v 0.028938 -0.007963 -0.009659
v 0.015438 -0.008093 -0.004257
v 0.015438 -0.005723 -0.010059
v 0.015438 -0.007933 -0.002659
v 0.028938 -0.006773 -0.011059
v 0.028938 -0.009393 -0.002460
v 0.015438 -0.007473 -0.001160
v 0.028938 -0.008843 -0.000660
v 0.015438 -0.006733 0.000240
v 0.028938 -0.007963 0.001041
v 0.015438 -0.005723 0.001442
v 0.028938 -0.006773 0.002441
v 0.015438 0.013977 -0.018257
v 0.028938 0.013977 -0.018257
v 0.015438 0.016437 -0.015259
v 0.028938 0.016437 -0.015259
v 0.015438 0.018257 -0.011860
v 0.028938 0.018257 -0.011860
v 0.015438 0.019387 -0.008160
v 0.028938 0.019387 -0.008160
v 0.028938 0.019767 -0.004257
v 0.015438 0.019767 -0.004257
v 0.028938 0.019387 -0.000458
v 0.015438 0.019387 -0.000458
v 0.015438 0.018257 0.003242
v 0.028938 0.018257 0.003242
v 0.015438 0.016437 0.006641
v 0.028938 0.016437 0.006641
v 0.015438 0.013977 0.009640
v 0.028938 0.013977 0.009640
v 0.015438 -0.017673 -0.021957
v 0.065439 -0.017673 -0.021957
v 0.015438 -0.013893 -0.025059
v 0.065439 -0.013893 -0.025059
v 0.015438 -0.009563 -0.027359
v 0.065439 -0.009563 -0.027359
v 0.015438 -0.004873 -0.028759
v 0.065439 -0.004873 -0.028759
v 0.015438 -0.000003 -0.029259
v 0.065439 -0.000003 -0.029259
v 0.015438 0.004877 -0.028759
v 0.065439 0.004877 -0.028759
v 0.015438 0.009567 -0.027359
v 0.065439 0.009567 -0.027359
v 0.015438 0.013887 -0.025059
v 0.065439 0.013887 -0.025059
v 0.015438 0.017677 -0.021957
v 0.065439 0.017677 -0.021957
v 0.015438 -0.005723 -0.010059
v 0.028938 -0.006773 -0.011059
v 0.028938 -0.005323 -0.012260
v 0.015438 -0.004493 -0.011059
v 0.028938 -0.003663 -0.013157
v 0.015438 -0.003093 -0.011757
v 0.028938 -0.001873 -0.013660
v 0.015438 -0.001583 -0.012260
v 0.028938 -0.000003 -0.013859
v 0.015438 -0.000003 -0.012360
v 0.015438 0.001577 -0.012260
v 0.028938 0.001867 -0.013660
v 0.015438 0.003097 -0.011757
v 0.028938 0.003667 -0.013157
v 0.015438 0.004497 -0.011059
v 0.028938 0.005317 -0.012260
v 0.015438 0.005727 -0.010059
v 0.028938 0.006767 -0.011059
v 0.015438 0.013977 0.009640
v 0.028938 0.013977 0.009640
v 0.015438 0.010977 0.012142
v 0.028938 0.010977 0.012142
v 0.015438 0.007567 0.013943
v 0.028938 0.007567 0.013943
v 0.015438 0.003857 0.015141
v 0.028938 0.003857 0.015141
v 0.015438 -0.000003 0.015442
v 0.028938 -0.000003 0.015442
v 0.028938 -0.010983 0.012142
v 0.015438 -0.013973 0.009640
v 0.015438 -0.010983 0.012142
v 0.028938 -0.013973 0.009640
v 0.028938 -0.007563 0.013943
v 0.015438 -0.007563 0.013943
v 0.028938 -0.003853 0.015141
v 0.015438 -0.003853 0.015141
v 0.028938 -0.000003 0.015442
v 0.015438 -0.000003 0.015442
v 0.165438 0.149997 0.445740
v 0.165438 0.149997 0.545742
v 0.165438 -0.150003 0.445740
v 0.165438 -0.150003 0.545742
v -0.084562 0.149997 0.545742
v 0.165438 0.149997 0.545742
v -0.084562 0.149997 0.445740
v 0.165438 0.149997 0.445740
v 0.165438 0.149997 0.545742
v -0.084562 0.149997 0.545742
v 0.165438 -0.150003 0.545742
v -0.084562 -0.150003 0.545742
v -0.084562 0.149997 0.545742
v -0.084562 0.149997 0.445740
v -0.084562 -0.150003 0.545742
v -0.084562 -0.150003 0.445740
v -0.084562 -0.150003 0.445740
v 0.165438 -0.150003 0.445740
v -0.084562 -0.150003 0.545742
v 0.165438 -0.150003 0.545742
v -0.084562 0.149997 0.445740
v 0.165438 0.149997 0.445740
v -0.084562 -0.150003 0.445740
v 0.165438 -0.150003 0.445740
v 0.165438 0.149997 -0.554260
v 0.165438 0.149997 -0.454258
v 0.165438 -0.150003 -0.554260
v 0.165438 -0.150003 -0.454258
v -0.084562 0.149997 -0.454258
v 0.165438 0.149997 -0.454258
v -0.084562 0.149997 -0.554260
v 0.165438 0.149997 -0.554260
v 0.165438 0.149997 -0.454258
v -0.084562 0.149997 -0.454258
v 0.165438 -0.150003 -0.454258
v -0.084562 -0.150003 -0.454258
v -0.084562 0.149997 -0.454258
v -0.084562 0.149997 -0.554260
v -0.084562 -0.150003 -0.454258
v -0.084562 -0.150003 -0.554260
v -0.084562 -0.150003 -0.554260
v 0.165438 -0.150003 -0.554260
v -0.084562 -0.150003 -0.454258
v 0.165438 -0.150003 -0.454258
v -0.084562 0.149997 -0.554260
v 0.165438 0.149997 -0.554260
v -0.084562 -0.150003 -0.554260
v 0.165438 -0.150003 -0.554260
v 0.190439 -0.353553 0.349243
v 0.190439 0.097547 0.486141
v 0.190439 -0.097543 0.486141
v 0.190439 -0.000003 0.495743
v 0.190439 -0.277783 0.411442
v 0.190439 -0.191343 0.457642
v 0.190439 -0.461943 0.187042
v 0.190439 -0.415733 0.273541
v 0.190439 -0.461943 -0.195660
v 0.190439 -0.490393 0.093243
v 0.190439 -0.500003 -0.004257
v 0.190439 -0.490393 -0.101860
v 0.190439 -0.000003 -0.504257
v 0.190439 -0.353553 -0.357861
v 0.190439 -0.415733 -0.282059
v 0.190439 -0.277783 -0.420059
v 0.190439 -0.097543 -0.494659
v 0.190439 -0.191343 -0.466259
v 0.190439 0.191347 -0.466259
v 0.190439 0.097547 -0.494659
v 0.190439 0.499997 -0.004257
v 0.190439 0.277787 0.411442
v 0.190439 0.191337 0.457642
v 0.190439 0.353557 -0.357861
v 0.190439 0.277787 -0.420059
v 0.190439 0.415737 -0.282059
v 0.190439 0.461937 -0.195660
v 0.190439 0.490397 -0.101860
v 0.190439 0.461937 0.187042
v 0.190439 0.490397 0.093243
v 0.190439 0.353557 0.349243
v 0.190439 0.415737 0.273540
v -0.109562 0.353557 -0.357861
v 0.190439 0.353557 -0.357861
v -0.109562 0.415737 -0.282059
v 0.190439 0.415737 -0.282059
v -0.109562 0.461937 -0.195660
v 0.190439 0.461937 -0.195660
v -0.109562 0.490397 -0.101860
v 0.190439 0.490397 -0.101860
v -0.109562 0.499997 -0.004257
v 0.190439 0.499997 -0.004257
v -0.109562 0.490397 0.093243
v 0.190439 0.490397 0.093243
v -0.109562 0.461937 0.187042
v 0.190439 0.461937 0.187042
v -0.109562 0.415737 0.273540
v 0.190439 0.415737 0.273540
v -0.109562 0.353557 0.349243
v 0.190439 0.353557 0.349243
v -0.109562 0.114447 -0.118759
v -0.028862 0.135437 -0.139759
v -0.028862 0.159257 -0.110661
v -0.109562 0.134577 -0.094158
v -0.028862 0.176947 -0.077560
v -0.109562 0.149527 -0.066257
v -0.028862 0.187847 -0.041660
v -0.109562 0.158737 -0.035858
v -0.028862 0.191527 -0.004257
v -0.109562 0.161847 -0.004257
v -0.109562 0.158737 0.027241
v -0.028862 0.187847 0.033043
v -0.109562 0.149527 0.057640
v -0.028862 0.176947 0.069042
v -0.109562 0.134577 0.085640
v -0.028862 0.159257 0.102142
v -0.109562 0.114447 0.110142
v -0.028862 0.135437 0.131142
v -0.028862 -0.279493 -0.283760
v -0.109562 -0.279493 0.275242
v -0.028862 -0.279493 0.275242
v -0.109562 -0.328653 0.215340
v -0.028862 -0.328653 0.215340
v -0.109562 -0.365183 0.146942
v -0.028862 -0.365183 0.146942
v -0.109562 -0.387673 0.072842
v -0.028862 -0.387673 0.072842
v -0.109562 -0.395263 -0.004257
v -0.028862 -0.395263 -0.004257
v -0.109562 -0.387673 -0.081360
v -0.028862 -0.387673 -0.081360
v -0.109562 -0.365183 -0.155560
v -0.028862 -0.365183 -0.155560
v -0.109562 -0.328653 -0.223858
v -0.028862 -0.328653 -0.223858
v -0.109562 -0.279493 -0.283760
v -0.109562 -0.000003 0.495743
v 0.190439 -0.097543 0.486141
v 0.190439 -0.000003 0.495743
v -0.109562 -0.097543 0.486141
v 0.190439 -0.191343 0.457642
v -0.109562 -0.191343 0.457642
v 0.190439 -0.277783 0.411442
v -0.109562 -0.277783 0.411442
v 0.190439 -0.353553 0.349243
v -0.109562 -0.353553 0.349243
v -0.109562 0.353557 0.349243
v 0.190439 0.353557 0.349243
v 0.190439 0.277787 0.411442
v -0.109562 0.277787 0.411442
v 0.190439 0.191337 0.457642
v -0.109562 0.191337 0.457642
v 0.190439 0.097547 0.486141
v -0.109562 0.097547 0.486141
v 0.190439 -0.000003 0.495743
v -0.109562 -0.000003 0.495743
v -0.109562 -0.114443 0.110142
v -0.028862 -0.135433 0.131142
v -0.028862 -0.106413 0.154942
v -0.109562 -0.089923 0.130241
v -0.028862 -0.073293 0.172642
v -0.109562 -0.061933 0.145241
v -0.028862 -0.037363 0.183540
v -0.109562 -0.031573 0.154442
v -0.028862 -0.000003 0.187241
v -0.109562 -0.000003 0.157543
v -0.109562 0.114447 0.110142
v -0.028862 0.135437 0.131142
v -0.028862 0.106407 0.154942
v -0.109562 0.089917 0.130241
v -0.028862 0.073297 0.172642
v -0.109562 0.061937 0.145241
v -0.028862 0.037367 0.183540
v -0.109562 0.031577 0.154442
v -0.028862 -0.000003 0.187241
v -0.109562 -0.000003 0.157543
v -0.028862 -0.219603 -0.332958
v -0.109562 -0.219603 -0.332958
v -0.028862 -0.279493 -0.283760
v -0.109562 -0.151263 -0.369457
v -0.028862 -0.151263 -0.369457
v -0.109562 -0.077113 -0.391960
v -0.028862 -0.077113 -0.391960
v -0.109562 -0.000003 -0.399559
v -0.028862 -0.000003 -0.399559
v -0.109562 0.077117 -0.391960
v -0.028862 0.077117 -0.391960
v -0.109562 0.151267 -0.369457
v -0.028862 0.151267 -0.369457
v -0.109562 0.219597 -0.332958
v -0.028862 0.219597 -0.332958
v -0.109562 0.279497 -0.283760
v -0.028862 0.279497 -0.283760
v -0.109562 -0.279493 -0.283760
v -0.109562 -0.077113 0.383343
v -0.109562 -0.191343 0.457642
v -0.109562 -0.097543 0.486141
v -0.109562 -0.000003 0.390942
v -0.109562 -0.000003 0.495743
v -0.109562 -0.151263 0.360840
v -0.109562 -0.219603 0.324341
v -0.109562 -0.277783 0.411442
v -0.109562 -0.279493 0.275242
v -0.109562 -0.353553 0.349243
v -0.109562 -0.328653 0.215340
v -0.109562 -0.415733 0.273541
v -0.109562 -0.365183 0.146942
v -0.109562 -0.461943 0.187042
v -0.109562 -0.387673 0.072842
v -0.109562 -0.490393 0.093243
v -0.109562 -0.395263 -0.004257
v -0.109562 -0.500003 -0.004257
v -0.109562 -0.387673 -0.081360
v -0.109562 -0.490393 -0.101860
v -0.109562 -0.365183 -0.155560
v -0.109562 -0.461943 -0.195660
v -0.109562 -0.328653 -0.223858
v -0.109562 -0.415733 -0.282059
v -0.109562 -0.279493 -0.283760
v -0.109562 -0.353553 -0.357861
v -0.109562 -0.277783 -0.420059
v -0.109562 -0.219603 -0.332958
v -0.109562 -0.151263 -0.369457
v -0.109562 -0.191343 -0.466259
v -0.109562 -0.097543 -0.494659
v -0.109562 -0.077113 -0.391960
v -0.109562 -0.000003 -0.504257
v -0.109562 -0.000003 -0.399559
v -0.109562 0.077117 -0.391960
v -0.109562 0.097547 -0.494659
v -0.109562 0.151267 -0.369457
v -0.109562 0.191347 -0.466259
v -0.109562 0.219597 -0.332958
v -0.109562 0.277787 -0.420059
v -0.109562 0.279497 -0.283760
v -0.109562 0.353557 -0.357861
v -0.109562 0.415737 -0.282059
v -0.109562 0.328657 -0.223858
v -0.109562 0.365177 -0.155560
v -0.109562 0.461937 -0.195660
v -0.109562 0.490397 -0.101860
v -0.109562 0.387667 -0.081360
v -0.109562 0.499997 -0.004257
v -0.109562 0.395267 -0.004257
v -0.109562 0.387667 0.072842
v -0.109562 0.490397 0.093243
v -0.109562 0.461937 0.187042
v -0.109562 0.365177 0.146942
v -0.109562 0.415737 0.273540
v -0.109562 0.328647 0.215340
v -0.109562 0.353557 0.349243
v -0.109562 0.279497 0.275242
v -0.109562 0.277787 0.411442
v -0.109562 0.219597 0.324341
v -0.109562 0.191337 0.457642
v -0.109562 0.151257 0.360840
v -0.109562 0.097547 0.486141
v -0.109562 0.077117 0.383343
v -0.109562 -0.000003 0.495743
v -0.109562 -0.000003 0.390942
v -0.109562 -0.149533 0.057640
v -0.109562 -0.061933 0.145241
v -0.109562 -0.000003 -0.166157
v -0.109562 -0.089923 0.130241
v -0.109562 -0.114443 0.110142
v -0.109562 -0.134573 0.085640
v -0.109562 -0.000003 0.157543
v -0.109562 -0.031573 0.154442
v -0.109562 -0.089923 -0.138859
v -0.109562 -0.158743 0.027241
v -0.109562 -0.161853 -0.004257
v -0.109562 -0.031573 -0.163059
v -0.109562 -0.061933 -0.153858
v -0.109562 -0.149533 -0.066257
v -0.109562 -0.158743 -0.035858
v -0.109562 -0.134573 -0.094158
v -0.109562 -0.114443 -0.118759
v -0.109562 0.161847 -0.004257
v -0.109562 0.134577 0.085640
v -0.109562 0.158737 0.027241
v -0.109562 0.149527 0.057640
v -0.109562 0.114447 0.110142
v -0.109562 0.031577 0.154442
v -0.109562 0.061937 0.145241
v -0.109562 0.089917 0.130241
v -0.109562 0.149527 -0.066257
v -0.109562 0.158737 -0.035858
v -0.109562 0.031577 -0.163059
v -0.109562 0.114447 -0.118759
v -0.109562 0.134577 -0.094158
v -0.109562 0.061937 -0.153858
v -0.109562 0.089917 -0.138859
v -0.028862 -0.365183 0.146942
v -0.028862 -0.187853 0.033043
v -0.028862 -0.387673 0.072842
v -0.028862 -0.176953 0.069042
v -0.028862 -0.191533 -0.004257
v -0.028862 -0.159253 0.102142
v -0.028862 -0.395263 -0.004257
v -0.028862 -0.328653 0.215340
v -0.028862 -0.187853 -0.041660
v -0.028862 -0.279493 0.275242
v -0.028862 -0.387673 -0.081360
v -0.028862 -0.135433 0.131142
v -0.028862 -0.176953 -0.077560
v -0.028862 -0.219603 0.324341
v -0.028862 -0.365183 -0.155560
v -0.028862 -0.106413 0.154942
v -0.028862 -0.159253 -0.110661
v -0.028862 -0.328653 -0.223858
v -0.028862 -0.151263 0.360840
v -0.028862 -0.073293 0.172642
v -0.028862 -0.037363 0.183540
v -0.028862 -0.135433 -0.139759
v -0.028862 -0.077113 0.383343
v -0.028862 -0.000003 0.187241
v -0.028862 -0.000003 0.390942
v -0.028862 -0.279493 -0.283760
v -0.028862 -0.219603 -0.332958
v -0.028862 -0.106413 -0.163559
v -0.028862 -0.073293 -0.181259
v -0.028862 -0.151263 -0.369457
v -0.028862 -0.077113 -0.391960
v -0.028862 -0.037363 -0.192158
v -0.028862 -0.000003 -0.399559
v -0.028862 -0.000003 -0.195858
v -0.028862 0.037367 -0.192158
v -0.028862 0.077117 -0.391960
v -0.028862 0.073297 -0.181259
v -0.028862 0.151267 -0.369457
v -0.028862 0.106407 -0.163559
v -0.028862 0.219597 -0.332958
v -0.028862 0.279497 -0.283760
v -0.028862 0.135437 -0.139759
v -0.028862 0.328657 -0.223858
v -0.028862 0.159257 -0.110661
v -0.028862 0.365177 -0.155560
v -0.028862 0.176947 -0.077560
v -0.028862 0.387667 -0.081360
v -0.028862 0.187847 -0.041660
v -0.028862 0.395267 -0.004257
v -0.028862 0.191527 -0.004257
v -0.028862 0.187847 0.033043
v -0.028862 0.387667 0.072842
v -0.028862 0.365177 0.146942
v -0.028862 0.176947 0.069042
v -0.028862 0.328647 0.215340
v -0.028862 0.159257 0.102142
v -0.028862 0.279497 0.275242
v -0.028862 0.135437 0.131142
v -0.028862 0.219597 0.324341
v -0.028862 0.106407 0.154942
v -0.028862 0.151257 0.360840
v -0.028862 0.073297 0.172642
v -0.028862 0.077117 0.383343
v -0.028862 0.037367 0.183540
v -0.028862 -0.000003 0.390942
v -0.028862 -0.000003 0.187241
v 0.190439 -0.353553 0.349243
v -0.109562 -0.353553 0.349243
v -0.109562 -0.415733 0.273541
v 0.190439 -0.415733 0.273541
v -0.109562 -0.461943 0.187042
v 0.190439 -0.461943 0.187042
v -0.109562 -0.490393 0.093243
v 0.190439 -0.490393 0.093243
v -0.109562 -0.500003 -0.004257
v 0.190439 -0.500003 -0.004257
v -0.109562 -0.490393 -0.101860
v 0.190439 -0.490393 -0.101860
v -0.109562 -0.461943 -0.195660
v 0.190439 -0.461943 -0.195660
v -0.109562 -0.415733 -0.282059
v 0.190439 -0.415733 -0.282059
v -0.109562 -0.353553 -0.357861
v 0.190439 -0.353553 -0.357861
v -0.028862 -0.187853 -0.041660
v -0.109562 -0.149533 -0.066257
v -0.028862 -0.176953 -0.077560
v -0.109562 -0.158743 -0.035858
v -0.109562 -0.134573 -0.094158
v -0.028862 -0.191533 -0.004257
v -0.028862 -0.159253 -0.110661
v -0.109562 -0.161853 -0.004257
v -0.109562 -0.114443 -0.118759
v -0.109562 -0.158743 0.027241
v -0.028862 -0.135433 -0.139759
v -0.028862 -0.187853 0.033043
v -0.109562 -0.149533 0.057640
v -0.028862 -0.176953 0.069042
v -0.109562 -0.134573 0.085640
v -0.028862 -0.159253 0.102142
v -0.109562 -0.114443 0.110142
v -0.028862 -0.135433 0.131142
v -0.109562 0.279497 -0.283760
v -0.028862 0.279497 -0.283760
v -0.109562 0.328657 -0.223858
v -0.028862 0.328657 -0.223858
v -0.109562 0.365177 -0.155560
v -0.028862 0.365177 -0.155560
v -0.109562 0.387667 -0.081360
v -0.028862 0.387667 -0.081360
v -0.028862 0.395267 -0.004257
v -0.109562 0.395267 -0.004257
v -0.028862 0.387667 0.072842
v -0.109562 0.387667 0.072842
v -0.109562 0.365177 0.146942
v -0.028862 0.365177 0.146942
v -0.109562 0.328647 0.215340
v -0.028862 0.328647 0.215340
v -0.109562 0.279497 0.275242
v -0.028862 0.279497 0.275242
v -0.109562 -0.353553 -0.357861
v 0.190439 -0.353553 -0.357861
v -0.109562 -0.277783 -0.420059
v 0.190439 -0.277783 -0.420059
v -0.109562 -0.191343 -0.466259
v 0.190439 -0.191343 -0.466259
v -0.109562 -0.097543 -0.494659
v 0.190439 -0.097543 -0.494659
v -0.109562 -0.000003 -0.504257
v 0.190439 -0.000003 -0.504257
v -0.109562 0.097547 -0.494659
v 0.190439 0.097547 -0.494659
v -0.109562 0.191347 -0.466259
v 0.190439 0.191347 -0.466259
v -0.109562 0.277787 -0.420059
v 0.190439 0.277787 -0.420059
v -0.109562 0.353557 -0.357861
v 0.190439 0.353557 -0.357861
v -0.109562 -0.114443 -0.118759
v -0.028862 -0.135433 -0.139759
v -0.028862 -0.106413 -0.163559
v -0.109562 -0.089923 -0.138859
v -0.028862 -0.073293 -0.181259
v -0.109562 -0.061933 -0.153858
v -0.028862 -0.037363 -0.192158
v -0.109562 -0.031573 -0.163059
v -0.028862 -0.000003 -0.195858
v -0.109562 -0.000003 -0.166157
v -0.109562 0.031577 -0.163059
v -0.028862 0.037367 -0.192158
v -0.109562 0.061937 -0.153858
v -0.028862 0.073297 -0.181259
v -0.109562 0.089917 -0.138859
v -0.028862 0.106407 -0.163559
v -0.109562 0.114447 -0.118759
v -0.028862 0.135437 -0.139759
v -0.109562 0.279497 0.275242
v -0.028862 0.279497 0.275242
v -0.109562 0.219597 0.324341
v -0.028862 0.219597 0.324341
v -0.109562 0.151257 0.360840
v -0.028862 0.151257 0.360840
v -0.109562 0.077117 0.383343
v -0.028862 0.077117 0.383343
v -0.109562 -0.000003 0.390942
v -0.028862 -0.000003 0.390942
v -0.028862 -0.219603 0.324341
v -0.109562 -0.279493 0.275242
v -0.109562 -0.219603 0.324341
v -0.028862 -0.279493 0.275242
v -0.028862 -0.151263 0.360840
v -0.109562 -0.151263 0.360840
v -0.028862 -0.077113 0.383343
v -0.109562 -0.077113 0.383343
v -0.028862 -0.000003 0.390942
v -0.109562 -0.000003 0.390942
vn 1.0000 -0.0001 -0.0000
vn 1.0000 -0.0000 -0.0000
vn 1.0000 -0.0002 -0.0000
vn 1.0000 0.0001 -0.0000
vn 1.0000 0.0002 -0.0000
vn -0.0000 0.8309 -0.5564
vn -0.0000 0.7071 -0.7071
vn -0.0000 0.9224 -0.3863
vn -0.0000 0.9806 -0.1961
vn -0.0000 1.0000 -0.0000
vn -0.0000 0.9806 0.1961
vn -0.0000 0.9224 0.3863
vn -0.0000 0.8308 0.5566
vn -0.0000 0.8308 0.5565
vn -0.0000 0.7071 0.7071
vn -0.1105 0.7028 -0.7028
vn -0.1103 0.8270 -0.5514
vn -0.1103 0.8270 -0.5513
vn -0.1100 0.9195 -0.3773
vn -0.1101 0.9195 -0.3773
vn -0.1100 0.9743 -0.1964
vn -0.1104 0.9939 -0.0000
vn -0.1099 0.9743 0.1964
vn -0.1100 0.9743 0.1964
vn -0.1100 0.9196 0.3772
vn -0.1103 0.8270 0.5513
vn -0.1105 0.7028 0.7028
vn -0.0000 0.8307 -0.5568
vn -0.0000 0.8308 -0.5565
vn -0.0000 0.9806 -0.1960
vn -0.0000 0.8309 0.5564
vn -0.0000 0.8307 0.5567
vn -0.0000 -0.0000 1.0000
vn -0.0000 -0.1961 0.9806
vn -0.0000 -0.3863 0.9224
vn -0.0000 -0.5565 0.8308
vn -0.0000 -0.7071 0.7071
vn -0.0000 0.5565 0.8308
vn -0.0000 0.3863 0.9224
vn -0.0000 0.1961 0.9806
vn -0.1103 -0.5513 0.8270
vn -0.1106 -0.7027 0.7028
vn -0.1106 -0.7028 0.7028
vn -0.1100 -0.3772 0.9196
vn -0.1100 -0.3773 0.9195
vn -0.1100 -0.1964 0.9743
vn -0.1100 -0.1965 0.9743
vn -0.1104 -0.0000 0.9939
vn -0.1105 0.7027 0.7028
vn -0.1103 0.5513 0.8270
vn -0.1100 0.3772 0.9196
vn -0.1101 0.3773 0.9195
vn -0.1100 0.1964 0.9743
vn -0.1100 0.1965 0.9743
vn -0.0000 0.5566 0.8308
vn -0.0000 0.0001 1.0000
vn -0.0000 -0.1962 0.9806
vn -0.0000 -0.5564 0.8309
vn -0.0000 -0.5567 0.8307
vn -1.0000 -0.0000 -0.0000
vn -1.0000 -0.0001 -0.0000
vn -1.0000 0.0001 -0.0000
vn -1.0000 0.0002 -0.0000
vn -1.0000 -0.0003 -0.0000
vn -1.0000 -0.0002 -0.0000
vn -1.0000 0.0003 -0.0000
vn -1.0000 0.0004 -0.0000
vn -0.0000 -0.8308 0.5566
vn -0.0000 -0.9224 0.3863
vn -0.0000 -0.9806 0.1960
vn -0.0000 -0.9806 0.1962
vn -0.0000 -1.0000 -0.0000
vn -0.0000 -0.9806 -0.1962
vn -0.0000 -0.9806 -0.1961
vn -0.0000 -0.9224 -0.3863
vn -0.0000 -0.8309 -0.5564
vn -0.0000 -0.7071 -0.7071
vn -0.1100 -0.9743 -0.1964
vn -0.1100 -0.9195 -0.3773
vn -0.1103 -0.8270 -0.5513
vn -0.1104 -0.9939 -0.0000
vn -0.1105 -0.7028 -0.7028
vn -0.1100 -0.9743 0.1964
vn -0.1100 -0.9195 0.3773
vn -0.1103 -0.8270 0.5513
vn -0.1105 -0.7028 0.7028
vn -0.0000 -0.8309 0.5564
vn -0.0000 -0.9806 0.1961
vn -0.0000 -0.8309 -0.5565
vn -0.0000 -0.5565 -0.8308
vn -0.0000 -0.5565 -0.8309
vn -0.0000 -0.3863 -0.9224
vn -0.0000 -0.1961 -0.9806
vn -0.0000 -0.0001 -1.0000
vn -0.0000 0.1961 -0.9806
vn -0.0000 0.3863 -0.9224
vn -0.0000 0.5565 -0.8308
vn -0.0000 0.5565 -0.8309
vn -0.1106 -0.7028 -0.7028
vn -0.1103 -0.5513 -0.8270
vn -0.1100 -0.3772 -0.9196
vn -0.1100 -0.3773 -0.9195
vn -0.1100 -0.1964 -0.9743
vn -0.1104 -0.0000 -0.9939
vn -0.1104 -0.0001 -0.9939
vn -0.1100 0.1964 -0.9743
vn -0.1100 0.3772 -0.9196
vn -0.1100 0.3773 -0.9196
vn -0.1103 0.5513 -0.8270
vn -0.1105 0.7027 -0.7028
vn -0.0000 -0.5564 -0.8309
vn -0.0000 -0.5568 -0.8307
vn -0.0000 -0.0000 -1.0000
vn -0.0000 0.5569 -0.8306
vn -0.0000 0.8309 -0.5565
vn -0.0000 1.0000 0.0001
vn -0.0000 0.8309 0.5565
vn -0.3473 0.6631 -0.6631
vn -0.3468 0.7804 -0.5203
vn -0.3462 0.8656 -0.3619
vn -0.3462 0.8655 -0.3619
vn -0.3462 0.9205 -0.1810
vn -0.3462 0.9205 -0.1809
vn -0.3468 0.9379 -0.0000
vn -0.3462 0.9205 0.1810
vn -0.3462 0.8655 0.3619
vn -0.3462 0.8656 0.3619
vn -0.3468 0.7804 0.5203
vn -0.3473 0.6631 0.6631
vn -0.0000 0.9806 -0.1962
vn -0.0000 0.9806 0.1962
vn -0.3468 -0.5203 0.7804
vn -0.3473 -0.6631 0.6631
vn -0.3462 -0.3619 0.8655
vn -0.3462 -0.1810 0.9205
vn -0.3468 -0.0000 0.9379
vn -0.3468 0.5203 0.7804
vn -0.3469 0.5202 0.7804
vn -0.3462 0.3620 0.8655
vn -0.3462 0.1809 0.9205
vn -0.3462 0.1810 0.9205
vn -0.0000 0.5564 0.8309
vn -0.0000 -0.5565 0.8309
vn -1.0000 -0.0004 -0.0000
vn -0.0000 -0.8308 0.5565
vn -0.0000 -0.8309 0.5565
vn -0.0000 -1.0000 0.0001
vn -0.3462 -0.9205 -0.1810
vn -0.3462 -0.8655 -0.3619
vn -0.3468 -0.7804 -0.5203
vn -0.3469 -0.9379 -0.0000
vn -0.3468 -0.9379 -0.0000
vn -0.3473 -0.6631 -0.6631
vn -0.3462 -0.9205 0.1809
vn -0.3462 -0.9205 0.1810
vn -0.3462 -0.8655 0.3619
vn -0.3468 -0.7804 0.5203
vn -0.0000 -0.9806 -0.1960
vn -0.0000 -0.1962 -0.9806
vn -0.3468 -0.5203 -0.7804
vn -0.3462 -0.3620 -0.8655
vn -0.3462 -0.3619 -0.8655
vn -0.3462 -0.1810 -0.9205
vn -0.3468 -0.0000 -0.9379
vn -0.3468 -0.0000 -0.9380
vn -0.3462 0.1809 -0.9205
vn -0.3462 0.1810 -0.9205
vn -0.3462 0.3619 -0.8655
vn -0.3468 0.5203 -0.7804
vn -0.0000 0.1962 -0.9806
vt 0.031322 0.932272
vt 0.024480 0.954827
vt 0.024480 0.945073
vt 0.024000 0.949950
vt 0.028213 0.936061
vt 0.025903 0.940383
vt 0.039432 0.926853
vt 0.035110 0.929163
vt 0.058567 0.926853
vt 0.044122 0.925430
vt 0.049000 0.924950
vt 0.053877 0.925430
vt 0.074000 0.949950
vt 0.066677 0.932272
vt 0.062889 0.929163
vt 0.069786 0.936061
vt 0.073519 0.945073
vt 0.072097 0.940383
vt 0.072097 0.959517
vt 0.073519 0.954827
vt 0.049000 0.974950
vt 0.028213 0.963839
vt 0.025903 0.959517
vt 0.066677 0.967628
vt 0.069786 0.963839
vt 0.062889 0.970737
vt 0.058567 0.973047
vt 0.053877 0.974470
vt 0.039432 0.973047
vt 0.044122 0.974470
vt 0.031322 0.967628
vt 0.035110 0.970737
vt 0.074000 0.936061
vt 0.024000 0.932272
vt 0.074000 0.932272
vt 0.024000 0.936061
vt 0.074000 0.940383
vt 0.024000 0.940383
vt 0.074000 0.945073
vt 0.024000 0.945073
vt 0.074000 0.954827
vt 0.024000 0.954827
vt 0.074000 0.959517
vt 0.024000 0.959517
vt 0.074000 0.963839
vt 0.024000 0.963839
vt 0.074000 0.967628
vt 0.024000 0.967628
vt 0.060559 0.943178
vt 0.074000 0.944228
vt 0.060559 0.944629
vt 0.074000 0.945454
vt 0.060559 0.946285
vt 0.074000 0.946853
vt 0.060559 0.948082
vt 0.074000 0.948371
vt 0.060559 0.949950
vt 0.074000 0.951529
vt 0.060559 0.951818
vt 0.074000 0.953047
vt 0.060559 0.953615
vt 0.074000 0.954446
vt 0.060559 0.955270
vt 0.074000 0.955672
vt 0.060559 0.956722
vt 0.060559 0.963925
vt 0.074000 0.960930
vt 0.074000 0.963925
vt 0.060559 0.960930
vt 0.074000 0.957513
vt 0.060559 0.957513
vt 0.074000 0.953806
vt 0.060559 0.953806
vt 0.074000 0.946094
vt 0.060559 0.946094
vt 0.074000 0.942387
vt 0.060559 0.942387
vt 0.074000 0.938970
vt 0.060559 0.938970
vt 0.074000 0.935975
vt 0.060559 0.935975
vt 0.037441 0.944629
vt 0.024000 0.944228
vt 0.037441 0.943178
vt 0.024000 0.945454
vt 0.037441 0.946285
vt 0.024000 0.946853
vt 0.037441 0.948082
vt 0.024000 0.948371
vt 0.037441 0.949950
vt 0.024000 0.955672
vt 0.037441 0.955270
vt 0.037441 0.956722
vt 0.024000 0.954446
vt 0.037441 0.953615
vt 0.024000 0.953047
vt 0.037441 0.951818
vt 0.024000 0.951529
vt 0.037441 0.938970
vt 0.024000 0.938970
vt 0.037441 0.935975
vt 0.024000 0.942387
vt 0.037441 0.942387
vt 0.024000 0.946094
vt 0.037441 0.946094
vt 0.024000 0.953806
vt 0.037441 0.953806
vt 0.024000 0.957513
vt 0.037441 0.957513
vt 0.024000 0.960930
vt 0.037441 0.960930
vt 0.024000 0.963925
vt 0.037441 0.963925
vt 0.024000 0.935975
vt 0.068383 0.946094
vt 0.068763 0.949950
vt 0.067258 0.942387
vt 0.065432 0.938970
vt 0.062974 0.935975
vt 0.059979 0.933517
vt 0.062889 0.929163
vt 0.056563 0.931691
vt 0.052855 0.930566
vt 0.049000 0.930187
vt 0.045144 0.930566
vt 0.041437 0.931691
vt 0.038020 0.933517
vt 0.035025 0.935975
vt 0.028213 0.936061
vt 0.032567 0.938970
vt 0.030741 0.942387
vt 0.029616 0.946094
vt 0.029236 0.949950
vt 0.029616 0.953806
vt 0.030741 0.957513
vt 0.032567 0.960930
vt 0.028213 0.963839
vt 0.035025 0.963925
vt 0.035110 0.970737
vt 0.038020 0.966383
vt 0.041437 0.968209
vt 0.044122 0.974470
vt 0.045144 0.969334
vt 0.049000 0.969713
vt 0.052855 0.969334
vt 0.053877 0.974470
vt 0.056563 0.968209
vt 0.062889 0.970737
vt 0.059979 0.966383
vt 0.062974 0.963925
vt 0.069786 0.963839
vt 0.065432 0.960930
vt 0.067259 0.957513
vt 0.068383 0.953806
vt 0.052097 0.942473
vt 0.056476 0.946853
vt 0.040907 0.949950
vt 0.055728 0.945454
vt 0.054722 0.944228
vt 0.053496 0.943221
vt 0.057092 0.949950
vt 0.056937 0.948371
vt 0.042271 0.945454
vt 0.050578 0.942013
vt 0.049000 0.941857
vt 0.041063 0.948371
vt 0.041523 0.946853
vt 0.045903 0.942473
vt 0.047421 0.942013
vt 0.044504 0.943221
vt 0.043277 0.944228
vt 0.049000 0.958042
vt 0.053496 0.956679
vt 0.050578 0.957887
vt 0.052097 0.957426
vt 0.054722 0.955672
vt 0.056937 0.951529
vt 0.056476 0.953047
vt 0.055728 0.954446
vt 0.045903 0.957426
vt 0.047421 0.957887
vt 0.041063 0.951529
vt 0.043277 0.955672
vt 0.044504 0.956679
vt 0.041523 0.953047
vt 0.042271 0.954446
vt 0.050868 0.940557
vt 0.052664 0.941102
vt 0.049000 0.940373
vt 0.054320 0.941987
vt 0.047131 0.940557
vt 0.055771 0.943178
vt 0.045335 0.941102
vt 0.056962 0.944629
vt 0.043679 0.941987
vt 0.057847 0.946285
vt 0.058392 0.948082
vt 0.042228 0.943178
vt 0.058576 0.949950
vt 0.041037 0.944629
vt 0.040152 0.946285
vt 0.039607 0.948082
vt 0.039423 0.949950
vt 0.039607 0.951818
vt 0.040152 0.953615
vt 0.041037 0.955270
vt 0.042228 0.956722
vt 0.043679 0.957913
vt 0.045335 0.958798
vt 0.047131 0.959342
vt 0.049000 0.959527
vt 0.050868 0.959342
vt 0.052664 0.958798
vt 0.054320 0.957913
vt 0.055771 0.956722
vt 0.056962 0.955270
vt 0.057847 0.953615
vt 0.058392 0.951818
vt 0.144988 1.086110
vt 0.044988 1.086110
vt 0.144988 0.786109
vt 0.044988 0.786109
vt 0.294988 1.086110
vt 0.294988 0.986109
vt 0.044988 0.986109
vt 0.294988 0.786109
vt 0.124129 1.186220
vt 0.024129 1.186220
vt 0.124129 0.886218
vt 0.024129 0.886218
vt 0.274129 1.186220
vt 0.274129 1.086220
vt 0.024129 1.086220
vt 0.274129 0.886218
vt 0.767952 -0.154057
vt 0.631112 0.297041
vt 0.631113 0.101951
vt 0.621505 0.199497
vt 0.705770 -0.078289
vt 0.659565 0.008155
vt 0.930164 -0.262443
vt 0.843720 -0.216238
vt 1.312850 -0.262443
vt 1.023960 -0.290896
vt 1.121510 -0.300503
vt 1.219050 -0.290896
vt 1.621510 0.199497
vt 1.475060 -0.154057
vt 1.399290 -0.216238
vt 1.537240 -0.078288
vt 1.611900 0.101952
vt 1.583450 0.008155
vt 1.583440 0.390839
vt 1.611900 0.297042
vt 1.121500 0.699497
vt 0.705770 0.477281
vt 0.659565 0.390838
vt 1.475060 0.553050
vt 1.537240 0.477282
vt 1.399290 0.615232
vt 1.312850 0.661437
vt 1.219050 0.689889
vt 0.930163 0.661436
vt 1.023960 0.689889
vt 0.767951 0.553049
vt 0.843720 0.615231
vt 1.271510 -0.078288
vt 0.971505 -0.154057
vt 1.271510 -0.154057
vt 0.971505 -0.078288
vt 1.271510 0.008155
vt 0.971505 0.008155
vt 1.271510 0.101952
vt 0.971505 0.101952
vt 1.271510 0.199497
vt 0.971505 0.199497
vt 1.271510 0.297042
vt 0.971505 0.297042
vt 1.271510 0.390839
vt 0.971505 0.390839
vt 1.271510 0.477282
vt 0.971505 0.477282
vt 1.271510 0.553050
vt 0.971505 0.553050
vt 1.190860 0.064064
vt 1.271510 0.085052
vt 1.190860 0.093088
vt 1.271510 0.109578
vt 1.190860 0.126201
vt 1.271510 0.137560
vt 1.190860 0.162131
vt 1.271510 0.167921
vt 1.190860 0.199497
vt 1.271510 0.231072
vt 1.190860 0.236863
vt 1.271510 0.261434
vt 1.190860 0.272793
vt 1.271510 0.289416
vt 1.190860 0.305906
vt 1.271510 0.313942
vt 1.190860 0.334930
vt 1.190860 0.478992
vt 1.271510 0.419095
vt 1.271510 0.478992
vt 1.190860 0.419095
vt 1.271510 0.350758
vt 1.190860 0.350758
vt 1.271510 0.276609
vt 1.190860 0.276609
vt 1.271510 0.122384
vt 1.190860 0.122384
vt 1.271510 0.048234
vt 1.190860 0.048234
vt 1.271510 -0.020102
vt 1.190860 -0.020102
vt 1.271510 -0.079999
vt 1.190860 -0.079999
vt 0.971505 0.199496
vt 1.271510 0.101951
vt 0.971505 0.101951
vt 1.271510 0.008155
vt 0.971505 0.008155
vt 1.271510 -0.078289
vt 0.971505 -0.078289
vt 0.971505 0.553049
vt 1.271510 0.477281
vt 1.271510 0.553049
vt 0.971505 0.477281
vt 1.271510 0.390838
vt 0.971505 0.390837
vt 1.271510 0.297041
vt 0.971505 0.297041
vt 1.052150 0.093087
vt 0.971505 0.085051
vt 1.052150 0.064063
vt 0.971505 0.109578
vt 1.052150 0.126201
vt 0.971505 0.137559
vt 1.052150 0.162131
vt 0.971505 0.167921
vt 1.052150 0.199496
vt 0.971505 0.313941
vt 1.052150 0.305905
vt 1.052150 0.334929
vt 0.971505 0.289415
vt 1.052150 0.272792
vt 0.971505 0.261433
vt 1.052150 0.236862
vt 0.971505 0.231071
vt 1.052150 -0.020102
vt 0.971505 -0.020102
vt 1.052150 -0.079999
vt 0.971505 0.048235
vt 1.052150 0.048235
vt 0.971505 0.122384
vt 1.052150 0.122384
vt 1.052150 0.199497
vt 0.971505 0.276609
vt 1.052150 0.276609
vt 0.971505 0.350759
vt 1.052150 0.350759
vt 0.971505 0.419095
vt 1.052150 0.419095
vt 0.971505 0.478992
vt 1.052150 0.478992
vt 0.971505 -0.079999
vt 1.509180 0.122384
vt 1.583450 0.008155
vt 1.611900 0.101951
vt 1.516770 0.199496
vt 1.621510 0.199496
vt 1.486680 0.048234
vt 1.450160 -0.020102
vt 1.537240 -0.078289
vt 1.401000 -0.079999
vt 1.341100 -0.129156
vt 1.272770 -0.165682
vt 1.198620 -0.188175
vt 1.121510 -0.195770
vt 1.044390 -0.188175
vt 0.970243 -0.165682
vt 0.901907 -0.129156
vt 0.842010 -0.079999
vt 0.792853 -0.020102
vt 0.756326 0.048235
vt 0.659565 0.008155
vt 0.631112 0.101952
vt 0.733834 0.122384
vt 0.726239 0.199497
vt 0.733834 0.276609
vt 0.631113 0.297042
vt 0.756327 0.350759
vt 0.659566 0.390839
vt 0.792853 0.419095
vt 0.705771 0.477282
vt 0.842010 0.478992
vt 0.767952 0.553050
vt 0.843720 0.615232
vt 0.901907 0.528149
vt 0.970244 0.564675
vt 0.930164 0.661436
vt 1.044390 0.587168
vt 1.121510 0.699496
vt 1.121510 0.594763
vt 1.198620 0.587168
vt 1.312850 0.661436
vt 1.272770 0.564675
vt 1.399290 0.615231
vt 1.341100 0.528148
vt 1.475060 0.553049
vt 1.401000 0.478992
vt 1.537240 0.477281
vt 1.450160 0.419094
vt 1.583450 0.390837
vt 1.486680 0.350758
vt 1.611900 0.297041
vt 1.509180 0.276609
vt 1.183440 0.049967
vt 1.271030 0.137559
vt 0.959656 0.199497
vt 1.256080 0.109578
vt 1.235950 0.085051
vt 1.211420 0.064924
vt 1.283350 0.199496
vt 1.280250 0.167921
vt 0.986932 0.109578
vt 1.153080 0.040757
vt 1.121510 0.037647
vt 0.962766 0.167921
vt 0.971976 0.137559
vt 1.059570 0.049967
vt 1.089930 0.040757
vt 1.031590 0.064924
vt 1.007060 0.085051
vt 1.121510 0.361346
vt 1.211420 0.334069
vt 1.153080 0.358236
vt 1.183440 0.349026
vt 1.235950 0.313941
vt 1.280250 0.231071
vt 1.271030 0.261433
vt 1.256080 0.289415
vt 1.059570 0.349026
vt 1.089930 0.358236
vt 0.962766 0.231072
vt 1.007060 0.313941
vt 1.031590 0.334070
vt 0.971976 0.261434
vt 0.986932 0.289415
vt 1.158870 0.011645
vt 1.194800 0.022545
vt 1.121510 0.007965
vt 1.227910 0.040244
vt 1.084140 0.011645
vt 1.256940 0.064063
vt 1.048210 0.022545
vt 1.280760 0.093087
vt 1.015100 0.040244
vt 1.298460 0.126201
vt 1.309360 0.162131
vt 0.986072 0.064063
vt 1.313040 0.199496
vt 0.962253 0.093088
vt 0.944553 0.126201
vt 0.933654 0.162131
vt 0.929974 0.199497
vt 0.933654 0.236862
vt 0.944554 0.272792
vt 0.962253 0.305906
vt 0.986072 0.334930
vt 1.015100 0.358749
vt 1.048210 0.376448
vt 1.084140 0.387347
vt 1.121510 0.391028
vt 1.158870 0.387347
vt 1.194800 0.376448
vt 1.227910 0.358749
vt 1.256940 0.334929
vt 1.280760 0.305905
vt 1.298460 0.272792
vt 1.309360 0.236862
vt 0.971505 0.390838
vt 1.271510 0.199496
vt 1.271510 -0.078289
vt 1.052150 0.093088
vt 0.971505 0.085052
vt 0.971505 0.231072
vt 1.052150 0.064063
vt 0.971505 0.261434
vt 1.052150 0.305906
vt 1.052150 0.334930
vt 1.052150 -0.079999
vt 0.971505 -0.020102
vt 0.971505 -0.079999
vt 1.052150 -0.020102
vt 0.971505 0.048235
vt 1.052150 0.048235
vt 1.052150 0.276610
vt 0.971505 0.276610
vt 0.971505 0.478993
vt 1.052150 0.478993
vt 0.971505 -0.078288
vt 1.271510 0.008155
vt 0.971505 0.008155
vt 1.190860 0.064063
vt 1.271510 0.085051
vt 1.190860 0.093088
vt 1.271510 0.137559
vt 1.190860 0.236862
vt 1.190860 0.272792
vt 1.271510 0.289415
vt 1.271510 0.313941
vt 1.271510 0.419094
vt 1.190860 0.419094
vt 1.190860 0.199496
s 1
usemtl Spinner1Mtl
f 1/1/1 2/2/2 3/3/2
f 3/3/2 2/2/2 4/4/2
f 1/1/1 3/3/2 5/5/2
f 5/5/2 3/3/2 6/6/2
f 7/7/3 1/1/1 8/8/2
f 1/1/1 7/7/3 9/9/1
f 9/9/1 7/7/3 10/10/4
f 9/9/1 10/10/4 11/11/2
f 9/9/1 11/11/2 12/12/2
f 9/9/1 13/13/2 1/1/1
f 2/2/2 1/1/1 13/13/2
f 14/14/4 9/9/1 15/15/2
f 13/13/2 9/9/1 14/14/4
f 16/16/1 13/13/2 14/14/4
f 13/13/2 16/16/1 17/17/2
f 17/17/2 16/16/1 18/18/2
f 19/19/5 13/13/2 20/20/1
f 2/2/2 13/13/2 21/21/2
f 19/19/5 21/21/2 13/13/2
f 2/2/2 21/21/2 22/22/4
f 2/2/2 22/22/4 23/23/2
f 21/21/2 19/19/5 24/24/1
f 24/24/1 19/19/5 25/25/2
f 21/21/2 24/24/1 26/26/2
f 21/21/2 26/26/2 27/27/2
f 21/21/2 27/27/2 28/28/2
f 29/29/2 22/22/4 21/21/2
f 29/29/2 21/21/2 30/30/2
f 22/22/4 29/29/2 31/31/2
f 31/31/2 29/29/2 32/32/2
f 35/33/6 34/34/7 33/35/7
f 35/33/6 36/36/6 34/34/7
f 37/37/8 36/36/6 35/33/6
f 37/37/8 38/38/8 36/36/6
f 39/39/9 38/38/8 37/37/8
f 39/39/9 40/40/9 38/38/8
f 41/13/10 40/40/9 39/39/9
f 41/13/10 42/4/10 40/40/9
f 43/41/11 42/4/10 41/13/10
f 43/41/11 44/42/11 42/4/10
f 45/43/12 44/42/11 43/41/11
f 45/43/12 46/44/12 44/42/11
f 47/45/13 46/44/12 45/43/12
f 47/45/13 48/46/14 46/44/12
f 49/47/15 48/46/14 47/45/13
f 49/47/15 50/48/15 48/46/14
f 52/49/16 51/50/16 53/51/17
f 54/52/18 53/51/17 51/50/16
f 53/51/17 54/52/18 55/53/19
f 56/54/20 55/53/19 54/52/18
f 55/53/19 56/54/20 57/55/21
f 58/56/21 57/55/21 56/54/20
f 57/55/21 58/56/21 59/57/22
f 60/13/22 59/57/22 58/56/21
f 61/58/23 59/57/22 60/13/22
f 59/57/22 61/58/23 62/59/24
f 63/60/25 62/59/24 61/58/23
f 62/59/24 63/60/25 64/61/25
f 65/62/26 64/61/25 63/60/25
f 64/61/25 65/62/26 66/63/26
f 67/64/27 66/63/26 65/62/26
f 66/63/26 67/64/27 68/65/27
f 71/66/7 72/67/28 70/68/7
f 72/67/28 71/66/7 73/69/29
f 73/69/29 74/70/8 72/67/28
f 74/70/8 73/69/29 75/71/8
f 75/71/8 76/72/9 74/70/8
f 76/72/9 75/71/8 77/73/30
f 77/73/30 78/13/10 76/72/9
f 78/13/10 77/73/30 79/57/10
f 79/57/10 80/74/11 78/13/10
f 80/74/11 79/57/10 81/75/11
f 81/75/11 82/76/12 80/74/11
f 82/76/12 81/75/11 83/77/12
f 83/77/12 84/78/31 82/76/12
f 84/78/31 83/77/12 85/79/32
f 85/79/32 86/80/15 84/78/31
f 86/80/15 85/79/32 69/81/15
f 87/4/33 88/39/34 89/13/33
f 88/39/34 87/4/33 90/40/34
f 90/40/34 91/37/35 88/39/34
f 91/37/35 90/40/34 92/38/35
f 92/38/35 93/33/36 91/37/35
f 93/33/36 92/38/35 94/36/36
f 94/36/36 95/35/37 93/33/36
f 95/35/37 94/36/36 96/34/37
f 97/48/15 99/45/38 98/47/15
f 99/45/38 97/48/15 100/46/38
f 100/46/38 101/43/39 99/45/38
f 101/43/39 100/46/38 102/44/39
f 102/44/39 103/41/40 101/43/39
f 103/41/40 102/44/39 104/42/40
f 104/42/40 105/13/33 103/41/40
f 105/13/33 104/42/40 106/4/33
f 109/82/41 107/83/42 108/84/43
f 107/83/42 109/82/41 110/85/41
f 111/86/44 110/85/41 109/82/41
f 110/85/41 111/86/44 112/87/45
f 113/88/46 112/87/45 111/86/44
f 112/87/45 113/88/46 114/89/47
f 115/90/48 114/89/47 113/88/46
f 114/89/47 115/90/48 116/4/48
f 117/91/49 119/92/50 118/93/27
f 119/92/50 117/91/49 120/94/50
f 120/94/50 121/95/51 119/92/50
f 121/95/51 120/94/50 122/96/52
f 122/96/52 123/97/53 121/95/51
f 123/97/53 122/96/52 124/98/54
f 124/98/54 125/90/48 123/97/53
f 125/90/48 124/98/54 126/4/48
f 127/99/38 128/100/55 129/101/15
f 130/102/39 128/100/55 127/99/38
f 131/103/39 130/102/39 127/99/38
f 132/104/40 130/102/39 131/103/39
f 133/105/40 132/104/40 131/103/39
f 134/4/56 132/104/40 133/105/40
f 135/90/56 134/4/56 133/105/40
f 136/106/57 134/4/56 135/90/56
f 137/107/34 136/106/57 135/90/56
f 138/108/35 136/106/57 137/107/34
f 139/109/35 138/108/35 137/107/34
f 140/110/58 138/108/35 139/109/35
f 141/111/59 140/110/58 139/109/35
f 140/110/58 141/111/59 142/112/37
f 143/113/37 142/112/37 141/111/59
f 144/114/15 129/101/15 128/100/55
f 145/115/60 146/18/61 147/17/61
f 147/17/61 148/116/62 145/115/60
f 148/116/62 147/17/61 149/13/60
f 146/18/61 145/115/60 150/117/61
f 151/118/63 146/18/61 150/117/61
f 146/18/61 151/118/63 152/16/60
f 153/119/62 152/16/60 151/118/63
f 152/16/60 153/119/62 154/14/60
f 155/120/62 154/14/60 153/119/62
f 154/14/60 155/120/62 156/121/64
f 157/122/62 156/121/64 155/120/62
f 156/121/64 157/122/62 158/9/60
f 159/123/62 158/9/60 157/122/62
f 158/9/60 159/123/62 160/12/60
f 161/124/60 160/12/60 159/123/62
f 160/12/60 161/124/60 162/11/60
f 163/125/63 162/11/60 161/124/60
f 162/11/60 163/125/63 164/10/60
f 165/126/60 164/10/60 163/125/63
f 164/10/60 165/126/60 166/7/61
f 167/127/62 166/7/61 165/126/60
f 166/7/61 167/127/62 168/8/62
f 169/128/65 168/8/62 167/127/62
f 168/8/62 169/128/65 170/1/62
f 169/128/65 171/129/60 170/1/62
f 171/129/60 169/128/65 172/130/65
f 173/131/66 171/129/60 172/130/65
f 171/129/60 173/131/66 174/6/60
f 174/6/60 173/131/66 175/3/62
f 175/3/62 173/131/66 176/132/63
f 177/4/60 175/3/62 176/132/63
f 178/133/60 177/4/60 176/132/63
f 179/134/60 177/4/60 178/133/60
f 177/4/60 179/134/60 180/2/60
f 181/135/60 180/2/60 179/134/60
f 180/2/60 181/135/60 182/23/60
f 183/136/62 182/23/60 181/135/60
f 182/23/60 183/136/62 184/137/61
f 185/138/63 184/137/61 183/136/62
f 184/137/61 185/138/63 186/31/60
f 185/138/63 187/139/61 186/31/60
f 187/139/61 185/138/63 188/140/65
f 189/141/60 187/139/61 188/140/65
f 187/139/61 189/141/60 190/29/60
f 189/141/60 191/142/63 190/29/60
f 191/142/63 189/141/60 192/143/60
f 192/143/60 193/21/60 191/142/63
f 193/21/60 192/143/60 194/144/60
f 195/145/61 193/21/60 194/144/60
f 193/21/60 195/145/61 196/146/60
f 196/146/60 195/145/61 197/27/66
f 197/27/66 195/145/61 198/147/65
f 199/148/62 197/27/66 198/147/65
f 200/149/62 199/148/62 198/147/65
f 201/24/63 199/148/62 200/149/62
f 202/150/60 201/24/63 200/149/62
f 203/151/63 201/24/63 202/150/60
f 202/150/60 204/152/60 203/151/63
f 204/152/60 205/19/62 203/151/63
f 205/19/62 204/152/60 206/153/61
f 206/153/61 207/20/60 205/19/62
f 207/20/60 206/153/61 208/154/61
f 208/154/61 209/13/66 207/20/60
f 209/13/66 208/154/61 210/116/66
f 211/155/62 212/156/60 213/157/65
f 212/156/60 211/155/62 214/158/60
f 211/155/62 215/159/64 214/158/60
f 215/159/64 211/155/62 216/160/60
f 217/161/61 212/156/60 218/162/60
f 213/157/65 212/156/60 217/161/61
f 219/163/63 211/155/62 213/157/65
f 211/155/62 219/163/63 220/164/61
f 220/164/61 219/163/63 221/165/60
f 219/163/63 213/157/65 222/166/60
f 219/163/63 222/166/60 223/167/60
f 219/163/63 224/168/60 221/165/60
f 221/165/60 224/168/60 225/169/60
f 224/168/60 219/163/63 226/170/60
f 226/170/60 219/163/63 227/171/60
f 228/172/62 213/157/65 217/161/61
f 228/172/62 217/161/61 229/173/63
f 228/172/62 229/173/63 230/174/60
f 230/174/60 229/173/63 231/175/60
f 229/173/63 217/161/61 232/176/61
f 232/176/61 217/161/61 233/177/62
f 232/176/61 233/177/62 234/178/60
f 232/176/61 234/178/60 235/179/60
f 236/180/65 213/157/65 228/172/62
f 236/180/65 228/172/62 237/181/60
f 213/157/65 236/180/65 238/182/63
f 239/183/60 238/182/63 236/180/65
f 239/183/60 236/180/65 240/184/60
f 238/182/63 239/183/60 241/185/60
f 241/185/60 239/183/60 242/186/60
f 243/122/60 244/187/60 245/123/60
f 244/187/60 243/122/60 246/188/62
f 247/189/63 245/123/60 244/187/60
f 246/188/62 243/122/60 248/190/61
f 245/123/60 247/189/63 249/124/61
f 250/120/62 248/190/61 243/122/60
f 251/191/60 249/124/61 247/189/63
f 252/119/65 248/190/61 250/120/62
f 249/124/61 251/191/60 253/125/62
f 248/190/61 252/119/65 254/192/60
f 255/193/60 253/125/62 251/191/60
f 256/118/60 254/192/60 252/119/65
f 253/125/62 255/193/60 257/126/60
f 254/192/60 256/118/60 258/194/61
f 259/195/60 257/126/60 255/193/60
f 257/126/60 259/195/60 260/127/65
f 261/117/61 258/194/61 256/118/60
f 258/194/61 261/117/61 262/196/64
f 261/117/61 263/197/62 262/196/64
f 264/198/63 260/127/65 259/195/60
f 263/197/62 261/117/61 265/115/60
f 265/115/60 266/199/60 263/197/62
f 266/199/60 265/115/60 267/116/65
f 260/127/65 264/198/63 268/128/60
f 264/198/63 269/130/60 268/128/60
f 269/130/60 264/198/63 270/200/63
f 271/201/60 269/130/60 270/200/63
f 269/130/60 271/201/60 272/131/60
f 272/131/60 271/201/60 273/132/66
f 273/132/66 271/201/60 274/202/60
f 273/132/66 274/202/60 275/133/60
f 276/203/60 275/133/60 274/202/60
f 277/204/60 275/133/60 276/203/60
f 275/133/60 277/204/60 278/134/60
f 279/205/60 278/134/60 277/204/60
f 278/134/60 279/205/60 280/135/62
f 281/206/61 280/135/62 279/205/60
f 280/135/62 281/206/61 282/136/60
f 281/206/61 283/138/60 282/136/60
f 284/207/62 283/138/60 281/206/61
f 284/207/62 285/140/63 283/138/60
f 285/140/63 284/207/62 286/208/62
f 286/208/62 287/141/63 285/140/63
f 287/141/63 286/208/62 288/209/60
f 288/209/60 289/143/63 287/141/63
f 289/143/63 288/209/60 290/210/60
f 290/210/60 291/144/62 289/143/63
f 291/144/62 290/210/60 292/211/60
f 293/212/65 291/144/62 292/211/60
f 291/144/62 293/212/65 294/145/61
f 294/145/61 293/212/65 295/147/60
f 295/147/60 293/212/65 296/213/65
f 295/147/60 296/213/65 297/149/67
f 298/214/62 297/149/67 296/213/65
f 297/149/67 298/214/62 299/150/66
f 300/215/60 299/150/66 298/214/62
f 301/152/60 299/150/66 300/215/60
f 302/216/61 301/152/60 300/215/60
f 303/153/62 301/152/60 302/216/61
f 304/217/61 303/153/62 302/216/61
f 304/217/61 305/154/61 303/153/62
f 306/218/60 305/154/61 304/217/61
f 306/218/60 307/116/60 305/154/61
f 307/116/60 306/218/60 308/199/60
f 311/46/68 309/47/37 310/48/37
f 311/46/68 312/45/68 309/47/37
f 313/44/69 312/45/68 311/46/68
f 313/44/69 314/43/69 312/45/68
f 315/42/70 314/43/69 313/44/69
f 315/42/70 316/41/71 314/43/69
f 317/4/72 316/41/71 315/42/70
f 317/4/72 318/13/72 316/41/71
f 319/40/73 318/13/72 317/4/72
f 319/40/73 320/39/74 318/13/72
f 321/38/75 320/39/74 319/40/73
f 321/38/75 322/37/75 320/39/74
f 323/36/76 322/37/75 321/38/75
f 323/36/76 324/33/76 322/37/75
f 325/34/77 324/33/76 323/36/76
f 325/34/77 326/35/77 324/33/76
f 327/88/78 328/87/79 329/86/79
f 328/87/79 327/88/78 330/89/78
f 331/85/80 329/86/79 328/87/79
f 332/90/81 330/89/78 327/88/78
f 329/86/79 331/85/80 333/82/80
f 330/89/78 332/90/81 334/4/81
f 335/83/82 333/82/80 331/85/80
f 334/4/81 332/90/81 336/98/83
f 333/82/80 335/83/82 337/84/82
f 338/97/83 336/98/83 332/90/81
f 336/98/83 338/97/83 339/96/84
f 340/95/84 339/96/84 338/97/83
f 339/96/84 340/95/84 341/94/85
f 342/92/85 341/94/85 340/95/84
f 341/94/85 342/92/85 343/91/86
f 344/93/86 343/91/86 342/92/85
f 346/101/37 347/100/87 345/114/37
f 347/100/87 346/101/37 348/99/87
f 348/99/87 349/102/69 347/100/87
f 349/102/69 348/99/87 350/103/69
f 350/103/69 351/104/71 349/102/69
f 351/104/71 350/103/69 352/105/88
f 353/90/72 351/104/71 352/105/88
f 351/104/71 353/90/72 354/4/72
f 355/107/74 354/4/72 353/90/72
f 354/4/72 355/107/74 356/106/73
f 355/107/74 357/108/75 356/106/73
f 357/108/75 355/107/74 358/109/75
f 358/109/75 359/110/76 357/108/75
f 359/110/76 358/109/75 360/111/89
f 360/111/89 361/112/77 359/110/76
f 361/112/77 360/111/89 362/113/77
f 365/33/90 364/34/77 363/35/77
f 365/33/90 366/36/91 364/34/77
f 367/37/92 366/36/91 365/33/90
f 367/37/92 368/38/92 366/36/91
f 369/39/93 368/38/92 367/37/92
f 369/39/93 370/40/93 368/38/92
f 371/13/94 370/40/93 369/39/93
f 371/13/94 372/4/94 370/40/93
f 373/41/95 372/4/94 371/13/94
f 373/41/95 374/42/95 372/4/94
f 375/43/96 374/42/95 373/41/95
f 375/43/96 376/44/96 374/42/95
f 377/45/97 376/44/96 375/43/96
f 377/45/97 378/46/98 376/44/96
f 379/47/7 378/46/98 377/45/97
f 379/47/7 380/48/7 378/46/98
f 382/49/82 381/50/99 383/51/100
f 384/52/100 383/51/100 381/50/99
f 383/51/100 384/52/100 385/53/101
f 386/54/102 385/53/101 384/52/100
f 385/53/101 386/54/102 387/55/103
f 388/56/103 387/55/103 386/54/102
f 387/55/103 388/56/103 389/57/104
f 390/13/105 389/57/104 388/56/103
f 391/58/106 389/57/104 390/13/105
f 389/57/104 391/58/106 392/59/106
f 393/60/107 392/59/106 391/58/106
f 392/59/106 393/60/107 394/61/108
f 395/62/109 394/61/108 393/60/107
f 394/61/108 395/62/109 396/63/109
f 397/64/16 396/63/109 395/62/109
f 396/63/109 397/64/16 398/65/110
f 400/66/77 401/67/111 399/68/77
f 401/67/111 400/66/77 402/69/112
f 402/69/112 403/70/92 401/67/111
f 403/70/92 402/69/112 404/71/92
f 404/71/92 405/72/93 403/70/92
f 405/72/93 404/71/92 406/73/93
f 406/73/93 407/13/113 405/72/93
f 407/13/113 406/73/93 408/57/113
f 409/79/114 410/80/7 411/78/97
f 410/80/7 409/79/114 412/81/7
f 411/78/97 413/77/96 409/79/114
f 413/77/96 411/78/97 414/76/96
f 414/76/96 415/75/95 413/77/96
f 415/75/95 414/76/96 416/74/95
f 416/74/95 417/57/113 415/75/95
f 417/57/113 416/74/95 418/13/113
f 467/235/2 468/236/2 469/237/2
f 469/237/2 468/236/2 470/238/2
f 467/235/2 469/237/2 471/239/2
f 471/239/2 469/237/2 472/240/4
f 473/241/2 467/235/2 474/242/2
f 467/235/2 473/241/2 475/243/2
f 475/243/2 473/241/2 476/244/2
f 475/243/2 476/244/2 477/245/2
f 475/243/2 477/245/2 478/246/2
f 475/243/2 479/247/2 467/235/2
f 468/236/2 467/235/2 479/247/2
f 480/248/2 475/243/2 481/249/2
f 479/247/2 475/243/2 480/248/2
f 482/250/2 479/247/2 480/248/2
f 479/247/2 482/250/2 483/251/2
f 483/251/2 482/250/2 484/252/4
f 485/253/2 479/247/2 486/254/2
f 468/236/2 479/247/2 487/255/2
f 485/253/2 487/255/2 479/247/2
f 468/236/2 487/255/2 488/256/2
f 468/236/2 488/256/2 489/257/1
f 487/255/2 485/253/2 490/258/2
f 490/258/2 485/253/2 491/259/5
f 487/255/2 490/258/2 492/260/2
f 487/255/2 492/260/2 493/261/1
f 487/255/2 493/261/1 494/262/2
f 495/263/4 488/256/2 487/255/2
f 495/263/4 487/255/2 496/264/1
f 488/256/2 495/263/4 497/265/1
f 497/265/1 495/263/4 498/266/2
f 501/267/29 500/268/7 499/269/7
f 501/267/29 502/270/115 500/268/7
f 503/271/8 502/270/115 501/267/29
f 503/271/8 504/272/8 502/270/115
f 505/273/9 504/272/8 503/271/8
f 505/273/9 506/274/9 504/272/8
f 507/275/116 506/274/9 505/273/9
f 507/275/116 508/276/10 506/274/9
f 509/277/11 508/276/10 507/275/116
f 509/277/11 510/278/11 508/276/10
f 511/279/12 510/278/11 509/277/11
f 511/279/12 512/280/12 510/278/11
f 513/281/117 512/280/12 511/279/12
f 513/281/117 514/282/14 512/280/12
f 515/283/15 514/282/14 513/281/117
f 515/283/15 516/284/15 514/282/14
f 518/285/118 517/286/118 519/287/119
f 520/288/119 519/287/119 517/286/118
f 519/287/119 520/288/119 521/289/120
f 522/290/121 521/289/120 520/288/119
f 521/289/120 522/290/121 523/291/122
f 524/292/123 523/291/122 522/290/121
f 523/291/122 524/292/123 525/293/124
f 526/275/124 525/293/124 524/292/123
f 527/294/125 525/293/124 526/275/124
f 525/293/124 527/294/125 528/295/125
f 529/296/126 528/295/125 527/294/125
f 528/295/125 529/296/126 530/297/127
f 531/298/128 530/297/127 529/296/126
f 530/297/127 531/298/128 532/299/128
f 533/300/129 532/299/128 531/298/128
f 532/299/128 533/300/129 534/301/129
f 537/302/7 538/303/6 536/304/7
f 538/303/6 537/302/7 539/305/115
f 539/305/115 540/306/8 538/303/6
f 540/306/8 539/305/115 541/307/8
f 541/307/8 542/308/130 540/306/8
f 542/308/130 541/307/8 543/309/9
f 543/309/9 544/275/10 542/308/130
f 544/275/10 543/309/9 545/293/10
f 545/293/10 546/310/131 544/275/10
f 546/310/131 545/293/10 547/311/131
f 547/311/131 548/312/12 546/310/131
f 548/312/12 547/311/131 549/313/12
f 549/313/12 550/314/117 548/312/12
f 550/314/117 549/313/12 551/315/117
f 551/315/117 552/316/15 550/314/117
f 552/316/15 551/315/117 535/317/15
f 553/318/33 554/319/34 555/275/33
f 554/319/34 553/318/33 556/320/34
f 556/320/34 557/321/35 554/319/34
f 557/321/35 556/320/34 558/322/35
f 558/322/35 559/323/36 557/321/35
f 559/323/36 558/322/35 560/324/58
f 560/324/58 561/269/37 559/323/36
f 561/269/37 560/324/58 562/268/37
f 563/325/15 565/326/38 564/327/15
f 565/326/38 563/325/15 566/328/38
f 566/328/38 567/329/39 565/326/38
f 567/329/39 566/328/38 568/330/39
f 568/330/39 569/331/40 567/329/39
f 569/331/40 568/330/39 570/332/40
f 570/332/40 571/275/33 569/331/40
f 571/275/33 570/332/40 572/318/33
f 575/333/132 573/334/133 574/335/133
f 573/334/133 575/333/132 576/336/132
f 577/337/134 576/336/132 575/333/132
f 576/336/132 577/337/134 578/338/134
f 579/339/135 578/338/134 577/337/134
f 578/338/134 579/339/135 580/340/135
f 581/341/136 580/340/135 579/339/135
f 580/340/135 581/341/136 582/318/136
f 583/342/129 585/343/137 584/344/129
f 585/343/137 583/342/129 586/345/138
f 586/345/138 587/346/139 585/343/137
f 587/346/139 586/345/138 588/347/139
f 588/347/139 589/348/140 587/346/139
f 589/348/140 588/347/139 590/349/141
f 590/349/141 591/341/136 589/348/140
f 591/341/136 590/349/141 592/318/136
f 593/350/142 594/351/38 595/352/15
f 596/353/39 594/351/38 593/350/142
f 597/354/39 596/353/39 593/350/142
f 598/355/40 596/353/39 597/354/39
f 599/356/40 598/355/40 597/354/39
f 600/276/33 598/355/40 599/356/40
f 601/357/33 600/276/33 599/356/40
f 602/358/34 600/276/33 601/357/33
f 603/359/34 602/358/34 601/357/33
f 604/360/35 602/358/34 603/359/34
f 605/361/35 604/360/35 603/359/34
f 606/362/143 604/360/35 605/361/35
f 607/363/58 606/362/143 605/361/35
f 606/362/143 607/363/58 608/364/37
f 609/365/37 608/364/37 607/363/58
f 610/366/15 595/352/15 594/351/38
f 611/367/60 612/368/60 613/369/60
f 613/369/60 614/370/60 611/367/60
f 614/370/60 613/369/60 615/371/60
f 612/368/60 611/367/60 616/372/60
f 617/373/60 612/368/60 616/372/60
f 612/368/60 617/373/60 618/374/60
f 619/375/60 618/374/60 617/373/60
f 618/374/60 619/375/60 620/248/60
f 621/376/60 620/248/60 619/375/60
f 620/248/60 621/376/60 622/249/60
f 623/377/60 622/249/60 621/376/60
f 622/249/60 623/377/60 624/243/60
f 625/378/60 624/243/60 623/377/60
f 624/243/60 625/378/60 626/246/60
f 627/379/60 626/246/60 625/378/60
f 626/246/60 627/379/60 628/245/60
f 629/380/60 628/245/60 627/379/60
f 628/245/60 629/380/60 630/244/60
f 631/381/60 630/244/60 629/380/60
f 630/244/60 631/381/60 632/241/60
f 633/382/60 632/241/60 631/381/60
f 632/241/60 633/382/60 634/242/60
f 635/383/60 634/242/60 633/382/60
f 634/242/60 635/383/60 636/235/60
f 635/383/60 637/239/60 636/235/60
f 637/239/60 635/383/60 638/384/60
f 639/385/60 637/239/60 638/384/60
f 637/239/60 639/385/60 640/386/60
f 640/386/60 639/385/60 641/387/60
f 641/387/60 639/385/60 642/388/60
f 643/238/60 641/387/60 642/388/60
f 644/389/60 643/238/60 642/388/60
f 645/390/60 643/238/60 644/389/60
f 643/238/60 645/390/60 646/391/60
f 647/392/60 646/391/60 645/390/60
f 646/391/60 647/392/60 648/393/60
f 649/394/60 648/393/60 647/392/60
f 648/393/60 649/394/60 650/395/60
f 651/396/60 650/395/60 649/394/60
f 650/395/60 651/396/60 652/397/60
f 651/396/60 653/398/60 652/397/60
f 653/398/60 651/396/60 654/399/60
f 655/400/60 653/398/60 654/399/60
f 653/398/60 655/400/60 656/401/60
f 655/400/60 657/264/60 656/401/60
f 657/264/60 655/400/60 658/402/60
f 658/402/60 659/403/60 657/264/60
f 659/403/60 658/402/60 660/404/60
f 661/405/60 659/403/60 660/404/60
f 659/403/60 661/405/60 662/262/60
f 662/262/60 661/405/60 663/406/60
f 663/406/60 661/405/60 664/407/60
f 665/408/60 663/406/60 664/407/60
f 666/409/60 665/408/60 664/407/60
f 667/410/60 665/408/60 666/409/60
f 668/411/60 667/410/60 666/409/60
f 669/412/60 667/410/60 668/411/60
f 668/411/60 670/413/60 669/412/60
f 670/413/60 671/414/60 669/412/60
f 671/414/60 670/413/60 672/415/60
f 672/415/60 673/416/60 671/414/60
f 673/416/60 672/415/60 674/417/60
f 674/417/60 675/371/60 673/416/60
f 675/371/60 674/417/60 676/370/60
f 677/418/60 678/419/60 679/420/60
f 678/419/60 677/418/60 680/421/60
f 677/418/60 681/422/61 680/421/60
f 681/422/61 677/418/60 682/423/60
f 683/424/60 678/419/60 684/425/60
f 679/420/60 678/419/60 683/424/60
f 685/426/60 677/418/60 679/420/60
f 677/418/60 685/426/60 686/427/60
f 686/427/60 685/426/60 687/428/65
f 685/426/60 679/420/60 688/429/61
f 685/426/60 688/429/61 689/430/63
f 685/426/60 690/431/62 687/428/65
f 687/428/65 690/431/62 691/432/60
f 690/431/62 685/426/60 692/433/60
f 692/433/60 685/426/60 693/434/60
f 694/435/60 679/420/60 683/424/60
f 694/435/60 683/424/60 695/436/60
f 694/435/60 695/436/60 696/437/144
f 696/437/144 695/436/60 697/438/60
f 695/436/60 683/424/60 698/439/60
f 698/439/60 683/424/60 699/440/61
f 698/439/60 699/440/61 700/441/62
f 698/439/60 700/441/62 701/442/63
f 702/443/60 679/420/60 694/435/60
f 702/443/60 694/435/60 703/444/60
f 679/420/60 702/443/60 704/445/60
f 705/446/60 704/445/60 702/443/60
f 705/446/60 702/443/60 706/447/60
f 704/445/60 705/446/60 707/448/63
f 707/448/63 705/446/60 708/449/60
f 709/377/60 710/450/60 711/378/60
f 710/450/60 709/377/60 712/451/60
f 713/452/60 711/378/60 710/450/60
f 712/451/60 709/377/60 714/453/60
f 711/378/60 713/452/60 715/379/60
f 716/376/60 714/453/60 709/377/60
f 717/454/60 715/379/60 713/452/60
f 718/375/60 714/453/60 716/376/60
f 715/379/60 717/454/60 719/380/60
f 714/453/60 718/375/60 720/455/60
f 721/456/60 719/380/60 717/454/60
f 722/373/60 720/455/60 718/375/60
f 719/380/60 721/456/60 723/381/60
f 720/455/60 722/373/60 724/457/60
f 725/458/60 723/381/60 721/456/60
f 723/381/60 725/458/60 726/382/60
f 727/372/60 724/457/60 722/373/60
f 724/457/60 727/372/60 728/459/62
f 727/372/60 729/460/60 728/459/62
f 730/461/60 726/382/60 725/458/60
f 729/460/60 727/372/60 731/367/60
f 731/367/60 732/462/60 729/460/60
f 732/462/60 731/367/60 733/370/60
f 726/382/60 730/461/60 734/383/60
f 730/461/60 735/384/60 734/383/60
f 735/384/60 730/461/60 736/463/60
f 737/464/60 735/384/60 736/463/60
f 735/384/60 737/464/60 738/385/60
f 738/385/60 737/464/60 739/388/60
f 739/388/60 737/464/60 740/465/60
f 739/388/60 740/465/60 741/389/60
f 742/466/60 741/389/60 740/465/60
f 743/467/60 741/389/60 742/466/60
f 741/389/60 743/467/60 744/390/60
f 745/468/60 744/390/60 743/467/60
f 744/390/60 745/468/60 746/392/60
f 747/469/60 746/392/60 745/468/60
f 746/392/60 747/469/60 748/394/60
f 747/469/60 749/396/60 748/394/60
f 750/470/60 749/396/60 747/469/60
f 750/470/60 751/399/60 749/396/60
f 751/399/60 750/470/60 752/471/60
f 752/471/60 753/400/60 751/399/60
f 753/400/60 752/471/60 754/472/60
f 754/472/60 755/402/60 753/400/60
f 755/402/60 754/472/60 756/473/60
f 756/473/60 757/404/60 755/402/60
f 757/404/60 756/473/60 758/474/60
f 759/475/60 757/404/60 758/474/60
f 757/404/60 759/475/60 760/405/60
f 760/405/60 759/475/60 761/407/60
f 761/407/60 759/475/60 762/476/60
f 761/407/60 762/476/60 763/409/60
f 764/477/60 763/409/60 762/476/60
f 763/409/60 764/477/60 765/411/60
f 766/478/60 765/411/60 764/477/60
f 767/413/60 765/411/60 766/478/60
f 768/479/60 767/413/60 766/478/60
f 769/415/60 767/413/60 768/479/60
f 770/480/60 769/415/60 768/479/60
f 770/480/60 771/417/60 769/415/60
f 772/481/60 771/417/60 770/480/60
f 772/481/60 773/370/60 771/417/60
f 773/370/60 772/481/60 774/462/60
f 777/282/145 775/283/37 776/284/37
f 777/282/145 778/281/146 775/283/37
f 779/482/69 778/281/146 777/282/145
f 779/482/69 780/329/69 778/281/146
f 781/278/88 780/329/69 779/482/69
f 781/278/88 782/277/88 780/329/69
f 783/318/72 782/277/88 781/278/88
f 783/318/72 784/483/147 782/277/88
f 785/320/74 784/483/147 783/318/72
f 785/320/74 786/319/74 784/483/147
f 787/322/75 786/319/74 785/320/74
f 787/322/75 788/321/75 786/319/74
f 789/324/89 788/321/75 787/322/75
f 789/324/89 790/484/89 788/321/75
f 791/268/77 790/484/89 789/324/89
f 791/268/77 792/269/77 790/484/89
f 793/339/148 794/338/149 795/337/149
f 794/338/149 793/339/148 796/340/148
f 797/336/150 795/337/149 794/338/149
f 798/357/151 796/340/148 793/339/148
f 795/337/149 797/336/150 799/485/150
f 796/340/148 798/357/151 800/276/152
f 801/486/153 799/485/150 797/336/150
f 800/276/152 798/357/151 802/487/154
f 799/485/150 801/486/153 803/488/153
f 804/348/155 802/487/154 798/357/151
f 802/487/154 804/348/155 805/489/156
f 806/346/156 805/489/156 804/348/155
f 805/489/156 806/346/156 807/345/157
f 808/490/157 807/345/157 806/346/156
f 807/345/157 808/490/157 809/342/133
f 810/491/133 809/342/133 808/490/157
f 812/492/37 813/493/87 811/494/37
f 813/493/87 812/492/37 814/495/87
f 814/495/87 815/496/69 813/493/87
f 815/496/69 814/495/87 816/497/69
f 816/497/69 817/355/88 815/496/69
f 817/355/88 816/497/69 818/356/88
f 819/357/72 817/355/88 818/356/88
f 817/355/88 819/357/72 820/276/72
f 821/498/74 820/276/72 819/357/72
f 820/276/72 821/498/74 822/499/158
f 821/498/74 823/360/75 822/499/158
f 823/360/75 821/498/74 824/361/75
f 824/361/75 825/362/89 823/360/75
f 825/362/89 824/361/75 826/363/89
f 826/363/89 827/500/77 825/362/89
f 827/500/77 826/363/89 828/501/77
f 831/323/111 830/268/77 829/269/77
f 831/323/111 832/502/90 830/268/77
f 833/503/92 832/502/90 831/323/111
f 833/503/92 834/504/92 832/502/90
f 835/273/93 834/504/92 833/503/92
f 835/273/93 836/274/159 834/504/92
f 837/275/113 836/274/159 835/273/93
f 837/275/113 838/276/113 836/274/159
f 839/277/95 838/276/113 837/275/113
f 839/277/95 840/278/95 838/276/113
f 841/279/96 840/278/95 839/277/95
f 841/279/96 842/280/96 840/278/95
f 843/281/98 842/280/96 841/279/96
f 843/281/98 844/282/98 842/280/96
f 845/283/7 844/282/98 843/281/98
f 845/283/7 846/284/7 844/282/98
f 848/505/153 847/506/153 849/507/160
f 850/288/160 849/507/160 847/506/153
f 849/507/160 850/288/160 851/289/161
f 852/508/162 851/289/161 850/288/160
f 851/289/161 852/508/162 853/291/163
f 854/292/163 853/291/163 852/508/162
f 853/291/163 854/292/163 855/293/164
f 856/275/165 855/293/164 854/292/163
f 857/294/166 855/293/164 856/275/165
f 855/293/164 857/294/166 858/509/167
f 859/296/168 858/509/167 857/294/166
f 858/509/167 859/296/168 860/510/168
f 861/511/169 860/510/168 859/296/168
f 860/510/168 861/511/169 862/299/169
f 863/512/118 862/299/169 861/511/169
f 862/299/169 863/512/118 864/301/118
f 866/302/77 867/513/91 865/304/77
f 867/513/91 866/302/77 868/514/90
f 868/514/90 869/306/92 867/513/91
f 869/306/92 868/514/90 870/307/92
f 870/307/92 871/308/93 869/306/92
f 871/308/93 870/307/92 872/309/93
f 872/309/93 873/483/113 871/308/93
f 873/483/113 872/309/93 874/515/113
f 875/315/98 876/316/7 877/314/97
f 876/316/7 875/315/98 878/317/7
f 877/314/97 879/313/96 875/315/98
f 879/313/96 877/314/97 880/312/96
f 880/312/96 881/311/95 879/313/96
f 881/311/95 880/312/96 882/310/170
f 882/310/170 883/515/113 881/311/95
f 883/515/113 882/310/170 884/483/113
usemtl Forwards1Mtl
f 419/219/2 420/220/2 421/221/2
f 421/221/2 420/220/2 422/222/2
f 423/223/10 424/220/10 425/224/10
f 425/224/10 424/220/10 426/225/10
f 427/223/33 428/220/33 429/226/33
f 429/226/33 428/220/33 430/222/33
f 431/219/60 432/220/60 433/221/60
f 433/221/60 432/220/60 434/222/60
f 435/223/72 436/220/72 437/224/72
f 437/224/72 436/220/72 438/225/72
f 439/223/113 440/220/113 441/226/113
f 441/226/113 440/220/113 442/222/113
usemtl Backwards1Mtl
f 443/227/2 444/228/2 445/229/2
f 445/229/2 444/228/2 446/230/2
f 447/231/10 448/228/10 449/232/10
f 449/232/10 448/228/10 450/233/10
f 451/231/33 452/228/33 453/234/33
f 453/234/33 452/228/33 454/230/33
f 455/227/60 456/228/60 457/229/60
f 457/229/60 456/228/60 458/230/60
f 459/231/72 460/228/72 461/232/72
f 461/232/72 460/228/72 462/233/72
f 463/231/113 464/228/113 465/234/113
f 465/234/113 464/228/113 466/230/113
