# Blender 5.1.2
# www.blender.org
mtllib Sledge.mtl
o Sledge
v 0.564399 0.257048 -0.257088
v 0.564399 0.257048 0.257015
v 0.564399 -0.257042 -0.257088
v 0.564399 -0.257042 0.257015
v 0.564399 0.257048 -0.257088
v 0.300001 0.299998 0.300014
v 0.564399 0.257048 0.257015
v 0.300001 0.299998 -0.299988
v -0.300000 0.299998 -0.299988
v -0.564399 0.257048 0.257015
v -0.300000 0.299998 0.300014
v -0.564399 0.257048 -0.257088
v 0.300001 0.299998 -0.299988
v -0.300000 0.299998 -0.299988
v -0.300000 0.299998 0.300014
v 0.300001 0.299998 0.300014
v 0.300001 -0.300002 0.300015
v 0.564399 0.257048 0.257015
v 0.300001 0.299998 0.300014
v 0.564399 -0.257042 0.257015
v -0.564399 -0.257042 0.257015
v -0.300000 0.299998 0.300014
v -0.564399 0.257048 0.257015
v -0.300000 -0.300002 0.300015
v -0.300000 -0.300002 0.300015
v 0.300001 -0.300002 0.300015
v -0.300000 0.299998 0.300014
v 0.300001 0.299998 0.300014
v -0.564399 0.257048 -0.257088
v -0.564399 -0.257042 -0.257088
v -0.564399 -0.257042 0.257015
v -0.564399 0.257048 0.257015
v 0.300001 -0.300002 -0.299988
v 0.564399 -0.257042 0.257015
v 0.300001 -0.300002 0.300015
v 0.564399 -0.257042 -0.257088
v -0.564399 -0.257042 -0.257088
v -0.300000 -0.300002 0.300015
v -0.564399 -0.257042 0.257015
v -0.300000 -0.300002 -0.299988
v -0.300000 -0.300002 -0.299988
v 0.300001 -0.300002 -0.299988
v 0.300001 -0.300002 0.300015
v -0.300000 -0.300002 0.300015
v 0.300001 0.299998 -0.299988
v 0.564399 -0.257042 -0.257088
v 0.300001 -0.300002 -0.299988
v 0.564399 0.257048 -0.257088
v -0.564399 0.257048 -0.257088
v -0.300000 -0.300002 -0.299988
v -0.564399 -0.257042 -0.257088
v -0.300000 0.299998 -0.299988
v 0.300001 0.299998 -0.299988
v -0.300000 -0.300002 -0.299988
v -0.300000 0.299998 -0.299988
v 0.300001 -0.300002 -0.299988
vn 1.0000 -0.0000 -0.0000
vn 0.1580 0.9874 -0.0000
vn -0.1580 0.9874 -0.0000
vn -0.0000 1.0000 -0.0000
vn 0.1580 -0.0000 0.9874
vn -0.1580 -0.0000 0.9874
vn -0.0000 -0.0000 1.0000
vn -1.0000 -0.0000 -0.0000
vn 0.1580 -0.9874 -0.0000
vn -0.1580 -0.9874 -0.0000
vn -0.0000 -1.0000 -0.0000
vn 0.1580 -0.0000 -0.9874
vn -0.1580 -0.0000 -0.9874
vn -0.0000 -0.0000 -1.0000
vt 0.597680 2.054010
vt 0.494861 2.054010
vt 0.597680 1.951190
vt 0.494861 1.951190
vt 0.433391 1.951190
vt 0.486271 2.062600
vt 0.433391 2.054010
vt 0.486271 1.942600
vt 0.606271 1.942600
vt 0.659151 2.054010
vt 0.606271 2.062600
vt 0.659151 1.951190
s 1
usemtl Sledge1Mtl
f 1/1/1 2/2/1 3/3/1
f 3/3/1 2/2/1 4/4/1
f 5/5/2 6/6/2 7/7/2
f 6/6/2 5/5/2 8/8/2
f 9/9/3 10/10/3 11/11/3
f 10/10/3 9/9/3 12/12/3
f 13/8/4 14/9/4 15/11/4
f 13/8/4 15/11/4 16/6/4
f 17/9/5 18/10/5 19/11/5
f 18/10/5 17/9/5 20/12/5
f 21/5/6 22/6/6 23/7/6
f 22/6/6 21/5/6 24/8/6
f 25/8/7 26/9/7 27/6/7
f 26/9/7 28/11/7 27/6/7
f 29/2/8 30/4/8 31/3/8
f 29/2/8 31/3/8 32/1/8
f 33/9/9 34/10/9 35/11/9
f 34/10/9 33/9/9 36/12/9
f 37/5/10 38/6/10 39/7/10
f 38/6/10 37/5/10 40/8/10
f 41/8/11 42/9/11 43/11/11
f 41/8/11 43/11/11 44/6/11
f 45/6/12 46/5/12 47/8/12
f 46/5/12 45/6/12 48/7/12
f 49/10/13 50/9/13 51/12/13
f 50/9/13 49/10/13 52/11/13
f 53/6/14 54/9/14 55/11/14
f 54/9/14 53/6/14 56/8/14
