# Blender 5.1.2
# www.blender.org
mtllib Splitter_2.mtl
o Splitter_2
v -0.329594 0.050728 0.244728
v -0.329594 -0.099272 0.244728
v -0.281913 0.050728 0.306929
v -0.281913 -0.099272 0.306929
v -0.251944 0.050728 0.379229
v -0.251944 -0.099272 0.379229
v -0.241724 0.050728 0.456928
v -0.241724 -0.099272 0.456928
v -0.251944 0.050728 0.534529
v -0.251944 -0.099272 0.534529
v -0.281913 0.050728 0.606928
v -0.281913 -0.099272 0.606928
v -0.329594 0.050728 0.669029
v -0.329594 -0.099272 0.669029
v -0.745594 0.050728 0.574629
v -0.700034 0.019078 0.615229
v -0.735613 0.019078 0.568829
v -0.708183 0.050728 0.623329
v -0.757974 0.019078 0.514830
v -0.735613 0.019078 0.568829
v -0.769104 0.050728 0.517828
v -0.745594 0.050728 0.574629
v -0.765604 0.019078 0.456928
v -0.757974 0.019078 0.514830
v -0.777123 0.050728 0.456928
v -0.769104 0.050728 0.517828
v -0.757974 0.019078 0.398930
v -0.765604 0.019078 0.456928
v -0.777123 0.050728 0.456928
v -0.769104 0.050728 0.395929
v -0.735613 0.019078 0.344929
v -0.757974 0.019078 0.398930
v -0.769104 0.050728 0.395929
v -0.745594 0.050728 0.339230
v -0.700034 0.019078 0.298628
v -0.735613 0.019078 0.344929
v -0.745594 0.050728 0.339230
v -0.708183 0.050728 0.290428
v -0.691723 0.050728 0.197128
v -0.708183 0.050728 0.290428
v -0.659423 0.050728 0.253029
v -0.753853 0.050728 0.244728
v -0.745594 0.050728 0.339230
v -0.753853 0.050728 0.244728
v -0.801534 0.050728 0.306929
v -0.708183 0.050728 0.290428
v -0.541724 0.050728 0.156929
v -0.602654 0.050728 0.229528
v -0.541724 0.050728 0.221529
v -0.619363 0.050728 0.167130
v -0.602654 0.050728 0.229528
v -0.691723 0.050728 0.197128
v -0.659423 0.050728 0.253029
v -0.619363 0.050728 0.167130
v -0.831503 0.050728 0.379229
v -0.777123 0.050728 0.456928
v -0.769104 0.050728 0.395929
v -0.841723 0.050728 0.456928
v -0.777123 0.050728 0.456928
v -0.841723 0.050728 0.456928
v -0.831503 0.050728 0.534529
v -0.769104 0.050728 0.517828
v -0.801534 0.050728 0.606928
v -0.745594 0.050728 0.574629
v -0.831503 0.050728 0.534529
v -0.769104 0.050728 0.517828
v -0.831503 0.050728 0.379229
v -0.745594 0.050728 0.339230
v -0.801534 0.050728 0.306929
v -0.769104 0.050728 0.395929
v -0.659423 0.050728 0.660728
v -0.753853 0.050728 0.669029
v -0.691723 0.050728 0.716728
v -0.708183 0.050728 0.623329
v -0.602654 0.050728 0.684328
v -0.691723 0.050728 0.716728
v -0.619363 0.050728 0.746628
v -0.659423 0.050728 0.660728
v -0.541724 0.050728 0.692329
v -0.619363 0.050728 0.746628
v -0.541724 0.050728 0.756929
v -0.619363 0.050728 0.746628
v -0.541724 0.050728 0.692329
v -0.602654 0.050728 0.684328
v -0.708183 0.050728 0.623329
v -0.801534 0.050728 0.606928
v -0.753853 0.050728 0.669029
v -0.745594 0.050728 0.574629
v -0.541724 0.050728 0.756929
v -0.480793 0.050728 0.684328
v -0.541724 0.050728 0.692329
v -0.464074 0.050728 0.746628
v -0.464074 0.050728 0.746628
v -0.424024 0.050728 0.660728
v -0.480793 0.050728 0.684328
v -0.391724 0.050728 0.716728
v -0.424024 0.050728 0.660728
v -0.391724 0.050728 0.716728
v -0.375264 0.050728 0.623329
v -0.329594 0.050728 0.669029
v -0.281913 0.050728 0.606928
v -0.337853 0.050728 0.574629
v -0.329594 0.050728 0.669029
v -0.375264 0.050728 0.623329
v -0.314333 0.050728 0.395929
v -0.281913 0.050728 0.306929
v -0.337853 0.050728 0.339230
v -0.251944 0.050728 0.379229
v -0.281913 0.050728 0.606928
v -0.251944 0.050728 0.534529
v -0.337853 0.050728 0.574629
v -0.314333 0.050728 0.517828
v -0.314333 0.050728 0.517828
v -0.241724 0.050728 0.456928
v -0.306314 0.050728 0.456928
v -0.241724 0.050728 0.456928
v -0.314333 0.050728 0.517828
v -0.251944 0.050728 0.534529
v -0.306314 0.050728 0.456928
v -0.251944 0.050728 0.379229
v -0.314333 0.050728 0.395929
v -0.241724 0.050728 0.456928
v -0.391724 0.050728 0.197128
v -0.480793 0.050728 0.229528
v -0.424024 0.050728 0.253029
v -0.464074 0.050728 0.167130
v -0.464074 0.050728 0.167130
v -0.541724 0.050728 0.156929
v -0.480793 0.050728 0.229528
v -0.541724 0.050728 0.221529
v -0.337853 0.050728 0.339230
v -0.329594 0.050728 0.244728
v -0.375264 0.050728 0.290428
v -0.281913 0.050728 0.306929
v -0.375264 0.050728 0.290428
v -0.329594 0.050728 0.244728
v -0.424024 0.050728 0.253029
v -0.391724 0.050728 0.197128
v -0.471454 -0.046692 0.438028
v -0.408073 -0.032142 0.421129
v -0.478724 -0.046692 0.420528
v -0.541724 -0.051702 0.456928
v -0.421894 -0.032142 0.387730
v -0.357763 -0.009482 0.407629
v -0.376793 -0.009482 0.361629
v -0.325463 0.019078 0.398930
v -0.347834 0.019078 0.344929
v -0.357763 -0.009482 0.407629
v -0.403354 -0.032142 0.456928
v -0.351274 -0.009482 0.456928
v -0.317833 0.019078 0.456928
v -0.408073 -0.032142 0.421129
v -0.325463 0.019078 0.398930
v -0.471454 -0.046692 0.438028
v -0.468974 -0.046692 0.456928
v -0.541724 -0.051702 0.456928
v -0.317833 0.019078 0.456928
v -0.357763 -0.009482 0.506229
v -0.325463 0.019078 0.514830
v -0.351274 -0.009482 0.456928
v -0.403354 -0.032142 0.456928
v -0.408073 -0.032142 0.492729
v -0.471454 -0.046692 0.475729
v -0.468974 -0.046692 0.456928
v -0.541724 -0.051702 0.456928
v -0.541724 -0.051702 0.456928
v -0.478724 -0.046692 0.493229
v -0.471454 -0.046692 0.475729
v -0.408073 -0.032142 0.492729
v -0.421894 -0.032142 0.526129
v -0.357763 -0.009482 0.506229
v -0.376793 -0.009482 0.552128
v -0.325463 0.019078 0.514830
v -0.347834 0.019078 0.568829
v -0.383413 0.019078 0.615229
v -0.347834 0.019078 0.568829
v -0.376793 -0.009482 0.552128
v -0.407053 -0.009482 0.591528
v -0.443883 -0.032142 0.554729
v -0.421894 -0.032142 0.526129
v -0.490283 -0.046692 0.508329
v -0.478724 -0.046692 0.493229
v -0.541724 -0.051702 0.456928
v -0.505353 -0.046692 0.519928
v -0.443883 -0.032142 0.554729
v -0.490283 -0.046692 0.508329
v -0.541724 -0.051702 0.456928
v -0.472534 -0.032142 0.576729
v -0.446494 -0.009482 0.621828
v -0.407053 -0.009482 0.591528
v -0.429783 0.019078 0.650829
v -0.383413 0.019078 0.615229
v -0.505914 -0.032142 0.590528
v -0.446494 -0.009482 0.621828
v -0.472534 -0.032142 0.576729
v -0.505353 -0.046692 0.519928
v -0.522893 -0.046692 0.527128
v -0.541724 -0.051702 0.456928
v -0.492434 -0.009482 0.640829
v -0.483774 0.019078 0.673128
v -0.429783 0.019078 0.650829
v -0.591013 -0.009482 0.640829
v -0.541724 0.019078 0.680828
v -0.541724 -0.009482 0.647329
v -0.599664 0.019078 0.673128
v -0.577534 -0.032142 0.590528
v -0.541724 -0.032142 0.595228
v -0.560554 -0.046692 0.527128
v -0.541724 -0.046692 0.529629
v -0.541724 -0.051702 0.456928
v -0.591013 -0.009482 0.640829
v -0.636943 -0.009482 0.621828
v -0.653664 0.019078 0.650829
v -0.610903 -0.032142 0.576729
v -0.599664 0.019078 0.673128
v -0.577534 -0.032142 0.590528
v -0.578094 -0.046692 0.519928
v -0.560554 -0.046692 0.527128
v -0.541724 -0.051702 0.456928
v -0.541724 -0.051702 0.456928
v -0.593163 -0.046692 0.508329
v -0.578094 -0.046692 0.519928
v -0.639564 -0.032142 0.554729
v -0.610903 -0.032142 0.576729
v -0.636943 -0.009482 0.621828
v -0.676383 -0.009482 0.591528
v -0.653664 0.019078 0.650829
v -0.700034 0.019078 0.615229
v -0.700034 0.019078 0.615229
v -0.735613 0.019078 0.568829
v -0.706654 -0.009482 0.552128
v -0.676383 -0.009482 0.591528
v -0.639564 -0.032142 0.554729
v -0.661553 -0.032142 0.526129
v -0.593163 -0.046692 0.508329
v -0.604723 -0.046692 0.493229
v -0.541724 -0.051702 0.456928
v -0.661553 -0.032142 0.526129
v -0.611983 -0.046692 0.475729
v -0.675374 -0.032142 0.492729
v -0.604723 -0.046692 0.493229
v -0.541724 -0.051702 0.456928
v -0.706654 -0.009482 0.552128
v -0.725684 -0.009482 0.506229
v -0.757974 0.019078 0.514830
v -0.735613 0.019078 0.568829
v -0.610903 -0.032142 0.337029
v -0.578094 -0.046692 0.393929
v -0.577534 -0.032142 0.323229
v -0.560554 -0.046692 0.386629
v -0.541724 -0.051702 0.456928
v -0.591013 -0.009482 0.272928
v -0.636943 -0.009482 0.291929
v -0.653664 0.019078 0.263029
v -0.599664 0.019078 0.240629
v -0.541724 -0.009482 0.266428
v -0.591013 -0.009482 0.272928
v -0.577534 -0.032142 0.323229
v -0.599664 0.019078 0.240629
v -0.541724 -0.032142 0.318529
v -0.541724 0.019078 0.233028
v -0.560554 -0.046692 0.386629
v -0.541724 -0.046692 0.384129
v -0.541724 -0.051702 0.456928
v -0.541724 -0.009482 0.266428
v -0.505914 -0.032142 0.323229
v -0.492434 -0.009482 0.272928
v -0.483774 0.019078 0.240629
v -0.541724 -0.032142 0.318529
v -0.541724 0.019078 0.233028
v -0.522893 -0.046692 0.386629
v -0.541724 -0.046692 0.384129
v -0.541724 -0.051702 0.456928
v -0.541724 -0.051702 0.456928
v -0.505353 -0.046692 0.393929
v -0.522893 -0.046692 0.386629
v -0.505914 -0.032142 0.323229
v -0.472534 -0.032142 0.337029
v -0.492434 -0.009482 0.272928
v -0.446494 -0.009482 0.291929
v -0.483774 0.019078 0.240629
v -0.429783 0.019078 0.263029
v -0.383413 0.019078 0.298628
v -0.429783 0.019078 0.263029
v -0.407053 -0.009482 0.322229
v -0.446494 -0.009482 0.291929
v -0.472534 -0.032142 0.337029
v -0.443883 -0.032142 0.359028
v -0.505353 -0.046692 0.393929
v -0.490283 -0.046692 0.405428
v -0.541724 -0.051702 0.456928
v -0.478724 -0.046692 0.420528
v -0.443883 -0.032142 0.359028
v -0.490283 -0.046692 0.405428
v -0.541724 -0.051702 0.456928
v -0.421894 -0.032142 0.387730
v -0.407053 -0.009482 0.322229
v -0.376793 -0.009482 0.361629
v -0.383413 0.019078 0.298628
v -0.347834 0.019078 0.344929
v -0.541724 -0.009482 0.647329
v -0.505914 -0.032142 0.590528
v -0.541724 -0.032142 0.595228
v -0.492434 -0.009482 0.640829
v -0.522893 -0.046692 0.527128
v -0.541724 -0.046692 0.529629
v -0.541724 -0.051702 0.456928
v -0.541724 0.019078 0.680828
v -0.483774 0.019078 0.673128
v -0.732173 -0.009482 0.456928
v -0.675374 -0.032142 0.492729
v -0.680093 -0.032142 0.456928
v -0.614463 -0.046692 0.456928
v -0.611983 -0.046692 0.475729
v -0.541724 -0.051702 0.456928
v -0.725684 -0.009482 0.506229
v -0.765604 0.019078 0.456928
v -0.757974 0.019078 0.514830
v -0.725684 -0.009482 0.407629
v -0.680093 -0.032142 0.456928
v -0.675374 -0.032142 0.421129
v -0.732173 -0.009482 0.456928
v -0.614463 -0.046692 0.456928
v -0.611983 -0.046692 0.438028
v -0.541724 -0.051702 0.456928
v -0.757974 0.019078 0.398930
v -0.765604 0.019078 0.456928
v -0.735613 0.019078 0.344929
v -0.725684 -0.009482 0.407629
v -0.706654 -0.009482 0.361629
v -0.661553 -0.032142 0.387730
v -0.757974 0.019078 0.398930
v -0.675374 -0.032142 0.421129
v -0.604723 -0.046692 0.420528
v -0.611983 -0.046692 0.438028
v -0.541724 -0.051702 0.456928
v -0.541724 -0.051702 0.456928
v -0.593163 -0.046692 0.405428
v -0.604723 -0.046692 0.420528
v -0.639564 -0.032142 0.359028
v -0.661553 -0.032142 0.387730
v -0.706654 -0.009482 0.361629
v -0.676383 -0.009482 0.322229
v -0.700034 0.019078 0.298628
v -0.735613 0.019078 0.344929
v -0.578094 -0.046692 0.393929
v -0.639564 -0.032142 0.359028
v -0.593163 -0.046692 0.405428
v -0.541724 -0.051702 0.456928
v -0.610903 -0.032142 0.337029
v -0.676383 -0.009482 0.322229
v -0.636943 -0.009482 0.291929
v -0.653664 0.019078 0.263029
v -0.700034 0.019078 0.298628
v -0.619363 -0.099272 0.746628
v -0.541724 -0.099272 0.756929
v -0.619363 0.050728 0.746628
v -0.541724 0.050728 0.756929
v -0.691723 0.050728 0.716728
v -0.691723 -0.099272 0.716728
v -0.753853 0.050728 0.669029
v -0.753853 -0.099272 0.669029
v -0.329594 0.050728 0.669029
v -0.329594 -0.099272 0.669029
v -0.391724 0.050728 0.716728
v -0.391724 -0.099272 0.716728
v -0.464074 0.050728 0.746628
v -0.464074 -0.099272 0.746628
v -0.541724 0.050728 0.756929
v -0.541724 -0.099272 0.756929
v -0.653664 0.019078 0.263029
v -0.599664 0.019078 0.240629
v -0.602654 0.050728 0.229528
v -0.659423 0.050728 0.253029
v -0.599664 0.019078 0.240629
v -0.541724 0.019078 0.233028
v -0.541724 0.050728 0.221529
v -0.602654 0.050728 0.229528
v -0.483774 0.019078 0.240629
v -0.541724 0.019078 0.233028
v -0.541724 0.050728 0.221529
v -0.480793 0.050728 0.229528
v -0.483774 0.019078 0.240629
v -0.429783 0.019078 0.263029
v -0.480793 0.050728 0.229528
v -0.424024 0.050728 0.253029
v -0.383413 0.019078 0.298628
v -0.424024 0.050728 0.253029
v -0.429783 0.019078 0.263029
v -0.375264 0.050728 0.290428
v -0.653664 0.019078 0.263029
v -0.700034 0.019078 0.298628
v -0.659423 0.050728 0.253029
v -0.708183 0.050728 0.290428
v -0.753853 0.050728 0.669029
v -0.753853 -0.099272 0.669029
v -0.801534 0.050728 0.606928
v -0.801534 -0.099272 0.606928
v -0.831503 0.050728 0.534529
v -0.831503 -0.099272 0.534529
v -0.841723 0.050728 0.456928
v -0.841723 -0.099272 0.456928
v -0.831503 0.050728 0.379229
v -0.831503 -0.099272 0.379229
v -0.801534 0.050728 0.306929
v -0.801534 -0.099272 0.306929
v -0.753853 0.050728 0.244728
v -0.753853 -0.099272 0.244728
v -0.325463 0.019078 0.398930
v -0.347834 0.019078 0.344929
v -0.314333 0.050728 0.395929
v -0.337853 0.050728 0.339230
v -0.317833 0.019078 0.456928
v -0.325463 0.019078 0.398930
v -0.306314 0.050728 0.456928
v -0.314333 0.050728 0.395929
v -0.317833 0.019078 0.456928
v -0.325463 0.019078 0.514830
v -0.306314 0.050728 0.456928
v -0.314333 0.050728 0.517828
v -0.325463 0.019078 0.514830
v -0.347834 0.019078 0.568829
v -0.314333 0.050728 0.517828
v -0.337853 0.050728 0.574629
v -0.337853 0.050728 0.574629
v -0.383413 0.019078 0.615229
v -0.375264 0.050728 0.623329
v -0.347834 0.019078 0.568829
v -0.383413 0.019078 0.298628
v -0.347834 0.019078 0.344929
v -0.337853 0.050728 0.339230
v -0.375264 0.050728 0.290428
v -0.329594 -0.099272 0.244728
v -0.801534 -0.099272 0.606928
v -0.691723 -0.099272 0.197128
v -0.464074 -0.099272 0.167130
v -0.391724 -0.099272 0.197128
v -0.541724 -0.099272 0.156929
v -0.619363 -0.099272 0.167130
v -0.329594 -0.099272 0.669029
v -0.281913 -0.099272 0.306929
v -0.841723 -0.099272 0.456928
v -0.831503 -0.099272 0.534529
v -0.831503 -0.099272 0.379229
v -0.753853 -0.099272 0.244728
v -0.801534 -0.099272 0.306929
v -0.241724 -0.099272 0.456928
v -0.251944 -0.099272 0.379229
v -0.281913 -0.099272 0.606928
v -0.251944 -0.099272 0.534529
v -0.691723 -0.099272 0.716728
v -0.753853 -0.099272 0.669029
v -0.541724 -0.099272 0.756929
v -0.619363 -0.099272 0.746628
v -0.391724 -0.099272 0.716728
v -0.464074 -0.099272 0.746628
v -0.753853 0.050728 0.244728
v -0.753853 -0.099272 0.244728
v -0.691723 0.050728 0.197128
v -0.691723 -0.099272 0.197128
v -0.619363 0.050728 0.167130
v -0.619363 -0.099272 0.167130
v -0.541724 0.050728 0.156929
v -0.541724 -0.099272 0.156929
v -0.464074 0.050728 0.167130
v -0.464074 -0.099272 0.167130
v -0.391724 0.050728 0.197128
v -0.391724 -0.099272 0.197128
v -0.329594 0.050728 0.244728
v -0.329594 -0.099272 0.244728
v -0.429783 0.019078 0.650829
v -0.383413 0.019078 0.615229
v -0.424024 0.050728 0.660728
v -0.375264 0.050728 0.623329
v -0.483774 0.019078 0.673128
v -0.429783 0.019078 0.650829
v -0.480793 0.050728 0.684328
v -0.424024 0.050728 0.660728
v -0.541724 0.019078 0.680828
v -0.599664 0.019078 0.673128
v -0.541724 0.050728 0.692329
v -0.602654 0.050728 0.684328
v -0.653664 0.019078 0.650829
v -0.599664 0.019078 0.673128
v -0.602654 0.050728 0.684328
v -0.659423 0.050728 0.660728
v -0.653664 0.019078 0.650829
v -0.700034 0.019078 0.615229
v -0.659423 0.050728 0.660728
v -0.708183 0.050728 0.623329
v -0.541724 0.019078 0.680828
v -0.483774 0.019078 0.673128
v -0.541724 0.050728 0.692329
v -0.480793 0.050728 0.684328
v 0.670406 0.050728 -0.755272
v 0.670406 -0.099272 -0.755272
v 0.718087 0.050728 -0.693071
v 0.718087 -0.099272 -0.693071
v 0.748056 0.050728 -0.620771
v 0.748056 -0.099272 -0.620771
v 0.758276 0.050728 -0.543072
v 0.758276 -0.099272 -0.543072
v 0.748056 0.050728 -0.465471
v 0.748056 -0.099272 -0.465471
v 0.718087 0.050728 -0.393072
v 0.718087 -0.099272 -0.393072
v 0.670406 0.050728 -0.330971
v 0.670406 -0.099272 -0.330971
v 0.254406 0.050728 -0.425371
v 0.299966 0.019078 -0.384771
v 0.264387 0.019078 -0.431171
v 0.291817 0.050728 -0.376671
v 0.242026 0.019078 -0.485170
v 0.264387 0.019078 -0.431171
v 0.230896 0.050728 -0.482172
v 0.254406 0.050728 -0.425371
v 0.234396 0.019078 -0.543072
v 0.242026 0.019078 -0.485170
v 0.222877 0.050728 -0.543072
v 0.230896 0.050728 -0.482172
v 0.242026 0.019078 -0.601070
v 0.234396 0.019078 -0.543072
v 0.222877 0.050728 -0.543072
v 0.230896 0.050728 -0.604071
v 0.264387 0.019078 -0.655071
v 0.242026 0.019078 -0.601070
v 0.230896 0.050728 -0.604071
v 0.254406 0.050728 -0.660770
v 0.299966 0.019078 -0.701372
v 0.264387 0.019078 -0.655071
v 0.254406 0.050728 -0.660770
v 0.291817 0.050728 -0.709572
v 0.308277 0.050728 -0.802872
v 0.291817 0.050728 -0.709572
v 0.340577 0.050728 -0.746971
v 0.246147 0.050728 -0.755272
v 0.254406 0.050728 -0.660770
v 0.246147 0.050728 -0.755272
v 0.198466 0.050728 -0.693071
v 0.291817 0.050728 -0.709572
v 0.458276 0.050728 -0.843071
v 0.397346 0.050728 -0.770472
v 0.458276 0.050728 -0.778471
v 0.380637 0.050728 -0.832870
v 0.397346 0.050728 -0.770472
v 0.308277 0.050728 -0.802872
v 0.340577 0.050728 -0.746971
v 0.380637 0.050728 -0.832870
v 0.168497 0.050728 -0.620771
v 0.222877 0.050728 -0.543072
v 0.230896 0.050728 -0.604071
v 0.158277 0.050728 -0.543072
v 0.222877 0.050728 -0.543072
v 0.158277 0.050728 -0.543072
v 0.168497 0.050728 -0.465471
v 0.230896 0.050728 -0.482172
v 0.198466 0.050728 -0.393072
v 0.254406 0.050728 -0.425371
v 0.168497 0.050728 -0.465471
v 0.230896 0.050728 -0.482172
v 0.168497 0.050728 -0.620771
v 0.254406 0.050728 -0.660770
v 0.198466 0.050728 -0.693071
v 0.230896 0.050728 -0.604071
v 0.340577 0.050728 -0.339272
v 0.246147 0.050728 -0.330971
v 0.308277 0.050728 -0.283272
v 0.291817 0.050728 -0.376671
v 0.397346 0.050728 -0.315672
v 0.308277 0.050728 -0.283272
v 0.380637 0.050728 -0.253372
v 0.340577 0.050728 -0.339272
v 0.458276 0.050728 -0.307671
v 0.380637 0.050728 -0.253372
v 0.458276 0.050728 -0.243071
v 0.380637 0.050728 -0.253372
v 0.458276 0.050728 -0.307671
v 0.397346 0.050728 -0.315672
v 0.291817 0.050728 -0.376671
v 0.198466 0.050728 -0.393072
v 0.246147 0.050728 -0.330971
v 0.254406 0.050728 -0.425371
v 0.458276 0.050728 -0.243071
v 0.519207 0.050728 -0.315672
v 0.458276 0.050728 -0.307671
v 0.535926 0.050728 -0.253372
v 0.535926 0.050728 -0.253372
v 0.575976 0.050728 -0.339272
v 0.519207 0.050728 -0.315672
v 0.608276 0.050728 -0.283272
v 0.575976 0.050728 -0.339272
v 0.608276 0.050728 -0.283272
v 0.624736 0.050728 -0.376671
v 0.670406 0.050728 -0.330971
v 0.718087 0.050728 -0.393072
v 0.662147 0.050728 -0.425371
v 0.670406 0.050728 -0.330971
v 0.624736 0.050728 -0.376671
v 0.685667 0.050728 -0.604071
v 0.718087 0.050728 -0.693071
v 0.662147 0.050728 -0.660770
v 0.748056 0.050728 -0.620771
v 0.718087 0.050728 -0.393072
v 0.748056 0.050728 -0.465471
v 0.662147 0.050728 -0.425371
v 0.685667 0.050728 -0.482172
v 0.685667 0.050728 -0.482172
v 0.758276 0.050728 -0.543072
v 0.693686 0.050728 -0.543072
v 0.758276 0.050728 -0.543072
v 0.685667 0.050728 -0.482172
v 0.748056 0.050728 -0.465471
v 0.693686 0.050728 -0.543072
v 0.748056 0.050728 -0.620771
v 0.685667 0.050728 -0.604071
v 0.758276 0.050728 -0.543072
v 0.608276 0.050728 -0.802872
v 0.519207 0.050728 -0.770472
v 0.575976 0.050728 -0.746971
v 0.535926 0.050728 -0.832870
v 0.535926 0.050728 -0.832870
v 0.458276 0.050728 -0.843071
v 0.519207 0.050728 -0.770472
v 0.458276 0.050728 -0.778471
v 0.662147 0.050728 -0.660770
v 0.670406 0.050728 -0.755272
v 0.624736 0.050728 -0.709572
v 0.718087 0.050728 -0.693071
v 0.624736 0.050728 -0.709572
v 0.670406 0.050728 -0.755272
v 0.575976 0.050728 -0.746971
v 0.608276 0.050728 -0.802872
v 0.528546 -0.046692 -0.561972
v 0.591927 -0.032142 -0.578871
v 0.521276 -0.046692 -0.579472
v 0.458276 -0.051702 -0.543072
v 0.578106 -0.032142 -0.612270
v 0.642237 -0.009482 -0.592371
v 0.623207 -0.009482 -0.638371
v 0.674537 0.019078 -0.601070
v 0.652166 0.019078 -0.655071
v 0.642237 -0.009482 -0.592371
v 0.596646 -0.032142 -0.543072
v 0.648726 -0.009482 -0.543072
v 0.682167 0.019078 -0.543072
v 0.591927 -0.032142 -0.578871
v 0.674537 0.019078 -0.601070
v 0.528546 -0.046692 -0.561972
v 0.531026 -0.046692 -0.543072
v 0.458276 -0.051702 -0.543072
v 0.682167 0.019078 -0.543072
v 0.642237 -0.009482 -0.493771
v 0.674537 0.019078 -0.485170
v 0.648726 -0.009482 -0.543072
v 0.596646 -0.032142 -0.543072
v 0.591927 -0.032142 -0.507271
v 0.528546 -0.046692 -0.524271
v 0.531026 -0.046692 -0.543072
v 0.458276 -0.051702 -0.543072
v 0.458276 -0.051702 -0.543072
v 0.521276 -0.046692 -0.506771
v 0.528546 -0.046692 -0.524271
v 0.591927 -0.032142 -0.507271
v 0.578106 -0.032142 -0.473871
v 0.642237 -0.009482 -0.493771
v 0.623207 -0.009482 -0.447872
v 0.674537 0.019078 -0.485170
v 0.652166 0.019078 -0.431171
v 0.616587 0.019078 -0.384771
v 0.652166 0.019078 -0.431171
v 0.623207 -0.009482 -0.447872
v 0.592947 -0.009482 -0.408472
v 0.556117 -0.032142 -0.445271
v 0.578106 -0.032142 -0.473871
v 0.509717 -0.046692 -0.491671
v 0.521276 -0.046692 -0.506771
v 0.458276 -0.051702 -0.543072
v 0.494647 -0.046692 -0.480072
v 0.556117 -0.032142 -0.445271
v 0.509717 -0.046692 -0.491671
v 0.458276 -0.051702 -0.543072
v 0.527466 -0.032142 -0.423271
v 0.553506 -0.009482 -0.378172
v 0.592947 -0.009482 -0.408472
v 0.570217 0.019078 -0.349171
v 0.616587 0.019078 -0.384771
v 0.494086 -0.032142 -0.409472
v 0.553506 -0.009482 -0.378172
v 0.527466 -0.032142 -0.423271
v 0.494647 -0.046692 -0.480072
v 0.477107 -0.046692 -0.472872
v 0.458276 -0.051702 -0.543072
v 0.507566 -0.009482 -0.359171
v 0.516226 0.019078 -0.326872
v 0.570217 0.019078 -0.349171
v 0.408987 -0.009482 -0.359171
v 0.458276 0.019078 -0.319172
v 0.458276 -0.009482 -0.352671
v 0.400336 0.019078 -0.326872
v 0.422466 -0.032142 -0.409472
v 0.458276 -0.032142 -0.404772
v 0.439446 -0.046692 -0.472872
v 0.458276 -0.046692 -0.470371
v 0.458276 -0.051702 -0.543072
v 0.408987 -0.009482 -0.359171
v 0.363057 -0.009482 -0.378172
v 0.346336 0.019078 -0.349171
v 0.389097 -0.032142 -0.423271
v 0.400336 0.019078 -0.326872
v 0.422466 -0.032142 -0.409472
v 0.421906 -0.046692 -0.480072
v 0.439446 -0.046692 -0.472872
v 0.458276 -0.051702 -0.543072
v 0.458276 -0.051702 -0.543072
v 0.406837 -0.046692 -0.491671
v 0.421906 -0.046692 -0.480072
v 0.360436 -0.032142 -0.445271
v 0.389097 -0.032142 -0.423271
v 0.363057 -0.009482 -0.378172
v 0.323617 -0.009482 -0.408472
v 0.346336 0.019078 -0.349171
v 0.299966 0.019078 -0.384771
v 0.299966 0.019078 -0.384771
v 0.264387 0.019078 -0.431171
v 0.293346 -0.009482 -0.447872
v 0.323617 -0.009482 -0.408472
v 0.360436 -0.032142 -0.445271
v 0.338447 -0.032142 -0.473871
v 0.406837 -0.046692 -0.491671
v 0.395277 -0.046692 -0.506771
v 0.458276 -0.051702 -0.543072
v 0.338447 -0.032142 -0.473871
v 0.388017 -0.046692 -0.524271
v 0.324626 -0.032142 -0.507271
v 0.395277 -0.046692 -0.506771
v 0.458276 -0.051702 -0.543072
v 0.293346 -0.009482 -0.447872
v 0.274316 -0.009482 -0.493771
v 0.242026 0.019078 -0.485170
v 0.264387 0.019078 -0.431171
v 0.389097 -0.032142 -0.662971
v 0.421906 -0.046692 -0.606071
v 0.422466 -0.032142 -0.676771
v 0.439446 -0.046692 -0.613371
v 0.458276 -0.051702 -0.543072
v 0.408987 -0.009482 -0.727072
v 0.363057 -0.009482 -0.708071
v 0.346336 0.019078 -0.736971
v 0.400336 0.019078 -0.759371
v 0.458276 -0.009482 -0.733572
v 0.408987 -0.009482 -0.727072
v 0.422466 -0.032142 -0.676771
v 0.400336 0.019078 -0.759371
v 0.458276 -0.032142 -0.681471
v 0.458276 0.019078 -0.766972
v 0.439446 -0.046692 -0.613371
v 0.458276 -0.046692 -0.615871
v 0.458276 -0.051702 -0.543072
v 0.458276 -0.009482 -0.733572
v 0.494086 -0.032142 -0.676771
v 0.507566 -0.009482 -0.727072
v 0.516226 0.019078 -0.759371
v 0.458276 -0.032142 -0.681471
v 0.458276 0.019078 -0.766972
v 0.477107 -0.046692 -0.613371
v 0.458276 -0.046692 -0.615871
v 0.458276 -0.051702 -0.543072
v 0.458276 -0.051702 -0.543072
v 0.494647 -0.046692 -0.606071
v 0.477107 -0.046692 -0.613371
v 0.494086 -0.032142 -0.676771
v 0.527466 -0.032142 -0.662971
v 0.507566 -0.009482 -0.727072
v 0.553506 -0.009482 -0.708071
v 0.516226 0.019078 -0.759371
v 0.570217 0.019078 -0.736971
v 0.616587 0.019078 -0.701372
v 0.570217 0.019078 -0.736971
v 0.592947 -0.009482 -0.677771
v 0.553506 -0.009482 -0.708071
v 0.527466 -0.032142 -0.662971
v 0.556117 -0.032142 -0.640972
v 0.494647 -0.046692 -0.606071
v 0.509717 -0.046692 -0.594572
v 0.458276 -0.051702 -0.543072
v 0.521276 -0.046692 -0.579472
v 0.556117 -0.032142 -0.640972
v 0.509717 -0.046692 -0.594572
v 0.458276 -0.051702 -0.543072
v 0.578106 -0.032142 -0.612270
v 0.592947 -0.009482 -0.677771
v 0.623207 -0.009482 -0.638371
v 0.616587 0.019078 -0.701372
v 0.652166 0.019078 -0.655071
v 0.458276 -0.009482 -0.352671
v 0.494086 -0.032142 -0.409472
v 0.458276 -0.032142 -0.404772
v 0.507566 -0.009482 -0.359171
v 0.477107 -0.046692 -0.472872
v 0.458276 -0.046692 -0.470371
v 0.458276 -0.051702 -0.543072
v 0.458276 0.019078 -0.319172
v 0.516226 0.019078 -0.326872
v 0.267827 -0.009482 -0.543072
v 0.324626 -0.032142 -0.507271
v 0.319907 -0.032142 -0.543072
v 0.385537 -0.046692 -0.543072
v 0.388017 -0.046692 -0.524271
v 0.458276 -0.051702 -0.543072
v 0.274316 -0.009482 -0.493771
v 0.234396 0.019078 -0.543072
v 0.242026 0.019078 -0.485170
v 0.274316 -0.009482 -0.592371
v 0.319907 -0.032142 -0.543072
v 0.324626 -0.032142 -0.578871
v 0.267827 -0.009482 -0.543072
v 0.385537 -0.046692 -0.543072
v 0.388017 -0.046692 -0.561972
v 0.458276 -0.051702 -0.543072
v 0.242026 0.019078 -0.601070
v 0.234396 0.019078 -0.543072
v 0.264387 0.019078 -0.655071
v 0.274316 -0.009482 -0.592371
v 0.293346 -0.009482 -0.638371
v 0.338447 -0.032142 -0.612270
v 0.242026 0.019078 -0.601070
v 0.324626 -0.032142 -0.578871
v 0.395277 -0.046692 -0.579472
v 0.388017 -0.046692 -0.561972
v 0.458276 -0.051702 -0.543072
v 0.458276 -0.051702 -0.543072
v 0.406837 -0.046692 -0.594572
v 0.395277 -0.046692 -0.579472
v 0.360436 -0.032142 -0.640972
v 0.338447 -0.032142 -0.612270
v 0.293346 -0.009482 -0.638371
v 0.323617 -0.009482 -0.677771
v 0.299966 0.019078 -0.701372
v 0.264387 0.019078 -0.655071
v 0.421906 -0.046692 -0.606071
v 0.360436 -0.032142 -0.640972
v 0.406837 -0.046692 -0.594572
v 0.458276 -0.051702 -0.543072
v 0.389097 -0.032142 -0.662971
v 0.323617 -0.009482 -0.677771
v 0.363057 -0.009482 -0.708071
v 0.346336 0.019078 -0.736971
v 0.299966 0.019078 -0.701372
v 0.380637 -0.099272 -0.253372
v 0.458276 -0.099272 -0.243071
v 0.380637 0.050728 -0.253372
v 0.458276 0.050728 -0.243071
v 0.308277 0.050728 -0.283272
v 0.308277 -0.099272 -0.283272
v 0.246147 0.050728 -0.330971
v 0.246147 -0.099272 -0.330971
v 0.670406 0.050728 -0.330971
v 0.670406 -0.099272 -0.330971
v 0.608276 0.050728 -0.283272
v 0.608276 -0.099272 -0.283272
v 0.535926 0.050728 -0.253372
v 0.535926 -0.099272 -0.253372
v 0.458276 0.050728 -0.243071
v 0.458276 -0.099272 -0.243071
v 0.346336 0.019078 -0.736971
v 0.400336 0.019078 -0.759371
v 0.397346 0.050728 -0.770472
v 0.340577 0.050728 -0.746971
v 0.400336 0.019078 -0.759371
v 0.458276 0.019078 -0.766972
v 0.458276 0.050728 -0.778471
v 0.397346 0.050728 -0.770472
v 0.516226 0.019078 -0.759371
v 0.458276 0.019078 -0.766972
v 0.458276 0.050728 -0.778471
v 0.519207 0.050728 -0.770472
v 0.516226 0.019078 -0.759371
v 0.570217 0.019078 -0.736971
v 0.519207 0.050728 -0.770472
v 0.575976 0.050728 -0.746971
v 0.616587 0.019078 -0.701372
v 0.575976 0.050728 -0.746971
v 0.570217 0.019078 -0.736971
v 0.624736 0.050728 -0.709572
v 0.346336 0.019078 -0.736971
v 0.299966 0.019078 -0.701372
v 0.340577 0.050728 -0.746971
v 0.291817 0.050728 -0.709572
v 0.246147 0.050728 -0.330971
v 0.246147 -0.099272 -0.330971
v 0.198466 0.050728 -0.393072
v 0.198466 -0.099272 -0.393072
v 0.168497 0.050728 -0.465471
v 0.168497 -0.099272 -0.465471
v 0.158277 0.050728 -0.543072
v 0.158277 -0.099272 -0.543072
v 0.168497 0.050728 -0.620771
v 0.168497 -0.099272 -0.620771
v 0.198466 0.050728 -0.693071
v 0.198466 -0.099272 -0.693071
v 0.246147 0.050728 -0.755272
v 0.246147 -0.099272 -0.755272
v 0.674537 0.019078 -0.601070
v 0.652166 0.019078 -0.655071
v 0.685667 0.050728 -0.604071
v 0.662147 0.050728 -0.660770
v 0.682167 0.019078 -0.543072
v 0.674537 0.019078 -0.601070
v 0.693686 0.050728 -0.543072
v 0.685667 0.050728 -0.604071
v 0.682167 0.019078 -0.543072
v 0.674537 0.019078 -0.485170
v 0.693686 0.050728 -0.543072
v 0.685667 0.050728 -0.482172
v 0.674537 0.019078 -0.485170
v 0.652166 0.019078 -0.431171
v 0.685667 0.050728 -0.482172
v 0.662147 0.050728 -0.425371
v 0.662147 0.050728 -0.425371
v 0.616587 0.019078 -0.384771
v 0.624736 0.050728 -0.376671
v 0.652166 0.019078 -0.431171
v 0.616587 0.019078 -0.701372
v 0.652166 0.019078 -0.655071
v 0.662147 0.050728 -0.660770
v 0.624736 0.050728 -0.709572
v 0.670406 -0.099272 -0.755272
v 0.198466 -0.099272 -0.393072
v 0.308277 -0.099272 -0.802872
v 0.535926 -0.099272 -0.832870
v 0.608276 -0.099272 -0.802872
v 0.458276 -0.099272 -0.843071
v 0.380637 -0.099272 -0.832870
v 0.670406 -0.099272 -0.330971
v 0.718087 -0.099272 -0.693071
v 0.158277 -0.099272 -0.543072
v 0.168497 -0.099272 -0.465471
v 0.168497 -0.099272 -0.620771
v 0.246147 -0.099272 -0.755272
v 0.198466 -0.099272 -0.693071
v 0.758276 -0.099272 -0.543072
v 0.748056 -0.099272 -0.620771
v 0.718087 -0.099272 -0.393072
v 0.748056 -0.099272 -0.465471
v 0.308277 -0.099272 -0.283272
v 0.246147 -0.099272 -0.330971
v 0.458276 -0.099272 -0.243071
v 0.380637 -0.099272 -0.253372
v 0.608276 -0.099272 -0.283272
v 0.535926 -0.099272 -0.253372
v 0.246147 0.050728 -0.755272
v 0.246147 -0.099272 -0.755272
v 0.308277 0.050728 -0.802872
v 0.308277 -0.099272 -0.802872
v 0.380637 0.050728 -0.832870
v 0.380637 -0.099272 -0.832870
v 0.458276 0.050728 -0.843071
v 0.458276 -0.099272 -0.843071
v 0.535926 0.050728 -0.832870
v 0.535926 -0.099272 -0.832870
v 0.608276 0.050728 -0.802872
v 0.608276 -0.099272 -0.802872
v 0.670406 0.050728 -0.755272
v 0.670406 -0.099272 -0.755272
v 0.570217 0.019078 -0.349171
v 0.616587 0.019078 -0.384771
v 0.575976 0.050728 -0.339272
v 0.624736 0.050728 -0.376671
v 0.516226 0.019078 -0.326872
v 0.570217 0.019078 -0.349171
v 0.519207 0.050728 -0.315672
v 0.575976 0.050728 -0.339272
v 0.458276 0.019078 -0.319172
v 0.400336 0.019078 -0.326872
v 0.458276 0.050728 -0.307671
v 0.397346 0.050728 -0.315672
v 0.346336 0.019078 -0.349171
v 0.400336 0.019078 -0.326872
v 0.397346 0.050728 -0.315672
v 0.340577 0.050728 -0.339272
v 0.346336 0.019078 -0.349171
v 0.299966 0.019078 -0.384771
v 0.340577 0.050728 -0.339272
v 0.291817 0.050728 -0.376671
v 0.458276 0.019078 -0.319172
v 0.516226 0.019078 -0.326872
v 0.458276 0.050728 -0.307671
v 0.519207 0.050728 -0.315672
v 0.758286 0.025728 0.216928
v 0.698287 -0.124272 0.156929
v 0.698287 0.025728 0.156929
v 0.758286 -0.124272 0.216928
v 0.728286 0.075728 0.246929
v 0.668286 0.025728 0.186928
v 0.668286 0.075728 0.186928
v 0.728286 0.025728 0.246929
v 0.758286 0.025728 0.696928
v 0.758286 -0.124272 0.216928
v 0.758286 0.025728 0.216928
v 0.758286 -0.124272 0.696928
v 0.728286 0.075728 0.666929
v 0.728286 0.025728 0.246929
v 0.728286 0.075728 0.246929
v 0.728286 0.025728 0.666929
v 0.248287 0.075728 0.726929
v 0.668286 0.075728 0.726929
v 0.668286 0.075728 0.186928
v 0.728286 0.075728 0.666929
v 0.728286 0.075728 0.246929
v 0.188286 0.075728 0.666929
v 0.248287 0.075728 0.186928
v 0.188286 0.075728 0.246929
v 0.218287 0.025728 0.756929
v 0.698287 0.025728 0.756929
v 0.698287 0.025728 0.156929
v 0.758286 0.025728 0.696928
v 0.758286 0.025728 0.216928
v 0.158287 0.025728 0.696928
v 0.218287 0.025728 0.156929
v 0.158287 0.025728 0.216928
v 0.218287 0.025728 0.756929
v 0.158287 0.025728 0.696928
v 0.218287 -0.124272 0.756929
v 0.158287 -0.124272 0.696928
v 0.758286 0.025728 0.696928
v 0.698287 0.025728 0.756929
v 0.758286 -0.124272 0.696928
v 0.698287 -0.124272 0.756929
v 0.188286 0.025728 0.666929
v 0.248287 0.025728 0.726929
v 0.188286 0.075728 0.666929
v 0.248287 0.075728 0.726929
v 0.668286 0.025728 0.726929
v 0.728286 0.025728 0.666929
v 0.668286 0.075728 0.726929
v 0.728286 0.075728 0.666929
v 0.218287 0.025728 0.756929
v 0.698287 -0.124272 0.756929
v 0.698287 0.025728 0.756929
v 0.218287 -0.124272 0.756929
v 0.248287 0.075728 0.726929
v 0.668286 0.025728 0.726929
v 0.668286 0.075728 0.726929
v 0.248287 0.025728 0.726929
v 0.158287 0.025728 0.216928
v 0.218287 0.025728 0.156929
v 0.158287 -0.124272 0.216928
v 0.218287 -0.124272 0.156929
v 0.248287 0.025728 0.186928
v 0.188286 0.025728 0.246929
v 0.248287 0.075728 0.186928
v 0.188286 0.075728 0.246929
v 0.158287 0.025728 0.216928
v 0.158287 -0.124272 0.696928
v 0.158287 0.025728 0.696928
v 0.158287 -0.124272 0.216928
v 0.188286 0.075728 0.246929
v 0.188286 0.025728 0.666929
v 0.188286 0.075728 0.666929
v 0.188286 0.025728 0.246929
v 0.218287 -0.124272 0.156929
v 0.698287 -0.124272 0.156929
v 0.758286 -0.124272 0.696928
v 0.758286 -0.124272 0.216928
v 0.698287 -0.124272 0.756929
v 0.218287 -0.124272 0.756929
v 0.158287 -0.124272 0.696928
v 0.158287 -0.124272 0.216928
v 0.698287 0.025728 0.156929
v 0.218287 -0.124272 0.156929
v 0.218287 0.025728 0.156929
v 0.698287 -0.124272 0.156929
v 0.668286 0.075728 0.186928
v 0.248287 0.025728 0.186928
v 0.248287 0.075728 0.186928
v 0.668286 0.025728 0.186928
vn 0.8644 -0.0000 -0.5029
vn 0.7071 -0.0000 -0.7071
vn 0.9659 -0.0000 -0.2589
vn 1.0000 -0.0000 0.0001
vn 0.9659 -0.0000 0.2591
vn 0.8644 -0.0000 0.5029
vn 0.7071 -0.0000 0.7071
vn 0.8128 0.3393 -0.4735
vn 0.5927 0.5453 -0.5927
vn 0.7266 0.5449 -0.4186
vn 0.6649 0.3404 -0.6649
vn 0.9081 0.3396 -0.2449
vn 0.8104 0.5429 -0.2203
vn 0.8128 0.3393 -0.4734
vn 0.9405 0.3398 -0.0000
vn 0.8104 0.5428 -0.2203
vn 0.8381 0.5455 -0.0000
vn 0.9082 0.3396 -0.2448
vn 0.8104 0.5429 0.2203
vn 0.9082 0.3396 0.2448
vn 0.7266 0.5449 0.4185
vn 0.9081 0.3396 0.2449
vn 0.8104 0.5428 0.2203
vn 0.8128 0.3393 0.4734
vn 0.5928 0.5453 0.5927
vn 0.8128 0.3393 0.4735
vn 0.7266 0.5449 0.4186
vn 0.6649 0.3404 0.6649
vn -0.0000 1.0000 -0.0000
vn -0.1413 0.9892 0.0393
vn -0.3081 0.9481 0.0790
vn -0.1257 0.9896 0.0707
vn -0.2765 0.9479 0.1580
vn -0.5254 0.8391 0.1412
vn -0.4713 0.8405 0.2671
vn -0.8104 0.5429 0.2203
vn -0.7265 0.5450 0.4185
vn -0.5254 0.8391 0.1411
vn -0.3162 0.9487 -0.0000
vn -0.5419 0.8404 -0.0000
vn -0.8381 0.5456 -0.0000
vn -0.1491 0.9888 -0.0000
vn -0.5254 0.8391 -0.1412
vn -0.8104 0.5429 -0.2203
vn -0.3081 0.9481 -0.0790
vn -0.1413 0.9892 -0.0393
vn -0.1257 0.9896 -0.0707
vn -0.1413 0.9892 -0.0392
vn -0.2765 0.9479 -0.1580
vn -0.4713 0.8405 -0.2671
vn -0.7265 0.5449 -0.4186
vn -0.5927 0.5454 -0.5927
vn -0.7265 0.5450 -0.4186
vn -0.3844 0.8394 -0.3844
vn -0.2287 0.9463 -0.2287
vn -0.1021 0.9895 -0.1021
vn -0.0707 0.9896 -0.1257
vn -0.1580 0.9479 -0.2765
vn -0.2671 0.8405 -0.4713
vn -0.4185 0.5449 -0.7265
vn -0.0790 0.9481 -0.3081
vn -0.0393 0.9892 -0.1413
vn -0.1412 0.8391 -0.5254
vn -0.2203 0.5429 -0.8104
vn -0.4185 0.5450 -0.7265
vn 0.1411 0.8391 -0.5254
vn -0.0000 0.5456 -0.8381
vn -0.0000 0.8404 -0.5419
vn 0.2203 0.5429 -0.8104
vn 0.0790 0.9481 -0.3081
vn -0.0000 0.9487 -0.3162
vn 0.0392 0.9892 -0.1413
vn -0.0000 0.9888 -0.1491
vn 0.1412 0.8391 -0.5254
vn 0.2671 0.8405 -0.4713
vn 0.4185 0.5450 -0.7265
vn 0.1580 0.9479 -0.2765
vn 0.0707 0.9896 -0.1257
vn 0.1021 0.9895 -0.1021
vn 0.2287 0.9463 -0.2287
vn 0.3844 0.8394 -0.3844
vn 0.4186 0.5449 -0.7265
vn 0.5927 0.5454 -0.5927
vn 0.4713 0.8405 -0.2671
vn 0.7265 0.5450 -0.4185
vn 0.3844 0.8394 -0.3843
vn 0.2765 0.9479 -0.1580
vn 0.1257 0.9896 -0.0707
vn 0.1413 0.9892 -0.0393
vn 0.3081 0.9481 -0.0790
vn 0.5254 0.8391 -0.1412
vn 0.7265 0.5449 -0.4185
vn 0.1580 0.9479 0.2765
vn 0.0707 0.9896 0.1256
vn 0.0790 0.9481 0.3081
vn 0.0393 0.9892 0.1413
vn 0.1412 0.8391 0.5254
vn 0.2671 0.8405 0.4713
vn 0.4185 0.5449 0.7265
vn 0.2203 0.5429 0.8104
vn -0.0000 0.8404 0.5419
vn 0.1411 0.8391 0.5254
vn -0.0000 0.9487 0.3162
vn -0.0000 0.5456 0.8381
vn -0.0000 0.9888 0.1491
vn -0.0790 0.9481 0.3081
vn -0.1411 0.8391 0.5254
vn -0.2203 0.5429 0.8104
vn -0.0393 0.9892 0.1413
vn -0.0707 0.9896 0.1257
vn -0.1580 0.9479 0.2765
vn -0.1412 0.8391 0.5254
vn -0.2671 0.8405 0.4713
vn -0.4185 0.5450 0.7265
vn -0.4186 0.5449 0.7265
vn -0.3843 0.8394 0.3844
vn -0.5927 0.5453 0.5927
vn -0.2287 0.9463 0.2287
vn -0.1021 0.9895 0.1021
vn -0.3844 0.8394 0.3844
vn -0.1411 0.8391 -0.5254
vn -0.0392 0.9892 -0.1413
vn 0.5419 0.8404 -0.0000
vn 0.3162 0.9487 -0.0000
vn 0.1491 0.9888 -0.0000
vn 0.1413 0.9892 -0.0392
vn 0.5254 0.8391 -0.1411
vn 0.8381 0.5456 -0.0000
vn 0.5254 0.8391 0.1411
vn 0.3081 0.9481 0.0790
vn 0.1413 0.9892 0.0393
vn 0.7265 0.5450 0.4185
vn 0.5254 0.8391 0.1412
vn 0.4713 0.8405 0.2671
vn 0.2765 0.9479 0.1580
vn 0.1256 0.9896 0.0707
vn 0.1021 0.9895 0.1021
vn 0.1257 0.9896 0.0707
vn 0.2287 0.9463 0.2287
vn 0.3844 0.8394 0.3844
vn 0.5927 0.5453 0.5927
vn 0.7265 0.5450 0.4186
vn 0.0707 0.9896 0.1257
vn -0.2589 -0.0000 0.9659
vn -0.0000 -0.0000 1.0000
vn -0.5029 -0.0000 0.8644
vn -0.7071 -0.0000 0.7071
vn 0.5028 -0.0000 0.8644
vn 0.5029 -0.0000 0.8643
vn 0.2594 -0.0000 0.9658
vn 0.2593 -0.0000 0.9658
vn 0.4186 0.5449 0.7266
vn 0.2203 0.5428 0.8104
vn 0.2448 0.3396 0.9082
vn 0.4735 0.3393 0.8128
vn -0.0000 0.5455 0.8381
vn -0.0000 0.3398 0.9405
vn -0.2203 0.5428 0.8104
vn -0.2448 0.3396 0.9082
vn -0.4185 0.5449 0.7266
vn -0.2449 0.3396 0.9081
vn -0.4735 0.3393 0.8128
vn -0.5927 0.5453 0.5928
vn -0.4186 0.5449 0.7266
vn -0.6649 0.3404 0.6649
vn 0.5927 0.5453 0.5928
vn -0.8644 -0.0000 0.5029
vn -0.9659 -0.0000 0.2591
vn -1.0000 -0.0000 0.0001
vn -0.9659 -0.0000 -0.2589
vn -0.8644 -0.0000 -0.5029
vn -0.7071 -0.0000 -0.7071
vn -0.7266 0.5449 0.4186
vn -0.9081 0.3396 0.2449
vn -0.8128 0.3393 0.4734
vn -0.8381 0.5455 -0.0000
vn -0.9405 0.3398 -0.0000
vn -0.9082 0.3396 0.2448
vn -0.9082 0.3396 -0.2448
vn -0.7266 0.5449 -0.4186
vn -0.9082 0.3396 -0.2449
vn -0.8128 0.3393 -0.4734
vn -0.8128 0.3393 -0.4735
vn -0.5928 0.5453 -0.5927
vn -0.6649 0.3404 -0.6649
vn -0.5928 0.5453 0.5927
vn -0.8128 0.3393 0.4735
vn -0.0000 -1.0000 -0.0000
vn -0.5029 -0.0000 -0.8644
vn -0.2592 -0.0000 -0.9658
vn -0.0000 -0.0000 -1.0000
vn 0.2594 -0.0000 -0.9658
vn 0.2589 -0.0000 -0.9659
vn 0.5029 -0.0000 -0.8644
vn -0.5927 0.5453 -0.5927
vn -0.4186 0.5449 -0.7266
vn -0.4735 0.3393 -0.8128
vn -0.2448 0.3396 -0.9082
vn -0.4734 0.3393 -0.8128
vn -0.0000 0.3398 -0.9405
vn -0.0000 0.5455 -0.8381
vn 0.2448 0.3387 -0.9085
vn 0.4185 0.5449 -0.7266
vn 0.2449 0.3396 -0.9081
vn 0.2203 0.5428 -0.8104
vn 0.4734 0.3393 -0.8128
vn 0.5927 0.5453 -0.5928
vn 0.4735 0.3393 -0.8128
vn 0.4186 0.5449 -0.7266
vn -0.2203 0.5428 -0.8104
vn -0.7266 0.5449 0.4185
vn 0.0393 0.9892 -0.1413
vn 0.4185 0.5449 0.7266
vn -0.9082 0.3396 0.2449
vn -0.7266 0.5449 -0.4185
vn -0.9081 0.3396 -0.2449
vn 1.0000 -0.0000 -0.0000
vn -1.0000 -0.0000 -0.0000
vt 0.472858 1.266190
vt 0.553630 1.071190
vt 0.553630 1.266190
vt 0.472858 1.071190
vt 0.378798 1.266190
vt 0.378798 1.071190
vt 0.277858 1.266190
vt 0.277858 1.071190
vt 0.176919 1.266190
vt 0.176919 1.071190
vt 0.082859 1.266190
vt 0.082859 1.071190
vt 0.002087 1.266190
vt 0.002087 1.071190
vt 0.124845 1.266190
vt 0.072055 1.225040
vt 0.132334 1.225040
vt 0.061464 1.266190
vt 0.198652 1.266190
vt 0.202529 1.225040
vt 0.277858 1.225040
vt 0.353188 1.225040
vt 0.357064 1.266190
vt 0.423383 1.225040
vt 0.430872 1.266190
vt 0.483662 1.225040
vt 0.494253 1.266190
vt 0.472858 0.830941
vt 0.494253 0.952296
vt 0.430872 0.903663
vt 0.553630 0.892919
vt 0.542886 1.015680
vt 0.615608 0.973691
vt 0.277858 0.778691
vt 0.357064 0.873090
vt 0.277858 0.862663
vt 0.378798 0.791979
vt 0.654569 1.067750
vt 0.583886 1.168690
vt 0.573458 1.089480
vt 0.667858 1.168690
vt 0.654569 1.269630
vt 0.573458 1.247900
vt 0.615608 1.363690
vt 0.542886 1.321700
vt 0.430872 1.433720
vt 0.553630 1.444460
vt 0.472858 1.506440
vt 0.494253 1.385080
vt 0.357064 1.464290
vt 0.378798 1.545400
vt 0.277858 1.474720
vt 0.277858 1.558690
vt 0.198652 1.464290
vt 0.176919 1.545400
vt 0.124845 1.433720
vt 0.082858 1.506440
vt 0.061464 1.385080
vt 0.002087 1.444460
vt -0.059892 1.363690
vt 0.012830 1.321700
vt -0.017742 1.089480
vt -0.059891 0.973691
vt 0.012830 1.015680
vt -0.098853 1.067750
vt -0.098853 1.269630
vt -0.017742 1.247900
vt -0.112142 1.168690
vt -0.028170 1.168690
vt 0.082858 0.830940
vt 0.198652 0.873090
vt 0.124845 0.903663
vt 0.176919 0.791979
vt 0.002087 0.892919
vt 0.061464 0.952296
vt 0.186513 1.144210
vt 0.104109 1.122130
vt 0.195960 1.121410
vt 0.277858 1.168690
vt 0.122079 1.078750
vt 0.038713 1.104610
vt 0.063446 1.044900
vt -0.003274 1.093360
vt 0.025802 1.023170
vt 0.097980 1.168690
vt 0.030277 1.168690
vt -0.013191 1.168690
vt 0.183291 1.168690
vt 0.038713 1.232770
vt -0.003274 1.244020
vt 0.104109 1.215250
vt 0.186513 1.193170
vt 0.195960 1.215970
vt 0.122079 1.258630
vt 0.063446 1.292480
vt 0.025802 1.314220
vt 0.072055 1.374490
vt 0.102792 1.343760
vt 0.150665 1.295880
vt 0.210989 1.235560
vt 0.230574 1.250590
vt 0.187919 1.324470
vt 0.154068 1.383100
vt 0.132333 1.420750
vt 0.231302 1.342440
vt 0.253382 1.260040
vt 0.213779 1.407840
vt 0.202529 1.449820
vt 0.341937 1.407840
vt 0.277858 1.459740
vt 0.277858 1.416270
vt 0.353188 1.449820
vt 0.324414 1.342440
vt 0.277858 1.348570
vt 0.302334 1.260040
vt 0.277858 1.263260
vt 0.401649 1.383100
vt 0.423383 1.420750
vt 0.367798 1.324470
vt 0.325142 1.250590
vt 0.344728 1.235560
vt 0.405052 1.295880
vt 0.452925 1.343760
vt 0.483662 1.374490
vt 0.492271 1.292480
vt 0.529915 1.314220
vt 0.433638 1.258630
vt 0.359756 1.215970
vt 0.369204 1.193170
vt 0.451608 1.215250
vt 0.517004 1.232770
vt 0.558991 1.244020
vt 0.367798 1.012910
vt 0.325142 1.086790
vt 0.324414 0.994941
vt 0.302334 1.077340
vt 0.341937 0.929545
vt 0.401649 0.954278
vt 0.423383 0.916634
vt 0.353188 0.887558
vt 0.277858 0.921109
vt 0.277858 0.988812
vt 0.277858 0.877641
vt 0.277858 1.074120
vt 0.231302 0.994941
vt 0.213779 0.929545
vt 0.202529 0.887558
vt 0.253382 1.077340
vt 0.230574 1.086790
vt 0.187919 1.012910
vt 0.154068 0.954278
vt 0.132333 0.916634
vt 0.102792 0.993624
vt 0.072055 0.962887
vt 0.150665 1.041500
vt 0.210989 1.101820
vt 0.525440 1.168690
vt 0.457737 1.168690
vt 0.372426 1.168690
vt 0.568908 1.168690
vt 0.517004 1.104610
vt 0.451608 1.122130
vt 0.369204 1.144210
vt 0.558991 1.093360
vt 0.529915 1.023170
vt 0.492271 1.044900
vt 0.433638 1.078750
vt 0.359756 1.121410
vt 0.344728 1.101820
vt 0.405052 1.041500
vt 0.452925 0.993623
vt 0.483662 0.962887
vt 0.082858 1.266190
vt 0.082858 1.071190
vt 0.002087 1.266190
vt 0.002087 1.071190
vt 0.472859 1.266190
vt 0.472859 1.071190
vt 0.132333 1.225040
vt 0.072055 1.225040
vt 0.124844 1.266190
vt 0.353187 1.225040
vt 0.483661 1.225040
vt 0.061464 1.266190
vt -0.059891 1.363690
vt 0.082858 0.830941
vt 0.472858 0.830940
vt 0.002087 0.892919
vt -0.059892 0.973691
vt 0.082858 1.506440
vt 0.472859 1.506440
vt 0.369589 0.772597
vt 0.450360 0.577597
vt 0.450360 0.772597
vt 0.369589 0.577597
vt 0.275528 0.772597
vt 0.275528 0.577597
vt 0.174589 0.772597
vt 0.174589 0.577597
vt 0.073649 0.772597
vt 0.073649 0.577597
vt -0.020411 0.772597
vt -0.020411 0.577597
vt -0.101183 0.772597
vt -0.101183 0.577597
vt 0.021575 0.772597
vt -0.031214 0.731446
vt 0.029064 0.731446
vt -0.041805 0.772597
vt 0.095383 0.772597
vt 0.099259 0.731446
vt 0.174589 0.731446
vt 0.249918 0.731446
vt 0.253795 0.772597
vt 0.320114 0.731446
vt 0.327603 0.772597
vt 0.380392 0.731446
vt 0.390983 0.772597
vt 0.369589 0.337347
vt 0.390983 0.458702
vt 0.327602 0.410069
vt 0.450360 0.399325
vt 0.439617 0.522083
vt 0.512339 0.480097
vt 0.174589 0.285097
vt 0.253795 0.379496
vt 0.174589 0.369069
vt 0.275528 0.298386
vt 0.551300 0.574157
vt 0.480617 0.675097
vt 0.470189 0.595891
vt 0.564589 0.675097
vt 0.551300 0.776036
vt 0.470189 0.754303
vt 0.512338 0.870097
vt 0.439617 0.828111
vt 0.327603 0.940124
vt 0.450360 0.950869
vt 0.369589 1.012850
vt 0.390983 0.891491
vt 0.253795 0.970697
vt 0.275528 1.051810
vt 0.174589 0.981125
vt 0.174589 1.065100
vt 0.095383 0.970697
vt 0.073649 1.051810
vt 0.021575 0.940124
vt -0.020412 1.012850
vt -0.041805 0.891491
vt -0.101183 0.950868
vt -0.163161 0.870096
vt -0.090439 0.828111
vt -0.121011 0.595891
vt -0.163161 0.480097
vt -0.090439 0.522083
vt -0.202122 0.574157
vt -0.202122 0.776036
vt -0.121011 0.754302
vt -0.215411 0.675097
vt -0.131439 0.675097
vt -0.020411 0.337347
vt 0.095383 0.379496
vt 0.021575 0.410069
vt 0.073649 0.298386
vt -0.101183 0.399325
vt -0.041805 0.458702
vt 0.083243 0.650621
vt 0.000839 0.628541
vt 0.092691 0.627813
vt 0.174589 0.675097
vt 0.018809 0.585157
vt -0.064557 0.611018
vt -0.039823 0.551306
vt -0.106544 0.599768
vt -0.077468 0.529572
vt -0.005290 0.675097
vt -0.072993 0.675097
vt -0.116461 0.675097
vt 0.080021 0.675097
vt -0.064557 0.739175
vt -0.106544 0.750426
vt 0.000839 0.721653
vt 0.083243 0.699572
vt 0.092691 0.722380
vt 0.018809 0.765036
vt -0.039823 0.798887
vt -0.077468 0.820621
vt -0.031215 0.880900
vt -0.000478 0.850164
vt 0.047395 0.802290
vt 0.107719 0.741966
vt 0.127305 0.756995
vt 0.084649 0.830876
vt 0.050798 0.889509
vt 0.029064 0.927153
vt 0.128033 0.848846
vt 0.150113 0.766442
vt 0.110510 0.914243
vt 0.099259 0.956229
vt 0.238668 0.914243
vt 0.174589 0.966146
vt 0.174589 0.922679
vt 0.249918 0.956229
vt 0.221145 0.848846
vt 0.174589 0.854975
vt 0.199065 0.766442
vt 0.174589 0.769664
vt 0.298380 0.889509
vt 0.320114 0.927153
vt 0.264528 0.830876
vt 0.221873 0.756995
vt 0.241458 0.741966
vt 0.301782 0.802290
vt 0.349655 0.850164
vt 0.380392 0.880900
vt 0.389001 0.798887
vt 0.426645 0.820621
vt 0.330368 0.765036
vt 0.256487 0.722380
vt 0.265934 0.699572
vt 0.348338 0.721653
vt 0.413734 0.739175
vt 0.455721 0.750426
vt 0.264528 0.519317
vt 0.221873 0.593198
vt 0.221145 0.501347
vt 0.199065 0.583751
vt 0.238668 0.435951
vt 0.298380 0.460685
vt 0.320114 0.423040
vt 0.249918 0.393964
vt 0.174589 0.427515
vt 0.174589 0.495218
vt 0.174589 0.384047
vt 0.174589 0.580529
vt 0.128033 0.501347
vt 0.110510 0.435951
vt 0.099259 0.393964
vt 0.150113 0.583751
vt 0.127305 0.593198
vt 0.084649 0.519317
vt 0.050798 0.460685
vt 0.029064 0.423040
vt -0.000478 0.500030
vt -0.031215 0.469293
vt 0.047395 0.547903
vt 0.107719 0.608227
vt 0.422170 0.675097
vt 0.354467 0.675097
vt 0.269157 0.675097
vt 0.465639 0.675097
vt 0.413734 0.611018
vt 0.348338 0.628541
vt 0.265934 0.650621
vt 0.455721 0.599768
vt 0.426645 0.529572
vt 0.389001 0.551306
vt 0.330368 0.585157
vt 0.256487 0.627813
vt 0.241458 0.608227
vt 0.301782 0.547903
vt 0.349655 0.500030
vt 0.380392 0.469293
vt -0.020411 0.772597
vt -0.020411 0.577597
vt 0.029064 0.731446
vt 0.327602 0.772597
vt -0.031215 0.731446
vt 0.021575 0.772597
vt 0.253794 0.772597
vt 0.320113 0.731446
vt -0.041806 0.772597
vt -0.163161 0.870097
vt 0.450360 0.950868
vt 0.512338 0.480097
vt 0.512339 0.870096
vt -0.020411 1.012850
vt -0.101183 0.950869
vt 0.073649 1.051810
vt 0.408897 0.775047
vt 0.486897 0.580048
vt 0.486897 0.775047
vt 0.408897 0.580048
vt 0.369897 0.840047
vt 0.447897 0.775047
vt 0.447897 0.840047
vt 0.369897 0.775047
vt -0.215103 0.775047
vt -0.215103 0.580047
vt -0.176103 0.840047
vt -0.176103 0.775047
vt 0.369897 1.061050
vt -0.176103 1.061050
vt -0.176103 0.359047
vt -0.254103 0.983048
vt -0.254103 0.437047
vt 0.447897 0.983048
vt 0.369897 0.359047
vt 0.447897 0.437047
vt 0.408897 1.100050
vt -0.215103 1.100050
vt -0.215103 0.320047
vt -0.293103 1.022050
vt -0.293103 0.398047
vt 0.486897 1.022050
vt 0.408897 0.320047
vt 0.486897 0.398047
vt -0.293103 0.775047
vt -0.293103 0.580047
vt 0.486897 0.580047
vt 0.408897 0.580047
vt -0.254103 0.775047
vt -0.254103 0.840047
vt -0.215103 0.580048
vt -0.293103 0.580048
s 1
usemtl Output21Mtl.001
f 3/1/1 2/2/2 1/3/2
f 2/2/2 3/1/1 4/4/1
f 3/1/1 5/5/3 4/4/1
f 4/4/1 5/5/3 6/6/3
f 5/5/3 7/7/4 6/6/3
f 6/6/3 7/7/4 8/8/4
f 7/7/4 9/9/5 8/8/4
f 8/8/4 9/9/5 10/10/5
f 9/9/5 11/11/6 10/10/5
f 10/10/5 11/11/6 12/12/6
f 12/12/6 11/11/6 13/13/7
f 12/12/6 13/13/7 14/14/7
f 15/15/8 16/16/9 17/17/10
f 16/16/9 15/15/8 18/18/11
f 21/19/12 20/17/10 19/20/13
f 20/17/10 21/19/12 22/15/14
f 25/7/15 24/20/16 23/21/17
f 24/20/16 25/7/15 26/19/18
f 27/22/19 29/7/15 28/21/17
f 29/7/15 27/22/19 30/23/20
f 31/24/21 33/23/22 32/22/23
f 33/23/22 31/24/21 34/25/24
f 35/26/25 37/25/26 36/24/27
f 37/25/26 35/26/25 38/27/28
f 39/28/29 40/29/29 41/30/29
f 40/29/29 39/28/29 42/31/29
f 43/32/29 44/31/29 45/33/29
f 44/31/29 43/32/29 46/29/29
f 47/34/29 48/35/29 49/36/29
f 48/35/29 47/34/29 50/37/29
f 51/35/29 52/28/29 53/30/29
f 52/28/29 51/35/29 54/37/29
f 55/38/29 56/39/29 57/40/29
f 56/39/29 55/38/29 58/41/29
f 59/39/29 60/41/29 61/42/29
f 59/39/29 61/42/29 62/43/29
f 63/44/29 64/45/29 65/42/29
f 65/42/29 64/45/29 66/43/29
f 67/38/29 68/32/29 69/33/29
f 68/32/29 67/38/29 70/40/29
f 71/46/29 72/47/29 73/48/29
f 72/47/29 71/46/29 74/49/29
f 75/50/29 76/48/29 77/51/29
f 76/48/29 75/50/29 78/46/29
f 79/52/29 80/51/29 81/53/29
f 82/51/29 83/52/29 84/50/29
f 85/49/29 86/44/29 87/47/29
f 86/44/29 85/49/29 88/45/29
f 89/53/29 90/54/29 91/52/29
f 90/54/29 89/53/29 92/55/29
f 93/55/29 94/56/29 95/54/29
f 94/56/29 93/55/29 96/57/29
f 97/56/29 98/57/29 99/58/29
f 98/57/29 100/59/29 99/58/29
f 101/60/29 102/61/29 103/59/29
f 103/59/29 102/61/29 104/58/29
f 105/62/29 106/63/29 107/64/29
f 106/63/29 105/62/29 108/65/29
f 109/60/29 110/66/29 111/61/29
f 110/66/29 112/67/29 111/61/29
f 113/67/29 114/68/29 115/69/29
f 116/68/29 117/67/29 118/66/29
f 119/69/29 120/65/29 121/62/29
f 120/65/29 119/69/29 122/68/29
f 123/70/29 124/71/29 125/72/29
f 124/71/29 123/70/29 126/73/29
f 127/73/29 128/34/29 129/71/29
f 128/34/29 130/36/29 129/71/29
f 131/64/29 132/74/29 133/75/29
f 132/74/29 131/64/29 134/63/29
f 135/75/29 136/74/29 137/72/29
f 136/74/29 138/70/29 137/72/29
f 139/76/30 140/77/31 141/78/32
f 142/79/29 139/76/30 141/78/32
f 141/78/32 140/77/31 143/80/33
f 140/77/31 144/81/34 143/80/33
f 143/80/33 144/81/34 145/82/35
f 145/82/35 144/81/34 146/83/36
f 145/82/35 146/83/36 147/84/37
f 148/81/38 149/85/39 150/86/40
f 148/81/38 150/86/40 151/87/41
f 149/85/39 148/81/38 152/77/31
f 148/81/38 151/87/41 153/83/36
f 152/77/31 154/76/30 149/85/39
f 155/88/42 149/85/39 154/76/30
f 156/79/29 155/88/42 154/76/30
f 157/87/41 158/89/43 159/90/44
f 158/89/43 157/87/41 160/86/40
f 160/86/40 161/85/39 158/89/43
f 161/85/39 162/91/45 158/89/43
f 161/85/39 163/92/46 162/91/45
f 163/92/46 161/85/39 164/88/42
f 165/79/29 163/92/46 164/88/42
f 166/79/29 167/93/47 168/92/48
f 167/93/47 169/91/45 168/92/48
f 169/91/45 167/93/47 170/94/49
f 170/94/49 171/89/43 169/91/45
f 171/89/43 170/94/49 172/95/50
f 172/95/50 173/90/44 171/89/43
f 173/90/44 172/95/50 174/96/51
f 175/97/52 176/96/53 177/95/50
f 175/97/52 177/95/50 178/98/54
f 177/95/50 179/99/55 178/98/54
f 179/99/55 177/95/50 180/94/49
f 180/94/49 181/100/56 179/99/55
f 181/100/56 180/94/49 182/93/47
f 183/79/29 181/100/56 182/93/47
f 184/101/57 185/99/55 186/100/56
f 187/79/29 184/101/57 186/100/56
f 185/99/55 184/101/57 188/102/58
f 189/103/59 185/99/55 188/102/58
f 185/99/55 189/103/59 190/98/54
f 191/104/60 190/98/54 189/103/59
f 190/98/54 191/104/60 192/97/52
f 193/105/61 194/103/59 195/102/58
f 196/101/57 193/105/61 195/102/58
f 193/105/61 196/101/57 197/106/62
f 198/79/29 197/106/62 196/101/57
f 194/103/59 193/105/61 199/107/63
f 200/108/64 194/103/59 199/107/63
f 194/103/59 200/108/64 201/104/65
f 202/109/66 203/110/67 204/111/68
f 203/110/67 202/109/66 205/112/69
f 204/111/68 206/113/70 202/109/66
f 206/113/70 204/111/68 207/114/71
f 207/114/71 208/115/72 206/113/70
f 208/115/72 207/114/71 209/116/73
f 210/79/29 208/115/72 209/116/73
f 211/109/74 212/117/75 213/118/76
f 211/109/74 214/119/77 212/117/75
f 211/109/74 213/118/76 215/112/69
f 214/119/77 211/109/74 216/113/70
f 216/113/70 217/120/78 214/119/77
f 217/120/78 216/113/70 218/115/72
f 219/79/29 217/120/78 218/115/72
f 220/79/29 221/121/79 222/120/78
f 222/120/78 221/121/79 223/122/80
f 224/119/77 222/120/78 223/122/80
f 223/122/80 225/117/75 224/119/77
f 225/117/75 223/122/80 226/123/81
f 226/123/81 227/118/82 225/117/75
f 227/118/82 226/123/81 228/124/83
f 229/124/83 231/125/84 230/126/85
f 231/125/84 229/124/83 232/123/86
f 231/125/84 232/123/86 233/122/80
f 231/125/84 233/122/80 234/127/87
f 233/122/80 235/121/79 234/127/87
f 234/127/87 235/121/79 236/128/88
f 237/79/29 236/128/88 235/121/79
f 238/127/87 239/129/89 240/130/90
f 239/129/89 238/127/87 241/128/88
f 242/79/29 239/129/89 241/128/88
f 240/130/90 243/125/84 238/127/87
f 243/125/84 240/130/90 244/131/91
f 245/132/13 243/125/84 244/131/91
f 245/132/13 246/126/92 243/125/84
f 247/133/93 248/134/94 249/135/95
f 248/134/94 250/136/96 249/135/95
f 251/79/29 250/136/96 248/134/94
f 247/133/93 249/135/95 252/137/97
f 253/138/98 247/133/93 252/137/97
f 252/137/97 254/139/99 253/138/98
f 254/139/99 252/137/97 255/140/100
f 256/141/101 257/137/102 258/135/95
f 256/141/101 259/140/100 257/137/102
f 256/141/101 258/135/95 260/142/103
f 259/140/100 256/141/101 261/143/104
f 258/135/95 262/136/96 260/142/103
f 260/142/103 262/136/96 263/144/105
f 264/79/29 263/144/105 262/136/96
f 265/141/101 266/145/106 267/146/107
f 268/147/108 265/141/101 267/146/107
f 266/145/106 265/141/101 269/142/103
f 268/147/108 270/143/104 265/141/101
f 269/142/103 271/148/109 266/145/106
f 271/148/109 269/142/103 272/144/105
f 273/79/29 271/148/109 272/144/105
f 274/79/29 275/149/110 276/148/109
f 275/149/110 277/145/106 276/148/109
f 277/145/106 275/149/110 278/150/111
f 278/150/111 279/146/112 277/145/106
f 279/146/112 278/150/111 280/151/113
f 280/151/113 281/147/108 279/146/112
f 281/147/108 280/151/113 282/152/114
f 284/152/115 285/153/116 283/154/117
f 285/153/116 284/152/115 286/151/113
f 287/150/111 285/153/116 286/151/113
f 285/153/116 287/150/111 288/155/118
f 289/149/110 288/155/118 287/150/111
f 288/155/118 289/149/110 290/156/119
f 291/79/29 290/156/119 289/149/110
f 292/78/32 293/155/118 294/156/119
f 295/79/29 292/78/32 294/156/119
f 293/155/118 292/78/32 296/80/33
f 296/80/33 297/153/120 293/155/118
f 297/153/120 296/80/33 298/82/35
f 298/82/35 299/154/117 297/153/120
f 299/154/117 298/82/35 300/84/37
f 301/111/68 302/105/61 303/114/71
f 302/105/61 301/111/68 304/107/121
f 305/106/122 303/114/71 302/105/61
f 303/114/71 305/106/122 306/116/73
f 307/79/29 306/116/73 305/106/122
f 308/110/67 304/107/121 301/111/68
f 304/107/121 308/110/67 309/108/64
f 310/157/123 311/130/90 312/158/124
f 311/130/90 313/159/125 312/158/124
f 313/159/125 311/130/90 314/129/126
f 315/79/29 313/159/125 314/129/126
f 311/130/90 310/157/123 316/131/127
f 317/160/128 316/131/127 310/157/123
f 316/131/127 317/160/128 318/132/13
f 319/161/129 320/158/124 321/162/130
f 320/158/124 319/161/129 322/157/123
f 323/159/125 321/162/130 320/158/124
f 321/162/130 323/159/125 324/163/131
f 325/79/29 324/163/131 323/159/125
f 326/164/19 322/157/123 319/161/129
f 322/157/123 326/164/19 327/160/128
f 328/165/132 329/161/133 330/166/134
f 329/161/133 331/167/135 330/166/134
f 329/161/133 328/165/132 332/164/19
f 331/167/135 329/161/133 333/162/130
f 333/162/130 334/168/136 331/167/135
f 334/168/136 333/162/130 335/163/131
f 336/79/29 334/168/136 335/163/131
f 337/79/29 338/169/137 339/168/138
f 338/169/137 340/170/139 339/168/138
f 339/168/138 340/170/139 341/167/135
f 340/170/139 342/166/134 341/167/135
f 342/166/134 340/170/139 343/171/140
f 342/166/134 343/171/140 344/172/141
f 342/166/134 344/172/141 345/165/142
f 346/134/143 347/170/139 348/169/137
f 349/79/29 346/134/143 348/169/137
f 347/170/139 346/134/143 350/133/93
f 350/133/93 351/171/140 347/170/139
f 351/171/140 350/133/93 352/138/98
f 351/171/140 352/138/98 353/139/99
f 351/171/140 353/139/99 354/172/141
f 355/10/144 356/8/145 357/9/144
f 356/8/145 358/7/145 357/9/144
f 355/10/144 357/9/144 359/173/146
f 360/174/146 355/10/144 359/173/146
f 360/174/146 359/173/146 361/175/147
f 361/175/147 362/176/147 360/174/146
f 364/2/7 363/3/7 365/177/148
f 365/177/148 366/178/149 364/2/7
f 366/178/149 365/177/148 367/5/150
f 368/6/151 366/178/149 367/5/150
f 368/6/151 367/5/150 369/7/145
f 370/8/145 368/6/151 369/7/145
f 371/179/152 372/20/153 373/19/154
f 371/179/152 373/19/154 374/15/155
f 375/20/100 376/21/156 377/7/157
f 375/20/100 377/7/157 378/19/154
f 379/22/158 381/7/157 380/21/156
f 381/7/157 379/22/158 382/23/159
f 384/24/160 385/23/161 383/22/108
f 385/23/161 384/24/160 386/25/162
f 387/26/163 388/25/162 389/24/164
f 388/25/162 387/26/163 390/27/165
f 391/179/152 393/15/155 392/180/166
f 392/180/166 393/15/155 394/18/28
f 397/1/167 396/2/147 395/3/147
f 397/1/167 398/4/167 396/2/147
f 399/5/168 398/4/167 397/1/167
f 399/5/168 400/6/168 398/4/167
f 401/7/169 400/6/168 399/5/168
f 401/7/169 402/8/169 400/6/168
f 403/9/170 402/8/169 401/7/169
f 403/9/170 404/10/170 402/8/169
f 405/173/171 404/10/170 403/9/170
f 405/173/171 406/174/171 404/10/170
f 407/175/172 406/174/171 405/173/171
f 407/175/172 408/176/172 406/174/171
f 410/179/173 409/20/36 411/19/174
f 411/19/174 412/181/175 410/179/173
f 414/20/36 413/21/176 415/7/177
f 415/7/177 416/19/178 414/20/36
f 418/182/44 419/7/177 417/21/176
f 419/7/177 418/182/44 420/23/179
f 422/24/180 423/23/181 421/182/44
f 423/23/181 422/24/180 424/25/182
f 425/25/183 426/183/184 427/27/185
f 426/183/184 425/25/183 428/24/180
f 429/180/186 430/179/173 431/181/187
f 432/184/165 429/180/186 431/181/187
f 433/31/188 434/185/188 435/186/188
f 433/31/188 436/37/188 437/187/188
f 433/31/188 438/34/188 436/37/188
f 435/186/188 438/34/188 433/31/188
f 438/34/188 435/186/188 439/73/188
f 440/47/188 434/185/188 433/31/188
f 440/47/188 433/31/188 441/33/188
f 434/185/188 442/68/188 435/186/188
f 442/68/188 434/185/188 443/66/188
f 444/65/188 435/186/188 442/68/188
f 444/65/188 445/188/188 435/186/188
f 445/188/188 444/65/188 446/189/188
f 447/41/188 440/47/188 441/33/188
f 447/41/188 441/33/188 448/38/188
f 440/47/188 447/41/188 449/44/188
f 449/44/188 447/41/188 450/42/188
f 434/185/188 440/47/188 451/190/188
f 434/185/188 451/190/188 452/59/188
f 451/190/188 440/47/188 453/53/188
f 451/190/188 453/53/188 454/55/188
f 453/53/188 440/47/188 455/191/188
f 453/53/188 455/191/188 456/51/188
f 459/1/189 458/2/172 457/3/172
f 458/2/172 459/1/189 460/4/189
f 461/5/190 460/4/189 459/1/189
f 460/4/189 461/5/190 462/6/190
f 463/7/191 462/6/190 461/5/190
f 462/6/190 463/7/191 464/8/191
f 465/9/192 464/8/191 463/7/191
f 464/8/191 465/9/192 466/10/193
f 467/173/194 466/10/193 465/9/192
f 466/10/193 467/173/194 468/174/194
f 469/13/2 468/174/194 467/173/194
f 468/174/194 469/13/2 470/14/2
f 472/180/195 471/179/196 473/15/197
f 473/15/197 474/18/185 472/180/195
f 477/19/198 476/179/196 475/20/64
f 477/19/198 478/15/199 476/179/196
f 480/22/69 481/7/200 479/21/201
f 481/7/200 480/22/69 482/23/202
f 483/24/203 485/23/204 484/22/205
f 485/23/204 483/24/203 486/25/206
f 488/26/207 489/25/208 487/24/209
f 489/25/208 488/26/207 490/27/11
f 493/7/200 492/20/210 491/21/201
f 493/7/200 494/19/198 492/20/210
f 497/192/1 496/193/2 495/194/2
f 496/193/2 497/192/1 498/195/1
f 497/192/1 499/196/3 498/195/1
f 498/195/1 499/196/3 500/197/3
f 499/196/3 501/198/4 500/197/3
f 500/197/3 501/198/4 502/199/4
f 501/198/4 503/200/5 502/199/4
f 502/199/4 503/200/5 504/201/5
f 503/200/5 505/202/6 504/201/5
f 504/201/5 505/202/6 506/203/6
f 506/203/6 505/202/6 507/204/7
f 506/203/6 507/204/7 508/205/7
f 509/206/8 510/207/9 511/208/10
f 510/207/9 509/206/8 512/209/11
f 515/210/12 514/208/10 513/211/13
f 514/208/10 515/210/12 516/206/14
f 519/198/15 518/211/16 517/212/17
f 518/211/16 519/198/15 520/210/18
f 521/213/19 523/198/15 522/212/17
f 523/198/15 521/213/19 524/214/20
f 525/215/21 527/214/22 526/213/23
f 527/214/22 525/215/21 528/216/24
f 529/217/25 531/216/26 530/215/27
f 531/216/26 529/217/25 532/218/28
f 533/219/29 534/220/29 535/221/29
f 534/220/29 533/219/29 536/222/29
f 537/223/29 538/222/29 539/224/29
f 538/222/29 537/223/29 540/220/29
f 541/225/29 542/226/29 543/227/29
f 542/226/29 541/225/29 544/228/29
f 545/226/29 546/219/29 547/221/29
f 546/219/29 545/226/29 548/228/29
f 549/229/29 550/230/29 551/231/29
f 550/230/29 549/229/29 552/232/29
f 553/230/29 554/232/29 555/233/29
f 553/230/29 555/233/29 556/234/29
f 557/235/29 558/236/29 559/233/29
f 559/233/29 558/236/29 560/234/29
f 561/229/29 562/223/29 563/224/29
f 562/223/29 561/229/29 564/231/29
f 565/237/29 566/238/29 567/239/29
f 566/238/29 565/237/29 568/240/29
f 569/241/29 570/239/29 571/242/29
f 570/239/29 569/241/29 572/237/29
f 573/243/29 574/242/29 575/244/29
f 576/242/29 577/243/29 578/241/29
f 579/240/29 580/235/29 581/238/29
f 580/235/29 579/240/29 582/236/29
f 583/244/29 584/245/29 585/243/29
f 584/245/29 583/244/29 586/246/29
f 587/246/29 588/247/29 589/245/29
f 588/247/29 587/246/29 590/248/29
f 591/247/29 592/248/29 593/249/29
f 592/248/29 594/250/29 593/249/29
f 595/251/29 596/252/29 597/250/29
f 597/250/29 596/252/29 598/249/29
f 599/253/29 600/254/29 601/255/29
f 600/254/29 599/253/29 602/256/29
f 603/251/29 604/257/29 605/252/29
f 604/257/29 606/258/29 605/252/29
f 607/258/29 608/259/29 609/260/29
f 610/259/29 611/258/29 612/257/29
f 613/260/29 614/256/29 615/253/29
f 614/256/29 613/260/29 616/259/29
f 617/261/29 618/262/29 619/263/29
f 618/262/29 617/261/29 620/264/29
f 621/264/29 622/225/29 623/262/29
f 622/225/29 624/227/29 623/262/29
f 625/255/29 626/265/29 627/266/29
f 626/265/29 625/255/29 628/254/29
f 629/266/29 630/265/29 631/263/29
f 630/265/29 632/261/29 631/263/29
f 633/267/30 634/268/31 635/269/32
f 636/270/29 633/267/30 635/269/32
f 635/269/32 634/268/31 637/271/33
f 634/268/31 638/272/34 637/271/33
f 637/271/33 638/272/34 639/273/35
f 639/273/35 638/272/34 640/274/36
f 639/273/35 640/274/36 641/275/211
f 642/272/38 643/276/39 644/277/40
f 642/272/38 644/277/40 645/278/41
f 643/276/39 642/272/38 646/268/31
f 642/272/38 645/278/41 647/274/36
f 646/268/31 648/267/30 643/276/39
f 649/279/42 643/276/39 648/267/30
f 650/270/29 649/279/42 648/267/30
f 651/278/41 652/280/43 653/281/44
f 652/280/43 651/278/41 654/277/40
f 654/277/40 655/276/39 652/280/43
f 655/276/39 656/282/45 652/280/43
f 655/276/39 657/283/46 656/282/45
f 657/283/46 655/276/39 658/279/42
f 659/270/29 657/283/46 658/279/42
f 660/270/29 661/284/47 662/283/48
f 661/284/47 663/282/45 662/283/48
f 663/282/45 661/284/47 664/285/49
f 664/285/49 665/280/43 663/282/45
f 665/280/43 664/285/49 666/286/50
f 666/286/50 667/281/44 665/280/43
f 667/281/44 666/286/50 668/287/51
f 669/288/52 670/287/51 671/286/50
f 669/288/52 671/286/50 672/289/54
f 671/286/50 673/290/55 672/289/54
f 673/290/55 671/286/50 674/285/49
f 674/285/49 675/291/56 673/290/55
f 675/291/56 674/285/49 676/284/47
f 677/270/29 675/291/56 676/284/47
f 678/292/57 679/290/55 680/291/56
f 681/270/29 678/292/57 680/291/56
f 679/290/55 678/292/57 682/293/58
f 683/294/59 679/290/55 682/293/58
f 679/290/55 683/294/59 684/289/54
f 685/295/60 684/289/54 683/294/59
f 684/289/54 685/295/60 686/288/52
f 687/296/61 688/294/59 689/293/58
f 690/292/57 687/296/61 689/293/58
f 687/296/61 690/292/57 691/297/62
f 692/270/29 691/297/62 690/292/57
f 688/294/59 687/296/61 693/298/63
f 694/299/64 688/294/59 693/298/63
f 688/294/59 694/299/64 695/295/65
f 696/300/66 697/301/67 698/302/68
f 697/301/67 696/300/66 699/303/69
f 698/302/68 700/304/70 696/300/66
f 700/304/70 698/302/68 701/305/71
f 701/305/71 702/306/72 700/304/70
f 702/306/72 701/305/71 703/307/73
f 704/270/29 702/306/72 703/307/73
f 705/300/74 706/308/75 707/309/76
f 705/300/74 708/310/77 706/308/75
f 705/300/74 707/309/76 709/303/69
f 708/310/77 705/300/74 710/304/70
f 710/304/70 711/311/78 708/310/77
f 711/311/78 710/304/70 712/306/212
f 713/270/29 711/311/78 712/306/212
f 714/270/29 715/312/79 716/311/78
f 716/311/78 715/312/79 717/313/80
f 718/310/77 716/311/78 717/313/80
f 717/313/80 719/308/75 718/310/77
f 719/308/75 717/313/80 720/314/81
f 720/314/81 721/309/82 719/308/75
f 721/309/82 720/314/81 722/315/83
f 723/315/83 725/316/84 724/317/85
f 725/316/84 723/315/83 726/314/86
f 725/316/84 726/314/86 727/313/80
f 725/316/84 727/313/80 728/318/87
f 727/313/80 729/312/79 728/318/87
f 728/318/87 729/312/79 730/319/88
f 731/270/29 730/319/88 729/312/79
f 732/318/87 733/320/89 734/321/90
f 733/320/89 732/318/87 735/319/88
f 736/270/29 733/320/89 735/319/88
f 734/321/90 737/316/84 732/318/87
f 737/316/84 734/321/90 738/322/91
f 739/323/13 737/316/84 738/322/91
f 739/323/13 740/317/85 737/316/84
f 741/324/93 742/325/94 743/326/95
f 742/325/94 744/327/96 743/326/95
f 745/270/29 744/327/96 742/325/94
f 741/324/93 743/326/95 746/328/97
f 747/329/98 741/324/93 746/328/97
f 746/328/97 748/330/213 747/329/98
f 748/330/213 746/328/97 749/331/100
f 750/332/101 751/328/102 752/326/95
f 750/332/101 753/331/100 751/328/102
f 750/332/101 752/326/95 754/333/103
f 753/331/100 750/332/101 755/334/104
f 752/326/95 756/327/96 754/333/103
f 754/333/103 756/327/96 757/335/105
f 758/270/29 757/335/105 756/327/96
f 759/332/101 760/336/106 761/337/107
f 762/338/108 759/332/101 761/337/107
f 760/336/106 759/332/101 763/333/103
f 762/338/108 764/334/104 759/332/101
f 763/333/103 765/339/109 760/336/106
f 765/339/109 763/333/103 766/335/105
f 767/270/29 765/339/109 766/335/105
f 768/270/29 769/340/110 770/339/109
f 769/340/110 771/336/106 770/339/109
f 771/336/106 769/340/110 772/341/111
f 772/341/111 773/337/112 771/336/106
f 773/337/112 772/341/111 774/342/113
f 774/342/113 775/338/108 773/337/112
f 775/338/108 774/342/113 776/343/114
f 778/343/115 779/344/116 777/345/117
f 779/344/116 778/343/115 780/342/113
f 781/341/111 779/344/116 780/342/113
f 779/344/116 781/341/111 782/346/118
f 783/340/110 782/346/118 781/341/111
f 782/346/118 783/340/110 784/347/119
f 785/270/29 784/347/119 783/340/110
f 786/269/32 787/346/118 788/347/119
f 789/270/29 786/269/32 788/347/119
f 787/346/118 786/269/32 790/271/33
f 790/271/33 791/344/120 787/346/118
f 791/344/120 790/271/33 792/273/35
f 792/273/35 793/345/117 791/344/120
f 793/345/117 792/273/35 794/275/37
f 795/302/68 796/296/61 797/305/71
f 796/296/61 795/302/68 798/298/121
f 799/297/122 797/305/71 796/296/61
f 797/305/71 799/297/122 800/307/73
f 801/270/29 800/307/73 799/297/122
f 802/301/67 798/298/121 795/302/68
f 798/298/121 802/301/67 803/299/64
f 804/348/123 805/321/90 806/349/124
f 805/321/90 807/350/125 806/349/124
f 807/350/125 805/321/90 808/320/126
f 809/270/29 807/350/125 808/320/126
f 805/321/90 804/348/123 810/322/127
f 811/351/128 810/322/127 804/348/123
f 810/322/127 811/351/128 812/323/13
f 813/352/129 814/349/124 815/353/130
f 814/349/124 813/352/129 816/348/123
f 817/350/125 815/353/130 814/349/124
f 815/353/130 817/350/125 818/354/131
f 819/270/29 818/354/131 817/350/125
f 820/355/19 816/348/123 813/352/129
f 816/348/123 820/355/19 821/351/128
f 822/356/132 823/352/133 824/357/134
f 823/352/133 825/358/135 824/357/134
f 823/352/133 822/356/132 826/355/19
f 825/358/135 823/352/133 827/353/130
f 827/353/130 828/359/136 825/358/135
f 828/359/136 827/353/130 829/354/131
f 830/270/29 828/359/136 829/354/131
f 831/270/29 832/360/137 833/359/138
f 832/360/137 834/361/139 833/359/138
f 833/359/138 834/361/139 835/358/135
f 834/361/139 836/357/134 835/358/135
f 836/357/134 834/361/139 837/362/140
f 836/357/134 837/362/140 838/363/141
f 836/357/134 838/363/141 839/356/142
f 840/325/143 841/361/139 842/360/137
f 843/270/29 840/325/143 842/360/137
f 841/361/139 840/325/143 844/324/93
f 844/324/93 845/362/140 841/361/139
f 845/362/140 844/324/93 846/329/98
f 845/362/140 846/329/98 847/330/99
f 845/362/140 847/330/99 848/363/141
f 849/201/144 850/199/145 851/200/144
f 850/199/145 852/198/145 851/200/144
f 849/201/144 851/200/144 853/364/146
f 854/365/146 849/201/144 853/364/146
f 854/365/146 853/364/146 855/204/147
f 855/204/147 856/205/147 854/365/146
f 858/193/7 857/194/7 859/192/148
f 859/192/148 860/195/149 858/193/7
f 860/195/149 859/192/148 861/196/150
f 862/197/151 860/195/149 861/196/150
f 862/197/151 861/196/150 863/198/145
f 864/199/145 862/197/151 863/198/145
f 865/366/152 866/211/153 867/210/154
f 865/366/152 867/210/154 868/206/155
f 869/211/100 870/212/156 871/198/157
f 869/211/100 871/198/157 872/210/154
f 873/213/158 875/198/157 874/212/156
f 875/198/157 873/213/158 876/214/159
f 878/215/160 879/214/161 877/213/108
f 879/214/161 878/215/160 880/367/162
f 881/217/163 882/367/162 883/215/164
f 882/367/162 881/217/163 884/218/165
f 885/366/152 887/206/155 886/368/166
f 886/368/166 887/206/155 888/209/28
f 891/192/167 890/193/147 889/194/147
f 891/192/167 892/195/167 890/193/147
f 893/196/168 892/195/167 891/192/167
f 893/196/168 894/197/168 892/195/167
f 895/198/169 894/197/168 893/196/168
f 895/198/169 896/199/169 894/197/168
f 897/200/170 896/199/169 895/198/169
f 897/200/170 898/201/170 896/199/169
f 899/364/171 898/201/170 897/200/170
f 899/364/171 900/365/171 898/201/170
f 901/204/172 900/365/171 899/364/171
f 901/204/172 902/205/172 900/365/171
f 904/366/173 903/211/36 905/210/214
f 905/210/214 906/369/175 904/366/173
f 908/211/36 907/212/176 909/198/177
f 909/198/177 910/210/178 908/211/36
f 912/213/44 913/198/177 911/212/176
f 913/198/177 912/213/44 914/370/179
f 916/371/215 917/370/216 915/213/44
f 917/370/216 916/371/215 918/367/182
f 919/367/183 920/217/184 921/218/185
f 920/217/184 919/367/183 922/371/180
f 923/368/117 924/366/173 925/369/187
f 926/372/165 923/368/117 925/369/187
f 927/222/188 928/373/188 929/261/188
f 927/222/188 930/228/188 931/219/188
f 927/222/188 932/225/188 930/228/188
f 929/261/188 932/225/188 927/222/188
f 932/225/188 929/261/188 933/264/188
f 934/374/188 928/373/188 927/222/188
f 934/374/188 927/222/188 935/375/188
f 928/373/188 936/259/188 929/261/188
f 936/259/188 928/373/188 937/257/188
f 938/256/188 929/261/188 936/259/188
f 938/256/188 939/265/188 929/261/188
f 939/265/188 938/256/188 940/254/188
f 941/232/188 934/374/188 935/375/188
f 941/232/188 935/375/188 942/229/188
f 934/374/188 941/232/188 943/376/188
f 943/376/188 941/232/188 944/233/188
f 928/373/188 934/374/188 945/377/188
f 928/373/188 945/377/188 946/378/188
f 945/377/188 934/374/188 947/244/188
f 945/377/188 947/244/188 948/379/188
f 947/244/188 934/374/188 949/239/188
f 947/244/188 949/239/188 950/242/188
f 953/192/189 952/193/172 951/194/172
f 952/193/172 953/192/189 954/195/189
f 955/196/190 954/195/189 953/192/189
f 954/195/189 955/196/190 956/197/190
f 957/198/191 956/197/190 955/196/190
f 956/197/190 957/198/191 958/199/191
f 959/200/192 958/199/191 957/198/191
f 958/199/191 959/200/192 960/201/193
f 961/364/194 960/201/193 959/200/192
f 960/201/193 961/364/194 962/365/194
f 963/204/2 962/365/194 961/364/194
f 962/365/194 963/204/2 964/205/2
f 966/368/195 965/366/196 967/206/197
f 967/206/197 968/209/185 966/368/195
f 971/210/198 970/366/196 969/211/64
f 971/210/198 972/206/199 970/366/196
f 974/213/69 975/198/200 973/212/201
f 975/198/200 974/213/69 976/214/202
f 977/215/203 979/214/204 978/213/205
f 979/214/204 977/215/203 980/216/206
f 982/217/207 983/216/208 981/215/209
f 983/216/208 982/217/207 984/218/11
f 987/198/200 986/211/210 985/212/201
f 987/198/200 988/210/198 986/211/210
usemtl Handle1Mtl.050
f 989/380/2 990/381/2 991/382/2
f 990/381/2 989/380/2 992/383/2
f 993/384/2 994/385/2 995/386/2
f 994/385/2 993/384/2 996/387/2
f 997/388/217 998/383/217 999/380/217
f 998/383/217 997/388/217 1000/389/217
f 1001/390/217 1002/387/217 1003/384/217
f 1002/387/217 1001/390/217 1004/391/217
f 1005/392/29 1006/393/29 1007/394/29
f 1007/394/29 1006/393/29 1008/395/29
f 1007/394/29 1008/395/29 1009/396/29
f 1007/394/29 1010/397/29 1005/392/29
f 1010/397/29 1007/394/29 1011/398/29
f 1010/397/29 1011/398/29 1012/399/29
f 1013/400/29 1014/401/29 1015/402/29
f 1015/402/29 1014/401/29 1016/403/29
f 1015/402/29 1016/403/29 1017/404/29
f 1015/402/29 1018/405/29 1013/400/29
f 1018/405/29 1015/402/29 1019/406/29
f 1018/405/29 1019/406/29 1020/407/29
f 1021/388/147 1022/408/147 1023/389/147
f 1022/408/147 1024/409/147 1023/389/147
f 1025/382/7 1026/380/7 1027/410/7
f 1026/380/7 1028/411/7 1027/410/7
f 1029/412/147 1030/391/147 1031/413/147
f 1032/390/147 1031/413/147 1030/391/147
f 1033/387/7 1034/385/7 1035/384/7
f 1036/386/7 1035/384/7 1034/385/7
f 1037/388/145 1038/411/145 1039/380/145
f 1038/411/145 1037/388/145 1040/389/145
f 1041/390/145 1042/387/145 1043/384/145
f 1042/387/145 1041/390/145 1044/391/145
f 1045/388/172 1046/408/172 1047/414/172
f 1046/408/172 1048/415/172 1047/414/172
f 1049/412/172 1050/391/172 1051/413/172
f 1052/390/172 1051/413/172 1050/391/172
f 1053/388/218 1054/411/218 1055/380/218
f 1054/411/218 1053/388/218 1056/414/218
f 1057/390/218 1058/387/218 1059/384/218
f 1058/387/218 1057/390/218 1060/391/218
f 1061/402/188 1062/406/188 1063/405/188
f 1063/405/188 1062/406/188 1064/407/188
f 1065/400/188 1061/402/188 1063/405/188
f 1061/402/188 1065/400/188 1066/401/188
f 1061/402/188 1066/401/188 1067/403/188
f 1061/402/188 1067/403/188 1068/404/188
f 1069/388/191 1070/383/191 1071/380/191
f 1070/383/191 1069/388/191 1072/414/191
f 1073/390/191 1074/387/191 1075/384/191
f 1074/387/191 1073/390/191 1076/391/191
