# Blender 5.1.2
# www.blender.org
mtllib SteeringWheel.mtl
o SteeringWheel
v 0.626081 0.637962 0.014702
v 0.117082 -0.413578 -0.008499
v 0.430282 -0.100358 -0.008499
v 0.430282 -0.100358 0.037804
v 0.117082 -0.413578 0.037804
v 0.845282 0.240142 0.049702
v 0.884381 0.014292 0.014702
v 0.854382 0.242572 0.014702
v 0.874982 0.014292 0.049702
v 0.820581 0.233512 0.075302
v 0.874982 0.014292 0.049702
v 0.845282 -0.211558 0.049702
v 0.854382 -0.213978 0.014702
v 0.845282 -0.211558 -0.020298
v 0.874982 0.014292 -0.020298
v 0.820581 0.233512 -0.045998
v 0.874982 0.014292 -0.020298
v 0.845282 0.240142 -0.020298
v 0.758081 0.450602 -0.020298
v 0.845282 0.240142 -0.020298
v 0.766281 0.455292 0.014702
v 0.758081 0.450602 0.049702
v 0.845282 0.240142 0.049702
v -0.522219 -0.510378 0.014702
v -0.648318 -0.361398 -0.020298
v -0.528918 -0.517008 -0.020298
v -0.640219 -0.356708 0.014702
v 0.619482 -0.602738 -0.020298
v 0.766281 -0.426708 0.014702
v 0.626081 -0.609368 0.014702
v 0.758081 -0.422018 -0.020298
v -0.528918 0.545602 0.049702
v -0.648318 0.389982 0.049702
v -0.522219 0.538972 0.014702
v -0.640219 0.385292 0.014702
v -0.723418 0.208762 0.049702
v -0.648318 0.389982 0.049702
v -0.714318 0.206342 0.014702
v -0.723418 0.208762 -0.020298
v -0.648318 0.389982 -0.020298
v -0.640219 0.385292 0.014702
v -0.714318 0.206342 0.014702
v -0.749019 0.014292 -0.020298
v -0.739618 0.014292 0.014702
v -0.723418 0.208762 -0.020298
v -0.774618 0.014292 -0.045998
v -0.748118 0.215402 -0.045998
v -0.748118 0.215402 0.075302
v -0.774618 0.014292 0.075302
v -0.723418 0.208762 0.049702
v -0.749019 0.014292 0.049702
v -0.739618 0.014292 0.014702
v 0.214481 -0.777038 -0.008499
v 0.117082 -0.413578 -0.008499
v 0.117082 -0.413578 0.037804
v 0.214481 -0.777038 0.037804
v 0.062582 -0.089968 -0.452099
v 0.062582 -0.089968 -0.042397
v 0.106682 -0.045898 -0.042397
v 0.106682 -0.045898 -0.452099
v 0.122782 0.014292 -0.042397
v 0.122782 0.014292 -0.452099
v 0.106682 0.074492 -0.042397
v 0.106682 0.074492 -0.452099
v 0.062582 0.118562 -0.042397
v 0.062582 0.118562 -0.452099
v 0.147382 -0.236848 -0.042397
v 0.147382 -0.236848 0.071701
v 0.253582 -0.130708 -0.042397
v 0.253582 -0.130708 0.071701
v 0.292381 0.014292 -0.042397
v 0.292381 0.014292 0.071701
v 0.253582 0.159292 -0.042397
v 0.253582 0.159292 0.071701
v 0.147382 0.265442 -0.042397
v 0.147382 0.265442 0.071701
v -0.522219 -0.510378 0.014702
v 0.845282 -0.211558 -0.020298
v 0.758081 -0.422018 -0.020298
v 0.758081 -0.422018 0.049702
v 0.845282 -0.211558 0.049702
v 0.619482 -0.602738 0.049702
v 0.758081 -0.422018 0.049702
v 0.619482 0.631332 0.049702
v 0.758081 0.450602 0.049702
v 0.619482 0.631332 -0.020298
v 0.758081 0.450602 -0.020298
v -0.522219 0.538972 0.014702
v -0.648318 0.389982 -0.020298
v -0.528918 0.545602 -0.020298
v -0.528918 -0.517008 0.049702
v -0.648318 -0.361398 0.049702
v -0.640219 -0.356708 0.014702
v -0.723418 -0.180178 0.049702
v -0.648318 -0.361398 0.049702
v -0.714318 -0.177748 0.014702
v -0.723418 -0.180178 -0.020298
v -0.648318 -0.361398 -0.020298
v -0.714318 -0.177748 0.014702
v -0.749019 0.014292 -0.020298
v -0.739618 0.014292 0.014702
v -0.723418 -0.180178 -0.020298
v -0.774618 0.014292 -0.045998
v -0.748118 -0.186808 -0.045998
v -0.748118 -0.186808 0.075302
v -0.774618 0.014292 0.075302
v -0.723418 -0.180178 0.049702
v -0.749019 0.014292 0.049702
v -0.739618 0.014292 0.014702
v 0.443381 0.778132 0.014702
v 0.619482 0.631332 0.049702
v 0.626081 0.637962 0.014702
v 0.438682 0.770012 0.049702
v 0.438682 0.770012 0.049702
v 0.228282 0.857182 0.049702
v 0.230681 0.866242 0.014702
v 0.438682 0.770012 -0.020298
v 0.228282 0.857182 -0.020298
v 0.203482 -0.736228 0.075302
v 0.002381 -0.762708 0.075302
v 0.196881 -0.711478 0.049702
v 0.002381 -0.737078 0.049702
v 0.194482 -0.702418 0.014702
v 0.002381 -0.727708 0.014702
v -0.189618 -0.702418 0.014702
v 0.002381 -0.737078 0.049702
v -0.192019 -0.711478 0.049702
v 0.002381 -0.762708 0.075302
v -0.198718 -0.736228 0.075302
v 0.002381 -0.762708 -0.045998
v 0.002381 0.896292 0.014702
v -0.223418 0.857182 -0.020298
v -0.225919 0.866242 0.014702
v 0.002381 0.886922 -0.020298
v -0.216819 0.832432 -0.045998
v -0.433918 0.770012 -0.020298
v -0.223418 0.857182 -0.020298
v -0.438619 0.778132 0.014702
v -0.433918 0.770012 0.049702
v -0.223418 0.857182 0.049702
v -0.373319 -0.636418 -0.020298
v -0.528918 -0.517008 -0.020298
v -0.522219 -0.510378 0.014702
v -0.368618 -0.628298 0.014702
v 0.527081 -0.510378 0.014702
v 0.378081 -0.636418 -0.020298
v 0.533682 -0.517008 -0.020298
v 0.373382 -0.628298 0.014702
v -0.621219 0.637962 0.014702
v -0.425419 0.128942 -0.008499
v -0.788918 0.226332 -0.008499
v -0.788918 0.226332 0.037804
v -0.425419 0.128942 0.037804
v 0.430282 0.128942 -0.008499
v 0.430282 0.128942 0.037804
v 0.793781 0.226332 -0.008499
v 0.793781 0.226332 0.037804
v 0.062582 0.118562 -0.042397
v 0.062582 0.118562 -0.452099
v 0.002381 0.134692 -0.042397
v 0.002381 0.134692 -0.452099
v -0.057818 0.118562 -0.452099
v -0.057818 0.118562 -0.042397
v -0.142618 0.265442 0.071701
v -0.142618 0.265442 -0.042397
v 0.002381 0.304292 0.071701
v 0.002381 0.304292 -0.042397
v 0.147382 0.265442 -0.042397
v 0.147382 0.265442 0.071701
v -0.198718 -0.736228 -0.045998
v -0.192019 -0.711478 -0.020298
v 0.002381 -0.737078 -0.020298
v -0.189618 -0.702418 0.014702
v 0.002381 -0.727708 0.014702
v -0.192019 -0.711478 -0.020298
v -0.373319 -0.636418 -0.020298
v -0.373319 -0.636418 0.049702
v -0.192019 -0.711478 0.049702
v -0.368618 -0.628298 0.014702
v -0.522219 -0.510378 0.014702
v -0.373319 -0.636418 0.049702
v -0.528918 -0.517008 0.049702
v 0.527081 -0.510378 0.014702
v 0.221581 0.832432 -0.045998
v 0.002381 0.886922 -0.020298
v 0.228282 0.857182 -0.020298
v 0.228282 0.857182 0.049702
v 0.002381 0.886922 0.049702
v 0.221581 0.832432 0.075302
v -0.216819 0.832432 0.075302
v 0.002381 0.886922 0.049702
v -0.223418 0.857182 0.049702
v 0.533682 -0.517008 0.049702
v 0.378081 -0.636418 0.049702
v 0.373382 -0.628298 0.014702
v 0.196881 -0.711478 0.049702
v 0.378081 -0.636418 0.049702
v 0.378081 -0.636418 -0.020298
v 0.196881 -0.711478 -0.020298
v 0.194482 -0.702418 0.014702
v 0.002381 -0.737078 -0.020298
v 0.196881 -0.711478 -0.020298
v 0.002381 -0.762708 -0.045998
v 0.203482 -0.736228 -0.045998
v 0.438682 0.770012 -0.020298
v 0.619482 0.631332 -0.020298
v -0.614618 0.631332 0.049702
v -0.433918 0.770012 0.049702
v -0.614618 0.631332 -0.020298
v -0.433918 0.770012 -0.020298
v 0.619482 0.631332 0.049702
v 0.438682 0.770012 0.049702
v 0.601281 0.613212 0.075302
v 0.425881 0.747822 0.075302
v 0.408381 0.717512 0.084701
v 0.576582 0.588462 0.084701
v 0.390882 0.687202 0.075302
v 0.551782 0.563722 0.075302
v 0.533682 0.545602 0.049702
v 0.378081 0.665012 0.049702
v 0.196881 0.740072 0.049702
v 0.378081 0.665012 0.049702
v 0.203482 0.764822 0.075302
v 0.390882 0.687202 0.075302
v 0.212582 0.798632 0.084701
v 0.408381 0.717512 0.084701
v 0.221581 0.832432 0.075302
v 0.425881 0.747822 0.075302
v 0.438682 0.770012 0.049702
v 0.228282 0.857182 0.049702
v 0.874982 0.014292 0.049702
v 0.820581 0.233512 0.075302
v 0.849381 0.014292 0.075302
v 0.786781 0.224452 0.084702
v 0.814382 0.014292 0.084702
v 0.752882 0.215402 0.075302
v 0.779382 0.014292 0.075302
v 0.728182 0.208762 0.049702
v 0.753781 0.014292 0.049702
v 0.753781 0.014292 0.049702
v 0.728182 -0.180178 0.049702
v 0.779382 0.014292 0.075302
v 0.752882 -0.186808 0.075302
v 0.814382 0.014292 0.084702
v 0.786781 -0.195868 0.084702
v 0.820581 -0.204928 0.075302
v 0.849381 0.014292 0.075302
v 0.874982 0.014292 0.049702
v 0.845282 -0.211558 0.049702
v 0.228282 -0.828588 0.049702
v 0.002381 -0.858328 0.049702
v 0.221581 -0.803848 0.075302
v 0.002381 -0.832708 0.075302
v 0.002381 -0.797708 0.084702
v 0.212582 -0.770038 0.084702
v 0.203482 -0.736228 0.075302
v 0.002381 -0.762708 0.075302
v 0.196881 -0.711478 0.049702
v 0.002381 -0.737078 0.049702
v 0.002381 -0.737078 0.049702
v -0.192019 -0.711478 0.049702
v 0.002381 -0.762708 0.075302
v -0.198718 -0.736228 0.075302
v -0.207719 -0.770038 0.084702
v 0.002381 -0.797708 0.084702
v 0.002381 -0.832708 0.075302
v -0.216819 -0.803848 0.075302
v 0.002381 -0.858328 0.049702
v -0.433918 0.770012 0.049702
v -0.223418 0.857182 0.049702
v -0.216819 0.832432 0.075302
v -0.421119 0.747822 0.075302
v -0.403619 0.717512 0.084701
v -0.207719 0.798632 0.084701
v -0.386119 0.687202 0.075302
v 0.758081 0.450602 0.049702
v 0.845282 0.240142 0.049702
v 0.820581 0.233512 0.075302
v 0.735882 0.437792 0.075302
v 0.705582 0.420292 0.084702
v 0.786781 0.224452 0.084702
v 0.675282 0.402792 0.075302
v -0.614618 -0.602738 0.049702
v -0.753319 -0.422018 0.049702
v -0.596519 -0.584628 0.075302
v -0.731118 -0.409208 0.075302
v -0.700818 -0.391708 0.084702
v -0.571718 -0.559878 0.084702
v -0.547018 -0.535128 0.075302
v 0.619482 -0.602738 0.049702
v 0.438682 -0.741418 0.049702
v 0.425881 -0.719228 0.075302
v 0.601281 -0.584628 0.075302
v 0.576582 -0.559878 0.084702
v 0.408381 -0.688918 0.084702
v 0.390882 -0.658608 0.075302
v -0.614618 0.631332 0.049702
v -0.753319 0.450602 0.049702
v -0.596519 0.613212 0.075302
v -0.731118 0.437792 0.075302
v -0.571718 0.588462 0.084701
v -0.700818 0.420292 0.084702
v -0.670519 0.402792 0.075302
v -0.547018 0.563722 0.075302
v -0.528918 0.545602 0.049702
v -0.648318 0.389982 0.049702
v -0.723418 0.208762 0.049702
v -0.648318 0.389982 0.049702
v -0.670519 0.402792 0.075302
v -0.748118 0.215402 0.075302
v -0.781919 0.224452 0.084702
v -0.700818 0.420292 0.084702
v -0.815719 0.233512 0.075302
v -0.731118 0.437792 0.075302
v -0.753319 0.450602 0.049702
v -0.840518 0.240142 0.049702
v -0.870218 0.014292 0.049702
v -0.815719 0.233512 0.075302
v -0.844619 0.014292 0.075302
v -0.781919 0.224452 0.084702
v -0.809618 0.014292 0.084702
v -0.748118 0.215402 0.075302
v -0.774618 0.014292 0.075302
v -0.723418 0.208762 0.049702
v -0.749019 0.014292 0.049702
v -0.142618 -0.236848 0.071701
v 0.147382 -0.236848 0.071701
v 0.147382 0.265442 0.071701
v 0.002381 -0.275708 0.071701
v 0.253582 -0.130708 0.071701
v -0.248718 -0.130708 0.071701
v 0.253582 0.159292 0.071701
v 0.292381 0.014292 0.071701
v -0.248718 0.159292 0.071701
v -0.287619 0.014292 0.071701
v -0.142618 0.265442 0.071701
v 0.002381 0.304292 0.071701
v -0.425419 -0.100358 0.037804
v -0.816818 0.014292 0.037804
v -0.788918 -0.197738 0.037804
v -0.425419 0.128942 0.037804
v -0.788918 0.226332 0.037804
v 0.430282 0.128942 0.037804
v 0.430282 -0.100358 0.037804
v 0.821682 0.014292 0.037804
v 0.793781 0.226332 0.037804
v 0.793781 -0.197738 0.037804
v 0.117082 -0.413578 0.037804
v -0.112219 -0.413578 0.037804
v 0.002381 -0.804948 0.037804
v -0.209619 -0.777038 0.037804
v 0.214481 -0.777038 0.037804
v -0.433918 -0.741418 0.049702
v -0.223418 -0.828588 0.049702
v -0.216819 -0.803848 0.075302
v -0.421119 -0.719228 0.075302
v -0.403619 -0.688918 0.084702
v -0.207719 -0.770038 0.084702
v -0.198718 -0.736228 0.075302
v -0.386119 -0.658608 0.075302
v -0.373319 -0.636418 0.049702
v -0.192019 -0.711478 0.049702
v -0.373319 -0.636418 0.049702
v -0.528918 -0.517008 0.049702
v -0.547018 -0.535128 0.075302
v -0.386119 -0.658608 0.075302
v -0.571718 -0.559878 0.084702
v -0.403619 -0.688918 0.084702
v -0.596519 -0.584628 0.075302
v -0.421119 -0.719228 0.075302
v -0.433918 -0.741418 0.049702
v -0.614618 -0.602738 0.049702
v 0.758081 -0.422018 0.049702
v 0.845282 -0.211558 0.049702
v 0.735882 -0.409208 0.075302
v 0.820581 -0.204928 0.075302
v 0.786781 -0.195868 0.084702
v 0.705582 -0.391708 0.084702
v 0.675282 -0.374208 0.075302
v 0.752882 -0.186808 0.075302
v 0.653082 -0.361398 0.049702
v 0.728182 -0.180178 0.049702
v 0.653082 -0.361398 0.049702
v 0.533682 -0.517008 0.049702
v 0.551782 -0.535128 0.075302
v 0.675282 -0.374208 0.075302
v 0.705582 -0.391708 0.084702
v 0.576582 -0.559878 0.084702
v 0.735882 -0.409208 0.075302
v 0.601281 -0.584628 0.075302
v 0.619482 -0.602738 0.049702
v 0.758081 -0.422018 0.049702
v 0.002381 0.886922 0.049702
v 0.221581 0.832432 0.075302
v 0.002381 0.861292 0.075302
v 0.212582 0.798632 0.084701
v 0.002381 0.826292 0.084701
v 0.203482 0.764822 0.075302
v 0.002381 0.791292 0.075302
v 0.196881 0.740072 0.049702
v 0.002381 0.765672 0.049702
v 0.002381 0.765672 0.049702
v -0.192019 0.740072 0.049702
v 0.002381 0.791292 0.075302
v -0.198718 0.764822 0.075302
v 0.002381 0.826292 0.084701
v -0.207719 0.798632 0.084701
v 0.002381 0.861292 0.075302
v -0.216819 0.832432 0.075302
v 0.002381 0.886922 0.049702
v 0.551782 -0.535128 0.075302
v 0.533682 -0.517008 0.049702
v 0.378081 -0.636418 0.049702
v 0.196881 -0.711478 0.049702
v 0.378081 -0.636418 0.049702
v 0.203482 -0.736228 0.075302
v 0.390882 -0.658608 0.075302
v 0.212582 -0.770038 0.084702
v 0.408381 -0.688918 0.084702
v 0.425881 -0.719228 0.075302
v 0.221581 -0.803848 0.075302
v 0.228282 -0.828588 0.049702
v 0.438682 -0.741418 0.049702
v 0.752882 0.215402 0.075302
v 0.728182 0.208762 0.049702
v 0.653082 0.389982 0.049702
v 0.653082 0.389982 0.049702
v 0.533682 0.545602 0.049702
v 0.551782 0.563722 0.075302
v 0.675282 0.402792 0.075302
v 0.705582 0.420292 0.084702
v 0.576582 0.588462 0.084701
v 0.735882 0.437792 0.075302
v 0.601281 0.613212 0.075302
v 0.619482 0.631332 0.049702
v 0.758081 0.450602 0.049702
v -0.198718 0.764822 0.075302
v -0.373319 0.665012 0.049702
v -0.192019 0.740072 0.049702
v -0.373319 0.665012 0.049702
v -0.528918 0.545602 0.049702
v -0.547018 0.563722 0.075302
v -0.386119 0.687202 0.075302
v -0.403619 0.717512 0.084701
v -0.571718 0.588462 0.084701
v -0.596519 0.613212 0.075302
v -0.421119 0.747822 0.075302
v -0.614618 0.631332 0.049702
v -0.433918 0.770012 0.049702
v -0.670519 -0.374208 0.075302
v -0.528918 -0.517008 0.049702
v -0.648318 -0.361398 0.049702
v -0.723418 -0.180178 0.049702
v -0.648318 -0.361398 0.049702
v -0.670519 -0.374208 0.075302
v -0.748118 -0.186808 0.075302
v -0.781919 -0.195868 0.084702
v -0.700818 -0.391708 0.084702
v -0.731118 -0.409208 0.075302
v -0.815719 -0.204928 0.075302
v -0.753319 -0.422018 0.049702
v -0.840518 -0.211558 0.049702
v -0.870218 0.014292 0.049702
v -0.815719 -0.204928 0.075302
v -0.844619 0.014292 0.075302
v -0.781919 -0.195868 0.084702
v -0.809618 0.014292 0.084702
v -0.748118 -0.186808 0.075302
v -0.774618 0.014292 0.075302
v -0.723418 -0.180178 0.049702
v -0.749019 0.014292 0.049702
v 0.527081 0.538972 0.014702
v -0.425419 -0.100358 -0.008499
v -0.112219 -0.413578 -0.008499
v -0.112219 -0.413578 0.037804
v -0.425419 -0.100358 0.037804
v 0.752882 0.215402 0.075302
v 0.779382 0.014292 0.075302
v 0.728182 0.208762 0.049702
v 0.753781 0.014292 0.049702
v 0.719082 0.206342 0.014702
v 0.744382 0.014292 0.014702
v 0.719082 -0.177748 0.014702
v 0.753781 0.014292 0.049702
v 0.728182 -0.180178 0.049702
v 0.779382 0.014292 0.075302
v 0.752882 -0.186808 0.075302
v 0.752882 -0.186808 -0.045998
v 0.753781 0.014292 -0.020298
v 0.719082 0.206342 0.014702
v 0.728182 0.208762 -0.020298
v 0.744382 0.014292 0.014702
v 0.779382 0.014292 -0.045998
v 0.752882 0.215402 -0.045998
v 0.728182 0.208762 -0.020298
v 0.653082 0.389982 -0.020298
v 0.644981 0.385292 0.014702
v -0.621219 -0.609368 0.014702
v -0.753319 -0.422018 -0.020298
v -0.614618 -0.602738 -0.020298
v -0.761418 -0.426708 0.014702
v -0.614618 -0.602738 0.049702
v -0.753319 -0.422018 0.049702
v 0.653082 -0.361398 -0.020298
v 0.533682 -0.517008 -0.020298
v 0.527081 -0.510378 0.014702
v 0.644981 -0.356708 0.014702
v -0.761418 0.455292 0.014702
v -0.614618 0.631332 0.049702
v -0.621219 0.637962 0.014702
v -0.753319 0.450602 0.049702
v -0.753319 0.450602 0.049702
v -0.840518 0.240142 0.049702
v -0.849519 0.242572 0.014702
v -0.753319 0.450602 -0.020298
v -0.840518 0.240142 -0.020298
v -0.815719 0.233512 -0.045998
v -0.870218 0.014292 -0.020298
v -0.840518 0.240142 -0.020298
v -0.879619 0.014292 0.014702
v -0.840518 0.240142 0.049702
v -0.870218 0.014292 0.049702
v -0.815719 0.233512 0.075302
v -0.112219 -0.413578 -0.008499
v -0.209619 -0.777038 -0.008499
v -0.209619 -0.777038 0.037804
v -0.112219 -0.413578 0.037804
v -0.057818 -0.089968 -0.452099
v -0.057818 -0.089968 -0.042397
v -0.101818 -0.045898 -0.452099
v -0.101818 -0.045898 -0.042397
v -0.118018 0.014292 -0.452099
v -0.118018 0.014292 -0.042397
v -0.101818 0.074492 -0.452099
v -0.101818 0.074492 -0.042397
v -0.057818 0.118562 -0.452099
v -0.057818 0.118562 -0.042397
v -0.142618 -0.236848 -0.042397
v -0.142618 -0.236848 0.071701
v -0.248718 -0.130708 0.071701
v -0.248718 -0.130708 -0.042397
v -0.287619 0.014292 0.071701
v -0.287619 0.014292 -0.042397
v -0.248718 0.159292 0.071701
v -0.248718 0.159292 -0.042397
v -0.142618 0.265442 0.071701
v -0.142618 0.265442 -0.042397
v 0.779382 0.014292 -0.045998
v 0.728182 -0.180178 -0.020298
v 0.753781 0.014292 -0.020298
v 0.719082 -0.177748 0.014702
v 0.728182 -0.180178 -0.020298
v 0.653082 -0.361398 -0.020298
v 0.653082 -0.361398 0.049702
v 0.728182 -0.180178 0.049702
v 0.644981 -0.356708 0.014702
v 0.527081 -0.510378 0.014702
v 0.653082 -0.361398 0.049702
v 0.533682 -0.517008 0.049702
v 0.728182 0.208762 0.049702
v 0.653082 0.389982 0.049702
v 0.644981 0.385292 0.014702
v 0.653082 0.389982 0.049702
v 0.533682 0.545602 0.049702
v 0.653082 0.389982 -0.020298
v 0.533682 0.545602 -0.020298
v 0.527081 0.538972 0.014702
v -0.753319 0.450602 -0.020298
v -0.614618 0.631332 -0.020298
v -0.753319 -0.422018 0.049702
v -0.840518 -0.211558 0.049702
v -0.849519 -0.213978 0.014702
v -0.753319 -0.422018 -0.020298
v -0.840518 -0.211558 -0.020298
v -0.815719 -0.204928 -0.045998
v -0.870218 0.014292 -0.020298
v -0.840518 -0.211558 -0.020298
v -0.879619 0.014292 0.014702
v -0.840518 -0.211558 0.049702
v -0.870218 0.014292 0.049702
v -0.815719 -0.204928 0.075302
v 0.533682 0.545602 0.049702
v 0.378081 0.665012 0.049702
v 0.527081 0.538972 0.014702
v 0.373382 0.656882 0.014702
v 0.196881 0.740072 0.049702
v 0.378081 0.665012 0.049702
v 0.194482 0.731012 0.014702
v 0.228282 -0.828588 0.049702
v 0.002381 -0.867708 0.014702
v 0.230681 -0.837648 0.014702
v 0.002381 -0.858328 0.049702
v -0.216819 -0.803848 0.075302
v 0.002381 -0.858328 0.049702
v -0.223418 -0.828588 0.049702
v -0.225919 -0.837648 0.014702
v -0.223418 -0.828588 -0.020298
v 0.002381 -0.858328 -0.020298
v -0.216819 -0.803848 -0.045998
v -0.198718 0.764822 -0.045998
v 0.002381 0.791292 -0.045998
v -0.192019 0.740072 -0.020298
v 0.002381 0.765672 -0.020298
v -0.189618 0.731012 0.014702
v 0.002381 0.756292 0.014702
v -0.368618 0.656882 0.014702
v -0.192019 0.740072 -0.020298
v -0.373319 0.665012 -0.020298
v -0.614618 -0.602738 -0.020298
v -0.438619 -0.749538 0.014702
v -0.621219 -0.609368 0.014702
v -0.433918 -0.741418 -0.020298
v 0.626081 -0.609368 0.014702
v 0.619482 -0.602738 -0.020298
v 0.438682 -0.741418 -0.020298
v 0.443381 -0.749538 0.014702
v 0.619482 -0.602738 0.049702
v 0.438682 -0.741418 0.049702
v -0.522219 0.538972 0.014702
v 0.062582 -0.089968 -0.452099
v 0.062582 -0.089968 -0.042397
v 0.002381 -0.106098 -0.452099
v 0.002381 -0.106098 -0.042397
v -0.057818 -0.089968 -0.452099
v -0.057818 -0.089968 -0.042397
v -0.142618 -0.236848 -0.042397
v 0.002381 -0.275708 -0.042397
v -0.142618 -0.236848 0.071701
v 0.002381 -0.275708 0.071701
v 0.147382 -0.236848 -0.042397
v 0.147382 -0.236848 0.071701
v -0.788918 -0.197738 -0.008499
v -0.425419 -0.100358 -0.008499
v -0.425419 -0.100358 0.037804
v -0.788918 -0.197738 0.037804
v 0.430282 -0.100358 -0.008499
v 0.793781 -0.197738 -0.008499
v 0.793781 -0.197738 0.037804
v 0.430282 -0.100358 0.037804
v -0.433918 -0.741418 -0.020298
v -0.223418 -0.828588 -0.020298
v -0.433918 -0.741418 0.049702
v -0.223418 -0.828588 0.049702
v -0.433918 -0.741418 0.049702
v -0.614618 -0.602738 0.049702
v 0.378081 0.665012 -0.020298
v 0.196881 0.740072 -0.020298
v 0.373382 0.656882 0.014702
v 0.194482 0.731012 0.014702
v 0.002381 0.765672 -0.020298
v 0.196881 0.740072 -0.020298
v 0.002381 0.791292 -0.045998
v 0.203482 0.764822 -0.045998
v 0.203482 0.764822 0.075302
v 0.002381 0.791292 0.075302
v 0.196881 0.740072 0.049702
v 0.002381 0.765672 0.049702
v 0.002381 0.756292 0.014702
v -0.189618 0.731012 0.014702
v 0.002381 0.765672 0.049702
v -0.192019 0.740072 0.049702
v 0.002381 0.791292 0.075302
v -0.198718 0.764822 0.075302
v 0.228282 -0.828588 0.049702
v 0.438682 -0.741418 0.049702
v 0.438682 -0.741418 -0.020298
v 0.228282 -0.828588 -0.020298
v 0.002381 -0.858328 -0.020298
v 0.228282 -0.828588 -0.020298
v 0.527081 0.538972 0.014702
v 0.378081 0.665012 -0.020298
v 0.533682 0.545602 -0.020298
v -0.373319 0.665012 0.049702
v -0.192019 0.740072 0.049702
v -0.368618 0.656882 0.014702
v -0.373319 0.665012 0.049702
v -0.528918 0.545602 0.049702
v -0.373319 0.665012 -0.020298
v -0.528918 0.545602 -0.020298
v -0.522219 0.538972 0.014702
v 0.122782 0.014292 -0.452099
v 0.002381 -0.106098 -0.452099
v -0.118018 0.014292 -0.452099
v -0.101818 -0.045898 -0.452099
v -0.057818 -0.089968 -0.452099
v 0.106682 -0.045898 -0.452099
v 0.062582 -0.089968 -0.452099
v 0.002381 0.134692 -0.452099
v -0.101818 0.074492 -0.452099
v -0.057818 0.118562 -0.452099
v 0.062582 0.118562 -0.452099
v 0.106682 0.074492 -0.452099
v 0.438682 0.770012 -0.020298
v 0.228282 0.857182 -0.020298
v 0.221581 0.832432 -0.045998
v 0.425881 0.747822 -0.045998
v 0.408381 0.717512 -0.055298
v 0.212582 0.798632 -0.055298
v 0.390882 0.687202 -0.045998
v 0.845282 -0.211558 -0.020298
v 0.874982 0.014292 -0.020298
v 0.820581 -0.204928 -0.045998
v 0.849381 0.014292 -0.045998
v 0.814382 0.014292 -0.055298
v 0.786781 -0.195868 -0.055298
v 0.752882 -0.186808 -0.045998
v 0.002381 -0.858328 -0.020298
v -0.216819 -0.803848 -0.045998
v 0.002381 -0.832708 -0.045998
v -0.207719 -0.770038 -0.055298
v 0.002381 -0.797708 -0.055298
v 0.002381 -0.762708 -0.045998
v 0.002381 0.886922 -0.020298
v -0.216819 0.832432 -0.045998
v 0.002381 0.861292 -0.045998
v -0.207719 0.798632 -0.055298
v 0.002381 0.826292 -0.055298
v -0.198718 0.764822 -0.045998
v 0.002381 0.791292 -0.045998
v -0.192019 0.740072 -0.020298
v 0.002381 0.765672 -0.020298
v -0.192019 0.740072 -0.020298
v -0.373319 0.665012 -0.020298
v -0.198718 0.764822 -0.045998
v -0.386119 0.687202 -0.045998
v -0.207719 0.798632 -0.055298
v -0.403619 0.717512 -0.055298
v -0.216819 0.832432 -0.045998
v -0.421119 0.747822 -0.045998
v -0.433918 0.770012 -0.020298
v -0.223418 0.857182 -0.020298
v 0.753781 0.014292 -0.020298
v 0.728182 0.208762 -0.020298
v 0.779382 0.014292 -0.045998
v 0.752882 0.215402 -0.045998
v 0.814382 0.014292 -0.055298
v 0.786781 0.224452 -0.055298
v 0.849381 0.014292 -0.045998
v 0.820581 0.233512 -0.045998
v 0.874982 0.014292 -0.020298
v 0.758081 0.450602 -0.020298
v 0.845282 0.240142 -0.020298
v 0.820581 0.233512 -0.045998
v 0.735882 0.437792 -0.045998
v 0.705582 0.420292 -0.055298
v 0.786781 0.224452 -0.055298
v 0.675282 0.402792 -0.045998
v 0.752882 0.215402 -0.045998
v 0.728182 0.208762 -0.020298
v 0.653082 0.389982 -0.020298
v -0.614618 -0.602738 -0.020298
v -0.433918 -0.741418 -0.020298
v -0.596519 -0.584628 -0.045998
v -0.421119 -0.719228 -0.045998
v -0.403619 -0.688918 -0.055298
v -0.571718 -0.559878 -0.055298
v -0.386119 -0.658608 -0.045998
v -0.547018 -0.535128 -0.045998
v -0.373319 -0.636418 -0.020298
v -0.528918 -0.517008 -0.020298
v -0.648318 -0.361398 -0.020298
v -0.528918 -0.517008 -0.020298
v -0.670519 -0.374208 -0.045998
v -0.547018 -0.535128 -0.045998
v -0.700818 -0.391708 -0.055298
v -0.571718 -0.559878 -0.055298
v -0.596519 -0.584628 -0.045998
v -0.731118 -0.409208 -0.045998
v -0.753319 -0.422018 -0.020298
v -0.614618 -0.602738 -0.020298
v 0.619482 -0.602738 -0.020298
v 0.758081 -0.422018 -0.020298
v 0.735882 -0.409208 -0.045998
v 0.601281 -0.584628 -0.045998
v 0.576582 -0.559878 -0.055298
v 0.705582 -0.391708 -0.055298
v 0.551782 -0.535128 -0.045998
v 0.675282 -0.374208 -0.045998
v 0.653082 -0.361398 -0.020298
v 0.533682 -0.517008 -0.020298
v 0.378081 -0.636418 -0.020298
v 0.533682 -0.517008 -0.020298
v 0.390882 -0.658608 -0.045998
v 0.551782 -0.535128 -0.045998
v 0.576582 -0.559878 -0.055298
v 0.408381 -0.688918 -0.055298
v 0.425881 -0.719228 -0.045998
v 0.601281 -0.584628 -0.045998
v 0.619482 -0.602738 -0.020298
v 0.438682 -0.741418 -0.020298
v -0.753319 0.450602 -0.020298
v -0.840518 0.240142 -0.020298
v -0.815719 0.233512 -0.045998
v -0.731118 0.437792 -0.045998
v -0.700818 0.420292 -0.055298
v -0.781919 0.224452 -0.055298
v -0.670519 0.402792 -0.045998
v -0.748118 0.215402 -0.045998
v -0.723418 0.208762 -0.020298
v -0.648318 0.389982 -0.020298
v -0.749019 0.014292 -0.020298
v -0.723418 0.208762 -0.020298
v -0.774618 0.014292 -0.045998
v -0.748118 0.215402 -0.045998
v -0.809618 0.014292 -0.055298
v -0.781919 0.224452 -0.055298
v -0.844619 0.014292 -0.045998
v -0.815719 0.233512 -0.045998
v -0.870218 0.014292 -0.020298
v 0.253582 -0.130708 -0.042397
v 0.147382 0.265442 -0.042397
v 0.253582 0.159292 -0.042397
v 0.292381 0.014292 -0.042397
v -0.142618 0.265442 -0.042397
v 0.002381 0.304292 -0.042397
v 0.147382 -0.236848 -0.042397
v -0.142618 -0.236848 -0.042397
v 0.002381 -0.275708 -0.042397
v -0.248718 -0.130708 -0.042397
v -0.248718 0.159292 -0.042397
v -0.287619 0.014292 -0.042397
v -0.425419 0.128942 -0.008499
v -0.816818 0.014292 -0.008499
v -0.788918 0.226332 -0.008499
v -0.425419 -0.100358 -0.008499
v -0.788918 -0.197738 -0.008499
v 0.430282 0.128942 -0.008499
v 0.430282 -0.100358 -0.008499
v 0.821682 0.014292 -0.008499
v 0.793781 0.226332 -0.008499
v 0.793781 -0.197738 -0.008499
v 0.117082 -0.413578 -0.008499
v -0.112219 -0.413578 -0.008499
v 0.002381 -0.804948 -0.008499
v 0.214481 -0.777038 -0.008499
v -0.209619 -0.777038 -0.008499
v -0.198718 -0.736228 -0.045998
v -0.192019 -0.711478 -0.020298
v 0.002381 -0.737078 -0.020298
v -0.192019 -0.711478 -0.020298
v -0.373319 -0.636418 -0.020298
v -0.198718 -0.736228 -0.045998
v -0.386119 -0.658608 -0.045998
v -0.403619 -0.688918 -0.055298
v -0.207719 -0.770038 -0.055298
v -0.216819 -0.803848 -0.045998
v -0.421119 -0.719228 -0.045998
v -0.433918 -0.741418 -0.020298
v -0.223418 -0.828588 -0.020298
v 0.779382 0.014292 -0.045998
v 0.728182 -0.180178 -0.020298
v 0.753781 0.014292 -0.020298
v 0.728182 -0.180178 -0.020298
v 0.653082 -0.361398 -0.020298
v 0.752882 -0.186808 -0.045998
v 0.675282 -0.374208 -0.045998
v 0.786781 -0.195868 -0.055298
v 0.705582 -0.391708 -0.055298
v 0.735882 -0.409208 -0.045998
v 0.820581 -0.204928 -0.045998
v 0.845282 -0.211558 -0.020298
v 0.758081 -0.422018 -0.020298
v 0.203482 0.764822 -0.045998
v 0.378081 0.665012 -0.020298
v 0.196881 0.740072 -0.020298
v 0.002381 0.765672 -0.020298
v 0.196881 0.740072 -0.020298
v 0.002381 0.791292 -0.045998
v 0.203482 0.764822 -0.045998
v 0.002381 0.826292 -0.055298
v 0.212582 0.798632 -0.055298
v 0.002381 0.861292 -0.045998
v 0.221581 0.832432 -0.045998
v 0.002381 0.886922 -0.020298
v 0.438682 -0.741418 -0.020298
v 0.228282 -0.828588 -0.020298
v 0.425881 -0.719228 -0.045998
v 0.221581 -0.803848 -0.045998
v 0.212582 -0.770038 -0.055298
v 0.408381 -0.688918 -0.055298
v 0.390882 -0.658608 -0.045998
v 0.203482 -0.736228 -0.045998
v 0.378081 -0.636418 -0.020298
v 0.196881 -0.711478 -0.020298
v 0.002381 -0.737078 -0.020298
v 0.196881 -0.711478 -0.020298
v 0.002381 -0.762708 -0.045998
v 0.203482 -0.736228 -0.045998
v 0.002381 -0.797708 -0.055298
v 0.212582 -0.770038 -0.055298
v 0.221581 -0.803848 -0.045998
v 0.002381 -0.832708 -0.045998
v 0.002381 -0.858328 -0.020298
v 0.228282 -0.828588 -0.020298
v 0.619482 0.631332 -0.020298
v 0.758081 0.450602 -0.020298
v 0.735882 0.437792 -0.045998
v 0.601281 0.613212 -0.045998
v 0.576582 0.588462 -0.055298
v 0.705582 0.420292 -0.055298
v 0.551782 0.563722 -0.045998
v 0.675282 0.402792 -0.045998
v 0.653082 0.389982 -0.020298
v 0.533682 0.545602 -0.020298
v 0.378081 0.665012 -0.020298
v 0.533682 0.545602 -0.020298
v 0.390882 0.687202 -0.045998
v 0.551782 0.563722 -0.045998
v 0.576582 0.588462 -0.055298
v 0.408381 0.717512 -0.055298
v 0.601281 0.613212 -0.045998
v 0.425881 0.747822 -0.045998
v 0.438682 0.770012 -0.020298
v 0.619482 0.631332 -0.020298
v -0.614618 0.631332 -0.020298
v -0.433918 0.770012 -0.020298
v -0.421119 0.747822 -0.045998
v -0.596519 0.613212 -0.045998
v -0.403619 0.717512 -0.055298
v -0.571718 0.588462 -0.055298
v -0.547018 0.563722 -0.045998
v -0.386119 0.687202 -0.045998
v -0.373319 0.665012 -0.020298
v -0.528918 0.545602 -0.020298
v -0.648318 0.389982 -0.020298
v -0.528918 0.545602 -0.020298
v -0.670519 0.402792 -0.045998
v -0.547018 0.563722 -0.045998
v -0.571718 0.588462 -0.055298
v -0.700818 0.420292 -0.055298
v -0.731118 0.437792 -0.045998
v -0.596519 0.613212 -0.045998
v -0.753319 0.450602 -0.020298
v -0.614618 0.631332 -0.020298
v -0.753319 -0.422018 -0.020298
v -0.840518 -0.211558 -0.020298
v -0.815719 -0.204928 -0.045998
v -0.731118 -0.409208 -0.045998
v -0.781919 -0.195868 -0.055298
v -0.700818 -0.391708 -0.055298
v -0.670519 -0.374208 -0.045998
v -0.748118 -0.186808 -0.045998
v -0.723418 -0.180178 -0.020298
v -0.648318 -0.361398 -0.020298
v -0.749019 0.014292 -0.020298
v -0.723418 -0.180178 -0.020298
v -0.774618 0.014292 -0.045998
v -0.748118 -0.186808 -0.045998
v -0.809618 0.014292 -0.055298
v -0.781919 -0.195868 -0.055298
v -0.844619 0.014292 -0.045998
v -0.815719 -0.204928 -0.045998
v -0.870218 0.014292 -0.020298
vn 0.7071 -0.7071 -0.0000
vn 0.8424 0.2283 0.4881
vn 1.0000 -0.0000 -0.0000
vn 0.9658 0.2591 -0.0000
vn 0.8731 -0.0000 0.4876
vn 0.4959 0.1338 0.8580
vn 0.8424 -0.2283 0.4881
vn 0.9658 -0.2591 -0.0000
vn 0.8424 -0.2283 -0.4881
vn 0.8731 -0.0000 -0.4876
vn 0.4960 0.1338 -0.8580
vn 0.8424 0.2283 -0.4881
vn 0.7570 0.4336 -0.4888
vn 0.9658 0.2592 -0.0000
vn 0.8644 0.5029 -0.0000
vn 0.7570 0.4337 0.4888
vn 0.7447 0.4312 -0.5095
vn 0.7071 0.7071 -0.0001
vn 0.6072 0.6072 -0.5125
vn 0.8643 0.5029 -0.0001
vn 0.6164 -0.6164 -0.4899
vn 0.8643 -0.5029 -0.0000
vn 0.7569 -0.4337 -0.4888
vn 0.7447 -0.4312 0.5095
vn 0.6072 -0.6072 0.5125
vn 0.8643 -0.5029 0.0001
vn 0.8317 -0.2197 0.5099
vn 0.8644 -0.5029 -0.0000
vn 0.7447 -0.4311 0.5095
vn 0.8317 -0.2197 -0.5100
vn 0.7447 -0.4311 -0.5095
vn 0.9658 -0.2592 -0.0000
vn 0.8589 -0.0000 -0.5121
vn 0.4817 -0.0000 -0.8764
vn 0.4656 -0.1263 -0.8759
vn 0.8316 -0.2197 -0.5100
vn 0.4816 -0.0000 0.8764
vn 0.8316 -0.2197 0.5100
vn 0.4656 -0.1263 0.8759
vn 0.8589 -0.0000 0.5122
vn 0.9659 -0.2591 0.0001
vn 0.9659 0.2588 -0.0000
vn 0.9659 0.2589 -0.0000
vn 0.5029 -0.8643 -0.0000
vn 0.8643 0.5029 -0.0000
vn 0.5029 0.8643 -0.0000
vn 0.7570 -0.4337 -0.4888
vn 0.8644 -0.5028 -0.0000
vn 0.7570 -0.4337 0.4888
vn 0.6164 -0.6164 0.4900
vn 0.7569 -0.4337 0.4888
vn 0.6165 0.6164 0.4899
vn 0.7569 0.4337 0.4888
vn 0.7071 0.7071 -0.0000
vn 0.6164 0.6164 -0.4899
vn 0.7570 0.4337 -0.4888
vn 0.6072 -0.6072 -0.5125
vn 0.7071 0.7071 0.0001
vn 0.7447 0.4311 0.5095
vn 0.6072 0.6072 0.5125
vn 0.8317 0.2197 0.5099
vn 0.9658 0.2592 0.0001
vn 0.8317 0.2197 -0.5100
vn 0.7447 0.4311 -0.5095
vn 0.9659 0.2591 -0.0000
vn 0.8589 -0.0000 -0.5122
vn 0.8317 0.2197 -0.5099
vn 0.8316 0.2197 -0.5100
vn 0.4656 0.1263 -0.8759
vn 0.4656 0.1262 0.8759
vn 0.8316 0.2197 0.5100
vn 0.6164 0.6164 0.4899
vn 0.4337 0.7569 0.4888
vn 0.4337 0.7570 0.4888
vn 0.2592 0.9658 -0.0000
vn 0.2283 0.8424 0.4881
vn 0.5029 0.8644 -0.0000
vn 0.4337 0.7570 -0.4888
vn 0.2283 0.8424 -0.4881
vn -0.0000 0.4817 0.8764
vn -0.1262 0.4656 0.8759
vn -0.2197 0.8316 0.5100
vn -0.2591 0.9658 0.0001
vn -0.0000 0.8589 0.5121
vn -0.2196 0.8317 0.5100
vn -0.0000 1.0000 -0.0000
vn 0.2591 0.9659 -0.0000
vn -0.0000 0.8589 0.5122
vn 0.2197 0.8317 0.5099
vn 0.2196 0.8316 0.5100
vn 0.1263 0.4656 0.8759
vn -0.2283 0.8424 -0.4881
vn -0.2591 0.9658 -0.0000
vn -0.0000 0.8731 -0.4876
vn -0.1338 0.4960 -0.8580
vn -0.4336 0.7570 -0.4888
vn -0.5029 0.8644 -0.0000
vn -0.4337 0.7570 0.4888
vn -0.2283 0.8424 0.4881
vn 0.4311 0.7447 -0.5095
vn -0.4312 0.7447 -0.5095
vn -0.7071 0.7071 -0.0001
vn -0.6072 0.6072 -0.5125
vn -0.5029 0.8643 -0.0001
vn 0.1337 0.9910 -0.0000
vn -0.1337 0.9910 -0.0000
vn -0.2588 0.9659 -0.0000
vn -0.2593 0.9658 -0.0000
vn 0.5028 0.8644 -0.0000
vn -0.5029 0.8644 -0.0001
vn -0.5028 0.8644 -0.0000
vn -0.0000 0.4816 -0.8764
vn 0.1262 0.4656 -0.8759
vn 0.2197 0.8316 -0.5100
vn -0.0000 0.8589 -0.5121
vn 0.2197 0.8317 -0.5100
vn 0.2591 0.9658 -0.0001
vn -0.0000 1.0000 -0.0001
vn 0.2197 0.8317 -0.5099
vn 0.5029 0.8644 -0.0001
vn 0.2591 0.9658 -0.0000
vn 0.4311 0.7447 0.5095
vn 0.1338 0.4959 -0.8580
vn -0.0000 0.8731 0.4876
vn 0.1338 0.4960 0.8580
vn -0.1338 0.4960 0.8580
vn -0.7071 0.7071 -0.0000
vn -0.4312 0.7447 0.5095
vn -0.6072 0.6072 0.5125
vn -0.5029 0.8643 0.0001
vn -0.2197 0.8317 0.5099
vn -0.4311 0.7447 0.5095
vn -0.2197 0.8317 -0.5099
vn -0.4311 0.7447 -0.5095
vn -0.2197 0.8317 -0.5100
vn -0.1263 0.4656 -0.8759
vn 0.4337 0.7569 -0.4888
vn -0.5029 0.8643 -0.0000
vn -0.6164 0.6164 0.4899
vn -0.4337 0.7569 0.4888
vn -0.6164 0.6165 -0.4899
vn -0.4337 0.7570 -0.4888
vn 0.4337 0.7569 0.4889
vn 0.3624 0.3624 0.8587
vn 0.6164 0.6164 0.4900
vn 0.2591 0.4476 0.8559
vn 0.0079 0.0158 0.9998
vn 0.0157 0.0158 0.9998
vn -0.2444 -0.4178 0.8750
vn -0.3397 -0.3397 0.8770
vn -0.6071 -0.6072 0.5126
vn -0.4311 -0.7447 0.5095
vn -0.4311 -0.7447 0.5096
vn -0.1263 -0.4656 0.8759
vn -0.2197 -0.8316 0.5100
vn 0.0079 0.0236 0.9997
vn 0.1339 0.4959 0.8580
vn 0.8730 -0.0000 0.4877
vn 0.5179 -0.0000 0.8554
vn 0.0236 0.0079 0.9997
vn 0.0236 -0.0000 0.9997
vn -0.4656 -0.1263 0.8760
vn -0.4816 -0.0000 0.8764
vn -0.8316 -0.2197 0.5100
vn -0.8589 -0.0000 0.5122
vn -0.4817 -0.0000 0.8764
vn -0.8317 0.2197 0.5100
vn -0.4656 0.1262 0.8760
vn 0.0236 -0.0078 0.9997
vn 0.4959 -0.1338 0.8580
vn 0.8424 -0.2283 0.4882
vn 0.1338 -0.4959 0.8580
vn -0.0000 -0.8730 0.4877
vn 0.2283 -0.8424 0.4881
vn -0.0000 -0.5180 0.8554
vn -0.0000 -0.0236 0.9997
vn 0.0078 -0.0236 0.9997
vn -0.1263 0.4656 0.8760
vn -0.0000 0.4816 0.8764
vn 0.2197 0.8316 0.5100
vn -0.0079 -0.0236 0.9997
vn 0.1262 0.4656 0.8760
vn -0.1338 -0.4959 0.8580
vn -0.4336 0.7569 0.4889
vn -0.1338 0.4959 0.8580
vn -0.2591 0.4476 0.8559
vn -0.0079 0.0158 0.9998
vn -0.0079 0.0236 0.9997
vn 0.2443 -0.4178 0.8750
vn 0.7569 0.4336 0.4889
vn 0.4476 0.2591 0.8559
vn 0.0158 0.0079 0.9998
vn -0.4178 -0.2444 0.8750
vn -0.7569 -0.4337 0.4889
vn -0.6164 -0.6164 0.4900
vn -0.3624 -0.3624 0.8587
vn -0.4476 -0.2591 0.8559
vn -0.0157 -0.0079 0.9998
vn -0.0157 -0.0158 0.9998
vn 0.3398 0.3397 0.8770
vn 0.2591 -0.4476 0.8559
vn 0.4337 -0.7569 0.4889
vn 0.3624 -0.3624 0.8587
vn 0.0157 -0.0158 0.9998
vn 0.0079 -0.0157 0.9998
vn -0.2444 0.4178 0.8750
vn -0.7569 0.4337 0.4889
vn -0.3624 0.3624 0.8587
vn -0.6164 0.6164 0.4900
vn -0.4476 0.2591 0.8559
vn -0.0158 0.0157 0.9998
vn -0.0158 0.0079 0.9998
vn 0.4178 -0.2444 0.8750
vn 0.3398 -0.3397 0.8770
vn 0.6072 -0.6071 0.5126
vn 0.7446 -0.4311 0.5096
vn -0.0236 0.0079 0.9997
vn -0.4959 0.1338 0.8580
vn -0.8424 0.2283 0.4882
vn -0.8730 -0.0000 0.4877
vn -0.5180 -0.0000 0.8554
vn -0.0236 -0.0000 0.9997
vn 0.4656 -0.1263 0.8760
vn -0.0000 -0.0000 1.0000
vn -0.4336 -0.7569 0.4889
vn -0.2283 -0.8424 0.4882
vn -0.2591 -0.4476 0.8559
vn -0.0079 -0.0158 0.9998
vn 0.2444 0.4178 0.8750
vn 0.4311 0.7447 0.5096
vn 0.6071 0.6072 0.5126
vn -0.0079 -0.0157 0.9998
vn -0.4337 -0.7569 0.4889
vn 0.4476 -0.2591 0.8559
vn 0.7569 -0.4337 0.4889
vn 0.0236 -0.0079 0.9997
vn 0.0158 -0.0079 0.9998
vn -0.4178 0.2443 0.8750
vn -0.4656 0.1263 0.8759
vn -0.7447 0.4311 0.5095
vn -0.8316 0.2197 0.5100
vn -0.3398 0.3397 0.8770
vn -0.7446 0.4311 0.5095
vn -0.6072 0.6071 0.5126
vn -0.4178 0.2444 0.8750
vn 0.0157 -0.0079 0.9998
vn 0.0158 -0.0157 0.9998
vn 0.1338 0.4959 0.8580
vn -0.0000 0.8730 0.4877
vn -0.0000 0.5180 0.8554
vn 0.0078 0.0236 0.9997
vn -0.0000 0.0236 0.9997
vn -0.1262 -0.4656 0.8760
vn -0.0000 -0.4816 0.8764
vn -0.2197 -0.8317 0.5100
vn -0.0000 -0.4817 0.8764
vn -0.0000 -0.8589 0.5122
vn 0.2197 -0.8316 0.5100
vn 0.1263 -0.4655 0.8760
vn -0.0078 0.0236 0.9997
vn -0.3397 0.3398 0.8770
vn -0.4311 0.7446 0.5096
vn -0.1263 0.4656 0.8759
vn -0.2443 0.4178 0.8750
vn 0.0079 -0.0236 0.9997
vn 0.0079 -0.0158 0.9998
vn 0.2283 -0.8424 0.4882
vn 0.4336 -0.7569 0.4889
vn -0.4656 -0.1263 0.8759
vn -0.7446 -0.4311 0.5095
vn -0.3398 -0.3397 0.8770
vn -0.6072 -0.6071 0.5126
vn 0.0158 0.0157 0.9998
vn 0.7569 0.4337 0.4889
vn 0.1263 -0.4656 0.8759
vn 0.4311 -0.7446 0.5096
vn 0.4311 -0.7446 0.5095
vn 0.3397 -0.3398 0.8770
vn 0.6071 -0.6072 0.5126
vn 0.2444 -0.4178 0.8750
vn -0.0157 0.0158 0.9998
vn 0.4178 0.2444 0.8750
vn 0.6072 0.6072 0.5126
vn 0.7446 0.4311 0.5095
vn 0.4656 0.1263 0.8759
vn -0.0236 -0.0079 0.9997
vn -0.4959 -0.1338 0.8580
vn -0.7569 -0.4336 0.4889
vn -0.8424 -0.2283 0.4882
vn 0.4655 0.1263 0.8760
vn -0.7071 -0.7071 -0.0000
vn -0.8317 -0.2197 0.5100
vn -0.9658 -0.2591 0.0001
vn -0.8589 -0.0000 0.5121
vn -1.0000 -0.0000 0.0001
vn -0.9659 0.2591 -0.0000
vn -1.0000 -0.0000 -0.0000
vn -0.8317 0.2197 0.5099
vn -0.8317 0.2196 0.5100
vn -0.8589 -0.0000 -0.5121
vn -0.9658 -0.2591 -0.0000
vn -0.8317 -0.2197 -0.5100
vn -0.4816 -0.0000 -0.8764
vn -0.8316 -0.2196 -0.5100
vn -0.4656 -0.1263 -0.8759
vn -0.8317 -0.2197 -0.5099
vn -0.8643 -0.5029 -0.0000
vn -0.7447 -0.4311 -0.5095
vn -0.9658 -0.2591 -0.0001
vn -0.6164 -0.6164 -0.4899
vn -0.7570 -0.4337 -0.4888
vn -0.6164 -0.6164 0.4899
vn -0.7569 -0.4337 0.4888
vn -0.7447 0.4312 -0.5095
vn -0.8643 0.5029 -0.0000
vn -0.7570 0.4337 0.4888
vn -0.7570 0.4336 0.4888
vn -0.9658 0.2592 -0.0000
vn -0.8424 0.2283 0.4881
vn -0.8644 0.5029 -0.0000
vn -0.7570 0.4337 -0.4888
vn -0.8424 0.2283 -0.4881
vn -0.4960 0.1338 -0.8580
vn -0.8731 -0.0000 -0.4876
vn -0.8731 -0.0000 0.4876
vn -0.9658 0.2593 -0.0000
vn -0.9659 0.2588 -0.0000
vn -0.9659 0.2589 -0.0000
vn -0.5029 -0.8643 -0.0000
vn -0.5029 -0.8643 -0.0001
vn -0.8644 -0.5029 -0.0000
vn -0.5030 -0.8643 -0.0000
vn -0.4656 0.1262 -0.8759
vn -0.8316 0.2196 -0.5100
vn -0.8317 0.2197 -0.5100
vn -0.9658 0.2591 -0.0000
vn -0.9658 0.2591 -0.0001
vn -0.7447 0.4311 -0.5095
vn -0.9658 0.2591 0.0001
vn -0.7447 0.4312 0.5095
vn -0.8643 0.5029 0.0001
vn -0.8317 -0.2197 0.5099
vn -0.7447 -0.4311 0.5095
vn -0.9658 -0.2592 -0.0000
vn -0.7447 -0.4312 0.5095
vn -0.6072 -0.6072 0.5125
vn -0.7447 -0.4312 -0.5095
vn -0.6072 -0.6072 -0.5125
vn -0.8643 -0.5029 -0.0001
vn -0.6165 0.6164 -0.4899
vn -0.7570 -0.4337 0.4888
vn -0.8424 -0.2284 0.4881
vn -0.8424 -0.2283 -0.4881
vn -0.4959 -0.1338 -0.8580
vn -0.9659 -0.2591 -0.0000
vn -0.8424 -0.2283 0.4881
vn -0.4960 -0.1338 0.8580
vn -0.4312 -0.7447 0.5095
vn -0.7071 -0.7071 0.0001
vn -0.2197 -0.8317 0.5099
vn -0.5029 -0.8644 -0.0000
vn -0.2591 -0.9658 -0.0000
vn -0.0000 -1.0000 -0.0000
vn 0.2591 -0.9659 -0.0000
vn -0.0000 -0.8731 0.4876
vn -0.1338 -0.4960 0.8580
vn -0.2283 -0.8424 0.4881
vn -0.2283 -0.8424 -0.4881
vn -0.0000 -0.8730 -0.4876
vn -0.1338 -0.4959 -0.8580
vn -0.0000 -0.4816 -0.8764
vn 0.2196 -0.8316 -0.5100
vn 0.1263 -0.4656 -0.8759
vn -0.0000 -0.8589 -0.5121
vn 0.2591 -0.9658 -0.0000
vn 0.2197 -0.8317 -0.5100
vn 0.5029 -0.8644 -0.0000
vn 0.2197 -0.8317 -0.5099
vn 0.2592 -0.9658 -0.0000
vn 0.4311 -0.7447 -0.5095
vn -0.6164 -0.6164 -0.4900
vn -0.4337 -0.7569 -0.4888
vn 0.6164 -0.6165 -0.4899
vn 0.4337 -0.7570 -0.4888
vn 0.6164 -0.6164 0.4899
vn 0.4337 -0.7569 0.4888
vn 0.5028 -0.8644 -0.0000
vn -0.5028 -0.8644 -0.0000
vn -0.2592 -0.9658 -0.0000
vn -0.2591 -0.9659 -0.0000
vn -0.4337 -0.7570 -0.4888
vn -0.2284 -0.8424 -0.4881
vn -0.4337 -0.7570 0.4888
vn -0.4337 -0.7569 0.4888
vn -0.2197 -0.8317 -0.5099
vn -0.4311 -0.7447 -0.5095
vn -0.0000 -0.8589 -0.5122
vn -0.2591 -0.9658 -0.0001
vn -0.0000 -0.4817 -0.8764
vn -0.1262 -0.4656 -0.8759
vn -0.2196 -0.8316 -0.5100
vn -0.1263 -0.4657 0.8759
vn -0.0000 -1.0000 0.0001
vn -0.0000 -0.8589 0.5121
vn 0.2197 -0.8317 0.5100
vn 0.1262 -0.4656 0.8759
vn 0.4337 -0.7570 0.4888
vn 0.2284 -0.8424 0.4881
vn 0.4336 -0.7570 -0.4888
vn 0.2283 -0.8424 -0.4881
vn -0.0000 -0.8731 -0.4876
vn 0.2197 -0.8317 0.5099
vn 0.4311 -0.7447 0.5095
vn 0.6071 -0.6072 0.5125
vn -0.0000 -0.0000 -1.0000
vn -0.0001 -0.0000 -1.0000
vn 0.0002 -0.0000 -1.0000
vn 0.4336 0.7569 -0.4889
vn 0.1339 0.4959 -0.8580
vn 0.2591 0.4476 -0.8559
vn 0.0079 0.0158 -0.9998
vn 0.0079 0.0236 -0.9997
vn -0.2444 -0.4178 -0.8750
vn 0.4959 -0.1338 -0.8580
vn 0.8730 -0.0000 -0.4877
vn 0.8424 -0.2283 -0.4882
vn 0.5180 -0.0000 -0.8554
vn 0.0236 -0.0000 -0.9997
vn 0.0236 -0.0079 -0.9997
vn -0.4655 0.1262 -0.8760
vn -0.0000 -0.5180 -0.8554
vn -0.0000 -0.8730 -0.4877
vn -0.0079 -0.0236 -0.9997
vn -0.0000 -0.0236 -0.9997
vn -0.1338 0.4959 -0.8580
vn -0.0000 0.8730 -0.4877
vn -0.0000 0.5180 -0.8554
vn -0.0078 0.0236 -0.9997
vn -0.0000 0.0236 -0.9997
vn 0.1262 -0.4656 -0.8760
vn 0.4311 -0.7447 -0.5096
vn 0.2197 -0.8316 -0.5100
vn 0.2444 -0.4178 -0.8750
vn -0.0079 0.0236 -0.9997
vn -0.0079 0.0158 -0.9998
vn -0.2591 0.4476 -0.8559
vn -0.4336 0.7569 -0.4889
vn -0.2283 0.8424 -0.4882
vn -0.8316 -0.2197 -0.5100
vn -0.4817 -0.0000 -0.8764
vn -0.8588 -0.0000 -0.5122
vn -0.4656 -0.1263 -0.8760
vn 0.0236 0.0078 -0.9997
vn 0.4959 0.1338 -0.8580
vn 0.4959 0.1339 -0.8580
vn 0.7569 0.4336 -0.4889
vn 0.4476 0.2591 -0.8559
vn 0.0158 0.0079 -0.9998
vn 0.0236 0.0079 -0.9997
vn -0.4178 -0.2444 -0.8750
vn -0.3624 -0.3624 -0.8587
vn -0.4336 -0.7569 -0.4889
vn -0.2591 -0.4476 -0.8559
vn -0.0079 -0.0157 -0.9998
vn -0.0157 -0.0158 -0.9998
vn 0.2444 0.4178 -0.8750
vn 0.3397 0.3398 -0.8770
vn 0.4311 0.7446 -0.5095
vn 0.6071 0.6072 -0.5126
vn 0.6072 0.6072 -0.5126
vn 0.4178 0.2444 -0.8750
vn 0.7446 0.4311 -0.5095
vn 0.3398 0.3397 -0.8770
vn -0.0157 -0.0079 -0.9998
vn -0.4476 -0.2591 -0.8559
vn -0.7569 -0.4337 -0.4889
vn 0.6164 -0.6164 -0.4900
vn 0.4476 -0.2591 -0.8559
vn 0.7569 -0.4337 -0.4889
vn 0.3624 -0.3624 -0.8587
vn 0.0158 -0.0157 -0.9998
vn 0.0158 -0.0079 -0.9998
vn -0.3398 0.3397 -0.8770
vn -0.4178 0.2444 -0.8750
vn -0.6072 0.6071 -0.5126
vn -0.6071 0.6072 -0.5126
vn -0.2444 0.4178 -0.8750
vn -0.4311 0.7446 -0.5096
vn -0.3397 0.3397 -0.8770
vn 0.0157 -0.0157 -0.9998
vn 0.0079 -0.0157 -0.9998
vn 0.2591 -0.4476 -0.8559
vn 0.4337 -0.7569 -0.4889
vn -0.7569 0.4336 -0.4889
vn -0.4959 0.1338 -0.8580
vn -0.8424 0.2283 -0.4882
vn -0.4476 0.2591 -0.8559
vn -0.0158 0.0079 -0.9998
vn -0.0236 0.0079 -0.9997
vn 0.4178 -0.2444 -0.8750
vn 0.7447 -0.4311 -0.5096
vn 0.4656 -0.1263 -0.8760
vn 0.4816 -0.0000 -0.8764
vn -0.0236 -0.0000 -0.9997
vn -0.0236 0.0078 -0.9997
vn -0.5180 -0.0000 -0.8554
vn -0.8730 -0.0000 -0.4877
vn 0.1263 0.4656 -0.8760
vn -0.0000 0.8589 -0.5122
vn 0.1263 0.4656 -0.8759
vn 0.2443 0.4178 -0.8750
vn -0.0079 -0.0158 -0.9998
vn -0.8316 0.2197 -0.5100
vn -0.4656 0.1263 -0.8759
vn 0.7569 -0.4336 -0.4889
vn -0.1263 -0.4656 -0.8759
vn -0.2197 -0.8316 -0.5100
vn -0.1262 -0.4655 -0.8760
vn 0.2283 -0.8424 -0.4882
vn 0.1338 -0.4959 -0.8580
vn 0.0079 -0.0236 -0.9997
vn 0.0079 -0.0158 -0.9998
vn -0.2197 0.8316 -0.5100
vn -0.0000 0.4817 -0.8764
vn -0.1262 0.4656 -0.8760
vn -0.0000 -0.5179 -0.8554
vn 0.6164 0.6164 -0.4900
vn 0.7569 0.4337 -0.4889
vn 0.3624 0.3624 -0.8587
vn 0.0158 0.0157 -0.9998
vn 0.0157 0.0079 -0.9998
vn -0.3397 -0.3398 -0.8770
vn -0.6072 -0.6071 -0.5126
vn -0.6072 -0.6072 -0.5126
vn 0.0157 0.0158 -0.9998
vn 0.0079 0.0157 -0.9998
vn 0.4337 0.7569 -0.4889
vn -0.6164 0.6164 -0.4900
vn -0.4337 0.7569 -0.4889
vn -0.3624 0.3624 -0.8587
vn -0.0157 0.0158 -0.9998
vn 0.3397 -0.3398 -0.8770
vn 0.6071 -0.6072 -0.5126
vn 0.6072 -0.6071 -0.5126
vn 0.7446 -0.4311 -0.5095
vn 0.3398 -0.3397 -0.8770
vn -0.0157 0.0157 -0.9998
vn -0.0157 0.0079 -0.9998
vn -0.0236 -0.0079 -0.9997
vn -0.0158 -0.0079 -0.9998
vn 0.7447 0.4311 -0.5096
vn 0.4817 0.0001 -0.8764
vn 0.4656 0.1262 -0.8760
vt -0.750992 0.991572
vt -0.750992 1.398760
vt -0.811138 1.398760
vt -0.811138 0.991572
vt -0.826565 1.841410
vt -0.781065 1.547800
vt -0.781065 1.844570
vt -0.826565 1.547800
vt -0.859873 1.832790
vt -0.826565 1.254200
vt -0.781065 1.251040
vt -0.735565 1.254200
vt -0.735565 1.547800
vt -0.702256 1.832790
vt -0.735565 1.841410
vt -0.735565 2.115010
vt -0.781065 2.121100
vt -0.826565 2.115010
vt -0.735565 1.059410
vt -0.781065 0.865730
vt -0.735565 0.857109
vt -0.781065 1.065500
vt -0.735565 0.745656
vt -0.781065 0.974504
vt -0.781065 0.737036
vt -0.735565 0.980600
vt -0.826565 2.036200
vt -0.781065 2.229880
vt -0.826565 2.238500
vt -0.781065 2.030100
vt -0.826565 1.800620
vt -0.781065 1.797460
vt -0.735565 1.800620
vt -0.735565 2.036200
vt -0.702256 1.547800
vt -0.702256 1.809240
vt -0.859873 1.547800
vt -0.859873 1.809240
vt -0.750992 0.519073
vt -0.811138 0.519073
vt -0.174230 1.412260
vt -0.706886 1.469550
vt -0.706886 1.412260
vt -0.174230 1.469550
vt -0.706886 1.547800
vt -0.174230 1.547800
vt -0.706886 1.626060
vt -0.174230 1.626060
vt -0.706886 1.683350
vt -0.174230 1.683350
vt -0.706886 1.221310
vt -0.706886 1.359300
vt -0.855244 1.221310
vt -0.855244 1.359300
vt -0.855244 1.547800
vt -0.706886 1.736300
vt -0.855244 1.736300
vt -0.706886 1.874300
vt -0.855244 1.874300
vt -0.826565 0.980600
vt -0.826565 0.745656
vt -0.826565 2.349950
vt -0.781065 2.358570
vt -0.735565 2.349950
vt -0.735565 2.238500
vt -0.826565 1.059410
vt -0.826565 0.857109
vt -0.826565 1.294990
vt -0.781065 1.298150
vt -0.735565 1.294990
vt -0.702256 1.286370
vt -0.859873 1.286370
vt -1.096450 1.805720
vt -1.325300 1.851220
vt -1.333920 1.805720
vt -1.090350 1.851220
vt -0.819909 1.805720
vt -0.816754 1.851220
vt -1.090350 1.760220
vt -0.816754 1.760220
vt -0.523147 1.884530
vt -0.784580 1.884530
vt -0.775960 1.851220
vt -0.772803 1.805720
vt -0.523147 1.851220
vt -0.523147 1.805720
vt -0.273490 1.805720
vt -0.270335 1.851220
vt -0.261714 1.884530
vt -0.229541 1.760220
vt -0.226386 1.805720
vt -0.523147 1.760220
vt -0.238161 1.726910
vt 0.044057 1.760220
vt 0.050153 1.805720
vt 0.044057 1.851220
vt -0.229541 1.851220
vt -0.034752 1.760220
vt 0.167549 1.760220
vt 0.158927 1.805720
vt -0.040847 1.805720
vt -1.011540 1.760220
vt -1.205220 1.805720
vt -1.213840 1.760220
vt -1.005450 1.805720
vt 0.033085 1.775650
vt 0.505584 1.775650
vt 0.505584 1.835790
vt 0.033085 1.835790
vt -1.079380 1.775650
vt -1.079380 1.835790
vt -1.551880 1.775650
vt -1.551880 1.835790
vt -0.601405 1.198890
vt -0.523147 1.731540
vt -0.601405 1.731540
vt -0.523147 1.198890
vt -0.444890 1.731540
vt -0.444890 1.198890
vt -0.334647 1.731540
vt -0.334647 1.879900
vt -0.523147 1.879900
vt -0.711647 1.879900
vt -0.711647 1.731540
vt -0.523147 1.726910
vt -0.261714 1.726910
vt -0.270335 1.760220
vt -0.034752 1.851220
vt 0.167549 1.851220
vt -0.808133 1.726910
vt -0.808133 1.884530
vt -0.238161 1.884530
vt -1.011540 1.851220
vt -1.213840 1.851220
vt -0.775960 1.760220
vt -0.784580 1.726910
vt -1.325300 1.760220
vt 0.279001 1.851220
vt 0.287621 1.805720
vt 0.279001 1.760220
vt 0.044057 2.530230
vt 0.255447 2.326400
vt 0.279001 2.349950
vt 0.027403 2.501390
vt 0.004653 2.461980
vt 0.223274 2.294230
vt -0.018097 2.422580
vt 0.191101 2.262050
vt 0.167548 2.238500
vt -0.034752 2.393730
vt -0.261715 2.523490
vt -0.270335 2.491310
vt -0.249938 2.567440
vt -0.238161 2.611390
vt -0.229541 2.643560
vt 0.611261 1.547800
vt 0.540433 1.832790
vt 0.577953 1.547800
vt 0.496484 1.821010
vt 0.532453 1.547800
vt 0.452534 1.809240
vt 0.486953 1.547800
vt 0.420361 1.800620
vt 0.453644 1.547800
vt 0.420361 1.294990
vt 0.452534 1.286370
vt 0.496484 1.274600
vt 0.540433 1.262820
vt 0.572607 1.254200
vt -0.238163 0.484224
vt -0.523147 0.413396
vt -0.229541 0.452050
vt -0.523147 0.446705
vt -0.523147 0.492205
vt -0.249938 0.528173
vt -0.261715 0.572123
vt -0.523147 0.537704
vt -0.270335 0.604296
vt -0.523147 0.571013
vt -0.775960 0.604296
vt -0.796357 0.528173
vt -0.784581 0.572123
vt -0.808133 0.484224
vt -1.090350 2.530230
vt -0.808133 2.611390
vt -0.816754 2.643560
vt -1.073700 2.501390
vt -1.050950 2.461980
vt -0.796357 2.567440
vt -1.028200 2.422580
vt 0.459278 2.115010
vt 0.572607 1.841410
vt 0.430432 2.098350
vt 0.391028 2.075600
vt 0.351625 2.052850
vt -1.505570 0.980600
vt -1.325300 0.745656
vt -1.301740 0.769210
vt -1.476730 0.997254
vt -1.437320 1.020000
vt -1.269570 0.801382
vt -1.237400 0.833556
vt 0.278999 0.745656
vt 0.027403 0.594225
vt 0.044057 0.565378
vt 0.255447 0.769208
vt 0.223274 0.801382
vt 0.004653 0.633628
vt -0.018097 0.673032
vt -1.505570 2.115010
vt -1.301740 2.326400
vt -1.325300 2.349950
vt -1.476730 2.098350
vt -1.269570 2.294230
vt -1.437320 2.075600
vt -1.397920 2.052850
vt -1.237400 2.262050
vt -1.213840 2.238500
vt -1.369070 2.036200
vt -1.466660 1.800620
vt -1.498830 1.809240
vt -1.542780 1.821010
vt -1.586730 1.832790
vt -1.618900 1.841410
vt -1.657560 1.547800
vt -1.624250 1.547800
vt -1.578750 1.547800
vt -1.533250 1.547800
vt -1.499940 1.547800
vt -0.711647 1.221310
vt -0.334647 1.221310
vt -0.334647 1.874300
vt -0.523147 1.170800
vt -0.196656 1.359300
vt -0.849638 1.359300
vt -0.196656 1.736300
vt -0.146147 1.547800
vt -0.849638 1.736300
vt -0.900147 1.547800
vt -0.711647 1.874300
vt -0.523147 1.924800
vt -1.079380 1.398760
vt -1.588170 1.547800
vt -1.551880 1.272160
vt -1.079380 1.696850
vt -1.551880 1.823450
vt 0.033085 1.696850
vt 0.033085 1.398760
vt 0.541874 1.547800
vt 0.505584 1.823450
vt 0.505584 1.272160
vt -0.374105 0.991572
vt -0.672190 0.991572
vt -0.523147 0.482783
vt -0.798795 0.519073
vt -0.247501 0.519073
vt -1.090350 0.565378
vt -0.816754 0.452050
vt -1.073700 0.594223
vt -1.050950 0.633628
vt -1.028200 0.673032
vt -1.011540 0.701878
vt -1.213840 0.857109
vt 0.430432 0.997254
vt 0.459279 0.980600
vt 0.391029 1.020000
vt 0.351625 1.042750
vt 0.322779 1.059410
vt 0.191101 0.833556
vt 0.167548 0.857108
vt -0.523147 2.682210
vt -0.523147 2.648900
vt -0.523147 2.603400
vt -0.523147 2.557900
vt -0.523147 2.524600
vt -0.775960 2.491310
vt -0.784580 2.523490
vt -0.034752 0.701878
vt 0.322778 2.036200
vt -1.011540 2.393730
vt -1.397920 1.042750
vt -1.369070 1.059410
vt -1.466660 1.294990
vt -1.498830 1.286370
vt -1.542780 1.274600
vt -1.586730 1.262820
vt -1.618900 1.254200
vt -0.295303 1.398760
vt -0.295303 0.991572
vt -0.235157 0.991572
vt -0.235157 1.398760
vt -0.186421 1.547800
vt -0.186421 1.809240
vt -0.219730 1.800620
vt -0.265230 1.797460
vt -0.219730 1.547800
vt -0.265230 1.547800
vt -0.265230 1.298150
vt -0.219730 1.294990
vt -0.186421 1.286370
vt -0.310730 1.547800
vt -0.310730 1.800620
vt -0.344039 1.547800
vt -0.344039 1.809240
vt -0.265230 2.030100
vt -0.310730 2.036200
vt -0.310730 0.745656
vt -0.265230 0.974504
vt -0.310730 0.980600
vt -0.265230 0.737036
vt -0.219730 0.745656
vt -0.219730 0.980600
vt -0.310730 1.059410
vt -0.310730 0.857108
vt -0.265230 0.865730
vt -0.265230 1.065500
vt -0.265230 2.121100
vt -0.219730 2.349950
vt -0.265230 2.358570
vt -0.219730 2.115010
vt -0.265230 1.844570
vt -0.219730 1.841410
vt -0.310730 2.115010
vt -0.310730 1.841410
vt -0.344039 1.832790
vt -0.186421 1.832790
vt -0.295303 0.519073
vt -0.235157 0.519073
vt -0.872065 1.412260
vt -0.339409 1.412260
vt -0.872065 1.469550
vt -0.339409 1.469550
vt -0.872065 1.547800
vt -0.339409 1.547800
vt -0.872065 1.626060
vt -0.339409 1.626060
vt -0.872065 1.683350
vt -0.339409 1.683350
vt -0.339409 1.221310
vt -0.191051 1.221310
vt -0.191051 1.359300
vt -0.339409 1.359300
vt -0.191051 1.547800
vt -0.191051 1.736300
vt -0.339409 1.736300
vt -0.191051 1.874300
vt -0.339409 1.874300
vt -0.344039 1.286370
vt -0.310730 1.294990
vt -0.219730 1.059410
vt -0.219730 0.857108
vt -0.219730 2.036200
vt -0.265230 2.229880
vt -0.219730 2.238500
vt -0.310730 2.238500
vt -0.310730 2.349950
vt -0.265230 1.251040
vt -0.219730 1.254200
vt -0.310730 1.254200
vt -0.344039 1.262820
vt -0.186421 1.262820
vt 0.167548 1.851220
vt -0.819910 1.805720
vt -0.772805 1.805720
vt 0.278999 1.760220
vt 0.278999 1.851220
vt -0.261715 1.726910
vt -0.261715 1.884530
vt 0.167548 1.760220
vt -0.679662 1.547800
vt -0.523147 1.391290
vt -0.366633 1.547800
vt -0.387602 1.469550
vt -0.444890 1.412260
vt -0.658693 1.469550
vt -0.601405 1.412260
vt -0.523147 1.704320
vt -0.387602 1.626060
vt -0.444890 1.683350
vt -0.601405 1.683350
vt -0.658693 1.626060
vt -0.238161 0.484224
vt 0.255447 0.769210
vt 0.279001 0.745656
vt 0.027403 0.594223
vt 0.223275 0.801382
vt 0.167549 0.857109
vt 0.322778 1.059410
vt 0.391028 1.020000
vt 0.430434 0.997254
vt -1.325290 0.745656
vt -1.301740 0.769208
vt -1.213840 0.857108
vt -1.073700 0.594225
vt -0.798794 0.519073
vt -0.247499 0.519073
vt -0.261714 0.572123
vt -0.808132 0.484224
vt -0.784580 0.572123
vt 0.255449 2.326400
vt 0.223275 2.294230
vt 0.167549 2.238500
s 1
usemtl Handle1Mtl.054
f 2/1/1 3/2/1 4/3/1
f 2/1/1 4/3/1 5/4/1
f 6/5/2 7/6/3 8/7/4
f 7/6/3 6/5/2 9/8/5
f 9/8/5 6/5/2 10/9/6
f 12/10/7 7/6/3 11/8/5
f 7/6/3 12/10/7 13/11/8
f 14/12/9 7/6/3 13/11/8
f 14/12/9 15/13/10 7/6/3
f 17/13/10 16/14/11 18/15/12
f 18/15/12 7/6/3 17/13/10
f 7/6/3 18/15/12 8/7/4
f 19/16/13 8/7/14 20/15/12
f 8/7/14 19/16/13 21/17/15
f 8/7/14 21/17/15 22/18/16
f 8/7/14 22/18/16 23/5/2
f 25/19/17 24/20/18 26/21/19
f 24/20/18 25/19/17 27/22/20
f 28/23/21 29/24/22 30/25/1
f 28/23/21 31/26/23 29/24/22
f 33/27/24 34/28/1 32/29/25
f 34/28/1 33/27/24 35/30/26
f 36/31/27 35/30/28 37/27/29
f 35/30/28 36/31/27 38/32/8
f 39/33/30 40/34/31 41/30/28
f 39/33/30 41/30/28 42/32/32
f 43/13/33 42/32/8 44/6/3
f 43/13/33 45/33/30 42/32/8
f 46/35/34 47/36/35 45/33/36
f 49/37/37 50/31/38 48/38/39
f 51/8/40 38/32/41 50/31/27
f 38/32/41 51/8/40 52/6/3
f 53/39/14 54/1/42 55/4/14
f 53/39/14 55/4/14 56/40/43
f 57/41/44 59/42/28 58/43/44
f 60/44/28 59/42/28 57/41/44
f 60/44/28 61/45/3 59/42/28
f 62/46/3 61/45/3 60/44/28
f 62/46/3 63/47/45 61/45/3
f 64/48/15 63/47/45 62/46/3
f 64/48/15 65/49/46 63/47/45
f 66/50/46 65/49/46 64/48/15
f 67/51/44 69/52/22 68/53/44
f 69/52/22 70/54/28 68/53/44
f 69/52/22 71/45/3 70/54/28
f 71/45/3 72/55/3 70/54/28
f 71/45/3 73/56/15 72/55/3
f 73/56/15 74/57/15 72/55/3
f 73/56/15 75/58/46 74/57/15
f 75/58/46 76/59/46 74/57/15
f 79/26/47 78/12/9 13/11/32
f 79/26/47 13/11/32 29/24/48
f 13/11/32 80/60/49 29/24/48
f 80/60/49 13/11/32 81/10/7
f 82/61/50 29/24/22 83/60/51
f 29/24/22 82/61/50 30/25/1
f 21/17/45 84/62/52 85/18/53
f 21/17/45 1/63/54 84/62/52
f 21/17/45 86/64/55 1/63/54
f 86/64/55 21/17/45 87/16/56
f 89/34/31 88/28/1 41/30/22
f 89/34/31 90/65/57 88/28/1
f 77/20/58 92/66/59 91/67/60
f 77/20/58 93/22/45 92/66/59
f 93/22/15 94/68/61 95/66/59
f 93/22/15 96/69/62 94/68/61
f 97/70/63 27/22/15 98/19/64
f 27/22/15 97/70/63 99/69/4
f 99/69/65 100/13/66 101/6/3
f 100/13/66 99/69/65 102/70/67
f 103/35/34 102/70/68 104/71/69
f 106/37/37 105/72/70 107/68/71
f 96/69/4 108/8/40 107/68/61
f 96/69/4 109/6/3 108/8/40
f 110/73/46 111/74/72 112/75/54
f 111/74/72 110/73/46 113/76/73
f 114/76/74 116/77/75 115/78/76
f 116/77/75 114/76/74 110/73/77
f 117/79/78 116/77/75 110/73/77
f 117/79/78 118/80/79 116/77/75
f 120/81/80 119/82/81 121/83/82
f 123/84/83 122/85/84 121/83/85
f 123/84/83 124/86/86 122/85/84
f 125/87/87 126/85/88 124/86/86
f 126/85/88 125/87/87 127/88/89
f 128/81/80 127/88/90 129/89/91
f 131/86/86 132/90/92 133/91/93
f 132/90/92 131/86/86 134/92/94
f 134/92/94 135/93/95 132/90/92
f 136/94/96 133/91/93 137/90/92
f 133/91/93 136/94/96 138/95/97
f 133/91/93 138/95/97 139/96/98
f 133/91/93 139/96/98 140/97/99
f 141/98/100 142/99/19 143/100/54
f 141/98/100 143/100/54 144/101/46
f 146/102/101 145/103/102 147/104/103
f 145/103/102 146/102/101 148/105/104
f 150/106/105 151/107/75 152/108/87
f 150/106/105 152/108/87 153/109/105
f 154/110/106 150/106/105 153/109/105
f 154/110/106 153/109/105 155/111/106
f 156/112/107 154/110/106 155/111/106
f 156/112/107 155/111/106 157/113/108
f 159/114/109 160/115/86 158/116/77
f 161/117/86 160/115/86 159/114/109
f 161/117/86 163/118/110 160/115/86
f 162/119/111 163/118/110 161/117/86
f 165/120/111 164/121/111 166/122/86
f 167/115/86 165/120/111 166/122/86
f 167/115/86 166/122/86 169/123/109
f 168/124/109 167/115/86 169/123/109
f 130/125/112 170/126/113 171/127/114
f 172/92/115 171/127/116 173/87/117
f 172/92/115 173/87/117 174/86/118
f 175/127/119 144/101/120 173/87/121
f 175/127/119 176/98/100 144/101/120
f 178/88/89 179/101/77 177/128/122
f 179/101/77 178/88/89 125/87/121
f 180/100/58 181/128/122 179/101/46
f 181/128/122 180/100/58 182/129/60
f 184/130/123 185/92/94 186/80/79
f 186/80/79 185/92/94 131/86/86
f 186/80/79 131/86/86 116/77/87
f 131/86/86 187/78/76 116/77/87
f 187/78/76 131/86/86 188/85/124
f 188/85/124 189/131/125 187/78/76
f 191/85/124 192/97/99 190/132/126
f 131/86/86 192/97/99 191/85/124
f 192/97/99 131/86/86 133/91/93
f 183/103/127 194/133/128 193/134/129
f 183/103/127 195/105/130 194/133/128
f 195/105/97 123/84/93 196/83/131
f 195/105/97 196/83/131 197/133/132
f 199/135/133 148/105/97 198/102/134
f 148/105/97 199/135/133 200/84/93
f 200/84/93 201/92/115 174/86/86
f 201/92/115 200/84/93 202/135/133
f 203/125/112 202/135/135 204/136/136
f 206/137/55 205/79/137 110/73/46
f 206/137/55 110/73/46 112/75/54
f 138/95/138 207/138/139 208/96/140
f 138/95/138 149/139/127 207/138/139
f 138/95/138 209/140/141 149/139/127
f 209/140/141 138/95/138 210/94/142
f 212/141/143 213/142/144 211/143/145
f 213/142/144 212/141/143 214/144/146
f 215/145/147 213/142/144 214/144/146
f 213/142/144 215/145/147 216/146/148
f 217/147/149 216/146/148 215/145/147
f 216/146/148 217/147/149 218/148/150
f 217/147/149 219/149/151 218/148/150
f 219/149/151 217/147/149 220/150/152
f 222/150/153 223/151/154 221/152/155
f 223/151/154 222/150/153 224/147/149
f 224/147/149 225/153/156 223/151/154
f 225/153/156 224/147/149 226/145/147
f 226/145/147 227/154/157 225/153/156
f 227/154/157 226/145/147 228/144/146
f 229/141/143 227/154/157 228/144/146
f 227/154/157 229/141/143 230/155/76
f 231/156/158 232/157/6 233/158/159
f 233/158/159 232/157/6 234/159/160
f 234/159/160 235/160/161 233/158/159
f 235/160/161 234/159/160 236/161/162
f 236/161/162 237/162/163 235/160/161
f 238/163/164 239/164/165 237/162/166
f 241/165/167 242/162/166 240/164/165
f 243/166/168 244/160/161 242/162/163
f 244/160/161 243/166/168 245/167/169
f 244/160/161 245/167/169 246/168/170
f 246/168/170 247/158/159 244/160/161
f 246/168/170 248/156/158 247/158/159
f 248/156/158 246/168/170 249/169/171
f 252/170/172 251/171/173 250/172/174
f 251/171/173 252/170/172 253/173/175
f 252/170/172 254/174/176 253/173/175
f 254/174/176 252/170/172 255/175/177
f 256/176/178 254/174/176 255/175/177
f 254/174/176 256/176/178 257/177/179
f 258/178/82 259/179/88 257/177/80
f 261/180/180 262/177/80 260/179/88
f 264/181/181 262/177/179 263/182/182
f 264/181/181 265/174/176 262/177/179
f 264/181/181 266/173/175 265/174/176
f 266/173/175 264/181/181 267/183/183
f 267/183/183 268/171/173 266/173/175
f 269/184/184 271/185/185 270/186/99
f 271/185/185 269/184/184 272/187/186
f 271/185/185 272/187/186 273/188/187
f 273/188/187 274/189/188 271/185/185
f 274/189/188 273/188/187 275/190/189
f 276/191/190 278/157/6 277/192/2
f 278/157/6 276/191/190 279/193/191
f 278/157/6 279/193/191 280/194/192
f 278/157/6 280/194/192 281/159/160
f 281/159/160 280/194/192 282/195/193
f 284/196/194 283/197/195 285/198/196
f 285/198/196 286/199/197 284/196/194
f 285/198/196 287/200/198 286/199/197
f 287/200/198 285/198/196 288/201/199
f 287/200/198 288/201/199 289/202/200
f 290/203/50 292/204/201 291/205/202
f 292/204/201 290/203/50 293/206/203
f 294/207/204 292/204/201 293/206/203
f 292/204/201 294/207/204 295/208/205
f 294/207/204 296/209/206 295/208/205
f 298/210/207 299/211/208 297/212/209
f 299/211/208 298/210/207 300/213/210
f 300/213/210 301/214/211 299/211/208
f 301/214/211 300/213/210 302/215/212
f 301/214/211 302/215/212 303/216/213
f 301/214/211 303/216/213 304/217/214
f 303/216/213 305/218/215 304/217/214
f 305/218/215 303/216/213 306/219/216
f 309/216/213 307/220/38 308/219/29
f 307/220/38 309/216/213 310/221/39
f 309/216/213 311/222/217 310/221/39
f 311/222/217 309/216/213 312/215/212
f 312/215/212 313/223/218 311/222/217
f 313/223/218 312/215/212 314/213/210
f 315/210/207 313/223/218 314/213/210
f 313/223/218 315/210/207 316/224/219
f 318/223/218 317/225/220 319/226/221
f 319/226/221 320/222/217 318/223/218
f 320/222/217 319/226/221 321/227/222
f 321/227/222 322/221/223 320/222/217
f 322/221/223 321/227/222 323/228/37
f 324/220/38 323/228/37 325/229/40
f 326/230/224 327/231/224 328/232/224
f 327/231/224 326/230/224 329/233/224
f 328/232/224 327/231/224 330/234/224
f 326/230/224 328/232/224 331/235/224
f 330/234/224 332/236/224 328/232/224
f 332/236/224 330/234/224 333/237/224
f 331/235/224 328/232/224 334/238/224
f 331/235/224 334/238/224 335/239/224
f 334/238/224 328/232/224 336/240/224
f 336/240/224 328/232/224 337/241/224
f 338/242/224 339/243/224 340/244/224
f 339/243/224 341/245/224 342/246/224
f 341/245/224 339/243/224 338/242/224
f 338/242/224 343/247/224 341/245/224
f 338/242/224 344/248/224 343/247/224
f 344/248/224 345/249/224 343/247/224
f 346/250/224 343/247/224 345/249/224
f 344/248/224 347/251/224 345/249/224
f 338/242/224 348/252/224 344/248/224
f 348/252/224 338/242/224 349/253/224
f 349/253/224 350/254/224 348/252/224
f 350/254/224 349/253/224 351/255/224
f 348/252/224 350/254/224 352/256/224
f 353/257/225 354/258/226 355/183/183
f 355/183/183 356/259/227 353/257/225
f 355/183/183 357/260/228 356/259/227
f 357/260/228 355/183/183 358/181/181
f 357/260/228 358/181/181 359/182/91
f 359/182/91 360/261/229 357/260/228
f 359/182/91 361/262/230 360/261/229
f 361/262/230 359/182/91 362/180/180
f 363/262/230 364/263/231 365/202/200
f 365/202/200 366/261/229 363/262/230
f 366/261/229 365/202/200 367/201/199
f 367/201/199 368/260/232 366/261/229
f 368/260/232 367/201/199 369/198/196
f 369/198/196 370/259/227 368/260/232
f 369/198/196 371/257/233 370/259/227
f 371/257/233 369/198/196 372/197/195
f 374/169/171 375/264/234 373/265/235
f 375/264/234 374/169/171 376/168/170
f 375/264/234 376/168/170 377/167/236
f 377/167/236 378/266/237 375/264/234
f 377/167/236 379/267/238 378/266/237
f 379/267/238 377/167/236 380/166/239
f 380/166/239 381/268/240 379/267/238
f 381/268/240 380/166/239 382/165/241
f 385/269/242 383/268/243 384/270/244
f 383/268/243 385/269/242 386/267/245
f 385/269/242 387/266/246 386/267/245
f 387/266/246 385/269/242 388/207/247
f 388/207/247 389/264/234 387/266/246
f 389/264/234 388/207/247 390/206/203
f 391/203/50 389/264/234 390/206/203
f 389/264/234 391/203/50 392/265/235
f 394/154/248 393/271/249 395/272/250
f 395/272/250 396/153/251 394/154/248
f 396/153/251 395/272/250 397/273/252
f 397/273/252 398/151/253 396/153/251
f 398/151/253 397/273/252 399/274/254
f 400/152/255 399/274/256 401/275/257
f 403/276/258 402/275/257 404/274/256
f 405/277/259 404/274/254 406/273/252
f 406/273/252 407/189/260 405/277/259
f 407/189/260 406/273/252 408/272/250
f 408/272/250 409/185/185 407/189/260
f 410/271/249 409/185/185 408/272/250
f 296/209/206 294/207/204 411/269/261
f 412/270/244 296/209/206 411/269/261
f 296/209/206 412/270/244 413/278/262
f 416/176/263 415/278/132 414/178/82
f 415/278/132 416/176/263 417/209/264
f 418/175/265 417/209/264 416/176/263
f 417/209/264 418/175/265 419/208/266
f 418/175/265 420/204/201 419/208/266
f 420/204/201 418/175/265 421/170/172
f 422/172/267 420/204/201 421/170/172
f 420/204/201 422/172/267 423/205/268
f 281/159/160 282/195/193 424/161/269
f 282/195/193 425/163/164 424/161/269
f 425/163/164 282/195/193 426/279/270
f 427/279/270 429/148/271 428/149/272
f 429/148/271 427/279/270 430/195/193
f 431/194/192 429/148/271 430/195/193
f 429/148/271 431/194/192 432/146/273
f 433/193/191 432/146/273 431/194/192
f 432/146/273 433/193/191 434/142/144
f 433/193/191 435/143/145 434/142/144
f 435/143/145 433/193/191 436/191/274
f 275/190/189 437/277/275 274/189/188
f 437/277/275 275/190/189 438/280/276
f 438/280/276 439/276/258 437/277/275
f 440/280/277 442/217/278 441/218/279
f 442/217/278 440/280/277 443/190/280
f 442/217/278 443/190/280 444/188/187
f 444/188/187 445/214/281 442/217/278
f 444/188/187 446/211/208 445/214/281
f 446/211/208 444/188/187 447/187/186
f 447/187/186 448/212/209 446/211/208
f 448/212/209 447/187/186 449/184/184
f 289/202/200 450/281/282 287/200/198
f 450/281/282 289/202/200 451/263/283
f 451/263/283 452/282/284 450/281/282
f 453/283/71 455/281/282 454/282/59
f 455/281/282 453/283/71 456/284/285
f 457/285/286 455/281/282 456/284/285
f 455/281/282 457/285/286 458/200/198
f 457/285/286 459/199/197 458/200/198
f 459/199/197 457/285/286 460/286/287
f 460/286/287 461/196/288 459/199/197
f 461/196/288 460/286/287 462/287/289
f 463/225/220 464/286/287 465/226/221
f 466/285/286 465/226/221 464/286/287
f 465/226/221 466/285/286 467/227/222
f 468/284/290 467/227/222 466/285/286
f 467/227/222 468/284/290 469/228/37
f 470/283/71 471/229/40 469/228/37
f 473/288/291 474/289/291 475/290/291
f 473/288/291 475/290/291 476/291/291
f 478/292/163 477/293/269 479/294/292
f 481/295/293 480/296/294 479/294/292
f 481/295/293 482/297/295 480/296/294
f 483/298/296 484/296/294 482/297/297
f 484/296/294 483/298/296 485/299/298
f 486/292/163 485/299/299 487/300/239
f 489/301/300 490/295/301 491/302/302
f 490/295/301 489/301/300 492/297/297
f 493/303/303 491/302/304 494/304/305
f 495/302/306 497/305/307 496/306/308
f 497/305/307 495/302/306 490/295/309
f 500/307/310 501/308/307 499/309/311
f 501/308/307 500/307/310 498/310/291
f 501/308/307 498/310/291 502/311/312
f 501/308/307 502/311/312 503/312/313
f 504/313/314 505/314/103 506/315/102
f 504/313/314 506/315/102 507/316/315
f 508/317/315 509/318/139 510/319/127
f 509/318/139 508/317/315 511/320/316
f 512/320/317 514/321/318 513/322/319
f 514/321/318 512/320/317 508/317/320
f 515/323/321 514/321/318 508/317/320
f 515/323/321 516/324/322 514/321/318
f 517/325/323 518/301/324 519/324/322
f 519/324/322 518/301/324 520/297/297
f 519/324/322 520/297/297 514/321/296
f 520/297/297 521/322/319 514/321/296
f 521/322/319 520/297/297 522/296/325
f 522/296/325 523/326/218 521/322/319
f 524/289/326 525/327/326 526/328/327
f 524/289/326 526/328/327 527/290/328
f 528/329/329 529/330/330 530/331/307
f 530/331/307 529/330/330 531/332/331
f 530/331/307 531/332/331 532/333/297
f 532/333/297 531/332/331 533/334/297
f 532/333/297 533/334/297 534/335/320
f 534/335/320 533/334/297 535/336/320
f 534/335/320 535/336/320 536/337/130
f 536/337/130 535/336/320 537/338/138
f 538/339/332 539/340/329 540/341/331
f 541/342/331 538/339/332 540/341/331
f 541/342/331 540/341/331 542/343/297
f 543/334/297 541/342/331 542/343/297
f 543/334/297 542/343/297 544/344/315
f 545/345/320 543/334/297 544/344/315
f 545/345/320 544/344/315 546/346/138
f 547/347/138 545/345/320 546/346/138
f 548/303/303 488/348/333 549/349/334
f 550/301/300 549/349/335 551/298/336
f 550/301/300 551/298/336 492/297/297
f 552/349/335 507/316/320 551/298/337
f 552/349/335 553/313/338 507/316/320
f 555/299/298 556/316/320 554/350/240
f 556/316/320 555/299/298 483/298/339
f 557/315/127 558/350/340 556/316/341
f 558/350/340 557/315/127 559/351/129
f 562/305/331 560/294/342 561/352/343
f 562/305/331 481/295/344 560/294/342
f 472/353/291 562/305/307 563/352/345
f 472/353/291 563/352/345 564/354/346
f 565/306/347 567/353/291 566/355/348
f 567/353/291 565/306/347 497/305/349
f 569/356/350 568/323/321 508/317/315
f 569/356/350 508/317/315 510/319/127
f 572/357/301 570/312/351 571/358/352
f 572/357/301 501/308/331 570/312/351
f 572/357/301 573/309/311 501/308/331
f 573/309/311 572/357/301 574/359/353
f 576/301/324 575/360/354 577/359/353
f 577/359/353 578/297/297 576/301/324
f 578/297/297 577/359/353 572/357/355
f 579/358/356 578/297/297 572/357/355
f 578/297/297 579/358/356 580/296/325
f 580/296/325 579/358/356 581/361/357
f 583/128/358 584/100/359 582/362/346
f 584/100/359 583/128/358 585/101/329
f 586/88/360 585/101/361 587/128/152
f 585/101/361 586/88/360 588/87/362
f 589/97/174 590/86/363 591/91/364
f 590/86/363 589/97/174 592/85/365
f 594/85/365 593/131/366 595/78/367
f 595/78/367 590/86/363 594/85/365
f 590/86/363 595/78/367 596/363/362
f 597/80/368 590/86/363 596/363/362
f 597/80/368 598/92/369 590/86/363
f 599/130/370 598/92/369 597/80/368
f 601/125/371 602/135/372 600/136/373
f 603/92/374 604/364/375 602/135/376
f 604/364/375 603/92/374 605/86/363
f 606/105/377 607/135/378 604/364/379
f 607/135/378 606/105/377 608/102/380
f 609/137/381 610/73/329 611/75/291
f 609/137/381 612/79/382 610/73/329
f 614/365/383 616/95/44 615/94/384
f 616/95/44 614/365/383 613/139/1
f 616/95/44 613/139/1 617/366/385
f 616/95/44 617/366/385 618/96/386
f 620/119/387 621/118/387 622/117/363
f 622/117/363 621/118/387 623/115/363
f 622/117/363 623/115/363 624/114/388
f 624/114/388 623/115/363 625/116/361
f 626/124/361 627/115/363 628/123/361
f 627/115/363 629/122/363 628/123/361
f 627/115/363 630/120/377 629/122/363
f 630/120/377 631/121/377 629/122/363
f 632/112/364 633/110/379 634/111/364
f 632/112/364 634/111/364 635/113/379
f 636/106/389 637/107/390 638/108/390
f 636/106/389 638/108/390 639/109/390
f 640/79/391 641/80/392 596/363/362
f 640/79/391 596/363/362 610/73/388
f 596/363/362 642/76/393 610/73/388
f 642/76/393 596/363/362 643/78/367
f 645/74/312 610/73/329 644/76/394
f 610/73/329 645/74/312 611/75/291
f 647/127/395 646/98/396 648/101/361
f 647/127/395 648/101/361 649/87/362
f 650/92/397 649/87/398 605/86/363
f 650/92/397 651/127/395 649/87/398
f 652/125/399 653/367/400 651/127/401
f 655/81/256 656/88/155 654/368/402
f 657/85/257 588/87/390 656/88/360
f 588/87/390 657/85/257 658/86/403
f 659/364/375 658/86/363 660/85/404
f 659/364/375 660/85/404 661/83/405
f 662/81/256 663/82/406 661/83/405
f 591/91/379 665/96/407 664/97/408
f 591/91/379 616/95/377 665/96/407
f 591/91/379 666/94/409 616/95/377
f 666/94/409 591/91/379 667/90/410
f 669/90/410 590/86/363 668/92/411
f 590/86/363 669/90/410 591/91/364
f 671/98/396 670/100/291 648/101/329
f 671/98/396 672/369/348 670/100/291
f 675/105/377 674/83/412 673/133/413
f 675/105/377 659/364/379 674/83/412
f 619/103/1 675/105/44 676/133/413
f 619/103/1 676/133/413 677/134/414
f 678/102/380 680/103/1 679/104/57
f 680/103/1 678/102/380 606/105/44
f 681/370/415 682/371/415 683/372/415
f 682/371/415 684/373/416 683/372/415
f 684/373/416 682/371/415 685/374/415
f 686/375/417 682/371/415 681/370/415
f 682/371/415 686/375/417 687/376/415
f 681/370/415 683/372/415 688/377/415
f 689/378/415 688/377/415 683/372/415
f 688/377/415 689/378/415 690/379/415
f 691/380/415 681/370/415 688/377/415
f 681/370/415 691/380/415 692/381/415
f 693/184/418 695/185/419 694/186/79
f 695/185/419 693/184/418 696/187/420
f 695/185/419 696/187/420 697/188/421
f 697/188/421 698/189/422 695/185/419
f 698/189/422 697/188/421 699/190/423
f 702/286/424 701/225/425 700/287/426
f 701/225/425 702/286/424 703/226/427
f 702/286/424 704/227/428 703/226/427
f 704/227/428 702/286/424 705/285/429
f 706/284/430 704/227/428 705/285/429
f 708/382/370 709/173/431 707/171/432
f 710/175/433 709/173/431 708/382/370
f 709/173/431 710/175/433 711/174/434
f 710/175/433 712/177/112 711/174/434
f 714/154/435 713/271/436 715/272/437
f 715/272/437 716/153/438 714/154/435
f 716/153/438 715/272/437 717/273/439
f 717/273/439 718/151/440 716/153/438
f 718/151/440 717/273/439 719/274/371
f 720/152/372 719/274/399 721/275/397
f 723/150/441 724/151/373 722/152/442
f 724/151/373 723/150/441 725/147/443
f 725/147/443 726/153/444 724/151/373
f 726/153/444 725/147/443 727/145/445
f 727/145/445 728/154/435 726/153/444
f 728/154/435 727/145/445 729/144/446
f 730/141/447 728/154/435 729/144/446
f 728/154/435 730/141/447 731/155/448
f 733/220/449 734/228/450 732/229/451
f 735/221/452 736/227/428 734/228/303
f 736/227/428 735/221/452 737/222/453
f 737/222/453 738/226/427 736/227/428
f 738/226/427 737/222/453 739/223/454
f 739/223/454 740/225/425 738/226/427
f 743/223/455 741/210/456 742/224/12
f 741/210/456 743/223/455 744/213/457
f 743/223/455 745/215/458 744/213/457
f 745/215/458 743/223/455 746/222/459
f 746/222/459 747/216/460 745/215/458
f 747/216/460 746/222/459 748/221/305
f 749/220/449 747/216/460 748/221/305
f 747/216/460 749/220/449 750/219/308
f 753/383/461 752/205/462 751/384/381
f 752/205/462 753/383/461 754/385/463
f 753/383/461 755/208/464 754/385/463
f 755/208/464 753/383/461 756/386/465
f 756/386/465 757/209/466 755/208/464
f 757/209/466 756/386/465 758/269/467
f 758/269/467 759/278/468 757/209/466
f 759/278/468 758/269/467 760/387/469
f 762/387/470 763/267/471 761/388/472
f 763/267/471 762/387/470 764/269/473
f 764/269/473 765/389/474 763/267/471
f 765/389/474 764/269/473 766/386/465
f 767/383/461 765/389/474 766/386/465
f 767/383/461 768/390/475 765/389/474
f 767/383/461 769/265/476 768/390/475
f 769/265/476 767/383/461 770/384/381
f 771/391/477 773/199/478 772/196/479
f 773/199/478 771/391/477 774/392/480
f 773/199/478 774/392/480 775/201/481
f 773/199/478 775/201/481 776/200/482
f 776/200/482 775/201/481 777/202/483
f 776/200/482 777/202/483 778/281/484
f 777/202/483 779/282/338 778/281/484
f 779/282/338 777/202/483 780/393/485
f 782/393/486 783/261/487 781/262/488
f 783/261/487 782/393/486 784/202/489
f 783/261/487 784/202/489 785/201/490
f 785/201/490 786/260/491 783/261/487
f 785/201/490 787/394/492 786/260/491
f 787/394/492 785/201/490 788/392/480
f 787/394/492 788/392/480 789/391/477
f 789/391/477 790/257/493 787/394/492
f 791/191/494 793/157/495 792/192/496
f 793/157/495 791/191/494 794/193/497
f 795/194/498 793/157/495 794/193/497
f 795/194/498 796/159/499 793/157/495
f 797/195/500 796/159/499 795/194/498
f 797/195/500 798/161/35 796/159/499
f 797/195/500 799/163/36 798/161/35
f 799/163/36 797/195/500 800/279/501
f 803/162/34 802/163/36 801/164/66
f 804/161/502 803/162/503 805/160/504
f 805/160/504 806/159/505 804/161/502
f 806/159/505 805/160/504 807/158/506
f 807/158/506 808/157/495 806/159/505
f 808/157/495 807/158/506 809/156/507
f 810/235/415 811/240/415 812/238/415
f 810/235/415 812/238/415 813/239/415
f 814/232/415 811/240/415 810/235/415
f 811/240/415 814/232/415 815/241/415
f 816/230/415 814/232/415 810/235/415
f 817/231/415 814/232/415 816/230/415
f 817/231/415 816/230/415 818/233/415
f 819/234/416 814/232/415 817/231/415
f 819/234/416 820/236/415 814/232/415
f 820/236/415 819/234/416 821/237/415
f 822/247/415 823/249/415 824/250/415
f 825/248/415 823/249/415 822/247/415
f 823/249/415 825/248/415 826/251/415
f 822/247/415 827/245/415 825/248/415
f 828/242/415 825/248/415 827/245/415
f 827/245/415 829/243/415 828/242/415
f 827/245/415 830/246/415 829/243/415
f 831/244/415 828/242/415 829/243/415
f 828/242/415 832/253/415 825/248/415
f 825/248/415 832/253/415 833/252/415
f 832/253/415 834/254/415 833/252/415
f 834/254/415 832/253/415 835/395/415
f 833/252/415 834/254/415 836/396/415
f 712/177/112 710/175/433 837/397/508
f 712/177/112 838/178/114 839/179/509
f 842/397/510 841/278/468 840/178/114
f 841/278/468 842/397/510 843/209/511
f 842/397/510 844/208/512 843/209/511
f 844/208/512 842/397/510 845/175/433
f 846/382/370 844/208/512 845/175/433
f 844/208/512 846/382/370 847/385/463
f 846/382/370 848/205/462 847/385/463
f 848/205/462 846/382/370 849/172/368
f 704/227/428 706/284/430 850/228/303
f 850/228/450 851/283/513 852/229/451
f 855/284/514 854/282/338 853/283/513
f 855/284/514 856/281/484 854/282/338
f 857/285/429 856/281/484 855/284/514
f 857/285/429 858/200/482 856/281/484
f 857/285/429 859/199/478 858/200/482
f 859/199/478 857/285/429 860/286/424
f 861/287/426 859/199/478 860/286/424
f 861/287/426 862/196/515 859/199/478
f 699/190/423 863/277/516 698/189/422
f 863/277/516 699/190/423 864/280/396
f 864/280/396 865/276/517 863/277/516
f 868/274/399 867/276/517 866/275/397
f 870/273/439 869/277/518 868/274/371
f 870/273/439 871/189/422 869/277/518
f 872/272/437 871/189/422 870/273/439
f 872/272/437 873/185/123 871/189/422
f 873/185/123 872/272/437 874/271/436
f 876/258/519 877/394/492 875/257/493
f 877/394/492 876/258/519 878/398/520
f 877/394/492 878/398/520 879/181/521
f 879/181/521 880/260/522 877/394/492
f 879/181/521 881/261/487 880/260/522
f 881/261/487 879/181/521 882/399/136
f 882/399/136 883/262/134 881/261/487
f 883/262/134 882/399/136 884/180/523
f 886/180/135 887/177/524 885/179/509
f 888/399/525 889/174/434 887/177/112
f 889/174/434 888/399/525 890/181/521
f 889/174/434 890/181/521 891/398/520
f 889/174/434 891/398/520 892/173/526
f 891/398/520 893/171/432 892/173/526
f 893/171/432 891/398/520 894/258/519
f 895/212/527 896/210/528 897/213/457
f 897/213/457 898/211/529 895/212/527
f 897/213/457 899/214/530 898/211/529
f 899/214/530 897/213/457 900/215/531
f 900/215/531 901/217/532 899/214/530
f 901/217/532 900/215/531 902/216/460
f 901/217/532 902/216/460 903/219/308
f 903/219/308 904/218/533 901/217/532
f 906/218/534 905/280/396 907/190/423
f 907/190/423 908/217/532 906/218/534
f 907/190/423 909/214/535 908/217/532
f 909/214/535 907/190/423 910/188/536
f 910/188/536 911/211/529 909/214/535
f 911/211/529 910/188/536 912/187/420
f 911/211/529 912/187/420 913/184/537
f 913/184/537 914/212/527 911/211/529
f 917/144/446 915/143/538 916/141/539
f 915/143/538 917/144/446 918/400/540
f 919/145/445 918/400/540 917/144/446
f 918/400/540 919/145/445 920/401/541
f 919/145/445 921/148/542 920/401/541
f 921/148/542 919/145/445 922/147/443
f 923/150/380 921/148/542 922/147/443
f 921/148/542 923/150/380 924/402/543
f 927/195/500 926/402/544 925/279/545
f 926/402/544 927/195/500 928/148/546
f 927/195/500 929/401/547 928/148/546
f 929/401/547 927/195/500 930/194/548
f 931/193/497 929/401/547 930/194/548
f 929/401/547 931/193/497 932/400/540
f 933/191/494 932/400/540 931/193/497
f 932/400/540 933/191/494 934/143/538
f 935/265/476 936/169/353 937/168/354
f 935/265/476 937/168/354 938/390/475
f 938/390/475 937/168/354 939/167/549
f 938/390/475 939/167/549 940/389/550
f 939/167/549 941/267/471 940/389/550
f 941/267/471 939/167/549 942/166/69
f 941/267/471 942/166/69 943/165/68
f 941/267/471 943/165/68 944/388/551
f 946/165/68 947/162/552 945/164/66
f 948/166/553 949/160/504 947/162/503
f 949/160/504 948/166/553 950/167/549
f 950/167/549 951/158/506 949/160/504
f 951/158/506 950/167/549 952/168/354
f 952/168/354 953/156/507 951/158/506
