# Blender 5.1.2
# www.blender.org
mtllib Teeth.mtl
o Teeth
v 0.045624 -0.115771 -0.018677
v 0.081619 -0.074983 -0.025665
v 0.093628 -0.074983 -0.000671
v 0.045624 -0.115771 0.018311
v 0.093628 -0.074983 -0.000671
v 0.081619 -0.074983 0.024323
v 0.048615 0.092975 -0.025665
v 0.080627 0.078466 -0.000671
v 0.069626 0.070375 -0.025665
v 0.057617 0.103470 -0.000671
v 0.048615 0.092975 0.024323
v 0.080627 0.078466 -0.000671
v 0.057617 0.103470 -0.000671
v 0.069626 0.070375 0.024323
v 0.069626 0.070375 -0.025665
v 0.093628 0.040982 -0.000671
v 0.081619 0.036494 -0.025665
v 0.080627 0.078466 -0.000671
v 0.080627 0.078466 -0.000671
v 0.069626 0.070375 0.024323
v 0.093628 0.040982 -0.000671
v 0.081619 0.036494 0.024323
v 0.081619 0.036494 -0.025665
v 0.093628 -0.074983 -0.000671
v 0.081619 -0.074983 -0.025665
v 0.093628 0.040982 -0.000671
v 0.081619 0.036494 0.024323
v 0.093628 -0.074983 -0.000671
v 0.093628 0.040982 -0.000671
v 0.081619 -0.074983 0.024323
v -0.023376 0.102096 -0.025665
v -0.000381 0.116172 -0.000671
v -0.000381 0.104455 -0.025665
v -0.029373 0.113563 -0.000671
v -0.000381 0.116172 -0.000671
v 0.022614 0.102096 -0.025665
v -0.000381 0.104455 -0.025665
v 0.029617 0.113563 -0.000671
v -0.000381 0.116172 -0.000671
v 0.022614 0.102096 0.024323
v 0.029617 0.113563 -0.000671
v -0.000381 0.104455 0.024323
v -0.048386 0.092975 -0.025665
v -0.029373 0.113563 -0.000671
v -0.023376 0.102096 -0.025665
v -0.057373 0.103470 -0.000671
v 0.048615 0.092975 -0.025665
v 0.022614 0.102096 -0.025665
v 0.029617 0.113563 -0.000671
v 0.057617 0.103470 -0.000671
v -0.057373 0.103470 -0.000671
v -0.048386 0.092975 0.024323
v -0.029373 0.113563 -0.000671
v -0.023376 0.102096 0.024323
v 0.029617 0.113563 -0.000671
v 0.022614 0.102096 0.024323
v 0.048615 0.092975 0.024323
v 0.057617 0.103470 -0.000671
v -0.000381 0.116172 -0.000671
v -0.023376 0.102096 0.024323
v -0.000381 0.104455 0.024323
v -0.029373 0.113563 -0.000671
v -0.055374 -0.178449 -0.000671
v -0.045380 -0.115771 0.018311
v -0.069382 -0.115771 -0.000671
v -0.021378 -0.115771 -0.000671
v 0.021622 -0.115771 -0.000671
v 0.055618 -0.178449 -0.000671
v 0.045624 -0.115771 0.018311
v 0.069626 -0.115771 -0.000671
v 0.093628 -0.074983 -0.000671
v 0.045624 -0.115771 0.018311
v 0.069626 -0.115771 -0.000671
v -0.045380 -0.115771 0.018311
v -0.094376 -0.074983 -0.000671
v -0.069382 -0.115771 -0.000671
v -0.045380 -0.115771 0.018311
v -0.000381 -0.085650 0.023315
v -0.081375 -0.074983 0.024323
v 0.045624 -0.115771 0.018311
v 0.081619 -0.074983 0.024323
v -0.000381 -0.085650 0.023315
v -0.000381 0.104455 0.024323
v -0.023376 0.102096 0.024323
v 0.022614 0.102096 0.024323
v -0.048386 0.092975 0.024323
v 0.048615 0.092975 0.024323
v -0.069382 0.070375 0.024323
v 0.069626 0.070375 0.024323
v -0.081375 0.036494 0.024323
v 0.069626 0.070375 0.024323
v 0.081619 0.036494 0.024323
v -0.081375 0.036494 0.024323
v 0.081619 -0.074983 0.024323
v -0.081375 -0.074983 0.024323
v 0.081619 -0.074983 0.024323
v -0.000381 -0.085650 0.023315
v -0.045380 -0.115771 -0.018677
v -0.094376 -0.074983 -0.000671
v -0.081375 -0.074983 -0.025665
v -0.094376 -0.074983 -0.000671
v -0.045380 -0.115771 0.018311
v -0.081375 -0.074983 0.024323
v -0.081375 0.078466 -0.000671
v -0.048386 0.092975 -0.025665
v -0.069382 0.070375 -0.025665
v -0.057373 0.103470 -0.000671
v -0.081375 0.078466 -0.000671
v -0.048386 0.092975 0.024323
v -0.057373 0.103470 -0.000671
v -0.069382 0.070375 0.024323
v -0.069382 0.070375 -0.025665
v -0.081375 0.036494 -0.025665
v -0.094376 0.040982 -0.000671
v -0.081375 0.078466 -0.000671
v -0.081375 0.078466 -0.000671
v -0.094376 0.040982 -0.000671
v -0.069382 0.070375 0.024323
v -0.081375 0.036494 0.024323
v -0.081375 0.036494 -0.025665
v -0.081375 -0.074983 -0.025665
v -0.094376 -0.074983 -0.000671
v -0.094376 0.040982 -0.000671
v -0.081375 -0.074983 0.024323
v -0.081375 0.036494 0.024323
v -0.094376 -0.074983 -0.000671
v -0.094376 0.040982 -0.000671
v -0.000381 -0.085650 -0.022675
v -0.021378 -0.115771 -0.000671
v -0.045380 -0.115771 -0.018677
v -0.000381 -0.085650 0.023315
v -0.045380 -0.115771 0.018311
v -0.000381 -0.099382 -0.000671
v 0.021622 -0.115771 -0.000671
v 0.045624 -0.115771 -0.018677
v 0.045624 -0.115771 0.018311
v -0.069382 -0.115771 -0.000671
v -0.045380 -0.115771 -0.018677
v -0.055374 -0.178449 -0.000671
v -0.021378 -0.115771 -0.000671
v 0.021622 -0.115771 -0.000671
v 0.045624 -0.115771 -0.018677
v 0.055618 -0.178449 -0.000671
v 0.069626 -0.115771 -0.000671
v 0.045624 -0.115771 -0.018677
v 0.093628 -0.074983 -0.000671
v 0.069626 -0.115771 -0.000671
v -0.094376 -0.074983 -0.000671
v -0.045380 -0.115771 -0.018677
v -0.069382 -0.115771 -0.000671
v -0.081375 -0.074983 -0.025665
v -0.000381 -0.085650 -0.022675
v -0.045380 -0.115771 -0.018677
v 0.081619 -0.074983 -0.025665
v 0.045624 -0.115771 -0.018677
v -0.000381 -0.085650 -0.022675
v -0.000381 0.104455 -0.025665
v 0.022614 0.102096 -0.025665
v -0.023376 0.102096 -0.025665
v -0.048386 0.092975 -0.025665
v 0.048615 0.092975 -0.025665
v -0.069382 0.070375 -0.025665
v 0.069626 0.070375 -0.025665
v 0.069626 0.070375 -0.025665
v -0.081375 0.036494 -0.025665
v 0.081619 0.036494 -0.025665
v 0.081619 -0.074983 -0.025665
v -0.081375 0.036494 -0.025665
v -0.081375 -0.074983 -0.025665
v 0.081619 -0.074983 -0.025665
v -0.000381 -0.085650 -0.022675
v -0.069382 0.070375 0.024323
v 0.081619 0.036494 0.024323
v -0.081375 -0.074983 0.024323
v -0.069382 0.070375 -0.025665
v 0.081619 0.036494 -0.025665
v -0.081375 -0.074983 -0.025665
vn 0.6802 -0.6562 -0.3268
vn 0.6836 -0.6517 0.3285
vn 0.6442 0.5958 -0.4795
vn 0.6443 0.5959 -0.4793
vn 0.6436 0.5984 -0.4771
vn 0.6448 0.5935 -0.4815
vn 0.6445 0.5957 0.4794
vn 0.6443 0.5959 0.4793
vn 0.6448 0.5936 0.4815
vn 0.6437 0.5984 0.4770
vn 0.8382 0.2936 -0.4597
vn 0.8388 0.2969 -0.4563
vn 0.8376 0.2905 -0.4627
vn 0.8376 0.2905 0.4627
vn 0.8382 0.2936 0.4597
vn 0.8388 0.2969 0.4563
vn 0.9013 -0.0000 -0.4331
vn 0.9014 -0.0000 -0.4331
vn 0.9013 -0.0000 -0.4333
vn 0.9014 -0.0000 0.4330
vn 0.9014 -0.0000 0.4331
vn -0.0859 0.8998 -0.4277
vn -0.0859 0.8998 -0.4278
vn -0.0925 0.9016 -0.4226
vn -0.0807 0.8985 -0.4316
vn 0.0845 0.8994 -0.4288
vn 0.0843 0.8994 -0.4290
vn 0.0925 0.9014 -0.4230
vn 0.0781 0.8978 -0.4334
vn 0.0843 0.8994 0.4289
vn 0.0843 0.8994 0.4290
vn 0.0781 0.8976 0.4337
vn 0.0925 0.9016 0.4226
vn -0.3028 0.8357 -0.4582
vn -0.3029 0.8357 -0.4580
vn -0.3049 0.8358 -0.4566
vn -0.3011 0.8357 -0.4592
vn 0.2975 0.8353 -0.4623
vn 0.2930 0.8352 -0.4653
vn 0.2971 0.8356 -0.4622
vn 0.3012 0.8356 -0.4594
vn -0.3014 0.8356 0.4592
vn -0.3030 0.8357 0.4580
vn -0.3029 0.8358 0.4580
vn -0.3049 0.8358 0.4566
vn 0.2973 0.8354 0.4622
vn 0.2930 0.8352 0.4653
vn 0.3012 0.8356 0.4594
vn -0.0859 0.8999 0.4276
vn -0.0860 0.8998 0.4277
vn -0.0925 0.9016 0.4227
vn -0.0810 0.8985 0.4315
vn -0.0000 -0.2898 0.9571
vn -0.0000 -0.2899 0.9571
vn -0.6144 -0.1373 0.7769
vn 0.5881 -0.3188 0.7433
vn -0.5881 -0.3188 0.7433
vn 0.6146 -0.1371 0.7768
vn 0.5827 -0.3430 0.7367
vn -0.5798 -0.3552 0.7332
vn -0.0078 -0.1526 0.9883
vn 0.0077 -0.1525 0.9883
vn -0.0000 -0.0000 1.0000
vn -0.0000 -0.0940 0.9956
vn -0.6720 -0.6529 -0.3495
vn -0.6757 -0.6481 0.3514
vn -0.6339 0.5993 -0.4888
vn -0.6359 0.5909 -0.4965
vn -0.6320 0.6068 -0.4821
vn -0.6340 0.5992 0.4889
vn -0.6340 0.5993 0.4888
vn -0.6321 0.6067 0.4820
vn -0.6360 0.5909 0.4964
vn -0.8252 0.2890 -0.4853
vn -0.8259 0.2924 -0.4821
vn -0.8246 0.2859 -0.4882
vn -0.8245 0.2860 0.4882
vn -0.8252 0.2890 0.4854
vn -0.8259 0.2924 0.4821
vn -0.8871 -0.0000 -0.4615
vn -0.8872 -0.0000 -0.4614
vn -0.8871 -0.0000 0.4615
vn -0.8872 -0.0000 0.4614
vn -0.0000 -0.8064 -0.5914
vn 0.5487 -0.8360 -0.0000
vn 0.4237 -0.7080 -0.5649
vn -0.0000 -0.8273 0.5617
vn 0.4263 -0.7267 0.5386
vn -0.0000 -1.0000 -0.0000
vn -0.5376 -0.8432 -0.0000
vn -0.4195 -0.7150 -0.5593
vn -0.4221 -0.7331 0.5333
vn -0.5948 -0.1329 -0.7928
vn -0.0000 -0.2761 -0.9611
vn 0.5706 -0.3095 -0.7607
vn -0.5706 -0.3095 -0.7607
vn 0.5947 -0.1329 -0.7929
vn 0.5658 -0.3330 -0.7543
vn -0.5633 -0.3451 -0.7508
vn 0.0160 -0.1551 -0.9878
vn -0.0158 -0.1553 -0.9877
vn -0.0000 -0.0000 -1.0000
vn -0.0000 -0.2699 -0.9629
vt 20.002399 -37.010601
vt 20.003099 -37.005501
vt 20.000000 -37.005501
vt 19.997601 -37.010601
vt 19.996901 -37.005501
vt 20.003099 -36.984501
vt 20.000000 -36.986301
vt 20.003099 -36.987301
vt 20.000000 -36.983200
vt 19.996901 -36.984501
vt 19.996901 -36.987301
vt 20.000000 -36.991001
vt 20.003099 -36.991501
vt 19.996901 -36.991501
vt 20.002899 -37.003101
vt 20.000000 -37.000000
vt 20.000000 -37.003101
vt 20.003700 -37.000000
vt 19.997101 -37.003101
vt 19.996300 -37.000000
vt 19.997101 -36.996899
vt 20.000000 -36.996899
vt 20.006001 -37.003101
vt 20.007200 -37.000000
vt 19.993999 -37.003101
vt 19.992800 -37.000000
vt 20.006001 -36.996899
vt 20.002899 -36.996899
vt 19.993999 -36.996899
vt 19.993000 -37.018398
vt 19.994400 -37.010601
vt 19.991400 -37.010601
vt 19.997299 -37.010601
vt 20.002701 -37.010601
vt 20.007000 -37.018398
vt 20.005600 -37.010601
vt 20.008600 -37.010601
vt 20.011801 -37.005501
vt 19.988199 -37.005501
vt 20.000000 -37.006802
vt 19.989799 -37.005501
vt 20.010201 -37.005501
vt 20.000000 -36.983101
vt 19.997101 -36.983299
vt 20.002899 -36.983299
vt 19.993999 -36.984501
vt 20.006001 -36.984501
vt 19.991301 -36.987301
vt 20.008699 -36.987301
vt 19.989799 -36.991501
vt 20.010201 -36.991501
vt 20.000000 -37.002800
vt 19.997299 -37.000000
vt 19.994400 -37.002399
vt 20.000000 -36.997101
vt 19.994400 -36.997601
vt 20.002701 -37.000000
vt 20.005600 -37.002399
vt 20.005600 -36.997601
s 1
usemtl Handle8Mtl
f 1/1/1 2/2/1 3/3/1
f 4/4/2 5/3/2 6/5/2
f 7/6/3 8/7/4 9/8/5
f 8/7/4 7/6/3 10/9/6
f 11/10/7 12/7/8 13/9/9
f 12/7/8 11/10/7 14/11/10
f 15/8/11 16/12/11 17/13/12
f 16/12/11 15/8/11 18/7/13
f 19/7/14 20/11/15 21/12/15
f 21/12/15 20/11/15 22/14/16
f 23/13/17 24/3/18 25/2/18
f 24/3/18 23/13/17 26/12/19
f 27/14/20 28/3/21 29/12/20
f 28/3/21 27/14/20 30/5/21
f 31/15/22 32/16/23 33/17/24
f 32/16/23 31/15/22 34/18/25
f 35/16/26 36/19/27 37/17/28
f 36/19/27 35/16/26 38/20/29
f 39/16/30 40/21/31 41/20/32
f 40/21/31 39/16/30 42/22/33
f 43/23/34 44/18/35 45/15/36
f 44/18/35 43/23/34 46/24/37
f 47/25/38 48/19/39 49/20/40
f 49/20/40 50/26/41 47/25/38
f 51/24/42 52/27/43 53/18/44
f 53/18/44 52/27/43 54/28/45
f 55/20/46 56/21/47 57/29/46
f 58/26/48 55/20/46 57/29/46
f 59/16/49 60/28/50 61/22/51
f 60/28/50 59/16/49 62/18/52
f 63/30/53 64/31/54 65/32/55
f 66/33/56 64/31/54 63/30/53
f 67/34/57 68/35/54 69/36/53
f 68/35/54 70/37/58 69/36/53
f 71/38/59 72/36/59 73/37/59
f 74/31/60 75/39/60 76/32/60
f 77/31/61 78/40/61 79/41/61
f 80/36/62 81/42/62 82/40/62
f 83/43/63 84/44/63 85/45/63
f 86/46/63 85/45/63 84/44/63
f 85/45/63 86/46/63 87/47/63
f 88/48/63 87/47/63 86/46/63
f 87/47/63 88/48/63 89/49/63
f 90/50/63 91/49/63 172/48/63
f 91/49/63 90/50/63 92/51/63
f 93/50/63 94/42/63 173/51/63
f 94/42/63 93/50/63 95/41/63
f 96/42/64 174/41/64 97/40/64
f 98/4/65 99/3/65 100/5/65
f 101/3/66 102/1/66 103/2/66
f 104/7/67 105/10/67 106/11/68
f 105/10/67 104/7/67 107/9/69
f 108/7/70 109/6/71 110/9/72
f 109/6/71 108/7/70 111/8/73
f 112/11/74 113/14/75 114/12/74
f 114/12/74 115/7/76 112/11/74
f 116/7/77 117/12/78 118/8/78
f 117/12/78 119/13/79 118/8/78
f 120/14/80 121/5/80 122/3/81
f 120/14/80 122/3/81 123/12/80
f 124/2/82 125/13/82 126/3/83
f 127/12/82 126/3/83 125/13/82
f 128/52/84 129/53/85 130/54/86
f 129/53/85 131/55/87 132/56/88
f 129/53/85 128/52/84 133/16/89
f 131/55/87 129/53/85 133/16/89
f 128/52/84 134/57/90 133/16/89
f 134/57/90 131/55/87 133/16/89
f 134/57/90 128/52/84 135/58/91
f 131/55/87 134/57/90 136/59/92
f 137/37/93 138/36/94 139/35/94
f 140/34/95 139/35/94 138/36/94
f 141/33/96 142/31/94 143/30/94
f 144/32/97 143/30/94 142/31/94
f 145/31/98 146/39/98 147/32/98
f 148/38/99 149/36/99 150/37/99
f 151/42/100 152/40/100 153/36/100
f 154/41/101 155/31/101 156/40/101
f 157/43/102 158/44/102 159/45/102
f 158/44/102 160/47/102 159/45/102
f 161/46/102 160/47/102 158/44/102
f 161/46/102 162/49/102 160/47/102
f 162/49/102 161/46/102 163/48/102
f 164/48/102 165/51/102 175/49/102
f 165/51/102 164/48/102 166/50/102
f 167/41/102 168/51/102 176/50/102
f 168/51/102 167/41/102 169/42/102
f 177/42/103 170/41/103 171/40/103
