# Blender 5.1.2
# www.blender.org
mtllib ToolGun.mtl
o ToolGun
v -0.208065 0.397212 -0.180016
v -0.208065 0.397212 0.179985
v -0.208065 0.117212 -0.180016
v -0.208065 0.117212 0.179985
v -0.268066 0.397212 0.179985
v -0.208065 0.397212 0.179985
v -0.268066 0.397212 -0.180016
v -0.208065 0.397212 -0.180016
v -0.208065 0.397212 0.179985
v -0.268066 0.397212 0.179985
v -0.208065 0.117212 0.179985
v -0.268066 0.117212 0.179985
v -0.268066 0.397212 0.179985
v -0.268066 0.397212 -0.180016
v -0.268066 0.117212 0.179985
v -0.268066 0.117212 -0.180016
v -0.268066 0.117212 -0.180016
v -0.208065 0.117212 -0.180016
v -0.268066 0.117212 0.179985
v -0.208065 0.117212 0.179985
v -0.268066 0.397212 -0.180016
v -0.208065 0.397212 -0.180016
v -0.268066 0.117212 -0.180016
v -0.208065 0.117212 -0.180016
v 0.370335 0.119912 0.008486
v 0.370335 0.107882 0.020485
v 0.370335 0.104902 0.013285
v 0.370335 0.112722 0.005486
v 0.370335 0.093832 0.013285
v 0.370335 0.104902 0.013285
v 0.370335 0.107882 0.020485
v 0.370335 0.090852 0.020485
v 0.370335 0.078822 0.008486
v 0.370335 0.093832 0.013285
v 0.370335 0.090852 0.020485
v 0.370335 0.086012 0.005486
v 0.370335 0.078822 -0.008514
v 0.370335 0.086012 0.005486
v 0.370335 0.078822 0.008486
v 0.370335 0.086012 -0.005615
v 0.370335 0.078822 -0.008514
v 0.370335 0.093832 -0.013414
v 0.370335 0.086012 -0.005615
v 0.370335 0.090852 -0.020615
v 0.370335 0.090852 -0.020615
v 0.370335 0.107882 -0.020615
v 0.370335 0.104902 -0.013414
v 0.370335 0.093832 -0.013414
v 0.370335 0.104902 -0.013414
v 0.370335 0.119912 -0.008514
v 0.370335 0.112722 -0.005615
v 0.370335 0.107882 -0.020615
v 0.370335 0.112722 -0.005615
v 0.370335 0.119912 0.008486
v 0.370335 0.112722 0.005486
v 0.370335 0.119912 -0.008514
v 0.366734 0.133592 0.029385
v 0.366734 0.133592 -0.029415
v 0.360832 0.140232 -0.034414
v 0.360832 0.140232 0.034285
v 0.366734 0.121962 -0.035416
v 0.366734 0.087472 -0.032114
v 0.366734 0.087472 -0.035416
v 0.366734 0.121962 -0.032114
v 0.366734 0.125142 -0.032114
v 0.366734 0.133592 -0.029415
v 0.366734 0.133592 0.029385
v 0.366734 0.125142 0.032085
v 0.366734 0.121962 0.035385
v 0.366734 0.121962 0.032085
v 0.366734 0.087472 0.035385
v 0.366734 0.087472 0.032085
v 0.363834 0.070702 -0.042715
v 0.363834 0.078522 -0.042715
v 0.363834 0.070702 -0.032114
v 0.363834 0.078522 -0.032114
v 0.363834 0.070702 0.032085
v 0.363834 0.078522 0.032085
v 0.363834 0.070702 0.042585
v 0.363834 0.078522 0.042585
v 0.362732 0.129762 -0.037115
v 0.362732 0.018422 0.036985
v 0.362732 0.018422 -0.037115
v 0.362732 0.129762 0.036985
v 0.360832 0.078522 -0.042715
v 0.360832 0.087472 -0.042715
v 0.360832 0.078522 -0.032114
v 0.360832 0.087472 -0.032114
v 0.360832 0.078522 0.032085
v 0.360832 0.087472 0.032085
v 0.360832 0.078522 0.042585
v 0.360832 0.087472 0.042585
v 0.350632 0.137582 -0.030115
v 0.350632 0.125262 0.036985
v 0.350632 0.125262 -0.037115
v 0.350632 0.137582 0.030085
v 0.360832 0.140232 -0.034414
v 0.366734 0.133592 -0.029415
v 0.360832 0.126932 -0.042715
v 0.366734 0.121962 -0.035416
v 0.360832 0.087472 -0.042715
v 0.366734 0.087472 -0.035416
v 0.360832 0.126932 0.042585
v 0.366734 0.133592 0.029385
v 0.360832 0.140232 0.034285
v 0.366734 0.121962 0.035385
v 0.360832 0.087472 0.042585
v 0.366734 0.087472 0.035385
v 0.351635 0.147182 0.004286
v 0.351635 0.147182 -0.004416
v 0.355732 0.139912 0.004286
v 0.355732 0.139912 -0.004416
v 0.134132 -0.090318 0.016285
v 0.130333 -0.097378 -0.016315
v 0.134132 -0.090318 -0.016315
v 0.130333 -0.097378 0.016285
v 0.138733 0.002842 -0.016315
v 0.135235 -0.002128 0.016285
v 0.135235 -0.002128 -0.016315
v 0.138733 0.002842 0.016285
v 0.131233 -0.008808 0.016285
v 0.131233 -0.008808 -0.016315
v 0.129734 -0.027048 0.016285
v 0.129734 -0.027048 -0.016315
v 0.129734 -0.041998 0.016285
v 0.129734 -0.041998 -0.016315
v 0.129734 -0.061438 0.016285
v 0.129734 -0.061438 -0.016315
v 0.130035 -0.076018 0.016285
v 0.130035 -0.076018 -0.016315
v 0.133732 -0.083358 0.016285
v 0.133732 -0.083358 -0.016315
v 0.134132 -0.090318 0.016285
v 0.134132 -0.090318 -0.016315
v -0.141468 -0.314778 -0.037115
v -0.145966 -0.320178 0.036985
v -0.145966 -0.320178 -0.037115
v -0.141468 -0.314778 0.036985
v -0.152065 -0.320368 -0.031614
v -0.152065 -0.334538 -0.031614
v -0.146866 -0.320368 -0.024015
v -0.146866 -0.334538 -0.024015
v -0.152065 -0.334538 0.031485
v -0.152065 -0.320368 0.031485
v -0.146866 -0.334538 0.023985
v -0.146866 -0.320368 0.023985
v -0.095867 -0.169318 -0.037115
v -0.119865 -0.201158 0.036985
v -0.119865 -0.201158 -0.037115
v -0.095867 -0.169318 0.036985
v -0.008068 -0.053308 0.007986
v -0.001568 -0.042098 -0.000015
v -0.009167 -0.043498 0.008085
v -0.003265 -0.026448 0.008085
v 0.002934 -0.018548 -0.000015
v -0.008068 -0.053308 -0.008015
v -0.001568 -0.042098 -0.000015
v -0.009167 -0.043498 -0.008215
v -0.003265 -0.026448 -0.008215
v 0.002934 -0.018548 -0.000015
v -0.091866 -0.129838 -0.037115
v -0.095867 -0.169318 0.036985
v -0.095867 -0.169318 -0.037115
v -0.091866 -0.129838 0.036985
v -0.079166 -0.110858 -0.037115
v -0.079166 -0.110858 0.036985
v -0.026066 0.140232 -0.034414
v -0.026066 0.140232 0.034285
v -0.026066 0.126932 -0.042715
v -0.026066 0.126932 0.042585
v -0.054867 -0.060838 -0.037115
v -0.058968 -0.096468 0.036985
v -0.058968 -0.096468 -0.037115
v -0.054867 -0.060838 0.036985
v -0.056767 -0.035168 -0.037115
v -0.056767 -0.035168 0.036985
v -0.049965 -0.018878 -0.037115
v -0.049965 -0.018878 0.036985
v -0.143665 -0.304738 -0.037115
v -0.141468 -0.314778 0.036985
v -0.141468 -0.314778 -0.037115
v -0.143665 -0.304738 0.036985
v -0.145267 -0.283558 -0.037115
v -0.145267 -0.283558 0.036985
v -0.132767 -0.251758 -0.037115
v -0.132767 -0.251758 0.036985
v -0.122467 -0.238678 -0.037115
v -0.122467 -0.238678 0.036985
v -0.041466 -0.078768 -0.016315
v -0.041466 -0.078768 0.016285
v -0.056267 -0.061808 -0.016315
v -0.056267 -0.061808 0.016285
v -0.096165 -0.043828 -0.020115
v -0.178368 -0.320368 0.019985
v -0.178368 -0.320368 -0.020115
v -0.096165 -0.043828 0.019985
v -0.119865 -0.201158 -0.037115
v -0.122467 -0.238678 0.036985
v -0.122467 -0.238678 -0.037115
v -0.119865 -0.201158 0.036985
v -0.146866 -0.320368 -0.024015
v -0.146866 -0.334538 0.023985
v -0.146866 -0.334538 -0.024015
v -0.146866 -0.320368 0.023985
v -0.239765 0.157212 -0.017815
v -0.234066 0.139832 -0.009415
v -0.234066 0.139832 -0.017815
v -0.239765 0.157212 -0.009415
v -0.239765 0.157212 0.009285
v -0.234066 0.139832 0.017786
v -0.234066 0.139832 0.009285
v -0.239765 0.157212 0.017786
v -0.277168 0.085432 -0.037115
v -0.277168 0.079852 0.036985
v -0.277168 0.079852 -0.037115
v -0.277168 0.085432 0.036985
v 0.330933 0.154522 -0.004416
v 0.330933 0.154522 0.004286
v 0.343334 0.152322 -0.004416
v 0.343334 0.152322 0.004286
v 0.351635 0.147182 0.004286
v 0.351635 0.147182 -0.004416
v -0.287865 0.133082 -0.042715
v -0.277767 0.140232 0.034285
v -0.277767 0.140232 -0.034414
v -0.287865 0.133082 0.042585
v -0.252865 0.157212 -0.017815
v -0.252865 0.157212 -0.009415
v -0.239765 0.157212 -0.017815
v -0.239765 0.157212 -0.009415
v -0.252865 0.157212 0.017786
v -0.239765 0.157212 0.009285
v -0.252865 0.157212 0.009285
v -0.239765 0.157212 0.017786
v 0.360832 0.140232 -0.034414
v 0.080032 0.140232 -0.034414
v 0.080032 0.140232 0.034285
v 0.360832 0.140232 0.034285
v -0.277767 0.140232 -0.034414
v -0.026066 0.140232 0.034285
v -0.026066 0.140232 -0.034414
v -0.277767 0.140232 0.034285
v -0.030968 0.137582 0.030085
v 0.350632 0.137582 0.030085
v -0.030968 0.137582 -0.030115
v 0.350632 0.137582 -0.030115
v -0.026066 0.126932 -0.042715
v -0.026066 0.126932 0.042585
v 0.080032 0.126932 -0.042715
v 0.080032 0.126932 0.042585
v -0.030968 0.125262 -0.037115
v -0.231567 0.125262 -0.037115
v -0.231567 0.125262 0.036985
v -0.030968 0.125262 0.036985
v -0.243366 0.125262 -0.037115
v -0.243366 0.125262 0.036985
v -0.257866 0.125262 -0.037115
v -0.257866 0.125262 0.036985
v -0.277168 0.125272 -0.037115
v -0.277168 0.125272 0.036985
v -0.286766 0.125272 -0.037115
v -0.286766 0.125272 0.036985
v 0.358635 0.119912 -0.008514
v 0.370335 0.119912 0.008486
v 0.370335 0.119912 -0.008514
v 0.358635 0.119912 0.008486
v 0.358635 0.119912 0.008486
v 0.370335 0.107882 0.020485
v 0.370335 0.119912 0.008486
v 0.358635 0.107882 0.020485
v 0.358635 0.107882 -0.020615
v 0.370335 0.119912 -0.008514
v 0.370335 0.107882 -0.020615
v 0.358635 0.119912 -0.008514
v 0.370335 0.086012 -0.005615
v 0.358635 0.086012 -0.005615
v 0.370335 0.086012 0.005486
v 0.358635 0.086012 0.005486
v -0.287365 0.085432 -0.037115
v -0.277168 0.085432 0.036985
v -0.277168 0.085432 -0.037115
v -0.287365 0.085432 0.036985
v 0.363834 0.078522 -0.032114
v 0.363834 0.078522 -0.042715
v 0.360832 0.078522 -0.042715
v 0.360832 0.078522 -0.032114
v 0.363834 0.078522 0.042585
v 0.363834 0.078522 0.032085
v 0.360832 0.078522 0.032085
v 0.360832 0.078522 0.042585
v 0.370335 0.086012 0.005486
v 0.358635 0.086012 0.005486
v 0.370335 0.093832 0.013285
v 0.358635 0.093832 0.013285
v 0.370335 0.093832 -0.013414
v 0.358635 0.093832 -0.013414
v 0.370335 0.086012 -0.005615
v 0.358635 0.086012 -0.005615
v -0.031467 0.004082 -0.008215
v -0.031467 0.004082 0.008085
v -0.012867 0.019972 -0.000015
v -0.058468 -0.015578 -0.000015
v -0.031467 0.004082 0.008085
v -0.031467 0.004082 -0.008215
v 0.095535 0.002292 -0.016315
v 0.095535 0.002292 0.016285
v 0.138733 0.002842 -0.016315
v 0.138733 0.002842 0.016285
v 0.362732 0.129762 0.036985
v 0.362732 0.129762 -0.037115
v 0.350632 0.125262 -0.037115
v 0.350632 0.125262 0.036985
v -0.096165 -0.043828 -0.020115
v -0.208366 -0.043828 -0.020115
v -0.208366 -0.043828 0.019985
v -0.096165 -0.043828 0.019985
v 0.099735 -0.074738 -0.016315
v 0.099735 -0.074738 0.016285
v 0.090435 -0.080148 -0.016315
v 0.090435 -0.080148 0.016285
v -0.006367 -0.086378 -0.016315
v -0.006367 -0.086378 0.016285
v -0.026768 -0.085648 -0.016315
v -0.026768 -0.085648 0.016285
v -0.041466 -0.078768 -0.016315
v -0.041466 -0.078768 0.016285
v -0.295265 -0.320368 0.031485
v -0.295265 -0.320368 -0.031614
v -0.300465 -0.320368 -0.024015
v -0.300465 -0.320368 0.023985
v -0.290565 -0.320368 0.019985
v -0.290565 -0.320368 -0.020115
v -0.178368 -0.320368 0.019985
v -0.178368 -0.320368 -0.020115
v -0.152065 -0.320368 0.031485
v -0.152065 -0.320368 -0.031614
v -0.146866 -0.320368 0.023985
v -0.146866 -0.320368 -0.024015
v 0.080032 0.070702 0.042585
v 0.360832 0.070702 0.042585
v 0.360832 0.078522 0.042585
v 0.363834 0.070702 0.042585
v 0.363834 0.078522 0.042585
v 0.080032 0.078522 0.042585
v -0.026066 0.070702 0.042585
v 0.360832 0.087472 0.042585
v -0.026066 0.078522 0.042585
v -0.277767 0.070702 0.042585
v 0.080032 0.087472 0.042585
v -0.277767 0.078522 0.042585
v 0.360832 0.126932 0.042585
v 0.080032 0.126932 0.042585
v 0.360832 0.140232 0.034285
v 0.080032 0.140232 0.034285
v -0.026066 0.126932 0.042585
v -0.026066 0.087472 0.042585
v -0.277767 0.087472 0.042585
v -0.277767 0.126932 0.042585
v -0.026066 0.140232 0.034285
v -0.277767 0.140232 0.034285
v -0.287865 0.133082 0.042585
v -0.287865 0.121582 0.042585
v -0.287865 0.087472 0.042585
v -0.054867 -0.060838 0.036985
v -0.234367 -0.035168 0.036985
v -0.250465 -0.060838 0.036985
v -0.056767 -0.035168 0.036985
v -0.230965 -0.018878 0.036985
v -0.049965 -0.018878 0.036985
v -0.231567 -0.003498 0.036985
v -0.030968 -0.003498 0.036985
v -0.030968 0.125262 0.036985
v 0.350632 0.008652 0.036985
v -0.231567 0.125262 0.036985
v -0.243366 0.022912 0.036985
v -0.243366 0.125262 0.036985
v -0.257866 0.036942 0.036985
v -0.257866 0.125262 0.036985
v 0.350632 0.125262 0.036985
v 0.362732 0.018422 0.036985
v 0.362732 0.129762 0.036985
v 0.350632 0.137582 0.030085
v -0.030968 0.137582 0.030085
v -0.277168 0.079852 0.036985
v -0.277168 0.045612 0.036985
v -0.287365 0.057042 0.036985
v -0.287365 0.079852 0.036985
v -0.277168 0.085432 0.036985
v -0.287365 0.085432 0.036985
v -0.277168 0.088832 0.036985
v -0.277168 0.125272 0.036985
v -0.286766 0.125272 0.036985
v -0.286766 0.088832 0.036985
v -0.141468 -0.314778 0.036985
v -0.317768 -0.314778 0.036985
v -0.303768 -0.320178 0.036985
v -0.145966 -0.320178 0.036985
v -0.143665 -0.304738 0.036985
v -0.330265 -0.304738 0.036985
v -0.145267 -0.283558 0.036985
v -0.345268 -0.283558 0.036985
v -0.346466 -0.251758 0.036985
v -0.132767 -0.251758 0.036985
v -0.343365 -0.238678 0.036985
v -0.122467 -0.238678 0.036985
v -0.331867 -0.201158 0.036985
v -0.119865 -0.201158 0.036985
v -0.318665 -0.169318 0.036985
v -0.095867 -0.169318 0.036985
v -0.298168 -0.129838 0.036985
v -0.091866 -0.129838 0.036985
v -0.285667 -0.110858 0.036985
v -0.079166 -0.110858 0.036985
v -0.276066 -0.096468 0.036985
v -0.058968 -0.096468 0.036985
v -0.295265 -0.334538 0.031485
v -0.152065 -0.334538 0.031485
v -0.152065 -0.320368 0.031485
v -0.295265 -0.320368 0.031485
v 0.358635 0.090852 0.020485
v 0.370335 0.090852 0.020485
v 0.358635 0.107882 0.020485
v 0.370335 0.107882 0.020485
v -0.178368 -0.320368 0.019985
v -0.208366 -0.043828 0.019985
v -0.290565 -0.320368 0.019985
v -0.096165 -0.043828 0.019985
v -0.258465 0.139832 0.017786
v -0.234066 0.139832 0.017786
v -0.239765 0.157212 0.017786
v -0.252865 0.157212 0.017786
v 0.006535 -0.073998 0.006485
v -0.003265 -0.063388 0.006485
v 0.002434 -0.079008 -0.000015
v -0.011166 -0.069008 -0.000015
v -0.008068 -0.053308 0.007986
v -0.019867 -0.055498 -0.000015
v -0.009167 -0.043498 0.008085
v -0.022465 -0.045718 -0.000015
v 0.138733 0.002842 0.016285
v 0.095535 0.002292 0.016285
v 0.099632 -0.002128 0.016285
v 0.135235 -0.002128 0.016285
v 0.103535 -0.008808 0.016285
v 0.131233 -0.008808 0.016285
v 0.110832 -0.027048 0.016285
v 0.129734 -0.027048 0.016285
v 0.110832 -0.041998 0.016285
v 0.129734 -0.041998 0.016285
v 0.129734 -0.061438 0.016285
v 0.107632 -0.061438 0.016285
v 0.130035 -0.076018 0.016285
v 0.099735 -0.074738 0.016285
v 0.133732 -0.083358 0.016285
v 0.098232 -0.101508 0.016285
v 0.090435 -0.080148 0.016285
v -0.006367 -0.086378 0.016285
v 0.121532 -0.100408 0.016285
v 0.134132 -0.090318 0.016285
v 0.130333 -0.097378 0.016285
v -0.012268 -0.107648 0.016285
v -0.026768 -0.085648 0.016285
v -0.034668 -0.107008 0.016285
v -0.050167 -0.101418 0.016285
v -0.041466 -0.078768 0.016285
v -0.066566 -0.090318 0.016285
v -0.056267 -0.061808 0.016285
v -0.030968 -0.043258 -0.000015
v -0.009167 -0.043498 0.008085
v -0.003265 -0.026448 0.008085
v -0.043667 -0.035458 -0.000015
v -0.016766 -0.015798 0.008085
v -0.031467 0.004082 0.008085
v -0.058468 -0.015578 -0.000015
v -0.003265 -0.026448 0.008085
v 0.002934 -0.018548 -0.000015
v -0.016766 -0.015798 0.008085
v 0.001934 0.000092 -0.000015
v -0.031467 0.004082 0.008085
v -0.012867 0.019972 -0.000015
v 0.002735 -0.059388 -0.000015
v -0.003265 -0.063388 0.006485
v 0.010735 -0.068998 -0.000015
v 0.000633 -0.051938 -0.000015
v 0.006535 -0.073998 0.006485
v 0.020435 -0.079218 -0.000015
v -0.008068 -0.053308 0.007986
v -0.001568 -0.042098 -0.000015
v 0.330933 0.139912 0.004286
v 0.343334 0.139912 0.004286
v 0.343334 0.152322 0.004286
v 0.330933 0.154522 0.004286
v 0.351635 0.147182 0.004286
v 0.355732 0.139912 0.004286
v -0.258465 0.139832 -0.009415
v -0.234066 0.139832 -0.009415
v -0.239765 0.157212 -0.009415
v -0.252865 0.157212 -0.009415
v 0.370335 0.093832 -0.013414
v 0.358635 0.104902 -0.013414
v 0.358635 0.093832 -0.013414
v 0.370335 0.104902 -0.013414
v 0.363834 0.078522 -0.032114
v 0.360832 0.078522 -0.032114
v 0.360832 0.070702 -0.032114
v 0.363834 0.070702 -0.032114
v 0.080032 0.070702 -0.032114
v 0.360832 0.087472 -0.032114
v 0.366734 0.125142 -0.032114
v 0.366734 0.121962 -0.032114
v 0.366734 0.087472 -0.032114
v -0.287865 0.125142 -0.032114
v -0.026066 0.070702 -0.032114
v -0.277767 0.087472 -0.032114
v -0.287865 0.121582 -0.032114
v -0.287865 0.087472 -0.032114
v -0.277767 0.078522 -0.032114
v -0.277767 0.070702 -0.032114
v -0.330265 -0.304738 0.036985
v -0.330265 -0.304738 -0.037115
v -0.345268 -0.283558 0.036985
v -0.345268 -0.283558 -0.037115
v -0.300465 -0.320368 0.023985
v -0.300465 -0.320368 -0.024015
v -0.300465 -0.334538 -0.024015
v -0.300465 -0.334538 0.023985
v -0.258465 0.139832 -0.009415
v -0.252865 0.157212 -0.009415
v -0.258465 0.139832 -0.017815
v -0.252865 0.157212 -0.017815
v -0.258465 0.139832 0.017786
v -0.252865 0.157212 0.017786
v -0.258465 0.139832 0.009285
v -0.252865 0.157212 0.009285
v -0.287865 0.087472 0.042585
v -0.287865 0.121582 0.042585
v -0.287865 0.087472 0.032085
v -0.287865 0.121582 0.032085
v -0.287865 0.125142 0.032085
v -0.287865 0.133082 0.042585
v -0.287865 0.125142 -0.032114
v -0.287865 0.133082 -0.042715
v -0.287865 0.121582 -0.042715
v -0.287865 0.121582 -0.032114
v -0.287865 0.087472 -0.042715
v -0.287865 0.087472 -0.032114
v -0.287365 0.079852 0.036985
v -0.287365 0.079852 -0.037115
v -0.287365 0.057042 -0.037115
v -0.287365 0.057042 0.036985
v -0.287365 0.085432 0.036985
v -0.287365 0.085432 -0.037115
v -0.286766 0.125272 0.036985
v -0.286766 0.125272 -0.037115
v -0.286766 0.088832 -0.037115
v -0.286766 0.088832 0.036985
v -0.277767 0.070702 0.032085
v -0.277767 0.078522 0.042585
v -0.277767 0.078522 0.032085
v -0.277767 0.070702 0.042585
v -0.277767 0.087472 0.042585
v -0.277767 0.087472 0.032085
v -0.277767 0.070702 -0.042715
v -0.277767 0.078522 -0.032114
v -0.277767 0.078522 -0.042715
v -0.277767 0.070702 -0.032114
v -0.277767 0.087472 -0.032114
v -0.277767 0.087472 -0.042715
v -0.277168 0.088832 0.036985
v -0.277168 0.088832 -0.037115
v -0.277168 0.079852 -0.037115
v -0.277168 0.079852 0.036985
v -0.346466 -0.251758 0.036985
v -0.346466 -0.251758 -0.037115
v -0.345268 -0.283558 -0.037115
v -0.345268 -0.283558 0.036985
v -0.343365 -0.238678 0.036985
v -0.343365 -0.238678 -0.037115
v -0.331867 -0.201158 0.036985
v -0.331867 -0.201158 -0.037115
v -0.318665 -0.169318 0.036985
v -0.318665 -0.169318 -0.037115
v -0.298168 -0.129838 0.036985
v -0.298168 -0.129838 -0.037115
v -0.285667 -0.110858 0.036985
v -0.285667 -0.110858 -0.037115
v -0.276066 -0.096468 0.036985
v -0.276066 -0.096468 -0.037115
v -0.250465 -0.060838 0.036985
v -0.250465 -0.060838 -0.037115
v -0.234367 -0.035168 0.036985
v -0.234367 -0.035168 -0.037115
v -0.230965 -0.018878 0.036985
v -0.230965 -0.018878 -0.037115
v -0.231567 -0.003498 0.036985
v -0.231567 -0.003498 -0.037115
v -0.243366 0.022912 0.036985
v -0.243366 0.022912 -0.037115
v -0.277168 0.045612 0.036985
v -0.277168 0.045612 -0.037115
v -0.287365 0.057042 0.036985
v -0.287365 0.057042 -0.037115
v -0.290565 -0.320368 0.019985
v -0.208366 -0.043828 0.019985
v -0.290565 -0.320368 -0.020115
v -0.208366 -0.043828 -0.020115
v -0.295265 -0.320368 -0.031614
v -0.295265 -0.334538 -0.031614
v -0.300465 -0.334538 -0.024015
v -0.300465 -0.320368 -0.024015
v -0.295265 -0.334538 0.031485
v -0.295265 -0.320368 0.031485
v -0.300465 -0.320368 0.023985
v -0.300465 -0.334538 0.023985
v -0.066566 -0.090318 0.016285
v -0.056267 -0.061808 -0.016315
v -0.066566 -0.090318 -0.016315
v -0.056267 -0.061808 0.016285
v -0.030968 0.137582 0.030085
v -0.030968 0.137582 -0.030115
v -0.030968 0.125262 -0.037115
v -0.030968 0.125262 0.036985
v 0.095535 0.002292 0.016285
v 0.095535 0.002292 -0.016315
v 0.099632 -0.002128 -0.016315
v 0.099632 -0.002128 0.016285
v 0.103535 -0.008808 -0.016315
v 0.103535 -0.008808 0.016285
v 0.110832 -0.027048 -0.016315
v 0.110832 -0.027048 0.016285
v 0.110832 -0.041998 -0.016315
v 0.110832 -0.041998 0.016285
v 0.107632 -0.061438 -0.016315
v 0.107632 -0.061438 0.016285
v 0.099735 -0.074738 -0.016315
v 0.099735 -0.074738 0.016285
v 0.080032 0.126932 -0.042715
v 0.080032 0.126932 0.042585
v 0.080032 0.140232 -0.034414
v 0.080032 0.140232 0.034285
v 0.330933 0.154522 -0.004416
v 0.330933 0.139912 -0.004416
v 0.330933 0.154522 0.004286
v 0.330933 0.139912 0.004286
v -0.303768 -0.320178 -0.037115
v -0.145966 -0.320178 -0.037115
v -0.145966 -0.320178 0.036985
v -0.303768 -0.320178 0.036985
v -0.317768 -0.314778 0.036985
v -0.317768 -0.314778 -0.037115
v -0.330265 -0.304738 0.036985
v -0.330265 -0.304738 -0.037115
v -0.290565 -0.334538 -0.020115
v -0.178368 -0.334538 -0.020115
v -0.178368 -0.334538 0.019985
v -0.295265 -0.334538 -0.031614
v -0.152065 -0.334538 -0.031614
v -0.300465 -0.334538 0.023985
v -0.300465 -0.334538 -0.024015
v -0.295265 -0.334538 0.031485
v -0.290565 -0.334538 0.019985
v -0.152065 -0.334538 0.031485
v -0.146866 -0.334538 -0.024015
v -0.146866 -0.334538 0.023985
v -0.295265 -0.334538 0.031485
v -0.295265 -0.334538 -0.031614
v -0.290565 -0.334538 -0.020115
v -0.243366 0.022912 0.036985
v -0.243366 0.022912 -0.037115
v -0.257866 0.036942 0.036985
v -0.257866 0.036942 -0.037115
v -0.277168 0.045612 0.036985
v -0.277168 0.045612 -0.037115
v 0.362732 0.018422 -0.037115
v 0.350632 0.008652 0.036985
v 0.350632 0.008652 -0.037115
v 0.362732 0.018422 0.036985
v 0.121532 -0.100408 -0.016315
v 0.098232 -0.101508 0.016285
v 0.098232 -0.101508 -0.016315
v 0.121532 -0.100408 0.016285
v 0.130333 -0.097378 -0.016315
v 0.130333 -0.097378 0.016285
v -0.012268 -0.107648 0.016285
v -0.012268 -0.107648 -0.016315
v -0.034668 -0.107008 0.016285
v -0.034668 -0.107008 -0.016315
v -0.050167 -0.101418 0.016285
v -0.050167 -0.101418 -0.016315
v -0.066566 -0.090318 0.016285
v -0.066566 -0.090318 -0.016315
v 0.006535 -0.073998 0.006485
v 0.002434 -0.079008 -0.000015
v 0.020435 -0.079218 -0.000015
v 0.002434 -0.079008 -0.000015
v 0.006535 -0.073998 -0.006515
v 0.020435 -0.079218 -0.000015
v -0.022465 -0.045718 -0.000015
v -0.030968 -0.043258 -0.000015
v -0.009167 -0.043498 -0.008215
v -0.022465 -0.045718 -0.000015
v -0.009167 -0.043498 0.008085
v -0.030968 -0.043258 -0.000015
v 0.350632 0.008652 -0.037115
v -0.030968 -0.003498 0.036985
v -0.030968 -0.003498 -0.037115
v 0.350632 0.008652 0.036985
v -0.079166 -0.110858 -0.037115
v -0.079166 -0.110858 0.036985
v -0.058968 -0.096468 -0.037115
v -0.058968 -0.096468 0.036985
v -0.049965 -0.018878 -0.037115
v -0.049965 -0.018878 0.036985
v -0.030968 -0.003498 -0.037115
v -0.030968 -0.003498 0.036985
v 0.358635 0.078822 0.008486
v 0.370335 0.078822 0.008486
v 0.358635 0.090852 0.020485
v 0.370335 0.090852 0.020485
v 0.358635 0.090852 -0.020615
v 0.370335 0.090852 -0.020615
v 0.358635 0.078822 -0.008514
v 0.370335 0.078822 -0.008514
v 0.080032 0.070702 0.032085
v 0.360832 0.070702 0.032085
v 0.360832 0.070702 0.042585
v 0.363834 0.070702 0.032085
v 0.363834 0.070702 0.042585
v 0.080032 0.070702 0.042585
v -0.026066 0.070702 0.042585
v -0.026066 0.070702 0.032085
v -0.277767 0.070702 0.042585
v -0.277767 0.070702 0.032085
v 0.360832 0.070702 -0.042715
v 0.080032 0.070702 -0.032114
v 0.080032 0.070702 -0.042715
v 0.360832 0.070702 -0.032114
v 0.363834 0.070702 -0.042715
v 0.363834 0.070702 -0.032114
v -0.026066 0.070702 -0.032114
v -0.026066 0.070702 -0.042715
v -0.277767 0.070702 -0.032114
v -0.277767 0.070702 -0.042715
v 0.358635 0.078822 -0.008514
v 0.370335 0.078822 -0.008514
v 0.358635 0.078822 0.008486
v 0.370335 0.078822 0.008486
v 0.370335 0.112722 0.005486
v 0.358635 0.104902 0.013285
v 0.358635 0.112722 0.005486
v 0.370335 0.104902 0.013285
v 0.370335 0.104902 -0.013414
v 0.358635 0.112722 -0.005615
v 0.358635 0.104902 -0.013414
v 0.370335 0.112722 -0.005615
v -0.287865 0.087472 0.032085
v -0.277767 0.087472 0.032085
v -0.287865 0.087472 0.042585
v -0.277767 0.087472 0.042585
v -0.287865 0.087472 -0.042715
v -0.277767 0.087472 -0.042715
v -0.287865 0.087472 -0.032114
v -0.277767 0.087472 -0.032114
v 0.360832 0.087472 -0.032114
v 0.360832 0.087472 -0.042715
v 0.366734 0.087472 -0.035416
v 0.366734 0.087472 -0.032114
v 0.360832 0.087472 0.032085
v 0.366734 0.087472 0.035385
v 0.360832 0.087472 0.042585
v 0.366734 0.087472 0.032085
v -0.286766 0.088832 0.036985
v -0.286766 0.088832 -0.037115
v -0.277168 0.088832 -0.037115
v -0.277168 0.088832 0.036985
v 0.370335 0.112722 -0.005615
v 0.358635 0.112722 0.005486
v 0.358635 0.112722 -0.005615
v 0.370335 0.112722 0.005486
v 0.366734 0.125142 0.032085
v -0.287865 0.125142 0.032085
v 0.366734 0.125142 -0.032114
v -0.287865 0.125142 -0.032114
v 0.080032 0.078522 -0.042715
v 0.360832 0.078522 -0.042715
v 0.360832 0.070702 -0.042715
v 0.363834 0.078522 -0.042715
v 0.363834 0.070702 -0.042715
v 0.080032 0.070702 -0.042715
v 0.080032 0.087472 -0.042715
v 0.360832 0.087472 -0.042715
v 0.080032 0.126932 -0.042715
v 0.360832 0.126932 -0.042715
v 0.080032 0.140232 -0.034414
v 0.360832 0.140232 -0.034414
v -0.026066 0.126932 -0.042715
v -0.026066 0.087472 -0.042715
v -0.026066 0.078522 -0.042715
v -0.026066 0.070702 -0.042715
v -0.277767 0.078522 -0.042715
v -0.277767 0.070702 -0.042715
v -0.277767 0.087472 -0.042715
v -0.277767 0.126932 -0.042715
v -0.026066 0.140232 -0.034414
v -0.277767 0.140232 -0.034414
v -0.287865 0.133082 -0.042715
v -0.287865 0.121582 -0.042715
v -0.287865 0.087472 -0.042715
v -0.054867 -0.060838 -0.037115
v -0.250465 -0.060838 -0.037115
v -0.234367 -0.035168 -0.037115
v -0.056767 -0.035168 -0.037115
v -0.230965 -0.018878 -0.037115
v -0.049965 -0.018878 -0.037115
v -0.231567 -0.003498 -0.037115
v -0.030968 -0.003498 -0.037115
v -0.231567 0.125262 -0.037115
v -0.243366 0.022912 -0.037115
v -0.030968 0.125262 -0.037115
v -0.243366 0.125262 -0.037115
v 0.350632 0.008652 -0.037115
v -0.257866 0.036942 -0.037115
v -0.257866 0.125262 -0.037115
v 0.350632 0.125262 -0.037115
v 0.362732 0.018422 -0.037115
v 0.362732 0.129762 -0.037115
v -0.030968 0.137582 -0.030115
v 0.350632 0.137582 -0.030115
v -0.277168 0.079852 -0.037115
v -0.277168 0.045612 -0.037115
v -0.287365 0.057042 -0.037115
v -0.287365 0.079852 -0.037115
v -0.287365 0.085432 -0.037115
v -0.277168 0.085432 -0.037115
v -0.277168 0.088832 -0.037115
v -0.277168 0.125272 -0.037115
v -0.286766 0.088832 -0.037115
v -0.286766 0.125272 -0.037115
v -0.303768 -0.320178 -0.037115
v -0.141468 -0.314778 -0.037115
v -0.145966 -0.320178 -0.037115
v -0.317768 -0.314778 -0.037115
v -0.143665 -0.304738 -0.037115
v -0.330265 -0.304738 -0.037115
v -0.145267 -0.283558 -0.037115
v -0.345268 -0.283558 -0.037115
v -0.346466 -0.251758 -0.037115
v -0.132767 -0.251758 -0.037115
v -0.343365 -0.238678 -0.037115
v -0.122467 -0.238678 -0.037115
v -0.331867 -0.201158 -0.037115
v -0.119865 -0.201158 -0.037115
v -0.318665 -0.169318 -0.037115
v -0.095867 -0.169318 -0.037115
v -0.298168 -0.129838 -0.037115
v -0.091866 -0.129838 -0.037115
v -0.285667 -0.110858 -0.037115
v -0.079166 -0.110858 -0.037115
v -0.276066 -0.096468 -0.037115
v -0.058968 -0.096468 -0.037115
v -0.295265 -0.320368 -0.031614
v -0.152065 -0.320368 -0.031614
v -0.152065 -0.334538 -0.031614
v -0.295265 -0.334538 -0.031614
v 0.358635 0.107882 -0.020615
v 0.370335 0.107882 -0.020615
v 0.358635 0.090852 -0.020615
v 0.370335 0.090852 -0.020615
v -0.096165 -0.043828 -0.020115
v -0.178368 -0.320368 -0.020115
v -0.208366 -0.043828 -0.020115
v -0.290565 -0.320368 -0.020115
v -0.234066 0.139832 -0.017815
v -0.258465 0.139832 -0.017815
v -0.252865 0.157212 -0.017815
v -0.239765 0.157212 -0.017815
v 0.006535 -0.073998 -0.006515
v 0.002434 -0.079008 -0.000015
v -0.003265 -0.063388 -0.006515
v -0.011166 -0.069008 -0.000015
v -0.008068 -0.053308 -0.008015
v -0.019867 -0.055498 -0.000015
v -0.009167 -0.043498 -0.008215
v -0.022465 -0.045718 -0.000015
v 0.138733 0.002842 -0.016315
v 0.099632 -0.002128 -0.016315
v 0.095535 0.002292 -0.016315
v 0.135235 -0.002128 -0.016315
v 0.131233 -0.008808 -0.016315
v 0.103535 -0.008808 -0.016315
v 0.110832 -0.027048 -0.016315
v 0.129734 -0.027048 -0.016315
v 0.129734 -0.041998 -0.016315
v 0.110832 -0.041998 -0.016315
v 0.129734 -0.061438 -0.016315
v 0.107632 -0.061438 -0.016315
v 0.130035 -0.076018 -0.016315
v 0.099735 -0.074738 -0.016315
v 0.133732 -0.083358 -0.016315
v 0.098232 -0.101508 -0.016315
v 0.090435 -0.080148 -0.016315
v -0.006367 -0.086378 -0.016315
v 0.121532 -0.100408 -0.016315
v 0.134132 -0.090318 -0.016315
v 0.130333 -0.097378 -0.016315
v -0.012268 -0.107648 -0.016315
v -0.026768 -0.085648 -0.016315
v -0.034668 -0.107008 -0.016315
v -0.050167 -0.101418 -0.016315
v -0.041466 -0.078768 -0.016315
v -0.066566 -0.090318 -0.016315
v -0.056267 -0.061808 -0.016315
v -0.009167 -0.043498 -0.008215
v -0.030968 -0.043258 -0.000015
v -0.003265 -0.026448 -0.008215
v -0.043667 -0.035458 -0.000015
v -0.016766 -0.015798 -0.008215
v -0.031467 0.004082 -0.008215
v -0.058468 -0.015578 -0.000015
v -0.003265 -0.026448 -0.008215
v -0.016766 -0.015798 -0.008215
v 0.002934 -0.018548 -0.000015
v 0.001934 0.000092 -0.000015
v -0.031467 0.004082 -0.008215
v -0.012867 0.019972 -0.000015
v 0.006535 -0.073998 -0.006515
v -0.003265 -0.063388 -0.006515
v 0.010735 -0.068998 -0.000015
v 0.020435 -0.079218 -0.000015
v 0.002735 -0.059388 -0.000015
v 0.000633 -0.051938 -0.000015
v -0.008068 -0.053308 -0.008015
v -0.001568 -0.042098 -0.000015
v 0.343334 0.152322 -0.004416
v 0.330933 0.139912 -0.004416
v 0.330933 0.154522 -0.004416
v 0.343334 0.139912 -0.004416
v 0.351635 0.147182 -0.004416
v 0.355732 0.139912 -0.004416
v -0.234066 0.139832 0.009285
v -0.258465 0.139832 0.009285
v -0.252865 0.157212 0.009285
v -0.239765 0.157212 0.009285
v 0.370335 0.104902 0.013285
v 0.358635 0.093832 0.013285
v 0.358635 0.104902 0.013285
v 0.370335 0.093832 0.013285
v 0.363834 0.078522 0.032085
v 0.363834 0.070702 0.032085
v 0.360832 0.078522 0.032085
v 0.360832 0.070702 0.032085
v 0.080032 0.070702 0.032085
v 0.360832 0.087472 0.032085
v 0.366734 0.125142 0.032085
v 0.366734 0.121962 0.032085
v 0.366734 0.087472 0.032085
v -0.287865 0.125142 0.032085
v -0.026066 0.070702 0.032085
v -0.277767 0.087472 0.032085
v -0.287865 0.121582 0.032085
v -0.287865 0.087472 0.032085
v -0.277767 0.078522 0.032085
v -0.277767 0.070702 0.032085
vn 1.0000 -0.0000 -0.0000
vn -0.0000 1.0000 -0.0000
vn -0.0000 -0.0000 1.0000
vn -1.0000 -0.0000 -0.0000
vn -0.0000 -1.0000 -0.0000
vn -0.0000 -0.0000 -1.0000
vn 1.0000 0.0001 -0.0000
vn 1.0000 -0.0001 -0.0000
vn 1.0000 0.0002 -0.0000
vn 1.0000 0.0004 -0.0000
vn 1.0000 -0.0002 -0.0000
vn 1.0000 -0.0004 -0.0000
vn 0.7492 0.6624 -0.0000
vn 0.7491 0.6624 -0.0000
vn 0.8124 0.2918 -0.5048
vn 0.8008 0.1099 -0.5888
vn 0.7933 0.0707 -0.6048
vn 0.7778 -0.0000 -0.6286
vn 0.7775 -0.0000 -0.6289
vn 0.8008 0.1099 0.5888
vn 0.8124 0.2918 0.5048
vn 0.7933 0.0707 0.6048
vn 0.7778 -0.0000 0.6285
vn 0.8730 0.4876 -0.0000
vn 0.7072 0.7071 -0.0000
vn 0.7071 0.7071 -0.0000
vn 0.8730 0.4877 -0.0000
vn 0.8815 -0.4722 -0.0000
vn 0.8185 -0.5746 -0.0000
vn 0.8440 -0.5364 -0.0000
vn 0.9771 -0.2128 -0.0000
vn 0.9989 -0.0472 -0.0000
vn 1.0000 0.0079 -0.0000
vn 0.9835 0.1810 -0.0000
vn 0.9612 0.2758 -0.0000
vn 0.9985 0.0551 -0.0000
vn 0.9985 0.0550 -0.0000
vn 0.7708 -0.6371 -0.0000
vn 0.0472 -0.0000 -0.9989
vn 0.8247 -0.0000 -0.5655
vn 0.8247 -0.0000 -0.5656
vn 0.8247 -0.0000 0.5655
vn 0.0472 -0.0000 0.9989
vn 0.7991 -0.6012 -0.0000
vn 0.7990 -0.6013 -0.0000
vn 0.7990 -0.6014 -0.0000
vn 0.6710 0.1499 0.7262
vn 0.7557 -0.1102 0.6455
vn 0.7330 -0.1182 0.6699
vn 0.8290 -0.1816 0.5290
vn 0.8573 -0.1652 0.4876
vn 0.7557 -0.1102 -0.6455
vn 0.6710 0.1500 -0.7262
vn 0.7330 -0.1182 -0.6699
vn 0.8290 -0.1816 -0.5290
vn 0.8573 -0.1652 -0.4876
vn 0.9612 -0.2758 -0.0000
vn 0.9947 -0.1026 -0.0000
vn 0.9947 -0.1025 -0.0000
vn 0.7111 -0.7031 -0.0000
vn 0.9992 -0.0393 -0.0000
vn 0.9939 -0.1105 -0.0000
vn 0.9939 -0.1104 -0.0000
vn 0.9930 -0.1182 -0.0000
vn 0.7778 -0.6285 -0.0000
vn 0.9930 0.1182 -0.0000
vn 0.9771 0.2127 -0.0000
vn 0.9771 0.2128 -0.0000
vn 0.9787 -0.2052 -0.0000
vn 0.8928 -0.4504 -0.0000
vn 0.7885 -0.6150 -0.0000
vn 0.7526 0.6585 -0.0000
vn 0.6285 0.7778 -0.0000
vn 0.9591 -0.2830 -0.0000
vn 0.9975 -0.0707 -0.0000
vn 0.9975 -0.0706 -0.0000
vn 0.9518 0.3067 -0.0000
vn 0.9518 0.3068 -0.0000
vn 0.1734 0.9848 -0.0000
vn 0.1734 0.9849 -0.0000
vn 0.3303 0.9439 -0.0000
vn 0.3304 0.9439 -0.0000
vn 0.7071 0.7072 -0.0000
vn -0.5745 0.8185 -0.0000
vn 0.0003 1.0000 -0.0000
vn -0.0001 1.0000 -0.0000
vn -0.0000 0.7071 0.7071
vn -0.0000 0.7071 -0.7071
vn -0.6151 0.7885 -0.0000
vn -0.6456 0.7637 -0.0000
vn -0.5885 0.8085 -0.0000
vn -0.6150 0.7885 -0.0000
vn -0.0158 0.9999 -0.0000
vn -0.3468 0.9379 -0.0000
vn -0.3469 0.9379 -0.0000
vn -0.1105 0.9939 -0.0000
vn -0.7342 0.6790 -0.0000
vn -0.0472 0.9989 -0.0000
vn 0.2128 0.9771 -0.0000
vn -0.0000 0.1580 0.9874
vn -0.0000 0.1182 0.9930
vn -0.0000 0.5272 0.8498
vn 0.1896 0.3081 0.9323
vn 0.0314 0.0472 0.9984
vn -0.0000 0.0315 0.9995
vn 0.0001 -0.0000 1.0000
vn -0.0000 0.0472 0.9989
vn -0.0001 -0.0000 1.0000
vn -0.0000 0.4877 0.8730
vn -0.0472 -0.0000 0.9989
vn -0.5218 -0.4823 0.7037
vn -0.4109 -0.4109 0.8139
vn -0.4344 -0.4738 0.7660
vn -0.4174 -0.3937 0.8190
vn -0.5133 -0.2211 0.8292
vn -0.5041 -0.2206 0.8350
vn -0.5283 -0.0946 0.8438
vn -0.5018 -0.1333 0.8547
vn -0.0003 -0.0000 1.0000
vn -0.1813 -0.1655 0.9694
vn -0.3469 0.1183 0.9304
vn -0.2133 -0.1027 0.9716
vn -0.1815 -0.1578 0.9706
vn -0.1896 -0.1421 0.9715
vn -0.1896 -0.1422 0.9715
vn 0.3920 0.4939 0.7762
vn 0.3938 0.1575 0.9056
vn 0.2822 0.1882 0.9407
vn 0.2761 0.1657 0.9467
vn 0.2530 0.1897 0.9487
vn 0.5821 0.3382 0.7394
vn 0.5888 0.3297 0.7380
vn 0.5189 0.4796 0.7076
vn 0.6519 0.1728 0.7383
vn 0.5198 0.4883 0.7010
vn 0.5140 0.4903 0.7038
vn 0.6709 0.1500 0.7262
vn -0.0002 -0.0000 1.0000
vn -0.7492 -0.6624 -0.0000
vn -0.8185 -0.5745 -0.0000
vn -0.9518 0.3067 -0.0000
vn -0.9518 0.3066 -0.0000
vn -0.9519 0.3065 -0.0000
vn -0.9517 0.3069 -0.0000
vn -0.9518 0.3068 -0.0000
vn -1.0000 -0.0001 -0.0000
vn -0.9992 0.0394 -0.0000
vn -0.9992 -0.0393 -0.0000
vn -0.9612 0.2757 -0.0000
vn -0.9612 0.2758 -0.0000
vn -0.9414 0.3374 -0.0000
vn -0.9052 0.4250 -0.0000
vn -0.8730 0.4877 -0.0000
vn -0.8730 0.4876 -0.0000
vn -0.8345 0.5511 -0.0000
vn -0.8185 0.5745 -0.0000
vn -0.8247 0.5655 -0.0000
vn -0.9963 0.0863 -0.0000
vn -0.9591 -0.2830 -0.0000
vn -0.8404 -0.5419 -0.0000
vn -0.5602 -0.8284 -0.0000
vn -0.7452 -0.6668 -0.0000
vn -0.9591 0.2830 -0.0000
vn -0.0472 -0.0000 -0.9989
vn -0.8247 -0.0000 -0.5655
vn -0.8247 -0.0000 -0.5656
vn -0.8247 -0.0000 0.5655
vn -0.0471 -0.0000 0.9989
vn -0.9405 0.3398 -0.0000
vn -0.9405 0.3397 -0.0000
vn -0.9404 0.3399 -0.0000
vn -1.0000 0.0002 -0.0000
vn -0.7342 -0.6789 -0.0000
vn -0.7341 -0.6790 -0.0000
vn -0.8121 -0.5835 -0.0000
vn -0.9125 -0.4090 -0.0000
vn -0.9125 -0.4091 -0.0000
vn -0.9771 -0.2127 -0.0000
vn -0.9955 0.0948 -0.0000
vn -0.9463 0.3233 -0.0000
vn -0.7342 0.6789 -0.0000
vn -0.0315 -0.9995 -0.0000
vn -0.5029 -0.8643 -0.0000
vn -0.7491 -0.6624 -0.0000
vn -0.8404 -0.5420 -0.0000
vn -0.5601 -0.8284 -0.0000
vn 0.6285 -0.7778 -0.0000
vn 0.1260 -0.9920 -0.0000
vn 0.0550 -0.9985 -0.0000
vn 0.3233 -0.9463 -0.0000
vn 0.0393 -0.9992 -0.0000
vn 0.0394 -0.9992 -0.0000
vn -0.1657 -0.9862 -0.0000
vn -0.4628 -0.8865 -0.0000
vn -0.0079 -0.7885 0.6150
vn -0.0079 -0.7885 -0.6150
vn -0.2284 -0.7798 -0.5829
vn -0.2284 -0.7798 0.5829
vn 0.0315 -0.9995 -0.0000
vn 0.0318 -0.9995 -0.0000
vn 0.5798 -0.8147 -0.0000
vn 0.7110 -0.7032 -0.0000
vn 0.7778 -0.6286 -0.0000
vn 0.6286 -0.7778 -0.0000
vn -0.0000 -0.7071 0.7071
vn -0.0000 -0.7071 -0.7071
vn -0.0000 -0.7070 -0.7072
vn -0.0000 -0.7071 0.7072
vn -0.0000 -0.7070 0.7072
vn -0.0000 0.1182 -0.9930
vn -0.0000 0.1580 -0.9874
vn -0.0000 0.5272 -0.8498
vn -0.0000 0.5272 -0.8497
vn 0.1896 0.3081 -0.9323
vn 0.0314 0.0472 -0.9984
vn -0.0000 0.0315 -0.9995
vn 0.0001 -0.0000 -1.0000
vn -0.0000 0.0472 -0.9989
vn -0.0000 0.4876 -0.8731
vn -0.0000 0.4877 -0.8730
vn -0.5218 -0.4823 -0.7037
vn -0.4344 -0.4738 -0.7660
vn -0.4109 -0.4109 -0.8139
vn -0.4174 -0.3937 -0.8190
vn -0.5133 -0.2211 -0.8292
vn -0.5041 -0.2205 -0.8350
vn -0.5283 -0.0946 -0.8437
vn -0.5018 -0.1333 -0.8547
vn -0.0001 -0.0000 -1.0000
vn -0.3469 0.1183 -0.9304
vn -0.1813 -0.1655 -0.9694
vn -0.2133 -0.1027 -0.9716
vn -0.1815 -0.1578 -0.9706
vn -0.1895 -0.1422 -0.9715
vn -0.1896 -0.1422 -0.9715
vn 0.3920 0.4939 -0.7761
vn 0.2822 0.1882 -0.9407
vn 0.3937 0.1575 -0.9056
vn 0.2761 0.1657 -0.9467
vn 0.2530 0.1897 -0.9487
vn 0.5198 0.4883 -0.7010
vn 0.5887 0.3297 -0.7380
vn 0.5189 0.4796 -0.7076
vn 0.5140 0.4903 -0.7038
vn 0.5821 0.3383 -0.7394
vn 0.6519 0.1728 -0.7383
vn 0.6709 0.1500 -0.7262
vn 0.7557 -0.1102 -0.6456
vn -0.0002 -0.0000 -1.0000
vn 0.0002 -0.0000 -1.0000
vt 0.395715 0.772191
vt 0.035715 0.772191
vt 0.395715 0.492191
vt 0.035715 0.492191
vt 0.095715 0.772191
vt 0.095715 0.412191
vt 0.035715 0.412191
vt 0.095715 0.492191
vt 0.423187 0.940621
vt 0.411148 0.928585
vt 0.418341 0.925606
vt 0.426166 0.933429
vt 0.418341 0.914541
vt 0.411148 0.911562
vt 0.423187 0.899526
vt 0.426166 0.906718
vt 0.440212 0.899526
vt 0.437233 0.906718
vt 0.445058 0.914541
vt 0.452251 0.911562
vt 0.452251 0.928585
vt 0.445058 0.925606
vt 0.440212 0.940621
vt 0.437233 0.933429
vt 0.402282 0.954303
vt 0.461116 0.954303
vt 0.466058 0.960944
vt 0.397340 0.960944
vt 0.467114 0.942672
vt 0.463800 0.908177
vt 0.467114 0.908177
vt 0.463800 0.942672
vt 0.463800 0.945850
vt 0.399599 0.945850
vt 0.396284 0.942672
vt 0.399599 0.942672
vt 0.396284 0.908177
vt 0.399599 0.908177
vt 0.474339 0.891406
vt 0.474339 0.899234
vt 0.463800 0.891406
vt 0.463800 0.899234
vt 0.399599 0.891406
vt 0.399599 0.899234
vt 0.389060 0.891406
vt 0.389060 0.899234
vt 0.468751 0.950473
vt 0.394647 0.839126
vt 0.468751 0.839126
vt 0.394647 0.950473
vt 0.474339 0.908177
vt 0.389060 0.908177
vt 0.461800 0.958284
vt 0.394647 0.945965
vt 0.468751 0.945965
vt 0.401599 0.958284
vt 0.474339 0.947638
vt 0.389060 0.947638
vt 0.427344 0.960622
vt 0.436055 0.967884
vt 0.427344 0.967884
vt 0.436055 0.960622
vt 0.415399 0.730384
vt 0.448000 0.723325
vt 0.448000 0.730384
vt 0.415399 0.723325
vt 0.448000 0.823544
vt 0.415399 0.818579
vt 0.448000 0.818579
vt 0.415399 0.823544
vt 0.415399 0.811901
vt 0.448000 0.811901
vt 0.415399 0.793660
vt 0.448000 0.793660
vt 0.415399 0.778707
vt 0.448000 0.778707
vt 0.415399 0.759264
vt 0.448000 0.759264
vt 0.415399 0.744687
vt 0.448000 0.744687
vt 0.415399 0.737352
vt 0.448000 0.737352
vt 0.468751 0.505930
vt 0.394647 0.500532
vt 0.468751 0.500532
vt 0.394647 0.505930
vt 0.463226 0.486170
vt 0.463226 0.500337
vt 0.455719 0.500337
vt 0.455719 0.486170
vt 0.407679 0.486170
vt 0.400173 0.500337
vt 0.400173 0.486170
vt 0.407679 0.500337
vt 0.468751 0.651393
vt 0.394647 0.619548
vt 0.468751 0.619548
vt 0.394647 0.651393
vt 0.423702 0.767394
vt 0.431699 0.778613
vt 0.423565 0.777211
vt 0.423565 0.794257
vt 0.431699 0.802159
vt 0.439697 0.767394
vt 0.439834 0.777211
vt 0.439834 0.794257
vt 0.468751 0.690871
vt 0.394647 0.690871
vt 0.468751 0.709847
vt 0.394647 0.709847
vt 0.468751 0.759872
vt 0.394647 0.724243
vt 0.468751 0.724243
vt 0.394647 0.759872
vt 0.468751 0.785535
vt 0.394647 0.785535
vt 0.468751 0.801832
vt 0.394647 0.801832
vt 0.468751 0.515967
vt 0.394647 0.515967
vt 0.468751 0.537150
vt 0.394647 0.537150
vt 0.468751 0.568946
vt 0.394647 0.568946
vt 0.468751 0.582033
vt 0.394647 0.582033
vt 0.448000 0.758897
vt 0.415399 0.741936
vt 0.448000 0.741936
vt 0.415399 0.758897
vt 0.451747 0.776881
vt 0.411651 0.500337
vt 0.451747 0.500337
vt 0.411651 0.776881
vt 0.449483 0.977914
vt 0.441039 0.960537
vt 0.449483 0.960537
vt 0.441039 0.977914
vt 0.422360 0.977914
vt 0.413916 0.960537
vt 0.422360 0.960537
vt 0.413916 0.977914
vt 0.468751 0.906135
vt 0.394647 0.900564
vt 0.468751 0.900564
vt 0.394647 0.906135
vt 0.112701 0.727686
vt 0.112701 0.736397
vt 0.100359 0.727686
vt 0.100359 0.736397
vt 0.092016 0.736397
vt 0.092016 0.727686
vt 0.731534 0.689402
vt 0.721451 0.766401
vt 0.721451 0.697683
vt 0.731534 0.774681
vt 0.696542 0.714258
vt 0.696542 0.722702
vt 0.683389 0.714258
vt 0.683389 0.722702
vt 0.696542 0.749825
vt 0.683389 0.741381
vt 0.696542 0.741381
vt 0.683389 0.749825
vt 0.082798 0.697683
vt 0.363667 0.697683
vt 0.363667 0.766401
vt 0.082798 0.766401
vt 0.469726 0.766401
vt 0.469726 0.697683
vt 0.474657 0.762142
vt 0.093023 0.762142
vt 0.474657 0.701941
vt 0.093023 0.701941
vt 0.469726 0.689402
vt 0.469726 0.774681
vt 0.363667 0.689402
vt 0.363667 0.774681
vt 0.474657 0.694990
vt 0.675271 0.694990
vt 0.675271 0.769094
vt 0.474657 0.769094
vt 0.687033 0.694990
vt 0.687033 0.769094
vt 0.701477 0.694990
vt 0.701477 0.769094
vt 0.720874 0.694990
vt 0.720874 0.769094
vt 0.730386 0.694990
vt 0.730386 0.769094
vt 0.085074 0.723529
vt 0.073310 0.740555
vt 0.073310 0.723529
vt 0.085074 0.740555
vt 0.073310 0.752593
vt 0.085074 0.752593
vt 0.085074 0.711490
vt 0.073310 0.711490
vt 0.073310 0.726508
vt 0.085074 0.726508
vt 0.073310 0.737575
vt 0.085074 0.737575
vt 0.731066 0.694990
vt 0.731066 0.769094
vt 0.079815 0.699941
vt 0.079815 0.689402
vt 0.082798 0.689402
vt 0.082798 0.699941
vt 0.079815 0.774681
vt 0.079815 0.764142
vt 0.082798 0.764142
vt 0.082798 0.774681
vt 0.073310 0.745400
vt 0.085074 0.745400
vt 0.073310 0.718683
vt 0.085074 0.718683
vt 0.475116 0.723908
vt 0.475116 0.740176
vt 0.456486 0.732042
vt 0.502077 0.732042
vt 0.348113 0.715741
vt 0.348113 0.748342
vt 0.304946 0.715741
vt 0.304946 0.748342
vt 0.080939 0.769094
vt 0.080939 0.694990
vt 0.093023 0.694990
vt 0.093023 0.769094
vt 0.539802 0.711994
vt 0.651989 0.711994
vt 0.651989 0.752090
vt 0.539802 0.752090
vt 0.353262 0.715741
vt 0.343911 0.748342
vt 0.343911 0.715741
vt 0.353262 0.748342
vt 0.450070 0.715741
vt 0.450070 0.748342
vt 0.470422 0.715741
vt 0.470422 0.748342
vt 0.485090 0.715741
vt 0.485090 0.748342
vt 0.738922 0.763569
vt 0.738922 0.700515
vt 0.744094 0.708022
vt 0.744094 0.756062
vt 0.734203 0.752090
vt 0.734203 0.711994
vt 0.622016 0.752090
vt 0.622016 0.711994
vt 0.595704 0.763569
vt 0.595704 0.700515
vt 0.590533 0.756062
vt 0.590533 0.708022
vt 0.499731 0.891406
vt 0.780600 0.891406
vt 0.780600 0.899234
vt 0.783584 0.891406
vt 0.783584 0.899234
vt 0.499731 0.899234
vt 0.393673 0.891406
vt 0.780600 0.908177
vt 0.393673 0.899234
vt 0.141948 0.891406
vt 0.499731 0.908177
vt 0.141948 0.899234
vt 0.780600 0.947638
vt 0.499731 0.947638
vt 0.780600 0.960944
vt 0.499731 0.960944
vt 0.393673 0.947638
vt 0.393673 0.908177
vt 0.141948 0.908177
vt 0.141948 0.947638
vt 0.393673 0.960944
vt 0.141948 0.960944
vt 0.131865 0.953791
vt 0.131865 0.942289
vt 0.131865 0.908177
vt 0.364863 0.759872
vt 0.185393 0.785535
vt 0.169258 0.759872
vt 0.363014 0.785535
vt 0.188818 0.801832
vt 0.369742 0.801832
vt 0.188127 0.817206
vt 0.388741 0.817206
vt 0.388741 0.945965
vt 0.770376 0.829363
vt 0.188127 0.945965
vt 0.176366 0.843621
vt 0.176366 0.945965
vt 0.161921 0.857653
vt 0.161921 0.945965
vt 0.770376 0.945965
vt 0.782460 0.839126
vt 0.782460 0.950473
vt 0.770376 0.958284
vt 0.388741 0.958284
vt 0.142525 0.900564
vt 0.142525 0.866321
vt 0.132333 0.877749
vt 0.132333 0.900564
vt 0.142525 0.906135
vt 0.132333 0.906135
vt 0.142525 0.909541
vt 0.142525 0.945977
vt 0.133012 0.945977
vt 0.133012 0.909541
vt 0.278253 0.505930
vt 0.101973 0.505930
vt 0.115944 0.500532
vt 0.273750 0.500532
vt 0.276112 0.515967
vt 0.089453 0.515967
vt 0.274464 0.537150
vt 0.074463 0.537150
vt 0.073310 0.568946
vt 0.286984 0.568946
vt 0.076363 0.582033
vt 0.297234 0.582033
vt 0.087922 0.619548
vt 0.299852 0.619548
vt 0.101032 0.651393
vt 0.323842 0.651393
vt 0.121546 0.690871
vt 0.327834 0.690871
vt 0.134061 0.709847
vt 0.340550 0.709847
vt 0.143632 0.724243
vt 0.360800 0.724243
vt 0.124477 0.486170
vt 0.267694 0.486170
vt 0.267694 0.500337
vt 0.124477 0.500337
vt 0.778325 0.911562
vt 0.790089 0.911562
vt 0.778325 0.928585
vt 0.790089 0.928585
vt 0.241382 0.500337
vt 0.211410 0.776881
vt 0.129195 0.500337
vt 0.323597 0.776881
vt 0.161230 0.960537
vt 0.185636 0.960537
vt 0.180009 0.977914
vt 0.166856 0.977914
vt 0.426311 0.746705
vt 0.416485 0.757321
vt 0.422174 0.741698
vt 0.408536 0.751698
vt 0.411639 0.767394
vt 0.399852 0.765211
vt 0.410554 0.777211
vt 0.397266 0.774991
vt 0.558452 0.823544
vt 0.515286 0.822994
vt 0.519347 0.818579
vt 0.554942 0.818579
vt 0.523270 0.811901
vt 0.551019 0.811901
vt 0.530594 0.793660
vt 0.549477 0.793660
vt 0.530594 0.778707
vt 0.549477 0.778707
vt 0.549477 0.759264
vt 0.527371 0.759264
vt 0.549752 0.744687
vt 0.519487 0.745970
vt 0.553511 0.737352
vt 0.518020 0.719199
vt 0.510136 0.740561
vt 0.413328 0.734327
vt 0.541306 0.720299
vt 0.553877 0.730384
vt 0.550106 0.723325
vt 0.407461 0.713057
vt 0.392977 0.735060
vt 0.385093 0.713698
vt 0.369600 0.719291
vt 0.378309 0.741936
vt 0.353190 0.730384
vt 0.363458 0.758897
vt 0.388744 0.777447
vt 0.416476 0.794257
vt 0.376033 0.785247
vt 0.402995 0.804904
vt 0.388283 0.824787
vt 0.361321 0.805130
vt 0.422636 0.802159
vt 0.421625 0.820794
vt 0.406913 0.840677
vt 0.422472 0.761318
vt 0.430449 0.751711
vt 0.420394 0.768772
vt 0.440213 0.741491
vt 0.418158 0.778613
vt 0.750697 0.960622
vt 0.763040 0.960622
vt 0.763040 0.973028
vt 0.750697 0.975224
vt 0.771382 0.967884
vt 0.775460 0.960622
vt 0.790089 0.914541
vt 0.778325 0.925606
vt 0.778325 0.914541
vt 0.790089 0.925606
vt 0.786448 0.945850
vt 0.786448 0.942672
vt 0.786448 0.908177
vt 0.131865 0.945850
vt 0.474339 0.942289
vt 0.463800 0.942289
vt 0.474339 0.953791
vt 0.389060 0.953791
vt 0.389060 0.942289
vt 0.399599 0.942289
vt 0.394647 0.877749
vt 0.468751 0.877749
vt 0.468751 0.945977
vt 0.394647 0.945977
vt 0.394647 0.909541
vt 0.468751 0.909541
vt 0.468751 0.817206
vt 0.394647 0.817206
vt 0.468751 0.843621
vt 0.394647 0.843621
vt 0.394647 0.866321
vt 0.468751 0.866321
vt 0.448000 0.822994
vt 0.415399 0.822994
vt 0.415399 0.745970
vt 0.448000 0.745970
vt 0.427344 0.975224
vt 0.436055 0.975224
vt 0.115944 0.694990
vt 0.273750 0.694990
vt 0.273750 0.769094
vt 0.115944 0.769094
vt 0.101973 0.769094
vt 0.101973 0.694990
vt 0.089453 0.769094
vt 0.089453 0.694990
vt 0.129195 0.711994
vt 0.241382 0.711994
vt 0.241382 0.752090
vt 0.124477 0.700515
vt 0.267694 0.700515
vt 0.119305 0.756062
vt 0.119305 0.708022
vt 0.124477 0.763569
vt 0.129195 0.752090
vt 0.267694 0.763569
vt 0.272866 0.708022
vt 0.272866 0.756062
vt 0.176366 0.694990
vt 0.176366 0.769094
vt 0.161921 0.769094
vt 0.161921 0.694990
vt 0.142525 0.769094
vt 0.142525 0.694990
vt 0.782460 0.694990
vt 0.770376 0.769094
vt 0.770376 0.694990
vt 0.782460 0.769094
vt 0.541306 0.715741
vt 0.518020 0.748342
vt 0.518020 0.715741
vt 0.541306 0.748342
vt 0.550106 0.715741
vt 0.550106 0.748342
vt 0.407461 0.748342
vt 0.407461 0.715741
vt 0.385093 0.748342
vt 0.385093 0.715741
vt 0.369600 0.748342
vt 0.369600 0.715741
vt 0.353190 0.748342
vt 0.353190 0.715741
vt 0.426311 0.738538
vt 0.422174 0.732042
vt 0.440213 0.732042
vt 0.426311 0.725546
vt 0.397266 0.732042
vt 0.388744 0.732042
vt 0.410554 0.723908
vt 0.410554 0.740176
vt 0.388741 0.769094
vt 0.388741 0.694990
vt 0.360800 0.694990
vt 0.340550 0.769094
vt 0.340550 0.694990
vt 0.360800 0.769094
vt 0.369742 0.769094
vt 0.369742 0.694990
vt 0.778325 0.740555
vt 0.790089 0.740555
vt 0.778325 0.752593
vt 0.790089 0.752593
vt 0.778325 0.711490
vt 0.790089 0.711490
vt 0.778325 0.723529
vt 0.790089 0.723529
vt 0.499731 0.764142
vt 0.780600 0.764142
vt 0.780600 0.774681
vt 0.783584 0.764142
vt 0.783584 0.774681
vt 0.499731 0.774681
vt 0.393673 0.774681
vt 0.393673 0.764142
vt 0.141948 0.774681
vt 0.141948 0.764142
vt 0.780600 0.689402
vt 0.499731 0.699941
vt 0.499731 0.689402
vt 0.780600 0.699941
vt 0.783584 0.689402
vt 0.783584 0.699941
vt 0.393673 0.699941
vt 0.393673 0.689402
vt 0.141948 0.699941
vt 0.141948 0.689402
vt 0.790089 0.737575
vt 0.778325 0.745400
vt 0.778325 0.737575
vt 0.790089 0.745400
vt 0.790089 0.718683
vt 0.778325 0.726508
vt 0.778325 0.718683
vt 0.790089 0.726508
vt 0.131865 0.764142
vt 0.131865 0.774681
vt 0.131865 0.689402
vt 0.131865 0.699941
vt 0.786448 0.696627
vt 0.786448 0.699941
vt 0.786448 0.767457
vt 0.786448 0.764142
vt 0.133012 0.769094
vt 0.133012 0.694990
vt 0.363667 0.899234
vt 0.082798 0.899234
vt 0.082798 0.891406
vt 0.079815 0.899234
vt 0.079815 0.891406
vt 0.363667 0.891406
vt 0.363667 0.908177
vt 0.082798 0.908177
vt 0.363667 0.947638
vt 0.082798 0.947638
vt 0.363667 0.960944
vt 0.082798 0.960944
vt 0.469726 0.947638
vt 0.469726 0.908177
vt 0.469726 0.899234
vt 0.469726 0.891406
vt 0.721451 0.899234
vt 0.721451 0.891406
vt 0.721451 0.908177
vt 0.721451 0.947638
vt 0.469726 0.960944
vt 0.721451 0.960944
vt 0.731534 0.953791
vt 0.731534 0.942289
vt 0.731534 0.908177
vt 0.498536 0.759872
vt 0.694141 0.759872
vt 0.678005 0.785535
vt 0.500384 0.785535
vt 0.674580 0.801832
vt 0.493657 0.801832
vt 0.675271 0.817206
vt 0.474657 0.817206
vt 0.675271 0.945965
vt 0.687033 0.843621
vt 0.474657 0.945965
vt 0.687033 0.945965
vt 0.093023 0.829363
vt 0.701477 0.857653
vt 0.701477 0.945965
vt 0.093023 0.945965
vt 0.080939 0.839126
vt 0.080939 0.950473
vt 0.474657 0.958284
vt 0.093023 0.958284
vt 0.720874 0.900564
vt 0.720874 0.866321
vt 0.731066 0.877749
vt 0.731066 0.900564
vt 0.731066 0.906135
vt 0.720874 0.906135
vt 0.720874 0.909541
vt 0.720874 0.945977
vt 0.730386 0.909541
vt 0.730386 0.945977
vt 0.747455 0.500532
vt 0.585145 0.505930
vt 0.589648 0.500532
vt 0.761426 0.505930
vt 0.587287 0.515967
vt 0.773945 0.515967
vt 0.588934 0.537150
vt 0.788936 0.537150
vt 0.790089 0.568946
vt 0.576415 0.568946
vt 0.787036 0.582033
vt 0.566164 0.582033
vt 0.775477 0.619548
vt 0.563547 0.619548
vt 0.762367 0.651393
vt 0.539556 0.651393
vt 0.741852 0.690871
vt 0.535564 0.690871
vt 0.729338 0.709847
vt 0.522848 0.709847
vt 0.719767 0.724243
vt 0.502599 0.724243
vt 0.738922 0.500337
vt 0.595704 0.500337
vt 0.595704 0.486170
vt 0.738922 0.486170
vt 0.085074 0.928585
vt 0.073310 0.928585
vt 0.085074 0.911562
vt 0.073310 0.911562
vt 0.539802 0.776881
vt 0.622016 0.500337
vt 0.651989 0.776881
vt 0.734203 0.500337
vt 0.677763 0.960537
vt 0.702169 0.960537
vt 0.696542 0.977914
vt 0.683389 0.977914
vt 0.437087 0.746705
vt 0.441224 0.741698
vt 0.446913 0.757321
vt 0.454862 0.751698
vt 0.451760 0.767394
vt 0.463547 0.765211
vt 0.452844 0.777211
vt 0.466132 0.774991
vt 0.304946 0.823544
vt 0.344052 0.818579
vt 0.348113 0.822994
vt 0.308457 0.818579
vt 0.312380 0.811901
vt 0.340129 0.811901
vt 0.332805 0.793660
vt 0.313922 0.793660
vt 0.313922 0.778707
vt 0.332805 0.778707
vt 0.313922 0.759264
vt 0.336027 0.759264
vt 0.313646 0.744687
vt 0.343911 0.745970
vt 0.309888 0.737352
vt 0.345378 0.719199
vt 0.353262 0.740561
vt 0.450070 0.734327
vt 0.322093 0.720299
vt 0.309521 0.730384
vt 0.313292 0.723325
vt 0.455938 0.713057
vt 0.470422 0.735060
vt 0.478306 0.713698
vt 0.493799 0.719291
vt 0.485090 0.741936
vt 0.510209 0.730384
vt 0.499941 0.758897
vt 0.474654 0.777447
vt 0.446922 0.794257
vt 0.487365 0.785247
vt 0.460404 0.804904
vt 0.475116 0.824787
vt 0.502077 0.805130
vt 0.440762 0.802159
vt 0.441773 0.820794
vt 0.456486 0.840677
vt 0.432950 0.751711
vt 0.423185 0.741491
vt 0.440926 0.761318
vt 0.443005 0.768772
vt 0.445240 0.778613
vt 0.100359 0.973028
vt 0.112701 0.960622
vt 0.112701 0.975224
vt 0.100359 0.960622
vt 0.092016 0.967884
vt 0.087939 0.960622
vt 0.073310 0.925606
vt 0.085074 0.914541
vt 0.085074 0.925606
vt 0.073310 0.914541
vt 0.076951 0.945850
vt 0.076951 0.942672
vt 0.076951 0.908177
vt 0.731534 0.945850
s 1
usemtl Display1Mtl
f 1/1/1 2/2/1 3/3/1
f 3/3/1 2/2/1 4/4/1
f 5/5/2 6/2/2 7/6/2
f 7/6/2 6/2/2 8/7/2
f 9/5/3 10/2/3 11/8/3
f 11/8/3 10/2/3 12/4/3
f 13/1/4 14/2/4 15/3/4
f 15/3/4 14/2/4 16/4/4
f 17/5/5 18/2/5 19/6/5
f 19/6/5 18/2/5 20/7/5
f 21/5/6 22/2/6 23/8/6
f 23/8/6 22/2/6 24/4/6
f 25/9/1 26/10/1 27/11/1
f 25/9/1 27/11/1 28/12/1
f 29/13/1 30/11/1 31/10/1
f 29/13/1 31/10/1 32/14/1
f 33/15/7 34/13/1 35/14/1
f 34/13/1 33/15/7 36/16/8
f 37/17/1 38/16/9 39/15/10
f 38/16/9 37/17/1 40/18/11
f 41/17/1 42/19/1 43/18/1
f 42/19/1 41/17/1 44/20/1
f 45/20/1 46/21/1 47/22/1
f 45/20/1 47/22/1 48/19/1
f 49/22/1 50/23/8 51/24/11
f 50/23/8 49/22/1 52/21/1
f 53/24/7 54/9/1 55/12/9
f 54/9/1 53/24/7 56/23/12
f 57/25/13 58/26/13 59/27/13
f 59/27/13 60/28/14 57/25/13
f 61/29/1 62/30/1 63/31/1
f 62/30/1 61/29/1 64/32/1
f 61/29/1 65/33/7 64/32/1
f 61/29/1 66/26/9 65/33/7
f 67/25/11 65/33/7 66/26/9
f 65/33/7 67/25/11 68/34/8
f 67/25/11 69/35/1 68/34/8
f 68/34/8 69/35/1 70/36/1
f 71/37/1 70/36/1 69/35/1
f 70/36/1 71/37/1 72/38/1
f 73/39/1 74/40/1 75/41/1
f 74/40/1 76/42/1 75/41/1
f 77/43/1 78/44/1 79/45/1
f 78/44/1 80/46/1 79/45/1
f 81/47/1 82/48/1 83/49/1
f 82/48/1 81/47/1 84/50/1
f 85/40/1 86/51/1 87/42/1
f 86/51/1 88/30/1 87/42/1
f 89/44/1 90/38/1 91/46/1
f 90/38/1 92/52/1 91/46/1
f 93/53/8 94/54/7 95/55/1
f 94/54/7 93/53/8 96/56/1
f 97/27/15 98/26/15 99/57/16
f 98/26/15 100/29/17 99/57/16
f 101/51/18 99/57/16 100/29/17
f 101/51/18 100/29/17 102/31/19
f 103/58/20 104/25/21 105/28/21
f 103/58/20 106/35/22 104/25/21
f 103/58/20 107/52/23 106/35/22
f 108/37/23 106/35/22 107/52/23
f 111/59/24 110/60/25 109/61/26
f 110/60/25 111/59/24 112/62/27
f 113/63/28 114/64/28 115/65/28
f 114/64/28 113/63/28 116/66/28
f 117/67/29 118/68/30 119/69/30
f 118/68/30 117/67/29 120/70/29
f 119/69/30 118/68/30 121/71/31
f 121/71/31 122/72/31 119/69/30
f 122/72/31 121/71/31 123/73/32
f 123/73/32 124/74/32 122/72/31
f 124/74/32 123/73/32 125/75/1
f 125/75/1 126/76/1 124/74/32
f 126/76/1 125/75/1 127/77/33
f 128/78/33 126/76/1 127/77/33
f 128/78/33 127/77/33 129/79/34
f 129/79/34 130/80/34 128/78/33
f 130/80/34 129/79/34 131/81/35
f 131/81/35 132/82/35 130/80/34
f 132/82/35 131/81/35 133/63/36
f 133/63/36 134/65/37 132/82/35
f 135/83/38 136/84/38 137/85/38
f 136/84/38 135/83/38 138/86/38
f 140/87/39 139/88/39 141/89/40
f 140/87/39 141/89/40 142/90/41
f 145/91/42 144/92/43 143/93/43
f 145/91/42 146/94/42 144/92/43
f 147/95/44 148/96/45 149/97/44
f 148/96/45 147/95/44 150/98/46
f 151/99/47 152/100/48 153/101/49
f 153/101/49 152/100/48 154/102/50
f 154/102/50 152/100/48 155/103/51
f 157/100/52 156/104/53 158/105/54
f 158/105/54 159/106/55 157/100/52
f 157/100/52 159/106/55 160/103/56
f 161/107/57 162/98/58 163/95/59
f 162/98/58 161/107/57 164/108/57
f 165/109/60 164/108/57 161/107/57
f 164/108/57 165/109/60 166/110/60
f 167/27/1 168/28/1 169/57/1
f 169/57/1 168/28/1 170/58/1
f 171/111/61 172/112/62 173/113/63
f 172/112/62 171/111/61 174/114/61
f 175/115/64 174/114/61 171/111/61
f 174/114/61 175/115/64 176/116/64
f 177/117/65 176/116/64 175/115/64
f 176/116/64 177/117/65 178/118/65
f 179/119/66 180/86/67 181/83/68
f 180/86/67 179/119/66 182/120/66
f 183/121/69 182/120/66 179/119/66
f 182/120/66 183/121/69 184/122/69
f 185/123/70 184/122/69 183/121/69
f 184/122/69 185/123/70 186/124/70
f 187/125/71 186/124/70 185/123/70
f 186/124/70 187/125/71 188/126/71
f 191/127/72 190/128/73 189/129/73
f 190/128/73 191/127/72 192/130/72
f 193/131/74 194/132/74 195/133/74
f 194/132/74 193/131/74 196/134/74
f 197/97/75 198/126/76 199/125/76
f 198/126/76 197/97/75 200/96/75
f 201/89/1 202/91/1 203/90/1
f 202/91/1 201/89/1 204/94/1
f 205/135/77 206/136/78 207/137/78
f 206/136/78 205/135/77 208/138/78
f 209/139/78 210/140/78 211/141/78
f 210/140/78 209/139/78 212/142/78
f 213/143/1 214/144/1 215/145/1
f 214/144/1 213/143/1 216/146/1
f 217/147/79 218/148/80 219/149/81
f 219/149/81 218/148/80 220/150/82
f 219/149/81 220/150/82 221/151/83
f 222/152/26 219/149/81 221/151/83
f 223/153/84 224/154/84 225/155/84
f 223/153/84 226/156/84 224/154/84
f 227/157/2 228/158/2 229/159/2
f 229/159/2 228/158/2 230/160/2
f 231/161/2 232/162/2 233/163/2
f 232/162/2 231/161/2 234/164/2
f 235/165/2 236/166/2 237/167/2
f 235/165/2 237/167/2 238/168/2
f 239/155/2 240/169/2 241/170/2
f 240/169/2 239/155/2 242/154/2
f 243/171/2 244/172/2 245/173/2
f 246/174/2 245/173/2 244/172/2
f 247/175/2 248/176/2 249/177/2
f 249/177/2 248/176/2 250/178/2
f 251/179/2 252/180/2 253/181/2
f 251/179/2 253/181/2 254/182/2
f 255/183/2 253/181/2 252/180/2
f 253/181/2 255/183/2 256/184/2
f 257/185/85 256/184/2 255/183/2
f 256/184/2 257/185/85 258/186/85
f 259/187/85 258/186/85 257/185/85
f 258/186/85 259/187/85 260/188/86
f 261/189/2 260/188/86 259/187/85
f 260/188/86 261/189/2 262/190/2
f 263/191/2 264/192/2 265/193/2
f 264/192/2 263/191/2 266/194/2
f 267/194/87 268/195/87 269/192/87
f 268/195/87 267/194/87 270/196/87
f 271/197/88 272/193/88 273/198/88
f 272/193/88 271/197/88 274/191/88
f 275/199/2 276/200/2 277/201/2
f 276/200/2 278/202/2 277/201/2
f 279/203/2 280/188/2 281/187/2
f 280/188/2 279/203/2 282/204/2
f 283/205/2 284/206/2 285/207/2
f 285/207/2 286/208/2 283/205/2
f 287/209/2 288/210/2 289/211/2
f 289/211/2 290/212/2 287/209/2
f 291/201/88 292/202/88 293/213/88
f 292/202/88 294/214/88 293/213/88
f 295/215/87 296/216/87 297/199/87
f 296/216/87 298/200/87 297/199/87
f 299/217/89 300/218/89 301/219/90
f 302/220/91 303/218/92 304/217/92
f 305/221/93 306/222/93 307/223/93
f 307/223/93 306/222/93 308/224/93
f 309/225/94 310/226/95 311/227/94
f 311/227/94 312/228/94 309/225/94
f 313/229/2 314/230/2 315/231/2
f 313/229/2 315/231/2 316/232/2
f 319/233/96 318/234/97 317/235/97
f 318/234/97 319/233/96 320/236/96
f 321/237/98 320/236/96 319/233/96
f 320/236/96 321/237/98 322/238/98
f 323/239/99 322/238/98 321/237/98
f 322/238/98 323/239/99 324/240/99
f 325/241/73 324/240/99 323/239/99
f 324/240/99 325/241/73 326/242/73
f 327/243/2 328/244/2 329/245/2
f 327/243/2 329/245/2 330/246/2
f 328/244/2 327/243/2 331/247/2
f 328/244/2 331/247/2 332/248/2
f 327/243/2 333/249/2 331/247/2
f 334/250/2 328/244/2 332/248/2
f 327/243/2 335/251/2 333/249/2
f 335/251/2 334/250/2 333/249/2
f 328/244/2 334/250/2 336/252/2
f 334/250/2 335/251/2 336/252/2
f 336/252/2 335/251/2 337/253/2
f 336/252/2 337/253/2 338/254/2
f 339/255/3 340/256/3 341/257/3
f 342/258/3 341/257/3 340/256/3
f 341/257/3 342/258/3 343/259/3
f 339/255/3 341/257/3 344/260/3
f 345/261/3 339/255/3 344/260/3
f 344/260/3 341/257/3 346/262/3
f 345/261/3 344/260/3 347/263/3
f 348/264/3 345/261/3 347/263/3
f 344/260/3 346/262/3 349/265/3
f 347/263/3 344/260/3 349/265/3
f 348/264/3 347/263/3 350/266/3
f 349/265/3 346/262/3 351/267/100
f 349/265/3 351/267/100 352/268/101
f 352/268/101 351/267/100 353/269/102
f 352/268/101 353/269/102 354/270/102
f 352/268/101 355/271/101 349/265/3
f 347/263/3 349/265/3 356/272/3
f 350/266/3 347/263/3 356/272/3
f 356/272/3 349/265/3 355/271/101
f 350/266/3 356/272/3 357/273/3
f 355/271/101 358/274/100 356/272/3
f 357/273/3 356/272/3 358/274/100
f 358/274/100 355/271/101 359/275/102
f 358/274/100 359/275/102 360/276/102
f 358/274/100 360/276/102 361/277/103
f 358/274/100 361/277/103 362/278/104
f 357/273/3 358/274/100 362/278/104
f 362/278/104 363/279/3 357/273/3
f 364/280/3 365/281/3 366/282/3
f 365/281/3 364/280/3 367/283/3
f 367/283/3 368/284/3 365/281/3
f 368/284/3 367/283/3 369/285/3
f 369/285/3 370/286/3 368/284/3
f 370/286/3 369/285/3 371/287/3
f 371/287/3 372/288/105 370/286/3
f 373/289/3 372/288/105 371/287/3
f 370/286/3 372/288/105 374/290/3
f 374/290/3 375/291/106 370/286/3
f 375/291/106 374/290/3 376/292/3
f 376/292/3 377/293/3 375/291/106
f 377/293/3 376/292/3 378/294/3
f 372/288/105 373/289/3 379/295/107
f 380/296/3 379/295/107 373/289/3
f 380/296/3 381/297/108 379/295/107
f 372/288/105 379/295/107 382/298/109
f 372/288/105 382/298/109 383/299/109
f 377/293/3 378/294/3 384/300/3
f 385/301/3 377/293/3 384/300/3
f 384/300/3 386/302/108 385/301/3
f 386/302/108 384/300/3 387/303/3
f 387/303/3 384/300/3 388/304/3
f 387/303/3 388/304/3 389/305/3
f 384/300/3 378/294/3 390/306/3
f 390/306/3 378/294/3 391/307/3
f 390/306/3 391/307/3 392/308/3
f 392/308/3 393/309/3 390/306/3
f 394/310/3 395/311/3 396/312/3
f 394/310/3 396/312/3 397/313/3
f 395/311/3 394/310/3 398/314/3
f 395/311/3 398/314/3 399/315/3
f 399/315/3 398/314/3 400/316/3
f 399/315/3 400/316/3 401/317/3
f 400/316/3 402/318/3 401/317/3
f 402/318/3 400/316/3 403/319/3
f 403/319/3 404/320/3 402/318/3
f 404/320/3 403/319/3 405/321/3
f 405/321/3 406/322/3 404/320/3
f 406/322/3 405/321/3 407/323/3
f 407/323/3 408/324/3 406/322/3
f 408/324/3 407/323/3 409/325/3
f 409/325/3 410/326/3 408/324/3
f 410/326/3 409/325/3 411/327/3
f 411/327/3 412/328/3 410/326/3
f 412/328/3 411/327/3 413/329/3
f 413/329/3 414/330/3 412/328/3
f 414/330/3 413/329/3 415/331/3
f 415/331/3 366/282/3 414/330/3
f 366/282/3 415/331/3 364/280/3
f 416/332/110 417/333/43 418/334/43
f 416/332/110 418/334/43 419/335/110
f 420/336/3 421/337/3 422/338/3
f 421/337/3 423/339/3 422/338/3
f 424/340/3 425/341/3 426/342/3
f 425/341/3 424/340/3 427/343/3
f 428/344/3 429/345/3 430/346/3
f 428/344/3 430/346/3 431/347/3
f 432/348/111 433/349/112 434/350/113
f 434/350/113 433/349/112 435/351/114
f 433/349/112 436/352/115 435/351/114
f 435/351/114 436/352/115 437/353/116
f 436/352/115 438/354/117 437/353/116
f 437/353/116 438/354/117 439/355/118
f 440/356/3 441/357/3 442/358/3
f 440/356/3 442/358/3 443/359/3
f 443/359/3 442/358/3 444/360/3
f 443/359/3 444/360/3 445/361/3
f 445/361/3 444/360/3 446/362/3
f 446/362/3 447/363/3 445/361/3
f 448/364/3 447/363/3 446/362/3
f 448/364/3 449/365/3 447/363/3
f 448/364/3 450/366/3 449/365/3
f 450/366/3 448/364/3 451/367/3
f 451/367/3 452/368/106 450/366/3
f 452/368/106 451/367/3 453/369/3
f 453/369/3 454/370/3 452/368/106
f 454/370/3 453/369/3 455/371/3
f 455/371/3 453/369/3 456/372/3
f 456/372/3 457/373/106 455/371/3
f 454/370/3 455/371/3 458/374/106
f 458/374/106 459/375/119 454/370/3
f 459/375/119 458/374/106 460/376/3
f 461/377/3 455/371/3 457/373/106
f 461/377/3 457/373/106 462/378/3
f 463/379/108 461/377/3 462/378/3
f 462/378/3 464/380/3 463/379/108
f 464/380/3 462/378/3 465/381/3
f 465/381/3 466/382/3 464/380/3
f 466/382/3 465/381/3 467/383/108
f 468/384/120 469/354/121 470/385/122
f 468/384/120 470/385/122 471/386/123
f 471/386/123 470/385/122 472/387/123
f 473/388/124 471/386/123 472/387/123
f 471/386/123 473/388/124 474/389/125
f 475/385/126 476/390/127 477/387/128
f 476/390/127 478/391/129 477/387/128
f 478/391/129 479/388/130 477/387/128
f 479/388/130 478/391/129 480/392/130
f 481/393/131 482/349/132 483/394/133
f 481/393/131 484/395/134 482/349/132
f 483/394/133 482/349/132 485/348/135
f 483/394/133 485/348/135 486/396/136
f 482/349/132 484/395/134 487/352/137
f 484/395/134 488/397/48 487/352/137
f 489/398/108 490/399/3 491/400/108
f 489/398/108 491/400/108 492/401/138
f 490/399/3 493/402/3 491/400/108
f 493/402/3 490/399/3 494/403/3
f 495/344/3 496/345/3 497/346/3
f 495/344/3 497/346/3 498/347/3
f 499/404/3 500/405/3 501/406/3
f 500/405/3 499/404/3 502/407/3
f 503/259/3 504/257/3 505/256/3
f 506/258/3 503/259/3 505/256/3
f 507/255/3 505/256/3 504/257/3
f 507/255/3 504/257/3 508/262/3
f 509/408/106 507/255/3 508/262/3
f 509/408/106 508/262/3 510/409/3
f 508/262/3 511/410/3 510/409/3
f 512/411/3 507/255/3 509/408/106
f 507/255/3 512/411/3 513/261/3
f 513/261/3 512/411/3 514/273/3
f 515/278/3 514/273/3 512/411/3
f 516/279/3 514/273/3 515/278/3
f 513/261/3 514/273/3 517/266/3
f 513/261/3 517/266/3 518/264/3
f 520/120/139 519/119/139 521/121/140
f 521/121/140 522/122/140 520/120/139
f 523/89/4 524/94/4 525/91/4
f 525/91/4 526/90/4 523/89/4
f 527/141/141 528/139/142 529/140/142
f 530/142/143 529/140/142 528/139/142
f 531/137/144 532/135/141 533/136/145
f 534/138/141 533/136/145 532/135/141
f 535/51/4 536/412/4 537/30/4
f 538/413/4 537/30/4 536/412/4
f 538/413/4 536/412/4 539/33/4
f 539/33/4 536/412/4 540/414/4
f 540/414/4 541/34/146 539/33/4
f 540/414/4 542/415/146 541/34/146
f 541/34/146 542/415/146 543/416/4
f 543/416/4 544/417/4 541/34/146
f 543/416/4 545/52/4 544/417/4
f 546/38/4 544/417/4 545/52/4
f 547/145/4 548/144/4 549/418/4
f 549/418/4 550/419/4 547/145/4
f 548/144/4 547/145/4 551/143/4
f 551/143/4 552/146/4 548/144/4
f 553/420/4 554/421/4 555/422/4
f 555/422/4 556/423/4 553/420/4
f 557/41/4 558/40/4 559/42/4
f 558/40/4 557/41/4 560/39/4
f 561/51/4 559/42/4 558/40/4
f 559/42/4 561/51/4 562/30/4
f 563/45/4 564/44/4 565/46/4
f 564/44/4 563/45/4 566/43/4
f 567/38/4 565/46/4 564/44/4
f 565/46/4 567/38/4 568/52/4
f 569/423/4 570/422/4 571/144/4
f 571/144/4 572/145/4 569/423/4
f 573/123/147 574/124/147 575/122/148
f 575/122/148 576/121/148 573/123/147
f 574/124/147 573/123/147 577/125/149
f 577/125/149 578/126/150 574/124/147
f 578/126/150 577/125/149 579/97/151
f 579/97/151 580/96/151 578/126/150
f 580/96/151 579/97/151 581/95/152
f 581/95/152 582/98/152 580/96/151
f 582/98/152 581/95/152 583/107/153
f 583/107/153 584/108/154 582/98/152
f 584/108/154 583/107/153 585/109/155
f 585/109/155 586/110/155 584/108/154
f 586/110/155 585/109/155 587/113/156
f 587/113/156 588/112/156 586/110/155
f 588/112/156 587/113/156 589/111/157
f 589/111/157 590/114/157 588/112/156
f 590/114/157 589/111/157 591/115/152
f 591/115/152 592/116/152 590/114/157
f 592/116/152 591/115/152 593/117/158
f 593/117/158 594/118/158 592/116/152
f 594/118/158 593/117/158 595/424/159
f 595/424/159 596/425/159 594/118/158
f 596/425/159 595/424/159 597/426/160
f 597/426/160 598/427/160 596/425/159
f 600/428/161 599/429/161 601/419/162
f 601/419/162 602/418/162 600/428/161
f 603/133/163 604/131/163 605/132/163
f 606/134/163 605/132/163 604/131/163
f 607/92/164 608/93/164 609/91/165
f 607/92/164 609/91/165 610/94/166
f 613/89/167 611/87/110 612/88/168
f 613/89/167 614/90/167 611/87/110
f 615/65/169 616/130/169 617/63/170
f 616/130/169 615/65/169 618/127/171
f 619/53/172 620/56/4 621/54/4
f 621/54/4 622/55/172 619/53/172
f 623/430/173 624/431/174 625/68/175
f 625/68/175 626/69/175 623/430/173
f 627/71/176 626/69/175 625/68/175
f 626/69/175 627/71/176 628/72/177
f 629/73/178 628/72/177 627/71/176
f 628/72/177 629/73/178 630/74/178
f 631/75/179 630/74/178 629/73/178
f 630/74/178 631/75/179 632/76/179
f 633/77/180 632/76/179 631/75/179
f 632/76/179 633/77/180 634/78/180
f 635/432/181 634/78/180 633/77/180
f 634/78/180 635/432/181 636/433/181
f 637/58/4 638/57/146 639/28/4
f 639/28/4 638/57/146 640/27/146
f 641/434/4 642/59/4 643/435/4
f 642/59/4 644/62/4 643/435/4
f 645/436/182 646/437/5 647/438/5
f 645/436/182 647/438/5 648/439/182
f 645/436/182 648/439/182 649/440/183
f 649/440/183 650/441/183 645/436/182
f 650/441/183 649/440/183 651/442/184
f 651/442/184 652/443/184 650/441/183
f 653/444/5 654/445/5 655/446/5
f 656/447/5 654/445/5 653/444/5
f 656/447/5 657/448/5 654/445/5
f 655/446/5 654/445/5 657/448/5
f 656/447/5 658/449/5 659/450/5
f 656/447/5 660/451/5 658/449/5
f 653/444/5 655/446/5 661/452/5
f 660/451/5 653/444/5 661/452/5
f 655/446/5 660/451/5 661/452/5
f 660/451/5 655/446/5 662/453/5
f 657/448/5 662/453/5 655/446/5
f 662/453/5 657/448/5 663/454/5
f 662/453/5 663/454/5 664/455/5
f 665/451/5 666/447/5 667/444/5
f 669/456/185 668/457/185 670/458/161
f 670/458/161 671/459/161 669/456/185
f 671/459/161 670/458/161 672/460/186
f 672/460/186 673/461/186 671/459/161
f 674/462/187 675/463/187 676/464/187
f 675/463/187 674/462/187 677/465/187
f 678/466/188 679/467/189 680/468/189
f 679/467/189 678/466/188 681/469/188
f 682/470/190 681/469/188 678/466/188
f 681/469/188 682/470/190 683/471/190
f 679/467/189 684/472/191 680/468/189
f 685/473/192 680/468/189 684/472/191
f 685/473/192 684/472/191 686/474/193
f 687/475/193 685/473/192 686/474/193
f 687/475/193 686/474/193 688/476/194
f 688/476/194 689/477/194 687/475/193
f 689/477/194 688/476/194 690/478/186
f 690/478/186 691/479/186 689/477/194
f 692/480/195 693/481/195 694/482/195
f 695/481/196 696/483/196 697/482/196
f 698/484/197 699/485/197 700/486/197
f 701/484/198 702/487/198 703/485/198
f 704/464/199 705/488/199 706/489/200
f 705/488/199 704/464/199 707/463/199
f 710/490/201 709/491/202 708/492/202
f 709/491/202 710/490/201 711/493/201
f 714/489/187 713/494/65 712/495/203
f 713/494/65 714/489/187 715/488/204
f 716/496/205 717/497/205 718/498/205
f 717/497/205 719/499/205 718/498/205
f 720/500/206 721/501/206 722/502/206
f 721/501/206 723/503/206 722/502/206
f 724/504/5 725/505/5 726/506/5
f 727/507/5 726/506/5 725/505/5
f 726/506/5 727/507/5 728/508/5
f 724/504/5 726/506/5 729/509/5
f 729/509/5 730/510/5 724/504/5
f 731/511/5 724/504/5 730/510/5
f 730/510/5 732/512/5 731/511/5
f 733/513/5 731/511/5 732/512/5
f 734/514/5 735/515/5 736/516/5
f 735/515/5 734/514/5 737/517/5
f 738/518/5 737/517/5 734/514/5
f 737/517/5 738/518/5 739/519/5
f 735/515/5 740/520/5 736/516/5
f 741/521/5 736/516/5 740/520/5
f 740/520/5 742/522/5 741/521/5
f 743/523/5 741/521/5 742/522/5
f 744/502/5 745/503/5 746/496/5
f 745/503/5 747/497/5 746/496/5
f 748/524/206 749/525/206 750/526/206
f 749/525/206 748/524/206 751/527/207
f 752/528/205 753/529/208 754/530/209
f 753/529/208 752/528/205 755/531/205
f 756/532/5 757/513/5 758/533/5
f 757/513/5 759/512/5 758/533/5
f 760/534/5 761/523/5 762/535/5
f 761/523/5 763/522/5 762/535/5
f 764/517/5 765/514/5 766/536/5
f 764/517/5 766/536/5 767/537/5
f 768/505/5 769/538/5 770/506/5
f 769/538/5 768/505/5 771/539/5
f 772/540/5 773/541/5 774/461/5
f 774/461/5 775/460/5 772/540/5
f 776/531/5 777/526/5 778/529/5
f 777/526/5 776/531/5 779/524/5
f 780/539/5 781/532/5 782/537/5
f 783/535/5 782/537/5 781/532/5
f 784/542/6 785/543/6 786/544/6
f 787/545/6 786/544/6 785/543/6
f 786/544/6 787/545/6 788/546/6
f 784/542/6 786/544/6 789/547/6
f 790/548/6 785/543/6 784/542/6
f 790/548/6 791/549/6 785/543/6
f 792/550/210 791/549/6 790/548/6
f 792/550/210 793/551/211 791/549/6
f 794/552/212 793/551/211 792/550/210
f 794/552/212 795/553/213 793/551/211
f 790/548/6 796/554/210 792/550/210
f 797/555/6 790/548/6 784/542/6
f 796/554/210 790/548/6 797/555/6
f 789/547/6 798/556/6 784/542/6
f 797/555/6 784/542/6 798/556/6
f 798/556/6 789/547/6 799/557/6
f 799/557/6 800/558/6 798/556/6
f 800/558/6 799/557/6 801/559/6
f 802/560/6 798/556/6 800/558/6
f 798/556/6 802/560/6 797/555/6
f 803/561/211 796/554/210 797/555/6
f 803/561/211 797/555/6 802/560/6
f 796/554/210 803/561/211 804/562/212
f 805/563/212 804/562/212 803/561/211
f 806/564/214 805/563/212 803/561/211
f 806/564/214 803/561/211 807/565/215
f 803/561/211 802/560/6 807/565/215
f 807/565/215 802/560/6 808/566/6
f 809/567/6 810/568/6 811/569/6
f 811/569/6 812/570/6 809/567/6
f 813/571/6 812/570/6 811/569/6
f 813/571/6 814/572/6 812/570/6
f 815/573/6 814/572/6 813/571/6
f 815/573/6 816/574/6 814/572/6
f 817/575/6 816/574/6 815/573/6
f 817/575/6 815/573/6 818/576/6
f 817/575/6 819/577/216 816/574/6
f 818/576/6 820/578/6 817/575/6
f 819/577/216 821/579/6 816/574/6
f 820/578/6 818/576/6 822/580/217
f 822/580/217 823/581/6 820/578/6
f 821/579/6 819/577/216 824/582/218
f 824/582/218 825/583/6 821/579/6
f 825/583/6 824/582/218 826/584/6
f 827/585/219 824/582/218 819/577/216
f 827/585/219 828/586/220 824/582/218
f 822/580/217 829/587/6 823/581/6
f 829/587/6 822/580/217 830/588/6
f 829/587/6 830/588/6 831/589/6
f 831/589/6 832/590/6 829/587/6
f 833/591/6 829/587/6 832/590/6
f 833/591/6 834/592/6 829/587/6
f 823/581/6 829/587/6 835/593/6
f 823/581/6 835/593/6 836/594/6
f 836/594/6 835/593/6 837/595/6
f 837/595/6 838/596/6 836/594/6
f 839/597/6 840/598/6 841/599/6
f 842/600/6 840/598/6 839/597/6
f 842/600/6 843/601/6 840/598/6
f 843/601/6 842/600/6 844/602/6
f 844/602/6 845/603/6 843/601/6
f 845/603/6 844/602/6 846/604/6
f 847/605/6 845/603/6 846/604/6
f 847/605/6 848/606/6 845/603/6
f 849/607/6 848/606/6 847/605/6
f 849/607/6 850/608/6 848/606/6
f 850/608/6 849/607/6 851/609/6
f 851/609/6 852/610/6 850/608/6
f 852/610/6 851/609/6 853/611/6
f 853/611/6 854/612/6 852/610/6
f 854/612/6 853/611/6 855/613/6
f 855/613/6 856/614/6 854/612/6
f 856/614/6 855/613/6 857/615/6
f 857/615/6 858/616/6 856/614/6
f 858/616/6 857/615/6 859/617/6
f 859/617/6 860/618/6 858/616/6
f 860/618/6 859/617/6 810/568/6
f 810/568/6 809/567/6 860/618/6
f 861/619/164 862/620/39 863/621/39
f 861/619/164 863/621/39 864/622/164
f 865/623/6 866/624/6 867/625/6
f 866/624/6 868/626/6 867/625/6
f 869/627/6 870/628/6 871/629/6
f 870/628/6 872/630/6 871/629/6
f 873/631/6 874/632/6 875/633/6
f 873/631/6 875/633/6 876/634/6
f 877/635/221 878/636/222 879/637/223
f 879/637/223 878/636/222 880/638/224
f 879/637/223 880/638/224 881/639/225
f 881/639/225 880/638/224 882/640/226
f 881/639/225 882/640/226 883/641/227
f 883/641/227 882/640/226 884/642/228
f 885/643/6 886/644/6 887/645/6
f 886/644/6 885/643/6 888/646/6
f 886/644/6 888/646/6 889/647/6
f 886/644/6 889/647/6 890/648/6
f 889/647/6 891/649/6 890/648/6
f 891/649/6 889/647/6 892/650/6
f 892/650/6 893/651/6 891/649/6
f 891/649/6 893/651/6 894/652/6
f 893/651/6 895/653/6 894/652/6
f 894/652/6 895/653/6 896/654/6
f 895/653/6 897/655/6 896/654/6
f 896/654/6 897/655/6 898/656/6
f 899/657/6 898/656/6 897/655/6
f 898/656/6 899/657/6 900/658/6
f 898/656/6 900/658/6 901/659/6
f 900/658/6 902/660/6 901/659/6
f 899/657/6 903/661/229 900/658/6
f 903/661/229 899/657/6 904/662/217
f 903/661/229 904/662/217 905/663/217
f 902/660/6 900/658/6 906/664/6
f 906/664/6 907/665/6 902/660/6
f 907/665/6 906/664/6 908/666/217
f 907/665/6 908/666/217 909/667/6
f 907/665/6 909/667/6 910/668/6
f 909/667/6 911/669/229 910/668/6
f 910/668/6 911/669/229 912/670/6
f 913/641/230 914/671/231 915/672/232
f 914/671/231 916/673/233 915/672/232
f 915/672/232 916/673/233 917/674/233
f 916/673/233 918/675/234 917/674/233
f 918/675/234 916/673/233 919/676/235
f 920/672/236 921/674/237 922/677/238
f 922/677/238 921/674/237 923/678/239
f 924/675/240 923/678/239 921/674/237
f 923/678/239 924/675/240 925/679/240
f 926/635/241 927/637/242 928/680/243
f 926/635/241 928/680/243 929/681/244
f 928/680/243 927/637/242 930/682/245
f 930/682/245 927/637/242 931/683/246
f 931/683/246 927/637/242 932/639/247
f 931/683/246 932/639/247 933/684/248
f 934/685/229 935/686/249 936/687/250
f 935/686/249 934/685/229 937/688/6
f 938/689/6 937/688/6 934/685/229
f 937/688/6 938/689/6 939/690/6
f 940/631/6 941/632/6 942/633/6
f 940/631/6 942/633/6 943/634/6
f 944/691/6 945/692/6 946/693/6
f 945/692/6 944/691/6 947/694/6
f 948/545/6 949/546/6 950/543/6
f 950/543/6 949/546/6 951/544/6
f 950/543/6 951/544/6 952/547/6
f 952/547/6 953/549/6 950/543/6
f 952/547/6 954/695/229 953/549/6
f 953/549/6 954/695/229 955/696/6
f 956/697/6 953/549/6 955/696/6
f 952/547/6 957/698/229 954/695/229
f 957/698/229 952/547/6 958/557/6
f 957/698/229 958/557/6 959/560/6
f 959/560/6 960/565/6 957/698/229
f 960/565/6 959/560/6 961/566/6
f 958/557/6 962/558/6 959/560/6
f 958/557/6 963/559/6 962/558/6
