# Blender 5.1.2
# www.blender.org
mtllib TripWire.mtl
o TripWire
v -0.000451 -0.722840 -0.500165
v 0.105609 -0.722840 -0.606265
v 0.082749 -0.722840 -0.624964
v 0.046979 -0.722840 -0.642464
v -0.000451 -0.722840 -0.650164
v -0.047891 -0.722840 -0.642464
v -0.083661 -0.722840 -0.624964
v -0.106521 -0.722840 -0.606265
v -0.106521 -0.722840 -0.606265
v -0.125261 -0.722840 -0.583365
v -0.142761 -0.722840 -0.547663
v -0.150451 -0.722840 -0.500165
v -0.142761 -0.722840 -0.452765
v -0.125261 -0.722840 -0.416964
v -0.106521 -0.722840 -0.394164
v -0.106521 -0.722840 -0.394164
v -0.083661 -0.722840 -0.375365
v -0.047891 -0.722840 -0.357865
v -0.000451 -0.722840 -0.350165
v 0.046979 -0.722840 -0.357865
v 0.082749 -0.722840 -0.375365
v 0.105609 -0.722840 -0.394164
v 0.105609 -0.722840 -0.394164
v 0.124349 -0.722840 -0.416964
v 0.141849 -0.722840 -0.452765
v 0.149549 -0.722840 -0.500165
v 0.141849 -0.722840 -0.547663
v 0.124349 -0.722840 -0.583365
v 0.105609 -0.722840 -0.606265
v 0.105609 -0.672840 -0.394164
v 0.105609 -0.722840 -0.394164
v 0.124349 -0.672840 -0.416964
v 0.124349 -0.722840 -0.416964
v 0.141849 -0.672840 -0.452765
v 0.141849 -0.722840 -0.452765
v 0.149549 -0.672840 -0.500165
v 0.149549 -0.722840 -0.500165
v 0.141849 -0.672840 -0.547663
v 0.141849 -0.722840 -0.547663
v 0.124349 -0.672840 -0.583365
v 0.124349 -0.722840 -0.583365
v 0.105609 -0.672840 -0.606265
v 0.105609 -0.722840 -0.606265
v 0.105609 -0.722840 -0.394164
v 0.105609 -0.672840 -0.394164
v 0.082749 -0.722840 -0.375365
v 0.082749 -0.672840 -0.375365
v 0.046979 -0.722840 -0.357865
v 0.046979 -0.672840 -0.357865
v -0.000451 -0.722840 -0.350165
v -0.000451 -0.672840 -0.350165
v -0.047891 -0.722840 -0.357865
v -0.047891 -0.672840 -0.357865
v -0.083661 -0.722840 -0.375365
v -0.083661 -0.672840 -0.375365
v -0.106521 -0.722840 -0.394164
v -0.106521 -0.672840 -0.394164
v -0.000451 -0.672840 -0.500165
v 0.105609 -0.672840 -0.394164
v 0.082749 -0.672840 -0.375365
v 0.046979 -0.672840 -0.357865
v -0.000451 -0.672840 -0.350165
v -0.047891 -0.672840 -0.357865
v -0.083661 -0.672840 -0.375365
v -0.106521 -0.672840 -0.394164
v -0.106521 -0.672840 -0.394164
v -0.125261 -0.672840 -0.416964
v -0.142761 -0.672840 -0.452765
v -0.150451 -0.672840 -0.500165
v -0.142761 -0.672840 -0.547663
v -0.125261 -0.672840 -0.583365
v -0.106521 -0.672840 -0.606265
v -0.106521 -0.672840 -0.606265
v -0.083661 -0.672840 -0.624964
v -0.047891 -0.672840 -0.642464
v -0.000451 -0.672840 -0.650164
v 0.046979 -0.672840 -0.642464
v 0.082749 -0.672840 -0.624964
v 0.105609 -0.672840 -0.606265
v 0.105609 -0.672840 -0.606265
v 0.124349 -0.672840 -0.583365
v 0.141849 -0.672840 -0.547663
v 0.149549 -0.672840 -0.500165
v 0.141849 -0.672840 -0.452765
v 0.124349 -0.672840 -0.416964
v 0.105609 -0.672840 -0.394164
v -0.106521 -0.672840 -0.606265
v -0.106521 -0.722840 -0.606265
v -0.125261 -0.672840 -0.583365
v -0.125261 -0.722840 -0.583365
v -0.142761 -0.672840 -0.547663
v -0.142761 -0.722840 -0.547663
v -0.150451 -0.672840 -0.500165
v -0.150451 -0.722840 -0.500165
v -0.142761 -0.672840 -0.452765
v -0.142761 -0.722840 -0.452765
v -0.125261 -0.672840 -0.416964
v -0.125261 -0.722840 -0.416964
v -0.106521 -0.672840 -0.394164
v -0.106521 -0.722840 -0.394164
v 0.105609 -0.672840 -0.606265
v 0.105609 -0.722840 -0.606265
v 0.082749 -0.672840 -0.624964
v 0.082749 -0.722840 -0.624964
v 0.046979 -0.672840 -0.642464
v 0.046979 -0.722840 -0.642464
v -0.000451 -0.672840 -0.650164
v -0.000451 -0.722840 -0.650164
v -0.047891 -0.672840 -0.642464
v -0.047891 -0.722840 -0.642464
v -0.083661 -0.672840 -0.624964
v -0.083661 -0.722840 -0.624964
v -0.106521 -0.672840 -0.606265
v -0.106521 -0.722840 -0.606265
v 0.013979 3.245540 -0.514665
v 0.015539 3.401170 -0.510866
v 0.016749 3.522780 -0.505966
v 0.017219 3.569930 -0.500166
v 0.016749 3.522780 -0.494465
v 0.015539 3.401170 -0.489565
v 0.013979 3.245540 -0.485765
v 0.015539 2.868170 -0.516165
v 0.017739 3.014840 -0.512365
v 0.019589 3.138470 -0.506864
v 0.020349 3.188910 -0.500166
v 0.019589 3.138470 -0.493465
v 0.017739 3.014840 -0.488066
v 0.015539 2.868170 -0.484165
v 0.016749 2.375700 -0.517366
v 0.019589 2.470320 -0.513565
v 0.022159 2.555940 -0.507765
v 0.023259 2.592730 -0.500166
v 0.022159 2.555940 -0.492666
v 0.019589 2.470320 -0.486866
v 0.016749 2.375700 -0.482965
v 0.017219 1.802160 -0.517865
v 0.020349 1.802160 -0.514064
v 0.023259 1.802160 -0.508065
v 0.024549 1.802160 -0.500165
v 0.023259 1.802160 -0.492265
v 0.020349 1.802160 -0.486366
v 0.017219 1.802160 -0.482565
v 0.016749 1.228620 -0.517365
v 0.019589 1.134010 -0.513564
v 0.022159 1.048380 -0.507764
v 0.023259 1.011590 -0.500165
v 0.022159 1.048380 -0.492665
v 0.019589 1.134010 -0.486865
v 0.016749 1.228620 -0.482964
v 0.015539 0.736160 -0.516163
v 0.017739 0.589480 -0.512364
v 0.019589 0.465860 -0.506863
v 0.020349 0.415410 -0.500165
v 0.019589 0.465860 -0.493464
v 0.017739 0.589480 -0.488064
v 0.015539 0.736160 -0.484164
v 0.013979 0.358790 -0.514664
v 0.015539 0.203160 -0.510865
v 0.016749 0.081540 -0.505965
v 0.017219 0.034400 -0.500165
v 0.016749 0.081540 -0.494464
v 0.015539 0.203160 -0.489564
v 0.013979 0.358790 -0.485764
v -0.014891 3.245540 -0.485765
v -0.011111 3.401170 -0.484165
v -0.006191 3.522780 -0.482965
v -0.000451 3.569930 -0.482565
v 0.005279 3.522780 -0.482965
v 0.010209 3.401170 -0.484165
v 0.013979 3.245540 -0.485765
v -0.016441 3.401170 -0.489565
v -0.012581 3.621180 -0.488066
v -0.007141 3.806620 -0.486866
v -0.000451 3.882290 -0.486366
v 0.006229 3.806620 -0.486866
v 0.011669 3.621180 -0.488066
v 0.015539 3.401170 -0.489565
v -0.017661 3.522780 -0.494465
v -0.013821 3.806620 -0.493465
v -0.007991 4.063499 -0.492666
v -0.000451 4.173870 -0.492266
v 0.007079 4.063499 -0.492666
v 0.012909 3.806620 -0.493465
v 0.016749 3.522780 -0.494465
v -0.018131 3.569930 -0.500166
v -0.014321 3.882290 -0.500166
v -0.008361 4.173870 -0.500166
v -0.000451 4.302160 -0.500166
v 0.007449 4.173870 -0.500166
v 0.013409 3.882290 -0.500166
v 0.017219 3.569930 -0.500166
v -0.017661 3.522780 -0.505966
v -0.013821 3.806620 -0.506864
v -0.007991 4.063499 -0.507765
v -0.000451 4.173870 -0.508066
v 0.007079 4.063499 -0.507765
v 0.012909 3.806620 -0.506864
v 0.016749 3.522780 -0.505966
v -0.016441 3.401170 -0.510866
v -0.012581 3.621180 -0.512365
v -0.007141 3.806620 -0.513565
v -0.000451 3.882290 -0.514065
v 0.006229 3.806620 -0.513565
v 0.011669 3.621180 -0.512365
v 0.015539 3.401170 -0.510866
v -0.014891 3.245540 -0.514665
v -0.011111 3.401170 -0.516165
v -0.006191 3.522780 -0.517366
v -0.000451 3.569930 -0.517866
v 0.005279 3.522780 -0.517366
v 0.010209 3.401170 -0.516165
v 0.013979 3.245540 -0.514665
v 0.013979 3.245540 -0.485765
v 0.010209 3.401170 -0.484165
v 0.005279 3.522780 -0.482965
v -0.000451 3.569930 -0.482565
v -0.006191 3.522780 -0.482965
v -0.011111 3.401170 -0.484165
v -0.014891 3.245540 -0.485765
v 0.015539 2.868170 -0.484165
v 0.011669 3.014840 -0.481966
v 0.006229 3.138470 -0.480165
v -0.000451 3.188910 -0.479366
v -0.007141 3.138470 -0.480165
v -0.012581 3.014840 -0.481966
v -0.016441 2.868170 -0.484165
v 0.016749 2.375700 -0.482965
v 0.012909 2.470320 -0.480165
v 0.007079 2.555940 -0.477566
v -0.000451 2.592730 -0.476465
v -0.007991 2.555940 -0.477566
v -0.013821 2.470320 -0.480165
v -0.017661 2.375700 -0.482965
v 0.017219 1.802160 -0.482565
v 0.013409 1.802160 -0.479366
v 0.007449 1.802160 -0.476465
v -0.000451 1.802160 -0.475166
v -0.008361 1.802160 -0.476465
v -0.014321 1.802160 -0.479366
v -0.018131 1.802160 -0.482565
v 0.016749 1.228620 -0.482964
v 0.012909 1.134010 -0.480164
v 0.007079 1.048380 -0.477564
v -0.000451 1.011590 -0.476464
v -0.007991 1.048380 -0.477564
v -0.013821 1.134010 -0.480164
v -0.017661 1.228620 -0.482964
v 0.015539 0.736160 -0.484164
v 0.011669 0.589480 -0.481965
v 0.006229 0.465860 -0.480164
v -0.000451 0.415410 -0.479365
v -0.007141 0.465860 -0.480164
v -0.012581 0.589480 -0.481965
v -0.016441 0.736160 -0.484164
v 0.013979 0.358790 -0.485764
v 0.010209 0.203160 -0.484164
v 0.005279 0.081540 -0.482964
v -0.000451 0.034400 -0.482564
v -0.006191 0.081540 -0.482964
v -0.011111 0.203160 -0.484164
v -0.014891 0.358790 -0.485764
v -0.014891 3.245540 -0.485765
v -0.016441 3.401170 -0.489565
v -0.017661 3.522780 -0.494465
v -0.018131 3.569930 -0.500166
v -0.017661 3.522780 -0.505966
v -0.016441 3.401170 -0.510866
v -0.014891 3.245540 -0.514665
v -0.016441 2.868170 -0.484165
v -0.018641 3.014840 -0.488066
v -0.020501 3.138470 -0.493465
v -0.021261 3.188910 -0.500166
v -0.020501 3.138470 -0.506864
v -0.018641 3.014840 -0.512365
v -0.016441 2.868170 -0.516165
v -0.017661 2.375700 -0.482965
v -0.020501 2.470320 -0.486866
v -0.023071 2.555940 -0.492666
v -0.024171 2.592730 -0.500166
v -0.023071 2.555940 -0.507765
v -0.020501 2.470320 -0.513565
v -0.017661 2.375700 -0.517366
v -0.018131 1.802160 -0.482565
v -0.021261 1.802160 -0.486366
v -0.024171 1.802160 -0.492265
v -0.025451 1.802160 -0.500165
v -0.024171 1.802160 -0.508065
v -0.021261 1.802160 -0.514064
v -0.018131 1.802160 -0.517865
v -0.017661 1.228620 -0.482964
v -0.020501 1.134010 -0.486865
v -0.023071 1.048380 -0.492665
v -0.024171 1.011590 -0.500165
v -0.023071 1.048380 -0.507764
v -0.020501 1.134010 -0.513564
v -0.017661 1.228620 -0.517365
v -0.016441 0.736160 -0.484164
v -0.018641 0.589480 -0.488064
v -0.020501 0.465860 -0.493464
v -0.021261 0.415410 -0.500165
v -0.020501 0.465860 -0.506863
v -0.018641 0.589480 -0.512364
v -0.016441 0.736160 -0.516163
v -0.014891 0.358790 -0.485764
v -0.016441 0.203160 -0.489564
v -0.017661 0.081540 -0.494464
v -0.018131 0.034400 -0.500165
v -0.017661 0.081540 -0.505965
v -0.016441 0.203160 -0.510865
v -0.014891 0.358790 -0.514664
v -0.014891 0.358790 -0.514664
v -0.011111 0.203160 -0.516163
v -0.006191 0.081540 -0.517365
v -0.000451 0.034400 -0.517865
v 0.005279 0.081540 -0.517365
v 0.010209 0.203160 -0.516163
v 0.013979 0.358790 -0.514664
v -0.016441 0.203160 -0.510865
v -0.012581 -0.016850 -0.512364
v -0.007141 -0.202300 -0.513564
v -0.000451 -0.277960 -0.514063
v 0.006229 -0.202300 -0.513564
v 0.011669 -0.016850 -0.512364
v 0.015539 0.203160 -0.510865
v -0.017661 0.081540 -0.505965
v -0.013821 -0.202300 -0.506863
v -0.007991 -0.459170 -0.507763
v -0.000451 -0.569550 -0.508065
v 0.007079 -0.459170 -0.507763
v 0.012909 -0.202300 -0.506863
v 0.016749 0.081550 -0.505965
v -0.018131 0.034400 -0.500165
v -0.014321 -0.277960 -0.500165
v -0.008361 -0.569550 -0.500165
v -0.000451 -0.697840 -0.500165
v 0.007449 -0.569550 -0.500165
v 0.013409 -0.277960 -0.500165
v 0.017219 0.034400 -0.500165
v -0.017661 0.081540 -0.494464
v -0.013821 -0.202300 -0.493464
v -0.007991 -0.459170 -0.492665
v -0.000451 -0.569550 -0.492264
v 0.007079 -0.459170 -0.492665
v 0.012909 -0.202300 -0.493464
v 0.016749 0.081550 -0.494464
v -0.016441 0.203160 -0.489564
v -0.012581 -0.016850 -0.488064
v -0.007141 -0.202300 -0.486865
v -0.000451 -0.277960 -0.486365
v 0.006229 -0.202300 -0.486865
v 0.011669 -0.016850 -0.488064
v 0.015539 0.203160 -0.489564
v -0.014891 0.358790 -0.485764
v -0.011111 0.203160 -0.484164
v -0.006191 0.081540 -0.482964
v -0.000451 0.034400 -0.482564
v 0.005279 0.081550 -0.482964
v 0.010209 0.203160 -0.484164
v 0.013979 0.358790 -0.485764
v -0.014891 3.245540 -0.514665
v -0.011111 3.401170 -0.516165
v -0.006191 3.522780 -0.517366
v -0.000451 3.569930 -0.517866
v 0.005279 3.522780 -0.517366
v 0.010209 3.401170 -0.516165
v 0.013979 3.245540 -0.514665
v -0.016441 2.868170 -0.516165
v -0.012581 3.014840 -0.518366
v -0.007141 3.138470 -0.520265
v -0.000451 3.188910 -0.520965
v 0.006229 3.138470 -0.520265
v 0.011669 3.014840 -0.518366
v 0.015539 2.868170 -0.516165
v -0.017661 2.375700 -0.517366
v -0.013821 2.470320 -0.520265
v -0.007991 2.555940 -0.522766
v -0.000451 2.592730 -0.523865
v 0.007079 2.555940 -0.522766
v 0.012909 2.470320 -0.520265
v 0.016749 2.375700 -0.517366
v -0.018131 1.802160 -0.517865
v -0.014321 1.802160 -0.520965
v -0.008361 1.802160 -0.523863
v -0.000451 1.802160 -0.525164
v 0.007449 1.802160 -0.523863
v 0.013409 1.802160 -0.520965
v 0.017219 1.802160 -0.517865
v -0.017661 1.228620 -0.517365
v -0.013821 1.134010 -0.520264
v -0.007991 1.048380 -0.522765
v -0.000451 1.011590 -0.523863
v 0.007079 1.048380 -0.522765
v 0.012909 1.134010 -0.520264
v 0.016749 1.228620 -0.517365
v -0.016441 0.736160 -0.516163
v -0.012581 0.589480 -0.518365
v -0.007141 0.465860 -0.520264
v -0.000451 0.415410 -0.520964
v 0.006229 0.465860 -0.520264
v 0.011669 0.589480 -0.518365
v 0.015539 0.736160 -0.516163
v -0.014891 0.358790 -0.514664
v -0.011111 0.203160 -0.516163
v -0.006191 0.081540 -0.517365
v -0.000451 0.034400 -0.517865
v 0.005279 0.081540 -0.517365
v 0.010209 0.203160 -0.516163
v 0.013979 0.358790 -0.514664
v 0.299549 -0.747840 -0.740164
v 0.239549 -0.897840 -0.800164
v 0.239549 -0.747840 -0.800164
v 0.299549 -0.897840 -0.740164
v 0.269549 -0.697840 -0.710164
v 0.209549 -0.747840 -0.770165
v 0.209549 -0.697840 -0.770165
v 0.269549 -0.747840 -0.710164
v 0.299549 -0.747840 -0.260165
v 0.299549 -0.897840 -0.740164
v 0.299549 -0.747840 -0.740164
v 0.299549 -0.897840 -0.260165
v 0.269549 -0.697840 -0.290164
v 0.269549 -0.747840 -0.710164
v 0.269549 -0.697840 -0.710164
v 0.269549 -0.747840 -0.290164
v -0.210451 -0.697840 -0.230164
v 0.209549 -0.697840 -0.230164
v 0.209549 -0.697840 -0.770165
v 0.269549 -0.697840 -0.290164
v 0.269549 -0.697840 -0.710164
v -0.270451 -0.697840 -0.290164
v -0.210451 -0.697840 -0.770165
v -0.270451 -0.697840 -0.710164
v -0.240451 -0.747840 -0.200163
v 0.239549 -0.747840 -0.200163
v 0.239549 -0.747840 -0.800164
v 0.299549 -0.747840 -0.260165
v 0.299549 -0.747840 -0.740164
v -0.300451 -0.747840 -0.260165
v -0.240451 -0.747840 -0.800164
v -0.300451 -0.747840 -0.740164
v -0.240451 -0.747840 -0.200163
v -0.300451 -0.747840 -0.260165
v -0.240451 -0.897840 -0.200163
v -0.300451 -0.897840 -0.260165
v 0.299549 -0.747840 -0.260165
v 0.239549 -0.747840 -0.200163
v 0.299549 -0.897840 -0.260165
v 0.239549 -0.897840 -0.200163
v -0.270451 -0.747840 -0.290164
v -0.210451 -0.747840 -0.230164
v -0.270451 -0.697840 -0.290164
v -0.210451 -0.697840 -0.230164
v 0.209549 -0.747840 -0.230164
v 0.269549 -0.747840 -0.290164
v 0.209549 -0.697840 -0.230164
v 0.269549 -0.697840 -0.290164
v -0.240451 -0.747840 -0.200163
v 0.239549 -0.897840 -0.200163
v 0.239549 -0.747840 -0.200163
v -0.240451 -0.897840 -0.200163
v -0.210451 -0.697840 -0.230164
v 0.209549 -0.747840 -0.230164
v 0.209549 -0.697840 -0.230164
v -0.210451 -0.747840 -0.230164
v -0.300451 -0.747840 -0.740164
v -0.240451 -0.747840 -0.800164
v -0.300451 -0.897840 -0.740164
v -0.240451 -0.897840 -0.800164
v -0.210451 -0.747840 -0.770165
v -0.270451 -0.747840 -0.710164
v -0.210451 -0.697840 -0.770165
v -0.270451 -0.697840 -0.710164
v -0.300451 -0.747840 -0.740164
v -0.300451 -0.897840 -0.260165
v -0.300451 -0.747840 -0.260165
v -0.300451 -0.897840 -0.740164
v -0.270451 -0.697840 -0.710164
v -0.270451 -0.747840 -0.290164
v -0.270451 -0.697840 -0.290164
v -0.270451 -0.747840 -0.710164
v -0.240451 -0.897840 -0.800164
v 0.239549 -0.897840 -0.800164
v 0.299549 -0.897840 -0.260165
v 0.299549 -0.897840 -0.740164
v 0.239549 -0.897840 -0.200163
v -0.240451 -0.897840 -0.200163
v -0.300451 -0.897840 -0.260165
v -0.300451 -0.897840 -0.740164
v 0.239549 -0.747840 -0.800164
v -0.240451 -0.897840 -0.800164
v -0.240451 -0.747840 -0.800164
v 0.239549 -0.897840 -0.800164
v 0.209549 -0.697840 -0.770165
v -0.210451 -0.747840 -0.770165
v -0.210451 -0.697840 -0.770165
v 0.209549 -0.747840 -0.770165
v 0.211679 -0.722840 0.287635
v 0.211679 -0.872840 0.287635
v 0.259349 -0.722840 0.349836
v 0.259349 -0.872840 0.349836
v 0.289319 -0.722840 0.422136
v 0.289319 -0.872840 0.422136
v 0.299549 -0.722840 0.499835
v 0.299549 -0.872840 0.499835
v 0.289319 -0.722840 0.577436
v 0.289319 -0.872840 0.577436
v 0.259349 -0.722840 0.649835
v 0.259349 -0.872840 0.649835
v 0.211679 -0.722840 0.711936
v 0.211679 -0.872840 0.711936
v -0.204321 -0.722840 0.617536
v -0.158761 -0.754490 0.658136
v -0.194341 -0.754490 0.611736
v -0.166911 -0.722840 0.666236
v -0.216711 -0.754490 0.557737
v -0.194341 -0.754490 0.611736
v -0.227841 -0.722840 0.560735
v -0.204321 -0.722840 0.617536
v -0.224341 -0.754490 0.499835
v -0.216711 -0.754490 0.557737
v -0.235861 -0.722840 0.499835
v -0.227841 -0.722840 0.560735
v -0.216711 -0.754490 0.441837
v -0.224341 -0.754490 0.499835
v -0.235861 -0.722840 0.499835
v -0.227841 -0.722840 0.438837
v -0.194341 -0.754490 0.387836
v -0.216711 -0.754490 0.441837
v -0.227841 -0.722840 0.438837
v -0.204321 -0.722840 0.382137
v -0.158761 -0.754490 0.341535
v -0.194341 -0.754490 0.387836
v -0.204321 -0.722840 0.382137
v -0.166911 -0.722840 0.333335
v -0.150451 -0.722840 0.240036
v -0.166911 -0.722840 0.333335
v -0.118161 -0.722840 0.295936
v -0.212591 -0.722840 0.287635
v -0.204321 -0.722840 0.382137
v -0.212591 -0.722840 0.287635
v -0.260261 -0.722840 0.349836
v -0.166911 -0.722840 0.333335
v -0.000451 -0.722840 0.199836
v -0.061381 -0.722840 0.272436
v -0.000451 -0.722840 0.264436
v -0.078101 -0.722840 0.210037
v -0.061381 -0.722840 0.272436
v -0.150451 -0.722840 0.240036
v -0.118161 -0.722840 0.295936
v -0.078101 -0.722840 0.210037
v -0.290231 -0.722840 0.422136
v -0.235861 -0.722840 0.499835
v -0.227841 -0.722840 0.438837
v -0.300451 -0.722840 0.499835
v -0.235861 -0.722840 0.499835
v -0.300451 -0.722840 0.499835
v -0.290231 -0.722840 0.577436
v -0.227841 -0.722840 0.560735
v -0.260261 -0.722840 0.649835
v -0.204321 -0.722840 0.617536
v -0.290231 -0.722840 0.577436
v -0.227841 -0.722840 0.560735
v -0.290231 -0.722840 0.422136
v -0.204321 -0.722840 0.382137
v -0.260261 -0.722840 0.349836
v -0.227841 -0.722840 0.438837
v -0.118161 -0.722840 0.703636
v -0.212591 -0.722840 0.711936
v -0.150451 -0.722840 0.759635
v -0.166911 -0.722840 0.666236
v -0.061381 -0.722840 0.727235
v -0.150451 -0.722840 0.759635
v -0.078101 -0.722840 0.789535
v -0.118161 -0.722840 0.703636
v -0.000451 -0.722840 0.735237
v -0.078101 -0.722840 0.789535
v -0.000451 -0.722840 0.799837
v -0.078101 -0.722840 0.789535
v -0.000451 -0.722840 0.735237
v -0.061381 -0.722840 0.727235
v -0.166911 -0.722840 0.666236
v -0.260261 -0.722840 0.649835
v -0.212591 -0.722840 0.711936
v -0.204321 -0.722840 0.617536
v -0.000451 -0.722840 0.799837
v 0.060469 -0.722840 0.727235
v -0.000451 -0.722840 0.735237
v 0.077189 -0.722840 0.789535
v 0.077189 -0.722840 0.789535
v 0.117249 -0.722840 0.703636
v 0.060469 -0.722840 0.727235
v 0.149549 -0.722840 0.759635
v 0.117249 -0.722840 0.703636
v 0.149549 -0.722840 0.759635
v 0.165999 -0.722840 0.666236
v 0.211679 -0.722840 0.711936
v 0.259349 -0.722840 0.649835
v 0.203409 -0.722840 0.617536
v 0.211679 -0.722840 0.711936
v 0.165999 -0.722840 0.666236
v 0.226929 -0.722840 0.438837
v 0.259349 -0.722840 0.349836
v 0.203409 -0.722840 0.382137
v 0.289319 -0.722840 0.422136
v 0.259349 -0.722840 0.649835
v 0.289319 -0.722840 0.577436
v 0.203409 -0.722840 0.617536
v 0.226929 -0.722840 0.560735
v 0.226929 -0.722840 0.560735
v 0.299549 -0.722840 0.499835
v 0.234949 -0.722840 0.499835
v 0.299549 -0.722840 0.499835
v 0.226929 -0.722840 0.560735
v 0.289319 -0.722840 0.577436
v 0.234949 -0.722840 0.499835
v 0.289319 -0.722840 0.422136
v 0.226929 -0.722840 0.438837
v 0.299549 -0.722840 0.499835
v 0.149549 -0.722840 0.240036
v 0.060469 -0.722840 0.272436
v 0.117249 -0.722840 0.295936
v 0.077189 -0.722840 0.210037
v 0.077189 -0.722840 0.210037
v -0.000451 -0.722840 0.199836
v 0.060469 -0.722840 0.272436
v -0.000451 -0.722840 0.264436
v 0.203409 -0.722840 0.382137
v 0.211679 -0.722840 0.287635
v 0.165999 -0.722840 0.333335
v 0.259349 -0.722840 0.349836
v 0.165999 -0.722840 0.333335
v 0.211679 -0.722840 0.287635
v 0.117249 -0.722840 0.295936
v 0.149549 -0.722840 0.240036
v 0.069809 -0.820260 0.480936
v 0.133199 -0.805710 0.464036
v 0.062539 -0.820260 0.463436
v -0.000451 -0.825270 0.499835
v 0.119379 -0.805710 0.430637
v 0.183499 -0.783050 0.450536
v 0.164479 -0.783050 0.404537
v 0.215799 -0.754490 0.441837
v 0.193439 -0.754490 0.387836
v 0.183499 -0.783050 0.450536
v 0.137909 -0.805710 0.499835
v 0.189989 -0.783050 0.499835
v 0.223429 -0.754490 0.499835
v 0.133199 -0.805710 0.464036
v 0.215799 -0.754490 0.441837
v 0.069809 -0.820260 0.480936
v 0.072289 -0.820260 0.499835
v -0.000451 -0.825270 0.499835
v 0.223429 -0.754490 0.499835
v 0.183499 -0.783050 0.549137
v 0.215799 -0.754490 0.557737
v 0.189989 -0.783050 0.499835
v 0.137909 -0.805710 0.499835
v 0.133199 -0.805710 0.535636
v 0.069809 -0.820260 0.518636
v 0.072289 -0.820260 0.499835
v -0.000451 -0.825270 0.499835
v -0.000451 -0.825270 0.499835
v 0.062539 -0.820260 0.536136
v 0.069809 -0.820260 0.518636
v 0.133199 -0.805710 0.535636
v 0.119379 -0.805710 0.569036
v 0.183499 -0.783050 0.549137
v 0.164479 -0.783050 0.595035
v 0.215799 -0.754490 0.557737
v 0.193439 -0.754490 0.611736
v 0.157859 -0.754490 0.658136
v 0.193439 -0.754490 0.611736
v 0.164479 -0.783050 0.595035
v 0.134209 -0.783050 0.634435
v 0.097389 -0.805710 0.597637
v 0.119379 -0.805710 0.569036
v 0.050979 -0.820260 0.551237
v 0.062539 -0.820260 0.536136
v -0.000451 -0.825270 0.499835
v 0.035919 -0.820260 0.562835
v 0.097389 -0.805710 0.597637
v 0.050979 -0.820260 0.551237
v -0.000451 -0.825270 0.499835
v 0.068729 -0.805710 0.619636
v 0.094769 -0.783050 0.664735
v 0.134209 -0.783050 0.634435
v 0.111489 -0.754490 0.693737
v 0.157859 -0.754490 0.658136
v 0.035359 -0.805710 0.633436
v 0.094769 -0.783050 0.664735
v 0.068729 -0.805710 0.619636
v 0.035919 -0.820260 0.562835
v 0.018369 -0.820260 0.570035
v -0.000451 -0.825270 0.499835
v 0.048839 -0.783050 0.683736
v 0.057489 -0.754490 0.716035
v 0.111489 -0.754490 0.693737
v -0.049751 -0.783050 0.683736
v -0.000451 -0.754490 0.723735
v -0.000451 -0.783050 0.690237
v -0.058401 -0.754490 0.716035
v -0.036271 -0.805710 0.633436
v -0.000451 -0.805710 0.638135
v -0.019281 -0.820260 0.570035
v -0.000451 -0.820260 0.572536
v -0.000451 -0.825270 0.499835
v -0.049751 -0.783050 0.683736
v -0.095681 -0.783050 0.664735
v -0.112401 -0.754490 0.693737
v -0.069641 -0.805710 0.619636
v -0.058401 -0.754490 0.716035
v -0.036271 -0.805710 0.633436
v -0.036831 -0.820260 0.562835
v -0.019281 -0.820260 0.570035
v -0.000451 -0.825270 0.499835
v -0.000451 -0.825270 0.499835
v -0.051891 -0.820260 0.551237
v -0.036831 -0.820260 0.562835
v -0.098301 -0.805710 0.597637
v -0.069641 -0.805710 0.619636
v -0.095681 -0.783050 0.664735
v -0.135121 -0.783050 0.634435
v -0.112401 -0.754490 0.693737
v -0.158761 -0.754490 0.658136
v -0.158761 -0.754490 0.658136
v -0.194341 -0.754490 0.611736
v -0.165391 -0.783050 0.595035
v -0.135121 -0.783050 0.634435
v -0.098301 -0.805710 0.597637
v -0.120291 -0.805710 0.569036
v -0.051891 -0.820260 0.551237
v -0.063451 -0.820260 0.536136
v -0.000451 -0.825270 0.499835
v -0.120291 -0.805710 0.569036
v -0.070721 -0.820260 0.518636
v -0.134111 -0.805710 0.535636
v -0.063451 -0.820260 0.536136
v -0.000451 -0.825270 0.499835
v -0.165391 -0.783050 0.595035
v -0.184411 -0.783050 0.549137
v -0.216711 -0.754490 0.557737
v -0.194341 -0.754490 0.611736
v -0.069641 -0.805710 0.379936
v -0.036831 -0.820260 0.436836
v -0.036271 -0.805710 0.366136
v -0.019281 -0.820260 0.429536
v -0.000451 -0.825270 0.499835
v -0.049751 -0.783050 0.315835
v -0.095681 -0.783050 0.334836
v -0.112401 -0.754490 0.305936
v -0.058401 -0.754490 0.283536
v -0.000451 -0.783050 0.309335
v -0.049751 -0.783050 0.315835
v -0.036271 -0.805710 0.366136
v -0.058401 -0.754490 0.283536
v -0.000451 -0.805710 0.361436
v -0.000451 -0.754490 0.275936
v -0.019281 -0.820260 0.429536
v -0.000451 -0.820260 0.427036
v -0.000451 -0.825270 0.499835
v -0.000451 -0.783050 0.309335
v 0.035359 -0.805710 0.366136
v 0.048839 -0.783050 0.315835
v 0.057489 -0.754490 0.283536
v -0.000451 -0.805710 0.361436
v -0.000451 -0.754490 0.275936
v 0.018369 -0.820260 0.429536
v -0.000451 -0.820260 0.427036
v -0.000451 -0.825270 0.499835
v -0.000451 -0.825270 0.499835
v 0.035919 -0.820260 0.436836
v 0.018369 -0.820260 0.429536
v 0.035359 -0.805710 0.366136
v 0.068729 -0.805710 0.379936
v 0.048839 -0.783050 0.315835
v 0.094769 -0.783050 0.334836
v 0.057489 -0.754490 0.283536
v 0.111489 -0.754490 0.305936
v 0.157859 -0.754490 0.341535
v 0.111489 -0.754490 0.305936
v 0.134209 -0.783050 0.365137
v 0.094769 -0.783050 0.334836
v 0.068729 -0.805710 0.379936
v 0.097389 -0.805710 0.401935
v 0.035919 -0.820260 0.436836
v 0.050979 -0.820260 0.448335
v -0.000451 -0.825270 0.499835
v 0.062539 -0.820260 0.463436
v 0.097389 -0.805710 0.401935
v 0.050979 -0.820260 0.448335
v -0.000451 -0.825270 0.499835
v 0.119379 -0.805710 0.430637
v 0.134209 -0.783050 0.365137
v 0.164479 -0.783050 0.404537
v 0.157859 -0.754490 0.341535
v 0.193439 -0.754490 0.387836
v -0.000451 -0.783050 0.690237
v 0.035359 -0.805710 0.633436
v -0.000451 -0.805710 0.638135
v 0.048839 -0.783050 0.683736
v 0.018369 -0.820260 0.570035
v -0.000451 -0.820260 0.572536
v -0.000451 -0.825270 0.499835
v -0.000451 -0.754490 0.723735
v 0.057489 -0.754490 0.716035
v -0.190901 -0.783050 0.499835
v -0.134111 -0.805710 0.535636
v -0.138821 -0.805710 0.499835
v -0.073201 -0.820260 0.499835
v -0.070721 -0.820260 0.518636
v -0.000451 -0.825270 0.499835
v -0.184411 -0.783050 0.549137
v -0.224341 -0.754490 0.499835
v -0.216711 -0.754490 0.557737
v -0.184411 -0.783050 0.450536
v -0.138821 -0.805710 0.499835
v -0.134111 -0.805710 0.464036
v -0.190901 -0.783050 0.499835
v -0.073201 -0.820260 0.499835
v -0.070721 -0.820260 0.480936
v -0.000451 -0.825270 0.499835
v -0.216711 -0.754490 0.441837
v -0.224341 -0.754490 0.499835
v -0.194341 -0.754490 0.387836
v -0.184411 -0.783050 0.450536
v -0.165391 -0.783050 0.404537
v -0.120291 -0.805710 0.430637
v -0.216711 -0.754490 0.441837
v -0.134111 -0.805710 0.464036
v -0.063451 -0.820260 0.463436
v -0.070721 -0.820260 0.480936
v -0.000451 -0.825270 0.499835
v -0.000451 -0.825270 0.499835
v -0.051891 -0.820260 0.448335
v -0.063451 -0.820260 0.463436
v -0.098301 -0.805710 0.401935
v -0.120291 -0.805710 0.430637
v -0.165391 -0.783050 0.404537
v -0.135121 -0.783050 0.365137
v -0.158761 -0.754490 0.341535
v -0.194341 -0.754490 0.387836
v -0.036831 -0.820260 0.436836
v -0.098301 -0.805710 0.401935
v -0.051891 -0.820260 0.448335
v -0.000451 -0.825270 0.499835
v -0.069641 -0.805710 0.379936
v -0.135121 -0.783050 0.365137
v -0.095681 -0.783050 0.334836
v -0.112401 -0.754490 0.305936
v -0.158761 -0.754490 0.341535
v -0.078101 -0.872840 0.789535
v -0.000451 -0.872840 0.799837
v -0.078101 -0.722840 0.789535
v -0.000451 -0.722840 0.799837
v -0.150451 -0.722840 0.759635
v -0.150451 -0.872840 0.759635
v -0.212591 -0.722840 0.711936
v -0.212591 -0.872840 0.711936
v 0.211679 -0.722840 0.711936
v 0.211679 -0.872840 0.711936
v 0.149549 -0.722840 0.759635
v 0.149549 -0.872840 0.759635
v 0.077189 -0.722840 0.789535
v 0.077189 -0.872840 0.789535
v -0.000451 -0.722840 0.799837
v -0.000451 -0.872840 0.799837
v -0.112401 -0.754490 0.305936
v -0.058401 -0.754490 0.283536
v -0.061381 -0.722840 0.272436
v -0.118161 -0.722840 0.295936
v -0.058401 -0.754490 0.283536
v -0.000451 -0.754490 0.275936
v -0.000451 -0.722840 0.264436
v -0.061381 -0.722840 0.272436
v 0.057489 -0.754490 0.283536
v -0.000451 -0.754490 0.275936
v -0.000451 -0.722840 0.264436
v 0.060469 -0.722840 0.272436
v 0.057489 -0.754490 0.283536
v 0.111489 -0.754490 0.305936
v 0.060469 -0.722840 0.272436
v 0.117249 -0.722840 0.295936
v 0.157859 -0.754490 0.341535
v 0.117249 -0.722840 0.295936
v 0.111489 -0.754490 0.305936
v 0.165999 -0.722840 0.333335
v -0.112401 -0.754490 0.305936
v -0.158761 -0.754490 0.341535
v -0.118161 -0.722840 0.295936
v -0.166911 -0.722840 0.333335
v -0.212591 -0.722840 0.711936
v -0.212591 -0.872840 0.711936
v -0.260261 -0.722840 0.649835
v -0.260261 -0.872840 0.649835
v -0.290231 -0.722840 0.577436
v -0.290231 -0.872840 0.577436
v -0.300451 -0.722840 0.499835
v -0.300451 -0.872840 0.499835
v -0.290231 -0.722840 0.422136
v -0.290231 -0.872840 0.422136
v -0.260261 -0.722840 0.349836
v -0.260261 -0.872840 0.349836
v -0.212591 -0.722840 0.287635
v -0.212591 -0.872840 0.287635
v 0.215799 -0.754490 0.441837
v 0.193439 -0.754490 0.387836
v 0.226929 -0.722840 0.438837
v 0.203409 -0.722840 0.382137
v 0.223429 -0.754490 0.499835
v 0.215799 -0.754490 0.441837
v 0.234949 -0.722840 0.499835
v 0.226929 -0.722840 0.438837
v 0.223429 -0.754490 0.499835
v 0.215799 -0.754490 0.557737
v 0.234949 -0.722840 0.499835
v 0.226929 -0.722840 0.560735
v 0.215799 -0.754490 0.557737
v 0.193439 -0.754490 0.611736
v 0.226929 -0.722840 0.560735
v 0.203409 -0.722840 0.617536
v 0.203409 -0.722840 0.617536
v 0.157859 -0.754490 0.658136
v 0.165999 -0.722840 0.666236
v 0.193439 -0.754490 0.611736
v 0.157859 -0.754490 0.341535
v 0.193439 -0.754490 0.387836
v 0.203409 -0.722840 0.382137
v 0.165999 -0.722840 0.333335
v 0.211679 -0.872840 0.287635
v -0.260261 -0.872840 0.649835
v -0.150451 -0.872840 0.240036
v 0.077189 -0.872840 0.210037
v 0.149549 -0.872840 0.240036
v -0.000451 -0.872840 0.199836
v -0.078101 -0.872840 0.210037
v 0.211679 -0.872840 0.711936
v 0.259349 -0.872840 0.349836
v -0.300451 -0.872840 0.499835
v -0.290231 -0.872840 0.577436
v -0.290231 -0.872840 0.422136
v -0.212591 -0.872840 0.287635
v -0.260261 -0.872840 0.349836
v 0.299549 -0.872840 0.499835
v 0.289319 -0.872840 0.422136
v 0.259349 -0.872840 0.649835
v 0.289319 -0.872840 0.577436
v -0.150451 -0.872840 0.759635
v -0.212591 -0.872840 0.711936
v -0.000451 -0.872840 0.799837
v -0.078101 -0.872840 0.789535
v 0.149549 -0.872840 0.759635
v 0.077189 -0.872840 0.789535
v -0.212591 -0.722840 0.287635
v -0.212591 -0.872840 0.287635
v -0.150451 -0.722840 0.240036
v -0.150451 -0.872840 0.240036
v -0.078101 -0.722840 0.210037
v -0.078101 -0.872840 0.210037
v -0.000451 -0.722840 0.199836
v -0.000451 -0.872840 0.199836
v 0.077189 -0.722840 0.210037
v 0.077189 -0.872840 0.210037
v 0.149549 -0.722840 0.240036
v 0.149549 -0.872840 0.240036
v 0.211679 -0.722840 0.287635
v 0.211679 -0.872840 0.287635
v 0.111489 -0.754490 0.693737
v 0.157859 -0.754490 0.658136
v 0.117249 -0.722840 0.703636
v 0.165999 -0.722840 0.666236
v 0.057489 -0.754490 0.716035
v 0.111489 -0.754490 0.693737
v 0.060469 -0.722840 0.727235
v 0.117249 -0.722840 0.703636
v -0.000451 -0.754490 0.723735
v -0.058401 -0.754490 0.716035
v -0.000451 -0.722840 0.735237
v -0.061381 -0.722840 0.727235
v -0.112401 -0.754490 0.693737
v -0.058401 -0.754490 0.716035
v -0.061381 -0.722840 0.727235
v -0.118161 -0.722840 0.703636
v -0.112401 -0.754490 0.693737
v -0.158761 -0.754490 0.658136
v -0.118161 -0.722840 0.703636
v -0.166911 -0.722840 0.666236
v -0.000451 -0.754490 0.723735
v 0.057489 -0.754490 0.716035
v -0.000451 -0.722840 0.735237
v 0.060469 -0.722840 0.727235
vn -0.0000 -1.0000 -0.0000
vn 0.7071 -0.0000 0.7071
vn 0.8345 -0.0000 0.5510
vn 0.8345 -0.0000 0.5511
vn 0.9487 -0.0000 0.3162
vn 1.0000 -0.0000 0.0002
vn 0.9487 -0.0000 -0.3162
vn 0.8345 -0.0000 -0.5511
vn 0.7071 -0.0000 -0.7071
vn 0.5510 -0.0000 0.8345
vn 0.5511 -0.0000 0.8345
vn 0.3162 -0.0000 0.9487
vn -0.0000 -0.0000 1.0000
vn -0.3162 -0.0000 0.9487
vn -0.5511 -0.0000 0.8345
vn -0.5510 -0.0000 0.8345
vn -0.7071 -0.0000 0.7071
vn -0.0000 1.0000 -0.0000
vn -0.7071 -0.0000 -0.7071
vn -0.8345 -0.0000 -0.5511
vn -0.9487 -0.0000 -0.3162
vn -1.0000 -0.0000 0.0002
vn -0.9487 -0.0000 0.3162
vn -0.8345 -0.0000 0.5511
vn -0.8345 -0.0000 0.5510
vn 0.5510 -0.0000 -0.8345
vn 0.3162 -0.0000 -0.9487
vn -0.0000 -0.0000 -1.0000
vn -0.3162 -0.0000 -0.9487
vn -0.5511 -0.0000 -0.8344
vn -0.5511 -0.0000 -0.8345
vn 0.7071 0.0079 -0.7071
vn 0.8345 0.0079 -0.5510
vn 0.7071 0.0079 -0.7070
vn 0.9487 0.0079 -0.3162
vn 1.0000 0.0080 -0.0000
vn 1.0000 0.0079 -0.0001
vn 0.9487 0.0079 0.3162
vn 0.8345 0.0079 0.5509
vn 0.8344 0.0079 0.5511
vn 0.7071 0.0079 0.7071
vn 0.7072 0.0079 0.7070
vn 0.8345 -0.0000 -0.5510
vn 1.0000 -0.0000 -0.0000
vn 0.8345 0.0001 -0.5510
vn 0.9487 0.0001 -0.3162
vn 0.7072 -0.0079 -0.7070
vn 0.8345 -0.0079 -0.5510
vn 0.9487 -0.0079 -0.3162
vn 1.0000 -0.0079 0.0001
vn 0.9487 -0.0079 0.3162
vn 0.8344 -0.0079 0.5510
vn 0.7071 -0.0079 0.7071
vn 0.7071 -0.0078 -0.7070
vn 1.0000 -0.0080 -0.0000
vn 0.9487 -0.0079 0.3161
vn 0.8345 -0.0079 0.5510
vn -0.7071 0.0079 0.7071
vn -0.5511 0.0079 0.8344
vn -0.8344 0.0079 0.5512
vn -0.3162 0.0079 0.9486
vn -0.4472 0.0157 0.8943
vn -0.0000 0.0079 1.0000
vn -0.0000 0.0157 0.9999
vn 0.3164 0.0079 0.9486
vn 0.4472 0.0157 0.8943
vn 0.5511 0.0079 0.8344
vn -0.9486 0.0079 0.3164
vn -0.8943 0.0157 0.4472
vn -0.7069 0.0234 0.7069
vn -0.0000 0.0315 0.9995
vn 0.7069 0.0232 0.7070
vn 0.8943 0.0157 0.4472
vn 0.9486 0.0079 0.3163
vn -1.0000 0.0079 -0.0000
vn -0.9999 0.0158 -0.0000
vn -0.9995 0.0315 -0.0000
vn -0.0000 1.0000 -0.0001
vn 0.9995 0.0315 -0.0000
vn 0.9999 0.0157 -0.0000
vn 1.0000 0.0079 -0.0000
vn -0.9486 0.0079 -0.3162
vn -0.8943 0.0157 -0.4472
vn -0.7069 0.0236 -0.7069
vn -0.0000 0.0315 -0.9995
vn 0.7068 0.0235 -0.7070
vn 0.8943 0.0157 -0.4471
vn 0.9486 0.0079 -0.3162
vn -0.8344 0.0079 -0.5511
vn -0.7071 0.0079 -0.7071
vn -0.4471 0.0157 -0.8943
vn -0.0000 0.0157 -0.9999
vn 0.4471 0.0157 -0.8943
vn 0.8344 0.0079 -0.5511
vn -0.5511 0.0079 -0.8344
vn -0.3164 0.0079 -0.9486
vn -0.0000 0.0079 -1.0000
vn 0.3163 0.0079 -0.9486
vn 0.5511 0.0079 -0.8344
vn 0.7070 0.0079 0.7072
vn 0.5509 0.0079 0.8345
vn 0.7070 0.0078 0.7071
vn 0.5510 0.0079 0.8345
vn 0.3162 0.0079 0.9487
vn -0.0000 0.0081 1.0000
vn -0.3161 0.0079 0.9487
vn -0.3162 0.0079 0.9487
vn -0.5510 0.0079 0.8345
vn -0.7070 0.0079 0.7071
vn 0.3162 0.0001 0.9487
vn 0.0001 -0.0000 1.0000
vn 0.5510 -0.0079 0.8345
vn 0.3162 -0.0079 0.9487
vn -0.0001 -0.0079 1.0000
vn -0.3162 -0.0079 0.9487
vn -0.5510 -0.0079 0.8345
vn -0.7071 -0.0078 0.7071
vn -0.0000 -0.0081 1.0000
vn -0.3161 -0.0079 0.9487
vn -0.5509 -0.0079 0.8345
vn -0.7070 -0.0079 0.7071
vn -0.8345 0.0079 0.5510
vn -0.7071 0.0078 0.7070
vn -0.9487 0.0079 0.3161
vn -0.9487 0.0079 0.3162
vn -1.0000 0.0080 -0.0000
vn -1.0000 0.0079 0.0001
vn -0.9487 0.0079 -0.3162
vn -0.8345 0.0079 -0.5509
vn -0.8345 0.0079 -0.5510
vn -1.0000 -0.0000 -0.0000
vn -0.8345 -0.0000 -0.5510
vn -0.8345 0.0001 0.5511
vn -0.9487 0.0001 0.3162
vn -0.8345 -0.0079 0.5510
vn -0.9487 -0.0079 0.3162
vn -1.0000 -0.0079 -0.0001
vn -0.9487 -0.0079 -0.3162
vn -0.8344 -0.0079 -0.5510
vn -0.7071 -0.0078 -0.7071
vn -0.7072 -0.0079 0.7070
vn -0.8345 -0.0079 0.5509
vn -1.0000 -0.0080 -0.0000
vn -0.8345 -0.0079 -0.5510
vn -0.7071 -0.0079 -0.7071
vn -0.5511 -0.0079 -0.8344
vn -0.8344 -0.0079 -0.5511
vn -0.3163 -0.0079 -0.9486
vn -0.4471 -0.0157 -0.8943
vn -0.0000 -0.0079 -1.0000
vn -0.0000 -0.0157 -0.9999
vn 0.3163 -0.0079 -0.9486
vn 0.4472 -0.0157 -0.8943
vn 0.5511 -0.0079 -0.8344
vn 0.7071 -0.0079 -0.7071
vn 0.8344 -0.0079 -0.5511
vn -0.9486 -0.0079 -0.3164
vn -0.8943 -0.0157 -0.4472
vn -0.7069 -0.0235 -0.7069
vn -0.0000 -0.0315 -0.9995
vn 0.7069 -0.0236 -0.7069
vn 0.8943 -0.0157 -0.4472
vn 0.9486 -0.0079 -0.3163
vn -1.0000 -0.0079 -0.0000
vn -0.9999 -0.0157 -0.0000
vn -0.9995 -0.0315 -0.0000
vn -0.0001 -1.0000 0.0001
vn 0.9995 -0.0315 -0.0000
vn 0.9999 -0.0157 -0.0000
vn 1.0000 -0.0079 -0.0000
vn -0.9486 -0.0079 0.3164
vn -0.8943 -0.0157 0.4471
vn -0.7069 -0.0234 0.7070
vn -0.0000 -0.0315 0.9995
vn 0.7069 -0.0235 0.7069
vn 0.8943 -0.0157 0.4472
vn 0.9486 -0.0079 0.3163
vn -0.8344 -0.0079 0.5511
vn -0.7071 -0.0079 0.7071
vn -0.4472 -0.0157 0.8943
vn -0.0000 -0.0157 0.9999
vn 0.4471 -0.0157 0.8943
vn 0.8344 -0.0079 0.5511
vn -0.5511 -0.0079 0.8344
vn -0.3163 -0.0079 0.9486
vn -0.0000 -0.0079 1.0000
vn 0.3163 -0.0079 0.9486
vn 0.5512 -0.0079 0.8344
vn -0.5510 0.0079 -0.8345
vn -0.5510 0.0079 -0.8344
vn -0.3162 0.0079 -0.9487
vn -0.0000 0.0080 -1.0000
vn -0.0001 0.0079 -1.0000
vn 0.3161 0.0079 -0.9487
vn 0.3162 0.0079 -0.9487
vn 0.5509 0.0079 -0.8345
vn 0.5510 0.0079 -0.8345
vn 0.7071 0.0078 -0.7071
vn -0.5510 -0.0000 -0.8345
vn -0.5511 0.0001 -0.8345
vn -0.3162 0.0001 -0.9487
vn 0.0001 -0.0000 -1.0000
vn -0.5510 -0.0079 -0.8345
vn -0.3162 -0.0079 -0.9487
vn 0.0002 -0.0079 -1.0000
vn 0.3162 -0.0079 -0.9487
vn 0.5510 -0.0079 -0.8344
vn 0.7070 -0.0078 -0.7072
vn -0.7070 -0.0079 -0.7072
vn -0.0000 -0.0080 -1.0000
vn 0.3161 -0.0079 -0.9487
vn 0.5509 -0.0079 -0.8345
vn 0.8643 -0.0000 -0.5029
vn 0.8644 -0.0000 -0.5029
vn 0.9659 -0.0000 -0.2589
vn 0.9659 -0.0000 -0.2590
vn 1.0000 -0.0000 0.0001
vn 0.9659 -0.0000 0.2588
vn 0.9658 -0.0000 0.2593
vn 0.8644 -0.0000 0.5029
vn 0.8128 0.3393 -0.4735
vn 0.5928 0.5452 -0.5927
vn 0.7266 0.5449 -0.4186
vn 0.6649 0.3404 -0.6648
vn 0.9081 0.3396 -0.2449
vn 0.8104 0.5428 -0.2203
vn 0.8129 0.3393 -0.4734
vn 0.9405 0.3398 -0.0000
vn 0.8105 0.5428 -0.2203
vn 0.8381 0.5455 -0.0000
vn 0.9082 0.3396 -0.2448
vn 0.8104 0.5429 0.2203
vn 0.9082 0.3396 0.2448
vn 0.7266 0.5449 0.4185
vn 0.9081 0.3396 0.2449
vn 0.8129 0.3393 0.4734
vn 0.5928 0.5453 0.5927
vn 0.8128 0.3393 0.4735
vn 0.7266 0.5449 0.4186
vn 0.6649 0.3404 0.6649
vn -0.1413 0.9892 0.0393
vn -0.3081 0.9481 0.0790
vn -0.1257 0.9895 0.0707
vn -0.2765 0.9479 0.1580
vn -0.5254 0.8391 0.1412
vn -0.4713 0.8405 0.2671
vn -0.8104 0.5430 0.2203
vn -0.7265 0.5450 0.4185
vn -0.5254 0.8391 0.1411
vn -0.3162 0.9487 -0.0000
vn -0.5419 0.8404 -0.0000
vn -0.8380 0.5456 -0.0000
vn -0.8104 0.5429 0.2203
vn -0.1413 0.9892 0.0392
vn -0.1491 0.9888 -0.0000
vn -0.8381 0.5456 -0.0000
vn -0.5254 0.8391 -0.1411
vn -0.8104 0.5429 -0.2203
vn -0.3081 0.9481 -0.0790
vn -0.1413 0.9892 -0.0392
vn -0.1257 0.9895 -0.0707
vn -0.1413 0.9892 -0.0393
vn -0.2765 0.9479 -0.1580
vn -0.5254 0.8391 -0.1412
vn -0.4713 0.8405 -0.2671
vn -0.7265 0.5451 -0.4185
vn -0.5927 0.5454 -0.5927
vn -0.7264 0.5450 -0.4186
vn -0.3844 0.8394 -0.3843
vn -0.2287 0.9463 -0.2287
vn -0.1021 0.9895 -0.1021
vn -0.0707 0.9895 -0.1257
vn -0.1580 0.9479 -0.2765
vn -0.2671 0.8405 -0.4713
vn -0.3843 0.8394 -0.3844
vn -0.4185 0.5450 -0.7265
vn -0.0790 0.9481 -0.3081
vn -0.0392 0.9892 -0.1413
vn -0.1412 0.8391 -0.5254
vn -0.2203 0.5429 -0.8104
vn -0.4185 0.5449 -0.7266
vn 0.1411 0.8391 -0.5254
vn -0.0000 0.5456 -0.8381
vn -0.0000 0.8404 -0.5419
vn 0.2203 0.5429 -0.8104
vn 0.0790 0.9481 -0.3081
vn -0.0000 0.9487 -0.3162
vn 0.0392 0.9892 -0.1413
vn -0.0000 0.9888 -0.1491
vn 0.1412 0.8391 -0.5254
vn 0.2671 0.8405 -0.4713
vn 0.4185 0.5450 -0.7265
vn 0.1580 0.9479 -0.2765
vn 0.0707 0.9895 -0.1257
vn 0.1021 0.9895 -0.1021
vn 0.0707 0.9896 -0.1256
vn 0.2287 0.9463 -0.2287
vn 0.3844 0.8394 -0.3844
vn 0.4186 0.5450 -0.7264
vn 0.5927 0.5453 -0.5927
vn 0.4713 0.8405 -0.2671
vn 0.7265 0.5450 -0.4185
vn 0.2765 0.9479 -0.1580
vn 0.1257 0.9895 -0.0707
vn 0.1413 0.9892 -0.0393
vn 0.3081 0.9481 -0.0790
vn 0.5254 0.8391 -0.1412
vn 0.8104 0.5429 -0.2203
vn 0.7266 0.5450 -0.4185
vn 0.1580 0.9479 0.2765
vn 0.0707 0.9895 0.1257
vn 0.0790 0.9481 0.3081
vn 0.0393 0.9892 0.1413
vn 0.1412 0.8391 0.5254
vn 0.2671 0.8405 0.4713
vn 0.4185 0.5449 0.7266
vn 0.2203 0.5429 0.8104
vn -0.0000 0.8404 0.5419
vn 0.1411 0.8391 0.5254
vn -0.0000 0.9487 0.3162
vn -0.0000 0.5456 0.8380
vn -0.0000 0.9888 0.1491
vn -0.0790 0.9481 0.3081
vn -0.1411 0.8391 0.5254
vn -0.2203 0.5429 0.8104
vn -0.0000 0.5456 0.8381
vn -0.0392 0.9892 0.1413
vn -0.0707 0.9895 0.1257
vn -0.0393 0.9892 0.1413
vn -0.1580 0.9479 0.2765
vn -0.1412 0.8391 0.5254
vn -0.2671 0.8405 0.4713
vn -0.4185 0.5450 0.7265
vn -0.4186 0.5450 0.7265
vn -0.3844 0.8394 0.3844
vn -0.5927 0.5454 0.5927
vn -0.2287 0.9463 0.2287
vn -0.0707 0.9896 0.1256
vn -0.1021 0.9895 0.1021
vn -0.3844 0.8394 0.3843
vn -0.5927 0.5453 0.5927
vn -0.7265 0.5450 0.4186
vn -0.1411 0.8391 -0.5254
vn -0.0393 0.9892 -0.1413
vn -0.0000 0.5456 -0.8380
vn 0.5419 0.8404 -0.0000
vn 0.3162 0.9487 -0.0000
vn 0.1491 0.9888 -0.0000
vn 0.1413 0.9892 -0.0392
vn 0.5254 0.8391 -0.1411
vn 0.8380 0.5456 -0.0000
vn 0.5254 0.8391 0.1411
vn 0.3081 0.9481 0.0790
vn 0.1413 0.9892 0.0393
vn 0.7265 0.5450 0.4185
vn 0.5254 0.8391 0.1412
vn 0.4713 0.8405 0.2671
vn 0.2765 0.9479 0.1580
vn 0.1257 0.9895 0.0707
vn 0.1021 0.9895 0.1021
vn 0.2287 0.9463 0.2287
vn 0.3844 0.8394 0.3844
vn 0.5927 0.5454 0.5927
vn 0.7265 0.5450 0.4186
vn 0.0707 0.9896 0.1256
vn 0.4185 0.5451 0.7265
vn 0.5927 0.5453 0.5927
vn -0.2589 -0.0000 0.9659
vn -0.5029 -0.0000 0.8644
vn 0.5029 -0.0000 0.8644
vn 0.2592 -0.0000 0.9658
vn 0.2589 -0.0000 0.9659
vn 0.4186 0.5448 0.7266
vn 0.2448 0.3396 0.9082
vn 0.4734 0.3393 0.8129
vn 0.2203 0.5428 0.8105
vn -0.0000 0.5455 0.8381
vn -0.0000 0.3398 0.9405
vn -0.2203 0.5428 0.8105
vn -0.2448 0.3396 0.9082
vn -0.4185 0.5449 0.7266
vn -0.4734 0.3393 0.8129
vn -0.5927 0.5453 0.5928
vn -0.4735 0.3393 0.8128
vn -0.4186 0.5448 0.7266
vn -0.6649 0.3404 0.6649
vn 0.4739 0.3377 0.8133
vn 0.5927 0.5453 0.5928
vn -0.8644 -0.0000 0.5029
vn -0.9659 -0.0000 0.2587
vn -1.0000 -0.0000 0.0001
vn -0.9659 -0.0000 -0.2589
vn -0.8644 -0.0000 -0.5029
vn -0.8643 -0.0000 -0.5029
vn -0.7266 0.5448 0.4186
vn -0.8104 0.5428 0.2203
vn -0.9081 0.3396 0.2449
vn -0.8128 0.3393 0.4735
vn -0.8381 0.5455 -0.0000
vn -0.9405 0.3398 -0.0000
vn -0.9082 0.3396 0.2448
vn -0.9082 0.3396 -0.2448
vn -0.7266 0.5449 -0.4186
vn -0.9081 0.3396 -0.2450
vn -0.8128 0.3393 -0.4735
vn -0.5928 0.5452 -0.5927
vn -0.6649 0.3404 -0.6648
vn -0.7266 0.5448 -0.4186
vn -0.5928 0.5453 0.5927
vn -0.5029 -0.0000 -0.8643
vn -0.5029 -0.0000 -0.8644
vn -0.2589 -0.0000 -0.9659
vn 0.2588 -0.0000 -0.9659
vn 0.5029 -0.0000 -0.8643
vn -0.5927 0.5453 -0.5927
vn -0.4186 0.5448 -0.7266
vn -0.4735 0.3393 -0.8128
vn -0.6649 0.3404 -0.6649
vn -0.2448 0.3396 -0.9082
vn -0.2203 0.5428 -0.8104
vn 0.2203 0.5428 -0.8105
vn -0.0000 0.3398 -0.9405
vn -0.0000 0.5455 -0.8381
vn 0.2447 0.3387 -0.9085
vn 0.4186 0.5448 -0.7266
vn 0.2448 0.3396 -0.9082
vn 0.2203 0.5428 -0.8104
vn 0.4735 0.3393 -0.8128
vn 0.5927 0.5453 -0.5928
vn 0.6649 0.3404 -0.6649
vn -0.2203 0.5428 -0.8105
vt 0.174129 0.768179
vt 0.257334 0.643371
vt 0.280195 0.662113
vt 0.221563 0.625876
vt 0.174129 0.618179
vt 0.126695 0.625876
vt 0.090924 0.643371
vt 0.068063 0.662113
vt 0.049322 0.684974
vt 0.031827 0.720744
vt 0.024129 0.768179
vt 0.031827 0.815613
vt 0.049322 0.851384
vt 0.068063 0.874245
vt 0.090924 0.892986
vt 0.126695 0.910481
vt 0.174129 0.918179
vt 0.221564 0.910481
vt 0.257334 0.892986
vt 0.280195 0.874245
vt 0.298937 0.851384
vt 0.316432 0.815613
vt 0.324129 0.768179
vt 0.316432 0.720744
vt 0.298937 0.684974
vt 0.098259 0.836357
vt 0.048259 0.836357
vt 0.098259 0.786357
vt 0.048259 0.786357
vt 0.098259 0.736357
vt 0.048259 0.736357
vt 0.098259 0.686357
vt 0.048259 0.686357
vt 0.098259 0.636357
vt 0.048259 0.636357
vt 0.098259 0.586357
vt 0.048259 0.586357
vt 0.098259 0.536357
vt 0.048259 0.536357
vt -1.473150 1.229670
vt -1.481480 1.229670
vt -1.473150 0.396335
vt -1.481480 0.396335
vt -1.489820 1.229670
vt -1.489820 0.396335
vt -1.498150 1.229670
vt -1.498150 0.396335
vt -1.506480 1.229670
vt -1.506480 0.396335
vt -1.514820 1.229670
vt -1.514820 0.396335
vt -1.523150 1.229670
vt -1.523150 0.396335
vt -1.473150 -0.436998
vt -1.481480 -0.436998
vt -1.489820 -0.436998
vt -1.498150 -0.436998
vt -1.506480 -0.436998
vt -1.514820 -0.436998
vt -1.523150 -0.436998
vt -1.473150 -1.270330
vt -1.481480 -1.270330
vt -1.489820 -1.270330
vt -1.498150 -1.270330
vt -1.506480 -1.270330
vt -1.514820 -1.270330
vt -1.523150 -1.270330
vt -1.473150 -2.103670
vt -1.481480 -2.103670
vt -1.489820 -2.103670
vt -1.498150 -2.103670
vt -1.506480 -2.103670
vt -1.514820 -2.103670
vt -1.523150 -2.103670
vt -1.473150 -2.937000
vt -1.481480 -2.937000
vt -1.489820 -2.937000
vt -1.498150 -2.937000
vt -1.506480 -2.937000
vt -1.514820 -2.937000
vt -1.523150 -2.937000
vt -1.473150 -3.770330
vt -1.481480 -3.770330
vt -1.489820 -3.770330
vt -1.498150 -3.770330
vt -1.506480 -3.770330
vt -1.514820 -3.770330
vt -1.523150 -3.770330
vt -1.473150 1.221340
vt -1.481480 1.221340
vt -1.489820 1.221340
vt -1.498150 1.221340
vt -1.506480 1.221340
vt -1.514820 1.221340
vt -1.523150 1.221340
vt -1.473150 1.213000
vt -1.481480 1.213000
vt -1.489820 1.213000
vt -1.498150 1.213000
vt -1.506480 1.213000
vt -1.514820 1.213000
vt -1.523150 1.213000
vt -1.473150 1.204670
vt -1.481480 1.204670
vt -1.489820 1.204670
vt -1.498150 1.204670
vt -1.506480 1.204670
vt -1.514820 1.204670
vt -1.523150 1.204670
vt -1.473150 1.196330
vt -1.481480 1.196330
vt -1.489820 1.196330
vt -1.498150 1.196330
vt -1.506480 1.196330
vt -1.514820 1.196330
vt -1.523150 1.196330
vt -1.473150 1.188000
vt -1.481480 1.188000
vt -1.489820 1.188000
vt -1.498150 1.188000
vt -1.506480 1.188000
vt -1.514820 1.188000
vt -1.523150 1.188000
vt -1.473150 1.179670
vt -1.481480 1.179670
vt -1.489820 1.179670
vt -1.498150 1.179670
vt -1.506480 1.179670
vt -1.514820 1.179670
vt -1.523150 1.179670
vt 0.363971 1.310850
vt 0.441971 1.115850
vt 0.441971 1.310850
vt 0.363971 1.115850
vt 0.324971 1.375850
vt 0.402971 1.310850
vt 0.402971 1.375850
vt 0.324971 1.310850
vt -0.260029 1.310850
vt -0.260029 1.115850
vt -0.221029 1.375850
vt -0.221029 1.310850
vt 0.324971 1.596850
vt -0.221029 1.596850
vt -0.221029 0.894850
vt -0.299029 1.518850
vt -0.299029 0.972850
vt 0.402971 1.518850
vt 0.324971 0.894850
vt 0.402971 0.972850
vt 0.363971 1.635850
vt -0.260029 1.635850
vt -0.260029 0.855850
vt -0.338029 1.557850
vt -0.338029 0.933850
vt 0.441971 1.557850
vt 0.363971 0.855850
vt 0.441971 0.933850
vt -0.338029 1.310850
vt -0.338029 1.115850
vt -0.299029 1.310850
vt -0.299029 1.375850
vt -0.100767 1.461360
vt -0.019996 1.266360
vt -0.019996 1.461360
vt -0.100767 1.266360
vt -0.194828 1.461360
vt -0.194828 1.266360
vt -0.295767 1.461360
vt -0.295767 1.266360
vt -0.396707 1.461360
vt -0.396707 1.266360
vt -0.490767 1.461360
vt -0.490767 1.266360
vt -0.571539 1.461360
vt -0.571539 1.266360
vt -0.448781 1.461360
vt -0.501570 1.420210
vt -0.441292 1.420210
vt -0.512162 1.461360
vt -0.374973 1.461360
vt -0.371097 1.420210
vt -0.295767 1.420210
vt -0.220438 1.420210
vt -0.216562 1.461360
vt -0.150242 1.420210
vt -0.142753 1.461360
vt -0.089964 1.420210
vt -0.079373 1.461360
vt -0.100767 1.026110
vt -0.079373 1.147470
vt -0.142754 1.098830
vt -0.019996 1.088090
vt -0.030739 1.210850
vt 0.041983 1.168860
vt -0.295767 0.973861
vt -0.216562 1.068260
vt -0.295767 1.057830
vt -0.194828 0.987150
vt 0.080944 1.262920
vt 0.010261 1.363860
vt -0.000167 1.284660
vt 0.094232 1.363860
vt 0.080944 1.464800
vt -0.000167 1.443070
vt 0.041982 1.558860
vt -0.030739 1.516880
vt -0.142753 1.628890
vt -0.019996 1.639630
vt -0.100767 1.701610
vt -0.079373 1.580260
vt -0.216562 1.659460
vt -0.194828 1.740570
vt -0.295767 1.669890
vt -0.295767 1.753860
vt -0.374973 1.659460
vt -0.396707 1.740570
vt -0.448781 1.628890
vt -0.490768 1.701610
vt -0.512162 1.580260
vt -0.571539 1.639630
vt -0.633518 1.558860
vt -0.560795 1.516880
vt -0.591367 1.284660
vt -0.633517 1.168860
vt -0.560795 1.210850
vt -0.672479 1.262920
vt -0.672479 1.464800
vt -0.591367 1.443070
vt -0.685767 1.363860
vt -0.601795 1.363860
vt -0.490767 1.026110
vt -0.374973 1.068260
vt -0.448781 1.098830
vt -0.396707 0.987150
vt -0.571539 1.088090
vt -0.512162 1.147470
vt -0.387113 1.339390
vt -0.469517 1.317310
vt -0.377665 1.316580
vt -0.295767 1.363860
vt -0.451547 1.273920
vt -0.534913 1.299780
vt -0.510180 1.240070
vt -0.576900 1.288530
vt -0.547824 1.218340
vt -0.475646 1.363860
vt -0.543349 1.363860
vt -0.586817 1.363860
vt -0.390335 1.363860
vt -0.534913 1.427940
vt -0.576900 1.439190
vt -0.469517 1.410420
vt -0.387113 1.388340
vt -0.377665 1.411140
vt -0.451547 1.453800
vt -0.510180 1.487650
vt -0.547824 1.509390
vt -0.501571 1.569660
vt -0.470834 1.538930
vt -0.422961 1.491050
vt -0.362637 1.430730
vt -0.343051 1.445760
vt -0.385707 1.519640
vt -0.419558 1.578270
vt -0.441292 1.615920
vt -0.342323 1.537610
vt -0.320243 1.455210
vt -0.359846 1.603010
vt -0.371097 1.644990
vt -0.231688 1.603010
vt -0.295767 1.654910
vt -0.295767 1.611440
vt -0.220438 1.644990
vt -0.249212 1.537610
vt -0.295767 1.543740
vt -0.271291 1.455210
vt -0.295767 1.458430
vt -0.171976 1.578270
vt -0.150242 1.615920
vt -0.205828 1.519640
vt -0.248483 1.445760
vt -0.228898 1.430730
vt -0.168574 1.491050
vt -0.120701 1.538930
vt -0.089964 1.569660
vt -0.081355 1.487650
vt -0.043711 1.509390
vt -0.139988 1.453800
vt -0.213869 1.411140
vt -0.204422 1.388340
vt -0.122018 1.410420
vt -0.056622 1.427940
vt -0.014635 1.439190
vt -0.205828 1.208080
vt -0.248483 1.281960
vt -0.249212 1.190110
vt -0.271291 1.272520
vt -0.231688 1.124720
vt -0.171976 1.149450
vt -0.150242 1.111800
vt -0.220438 1.082730
vt -0.295767 1.116280
vt -0.295767 1.183980
vt -0.295767 1.072810
vt -0.295767 1.269290
vt -0.342323 1.190110
vt -0.359846 1.124720
vt -0.371097 1.082730
vt -0.320243 1.272520
vt -0.343051 1.281960
vt -0.385707 1.208080
vt -0.419558 1.149450
vt -0.441292 1.111800
vt -0.470834 1.188790
vt -0.501571 1.158060
vt -0.422961 1.236670
vt -0.362637 1.296990
vt -0.048186 1.363860
vt -0.115889 1.363860
vt -0.201199 1.363860
vt -0.004717 1.363860
vt -0.056622 1.299780
vt -0.122018 1.317310
vt -0.204422 1.339390
vt -0.014635 1.288530
vt -0.043711 1.218340
vt -0.081355 1.240070
vt -0.139988 1.273920
vt -0.213869 1.316580
vt -0.228898 1.296990
vt -0.168574 1.236670
vt -0.120701 1.188790
vt -0.089964 1.158060
vt -0.142754 1.461360
vt -0.501571 1.420210
vt -0.448782 1.461360
vt -0.220439 1.420210
vt -0.150243 1.420210
vt -0.633517 1.558860
vt 0.041982 1.168860
vt -0.633518 1.168860
vt 0.041983 1.558860
vt -0.490767 1.701610
s 1
usemtl Part1Mtl.005
f 1/1/1 3/2/1 2/3/1
f 1/1/1 4/4/1 3/2/1
f 1/1/1 5/5/1 4/4/1
f 1/1/1 6/6/1 5/5/1
f 1/1/1 7/7/1 6/6/1
f 1/1/1 8/8/1 7/7/1
f 1/1/1 10/9/1 9/8/1
f 1/1/1 11/10/1 10/9/1
f 1/1/1 12/11/1 11/10/1
f 1/1/1 13/12/1 12/11/1
f 1/1/1 14/13/1 13/12/1
f 1/1/1 15/14/1 14/13/1
f 1/1/1 17/15/1 16/14/1
f 1/1/1 18/16/1 17/15/1
f 1/1/1 19/17/1 18/16/1
f 1/1/1 20/18/1 19/17/1
f 1/1/1 21/19/1 20/18/1
f 1/1/1 22/20/1 21/19/1
f 1/1/1 24/21/1 23/20/1
f 1/1/1 25/22/1 24/21/1
f 1/1/1 26/23/1 25/22/1
f 1/1/1 27/24/1 26/23/1
f 1/1/1 28/25/1 27/24/1
f 1/1/1 29/3/1 28/25/1
f 30/26/2 31/27/2 32/28/3
f 32/28/3 31/27/2 33/29/4
f 32/28/3 33/29/4 34/30/5
f 34/30/5 33/29/4 35/31/5
f 34/30/5 35/31/5 36/32/6
f 36/32/6 35/31/5 37/33/6
f 36/32/6 37/33/6 38/34/7
f 38/34/7 37/33/6 39/35/7
f 38/34/7 39/35/7 40/36/8
f 40/36/8 39/35/7 41/37/8
f 40/36/8 41/37/8 42/38/9
f 42/38/9 41/37/8 43/39/9
f 44/26/2 45/27/2 46/28/10
f 46/28/10 45/27/2 47/29/11
f 46/28/10 47/29/11 48/30/12
f 48/30/12 47/29/11 49/31/12
f 48/30/12 49/31/12 50/32/13
f 50/32/13 49/31/12 51/33/13
f 50/32/13 51/33/13 52/34/14
f 52/34/14 51/33/13 53/35/14
f 52/34/14 53/35/14 54/36/15
f 54/36/15 53/35/14 55/37/16
f 54/36/15 55/37/16 56/38/17
f 56/38/17 55/37/16 57/39/17
f 58/1/18 60/15/18 59/14/18
f 58/1/18 61/16/18 60/15/18
f 58/1/18 62/17/18 61/16/18
f 58/1/18 63/18/18 62/17/18
f 58/1/18 64/19/18 63/18/18
f 58/1/18 65/20/18 64/19/18
f 58/1/18 67/21/18 66/20/18
f 58/1/18 68/22/18 67/21/18
f 58/1/18 69/23/18 68/22/18
f 58/1/18 70/24/18 69/23/18
f 58/1/18 71/25/18 70/24/18
f 58/1/18 72/3/18 71/25/18
f 58/1/18 74/2/18 73/3/18
f 58/1/18 75/4/18 74/2/18
f 58/1/18 76/5/18 75/4/18
f 58/1/18 77/6/18 76/5/18
f 58/1/18 78/7/18 77/6/18
f 58/1/18 79/8/18 78/7/18
f 58/1/18 81/9/18 80/8/18
f 58/1/18 82/10/18 81/9/18
f 58/1/18 83/11/18 82/10/18
f 58/1/18 84/12/18 83/11/18
f 58/1/18 85/13/18 84/12/18
f 58/1/18 86/14/18 85/13/18
f 87/26/19 88/27/19 89/28/20
f 89/28/20 88/27/19 90/29/20
f 89/28/20 90/29/20 91/30/21
f 91/30/21 90/29/20 92/31/21
f 91/30/21 92/31/21 93/32/22
f 93/32/22 92/31/21 94/33/22
f 93/32/22 94/33/22 95/34/23
f 95/34/23 94/33/22 96/35/23
f 95/34/23 96/35/23 97/36/24
f 97/36/24 96/35/23 98/37/25
f 97/36/24 98/37/25 99/38/17
f 99/38/17 98/37/25 100/39/17
f 101/26/9 102/27/9 103/28/26
f 103/28/26 102/27/9 104/29/26
f 103/28/26 104/29/26 105/30/27
f 105/30/27 104/29/26 106/31/27
f 105/30/27 106/31/27 107/32/28
f 107/32/28 106/31/27 108/33/28
f 107/32/28 108/33/28 109/34/29
f 109/34/29 108/33/28 110/35/29
f 109/34/29 110/35/29 111/36/30
f 111/36/30 110/35/29 112/37/31
f 111/36/30 112/37/31 113/38/19
f 113/38/19 112/37/31 114/39/19
usemtl Light1Mtl.003
f 115/40/32 116/41/33 122/42/34
f 122/42/34 116/41/33 123/43/33
f 116/41/33 117/44/35 123/43/33
f 123/43/33 117/44/35 124/45/35
f 117/44/35 118/46/36 124/45/35
f 124/45/35 118/46/36 125/47/37
f 118/46/36 119/48/38 125/47/37
f 125/47/37 119/48/38 126/49/38
f 119/48/38 120/50/39 126/49/38
f 126/49/38 120/50/39 127/51/40
f 120/50/39 121/52/41 127/51/40
f 127/51/40 121/52/41 128/53/42
f 122/42/34 123/43/33 129/54/9
f 129/54/9 123/43/33 130/55/43
f 123/43/33 124/45/35 130/55/43
f 130/55/43 124/45/35 131/56/7
f 124/45/35 125/47/37 131/56/7
f 131/56/7 125/47/37 132/57/44
f 125/47/37 126/49/38 132/57/44
f 132/57/44 126/49/38 133/58/5
f 126/49/38 127/51/40 133/58/5
f 133/58/5 127/51/40 134/59/3
f 127/51/40 128/53/42 134/59/3
f 134/59/3 128/53/42 135/60/2
f 129/54/9 130/55/43 136/61/9
f 136/61/9 130/55/43 137/62/45
f 130/55/43 131/56/7 137/62/45
f 137/62/45 131/56/7 138/63/46
f 131/56/7 132/57/44 138/63/46
f 138/63/46 132/57/44 139/64/44
f 132/57/44 133/58/5 139/64/44
f 139/64/44 133/58/5 140/65/5
f 133/58/5 134/59/3 140/65/5
f 140/65/5 134/59/3 141/66/4
f 134/59/3 135/60/2 141/66/4
f 141/66/4 135/60/2 142/67/2
f 136/61/9 137/62/45 143/68/9
f 143/68/9 137/62/45 144/69/8
f 137/62/45 138/63/46 144/69/8
f 144/69/8 138/63/46 145/70/7
f 138/63/46 139/64/44 145/70/7
f 145/70/7 139/64/44 146/71/44
f 139/64/44 140/65/5 146/71/44
f 146/71/44 140/65/5 147/72/5
f 140/65/5 141/66/4 147/72/5
f 147/72/5 141/66/4 148/73/3
f 141/66/4 142/67/2 148/73/3
f 148/73/3 142/67/2 149/74/2
f 143/68/9 144/69/8 150/75/47
f 150/75/47 144/69/8 151/76/48
f 144/69/8 145/70/7 151/76/48
f 151/76/48 145/70/7 152/77/49
f 145/70/7 146/71/44 152/77/49
f 152/77/49 146/71/44 153/78/50
f 146/71/44 147/72/5 153/78/50
f 153/78/50 147/72/5 154/79/51
f 147/72/5 148/73/3 154/79/51
f 154/79/51 148/73/3 155/80/52
f 148/73/3 149/74/2 155/80/52
f 155/80/52 149/74/2 156/81/53
f 150/75/47 151/76/48 157/82/54
f 157/82/54 151/76/48 158/83/48
f 151/76/48 152/77/49 158/83/48
f 158/83/48 152/77/49 159/84/49
f 152/77/49 153/78/50 159/84/49
f 159/84/49 153/78/50 160/85/55
f 153/78/50 154/79/51 160/85/55
f 160/85/55 154/79/51 161/86/56
f 154/79/51 155/80/52 161/86/56
f 161/86/56 155/80/52 162/87/57
f 155/80/52 156/81/53 162/87/57
f 162/87/57 156/81/53 163/88/53
f 164/40/58 165/41/59 171/89/60
f 171/89/60 165/41/59 172/90/58
f 165/41/59 166/44/61 172/90/58
f 172/90/58 166/44/61 173/91/62
f 166/44/61 167/46/63 173/91/62
f 173/91/62 167/46/63 174/92/64
f 167/46/63 168/48/65 174/92/64
f 174/92/64 168/48/65 175/93/66
f 168/48/65 169/50/67 175/93/66
f 175/93/66 169/50/67 176/94/41
f 169/50/67 170/52/41 176/94/41
f 176/94/41 170/52/41 177/95/40
f 171/89/60 172/90/58 178/96/68
f 178/96/68 172/90/58 179/97/69
f 172/90/58 173/91/62 179/97/69
f 179/97/69 173/91/62 180/98/70
f 173/91/62 174/92/64 180/98/70
f 180/98/70 174/92/64 181/99/71
f 174/92/64 175/93/66 181/99/71
f 181/99/71 175/93/66 182/100/72
f 175/93/66 176/94/41 182/100/72
f 182/100/72 176/94/41 183/101/73
f 176/94/41 177/95/40 183/101/73
f 183/101/73 177/95/40 184/102/74
f 178/96/68 179/97/69 185/103/75
f 185/103/75 179/97/69 186/104/76
f 179/97/69 180/98/70 186/104/76
f 186/104/76 180/98/70 187/105/77
f 180/98/70 181/99/71 187/105/77
f 187/105/77 181/99/71 188/106/78
f 181/99/71 182/100/72 188/106/78
f 188/106/78 182/100/72 189/107/79
f 182/100/72 183/101/73 189/107/79
f 189/107/79 183/101/73 190/108/80
f 183/101/73 184/102/74 190/108/80
f 190/108/80 184/102/74 191/109/81
f 185/103/75 186/104/76 192/110/82
f 192/110/82 186/104/76 193/111/83
f 186/104/76 187/105/77 193/111/83
f 193/111/83 187/105/77 194/112/84
f 187/105/77 188/106/78 194/112/84
f 194/112/84 188/106/78 195/113/85
f 188/106/78 189/107/79 195/113/85
f 195/113/85 189/107/79 196/114/86
f 189/107/79 190/108/80 196/114/86
f 196/114/86 190/108/80 197/115/87
f 190/108/80 191/109/81 197/115/87
f 197/115/87 191/109/81 198/116/88
f 192/110/82 193/111/83 199/117/89
f 199/117/89 193/111/83 200/118/90
f 193/111/83 194/112/84 200/118/90
f 200/118/90 194/112/84 201/119/91
f 194/112/84 195/113/85 201/119/91
f 201/119/91 195/113/85 202/120/92
f 195/113/85 196/114/86 202/120/92
f 202/120/92 196/114/86 203/121/93
f 196/114/86 197/115/87 203/121/93
f 203/121/93 197/115/87 204/122/32
f 197/115/87 198/116/88 204/122/32
f 204/122/32 198/116/88 205/123/94
f 199/117/89 200/118/90 206/124/90
f 206/124/90 200/118/90 207/125/95
f 200/118/90 201/119/91 207/125/95
f 207/125/95 201/119/91 208/126/96
f 201/119/91 202/120/92 208/126/96
f 208/126/96 202/120/92 209/127/97
f 202/120/92 203/121/93 209/127/97
f 209/127/97 203/121/93 210/128/98
f 203/121/93 204/122/32 210/128/98
f 210/128/98 204/122/32 211/129/99
f 204/122/32 205/123/94 211/129/99
f 211/129/99 205/123/94 212/130/32
f 213/40/100 214/41/101 220/42/102
f 220/42/102 214/41/101 221/43/103
f 214/41/101 215/44/104 221/43/103
f 221/43/103 215/44/104 222/45/104
f 215/44/104 216/46/105 222/45/104
f 222/45/104 216/46/105 223/47/63
f 216/46/105 217/48/106 223/47/63
f 223/47/63 217/48/106 224/49/107
f 217/48/106 218/50/108 224/49/107
f 224/49/107 218/50/108 225/51/108
f 218/50/108 219/52/109 225/51/108
f 225/51/108 219/52/109 226/53/58
f 220/42/102 221/43/103 227/54/2
f 227/54/2 221/43/103 228/55/10
f 221/43/103 222/45/104 228/55/10
f 228/55/10 222/45/104 229/56/12
f 222/45/104 223/47/63 229/56/12
f 229/56/12 223/47/63 230/57/13
f 223/47/63 224/49/107 230/57/13
f 230/57/13 224/49/107 231/58/14
f 224/49/107 225/51/108 231/58/14
f 231/58/14 225/51/108 232/59/16
f 225/51/108 226/53/58 232/59/16
f 232/59/16 226/53/58 233/60/17
f 227/54/2 228/55/10 234/61/2
f 234/61/2 228/55/10 235/62/10
f 228/55/10 229/56/12 235/62/10
f 235/62/10 229/56/12 236/63/110
f 229/56/12 230/57/13 236/63/110
f 236/63/110 230/57/13 237/64/111
f 230/57/13 231/58/14 237/64/111
f 237/64/111 231/58/14 238/65/14
f 231/58/14 232/59/16 238/65/14
f 238/65/14 232/59/16 239/66/16
f 232/59/16 233/60/17 239/66/16
f 239/66/16 233/60/17 240/67/17
f 234/61/2 235/62/10 241/68/2
f 241/68/2 235/62/10 242/69/10
f 235/62/10 236/63/110 242/69/10
f 242/69/10 236/63/110 243/70/12
f 236/63/110 237/64/111 243/70/12
f 243/70/12 237/64/111 244/71/13
f 237/64/111 238/65/14 244/71/13
f 244/71/13 238/65/14 245/72/14
f 238/65/14 239/66/16 245/72/14
f 245/72/14 239/66/16 246/73/16
f 239/66/16 240/67/17 246/73/16
f 246/73/16 240/67/17 247/74/17
f 241/68/2 242/69/10 248/75/53
f 248/75/53 242/69/10 249/76/112
f 242/69/10 243/70/12 249/76/112
f 249/76/112 243/70/12 250/77/113
f 243/70/12 244/71/13 250/77/113
f 250/77/113 244/71/13 251/78/114
f 244/71/13 245/72/14 251/78/114
f 251/78/114 245/72/14 252/79/115
f 245/72/14 246/73/16 252/79/115
f 252/79/115 246/73/16 253/80/116
f 246/73/16 247/74/17 253/80/116
f 253/80/116 247/74/17 254/81/117
f 248/75/53 249/76/112 255/82/53
f 255/82/53 249/76/112 256/83/112
f 249/76/112 250/77/113 256/83/112
f 256/83/112 250/77/113 257/84/113
f 250/77/113 251/78/114 257/84/113
f 257/84/113 251/78/114 258/85/118
f 251/78/114 252/79/115 258/85/118
f 258/85/118 252/79/115 259/86/119
f 252/79/115 253/80/116 259/86/119
f 259/86/119 253/80/116 260/87/120
f 253/80/116 254/81/117 260/87/120
f 260/87/120 254/81/117 261/88/121
f 262/40/58 263/41/122 269/42/123
f 269/42/123 263/41/122 270/43/122
f 263/41/122 264/44/124 270/43/122
f 270/43/122 264/44/124 271/45/125
f 264/44/124 265/46/126 271/45/125
f 271/45/125 265/46/126 272/47/127
f 265/46/126 266/48/128 272/47/127
f 272/47/127 266/48/128 273/49/128
f 266/48/128 267/50/129 273/49/128
f 273/49/128 267/50/129 274/51/130
f 267/50/129 268/52/90 274/51/130
f 274/51/130 268/52/90 275/53/90
f 269/42/123 270/43/122 276/54/17
f 276/54/17 270/43/122 277/55/25
f 270/43/122 271/45/125 277/55/25
f 277/55/25 271/45/125 278/56/23
f 271/45/125 272/47/127 278/56/23
f 278/56/23 272/47/127 279/57/131
f 272/47/127 273/49/128 279/57/131
f 279/57/131 273/49/128 280/58/21
f 273/49/128 274/51/130 280/58/21
f 280/58/21 274/51/130 281/59/132
f 274/51/130 275/53/90 281/59/132
f 281/59/132 275/53/90 282/60/19
f 276/54/17 277/55/25 283/61/17
f 283/61/17 277/55/25 284/62/133
f 277/55/25 278/56/23 284/62/133
f 284/62/133 278/56/23 285/63/134
f 278/56/23 279/57/131 285/63/134
f 285/63/134 279/57/131 286/64/131
f 279/57/131 280/58/21 286/64/131
f 286/64/131 280/58/21 287/65/21
f 280/58/21 281/59/132 287/65/21
f 287/65/21 281/59/132 288/66/20
f 281/59/132 282/60/19 288/66/20
f 288/66/20 282/60/19 289/67/19
f 283/61/17 284/62/133 290/68/17
f 290/68/17 284/62/133 291/69/25
f 284/62/133 285/63/134 291/69/25
f 291/69/25 285/63/134 292/70/23
f 285/63/134 286/64/131 292/70/23
f 292/70/23 286/64/131 293/71/131
f 286/64/131 287/65/21 293/71/131
f 293/71/131 287/65/21 294/72/21
f 287/65/21 288/66/20 294/72/21
f 294/72/21 288/66/20 295/73/20
f 288/66/20 289/67/19 295/73/20
f 295/73/20 289/67/19 296/74/19
f 290/68/17 291/69/25 297/75/117
f 297/75/117 291/69/25 298/76/135
f 291/69/25 292/70/23 298/76/135
f 298/76/135 292/70/23 299/77/136
f 292/70/23 293/71/131 299/77/136
f 299/77/136 293/71/131 300/78/137
f 293/71/131 294/72/21 300/78/137
f 300/78/137 294/72/21 301/79/138
f 294/72/21 295/73/20 301/79/138
f 301/79/138 295/73/20 302/80/139
f 295/73/20 296/74/19 302/80/139
f 302/80/139 296/74/19 303/81/140
f 297/75/117 298/76/135 304/82/141
f 304/82/141 298/76/135 305/83/142
f 298/76/135 299/77/136 305/83/142
f 305/83/142 299/77/136 306/84/136
f 299/77/136 300/78/137 306/84/136
f 306/84/136 300/78/137 307/85/143
f 300/78/137 301/79/138 307/85/143
f 307/85/143 301/79/138 308/86/138
f 301/79/138 302/80/139 308/86/138
f 308/86/138 302/80/139 309/87/144
f 302/80/139 303/81/140 309/87/144
f 309/87/144 303/81/140 310/88/145
f 311/40/145 312/41/146 318/89/147
f 318/89/147 312/41/146 319/90/145
f 312/41/146 313/44/148 319/90/145
f 319/90/145 313/44/148 320/91/149
f 313/44/148 314/46/150 320/91/149
f 320/91/149 314/46/150 321/92/151
f 314/46/150 315/48/152 321/92/151
f 321/92/151 315/48/152 322/93/153
f 315/48/152 316/50/154 322/93/153
f 322/93/153 316/50/154 323/94/155
f 316/50/154 317/52/155 323/94/155
f 323/94/155 317/52/155 324/95/156
f 318/89/147 319/90/145 325/96/157
f 325/96/157 319/90/145 326/97/158
f 319/90/145 320/91/149 326/97/158
f 326/97/158 320/91/149 327/98/159
f 320/91/149 321/92/151 327/98/159
f 327/98/159 321/92/151 328/99/160
f 321/92/151 322/93/153 328/99/160
f 328/99/160 322/93/153 329/100/161
f 322/93/153 323/94/155 329/100/161
f 329/100/161 323/94/155 330/101/162
f 323/94/155 324/95/156 330/101/162
f 330/101/162 324/95/156 331/102/163
f 325/96/157 326/97/158 332/103/164
f 332/103/164 326/97/158 333/104/165
f 326/97/158 327/98/159 333/104/165
f 333/104/165 327/98/159 334/105/166
f 327/98/159 328/99/160 334/105/166
f 334/105/166 328/99/160 335/106/167
f 328/99/160 329/100/161 335/106/167
f 335/106/167 329/100/161 336/107/168
f 329/100/161 330/101/162 336/107/168
f 336/107/168 330/101/162 337/108/169
f 330/101/162 331/102/163 337/108/169
f 337/108/169 331/102/163 338/109/170
f 332/103/164 333/104/165 339/110/171
f 339/110/171 333/104/165 340/111/172
f 333/104/165 334/105/166 340/111/172
f 340/111/172 334/105/166 341/112/173
f 334/105/166 335/106/167 341/112/173
f 341/112/173 335/106/167 342/113/174
f 335/106/167 336/107/168 342/113/174
f 342/113/174 336/107/168 343/114/175
f 336/107/168 337/108/169 343/114/175
f 343/114/175 337/108/169 344/115/176
f 337/108/169 338/109/170 344/115/176
f 344/115/176 338/109/170 345/116/177
f 339/110/171 340/111/172 346/117/178
f 346/117/178 340/111/172 347/118/179
f 340/111/172 341/112/173 347/118/179
f 347/118/179 341/112/173 348/119/180
f 341/112/173 342/113/174 348/119/180
f 348/119/180 342/113/174 349/120/181
f 342/113/174 343/114/175 349/120/181
f 349/120/181 343/114/175 350/121/182
f 343/114/175 344/115/176 350/121/182
f 350/121/182 344/115/176 351/122/53
f 344/115/176 345/116/177 351/122/53
f 351/122/53 345/116/177 352/123/183
f 346/117/178 347/118/179 353/124/179
f 353/124/179 347/118/179 354/125/184
f 347/118/179 348/119/180 354/125/184
f 354/125/184 348/119/180 355/126/185
f 348/119/180 349/120/181 355/126/185
f 355/126/185 349/120/181 356/127/186
f 349/120/181 350/121/182 356/127/186
f 356/127/186 350/121/182 357/128/187
f 350/121/182 351/122/53 357/128/187
f 357/128/187 351/122/53 358/129/188
f 351/122/53 352/123/183 358/129/188
f 358/129/188 352/123/183 359/130/53
f 360/40/90 361/41/189 367/42/90
f 367/42/90 361/41/189 368/43/190
f 361/41/189 362/44/191 368/43/190
f 368/43/190 362/44/191 369/45/191
f 362/44/191 363/46/192 369/45/191
f 369/45/191 363/46/192 370/47/193
f 363/46/192 364/48/194 370/47/193
f 370/47/193 364/48/194 371/49/195
f 364/48/194 365/50/196 371/49/195
f 371/49/195 365/50/196 372/51/197
f 365/50/196 366/52/198 372/51/197
f 372/51/197 366/52/198 373/53/198
f 367/42/90 368/43/190 374/54/19
f 374/54/19 368/43/190 375/55/199
f 368/43/190 369/45/191 375/55/199
f 375/55/199 369/45/191 376/56/29
f 369/45/191 370/47/193 376/56/29
f 376/56/29 370/47/193 377/57/28
f 370/47/193 371/49/195 377/57/28
f 377/57/28 371/49/195 378/58/27
f 371/49/195 372/51/197 378/58/27
f 378/58/27 372/51/197 379/59/26
f 372/51/197 373/53/198 379/59/26
f 379/59/26 373/53/198 380/60/9
f 374/54/19 375/55/199 381/61/19
f 381/61/19 375/55/199 382/62/200
f 375/55/199 376/56/29 382/62/200
f 382/62/200 376/56/29 383/63/201
f 376/56/29 377/57/28 383/63/201
f 383/63/201 377/57/28 384/64/202
f 377/57/28 378/58/27 384/64/202
f 384/64/202 378/58/27 385/65/27
f 378/58/27 379/59/26 385/65/27
f 385/65/27 379/59/26 386/66/26
f 379/59/26 380/60/9 386/66/26
f 386/66/26 380/60/9 387/67/9
f 381/61/19 382/62/200 388/68/19
f 388/68/19 382/62/200 389/69/31
f 382/62/200 383/63/201 389/69/31
f 389/69/31 383/63/201 390/70/29
f 383/63/201 384/64/202 390/70/29
f 390/70/29 384/64/202 391/71/202
f 384/64/202 385/65/27 391/71/202
f 391/71/202 385/65/27 392/72/27
f 385/65/27 386/66/26 392/72/27
f 392/72/27 386/66/26 393/73/26
f 386/66/26 387/67/9 393/73/26
f 393/73/26 387/67/9 394/74/9
f 388/68/19 389/69/31 395/75/145
f 395/75/145 389/69/31 396/76/203
f 389/69/31 390/70/29 396/76/203
f 396/76/203 390/70/29 397/77/204
f 390/70/29 391/71/202 397/77/204
f 397/77/204 391/71/202 398/78/205
f 391/71/202 392/72/27 398/78/205
f 398/78/205 392/72/27 399/79/206
f 392/72/27 393/73/26 399/79/206
f 399/79/206 393/73/26 400/80/207
f 393/73/26 394/74/9 400/80/207
f 400/80/207 394/74/9 401/81/208
f 395/75/145 396/76/203 402/82/209
f 402/82/209 396/76/203 403/83/203
f 396/76/203 397/77/204 403/83/203
f 403/83/203 397/77/204 404/84/204
f 397/77/204 398/78/205 404/84/204
f 404/84/204 398/78/205 405/85/210
f 398/78/205 399/79/206 405/85/210
f 405/85/210 399/79/206 406/86/211
f 399/79/206 400/80/207 406/86/211
f 406/86/211 400/80/207 407/87/212
f 400/80/207 401/81/208 407/87/212
f 407/87/212 401/81/208 408/88/155
usemtl Handle1Mtl.058
f 409/131/9 410/132/9 411/133/9
f 410/132/9 409/131/9 412/134/9
f 413/135/9 414/136/9 415/137/9
f 414/136/9 413/135/9 416/138/9
f 417/139/44 418/134/44 419/131/44
f 418/134/44 417/139/44 420/140/44
f 421/141/44 422/138/44 423/135/44
f 422/138/44 421/141/44 424/142/44
f 425/143/18 426/144/18 427/145/18
f 427/145/18 426/144/18 428/146/18
f 427/145/18 428/146/18 429/147/18
f 427/145/18 430/148/18 425/143/18
f 430/148/18 427/145/18 431/149/18
f 430/148/18 431/149/18 432/150/18
f 433/151/18 434/152/18 435/153/18
f 435/153/18 434/152/18 436/154/18
f 435/153/18 436/154/18 437/155/18
f 435/153/18 438/156/18 433/151/18
f 438/156/18 435/153/18 439/157/18
f 438/156/18 439/157/18 440/158/18
f 441/139/17 442/159/17 443/140/17
f 442/159/17 444/160/17 443/140/17
f 445/133/2 446/131/2 447/132/2
f 446/131/2 448/134/2 447/132/2
f 449/161/17 450/142/17 451/162/17
f 452/141/17 451/162/17 450/142/17
f 453/138/2 454/136/2 455/135/2
f 456/137/2 455/135/2 454/136/2
f 457/139/13 458/134/13 459/131/13
f 458/134/13 457/139/13 460/140/13
f 461/141/13 462/138/13 463/135/13
f 462/138/13 461/141/13 464/142/13
f 465/139/19 466/159/19 467/140/19
f 466/159/19 468/160/19 467/140/19
f 469/161/19 470/142/19 471/162/19
f 472/141/19 471/162/19 470/142/19
f 473/139/131 474/134/131 475/131/131
f 474/134/131 473/139/131 476/140/131
f 477/141/131 478/138/131 479/135/131
f 478/138/131 477/141/131 480/142/131
f 481/153/1 482/157/1 483/156/1
f 483/156/1 482/157/1 484/158/1
f 485/151/1 481/153/1 483/156/1
f 481/153/1 485/151/1 486/152/1
f 481/153/1 486/152/1 487/154/1
f 481/153/1 487/154/1 488/155/1
f 489/139/28 490/134/28 491/131/28
f 490/134/28 489/139/28 492/140/28
f 493/141/28 494/138/28 495/135/28
f 494/138/28 493/141/28 496/142/28
usemtl Output1Mtl.007
f 499/163/213 498/164/9 497/165/9
f 498/164/9 499/163/213 500/166/214
f 499/163/213 501/167/215 500/166/214
f 500/166/214 501/167/215 502/168/216
f 501/167/215 503/169/217 502/168/216
f 502/168/216 503/169/217 504/170/217
f 503/169/217 505/171/218 504/170/217
f 504/170/217 505/171/218 506/172/219
f 505/171/218 507/173/220 506/172/219
f 506/172/219 507/173/220 508/174/220
f 508/174/220 507/173/220 509/175/2
f 508/174/220 509/175/2 510/176/2
f 511/177/221 512/178/222 513/179/223
f 512/178/222 511/177/221 514/180/224
f 517/181/225 516/179/223 515/182/226
f 516/179/223 517/181/225 518/177/227
f 521/169/228 520/182/229 519/183/230
f 520/182/229 521/169/228 522/181/231
f 523/184/232 525/169/228 524/183/230
f 525/169/228 523/184/232 526/185/233
f 527/186/234 529/185/235 528/184/232
f 529/185/235 527/186/234 530/187/236
f 531/188/237 533/187/238 532/186/239
f 533/187/238 531/188/237 534/189/240
f 535/190/18 536/191/18 537/192/18
f 536/191/18 535/190/18 538/193/18
f 539/194/18 540/193/18 541/195/18
f 540/193/18 539/194/18 542/191/18
f 543/196/18 544/197/18 545/198/18
f 544/197/18 543/196/18 546/199/18
f 547/197/18 548/190/18 549/192/18
f 548/190/18 547/197/18 550/199/18
f 551/200/18 552/201/18 553/202/18
f 552/201/18 551/200/18 554/203/18
f 555/201/18 556/203/18 557/204/18
f 555/201/18 557/204/18 558/205/18
f 559/206/18 560/207/18 561/204/18
f 561/204/18 560/207/18 562/205/18
f 563/200/18 564/194/18 565/195/18
f 564/194/18 563/200/18 566/202/18
f 567/208/18 568/209/18 569/210/18
f 568/209/18 567/208/18 570/211/18
f 571/212/18 572/210/18 573/213/18
f 572/210/18 571/212/18 574/208/18
f 575/214/18 576/213/18 577/215/18
f 578/213/18 579/214/18 580/212/18
f 581/211/18 582/206/18 583/209/18
f 582/206/18 581/211/18 584/207/18
f 585/215/18 586/216/18 587/214/18
f 586/216/18 585/215/18 588/217/18
f 589/217/18 590/218/18 591/216/18
f 590/218/18 589/217/18 592/219/18
f 593/218/18 594/219/18 595/220/18
f 594/219/18 596/221/18 595/220/18
f 597/222/18 598/223/18 599/221/18
f 599/221/18 598/223/18 600/220/18
f 601/224/18 602/225/18 603/226/18
f 602/225/18 601/224/18 604/227/18
f 605/222/18 606/228/18 607/223/18
f 606/228/18 608/229/18 607/223/18
f 609/229/18 610/230/18 611/231/18
f 612/230/18 613/229/18 614/228/18
f 615/231/18 616/227/18 617/224/18
f 616/227/18 615/231/18 618/230/18
f 619/232/18 620/233/18 621/234/18
f 620/233/18 619/232/18 622/235/18
f 623/235/18 624/196/18 625/233/18
f 624/196/18 626/198/18 625/233/18
f 627/226/18 628/236/18 629/237/18
f 628/236/18 627/226/18 630/225/18
f 631/237/18 632/236/18 633/234/18
f 632/236/18 634/232/18 633/234/18
f 635/238/241 636/239/242 637/240/243
f 638/241/18 635/238/241 637/240/243
f 637/240/243 636/239/242 639/242/244
f 636/239/242 640/243/245 639/242/244
f 639/242/244 640/243/245 641/244/246
f 641/244/246 640/243/245 642/245/247
f 641/244/246 642/245/247 643/246/248
f 644/243/249 645/247/250 646/248/251
f 644/243/249 646/248/251 647/249/252
f 645/247/250 644/243/249 648/239/242
f 644/243/249 647/249/252 649/245/253
f 648/239/242 650/238/254 645/247/250
f 651/250/255 645/247/250 650/238/254
f 652/241/18 651/250/255 650/238/254
f 653/249/256 654/251/257 655/252/258
f 654/251/257 653/249/256 656/248/251
f 656/248/251 657/247/250 654/251/257
f 657/247/250 658/253/259 654/251/257
f 657/247/250 659/254/260 658/253/259
f 659/254/260 657/247/250 660/250/255
f 661/241/18 659/254/260 660/250/255
f 662/241/18 663/255/261 664/254/262
f 663/255/261 665/253/259 664/254/262
f 665/253/259 663/255/261 666/256/263
f 666/256/263 667/251/264 665/253/259
f 667/251/264 666/256/263 668/257/265
f 668/257/265 669/252/258 667/251/264
f 669/252/258 668/257/265 670/258/266
f 671/259/267 672/258/268 673/257/265
f 671/259/267 673/257/265 674/260/269
f 673/257/265 675/261/270 674/260/269
f 675/261/270 673/257/265 676/256/263
f 676/256/263 677/262/271 675/261/270
f 677/262/271 676/256/263 678/255/261
f 679/241/18 677/262/271 678/255/261
f 680/263/272 681/261/270 682/262/271
f 683/241/18 680/263/272 682/262/271
f 681/261/270 680/263/272 684/264/273
f 685/265/274 681/261/270 684/264/273
f 681/261/270 685/265/274 686/260/275
f 687/266/276 686/260/275 685/265/274
f 686/260/275 687/266/276 688/259/267
f 689/267/277 690/265/274 691/264/273
f 692/263/272 689/267/277 691/264/273
f 689/267/277 692/263/272 693/268/278
f 694/241/18 693/268/278 692/263/272
f 690/265/274 689/267/277 695/269/279
f 696/270/280 690/265/274 695/269/279
f 690/265/274 696/270/280 697/266/281
f 698/271/282 699/272/283 700/273/284
f 699/272/283 698/271/282 701/274/285
f 700/273/284 702/275/286 698/271/282
f 702/275/286 700/273/284 703/276/287
f 703/276/287 704/277/288 702/275/286
f 704/277/288 703/276/287 705/278/289
f 706/241/18 704/277/288 705/278/289
f 707/271/290 708/279/291 709/280/292
f 707/271/290 710/281/293 708/279/291
f 707/271/290 709/280/292 711/274/285
f 710/281/293 707/271/290 712/275/286
f 712/275/286 713/282/294 710/281/293
f 713/282/294 712/275/286 714/277/288
f 715/241/18 713/282/294 714/277/288
f 716/241/18 717/283/295 718/282/296
f 718/282/296 717/283/295 719/284/297
f 720/281/293 718/282/296 719/284/297
f 719/284/297 721/279/291 720/281/293
f 721/279/291 719/284/297 722/285/298
f 722/285/298 723/280/299 721/279/291
f 723/280/299 722/285/298 724/286/300
f 725/286/300 727/287/301 726/288/302
f 727/287/301 725/286/300 728/285/298
f 727/287/301 728/285/298 729/284/297
f 727/287/301 729/284/297 730/289/303
f 729/284/297 731/283/295 730/289/303
f 730/289/303 731/283/295 732/290/304
f 733/241/18 732/290/304 731/283/295
f 734/289/303 735/291/305 736/292/306
f 735/291/305 734/289/303 737/290/304
f 738/241/18 735/291/305 737/290/304
f 736/292/306 739/287/301 734/289/303
f 739/287/301 736/292/306 740/293/307
f 741/294/308 739/287/301 740/293/307
f 741/294/308 742/288/309 739/287/301
f 743/295/310 744/296/311 745/297/312
f 744/296/311 746/298/313 745/297/312
f 747/241/18 746/298/313 744/296/311
f 743/295/310 745/297/312 748/299/314
f 749/300/315 743/295/310 748/299/314
f 748/299/314 750/301/316 749/300/315
f 750/301/316 748/299/314 751/302/317
f 752/303/318 753/299/319 754/297/312
f 752/303/318 755/302/317 753/299/319
f 752/303/318 754/297/312 756/304/320
f 755/302/317 752/303/318 757/305/321
f 754/297/312 758/298/313 756/304/320
f 756/304/320 758/298/313 759/306/322
f 760/241/18 759/306/322 758/298/313
f 761/303/318 762/307/323 763/308/324
f 764/309/325 761/303/318 763/308/324
f 762/307/323 761/303/318 765/304/320
f 764/309/325 766/305/326 761/303/318
f 765/304/320 767/310/327 762/307/323
f 767/310/327 765/304/320 768/306/322
f 769/241/18 767/310/327 768/306/322
f 770/241/18 771/311/328 772/310/329
f 771/311/328 773/307/323 772/310/329
f 773/307/323 771/311/328 774/312/330
f 774/312/330 775/308/331 773/307/323
f 775/308/331 774/312/330 776/313/332
f 776/313/332 777/309/325 775/308/331
f 777/309/325 776/313/332 778/314/333
f 780/314/334 781/315/335 779/316/336
f 781/315/335 780/314/334 782/313/332
f 783/312/330 781/315/335 782/313/332
f 781/315/335 783/312/330 784/317/337
f 785/311/338 784/317/337 783/312/330
f 784/317/337 785/311/338 786/318/339
f 787/241/18 786/318/339 785/311/338
f 788/240/243 789/317/337 790/318/339
f 791/241/18 788/240/243 790/318/339
f 789/317/337 788/240/243 792/242/244
f 792/242/244 793/315/340 789/317/337
f 793/315/340 792/242/244 794/244/246
f 794/244/246 795/316/341 793/315/340
f 795/316/341 794/244/246 796/246/342
f 797/273/284 798/267/277 799/276/287
f 798/267/277 797/273/284 800/269/343
f 801/268/344 799/276/287 798/267/277
f 799/276/287 801/268/344 802/278/289
f 803/241/18 802/278/289 801/268/344
f 804/272/345 800/269/343 797/273/284
f 800/269/343 804/272/345 805/270/280
f 806/319/346 807/292/306 808/320/347
f 807/292/306 809/321/348 808/320/347
f 809/321/348 807/292/306 810/291/349
f 811/241/18 809/321/348 810/291/349
f 807/292/306 806/319/346 812/293/350
f 813/322/351 812/293/350 806/319/346
f 812/293/350 813/322/351 814/294/308
f 815/323/352 816/320/347 817/324/353
f 816/320/347 815/323/352 818/319/346
f 819/321/348 817/324/353 816/320/347
f 817/324/353 819/321/348 820/325/354
f 821/241/18 820/325/354 819/321/348
f 822/326/232 818/319/346 815/323/352
f 818/319/346 822/326/232 823/322/351
f 824/327/355 825/323/356 826/328/357
f 825/323/356 827/329/358 826/328/357
f 825/323/356 824/327/355 828/326/232
f 827/329/358 825/323/356 829/324/353
f 829/324/353 830/330/359 827/329/358
f 830/330/359 829/324/353 831/325/354
f 832/241/18 830/330/359 831/325/354
f 833/241/18 834/331/360 835/330/359
f 834/331/360 836/332/361 835/330/359
f 835/330/359 836/332/361 837/329/358
f 836/332/361 838/328/357 837/329/358
f 838/328/357 836/332/361 839/333/362
f 838/328/357 839/333/362 840/334/363
f 838/328/357 840/334/363 841/327/364
f 842/296/365 843/332/361 844/331/360
f 845/241/18 842/296/365 844/331/360
f 843/332/361 842/296/365 846/295/310
f 846/295/310 847/333/362 843/332/361
f 847/333/362 846/295/310 848/300/315
f 847/333/362 848/300/315 849/301/366
f 847/333/362 849/301/366 850/334/367
f 851/172/368 852/170/13 853/171/368
f 852/170/13 854/169/13 853/171/368
f 851/172/368 853/171/368 855/173/369
f 856/174/369 851/172/368 855/173/369
f 856/174/369 855/173/369 857/175/17
f 857/175/17 858/176/17 856/174/369
f 860/164/2 859/165/2 861/163/370
f 861/163/370 862/166/370 860/164/2
f 862/166/370 861/163/370 863/167/371
f 864/168/372 862/166/370 863/167/371
f 864/168/372 863/167/371 865/169/13
f 866/170/13 864/168/372 865/169/13
f 867/179/373 868/182/317 869/181/374
f 867/179/373 869/181/374 870/177/375
f 871/182/376 872/183/377 873/169/378
f 871/182/376 873/169/378 874/181/374
f 875/184/379 877/169/378 876/183/377
f 877/169/378 875/184/379 878/185/380
f 880/186/381 881/185/380 879/184/379
f 881/185/380 880/186/381 882/335/382
f 883/188/383 884/335/384 885/186/385
f 884/335/384 883/188/383 886/189/386
f 887/179/373 889/177/387 888/336/388
f 888/336/388 889/177/387 890/180/240
f 893/163/389 892/164/17 891/165/17
f 893/163/389 894/166/389 892/164/17
f 895/167/390 894/166/389 893/163/389
f 895/167/390 896/168/390 894/166/389
f 897/169/391 896/168/390 895/167/390
f 897/169/391 898/170/391 896/168/390
f 899/171/392 898/170/391 897/169/391
f 899/171/392 900/172/392 898/170/391
f 901/173/393 900/172/392 899/171/392
f 901/173/393 902/174/394 900/172/392
f 903/175/19 902/174/394 901/173/393
f 903/175/19 904/176/19 902/174/394
f 906/179/395 905/182/396 907/181/397
f 907/181/397 908/337/398 906/179/395
f 910/182/253 909/183/399 911/169/400
f 911/169/400 912/181/401 910/182/253
f 914/338/258 915/169/400 913/183/399
f 915/169/400 914/338/258 916/185/402
f 918/339/403 919/185/404 917/338/258
f 919/185/404 918/339/403 920/335/405
f 921/335/405 922/188/406 923/189/407
f 922/188/406 921/335/405 924/339/408
f 925/336/409 926/179/395 927/337/398
f 928/180/386 925/336/409 927/337/398
f 929/193/1 930/340/1 931/232/1
f 929/193/1 932/199/1 933/190/1
f 929/193/1 934/196/1 932/199/1
f 931/232/1 934/196/1 929/193/1
f 934/196/1 931/232/1 935/235/1
f 936/209/1 930/340/1 929/193/1
f 936/209/1 929/193/1 937/341/1
f 930/340/1 938/230/1 931/232/1
f 938/230/1 930/340/1 939/228/1
f 940/227/1 931/232/1 938/230/1
f 940/227/1 941/236/1 931/232/1
f 941/236/1 940/227/1 942/342/1
f 943/203/1 936/209/1 937/341/1
f 943/203/1 937/341/1 944/200/1
f 936/209/1 943/203/1 945/343/1
f 945/343/1 943/203/1 946/204/1
f 930/340/1 936/209/1 947/344/1
f 930/340/1 947/344/1 948/221/1
f 947/344/1 936/209/1 949/215/1
f 947/344/1 949/215/1 950/217/1
f 949/215/1 936/209/1 951/210/1
f 949/215/1 951/210/1 952/213/1
f 955/163/410 954/164/19 953/165/19
f 954/164/19 955/163/410 956/166/411
f 957/167/412 956/166/411 955/163/410
f 956/166/411 957/167/412 958/168/412
f 959/169/28 958/168/412 957/167/412
f 958/168/412 959/169/28 960/170/28
f 961/171/413 960/170/28 959/169/28
f 960/170/28 961/171/413 962/172/413
f 963/173/414 962/172/413 961/171/413
f 962/172/413 963/173/414 964/174/414
f 965/175/9 964/174/414 963/173/414
f 964/174/414 965/175/9 966/176/9
f 968/336/415 967/179/416 969/177/417
f 969/177/417 970/180/418 968/336/415
f 973/181/419 972/179/416 971/182/420
f 973/181/419 974/177/417 972/179/416
f 976/184/421 977/169/422 975/183/423
f 977/169/422 976/184/421 978/185/424
f 979/186/425 981/185/426 980/184/427
f 981/185/426 979/186/425 982/187/428
f 984/188/429 985/187/428 983/186/425
f 985/187/428 984/188/429 986/189/430
f 989/169/422 988/182/431 987/183/423
f 989/169/422 990/181/419 988/182/431
