# Blender 5.1.2
# www.blender.org
mtllib Trumpet.mtl
o Trumpet
v 0.706164 0.092948 -0.195307
v 0.738065 0.041708 -0.149307
v 0.715665 0.013588 -0.181908
v 0.732764 0.085488 -0.156708
v 0.706164 0.092948 -0.195307
v 0.728465 0.121648 -0.130707
v 0.732764 0.085488 -0.156708
v 0.698265 0.158478 -0.148308
v 0.715665 0.013588 -0.181908
v 0.741164 0.015948 -0.112907
v 0.721265 -0.033102 -0.115908
v 0.738065 0.041708 -0.149307
v 0.727565 0.128998 -0.086708
v 0.728465 0.121648 -0.130707
v 0.698265 0.158478 -0.148308
v 0.696665 0.171808 -0.068407
v 0.721265 -0.033102 -0.115908
v 0.740265 0.023298 -0.068808
v 0.719665 -0.019772 -0.036007
v 0.741164 0.015948 -0.112907
v 0.730664 0.103238 -0.050308
v 0.696665 0.171808 -0.068407
v 0.702265 0.125118 -0.002407
v 0.727565 0.128998 -0.086708
v 0.735965 0.059458 -0.042908
v 0.719665 -0.019772 -0.036007
v 0.740265 0.023298 -0.068808
v 0.711764 0.045758 0.010992
v 0.702265 0.125118 -0.002407
v 0.711764 0.045758 0.010992
v 0.735965 0.059458 -0.042908
v 0.730664 0.103238 -0.050308
v 0.350265 -0.087502 0.016993
v 0.332365 -0.141992 -0.006107
v 0.336164 -0.032672 0.041792
v 0.364565 -0.100172 0.044792
v 0.344765 -0.160552 0.019192
v 0.335264 -0.167062 0.050993
v 0.348965 -0.039412 0.072193
v 0.353165 -0.112572 0.073992
v 0.302165 0.005438 0.094292
v 0.296865 -0.017272 0.118692
v 0.339065 -0.057742 0.098793
v -0.347336 -0.075102 -0.084808
v -0.334435 -0.062352 -0.050407
v -0.356135 -0.102952 -0.067308
v -0.341235 -0.083892 -0.036907
v -0.334435 -0.105432 -0.023407
v -0.347336 -0.130802 -0.049908
v 0.224964 -0.145332 0.022493
v 0.226765 0.025308 0.028393
v 0.242664 0.025698 -0.009907
v 0.238364 -0.145002 -0.009907
v 0.224964 -0.145332 -0.042208
v 0.226765 0.025308 -0.048208
v -0.098835 -0.144212 0.022493
v -0.102236 0.026408 0.028393
v -0.085435 -0.143472 -0.009907
v -0.086335 0.027278 -0.009907
v -0.102236 0.026408 -0.048208
v -0.098835 -0.144212 -0.042208
v 0.051165 -0.150022 0.012692
v 0.069264 0.032478 0.032093
v 0.085065 0.034238 -0.006208
v 0.064565 -0.148532 -0.019608
v 0.051165 -0.145302 -0.051807
v 0.069264 0.038078 -0.044407
v -0.347336 -0.092682 0.010992
v -0.334435 -0.105432 -0.023407
v -0.356135 -0.064832 -0.006407
v -0.341235 -0.083892 -0.036907
v -0.334435 -0.062352 -0.050407
v -0.347336 -0.036982 -0.023907
v 0.202065 -0.028422 0.002392
v 0.199665 0.115188 0.003592
v 0.207165 -0.028292 -0.009907
v 0.205165 0.115328 -0.009907
v 0.199665 0.115188 -0.023308
v 0.202065 -0.028422 -0.022207
v -0.125236 -0.028032 0.002392
v -0.132035 0.115438 0.003592
v -0.120135 -0.027752 -0.009907
v -0.126435 0.115738 -0.009907
v -0.132035 0.115438 -0.023308
v -0.125236 -0.028032 -0.022207
v 0.039764 -0.016762 0.002392
v 0.050364 0.126018 0.013992
v 0.055864 0.126628 0.000492
v 0.044865 -0.016202 -0.009907
v 0.039764 -0.014962 -0.022207
v 0.050364 0.127978 -0.012808
v 0.227765 0.069368 0.030493
v 0.228965 0.105448 0.032692
v 0.246665 0.105888 -0.009907
v 0.244465 0.069788 -0.009907
v 0.227765 0.069368 -0.050308
v 0.228965 0.105448 -0.052408
v -0.102535 0.070478 0.030493
v -0.102335 0.106578 0.032692
v -0.084735 0.107548 -0.009907
v -0.085835 0.071398 -0.009907
v -0.102535 0.070478 -0.050308
v -0.102335 0.106578 -0.052408
v 0.074164 0.076008 0.037292
v 0.078665 0.111568 0.042093
v 0.096265 0.113528 -0.000408
v 0.090864 0.077868 -0.003008
v 0.074164 0.081908 -0.043207
v 0.078665 0.117788 -0.042807
v -0.785735 0.252268 0.220093
v -0.710236 0.257708 -0.010408
v -0.808135 0.256998 -0.004507
v -0.687736 0.252958 0.214792
v 0.276865 -0.011572 0.039993
v 0.233265 -0.000292 0.047092
v 0.234864 0.023068 0.071392
v 0.293964 0.007798 0.061693
v 0.336164 -0.032672 0.041792
v 0.348965 -0.039412 0.072193
v 0.302165 0.005438 0.094292
v 0.236765 0.022358 0.105093
v -0.728135 0.100938 -0.172907
v -0.808135 0.256998 -0.004507
v -0.710236 0.257708 -0.010408
v -0.825935 0.100638 -0.166607
v 0.023464 0.127768 0.014091
v 0.036864 0.126488 0.019592
v 0.036864 0.127878 0.000593
v 0.036864 0.126488 0.019592
v 0.050364 0.126018 0.013992
v 0.036864 0.127878 0.000593
v 0.050364 0.126018 0.013992
v 0.055864 0.126628 0.000492
v 0.036864 0.127878 0.000593
v 0.055864 0.126628 0.000492
v 0.050364 0.127978 -0.012808
v 0.036864 0.127878 0.000593
v 0.050364 0.127978 -0.012808
v 0.036864 0.129268 -0.018307
v 0.036864 0.127878 0.000593
v 0.036864 0.129268 -0.018307
v 0.023464 0.129738 -0.012707
v 0.036864 0.127878 0.000593
v 0.023464 0.129738 -0.012707
v 0.017964 0.129118 0.000692
v 0.036864 0.127878 0.000593
v 0.017964 0.129118 0.000692
v 0.023464 0.127768 0.014091
v 0.036864 0.127878 0.000593
v -0.158835 0.113958 0.003592
v -0.145435 0.114698 0.009092
v -0.145435 0.114698 -0.009907
v -0.145435 0.114698 0.009092
v -0.132035 0.115438 0.003592
v -0.145435 0.114698 -0.009907
v -0.132035 0.115438 0.003592
v -0.126435 0.115738 -0.009907
v -0.145435 0.114698 -0.009907
v -0.126435 0.115738 -0.009907
v -0.132035 0.115438 -0.023308
v -0.145435 0.114698 -0.009907
v -0.132035 0.115438 -0.023308
v -0.145435 0.114698 -0.028908
v -0.145435 0.114698 -0.009907
v -0.145435 0.114698 -0.028908
v -0.158835 0.113958 -0.023308
v -0.145435 0.114698 -0.009907
v -0.158835 0.113958 -0.023308
v -0.164435 0.113658 -0.009907
v -0.145435 0.114698 -0.009907
v -0.164435 0.113658 -0.009907
v -0.158835 0.113958 0.003592
v -0.145435 0.114698 -0.009907
v -0.006235 0.117128 0.042492
v 0.036264 0.113058 0.059893
v 0.036264 0.117458 -0.000107
v -0.023835 0.121388 0.000193
v -0.006235 0.123348 -0.042408
v 0.078665 0.111568 0.042093
v 0.036264 0.121858 -0.060108
v 0.096265 0.113528 -0.000408
v 0.078665 0.117788 -0.042807
v 0.740265 0.023298 -0.068808
v 0.741164 0.015948 -0.112907
v 0.430565 0.050158 -0.121607
v -0.187335 0.101918 0.032692
v -0.144835 0.104248 0.050293
v -0.144835 0.104248 -0.009907
v -0.204935 0.100948 -0.009907
v -0.187335 0.101918 -0.052408
v -0.102335 0.106578 0.032692
v -0.144835 0.104248 -0.070007
v -0.084735 0.107548 -0.009907
v -0.102335 0.106578 -0.052408
v 0.172765 0.114518 0.003592
v 0.186165 0.114858 0.009092
v 0.186165 0.114858 -0.009907
v 0.186165 0.114858 0.009092
v 0.199665 0.115188 0.003592
v 0.186165 0.114858 -0.009907
v 0.199665 0.115188 0.003592
v 0.205165 0.115328 -0.009907
v 0.186165 0.114858 -0.009907
v 0.205165 0.115328 -0.009907
v 0.199665 0.115188 -0.023308
v 0.186165 0.114858 -0.009907
v 0.199665 0.115188 -0.023308
v 0.186165 0.114858 -0.028908
v 0.186165 0.114858 -0.009907
v 0.186165 0.114858 -0.028908
v 0.172765 0.114518 -0.023308
v 0.186165 0.114858 -0.009907
v 0.172765 0.114518 -0.023308
v 0.167165 0.114378 -0.009907
v 0.186165 0.114858 -0.009907
v 0.167165 0.114378 -0.009907
v 0.172765 0.114518 0.003592
v 0.186165 0.114858 -0.009907
v 0.143865 0.103338 0.032692
v 0.186464 0.104388 0.050293
v 0.186464 0.104388 -0.009907
v 0.126265 0.102898 -0.009907
v 0.143865 0.103338 -0.052408
v 0.228965 0.105448 0.032692
v 0.186464 0.104388 -0.070007
v 0.246665 0.105888 -0.009907
v 0.228965 0.105448 -0.052408
v 0.425964 0.091308 -0.110909
v -0.290436 0.051798 -0.079407
v 0.427364 0.070118 -0.081108
v -0.359236 0.036168 -0.069607
v -0.378435 -0.013852 -0.020807
v -0.341235 0.017688 -0.040508
v -0.290436 0.045358 -0.117708
v 0.426365 0.085258 -0.147007
v -0.366635 0.028038 -0.106907
v -0.409535 -0.006512 -0.042908
v -0.422436 -0.019272 -0.077307
v -0.341235 -0.131552 0.052792
v -0.378435 -0.100012 0.033093
v 0.468965 0.124388 -0.104408
v 0.698265 0.158478 -0.148308
v 0.469564 0.114638 -0.162508
v 0.696665 0.171808 -0.068407
v 0.234864 0.023068 0.071392
v -0.134635 0.052498 0.104992
v 0.236765 0.022358 0.105093
v -0.139635 0.053548 0.055193
v -0.007236 0.037478 0.032392
v 0.030965 0.033818 0.048092
v 0.030965 0.037778 -0.006008
v -0.023135 0.041318 -0.005707
v -0.007236 0.043088 -0.044008
v 0.069264 0.032478 0.032093
v 0.030965 0.041738 -0.060007
v 0.085065 0.034238 -0.006208
v 0.069264 0.038078 -0.044407
v -0.178736 0.022208 0.028393
v -0.140435 0.024308 0.044292
v -0.140435 0.024308 -0.009907
v -0.194635 0.021338 -0.009907
v -0.178736 0.022208 -0.048208
v -0.102236 0.026408 0.028393
v -0.140435 0.024308 -0.064108
v -0.086335 0.027278 -0.009907
v -0.102236 0.026408 -0.048208
v 0.150064 0.023398 0.028393
v 0.188464 0.024348 0.044292
v 0.188464 0.024348 -0.009907
v 0.134265 0.023008 -0.009907
v 0.150064 0.023398 -0.048208
v 0.226765 0.025308 0.028393
v 0.188464 0.024348 -0.064108
v 0.242664 0.025698 -0.009907
v 0.226765 0.025308 -0.048208
v -0.687736 0.252958 0.214792
v -0.388235 0.031248 0.209192
v -0.394535 0.106188 0.137592
v -0.673836 0.089478 0.370892
v 0.741164 0.015948 -0.112907
v 0.738065 0.041708 -0.149307
v 0.430565 0.050158 -0.121607
v 0.233265 -0.000292 0.047092
v -0.139635 0.053548 0.055193
v 0.234864 0.023068 0.071392
v -0.143536 0.018888 0.019293
v 0.010565 -0.018022 0.082493
v -0.808036 -0.159872 0.040592
v -0.796235 -0.162362 0.158493
v -0.404836 0.108358 0.034393
v -0.687736 0.252958 0.214792
v -0.394535 0.106188 0.137592
v -0.710236 0.257708 -0.010408
v -0.139635 0.053548 0.055193
v -0.134635 0.052498 0.104992
v 0.253264 -0.133982 0.035593
v 0.279465 -0.112872 0.009392
v 0.257965 -0.131762 0.002192
v 0.269964 -0.119372 0.041193
v 0.231065 -0.139162 0.034493
v 0.272064 -0.151462 -0.021307
v 0.229264 -0.138452 0.000792
v -0.290436 -0.126972 -0.010008
v 0.227665 -0.161812 -0.023508
v -0.290436 -0.158652 -0.032507
v 0.231065 -0.139162 0.034493
v 0.232164 -0.163522 0.057793
v -0.290436 -0.120532 0.028393
v -0.290436 -0.126972 -0.010008
v -0.290436 -0.143102 0.060093
v -0.323236 -0.113072 0.023693
v -0.315835 -0.121202 -0.013607
v -0.347336 -0.092682 0.010992
v -0.334435 -0.105432 -0.023407
v -0.290436 0.029228 -0.047709
v 0.010565 -0.018022 0.082493
v -0.796235 -0.162362 0.158493
v -0.786836 -0.080292 0.243593
v -0.413035 0.036508 -0.040108
v -0.404836 0.108358 0.034393
v -0.143536 0.018888 0.019293
v -0.139635 0.053548 0.055193
v 0.471065 0.090228 -0.056307
v 0.696665 0.171808 -0.068407
v 0.468965 0.124388 -0.104408
v 0.702265 0.125118 -0.002407
v 0.469564 0.114638 -0.162508
v 0.426365 0.085258 -0.147007
v 0.468965 0.124388 -0.104408
v 0.425964 0.091308 -0.110909
v 0.468965 0.124388 -0.104408
v 0.427364 0.070118 -0.081108
v 0.471065 0.090228 -0.056307
v 0.425964 0.091308 -0.110909
v -0.771835 0.089198 0.375792
v -0.774635 -0.136672 0.371393
v -0.676636 -0.136972 0.366392
v -0.673836 0.089478 0.370892
v -0.771835 0.089198 0.375792
v -0.687736 0.252958 0.214792
v -0.785735 0.252268 0.220093
v -0.673836 0.089478 0.370892
v 0.335264 -0.167062 0.050993
v 0.353165 -0.112572 0.073992
v 0.302165 0.005438 0.094292
v 0.236765 0.022358 0.105093
v 0.237764 -0.002002 0.128492
v 0.296865 -0.017272 0.118692
v 0.237365 -0.035742 0.127792
v 0.339065 -0.057742 0.098793
v 0.281065 -0.047032 0.120592
v 0.263965 -0.066402 0.098793
v 0.284164 -0.085732 0.089293
v 0.312264 -0.076932 0.105892
v 0.290865 -0.111912 0.077492
v 0.282365 -0.137942 0.066492
v 0.322664 -0.117432 0.087492
v 0.309464 -0.157692 0.070492
v 0.237764 -0.002002 0.128492
v -0.132236 -0.033722 0.138493
v 0.237365 -0.035742 0.127792
v -0.131536 0.016348 0.139492
v 0.236765 0.022358 0.105093
v -0.131536 0.016348 0.139492
v 0.237764 -0.002002 0.128492
v -0.134635 0.052498 0.104992
v 0.427364 0.070118 -0.081108
v -0.378435 -0.013852 -0.020807
v -0.341235 0.017688 -0.040508
v -0.409535 -0.006512 -0.042908
v -0.392035 -0.056932 0.006193
v -0.422436 -0.148512 0.003492
v -0.366635 -0.195822 0.033093
v 0.230165 -0.220632 0.032793
v -0.290436 -0.213132 0.043892
v -0.290436 -0.181452 0.066492
v -0.359236 -0.165832 0.056692
v -0.341235 -0.131552 0.052792
v -0.378435 -0.100012 0.033093
v -0.409535 -0.123142 0.029993
v -0.427936 -0.064832 -0.006407
v 0.010565 -0.018022 0.082493
v -0.813835 0.044258 -0.038807
v -0.815235 -0.074292 -0.041107
v 0.010565 -0.018022 0.082493
v -0.815235 -0.074292 -0.041107
v -0.808036 -0.159872 0.040592
v 0.188464 0.024348 0.044292
v 0.160364 -0.146942 0.022493
v 0.192664 -0.146132 0.035793
v 0.150064 0.023398 0.028393
v 0.224964 -0.145332 0.022493
v 0.226765 0.025308 0.028393
v -0.676636 -0.136972 0.366392
v -0.389535 -0.072542 0.207092
v -0.673836 0.089478 0.370892
v -0.388235 0.031248 0.209192
v -0.132236 -0.033722 0.138493
v -0.131536 0.016348 0.139492
v -0.140435 0.024308 0.044292
v -0.163435 -0.147752 0.022493
v -0.131135 -0.145982 0.035793
v -0.178736 0.022208 0.028393
v -0.098835 -0.144212 0.022493
v -0.102236 0.026408 0.028393
v 0.018965 -0.148892 0.026192
v 0.030965 0.033818 0.048092
v -0.013335 -0.145802 0.012993
v -0.007236 0.037478 0.032392
v 0.051165 -0.150022 0.012692
v 0.069264 0.032478 0.032093
v -0.388235 0.031248 0.209192
v -0.394535 0.106188 0.137592
v -0.134635 0.052498 0.104992
v -0.131536 0.016348 0.139492
v 0.290265 -0.206612 0.035893
v 0.335264 -0.167062 0.050993
v 0.309464 -0.157692 0.070492
v 0.276165 -0.186912 0.059393
v 0.260864 -0.156832 0.059292
v 0.282365 -0.137942 0.066492
v 0.253264 -0.133982 0.035593
v 0.269964 -0.119372 0.041193
v 0.231065 -0.139162 0.034493
v 0.231765 -0.197272 0.057093
v 0.232164 -0.163522 0.057793
v -0.290436 -0.120532 0.028393
v -0.290436 -0.143102 0.060093
v -0.347336 -0.092682 0.010992
v -0.356135 -0.064832 -0.006407
v -0.334435 -0.062352 -0.050407
v -0.347336 -0.036982 -0.023907
v -0.315835 -0.046582 -0.060207
v -0.323236 -0.016592 -0.036608
v -0.290436 -0.040812 -0.063808
v -0.290436 -0.009132 -0.041307
v 0.431464 0.004368 -0.096308
v 0.429564 0.034108 -0.075108
v -0.290436 0.029228 -0.047709
v 0.186165 0.114858 0.009092
v 0.177464 -0.029032 0.002392
v 0.189765 -0.028722 0.007492
v 0.172765 0.114518 0.003592
v 0.202065 -0.028422 0.002392
v 0.199665 0.115188 0.003592
v 0.732764 0.085488 -0.156708
v 0.728465 0.121648 -0.130707
v 0.430565 0.050158 -0.121607
v 0.738065 0.041708 -0.149307
v 0.732764 0.085488 -0.156708
v 0.430565 0.050158 -0.121607
v -0.145435 0.114698 0.009092
v -0.149836 -0.029382 0.002392
v -0.137535 -0.028712 0.007492
v -0.158835 0.113958 0.003592
v -0.125236 -0.028032 0.002392
v -0.132035 0.115438 0.003592
v 0.027465 -0.016332 0.007492
v 0.036864 0.126488 0.019592
v 0.015164 -0.015152 0.002493
v 0.023464 0.127768 0.014091
v 0.039764 -0.016762 0.002392
v 0.050364 0.126018 0.013992
v 0.186464 0.104388 0.050293
v 0.146965 0.067368 0.030493
v 0.187365 0.068368 0.047192
v 0.143865 0.103338 0.032692
v 0.227765 0.069368 0.030493
v 0.228965 0.105448 0.032692
v -0.144835 0.104248 0.050293
v -0.183235 0.066058 0.030493
v -0.142836 0.068268 0.047192
v -0.187335 0.101918 0.032692
v -0.102535 0.070478 0.030493
v -0.102335 0.106578 0.032692
v 0.033865 0.077428 0.054192
v 0.036264 0.113058 0.059893
v -0.006435 0.081288 0.037693
v -0.006235 0.117128 0.042492
v 0.074164 0.076008 0.037292
v 0.078665 0.111568 0.042093
v 0.477864 -0.015762 -0.080807
v 0.711764 0.045758 0.010992
v 0.474765 0.032178 -0.046608
v 0.719665 -0.019772 -0.036007
v 0.711764 0.045758 0.010992
v 0.471065 0.090228 -0.056307
v 0.474765 0.032178 -0.046608
v 0.702265 0.125118 -0.002407
v 0.431464 0.004368 -0.096308
v 0.474765 0.032178 -0.046608
v 0.429564 0.034108 -0.075108
v 0.477864 -0.015762 -0.080807
v 0.474765 0.032178 -0.046608
v 0.427364 0.070118 -0.081108
v 0.429564 0.034108 -0.075108
v 0.471065 0.090228 -0.056307
v -0.828835 -0.125242 -0.171007
v -0.808036 -0.159872 0.040592
v -0.815235 -0.074292 -0.041107
v -0.814936 -0.288302 -0.015308
v -0.828835 -0.125242 -0.171007
v -0.813835 0.044258 -0.038807
v -0.825935 0.100638 -0.166607
v -0.815235 -0.074292 -0.041107
v -0.825935 0.100638 -0.166607
v -0.804436 0.126328 0.046293
v -0.808135 0.256998 -0.004507
v -0.813835 0.044258 -0.038807
v -0.804436 0.126328 0.046293
v -0.785735 0.252268 0.220093
v -0.808135 0.256998 -0.004507
v -0.792635 0.123838 0.164192
v -0.771835 0.089198 0.375792
v -0.785735 0.252268 0.220093
v -0.792635 0.123838 0.164192
v -0.785336 0.038258 0.245892
v -0.771835 0.089198 0.375792
v -0.786836 -0.080292 0.243593
v -0.774635 -0.136672 0.371393
v -0.785336 0.038258 0.245892
v -0.774635 -0.136672 0.371393
v -0.796235 -0.162362 0.158493
v -0.792536 -0.293042 0.209293
v -0.786836 -0.080292 0.243593
v -0.808036 -0.159872 0.040592
v -0.814936 -0.288302 -0.015308
v -0.796235 -0.162362 0.158493
v -0.792536 -0.293042 0.209293
v 0.261065 -0.041332 0.041792
v 0.255765 -0.064042 0.066193
v 0.281264 -0.060662 0.032293
v 0.271364 -0.078992 0.058792
v 0.287965 -0.086842 0.020393
v 0.276565 -0.099242 0.049692
v 0.269964 -0.119372 0.041193
v 0.279465 -0.112872 0.009392
v 0.284164 -0.085732 0.089293
v 0.271364 -0.078992 0.058792
v 0.290865 -0.111912 0.077492
v 0.276565 -0.099242 0.049692
v 0.269964 -0.119372 0.041193
v 0.282365 -0.137942 0.066492
v -0.409535 -0.006512 -0.042908
v -0.422436 -0.019272 -0.077307
v -0.409535 -0.044632 -0.103807
v -0.427936 -0.102952 -0.067308
v -0.448835 -0.083892 -0.036907
v -0.409535 -0.161262 -0.030907
v -0.422436 -0.148512 0.003492
v -0.409535 -0.123142 0.029993
v -0.427936 -0.064832 -0.006407
v 0.160364 -0.146942 -0.042208
v 0.150064 0.023398 -0.048208
v 0.134265 0.023008 -0.009907
v 0.146965 -0.147272 -0.009907
v 0.160364 -0.146942 0.022493
v 0.150064 0.023398 0.028393
v -0.163435 -0.147752 -0.042208
v -0.178736 0.022208 -0.048208
v -0.194635 0.021338 -0.009907
v -0.176835 -0.148482 -0.009907
v -0.163435 -0.147752 0.022493
v -0.178736 0.022208 0.028393
v -0.007236 0.043088 -0.044008
v -0.013335 -0.141072 -0.051508
v -0.026735 -0.142562 -0.019207
v -0.023135 0.041318 -0.005707
v -0.007236 0.037478 0.032392
v -0.013335 -0.145802 0.012993
v 0.177464 -0.029032 -0.022207
v 0.172765 0.114518 -0.023308
v 0.167165 0.114378 -0.009907
v 0.172364 -0.029162 -0.009907
v 0.177464 -0.029032 0.002392
v 0.172765 0.114518 0.003592
v -0.149836 -0.029382 -0.022207
v -0.158835 0.113958 -0.023308
v -0.164435 0.113658 -0.009907
v -0.154936 -0.029662 -0.009907
v -0.149836 -0.029382 0.002392
v -0.158835 0.113958 0.003592
v 0.023464 0.129738 -0.012707
v 0.015164 -0.013352 -0.022108
v 0.010164 -0.013922 -0.009808
v 0.017964 0.129118 0.000692
v 0.023464 0.127768 0.014091
v 0.015164 -0.015152 0.002493
v 0.146965 0.067368 -0.050308
v 0.143865 0.103338 -0.052408
v 0.126265 0.102898 -0.009907
v 0.130264 0.066948 -0.009907
v 0.146965 0.067368 0.030493
v 0.143865 0.103338 0.032692
v -0.183235 0.066058 -0.050308
v -0.187335 0.101918 -0.052408
v -0.204935 0.100948 -0.009907
v -0.199935 0.065138 -0.009907
v -0.183235 0.066058 0.030493
v -0.187335 0.101918 0.032692
v -0.006235 0.123348 -0.042408
v -0.006435 0.087188 -0.042807
v -0.023835 0.121388 0.000193
v -0.023135 0.085328 -0.002508
v -0.006435 0.081288 0.037693
v -0.006235 0.117128 0.042492
v -0.774635 -0.136672 0.371393
v -0.792536 -0.293042 0.209293
v -0.694535 -0.293742 0.203993
v -0.676636 -0.136972 0.366392
v -0.792536 -0.293042 0.209293
v -0.814936 -0.288302 -0.015308
v -0.717035 -0.288992 -0.021307
v -0.694535 -0.293742 0.203993
v 0.237365 -0.035742 0.127792
v 0.281065 -0.047032 0.120592
v 0.263965 -0.066402 0.098793
v 0.235765 -0.059112 0.103493
v 0.233865 -0.058402 0.069792
v 0.255765 -0.064042 0.066193
v 0.284164 -0.085732 0.089293
v 0.271364 -0.078992 0.058792
v 0.192664 -0.146132 0.035793
v 0.160364 -0.146942 0.022493
v 0.193065 -0.162892 -0.009907
v 0.224964 -0.145332 0.022493
v 0.238364 -0.145002 -0.009907
v 0.146965 -0.147272 -0.009907
v 0.224964 -0.145332 -0.042208
v 0.160364 -0.146942 -0.042208
v 0.192664 -0.146132 -0.055607
v 0.727565 0.128998 -0.086708
v 0.730664 0.103238 -0.050308
v 0.430565 0.050158 -0.121607
v 0.018965 -0.148892 0.026192
v -0.013335 -0.145802 0.012993
v 0.017864 -0.162232 -0.020607
v 0.051165 -0.150022 0.012692
v 0.064565 -0.148532 -0.019608
v -0.026735 -0.142562 -0.019207
v 0.051165 -0.145302 -0.051807
v -0.013335 -0.141072 -0.051508
v 0.018965 -0.142212 -0.065008
v -0.131135 -0.145982 0.035793
v -0.163435 -0.147752 0.022493
v -0.130236 -0.162722 -0.009907
v -0.098835 -0.144212 0.022493
v -0.085435 -0.143472 -0.009907
v -0.176835 -0.148482 -0.009907
v -0.098835 -0.144212 -0.042208
v -0.163435 -0.147752 -0.042208
v -0.131135 -0.145982 -0.055607
v 0.237365 -0.035742 0.127792
v -0.132236 -0.033722 0.138493
v 0.235765 -0.059112 0.103493
v -0.136135 -0.068392 0.102592
v 0.715665 0.013588 -0.181908
v 0.478465 -0.025512 -0.138908
v 0.476265 0.008638 -0.186907
v 0.721265 -0.033102 -0.115908
v 0.430565 0.019508 -0.162107
v -0.290436 -0.024682 -0.133808
v 0.431865 -0.001672 -0.132408
v -0.341235 -0.036222 -0.126608
v -0.290436 -0.047252 -0.102207
v 0.431464 0.004368 -0.096308
v -0.290436 -0.040812 -0.063808
v -0.323236 -0.054712 -0.097507
v -0.315835 -0.046582 -0.060207
v -0.347336 -0.075102 -0.084808
v -0.334435 -0.062352 -0.050407
v -0.378435 -0.067762 -0.106907
v -0.409535 -0.161262 -0.030907
v -0.378435 -0.153922 -0.053007
v -0.341235 -0.185462 -0.033308
v -0.290436 -0.197012 -0.026108
v -0.359236 -0.203952 -0.004208
v -0.290436 -0.219572 0.005592
v 0.227264 -0.195562 -0.024208
v -0.422436 -0.148512 0.003492
v -0.366635 -0.195822 0.033093
v 0.228265 -0.219922 -0.000908
v 0.294865 -0.204392 0.002493
v 0.230165 -0.220632 0.032793
v -0.290436 -0.213132 0.043892
v -0.290436 -0.181452 0.066492
v 0.010565 -0.018022 0.082493
v -0.804436 0.126328 0.046293
v -0.813835 0.044258 -0.038807
v 0.235765 -0.059112 0.103493
v -0.136135 -0.068392 0.102592
v 0.233865 -0.058402 0.069792
v -0.141135 -0.067342 0.052792
v 0.728465 0.121648 -0.130707
v 0.727565 0.128998 -0.086708
v 0.430565 0.050158 -0.121607
v -0.694535 -0.293742 0.203993
v -0.389535 -0.072542 0.207092
v -0.676636 -0.136972 0.366392
v -0.397736 -0.144402 0.132692
v -0.132236 -0.033722 0.138493
v -0.136135 -0.068392 0.102592
v 0.010565 -0.018022 0.082493
v -0.792635 0.123838 0.164192
v -0.804436 0.126328 0.046293
v -0.717035 -0.288992 -0.021307
v -0.408035 -0.142222 0.029392
v -0.694535 -0.293742 0.203993
v -0.397736 -0.144402 0.132692
v -0.141135 -0.067342 0.052792
v -0.136135 -0.068392 0.102592
v 0.721265 -0.033102 -0.115908
v 0.477864 -0.015762 -0.080807
v 0.478465 -0.025512 -0.138908
v 0.719665 -0.019772 -0.036007
v 0.344765 -0.160552 0.019192
v 0.290265 -0.206612 0.035893
v 0.335264 -0.167062 0.050993
v 0.276165 -0.186912 0.059393
v 0.231765 -0.197272 0.057093
v 0.187365 0.068368 0.047192
v 0.146965 0.067368 0.030493
v 0.187365 0.068368 -0.009907
v 0.227765 0.069368 0.030493
v 0.244465 0.069788 -0.009907
v 0.130264 0.066948 -0.009907
v 0.227765 0.069368 -0.050308
v 0.146965 0.067368 -0.050308
v 0.187365 0.068368 -0.067007
v -0.142836 0.068268 0.047192
v -0.183235 0.066058 0.030493
v -0.142836 0.068268 -0.009907
v -0.102535 0.070478 0.030493
v -0.085835 0.071398 -0.009907
v -0.199935 0.065138 -0.009907
v -0.102535 0.070478 -0.050308
v -0.183235 0.066058 -0.050308
v -0.142836 0.068268 -0.067007
v 0.033865 0.077428 0.054192
v -0.006435 0.081288 0.037693
v 0.033865 0.081598 -0.002808
v 0.074164 0.076008 0.037292
v 0.090864 0.077868 -0.003008
v -0.023135 0.085328 -0.002508
v 0.074164 0.081908 -0.043207
v -0.006435 0.087188 -0.042807
v 0.033865 0.085768 -0.059708
v 0.430565 0.019508 -0.162107
v 0.478465 -0.025512 -0.138908
v 0.431865 -0.001672 -0.132408
v 0.476265 0.008638 -0.186907
v 0.478465 -0.025512 -0.138908
v 0.431464 0.004368 -0.096308
v 0.431865 -0.001672 -0.132408
v 0.477864 -0.015762 -0.080807
v 0.261065 -0.041332 0.041792
v 0.233865 -0.058402 0.069792
v 0.232864 -0.034042 0.046492
v 0.255765 -0.064042 0.066193
v 0.276865 -0.011572 0.039993
v 0.233265 -0.000292 0.047092
v 0.281264 -0.060662 0.032293
v 0.308064 -0.041472 0.025192
v 0.293964 0.007798 0.061693
v 0.287965 -0.086842 0.020393
v 0.279465 -0.112872 0.009392
v 0.305264 -0.122232 -0.010107
v 0.318464 -0.081982 0.006893
v 0.350265 -0.087502 0.016993
v 0.332365 -0.141992 -0.006107
v 0.336164 -0.032672 0.041792
v -0.814936 -0.288302 -0.015308
v -0.828835 -0.125242 -0.171007
v -0.730935 -0.125512 -0.177408
v -0.717035 -0.288992 -0.021307
v -0.825935 0.100638 -0.166607
v -0.730935 -0.125512 -0.177408
v -0.828835 -0.125242 -0.171007
v -0.728135 0.100938 -0.172907
v 0.730664 0.103238 -0.050308
v 0.735965 0.059458 -0.042908
v 0.430565 0.050158 -0.121607
v 0.735965 0.059458 -0.042908
v 0.740265 0.023298 -0.068808
v 0.430565 0.050158 -0.121607
v 0.706164 0.092948 -0.195307
v 0.476265 0.008638 -0.186907
v 0.472565 0.066698 -0.196707
v 0.715665 0.013588 -0.181908
v 0.469564 0.114638 -0.162508
v 0.706164 0.092948 -0.195307
v 0.472565 0.066698 -0.196707
v 0.698265 0.158478 -0.148308
v -0.290436 0.045358 -0.117708
v 0.426365 0.085258 -0.147007
v 0.428265 0.055518 -0.168207
v -0.290436 0.013678 -0.140308
v -0.366635 0.028038 -0.106907
v 0.430565 0.019508 -0.162107
v -0.422436 -0.019272 -0.077307
v -0.359236 -0.001952 -0.130508
v -0.290436 -0.024682 -0.133808
v -0.341235 -0.036222 -0.126608
v -0.347336 -0.075102 -0.084808
v -0.378435 -0.067762 -0.106907
v -0.356135 -0.102952 -0.067308
v -0.334435 -0.105432 -0.023407
v -0.347336 -0.130802 -0.049908
v -0.409535 -0.044632 -0.103807
v -0.392035 -0.110842 -0.080008
v -0.427936 -0.102952 -0.067308
v -0.409535 -0.161262 -0.030907
v -0.378435 -0.153922 -0.053007
v -0.341235 -0.185462 -0.033308
v -0.323236 -0.151182 -0.037207
v -0.290436 -0.197012 -0.026108
v -0.290436 -0.219572 0.005592
v 0.227264 -0.195562 -0.024208
v 0.228265 -0.219922 -0.000908
v 0.294865 -0.204392 0.002493
v 0.224964 -0.145332 -0.042208
v 0.226765 0.025308 -0.048208
v 0.188464 0.024348 -0.064108
v 0.192664 -0.146132 -0.055607
v 0.160364 -0.146942 -0.042208
v 0.150064 0.023398 -0.048208
v -0.102236 0.026408 -0.048208
v -0.098835 -0.144212 -0.042208
v -0.140435 0.024308 -0.064108
v -0.131135 -0.145982 -0.055607
v -0.163435 -0.147752 -0.042208
v -0.178736 0.022208 -0.048208
v 0.051165 -0.145302 -0.051807
v 0.069264 0.038078 -0.044407
v 0.018965 -0.142212 -0.065008
v 0.030965 0.041738 -0.060007
v -0.007236 0.043088 -0.044008
v -0.013335 -0.141072 -0.051508
v 0.233865 -0.058402 0.069792
v -0.141135 -0.067342 0.052792
v 0.232864 -0.034042 0.046492
v -0.144236 -0.031192 0.018291
v 0.232864 -0.034042 0.046492
v -0.144236 -0.031192 0.018291
v 0.233265 -0.000292 0.047092
v -0.143536 0.018888 0.019293
v 0.279465 -0.112872 0.009392
v 0.257965 -0.131762 0.002192
v 0.272064 -0.151462 -0.021307
v 0.305264 -0.122232 -0.010107
v 0.229264 -0.138452 0.000792
v -0.290436 -0.126972 -0.010008
v 0.332365 -0.141992 -0.006107
v 0.227665 -0.161812 -0.023508
v -0.290436 -0.158652 -0.032507
v -0.315835 -0.121202 -0.013607
v 0.287365 -0.181542 -0.021107
v 0.344765 -0.160552 0.019192
v 0.199665 0.115188 -0.023308
v 0.202065 -0.028422 -0.022207
v 0.186165 0.114858 -0.028908
v 0.189765 -0.028722 -0.027308
v 0.177464 -0.029032 -0.022207
v 0.172765 0.114518 -0.023308
v 0.010565 -0.018022 0.082493
v -0.785336 0.038258 0.245892
v -0.792635 0.123838 0.164192
v -0.132035 0.115438 -0.023308
v -0.125236 -0.028032 -0.022207
v -0.145435 0.114698 -0.028908
v -0.137535 -0.028712 -0.027308
v -0.149836 -0.029382 -0.022207
v -0.158835 0.113958 -0.023308
v -0.413035 0.036508 -0.040108
v -0.728135 0.100938 -0.172907
v -0.404836 0.108358 0.034393
v -0.710236 0.257708 -0.010408
v -0.730935 -0.125512 -0.177408
v -0.408035 -0.142222 0.029392
v -0.717035 -0.288992 -0.021307
v -0.414335 -0.067292 -0.042107
v -0.141135 -0.067342 0.052792
v -0.144236 -0.031192 0.018291
v 0.039764 -0.014962 -0.022207
v 0.050364 0.127978 -0.012808
v 0.027465 -0.013792 -0.027208
v 0.036864 0.129268 -0.018307
v 0.023464 0.129738 -0.012707
v 0.015164 -0.013352 -0.022108
v 0.010565 -0.018022 0.082493
v -0.786836 -0.080292 0.243593
v -0.785336 0.038258 0.245892
v -0.414335 -0.067292 -0.042107
v -0.728135 0.100938 -0.172907
v -0.413035 0.036508 -0.040108
v -0.730935 -0.125512 -0.177408
v -0.144236 -0.031192 0.018291
v -0.143536 0.018888 0.019293
v 0.472565 0.066698 -0.196707
v 0.430565 0.019508 -0.162107
v 0.428265 0.055518 -0.168207
v 0.476265 0.008638 -0.186907
v 0.227765 0.069368 -0.050308
v 0.228965 0.105448 -0.052408
v 0.186464 0.104388 -0.070007
v 0.187365 0.068368 -0.067007
v 0.146965 0.067368 -0.050308
v 0.143865 0.103338 -0.052408
v 0.426365 0.085258 -0.147007
v 0.472565 0.066698 -0.196707
v 0.428265 0.055518 -0.168207
v 0.469564 0.114638 -0.162508
v -0.102535 0.070478 -0.050308
v -0.102335 0.106578 -0.052408
v -0.144835 0.104248 -0.070007
v -0.142836 0.068268 -0.067007
v -0.183235 0.066058 -0.050308
v -0.187335 0.101918 -0.052408
v 0.074164 0.081908 -0.043207
v 0.078665 0.117788 -0.042807
v 0.033865 0.085768 -0.059708
v 0.036264 0.121858 -0.060108
v -0.006235 0.123348 -0.042408
v -0.006435 0.087188 -0.042807
vn 0.8185 0.2282 -0.5273
vn 0.8729 -0.1730 -0.4561
vn 0.8766 -0.1895 -0.4423
vn 0.8199 0.2207 -0.5282
vn 0.8185 0.2283 -0.5273
vn 0.8017 0.5265 -0.2830
vn 0.8199 0.2208 -0.5282
vn 0.8017 0.5423 -0.2515
vn 0.8766 -0.1896 -0.4422
vn 0.9205 -0.3698 -0.1259
vn 0.9244 -0.3713 -0.0870
vn 0.8247 0.5577 0.0942
vn 0.8017 0.5266 -0.2829
vn 0.8016 0.5423 -0.2515
vn 0.8290 0.5448 0.1263
vn 0.9244 -0.3714 -0.0869
vn 0.9342 -0.2748 0.2276
vn 0.9328 -0.2587 0.2508
vn 0.8679 0.3393 0.3629
vn 0.8290 0.5448 0.1264
vn 0.8718 0.3220 0.3691
vn 0.8247 0.5576 0.0943
vn 0.9124 0.0157 0.4090
vn 0.9328 -0.2586 0.2509
vn 0.9342 -0.2747 0.2277
vn 0.8718 0.3220 0.3692
vn 0.9124 0.0158 0.4090
vn 0.8679 0.3392 0.3629
vn 0.9985 -0.0079 -0.0550
vn 0.6210 -0.0943 -0.7781
vn 0.7336 0.2524 -0.6310
vn 0.6463 0.5990 -0.4729
vn 0.8494 -0.4639 -0.2516
vn 0.6782 -0.6151 0.4021
vn 0.8812 0.4484 0.1495
vn 0.7956 -0.2678 0.5435
vn 0.4322 0.3458 0.8329
vn 0.5269 0.7864 0.3224
vn 0.7005 0.0866 0.7083
vn 0.8650 -0.4246 0.2674
vn 0.6225 -0.4176 -0.6619
vn 0.5378 -0.6801 -0.4982
vn 1.0000 -0.0000 -0.0000
vn 0.8650 0.4246 -0.2674
vn 0.5374 -0.1502 -0.8299
vn 0.7068 -0.0314 0.7067
vn 0.9997 -0.0236 -0.0000
vn 0.7068 -0.0314 -0.7067
vn 0.7068 -0.0314 -0.7068
vn 1.0000 0.0079 -0.0000
vn 0.7071 -0.0078 0.7071
vn 0.7071 -0.0079 -0.7071
vn 0.7071 -0.0078 -0.7071
vn 0.7000 -0.1415 0.7000
vn 0.9939 -0.1104 -0.0079
vn 0.7000 -0.1416 0.6999
vn 0.9938 -0.1106 -0.0079
vn 0.7026 -0.0395 -0.7105
vn 0.6225 0.4176 0.6619
vn 0.5377 0.6801 0.4983
vn 0.5374 0.1502 0.8299
vn 0.9999 0.0158 -0.0000
vn 0.7071 0.0078 0.7071
vn 0.7071 0.0079 0.7071
vn 0.7071 0.0079 -0.7071
vn 0.9989 0.0471 -0.0000
vn 0.7068 0.0314 0.7067
vn 0.9989 0.0472 -0.0000
vn 0.7068 0.0314 -0.7067
vn 0.7028 -0.1106 0.7027
vn 0.9969 -0.0784 -0.0078
vn 0.7028 -0.1106 0.7028
vn 0.9969 -0.0785 -0.0078
vn 0.7032 -0.0079 -0.7110
vn 0.7031 -0.0079 -0.7110
vn 0.7093 -0.0709 0.7014
vn 0.9980 -0.0629 -0.0000
vn 0.7093 -0.0709 0.7013
vn 0.9980 -0.0628 -0.0000
vn 0.7093 -0.0709 -0.7013
vn 0.7093 -0.0709 -0.7014
vn 0.7103 -0.0474 0.7023
vn 0.9995 -0.0314 -0.0000
vn 0.7103 -0.0473 0.7023
vn 0.9995 -0.0315 -0.0000
vn 0.7103 -0.0474 -0.7023
vn 0.7103 -0.0473 -0.7023
vn 0.6994 -0.1808 0.6915
vn 0.9888 -0.1491 -0.0079
vn 0.7010 -0.0787 -0.7088
vn 0.7010 -0.0788 -0.7088
vn 0.0157 0.9195 0.3929
vn -0.0314 0.9349 -0.3535
vn -0.0315 0.9286 -0.3698
vn 0.0158 0.9124 0.4090
vn 0.1027 0.9320 -0.3475
vn 0.0236 0.5028 -0.8641
vn 0.0790 0.4108 -0.9083
vn 0.3713 0.8610 -0.3475
vn 0.8812 0.4485 0.1495
vn 0.6462 0.5990 -0.4728
vn 0.1025 0.9064 0.4098
vn -0.0628 0.4083 -0.9107
vn -0.0315 0.9285 -0.3699
vn -0.0314 0.9349 -0.3536
vn -0.0632 0.3951 -0.9165
vn 0.0632 0.9955 0.0711
vn -0.0551 0.9985 -0.0000
vn -0.0551 0.9985 0.0001
vn -0.0550 0.9985 0.0001
vn 0.1647 0.8395 -0.5178
vn 0.1022 0.9751 0.1966
vn 0.9950 0.0947 0.0316
vn -0.0548 0.9985 -0.0000
vn -0.0552 0.9985 -0.0000
vn -0.0553 0.9985 -0.0000
vn -0.0237 0.9997 -0.0000
vn -0.0236 0.9997 -0.0000
vn -0.0472 0.9760 0.2125
vn -0.0553 0.9718 0.2291
vn 0.0079 0.5364 0.8439
vn -0.3844 0.9021 0.1961
vn -0.1182 0.5831 0.8037
vn -0.0631 0.6225 0.7801
vn -0.0868 0.8444 -0.5287
vn -0.0708 0.8419 -0.5350
vn -0.4984 0.7356 -0.4588
vn -0.6453 0.6769 0.3541
vn -0.8582 0.4330 -0.2755
vn -0.2285 0.9534 0.1970
vn -0.1336 0.8491 -0.5110
vn -0.1266 0.8229 -0.5539
vn -0.2365 0.9383 0.2523
vn 0.1650 0.9114 0.3771
vn 0.1024 0.9064 0.4098
vn 0.1654 0.9140 -0.3703
vn -0.0547 0.9985 -0.0000
vn 0.4886 0.8195 0.2995
vn 0.4564 0.3305 0.8261
vn 0.4316 0.8397 0.3296
vn 0.5122 0.3231 0.7958
vn 0.0868 0.5526 0.8289
vn 0.0790 0.4107 -0.9083
vn 0.1655 0.9140 -0.3704
vn 0.1026 0.9320 -0.3476
vn 0.1651 0.3933 -0.9045
vn -0.9980 0.0079 0.0628
vn -0.1730 0.8887 0.4246
vn -0.1962 0.9262 -0.3218
vn 0.3999 0.8392 -0.3686
vn 0.4886 0.8195 0.2994
vn 0.4316 0.8397 0.3295
vn 0.4483 0.8102 -0.3775
vn 0.1655 0.9141 -0.3703
vn -0.4728 0.7959 0.3782
vn -0.5665 0.6058 -0.5586
vn -0.3311 0.8119 -0.4808
vn -0.8494 0.4640 0.2516
vn 0.0157 0.9984 -0.0550
vn 0.0157 0.6667 -0.7451
vn 0.0474 0.9875 -0.1501
vn 0.0078 -0.0551 -0.9985
vn 0.0158 0.2923 -0.9562
vn 0.0394 0.5831 -0.8115
vn 0.0395 0.8050 0.5919
vn 0.0079 0.1656 0.9862
vn 0.0235 0.7376 0.6748
vn 0.3069 0.8736 0.3777
vn 0.4984 0.7357 -0.4587
vn -0.0633 0.4272 0.9019
vn 0.5378 0.6801 0.4982
vn 0.8650 0.4246 -0.2673
vn -0.1180 0.4722 0.8736
vn 0.0078 0.5272 0.8497
vn -0.9980 0.0078 0.0629
vn -0.2121 0.4086 -0.8877
vn 0.3999 0.8391 -0.3686
vn 0.1652 0.3933 -0.9045
vn 0.3770 0.3535 -0.8561
vn -0.2665 0.5017 0.8230
vn -0.2671 0.4713 0.8405
vn -0.6085 0.6639 -0.4346
vn -0.6064 0.6616 -0.4410
vn -0.6162 0.7663 0.1817
vn -0.6153 0.7652 0.1893
vn -0.5818 0.4010 0.7076
vn -0.5832 0.4099 0.7014
vn -0.6153 0.7652 0.1894
vn 0.0473 0.3628 0.9307
vn 0.0472 -0.4086 0.9115
vn 0.0471 -0.3925 0.9185
vn 0.0157 0.9124 0.4090
vn 0.0157 0.9194 0.3929
vn 0.0709 0.3623 0.9294
vn 0.5269 0.7864 0.3225
vn 0.1025 0.9064 0.4099
vn 0.4321 0.3457 0.8329
vn 0.0315 -0.3861 0.9219
vn 0.1186 -0.2926 0.9489
vn 0.7005 0.0865 0.7084
vn -0.5124 -0.5912 0.6228
vn -0.2913 -0.8031 0.5197
vn 0.1648 -0.3375 0.9268
vn 0.7955 -0.2678 0.5435
vn -0.5846 -0.3081 0.7506
vn 0.1811 -0.4016 0.8977
vn -0.4875 -0.0236 0.8728
vn 0.6782 -0.6151 0.4022
vn 0.1577 -0.4573 0.8752
vn 0.0708 0.3623 0.9294
vn 0.1817 -0.3949 0.9006
vn 0.1731 0.3698 0.9128
vn 0.1731 0.3699 0.9128
vn 0.1650 0.9113 0.3771
vn -0.6453 0.6768 0.3542
vn -0.1334 0.5260 0.8400
vn -0.1182 0.5831 0.8038
vn -0.0393 -0.9813 0.1884
vn 0.0235 -0.6748 0.7376
vn -0.0236 -0.5743 0.8183
vn -0.4983 -0.7356 0.4588
vn -0.3852 -0.2201 0.8962
vn -0.8582 -0.4330 0.2756
vn -0.1181 0.4722 0.8736
vn -0.6454 0.0236 0.7635
vn -0.7421 0.3553 0.5684
vn -0.9980 0.0079 0.0629
vn -0.1650 -0.3771 0.9114
vn -0.1656 0.3471 0.9231
vn -0.1656 0.3472 0.9231
vn -0.1730 0.8887 0.4247
vn -0.0000 -0.0472 0.9989
vn -0.7014 -0.0709 0.7093
vn 0.7067 -0.0314 0.7068
vn 0.5133 -0.3711 0.7739
vn 0.4637 -0.3772 0.8017
vn 0.5122 0.3230 0.7958
vn 0.4563 0.3304 0.8262
vn 0.1817 -0.3949 0.9005
vn -0.7005 -0.0866 0.7084
vn 0.7071 -0.0079 0.7071
vn -0.0000 -0.1182 0.9930
vn -0.7100 -0.0552 0.7021
vn -0.7099 -0.0552 0.7021
vn 0.7000 -0.1416 0.7000
vn 0.4563 0.3305 0.8262
vn 0.1732 0.3699 0.9128
vn 0.3947 -0.8684 0.3000
vn 0.1101 -0.5032 0.8571
vn -0.2588 0.1804 0.9489
vn -0.4728 0.7959 0.3783
vn -0.8493 0.4640 0.2517
vn 0.0157 0.9984 -0.0551
vn 0.0236 0.0393 0.9989
vn 0.0395 0.8050 0.5920
vn 0.0079 0.1657 0.9861
vn 0.4983 -0.7356 0.4588
vn 0.5374 0.1502 0.8298
vn 0.3065 -0.0393 0.9510
vn 0.0868 -0.8443 0.5287
vn 0.0632 -0.2290 0.9714
vn 0.0788 -0.8506 0.5199
vn 0.0079 0.5271 0.8498
vn 0.0079 0.5363 0.8440
vn -0.0000 -0.0079 1.0000
vn -0.7067 -0.0314 0.7068
vn 0.1340 -0.2050 0.9695
vn 0.2127 -0.8272 0.5200
vn 0.9950 0.0948 0.0315
vn 0.1340 -0.2049 0.9696
vn -0.7063 -0.0471 0.7064
vn 0.7067 0.0314 0.7068
vn -0.0000 -0.0863 0.9963
vn -0.7070 -0.0157 0.7070
vn 0.7027 -0.1105 0.7028
vn 0.7028 -0.1105 0.7028
vn -0.7034 -0.1027 0.7034
vn -0.7033 -0.1028 0.7034
vn 0.7092 -0.0709 0.7014
vn 0.0078 -0.0863 0.9962
vn -0.7014 -0.1261 0.7015
vn 0.7102 -0.0474 0.7024
vn 0.7102 -0.0473 0.7024
vn -0.0079 -0.1580 0.9874
vn -0.7083 -0.0866 0.7005
vn -0.7084 -0.0866 0.7005
vn 0.6994 -0.1807 0.6915
vn -0.1105 -0.8605 0.4973
vn -0.2129 -0.2444 0.9460
vn -0.2124 -0.2518 0.9442
vn -0.1105 -0.8365 0.5367
vn -0.2128 -0.2444 0.9460
vn -0.2665 0.5016 0.8230
vn -0.2671 0.4713 0.8406
vn -0.4795 -0.7545 0.4481
vn -0.5291 -0.2133 0.8213
vn -0.5273 -0.2283 0.8185
vn -0.4806 -0.7485 0.4570
vn -0.5291 -0.2132 0.8213
vn -0.5818 0.4009 0.7077
vn -0.5273 -0.2282 0.8185
vn -0.5832 0.4098 0.7014
vn -0.9947 0.0079 0.1026
vn -0.5830 0.0394 -0.8115
vn -0.5269 -0.7864 -0.3224
vn -0.3630 -0.1736 -0.9155
vn -0.8812 -0.4485 -0.1495
vn -0.6533 0.3227 -0.6848
vn -0.9985 0.0079 0.0550
vn -0.8493 0.4640 0.2516
vn -0.5846 -0.3081 0.7505
vn -0.9985 0.0079 0.0551
vn -0.8494 0.4640 0.2517
vn -0.6454 -0.0236 -0.7634
vn -1.0000 -0.0002 -0.0003
vn -0.8582 0.4330 -0.2756
vn -0.7421 -0.3552 -0.5684
vn -0.6454 0.6768 0.3541
vn -0.6454 -0.6768 -0.3541
vn -0.6454 0.0236 0.7634
vn -0.7421 0.3552 0.5684
vn -0.7014 -0.0709 -0.7092
vn -0.9975 -0.0707 -0.0000
vn -0.7014 -0.0709 0.7092
vn -0.7005 -0.0866 -0.7083
vn -0.9947 -0.1026 -0.0000
vn -0.9947 -0.1027 -0.0000
vn -0.7005 -0.0866 0.7083
vn -0.9999 0.0157 -0.0000
vn -0.7100 0.0552 -0.7021
vn -0.7100 0.0552 -0.7020
vn -0.9999 0.0158 -0.0000
vn -0.7068 -0.0314 -0.7067
vn -0.9992 -0.0393 -0.0000
vn -0.7068 -0.0314 0.7067
vn -0.7064 -0.0471 -0.7063
vn -0.9980 -0.0629 -0.0000
vn -0.7063 -0.0471 0.7063
vn -0.7064 -0.0471 0.7063
vn -0.9985 0.0550 0.0079
vn -0.7084 0.0866 -0.7005
vn -0.7034 -0.1027 -0.7034
vn -0.9939 -0.1104 -0.0002
vn -0.9939 -0.1106 -0.0000
vn -0.7034 -0.1027 0.7033
vn -0.7015 -0.1261 -0.7014
vn -0.9900 -0.1414 -0.0000
vn -0.7015 -0.1261 0.7015
vn -0.7015 -0.1261 0.7014
vn -0.7070 0.0157 -0.7070
vn -0.9999 -0.0158 -0.0000
vn -0.9999 -0.0157 -0.0000
vn 0.0472 -0.4087 0.9115
vn 0.0157 -0.9352 0.3537
vn 0.0157 -0.9289 0.3700
vn 0.0471 -0.3926 0.9185
vn 0.0157 -0.9353 0.3536
vn -0.0315 -0.9121 -0.4088
vn -0.0314 -0.9191 -0.3928
vn -0.2913 -0.8032 0.5196
vn 0.0079 -0.9223 0.3863
vn 0.0237 -0.9221 -0.3862
vn 0.0236 -0.9377 0.3467
vn -0.2203 -0.9444 0.2439
vn 0.0236 -0.9997 -0.0000
vn 0.2684 -0.9317 0.2448
vn 0.3700 -0.9290 -0.0000
vn -0.3233 -0.9463 -0.0000
vn 0.2684 -0.9317 -0.2447
vn -0.2201 -0.9446 -0.2436
vn 0.0236 -0.9377 -0.3467
vn 0.2795 -0.9287 -0.2439
vn 0.2835 -0.4724 -0.8346
vn 0.9950 0.0948 0.0316
vn -0.0628 -0.9593 0.2752
vn -0.3067 -0.9359 0.1731
vn -0.0632 -0.9955 -0.0711
vn 0.1810 -0.9681 0.1731
vn 0.2823 -0.9567 -0.0706
vn -0.4017 -0.9136 -0.0630
vn 0.1815 -0.9313 -0.3157
vn -0.3079 -0.9002 -0.3080
vn -0.0632 -0.9094 -0.4112
vn 0.0551 -0.9365 0.3463
vn -0.1886 -0.9513 0.2437
vn 0.0549 -0.9985 -0.0001
vn 0.2923 -0.9244 0.2449
vn 0.3929 -0.9196 -0.0000
vn -0.2922 -0.9563 -0.0002
vn 0.2923 -0.9244 -0.2449
vn -0.1887 -0.9513 -0.2437
vn 0.0551 -0.9365 -0.3463
vn 0.1817 -0.3950 0.9005
vn 0.1891 -0.9217 0.3388
vn 0.0315 -0.5508 -0.8340
vn -0.0078 -0.9677 -0.2518
vn 0.0316 -0.5212 -0.8528
vn -0.0157 -0.9819 -0.1886
vn 0.0552 -0.9700 -0.2366
vn -0.0000 -0.5364 -0.8440
vn -0.0000 -0.5272 -0.8497
vn 0.0550 -0.9740 -0.2199
vn 0.0787 -0.8506 0.5198
vn 0.0868 -0.8444 0.5287
vn 0.3069 -0.8736 -0.3777
vn -0.0633 -0.4272 -0.9019
vn 0.4983 -0.7357 0.4588
vn 0.8650 -0.4246 0.2673
vn -0.1180 -0.4722 -0.8736
vn -0.3844 -0.9021 -0.1961
vn -0.1182 -0.5832 -0.8037
vn -0.0631 -0.6225 -0.7801
vn -0.6453 -0.6769 -0.3541
vn -0.0236 -0.8282 -0.5600
vn 0.0079 -0.1809 -0.9835
vn 0.0157 -0.7452 -0.6667
vn -0.8582 -0.4331 0.2756
vn -0.4984 -0.7357 0.4587
vn 0.4728 -0.7959 -0.3782
vn 0.0236 -0.9986 0.0472
vn -0.1804 -0.9020 0.3922
vn -0.1650 -0.3771 0.9113
vn 0.0079 -0.9224 0.3863
vn 0.1890 -0.9217 0.3387
vn 0.0236 -0.9221 -0.3862
vn 0.1888 -0.8891 -0.4170
vn 0.2105 -0.8278 0.5200
vn 0.2758 -0.9297 -0.2442
vn 0.4805 -0.8351 0.2679
vn 0.4637 -0.3773 0.8017
vn 0.5133 -0.3712 0.7738
vn 0.4404 -0.8493 0.2910
vn -0.1984 -0.9111 -0.3612
vn 0.4485 -0.7947 -0.4091
vn 0.4095 -0.8191 -0.4016
vn 0.4805 -0.8351 0.2678
vn 0.4404 -0.8494 0.2910
vn 0.1891 -0.9217 0.3387
vn -0.0157 -0.9820 -0.1885
vn -0.0078 -0.9678 -0.2517
vn -0.1105 -0.8365 0.5366
vn 0.8493 -0.4640 -0.2517
vn 0.1101 -0.5033 0.8571
vn 0.0236 0.0394 0.9989
vn -0.0236 -0.5744 0.8182
vn 0.0237 -0.9997 -0.0000
vn 0.0550 -0.9985 -0.0000
vn 0.0547 -0.9985 -0.0000
vn 0.0548 -0.9985 -0.0000
vn 0.0552 -0.9985 -0.0000
vn 0.0551 -0.9985 -0.0000
vn 0.0553 -0.9985 -0.0000
vn -0.5025 -0.4868 -0.7145
vn -0.4728 -0.8589 -0.1970
vn -0.4641 -0.8654 -0.1889
vn -0.5034 -0.4720 -0.7237
vn -0.4795 -0.7546 0.4480
vn -0.4642 -0.8654 -0.1888
vn -0.4806 -0.7485 0.4569
vn 0.0473 -0.3628 -0.9307
vn 0.0236 0.5027 -0.8641
vn 0.0707 0.4555 -0.8874
vn 0.3712 0.8610 -0.3476
vn -0.6533 0.3227 -0.6849
vn 0.0631 0.3392 -0.9386
vn -0.5665 0.6058 -0.5587
vn 0.0867 0.3943 -0.9149
vn -0.0314 -0.9120 -0.4089
vn -0.0630 -0.3625 -0.9298
vn -0.0631 -0.3625 -0.9298
vn -0.0632 0.3950 -0.9165
vn -0.0631 -0.3624 -0.9299
vn -0.0630 -0.3625 -0.9299
vn -0.0628 0.4082 -0.9107
vn 0.2365 0.2523 -0.9383
vn 0.1648 0.8395 -0.5178
vn -0.0157 0.2202 -0.9753
vn 0.0316 -0.5212 -0.8529
vn -0.0158 0.2127 -0.9770
vn 0.0315 -0.5508 -0.8341
vn -0.0157 0.2203 -0.9753
vn -0.0158 0.2128 -0.9770
vn -0.1337 0.8491 -0.5110
vn -0.0471 0.2200 -0.9744
vn -0.0868 0.8443 -0.5287
vn -0.0628 0.2198 -0.9735
vn -0.4983 0.7356 -0.4588
vn -0.0000 -0.5271 -0.8498
vn -0.3852 0.2201 -0.8962
vn -0.0000 -0.5363 -0.8440
vn 0.6224 -0.4176 -0.6619
vn 0.5377 -0.6801 -0.4983
vn -0.6454 -0.0236 -0.7635
vn -0.1334 -0.5260 -0.8400
vn 0.5374 -0.1502 -0.8298
vn -0.7421 -0.3553 -0.5684
vn -0.6453 -0.6768 -0.3542
vn -0.1182 -0.5831 -0.8038
vn -0.0630 -0.6225 -0.7801
vn 0.3065 0.0393 -0.9510
vn 0.0079 -0.1810 -0.9835
vn -0.0236 -0.8281 -0.5600
vn 0.0157 -0.7451 -0.6667
vn 0.4728 -0.7959 -0.3783
vn 0.7067 -0.0314 -0.7068
vn -0.0000 -0.0472 -0.9989
vn -0.7014 -0.0709 -0.7093
vn -0.7005 -0.0866 -0.7084
vn -0.0000 0.0236 -0.9997
vn -0.7099 0.0552 -0.7021
vn 0.1809 -0.3462 -0.9205
vn 0.0474 -0.3628 -0.9307
vn 0.1809 -0.3462 -0.9206
vn 0.1652 0.3932 -0.9045
vn 0.0158 0.2924 -0.9562
vn -0.3311 0.8119 -0.4809
vn 0.6209 -0.0943 -0.7782
vn 0.0157 0.6667 -0.7452
vn 0.0394 0.5830 -0.8115
vn 0.4983 0.7356 -0.4588
vn 0.0079 -0.0550 -0.9985
vn 0.3309 -0.3545 -0.8745
vn -0.0000 -0.0079 -1.0000
vn -0.7067 -0.0314 -0.7068
vn -0.2130 -0.3629 -0.9072
vn -0.1965 -0.9115 -0.3615
vn 0.7067 0.0314 -0.7068
vn -0.0000 -0.0078 -1.0000
vn -0.7063 -0.0471 -0.7064
vn 0.4241 0.3378 -0.8403
vn 0.4000 0.8391 -0.3686
vn 0.4484 0.8102 -0.3776
vn 0.4245 -0.3145 -0.8490
vn 0.4095 -0.8191 -0.4017
vn 0.4484 -0.7946 -0.4092
vn 0.3842 -0.3294 -0.8625
vn 0.1810 -0.3462 -0.9205
vn -0.0000 0.0629 -0.9980
vn 0.7031 -0.0079 -0.7111
vn -0.2121 0.4085 -0.8878
vn -0.2130 -0.3628 -0.9072
vn 0.3842 -0.3293 -0.8625
vn 0.4241 0.3377 -0.8403
vn 0.3770 0.3534 -0.8561
vn 0.4245 -0.3145 -0.8491
vn -0.5604 0.1579 -0.8130
vn -0.5611 0.1501 -0.8140
vn -0.5035 -0.4719 -0.7237
vn -0.0000 -0.0863 -0.9963
vn 0.7092 -0.0709 -0.7014
vn -0.7033 -0.1027 -0.7034
vn -0.6064 0.6616 -0.4411
vn -0.5611 0.1502 -0.8140
vn -0.6085 0.6639 -0.4347
vn 0.0078 -0.0863 -0.9962
vn 0.7102 -0.0474 -0.7024
vn -0.7014 -0.1261 -0.7015
vn -0.0079 -0.0079 -0.9999
vn 0.7009 -0.0788 -0.7089
vt 0.839346 0.771844
vt 0.793335 0.720604
vt 0.825930 0.692490
vt 0.800737 0.764387
vt 0.774801 0.800546
vt 0.792340 0.837379
vt 0.756930 0.694844
vt 0.759949 0.645800
vt 0.730721 0.807898
vt 0.712446 0.850705
vt 0.712850 0.702196
vt 0.680055 0.659127
vt 0.694317 0.782138
vt 0.646465 0.804016
vt 0.686914 0.738355
vt 0.633049 0.724661
vt 0.599295 0.578732
vt 0.650108 0.536912
vt 0.627082 0.591403
vt 0.602275 0.646228
vt 0.624813 0.518346
vt 0.593096 0.511842
vt 0.571804 0.639490
vt 0.570070 0.566332
vt 0.525323 0.661629
vt 0.549707 0.684339
vt 0.545263 0.621158
vt 0.694418 0.616551
vt 0.711396 0.575950
vt 0.728814 0.603801
vt 0.680946 0.595010
vt 0.667475 0.573470
vt 0.693979 0.548100
vt 0.621596 0.533567
vt 0.653930 0.704599
vt 0.615606 0.704205
vt 0.653930 0.533900
vt 0.686264 0.533567
vt 0.692254 0.704205
vt 0.653930 0.535425
vt 0.615606 0.705305
vt 0.621596 0.534691
vt 0.653930 0.706175
vt 0.692254 0.705305
vt 0.686264 0.534691
vt 0.631348 0.528876
vt 0.650278 0.713140
vt 0.611981 0.711376
vt 0.663660 0.530365
vt 0.695843 0.533602
vt 0.688424 0.716978
vt 0.650496 0.614070
vt 0.633079 0.586220
vt 0.667913 0.641920
vt 0.653930 0.650606
vt 0.640491 0.794088
vt 0.641622 0.650479
vt 0.653930 0.794226
vt 0.667369 0.794088
vt 0.666239 0.650479
vt 0.653930 0.651143
vt 0.640491 0.794335
vt 0.641622 0.650864
vt 0.653930 0.794640
vt 0.667369 0.794335
vt 0.666239 0.650864
vt 0.641671 0.662136
vt 0.643514 0.805533
vt 0.630084 0.804914
vt 0.653971 0.662703
vt 0.666222 0.663935
vt 0.656891 0.806879
vt 0.613552 0.748271
vt 0.653930 0.784787
vt 0.611382 0.784349
vt 0.653930 0.748687
vt 0.694309 0.748271
vt 0.696478 0.784349
vt 0.613552 0.749381
vt 0.653930 0.786446
vt 0.611382 0.785481
vt 0.653930 0.750297
vt 0.694309 0.749381
vt 0.696478 0.785481
vt 0.606734 0.754909
vt 0.644473 0.792429
vt 0.601955 0.790471
vt 0.647084 0.756768
vt 0.687275 0.760811
vt 0.686823 0.796690
vt 1.296370 0.791459
vt 1.220880 0.560875
vt 1.318800 0.566789
vt 1.198390 0.786122
vt 0.275814 0.642760
vt 0.233763 0.611269
vt 0.277414 0.618458
vt 0.216729 0.633029
vt 0.161665 0.643560
vt 0.174498 0.613089
vt 0.208465 0.665658
vt 0.273942 0.676441
vt 1.238780 0.398429
vt 1.336660 0.404759
vt 0.487187 0.585409
vt 0.473773 0.590896
vt 0.473773 0.571941
vt 0.460358 0.585280
vt 0.454801 0.571850
vt 0.460358 0.558474
vt 0.473773 0.552986
vt 0.487187 0.558602
vt 0.492744 0.572032
vt 0.669528 0.574873
vt 0.656104 0.580440
vt 0.656104 0.561434
vt 0.642681 0.574873
vt 0.637120 0.561434
vt 0.642681 0.547995
vt 0.656104 0.542429
vt 0.669528 0.547995
vt 0.675088 0.561434
vt 0.516929 0.613816
vt 0.474457 0.631190
vt 0.474457 0.571179
vt 0.534521 0.571466
vt 0.516929 0.528948
vt 0.431986 0.613409
vt 0.474457 0.511168
vt 0.414394 0.570891
vt 0.431986 0.528541
vt -0.229630 0.502515
vt -0.230516 0.458434
vt 0.080091 0.449671
vt 0.698030 0.603982
vt 0.655531 0.621606
vt 0.655531 0.561434
vt 0.715634 0.561434
vt 0.698030 0.518886
vt 0.613032 0.603982
vt 0.655531 0.501263
vt 0.595428 0.561434
vt 0.613032 0.518886
vt 0.337927 0.574873
vt 0.324487 0.580440
vt 0.324487 0.561434
vt 0.311047 0.574873
vt 0.305481 0.561434
vt 0.311047 0.547995
vt 0.324487 0.542429
vt 0.337927 0.547995
vt 0.343493 0.561434
vt 0.366777 0.603982
vt 0.324227 0.621606
vt 0.324227 0.561434
vt 0.384402 0.561434
vt 0.366777 0.518886
vt 0.281677 0.603982
vt 0.324227 0.501263
vt 0.264053 0.561434
vt 0.281677 0.518886
vt 0.084695 0.460393
vt 0.801085 0.491931
vt 0.083352 0.490177
vt 0.869866 0.501703
vt 0.889100 0.550538
vt 0.851900 0.530814
vt 0.801085 0.453589
vt 0.084312 0.424328
vt 0.877308 0.464418
vt 0.920217 0.528400
vt 0.933107 0.494004
vt 0.041736 0.466957
vt -0.187552 0.423025
vt 0.041118 0.408812
vt -0.185946 0.502918
vt 0.645311 0.676321
vt 0.650283 0.626513
vt 0.517953 0.603750
vt 0.479698 0.619399
vt 0.479698 0.565345
vt 0.533799 0.565604
vt 0.517953 0.527307
vt 0.441443 0.603383
vt 0.479698 0.511292
vt 0.425597 0.565086
vt 0.441443 0.526941
vt 0.689426 0.599758
vt 0.651146 0.615632
vt 0.651146 0.561434
vt 0.705282 0.561434
vt 0.689426 0.523110
vt 0.612866 0.599758
vt 0.651146 0.507236
vt 0.597010 0.561434
vt 0.612866 0.523110
vt 0.360565 0.599758
vt 0.322239 0.615632
vt 0.322239 0.561434
vt 0.376440 0.561434
vt 0.360565 0.523110
vt 0.283914 0.599758
vt 0.322239 0.507236
vt 0.268039 0.561434
vt 0.283914 0.523110
vt 0.898863 0.780492
vt 0.905232 0.708942
vt 1.184500 0.942223
vt -0.227413 0.422030
vt 0.654242 0.590592
vt 0.500135 0.653801
vt 1.318670 0.611927
vt 1.306900 0.729844
vt 0.915538 0.605698
vt 0.257376 0.606903
vt 0.231241 0.580756
vt 0.252744 0.573556
vt 0.240745 0.612472
vt 0.279580 0.605763
vt 0.281451 0.572082
vt 0.801085 0.561361
vt 0.283052 0.547780
vt 0.238645 0.550060
vt 0.801085 0.538802
vt 0.801085 0.599702
vt 0.801085 0.631367
vt 0.278534 0.629094
vt 0.833935 0.595035
vt 0.826493 0.557751
vt 0.851900 0.624148
vt 0.857982 0.582285
vt 0.845092 0.547889
vt 0.889100 0.604424
vt 0.801085 0.523595
vt 1.297530 0.814886
vt 0.923744 0.531240
vt 0.039571 0.514976
vt -0.191572 0.568899
vt -0.173546 0.768098
vt -0.176372 0.542228
vt -0.078364 0.541923
vt -0.075530 0.768373
vt -0.089428 0.931858
vt -0.187408 0.931163
vt 0.836070 0.676899
vt 0.900502 0.684339
vt 0.835025 0.701262
vt 0.895155 0.661629
vt 0.835678 0.643154
vt 0.879330 0.631871
vt 0.937386 0.621158
vt 0.882465 0.593170
vt 0.862296 0.612498
vt 0.910529 0.601972
vt 0.951447 0.566332
vt 0.889180 0.566986
vt 0.920918 0.561467
vt 0.880643 0.540962
vt 0.933571 0.511842
vt 0.907711 0.521209
vt 0.466102 0.645174
vt 0.466729 0.695248
vt 0.463656 0.731399
vt 0.188750 0.672383
vt 0.206252 0.621965
vt 0.219867 0.665046
vt 0.307882 0.465766
vt 0.828440 0.458267
vt 0.307882 0.497443
vt 0.231659 0.483081
vt 0.239101 0.513069
vt 0.175860 0.530388
vt 0.257067 0.547345
vt 0.219867 0.578884
vt 0.188750 0.555757
vt 0.170320 0.614070
vt 0.608832 0.660881
vt -0.215499 0.723155
vt -0.216982 0.604608
vt -0.209707 0.519024
vt 0.786728 0.703253
vt 0.758626 0.531960
vt 0.790962 0.532764
vt 0.748402 0.702301
vt 0.823297 0.533567
vt 0.825053 0.704205
vt 0.208806 0.606356
vt 0.210104 0.710151
vt 0.457821 0.703205
vt 0.434865 0.531147
vt 0.467162 0.532919
vt 0.419541 0.701105
vt 0.499459 0.534691
vt 0.496101 0.705305
vt 0.617211 0.530010
vt 0.629269 0.712719
vt 0.584935 0.533100
vt 0.591014 0.716383
vt 0.649487 0.528876
vt 0.667524 0.711376
vt 0.203735 0.785085
vt 0.888547 0.472287
vt 0.874447 0.491987
vt 0.859140 0.522071
vt 0.851591 0.544916
vt 0.868222 0.559528
vt 0.829387 0.539737
vt 0.830041 0.481629
vt 0.830433 0.515375
vt 0.307882 0.558370
vt 0.307882 0.535802
vt 0.242183 0.614070
vt 0.250985 0.586220
vt 0.282474 0.632320
vt 0.250985 0.641920
vt 0.263875 0.616551
vt 0.275032 0.662308
vt 0.307882 0.638092
vt 0.307882 0.669770
vt 1.029780 0.683272
vt 1.027900 0.713010
vt 0.307882 0.708128
vt 1.025610 0.749018
vt 0.257067 0.696584
vt 0.784480 0.793754
vt 0.775737 0.649868
vt 0.788046 0.650173
vt 0.771040 0.793420
vt 0.800355 0.650479
vt 0.797920 0.794088
vt 1.331100 0.764387
vt 1.326750 0.800546
vt 1.028880 0.729057
vt 1.336380 0.720604
vt 0.452863 0.793599
vt 0.448435 0.649515
vt 0.460730 0.650189
vt 0.439439 0.792862
vt 0.473024 0.650864
vt 0.466286 0.794335
vt 0.625794 0.662567
vt 0.635194 0.805385
vt 0.613507 0.663744
vt 0.621780 0.806670
vt 0.638080 0.662136
vt 0.648609 0.804914
vt 0.784740 0.783293
vt 0.745254 0.746265
vt 0.785634 0.747268
vt 0.742190 0.782236
vt 0.826015 0.748271
vt 0.827290 0.784349
vt 0.453436 0.783149
vt 0.415078 0.744955
vt 0.455410 0.747168
vt 0.410937 0.780817
vt 0.495742 0.749381
vt 0.495935 0.785481
vt 0.632151 0.756324
vt 0.634509 0.791962
vt 0.591844 0.760184
vt 0.592038 0.796029
vt 0.672457 0.754909
vt 0.676981 0.790471
vt 1.076110 0.663134
vt 1.310100 0.724661
vt 1.073070 0.711078
vt 1.318000 0.659127
vt 1.069400 0.769131
vt 1.300540 0.804016
vt 0.293886 0.553663
vt 0.505530 0.519024
vt 0.423810 0.604608
vt 0.449586 0.390599
vt 0.426160 0.723155
vt 0.298362 0.779534
vt 0.511201 0.805224
vt 0.460392 0.935899
vt 0.685062 0.931163
vt 0.629118 0.802738
vt 0.840762 0.768098
vt 0.710838 0.717153
vt 0.708488 0.598606
vt 0.836286 0.542228
vt 0.623447 0.516538
vt 0.674256 0.385862
vt 0.497203 0.618240
vt 0.531110 0.614859
vt 0.506726 0.637568
vt 0.523744 0.599909
vt 0.485356 0.592056
vt 0.514581 0.579656
vt 0.506075 0.559528
vt 0.474359 0.566032
vt 0.542368 0.566986
vt 0.554215 0.593170
vt 0.531371 0.540962
vt 0.361102 0.634264
vt 0.428021 0.595010
vt 0.387606 0.659633
vt 0.397571 0.575950
vt 0.422002 0.672383
vt 0.434039 0.517637
vt 0.468435 0.530388
vt 0.494939 0.555757
vt 0.458471 0.614070
vt 0.416713 0.702301
vt 0.422703 0.531960
vt 0.455037 0.701907
vt 0.455037 0.531628
vt 0.487371 0.531960
vt 0.493361 0.702301
vt 0.416713 0.701105
vt 0.422703 0.531147
vt 0.455037 0.700235
vt 0.455037 0.530414
vt 0.487371 0.531147
vt 0.493361 0.701105
vt 0.445745 0.536338
vt 0.420910 0.721984
vt 0.413433 0.537826
vt 0.459207 0.720220
vt 0.497353 0.716383
vt 0.477928 0.533100
vt 0.441598 0.793420
vt 0.442728 0.649868
vt 0.455037 0.793282
vt 0.455037 0.649741
vt 0.467345 0.649868
vt 0.468476 0.793420
vt 0.441598 0.792862
vt 0.442728 0.649515
vt 0.455037 0.792557
vt 0.455037 0.649235
vt 0.467345 0.649515
vt 0.468476 0.792862
vt 0.455162 0.664977
vt 0.452205 0.808634
vt 0.442862 0.665543
vt 0.465635 0.808015
vt 0.479011 0.806670
vt 0.467414 0.663744
vt 0.412489 0.782236
vt 0.414658 0.746265
vt 0.455037 0.781798
vt 0.455037 0.745850
vt 0.495415 0.746265
vt 0.497584 0.782236
vt 0.412489 0.780817
vt 0.414658 0.744955
vt 0.455037 0.779852
vt 0.455037 0.744039
vt 0.495415 0.744955
vt 0.497584 0.780817
vt 0.422551 0.802248
vt 0.422078 0.766086
vt 0.465069 0.800289
vt 0.462429 0.764227
vt 0.502620 0.760184
vt 0.507419 0.796029
vt -0.176372 0.942684
vt -0.194229 0.780653
vt -0.096267 0.775289
vt -0.078364 0.937735
vt -0.216656 0.555984
vt -0.118751 0.550042
vt 0.835678 0.699085
vt 0.862296 0.670136
vt 0.879330 0.691896
vt 0.834077 0.674783
vt 0.832206 0.641102
vt 0.854032 0.637507
vt 0.882465 0.660613
vt 0.869632 0.630142
vt 0.790962 0.607161
vt 0.758626 0.593768
vt 0.791378 0.561434
vt 0.823297 0.593768
vt 0.836691 0.561434
vt 0.745232 0.561434
vt 0.823297 0.529100
vt 0.758626 0.529100
vt 0.790962 0.515707
vt 1.325860 0.484644
vt 1.328970 0.521048
vt 1.028880 0.449671
vt 0.617211 0.597528
vt 0.584935 0.584325
vt 0.616114 0.550702
vt 0.649487 0.584016
vt 0.662856 0.551705
vt 0.571566 0.552142
vt 0.649487 0.519521
vt 0.584935 0.519831
vt 0.617211 0.506319
vt 0.467162 0.607161
vt 0.434865 0.593768
vt 0.468080 0.561434
vt 0.499459 0.593768
vt 0.512837 0.561434
vt 0.421488 0.561434
vt 0.499459 0.529100
vt 0.434865 0.529100
vt 0.467162 0.515707
vt 0.466102 0.709847
vt 0.462143 0.673926
vt 1.313980 0.389435
vt 1.076730 0.432385
vt 1.074570 0.384366
vt 1.319600 0.455415
vt 1.030160 0.438949
vt 0.307882 0.437469
vt 1.028820 0.409165
vt 0.307882 0.469134
vt 1.029780 0.475014
vt 0.307882 0.507475
vt 0.275032 0.473801
vt 0.257067 0.444689
vt 0.282474 0.511085
vt 0.250985 0.486551
vt 0.263875 0.520947
vt 0.219867 0.464412
vt 0.239101 0.567134
vt 0.219867 0.518298
vt 0.257067 0.538022
vt 0.188750 0.540437
vt 0.307882 0.576906
vt 0.307882 0.545241
vt 0.825523 0.547093
vt 0.175860 0.574833
vt 0.231659 0.604418
vt 0.893179 0.573844
vt 0.828440 0.604105
vt 0.826569 0.570424
vt 0.307882 0.615247
vt 0.608832 0.653801
vt -0.206126 0.617598
vt -0.215499 0.532557
vt 0.457171 0.624118
vt 1.326750 0.440563
vt 0.208806 0.778435
vt 0.200600 0.703977
vt -0.194356 0.735516
vt 0.190294 0.600733
vt 1.076110 0.490530
vt 1.318000 0.535309
vt 0.943074 0.590552
vt 0.888547 0.607192
vt 0.933571 0.622268
vt 0.874447 0.630687
vt 0.830041 0.628407
vt 0.307882 0.637806
vt 0.785634 0.618538
vt 0.745254 0.601813
vt 0.785634 0.561434
vt 0.826015 0.601813
vt 0.842741 0.561434
vt 0.728528 0.561434
vt 0.826015 0.521056
vt 0.745254 0.521056
vt 0.785634 0.504330
vt 0.455410 0.618538
vt 0.415078 0.601813
vt 0.455410 0.561434
vt 0.495742 0.601813
vt 0.512448 0.561434
vt 0.398371 0.561434
vt 0.495742 0.521056
vt 0.415078 0.521056
vt 0.455410 0.504330
vt 0.632151 0.625505
vt 0.591844 0.609017
vt 0.632151 0.568553
vt 0.672457 0.608631
vt 0.689152 0.568280
vt 0.575149 0.568826
vt 0.672457 0.528089
vt 0.591844 0.528476
vt 0.632151 0.511602
vt 0.249588 0.637568
vt 0.276761 0.620500
vt 0.277807 0.644862
vt 0.254935 0.614859
vt 0.233763 0.667326
vt 0.277414 0.678608
vt 0.202563 0.637426
vt 0.229419 0.618240
vt 0.216729 0.686699
vt 0.222704 0.592056
vt 0.205382 0.556664
vt 0.231241 0.566032
vt 0.192175 0.596921
vt 0.160437 0.591403
vt 0.178314 0.536912
vt 0.174498 0.646228
vt 1.325620 0.390599
vt 1.339480 0.553663
vt 1.241610 0.553387
vt 1.227720 0.389904
vt 1.336660 0.779534
vt 1.238780 0.779839
vt -0.219998 0.782138
vt -0.225274 0.738355
vt 0.080091 0.729057
vt -0.229630 0.702196
vt -0.195448 0.771844
vt 0.034401 0.687542
vt 0.038080 0.745595
vt -0.205009 0.692490
vt 0.041118 0.793539
vt -0.187552 0.837379
vt 0.082427 0.734420
vt 0.801085 0.724255
vt 0.084312 0.764157
vt 0.801085 0.692577
vt 0.877308 0.706940
vt 0.080146 0.698411
vt 0.869866 0.676952
vt 0.933107 0.659633
vt 0.801085 0.654219
vt 0.851900 0.642675
vt 0.889100 0.611137
vt 0.866784 0.575950
vt 0.857982 0.603801
vt 0.920217 0.634264
vt 0.902715 0.568056
vt 0.857982 0.548100
vt 0.938647 0.575950
vt 0.920217 0.517637
vt 0.889100 0.524974
vt 0.851900 0.493436
vt 0.833935 0.527713
vt 0.801085 0.481893
vt 0.282398 0.458975
vt 0.801085 0.459324
vt 0.283444 0.483337
vt 0.215788 0.474512
vt 0.283914 0.704205
vt 0.285670 0.533567
vt 0.322239 0.703253
vt 0.318005 0.532764
vt 0.350341 0.531960
vt 0.360565 0.702301
vt 0.612866 0.705305
vt 0.609508 0.534691
vt 0.651146 0.703205
vt 0.641805 0.532919
vt 0.674101 0.531147
vt 0.689426 0.701105
vt 0.491756 0.536693
vt 0.441443 0.716978
vt 0.459480 0.533602
vt 0.479698 0.720641
vt 0.517953 0.721984
vt 0.524032 0.537826
vt 0.651796 0.611558
vt 0.654868 0.647709
vt 0.654242 0.697783
vt 0.238645 0.527442
vt 0.252744 0.547141
vt 0.801085 0.551929
vt 0.281451 0.540445
vt 0.801085 0.520251
vt 0.826493 0.557701
vt 0.283052 0.517083
vt 0.223337 0.497357
vt 0.165893 0.518346
vt 0.845092 0.573470
vt 0.311047 0.794088
vt 0.308612 0.650479
vt 0.324487 0.793754
vt 0.320921 0.650173
vt 0.333230 0.649868
vt 0.337927 0.793420
vt 0.500135 0.660881
vt 1.296050 0.717153
vt 1.303320 0.802738
vt 0.642681 0.794335
vt 0.635943 0.650864
vt 0.656104 0.793599
vt 0.648237 0.650189
vt 0.660532 0.649515
vt 0.669528 0.792862
vt 0.923744 0.715406
vt 0.915538 0.787262
vt 1.220880 0.936606
vt 0.918673 0.536677
vt 0.925043 0.611610
vt 0.483173 0.665112
vt 0.460358 0.806879
vt 0.470887 0.663935
vt 0.473773 0.808163
vt 0.487187 0.808634
vt 0.495460 0.665543
vt 1.297530 0.598606
vt 0.324227 0.783293
vt 0.281677 0.784349
vt 0.282952 0.748271
vt 0.323333 0.747268
vt 0.363713 0.746265
vt 0.366777 0.782236
vt 0.655531 0.783149
vt 0.613032 0.785481
vt 0.613225 0.749381
vt 0.653557 0.747168
vt 0.693889 0.744955
vt 0.698030 0.780817
vt 0.476816 0.764670
vt 0.431986 0.796690
vt 0.436510 0.760811
vt 0.474457 0.800757
vt 0.516929 0.802248
vt 0.517122 0.766086
s 1
usemtl Handle1Mtl.060
f 1/1/1 2/2/2 3/3/3
f 2/2/2 1/1/1 4/4/4
f 5/1/5 6/5/6 7/4/7
f 6/5/6 5/1/5 8/6/8
f 9/3/9 10/7/10 11/8/11
f 10/7/10 9/3/9 12/2/2
f 13/9/12 14/5/13 15/6/14
f 15/6/14 16/10/15 13/9/12
f 17/8/16 18/11/17 19/12/18
f 18/11/17 17/8/16 20/7/10
f 21/13/19 22/10/20 23/14/21
f 22/10/20 21/13/19 24/9/22
f 25/15/23 26/12/24 27/11/25
f 26/12/24 25/15/23 28/16/23
f 29/14/26 30/16/27 31/15/23
f 29/14/26 31/15/23 32/13/28
f 36/17/29 34/18/30 33/19/31
f 35/20/32 36/17/29 33/19/31
f 34/18/30 36/17/29 37/21/33
f 36/17/29 38/22/34 37/21/33
f 36/17/29 35/20/32 39/23/35
f 38/22/34 36/17/29 40/24/36
f 42/25/37 39/23/35 41/26/38
f 43/27/39 36/17/29 39/23/35
f 39/23/35 42/25/37 43/27/39
f 36/17/29 43/27/39 40/24/36
f 45/28/40 46/29/41 44/30/42
f 46/29/41 45/28/40 47/31/43
f 48/32/44 46/29/41 47/31/43
f 46/29/41 48/32/44 49/33/45
f 50/34/46 52/35/47 51/36/46
f 52/35/47 50/34/46 53/37/47
f 54/38/48 52/35/47 53/37/47
f 52/35/47 54/38/48 55/39/49
f 58/40/50 57/41/51 56/42/51
f 57/41/51 58/40/50 59/43/50
f 58/40/50 60/44/52 59/43/50
f 60/44/52 58/40/50 61/45/53
f 62/46/54 64/47/55 63/48/56
f 64/47/55 62/46/54 65/49/57
f 66/50/58 64/47/55 65/49/57
f 64/47/55 66/50/58 67/51/58
f 69/32/44 70/52/59 68/53/60
f 70/52/59 69/32/44 71/31/43
f 72/28/40 70/52/59 71/31/43
f 70/52/59 72/28/40 73/54/61
f 76/55/62 75/56/63 74/57/64
f 75/56/63 76/55/62 77/58/62
f 76/55/62 78/59/65 77/58/62
f 78/59/65 76/55/62 79/60/65
f 82/61/66 81/62/67 80/63/67
f 81/62/67 82/61/66 83/64/68
f 82/61/66 84/65/69 83/64/68
f 84/65/69 82/61/66 85/66/69
f 86/67/70 88/68/71 87/69/72
f 88/68/71 86/67/70 89/70/73
f 90/71/74 88/68/71 89/70/73
f 88/68/71 90/71/74 91/72/75
f 92/73/76 94/74/77 93/75/78
f 94/74/77 92/73/76 95/76/79
f 96/77/80 94/74/77 95/76/79
f 94/74/77 96/77/80 97/78/81
f 98/79/82 100/80/83 99/81/84
f 100/80/83 98/79/82 101/82/85
f 102/83/86 100/80/83 101/82/85
f 100/80/83 102/83/86 103/84/87
f 104/85/88 106/86/89 105/87/88
f 106/86/89 104/85/88 107/88/89
f 108/89/90 106/86/89 107/88/89
f 106/86/89 108/89/90 109/90/91
f 110/91/92 111/92/93 112/93/94
f 111/92/93 110/91/92 113/94/95
f 116/95/96 114/96/97 115/97/98
f 114/96/97 116/95/96 117/98/99
f 117/98/99 119/99/100 118/100/101
f 119/99/100 117/98/99 120/101/38
f 116/95/96 120/101/38 117/98/99
f 120/101/38 116/95/96 121/102/102
f 122/103/103 123/93/104 124/92/105
f 123/93/104 122/103/103 125/104/106
f 126/105/107 127/106/107 128/107/107
f 129/106/107 130/108/107 131/107/107
f 132/108/107 133/109/107 134/107/107
f 135/109/107 136/110/107 137/107/107
f 138/110/107 139/111/107 140/107/107
f 141/111/107 142/112/107 143/107/107
f 144/112/107 145/113/107 146/107/107
f 147/113/107 148/105/107 149/107/107
f 150/114/108 151/115/108 152/116/108
f 153/115/108 154/117/108 155/116/108
f 156/117/108 157/118/108 158/116/108
f 159/118/108 160/119/108 161/116/108
f 162/119/108 163/120/108 164/116/108
f 165/120/108 166/121/108 167/116/108
f 168/121/109 169/122/109 170/116/109
f 171/122/110 172/114/110 173/116/110
f 174/123/107 175/124/107 176/125/107
f 177/126/107 174/123/107 176/125/107
f 178/127/107 177/126/107 176/125/107
f 175/124/107 179/128/107 176/125/107
f 180/129/107 178/127/107 176/125/107
f 179/128/107 181/130/107 176/125/107
f 182/131/107 180/129/107 176/125/107
f 181/130/107 182/131/107 176/125/107
f 183/132/111 184/133/112 185/134/113
f 186/135/108 187/136/108 188/137/114
f 189/138/115 186/135/108 188/137/114
f 190/139/108 189/138/115 188/137/114
f 187/136/108 191/140/108 188/137/114
f 192/141/108 190/139/108 188/137/114
f 191/140/108 193/142/115 188/137/114
f 194/143/116 192/141/108 188/137/114
f 193/142/115 194/143/116 188/137/114
f 195/144/117 196/145/117 197/146/117
f 198/145/118 199/147/118 200/146/118
f 201/147/118 202/148/118 203/146/118
f 204/148/117 205/149/117 206/146/117
f 207/149/117 208/150/117 209/146/117
f 210/150/117 211/151/117 212/146/117
f 213/151/118 214/152/118 215/146/118
f 216/152/117 217/144/117 218/146/117
f 219/153/118 220/154/118 221/155/118
f 222/156/118 219/153/118 221/155/118
f 223/157/118 222/156/118 221/155/118
f 220/154/118 224/158/118 221/155/118
f 225/159/118 223/157/118 221/155/118
f 224/158/118 226/160/117 221/155/118
f 227/161/117 225/159/118 221/155/118
f 226/160/117 227/161/117 221/155/118
f 228/162/119 229/163/120 230/164/121
f 231/165/122 232/166/123 233/167/124
f 233/167/124 229/163/120 231/165/122
f 229/163/120 228/162/119 234/168/125
f 235/169/126 234/168/125 228/162/119
f 236/170/127 229/163/120 234/168/125
f 229/163/120 236/170/127 231/165/122
f 232/166/123 231/165/122 237/171/128
f 238/172/129 231/165/122 236/170/127
f 231/165/122 238/172/129 237/171/128
f 241/173/130 242/174/131 243/175/132
f 242/174/131 241/173/130 244/176/133
f 245/95/96 246/177/134 247/102/135
f 246/177/134 245/95/96 248/178/136
f 249/179/107 250/180/107 251/181/107
f 252/182/107 249/179/107 251/181/107
f 253/183/107 252/182/107 251/181/107
f 250/180/107 254/184/107 251/181/107
f 255/185/107 253/183/107 251/181/107
f 254/184/107 256/186/107 251/181/107
f 257/187/107 255/185/107 251/181/107
f 256/186/107 257/187/107 251/181/107
f 258/188/115 259/189/114 260/190/114
f 261/191/108 258/188/115 260/190/114
f 262/192/137 261/191/108 260/190/114
f 259/189/114 263/193/115 260/190/114
f 264/194/114 262/192/137 260/190/114
f 263/193/115 265/195/114 260/190/114
f 266/196/115 264/194/114 260/190/114
f 265/195/114 266/196/115 260/190/114
f 267/197/118 268/198/118 269/199/118
f 270/200/117 267/197/118 269/199/118
f 271/201/118 270/200/117 269/199/118
f 268/198/118 272/202/118 269/199/118
f 273/203/118 271/201/118 269/199/118
f 272/202/118 274/204/118 269/199/118
f 275/205/118 273/203/118 269/199/118
f 274/204/118 275/205/118 269/199/118
f 276/94/138 277/206/139 278/207/140
f 279/208/141 277/206/139 276/94/138
f 280/133/112 281/209/142 282/134/113
f 283/97/143 284/178/144 285/95/145
f 284/178/144 283/97/143 286/210/146
f 287/211/147 288/212/148 289/213/149
f 290/214/150 291/94/151 292/207/152
f 291/94/151 290/214/150 293/92/153
f 292/207/152 294/178/154 290/214/150
f 294/178/154 292/207/152 295/177/134
f 296/215/155 297/216/156 298/217/157
f 297/216/156 296/215/155 299/218/158
f 298/217/157 300/219/159 296/215/155
f 298/217/157 302/220/160 300/219/159
f 302/220/160 303/221/161 300/219/159
f 298/217/157 304/222/162 302/220/160
f 304/222/162 298/217/157 301/223/163
f 304/222/162 305/224/164 302/220/160
f 308/225/165 306/219/159 309/221/161
f 310/226/166 307/227/167 308/225/165
f 309/221/161 311/228/168 308/225/165
f 311/228/168 310/226/166 308/225/165
f 311/228/168 309/221/161 312/229/169
f 310/226/166 311/228/168 239/230/170
f 312/229/169 313/231/171 311/228/168
f 313/231/171 239/230/170 311/228/168
f 313/231/171 312/229/169 314/232/172
f 239/230/170 313/231/171 240/233/173
f 315/234/174 230/164/121 229/163/120
f 229/163/120 233/167/124 315/234/174
f 316/211/175 317/213/149 318/235/176
f 320/214/177 321/210/178 319/236/179
f 321/210/178 320/214/177 322/178/144
f 323/237/180 324/176/133 325/173/130
f 324/176/133 323/237/180 326/238/181
f 327/175/182 328/169/183 329/173/184
f 328/169/183 330/162/185 329/173/184
f 331/173/184 332/164/186 333/237/187
f 332/164/186 331/173/184 334/162/188
f 335/239/189 336/240/190 337/241/191
f 337/241/191 338/242/189 335/239/189
f 339/239/189 340/243/192 341/244/193
f 340/243/192 339/239/189 342/242/189
f 347/245/194 345/246/195 346/247/196
f 345/246/195 347/245/194 348/248/197
f 349/249/198 348/248/197 347/245/194
f 348/248/197 349/249/198 351/250/199
f 351/250/199 350/251/200 348/248/197
f 353/252/201 351/250/199 352/253/202
f 350/251/200 351/250/199 354/254/203
f 351/250/199 353/252/201 354/254/203
f 344/255/204 350/251/200 354/254/203
f 355/256/205 354/254/203 353/252/201
f 354/254/203 355/256/205 357/257/206
f 344/255/204 354/254/203 357/257/206
f 356/258/207 357/257/206 355/256/205
f 343/259/208 344/255/204 357/257/206
f 357/257/206 356/258/207 358/260/209
f 357/257/206 358/260/209 343/259/208
f 359/245/210 360/261/211 361/249/198
f 360/261/211 359/245/210 362/262/212
f 363/247/196 364/262/213 365/245/194
f 364/262/213 363/247/196 366/263/214
f 370/264/215 371/265/216 368/266/217
f 375/267/218 374/268/219 376/269/220
f 373/270/221 375/267/218 376/269/220
f 373/270/221 376/269/220 377/271/222
f 372/272/223 373/270/221 377/271/222
f 376/269/220 378/273/170 377/271/222
f 379/274/224 377/271/222 378/273/170
f 377/271/222 380/275/225 372/272/223
f 377/271/222 379/274/224 380/275/225
f 379/274/224 381/276/226 380/275/225
f 381/276/226 379/274/224 371/265/216
f 371/265/216 370/264/215 381/276/226
f 382/277/227 383/278/228 384/279/229
f 385/277/227 386/279/230 387/280/231
f 388/281/232 389/282/233 390/283/232
f 389/282/233 388/281/232 391/284/233
f 392/285/234 388/281/232 390/283/232
f 388/281/232 392/285/234 393/286/234
f 394/241/235 395/287/236 396/242/237
f 395/287/236 397/288/238 396/242/237
f 395/287/236 398/261/239 397/288/238
f 399/262/212 397/288/238 398/261/239
f 400/289/232 401/290/240 402/291/232
f 401/290/240 400/289/232 403/292/240
f 404/293/241 400/289/232 402/291/232
f 400/289/232 404/293/241 405/294/51
f 406/295/242 407/296/242 408/297/243
f 408/297/243 407/296/242 409/298/244
f 410/299/245 407/296/242 406/295/242
f 407/296/242 410/299/245 411/300/245
f 412/288/246 414/263/214 413/301/140
f 414/263/214 412/288/246 415/262/247
f 416/302/248 417/259/208 418/260/209
f 416/302/248 418/260/209 419/303/249
f 418/260/209 420/304/250 419/303/249
f 420/304/250 418/260/209 421/258/207
f 422/305/251 421/258/207 423/306/252
f 421/258/207 422/305/251 420/304/250
f 424/307/253 420/304/250 422/305/251
f 420/304/250 425/308/254 419/303/249
f 420/304/250 424/307/253 426/309/167
f 425/308/254 420/304/250 426/309/167
f 424/307/253 427/310/255 426/309/167
f 426/309/167 428/311/256 425/308/254
f 376/269/220 425/308/254 428/311/256
f 378/273/170 376/269/220 428/311/256
f 430/312/59 379/274/224 429/313/60
f 433/314/257 432/315/258 431/316/40
f 379/274/224 430/312/59 371/265/216
f 432/315/258 371/265/216 430/312/59
f 432/315/258 433/314/257 434/317/259
f 435/318/260 434/317/259 433/314/257
f 371/265/216 432/315/258 368/266/217
f 434/317/259 435/318/260 436/319/261
f 437/320/262 436/319/261 435/318/260
f 438/321/261 436/319/261 437/320/262
f 438/321/261 439/322/263 436/319/261
f 434/317/259 436/319/261 439/322/263
f 367/323/264 439/322/263 438/321/261
f 369/324/124 432/315/258 434/317/259
f 439/322/263 369/324/124 434/317/259
f 369/324/124 368/266/217 432/315/258
f 440/325/265 441/326/266 442/327/265
f 441/326/266 440/325/265 443/328/266
f 444/329/63 440/325/265 442/327/265
f 440/325/265 444/329/63 445/330/64
f 446/331/267 447/332/268 448/333/269
f 449/334/142 450/331/270 451/333/113
f 452/335/265 453/336/271 454/337/265
f 453/336/271 452/335/265 455/338/271
f 456/339/272 452/335/265 454/337/265
f 452/335/265 456/339/272 457/340/272
f 458/341/273 459/342/273 460/343/274
f 460/343/274 459/342/273 461/344/274
f 462/345/275 459/342/273 458/341/273
f 459/342/273 462/345/275 463/346/276
f 464/347/273 465/348/277 466/349/273
f 465/348/277 464/347/273 467/350/278
f 468/351/279 464/347/273 466/349/273
f 464/347/273 468/351/279 469/352/279
f 470/353/280 471/354/281 472/355/280
f 471/354/281 470/353/280 473/356/281
f 474/357/282 470/353/280 472/355/280
f 470/353/280 474/357/282 475/358/283
f 476/359/284 477/360/284 478/361/285
f 478/361/285 477/360/284 479/362/286
f 480/363/287 477/360/284 476/359/284
f 477/360/284 480/363/287 481/364/287
f 482/365/288 483/366/289 484/367/290
f 483/366/289 482/365/288 485/368/291
f 486/366/292 487/369/293 488/367/290
f 487/369/293 486/366/292 489/370/294
f 490/320/295 491/367/296 492/321/297
f 491/367/296 490/320/295 493/365/298
f 494/367/299 495/323/300 496/321/301
f 494/367/299 497/369/302 495/323/300
f 498/371/303 499/372/303 500/373/303
f 499/372/303 498/371/303 501/374/303
f 502/371/303 503/375/303 504/376/303
f 503/375/303 502/371/303 505/373/303
f 506/376/303 507/377/303 508/378/303
f 507/377/303 506/376/303 509/375/303
f 510/377/303 511/379/303 512/378/303
f 511/379/303 510/377/303 513/380/303
f 514/381/303 515/379/303 516/380/303
f 514/381/303 516/380/303 517/382/303
f 518/381/303 519/383/303 520/384/303
f 519/383/303 518/381/303 521/382/303
f 522/384/303 523/385/303 524/386/303
f 523/385/303 522/384/303 525/383/303
f 526/372/303 527/374/303 528/385/303
f 527/374/303 529/386/303 528/385/303
f 532/387/304 531/388/305 530/389/306
f 531/388/305 532/387/304 533/390/307
f 534/391/308 533/390/307 532/387/304
f 533/390/307 534/391/308 535/392/309
f 534/391/308 536/393/310 535/392/309
f 536/393/310 534/391/308 537/394/156
f 539/390/307 540/395/311 538/396/201
f 540/395/311 539/390/307 541/392/312
f 542/393/313 540/395/311 541/392/312
f 540/395/311 542/393/313 543/397/207
f 546/398/314 548/399/315 545/400/316
f 548/399/315 546/398/314 547/401/317
f 548/399/315 544/402/318 545/400/316
f 549/403/319 548/399/315 547/401/317
f 548/399/315 549/403/319 550/404/223
f 551/405/320 548/399/315 550/404/223
f 548/399/315 551/405/320 552/406/321
f 544/402/318 548/399/315 552/406/321
f 554/407/322 553/408/322 555/409/323
f 556/410/323 555/409/323 553/408/322
f 557/411/324 555/409/323 556/410/323
f 555/409/323 557/411/324 558/412/324
f 560/413/325 559/414/325 561/415/326
f 562/416/327 561/415/326 559/414/325
f 563/417/240 561/415/326 562/416/327
f 561/415/326 563/417/240 564/418/328
f 567/419/329 565/420/330 566/421/331
f 565/420/330 567/419/329 568/422/332
f 568/422/332 567/419/329 569/423/243
f 570/424/243 569/423/243 567/419/329
f 572/425/333 571/426/333 573/427/334
f 574/428/334 573/427/334 571/426/333
f 575/429/335 573/427/334 574/428/334
f 573/427/334 575/429/335 576/430/335
f 578/431/336 577/432/336 579/433/337
f 580/434/337 579/433/337 577/432/336
f 581/435/338 579/433/337 580/434/337
f 579/433/337 581/435/338 582/436/339
f 585/437/340 583/438/341 584/439/341
f 583/438/341 585/437/340 586/440/340
f 586/440/340 585/437/340 587/441/274
f 588/442/274 587/441/274 585/437/340
f 590/443/342 589/444/342 591/445/343
f 589/444/342 592/446/344 591/445/343
f 593/447/345 591/445/343 592/446/344
f 591/445/343 593/447/345 594/448/345
f 596/449/346 595/450/346 597/451/347
f 595/450/346 598/452/347 597/451/347
f 599/453/348 597/451/347 598/452/347
f 597/451/347 599/453/348 600/454/349
f 601/455/350 602/456/350 603/457/351
f 602/456/350 604/458/352 603/457/351
f 605/459/286 603/457/351 604/458/352
f 603/457/351 605/459/286 606/460/286
f 607/461/353 608/462/354 609/463/355
f 609/463/355 610/464/356 607/461/353
f 611/462/357 612/465/358 613/466/359
f 613/466/359 614/463/355 611/462/357
f 615/467/198 617/468/360 616/469/199
f 617/468/360 615/467/198 618/470/361
f 619/471/362 617/468/360 618/470/361
f 617/468/360 619/471/362 620/472/305
f 620/472/305 621/473/201 617/468/360
f 621/473/201 620/472/305 622/474/307
f 623/475/363 624/476/364 625/477/365
f 626/478/366 623/475/363 625/477/365
f 627/479/367 626/478/366 625/477/365
f 624/476/364 628/480/368 625/477/365
f 629/481/369 627/479/367 625/477/365
f 628/480/368 630/482/370 625/477/365
f 631/483/371 629/481/369 625/477/365
f 630/482/370 631/483/371 625/477/365
f 632/484/372 633/485/373 634/486/374
f 635/487/375 636/488/376 637/489/377
f 638/490/378 635/487/375 637/489/377
f 639/491/379 638/490/378 637/489/377
f 636/488/376 640/492/380 637/489/377
f 641/493/381 639/491/379 637/489/377
f 640/492/380 642/494/382 637/489/377
f 643/495/383 641/493/381 637/489/377
f 642/494/382 643/495/383 637/489/377
f 644/496/384 645/497/385 646/498/386
f 647/499/387 644/496/384 646/498/386
f 648/500/388 647/499/387 646/498/386
f 645/497/385 649/501/389 646/498/386
f 650/502/390 648/500/388 646/498/386
f 649/501/389 651/503/391 646/498/386
f 652/504/392 650/502/390 646/498/386
f 651/503/391 652/504/392 646/498/386
f 653/467/198 654/505/393 655/470/361
f 656/506/394 655/470/361 654/505/393
f 657/507/395 658/508/396 659/509/397
f 658/508/396 657/507/395 660/510/398
f 663/511/399 662/512/400 661/513/401
f 662/512/400 663/511/399 665/514/402
f 666/515/403 665/514/402 663/511/399
f 665/514/402 666/515/403 667/516/404
f 668/517/405 662/512/400 665/514/402
f 668/517/405 665/514/402 667/516/404
f 662/512/400 668/517/405 664/518/406
f 668/517/405 667/516/404 669/519/407
f 669/519/407 670/520/42 668/517/405
f 670/520/42 664/518/406 668/517/405
f 670/520/42 669/519/407 671/521/408
f 664/518/406 670/520/42 672/522/409
f 677/523/410 674/524/411 675/525/412
f 677/523/410 673/526/413 674/524/411
f 678/527/414 675/525/412 676/528/415
f 675/525/412 678/527/414 677/523/410
f 676/528/415 679/529/416 678/527/414
f 677/523/410 680/530/417 673/526/413
f 678/527/414 681/531/418 677/523/410
f 680/530/417 677/523/410 681/531/418
f 683/532/419 684/533/219 682/534/420
f 678/527/414 682/534/420 685/535/218
f 684/533/219 685/535/218 682/534/420
f 681/531/418 678/527/414 685/535/218
f 687/536/227 688/537/421 689/538/422
f 690/470/423 691/506/424 692/471/425
f 693/539/426 692/471/425 691/506/424
f 694/540/427 695/484/428 696/486/374
f 697/463/429 698/541/430 699/464/431
f 698/541/430 697/463/429 700/542/432
f 700/542/432 701/505/393 698/541/430
f 701/505/393 700/542/432 702/506/394
f 703/536/227 704/543/433 705/537/421
f 706/466/434 707/544/435 708/463/436
f 707/544/435 709/542/437 708/463/436
f 707/544/435 710/539/426 709/542/437
f 711/506/438 709/542/437 710/539/426
f 712/510/439 713/545/288 714/508/440
f 713/545/288 712/510/439 715/546/441
f 716/547/442 717/548/248 683/532/419
f 717/548/248 716/547/442 718/549/208
f 684/533/219 683/532/419 717/548/248
f 719/550/443 684/533/219 717/548/248
f 684/533/219 719/550/443 720/551/444
f 720/551/444 686/552/445 684/533/219
f 721/553/365 722/554/446 723/555/365
f 724/556/446 721/553/365 723/555/365
f 725/557/446 724/556/446 723/555/365
f 722/554/446 726/558/365 723/555/365
f 727/559/365 725/557/446 723/555/365
f 726/558/365 728/560/365 723/555/365
f 729/561/446 727/559/365 723/555/365
f 728/560/365 729/561/446 723/555/365
f 730/562/447 731/563/447 732/564/448
f 733/565/449 730/562/447 732/564/448
f 734/566/450 733/565/449 732/564/448
f 731/563/447 735/567/451 732/564/448
f 736/568/452 734/566/450 732/564/448
f 735/567/451 737/569/447 732/564/448
f 738/570/447 736/568/452 732/564/448
f 737/569/447 738/570/447 732/564/448
f 739/571/377 740/572/377 741/573/377
f 742/574/377 739/571/377 741/573/377
f 743/575/377 742/574/377 741/573/377
f 740/572/377 744/576/377 741/573/377
f 745/577/377 743/575/377 741/573/377
f 744/576/377 746/578/377 741/573/377
f 747/579/377 745/577/377 741/573/377
f 746/578/377 747/579/377 741/573/377
f 748/513/453 749/508/454 750/511/455
f 749/508/454 748/513/453 751/509/456
f 752/508/454 753/515/457 754/511/458
f 753/515/457 752/508/454 755/545/459
f 756/580/306 757/581/362 758/582/460
f 757/581/362 756/580/306 759/583/305
f 758/582/460 760/584/461 756/580/306
f 760/584/461 758/582/460 761/585/143
f 763/586/462 756/580/306 760/584/461
f 756/580/306 763/586/462 762/587/304
f 763/586/462 760/584/461 764/588/463
f 765/589/464 767/590/465 766/591/466
f 762/587/304 768/592/467 765/589/464
f 767/590/465 765/589/464 768/592/467
f 768/592/467 762/587/304 763/586/462
f 769/593/31 767/590/465 768/592/467
f 769/593/31 770/594/30 767/590/465
f 771/595/32 768/592/467 763/586/462
f 768/592/467 771/595/32 769/593/31
f 763/586/462 764/588/463 771/595/32
f 772/596/468 773/597/469 774/598/470
f 774/598/470 775/599/359 772/596/468
f 776/600/471 777/598/472 778/597/473
f 777/598/472 776/600/471 779/601/474
f 780/602/373 781/603/475 782/604/374
f 783/603/475 784/605/476 785/604/374
f 786/606/477 787/607/478 788/608/479
f 787/607/478 786/606/477 789/609/480
f 790/610/132 791/606/481 792/608/482
f 791/606/481 790/610/132 793/611/483
f 796/612/484 794/613/485 795/614/126
f 794/613/485 796/612/484 797/615/486
f 798/616/487 794/613/485 797/615/486
f 799/617/488 797/615/486 796/612/484
f 798/616/487 797/615/486 801/618/489
f 801/618/489 800/619/316 798/616/487
f 797/615/486 799/617/488 802/620/490
f 797/615/486 803/621/406 801/618/489
f 803/621/406 797/615/486 802/620/490
f 805/622/409 801/618/489 803/621/406
f 806/623/491 805/622/409 804/624/492
f 801/618/489 805/622/409 809/625/493
f 800/619/316 801/618/489 809/625/493
f 805/622/409 806/623/491 810/626/494
f 808/627/495 810/626/494 806/623/491
f 805/622/409 811/628/496 809/625/493
f 805/622/409 810/626/494 811/628/496
f 812/629/497 811/628/496 810/626/494
f 810/626/494 808/627/495 813/630/498
f 810/626/494 813/630/498 812/629/497
f 814/631/499 813/630/498 808/627/495
f 814/631/499 808/627/495 815/632/500
f 815/632/500 816/633/501 814/631/499
f 819/634/420 817/635/502 818/636/503
f 818/636/503 820/637/504 819/634/420
f 822/638/505 821/639/505 823/640/506
f 823/640/506 821/639/505 824/641/506
f 825/642/507 823/640/506 824/641/506
f 823/640/506 825/642/507 826/643/507
f 827/644/52 828/645/53 829/646/506
f 829/646/506 828/645/53 830/647/506
f 831/648/508 829/646/506 830/647/506
f 829/646/506 831/648/508 832/649/508
f 835/650/509 834/651/58 833/652/58
f 834/651/58 835/650/509 836/653/509
f 836/653/509 835/650/509 837/654/510
f 837/654/510 835/650/509 838/655/330
f 839/581/425 840/656/426 841/582/460
f 842/657/511 841/582/460 840/656/426
f 843/582/512 844/657/513 845/585/143
f 846/658/514 845/585/143 844/657/513
f 847/591/156 849/659/515 848/660/516
f 849/659/515 847/591/156 850/590/465
f 853/594/517 849/659/515 850/590/465
f 852/661/161 851/662/518 855/663/519
f 815/632/500 852/661/161 855/663/519
f 852/661/161 815/632/500 856/664/520
f 855/663/519 854/665/521 816/633/501
f 816/633/501 815/632/500 855/663/519
f 849/659/515 818/636/503 854/665/521
f 818/636/503 816/633/501 854/665/521
f 853/594/517 857/666/522 849/659/515
f 818/636/503 849/659/515 857/666/522
f 857/666/522 853/594/517 858/667/442
f 808/627/495 856/664/520 815/632/500
f 818/636/503 857/666/522 820/637/504
f 858/667/442 820/637/504 857/666/522
f 856/664/520 808/627/495 807/668/44
f 859/669/65 860/670/65 861/671/523
f 861/671/523 860/670/65 862/672/523
f 863/673/524 861/671/523 862/672/523
f 861/671/523 863/673/524 864/674/524
f 865/675/227 866/676/525 867/677/526
f 868/678/527 869/679/527 870/680/523
f 870/680/523 869/679/527 871/681/528
f 872/682/529 870/680/523 871/681/528
f 870/680/523 872/682/529 873/683/529
f 874/684/179 875/601/530 876/685/531
f 877/686/532 876/685/531 875/601/530
f 878/598/533 879/687/534 880/599/535
f 879/687/534 878/598/533 881/688/536
f 881/688/536 882/656/426 879/687/534
f 882/656/426 881/688/536 883/657/537
f 886/689/538 885/690/539 884/691/75
f 885/690/539 886/689/538 887/692/538
f 887/692/538 886/689/538 888/693/341
f 886/689/538 889/694/341 888/693/341
f 890/675/175 891/695/540 892/676/541
f 893/688/542 894/601/543 895/684/544
f 894/601/543 893/688/542 896/598/545
f 895/684/544 897/657/513 893/688/542
f 897/657/513 895/684/544 898/658/514
f 899/608/546 900/617/453 901/612/547
f 900/617/453 899/608/546 902/607/548
f 905/696/549 904/697/550 903/698/550
f 905/696/549 903/698/550 906/699/549
f 907/700/551 905/696/549 906/699/549
f 905/696/549 907/700/551 908/701/551
f 909/614/552 910/608/546 911/612/553
f 910/608/546 909/614/552 912/610/554
f 915/702/555 914/703/556 913/704/556
f 915/702/555 913/704/556 916/705/555
f 917/706/557 915/702/555 916/705/555
f 915/702/555 917/706/557 918/707/557
f 921/708/558 920/709/559 919/710/559
f 920/709/559 921/708/558 922/711/558
f 923/712/350 922/711/558 921/708/558
f 923/712/350 921/708/558 924/713/350
