# Blender 5.1.2
# www.blender.org
mtllib wad.mtl
o wad
v -0.407188 0.129356 0.173761
v -0.406747 0.129326 0.173861
v -0.211891 0.112136 0.173861
v -0.211891 0.112136 -0.173840
v -0.406747 0.129326 -0.173840
v -0.407188 0.129356 -0.173738
v -0.407335 0.129366 -0.173439
v -0.407335 0.129366 0.173361
v -0.407187 -0.106134 0.173761
v -0.407335 -0.106134 0.173361
v -0.407335 -0.106134 -0.173439
v -0.407187 -0.106134 -0.173738
v -0.406743 -0.106134 -0.173840
v -0.211889 -0.106134 -0.173840
v -0.211889 -0.106134 0.173861
v -0.406743 -0.106134 0.173861
v -0.407221 0.127356 0.174261
v -0.413987 0.089946 0.174261
v -0.215511 0.043786 0.174261
v -0.212128 0.110126 0.174261
v 0.380672 0.090426 0.173861
v 0.380672 0.090426 -0.173840
v 0.373842 0.116446 -0.173840
v 0.373842 0.116446 0.173861
v 0.373149 0.115416 -0.174238
v 0.379915 0.089946 -0.174238
v 0.280678 0.061166 -0.174238
v 0.275603 0.103376 -0.174238
v -0.414743 0.090426 -0.173840
v -0.414743 0.090426 0.173861
v -0.407913 0.128396 0.173861
v -0.407913 0.128396 -0.173840
v 0.177820 0.088136 0.173861
v 0.177820 0.088136 -0.173840
v -0.017036 0.078606 -0.173840
v -0.017036 0.078606 0.173861
v 0.177818 -0.106134 -0.173840
v 0.177818 -0.106134 0.173861
v -0.017036 -0.106134 0.173861
v -0.017036 -0.106134 -0.173840
v 0.178053 -0.104114 0.174261
v 0.181397 -0.034764 0.174261
v -0.017036 -0.002364 0.174261
v -0.017036 -0.104094 0.174261
v -0.212124 -0.104114 -0.174238
v -0.215468 -0.046164 -0.174238
v -0.017036 -0.025164 -0.174238
v -0.017036 -0.104094 -0.174238
v -0.407212 -0.104144 0.174261
v -0.212124 -0.104114 0.174261
v -0.215468 -0.034764 0.174261
v -0.413900 -0.067174 0.174261
v 0.373843 -0.105124 0.173861
v 0.373843 -0.105124 -0.173840
v 0.380589 -0.067624 -0.173840
v 0.380589 -0.067624 0.173861
v 0.373141 -0.104144 -0.174238
v 0.275597 -0.104134 -0.174238
v 0.280613 -0.056664 -0.174238
v 0.379829 -0.067174 -0.174238
v -0.407915 -0.105124 -0.173840
v -0.407915 -0.105124 0.173861
v -0.414661 -0.067624 0.173861
v -0.414661 -0.067624 -0.173840
v 0.373149 0.115416 0.174261
v 0.275603 0.103376 0.174261
v 0.280678 0.066866 0.174261
v 0.379915 0.089946 0.174261
v -0.407221 0.127356 -0.174238
v -0.212128 0.110126 -0.174238
v -0.215511 0.032386 -0.174238
v -0.413987 0.089946 -0.174238
v -0.419285 0.050716 0.174261
v -0.218160 0.024176 0.174261
v 0.385981 0.050996 -0.173840
v 0.385981 0.050996 0.173861
v 0.385214 0.050716 -0.174238
v 0.284651 0.031746 -0.174238
v -0.420052 0.050996 0.173861
v -0.420052 0.050996 -0.173840
v 0.379829 -0.067174 0.174261
v 0.385170 -0.027764 0.174261
v 0.284619 -0.021414 0.174261
v 0.280613 -0.050964 0.174261
v -0.419241 -0.027764 -0.174238
v -0.218138 -0.026464 -0.174238
v -0.413900 -0.067174 -0.174238
v -0.421037 0.011506 0.174261
v -0.219036 0.004566 0.174261
v -0.419241 -0.027764 0.174261
v -0.218138 -0.015064 0.174261
v 0.387737 0.011516 -0.173840
v 0.387737 0.011516 0.173861
v 0.385940 -0.028024 -0.173840
v 0.385940 -0.028024 0.173861
v 0.386965 0.011506 -0.174238
v 0.285965 0.002336 -0.174238
v 0.385170 -0.027764 -0.174238
v 0.284619 -0.027114 -0.174238
v -0.421808 0.011516 0.173861
v -0.421808 0.011516 -0.173840
v -0.420011 -0.028024 0.173861
v -0.420011 -0.028024 -0.173840
v 0.386965 0.011506 0.174261
v 0.285965 0.008036 0.174261
v 0.385214 0.050716 0.174261
v 0.284651 0.037446 0.174261
v -0.421037 0.011506 -0.174238
v -0.219036 -0.006834 -0.174238
v -0.419285 0.050716 -0.174238
v -0.218160 0.012776 -0.174238
v -0.407139 0.129096 0.174162
v -0.212087 0.111886 0.174162
v 0.373608 0.117186 -0.173738
v 0.373264 0.117416 -0.173439
v 0.373264 0.117416 0.173361
v 0.373608 0.117186 0.173761
v 0.372675 0.117376 -0.173840
v 0.373068 0.117146 -0.174139
v 0.275542 0.105116 -0.174139
v 0.275248 0.105356 -0.173840
v -0.407679 0.129136 0.173761
v -0.407679 0.129136 -0.173738
v -0.407679 -0.105884 -0.173738
v -0.407679 -0.105884 0.173761
v -0.407133 -0.105884 -0.174139
v -0.212084 -0.105874 -0.174139
v 0.373608 -0.105884 0.173761
v 0.373264 -0.106134 0.173361
v 0.373264 -0.106134 -0.173439
v 0.373608 -0.105884 -0.173738
v 0.372672 -0.106134 0.173861
v 0.373062 -0.105884 0.174162
v 0.275538 -0.105874 0.174162
v 0.275245 -0.106134 0.173861
v -0.017036 0.078336 0.174162
v 0.178016 0.087896 0.174162
v -0.017036 0.078336 -0.174139
v -0.212087 0.111886 -0.174139
v -0.017036 -0.105864 -0.174139
v 0.178013 -0.105874 -0.174139
v -0.017036 -0.105864 0.174162
v -0.212084 -0.105874 0.174162
v -0.407448 0.128356 0.174261
v -0.212242 0.111116 0.174261
v -0.212087 0.111886 0.174162
v -0.407139 0.129096 0.174162
v 0.373608 0.117186 -0.173738
v 0.373608 0.117186 0.173761
v 0.373068 0.117146 -0.174139
v 0.373377 0.116406 -0.174238
v 0.275774 0.104366 -0.174238
v 0.275542 0.105116 -0.174139
v -0.407679 0.129136 0.173761
v -0.407679 0.129136 -0.173738
v -0.407679 -0.105884 -0.173738
v -0.407679 -0.105884 0.173761
v -0.407443 -0.105124 -0.174238
v -0.212239 -0.105094 -0.174238
v -0.212084 -0.105874 -0.174139
v -0.407133 -0.105884 -0.174139
v 0.373608 -0.105884 0.173761
v 0.373608 -0.105884 -0.173738
v 0.373062 -0.105884 0.174162
v 0.373372 -0.105124 0.174261
v 0.275770 -0.105114 0.174261
v 0.275538 -0.105874 0.174162
v -0.017036 0.077546 0.174261
v 0.178171 0.087126 0.174261
v 0.178016 0.087896 0.174162
v -0.017036 0.078336 0.174162
v -0.017036 0.077546 -0.174238
v -0.212242 0.111116 -0.174238
v -0.212087 0.111886 -0.174139
v -0.017036 0.078336 -0.174139
v -0.017036 -0.105074 -0.174238
v 0.178168 -0.105094 -0.174238
v 0.178013 -0.105874 -0.174139
v -0.017036 -0.105864 -0.174139
v -0.017036 -0.105074 0.174261
v -0.212239 -0.105094 0.174261
v -0.212084 -0.105874 0.174162
v -0.017036 -0.105864 0.174162
v -0.414639 0.090396 0.174162
v -0.414326 0.090326 0.174261
v -0.407797 0.128386 0.174162
v 0.380484 -0.067604 0.174162
v 0.380168 -0.067554 0.174261
v 0.373725 -0.105124 0.174162
v 0.380484 -0.067604 -0.174139
v 0.373725 -0.105124 -0.174139
v -0.414555 -0.067604 -0.174139
v -0.414239 -0.067554 -0.174238
v -0.407797 -0.105124 -0.174139
v -0.407797 -0.105124 0.174162
v -0.407443 -0.105124 0.174261
v -0.414239 -0.067554 0.174261
v -0.414555 -0.067604 0.174162
v 0.373726 0.116436 0.174162
v 0.373377 0.116406 0.174261
v 0.380255 0.090326 0.174261
v 0.380567 0.090396 0.174162
v 0.373726 0.116436 -0.174139
v 0.380567 0.090396 -0.174139
v -0.407797 0.128386 -0.174139
v -0.407448 0.128356 -0.174238
v -0.414326 0.090326 -0.174238
v -0.414639 0.090396 -0.174139
v -0.419908 -0.028014 0.174162
v -0.414555 -0.067604 0.174162
v 0.385837 -0.028014 0.174162
v 0.385530 -0.027994 0.174261
v 0.385837 -0.028014 -0.174139
v -0.419908 -0.028014 -0.174139
v -0.419601 -0.027994 -0.174238
v -0.414639 0.090396 0.174162
v -0.419950 0.050986 0.174162
v -0.421708 0.011516 0.174162
v 0.385574 0.050946 0.174261
v 0.385879 0.050986 0.174162
v 0.387336 0.011506 0.174261
v 0.387637 0.011516 0.174162
v 0.385879 0.050986 -0.174139
v 0.387637 0.011516 -0.174139
v -0.419645 0.050946 -0.174238
v -0.419950 0.050986 -0.174139
v -0.421407 0.011506 -0.174238
v -0.421708 0.011516 -0.174139
v -0.407544 0.129126 0.174061
v 0.373473 0.117176 0.174061
v 0.373068 0.117146 0.174162
v -0.407544 0.129126 -0.174038
v -0.407139 0.129096 -0.174139
v 0.373473 0.117176 -0.174038
v 0.373117 0.117406 -0.173738
v -0.407543 -0.105884 0.174061
v -0.407133 -0.105884 0.174162
v 0.373471 -0.105884 0.174061
v 0.373116 -0.106134 0.173761
v -0.407543 -0.105884 -0.174038
v 0.373471 -0.105884 -0.174038
v 0.373062 -0.105884 -0.174139
v 0.373372 -0.105124 -0.174238
v 0.373725 -0.105124 -0.174139
v -0.407544 0.129126 0.174061
v 0.373117 0.117406 0.173761
v 0.372675 0.117376 0.173861
v 0.373068 0.117146 0.174162
v 0.373473 0.117176 0.174061
v -0.407139 0.129096 -0.174139
v -0.407544 0.129126 -0.174038
v 0.373726 0.116436 -0.174139
v 0.373473 0.117176 -0.174038
v -0.407133 -0.105884 0.174162
v -0.407543 -0.105884 0.174061
v 0.373471 -0.105884 0.174061
v -0.407543 -0.105884 -0.174038
v 0.373116 -0.106134 -0.173738
v 0.372672 -0.106134 -0.173840
v 0.373062 -0.105884 -0.174139
v 0.373471 -0.105884 -0.174038
v -0.407797 0.128386 0.174162
v 0.380484 -0.067604 0.174162
v 0.373725 -0.105124 0.174162
v 0.380168 -0.067554 -0.174238
v 0.380484 -0.067604 -0.174139
v -0.414555 -0.067604 -0.174139
v -0.407797 -0.105124 -0.174139
v -0.407797 -0.105124 0.174162
v 0.373726 0.116436 0.174162
v 0.380567 0.090396 0.174162
v 0.380567 0.090396 -0.174139
v 0.380255 0.090326 -0.174238
v -0.407797 0.128386 -0.174139
v -0.414639 0.090396 -0.174139
v -0.419601 -0.027994 0.174261
v -0.419908 -0.028014 0.174162
v 0.385837 -0.028014 0.174162
v 0.385530 -0.027994 -0.174238
v 0.385837 -0.028014 -0.174139
v -0.419908 -0.028014 -0.174139
v -0.419950 0.050986 0.174162
v -0.419645 0.050946 0.174261
v -0.421708 0.011516 0.174162
v -0.421407 0.011506 0.174261
v 0.385879 0.050986 0.174162
v 0.387637 0.011516 0.174162
v 0.385879 0.050986 -0.174139
v 0.385574 0.050946 -0.174238
v 0.387637 0.011516 -0.174139
v 0.387336 0.011506 -0.174238
v -0.419950 0.050986 -0.174139
v -0.421708 0.011516 -0.174139
v 0.373726 0.116436 0.174162
v 0.373842 0.116446 0.173861
v -0.407797 0.128386 -0.174139
v -0.407913 0.128396 -0.173840
v -0.407797 -0.105124 0.174162
v -0.407915 -0.105124 0.173861
v 0.373725 -0.105124 -0.174139
v 0.373843 -0.105124 -0.173840
v -0.407913 0.128396 0.173861
v -0.407797 0.128386 0.174162
v 0.373842 0.116446 -0.173840
v 0.373726 0.116436 -0.174139
v 0.373843 -0.105124 0.173861
v 0.373725 -0.105124 0.174162
v -0.407915 -0.105124 -0.173840
v -0.407797 -0.105124 -0.174139
v 0.178168 -0.105094 0.174261
v 0.373141 -0.104144 0.174261
v 0.275774 0.104366 0.174261
v -0.017036 0.076566 0.174261
v -0.407212 -0.104144 -0.174238
v 0.178171 0.087126 -0.174238
v 0.178057 0.086136 -0.174238
v -0.017036 0.076566 -0.174238
v 0.275770 -0.105114 -0.174238
v 0.047511 0.093746 -0.175838
v -0.017206 0.085326 -0.175838
v -0.017206 0.084466 0.175661
v 0.047563 0.092896 0.175562
v 0.047510 -0.113144 0.175562
v -0.017206 -0.113144 0.175562
v -0.017206 -0.113144 -0.175838
v 0.047510 -0.113144 -0.175838
v 0.047563 0.091726 0.176062
v -0.017206 0.083316 0.176062
v -0.017206 -0.001624 0.176062
v -0.017206 -0.112004 0.175961
v 0.047510 -0.111974 0.175961
v -0.081924 0.092576 -0.176239
v -0.017206 0.084176 -0.176239
v -0.017206 -0.026194 -0.176338
v -0.017206 -0.112004 -0.176239
v -0.081922 -0.111974 -0.176239
v 0.047511 0.092576 -0.176239
v 0.047510 -0.111974 -0.176239
v -0.081924 0.093746 -0.175838
v -0.081975 0.092896 0.175562
v -0.081922 -0.113144 0.175562
v -0.081922 -0.113144 -0.175838
v -0.081975 0.091726 0.176062
v -0.081923 -0.111974 0.175961
v 0.048138 0.084866 0.172762
v 0.048085 0.085696 -0.173038
v 0.047961 0.092636 -0.175339
v 0.048012 0.091786 0.175060
v 0.047936 -0.105164 -0.172939
v 0.047938 -0.105164 0.172562
v 0.047939 -0.112004 0.174961
v 0.047938 -0.112004 -0.175339
v 0.047939 -0.103544 0.173161
v 0.048136 0.083216 0.173262
v 0.048012 0.090176 0.175661
v 0.047939 -0.110404 0.175562
v -0.082353 -0.103554 -0.173538
v -0.082497 0.084056 -0.173538
v -0.082373 0.091026 -0.175838
v -0.082352 -0.110404 -0.175838
v 0.048084 0.084056 -0.173538
v 0.047937 -0.103544 -0.173538
v 0.047939 -0.110404 -0.175838
v 0.047961 0.091026 -0.175838
v -0.082498 0.085696 -0.173038
v -0.082550 0.084866 0.172762
v -0.082425 0.091786 0.175060
v -0.082373 0.092636 -0.175339
v -0.082350 -0.105164 0.172562
v -0.082351 -0.105164 -0.172939
v -0.082351 -0.112004 -0.175339
v -0.082351 -0.112004 0.174961
v -0.082549 0.083216 0.173262
v -0.082352 -0.103544 0.173161
v -0.082352 -0.110404 0.175562
v -0.082424 0.090176 0.175661
v 0.047838 0.093496 -0.175638
v 0.047890 0.092646 0.175461
v 0.047832 -0.112864 0.175362
v 0.047832 -0.112864 -0.175638
v 0.047889 0.091296 0.175961
v 0.047832 -0.111494 0.175861
v -0.082250 0.092136 -0.176138
v -0.082244 -0.111494 -0.176138
v 0.047832 -0.111494 -0.176138
v 0.047838 0.092136 -0.176138
v -0.082302 0.092646 0.175461
v -0.082250 0.093496 -0.175638
v -0.082244 -0.112864 -0.175638
v -0.082244 -0.112864 0.175362
v -0.082244 -0.111494 0.175861
v -0.082302 0.091296 0.175961
v 0.047838 0.093496 -0.175638
v 0.047890 0.092646 0.175461
v 0.047832 -0.112864 0.175362
v 0.047832 -0.112864 -0.175638
v 0.047889 0.091296 0.175961
v 0.047832 -0.111494 0.175861
v -0.082250 0.092136 -0.176138
v -0.082244 -0.111494 -0.176138
v 0.047832 -0.111494 -0.176138
v 0.047838 0.092136 -0.176138
v -0.082302 0.092646 0.175461
v -0.082250 0.093496 -0.175638
v -0.082244 -0.112864 -0.175638
v -0.082244 -0.112864 0.175362
v -0.082244 -0.111494 0.175861
v -0.082302 0.091296 0.175961
v 0.047563 0.092606 0.175861
v -0.017206 0.084176 0.175961
v -0.017206 0.085036 -0.176138
v 0.047511 0.093456 -0.176138
v 0.047510 -0.112854 -0.176138
v -0.017206 -0.112854 -0.176138
v -0.017206 -0.112854 0.175861
v 0.047510 -0.112854 0.175861
v -0.081922 -0.112854 -0.176138
v -0.017206 -0.112854 -0.176138
v -0.017206 0.085036 -0.176138
v -0.081924 0.093456 -0.176138
v -0.081975 0.092606 0.175861
v -0.081923 -0.112854 0.175861
v 0.048138 0.084446 0.173161
v 0.048012 0.091386 0.175461
v 0.047961 0.092236 -0.175739
v 0.048085 0.085286 -0.173439
v 0.047936 -0.104764 -0.173338
v 0.047936 -0.105164 -0.172939
v 0.047938 -0.112004 -0.175339
v 0.047939 -0.111604 -0.175739
v 0.047939 -0.111604 0.175362
v 0.047939 -0.112004 0.174961
v 0.047938 -0.105164 0.172562
v 0.047938 -0.104754 0.173061
v -0.082352 -0.104764 -0.173338
v -0.082351 -0.111604 -0.175739
v -0.082373 0.092236 -0.175739
v -0.082498 0.085286 -0.173439
v -0.082425 0.091386 0.175461
v -0.082425 0.091786 0.175060
v -0.082550 0.084866 0.172762
v -0.082550 0.084446 0.173161
v -0.082350 -0.104754 0.173061
v -0.082350 -0.105164 0.172562
v -0.082351 -0.112004 0.174961
v -0.082351 -0.111604 0.175362
v -0.082250 0.093156 -0.176039
v 0.047832 -0.112524 -0.176039
v -0.082244 -0.112524 0.175661
v 0.047890 0.092306 0.175760
v 0.047889 0.091296 0.175961
v 0.048012 0.090176 0.175661
v -0.082302 0.092306 0.175760
v -0.081975 0.092606 0.175861
v 0.047838 0.093156 -0.176039
v 0.047832 -0.112524 0.175661
v 0.047510 -0.112854 0.175861
v -0.082244 -0.112524 -0.176039
v -0.082244 -0.112864 -0.175638
v -0.082351 -0.112004 -0.175339
v -0.082250 0.093156 -0.176039
v 0.047510 -0.112854 -0.176138
v 0.047832 -0.112524 -0.176039
v -0.081923 -0.112854 0.175861
v -0.082244 -0.112524 0.175661
v 0.047563 0.092606 0.175861
v 0.047890 0.092306 0.175760
v -0.082302 0.092306 0.175760
v 0.047838 0.093156 -0.176039
v 0.047832 -0.112524 0.175661
v -0.081922 -0.112854 -0.176138
v -0.082244 -0.112524 -0.176039
v -0.017206 0.084176 0.175961
v 0.047511 0.093456 -0.176138
v -0.017206 -0.112854 0.175861
v -0.081924 0.093456 -0.176138
v 0.048136 0.083216 0.173262
v 0.047961 0.091026 -0.175838
v 0.048084 0.084056 -0.173538
v -0.082351 -0.105164 -0.172939
v -0.082373 0.092636 -0.175339
v -0.082498 0.085696 -0.173038
v -0.082250 0.093496 -0.175638
v 0.047832 -0.112864 -0.175638
v -0.082244 -0.112864 0.175362
v -0.082302 0.092306 0.175760
v 0.047838 0.092136 -0.176138
v 0.047832 -0.112524 0.175661
v -0.082250 0.093156 -0.176039
v 0.047832 -0.112524 -0.176039
v -0.082244 -0.112524 0.175661
v 0.047890 0.092306 0.175760
v -0.082302 0.092646 0.175461
v 0.047838 0.093156 -0.176039
v 0.047832 -0.112864 0.175362
v -0.082244 -0.112524 -0.176039
v 0.181440 0.032386 -0.174238
v 0.275248 0.105356 0.173861
v 0.275245 -0.106134 -0.173840
v 0.275597 -0.104134 0.174261
v 0.178053 -0.104114 -0.174238
v 0.181397 -0.046164 -0.174238
v 0.181440 0.043786 0.174261
v 0.178057 0.086136 0.174261
v 0.184089 0.012776 -0.174238
v 0.184067 -0.015064 0.174261
v 0.184965 -0.006834 -0.174238
v 0.184067 -0.026464 -0.174238
v 0.184965 0.004566 0.174261
v 0.184089 0.024176 0.174261
v 0.178016 0.087896 -0.174139
v 0.178013 -0.105874 0.174162
v 0.275542 0.105116 0.174162
v 0.275538 -0.105874 -0.174139
v 0.178016 0.087896 -0.174139
v 0.178013 -0.105874 0.174162
v 0.275542 0.105116 0.174162
v 0.275538 -0.105874 -0.174139
vn -0.0552 0.9932 0.1025
vn 0.0237 0.9872 0.1580
vn 0.0472 0.9824 0.1808
vn 0.0472 0.9824 -0.1808
vn 0.0236 0.9846 -0.1733
vn -0.0551 0.9924 -0.1103
vn -0.1105 0.9938 -0.0158
vn -0.1105 0.9938 0.0158
vn -0.0787 -0.9908 0.1101
vn -0.1337 -0.9909 0.0158
vn -0.1337 -0.9909 -0.0157
vn -0.0787 -0.9916 -0.1024
vn -0.0079 -0.9861 -0.1657
vn -0.0000 -0.9862 -0.1657
vn -0.0000 -0.9862 0.1657
vn -0.0079 -0.9861 0.1657
vn -0.0000 -0.0000 1.0000
vn 0.8772 0.4504 0.1659
vn 0.8773 0.4504 -0.1660
vn 0.7637 0.6219 -0.1732
vn 0.7637 0.6219 0.1732
vn -0.0000 -0.0000 -1.0000
vn 0.0002 -0.0000 -1.0000
vn -0.9088 0.3793 -0.1738
vn -0.9088 0.3793 0.1739
vn -0.8133 0.5527 0.1816
vn -0.8133 0.5527 -0.1816
vn -0.0394 0.9841 0.1732
vn -0.0394 0.9841 -0.1733
vn 0.0237 0.9846 0.1733
vn -0.0000 -0.9849 0.1734
vn -0.0000 -0.9849 -0.1734
vn 0.8133 -0.5527 0.1816
vn 0.8133 -0.5527 -0.1816
vn 0.9088 -0.3793 -0.1739
vn 0.9088 -0.3793 0.1738
vn 0.0001 -0.0000 -1.0000
vn -0.8133 -0.5527 -0.1816
vn -0.8134 -0.5527 0.1816
vn -0.9088 -0.3793 0.1739
vn -0.9088 -0.3793 -0.1738
vn -0.0003 -0.0000 1.0000
vn 0.9600 0.2203 -0.1731
vn 0.9600 0.2203 0.1731
vn -0.9600 0.2203 0.1731
vn -0.9600 0.2203 -0.1731
vn 0.0001 -0.0000 1.0000
vn 0.9849 -0.0000 -0.1733
vn 0.9849 -0.0000 0.1733
vn 0.9583 -0.2278 -0.1728
vn 0.9583 -0.2278 0.1728
vn -0.9849 -0.0000 0.1733
vn -0.9849 -0.0000 -0.1733
vn -0.9583 -0.2278 0.1728
vn -0.9583 -0.2277 -0.1728
vn 0.0003 -0.0000 1.0000
vn -0.0395 0.7105 0.7026
vn 0.0316 0.6786 0.7338
vn 0.5099 0.8550 -0.0942
vn 0.1105 0.9938 -0.0158
vn 0.1105 0.9938 0.0158
vn 0.5099 0.8551 0.0942
vn -0.0314 0.9895 -0.1414
vn 0.0395 0.7105 -0.7026
vn -0.0392 0.6745 -0.7372
vn -0.0550 0.9820 -0.1807
vn -0.5099 0.8550 0.0942
vn -0.5099 0.8550 -0.0942
vn -0.5192 -0.8494 -0.0944
vn -0.5191 -0.8495 0.0944
vn -0.0627 -0.7135 -0.6978
vn -0.0000 -0.6832 -0.7303
vn 0.5192 -0.8494 0.0944
vn 0.1337 -0.9909 0.0157
vn 0.1337 -0.9909 -0.0157
vn 0.5191 -0.8495 -0.0944
vn 0.0079 -0.9861 0.1657
vn 0.0627 -0.7135 0.6978
vn -0.0000 -0.6871 0.7266
vn 0.0158 0.6706 0.7416
vn -0.0314 0.6747 0.7374
vn 0.0158 0.6707 -0.7416
vn 0.0316 0.6786 -0.7338
vn -0.0000 -0.6790 -0.7342
vn -0.0000 -0.6790 0.7342
vn -0.0000 -0.6832 0.7303
vn -0.1258 0.2517 0.9596
vn 0.0079 0.1491 0.9888
vn -0.0394 0.7105 0.7026
vn 0.5099 0.8551 -0.0941
vn 0.5099 0.8551 0.0941
vn 0.0394 0.7105 -0.7026
vn 0.1178 0.2592 -0.9586
vn -0.0079 0.1491 -0.9888
vn -0.5099 0.8551 0.0941
vn -0.5099 0.8551 -0.0941
vn -0.5191 -0.8495 -0.0943
vn -0.5191 -0.8495 0.0943
vn -0.1336 -0.2514 -0.9586
vn -0.0000 -0.1491 -0.9888
vn 0.5191 -0.8495 0.0944
vn 0.1336 -0.2514 0.9586
vn -0.0000 -0.1580 0.9874
vn -0.0000 -0.6871 0.7265
vn -0.0000 0.1414 0.9900
vn -0.0079 0.1491 0.9888
vn 0.0158 0.6707 0.7416
vn -0.0000 0.1414 -0.9899
vn 0.0079 0.1491 -0.9888
vn 0.0157 0.6707 -0.7416
vn -0.0000 -0.6832 -0.7302
vn -0.0000 -0.1491 0.9888
vn -0.6321 0.2686 0.7269
vn -0.1422 0.0632 0.9878
vn -0.5436 0.4491 0.7091
vn 0.6284 -0.2671 0.7306
vn 0.1422 -0.0632 0.9878
vn 0.5436 -0.4491 0.7091
vn 0.6284 -0.2671 -0.7306
vn 0.5491 -0.4471 -0.7061
vn -0.6284 -0.2671 -0.7306
vn -0.1422 -0.0632 -0.9878
vn -0.5436 -0.4491 -0.7091
vn -0.5491 -0.4472 0.7060
vn -0.1258 -0.2516 0.9596
vn -0.1410 -0.0627 0.9880
vn -0.6284 -0.2671 0.7306
vn 0.5120 0.4963 0.7011
vn 0.1178 0.2593 0.9586
vn 0.1421 0.0789 0.9867
vn 0.6241 0.3239 0.7110
vn 0.5120 0.4963 -0.7011
vn 0.6241 0.3239 -0.7110
vn -0.5436 0.4491 -0.7091
vn -0.1259 0.2517 -0.9596
vn -0.1416 0.0628 -0.9879
vn -0.6320 0.2686 -0.7269
vn -0.6744 -0.1568 0.7215
vn 0.6744 -0.1569 0.7215
vn 0.1502 -0.0395 0.9879
vn 0.6744 -0.1568 -0.7215
vn -0.6744 -0.1569 -0.7215
vn -0.1502 -0.0395 -0.9879
vn -0.6745 0.1569 0.7215
vn -0.6952 -0.0000 0.7188
vn 0.1502 0.0395 0.9879
vn 0.6744 0.1568 0.7215
vn 0.1580 -0.0000 0.9874
vn 0.6951 -0.0000 0.7189
vn 0.6744 0.1568 -0.7215
vn 0.6952 -0.0000 -0.7188
vn -0.1502 0.0395 -0.9879
vn -0.6744 0.1568 -0.7215
vn -0.1580 -0.0000 -0.9874
vn -0.6951 -0.0000 -0.7189
vn -0.3228 0.8109 0.4881
vn 0.3228 0.8109 0.4881
vn 0.0395 0.7105 0.7026
vn -0.3228 0.8109 -0.4881
vn -0.0392 0.7144 -0.6987
vn 0.3228 0.8109 -0.4881
vn 0.0473 0.9936 -0.1025
vn -0.3390 -0.8040 0.4886
vn -0.0627 -0.7135 0.6978
vn 0.3390 -0.8039 0.4887
vn 0.0787 -0.9916 0.1024
vn -0.3390 -0.8039 -0.4887
vn 0.3389 -0.8040 -0.4886
vn 0.0627 -0.7135 -0.6978
vn 0.1259 -0.2517 -0.9596
vn 0.0551 0.9924 0.1103
vn -0.0315 0.9844 0.1733
vn -0.0393 0.7144 -0.6987
vn -0.3390 -0.8039 0.4887
vn 0.3390 -0.8040 0.4886
vn -0.3389 -0.8040 -0.4886
vn 0.0787 -0.9908 -0.1101
vn 0.0079 -0.9861 -0.1657
vn 0.3390 -0.8039 -0.4887
vn 0.6285 -0.2671 0.7305
vn 0.1411 -0.0627 -0.9880
vn -0.5491 -0.4471 0.7061
vn 0.1421 0.0789 -0.9867
vn -0.5436 0.4490 -0.7091
vn -0.6321 0.2686 -0.7269
vn -0.1502 -0.0395 0.9879
vn -0.6744 -0.1569 0.7215
vn 0.6745 -0.1568 0.7215
vn 0.1502 -0.0395 -0.9879
vn -0.6744 -0.1568 -0.7215
vn -0.6744 0.1568 0.7215
vn -0.1502 0.0395 0.9879
vn -0.6951 -0.0000 0.7189
vn -0.1580 -0.0000 0.9874
vn 0.6952 -0.0000 0.7189
vn 0.6744 0.1569 -0.7215
vn 0.1502 0.0395 -0.9879
vn 0.6952 -0.0000 -0.7189
vn 0.1580 -0.0000 -0.9874
vn -0.6744 0.1569 -0.7215
vn -0.6952 -0.0000 -0.7188
vn -0.5437 0.4491 -0.7091
vn -0.8133 -0.5527 0.1816
vn 0.5492 -0.4471 -0.7060
vn 0.8133 -0.5527 -0.1817
vn -0.5436 0.4491 0.7090
vn -0.0078 0.1491 0.9888
vn -0.0001 -0.0000 1.0000
vn -0.0001 -0.0000 -1.0000
vn -0.0078 0.1491 -0.9888
vn -0.0000 -0.1580 -0.9874
vn 0.1576 0.9692 -0.1891
vn -0.0003 0.9849 -0.1734
vn -0.0000 0.9849 0.1734
vn 0.1576 0.9692 0.1892
vn 0.1972 -0.9619 0.1893
vn 0.1972 -0.9619 -0.1893
vn 0.1736 0.1657 0.9708
vn -0.0000 0.0001 1.0000
vn 0.1889 -0.1653 0.9680
vn -0.1737 0.1657 -0.9708
vn -0.0000 0.1414 -0.9900
vn -0.1889 -0.1653 -0.9680
vn 0.1736 0.1657 -0.9708
vn 0.1889 -0.1652 -0.9680
vn -0.1576 0.9692 -0.1891
vn -0.1576 0.9692 0.1892
vn -0.1971 -0.9619 0.1893
vn -0.1971 -0.9619 -0.1893
vn -0.1736 0.1657 0.9708
vn -0.1889 -0.1653 0.9680
vn 0.9989 0.0472 0.0079
vn 0.9989 0.0472 -0.0079
vn 0.9800 0.1975 -0.0237
vn 0.9784 0.2051 0.0237
vn 1.0000 0.0003 -0.0000
vn 1.0000 0.0001 -0.0000
vn 0.9861 -0.1656 0.0158
vn 0.9873 -0.1579 -0.0158
vn 1.0000 -0.0000 0.0001
vn 0.9985 0.0001 0.0551
vn 0.9753 0.0157 0.2203
vn 0.9847 -0.0157 0.1733
vn -1.0000 -0.0002 -0.0001
vn -0.9985 -0.0000 -0.0550
vn -0.9753 0.0157 -0.2202
vn -0.9847 -0.0157 -0.1733
vn 0.9989 -0.0000 -0.0472
vn 1.0000 -0.0000 -0.0000
vn 0.9847 -0.0158 -0.1733
vn 0.9753 0.0157 -0.2203
vn -0.9989 0.0472 -0.0079
vn -0.9989 0.0472 0.0079
vn -0.9785 0.2051 0.0237
vn -0.9784 0.2051 -0.0237
vn -1.0000 0.0001 -0.0000
vn -1.0000 -0.0000 -0.0000
vn -0.9861 -0.1656 -0.0158
vn -0.9861 -0.1656 0.0158
vn -0.9989 -0.0000 0.0472
vn -0.9847 -0.0157 0.1733
vn -0.9753 0.0157 0.2202
vn 0.6948 0.7106 -0.1106
vn 0.6989 0.7067 0.1100
vn 0.7228 -0.6835 0.1022
vn 0.7236 -0.6826 -0.1022
vn 0.6798 0.0948 0.7272
vn 0.7000 -0.0944 0.7079
vn -0.6798 0.0948 -0.7273
vn -0.7005 -0.0866 -0.7084
vn 0.7005 -0.0866 -0.7084
vn 0.6798 0.0949 -0.7272
vn -0.6948 0.7106 0.1106
vn -0.6989 0.7067 -0.1100
vn -0.7228 -0.6835 -0.1022
vn -0.7228 -0.6835 0.1021
vn -0.7000 -0.0944 0.7079
vn -0.6798 0.0948 0.7273
vn 0.7228 -0.6835 -0.1022
vn 0.6798 0.0949 0.7272
vn -0.6798 0.0948 -0.7272
vn 0.6798 0.0948 -0.7272
vn -0.6948 0.7106 0.1105
vn -0.6989 0.7068 -0.1100
vn -0.7228 -0.6835 -0.1021
vn -0.7227 -0.6835 0.1022
vn -0.6798 0.0949 0.7272
vn 0.1969 0.6692 0.7165
vn -0.0000 0.6707 0.7417
vn -0.0000 0.6707 -0.7417
vn 0.1969 0.6693 -0.7165
vn 0.2206 -0.6616 -0.7167
vn -0.0000 -0.6789 0.7342
vn 0.2205 -0.6616 0.7167
vn -0.2206 -0.6616 -0.7167
vn -0.1968 0.6693 -0.7165
vn -0.1969 0.6693 0.7165
vn -0.2206 -0.6616 0.7167
vn 0.9992 0.0236 0.0315
vn 0.9839 0.1181 0.1338
vn 0.9839 0.1181 -0.1338
vn 0.9992 0.0236 -0.0315
vn 1.0000 0.0002 0.0002
vn 0.9895 -0.0942 -0.1099
vn 0.9887 -0.1020 0.1099
vn 1.0000 0.0001 -0.0001
vn -0.9887 -0.1020 -0.1099
vn -0.9839 0.1181 -0.1338
vn -0.9992 0.0236 -0.0315
vn -0.9839 0.1181 0.1338
vn -0.9784 0.2051 0.0237
vn -0.9992 0.0236 0.0315
vn -1.0000 0.0001 -0.0001
vn -0.9895 -0.1021 0.1021
vn -0.7105 0.4815 -0.5132
vn 0.7301 -0.4632 -0.5025
vn -0.7301 -0.4632 0.5025
vn 0.7105 0.4816 0.5131
vn 0.9753 0.0157 0.2202
vn -0.7105 0.4815 0.5131
vn 0.7105 0.4816 -0.5132
vn 0.7301 -0.4632 0.5024
vn 0.2206 -0.6616 0.7167
vn -0.7301 -0.4632 -0.5024
vn -0.7227 -0.6835 -0.1021
vn -0.7105 0.4816 -0.5131
vn 0.2205 -0.6616 -0.7167
vn 0.7301 -0.4632 -0.5024
vn -0.2205 -0.6616 0.7167
vn -0.7105 0.4816 0.5132
vn 0.7105 0.4816 -0.5131
vn 0.7301 -0.4632 0.5025
vn -0.2205 -0.6616 -0.7167
vn 0.1968 0.6693 -0.7165
vn -0.1969 0.6693 -0.7165
vn 0.9985 -0.0000 0.0550
vn 0.9753 0.0157 -0.2202
vn -0.9785 0.2051 -0.0237
vn -0.6988 0.7068 -0.1100
vn 0.7228 -0.6835 -0.1021
vn -0.7105 0.4816 0.5131
vn -0.7301 -0.4632 0.5024
vn 0.7105 0.4816 0.5132
vn -0.6948 0.7107 0.1105
vn -0.0550 0.9820 0.1807
vn -0.0314 0.6747 -0.7374
vn -0.0392 0.6745 0.7372
vn -0.0000 -0.6871 -0.7266
vn -0.0000 -0.6871 -0.7265
vt 0.015683 0.189158
vt 0.016141 0.189023
vt 0.218382 0.189023
vt 0.218382 0.580088
vt 0.016141 0.580088
vt 0.015683 0.579953
vt 0.015530 0.579548
vt 0.015530 0.189564
vt 0.017837 0.989302
vt 0.017683 0.988898
vt 0.017683 0.598910
vt 0.017837 0.598506
vt 0.018297 0.598371
vt 0.220537 0.598371
vt 0.220537 0.989437
vt 0.018297 0.989437
vt 0.016685 0.177803
vt 0.011079 0.166188
vt 0.175509 0.151861
vt 0.178312 0.169919
vt 0.685625 0.081711
vt 0.997779 0.081711
vt 0.997773 0.093498
vt 0.685631 0.093498
vt 0.017260 0.094387
vt 0.011655 0.082771
vt 0.093870 0.073838
vt 0.098074 0.090444
vt 0.678471 0.168551
vt 0.990624 0.168551
vt 0.990618 0.180338
vt 0.678476 0.180338
vt 0.622865 0.189023
vt 0.622865 0.580088
vt 0.420624 0.580088
vt 0.420624 0.189023
vt 0.625016 0.598371
vt 0.625016 0.989437
vt 0.422777 0.989437
vt 0.422777 0.598371
vt 0.501564 0.105947
vt 0.504334 0.127475
vt 0.339940 0.137534
vt 0.339940 0.105956
vt 0.502140 0.022530
vt 0.504911 0.040520
vt 0.340516 0.047039
vt 0.340516 0.022539
vt 0.016692 0.105939
vt 0.178316 0.105947
vt 0.175545 0.127475
vt 0.011151 0.117417
vt 0.685631 0.021009
vt 0.997773 0.021009
vt 0.997779 0.032652
vt 0.685625 0.032652
vt 0.017268 0.022522
vt 0.098080 0.022526
vt 0.093924 0.037260
vt 0.011727 0.034000
vt 0.678476 0.107848
vt 0.990618 0.107848
vt 0.990624 0.119491
vt 0.678471 0.119491
vt 0.663195 0.177803
vt 0.582381 0.173861
vt 0.586585 0.159025
vt 0.668801 0.166188
vt 0.663772 0.094387
vt 0.502144 0.086502
vt 0.504946 0.064905
vt 0.669377 0.082771
vt 0.006689 0.154011
vt 0.173315 0.145773
vt 0.997779 0.069473
vt 0.685625 0.069473
vt 0.007266 0.070594
vt 0.090578 0.064706
vt 0.990624 0.156313
vt 0.678471 0.156313
vt 0.668729 0.117417
vt 0.673154 0.129648
vt 0.589851 0.131619
vt 0.586532 0.122446
vt 0.673730 0.046231
vt 0.507123 0.046635
vt 0.669305 0.034000
vt 0.005239 0.141838
vt 0.172589 0.139686
vt 0.006726 0.129648
vt 0.173333 0.133591
vt 0.997779 0.057217
vt 0.685625 0.057217
vt 0.997779 0.044943
vt 0.685625 0.044943
vt 0.005814 0.058422
vt 0.089490 0.055576
vt 0.007302 0.046231
vt 0.090605 0.046433
vt 0.990624 0.144057
vt 0.678471 0.144057
vt 0.990624 0.131783
vt 0.678471 0.131783
vt 0.674641 0.141838
vt 0.590966 0.140762
vt 0.673190 0.154011
vt 0.589878 0.149892
vt 0.675218 0.058422
vt 0.507867 0.052731
vt 0.673767 0.070594
vt 0.507141 0.058817
vt 0.015733 0.188713
vt 0.218178 0.188713
vt 0.826074 0.579920
vt 0.825717 0.579548
vt 0.825717 0.189564
vt 0.826074 0.189191
vt 0.825106 0.580088
vt 0.825513 0.580399
vt 0.724291 0.580399
vt 0.723985 0.580088
vt 0.015174 0.189191
vt 0.015174 0.579920
vt 0.017326 0.598538
vt 0.017326 0.989269
vt 0.017892 0.598061
vt 0.220335 0.598061
vt 0.828227 0.989269
vt 0.827870 0.988898
vt 0.827870 0.598910
vt 0.828227 0.598538
vt 0.827256 0.989437
vt 0.827661 0.989747
vt 0.726440 0.989747
vt 0.726136 0.989437
vt 0.420624 0.188713
vt 0.623068 0.188713
vt 0.420624 0.580399
vt 0.218178 0.580399
vt 0.422777 0.598061
vt 0.625219 0.598061
vt 0.422777 0.989747
vt 0.220335 0.989747
vt 0.016496 0.178113
vt 0.178218 0.170226
vt 0.178346 0.170465
vt 0.016752 0.178343
vt 0.997645 0.093729
vt 0.685760 0.093729
vt 0.017328 0.094926
vt 0.017072 0.094696
vt 0.097933 0.090753
vt 0.098125 0.090987
vt 0.990490 0.180569
vt 0.678605 0.180569
vt 0.678604 0.107614
vt 0.990490 0.107614
vt 0.663956 0.022217
vt 0.502236 0.022226
vt 0.502108 0.021985
vt 0.663699 0.021983
vt 0.685759 0.020774
vt 0.997645 0.020774
vt 0.663123 0.105399
vt 0.663379 0.105634
vt 0.582519 0.105638
vt 0.582327 0.105400
vt 0.339940 0.162339
vt 0.501662 0.170226
vt 0.501534 0.170465
vt 0.339940 0.162587
vt 0.340516 0.078922
vt 0.502238 0.086809
vt 0.502110 0.087048
vt 0.340516 0.079170
vt 0.340516 0.022234
vt 0.178796 0.022226
vt 0.178924 0.021985
vt 0.340516 0.021987
vt 0.339940 0.105651
vt 0.178220 0.105643
vt 0.178348 0.105401
vt 0.339940 0.105404
vt 0.010539 0.166329
vt 0.010798 0.166306
vt 0.016207 0.178121
vt 0.669272 0.117282
vt 0.669010 0.117299
vt 0.663673 0.105634
vt 0.998026 0.032657
vt 0.998025 0.021009
vt 0.669848 0.033866
vt 0.669586 0.033882
vt 0.664249 0.022217
vt 0.016207 0.105634
vt 0.016500 0.105634
vt 0.010870 0.117299
vt 0.010608 0.117282
vt 0.663673 0.178121
vt 0.663384 0.178113
vt 0.669082 0.166306
vt 0.669341 0.166329
vt 0.998025 0.093496
vt 0.998026 0.081704
vt 0.664249 0.094704
vt 0.663960 0.094696
vt 0.669658 0.082889
vt 0.669917 0.082912
vt 0.990871 0.131785
vt 0.990871 0.119497
vt 0.673707 0.129571
vt 0.673452 0.129577
vt 0.998026 0.044946
vt 0.674283 0.046154
vt 0.674029 0.046160
vt 0.990871 0.168543
vt 0.990871 0.156308
vt 0.990871 0.144056
vt 0.673488 0.154082
vt 0.673741 0.154094
vt 0.674949 0.141838
vt 0.675197 0.141841
vt 0.998026 0.069469
vt 0.998026 0.057216
vt 0.674065 0.070665
vt 0.674318 0.070677
vt 0.675525 0.058421
vt 0.675774 0.058424
vt 0.015313 0.188832
vt 0.663463 0.178352
vt 0.663128 0.178343
vt 0.664039 0.094935
vt 0.663704 0.094926
vt 0.825933 0.580279
vt 0.825564 0.579953
vt 0.016418 0.105399
vt 0.016757 0.105399
vt 0.828085 0.989627
vt 0.827716 0.989302
vt 0.017468 0.598180
vt 0.016994 0.021983
vt 0.017333 0.021983
vt 0.017076 0.022217
vt 0.016783 0.022217
vt 0.016416 0.178352
vt 0.825564 0.189158
vt 0.825106 0.189023
vt 0.825513 0.188713
vt 0.825933 0.188832
vt 0.015733 0.580399
vt 0.015313 0.580279
vt 0.016783 0.094704
vt 0.016993 0.094935
vt 0.017892 0.989747
vt 0.017468 0.989627
vt 0.663462 0.105399
vt 0.664038 0.021983
vt 0.827716 0.598506
vt 0.827256 0.598371
vt 0.827661 0.598061
vt 0.828085 0.598180
vt 0.990870 0.180335
vt 0.685378 0.032657
vt 0.685379 0.021009
vt 0.011446 0.033882
vt 0.011184 0.033866
vt 0.678223 0.119497
vt 0.678225 0.107848
vt 0.990870 0.107848
vt 0.685379 0.093496
vt 0.685378 0.081704
vt 0.011115 0.082912
vt 0.011374 0.082889
vt 0.678225 0.180335
vt 0.678223 0.168543
vt 0.006427 0.129577
vt 0.006173 0.129571
vt 0.685378 0.044946
vt 0.007003 0.046160
vt 0.006749 0.046154
vt 0.678223 0.131785
vt 0.006138 0.154094
vt 0.006391 0.154082
vt 0.004682 0.141841
vt 0.004931 0.141838
vt 0.685378 0.069469
vt 0.685378 0.057216
vt 0.006714 0.070677
vt 0.006967 0.070665
vt 0.005258 0.058424
vt 0.005508 0.058421
vt 0.678223 0.156308
vt 0.678223 0.144056
vt 0.826196 0.188715
vt 0.826317 0.189030
vt 0.015050 0.580397
vt 0.014930 0.580081
vt 0.017204 0.989745
vt 0.017082 0.989429
vt 0.828349 0.598063
vt 0.828471 0.598378
vt 0.014930 0.189030
vt 0.015050 0.188715
vt 0.826317 0.580081
vt 0.826196 0.580397
vt 0.828471 0.989429
vt 0.828349 0.989745
vt 0.017082 0.598378
vt 0.017204 0.598063
vt 0.501659 0.105643
vt 0.663188 0.105939
vt 0.582523 0.174170
vt 0.339940 0.162034
vt 0.663764 0.022522
vt 0.178794 0.086809
vt 0.178888 0.086502
vt 0.340516 0.078617
vt 0.097936 0.022222
vt 0.839515 0.673130
vt 0.892823 0.673122
vt 0.892822 0.986788
vt 0.839472 0.986780
vt 0.839484 0.349706
vt 0.892791 0.349698
vt 0.892790 0.663280
vt 0.839483 0.663271
vt 0.951977 0.266665
vt 0.898627 0.264069
vt 0.898627 0.237851
vt 0.898627 0.203786
vt 0.951934 0.203794
vt 0.949702 0.338748
vt 0.896394 0.336155
vt 0.896394 0.302091
vt 0.896394 0.275607
vt 0.949701 0.275615
vt 0.843086 0.338748
vt 0.843087 0.275615
vt 0.946132 0.673130
vt 0.946173 0.986780
vt 0.946098 0.349707
vt 0.946097 0.663272
vt 0.845277 0.266665
vt 0.845320 0.203794
vt 0.955012 0.677867
vt 0.954753 0.986409
vt 0.952611 0.988489
vt 0.952873 0.675784
vt 0.973201 0.986362
vt 0.973202 0.677994
vt 0.975312 0.675880
vt 0.975311 0.988477
vt 0.973869 0.377198
vt 0.973987 0.319556
vt 0.976064 0.317407
vt 0.975976 0.379315
vt 0.973949 0.447845
vt 0.973989 0.389943
vt 0.976064 0.387791
vt 0.976058 0.449961
vt 0.982761 0.534200
vt 0.982800 0.592101
vt 0.980692 0.594217
vt 0.980687 0.532048
vt 0.984940 0.677865
vt 0.985197 0.986406
vt 0.983059 0.988490
vt 0.982799 0.675785
vt 0.961371 0.986279
vt 0.961374 0.677913
vt 0.963483 0.675798
vt 0.963482 0.988394
vt 0.982764 0.605104
vt 0.982882 0.662746
vt 0.980774 0.664863
vt 0.980687 0.602955
vt 0.839246 0.673273
vt 0.839203 0.986636
vt 0.839219 0.349853
vt 0.839218 0.663124
vt 0.952246 0.266530
vt 0.952199 0.203941
vt 0.949971 0.338613
vt 0.949967 0.275763
vt 0.842822 0.275763
vt 0.842817 0.338613
vt 0.946442 0.986636
vt 0.946401 0.673274
vt 0.946362 0.663124
vt 0.946363 0.349854
vt 0.845055 0.203941
vt 0.845007 0.266530
vt 0.952347 0.988818
vt 0.952609 0.675455
vt 0.975577 0.675543
vt 0.975576 0.988814
vt 0.976325 0.317063
vt 0.976241 0.379652
vt 0.976325 0.387447
vt 0.976323 0.450298
vt 0.980427 0.594554
vt 0.980426 0.531704
vt 0.982794 0.988818
vt 0.982534 0.675456
vt 0.963748 0.675460
vt 0.963747 0.988730
vt 0.980509 0.665200
vt 0.980426 0.602612
vt 0.839472 0.987050
vt 0.892822 0.987053
vt 0.892823 0.672857
vt 0.839516 0.672859
vt 0.839483 0.663542
vt 0.892790 0.663545
vt 0.892791 0.349433
vt 0.839484 0.349435
vt 0.949701 0.275344
vt 0.896394 0.275342
vt 0.896394 0.336420
vt 0.949703 0.339018
vt 0.946173 0.987051
vt 0.946098 0.349435
vt 0.955139 0.677499
vt 0.952998 0.675420
vt 0.952735 0.988853
vt 0.954880 0.986778
vt 0.982925 0.592475
vt 0.983300 0.592600
vt 0.981185 0.594710
vt 0.980815 0.594587
vt 0.975853 0.379685
vt 0.975483 0.379808
vt 0.973368 0.377697
vt 0.973743 0.377572
vt 0.973824 0.448220
vt 0.975935 0.450330
vt 0.975943 0.387418
vt 0.973867 0.389562
vt 0.980808 0.602582
vt 0.981172 0.602458
vt 0.983255 0.604596
vt 0.982886 0.604724
vt 0.983007 0.663120
vt 0.983382 0.663245
vt 0.981267 0.665356
vt 0.980897 0.665233
vt 0.976220 0.387134
vt 0.980532 0.594870
vt 0.980615 0.665516
vt 0.952714 0.675142
vt 0.953027 0.675038
vt 0.953370 0.675299
vt 0.845007 0.266843
vt 0.845276 0.266935
vt 0.952451 0.989131
vt 0.952199 0.203626
vt 0.951934 0.203523
vt 0.976218 0.450613
vt 0.975902 0.450719
vt 0.975565 0.450454
vt 0.949972 0.338926
vt 0.843087 0.275344
vt 0.842822 0.275447
vt 0.845320 0.203523
vt 0.845055 0.203626
vt 0.951977 0.266935
vt 0.952246 0.266843
vt 0.980530 0.602298
vt 0.839246 0.672960
vt 0.976135 0.379968
vt 0.946097 0.663543
vt 0.946362 0.663440
vt 0.898627 0.264334
vt 0.843086 0.339018
vt 0.898627 0.203521
vt 0.946132 0.672859
vt 0.955520 0.677376
vt 0.953108 0.988975
vt 0.955260 0.986901
vt 0.973449 0.448344
vt 0.975578 0.387294
vt 0.973498 0.389435
vt 0.975907 0.387030
vt 0.980848 0.594975
vt 0.980931 0.665621
vt 0.946442 0.986950
vt 0.952764 0.989235
vt 0.839219 0.349538
vt 0.946401 0.672960
vt 0.839218 0.663439
vt 0.946363 0.349538
vt 0.839203 0.986949
vt 0.980843 0.602193
vt 0.842817 0.338926
vt 0.975819 0.380073
vt 0.949966 0.275447
vt 0.176086 0.064905
vt 0.723985 0.189023
vt 0.726136 0.598371
vt 0.582376 0.105943
vt 0.178892 0.022530
vt 0.176122 0.040520
vt 0.504370 0.151861
vt 0.501568 0.169919
vt 0.173891 0.058817
vt 0.506547 0.133591
vt 0.173165 0.052731
vt 0.173909 0.046635
vt 0.507291 0.139686
vt 0.506565 0.145773
vt 0.623068 0.580399
vt 0.625219 0.989747
vt 0.724291 0.188713
vt 0.726440 0.598061
vt 0.178922 0.087048
vt 0.501531 0.105401
vt 0.582331 0.174404
vt 0.098128 0.021984
s 1
usemtl Wad1Mtl
f 1/1/1 2/2/2 3/3/3
f 3/3/3 4/4/4 5/5/5
f 1/1/1 3/3/3 5/5/5
f 5/5/5 6/6/6 7/7/7
f 1/1/1 5/5/5 7/7/7
f 8/8/8 1/1/1 7/7/7
f 9/9/9 10/10/10 11/11/11
f 11/11/11 12/12/12 13/13/13
f 9/9/9 11/11/11 13/13/13
f 13/13/13 14/14/14 15/15/15
f 9/9/9 13/13/13 15/15/15
f 16/16/16 9/9/9 15/15/15
f 17/17/17 18/18/17 19/19/17
f 19/19/17 20/20/17 17/17/17
f 21/21/18 22/22/19 23/23/20
f 23/23/20 24/24/21 21/21/18
f 25/25/22 26/26/23 27/27/22
f 27/27/22 28/28/22 25/25/22
f 29/29/24 30/30/25 31/31/26
f 31/31/26 32/32/27 29/29/24
f 33/33/28 34/34/29 35/35/5
f 35/35/5 36/36/30 33/33/28
f 37/37/14 38/38/15 39/39/31
f 39/39/31 40/40/32 37/37/14
f 41/41/17 42/42/17 43/43/17
f 43/43/17 44/44/17 41/41/17
f 45/45/22 46/46/22 47/47/22
f 47/47/22 48/48/22 45/45/22
f 49/49/17 50/50/17 51/51/17
f 51/51/17 52/52/17 49/49/17
f 53/53/33 54/54/34 55/55/35
f 55/55/35 56/56/36 53/53/33
f 57/57/37 58/58/22 59/59/22
f 59/59/22 60/60/22 57/57/37
f 61/61/38 62/62/39 63/63/40
f 63/63/40 64/64/41 61/61/38
f 65/65/17 66/66/17 67/67/17
f 67/67/17 68/68/17 65/65/17
f 69/69/22 70/70/37 71/71/22
f 71/71/22 72/72/22 69/69/22
f 73/73/42 74/74/17 19/19/17
f 19/19/17 18/18/17 73/73/42
f 75/75/43 22/22/19 21/21/18
f 21/21/18 76/76/44 75/75/43
f 26/26/23 77/77/22 78/78/22
f 78/78/22 27/27/22 26/26/23
f 79/79/45 30/30/25 29/29/24
f 29/29/24 80/80/46 79/79/45
f 81/81/47 82/82/17 83/83/17
f 83/83/17 84/84/17 81/81/47
f 85/85/22 86/86/22 46/46/22
f 46/46/22 87/87/22 85/85/22
f 88/88/17 89/89/17 74/74/17
f 74/74/17 73/73/42 88/88/17
f 90/90/17 91/91/17 89/89/17
f 89/89/17 88/88/17 90/90/17
f 90/90/17 52/52/17 51/51/17
f 51/51/17 91/91/17 90/90/17
f 92/92/48 75/75/43 76/76/44
f 76/76/44 93/93/49 92/92/48
f 94/94/50 92/92/48 93/93/49
f 93/93/49 95/95/51 94/94/50
f 55/55/35 94/94/50 95/95/51
f 95/95/51 56/56/36 55/55/35
f 77/77/22 96/96/22 97/97/22
f 97/97/22 78/78/22 77/77/22
f 98/98/22 99/99/22 97/97/22
f 97/97/22 96/96/22 98/98/22
f 60/60/22 59/59/22 99/99/22
f 99/99/22 98/98/22 60/60/22
f 100/100/52 79/79/45 80/80/46
f 80/80/46 101/101/53 100/100/52
f 102/102/54 100/100/52 101/101/53
f 101/101/53 103/103/55 102/102/54
f 63/63/40 102/102/54 103/103/55
f 103/103/55 64/64/41 63/63/40
f 82/82/17 104/104/17 105/105/17
f 105/105/17 83/83/17 82/82/17
f 106/106/56 107/107/17 105/105/17
f 105/105/17 104/104/17 106/106/56
f 68/68/17 67/67/17 107/107/17
f 107/107/17 106/106/56 68/68/17
f 108/108/22 109/109/22 86/86/22
f 86/86/22 85/85/22 108/108/22
f 110/110/22 111/111/22 109/109/22
f 109/109/22 108/108/22 110/110/22
f 110/110/22 72/72/22 71/71/22
f 71/71/22 111/111/22 110/110/22
f 112/112/57 113/113/58 3/3/3
f 3/3/3 2/2/2 112/112/57
f 114/114/59 115/115/60 116/116/61
f 116/116/61 117/117/62 114/114/59
f 118/118/63 119/119/64 120/120/65
f 120/120/65 121/121/66 118/118/63
f 122/122/67 8/8/8 7/7/7
f 7/7/7 123/123/68 122/122/67
f 124/124/69 11/11/11 10/10/10
f 10/10/10 125/125/70 124/124/69
f 126/126/71 127/127/72 14/14/14
f 14/14/14 13/13/13 126/126/71
f 128/128/73 129/129/74 130/130/75
f 130/130/75 131/131/76 128/128/73
f 132/132/77 133/133/78 134/134/79
f 134/134/79 135/135/15 132/132/77
f 136/136/80 137/137/81 33/33/28
f 33/33/28 36/36/30 136/136/80
f 138/138/82 139/139/83 4/4/4
f 4/4/4 35/35/5 138/138/82
f 140/140/84 141/141/72 37/37/14
f 37/37/14 40/40/32 140/140/84
f 142/142/85 143/143/86 15/15/15
f 15/15/15 39/39/31 142/142/85
f 144/144/87 145/145/88 146/146/58
f 146/146/58 147/147/89 144/144/87
f 23/23/20 148/148/90 149/149/91
f 149/149/91 24/24/21 23/23/20
f 150/150/92 151/151/93 152/152/94
f 152/152/94 153/153/65 150/150/92
f 31/31/26 154/154/95 155/155/96
f 155/155/96 32/32/27 31/31/26
f 61/61/38 156/156/97 157/157/98
f 157/157/98 62/62/39 61/61/38
f 158/158/99 159/159/100 160/160/72
f 160/160/72 161/161/71 158/158/99
f 53/53/33 162/162/101 163/163/76
f 163/163/76 54/54/34 53/53/33
f 164/164/78 165/165/102 166/166/103
f 166/166/103 167/167/104 164/164/78
f 168/168/105 169/169/106 170/170/81
f 170/170/81 171/171/107 168/168/105
f 172/172/108 173/173/109 174/174/83
f 174/174/83 175/175/110 172/172/108
f 176/176/100 177/177/100 178/178/111
f 178/178/111 179/179/84 176/176/100
f 180/180/112 181/181/112 182/182/86
f 182/182/86 183/183/85 180/180/112
f 184/184/113 185/185/114 144/144/87
f 144/144/87 186/186/115 184/184/113
f 187/187/116 188/188/117 165/165/102
f 165/165/102 189/189/118 187/187/116
f 190/190/119 55/55/35 54/54/34
f 54/54/34 191/191/120 190/190/119
f 192/192/121 193/193/122 158/158/99
f 158/158/99 194/194/123 192/192/121
f 195/195/124 196/196/125 197/197/126
f 197/197/126 198/198/127 195/195/124
f 199/199/128 200/200/129 201/201/130
f 201/201/130 202/202/131 199/199/128
f 203/203/132 23/23/20 22/22/19
f 22/22/19 204/204/133 203/203/132
f 205/205/134 206/206/135 207/207/136
f 207/207/136 208/208/137 205/205/134
f 209/209/138 102/102/54 63/63/40
f 63/63/40 210/210/127 209/209/138
f 211/211/139 212/212/140 188/188/117
f 188/188/117 187/187/116 211/211/139
f 213/213/141 94/94/50 55/55/35
f 55/55/35 190/190/119 213/213/141
f 214/214/142 215/215/143 193/193/122
f 193/193/122 192/192/121 214/214/142
f 216/216/113 30/30/25 79/79/45
f 79/79/45 217/217/144 216/216/113
f 217/217/144 79/79/45 100/100/52
f 100/100/52 218/218/145 217/217/144
f 218/218/145 100/100/52 102/102/54
f 102/102/54 209/209/138 218/218/145
f 202/202/131 201/201/130 219/219/146
f 219/219/146 220/220/147 202/202/131
f 220/220/147 219/219/146 221/221/148
f 221/221/148 222/222/149 220/220/147
f 222/222/149 221/221/148 212/212/140
f 212/212/140 211/211/139 222/222/149
f 204/204/133 22/22/19 75/75/43
f 75/75/43 223/223/150 204/204/133
f 223/223/150 75/75/43 92/92/48
f 92/92/48 224/224/151 223/223/150
f 224/224/151 92/92/48 94/94/50
f 94/94/50 213/213/141 224/224/151
f 208/208/137 207/207/136 225/225/152
f 225/225/152 226/226/153 208/208/137
f 226/226/153 225/225/152 227/227/154
f 227/227/154 228/228/155 226/226/153
f 228/228/155 227/227/154 215/215/143
f 215/215/143 214/214/142 228/228/155
f 229/229/156 112/112/57 2/2/2
f 2/2/2 1/1/1 229/229/156
f 230/230/157 231/231/158 200/200/129
f 200/200/129 199/199/128 230/230/157
f 232/232/159 233/233/160 206/206/135
f 206/206/135 205/205/134 232/232/159
f 234/234/161 119/119/64 118/118/63
f 118/118/63 235/235/162 234/234/161
f 236/236/163 237/237/164 196/196/125
f 196/196/125 195/195/124 236/236/163
f 238/238/165 133/133/78 132/132/77
f 132/132/77 239/239/166 238/238/165
f 240/240/167 126/126/71 13/13/13
f 13/13/13 12/12/12 240/240/167
f 241/241/168 242/242/169 243/243/170
f 243/243/170 244/244/120 241/241/168
f 186/186/115 144/144/87 147/147/89
f 147/147/89 245/245/156 186/186/115
f 246/246/171 247/247/172 248/248/158
f 248/248/158 249/249/157 246/246/171
f 6/6/6 5/5/5 250/250/173
f 250/250/173 251/251/159 6/6/6
f 252/252/132 151/151/93 150/150/92
f 150/150/92 253/253/161 252/252/132
f 9/9/9 16/16/16 254/254/164
f 254/254/164 255/255/174 9/9/9
f 189/189/118 165/165/102 164/164/78
f 164/164/78 256/256/175 189/189/118
f 194/194/123 158/158/99 161/161/71
f 161/161/71 257/257/176 194/194/123
f 258/258/177 259/259/178 260/260/169
f 260/260/169 261/261/179 258/258/177
f 30/30/25 216/216/113 262/262/115
f 262/262/115 31/31/26 30/30/25
f 56/56/36 263/263/180 264/264/118
f 264/264/118 53/53/33 56/56/36
f 265/265/181 266/266/119 244/244/120
f 244/244/120 243/243/170 265/265/181
f 64/64/41 267/267/121 268/268/123
f 268/268/123 61/61/38 64/64/41
f 62/62/39 269/269/182 210/210/127
f 210/210/127 63/63/40 62/62/39
f 24/24/21 270/270/128 271/271/131
f 271/271/131 21/21/18 24/24/21
f 151/151/93 252/252/132 272/272/133
f 272/272/133 273/273/183 151/151/93
f 32/32/27 274/274/184 275/275/185
f 275/275/185 29/29/24 32/32/27
f 276/276/186 277/277/187 198/198/127
f 198/198/127 197/197/126 276/276/186
f 95/95/51 278/278/188 263/263/180
f 263/263/180 56/56/36 95/95/51
f 279/279/189 280/280/141 266/266/119
f 266/266/119 265/265/181 279/279/189
f 103/103/55 281/281/190 267/267/121
f 267/267/121 64/64/41 103/103/55
f 185/185/114 184/184/113 282/282/191
f 282/282/191 283/283/192 185/185/114
f 283/283/192 282/282/191 284/284/193
f 284/284/193 285/285/194 283/283/192
f 285/285/194 284/284/193 277/277/187
f 277/277/187 276/276/186 285/285/194
f 21/21/18 271/271/131 286/286/147
f 286/286/147 76/76/44 21/21/18
f 76/76/44 286/286/147 287/287/195
f 287/287/195 93/93/49 76/76/44
f 93/93/49 287/287/195 278/278/188
f 278/278/188 95/95/51 93/93/49
f 273/273/183 272/272/133 288/288/196
f 288/288/196 289/289/197 273/273/183
f 289/289/197 288/288/196 290/290/198
f 290/290/198 291/291/199 289/289/197
f 291/291/199 290/290/198 280/280/141
f 280/280/141 279/279/189 291/291/199
f 29/29/24 275/275/185 292/292/200
f 292/292/200 80/80/46 29/29/24
f 80/80/46 292/292/200 293/293/201
f 293/293/201 101/101/53 80/80/46
f 101/101/53 293/293/201 281/281/190
f 281/281/190 103/103/55 101/101/53
f 122/122/67 229/229/156 1/1/1
f 1/1/1 8/8/8 122/122/67
f 117/117/62 249/249/157 294/294/128
f 294/294/128 295/295/21 117/117/62
f 123/123/68 251/251/159 296/296/202
f 296/296/202 297/297/27 123/123/68
f 114/114/59 234/234/161 235/235/162
f 235/235/162 115/115/60 114/114/59
f 125/125/70 255/255/174 298/298/124
f 298/298/124 299/299/203 125/125/70
f 128/128/73 238/238/165 239/239/166
f 239/239/166 129/129/74 128/128/73
f 124/124/69 240/240/167 12/12/12
f 12/12/12 11/11/11 124/124/69
f 131/131/76 261/261/179 300/300/204
f 300/300/204 301/301/205 131/131/76
f 302/302/26 303/303/206 229/229/156
f 229/229/156 122/122/67 302/302/26
f 116/116/61 246/246/171 249/249/157
f 249/249/157 117/117/62 116/116/61
f 7/7/7 6/6/6 251/251/159
f 251/251/159 123/123/68 7/7/7
f 304/304/20 305/305/132 234/234/161
f 234/234/161 114/114/59 304/304/20
f 10/10/10 9/9/9 255/255/174
f 255/255/174 125/125/70 10/10/10
f 306/306/33 307/307/118 238/238/165
f 238/238/165 128/128/73 306/306/33
f 308/308/38 309/309/123 240/240/167
f 240/240/167 124/124/69 308/308/38
f 130/130/75 258/258/177 261/261/179
f 261/261/179 131/131/76 130/130/75
f 144/144/87 185/185/114 18/18/17
f 18/18/17 17/17/17 144/144/87
f 185/185/114 283/283/192 73/73/42
f 73/73/42 18/18/17 185/185/114
f 283/283/192 285/285/194 88/88/17
f 88/88/17 73/73/42 283/283/192
f 285/285/194 276/276/186 90/90/17
f 90/90/17 88/88/17 285/285/194
f 276/276/186 197/197/126 52/52/17
f 52/52/17 90/90/17 276/276/186
f 197/197/126 196/196/125 49/49/17
f 49/49/17 52/52/17 197/197/126
f 181/181/112 50/50/17 49/49/17
f 49/49/17 196/196/125 181/181/112
f 310/310/112 41/41/17 44/44/17
f 44/44/17 180/180/112 310/310/112
f 165/165/102 188/188/117 81/81/47
f 81/81/47 311/311/17 165/165/102
f 188/188/117 212/212/140 82/82/17
f 82/82/17 81/81/47 188/188/117
f 212/212/140 221/221/148 104/104/17
f 104/104/17 82/82/17 212/212/140
f 221/221/148 219/219/146 106/106/56
f 106/106/56 104/104/17 221/221/148
f 219/219/146 201/201/130 68/68/17
f 68/68/17 106/106/56 219/219/146
f 201/201/130 200/200/129 65/65/17
f 65/65/17 68/68/17 201/201/130
f 312/312/207 66/66/17 65/65/17
f 65/65/17 200/200/129 312/312/207
f 145/145/88 20/20/17 313/313/208
f 313/313/208 168/168/105 145/145/88
f 158/158/99 193/193/122 87/87/22
f 87/87/22 314/314/209 158/158/99
f 193/193/122 215/215/143 85/85/22
f 85/85/22 87/87/22 193/193/122
f 215/215/143 227/227/154 108/108/22
f 108/108/22 85/85/22 215/215/143
f 227/227/154 225/225/152 110/110/22
f 110/110/22 108/108/22 227/227/154
f 225/225/152 207/207/136 72/72/22
f 72/72/22 110/110/22 225/225/152
f 207/207/136 206/206/135 69/69/22
f 69/69/22 72/72/22 207/207/136
f 173/173/109 70/70/37 69/69/22
f 69/69/22 206/206/135 173/173/109
f 315/315/210 316/316/22 317/317/209
f 317/317/209 172/172/108 315/315/210
f 151/151/93 273/273/183 26/26/23
f 26/26/23 25/25/22 151/151/93
f 273/273/183 289/289/197 77/77/22
f 77/77/22 26/26/23 273/273/183
f 289/289/197 291/291/199 96/96/22
f 96/96/22 77/77/22 289/289/197
f 291/291/199 279/279/189 98/98/22
f 98/98/22 96/96/22 291/291/199
f 279/279/189 265/265/181 60/60/22
f 60/60/22 98/98/22 279/279/189
f 265/265/181 243/243/170 57/57/37
f 57/57/37 60/60/22 265/265/181
f 318/318/211 58/58/22 57/57/37
f 57/57/37 243/243/170 318/318/211
f 159/159/100 45/45/22 48/48/22
f 48/48/22 176/176/100 159/159/100
f 319/319/212 320/320/213 321/321/214
f 321/321/214 322/322/215 319/319/212
f 323/323/216 324/324/31 325/325/32
f 325/325/32 326/326/217 323/323/216
f 327/327/218 328/328/105 329/329/219
f 329/329/219 330/330/112 331/331/220
f 327/327/218 329/329/219 331/331/220
f 332/332/221 333/333/222 334/334/22
f 332/332/221 334/334/22 335/335/100
f 332/332/221 335/335/100 336/336/223
f 334/334/22 333/333/222 337/337/224
f 334/334/22 337/337/224 338/338/225
f 334/334/22 338/338/225 335/335/100
f 320/320/213 339/339/226 340/340/227
f 340/340/227 321/321/214 320/320/213
f 324/324/31 341/341/228 342/342/229
f 342/342/229 325/325/32 324/324/31
f 329/329/219 328/328/105 343/343/230
f 329/329/219 343/343/230 344/344/231
f 329/329/219 344/344/231 330/330/112
f 345/345/232 346/346/233 347/347/234
f 347/347/234 348/348/235 345/345/232
f 349/349/236 350/350/237 351/351/238
f 351/351/238 352/352/239 349/349/236
f 353/353/240 354/354/241 355/355/242
f 355/355/242 356/356/243 353/353/240
f 357/357/244 358/358/245 359/359/246
f 359/359/246 360/360/247 357/357/244
f 361/361/248 362/362/249 363/363/250
f 363/363/250 364/364/251 361/361/248
f 365/365/252 366/366/253 367/367/254
f 367/367/254 368/368/255 365/365/252
f 369/369/256 370/370/257 371/371/258
f 371/371/258 372/372/259 369/369/256
f 373/373/260 374/374/257 375/375/261
f 375/375/261 376/376/262 373/373/260
f 377/377/263 319/319/212 322/322/215
f 322/322/215 378/378/264 377/377/263
f 379/379/265 323/323/216 326/326/217
f 326/326/217 380/380/266 379/379/265
f 381/381/267 327/327/218 331/331/220
f 331/331/220 382/382/268 381/381/267
f 383/383/269 332/332/221 336/336/223
f 336/336/223 384/384/270 383/383/269
f 385/385/271 338/338/225 337/337/224
f 337/337/224 386/386/272 385/385/271
f 387/387/273 340/340/227 339/339/226
f 339/339/226 388/388/274 387/387/273
f 389/389/275 342/342/229 341/341/228
f 341/341/228 390/390/276 389/389/275
f 391/391/277 344/344/231 343/343/230
f 343/343/230 392/392/278 391/391/277
f 347/347/234 393/393/263 394/394/264
f 394/394/264 348/348/235 347/347/234
f 351/351/238 395/395/265 396/396/279
f 396/396/279 352/352/239 351/351/238
f 355/355/242 397/397/280 398/398/268
f 398/398/268 356/356/243 355/355/242
f 359/359/246 399/399/281 400/400/270
f 400/400/270 360/360/247 359/359/246
f 363/363/250 401/401/271 402/402/282
f 402/402/282 364/364/251 363/363/250
f 367/367/254 403/403/283 404/404/284
f 404/404/284 368/368/255 367/367/254
f 371/371/258 405/405/285 406/406/286
f 406/406/286 372/372/259 371/371/258
f 375/375/261 407/407/277 408/408/287
f 408/408/287 376/376/262 375/375/261
f 409/409/288 322/322/215 321/321/214
f 321/321/214 410/410/289 409/409/288
f 411/411/290 320/320/213 319/319/212
f 319/319/212 412/412/291 411/411/290
f 413/413/292 326/326/217 325/325/32
f 325/325/32 414/414/84 413/413/292
f 415/415/293 324/324/31 323/323/216
f 323/323/216 416/416/294 415/415/293
f 417/417/295 336/336/223 335/335/100
f 335/335/100 418/418/84 417/417/295
f 419/419/290 333/333/222 332/332/221
f 332/332/221 420/420/296 419/419/290
f 410/410/289 321/321/214 340/340/227
f 340/340/227 421/421/297 410/410/289
f 422/422/298 341/341/228 324/324/31
f 324/324/31 415/415/293 422/422/298
f 423/423/299 345/345/232 348/348/235
f 348/348/235 424/424/300 423/423/299
f 425/425/301 347/347/234 346/346/233
f 346/346/233 426/426/302 425/425/301
f 427/427/249 428/428/303 429/429/239
f 429/429/239 430/430/304 427/427/249
f 431/431/305 432/432/238 433/433/306
f 433/433/306 434/434/249 431/431/305
f 435/435/257 357/357/244 360/360/247
f 360/360/247 436/436/307 435/435/257
f 437/437/308 359/359/246 358/358/245
f 358/358/245 438/438/309 437/437/308
f 439/439/310 440/440/311 441/441/253
f 441/441/253 442/442/312 439/439/310
f 443/443/257 444/444/313 445/445/259
f 445/445/259 446/446/314 443/443/257
f 447/447/315 399/399/281 359/359/246
f 359/359/246 437/437/308 447/447/315
f 448/448/316 401/401/271 363/363/250
f 363/363/250 430/430/304 448/448/316
f 449/449/317 407/407/277 375/375/261
f 375/375/261 446/446/314 449/449/317
f 450/450/318 451/451/280 452/452/319
f 452/452/319 424/424/300 450/450/318
f 453/453/320 392/392/278 343/343/230
f 343/343/230 454/454/297 453/453/320
f 455/455/321 393/393/263 347/347/234
f 347/347/234 425/425/301 455/455/321
f 456/456/322 382/382/268 331/331/220
f 331/331/220 457/457/323 456/456/322
f 458/458/324 459/459/325 460/460/258
f 460/460/258 436/436/307 458/458/324
f 420/420/296 332/332/221 383/383/269
f 383/383/269 461/461/326 420/420/296
f 462/462/327 338/338/225 385/385/271
f 385/385/271 463/463/328 462/462/327
f 464/464/329 344/344/231 391/391/277
f 391/391/277 465/465/317 464/464/329
f 466/466/288 327/327/218 381/381/267
f 381/381/267 467/467/318 466/466/288
f 439/439/310 376/376/262 408/408/287
f 408/408/287 468/468/330 439/439/310
f 412/412/291 319/319/212 377/377/263
f 377/377/263 469/469/331 412/412/291
f 431/431/305 356/356/243 398/398/268
f 398/398/268 470/470/332 431/431/305
f 471/471/333 342/342/229 389/389/275
f 389/389/275 472/472/324 471/471/333
f 327/327/218 466/466/288 473/473/289
f 473/473/289 328/328/105 327/327/218
f 333/333/222 419/419/290 474/474/334
f 474/474/334 337/337/224 333/333/222
f 338/338/225 462/462/327 418/418/84
f 418/418/84 335/335/100 338/338/225
f 330/330/112 475/475/85 457/457/323
f 457/457/323 331/331/220 330/330/112
f 342/342/229 471/471/333 414/414/84
f 414/414/84 325/325/32 342/342/229
f 320/320/213 411/411/290 476/476/335
f 476/476/335 339/339/226 320/320/213
f 328/328/105 473/473/289 454/454/297
f 454/454/297 343/343/230 328/328/105
f 344/344/231 464/464/329 475/475/85
f 475/475/85 330/330/112 344/344/231
f 477/477/336 423/423/299 424/424/300
f 424/424/300 452/452/319 477/477/336
f 478/478/337 425/425/301 426/426/302
f 426/426/302 479/479/248 478/478/337
f 362/362/249 427/427/249 430/430/304
f 430/430/304 363/363/250 362/362/249
f 356/356/243 431/431/305 434/434/249
f 434/434/249 353/353/240 356/356/243
f 480/480/257 435/435/257 436/436/307
f 436/436/307 460/460/258 480/480/257
f 481/481/338 437/437/308 438/438/309
f 438/438/309 482/482/252 481/481/338
f 376/376/262 439/439/310 442/442/312
f 442/442/312 373/373/260 376/376/262
f 374/374/257 443/443/257 446/446/314
f 446/446/314 375/375/261 374/374/257
f 483/483/339 447/447/315 437/437/308
f 437/437/308 481/481/338 483/483/339
f 484/484/340 448/448/316 430/430/304
f 430/430/304 429/429/239 484/484/340
f 485/485/276 449/449/317 446/446/314
f 446/446/314 445/445/259 485/485/276
f 394/394/264 450/450/318 424/424/300
f 424/424/300 348/348/235 394/394/264
f 387/387/273 486/486/341 421/421/297
f 421/421/297 340/340/227 387/387/273
f 487/487/282 455/455/321 425/425/301
f 425/425/301 478/478/337 487/487/282
f 379/379/265 488/488/322 416/416/294
f 416/416/294 323/323/216 379/379/265
f 400/400/270 458/458/324 436/436/307
f 436/436/307 360/360/247 400/400/270
f 339/339/226 476/476/335 489/489/326
f 489/489/326 388/388/274 339/339/226
f 326/326/217 413/413/292 490/490/328
f 490/490/328 380/380/266 326/326/217
f 341/341/228 422/422/298 491/491/342
f 491/491/342 390/390/276 341/341/228
f 322/322/215 409/409/288 492/492/343
f 492/492/343 378/378/264 322/322/215
f 440/440/311 439/439/310 468/468/330
f 468/468/330 493/493/344 440/440/311
f 337/337/224 474/474/334 494/494/331
f 494/494/331 386/386/272 337/337/224
f 432/432/238 431/431/305 470/470/332
f 470/470/332 495/495/265 432/432/238
f 336/336/223 417/417/295 496/496/324
f 496/496/324 384/384/270 336/336/223
f 36/36/30 35/35/5 4/4/4
f 4/4/4 3/3/3 36/36/30
f 40/40/32 39/39/31 15/15/15
f 15/15/15 14/14/14 40/40/32
f 43/43/17 313/313/208 20/20/17
f 20/20/17 19/19/17 43/43/17
f 314/314/209 87/87/22 46/46/22
f 46/46/22 45/45/22 314/314/209
f 50/50/17 44/44/17 43/43/17
f 43/43/17 51/51/17 50/50/17
f 317/317/209 47/47/22 71/71/22
f 71/71/22 70/70/37 317/317/209
f 74/74/17 43/43/17 19/19/17
f 86/86/22 47/47/22 46/46/22
f 89/89/17 43/43/17 74/74/17
f 91/91/17 43/43/17 89/89/17
f 51/51/17 43/43/17 91/91/17
f 109/109/22 47/47/22 86/86/22
f 111/111/22 47/47/22 109/109/22
f 71/71/22 47/47/22 111/111/22
f 136/136/80 36/36/30 3/3/3
f 3/3/3 113/113/58 136/136/80
f 140/140/84 40/40/32 14/14/14
f 14/14/14 127/127/72 140/140/84
f 250/250/173 5/5/5 4/4/4
f 4/4/4 139/139/83 250/250/173
f 254/254/164 16/16/16 15/15/15
f 15/15/15 143/143/86 254/254/164
f 168/168/105 171/171/107 146/146/58
f 146/146/58 145/145/88 168/168/105
f 176/176/100 179/179/84 160/160/72
f 160/160/72 159/159/100 176/176/100
f 206/206/135 233/233/160 174/174/83
f 174/174/83 173/173/109 206/206/135
f 196/196/125 237/237/164 182/182/86
f 182/182/86 181/181/112 196/196/125
f 180/180/112 44/44/17 50/50/17
f 50/50/17 181/181/112 180/180/112
f 144/144/87 17/17/17 20/20/17
f 20/20/17 145/145/88 144/144/87
f 172/172/108 317/317/209 70/70/37
f 70/70/37 173/173/109 172/172/108
f 158/158/99 314/314/209 45/45/22
f 45/45/22 159/159/100 158/158/99
f 497/497/22 47/47/22 317/317/209
f 317/317/209 316/316/22 497/497/22
f 498/498/345 121/121/66 34/34/29
f 34/34/29 33/33/28 498/498/345
f 499/499/14 135/135/15 38/38/15
f 38/38/15 37/37/14 499/499/14
f 500/500/17 84/84/17 42/42/17
f 42/42/17 41/41/17 500/500/17
f 501/501/22 48/48/22 47/47/22
f 47/47/22 502/502/22 501/501/22
f 313/313/208 43/43/17 503/503/17
f 503/503/17 504/504/17 313/313/208
f 505/505/22 47/47/22 497/497/22
f 506/506/17 43/43/17 42/42/17
f 507/507/22 47/47/22 505/505/22
f 508/508/22 47/47/22 507/507/22
f 502/502/22 47/47/22 508/508/22
f 509/509/17 43/43/17 506/506/17
f 510/510/17 43/43/17 509/509/17
f 503/503/17 43/43/17 510/510/17
f 138/138/82 35/35/5 34/34/29
f 34/34/29 511/511/346 138/138/82
f 142/142/85 39/39/31 38/38/15
f 38/38/15 512/512/86 142/142/85
f 513/513/347 498/498/345 33/33/28
f 33/33/28 137/137/81 513/513/347
f 514/514/348 499/499/14 37/37/14
f 37/37/14 141/141/72 514/514/348
f 172/172/108 175/175/110 515/515/346
f 515/515/346 315/315/210 172/172/108
f 180/180/112 183/183/85 516/516/86
f 516/516/86 310/310/112 180/180/112
f 312/312/207 517/517/347 170/170/81
f 170/170/81 169/169/106 312/312/207
f 318/318/211 518/518/349 178/178/111
f 178/178/111 177/177/100 318/318/211
f 166/166/103 500/500/17 41/41/17
f 41/41/17 310/310/112 166/166/103
f 168/168/105 313/313/208 504/504/17
f 504/504/17 169/169/106 168/168/105
f 152/152/94 28/28/22 316/316/22
f 316/316/22 315/315/210 152/152/94
f 176/176/100 48/48/22 501/501/22
f 501/501/22 177/177/100 176/176/100
f 497/497/22 316/316/22 28/28/22
f 28/28/22 27/27/22 497/497/22
f 58/58/22 501/501/22 502/502/22
f 502/502/22 59/59/22 58/58/22
f 66/66/17 504/504/17 503/503/17
f 503/503/17 67/67/17 66/66/17
f 505/505/22 497/497/22 27/27/22
f 27/27/22 78/78/22 505/505/22
f 506/506/17 42/42/17 84/84/17
f 84/84/17 83/83/17 506/506/17
f 507/507/22 505/505/22 78/78/22
f 78/78/22 97/97/22 507/507/22
f 99/99/22 508/508/22 507/507/22
f 507/507/22 97/97/22 99/99/22
f 59/59/22 502/502/22 508/508/22
f 508/508/22 99/99/22 59/59/22
f 509/509/17 506/506/17 83/83/17
f 83/83/17 105/105/17 509/509/17
f 107/107/17 510/510/17 509/509/17
f 509/509/17 105/105/17 107/107/17
f 67/67/17 503/503/17 510/510/17
f 510/510/17 107/107/17 67/67/17
f 511/511/346 34/34/29 121/121/66
f 121/121/66 120/120/65 511/511/346
f 512/512/86 38/38/15 135/135/15
f 135/135/15 134/134/79 512/512/86
f 315/315/210 515/515/346 153/153/65
f 153/153/65 152/152/94 315/315/210
f 310/310/112 516/516/86 167/167/104
f 167/167/104 166/166/103 310/310/112
f 169/169/106 504/504/17 66/66/17
f 66/66/17 312/312/207 169/169/106
f 177/177/100 501/501/22 58/58/22
f 58/58/22 318/318/211 177/177/100
f 247/247/172 246/246/171 116/116/61
f 116/116/61 115/115/60 235/235/162
f 247/247/172 116/116/61 235/235/162
f 235/235/162 118/118/63 121/121/66
f 247/247/172 235/235/162 121/121/66
f 498/498/345 247/247/172 121/121/66
f 259/259/178 258/258/177 130/130/75
f 130/130/75 129/129/74 239/239/166
f 259/259/178 130/130/75 239/239/166
f 239/239/166 132/132/77 135/135/15
f 259/259/178 239/239/166 135/135/15
f 499/499/14 259/259/178 135/135/15
f 311/311/17 81/81/47 84/84/17
f 84/84/17 500/500/17 311/311/17
f 513/513/347 248/248/158 247/247/172
f 247/247/172 498/498/345 513/513/347
f 514/514/348 260/260/169 259/259/178
f 259/259/178 499/499/14 514/514/348
f 312/312/207 200/200/129 231/231/158
f 231/231/158 517/517/347 312/312/207
f 318/318/211 243/243/170 242/242/169
f 242/242/169 518/518/349 318/318/211
f 165/165/102 311/311/17 500/500/17
f 500/500/17 166/166/103 165/165/102
f 151/151/93 25/25/22 28/28/22
f 28/28/22 152/152/94 151/151/93
