# Blender 5.1.2
# www.blender.org
mtllib Wing.mtl
o Wing
v -0.400310 -0.134050 1.939117
v 0.394510 -0.134050 1.939117
v 0.394510 0.125901 1.939117
v 0.524981 -0.057510 1.932217
v 0.524981 0.049361 1.932217
v -0.400310 0.125901 1.939117
v -0.530779 0.049361 1.932217
v -0.530779 -0.057510 1.932217
v 0.196100 0.047080 -1.822781
v 0.394510 0.125901 1.939117
v 0.524981 0.049361 1.932217
v -0.530779 0.049361 1.932217
v -0.201900 0.047080 -1.822781
v -0.332370 0.016960 -1.822781
v -0.400310 0.125901 1.939117
v 0.196100 -0.055240 -1.822781
v -0.400310 -0.134050 1.939117
v -0.201900 -0.055240 -1.822781
v 0.394510 -0.134050 1.939117
v 0.524981 -0.057510 1.932217
v 0.326571 -0.025110 -1.822781
v -0.201900 0.047080 -1.822781
v -0.400310 0.125901 1.939117
v 0.196100 0.047080 -1.822781
v 0.394510 0.125901 1.939117
v 0.152861 0.035970 -1.888084
v -0.158659 0.035970 -1.888084
v -0.260779 0.012390 -1.888084
v -0.332370 0.016960 -1.822781
v -0.002900 -0.004080 -1.960384
v 0.254981 0.012390 -1.888084
v 0.326571 0.016960 -1.822781
v 0.524981 0.049361 1.932217
v 0.524981 -0.057510 1.932217
v 0.326571 -0.025110 -1.822781
v 0.254981 -0.020540 -1.888084
v 0.196100 -0.055240 -1.822781
v 0.152861 -0.044120 -1.888084
v -0.158659 -0.044120 -1.888084
v -0.201900 -0.055240 -1.822781
v -0.260779 -0.020540 -1.888084
v -0.332370 -0.025110 -1.822781
v -0.530779 0.049361 1.932217
v -0.530779 -0.057510 1.932217
v -0.400310 -0.134050 1.939117
vn -0.0000 -0.0000 1.0000
vn 0.0551 -0.0000 0.9985
vn 0.0550 -0.0000 0.9985
vn -0.0551 -0.0000 0.9985
vn -0.0550 -0.0000 0.9985
vn 0.0707 0.9972 -0.0236
vn 0.6904 0.7219 -0.0471
vn -0.6904 0.7219 -0.0471
vn -0.0707 0.9972 -0.0235
vn -0.6941 0.7178 -0.0552
vn -0.0707 0.9972 -0.0236
vn 0.0707 -0.9972 -0.0236
vn -0.0706 -0.9972 -0.0236
vn -0.0706 -0.9972 -0.0235
vn 0.6904 -0.7219 -0.0471
vn 0.6941 -0.7178 -0.0552
vn -0.0706 0.9972 -0.0236
vn 0.0706 0.9972 -0.0236
vn 0.0551 0.9526 -0.2992
vn -0.0551 0.9526 -0.2992
vn -0.3561 0.6647 -0.6568
vn -0.0000 -0.0001 -1.0000
vn 0.3561 0.6647 -0.6568
vn 0.6941 0.7177 -0.0552
vn 0.6904 -0.7219 -0.0470
vn 0.3561 -0.6647 -0.6568
vn 0.0551 -0.9526 -0.2992
vn -0.0551 -0.9526 -0.2992
vn -0.0707 -0.9972 -0.0236
vn -0.3561 -0.6647 -0.6568
vn -0.6941 -0.7178 -0.0553
vn -0.6904 0.7219 -0.0470
vn -0.6905 -0.7218 -0.0471
vt 0.964240 0.964240
vt 0.035760 0.964240
vt 0.267536 0.070863
vt 0.732464 0.070863
vt 0.500000 0.070863
s 1
usemtl Handle1Mtl.063
f 1/1/1 2/2/1 3/2/1
f 3/2/1 2/2/1 4/2/2
f 3/2/1 4/2/2 5/2/3
f 1/1/1 3/2/1 6/1/1
f 1/1/1 6/1/1 7/1/4
f 1/1/1 7/1/4 8/1/5
f 9/3/6 10/2/6 11/2/7
f 12/1/8 13/4/9 14/4/10
f 13/4/9 12/1/8 15/1/11
f 16/3/12 17/1/13 18/4/14
f 17/1/13 16/3/12 19/2/12
f 16/3/12 20/2/15 19/2/12
f 20/2/15 16/3/12 21/3/16
f 22/4/11 23/1/17 24/3/6
f 24/3/6 23/1/17 25/2/18
f 22/4/11 24/3/6 26/3/19
f 22/4/11 26/3/19 27/4/20
f 28/4/21 22/4/11 27/4/20
f 22/4/11 28/4/21 29/4/10
f 27/4/20 26/3/19 30/5/22
f 28/4/21 27/4/20 30/5/22
f 31/3/23 26/3/19 24/3/6
f 26/3/19 31/3/23 30/5/22
f 24/3/6 32/3/24 31/3/23
f 33/2/7 32/3/24 24/3/6
f 34/2/25 32/3/24 33/2/7
f 32/3/24 34/2/25 35/3/16
f 31/3/23 32/3/24 36/3/26
f 32/3/24 35/3/16 36/3/26
f 31/3/23 36/3/26 30/5/22
f 37/3/12 36/3/26 35/3/16
f 36/3/26 38/3/27 30/5/22
f 36/3/26 37/3/12 38/3/27
f 37/3/12 39/4/28 38/3/27
f 38/3/27 39/4/28 30/5/22
f 37/3/12 40/4/29 39/4/28
f 39/4/28 41/4/30 30/5/22
f 41/4/30 39/4/28 40/4/29
f 41/4/30 28/4/21 30/5/22
f 42/4/31 28/4/21 41/4/30
f 40/4/29 42/4/31 41/4/30
f 28/4/21 42/4/31 29/4/10
f 43/1/32 29/4/10 42/4/31
f 42/4/31 44/1/33 43/1/32
f 44/1/33 42/4/31 40/4/29
f 40/4/29 45/1/29 44/1/33
