# Blender 5.1.2
# www.blender.org
mtllib Banjo.mtl
o Banjo
v 0.168099 1.055501 0.220421
v 0.157690 0.671681 -0.031580
v 0.168099 1.097291 0.113420
v 0.157690 0.634951 0.062420
v 0.100160 -0.461999 0.038521
v 0.138969 -0.746399 -0.079081
v 0.101759 -0.466429 -0.069580
v 0.138969 -0.791809 0.046021
v 0.081619 0.485461 0.017019
v 0.081619 0.506501 -0.036881
v 0.138969 -0.791809 0.046021
v 0.100160 -0.461999 0.038521
v 0.076280 -0.529799 0.151819
v 0.105730 -0.791809 0.159321
v 0.157690 0.634951 0.062420
v 0.081619 0.506501 -0.036881
v 0.157690 0.671681 -0.031580
v 0.081619 0.485461 0.017019
v 0.000750 1.141451 0.126720
v -0.166611 1.055501 0.220421
v 0.000750 1.098031 0.237921
v -0.166611 1.097291 0.113420
v 0.168099 1.055501 0.220421
v 0.168099 1.097291 0.113420
v -0.097850 -0.448779 0.038219
v -0.074080 -0.516569 0.151520
v 0.000919 -0.455069 0.046021
v 0.076280 -0.529799 0.151819
v 0.100160 -0.461999 0.038521
v 0.000919 -0.455069 0.046021
v -0.074080 -0.516569 0.151520
v 0.000919 -0.522859 0.159420
v 0.076280 -0.529799 0.151819
v -0.104021 -0.791809 0.159321
v 0.000919 -0.522859 0.159420
v -0.074080 -0.516569 0.151520
v 0.000859 -0.825749 0.167820
v 0.105730 -0.791809 0.159321
v 0.076280 -0.529799 0.151819
v 0.100160 -0.461999 0.038521
v 0.081619 0.485461 0.017019
v 0.000919 -0.455069 0.046021
v 0.000859 0.501611 0.024321
v -0.079911 0.485461 0.017019
v -0.097850 -0.448779 0.038219
v 0.000750 0.658931 0.073320
v -0.079911 0.485461 0.017019
v 0.000859 0.501611 0.024321
v -0.156200 0.634951 0.062420
v 0.081619 0.485461 0.017019
v 0.157690 0.634951 0.062420
v 0.000750 0.658931 0.073320
v -0.166611 1.055501 0.220421
v -0.156200 0.634951 0.062420
v 0.000750 1.098031 0.237921
v 0.168099 1.055501 0.220421
v 0.157690 0.634951 0.062420
v -0.166611 1.097291 0.113420
v -0.156200 0.671681 -0.031580
v -0.166611 1.055501 0.220421
v -0.156200 0.634951 0.062420
v -0.137260 -0.791809 0.046021
v -0.097850 -0.448779 0.038219
v -0.137260 -0.746399 -0.079081
v -0.099441 -0.452949 -0.069179
v -0.079911 0.485461 0.017019
v -0.079911 0.506501 -0.036881
v -0.137260 -0.791809 0.046021
v -0.074080 -0.516569 0.151520
v -0.097850 -0.448779 0.038219
v -0.104021 -0.791809 0.159321
v -0.156200 0.671681 -0.031580
v -0.079911 0.506501 -0.036881
v -0.156200 0.634951 0.062420
v -0.079911 0.485461 0.017019
v 0.000859 -0.825749 0.054421
v -0.104021 -0.791809 0.159321
v -0.137260 -0.791809 0.046021
v 0.000859 -0.825749 0.167820
v 0.138969 -0.791809 0.046021
v 0.105730 -0.791809 0.159321
v 0.000859 -0.825749 0.054421
v 0.000859 -0.825749 0.167820
v -0.166611 1.097291 0.113420
v 0.000750 0.697101 -0.024380
v -0.156200 0.671681 -0.031580
v 0.000750 1.141451 0.126720
v 0.168099 1.097291 0.113420
v 0.157690 0.671681 -0.031580
v -0.079911 0.506501 -0.036881
v -0.156200 0.671681 -0.031580
v 0.000750 0.697101 -0.024380
v 0.000859 0.523471 -0.031679
v 0.081619 0.506501 -0.036881
v 0.157690 0.671681 -0.031580
v -0.079911 0.506501 -0.036881
v 0.000919 -0.459529 -0.065781
v -0.099441 -0.452949 -0.069179
v 0.000859 0.523471 -0.031679
v 0.081619 0.506501 -0.036881
v 0.101759 -0.466429 -0.069580
v 0.000859 -0.740389 -0.075479
v -0.137260 -0.746399 -0.079081
v 0.138969 -0.746399 -0.079081
v 0.383229 -0.930799 -0.123779
v 0.392429 -0.925489 0.137119
v 0.453000 -1.151559 0.137119
v 0.442379 -1.151559 -0.123779
v 0.383229 -1.372329 -0.123779
v 0.392429 -1.377639 0.137119
v -0.381521 -0.930799 -0.123779
v -0.225221 -0.759989 0.137119
v -0.219911 -0.769189 -0.123779
v -0.390720 -0.925489 0.137119
v 0.000859 -0.699409 0.137119
v 0.000859 -0.710039 -0.123779
v 0.221620 -0.769189 -0.123779
v 0.226930 -0.759989 0.137119
v 0.383229 -0.930799 -0.123779
v 0.392429 -0.925489 0.137119
v -0.381521 -1.372329 -0.123779
v -0.390720 -1.377639 0.137119
v -0.451291 -1.151559 0.137119
v -0.440670 -1.151559 -0.123779
v -0.381521 -0.930799 -0.123779
v -0.390720 -0.925489 0.137119
v 0.383229 -1.372329 -0.123779
v 0.392429 -1.377639 0.137119
v 0.226930 -1.543139 0.137119
v 0.221620 -1.533939 -0.123779
v 0.000859 -1.603709 0.137119
v 0.000859 -1.593089 -0.123779
v -0.219911 -1.533939 -0.123779
v -0.225221 -1.543139 0.137119
v -0.381521 -1.372329 -0.123779
v -0.390720 -1.377639 0.137119
v -0.381521 -0.930799 -0.123779
v -0.219911 -0.769189 -0.123779
v 0.000859 -1.151559 -0.123779
v -0.440670 -1.151559 -0.123779
v 0.000859 -0.710039 -0.123779
v -0.381521 -1.372329 -0.123779
v 0.221620 -0.769189 -0.123779
v -0.219911 -1.533939 -0.123779
v 0.000859 -1.593089 -0.123779
v 0.383229 -0.930799 -0.123779
v 0.221620 -1.533939 -0.123779
v 0.442379 -1.151559 -0.123779
v 0.383229 -1.372329 -0.123779
v 0.259560 0.948571 0.081720
v 0.259560 0.935881 0.119221
v 0.268700 0.927251 0.116220
v 0.268700 0.939931 0.078819
v 0.268700 0.727011 0.088720
v 0.259560 0.763461 0.070921
v 0.259560 0.732751 0.095819
v 0.268700 0.757721 0.063820
v 0.268700 0.939931 0.078819
v 0.268700 0.839811 0.086620
v 0.268700 0.852491 0.049219
v 0.268700 0.927251 0.116220
v 0.268700 0.727011 0.088720
v 0.268700 0.668841 0.017019
v 0.268700 0.699551 -0.007879
v 0.268700 0.757721 0.063820
v 0.093050 0.735071 0.019920
v 0.089429 0.763811 -0.059980
v 0.105479 0.707291 0.008619
v 0.100359 0.739381 -0.069981
v 0.089429 0.714941 -0.079981
v 0.093050 0.679501 -0.002779
v 0.104099 0.929241 0.099220
v 0.100480 0.957971 0.019220
v 0.116529 0.901451 0.087820
v 0.111410 0.933541 0.009319
v 0.100480 0.909101 -0.000679
v 0.104099 0.873671 0.076521
v -0.050611 0.933491 0.100920
v -0.054231 0.962221 0.021021
v -0.038180 0.905701 0.089621
v -0.043301 0.937791 0.011021
v -0.054231 0.913361 0.001020
v -0.050611 0.877921 0.078220
v -0.036500 0.728211 0.017120
v -0.040121 0.756941 -0.062780
v -0.024071 0.700421 0.005819
v -0.029191 0.732511 -0.072781
v -0.040121 0.708071 -0.082781
v -0.036500 0.672641 -0.005579
v 0.167339 -1.118849 -0.183279
v 0.253950 -1.188359 -0.039480
v 0.167339 -1.179679 -0.183279
v 0.253950 -1.109059 -0.039480
v 0.100619 -1.552489 -0.221979
v 0.152529 -1.594149 -0.135780
v 0.100619 -1.588949 -0.221979
v 0.152529 -1.546629 -0.135780
v 0.167339 -1.443239 -0.162180
v 0.167339 -1.459759 0.122921
v 0.167339 -1.662119 -0.162180
v 0.167339 -1.647469 0.122921
v 0.074220 0.761251 -0.034081
v 0.067629 0.504461 -0.049879
v 0.067629 0.504461 -0.068680
v 0.074220 0.761251 -0.012581
v 0.084879 -1.130309 -0.180679
v 0.084879 -1.130309 -0.199480
v 0.092070 -1.563839 -0.181879
v 0.092070 -1.563839 -0.163080
v 0.013350 0.728611 -0.038580
v 0.015669 0.504441 -0.049879
v 0.015669 0.504441 -0.068680
v 0.013350 0.728611 -0.017080
v 0.062870 0.916011 0.021820
v 0.062870 0.916011 0.043320
v 0.029600 -1.129549 -0.180679
v 0.029600 -1.129549 -0.199480
v 0.035419 -1.563739 -0.181879
v 0.035419 -1.563739 -0.163080
v -0.008541 0.728571 -0.038580
v -0.018281 0.504381 -0.049879
v -0.018281 0.504381 -0.068680
v -0.008541 0.728571 -0.017080
v -0.057510 0.915381 0.021820
v -0.057510 0.915381 0.043320
v -0.031681 -1.128709 -0.180580
v -0.031681 -1.128699 -0.199381
v -0.037281 -1.564059 -0.181879
v -0.037281 -1.564059 -0.163080
v -0.077421 0.737461 -0.042280
v -0.070480 0.504751 -0.049879
v -0.070480 0.504751 -0.068680
v -0.077421 0.737461 -0.020781
v -0.093030 -1.127859 -0.180580
v -0.093030 -1.127859 -0.199381
v -0.102480 -1.563439 -0.181879
v -0.102480 -1.563439 -0.163080
v 0.268700 0.699551 -0.007879
v 0.268700 0.668841 0.017019
v 0.259560 0.663101 0.010019
v 0.259560 0.693811 -0.014879
v 0.443399 -0.896059 0.043819
v 0.452829 -0.890609 0.221319
v 0.522759 -1.151559 0.221319
v 0.511859 -1.151559 0.043820
v 0.443399 -1.407069 0.043820
v 0.452829 -1.412509 0.221319
v 0.268700 0.839811 0.086620
v 0.259560 0.843861 0.046221
v 0.268700 0.852491 0.049219
v 0.259560 0.831171 0.083719
v 0.041409 0.915751 0.021820
v 0.041409 0.915751 0.043320
v 0.062870 0.916011 0.021820
v 0.062870 0.916011 0.043320
v -0.078970 0.915381 0.043320
v -0.057510 0.915381 0.021820
v -0.078970 0.915381 0.021820
v -0.057510 0.915381 0.043320
v 0.189059 0.914941 0.070320
v 0.132720 0.905721 0.074921
v 0.132720 0.897701 0.098520
v 0.189059 0.902261 0.107820
v 0.222340 0.940241 0.078920
v 0.222340 0.927561 0.116320
v 0.259560 0.948571 0.081720
v 0.259560 0.935881 0.119221
v -0.129500 0.898141 0.075920
v -0.185841 0.902711 0.066721
v -0.185841 0.915351 0.104120
v -0.129500 0.906131 0.099621
v -0.219121 0.940661 0.095619
v -0.219121 0.928021 0.058121
v -0.256341 0.948991 0.092819
v -0.256341 0.936351 0.055321
v -0.129500 0.727671 0.048120
v -0.185841 0.742331 0.018520
v -0.185841 0.733021 0.056921
v -0.185841 0.742331 0.018520
v -0.129500 0.727671 0.048120
v -0.129500 0.733551 0.023821
v -0.219121 0.768291 0.024820
v -0.185841 0.733021 0.056921
v -0.219121 0.758991 0.063221
v -0.256341 0.776831 0.026819
v -0.256341 0.767531 0.065321
v 0.132720 0.715111 0.022921
v 0.189059 0.741101 0.043320
v 0.189059 0.716181 0.012621
v 0.132720 0.730871 0.042320
v 0.222340 0.757931 0.064119
v 0.222340 0.699351 -0.008080
v 0.259560 0.763461 0.070921
v 0.259560 0.693811 -0.014879
v 0.268700 0.757721 0.063820
v 0.268700 0.699551 -0.007879
v 0.036650 0.763811 -0.059980
v 0.033030 0.735071 0.019920
v 0.063039 0.773931 -0.055880
v 0.063039 0.746581 0.024620
v 0.093050 0.735071 0.019920
v 0.089429 0.763811 -0.059980
v 0.047699 0.957971 0.019220
v 0.044079 0.929241 0.099220
v 0.074090 0.968091 0.023420
v 0.074090 0.940741 0.103920
v 0.104099 0.929241 0.099220
v 0.100480 0.957971 0.019220
v -0.107010 0.962221 0.021021
v -0.110631 0.933491 0.100920
v -0.080620 0.972341 0.025120
v -0.080620 0.945001 0.105619
v -0.050611 0.933491 0.100920
v -0.054231 0.962221 0.021021
v -0.092901 0.756941 -0.062780
v -0.096520 0.728211 0.017120
v -0.066511 0.767061 -0.058680
v -0.066511 0.739721 0.021820
v -0.036500 0.728211 0.017120
v -0.040121 0.756941 -0.062780
v -0.441690 -0.896059 0.043819
v -0.260090 -0.699589 0.221319
v -0.254651 -0.709019 0.043819
v -0.451120 -0.890609 0.221319
v 0.000859 -0.629659 0.221319
v 0.000859 -0.640559 0.043819
v 0.256360 -0.709019 0.043819
v 0.261809 -0.699589 0.221319
v 0.443399 -0.896059 0.043819
v 0.452829 -0.890609 0.221319
v 0.000859 -1.094969 -0.039480
v 0.167339 -1.118849 -0.183279
v 0.000859 -1.108039 -0.183279
v 0.253950 -1.109059 -0.039480
v -0.165630 -1.118849 -0.183279
v -0.252241 -1.109059 -0.039480
v 0.000859 -1.404349 -0.162180
v 0.167339 -1.459759 0.122921
v 0.167339 -1.443239 -0.162180
v 0.000859 -1.426409 0.122921
v -0.165630 -1.443239 -0.162180
v -0.165630 -1.459759 0.122921
v 0.000859 -1.538179 -0.135780
v 0.100619 -1.552489 -0.221979
v 0.000859 -1.546019 -0.221979
v 0.152529 -1.546629 -0.135780
v -0.098910 -1.552489 -0.221979
v -0.150821 -1.546629 -0.135780
v 0.132720 0.730871 0.042320
v 0.189059 0.710391 0.068220
v 0.189059 0.741101 0.043320
v -0.185841 0.877871 0.116819
v -0.129500 0.882441 0.107620
v -0.129500 0.906131 0.099621
v -0.185841 0.915351 0.104120
v -0.219121 0.852561 0.125320
v -0.219121 0.940661 0.095619
v -0.256341 0.948991 0.092819
v -0.256341 0.844231 0.128120
v -0.265471 0.940351 0.095720
v -0.265471 0.852871 0.125219
v 0.189059 0.710391 0.068220
v 0.132720 0.730871 0.042320
v 0.132720 0.711451 0.058020
v 0.222340 0.727221 0.089020
v 0.222340 0.757931 0.064119
v 0.259560 0.732751 0.095819
v 0.259560 0.763461 0.070921
v -0.185841 0.877871 0.116819
v -0.129500 0.906131 0.099621
v -0.185841 0.915351 0.104120
v -0.260090 -0.699589 0.221319
v -0.451120 -0.890609 0.221319
v 0.000859 -1.151559 0.221319
v 0.000859 -0.629659 0.221319
v -0.521040 -1.151559 0.221319
v 0.261809 -0.699589 0.221319
v -0.451120 -1.412509 0.221319
v 0.452829 -0.890609 0.221319
v 0.522759 -1.151559 0.221319
v -0.260090 -1.603539 0.221319
v 0.452829 -1.412509 0.221319
v 0.000859 -1.673459 0.221319
v 0.261809 -1.603539 0.221319
v 0.000859 -1.692079 0.122921
v 0.167339 -1.647469 0.122921
v 0.000859 -1.426409 0.122921
v 0.167339 -1.459759 0.122921
v -0.165630 -1.647469 0.122921
v 0.000859 -1.426409 0.122921
v -0.165630 -1.459759 0.122921
v 0.000859 -1.692079 0.122921
v 0.015669 0.504441 -0.049879
v 0.013350 0.728611 -0.017080
v 0.002530 0.504281 -0.049879
v 0.012489 -1.129319 -0.180679
v -0.001511 0.728431 -0.017080
v 0.041409 0.915751 0.043320
v 0.062870 0.916011 0.043320
v 0.029600 -1.129549 -0.180679
v 0.016659 -1.563959 -0.163080
v 0.035419 -1.563739 -0.163080
v -0.018281 0.504381 -0.049879
v -0.022450 0.728571 -0.017080
v -0.031421 0.504381 -0.049879
v -0.008541 0.728571 -0.017080
v -0.057510 0.915381 0.043320
v -0.078970 0.915381 0.043320
v -0.031681 -1.128709 -0.180580
v -0.048780 -1.128469 -0.180580
v -0.037281 -1.564059 -0.163080
v -0.056040 -1.564059 -0.163080
v 0.067629 0.504461 -0.049879
v 0.052760 0.761001 -0.012581
v 0.048870 0.504241 -0.049879
v 0.074220 0.761251 -0.012581
v 0.066110 -1.130059 -0.180679
v 0.084879 -1.130309 -0.180679
v 0.073309 -1.564059 -0.163080
v 0.092070 -1.563839 -0.163080
v -0.070480 0.504751 -0.049879
v -0.077421 0.737461 -0.020781
v -0.089231 0.505041 -0.049879
v -0.098871 0.737791 -0.020781
v -0.111791 -1.127599 -0.180580
v -0.093030 -1.127859 -0.180580
v -0.102480 -1.563439 -0.163080
v -0.121241 -1.563149 -0.163080
v -0.129500 0.703371 0.042219
v -0.185841 0.733021 0.056921
v -0.185841 0.694591 0.047621
v -0.129500 0.727671 0.048120
v -0.219121 0.668621 0.041321
v -0.219121 0.758991 0.063221
v -0.256341 0.660081 0.039320
v -0.256341 0.767531 0.065321
v -0.265471 0.758671 0.063120
v -0.265471 0.668941 0.041420
v 0.132720 0.874021 0.090521
v 0.189059 0.864801 0.095119
v 0.189059 0.902261 0.107820
v 0.132720 0.897701 0.098520
v 0.222340 0.927561 0.116320
v 0.222340 0.839501 0.086519
v 0.259560 0.831171 0.083719
v 0.259560 0.935881 0.119221
v 0.268700 0.839811 0.086620
v 0.268700 0.927251 0.116220
v -0.265471 0.927711 0.058220
v -0.265471 0.940351 0.095720
v -0.256341 0.948991 0.092819
v -0.256341 0.936351 0.055321
v -0.265471 0.767971 0.024719
v -0.256341 0.767531 0.065321
v -0.256341 0.776831 0.026819
v -0.265471 0.758671 0.063120
v 0.189059 0.710391 0.068220
v 0.222340 0.727221 0.089020
v 0.189059 0.741101 0.043320
v 0.222340 0.757931 0.064119
v 0.036650 0.714941 -0.079981
v 0.033030 0.679501 -0.002779
v 0.020599 0.707291 0.008619
v 0.025720 0.739381 -0.069981
v 0.036650 0.763811 -0.059980
v 0.033030 0.735071 0.019920
v 0.047699 0.909101 -0.000679
v 0.044079 0.873671 0.076521
v 0.031650 0.901451 0.087820
v 0.036769 0.933541 0.009319
v 0.047699 0.957971 0.019220
v 0.044079 0.929241 0.099220
v -0.107010 0.913361 0.001020
v -0.110631 0.877921 0.078220
v -0.123061 0.905701 0.089621
v -0.117940 0.937791 0.011021
v -0.107010 0.962221 0.021021
v -0.110631 0.933491 0.100920
v -0.092901 0.708071 -0.082781
v -0.096520 0.672641 -0.005579
v -0.108951 0.700421 0.005819
v -0.103830 0.732511 -0.072781
v -0.092901 0.756941 -0.062780
v -0.096520 0.728211 0.017120
v -0.265471 0.678251 0.003019
v -0.265471 0.758671 0.063120
v -0.265471 0.767971 0.024719
v -0.265471 0.668941 0.041420
v -0.265471 0.840231 0.087721
v -0.265471 0.940351 0.095720
v -0.265471 0.927711 0.058220
v -0.265471 0.852871 0.125219
v -0.165630 -1.179679 -0.183279
v -0.252241 -1.188359 -0.039480
v -0.165630 -1.118849 -0.183279
v -0.252241 -1.109059 -0.039480
v -0.098910 -1.588949 -0.221979
v -0.150821 -1.594149 -0.135780
v -0.098910 -1.552489 -0.221979
v -0.150821 -1.546629 -0.135780
v -0.165630 -1.662119 -0.162180
v -0.165630 -1.459759 0.122921
v -0.165630 -1.443239 -0.162180
v -0.165630 -1.647469 0.122921
v -0.089231 0.505041 -0.049879
v -0.098871 0.737791 -0.042280
v -0.089231 0.505041 -0.068680
v -0.098871 0.737791 -0.020781
v -0.111791 -1.127599 -0.180580
v -0.111791 -1.127599 -0.199381
v -0.121241 -1.563149 -0.181879
v -0.121241 -1.563149 -0.163080
v -0.031421 0.504381 -0.049879
v -0.022450 0.728571 -0.038580
v -0.031421 0.504381 -0.068680
v -0.022450 0.728571 -0.017080
v -0.078970 0.915381 0.021820
v -0.078970 0.915381 0.043320
v -0.048780 -1.128469 -0.180580
v -0.048780 -1.128469 -0.199381
v -0.056040 -1.564059 -0.181879
v -0.056040 -1.564059 -0.163080
v 0.002530 0.504281 -0.049879
v -0.001511 0.728431 -0.038580
v 0.002530 0.504281 -0.068680
v -0.001511 0.728431 -0.017080
v 0.041409 0.915751 0.021820
v 0.041409 0.915751 0.043320
v 0.012489 -1.129319 -0.180679
v 0.012489 -1.129309 -0.199381
v 0.016659 -1.563959 -0.181879
v 0.016659 -1.563959 -0.163080
v 0.048870 0.504241 -0.049879
v 0.052760 0.761001 -0.034081
v 0.048870 0.504241 -0.068680
v 0.052760 0.761001 -0.012581
v 0.066110 -1.130059 -0.180679
v 0.066110 -1.130049 -0.199480
v 0.073309 -1.564059 -0.181879
v 0.073309 -1.564059 -0.163080
v -0.441690 -1.407069 0.043820
v -0.451120 -1.412509 0.221319
v -0.521040 -1.151559 0.221319
v -0.510150 -1.151559 0.043820
v -0.441690 -0.896059 0.043819
v -0.451120 -0.890609 0.221319
v -0.265471 0.668941 0.041420
v -0.265471 0.678251 0.003019
v -0.256341 0.669391 0.000820
v -0.256341 0.660081 0.039320
v -0.256341 0.831601 0.090620
v -0.256341 0.844231 0.128120
v -0.265471 0.852871 0.125219
v -0.265471 0.840231 0.087721
v 0.189059 0.716181 0.012621
v 0.189059 0.685471 0.037519
v 0.222340 0.668641 0.016821
v 0.222340 0.699351 -0.008080
v 0.000859 -1.714129 -0.162180
v 0.167339 -1.662119 -0.162180
v 0.167339 -1.647469 0.122921
v 0.000859 -1.692079 0.122921
v -0.165630 -1.662119 -0.162180
v -0.165630 -1.647469 0.122921
v 0.100619 -1.588949 -0.221979
v 0.000859 -1.605449 -0.135780
v 0.000859 -1.597609 -0.221979
v 0.152529 -1.594149 -0.135780
v -0.098910 -1.588949 -0.221979
v -0.150821 -1.594149 -0.135780
v 0.016659 -1.563959 -0.181879
v 0.035419 -1.563739 -0.181879
v 0.035419 -1.563739 -0.163080
v 0.016659 -1.563959 -0.163080
v 0.073309 -1.564059 -0.181879
v 0.092070 -1.563839 -0.181879
v 0.092070 -1.563839 -0.163080
v 0.073309 -1.564059 -0.163080
v -0.121241 -1.563149 -0.181879
v -0.102480 -1.563439 -0.181879
v -0.102480 -1.563439 -0.163080
v -0.121241 -1.563149 -0.163080
v -0.056040 -1.564059 -0.181879
v -0.037281 -1.564059 -0.181879
v -0.037281 -1.564059 -0.163080
v -0.056040 -1.564059 -0.163080
v 0.167339 -1.179679 -0.183279
v 0.000859 -1.207209 -0.039480
v 0.000859 -1.194139 -0.183279
v 0.253950 -1.188359 -0.039480
v -0.165630 -1.179679 -0.183279
v -0.252241 -1.188359 -0.039480
v 0.089429 0.714941 -0.079981
v 0.093050 0.679501 -0.002779
v 0.063039 0.668001 -0.007481
v 0.063039 0.704821 -0.084080
v 0.036650 0.714941 -0.079981
v 0.033030 0.679501 -0.002779
v 0.100480 0.909101 -0.000679
v 0.104099 0.873671 0.076521
v 0.074090 0.862161 0.071819
v 0.074090 0.898981 -0.004780
v 0.047699 0.909101 -0.000679
v 0.044079 0.873671 0.076521
v -0.054231 0.913361 0.001020
v -0.050611 0.877921 0.078220
v -0.080620 0.866411 0.073521
v -0.080620 0.903241 -0.003080
v -0.107010 0.913361 0.001020
v -0.110631 0.877921 0.078220
v -0.040121 0.708071 -0.082781
v -0.036500 0.672641 -0.005579
v -0.066511 0.661131 -0.010281
v -0.066511 0.697961 -0.086880
v -0.092901 0.708071 -0.082781
v -0.096520 0.672641 -0.005579
v 0.443399 -1.407069 0.043820
v 0.452829 -1.412509 0.221319
v 0.261809 -1.603539 0.221319
v 0.256360 -1.594109 0.043820
v 0.000859 -1.673459 0.221319
v 0.000859 -1.662569 0.043820
v -0.254651 -1.594109 0.043820
v -0.260090 -1.603539 0.221319
v -0.441690 -1.407069 0.043820
v -0.451120 -1.412509 0.221319
v 0.189059 0.685471 0.037519
v 0.132720 0.711451 0.058020
v 0.132720 0.695701 0.038620
v 0.222340 0.727221 0.089020
v 0.189059 0.710391 0.068220
v 0.222340 0.668641 0.016821
v 0.259560 0.732751 0.095819
v 0.259560 0.663101 0.010019
v 0.268700 0.727011 0.088720
v 0.268700 0.668841 0.017019
v 0.132720 0.711451 0.058020
v 0.189059 0.685471 0.037519
v 0.189059 0.710391 0.068220
v -0.129500 0.709251 0.017919
v -0.185841 0.694591 0.047621
v -0.185841 0.703891 0.009220
v -0.129500 0.703371 0.042219
v -0.219121 0.668621 0.041321
v -0.219121 0.677921 0.002920
v -0.256341 0.660081 0.039320
v -0.256341 0.669391 0.000820
v -0.185841 0.865241 0.079321
v -0.129500 0.874451 0.083919
v -0.129500 0.882441 0.107620
v -0.185841 0.877871 0.116819
v -0.219121 0.839921 0.087820
v -0.219121 0.852561 0.125320
v -0.256341 0.831601 0.090620
v -0.256341 0.844231 0.128120
v -0.185841 0.865241 0.079321
v -0.129500 0.882441 0.107620
v -0.185841 0.877871 0.116819
v 0.132720 0.882041 0.066820
v 0.189059 0.864801 0.095119
v 0.132720 0.874021 0.090521
v 0.189059 0.877481 0.057621
v 0.222340 0.839501 0.086519
v 0.222340 0.852181 0.049120
v 0.259560 0.831171 0.083719
v 0.259560 0.843861 0.046221
v 0.132720 0.882041 0.066820
v 0.189059 0.877481 0.057621
v 0.189059 0.864801 0.095119
v 0.036650 0.763811 -0.059980
v 0.063039 0.773931 -0.055880
v 0.063039 0.739381 -0.069981
v 0.025720 0.739381 -0.069981
v 0.036650 0.714941 -0.079981
v 0.089429 0.763811 -0.059980
v 0.063039 0.704821 -0.084080
v 0.100359 0.739381 -0.069981
v 0.089429 0.714941 -0.079981
v 0.047699 0.957971 0.019220
v 0.074090 0.968091 0.023420
v 0.074090 0.933541 0.009319
v 0.036769 0.933541 0.009319
v 0.047699 0.909101 -0.000679
v 0.100480 0.957971 0.019220
v 0.074090 0.898981 -0.004780
v 0.111410 0.933541 0.009319
v 0.100480 0.909101 -0.000679
v -0.107010 0.962221 0.021021
v -0.080620 0.972341 0.025120
v -0.080620 0.937791 0.011021
v -0.117940 0.937791 0.011021
v -0.107010 0.913361 0.001020
v -0.054231 0.962221 0.021021
v -0.080620 0.903241 -0.003080
v -0.043301 0.937791 0.011021
v -0.054231 0.913361 0.001020
v -0.092901 0.756941 -0.062780
v -0.066511 0.767061 -0.058680
v -0.066511 0.732511 -0.072781
v -0.103830 0.732511 -0.072781
v -0.092901 0.708071 -0.082781
v -0.040121 0.756941 -0.062780
v -0.066511 0.697961 -0.086880
v -0.029191 0.732511 -0.072781
v -0.040121 0.708071 -0.082781
v 0.000859 -1.546019 -0.221979
v 0.100619 -1.588949 -0.221979
v 0.000859 -1.597609 -0.221979
v 0.100619 -1.552489 -0.221979
v 0.000859 -1.546019 -0.221979
v -0.098910 -1.588949 -0.221979
v -0.098910 -1.552489 -0.221979
v 0.000859 -1.597609 -0.221979
v 0.132720 0.905721 0.074921
v 0.189059 0.877481 0.057621
v 0.132720 0.882041 0.066820
v 0.189059 0.914941 0.070320
v 0.222340 0.852181 0.049120
v 0.222340 0.940241 0.078920
v 0.259560 0.948571 0.081720
v 0.259560 0.843861 0.046221
v 0.268700 0.939931 0.078819
v 0.268700 0.852491 0.049219
v 0.000859 -1.108039 -0.183279
v 0.167339 -1.179679 -0.183279
v 0.000859 -1.194139 -0.183279
v 0.167339 -1.118849 -0.183279
v -0.165630 -1.179679 -0.183279
v -0.165630 -1.118849 -0.183279
v 0.132720 0.905721 0.074921
v 0.189059 0.914941 0.070320
v 0.189059 0.877481 0.057621
v 0.000859 -1.404349 -0.162180
v 0.167339 -1.662119 -0.162180
v 0.000859 -1.714129 -0.162180
v 0.167339 -1.443239 -0.162180
v 0.000859 -1.404349 -0.162180
v -0.165630 -1.662119 -0.162180
v -0.165630 -1.443239 -0.162180
v 0.000859 -1.714129 -0.162180
v -0.185841 0.703891 0.009220
v -0.129500 0.733551 0.023821
v -0.129500 0.709251 0.017919
v -0.219121 0.768291 0.024820
v -0.185841 0.742331 0.018520
v -0.219121 0.677921 0.002920
v -0.256341 0.669391 0.000820
v -0.256341 0.776831 0.026819
v -0.265471 0.678251 0.003019
v -0.265471 0.767971 0.024719
v -0.129500 0.733551 0.023821
v -0.185841 0.703891 0.009220
v -0.185841 0.742331 0.018520
v -0.077421 0.737461 -0.042280
v -0.089231 0.505041 -0.068680
v -0.098871 0.737791 -0.042280
v -0.070480 0.504751 -0.068680
v -0.111791 -1.127599 -0.199381
v -0.093030 -1.127859 -0.199381
v -0.102480 -1.563439 -0.181879
v -0.121241 -1.563149 -0.181879
v 0.074220 0.761251 -0.034081
v 0.067629 0.504461 -0.068680
v 0.052760 0.761001 -0.034081
v 0.048870 0.504241 -0.068680
v 0.066110 -1.130049 -0.199480
v 0.084879 -1.130309 -0.199480
v 0.073309 -1.564059 -0.181879
v 0.092070 -1.563839 -0.181879
v 0.013350 0.728611 -0.038580
v 0.002530 0.504281 -0.068680
v -0.001511 0.728431 -0.038580
v 0.041409 0.915751 0.021820
v 0.062870 0.916011 0.021820
v 0.015669 0.504441 -0.068680
v 0.012489 -1.129309 -0.199381
v 0.029600 -1.129549 -0.199480
v 0.016659 -1.563959 -0.181879
v 0.035419 -1.563739 -0.181879
v -0.008541 0.728571 -0.038580
v -0.018281 0.504381 -0.068680
v -0.022450 0.728571 -0.038580
v -0.057510 0.915381 0.021820
v -0.078970 0.915381 0.021820
v -0.031421 0.504381 -0.068680
v -0.031681 -1.128699 -0.199381
v -0.048780 -1.128469 -0.199381
v -0.037281 -1.564059 -0.181879
v -0.056040 -1.564059 -0.181879
v -0.441690 -0.896059 0.043819
v -0.254651 -0.709019 0.043819
v 0.000859 -1.151559 0.043820
v -0.510150 -1.151559 0.043820
v 0.000859 -0.640559 0.043819
v -0.441690 -1.407069 0.043820
v 0.256360 -0.709019 0.043819
v -0.254651 -1.594109 0.043820
v 0.000859 -1.662569 0.043820
v 0.443399 -0.896059 0.043819
v 0.256360 -1.594109 0.043820
v 0.511859 -1.151559 0.043820
v 0.443399 -1.407069 0.043820
v -0.185841 0.902711 0.066721
v -0.129500 0.898141 0.075920
v -0.129500 0.874451 0.083919
v -0.185841 0.865241 0.079321
v -0.219121 0.928021 0.058121
v -0.219121 0.839921 0.087820
v -0.256341 0.831601 0.090620
v -0.256341 0.936351 0.055321
v -0.265471 0.840231 0.087721
v -0.265471 0.927711 0.058220
v 0.189059 0.716181 0.012621
v 0.132720 0.695701 0.038620
v 0.132720 0.715111 0.022921
v 0.189059 0.685471 0.037519
v 0.222340 0.668641 0.016821
v 0.222340 0.699351 -0.008080
v 0.259560 0.693811 -0.014879
v 0.259560 0.663101 0.010019
vn 0.9997 -0.0236 -0.0079
vn 0.9984 0.0550 0.0157
vn 0.9915 0.1259 0.0315
vn 0.9996 0.0236 0.0158
vn 0.9996 0.0236 0.0157
vn 0.9539 0.1183 0.2759
vn 0.9539 0.1182 0.2759
vn 0.8984 -0.4098 -0.1576
vn 0.8984 -0.4098 -0.1577
vn -0.0000 0.9317 0.3633
vn -0.2673 0.8963 0.3538
vn -0.0000 0.9315 0.3637
vn 0.2673 0.8963 0.3538
vn 0.0158 0.8588 0.5121
vn 0.0630 0.8516 0.5204
vn 0.0631 0.8516 0.5204
vn 0.1099 0.8481 0.5183
vn 0.1100 0.8481 0.5183
vn -0.0869 0.0316 0.9957
vn -0.0079 0.0315 0.9995
vn -0.0000 0.0315 0.9995
vn 0.0869 0.0316 0.9957
vn 0.0863 0.0235 0.9960
vn -0.0000 0.0236 0.9997
vn -0.0000 0.0234 0.9997
vn -0.0863 0.0235 0.9960
vn -0.0000 -0.2993 0.9542
vn -0.0237 -0.2995 0.9538
vn -0.0000 -0.2996 0.9541
vn -0.0236 -0.2995 0.9538
vn 0.0237 -0.2995 0.9538
vn 0.0236 -0.2995 0.9538
vn -0.0000 -0.3537 0.9354
vn -0.0079 -0.3537 0.9353
vn 0.0079 -0.3537 0.9353
vn 0.0078 -0.3537 0.9353
vn -0.9997 -0.0236 -0.0079
vn -0.9925 0.1181 0.0315
vn -0.9984 0.0550 0.0157
vn -0.9925 0.1182 0.0315
vn -0.9996 0.0236 0.0157
vn -0.9547 0.1105 0.2762
vn -0.8984 -0.4098 -0.1577
vn -0.8984 -0.4098 -0.1576
vn -0.2683 -0.9625 0.0394
vn -0.2683 -0.9625 0.0395
vn 0.2683 -0.9625 0.0394
vn 0.2682 -0.9625 0.0394
vn 0.2682 -0.9625 0.0395
vn -0.0079 0.3233 -0.9463
vn -0.0000 0.3233 -0.9463
vn 0.0079 0.3233 -0.9463
vn 0.0079 0.3233 -0.9462
vn 0.0471 0.0471 -0.9978
vn -0.0000 0.0474 -0.9989
vn -0.0000 0.0472 -0.9989
vn -0.0471 0.0471 -0.9978
vn 0.0472 0.0315 -0.9984
vn -0.0000 0.0315 -0.9995
vn 0.0393 0.0315 -0.9987
vn -0.0472 0.0315 -0.9984
vn -0.0393 0.0315 -0.9987
vn -0.0000 0.0314 -0.9995
vn 0.0315 0.0315 -0.9990
vn -0.0314 0.0315 -0.9990
vn 0.9992 -0.0000 -0.0395
vn 0.8671 0.4966 -0.0394
vn 0.9992 -0.0000 -0.0394
vn 0.8671 -0.4966 -0.0394
vn -0.8671 0.4967 -0.0394
vn -0.4966 0.8671 -0.0394
vn -0.0000 0.9992 -0.0394
vn 0.4966 0.8671 -0.0394
vn 0.8671 0.4967 -0.0394
vn -0.9992 -0.0000 -0.0394
vn -0.8671 -0.4966 -0.0394
vn -0.9992 -0.0000 -0.0395
vn -0.8671 0.4966 -0.0394
vn 0.4966 -0.8671 -0.0394
vn 0.8671 -0.4967 -0.0394
vn -0.0000 -0.9992 -0.0394
vn -0.4966 -0.8671 -0.0394
vn -0.8671 -0.4967 -0.0394
vn -0.0000 -0.0000 -1.0000
vn 0.7078 0.6685 0.2281
vn 0.7078 0.6686 0.2280
vn 0.7078 0.6686 0.2281
vn 0.7060 0.4472 0.5491
vn 0.7061 0.4471 0.5492
vn 1.0000 -0.0000 -0.0000
vn 0.9982 0.0235 -0.0551
vn 0.7066 0.6752 0.2120
vn 0.7066 0.6751 0.2120
vn 0.7076 -0.6289 -0.3223
vn 0.9982 0.0236 -0.0550
vn 0.7075 -0.6289 -0.3223
vn 0.9982 0.0234 -0.0552
vn 0.8554 -0.0000 -0.5180
vn 0.8554 -0.0000 -0.5179
vn 0.9997 -0.0236 -0.0000
vn 1.0000 0.0079 -0.0000
vn 0.9999 0.0158 -0.0000
vn 0.9999 0.0157 -0.0000
vn 0.9947 -0.1026 -0.0000
vn 0.9910 -0.1337 -0.0000
vn 0.9678 -0.2518 -0.0000
vn 0.9969 0.0785 -0.0000
vn 0.9999 -0.0157 -0.0000
vn 0.9999 -0.0158 -0.0000
vn 0.9930 0.1182 -0.0000
vn 0.9678 0.2518 -0.0000
vn 1.0000 -0.0079 -0.0000
vn 0.9995 0.0315 -0.0000
vn 0.7060 -0.4472 -0.5492
vn 0.7060 -0.4472 -0.5491
vn 0.7061 -0.4472 -0.5491
vn 0.9980 -0.0000 -0.0628
vn 0.8661 0.4960 -0.0630
vn 0.8660 0.4960 -0.0630
vn 0.8661 -0.4960 -0.0630
vn 0.7078 -0.6686 -0.2281
vn 0.7078 -0.6685 -0.2281
vn 0.7078 -0.6686 -0.2280
vn -0.0079 1.0000 -0.0000
vn -0.0000 1.0000 -0.0000
vn -0.3929 0.8724 0.2908
vn -0.1264 0.9403 0.3161
vn -0.3930 0.8724 0.2908
vn -0.4507 0.8461 0.2847
vn -0.2283 0.9212 0.3150
vn -0.2283 0.9212 0.3149
vn 0.1264 0.9403 -0.3161
vn 0.3929 0.8724 -0.2908
vn 0.3930 0.8724 -0.2908
vn 0.4507 0.8461 -0.2847
vn 0.2289 0.9235 -0.3078
vn 0.1263 0.9633 0.2369
vn 0.3925 0.8950 0.2120
vn 0.4495 0.8675 0.2129
vn 0.3926 0.8950 0.2120
vn 0.3926 0.8950 0.2119
vn 0.2286 0.9463 0.2287
vn 0.2287 0.9463 0.2287
vn -0.1261 0.7723 -0.6226
vn -0.0471 0.7769 -0.6278
vn -0.0000 0.7778 -0.6286
vn -0.0000 0.7778 -0.6285
vn -0.7065 0.6752 0.2120
vn -0.0000 0.9463 0.3232
vn -0.0000 0.9463 0.3233
vn 0.7065 0.6752 0.2120
vn -0.7066 0.6752 0.2120
vn -0.8660 0.4960 -0.0630
vn -0.4960 0.8660 -0.0630
vn -0.8660 0.4961 -0.0630
vn -0.0000 0.9980 -0.0629
vn 0.4960 0.8660 -0.0630
vn -0.0000 0.9955 -0.0948
vn 0.0552 0.9940 -0.0947
vn -0.0552 0.9940 -0.0947
vn -0.0000 0.9975 0.0707
vn 0.2123 0.9752 0.0629
vn -0.2124 0.9752 0.0629
vn -0.2123 0.9752 0.0629
vn -0.1261 0.6226 0.7723
vn -0.3921 0.5804 0.7137
vn 0.0473 0.3229 0.9452
vn 0.1264 0.3161 0.9403
vn 0.0472 0.3230 0.9452
vn -0.0000 0.3233 0.9463
vn 0.0473 0.3230 0.9452
vn -0.2283 0.6139 0.7556
vn -0.4501 0.5607 0.6950
vn -0.2283 0.6139 0.7557
vn -0.0000 -0.0000 1.0000
vn -0.0000 -0.0863 0.9963
vn -0.0000 -0.2370 0.9715
vn -0.0000 -0.0550 0.9985
vn -0.0000 -0.2277 0.9737
vn -0.0000 -0.3068 0.9518
vn -0.0000 -0.0472 0.9989
vn -0.0000 0.0395 0.9992
vn -0.0000 0.0394 0.9992
vn -0.0000 -0.0870 0.9962
vn -0.0000 -0.1414 0.9899
vn 0.0003 -0.0550 0.9985
vn -0.0001 0.0395 0.9992
vn -0.0000 -0.1260 0.9920
vn -0.0000 -0.1259 0.9920
vn 0.0001 0.0394 0.9992
vn -0.0000 0.0393 0.9992
vn 0.1263 -0.2369 0.9633
vn 0.0473 -0.2367 0.9704
vn 0.0474 -0.2367 0.9704
vn 0.0001 -0.2369 0.9715
vn -0.0000 -0.2369 0.9715
vn -0.1264 -0.3161 0.9403
vn -0.0473 -0.3229 0.9452
vn -0.0473 -0.3230 0.9452
vn -0.0000 -0.3233 0.9463
vn -0.7078 0.6685 -0.2281
vn -0.7078 0.6686 -0.2280
vn -0.7090 0.6855 0.1655
vn -0.7091 0.6854 0.1655
vn -0.7091 0.6855 0.1655
vn -0.7091 0.6854 0.1654
vn -0.4502 0.5607 0.6950
vn -0.3922 0.5804 0.7137
vn -0.3922 0.5792 0.7146
vn -0.9982 0.0235 -0.0551
vn -0.7075 -0.6289 -0.3223
vn -0.7076 -0.6289 -0.3223
vn -0.7066 0.6751 0.2120
vn -0.9982 0.0236 -0.0550
vn -0.7066 0.6751 0.2119
vn -0.7066 0.6752 0.2119
vn -1.0000 -0.0000 -0.0000
vn -0.8554 -0.0000 -0.5180
vn -0.8554 -0.0000 -0.5179
vn -1.0000 0.0079 -0.0000
vn -0.9992 -0.0394 -0.0000
vn -1.0000 0.0078 -0.0000
vn -0.9999 0.0158 -0.0000
vn -0.9999 0.0157 -0.0000
vn -0.9997 0.0236 -0.0000
vn -0.9955 -0.0948 -0.0000
vn -0.9900 -0.1414 -0.0000
vn -0.9570 -0.2902 -0.0000
vn -1.0000 -0.0079 -0.0000
vn -0.9969 0.0785 -0.0000
vn -0.9930 0.1182 -0.0000
vn -0.9754 0.2203 -0.0000
vn -1.0000 -0.0078 -0.0000
vn -0.9999 -0.0158 -0.0000
vn -0.9980 -0.0000 -0.0629
vn -0.8661 -0.4959 -0.0630
vn -0.9980 -0.0000 -0.0628
vn -0.8661 0.4959 -0.0630
vn -0.7091 -0.6854 -0.1655
vn -0.7091 -0.6854 -0.1654
vn -0.7091 -0.6855 -0.1655
vn -0.7078 -0.6685 0.2281
vn -0.7079 -0.6685 0.2281
vn -0.7078 -0.6686 0.2281
vn -0.3922 -0.5795 -0.7144
vn -0.4502 -0.5607 -0.6949
vn -0.3922 -0.5804 -0.7137
vn -0.0000 -0.9980 0.0629
vn 0.2752 -0.9593 0.0629
vn -0.2752 -0.9593 0.0629
vn 0.0787 -0.9916 -0.1023
vn -0.0000 -0.9947 -0.1026
vn -0.0787 -0.9916 -0.1023
vn 0.0079 -1.0000 -0.0000
vn 0.0078 -1.0000 -0.0000
vn 0.0157 -0.9999 -0.0000
vn 0.0158 -0.9999 -0.0000
vn -0.0158 -0.9999 -0.0000
vn -0.0000 -1.0000 -0.0000
vn -0.0000 -0.9007 -0.4345
vn -0.7075 -0.6290 -0.3223
vn 0.4960 -0.8660 -0.0630
vn 0.8660 -0.4961 -0.0630
vn 0.8660 -0.4960 -0.0630
vn -0.0000 -0.9980 -0.0629
vn -0.4960 -0.8660 -0.0630
vn -0.8660 -0.4960 -0.0630
vn -0.0471 -0.7769 0.6278
vn -0.1261 -0.7723 0.6226
vn -0.0000 -0.7778 0.6286
vn -0.0000 -0.7778 0.6285
vn 0.1263 -0.9633 -0.2369
vn 0.3925 -0.8950 -0.2120
vn 0.4495 -0.8675 -0.2129
vn 0.2287 -0.9463 -0.2287
vn 0.2288 -0.9462 -0.2287
vn 0.3929 -0.8724 0.2908
vn 0.1264 -0.9403 0.3161
vn 0.3930 -0.8715 0.2935
vn 0.4507 -0.8461 0.2847
vn 0.3930 -0.8724 0.2908
vn 0.2289 -0.9235 0.3078
vn -0.1264 -0.9403 -0.3161
vn -0.3929 -0.8724 -0.2908
vn -0.3930 -0.8723 -0.2908
vn -0.4507 -0.8461 -0.2847
vn -0.3930 -0.8724 -0.2908
vn -0.2283 -0.9212 -0.3149
vn -0.2283 -0.9212 -0.3150
vn -0.0000 0.3768 -0.9263
vn -0.0000 0.3767 -0.9263
vn -0.0000 0.3769 -0.9263
vn -0.1264 0.3160 -0.9403
vn -0.0473 0.3230 -0.9452
vn -0.1264 0.3161 -0.9403
vn -0.0473 0.3229 -0.9452
vn 0.0474 0.2367 -0.9704
vn 0.1263 0.2368 -0.9633
vn 0.0473 0.2367 -0.9704
vn -0.0000 0.2369 -0.9715
vn -0.0000 0.2370 -0.9715
vn 0.1263 0.2369 -0.9633
vn -0.0000 0.1105 -0.9939
vn -0.0000 0.0863 -0.9963
vn -0.0000 0.0550 -0.9985
vn -0.0001 -0.0394 -0.9992
vn -0.0000 0.1337 -0.9910
vn -0.0000 -0.0394 -0.9992
vn -0.0000 0.2351 -0.9720
vn -0.0000 0.2203 -0.9754
vn -0.0000 0.3068 -0.9518
vn -0.0002 0.0863 -0.9963
vn -0.0000 -0.0393 -0.9992
vn 0.0472 -0.3230 -0.9452
vn 0.1264 -0.3161 -0.9403
vn 0.0473 -0.3230 -0.9452
vn -0.0000 -0.3233 -0.9463
vn -0.3921 -0.5804 -0.7137
vn -0.1261 -0.6226 -0.7723
vn -0.2283 -0.6139 -0.7556
vn -0.4501 -0.5607 -0.6950
vt -0.528003 1.526470
vt -0.477607 1.449710
vt -0.506607 1.534830
vt -0.496415 1.442360
vt -0.491628 1.222970
vt -0.468118 1.166090
vt -0.470002 1.222080
vt -0.493127 1.157010
vt -0.487322 1.412460
vt -0.476552 1.416670
vt -0.514294 1.209410
vt -0.515793 1.157010
vt -0.499815 1.356400
vt -0.466343 1.375130
vt -0.499815 1.378640
vt -0.466343 1.353730
vt -0.533286 1.375130
vt -0.533286 1.353730
vt -0.480095 1.338690
vt -0.484849 1.361360
vt -0.499848 1.340260
vt -0.514921 1.361420
vt -0.519697 1.338750
vt -0.499848 1.362920
vt -0.520768 1.157010
vt -0.499781 1.210800
vt -0.514780 1.212060
vt -0.499793 1.150220
vt -0.478817 1.157010
vt -0.484709 1.209410
vt -0.479932 1.222970
vt -0.483640 1.412460
vt -0.499781 1.224360
vt -0.499793 1.415690
vt -0.515945 1.412460
vt -0.519534 1.225610
vt -0.499815 1.447160
vt -0.531203 1.442360
vt -0.468426 1.442360
vt -0.533286 1.526470
vt -0.499815 1.534980
vt -0.466343 1.526470
vt -0.493022 1.534830
vt -0.522022 1.449710
vt -0.471626 1.526470
vt -0.503215 1.442360
vt -0.506503 1.157010
vt -0.508061 1.225610
vt -0.531512 1.166090
vt -0.529536 1.224780
vt -0.512307 1.412460
vt -0.523077 1.416670
vt -0.485395 1.212060
vt -0.483836 1.157010
vt -0.499793 1.341940
vt -0.520768 1.362920
vt -0.527416 1.340250
vt -0.499793 1.364610
vt -0.472170 1.340250
vt -0.478817 1.362920
vt -0.466343 1.534830
vt -0.499815 1.454790
vt -0.468426 1.449710
vt -0.499815 1.543660
vt -0.533286 1.534830
vt -0.531203 1.449710
vt -0.483684 1.416670
vt -0.499836 1.420060
vt -0.515989 1.416670
vt -0.499848 1.223460
vt -0.479778 1.224780
vt -0.520018 1.222080
vt -0.499836 1.167290
vt -0.472214 1.166090
vt -0.527459 1.166090
vt -1.094220 0.574056
vt -0.755061 0.861049
vt -1.094220 0.867953
vt -0.755061 0.574056
vt -0.755061 0.287063
vt -1.094220 0.280159
vt -0.427557 0.404475
vt -0.630745 0.743636
vt -0.637650 0.404475
vt -0.415597 0.743636
vt -0.924642 0.743636
vt -0.924642 0.404475
vt -1.211630 0.404475
vt -1.218540 0.743636
vt -1.421730 0.404475
vt -1.433690 0.743636
vt -1.094220 0.287063
vt -0.755061 0.280159
vt -1.094220 0.861049
vt -0.755061 0.867953
vt -0.427557 0.861049
vt -0.637650 1.071140
vt -0.924642 0.574056
vt -0.350657 0.574056
vt -0.924642 1.148040
vt -0.427557 0.287063
vt -1.211630 1.071140
vt -0.637650 0.076970
vt -0.924642 0.000072
vt -1.421730 0.861049
vt -1.211630 0.076970
vt -1.498630 0.574056
vt -1.421730 0.287063
vt 1.594450 0.642992
vt 1.556990 0.630309
vt 1.559910 0.621677
vt 1.597370 0.634359
vt 1.587400 0.421438
vt 1.605240 0.457890
vt 1.580330 0.427180
vt 1.612320 0.452148
vt 1.589520 0.534234
vt 1.626980 0.546916
vt 1.659090 0.363271
vt 1.684010 0.393981
vt 1.667560 0.401717
vt 1.736170 0.458232
vt 1.656220 0.429502
vt 1.746150 0.433802
vt 1.756120 0.409370
vt 1.678900 0.373932
vt 1.588290 0.595877
vt 1.656910 0.652392
vt 1.576950 0.623662
vt 1.666880 0.627962
vt 1.676860 0.603530
vt 1.599640 0.568092
vt 1.586560 0.600130
vt 1.655170 0.656647
vt 1.575210 0.627915
vt 1.665140 0.632215
vt 1.675120 0.607783
vt 1.597900 0.572345
vt 1.670360 0.394850
vt 1.738980 0.451365
vt 1.659020 0.422635
vt 1.748950 0.426933
vt 1.758930 0.402501
vt 1.681710 0.367063
vt 1.859460 -1.424420
vt 1.715660 -1.493940
vt 1.859460 -1.485250
vt 1.715660 -1.414630
vt 1.898100 -1.858070
vt 1.811920 -1.899730
vt 1.898100 -1.894520
vt 1.811920 -1.852200
vt 1.838390 -1.748810
vt 1.553270 -1.765330
vt 1.838390 -1.967690
vt 1.553270 -1.953040
vt 1.710230 0.455681
vt 1.726040 0.198887
vt 1.744800 0.198887
vt 1.688780 0.455681
vt 1.856880 -1.435890
vt 1.875640 -1.435890
vt 1.858020 -1.869410
vt 1.839260 -1.869410
vt 1.714720 0.423032
vt 1.726040 0.198865
vt 1.744800 0.198865
vt 1.693260 0.423032
vt 1.654310 0.610433
vt 1.632850 0.610433
vt 1.856840 -1.435130
vt 1.875600 -1.435120
vt 1.858020 -1.869320
vt 1.839260 -1.869320
vt 1.714720 0.423001
vt 1.726040 0.198806
vt 1.744800 0.198806
vt 1.693260 0.423001
vt 1.654310 0.609810
vt 1.632850 0.609810
vt 1.856780 -1.434280
vt 1.875540 -1.434280
vt 1.858020 -1.869630
vt 1.839260 -1.869630
vt 1.718400 0.431883
vt 1.726040 0.199175
vt 1.744800 0.199175
vt 1.696940 0.431883
vt 1.856760 -1.433430
vt 1.875520 -1.433430
vt 1.858020 -1.869020
vt 1.839260 -1.869020
vt 1.666170 0.357529
vt 1.691090 0.388239
vt 1.454850 -1.457140
vt 1.632300 -1.201630
vt 1.454850 -1.196190
vt 1.632300 -1.457140
vt 1.632300 -1.712640
vt 1.454850 -1.718090
vt 1.629900 0.538284
vt 1.592440 0.525599
vt 1.635910 -0.654307
vt 1.635910 -0.632849
vt 1.614460 -0.654307
vt 1.614460 -0.632849
vt 1.756290 -0.632849
vt 1.734830 -0.654307
vt 1.756290 -0.654307
vt 1.734830 -0.632849
vt 1.488260 -0.605832
vt 1.544600 -0.601275
vt 1.544600 -0.577595
vt 1.488260 -0.568374
vt 1.454980 -0.597264
vt 1.454980 -0.559806
vt 1.417760 -0.594446
vt 1.417760 -0.556988
vt 1.806820 -0.600269
vt 1.863160 -0.609485
vt 1.863160 -0.572010
vt 1.806820 -0.576579
vt 1.896440 -0.580546
vt 1.896440 -0.618020
vt 1.933660 -0.583354
vt 1.933660 -0.620828
vt 1.806820 -0.628012
vt 1.863160 -0.657670
vt 1.863160 -0.619232
vt 1.806820 -0.652312
vt 1.896440 -0.651385
vt 1.896440 -0.612947
vt 1.933660 -0.649318
vt 1.933660 -0.610880
vt 1.544600 -0.653290
vt 1.488260 -0.632810
vt 1.488260 -0.663521
vt 1.544600 -0.633876
vt 1.454980 -0.612066
vt 1.454980 -0.684265
vt 1.417760 -0.605242
vt 1.417760 -0.691089
vt 1.408630 -0.612320
vt 1.408630 -0.684011
vt 1.640670 -0.736174
vt 1.644300 -0.656217
vt 1.614280 -0.732043
vt 1.614280 -0.651519
vt 1.584270 -0.656217
vt 1.587890 -0.736174
vt 1.629620 -0.656906
vt 1.633250 -0.576950
vt 1.603240 -0.652775
vt 1.603240 -0.572251
vt 1.573220 -0.576950
vt 1.576850 -0.656906
vt 1.784330 -0.655170
vt 1.787960 -0.575213
vt 1.757950 -0.651038
vt 1.757950 -0.570514
vt 1.727930 -0.575213
vt 1.731560 -0.655170
vt 1.770230 -0.738978
vt 1.773850 -0.659021
vt 1.743840 -0.734846
vt 1.743840 -0.654323
vt 1.713830 -0.659021
vt 1.717450 -0.738978
vt 2.119010 -0.632296
vt 1.937420 -0.454846
vt 1.931970 -0.632296
vt 2.128450 -0.454846
vt 1.676470 -0.454846
vt 1.676470 -0.632296
vt 1.420970 -0.632296
vt 1.415520 -0.454846
vt 1.233930 -0.632296
vt 1.224490 -0.454846
vt 1.676470 -0.715661
vt 1.509990 -0.859457
vt 1.676470 -0.859457
vt 1.423380 -0.715661
vt 1.842950 -0.859457
vt 1.929560 -0.715661
vt 1.676470 -0.838391
vt 1.509990 -0.553271
vt 1.509990 -0.838391
vt 1.676470 -0.553271
vt 1.842950 -0.838391
vt 1.842950 -0.553271
vt 1.676470 -0.811921
vt 1.576700 -0.898095
vt 1.676470 -0.898095
vt 1.524800 -0.811921
vt 1.776240 -0.898095
vt 1.828140 -0.811921
vt 1.808340 0.425293
vt 1.864680 0.404813
vt 1.864680 0.435523
vt 1.489780 0.572297
vt 1.546120 0.576864
vt 1.546120 0.600556
vt 1.489780 0.609772
vt 1.456500 0.546984
vt 1.456500 0.635087
vt 1.419280 0.643413
vt 1.419280 0.538656
vt 1.410140 0.634775
vt 1.410140 0.547294
vt 1.808340 0.405879
vt 1.935180 0.427180
vt 1.897960 0.452355
vt 1.897960 0.421645
vt 1.935180 0.457890
vt 1.415520 -1.005160
vt 1.224490 -1.196190
vt 1.676470 -1.457140
vt 1.676470 -0.935237
vt 1.154570 -1.457140
vt 1.937420 -1.005160
vt 1.224490 -1.718090
vt 2.128450 -1.196190
vt 2.198370 -1.457140
vt 1.415520 -1.909120
vt 2.128450 -1.718090
vt 1.676470 -1.979040
vt 1.937420 -1.909120
vt 1.676470 -1.997650
vt 1.842950 -1.953040
vt 1.676470 -1.731980
vt 1.842950 -1.765330
vt 1.509990 -1.953040
vt 1.509990 -1.765330
vt 1.691290 0.198865
vt 1.688970 0.423032
vt 1.678150 0.198711
vt 1.688110 -1.434890
vt 1.674100 0.422858
vt 1.717030 0.610181
vt 1.738480 0.610433
vt 1.705210 -1.435130
vt 1.692270 -1.869540
vt 1.711030 -1.869320
vt 1.657330 0.198806
vt 1.653170 0.423001
vt 1.644190 0.198806
vt 1.667070 0.423001
vt 1.618110 0.609810
vt 1.596650 0.609810
vt 1.643940 -1.434280
vt 1.626840 -1.434040
vt 1.638330 -1.869630
vt 1.619570 -1.869630
vt 1.743240 0.198887
vt 1.728380 0.455427
vt 1.724480 0.198667
vt 1.749830 0.455681
vt 1.741730 -1.435630
vt 1.760490 -1.435890
vt 1.748930 -1.869630
vt 1.767690 -1.869410
vt 1.605140 0.199175
vt 1.598200 0.431883
vt 1.586380 0.199467
vt 1.576740 0.432215
vt 1.563820 -1.433170
vt 1.582580 -1.433430
vt 1.573130 -1.869020
vt 1.554370 -1.868730
vt 1.546120 0.397794
vt 1.489780 0.427451
vt 1.489780 0.389013
vt 1.546120 0.422094
vt 1.456500 0.363050
vt 1.456500 0.453416
vt 1.419280 0.354510
vt 1.419280 0.461957
vt 1.410140 0.453095
vt 1.410140 0.363367
vt 1.808340 0.568447
vt 1.864680 0.559226
vt 1.864680 0.596682
vt 1.808340 0.592129
vt 1.897960 0.621985
vt 1.897960 0.533922
vt 1.935180 0.525599
vt 1.935180 0.630309
vt 1.944310 0.534234
vt 1.944310 0.621677
vt 1.735020 0.622141
vt 1.772500 0.634775
vt 1.769590 0.643413
vt 1.732110 0.630777
vt 1.701480 0.462401
vt 1.742060 0.461957
vt 1.703620 0.471258
vt 1.739920 0.453095
vt 1.765790 0.421645
vt 1.720130 0.435523
vt 1.745050 0.404813
vt 1.740880 0.452355
vt 1.685380 0.401717
vt 1.596820 0.409370
vt 1.674040 0.373932
vt 1.606790 0.433802
vt 1.616770 0.458232
vt 1.696720 0.429502
vt 1.764650 0.595877
vt 1.676090 0.603530
vt 1.753300 0.568092
vt 1.686060 0.627962
vt 1.696030 0.652392
vt 1.775990 0.623662
vt 1.766380 0.600130
vt 1.677820 0.607783
vt 1.755040 0.572345
vt 1.687800 0.632215
vt 1.697770 0.656647
vt 1.777730 0.627915
vt 1.682580 0.394850
vt 1.594010 0.402501
vt 1.671230 0.367063
vt 1.603990 0.426933
vt 1.613960 0.451365
vt 1.693920 0.422635
vt 1.679760 0.372672
vt 1.718200 0.363367
vt 1.764520 0.534660
vt 1.802000 0.547294
vt 1.493480 -1.485250
vt 1.637280 -1.493940
vt 1.493480 -1.424420
vt 1.637280 -1.414630
vt 1.454850 -1.894520
vt 1.541020 -1.899730
vt 1.454850 -1.858070
vt 1.541020 -1.852200
vt 1.514550 -1.967690
vt 1.799670 -1.765330
vt 1.514550 -1.748810
vt 1.799670 -1.953040
vt 1.626900 0.199467
vt 1.634540 0.432215
vt 1.608140 0.199467
vt 1.656000 0.432215
vt 1.496180 -1.433170
vt 1.477420 -1.433170
vt 1.494920 -1.868730
vt 1.513680 -1.868730
vt 1.626900 0.198806
vt 1.638220 0.423001
vt 1.608140 0.198806
vt 1.659680 0.423001
vt 1.698630 0.609810
vt 1.720090 0.609810
vt 1.496180 -1.434040
vt 1.477420 -1.434040
vt 1.494920 -1.869630
vt 1.513680 -1.869630
vt 1.626900 0.198711
vt 1.638220 0.422858
vt 1.608140 0.198711
vt 1.659680 0.422858
vt 1.698630 0.610181
vt 1.720090 0.610181
vt 1.496130 -1.434890
vt 1.477370 -1.434890
vt 1.494920 -1.869540
vt 1.513680 -1.869540
vt 1.626900 0.198667
vt 1.642710 0.455427
vt 1.608140 0.198667
vt 1.664170 0.455427
vt 1.496090 -1.435630
vt 1.477330 -1.435630
vt 1.898100 -1.457140
vt 1.720640 -1.712640
vt 1.898100 -1.718090
vt 1.720640 -1.457140
vt 1.720640 -1.201630
vt 1.898100 -1.196190
vt 1.677620 0.363814
vt 1.716050 0.354510
vt 1.767430 0.526022
vt 1.804910 0.538656
vt 1.689420 0.410604
vt 1.693590 0.363063
vt 1.714340 0.379896
vt 1.668680 0.393774
vt 1.692270 -0.858022
vt 1.711030 -0.858022
vt 1.711030 -0.839261
vt 1.692270 -0.839261
vt 1.748930 -0.858022
vt 1.767690 -0.858022
vt 1.767690 -0.839261
vt 1.748930 -0.839261
vt 1.554370 -0.858022
vt 1.573130 -0.858022
vt 1.573130 -0.839261
vt 1.554370 -0.839261
vt 1.619570 -0.858022
vt 1.638330 -0.858022
vt 1.638330 -0.839261
vt 1.619570 -0.839261
vt 1.738660 -0.683603
vt 1.765050 -0.756123
vt 1.768670 -0.678904
vt 1.738660 -0.760255
vt 1.712270 -0.756123
vt 1.708650 -0.678904
vt 1.749710 -0.604335
vt 1.776090 -0.676855
vt 1.779720 -0.599637
vt 1.749710 -0.680987
vt 1.723320 -0.676855
vt 1.719690 -0.599637
vt 1.595000 -0.602599
vt 1.621380 -0.675119
vt 1.625010 -0.597900
vt 1.595000 -0.679250
vt 1.568610 -0.675119
vt 1.564980 -0.597900
vt 1.609100 -0.686407
vt 1.635490 -0.758927
vt 1.639110 -0.681708
vt 1.609100 -0.763058
vt 1.582710 -0.758927
vt 1.579090 -0.681708
vt 1.864680 -0.638603
vt 1.808340 -0.618124
vt 1.808340 -0.637538
vt 1.897960 -0.587148
vt 1.864680 -0.607893
vt 1.897960 -0.659348
vt 1.935180 -0.580325
vt 1.935180 -0.666172
vt 1.944310 -0.587403
vt 1.944310 -0.659093
vt 1.546120 -0.658193
vt 1.489780 -0.628535
vt 1.489780 -0.666972
vt 1.546120 -0.633894
vt 1.456500 -0.634819
vt 1.456500 -0.673258
vt 1.419280 -0.636886
vt 1.419280 -0.675324
vt 1.489780 -0.596850
vt 1.546120 -0.592281
vt 1.546120 -0.568591
vt 1.489780 -0.559375
vt 1.456500 -0.588314
vt 1.456500 -0.550840
vt 1.419280 -0.585507
vt 1.419280 -0.548032
vt 1.808340 -0.609293
vt 1.864680 -0.581056
vt 1.808340 -0.585613
vt 1.864680 -0.618515
vt 1.897960 -0.589624
vt 1.897960 -0.627082
vt 1.935180 -0.592442
vt 1.935180 -0.629900
vt 1.640670 0.458232
vt 1.614280 0.468353
vt 1.614280 0.433802
vt 1.651600 0.433802
vt 1.640670 0.409370
vt 1.587890 0.458232
vt 1.614280 0.399250
vt 1.576960 0.433802
vt 1.587890 0.409370
vt 1.629620 0.652392
vt 1.603240 0.662513
vt 1.603240 0.627962
vt 1.640560 0.627962
vt 1.629620 0.603530
vt 1.576850 0.652392
vt 1.603240 0.593410
vt 1.565920 0.627962
vt 1.576850 0.603530
vt 1.784330 0.656647
vt 1.757950 0.666767
vt 1.757950 0.632215
vt 1.795270 0.632215
vt 1.784330 0.607783
vt 1.731560 0.656647
vt 1.757950 0.597664
vt 1.720630 0.632215
vt 1.731560 0.607783
vt 1.770230 0.451365
vt 1.743840 0.461485
vt 1.743840 0.426933
vt 1.781160 0.426933
vt 1.770230 0.402501
vt 1.717450 0.451365
vt 1.743840 0.392382
vt 1.706520 0.426933
vt 1.717450 0.402501
vt 1.676470 -1.851590
vt 1.576700 -1.894520
vt 1.676470 -1.903180
vt 1.576700 -1.858070
vt 1.776240 -1.894520
vt 1.776240 -1.858070
vt 1.544600 0.600146
vt 1.488260 0.571909
vt 1.544600 0.576464
vt 1.488260 0.609367
vt 1.454980 0.546606
vt 1.454980 0.634671
vt 1.417760 0.642992
vt 1.417760 0.538284
vt 1.408630 0.634359
vt 1.408630 0.546916
vt 1.676470 -1.413620
vt 1.509990 -1.485250
vt 1.676470 -1.499710
vt 1.509990 -1.424420
vt 1.842950 -1.485250
vt 1.842950 -1.424420
vt 1.676470 -1.709920
vt 1.509990 -1.967690
vt 1.676470 -2.019710
vt 1.509990 -1.748810
vt 1.842950 -1.967690
vt 1.842950 -1.748810
vt 1.863160 0.398319
vt 1.806820 0.427973
vt 1.806820 0.403674
vt 1.896440 0.462718
vt 1.863160 0.436754
vt 1.896440 0.372352
vt 1.933660 0.363814
vt 1.933660 0.471258
vt 1.942800 0.372672
vt 1.942800 0.462401
vt 1.754740 0.431883
vt 1.766560 0.199467
vt 1.776200 0.432215
vt 1.747800 0.199175
vt 1.789120 -1.433170
vt 1.770360 -1.433430
vt 1.779810 -1.869020
vt 1.798570 -1.868730
vt 1.603110 0.455681
vt 1.609700 0.198887
vt 1.624560 0.455427
vt 1.628460 0.198667
vt 1.611210 -1.435630
vt 1.592450 -1.435890
vt 1.604010 -1.869630
vt 1.585260 -1.869410
vt 1.663970 0.423032
vt 1.674790 0.198711
vt 1.678840 0.422858
vt 1.635910 0.610181
vt 1.614460 0.610433
vt 1.661650 0.198865
vt 1.664830 -1.434890
vt 1.647730 -1.435120
vt 1.660670 -1.869540
vt 1.641910 -1.869320
vt 1.685870 0.423001
vt 1.695610 0.198806
vt 1.699770 0.423001
vt 1.734830 0.609810
vt 1.756290 0.609810
vt 1.708750 0.198806
vt 1.709000 -1.434280
vt 1.726100 -1.434040
vt 1.714610 -1.869630
vt 1.733370 -1.869630
vt 2.119010 -1.201630
vt 1.931970 -1.014590
vt 2.187480 -1.457140
vt 1.676470 -0.946131
vt 2.119010 -1.712640
vt 1.420970 -1.014590
vt 1.931970 -1.899680
vt 1.676470 -1.968140
vt 1.233930 -1.201630
vt 1.420970 -1.899680
vt 1.165460 -1.457140
vt 1.233930 -1.712640
vt 1.863160 0.597138
vt 1.806820 0.592570
vt 1.806820 0.568877
vt 1.863160 0.559663
vt 1.896440 0.622449
vt 1.896440 0.534349
vt 1.933660 0.526022
vt 1.933660 0.630777
vt 1.942800 0.534660
vt 1.942800 0.622141
vt 1.488260 0.410604
vt 1.544600 0.390126
vt 1.544600 0.409540
vt 1.488260 0.379896
vt 1.417760 0.388239
vt 1.454980 0.363063
vt 1.454980 0.393774
vt 1.417760 0.357529
s 1
usemtl Neck1Mtl
f 1/1/1 2/2/1 3/3/1
f 2/2/1 1/1/1 4/4/1
f 5/5/2 6/6/3 7/7/2
f 6/6/3 5/5/2 8/8/3
f 7/7/2 9/9/4 5/5/2
f 9/9/4 7/7/2 10/10/5
f 11/8/6 12/5/7 13/11/7
f 11/8/6 13/11/7 14/12/7
f 15/4/8 16/10/9 17/2/8
f 16/10/9 15/4/8 18/9/9
f 19/13/10 20/14/11 21/15/12
f 20/14/11 19/13/10 22/16/11
f 23/17/13 19/13/10 21/15/12
f 19/13/10 23/17/13 24/18/13
f 25/19/14 26/20/14 27/21/15
f 27/21/16 28/22/17 29/23/17
f 30/21/16 31/20/14 32/24/16
f 33/22/18 30/21/16 32/24/16
f 34/25/19 35/26/20 36/27/19
f 35/26/20 34/25/19 37/28/21
f 38/29/22 35/26/20 37/28/21
f 35/26/20 38/29/22 39/30/22
f 40/31/23 41/32/23 42/33/24
f 42/33/24 41/32/23 43/34/25
f 44/35/26 42/33/24 43/34/25
f 42/33/24 44/35/26 45/36/26
f 46/37/27 47/35/28 48/34/29
f 47/35/28 46/37/27 49/38/30
f 50/32/31 46/37/27 48/34/29
f 46/37/27 50/32/31 51/39/32
f 52/37/33 53/40/34 54/38/34
f 53/40/34 52/37/33 55/41/33
f 52/37/33 56/42/35 55/41/33
f 56/42/35 52/37/33 57/39/36
f 58/43/37 59/44/37 60/45/37
f 59/44/37 61/46/37 60/45/37
f 62/47/38 63/48/39 64/49/40
f 65/50/39 64/49/40 63/48/39
f 63/48/39 66/51/41 65/50/39
f 67/52/41 65/50/39 66/51/41
f 68/47/42 69/53/42 70/48/42
f 69/53/42 68/47/42 71/54/42
f 72/44/43 73/52/44 74/46/43
f 73/52/44 75/51/44 74/46/43
f 76/55/45 77/56/46 78/57/45
f 77/56/46 76/55/45 79/58/45
f 80/59/47 81/60/48 82/55/47
f 82/55/47 81/60/48 83/58/49
f 84/61/50 85/62/51 86/63/50
f 85/62/51 84/61/50 87/64/51
f 88/65/52 85/62/51 87/64/51
f 85/62/51 88/65/52 89/66/53
f 90/67/54 91/63/54 92/62/55
f 92/62/55 93/68/56 90/67/54
f 92/62/55 94/69/57 93/68/56
f 95/66/57 94/69/57 92/62/55
f 96/67/58 97/70/59 98/71/60
f 97/70/59 96/67/58 99/68/59
f 100/69/61 97/70/59 99/68/59
f 97/70/59 100/69/61 101/72/62
f 102/73/63 98/71/60 97/70/59
f 101/72/62 102/73/63 97/70/59
f 98/71/60 102/73/63 103/74/64
f 102/73/63 101/72/62 104/75/65
usemtl Drum1Mtl
f 107/76/66 105/77/67 106/78/67
f 105/77/67 107/76/66 108/79/68
f 109/80/69 108/79/68 107/76/66
f 109/80/69 107/76/66 110/81/69
f 111/82/70 112/83/71 113/84/71
f 112/83/71 111/82/70 114/85/70
f 115/86/72 113/84/71 112/83/71
f 113/84/71 115/86/72 116/87/72
f 117/88/73 116/87/72 115/86/72
f 117/88/73 115/86/72 118/89/73
f 119/90/74 117/88/73 118/89/73
f 119/90/74 118/89/73 120/91/74
f 123/79/75 121/92/76 122/93/76
f 121/92/76 123/79/75 124/76/77
f 125/94/78 124/76/77 123/79/75
f 125/94/78 123/79/75 126/95/78
f 129/83/79 127/82/80 128/85/80
f 127/82/80 129/83/79 130/84/79
f 131/86/81 130/84/79 129/83/79
f 130/84/79 131/86/81 132/87/81
f 133/88/82 132/87/81 131/86/81
f 133/88/82 131/86/81 134/89/82
f 135/90/83 133/88/82 134/89/82
f 135/90/83 134/89/82 136/91/83
f 137/96/84 138/97/84 139/98/84
f 140/99/84 137/96/84 139/98/84
f 138/97/84 141/100/84 139/98/84
f 142/101/84 140/99/84 139/98/84
f 141/100/84 143/102/84 139/98/84
f 144/103/84 142/101/84 139/98/84
f 145/104/84 144/103/84 139/98/84
f 143/102/84 146/105/84 139/98/84
f 147/106/84 145/104/84 139/98/84
f 146/105/84 148/107/84 139/98/84
f 149/108/84 147/106/84 139/98/84
f 148/107/84 149/108/84 139/98/84
usemtl Handle1Mtl.005
f 150/109/85 151/110/86 152/111/85
f 150/109/85 152/111/85 153/112/87
f 154/113/88 155/114/89 156/115/89
f 155/114/89 154/113/88 157/116/89
f 158/112/90 159/117/90 160/118/90
f 159/117/90 158/112/90 161/111/90
f 162/113/90 163/119/90 164/120/90
f 162/113/90 164/120/90 165/116/90
f 168/121/91 167/122/92 166/123/93
f 167/122/92 168/121/91 169/124/91
f 169/124/91 168/121/91 170/125/94
f 171/126/94 170/125/94 168/121/91
f 174/127/95 173/128/93 172/129/92
f 173/128/93 174/127/95 175/130/95
f 175/130/95 174/127/95 176/131/96
f 177/132/96 176/131/96 174/127/95
f 180/133/91 179/134/92 178/135/93
f 179/134/92 180/133/91 181/136/91
f 181/136/91 180/133/91 182/137/94
f 183/138/96 182/137/94 180/133/91
f 186/139/97 185/140/93 184/141/93
f 185/140/93 186/139/97 187/142/95
f 187/142/95 186/139/97 188/143/96
f 189/144/96 188/143/96 186/139/97
f 190/145/98 191/146/98 192/147/99
f 191/146/98 190/145/98 193/148/98
f 194/149/99 195/150/99 196/151/99
f 195/150/99 194/149/99 197/152/99
f 198/153/90 199/154/90 200/155/90
f 200/155/90 199/154/90 201/156/90
f 202/157/100 203/158/101 204/159/101
f 205/160/100 203/158/101 202/157/100
f 203/158/101 206/161/101 204/159/101
f 204/159/101 206/161/101 207/162/102
f 206/161/101 208/163/103 207/162/102
f 208/163/103 206/161/101 209/164/102
f 210/165/104 211/166/101 212/167/101
f 213/168/105 211/166/101 210/165/104
f 214/169/106 213/168/105 210/165/104
f 215/170/106 213/168/105 214/169/106
f 211/166/101 216/171/101 212/167/101
f 212/167/101 216/171/101 217/172/101
f 216/171/101 218/173/102 217/172/101
f 218/173/102 216/171/101 219/174/103
f 220/175/107 221/176/108 222/177/109
f 223/178/110 221/176/108 220/175/107
f 224/179/111 223/178/110 220/175/107
f 225/180/111 223/178/110 224/179/111
f 221/176/108 226/181/112 222/177/109
f 222/177/109 226/181/112 227/182/112
f 226/181/112 228/183/108 227/182/112
f 228/183/108 226/181/112 229/184/108
f 230/185/113 231/186/112 232/187/112
f 233/188/113 231/186/112 230/185/113
f 231/186/112 234/189/108 232/187/112
f 232/187/112 234/189/108 235/190/108
f 234/189/108 236/191/100 235/190/108
f 236/191/100 234/189/108 237/192/100
f 238/120/114 239/119/115 240/193/116
f 240/193/116 241/194/116 238/120/114
f 244/195/117 242/196/118 243/197/119
f 242/196/118 244/195/117 245/198/117
f 246/199/120 245/198/117 244/195/117
f 246/199/120 244/195/117 247/200/120
f 248/117/121 249/201/122 250/118/123
f 249/201/122 248/117/121 251/202/121
f 252/203/124 253/204/124 254/205/124
f 254/205/124 253/204/124 255/206/124
f 256/207/125 257/208/125 258/209/125
f 257/208/125 256/207/125 259/210/125
f 260/211/126 261/212/127 262/213/127
f 260/211/126 262/213/127 263/214/128
f 263/214/128 264/215/129 260/211/126
f 264/215/129 263/214/128 265/216/129
f 265/216/129 266/217/130 264/215/129
f 266/217/130 265/216/129 267/218/131
f 268/219/132 269/220/133 270/221/134
f 268/219/132 270/221/134 271/222/132
f 269/220/133 272/223/135 270/221/134
f 272/223/135 269/220/133 273/224/135
f 273/224/135 274/225/136 272/223/135
f 274/225/136 273/224/135 275/226/136
f 276/227/137 277/228/138 278/229/138
f 279/228/138 280/227/137 281/230/137
f 282/231/139 283/229/140 279/228/141
f 283/229/140 282/231/139 284/232/139
f 285/233/142 284/232/139 282/231/139
f 284/232/139 285/233/142 286/234/143
f 287/235/144 288/236/145 289/237/145
f 288/236/145 287/235/144 290/238/144
f 291/239/146 289/237/145 288/236/145
f 291/239/146 292/240/147 289/237/145
f 292/240/147 291/239/146 293/241/147
f 293/241/147 294/242/147 292/240/147
f 294/242/147 293/241/147 295/243/147
f 295/243/147 296/244/147 294/242/147
f 297/245/148 298/246/148 299/247/149
f 299/247/149 298/246/148 300/248/150
f 301/249/151 299/247/149 300/248/150
f 299/247/149 301/249/151 302/250/92
f 303/251/152 304/252/148 305/253/150
f 305/253/150 304/252/148 306/254/150
f 307/255/92 305/253/150 306/254/150
f 305/253/150 307/255/92 308/256/92
f 309/257/148 310/258/148 311/259/150
f 311/259/150 310/258/148 312/260/150
f 313/261/151 311/259/150 312/260/150
f 311/259/150 313/261/151 314/262/151
f 315/263/148 316/264/148 317/265/150
f 317/265/150 316/264/148 318/266/149
f 319/267/151 317/265/150 318/266/149
f 317/265/150 319/267/151 320/268/151
f 321/269/153 322/270/154 323/271/154
f 322/270/154 321/269/153 324/272/155
f 325/273/156 323/271/154 322/270/154
f 323/271/154 325/273/156 326/274/156
f 327/275/157 326/274/156 325/273/156
f 327/275/157 325/273/156 328/276/157
f 329/277/119 327/275/157 328/276/157
f 329/277/119 328/276/157 330/278/119
f 331/279/158 332/280/159 333/281/158
f 332/280/159 331/279/158 334/282/159
f 335/283/160 331/279/158 333/281/158
f 331/279/158 335/283/160 336/284/160
f 337/285/161 338/286/162 339/287/162
f 338/286/162 337/285/161 340/288/161
f 341/289/163 340/288/161 337/285/161
f 340/288/161 341/289/163 342/290/164
f 343/291/158 344/292/159 345/293/158
f 344/292/159 343/291/158 346/294/159
f 347/295/160 343/291/158 345/293/158
f 343/291/158 347/295/160 348/296/160
f 349/297/165 350/298/166 351/299/166
f 352/300/167 353/301/168 354/302/168
f 355/303/169 356/304/170 352/300/171
f 356/304/170 355/303/169 357/305/170
f 356/304/170 357/305/170 358/306/170
f 358/306/170 359/307/170 356/304/170
f 359/307/170 358/306/170 360/308/170
f 359/307/170 360/308/170 361/309/170
f 362/298/166 363/297/165 364/310/165
f 367/311/172 366/312/173 365/313/173
f 366/312/173 367/311/172 368/314/174
f 369/300/171 370/302/168 371/303/171
f 372/315/175 373/316/175 374/317/175
f 375/318/175 372/315/175 374/317/175
f 373/316/175 376/319/175 374/317/175
f 377/320/175 375/318/175 374/317/175
f 376/319/175 378/321/175 374/317/175
f 379/322/175 377/320/175 374/317/175
f 380/323/175 379/322/175 374/317/175
f 378/321/175 381/324/175 374/317/175
f 382/325/175 380/323/175 374/317/175
f 381/324/175 383/326/175 374/317/175
f 384/327/175 382/325/175 374/317/175
f 383/326/175 384/327/175 374/317/175
f 385/328/175 386/329/175 387/330/175
f 386/329/175 388/331/175 387/330/175
f 389/332/175 390/330/175 391/333/175
f 390/330/175 389/332/175 392/328/175
f 393/334/176 394/335/177 395/336/176
f 393/334/176 395/336/176 396/337/178
f 394/335/177 397/338/179 395/336/176
f 394/335/177 398/339/180 397/338/179
f 398/339/180 394/335/177 399/340/180
f 400/341/181 393/334/176 396/337/178
f 401/342/182 400/341/181 396/337/178
f 402/343/183 400/341/181 401/342/182
f 403/344/176 404/345/177 405/346/176
f 404/345/177 403/344/176 406/347/179
f 406/347/179 407/348/180 404/345/177
f 408/349/180 404/345/177 407/348/180
f 405/346/176 409/350/181 403/344/176
f 409/350/181 405/346/176 410/351/181
f 410/351/181 411/352/183 409/350/181
f 411/352/183 410/351/181 412/353/182
f 413/354/184 414/355/185 415/356/184
f 414/355/185 413/354/184 416/357/185
f 413/354/184 415/356/184 417/358/186
f 418/359/178 413/354/184 417/358/186
f 418/359/178 417/358/186 419/360/183
f 420/361/187 418/359/178 419/360/183
f 421/362/176 422/363/188 423/364/176
f 422/363/188 424/365/189 423/364/176
f 425/366/178 421/362/176 423/364/176
f 426/367/178 421/362/176 425/366/178
f 425/366/178 427/368/190 426/367/178
f 427/368/190 425/366/178 428/369/191
f 429/370/192 430/371/193 431/372/194
f 430/371/193 429/370/192 432/373/192
f 430/371/193 433/374/195 431/372/194
f 433/374/195 430/371/193 434/375/196
f 434/375/196 435/376/177 433/374/195
f 435/376/177 434/375/196 436/377/196
f 435/376/177 436/377/196 437/378/177
f 435/376/177 437/378/177 438/379/177
f 439/380/197 440/381/198 441/382/199
f 439/380/197 441/382/199 442/383/197
f 440/381/198 443/384/200 441/382/199
f 443/384/200 440/381/198 444/385/200
f 445/386/200 443/384/200 444/385/200
f 443/384/200 445/386/200 446/387/200
f 446/387/200 445/386/200 447/388/200
f 446/387/200 447/388/200 448/389/200
f 449/390/201 450/391/202 451/392/201
f 449/390/201 451/392/201 452/393/201
f 453/394/203 454/395/204 455/396/205
f 454/395/204 453/394/203 456/397/206
f 458/398/207 459/399/208 457/400/209
f 459/399/208 458/398/207 460/401/207
f 463/402/210 461/403/211 462/404/212
f 461/403/211 463/402/210 464/405/210
f 463/402/210 465/406/152 464/405/210
f 465/406/152 463/402/210 466/407/213
f 469/408/214 467/409/211 468/410/212
f 467/409/211 469/408/214 470/411/214
f 469/408/214 471/412/213 470/411/214
f 471/412/213 469/408/214 472/413/215
f 475/414/214 473/415/212 474/416/212
f 473/415/212 475/414/214 476/417/210
f 475/414/214 477/418/213 476/417/210
f 477/418/213 475/414/214 478/419/216
f 481/420/214 479/421/211 480/422/212
f 479/421/211 481/420/214 482/423/210
f 481/420/214 483/424/213 482/423/210
f 483/424/213 481/420/214 484/425/213
f 485/426/217 486/397/217 487/394/217
f 486/397/217 485/426/217 488/427/217
f 489/428/217 490/391/217 491/390/217
f 490/391/217 489/428/217 492/429/217
f 493/430/218 494/431/218 495/432/219
f 495/432/219 494/431/218 496/433/218
f 497/434/219 498/435/219 499/436/219
f 499/436/219 498/435/219 500/437/219
f 501/438/217 502/439/217 503/440/217
f 502/439/217 501/438/217 504/441/217
f 505/442/220 506/443/221 507/444/222
f 506/443/221 505/442/220 508/445/221
f 507/444/222 509/446/223 505/442/220
f 509/446/223 507/444/222 510/447/224
f 510/447/224 511/448/225 509/446/223
f 512/449/225 509/446/223 511/448/225
f 513/450/223 514/451/226 515/452/223
f 514/451/226 513/450/223 516/453/227
f 516/453/227 517/454/228 514/451/226
f 517/454/228 516/453/227 518/455/228
f 515/452/223 519/456/224 513/450/223
f 519/456/224 515/452/223 520/457/224
f 520/457/224 521/458/224 519/456/224
f 522/459/224 519/456/224 521/458/224
f 523/460/229 524/461/230 525/462/229
f 524/461/230 523/460/229 526/463/231
f 526/463/231 527/464/232 524/461/230
f 527/464/232 526/463/231 528/465/232
f 525/462/229 529/466/233 523/460/229
f 529/466/233 525/462/229 530/467/229
f 530/467/229 531/468/229 529/466/233
f 532/469/229 529/466/233 531/468/229
f 533/470/229 534/471/224 535/472/233
f 534/471/224 533/470/229 536/473/223
f 535/472/233 537/474/229 533/470/229
f 537/474/229 535/472/233 538/475/234
f 538/475/234 539/458/234 537/474/229
f 540/459/234 537/474/229 539/458/234
f 543/476/235 541/477/236 542/478/236
f 541/477/236 543/476/235 544/479/237
f 545/480/238 544/479/237 543/476/235
f 545/480/238 543/476/235 546/481/238
f 547/427/239 548/426/240 549/482/241
f 549/482/241 550/483/241 547/427/239
f 551/484/242 552/485/243 553/429/242
f 551/484/242 553/429/242 554/428/244
f 555/486/245 557/487/246 556/488/247
f 557/487/246 555/486/245 558/489/246
f 559/285/248 560/289/249 561/290/249
f 559/285/248 561/290/249 562/288/248
f 563/287/250 559/285/248 562/288/248
f 563/287/250 562/288/248 564/286/250
f 565/295/251 566/291/252 567/293/252
f 566/291/252 565/295/251 568/296/251
f 569/292/253 567/293/252 566/291/252
f 566/291/252 570/294/253 569/292/253
f 571/490/254 572/491/255 573/492/254
f 571/490/254 573/492/254 574/493/254
f 575/494/256 576/495/256 577/496/256
f 575/494/256 577/496/256 578/497/257
f 579/498/258 580/499/258 581/500/258
f 579/498/258 581/500/258 582/501/258
f 583/502/259 584/503/259 585/504/259
f 583/502/259 585/504/259 586/505/259
f 587/283/251 588/279/252 589/281/252
f 588/279/252 587/283/251 590/284/251
f 591/280/253 589/281/252 588/279/252
f 588/279/252 592/282/253 591/280/253
f 595/506/260 593/507/96 594/508/96
f 593/507/96 595/506/260 596/509/260
f 596/509/260 595/506/260 597/510/211
f 597/510/211 595/506/260 598/511/211
f 601/512/260 599/513/96 600/514/96
f 599/513/96 601/512/260 602/515/260
f 602/515/260 601/512/260 603/516/211
f 603/516/211 601/512/260 604/517/211
f 607/518/260 605/519/96 606/520/96
f 605/519/96 607/518/260 608/521/260
f 608/521/260 607/518/260 609/522/211
f 609/522/211 607/518/260 610/523/211
f 613/524/260 611/525/96 612/526/96
f 611/525/96 613/524/260 614/527/260
f 614/527/260 613/524/260 615/528/211
f 615/528/211 613/524/260 616/529/261
f 619/270/262 617/269/263 618/272/264
f 617/269/263 619/270/262 620/271/262
f 621/273/265 620/271/262 619/270/262
f 620/271/262 621/273/265 622/274/265
f 623/275/266 622/274/265 621/273/265
f 623/275/266 621/273/265 624/276/266
f 625/277/267 623/275/266 624/276/266
f 625/277/267 624/276/266 626/278/267
f 627/530/268 628/531/269 629/532/269
f 627/530/268 630/533/270 631/534/268
f 630/533/270 627/530/268 632/535/271
f 632/535/271 633/536/271 630/533/270
f 633/536/271 632/535/271 634/537/271
f 634/537/271 635/538/271 633/536/271
f 635/538/271 634/537/271 636/539/271
f 637/531/269 638/530/268 639/534/268
f 640/540/272 641/541/273 642/542/273
f 641/541/273 640/540/272 643/543/272
f 642/542/273 641/541/273 644/544/274
f 645/545/274 642/542/273 644/544/274
f 645/545/274 644/544/274 646/546/275
f 647/547/276 645/545/274 646/546/275
f 648/548/277 649/549/278 650/550/278
f 651/551/279 652/552/280 648/548/281
f 652/552/280 651/551/279 653/553/280
f 653/553/280 654/554/282 652/552/280
f 654/554/282 653/553/280 655/555/282
f 656/548/277 657/550/278 658/551/277
f 659/556/283 660/557/284 661/558/283
f 662/559/285 663/560/286 660/557/287
f 663/560/286 662/559/285 664/561/286
f 664/561/286 665/562/288 663/560/286
f 665/562/288 664/561/286 666/563/289
f 667/556/283 668/559/284 669/557/284
f 670/564/290 671/565/290 672/566/290
f 673/567/290 670/564/290 672/566/290
f 674/568/290 673/567/290 672/566/290
f 671/565/290 675/569/290 672/566/290
f 676/570/290 674/568/290 672/566/290
f 675/569/290 677/571/290 672/566/290
f 678/572/290 676/570/290 672/566/290
f 677/571/290 678/572/290 672/566/290
f 679/573/290 680/574/290 681/575/290
f 682/576/290 679/573/290 681/575/290
f 683/577/290 682/576/290 681/575/290
f 680/574/290 684/578/290 681/575/290
f 685/579/291 683/577/290 681/575/290
f 684/578/290 686/580/290 681/575/290
f 687/581/292 685/579/291 681/575/290
f 686/580/290 687/581/292 681/575/290
f 688/582/290 689/583/290 690/584/290
f 691/585/290 688/582/290 690/584/290
f 692/586/290 691/585/290 690/584/290
f 689/583/290 693/587/292 690/584/290
f 694/588/290 692/586/290 690/584/290
f 693/587/292 695/589/290 690/584/290
f 696/590/290 694/588/290 690/584/290
f 695/589/290 696/590/290 690/584/290
f 697/591/290 698/592/290 699/593/290
f 700/594/290 697/591/290 699/593/290
f 701/595/290 700/594/290 699/593/290
f 698/592/290 702/596/290 699/593/290
f 703/597/290 701/595/290 699/593/290
f 702/596/290 704/598/290 699/593/290
f 705/599/290 703/597/290 699/593/290
f 704/598/290 705/599/290 699/593/290
f 706/600/84 707/601/84 708/602/84
f 707/601/84 706/600/84 709/603/84
f 710/600/84 711/604/84 712/605/84
f 711/604/84 710/600/84 713/602/84
f 714/606/293 715/607/294 716/608/293
f 717/609/294 718/610/51 715/607/294
f 718/610/51 717/609/294 719/611/51
f 720/612/51 718/610/51 719/611/51
f 718/610/51 720/612/51 721/613/51
f 721/613/51 720/612/51 722/614/51
f 721/613/51 722/614/51 723/615/51
f 724/616/84 725/617/84 726/618/84
f 725/617/84 724/616/84 727/619/84
f 728/620/84 724/616/84 726/618/84
f 724/616/84 728/620/84 729/621/84
f 730/606/295 731/609/296 732/607/294
f 733/622/84 734/623/84 735/624/84
f 734/623/84 733/622/84 736/625/84
f 737/622/84 738/626/84 739/627/84
f 738/626/84 737/622/84 740/624/84
f 741/628/297 742/629/298 743/630/298
f 741/628/299 744/631/300 745/632/299
f 744/631/300 741/628/299 746/633/300
f 744/631/300 746/633/300 747/634/300
f 747/634/300 748/635/300 744/631/300
f 748/635/300 747/634/300 749/636/301
f 748/635/300 749/636/301 750/637/301
f 751/629/302 752/628/299 753/632/299
f 754/638/303 755/639/304 756/640/303
f 755/639/304 754/638/303 757/641/304
f 757/641/304 758/642/305 755/639/304
f 758/642/305 757/641/304 759/643/305
f 759/643/305 760/644/306 758/642/305
f 760/644/306 761/645/306 758/642/305
f 762/646/307 763/647/304 764/648/307
f 764/648/307 763/647/304 765/649/304
f 763/647/304 766/650/305 765/649/304
f 766/650/305 763/647/304 767/651/305
f 767/651/305 768/652/308 766/650/305
f 768/652/308 767/651/305 769/653/308
f 770/654/309 771/655/304 772/656/310
f 772/656/310 773/657/311 770/654/309
f 774/658/311 770/654/309 773/657/311
f 771/655/304 770/654/309 775/659/304
f 775/659/304 776/660/305 771/655/304
f 776/660/305 775/659/304 777/661/56
f 777/661/56 778/662/308 776/660/305
f 778/662/308 777/661/56 779/663/308
f 780/664/310 781/665/312 782/666/309
f 782/666/309 783/667/311 780/664/310
f 783/667/311 782/666/309 784/668/311
f 781/665/312 785/669/304 782/666/309
f 781/665/312 786/670/56 785/669/304
f 787/671/56 785/669/304 786/670/56
f 786/670/56 788/672/308 787/671/56
f 788/672/308 789/673/313 787/671/56
f 790/674/84 791/675/84 792/317/84
f 793/676/84 790/674/84 792/317/84
f 791/675/84 794/677/84 792/317/84
f 795/678/84 793/676/84 792/317/84
f 794/677/84 796/679/84 792/317/84
f 797/680/84 795/678/84 792/317/84
f 798/681/84 797/680/84 792/317/84
f 796/679/84 799/682/84 792/317/84
f 800/683/84 798/681/84 792/317/84
f 799/682/84 801/684/84 792/317/84
f 802/685/84 800/683/84 792/317/84
f 801/684/84 802/685/84 792/317/84
f 803/686/314 804/687/315 805/688/315
f 803/686/314 805/688/315 806/689/316
f 806/689/316 807/690/317 803/686/314
f 807/690/317 806/689/316 808/691/317
f 807/690/317 808/691/317 809/692/317
f 809/692/317 810/693/317 807/690/317
f 810/693/317 809/692/317 811/694/317
f 810/693/317 811/694/317 812/695/317
f 813/696/318 814/697/319 815/698/319
f 814/697/319 813/696/318 816/699/318
f 819/700/320 817/701/321 818/702/321
f 817/701/321 819/700/320 820/703/320
