# Blender 5.1.2
# www.blender.org
mtllib Chassis.mtl
o Chassis
v -2.426945 0.384526 4.575291
v -2.426945 0.508836 4.450989
v -2.426945 0.482036 4.429089
v -2.426945 0.440116 4.408588
v -2.426945 0.384526 4.399490
v -2.426945 0.328926 4.408588
v -2.426945 0.287006 4.429089
v -2.426945 0.260216 4.450989
v -2.426945 0.260216 4.450989
v -2.426945 0.238246 4.477791
v -2.426945 0.217746 4.519791
v -2.426945 0.208726 4.575291
v -2.426945 0.217746 4.630890
v -2.426945 0.238246 4.672890
v -2.426945 0.260216 4.699688
v -2.426945 0.260216 4.699688
v -2.426945 0.287006 4.721588
v -2.426945 0.328926 4.742088
v -2.426945 0.384526 4.751091
v -2.426945 0.440116 4.742088
v -2.426945 0.482036 4.721588
v -2.426945 0.508836 4.699688
v -2.426945 0.508836 4.699688
v -2.426945 0.530796 4.672890
v -2.426945 0.551306 4.630890
v -2.426945 0.560326 4.575291
v -2.426945 0.551306 4.519791
v -2.426945 0.530796 4.477791
v -2.426945 0.508836 4.450989
v -2.546944 0.508836 4.699688
v -2.426945 0.508836 4.699688
v -2.546944 0.530796 4.672890
v -2.426945 0.530796 4.672890
v -2.546944 0.551306 4.630890
v -2.426945 0.551306 4.630890
v -2.546944 0.560326 4.575291
v -2.426945 0.560326 4.575291
v -2.546944 0.551306 4.519791
v -2.426945 0.551306 4.519791
v -2.546944 0.530796 4.477791
v -2.426945 0.530796 4.477791
v -2.546944 0.508836 4.450989
v -2.426945 0.508836 4.450989
v -2.426945 0.508836 4.699688
v -2.546944 0.508836 4.699688
v -2.426945 0.482036 4.721588
v -2.546944 0.482036 4.721588
v -2.426945 0.440116 4.742088
v -2.546944 0.440116 4.742088
v -2.426945 0.384526 4.751091
v -2.546944 0.384526 4.751091
v -2.426945 0.328926 4.742088
v -2.546944 0.328926 4.742088
v -2.426945 0.287006 4.721588
v -2.546944 0.287006 4.721588
v -2.426945 0.260216 4.699688
v -2.546944 0.260216 4.699688
v -2.546944 0.384526 4.575291
v -2.546944 0.508836 4.699688
v -2.546944 0.482036 4.721588
v -2.546944 0.440116 4.742088
v -2.546944 0.384526 4.751091
v -2.546944 0.328926 4.742088
v -2.546944 0.287006 4.721588
v -2.546944 0.260216 4.699688
v -2.546944 0.260216 4.699688
v -2.546944 0.238246 4.672890
v -2.546944 0.217746 4.630890
v -2.546944 0.208726 4.575291
v -2.546944 0.217746 4.519791
v -2.546944 0.238246 4.477791
v -2.546944 0.260216 4.450989
v -2.546944 0.260216 4.450989
v -2.546944 0.287006 4.429089
v -2.546944 0.328926 4.408588
v -2.546944 0.384526 4.399490
v -2.546944 0.440116 4.408588
v -2.546944 0.482036 4.429089
v -2.546944 0.508836 4.450989
v -2.546944 0.508836 4.450989
v -2.546944 0.530796 4.477791
v -2.546944 0.551306 4.519791
v -2.546944 0.560326 4.575291
v -2.546944 0.551306 4.630890
v -2.546944 0.530796 4.672890
v -2.546944 0.508836 4.699688
v -2.546944 0.260216 4.450989
v -2.426945 0.260216 4.450989
v -2.546944 0.238246 4.477791
v -2.426945 0.238246 4.477791
v -2.546944 0.217746 4.519791
v -2.426945 0.217746 4.519791
v -2.546944 0.208726 4.575291
v -2.426945 0.208726 4.575291
v -2.546944 0.217746 4.630890
v -2.426945 0.217746 4.630890
v -2.546944 0.238246 4.672890
v -2.426945 0.238246 4.672890
v -2.546944 0.260216 4.699688
v -2.426945 0.260216 4.699688
v -2.546944 0.508836 4.450989
v -2.426945 0.508836 4.450989
v -2.546944 0.482036 4.429089
v -2.426945 0.482036 4.429089
v -2.546944 0.440116 4.408588
v -2.426945 0.440116 4.408588
v -2.546944 0.384526 4.399490
v -2.426945 0.384526 4.399490
v -2.546944 0.328926 4.408588
v -2.426945 0.328926 4.408588
v -2.546944 0.287006 4.429089
v -2.426945 0.287006 4.429089
v -2.546944 0.260216 4.450989
v -2.426945 0.260216 4.450989
v 3.346556 -1.163554 5.880692
v 3.475355 -1.042374 5.807388
v 3.427855 -1.002084 5.928589
v 3.475355 0.731036 5.807388
v 3.427855 -1.002084 5.928589
v 3.475355 -1.042374 5.807388
v 3.420055 0.852226 5.928589
v 3.354155 -1.042375 -5.604710
v 3.354155 0.534936 -5.604710
v 3.475355 0.534936 -5.483509
v 3.475355 -1.042374 -5.483509
v 3.475355 0.731036 -5.483509
v 3.354155 0.852225 -5.604710
v 3.475355 0.737736 3.676289
v 3.475355 0.937796 3.630188
v 3.417555 0.852226 3.715988
v 3.475355 0.731036 3.690590
v 3.475355 0.970316 3.688789
v 3.417555 0.852226 3.715988
v 3.475355 0.731036 5.807388
v 3.475355 0.731036 3.690590
v 3.420055 0.852226 5.928589
v 3.475355 -1.042374 5.807388
v 3.475355 0.038006 5.166691
v 3.475355 0.731036 5.807388
v 3.475355 -1.042374 5.641991
v 3.475355 0.731036 3.690590
v 3.475355 0.038006 3.521389
v 3.475355 0.186336 3.484989
v 3.475355 0.737736 3.676289
v 3.475355 -0.693874 3.092491
v 3.475355 1.082636 3.484989
v 3.475355 -1.019344 3.059391
v 3.475355 0.937796 3.630188
v 3.475355 -0.693874 0.707089
v 3.475355 1.082636 3.662891
v 3.475355 0.970316 3.688789
v 3.475355 -0.693874 0.607090
v 3.475355 -1.020284 -2.567310
v 3.475355 -0.693874 -2.438309
v 3.475355 0.048786 -3.038311
v 3.475355 0.731036 -2.722912
v 3.475355 1.082636 -2.438309
v 3.475355 0.966316 -2.626011
v 3.475355 1.082636 -2.584309
v 3.475355 0.048375 -4.741310
v 3.475355 0.731036 -5.483509
v 3.475355 0.534936 -5.483509
v 3.475355 -1.042374 -5.483509
v 3.475355 -1.042374 -5.221210
v 3.351555 -1.163554 3.044689
v 3.352055 -1.163554 -2.623909
v 3.475355 -1.020284 -2.567310
v 3.475355 -1.019344 3.059391
v 3.183155 0.121426 -2.438309
v 3.183155 1.082636 -2.584309
v 3.183155 0.317746 -1.920712
v 3.183155 1.082636 -1.920712
v 3.183155 1.082636 3.306988
v 3.183155 0.186336 3.484989
v 3.182055 -0.693874 3.092491
v 3.183155 1.082636 3.484989
v 3.475355 0.731036 -5.483509
v 3.354155 0.852226 -2.666809
v 3.475355 0.731036 -2.722912
v 3.354155 0.852225 -5.604710
v 2.492655 -1.163554 -2.623909
v 2.689156 -0.083185 -4.666809
v 2.689156 -0.083184 -3.099312
v 2.492655 -1.163555 -5.142212
v 2.492655 -1.163554 3.044689
v 2.689156 -0.083184 5.087589
v 2.492655 -1.163554 5.562988
v 2.689156 -0.083184 3.520088
v 3.352755 -0.083185 -4.666809
v 3.475355 0.048786 -3.038311
v 3.352455 -0.083184 -3.099312
v 3.475355 0.048375 -4.741310
v 2.045555 -0.545764 5.739288
v 2.045555 0.064326 5.739288
v 2.045555 0.064326 5.928589
v 2.045555 -0.545764 5.928589
v 2.699656 0.130986 -5.445812
v 2.699656 0.130986 -5.331409
v 2.617056 0.048385 -5.445812
v 2.617056 0.048385 -5.331409
v 2.586855 -0.064444 -5.445812
v 2.699656 -0.259875 -5.331409
v 2.586855 -0.064444 -5.331409
v 2.699656 -0.259875 -5.445812
v 2.617056 -0.177275 -5.445812
v 2.617056 -0.177275 -5.331409
v -2.189747 0.048385 -5.445812
v -2.107143 0.130986 -5.445812
v -2.189747 0.048385 -5.331409
v -2.220043 -0.064444 -5.331409
v -2.107143 0.130986 -5.331409
v -2.220043 -0.064444 -5.445812
v -2.189747 -0.177275 -5.331409
v -2.189747 -0.177275 -5.445812
v -2.107143 -0.259875 -5.331409
v -2.107143 -0.259875 -5.445812
v 3.352755 -0.083185 -4.666809
v 3.475355 -1.042374 -5.221210
v 3.475355 0.048375 -4.741310
v 3.352856 -1.163555 -5.142212
v -1.364845 -0.984014 -3.279510
v -1.364845 -0.984015 -5.237309
v -1.364845 0.081395 -5.237309
v -1.364845 0.081396 -3.279510
v -1.516945 0.081406 3.662891
v -1.516945 -0.693874 5.561291
v -1.516945 -0.693874 3.662891
v -1.516945 0.081406 5.561291
v 3.475355 -1.042374 5.641991
v 3.349754 -0.083184 5.087589
v 3.475355 0.038006 5.166691
v 3.348354 -1.163554 5.562988
v -2.364944 0.081396 -3.279510
v -2.364944 0.081395 -5.237309
v -2.364944 0.534936 -5.237309
v -2.364944 0.852226 -2.666809
v -2.364944 0.852225 -5.604710
v -2.364944 0.534936 -5.604710
v -2.364944 0.852226 3.715988
v -2.364944 0.534946 5.561291
v -2.364944 0.081406 3.662891
v -2.364944 0.081406 5.561291
v -2.364944 0.852226 5.928589
v -2.364944 0.534946 5.928589
v -2.364944 -0.038124 -3.077812
v -2.364944 -0.038124 -2.858910
v -2.364944 -0.693874 -2.775009
v -2.364944 -0.693874 -2.775009
v -2.364944 -0.038124 -2.858910
v -2.366043 -0.693874 -2.438309
v -2.364944 0.121426 -2.438309
v -2.475643 -0.545764 5.739288
v -2.475643 0.064326 5.739288
v -2.475643 0.064326 5.928589
v -2.475643 -0.545764 5.928589
v 0.409056 1.082636 3.306988
v -2.364944 1.082636 3.662891
v 0.409056 1.082636 3.662891
v -2.364944 1.082636 3.306988
v 3.183155 1.082636 3.662891
v 3.183155 1.082636 3.306988
v -2.364944 1.082636 3.484989
v -2.657146 1.082636 3.662891
v -2.657146 1.082636 3.484989
v 3.475355 1.082636 3.662891
v 3.183155 1.082636 3.484989
v 3.475355 1.082636 3.484989
v -2.364944 1.082636 -2.584309
v 0.409056 1.082636 -1.920712
v 0.409056 1.082636 -2.584309
v -2.364944 1.082636 -1.920712
v 3.183155 1.082636 -2.584309
v 3.183155 1.082636 -1.920712
v -2.657146 1.082636 -2.584309
v -2.364944 1.082636 -2.438309
v -2.657146 1.082636 -2.438309
v 3.475355 1.082636 -2.584309
v 3.183155 1.082636 -2.438309
v 3.475355 1.082636 -2.438309
v 2.925356 -0.259875 -5.331409
v 2.925356 -0.259875 -5.445812
v 2.812454 -0.290115 -5.331409
v 2.812454 -0.290115 -5.445812
v 2.699656 -0.259875 -5.331409
v 2.699656 -0.259875 -5.445812
v -2.107143 -0.259875 -5.331409
v -2.107143 -0.259875 -5.445812
v -1.994347 -0.290115 -5.331409
v -1.994347 -0.290115 -5.445812
v -1.881544 -0.259875 -5.331409
v -1.881544 -0.259875 -5.445812
v -2.364944 0.852226 -2.666809
v -2.364944 0.852225 -5.604710
v -2.535946 0.852225 -5.604710
v -2.535946 0.852226 -2.666809
v 3.183155 0.852225 -5.604710
v 3.183155 0.852226 -2.666809
v 3.354155 0.852225 -5.604710
v 3.354155 0.852226 -2.666809
v 3.183155 0.852226 3.715988
v 3.183155 0.852226 5.928589
v 3.417555 0.852226 3.715988
v 3.420055 0.852226 5.928589
v -2.364944 0.852226 5.928589
v -2.364944 0.852226 3.715988
v -2.599346 0.852226 3.715988
v -2.601944 0.852226 5.928589
v 0.409056 0.534936 -5.604710
v -2.364944 0.534936 -5.604710
v -2.364944 0.534936 -5.237309
v 0.409056 0.534936 -5.237309
v 3.183155 0.534936 -5.237309
v 3.183155 0.534936 -5.604710
v 0.409056 0.534936 5.561291
v -2.364944 0.534946 5.561291
v -2.364944 0.534946 5.928589
v 0.409056 0.534946 5.928589
v 3.183155 0.534946 5.928589
v 3.183155 0.534946 5.561291
v -2.364944 0.081395 -5.237309
v -2.364944 0.081396 -3.279510
v -1.364845 0.081395 -5.237309
v -1.364845 0.081396 -3.279510
v -2.364944 0.081406 3.662891
v -1.516945 0.081406 5.561291
v -1.516945 0.081406 3.662891
v -2.364944 0.081406 5.561291
v 2.182955 0.081395 -5.237309
v 3.183155 0.081396 -3.279510
v 3.183155 0.081395 -5.237309
v 2.182955 0.081396 -3.279510
v 2.335155 0.081406 3.662891
v 2.335155 0.081406 5.561291
v 3.183155 0.081406 3.662891
v 3.183155 0.081406 5.561291
v -2.657146 0.062216 4.253391
v -2.489445 0.062216 4.897991
v -2.489445 0.062216 4.253391
v -2.657146 0.062216 4.897991
v 3.293856 -0.545764 5.739288
v 2.045555 -0.545764 5.739288
v 2.045555 -0.545764 5.928589
v 3.293856 -0.545764 5.928589
v -1.227345 -0.545764 5.739288
v -2.475643 -0.545764 5.739288
v -2.475643 -0.545764 5.928589
v -1.227345 -0.545764 5.928589
v -1.516945 -0.693874 3.662891
v -1.516945 -0.693874 5.561291
v 0.409056 -0.693874 3.662891
v 0.409056 -0.693874 5.561291
v 2.335155 -0.693874 5.561291
v 2.335155 -0.693874 3.662891
v -2.365044 -0.693874 0.607090
v 0.409056 -0.693874 3.092491
v 0.409056 -0.693874 -2.775009
v -2.366043 -0.693874 -2.438309
v -2.364944 -0.693874 -2.775009
v -2.657146 -0.693874 0.607090
v -2.657146 -0.693874 -2.438309
v -2.657146 -0.693874 0.707089
v -2.364944 -0.693874 0.707089
v -2.657146 -0.693874 3.092491
v -2.363945 -0.693874 3.092491
v 3.184155 -0.693874 -2.438309
v 3.183155 -0.693874 -2.775009
v 3.183155 -0.693874 0.607090
v 3.475355 -0.693874 0.607090
v 3.475355 -0.693874 -2.438309
v 3.475355 -0.693874 0.707089
v 3.183056 -0.693874 0.707089
v 3.182055 -0.693874 3.092491
v 3.475355 -0.693874 3.092491
v 0.409056 -0.984015 -5.237309
v 2.182955 -0.984014 -3.279510
v 2.182955 -0.984015 -5.237309
v 0.409056 -0.984014 -3.279510
v -1.364845 -0.984014 -3.279510
v -1.364845 -0.984015 -5.237309
v -1.227345 0.064326 5.928589
v 0.409056 -1.003634 5.928589
v 0.409056 0.534946 5.928589
v -2.364944 0.534946 5.928589
v -2.475643 0.064326 5.928589
v -1.227345 -0.545764 5.928589
v -2.601944 0.852226 5.928589
v -2.364944 0.852226 5.928589
v -2.609745 -1.002084 5.928589
v -2.475643 -0.545764 5.928589
v 2.045555 0.064326 5.928589
v 3.183155 0.534946 5.928589
v 2.045555 -0.545764 5.928589
v 3.427855 -1.002084 5.928589
v 3.293856 0.064326 5.928589
v 3.293856 -0.545764 5.928589
v 3.420055 0.852226 5.928589
v 3.183155 0.852226 5.928589
v -2.528343 -1.163554 5.880692
v 0.409056 -1.163554 5.877892
v 0.409056 -1.003634 5.928589
v -2.609745 -1.002084 5.928589
v 3.346556 -1.163554 5.880692
v 0.409056 -1.003634 5.928589
v 0.409056 -1.163554 5.877892
v 3.427855 -1.002084 5.928589
v -1.227345 0.064326 5.739288
v -2.475643 0.064326 5.739288
v -1.227345 -0.545764 5.739288
v -2.475643 -0.545764 5.739288
v 2.045555 -0.545764 5.739288
v 3.293856 -0.545764 5.739288
v 3.293856 0.064326 5.739288
v 2.045555 0.064326 5.739288
v -2.489445 0.062216 4.253391
v -2.489445 0.706826 4.253391
v -2.657146 0.062216 4.253391
v -2.657146 0.706826 4.253391
v 3.350756 -0.083184 3.520088
v 3.351555 -1.163554 3.044689
v 3.475355 -1.019344 3.059391
v 3.475355 0.038006 3.521389
v -2.657146 -1.019344 3.059391
v -2.532646 -0.083184 3.520088
v -2.657146 0.038006 3.521389
v -2.533344 -1.163554 3.044689
v -2.364944 1.082636 3.662891
v -2.599346 0.852226 3.715988
v -2.364944 0.852226 3.715988
v -2.657146 0.970316 3.688789
v -2.657146 1.082636 3.662891
v 0.409056 1.082636 3.662891
v 0.409056 0.852226 3.715988
v 3.183155 0.852226 3.715988
v 3.183155 1.082636 3.662891
v 3.417555 0.852226 3.715988
v 3.475355 0.970316 3.688789
v 3.475355 1.082636 3.662891
v 0.409056 -0.693874 3.662891
v -1.516945 0.081406 3.662891
v -1.516945 -0.693874 3.662891
v 0.409056 0.852226 3.715988
v -2.364944 0.852226 3.715988
v -2.364944 0.081406 3.662891
v 2.335155 0.081406 3.662891
v 0.409056 -0.693874 3.662891
v 2.335155 -0.693874 3.662891
v 0.409056 0.852226 3.715988
v 3.183155 0.852226 3.715988
v 3.183155 0.081406 3.662891
v -1.674545 -1.163554 3.044689
v -1.870945 -0.083184 3.520088
v -2.533344 -1.163554 3.044689
v -2.532646 -0.083184 3.520088
v 2.492655 -1.163554 3.044689
v 3.351555 -1.163554 3.044689
v 2.689156 -0.083184 3.520088
v 3.350756 -0.083184 3.520088
v -2.364944 0.317746 -1.920712
v 0.409056 0.317746 -1.920712
v 0.409056 1.082636 -1.920712
v -2.364944 1.082636 -1.920712
v 3.183155 0.317746 -1.920712
v 3.183155 1.082636 -1.920712
v -2.366043 -0.693874 -2.438309
v -2.657146 1.082636 -2.438309
v -2.657146 -0.693874 -2.438309
v -2.364944 1.082636 -2.438309
v 3.475355 -0.693874 -2.438309
v 3.475355 1.082636 -2.438309
v 3.184155 -0.693874 -2.438309
v 3.183155 1.082636 -2.438309
v 0.409056 -0.038124 -3.077812
v -2.364944 -0.038124 -3.077812
v 0.409056 -0.693874 -2.775009
v -2.364944 -0.693874 -2.775009
v 3.183155 -0.038124 -3.077812
v 3.183155 -0.693874 -2.775009
v -1.674545 -1.163555 -5.142212
v -1.870945 -0.083185 -4.666809
v -2.534744 -1.163555 -5.142212
v -2.534546 -0.083185 -4.666809
v 2.492655 -1.163555 -5.142212
v 3.352856 -1.163555 -5.142212
v 2.689156 -0.083185 -4.666809
v 3.352755 -0.083185 -4.666809
v -1.364845 0.081395 -5.237309
v 0.409056 -0.984015 -5.237309
v 2.182955 0.081395 -5.237309
v -1.364845 -0.984015 -5.237309
v 2.182955 -0.984015 -5.237309
v 0.409056 0.534936 -5.237309
v 3.183155 0.534936 -5.237309
v 3.183155 0.081395 -5.237309
v -2.364944 0.534936 -5.237309
v -2.364944 0.081395 -5.237309
v -2.609745 -1.002084 5.928589
v -2.657146 -1.042374 5.807388
v -2.528343 -1.163554 5.880692
v -2.657146 0.731036 5.807388
v -2.657146 -1.042374 5.807388
v -2.609745 -1.002084 5.928589
v -2.601944 0.852226 5.928589
v -2.535946 0.534936 -5.604710
v -2.535946 -1.042375 -5.604710
v -2.657146 -1.042374 -5.483509
v -2.657146 0.534936 -5.483509
v -2.657146 0.731036 -5.483509
v -2.535946 0.852225 -5.604710
v -2.657146 0.737736 3.676289
v -2.599346 0.852226 3.715988
v -2.657146 0.937796 3.630188
v -2.657146 0.731036 3.690590
v -2.657146 0.970316 3.688789
v -2.599346 0.852226 3.715988
v -2.657146 0.731036 5.807388
v -2.601944 0.852226 5.928589
v -2.657146 0.731036 3.690590
v -2.657146 0.731036 3.690590
v -2.657146 0.062216 4.253391
v -2.657146 0.706826 4.253391
v -2.657146 0.706826 4.897991
v -2.657146 0.731036 5.807388
v -2.657146 0.038006 5.166691
v -2.657146 0.062216 4.897991
v -2.657146 -1.042374 5.807388
v -2.657146 -1.042374 5.641991
v -2.657146 0.038006 3.521389
v -2.657146 0.186336 3.484989
v -2.657146 0.737736 3.676289
v -2.657146 -0.693874 3.092491
v -2.657146 1.082636 3.484989
v -2.657146 -1.019344 3.059391
v -2.657146 0.937796 3.630188
v -2.657146 1.082636 3.662891
v -2.657146 0.970316 3.688789
v -2.657146 -0.693874 0.707089
v -2.657146 -0.693874 0.607090
v -2.657146 -1.020284 -2.567310
v -2.657146 -0.693874 -2.438309
v -2.657146 0.048786 -3.038311
v -2.657146 0.731036 -2.722912
v -2.657146 1.082636 -2.438309
v -2.657146 0.966316 -2.626011
v -2.657146 1.082636 -2.584309
v -2.657146 0.048375 -4.741310
v -2.657146 0.731036 -5.483509
v -2.657146 0.534936 -5.483509
v -2.657146 -1.042374 -5.483509
v -2.657146 -1.042374 -5.221210
v -2.657146 -1.020284 -2.567310
v -2.533344 -1.163554 3.044689
v -2.657146 -1.019344 3.059391
v -2.533943 -1.163554 -2.623909
v -2.489445 0.706826 4.253391
v -2.489445 0.062216 4.253391
v -2.489445 0.706826 4.897991
v -2.489445 0.062216 4.897991
v -2.364944 0.317746 -1.920712
v -2.364944 1.082636 -2.584309
v -2.364944 0.121426 -2.438309
v -2.364944 1.082636 -1.920712
v -2.364944 1.082636 3.306988
v -2.363945 -0.693874 3.092491
v -2.364944 0.186336 3.484989
v -2.364944 1.082636 3.484989
v -2.535946 0.852226 -2.666809
v -2.535946 0.852225 -5.604710
v -2.657146 0.731036 -5.483509
v -2.657146 0.731036 -2.722912
v -1.870945 -0.083185 -4.666809
v -1.674545 -1.163554 -2.623909
v -1.870945 -0.083184 -3.099312
v -1.674545 -1.163555 -5.142212
v -1.674545 -1.163554 3.044689
v -1.870945 -0.083184 5.087589
v -1.870945 -0.083184 3.520088
v -1.674545 -1.163554 5.562988
v -2.657146 0.048786 -3.038311
v -2.657146 0.048375 -4.741310
v -2.534546 -0.083185 -4.666809
v -2.534344 -0.083184 -3.099312
v -1.227345 0.064326 5.739288
v -1.227345 -0.545764 5.739288
v -1.227345 -0.545764 5.928589
v -1.227345 0.064326 5.928589
v 3.007956 0.048385 -5.445812
v 3.007956 0.048385 -5.331409
v 2.925356 0.130986 -5.445812
v 3.038155 -0.064444 -5.331409
v 2.925356 0.130986 -5.331409
v 3.038155 -0.064444 -5.445812
v 3.007956 -0.177275 -5.331409
v 3.007956 -0.177275 -5.445812
v 2.925356 -0.259875 -5.331409
v 2.925356 -0.259875 -5.445812
v -1.881544 0.130986 -5.445812
v -1.881544 0.130986 -5.331409
v -1.798944 0.048385 -5.445812
v -1.798944 0.048385 -5.331409
v -1.768644 -0.064444 -5.445812
v -1.881544 -0.259875 -5.331409
v -1.768644 -0.064444 -5.331409
v -1.881544 -0.259875 -5.445812
v -1.798944 -0.177275 -5.445812
v -1.798944 -0.177275 -5.331409
v -2.657146 -1.042374 -5.221210
v -2.534546 -0.083185 -4.666809
v -2.657146 0.048375 -4.741310
v -2.534744 -1.163555 -5.142212
v 2.182955 -0.984015 -5.237309
v 2.182955 0.081396 -3.279510
v 2.182955 0.081395 -5.237309
v 2.182955 -0.984014 -3.279510
v 2.335155 -0.693874 3.662891
v 2.335155 -0.693874 5.561291
v 2.335155 0.081406 3.662891
v 2.335155 0.081406 5.561291
v -2.531544 -0.083184 5.087589
v -2.530247 -1.163554 5.562988
v -2.657146 -1.042374 5.641991
v -2.657146 0.038006 5.166691
v 3.183155 0.081395 -5.237309
v 3.183155 0.081396 -3.279510
v 3.183155 0.534936 -5.237309
v 3.183155 0.852226 -2.666809
v 3.183155 0.852225 -5.604710
v 3.183155 0.534936 -5.604710
v 3.183155 0.081406 3.662891
v 3.183155 0.534946 5.561291
v 3.183155 0.852226 3.715988
v 3.183155 0.081406 5.561291
v 3.183155 0.852226 5.928589
v 3.183155 0.534946 5.928589
v 3.183155 -0.038124 -3.077812
v 3.183155 -0.693874 -2.775009
v 3.183155 -0.038124 -2.858910
v 3.184155 -0.693874 -2.438309
v 3.183155 -0.038124 -2.858910
v 3.183155 -0.693874 -2.775009
v 3.183155 0.121426 -2.438309
v 3.293856 0.064326 5.739288
v 3.293856 -0.545764 5.739288
v 3.293856 -0.545764 5.928589
v 3.293856 0.064326 5.928589
v 3.354155 -1.042375 -5.604710
v 3.475355 -1.042374 -5.483509
v 3.352955 -1.163555 -5.483509
v -2.535946 -1.042375 -5.604710
v -2.534744 -1.163555 -5.483509
v -2.657146 -1.042374 -5.483509
v 0.409056 -1.042375 -5.604710
v -2.534744 -1.163555 -5.483509
v -2.535946 -1.042375 -5.604710
v 0.409056 -1.163555 -5.483509
v 3.352955 -1.163555 -5.483509
v 3.354155 -1.042375 -5.604710
v 3.352955 -1.163555 -5.483509
v 3.475355 -1.042374 -5.221210
v 3.352856 -1.163555 -5.142212
v 3.475355 -1.042374 -5.483509
v 3.475355 -1.042374 5.641991
v 3.346556 -1.163554 5.880692
v 3.348354 -1.163554 5.562988
v 3.475355 -1.042374 5.807388
v -2.657146 -1.042374 -5.221210
v -2.657146 -1.042374 -5.483509
v -2.534744 -1.163555 -5.483509
v -2.534744 -1.163555 -5.142212
v -2.657146 -1.042374 5.641991
v -2.528343 -1.163554 5.880692
v -2.657146 -1.042374 5.807388
v -2.530247 -1.163554 5.562988
v 3.475355 0.038006 3.521389
v 3.349754 -0.083184 5.087589
v 3.350756 -0.083184 3.520088
v 3.475355 0.038006 5.166691
v -2.657146 0.038006 3.521389
v -2.531544 -0.083184 5.087589
v -2.657146 0.038006 5.166691
v -2.532646 -0.083184 3.520088
v -2.530247 -1.163554 5.562988
v -1.674545 -1.163554 5.562988
v -2.528343 -1.163554 5.880692
v 0.409056 -1.163554 5.877892
v 0.409056 -1.163554 3.098591
v -1.674545 -1.163554 3.044689
v 2.492655 -1.163554 5.562988
v 3.346556 -1.163554 5.880692
v 3.348354 -1.163554 5.562988
v 2.492655 -1.163554 3.044689
v 0.409056 -1.163554 -2.623909
v -1.674545 -1.163554 -2.623909
v -2.533344 -1.163554 3.044689
v -2.533943 -1.163554 -2.623909
v -1.674545 -1.163555 -5.142212
v 2.492655 -1.163554 -2.623909
v 3.351555 -1.163554 3.044689
v 3.352055 -1.163554 -2.623909
v 2.492655 -1.163555 -5.142212
v 0.409056 -1.163555 -5.483509
v -2.534744 -1.163555 -5.483509
v -2.534744 -1.163555 -5.142212
v 3.352955 -1.163555 -5.483509
v 3.352856 -1.163555 -5.142212
v 2.925356 0.130986 -5.445812
v 2.925356 0.130986 -5.331409
v 2.812454 0.161215 -5.445812
v 2.812454 0.161215 -5.331409
v 2.699656 0.130986 -5.445812
v 2.699656 0.130986 -5.331409
v -2.107143 0.130986 -5.445812
v -2.107143 0.130986 -5.331409
v -1.994347 0.161215 -5.445812
v -1.994347 0.161215 -5.331409
v -1.881544 0.130986 -5.445812
v -1.881544 0.130986 -5.331409
v -1.870945 -0.083185 -4.666809
v -2.534344 -0.083184 -3.099312
v -2.534546 -0.083185 -4.666809
v -1.870945 -0.083184 -3.099312
v -1.870945 -0.083184 3.520088
v -2.531544 -0.083184 5.087589
v -2.532646 -0.083184 3.520088
v -1.870945 -0.083184 5.087589
v 3.352755 -0.083185 -4.666809
v 3.352455 -0.083184 -3.099312
v 2.689156 -0.083185 -4.666809
v 2.689156 -0.083184 -3.099312
v 3.350756 -0.083184 3.520088
v 3.349754 -0.083184 5.087589
v 2.689156 -0.083184 3.520088
v 2.689156 -0.083184 5.087589
v 0.409056 -0.038124 -2.858910
v -2.364944 -0.038124 -2.858910
v 0.409056 -0.038124 -3.077812
v -2.364944 -0.038124 -3.077812
v 3.183155 -0.038124 -2.858910
v 3.183155 -0.038124 -3.077812
v 2.045555 0.064326 5.739288
v 3.293856 0.064326 5.739288
v 3.293856 0.064326 5.928589
v 2.045555 0.064326 5.928589
v -2.475643 0.064326 5.739288
v -1.227345 0.064326 5.739288
v -1.227345 0.064326 5.928589
v -2.475643 0.064326 5.928589
v 0.409056 -0.038124 -2.858910
v -2.364944 0.121426 -2.438309
v -2.364944 -0.038124 -2.858910
v 0.409056 0.317746 -1.920712
v -2.364944 0.317746 -1.920712
v 3.183155 0.121426 -2.438309
v 3.183155 -0.038124 -2.858910
v 3.183155 0.317746 -1.920712
v -2.489445 0.706826 4.253391
v -2.657146 0.706826 4.897991
v -2.657146 0.706826 4.253391
v -2.489445 0.706826 4.897991
v -2.535946 -1.042375 -5.604710
v -1.758245 -0.473425 -5.604710
v 0.409056 -1.042375 -5.604710
v -1.585344 -0.300574 -5.604710
v -1.994347 -0.536695 -5.604710
v -2.230446 -0.473425 -5.604710
v -2.403343 -0.300574 -5.604710
v -2.466545 -0.064444 -5.604710
v -2.535946 0.534936 -5.604710
v -2.403343 0.171676 -5.604710
v -1.522045 -0.064444 -5.604710
v -2.364944 0.534936 -5.604710
v -2.230446 0.344535 -5.604710
v -2.535946 0.852225 -5.604710
v -2.364944 0.852225 -5.604710
v -1.994347 0.407806 -5.604710
v 0.409056 0.534936 -5.604710
v -1.758245 0.344535 -5.604710
v -1.585344 0.171676 -5.604710
v 2.340256 -0.064444 -5.604710
v 2.403555 -0.300574 -5.604710
v 2.403555 0.171676 -5.604710
v 2.576355 -0.473425 -5.604710
v 2.576355 0.344535 -5.604710
v 2.812454 0.407806 -5.604710
v 3.354155 -1.042375 -5.604710
v 3.183155 0.534936 -5.604710
v 2.812454 -0.536695 -5.604710
v 3.048655 -0.473425 -5.604710
v 3.221455 -0.300574 -5.604710
v 3.284756 -0.064444 -5.604710
v 3.354155 0.534936 -5.604710
v 3.048655 0.344535 -5.604710
v 3.221455 0.171676 -5.604710
v 3.354155 0.852225 -5.604710
v 3.183155 0.852225 -5.604710
v 3.221455 0.171676 -5.604710
v 3.038155 -0.064444 -5.445812
v 3.007956 0.048385 -5.445812
v 3.284756 -0.064444 -5.604710
v 3.048655 0.344535 -5.604710
v 3.007956 -0.177275 -5.445812
v 2.925356 0.130986 -5.445812
v 3.221455 -0.300574 -5.604710
v 2.812454 0.407806 -5.604710
v 2.925356 -0.259875 -5.445812
v 2.812454 0.161215 -5.445812
v 3.048655 -0.473425 -5.604710
v 2.699656 0.130986 -5.445812
v 2.812454 -0.536695 -5.604710
v 2.576355 0.344535 -5.604710
v 2.812454 -0.290115 -5.445812
v 2.403555 0.171676 -5.604710
v 2.617056 0.048385 -5.445812
v 2.699656 -0.259875 -5.445812
v 2.340256 -0.064444 -5.604710
v 2.576355 -0.473425 -5.604710
v 2.586855 -0.064444 -5.445812
v 2.403555 -0.300574 -5.604710
v 2.617056 -0.177275 -5.445812
v -2.107143 0.130986 -5.445812
v -2.230446 0.344535 -5.604710
v -1.994347 0.407806 -5.604710
v -2.189747 0.048385 -5.445812
v -1.994347 0.161215 -5.445812
v -2.403343 0.171676 -5.604710
v -1.881544 0.130986 -5.445812
v -2.220043 -0.064444 -5.445812
v -1.758245 0.344535 -5.604710
v -2.466545 -0.064444 -5.604710
v -1.798944 0.048385 -5.445812
v -2.189747 -0.177275 -5.445812
v -1.585344 0.171676 -5.604710
v -2.403343 -0.300574 -5.604710
v -1.522045 -0.064444 -5.604710
v -2.107143 -0.259875 -5.445812
v -1.768644 -0.064444 -5.445812
v -2.230446 -0.473425 -5.604710
v -1.798944 -0.177275 -5.445812
v -1.994347 -0.536695 -5.604710
v -1.585344 -0.300574 -5.604710
v -1.994347 -0.290115 -5.445812
v -1.881544 -0.259875 -5.445812
v -1.758245 -0.473425 -5.604710
v -1.768644 -0.064444 -5.331409
v -1.855844 0.015485 -5.281311
v -1.798944 0.048385 -5.331409
v -1.881544 0.130986 -5.331409
v -1.834444 -0.064444 -5.281311
v -1.914446 0.074005 -5.281311
v -1.994347 0.161215 -5.331409
v -1.798944 -0.177275 -5.331409
v -1.855844 -0.144385 -5.281311
v -1.881544 -0.259875 -5.331409
v -1.914446 -0.202905 -5.281311
v -1.994347 -0.290115 -5.331409
v -1.994347 0.095425 -5.281311
v -1.994347 -0.224325 -5.281311
v -2.154243 -0.064444 -5.281311
v -2.074245 -0.202905 -5.281311
v -2.107143 -0.259875 -5.331409
v -2.132744 -0.144385 -5.281311
v -2.189747 -0.177275 -5.331409
v -2.220043 -0.064444 -5.331409
v -2.132744 0.015485 -5.281311
v -2.189747 0.048385 -5.331409
v -2.074245 0.074005 -5.281311
v -2.107143 0.130986 -5.331409
v 2.586855 -0.064444 -5.331409
v 2.674055 0.015485 -5.281311
v 2.652655 -0.064444 -5.281311
v 2.617056 0.048385 -5.331409
v 2.699656 0.130986 -5.331409
v 2.617056 -0.177275 -5.331409
v 2.732555 0.074005 -5.281311
v 2.812454 0.161215 -5.331409
v 2.674055 -0.144385 -5.281311
v 2.699656 -0.259875 -5.331409
v 2.732555 -0.202905 -5.281311
v 2.812454 -0.290115 -5.331409
v 2.812454 0.095425 -5.281311
v 2.812454 -0.224325 -5.281311
v 2.972355 -0.064444 -5.281311
v 2.892454 0.074005 -5.281311
v 2.925356 0.130986 -5.331409
v 3.007956 0.048385 -5.331409
v 2.950954 0.015485 -5.281311
v 3.038155 -0.064444 -5.331409
v 3.007956 -0.177275 -5.331409
v 2.950954 -0.144385 -5.281311
v 2.925356 -0.259875 -5.331409
v 2.892454 -0.202905 -5.281311
v 3.352455 -0.083184 -3.099312
v 3.475355 -1.020284 -2.567310
v 3.352055 -1.163554 -2.623909
v 3.475355 0.048786 -3.038311
v -2.534344 -0.083184 -3.099312
v -2.533943 -1.163554 -2.623909
v -2.657146 -1.020284 -2.567310
v -2.657146 0.048786 -3.038311
v 2.182955 0.081396 -3.279510
v 2.182955 -0.984014 -3.279510
v 0.409056 0.081396 -3.279510
v 0.409056 -0.984014 -3.279510
v -1.364845 -0.984014 -3.279510
v -1.364845 0.081396 -3.279510
v -1.870945 -0.083184 -3.099312
v -2.533943 -1.163554 -2.623909
v -2.534344 -0.083184 -3.099312
v -1.674545 -1.163554 -2.623909
v 2.689156 -0.083184 -3.099312
v 3.352455 -0.083184 -3.099312
v 3.352055 -1.163554 -2.623909
v 2.492655 -1.163554 -2.623909
v 0.409056 0.081396 -3.279510
v -1.364845 0.081396 -3.279510
v 0.409056 0.852226 -2.666809
v 2.182955 0.081396 -3.279510
v -2.364944 0.852226 -2.666809
v -2.364944 0.081396 -3.279510
v 3.183155 0.852226 -2.666809
v 3.183155 0.081396 -3.279510
v 0.409056 1.082636 -2.584309
v -2.364944 0.852226 -2.666809
v -2.364944 1.082636 -2.584309
v 0.409056 0.852226 -2.666809
v -2.535946 0.852226 -2.666809
v -2.657146 0.966316 -2.626011
v -2.657146 1.082636 -2.584309
v 3.183155 0.852226 -2.666809
v 3.183155 1.082636 -2.584309
v 3.354155 0.852226 -2.666809
v 3.475355 0.966316 -2.626011
v 3.475355 1.082636 -2.584309
v -2.535946 0.852226 -2.666809
v -2.657146 0.731036 -2.722912
v -2.657146 0.966316 -2.626011
v 3.475355 0.731036 -2.722912
v 3.354155 0.852226 -2.666809
v 3.475355 0.966316 -2.626011
v -2.364944 0.186336 3.484989
v -2.657146 -0.693874 3.092491
v -2.657146 0.186336 3.484989
v -2.363945 -0.693874 3.092491
v 3.475355 0.186336 3.484989
v 3.475355 -0.693874 3.092491
v 3.183155 0.186336 3.484989
v 3.182055 -0.693874 3.092491
v 0.409056 1.082636 3.306988
v -2.363945 -0.693874 3.092491
v -2.364944 1.082636 3.306988
v 0.409056 -0.693874 3.092491
v 3.182055 -0.693874 3.092491
v 3.183155 1.082636 3.306988
v -2.657146 0.186336 3.484989
v -2.657146 1.082636 3.484989
v -2.364944 1.082636 3.484989
v -2.364944 0.186336 3.484989
v 3.475355 1.082636 3.484989
v 3.475355 0.186336 3.484989
v 3.183155 1.082636 3.484989
v 3.183155 0.186336 3.484989
v -1.870945 -0.083184 5.087589
v -2.530247 -1.163554 5.562988
v -2.531544 -0.083184 5.087589
v -1.674545 -1.163554 5.562988
v 2.689156 -0.083184 5.087589
v 3.349754 -0.083184 5.087589
v 3.348354 -1.163554 5.562988
v 2.492655 -1.163554 5.562988
v -2.489445 0.706826 4.897991
v -2.489445 0.062216 4.897991
v -2.657146 0.706826 4.897991
v -2.657146 0.062216 4.897991
v -1.516945 0.081406 5.561291
v 0.409056 -0.693874 5.561291
v -1.516945 -0.693874 5.561291
v -2.364944 0.534946 5.561291
v -2.364944 0.081406 5.561291
v 0.409056 0.534936 5.561291
v 2.335155 0.081406 5.561291
v 2.335155 -0.693874 5.561291
v 3.183155 0.534946 5.561291
v 3.183155 0.081406 5.561291
vn 1.0000 -0.0000 -0.0000
vn 1.0000 -0.0001 -0.0000
vn 1.0000 0.0001 -0.0000
vn -0.0000 0.7071 0.7071
vn -0.0000 0.8345 0.5510
vn -0.0000 0.8345 0.5511
vn -0.0000 0.9487 0.3162
vn -0.0000 1.0000 -0.0001
vn -0.0000 0.9487 -0.3162
vn -0.0000 0.8345 -0.5511
vn -0.0000 0.7071 -0.7071
vn -0.0000 0.5510 0.8345
vn -0.0000 0.5511 0.8345
vn -0.0000 0.3162 0.9487
vn -0.0000 -0.0000 1.0000
vn -0.0000 -0.3162 0.9487
vn -0.0000 -0.5510 0.8345
vn -0.0000 -0.5511 0.8345
vn -0.0000 -0.7071 0.7071
vn -1.0000 -0.0000 -0.0000
vn -1.0000 -0.0001 -0.0000
vn -1.0000 0.0001 -0.0000
vn -0.0000 -0.7071 -0.7071
vn -0.0000 -0.8345 -0.5511
vn -0.0000 -0.9487 -0.3162
vn -0.0000 -1.0000 -0.0001
vn -0.0000 -0.9487 0.3162
vn -0.0000 -0.8345 0.5511
vn -0.0000 0.5510 -0.8345
vn -0.0000 0.5511 -0.8345
vn -0.0000 0.3162 -0.9487
vn -0.0000 -0.0000 -1.0000
vn -0.0000 -0.3162 -0.9487
vn -0.0000 -0.5511 -0.8345
vn 0.7327 -0.5043 0.4570
vn 0.9224 -0.0000 0.3863
vn 0.7071 -0.0000 -0.7071
vn 0.8554 -0.0000 0.5179
vn 0.8554 -0.0000 0.5180
vn 0.9052 0.4250 -0.0000
vn 0.7565 -0.6541 -0.0000
vn 0.7565 -0.6540 -0.0000
vn 1.0000 -0.0000 -0.0001
vn 0.7071 0.7071 -0.0000
vn 0.9835 -0.1809 -0.0000
vn 0.9835 -0.1810 -0.0000
vn 0.7303 -0.6831 -0.0000
vn 0.7303 -0.6832 -0.0000
vn 0.5029 -0.8643 -0.0000
vn 0.5030 -0.8643 -0.0000
vn 0.8644 -0.5029 -0.0000
vn 0.8644 0.5029 -0.0000
vn 0.5030 0.8643 -0.0000
vn 0.5029 0.8643 -0.0000
vn 0.8643 -0.5029 -0.0000
vn 0.8643 0.5029 -0.0000
vn 0.7013 -0.2837 0.6540
vn 0.6920 -0.2910 -0.6606
vn 0.6921 -0.2910 -0.6606
vn -0.0000 1.0000 -0.0000
vn -0.5029 0.8644 -0.0000
vn 0.0001 1.0000 -0.0000
vn 0.5028 0.8644 -0.0000
vn 0.5029 0.8644 -0.0000
vn -0.5028 0.8644 -0.0000
vn -0.0000 -0.2924 0.9563
vn 0.3465 -0.3780 0.8585
vn -0.3466 -0.3780 0.8585
vn -0.3465 -0.3781 0.8585
vn -0.3465 -0.3780 0.8585
vn -0.0000 0.2203 0.9754
vn -0.0079 -0.0393 0.9992
vn -0.0079 -0.0394 0.9992
vn 0.0079 -0.0394 0.9992
vn 0.0079 -0.0393 0.9992
vn -0.0000 -0.4023 0.9155
vn -0.0000 -0.4028 0.9153
vn -0.0000 0.4186 0.9082
vn -0.0000 0.4185 0.9082
vn -0.0000 0.4184 0.9082
vn -0.0000 -0.4025 0.9154
vn -0.7327 -0.5042 0.4570
vn -0.9224 -0.0000 0.3863
vn -0.7071 -0.0000 -0.7071
vn -0.8554 -0.0000 0.5179
vn -0.8554 -0.0000 0.5180
vn -0.9052 0.4251 -0.0000
vn -0.9052 0.4250 -0.0000
vn -1.0000 0.0002 -0.0000
vn -0.7565 -0.6540 -0.0000
vn -0.7071 0.7071 -0.0000
vn -0.9835 -0.1809 -0.0000
vn -0.9835 -0.1810 -0.0000
vn -0.7303 -0.6831 -0.0000
vn -0.7303 -0.6832 -0.0000
vn -0.8644 -0.5029 -0.0000
vn -0.5029 -0.8643 -0.0000
vn -0.5030 -0.8643 -0.0000
vn -0.8644 0.5029 -0.0000
vn -0.5029 0.8643 -0.0000
vn -0.5030 0.8643 -0.0000
vn -0.8643 -0.5029 -0.0000
vn -0.8643 0.5029 -0.0000
vn -0.7013 -0.2837 0.6540
vn -0.6921 -0.2910 -0.6606
vn -0.6920 -0.2910 -0.6606
vn -1.0000 -0.0000 -0.0001
vn 0.5747 -0.5826 -0.5747
vn -0.5747 -0.5826 -0.5747
vn -0.0000 -0.7072 -0.7070
vn 0.7032 -0.7110 -0.0000
vn 0.7034 -0.7108 0.0001
vn 0.7033 -0.7109 0.0002
vn 0.6871 -0.7266 -0.0000
vn -0.7032 -0.7110 -0.0000
vn -0.7031 -0.7111 -0.0000
vn -0.6871 -0.7266 -0.0000
vn 0.6952 -0.7189 -0.0000
vn 0.6951 -0.7189 -0.0000
vn -0.6952 -0.7188 -0.0000
vn -0.6951 -0.7189 -0.0000
vn -0.6952 -0.7189 -0.0000
vn -0.0000 -1.0000 -0.0000
vn -0.5029 -0.8644 -0.0000
vn 0.0001 -1.0000 -0.0000
vn 0.5029 -0.8644 -0.0000
vn 0.5028 -0.8644 -0.0000
vn -0.5028 -0.8644 -0.0000
vn -0.0000 -0.9353 0.3538
vn -0.0000 -0.9354 0.3537
vn -0.0000 -0.9353 0.3537
vn -0.0001 -0.0000 -1.0000
vn 0.0001 -0.0000 -1.0000
vn -0.4713 -0.2671 -0.8405
vn -0.5417 -0.0001 -0.8406
vn -0.5417 -0.0000 -0.8406
vn -0.2671 -0.4713 -0.8405
vn -0.4713 0.2671 -0.8405
vn -0.0000 -0.5417 -0.8406
vn -0.2671 0.4713 -0.8405
vn 0.0001 -0.5417 -0.8406
vn 0.2671 -0.4713 -0.8405
vn -0.0000 0.5417 -0.8406
vn 0.0001 0.5417 -0.8406
vn 0.4713 -0.2671 -0.8405
vn 0.2671 0.4713 -0.8405
vn 0.5417 -0.0000 -0.8406
vn 0.4713 0.2671 -0.8405
vn 0.5417 0.0001 -0.8406
vn 0.5417 -0.0000 -0.8405
vn -0.4714 -0.2670 -0.8405
vn -0.5416 -0.0000 -0.8406
vn -0.6059 0.0001 -0.7956
vn -0.3157 -0.1815 -0.9313
vn -0.5275 -0.2992 -0.7952
vn -0.2992 -0.5274 -0.7952
vn -0.3632 -0.0000 -0.9317
vn -0.1815 -0.3157 -0.9313
vn -0.0000 -0.6061 -0.7954
vn -0.5275 0.2992 -0.7952
vn -0.3157 0.1815 -0.9313
vn -0.2992 0.5275 -0.7952
vn -0.1815 0.3157 -0.9313
vn -0.0000 0.6058 -0.7956
vn -0.0000 -0.3632 -0.9317
vn -0.0000 0.3632 -0.9317
vn 0.3632 -0.0000 -0.9317
vn 0.1815 0.3157 -0.9313
vn 0.2992 0.5275 -0.7952
vn 0.3157 0.1815 -0.9313
vn 0.5275 0.2992 -0.7952
vn 0.6061 -0.0000 -0.7954
vn 0.3157 -0.1815 -0.9313
vn 0.5275 -0.2992 -0.7952
vn 0.1815 -0.3157 -0.9313
vn 0.2992 -0.5275 -0.7952
vn 0.6060 -0.0000 -0.7954
vn 0.3157 -0.1816 -0.9313
vn -0.0000 -0.6063 -0.7952
vn -0.0000 0.6062 -0.7953
vn -0.2992 -0.5275 -0.7952
vn -0.6060 -0.0000 -0.7954
vn 0.6627 -0.2998 -0.6863
vn 0.6626 -0.2998 -0.6863
vn -0.6627 -0.2998 -0.6863
vn -0.0000 -0.4023 -0.9155
vn -0.0000 -0.4025 -0.9154
vn -0.0000 -0.4028 -0.9153
vn -0.0000 0.6237 -0.7817
vn -0.0000 0.6237 -0.7816
vn -0.0000 0.3374 -0.9414
vn -0.0000 0.3371 -0.9415
vn 0.0001 0.3370 -0.9415
vn 0.0001 0.3372 -0.9414
vn -0.0000 0.3375 -0.9413
vn -0.0001 0.3370 -0.9415
vn -0.0001 0.3372 -0.9414
vn 0.0474 0.3791 -0.9241
vn -0.0474 0.3791 -0.9241
vn -0.0000 0.4090 -0.9125
vn -0.0000 0.4091 -0.9125
vn -0.0000 0.1182 -0.9930
vn -0.0000 0.1181 -0.9930
vt -0.190588 1.122280
vt -0.000431 1.249050
vt -0.028986 1.283880
vt 0.026224 1.194550
vt 0.037952 1.122280
vt 0.026224 1.050010
vt -0.000431 0.995508
vt -0.028986 0.960677
vt -0.063817 0.932122
vt -0.028986 0.960677
vt -0.118317 0.905467
vt -0.190588 0.893739
vt -0.262859 0.905467
vt -0.317359 0.932122
vt -0.352190 0.960677
vt -0.380745 0.995508
vt -0.407400 1.050010
vt -0.419128 1.122280
vt -0.407400 1.194550
vt -0.380745 1.249050
vt -0.352190 1.283880
vt -0.317359 1.312440
vt -0.262859 1.339090
vt -0.190588 1.350820
vt -0.118317 1.339090
vt -0.063817 1.312440
vt -0.682256 1.701640
vt -0.838256 1.701640
vt -0.682256 1.625460
vt -0.838256 1.625460
vt -0.682256 1.549280
vt -0.838256 1.549280
vt -0.682256 1.473100
vt -0.838256 1.473100
vt -0.682256 1.396920
vt -0.838256 1.396920
vt -0.682256 1.320740
vt -0.838256 1.320740
vt -0.682256 1.244560
vt -0.838256 1.244560
vt -3.609290 -5.299260
vt -3.594630 -5.275020
vt -3.618870 -5.266960
vt -3.594630 -4.920340
vt -3.618870 -4.896100
vt -1.312210 -5.275020
vt -1.312210 -4.959560
vt -1.336450 -4.959560
vt -1.336450 -5.275020
vt -1.336450 -4.920340
vt -1.312210 -4.896100
vt -3.168400 -4.919000
vt -3.159180 -4.878990
vt -3.176340 -4.896100
vt -3.171270 -4.920340
vt -3.170910 -4.872480
vt -3.466480 -5.058950
vt -3.561550 -5.275020
vt -3.137430 -5.058950
vt -3.130140 -5.029280
vt -3.051650 -5.205320
vt -3.130140 -4.850020
vt -3.045030 -5.270420
vt -2.574560 -5.205320
vt -3.165730 -4.850020
vt -2.554560 -5.205320
vt -1.919690 -5.270600
vt -1.945490 -5.205320
vt -1.825490 -5.056790
vt -1.888570 -4.920340
vt -1.945490 -4.850020
vt -1.907950 -4.873280
vt -1.916280 -4.850020
vt -1.484890 -5.056870
vt -1.388900 -5.275020
vt -3.042090 -5.299260
vt -1.908360 -5.299260
vt -1.945490 -5.042260
vt -2.049000 -5.003000
vt -2.049000 -4.850020
vt -3.094540 -4.850020
vt -1.899780 -4.896100
vt -1.499790 -5.083180
vt -1.813280 -5.083180
vt -1.404710 -5.299260
vt -3.450660 -5.083180
vt -3.545740 -5.299260
vt -3.137170 -5.083180
vt -3.581000 -5.175700
vt -3.581000 -5.053680
vt -3.618870 -5.053680
vt -3.618870 -5.175700
vt -1.343980 -5.040350
vt -1.366860 -5.040350
vt -1.343980 -5.056870
vt -1.366860 -5.056870
vt -1.343980 -5.079440
vt -1.366860 -5.079440
vt -1.343980 -5.102000
vt -1.343980 -5.118520
vt -1.366860 -5.102000
vt -1.366860 -5.118520
vt -1.777240 -5.263350
vt -1.385680 -5.263350
vt -1.385680 -5.050270
vt -1.777240 -5.050270
vt -3.165730 -5.050270
vt -3.545400 -5.205320
vt -3.165730 -5.205320
vt -3.545400 -5.050270
vt -1.385680 -4.959560
vt -3.545400 -4.959560
vt -3.618870 -4.959560
vt -1.817580 -5.074170
vt -1.861370 -5.074170
vt -1.878140 -5.205320
vt -2.465540 -4.445640
vt -1.910730 -4.374450
vt -2.465540 -4.374450
vt -1.910730 -4.445640
vt -3.020350 -4.374450
vt -3.020350 -4.445640
vt -1.910730 -4.410040
vt -1.852290 -4.374450
vt -1.852290 -4.410040
vt -3.078780 -4.374450
vt -3.020350 -4.410040
vt -3.078780 -4.410040
vt -1.910730 -5.623900
vt -2.465540 -5.491180
vt -2.465540 -5.623900
vt -1.910730 -5.491180
vt -3.020350 -5.623900
vt -3.020350 -5.491180
vt -1.852290 -5.623900
vt -1.910730 -5.594690
vt -1.852290 -5.594690
vt -3.078780 -5.623900
vt -3.020350 -5.594690
vt -3.078780 -5.594690
vt -2.968790 -6.196200
vt -2.946220 -6.173320
vt -2.968790 -6.173320
vt -2.946220 -6.196200
vt -2.923660 -6.173320
vt -2.923660 -6.196200
vt -1.962290 -6.196200
vt -1.962290 -6.173320
vt -1.984860 -6.173320
vt -1.984860 -6.196200
vt -2.007420 -6.173320
vt -2.007420 -6.196200
vt -1.910730 -5.640400
vt -1.910730 -6.227970
vt -1.876530 -6.227970
vt -1.876530 -5.640400
vt -3.020350 -6.227970
vt -3.020350 -5.640400
vt -3.054550 -6.227970
vt -3.054550 -5.640400
vt -3.020350 -4.363830
vt -3.020350 -3.921310
vt -3.067230 -4.363830
vt -3.067730 -3.921310
vt -1.910730 -3.921310
vt -1.910730 -4.363830
vt -1.863850 -4.363830
vt -1.863340 -3.921310
vt -2.465540 -6.227970
vt -1.910730 -6.154500
vt -2.465540 -6.154500
vt -3.020350 -6.154500
vt -2.465540 -3.994780
vt -1.910730 -3.994780
vt -2.465540 -3.921310
vt -3.020350 -3.994780
vt -1.910730 -5.762940
vt -2.110760 -6.154500
vt -2.110760 -5.762940
vt -2.080320 -3.994780
vt -2.080320 -4.374450
vt -2.820320 -6.154500
vt -3.020350 -5.762940
vt -2.820320 -5.762940
vt -2.850750 -4.374450
vt -2.850750 -3.994780
vt -1.852290 -4.256360
vt -1.885840 -4.127440
vt -1.885840 -4.256360
vt -1.852290 -4.127440
vt -3.042480 -3.959180
vt -2.792830 -3.959180
vt -2.792830 -3.921310
vt -3.042480 -3.921310
vt -2.138250 -3.959180
vt -1.888590 -3.959180
vt -1.888590 -3.921310
vt -2.138250 -3.921310
vt -1.910720 -4.985620
vt -2.465540 -4.488530
vt -2.465540 -5.662040
vt -1.910520 -5.594690
vt -1.910730 -5.662040
vt -1.852290 -4.985620
vt -1.852290 -4.965620
vt -1.910740 -4.965620
vt -1.852290 -4.488530
vt -1.910930 -4.488530
vt -3.020560 -5.594690
vt -3.020350 -5.662040
vt -3.020360 -4.985620
vt -3.078780 -4.985620
vt -3.078780 -4.965620
vt -3.020340 -4.965620
vt -3.020140 -4.488530
vt -3.078780 -4.488530
vt -2.465540 -5.762940
vt -2.792830 -5.053680
vt -2.465540 -5.267270
vt -2.465540 -4.959560
vt -3.020350 -4.959560
vt -3.042480 -5.053680
vt -2.792830 -5.175700
vt -3.067730 -4.896100
vt -3.020350 -4.896100
vt -3.069300 -5.266960
vt -3.042480 -5.175700
vt -2.138250 -5.053680
vt -1.910730 -4.959560
vt -2.138250 -5.175700
vt -1.861780 -5.266960
vt -1.888590 -5.053680
vt -1.888590 -5.175700
vt -1.863340 -4.896100
vt -1.910730 -4.896100
vt -3.053030 -5.299260
vt -2.465540 -5.299260
vt -1.878050 -5.299260
vt -3.045240 -5.054100
vt -3.045240 -4.925180
vt -3.078780 -5.054100
vt -3.078780 -4.925180
vt -1.877200 -5.083180
vt -1.877050 -5.299260
vt -1.852290 -5.270420
vt -1.852290 -5.058950
vt -3.078780 -5.270420
vt -3.053880 -5.083180
vt -3.078780 -5.058950
vt -3.054030 -5.299260
vt -3.020350 -4.850020
vt -3.067230 -4.896100
vt -3.078780 -4.872480
vt -3.078780 -4.850020
vt -2.465540 -4.850020
vt -2.465540 -4.896100
vt -1.910730 -4.850020
vt -1.863850 -4.896100
vt -1.852290 -4.872480
vt -1.852290 -4.850020
vt -2.465540 -5.205320
vt -2.850750 -5.050270
vt -2.850750 -5.205320
vt -3.020350 -5.050270
vt -2.080320 -5.050270
vt -2.080320 -5.205320
vt -1.910730 -5.050270
vt -2.882260 -5.299260
vt -2.921550 -5.083180
vt -2.048820 -5.299260
vt -2.009520 -5.083180
vt -3.020350 -5.003000
vt -2.465540 -5.003000
vt -1.910730 -5.003000
vt -3.020560 -5.205320
vt -3.078780 -5.205320
vt -1.852290 -5.205320
vt -1.910520 -5.205320
vt -2.465540 -5.074170
vt -3.020350 -5.074170
vt -3.020350 -5.205320
vt -1.910730 -5.074170
vt -1.910730 -5.205320
vt -3.054300 -5.299260
vt -3.054270 -5.083180
vt -1.876780 -5.299260
vt -1.876810 -5.083180
vt -2.820320 -5.050270
vt -2.465540 -5.263350
vt -2.110760 -5.050270
vt -2.820320 -5.263350
vt -2.110760 -5.263350
vt -1.312210 -5.266960
vt -1.321790 -5.299260
vt -3.618870 -5.275020
vt -3.594630 -4.959560
vt -1.762680 -4.919000
vt -1.754730 -4.896100
vt -1.771890 -4.878990
vt -1.759810 -4.920340
vt -1.760170 -4.872480
vt -1.647260 -5.054100
vt -1.647260 -4.925180
vt -1.518340 -4.925180
vt -1.464600 -5.058950
vt -1.518340 -5.054100
vt -1.369520 -5.275020
vt -1.793640 -5.058950
vt -1.800940 -5.029280
vt -1.879430 -5.205320
vt -1.800940 -4.850020
vt -1.886050 -5.270420
vt -1.765340 -4.850020
vt -2.356520 -5.205320
vt -2.376520 -5.205320
vt -3.011390 -5.270600
vt -2.985590 -5.205320
vt -3.105590 -5.056790
vt -3.042500 -4.920340
vt -2.985590 -4.850020
vt -3.023130 -4.873280
vt -3.014800 -4.850020
vt -3.446190 -5.056870
vt -3.542180 -5.275020
vt -1.888990 -5.299260
vt -3.022720 -5.299260
vt -2.882080 -5.003000
vt -2.985590 -5.042260
vt -2.882080 -4.850020
vt -1.836540 -4.850020
vt -3.031300 -4.896100
vt -3.431290 -5.083180
vt -3.117790 -5.083180
vt -3.526360 -5.299260
vt -1.480420 -5.083180
vt -1.793910 -5.083180
vt -1.385340 -5.299260
vt -1.350080 -5.053680
vt -1.350080 -5.175700
vt -1.312210 -5.175700
vt -1.312210 -5.053680
vt -3.587100 -5.056870
vt -3.564220 -5.056870
vt -3.587100 -5.040350
vt -3.564220 -5.079440
vt -3.564220 -5.040350
vt -3.587100 -5.079440
vt -3.564220 -5.102000
vt -3.587100 -5.102000
vt -3.564220 -5.118520
vt -3.587100 -5.118520
vt -3.545400 -5.263350
vt -3.153830 -5.050270
vt -3.153830 -5.263350
vt -1.765340 -5.205320
vt -1.385680 -5.205320
vt -1.765340 -5.050270
vt -3.113500 -5.074170
vt -3.052940 -5.205320
vt -3.069700 -5.074170
vt -1.852290 -6.203730
vt -1.876770 -6.203730
vt -3.054310 -6.203730
vt -3.078780 -6.203730
vt -2.465540 -6.203730
vt -1.852290 -6.151280
vt -1.876780 -6.135470
vt -1.852290 -3.978620
vt -1.878050 -3.930890
vt -1.877680 -3.994440
vt -1.852290 -3.945550
vt -3.078780 -6.151280
vt -3.054300 -6.135470
vt -3.078780 -3.978620
vt -3.053030 -3.930890
vt -3.078780 -3.945550
vt -3.053400 -3.994440
vt -1.852290 -4.402750
vt -1.877400 -4.089520
vt -1.877200 -4.403010
vt -1.852290 -4.073700
vt -3.078780 -4.402750
vt -3.053670 -4.089520
vt -3.078780 -4.073700
vt -3.053880 -4.403010
vt -2.882260 -3.994440
vt -2.465540 -3.931460
vt -2.465540 -4.487310
vt -2.882260 -4.498090
vt -2.048820 -3.994440
vt -2.048820 -4.498090
vt -2.465540 -5.631820
vt -2.882260 -5.631820
vt -3.054030 -4.498090
vt -3.054140 -5.631820
vt -2.882260 -6.135470
vt -2.048820 -5.631820
vt -1.877050 -4.498090
vt -1.876940 -5.631820
vt -2.048820 -6.135470
vt -2.921550 -6.040390
vt -3.054220 -5.726890
vt -3.054270 -6.040390
vt -2.921550 -5.726890
vt -2.921550 -4.403010
vt -2.921550 -4.089520
vt -1.876810 -6.040390
vt -1.876860 -5.726890
vt -2.009520 -6.040390
vt -2.009520 -5.726890
vt -2.009520 -4.403010
vt -2.009520 -4.089520
vt -2.465540 -5.678810
vt -3.020350 -5.678810
vt -2.465540 -5.722600
vt -3.020350 -5.722600
vt -1.910730 -5.678810
vt -1.910730 -5.722600
vt -3.045240 -4.256360
vt -3.078780 -4.127440
vt -3.078780 -4.256360
vt -3.045240 -4.127440
vt -1.876530 -5.275020
vt -2.032080 -5.161230
vt -2.465540 -5.275020
vt -2.066650 -5.126660
vt -1.984860 -5.173890
vt -1.937630 -5.161230
vt -1.903060 -5.126660
vt -1.890410 -5.079440
vt -1.876530 -4.959560
vt -1.903060 -5.032210
vt -2.079310 -5.079440
vt -1.937630 -4.997640
vt -1.876530 -4.896100
vt -1.984860 -4.984990
vt -2.032080 -4.997640
vt -2.066650 -5.032210
vt -2.851770 -5.079440
vt -2.864430 -5.126660
vt -2.864430 -5.032210
vt -2.899000 -5.161230
vt -2.899000 -4.997640
vt -2.946220 -4.984990
vt -3.054550 -5.275020
vt -2.946220 -5.173890
vt -2.993450 -5.161230
vt -3.028020 -5.126660
vt -3.040670 -5.079440
vt -3.054550 -4.959560
vt -2.993450 -4.997640
vt -3.028020 -5.032210
vt -3.054550 -4.896100
vt -2.991350 -5.079440
vt -2.985310 -5.056870
vt -2.985310 -5.102000
vt -2.968790 -5.040350
vt -2.968790 -5.118520
vt -2.946220 -5.034300
vt -2.923660 -5.040350
vt -2.946220 -5.124570
vt -2.907140 -5.056870
vt -2.923660 -5.118520
vt -2.901090 -5.079440
vt -2.907140 -5.102000
vt -1.962290 -5.040350
vt -1.945770 -5.056870
vt -1.984860 -5.034300
vt -2.007420 -5.040350
vt -1.939720 -5.079440
vt -2.023940 -5.056870
vt -1.945770 -5.102000
vt -1.962290 -5.118520
vt -2.029990 -5.079440
vt -2.023940 -5.102000
vt -1.984860 -5.124570
vt -2.007420 -5.118520
vt -2.012550 -5.063450
vt -2.016830 -5.079440
vt -2.000840 -5.051750
vt -2.012550 -5.095420
vt -2.000840 -5.107130
vt -1.984860 -5.047460
vt -1.984860 -5.111410
vt -1.952880 -5.079440
vt -1.968870 -5.107130
vt -1.957160 -5.095420
vt -1.957160 -5.063450
vt -1.968870 -5.051750
vt -2.918530 -5.063450
vt -2.914250 -5.079440
vt -2.930230 -5.051750
vt -2.918530 -5.095420
vt -2.930230 -5.107130
vt -2.946220 -5.047460
vt -2.946220 -5.111410
vt -2.978200 -5.079440
vt -2.962210 -5.051750
vt -2.973910 -5.063450
vt -2.973910 -5.095420
vt -2.962210 -5.107130
vt -3.054220 -5.083180
vt -3.078780 -5.270600
vt -3.054140 -5.299260
vt -3.078780 -5.056790
vt -1.876860 -5.083180
vt -1.876940 -5.299260
vt -1.852290 -5.270600
vt -1.852290 -5.056790
vt -2.465540 -5.050270
vt -1.852290 -4.873280
vt -3.078780 -4.873280
vt -1.852290 -4.920340
vt -3.078780 -4.920340
vt -1.910730 -5.029280
vt -1.852290 -5.029280
vt -1.910930 -5.205320
vt -3.078780 -5.029280
vt -3.020350 -5.029280
vt -3.020140 -5.205320
vt -1.877680 -5.299260
vt -1.877400 -5.083180
vt -3.053670 -5.083180
vt -3.053400 -5.299260
vt -1.885840 -4.925180
vt -1.885840 -5.054100
vt -1.852290 -4.925180
vt -1.852290 -5.054100
s 1
usemtl Gas1Mtl
f 1/1/1 3/2/1 2/3/1
f 1/1/1 4/4/1 3/2/1
f 1/1/1 5/5/1 4/4/1
f 1/1/1 6/6/1 5/5/1
f 1/1/1 7/7/1 6/6/1
f 1/1/1 8/8/1 7/7/1
f 1/1/1 10/9/1 9/10/2
f 1/1/1 11/11/1 10/9/1
f 1/1/1 12/12/1 11/11/1
f 1/1/1 13/13/1 12/12/1
f 1/1/1 14/14/1 13/13/1
f 1/1/1 15/15/3 14/14/1
f 1/1/1 17/16/1 16/15/1
f 1/1/1 18/17/1 17/16/1
f 1/1/1 19/18/1 18/17/1
f 1/1/1 20/19/1 19/18/1
f 1/1/1 21/20/1 20/19/1
f 1/1/1 22/21/1 21/20/1
f 1/1/1 24/22/1 23/21/2
f 1/1/1 25/23/1 24/22/1
f 1/1/1 26/24/1 25/23/1
f 1/1/1 27/25/1 26/24/1
f 1/1/1 28/26/1 27/25/1
f 1/1/1 29/3/3 28/26/1
f 30/27/4 31/28/4 32/29/5
f 32/29/5 31/28/4 33/30/6
f 32/29/5 33/30/6 34/31/7
f 34/31/7 33/30/6 35/32/7
f 34/31/7 35/32/7 36/33/8
f 36/33/8 35/32/7 37/34/8
f 36/33/8 37/34/8 38/35/9
f 38/35/9 37/34/8 39/36/9
f 38/35/9 39/36/9 40/37/10
f 40/37/10 39/36/9 41/38/10
f 40/37/10 41/38/10 42/39/11
f 42/39/11 41/38/10 43/40/11
f 44/27/4 45/28/4 46/29/12
f 46/29/12 45/28/4 47/30/13
f 46/29/12 47/30/13 48/31/14
f 48/31/14 47/30/13 49/32/14
f 48/31/14 49/32/14 50/33/15
f 50/33/15 49/32/14 51/34/15
f 50/33/15 51/34/15 52/35/16
f 52/35/16 51/34/15 53/36/16
f 52/35/16 53/36/16 54/37/17
f 54/37/17 53/36/16 55/38/18
f 54/37/17 55/38/18 56/39/19
f 56/39/19 55/38/18 57/40/19
f 58/1/20 60/2/20 59/3/21
f 58/1/20 61/4/20 60/2/20
f 58/1/20 62/5/20 61/4/20
f 58/1/20 63/6/20 62/5/20
f 58/1/20 64/7/20 63/6/20
f 58/1/20 65/8/22 64/7/20
f 58/1/20 67/9/20 66/10/20
f 58/1/20 68/11/20 67/9/20
f 58/1/20 69/12/20 68/11/20
f 58/1/20 70/13/20 69/12/20
f 58/1/20 71/14/20 70/13/20
f 58/1/20 72/15/20 71/14/20
f 58/1/20 74/16/20 73/15/22
f 58/1/20 75/17/20 74/16/20
f 58/1/20 76/18/20 75/17/20
f 58/1/20 77/19/20 76/18/20
f 58/1/20 78/20/20 77/19/20
f 58/1/20 79/21/21 78/20/20
f 58/1/20 81/22/20 80/21/20
f 58/1/20 82/23/20 81/22/20
f 58/1/20 83/24/20 82/23/20
f 58/1/20 84/25/20 83/24/20
f 58/1/20 85/26/20 84/25/20
f 58/1/20 86/3/20 85/26/20
f 87/27/23 88/28/23 89/29/24
f 89/29/24 88/28/23 90/30/24
f 89/29/24 90/30/24 91/31/25
f 91/31/25 90/30/24 92/32/25
f 91/31/25 92/32/25 93/33/26
f 93/33/26 92/32/25 94/34/26
f 93/33/26 94/34/26 95/35/27
f 95/35/27 94/34/26 96/36/27
f 95/35/27 96/36/27 97/37/28
f 97/37/28 96/36/27 98/38/28
f 97/37/28 98/38/28 99/39/19
f 99/39/19 98/38/28 100/40/19
f 101/27/11 102/28/11 103/29/29
f 103/29/29 102/28/11 104/30/30
f 103/29/29 104/30/30 105/31/31
f 105/31/31 104/30/30 106/32/31
f 105/31/31 106/32/31 107/33/32
f 107/33/32 106/32/31 108/34/32
f 107/33/32 108/34/32 109/35/33
f 109/35/33 108/34/32 110/36/33
f 109/35/33 110/36/33 111/37/34
f 111/37/34 110/36/33 112/38/34
f 111/37/34 112/38/34 113/39/23
f 113/39/23 112/38/34 114/40/23
usemtl Chassis1Mtl
f 115/41/35 116/42/35 117/43/35
f 118/44/36 119/43/36 120/42/36
f 119/43/36 118/44/36 121/45/36
f 122/46/37 123/47/37 124/48/37
f 122/46/37 124/48/37 125/49/37
f 123/47/37 126/50/37 124/48/37
f 123/47/37 127/51/37 126/50/37
f 128/52/38 129/53/38 130/54/39
f 130/54/39 131/55/39 128/52/38
f 130/54/39 129/53/38 132/56/38
f 133/54/40 134/44/40 135/55/40
f 133/54/40 136/45/40 134/44/40
f 137/42/1 138/57/1 139/44/1
f 138/57/1 137/42/1 140/58/1
f 141/55/1 139/44/1 138/57/1
f 138/57/1 142/59/1 141/55/1
f 143/60/1 141/55/1 142/59/1
f 141/55/1 143/60/1 144/52/1
f 142/59/1 145/61/1 143/60/1
f 146/62/1 144/52/1 143/60/1
f 147/63/1 145/61/1 142/59/1
f 144/52/1 146/62/1 148/53/1
f 145/61/1 147/63/1 149/64/1
f 150/65/1 148/53/1 146/62/1
f 148/53/1 150/65/1 151/56/1
f 147/63/1 152/66/1 149/64/1
f 152/66/1 147/63/1 153/67/1
f 152/66/1 153/67/1 154/68/1
f 153/67/1 155/69/1 154/68/1
f 156/70/1 154/68/1 155/69/1
f 156/70/1 157/71/1 154/68/1
f 157/71/1 156/70/1 158/72/1
f 157/71/1 158/72/1 159/73/1
f 160/74/1 156/70/1 155/69/1
f 156/70/1 160/74/1 161/50/1
f 161/50/1 160/74/1 162/48/1
f 160/74/1 163/49/1 162/48/1
f 160/74/1 164/75/1 163/49/1
f 165/76/41 166/77/42 167/67/42
f 167/67/42 168/63/42 165/76/41
f 169/78/1 170/73/1 171/79/1
f 170/73/1 172/80/1 171/79/1
f 173/81/1 174/60/1 175/61/43
f 174/60/1 173/81/1 176/62/1
f 177/50/44 178/82/44 179/70/44
f 178/82/44 177/50/44 180/51/44
f 181/77/45 182/83/45 183/84/45
f 182/83/45 181/77/45 184/85/46
f 185/76/45 186/86/45 187/87/45
f 185/76/45 188/88/46 186/86/45
f 189/83/47 190/69/48 191/84/48
f 190/69/48 189/83/47 192/74/47
f 193/89/1 194/90/1 195/91/1
f 193/89/1 195/91/1 196/92/1
f 197/93/49 198/94/50 199/95/51
f 199/95/51 198/94/50 200/96/51
f 199/95/51 200/96/51 201/97/1
f 201/97/1 200/96/51 203/98/1
f 203/98/1 205/99/52 201/97/1
f 204/100/53 206/101/52 202/102/54
f 205/99/52 203/98/1 206/101/52
f 206/101/52 204/100/53 205/99/52
f 207/95/51 208/93/49 209/96/55
f 207/95/51 209/96/55 210/98/1
f 208/93/49 211/94/50 209/96/55
f 212/97/1 207/95/51 210/98/1
f 212/97/1 210/98/1 213/101/56
f 214/99/56 212/97/1 213/101/56
f 214/99/56 213/101/56 215/102/54
f 216/100/53 214/99/56 215/102/54
f 217/83/57 218/75/57 219/74/57
f 217/83/57 220/85/57 218/75/57
f 221/103/1 222/104/1 223/105/1
f 223/105/1 224/106/1 221/103/1
f 225/107/1 226/108/1 227/109/1
f 226/108/1 225/107/1 228/110/1
f 229/58/58 230/86/59 231/57/59
f 230/86/59 229/58/58 232/87/58
f 233/106/1 234/105/1 235/111/1
f 235/111/1 236/82/1 233/106/1
f 236/82/1 235/111/1 237/51/1
f 235/111/1 238/47/1 237/51/1
f 239/54/1 240/112/1 241/107/1
f 241/107/1 240/112/1 242/110/1
f 240/112/1 239/54/1 243/45/1
f 243/45/1 244/113/1 240/112/1
f 245/114/1 246/115/1 247/116/1
f 248/116/1 249/115/1 250/68/1
f 249/115/1 251/78/1 250/68/1
f 252/89/1 253/90/1 254/91/1
f 252/89/1 254/91/1 255/92/1
f 256/117/60 257/118/60 258/119/60
f 257/118/60 256/117/60 259/120/60
f 260/121/60 256/117/60 258/119/60
f 256/117/60 260/121/60 261/122/60
f 262/123/60 263/124/60 257/118/60
f 263/124/60 262/123/60 264/125/60
f 265/126/60 266/127/60 260/121/60
f 266/127/60 265/126/60 267/128/60
f 268/129/60 269/130/60 270/131/60
f 269/130/60 268/129/60 271/132/60
f 269/130/60 272/133/60 270/131/60
f 272/133/60 269/130/60 273/134/60
f 274/135/60 275/136/60 268/129/60
f 275/136/60 274/135/60 276/137/60
f 277/138/60 272/133/60 278/139/60
f 277/138/60 278/139/60 279/140/60
f 281/141/61 282/142/62 280/143/61
f 283/144/62 282/142/62 281/141/61
f 283/144/62 284/145/63 282/142/62
f 285/146/63 284/145/63 283/144/62
f 287/147/63 286/148/64 288/149/60
f 289/150/60 287/147/63 288/149/60
f 289/150/60 288/149/60 290/151/65
f 291/152/61 289/150/60 290/151/65
f 292/153/60 293/154/60 294/155/60
f 294/155/60 295/156/60 292/153/60
f 296/157/60 297/158/60 298/159/60
f 298/159/60 297/158/60 299/160/60
f 300/161/60 301/162/60 302/163/60
f 302/163/60 301/162/60 303/164/60
f 304/165/60 305/166/60 306/167/60
f 306/167/60 307/168/60 304/165/60
f 308/169/60 309/154/60 310/170/60
f 308/169/60 310/170/60 311/171/60
f 311/171/60 312/172/60 308/169/60
f 313/157/60 308/169/60 312/172/60
f 314/173/60 315/174/60 316/165/60
f 314/173/60 316/165/60 317/175/60
f 318/162/60 314/173/60 317/175/60
f 314/173/60 318/162/60 319/176/60
f 320/170/60 321/177/60 322/178/60
f 322/178/60 321/177/60 323/179/60
f 324/118/60 325/180/60 326/181/60
f 325/180/60 324/118/60 327/174/60
f 328/182/60 329/183/60 330/172/60
f 329/183/60 328/182/60 331/184/60
f 332/185/60 333/186/60 334/121/60
f 334/121/60 333/186/60 335/176/60
f 336/187/60 337/188/60 338/189/60
f 337/188/60 336/187/60 339/190/60
f 340/191/60 341/192/60 342/193/60
f 340/191/60 342/193/60 343/194/60
f 344/195/60 345/196/60 346/197/60
f 344/195/60 346/197/60 347/198/60
f 348/181/60 349/180/60 350/119/60
f 350/119/60 349/180/60 351/173/60
f 350/119/60 351/173/60 352/186/60
f 353/185/60 350/119/60 352/186/60
f 354/199/60 355/200/60 356/201/60
f 357/202/60 356/201/60 358/203/60
f 354/199/60 356/201/60 357/202/60
f 357/202/60 359/204/60 354/199/60
f 360/137/60 359/204/60 357/202/60
f 354/199/60 359/204/60 361/205/60
f 354/199/60 361/205/60 362/206/60
f 355/200/60 354/199/60 362/206/60
f 361/205/60 363/207/60 362/206/60
f 362/206/60 363/207/60 364/208/60
f 355/200/60 362/206/60 364/208/60
f 356/201/60 365/209/60 366/210/60
f 367/211/60 356/201/60 355/200/60
f 356/201/60 367/211/60 365/209/60
f 365/209/60 367/211/60 368/212/60
f 368/212/60 369/140/60 365/209/60
f 367/211/60 370/213/60 368/212/60
f 367/211/60 355/200/60 371/214/60
f 370/213/60 367/211/60 371/214/60
f 371/214/60 355/200/60 372/215/60
f 371/214/60 373/216/60 370/213/60
f 373/216/60 371/214/60 372/215/60
f 374/171/60 375/184/60 376/182/60
f 375/184/60 374/171/60 377/217/60
f 377/217/60 374/171/60 378/179/60
f 374/171/60 379/178/60 378/179/60
f 380/218/15 381/219/15 382/220/15
f 382/220/15 383/221/15 380/218/15
f 384/222/15 380/218/15 383/221/15
f 381/219/15 380/218/15 385/223/15
f 383/221/15 386/224/15 384/222/15
f 383/221/15 387/225/15 386/224/15
f 386/224/15 388/226/15 384/222/15
f 388/226/15 381/219/15 385/223/15
f 384/222/15 388/226/15 389/227/15
f 388/226/15 385/223/15 389/227/15
f 381/219/15 390/228/15 382/220/15
f 391/229/15 382/220/15 390/228/15
f 390/228/15 381/219/15 392/230/15
f 381/219/15 393/231/15 392/230/15
f 390/228/15 394/232/15 391/229/15
f 395/233/15 392/230/15 393/231/15
f 393/231/15 394/232/15 395/233/15
f 393/231/15 396/234/15 394/232/15
f 396/234/15 391/229/15 394/232/15
f 391/229/15 396/234/15 397/235/15
f 398/236/66 399/237/66 400/219/66
f 398/236/66 400/219/66 401/226/66
f 402/238/66 403/219/66 404/237/66
f 403/219/66 402/238/66 405/231/66
f 406/218/15 407/222/15 408/223/15
f 409/227/15 408/223/15 407/222/15
f 410/230/15 411/233/15 412/232/15
f 410/230/15 412/232/15 413/228/15
f 414/239/15 415/240/15 416/241/15
f 416/241/15 415/240/15 417/242/15
f 418/243/67 419/244/67 420/245/67
f 420/245/67 421/246/67 418/243/67
f 422/247/68 423/248/68 424/249/69
f 423/248/68 422/247/68 425/250/70
f 426/251/71 427/252/71 428/225/71
f 427/252/71 426/251/71 429/253/71
f 429/253/71 426/251/71 430/254/71
f 428/225/71 431/255/71 426/251/71
f 428/225/71 432/256/71 431/255/71
f 432/256/71 433/235/71 431/255/71
f 434/257/71 431/255/71 433/235/71
f 433/235/71 435/258/71 434/257/71
f 436/259/71 434/257/71 435/258/71
f 434/257/71 436/259/71 437/260/71
f 438/261/72 439/262/73 440/263/72
f 439/262/73 438/261/72 441/256/72
f 441/256/72 442/225/73 439/262/73
f 443/264/73 439/262/73 442/225/73
f 444/265/74 445/261/75 446/266/75
f 445/261/75 444/265/74 447/256/74
f 444/265/74 448/235/74 447/256/74
f 448/235/74 444/265/74 449/267/74
f 450/268/76 451/269/77 452/250/77
f 452/250/77 451/269/77 453/248/76
f 454/270/76 455/244/77 456/271/76
f 455/244/77 457/243/76 456/271/76
f 458/272/15 459/273/15 460/255/15
f 458/272/15 460/255/15 461/251/15
f 462/274/15 460/255/15 459/273/15
f 460/255/15 462/274/15 463/257/15
f 464/275/15 465/254/15 466/276/15
f 465/254/15 464/275/15 467/251/15
f 468/277/15 469/260/15 470/278/15
f 470/278/15 469/260/15 471/257/15
f 472/279/78 473/280/79 474/261/78
f 475/281/80 474/261/78 473/280/79
f 474/261/78 476/282/79 472/279/78
f 474/261/78 477/283/79 476/282/79
f 478/268/81 479/269/81 480/284/81
f 480/284/81 479/269/81 481/285/77
f 482/270/81 483/286/77 484/271/77
f 483/286/77 485/287/77 484/271/77
f 486/288/15 487/289/15 488/290/15
f 487/289/15 486/288/15 489/291/15
f 487/289/15 490/292/15 488/290/15
f 488/290/15 491/220/15 486/288/15
f 491/220/15 488/290/15 492/229/15
f 488/290/15 493/267/15 492/229/15
f 486/288/15 491/220/15 494/221/15
f 486/288/15 494/221/15 495/264/15
f 496/293/82 497/49/82 498/294/82
f 499/50/83 500/49/83 501/293/83
f 501/293/83 502/51/83 499/50/83
f 503/113/84 504/295/84 505/42/84
f 503/113/84 505/42/84 506/296/84
f 507/44/84 503/113/84 506/296/84
f 503/113/84 507/44/84 508/45/84
f 509/297/85 510/298/86 511/299/85
f 510/298/86 509/297/85 512/300/86
f 510/298/86 513/301/86 511/299/85
f 514/298/87 515/50/88 516/51/88
f 515/50/88 514/298/87 517/300/88
f 518/300/20 519/302/21 520/303/89
f 521/304/20 518/300/20 520/303/89
f 518/300/20 521/304/20 522/50/20
f 521/304/20 523/305/20 522/50/20
f 523/305/20 521/304/20 524/306/21
f 519/302/21 523/305/20 524/306/21
f 523/305/20 525/49/20 522/50/20
f 523/305/20 526/307/20 525/49/20
f 523/305/20 519/302/21 527/308/20
f 519/302/21 518/300/20 527/308/20
f 518/300/20 528/309/20 527/308/20
f 528/309/20 518/300/20 529/297/20
f 527/308/20 528/309/20 530/310/20
f 531/311/20 528/309/20 529/297/20
f 532/312/20 527/308/20 530/310/20
f 531/311/20 529/297/20 533/299/20
f 531/311/20 533/299/20 534/313/20
f 535/301/20 534/313/20 533/299/20
f 536/314/20 532/312/20 530/310/20
f 537/315/20 532/312/20 536/314/20
f 532/312/20 537/315/20 538/316/20
f 537/315/20 539/317/20 538/316/20
f 539/317/20 540/318/20 538/316/20
f 540/318/20 539/317/20 541/319/20
f 542/320/20 541/319/20 539/317/20
f 541/319/20 542/320/20 543/321/20
f 542/320/20 544/322/20 543/321/20
f 541/319/20 545/323/20 540/318/20
f 545/323/20 541/319/20 546/44/20
f 545/323/20 546/44/20 547/296/20
f 548/42/20 545/323/20 547/296/20
f 545/323/20 548/42/20 549/324/20
f 550/316/90 551/325/90 552/312/90
f 551/325/90 550/316/90 553/326/90
f 554/303/20 555/302/20 556/304/20
f 555/302/20 557/306/20 556/304/20
f 558/327/20 559/322/20 560/328/20
f 559/322/20 558/327/20 561/329/20
f 562/330/20 563/310/20 564/309/20
f 562/330/20 564/309/20 565/311/20
f 566/331/91 567/45/91 568/44/91
f 566/331/91 568/44/91 569/319/91
f 570/332/92 571/326/92 572/333/92
f 571/326/92 570/332/92 573/334/92
f 574/325/93 575/335/92 576/336/92
f 574/325/93 577/337/92 575/335/92
f 578/318/94 579/323/95 580/332/94
f 578/318/94 580/332/94 581/333/94
f 582/338/20 583/339/20 584/340/20
f 582/338/20 584/340/20 585/341/20
f 586/342/96 587/343/96 588/344/97
f 586/342/96 589/345/20 587/343/96
f 588/344/97 587/343/96 590/346/98
f 589/345/20 586/342/96 591/347/20
f 591/347/20 592/348/99 589/345/20
f 593/349/99 592/348/99 591/347/20
f 593/349/99 594/350/100 592/348/99
f 595/351/101 594/350/100 593/349/99
f 596/344/97 598/342/102 597/346/98
f 598/342/102 599/343/96 597/346/98
f 598/342/102 600/347/20 599/343/96
f 600/347/20 602/345/20 599/343/96
f 600/347/20 604/349/103 602/345/20
f 603/351/101 601/350/100 605/348/103
f 604/349/103 603/351/101 605/348/103
f 604/349/103 605/348/103 602/345/20
f 606/324/104 607/332/104 608/323/104
f 607/332/104 606/324/104 609/334/104
f 610/352/20 611/353/20 612/110/20
f 611/353/20 610/352/20 613/354/20
f 614/355/20 615/356/20 616/357/20
f 616/357/20 615/356/20 617/105/20
f 618/335/105 619/337/105 620/307/106
f 620/307/106 621/305/105 618/335/105
f 622/110/20 623/353/20 624/112/20
f 625/331/20 624/112/20 623/353/20
f 624/112/20 625/331/20 626/45/20
f 626/45/20 627/113/20 624/112/20
f 628/357/20 629/111/20 630/298/20
f 629/111/20 628/357/20 631/105/20
f 632/51/20 630/298/20 629/111/20
f 629/111/20 633/47/20 632/51/20
f 634/358/20 635/359/20 636/360/20
f 637/317/20 638/360/107 639/359/20
f 638/360/107 637/317/20 640/328/20
f 641/338/20 642/339/20 643/340/20
f 641/338/20 643/340/20 644/341/20
f 645/155/108 646/361/108 647/362/108
f 648/159/109 649/363/109 650/364/109
f 651/169/110 652/363/110 653/159/110
f 652/363/110 651/169/110 654/365/110
f 651/169/110 655/362/110 654/365/110
f 651/169/110 656/155/110 655/362/110
f 657/362/111 658/366/112 659/367/113
f 658/366/112 657/362/111 660/361/111
f 661/368/114 662/369/114 663/370/114
f 662/369/114 661/368/114 664/371/114
f 665/372/115 666/364/115 667/363/115
f 667/363/115 668/373/116 665/372/115
f 669/374/117 670/375/117 671/376/117
f 670/375/117 669/374/117 672/377/117
f 673/378/118 674/379/119 675/380/118
f 673/378/118 676/381/118 674/379/119
f 677/382/120 678/383/121 679/384/121
f 678/383/121 677/382/120 680/385/122
f 681/377/123 682/386/123 683/375/123
f 684/387/123 683/375/123 682/386/123
f 682/386/123 685/388/123 684/387/123
f 685/388/123 682/386/123 686/389/123
f 685/388/123 687/390/123 684/387/123
f 688/369/123 684/387/123 687/390/123
f 689/370/123 688/369/123 687/390/123
f 687/390/123 685/388/123 690/391/123
f 686/389/123 691/392/123 685/388/123
f 691/392/123 690/391/123 685/388/123
f 691/392/123 686/389/123 692/393/123
f 693/394/123 692/393/123 686/389/123
f 692/393/123 693/394/123 694/395/123
f 695/396/123 691/392/123 692/393/123
f 690/391/123 691/392/123 696/397/123
f 696/397/123 697/398/123 690/391/123
f 698/399/123 697/398/123 696/397/123
f 691/392/123 699/400/123 696/397/123
f 691/392/123 695/396/123 700/365/123
f 699/400/123 691/392/123 700/365/123
f 701/363/123 700/365/123 695/396/123
f 701/363/123 695/396/123 702/373/123
f 703/362/123 699/400/123 700/365/123
f 699/400/123 703/362/123 704/367/123
f 705/147/124 706/148/124 707/150/125
f 707/150/125 706/148/124 708/149/125
f 707/150/125 708/149/125 709/152/126
f 709/152/126 708/149/125 710/151/127
f 711/141/126 713/144/123 712/143/126
f 713/144/123 714/142/123 712/143/126
f 713/144/123 715/146/128 714/142/123
f 715/146/128 716/145/128 714/142/123
f 717/401/123 718/402/123 719/403/123
f 718/402/123 717/401/123 720/404/123
f 721/405/123 722/383/123 723/385/123
f 722/383/123 721/405/123 724/406/123
f 725/407/123 726/408/123 727/409/123
f 727/409/123 726/408/123 728/410/123
f 729/380/123 730/379/123 731/411/123
f 731/411/123 730/379/123 732/412/123
f 733/413/123 734/414/123 735/415/123
f 736/416/123 735/415/123 734/414/123
f 735/415/123 737/417/123 733/413/123
f 735/415/123 738/418/123 737/417/123
f 739/195/123 740/196/123 741/197/123
f 739/195/123 741/197/123 742/198/123
f 743/191/123 744/192/123 745/193/123
f 743/191/123 745/193/123 746/194/123
f 747/413/129 748/139/129 749/414/130
f 748/139/129 747/413/129 750/130/130
f 748/139/129 750/130/130 751/134/131
f 747/413/129 752/136/129 750/130/130
f 752/136/129 747/413/129 753/417/130
f 750/130/130 752/136/129 754/132/131
f 755/419/123 756/420/123 757/421/123
f 756/420/123 755/419/123 758/422/123
f 759/423/32 760/424/32 761/425/32
f 761/425/32 760/424/32 762/426/32
f 760/424/32 759/423/32 763/427/32
f 763/427/32 759/423/32 764/428/32
f 759/423/32 765/429/32 764/428/32
f 759/423/32 766/430/132 765/429/32
f 759/423/32 767/431/32 766/430/132
f 766/430/132 767/431/32 768/432/32
f 761/425/32 762/426/32 769/433/32
f 770/229/32 768/432/32 767/431/32
f 768/432/32 770/229/32 771/434/32
f 772/435/32 770/229/32 767/431/32
f 773/235/32 770/229/32 772/435/32
f 771/434/32 770/229/32 774/436/32
f 775/220/32 774/436/32 770/229/32
f 769/433/32 775/220/32 761/425/32
f 774/436/32 775/220/32 776/437/32
f 775/220/32 769/433/32 777/438/32
f 776/437/32 775/220/32 777/438/32
f 778/439/32 761/425/32 775/220/32
f 761/425/32 778/439/32 779/440/32
f 778/439/32 775/220/32 780/441/32
f 781/442/32 761/425/32 779/440/32
f 775/220/32 782/443/32 780/441/32
f 775/220/32 783/444/32 782/443/32
f 784/445/32 761/425/32 781/442/32
f 783/444/32 775/220/32 785/221/32
f 784/445/32 781/442/32 786/446/32
f 784/445/32 786/446/32 787/447/32
f 784/445/32 787/447/32 788/448/32
f 784/445/32 788/448/32 789/449/133
f 790/450/32 784/445/32 789/449/133
f 785/221/32 791/451/32 783/444/32
f 790/450/32 789/449/133 792/452/32
f 785/221/32 792/452/32 791/451/32
f 792/452/32 785/221/32 790/450/32
f 785/221/32 793/453/32 790/450/32
f 793/453/32 785/221/32 794/225/32
f 795/452/134 796/454/135 797/455/134
f 796/454/135 795/452/134 798/449/136
f 797/455/134 799/451/137 795/452/134
f 798/449/136 800/456/138 796/454/135
f 799/451/137 797/455/134 801/457/137
f 800/456/138 798/449/136 802/448/138
f 801/457/137 803/444/139 799/451/137
f 802/448/138 804/458/140 800/456/138
f 803/444/139 801/457/137 805/459/141
f 804/458/140 802/448/138 806/447/140
f 803/444/139 805/459/141 807/460/142
f 808/446/143 804/458/140 806/447/140
f 807/460/142 809/443/142 803/444/139
f 804/458/140 808/446/143 810/461/144
f 807/460/142 811/441/145 809/443/142
f 811/441/145 807/460/142 812/462/145
f 808/446/143 813/463/146 810/461/144
f 812/462/145 814/439/147 811/441/145
f 813/463/146 808/446/143 815/442/146
f 814/439/147 812/462/145 816/464/147
f 813/463/146 815/442/146 817/440/148
f 818/465/148 814/439/147 816/464/147
f 817/440/148 818/465/148 813/463/146
f 817/440/148 814/439/147 818/465/148
f 819/466/142 820/434/142 821/436/139
f 822/467/145 820/434/142 819/466/142
f 821/436/139 823/468/139 819/466/142
f 820/434/142 822/467/145 824/432/145
f 821/436/139 825/469/137 823/468/139
f 826/470/149 824/432/145 822/467/145
f 825/469/137 821/436/139 827/437/137
f 824/432/145 826/470/149 828/430/150
f 827/437/137 829/471/151 825/469/137
f 830/472/148 828/430/150 826/470/149
f 829/471/151 827/437/137 831/438/134
f 832/429/148 828/430/150 830/472/148
f 833/433/152 829/471/151 831/438/134
f 832/429/148 830/472/148 834/473/146
f 829/471/151 833/433/152 835/474/136
f 834/473/146 836/428/146 832/429/148
f 833/433/152 837/475/138 835/474/136
f 834/473/146 838/427/143 836/428/146
f 837/475/138 833/433/152 839/426/138
f 838/427/143 834/473/146 840/476/143
f 839/426/138 841/477/140 837/475/138
f 841/477/140 838/427/143 840/476/143
f 841/477/140 839/426/138 842/424/140
f 838/427/143 841/477/140 842/424/140
f 843/474/153 844/478/154 845/471/155
f 844/478/154 846/469/156 845/471/155
f 844/478/154 843/474/153 847/479/157
f 846/469/156 844/478/154 848/480/158
f 847/479/157 848/480/158 844/478/154
f 848/480/158 849/468/159 846/469/156
f 843/474/153 850/475/160 847/479/157
f 850/475/160 851/481/161 847/479/157
f 850/475/160 852/477/162 851/481/161
f 851/481/161 852/477/162 853/482/163
f 853/482/163 847/479/157 851/481/161
f 854/476/164 853/482/163 852/477/162
f 848/480/158 847/479/157 855/483/165
f 849/468/159 848/480/158 855/483/165
f 856/484/166 847/479/157 853/482/163
f 853/482/163 854/476/164 856/484/166
f 847/479/157 857/485/167 855/483/165
f 847/479/157 856/484/166 857/485/167
f 854/476/164 858/486/168 856/484/166
f 858/486/168 854/476/164 859/473/169
f 860/487/170 856/484/166 858/486/168
f 859/473/169 860/487/170 858/486/168
f 856/484/166 860/487/170 857/485/167
f 860/487/170 859/473/169 861/472/171
f 861/472/171 857/485/167 860/487/170
f 857/485/167 861/472/171 862/470/172
f 862/470/172 863/488/173 857/485/167
f 863/488/173 855/483/165 857/485/167
f 863/488/173 862/470/172 864/467/174
f 855/483/165 863/488/173 865/489/175
f 864/467/174 865/489/175 863/488/173
f 849/468/159 855/483/165 865/489/175
f 865/489/175 864/467/174 866/466/176
f 866/466/176 849/468/159 865/489/175
f 867/464/177 868/490/178 869/491/167
f 868/490/178 867/464/177 870/462/174
f 871/460/176 868/490/178 870/462/174
f 869/491/167 872/465/171 867/464/177
f 868/490/178 871/460/176 873/492/175
f 873/492/175 869/491/167 868/490/178
f 874/459/179 873/492/175 871/460/176
f 872/465/171 869/491/167 875/493/170
f 876/463/169 872/465/171 875/493/170
f 876/463/169 875/493/170 877/494/168
f 869/491/167 877/494/168 875/493/170
f 878/461/180 876/463/169 877/494/168
f 879/495/165 869/491/167 873/492/175
f 873/492/175 874/459/179 879/495/165
f 877/494/168 869/491/167 880/496/166
f 877/494/168 880/496/166 878/461/180
f 869/491/167 879/495/165 881/497/157
f 869/491/167 881/497/157 880/496/166
f 874/459/179 882/498/158 879/495/165
f 882/498/158 874/459/179 883/457/181
f 884/455/155 882/498/158 883/457/181
f 885/499/154 879/495/165 882/498/158
f 882/498/158 884/455/155 885/499/154
f 879/495/165 885/499/154 881/497/157
f 886/454/182 885/499/154 884/455/155
f 885/499/154 886/454/182 881/497/157
f 887/456/160 881/497/157 886/454/182
f 881/497/157 887/456/160 888/500/161
f 880/496/166 881/497/157 888/500/161
f 889/458/162 888/500/161 887/456/160
f 880/496/166 888/500/161 890/501/163
f 888/500/161 889/458/162 890/501/163
f 890/501/163 878/461/180 880/496/166
f 878/461/180 890/501/163 889/458/162
f 891/502/183 892/503/183 893/504/184
f 892/503/183 891/502/183 894/505/184
f 895/506/185 896/507/185 897/508/185
f 897/508/185 898/509/185 895/506/185
f 899/288/32 900/291/32 901/510/32
f 901/510/32 900/291/32 902/289/32
f 903/292/32 901/510/32 902/289/32
f 901/510/32 903/292/32 904/290/32
f 905/271/186 906/507/186 907/506/187
f 906/507/186 905/271/186 908/270/187
f 909/269/188 910/502/188 911/504/187
f 911/504/187 912/268/187 909/269/188
f 913/510/189 914/290/189 915/256/189
f 915/256/189 916/288/189 913/510/189
f 917/235/189 915/256/189 914/290/189
f 917/235/189 914/290/189 918/267/190
f 919/225/189 916/288/189 915/256/189
f 916/288/189 919/225/189 920/264/190
f 921/255/191 922/235/192 923/257/192
f 922/235/192 921/255/191 924/256/192
f 923/257/192 922/235/192 925/435/193
f 926/511/194 923/257/192 925/435/193
f 927/260/195 923/257/192 926/511/194
f 921/255/191 928/225/192 924/256/192
f 928/225/192 921/255/191 929/251/192
f 929/251/192 930/453/196 928/225/192
f 930/453/196 929/251/192 931/512/197
f 929/251/192 932/254/195 931/512/197
f 933/435/198 934/513/198 935/511/198
f 936/514/199 937/453/199 938/512/199
f 939/515/200 940/277/201 941/516/201
f 940/277/201 939/515/200 942/517/200
f 943/518/200 944/276/200 945/519/201
f 945/519/201 944/276/200 946/520/200
f 947/255/202 948/517/202 949/257/203
f 948/517/202 947/255/202 950/261/202
f 947/255/202 951/520/202 950/261/202
f 951/520/202 947/255/202 952/251/202
f 953/516/32 954/260/32 955/257/32
f 955/257/32 956/515/32 953/516/32
f 957/254/32 958/518/32 959/251/32
f 959/251/32 958/518/32 960/519/32
f 961/271/188 962/521/187 963/522/188
f 962/521/187 961/271/188 964/270/186
f 965/269/188 966/523/188 967/524/188
f 967/524/188 968/268/187 965/269/188
f 969/525/32 970/526/32 971/527/32
f 971/527/32 970/526/32 972/528/32
f 973/265/32 974/261/32 975/266/32
f 976/229/32 973/265/32 977/267/32
f 976/229/32 978/220/32 973/265/32
f 974/261/32 973/265/32 978/220/32
f 979/262/32 974/261/32 978/220/32
f 974/261/32 979/262/32 980/263/32
f 978/220/32 981/221/32 979/262/32
f 982/264/32 979/262/32 981/221/32
