# Blender 5.1.2
# www.blender.org
mtllib Shotgun.mtl
o Shotgun
v 1.356603 -0.435546 -0.038891
v 1.356603 -0.435546 0.040009
v 1.354322 -0.463880 0.000511
v 1.381952 -0.327661 -0.067791
v 1.381952 -0.327661 0.068909
v 1.403442 -0.182916 -0.078289
v 1.403442 -0.182913 0.079411
v 1.414692 -0.038168 -0.067791
v 1.414692 -0.038168 0.068909
v 1.414742 0.067793 -0.038891
v 1.414742 0.067793 0.040009
v 1.414752 0.091295 0.000511
v 1.414742 0.067793 0.040009
v 1.339023 0.083274 0.042110
v 1.339033 0.108020 0.000511
v 1.414752 0.091295 0.000511
v 1.414742 0.067793 -0.038891
v 1.414742 0.067793 -0.038891
v 1.339023 0.083274 -0.040989
v 1.339033 0.108020 0.000511
v 0.606382 0.078807 0.028110
v 1.339033 0.108020 0.000511
v 0.606402 0.091527 0.000511
v 1.339023 0.083274 -0.040989
v 0.606382 0.078807 -0.026989
v 0.485743 -0.024772 -0.026989
v 0.245152 0.105985 -0.028690
v 0.245173 0.120244 0.000511
v 0.485743 -0.024772 0.028111
v 0.485743 -0.015698 0.000511
v 0.245152 0.105985 0.029812
v 0.606382 0.078807 0.028110
v 0.485743 -0.024772 0.028111
v 0.485743 -0.015698 0.000511
v 0.606382 0.078807 -0.026989
v 0.485743 -0.024772 -0.026989
v 0.606382 0.078807 -0.026989
v 0.485743 -0.024772 -0.026989
v 0.245173 0.120244 0.000511
v 0.485743 -0.015698 0.000511
v 1.339023 0.083274 0.042110
v 0.606382 0.078807 0.028110
v 1.339033 0.108020 0.000511
v 0.606402 0.091527 0.000511
v 0.606382 0.078807 -0.026989
v 0.485743 -0.015698 0.000511
v 0.606402 0.091527 0.000511
v 0.606382 0.078807 0.028110
v -0.774248 0.099424 -0.043591
v -0.516347 0.106127 -0.040588
v 0.245152 0.105985 -0.028690
v -0.774228 0.118499 0.000511
v -0.516337 0.120386 0.000511
v 0.245173 0.120244 0.000511
v 0.245152 0.105985 0.029812
v -0.516347 0.106127 0.041710
v -0.774248 0.099424 0.044712
v 1.279973 -0.442846 0.042110
v 1.356603 -0.435546 0.040009
v 1.306222 -0.333120 0.072510
v 1.381952 -0.327661 0.068909
v 1.327713 -0.180708 0.083611
v 1.403442 -0.182913 0.079411
v 1.414692 -0.038168 0.068909
v 1.338973 -0.028299 0.072510
v 1.338973 -0.028299 0.072510
v 1.414742 0.067793 0.040009
v 1.339023 0.083274 0.042110
v 1.414692 -0.038168 0.068909
v 1.327713 -0.180708 0.083611
v 1.403442 -0.182913 0.079411
v 0.485753 -0.104847 0.055611
v 0.245052 0.013814 0.059010
v 0.244992 -0.039401 0.051208
v 0.485753 -0.151079 0.048210
v 0.244943 -0.078357 0.029812
v 0.606243 -0.104310 0.048210
v 1.327713 -0.180708 0.083611
v 0.606292 -0.037284 0.055611
v 0.485743 -0.058616 0.048210
v 1.338973 -0.028299 0.072510
v 0.606352 0.029741 0.048210
v 0.485743 -0.024772 0.028111
v 0.606382 0.078807 0.028110
v 0.485743 -0.024772 0.028111
v 0.606352 0.029741 0.048210
v 0.485753 -0.184923 0.028111
v 0.244943 -0.078357 0.029812
v 0.485753 -0.151079 0.048210
v 0.606203 -0.153376 0.028111
v 0.485753 -0.184923 0.028111
v 0.606243 -0.104310 0.048210
v 0.244992 -0.039401 0.051208
v 0.485753 -0.104847 0.055611
v 0.606292 -0.037284 0.055611
v 0.485743 -0.058616 0.048210
v 0.245052 0.013814 0.059010
v 0.485743 -0.058616 0.048210
v 0.245112 0.067029 0.051208
v 0.485743 -0.024772 0.028111
v 0.245152 0.105985 0.029812
v 1.327713 -0.180708 0.083611
v 1.306222 -0.333120 0.072510
v 0.606203 -0.153376 0.028111
v 1.279973 -0.442846 0.042110
v 1.339023 0.083274 0.042110
v 1.338973 -0.028299 0.072510
v 0.606382 0.078807 0.028110
v 0.245112 0.067029 0.051208
v -0.516347 0.106127 0.041710
v -0.525807 0.067171 0.071812
v 0.245152 0.105985 0.029812
v -0.774248 0.099424 0.044712
v 0.245052 0.013814 0.059010
v -0.786067 0.047310 0.077011
v -0.525867 0.013956 0.082909
v -0.786128 -0.023878 0.088810
v -0.508808 -0.039259 0.071812
v 0.244992 -0.039401 0.051208
v -0.764787 -0.095066 0.077011
v -0.491678 -0.078215 0.041710
v -0.743367 -0.147178 0.044712
v 0.244943 -0.078357 0.029812
v -0.774248 0.099424 -0.043591
v -0.774248 0.099424 0.044712
v -0.774228 0.118499 0.000511
v -0.786067 0.047310 0.077011
v -0.786067 0.047310 -0.075890
v -0.786128 -0.023878 -0.087688
v -0.786128 -0.023878 0.088810
v -0.764787 -0.095066 -0.075890
v -0.764787 -0.095066 0.077011
v -0.743367 -0.147178 -0.043591
v -0.743367 -0.147178 0.044712
v -0.743367 -0.147178 -0.043591
v -0.743367 -0.147178 0.044712
v -0.719118 -0.166253 0.000511
v 1.354322 -0.463880 0.000511
v 1.279973 -0.442846 -0.040989
v 1.356603 -0.435546 -0.038891
v 1.279973 -0.442846 0.042110
v 1.356603 -0.435546 0.040009
v 1.279973 -0.442846 0.042110
v 1.293952 -0.474756 0.000511
v 1.354322 -0.463880 0.000511
v 1.279973 -0.442846 -0.040989
v 0.606193 -0.164692 0.000511
v 0.485753 -0.184923 0.028111
v 0.485753 -0.192431 0.000511
v 0.606203 -0.153376 0.028111
v 0.485753 -0.184923 -0.026989
v 0.606193 -0.164692 0.000511
v 0.485753 -0.192431 0.000511
v 0.606203 -0.153376 -0.026989
v 0.244933 -0.092616 0.000511
v 0.485753 -0.192431 0.000511
v 0.485753 -0.184923 0.028111
v 0.485753 -0.184923 -0.026989
v 0.244943 -0.078357 0.029812
v 0.244943 -0.078357 -0.028690
v 0.606203 -0.153376 -0.026989
v 1.279973 -0.442846 -0.040989
v 0.606193 -0.164692 0.000511
v 1.293952 -0.474756 0.000511
v 1.279973 -0.442846 0.042110
v 0.606203 -0.153376 0.028111
v -0.491678 -0.078215 0.041710
v -0.743367 -0.147178 0.044712
v 0.244943 -0.078357 0.029812
v -0.719118 -0.166253 0.000511
v -0.472278 -0.092474 0.000511
v 0.244933 -0.092616 0.000511
v 0.244943 -0.078357 -0.028690
v -0.491678 -0.078215 -0.040588
v -0.743367 -0.147178 -0.043591
v 1.279973 -0.442846 -0.040989
v 1.306222 -0.333120 -0.071388
v 1.356603 -0.435546 -0.038891
v 1.381952 -0.327661 -0.067791
v 1.327713 -0.180710 -0.082489
v 1.403442 -0.182916 -0.078289
v 1.414742 0.067793 -0.038891
v 1.338973 -0.028299 -0.071388
v 1.414692 -0.038168 -0.067791
v 1.327713 -0.180710 -0.082489
v 1.403442 -0.182916 -0.078289
v 1.414742 0.067793 -0.038891
v 1.338973 -0.028299 -0.071388
v 1.339023 0.083274 -0.040989
v 0.485743 -0.024772 -0.026989
v 0.245112 0.067029 -0.050091
v 0.245152 0.105985 -0.028690
v 1.339023 0.083274 -0.040989
v 0.606352 0.029741 -0.047089
v 0.606382 0.078807 -0.026989
v 1.338973 -0.028299 -0.071388
v 0.606292 -0.037284 -0.054489
v 0.485743 -0.058616 -0.047089
v 1.327713 -0.180710 -0.082489
v 0.606243 -0.104310 -0.047089
v 1.306222 -0.333120 -0.071388
v 0.485753 -0.104847 -0.054489
v 1.279973 -0.442846 -0.040989
v 0.606203 -0.153376 -0.026989
v 0.245052 0.013814 -0.057888
v 0.485743 -0.058616 -0.047089
v 0.245112 0.067029 -0.050091
v 0.485743 -0.024772 -0.026989
v 0.485753 -0.184923 -0.026989
v 0.244943 -0.078357 -0.028690
v 0.485753 -0.151079 -0.047089
v 0.244992 -0.039401 -0.050091
v 0.485753 -0.104847 -0.054489
v 0.244992 -0.039401 -0.050091
v 0.245052 0.013814 -0.057888
v 0.485743 -0.058616 -0.047089
v 0.606292 -0.037284 -0.054489
v 1.338973 -0.028299 -0.071388
v 1.327713 -0.180710 -0.082489
v 0.485743 -0.024772 -0.026989
v 0.606352 0.029741 -0.047089
v 0.606382 0.078807 -0.026989
v 0.606243 -0.104310 -0.047089
v 0.485753 -0.151079 -0.047089
v 0.606203 -0.153376 -0.026989
v 0.485753 -0.184923 -0.026989
v 1.306222 -0.333120 -0.071388
v 0.606203 -0.153376 -0.026989
v 0.244943 -0.078357 -0.028690
v -0.491678 -0.078215 -0.040588
v -0.743367 -0.147178 -0.043591
v 0.244992 -0.039401 -0.050091
v -0.764787 -0.095066 -0.075890
v -0.508808 -0.039259 -0.070789
v 0.245052 0.013814 -0.057888
v -0.786128 -0.023878 -0.087688
v -0.525867 0.013956 -0.081791
v -0.786067 0.047310 -0.075890
v -0.525807 0.067171 -0.070789
v 0.245112 0.067029 -0.050091
v -0.774248 0.099424 -0.043591
v -0.516347 0.106127 -0.040588
v 0.245152 0.105985 -0.028690
v 0.401153 0.076035 -0.009892
v 0.393632 0.057562 0.011211
v 0.393632 0.057562 -0.009892
v 0.393632 0.057562 0.011211
v 0.401153 0.076035 -0.009892
v 0.401153 0.076035 0.011211
v 0.192812 -0.158906 -0.009891
v 0.201822 -0.125740 -0.009892
v 0.192812 -0.158906 0.011211
v 0.170143 -0.186451 -0.009891
v 0.170143 -0.186451 0.011211
v 0.206402 -0.093291 -0.009892
v 0.201423 -0.099820 0.011211
v 0.201423 -0.099820 -0.009892
v 0.206402 -0.093291 0.011211
v 0.201822 -0.125740 -0.009892
v 0.201822 -0.125740 0.011211
v 0.192812 -0.158906 0.011211
v 0.201423 -0.099820 0.011211
v 0.201423 -0.099820 -0.009892
v 0.395203 0.093618 -0.009892
v 0.395203 0.093618 0.011211
v 0.401153 0.076035 -0.009892
v 0.401153 0.076035 0.011211
v 0.094712 0.200080 -0.024689
v 0.086062 0.214754 -0.006191
v 0.094712 0.200080 -0.005291
v 0.086062 0.214754 -0.028191
v 0.086062 0.214754 0.007309
v 0.094712 0.200080 0.025810
v 0.094712 0.200080 0.006409
v 0.086062 0.214754 0.029312
v 0.094712 0.200080 -0.005291
v 0.094993 0.165245 0.000511
v 0.094993 0.165245 -0.009388
v 0.094993 0.165245 -0.019291
v 0.094712 0.200080 -0.024689
v 0.094712 0.200080 0.000511
v 0.094712 0.200080 0.006409
v 0.094993 0.165245 0.010509
v 0.094993 0.165245 0.020409
v 0.094712 0.200080 0.025810
v -1.344187 0.200551 -0.006390
v -1.316917 0.164441 0.012310
v -1.316917 0.164441 -0.011189
v -1.344187 0.200551 0.007511
v 0.086062 0.214754 -0.028191
v 0.017172 0.220179 -0.028191
v 0.017172 0.220179 -0.006191
v 0.086062 0.214754 -0.006191
v 0.086062 0.214754 0.007309
v 0.017172 0.220179 0.007309
v 0.017172 0.220179 0.029312
v 0.086062 0.214754 0.029312
v 0.006952 0.195607 -0.004990
v 0.094712 0.200080 0.000511
v 0.094712 0.200080 -0.005291
v 0.006952 0.195607 0.000511
v 0.006952 0.195607 0.006111
v 0.094712 0.200080 0.006409
v 0.395203 0.093618 -0.009892
v 0.374212 0.101449 -0.009892
v 0.374212 0.101449 0.011211
v 0.347192 0.098864 -0.009892
v 0.347192 0.098864 0.011211
v 0.316402 0.099450 -0.009892
v 0.395203 0.093618 0.011211
v 0.245822 0.113799 -0.009892
v 0.272822 0.106269 0.011211
v 0.272822 0.106269 -0.009892
v 0.245822 0.113799 0.011211
v 0.316402 0.099450 -0.009892
v 0.316402 0.099450 0.011211
v 0.347192 0.098864 0.011211
v 0.272822 0.106269 -0.009892
v 0.272822 0.106269 0.011211
v -1.420958 0.208714 0.007111
v -1.344187 0.200551 -0.006390
v -1.420958 0.208714 -0.006088
v -1.344187 0.200551 0.007511
v -1.344187 0.200551 0.007511
v -1.450238 0.161553 0.012310
v -1.316917 0.164441 0.012310
v -1.420958 0.208714 0.007111
v 0.170143 -0.186451 0.011211
v 0.162602 -0.160641 0.011211
v 0.155452 -0.181533 0.011211
v 0.192812 -0.158906 0.011211
v 0.192812 -0.158906 0.011211
v 0.166822 -0.126699 0.011211
v 0.162602 -0.160641 0.011211
v 0.201822 -0.125740 0.011211
v 0.201423 -0.099820 0.011211
v 0.163232 -0.100261 0.011211
v 0.163232 -0.100261 0.011211
v 0.201423 -0.099820 0.011211
v 0.206402 -0.093291 0.011211
v 0.153732 -0.087198 0.011211
v 0.196783 -0.079667 0.011211
v 0.153732 -0.073718 0.011211
v 0.221003 -0.079354 0.011211
v 0.220172 -0.092981 0.011211
v 0.393632 0.057562 0.011211
v 0.347192 0.098864 0.011211
v 0.316402 0.099450 0.011211
v 0.401153 0.076035 0.011211
v 0.374212 0.101449 0.011211
v 0.395203 0.093618 0.011211
v 0.376943 0.046180 0.011211
v 0.272822 0.106269 0.011211
v 0.362302 0.037857 0.011211
v 0.245822 0.113799 0.011211
v 0.094993 0.165245 0.020409
v 0.006952 0.195607 0.024509
v -0.017828 0.162801 0.020409
v 0.094712 0.200080 0.025810
v 0.086062 0.214754 -0.006191
v 0.006952 0.195607 -0.004990
v 0.094712 0.200080 -0.005291
v 0.017172 0.220179 -0.006191
v 0.086062 0.214754 0.029312
v 0.006952 0.195607 0.024509
v 0.094712 0.200080 0.025810
v 0.017172 0.220179 0.029312
v -1.420958 0.208714 -0.006088
v -1.450238 0.161553 -0.011189
v -1.450238 0.161553 0.012310
v -1.420958 0.208714 0.007111
v 0.006952 0.195607 -0.004990
v -0.017828 0.162801 -0.009388
v -0.017828 0.162801 0.000511
v 0.006952 0.195607 -0.023388
v -0.017828 0.162801 -0.019291
v 0.006952 0.195607 0.000511
v 0.006952 0.195607 0.006111
v -0.017828 0.162801 0.010509
v 0.006952 0.195607 0.024509
v -0.017828 0.162801 0.020409
v 0.017172 0.220179 -0.028191
v 0.006952 0.195607 -0.023388
v 0.017172 0.220179 -0.006191
v 0.006952 0.195607 -0.004990
v 0.017172 0.220179 0.007309
v 0.006952 0.195607 0.024509
v 0.017172 0.220179 0.029312
v 0.006952 0.195607 0.006111
v 0.153732 -0.087198 -0.009892
v 0.163232 -0.100261 -0.009892
v 0.153732 -0.087198 0.011211
v 0.163232 -0.100261 0.011211
v 0.153732 -0.073718 -0.009892
v 0.153732 -0.073718 0.011211
v 0.153732 -0.087198 -0.009892
v 0.162602 -0.160641 -0.009891
v 0.166822 -0.126699 0.011211
v 0.166822 -0.126699 -0.009892
v 0.163232 -0.100261 0.011211
v 0.163232 -0.100261 -0.009892
v 0.155452 -0.181533 -0.009891
v 0.162602 -0.160641 0.011211
v 0.162602 -0.160641 -0.009891
v 0.155452 -0.181533 0.011211
v 0.166822 -0.126699 0.011211
v 0.170143 -0.186451 0.011211
v 0.155452 -0.181533 -0.009891
v 0.170143 -0.186451 -0.009891
v 0.155452 -0.181533 0.011211
v 0.206402 -0.093291 -0.009892
v 0.206402 -0.093291 0.011211
v 0.220172 -0.092981 -0.009892
v 0.220172 -0.092981 0.011211
v 0.393632 0.057562 -0.009892
v 0.393632 0.057562 0.011211
v 0.376943 0.046180 -0.009892
v 0.376943 0.046180 0.011211
v 0.362302 0.037857 -0.009892
v 0.376943 0.046180 -0.009892
v 0.362302 0.037857 0.011211
v 0.376943 0.046180 0.011211
v -1.316917 0.164441 -0.011189
v -1.450238 0.161553 -0.011189
v -1.344187 0.200551 -0.006390
v -1.420958 0.208714 -0.006088
v 0.196783 -0.079667 -0.009892
v 0.153732 -0.087198 -0.009892
v 0.153732 -0.073718 -0.009892
v 0.206402 -0.093291 -0.009892
v 0.201822 -0.125740 -0.009892
v 0.192812 -0.158906 -0.009891
v 0.166822 -0.126699 -0.009892
v 0.201423 -0.099820 -0.009892
v 0.162602 -0.160641 -0.009891
v 0.170143 -0.186451 -0.009891
v 0.155452 -0.181533 -0.009891
v 0.163232 -0.100261 -0.009892
v 0.206402 -0.093291 -0.009892
v 0.153732 -0.087198 -0.009892
v 0.196783 -0.079667 -0.009892
v 0.221003 -0.079354 -0.009892
v 0.220172 -0.092981 -0.009892
v 0.401153 0.076035 -0.009892
v 0.374212 0.101449 -0.009892
v 0.395203 0.093618 -0.009892
v 0.347192 0.098864 -0.009892
v 0.393632 0.057562 -0.009892
v 0.347192 0.098864 -0.009892
v 0.401153 0.076035 -0.009892
v 0.316402 0.099450 -0.009892
v 0.376943 0.046180 -0.009892
v 0.272822 0.106269 -0.009892
v 0.362302 0.037857 -0.009892
v 0.272822 0.106269 -0.009892
v 0.376943 0.046180 -0.009892
v 0.245822 0.113799 -0.009892
v 0.006952 0.195607 -0.023388
v 0.094712 0.200080 -0.024689
v 0.094993 0.165245 -0.019291
v -0.017828 0.162801 -0.019291
v 0.006952 0.195607 0.006111
v 0.086062 0.214754 0.007309
v 0.094712 0.200080 0.006409
v 0.017172 0.220179 0.007309
v 0.006952 0.195607 -0.023388
v 0.086062 0.214754 -0.028191
v 0.094712 0.200080 -0.024689
v 0.017172 0.220179 -0.028191
v 0.204093 0.166219 0.000511
v 0.204093 0.159851 0.024311
v 0.229863 0.118692 0.000511
v 0.204093 0.159851 -0.023190
v 0.204093 0.166219 0.000511
v 0.229863 0.118692 0.000511
v 0.204093 0.142455 -0.040588
v 0.204093 0.159851 -0.023190
v 0.229863 0.118692 0.000511
v 0.204093 0.159851 0.024311
v 0.204093 0.142455 0.041710
v 0.229863 0.118692 0.000511
v 0.204093 0.118692 -0.046989
v 0.204093 0.142455 -0.040588
v 0.229863 0.118692 0.000511
v 0.204093 0.142455 0.041710
v 0.204093 0.118692 0.048111
v 0.229863 0.118692 0.000511
v 0.204093 0.094929 -0.040588
v 0.204093 0.118692 -0.046989
v 0.229863 0.118692 0.000511
v 0.204093 0.118692 0.048111
v 0.204093 0.094929 0.041710
v 0.229863 0.118692 0.000511
v 0.204093 0.077533 -0.023190
v 0.204093 0.094929 -0.040588
v 0.229863 0.118692 0.000511
v 0.204093 0.094929 0.041710
v 0.204093 0.077533 0.024311
v 0.229863 0.118692 0.000511
v 0.204093 0.071165 0.000511
v 0.204093 0.077533 -0.023190
v 0.229863 0.118692 0.000511
v 0.204093 0.077533 0.024311
v 0.204093 0.071165 0.000511
v 0.229863 0.118692 0.000511
v 0.066742 -0.168515 0.018810
v 0.066742 -0.168515 -0.018391
v 0.039592 -0.115554 -0.020290
v 0.039592 -0.115554 0.020710
v 0.046772 -0.099017 0.021809
v 0.046772 -0.099017 -0.021389
v 0.143483 0.170444 0.030411
v 0.204093 0.159851 0.024311
v 0.143483 0.178450 0.000511
v 0.204093 0.166219 0.000511
v 0.143483 0.178450 0.000511
v 0.204093 0.159851 -0.023190
v 0.143483 0.170444 -0.029289
v 0.204093 0.166219 0.000511
v 0.204093 0.142455 0.041710
v 0.143483 0.170444 0.030411
v 0.204093 0.159851 0.024311
v 0.143483 0.170444 -0.029289
v 0.204093 0.142455 -0.040588
v 0.204093 0.159851 -0.023190
v 0.118652 -0.188320 0.018810
v 0.235083 -0.199756 0.022709
v 0.118652 -0.188320 -0.018391
v 0.235083 -0.199756 -0.025990
v 0.258472 -0.188250 -0.025890
v 0.258472 -0.188250 0.026310
v 0.118652 -0.188320 -0.018391
v 0.087862 -0.185121 0.018810
v 0.087862 -0.185121 -0.018391
v 0.066742 -0.168515 0.018810
v 0.066742 -0.168515 -0.018391
v 0.143483 0.170444 0.030411
v -1.500828 0.176139 0.028709
v 0.143483 0.178450 0.000511
v -1.504908 0.184552 0.000511
v -1.500828 0.176139 -0.027588
v 0.143483 0.170444 -0.029289
v -0.502868 0.050046 0.030411
v -1.315737 0.049616 0.028709
v -0.502868 0.058052 0.000511
v -1.319808 0.058029 0.000511
v -1.315737 0.049616 -0.027588
v -0.502868 0.050046 -0.029289
v -1.276828 -0.030742 -0.012890
v -0.502868 -0.026422 -0.013691
v -1.274888 -0.034760 0.000511
v -0.502868 -0.030246 0.000511
v -0.502868 -0.026422 0.014809
v -1.276828 -0.030742 0.014011
v 0.143483 0.104422 -0.024189
v -1.461928 0.095781 -0.012890
v 0.143483 0.093976 -0.013691
v -1.459978 0.091763 0.000511
v 0.143483 0.090152 0.000511
v 0.143483 0.093976 0.014809
v -1.461928 0.095781 0.014011
v 0.143483 0.104422 0.025311
v 0.143483 0.148571 0.052311
v 0.204093 0.142455 0.041710
v 0.143483 0.170444 0.030411
v 0.143483 0.118692 0.060310
v 0.204093 0.142455 0.041710
v 0.143483 0.148571 0.052311
v 0.204093 0.118692 0.048111
v 0.204093 0.094929 0.041710
v 0.143483 0.118692 0.060310
v 0.143483 0.088813 0.052311
v 0.204093 0.118692 0.048111
v 0.143483 0.066940 0.030411
v -1.448168 0.067370 0.028709
v 0.143483 0.088813 0.052311
v -1.459297 0.090356 0.049210
v 0.143483 0.118692 0.060310
v -1.474498 0.121754 0.056808
v 0.143483 0.148571 0.052311
v -1.489697 0.153153 0.049210
v 0.143483 0.170444 0.030411
v -1.500828 0.176139 0.028709
v 0.204093 0.077533 0.024311
v 0.143483 0.088813 0.052311
v 0.143483 0.066940 0.030411
v 0.204093 0.094929 0.041710
v 0.076053 -0.205404 0.018810
v 0.240912 -0.221386 0.025211
v 0.118652 -0.188320 0.018810
v 0.087862 -0.185121 0.018810
v 0.235083 -0.199756 0.022709
v 0.059123 -0.196659 0.018810
v 0.258472 -0.188250 0.026310
v 0.066742 -0.168515 0.018810
v 0.042452 -0.179115 0.018810
v 0.039592 -0.115554 0.020710
v 0.013322 -0.120807 0.020710
v 0.002802 -0.102279 0.021912
v 0.046772 -0.099017 0.021809
v -0.004298 -0.086471 0.023811
v 0.060762 -0.086472 0.022911
v -0.011868 -0.074750 0.024509
v 0.102693 -0.076103 0.025009
v 0.341803 -0.165240 0.027809
v 0.399492 -0.104206 0.028912
v 0.435102 -0.138253 0.029110
v 0.263203 -0.166251 0.026810
v 0.399492 -0.083303 0.029011
v 0.303052 -0.085917 0.029209
v 0.249803 -0.099839 0.027809
v 0.303052 -0.066637 0.029209
v 0.231933 -0.080586 0.027710
v -0.502868 -0.053458 0.030411
v -1.263077 -0.059153 0.028709
v -0.502868 -0.031585 0.052311
v -1.274208 -0.036168 0.049210
v -0.502868 -0.001706 0.060310
v -1.289407 -0.004769 0.056808
v -0.502868 0.028173 0.052311
v -1.304608 0.026630 0.049210
v -0.502868 0.050046 0.030411
v -1.315737 0.049616 0.028709
v -0.502868 0.023010 -0.013691
v -1.296668 0.010227 -0.022690
v -0.502868 0.012564 -0.024189
v -1.301978 0.021205 -0.012890
v -1.289407 -0.004769 -0.026291
v -0.502868 -0.001706 -0.027988
v -1.282148 -0.019765 -0.022690
v -0.502868 -0.015976 -0.024189
v -1.276828 -0.030742 -0.012890
v -0.502868 -0.026422 -0.013691
v 0.143483 0.143408 -0.013691
v -1.481758 0.136750 -0.022690
v 0.143483 0.132962 -0.024189
v -1.487077 0.147728 -0.012890
v -1.474498 0.121754 -0.026291
v 0.143483 0.118692 -0.027988
v -1.467237 0.106759 -0.022690
v 0.143483 0.104422 -0.024189
v -1.461928 0.095781 -0.012890
v -1.487077 0.147728 -0.012890
v -1.489697 0.153153 -0.048088
v -1.481758 0.136750 -0.022690
v -1.500828 0.176139 -0.027588
v -1.474498 0.121754 -0.055691
v -1.474498 0.121754 -0.026291
v -1.467237 0.106759 -0.022690
v -1.459297 0.090356 -0.048088
v -1.461928 0.095781 -0.012890
v -1.448168 0.067370 -0.027588
v -1.459978 0.091763 0.000511
v -1.444098 0.058957 0.000511
v -1.448168 0.067370 0.028709
v -1.461928 0.095781 0.014011
v -1.459297 0.090356 0.049210
v -1.467237 0.106759 0.023811
v -1.474498 0.121754 0.056808
v -1.474498 0.121754 0.027409
v -1.481758 0.136750 0.023811
v -1.489697 0.153153 0.049210
v -1.487077 0.147728 0.014011
v -1.500828 0.176139 0.028709
v -1.489017 0.151746 0.000511
v -1.504908 0.184552 0.000511
v -1.500828 0.176139 -0.027588
v -1.487077 0.147728 -0.012890
v -1.301978 0.021205 -0.012890
v -1.304608 0.026630 -0.048088
v -1.296668 0.010227 -0.022690
v -1.315737 0.049616 -0.027588
v -1.289407 -0.004769 -0.055691
v -1.289407 -0.004769 -0.026291
v -1.282148 -0.019765 -0.022690
v -1.274208 -0.036168 -0.048088
v -1.276828 -0.030742 -0.012890
v -1.263077 -0.059153 -0.027588
v -1.274888 -0.034760 0.000511
v -1.258997 -0.067566 0.000511
v -1.263077 -0.059153 0.028709
v -1.276828 -0.030742 0.014011
v -1.274208 -0.036168 0.049210
v -1.282148 -0.019765 0.023811
v -1.289407 -0.004769 0.056808
v -1.289407 -0.004769 0.027409
v -1.296668 0.010227 0.023811
v -1.304608 0.026630 0.049210
v -1.301978 0.021205 0.014011
v -1.315737 0.049616 0.028709
v -1.303927 0.025223 0.000511
v -1.319808 0.058029 0.000511
v -1.315737 0.049616 -0.027588
v -1.301978 0.021205 -0.012890
v 0.059123 -0.196659 -0.018391
v 0.059123 -0.196659 0.018810
v 0.042452 -0.179115 -0.018391
v 0.042452 -0.179115 0.018810
v 0.013322 -0.120807 0.020710
v 0.013322 -0.120807 -0.020290
v 0.002802 -0.102279 -0.021591
v 0.002802 -0.102279 0.021912
v -0.004298 -0.086471 0.023811
v -0.004298 -0.086471 -0.023388
v -0.011868 -0.074750 -0.024189
v -0.011868 -0.074750 0.024509
v 0.263203 -0.166251 0.026810
v 0.263203 -0.166251 -0.026390
v 0.258472 -0.188250 -0.025890
v 0.258472 -0.188250 0.026310
v 0.249803 -0.099839 0.027809
v 0.249803 -0.099839 -0.027390
v 0.231933 -0.080586 0.027710
v 0.231933 -0.080586 -0.027290
v 0.240912 -0.221386 -0.024891
v 0.076053 -0.205404 0.018810
v 0.076053 -0.205404 -0.018391
v 0.341803 -0.165240 0.027809
v 0.240912 -0.221386 0.025211
v 0.341803 -0.165240 -0.027390
v 0.435102 -0.138253 -0.028790
v 0.435102 -0.138253 0.029110
v 0.046772 -0.099017 0.021809
v 0.046772 -0.099017 -0.021389
v 0.060762 -0.086472 0.022911
v 0.060762 -0.086472 -0.022591
v 0.102693 -0.076103 -0.024689
v 0.102693 -0.076103 0.025009
v 0.076053 -0.205404 0.018810
v 0.240912 -0.221386 -0.024891
v 0.240912 -0.221386 0.025211
v -1.448168 0.067370 -0.027588
v 0.143483 0.066940 -0.029289
v -1.444098 0.058957 0.000511
v 0.143483 0.058934 0.000511
v 0.143483 0.066940 0.030411
v -1.448168 0.067370 0.028709
v 0.143483 0.058934 0.000511
v 0.204093 0.077533 0.024311
v 0.143483 0.066940 0.030411
v 0.204093 0.071165 0.000511
v 0.204093 0.077533 -0.023190
v 0.143483 0.058934 0.000511
v 0.143483 0.066940 -0.029289
v 0.204093 0.071165 0.000511
v -1.263077 -0.059153 -0.027588
v -0.502868 -0.053458 -0.029289
v -1.258997 -0.067566 0.000511
v -0.502868 -0.061464 0.000511
v -0.502868 -0.053458 0.030411
v -1.263077 -0.059153 0.028709
v -0.502868 0.023010 0.014809
v -1.301978 0.021205 0.014011
v -0.502868 0.026834 0.000511
v -1.303927 0.025223 0.000511
v -1.301978 0.021205 -0.012890
v -0.502868 0.023010 -0.013691
v 0.143483 0.143408 0.014809
v -1.487077 0.147728 0.014011
v 0.143483 0.147232 0.000511
v -1.489017 0.151746 0.000511
v -1.487077 0.147728 -0.012890
v 0.143483 0.143408 -0.013691
v 0.076053 -0.205404 -0.018391
v 0.076053 -0.205404 0.018810
v 0.059123 -0.196659 -0.018391
v 0.059123 -0.196659 0.018810
v 0.143483 0.170444 -0.029289
v 0.204093 0.142455 -0.040588
v 0.143483 0.148571 -0.051189
v 0.204093 0.142455 -0.040588
v 0.143483 0.118692 -0.059189
v 0.143483 0.148571 -0.051189
v 0.204093 0.118692 -0.046989
v 0.143483 0.118692 -0.059189
v 0.204093 0.094929 -0.040588
v 0.143483 0.088813 -0.051189
v 0.204093 0.118692 -0.046989
v -1.500828 0.176139 -0.027588
v 0.143483 0.170444 -0.029289
v -1.489697 0.153153 -0.048088
v 0.143483 0.148571 -0.051189
v -1.474498 0.121754 -0.055691
v 0.143483 0.118692 -0.059189
v -1.459297 0.090356 -0.048088
v 0.143483 0.088813 -0.051189
v -1.448168 0.067370 -0.027588
v 0.143483 0.066940 -0.029289
v 0.143483 0.088813 -0.051189
v 0.204093 0.077533 -0.023190
v 0.143483 0.066940 -0.029289
v 0.204093 0.094929 -0.040588
v 0.059123 -0.196659 -0.018391
v 0.087862 -0.185121 -0.018391
v 0.076053 -0.205404 -0.018391
v 0.118652 -0.188320 -0.018391
v 0.066742 -0.168515 -0.018391
v 0.042452 -0.179115 -0.018391
v 0.039592 -0.115554 -0.020290
v 0.013322 -0.120807 -0.020290
v 0.002802 -0.102279 -0.021591
v 0.046772 -0.099017 -0.021389
v -0.004298 -0.086471 -0.023388
v 0.060762 -0.086472 -0.022591
v -0.011868 -0.074750 -0.024189
v 0.102693 -0.076103 -0.024689
v 0.118652 -0.188320 -0.018391
v 0.240912 -0.221386 -0.024891
v 0.076053 -0.205404 -0.018391
v 0.258472 -0.188250 -0.025890
v 0.235083 -0.199756 -0.025990
v 0.341803 -0.165240 -0.027390
v 0.399492 -0.104206 -0.028488
v 0.435102 -0.138253 -0.028790
v 0.263203 -0.166251 -0.026390
v 0.399492 -0.083303 -0.028591
v 0.303052 -0.085917 -0.028790
v 0.249803 -0.099839 -0.027390
v 0.303052 -0.066637 -0.028790
v 0.231933 -0.080586 -0.027290
v -1.315737 0.049616 -0.027588
v -0.502868 0.050046 -0.029289
v -1.304608 0.026630 -0.048088
v -0.502868 0.028173 -0.051189
v -1.289407 -0.004769 -0.055691
v -0.502868 -0.001706 -0.059189
v -1.274208 -0.036168 -0.048088
v -0.502868 -0.031585 -0.051189
v -1.263077 -0.059153 -0.027588
v -0.502868 -0.053458 -0.029289
v -0.502868 -0.026422 0.014809
v -1.276828 -0.030742 0.014011
v -0.502868 -0.015976 0.025311
v -1.282148 -0.019765 0.023811
v -0.502868 -0.001706 0.029110
v -1.289407 -0.004769 0.027409
v -0.502868 0.012564 0.025311
v -1.296668 0.010227 0.023811
v -0.502868 0.023010 0.014809
v -1.301978 0.021205 0.014011
v 0.240912 -0.221386 -0.024891
v 0.118652 -0.188320 -0.018391
v 0.235083 -0.199756 -0.025990
v -1.461928 0.095781 0.014011
v 0.143483 0.104422 0.025311
v -1.467237 0.106759 0.023811
v 0.143483 0.118692 0.029110
v -1.474498 0.121754 0.027409
v 0.143483 0.132962 0.025311
v -1.481758 0.136750 0.023811
v 0.143483 0.143408 0.014809
v -1.487077 0.147728 0.014011
vn 0.9754 -0.2202 -0.0000
vn 0.9754 -0.2203 -0.0000
vn 0.9969 -0.0786 -0.0000
vn 0.9849 -0.1734 -0.0000
vn 0.9939 -0.1105 -0.0000
vn 0.9985 -0.0550 -0.0000
vn 1.0000 -0.0000 -0.0000
vn 1.0000 0.0001 -0.0000
vn 0.2128 0.9771 -0.0000
vn 0.1261 0.4964 0.8589
vn 0.1099 0.4319 0.8952
vn 0.1099 0.4319 -0.8952
vn 0.2127 0.9771 -0.0000
vn 0.1261 0.4964 -0.8589
vn -0.0157 0.5179 0.8553
vn -0.0157 0.9999 -0.0000
vn -0.0158 0.5121 -0.8588
vn -0.0157 0.5179 -0.8553
vn 0.3451 0.6274 -0.6980
vn 0.3939 0.7170 -0.5751
vn 0.4877 0.8730 -0.0000
vn 0.4876 0.8730 -0.0000
vn 0.3451 0.6274 0.6980
vn 0.4877 0.8730 0.0001
vn 0.3939 0.7170 0.5751
vn -0.4466 0.5406 0.7130
vn -0.5586 0.6530 0.5114
vn -0.6585 0.7526 -0.0000
vn -0.5586 0.6530 -0.5113
vn -0.4466 0.5406 -0.7130
vn 0.4877 0.8730 -0.0001
vn -0.0158 0.9999 -0.0000
vn -0.0157 0.5121 0.8588
vn -0.5586 0.6530 -0.5114
vn 0.0079 0.7491 -0.6624
vn -0.0158 0.7564 -0.6539
vn -0.0000 1.0000 -0.0000
vn 0.0079 0.7565 -0.6540
vn 0.0079 0.7565 0.6540
vn 0.0079 0.7491 0.6624
vn -0.0158 0.7564 0.6539
vn 0.0628 -0.3693 0.9272
vn 0.0550 -0.1807 0.9820
vn 0.0708 -0.3853 0.9201
vn 0.0553 -0.1500 0.9871
vn 0.0550 -0.0079 0.9985
vn 0.0550 -0.0000 0.9985
vn 0.0632 0.1422 0.9878
vn 0.0709 0.1576 0.9850
vn 0.0709 0.1576 0.9849
vn 0.1099 0.4318 0.8952
vn 0.1260 0.4964 0.8589
vn 0.0632 0.1423 0.9878
vn 0.0550 -0.0078 0.9985
vn -0.0000 -0.0551 0.9985
vn 0.0315 0.0157 0.9994
vn -0.0079 -0.3303 0.9438
vn -0.0628 -0.3530 0.9335
vn -0.0079 -0.3304 0.9438
vn -0.2747 -0.6436 0.7143
vn -0.0710 -0.1499 0.9861
vn -0.0627 -0.3530 0.9335
vn -0.0393 -0.0078 0.9992
vn -0.0393 0.0236 0.9989
vn -0.1494 0.2045 0.9674
vn -0.0000 -0.0550 0.9985
vn -0.0236 0.1732 0.9846
vn -0.0395 0.1974 0.9795
vn -0.0395 0.1975 0.9795
vn -0.3145 -0.7312 0.6054
vn 0.1812 -0.6380 0.7484
vn -0.0627 -0.3531 0.9335
vn 0.1969 -0.7088 0.6774
vn -0.0710 -0.1500 0.9861
vn -0.0710 -0.1499 0.9862
vn 0.0315 0.0158 0.9994
vn 0.1413 0.2512 0.9576
vn 0.2048 0.3703 0.9061
vn 0.3451 0.6274 0.6981
vn 0.3939 0.7169 0.5752
vn -0.0394 -0.0079 0.9992
vn -0.0947 -0.1816 0.9788
vn -0.2047 -0.4409 0.8739
vn -0.2525 -0.5601 0.7890
vn -0.0236 0.1733 0.9846
vn 0.0236 0.3536 0.9351
vn 0.0157 0.3537 0.9352
vn 0.0079 0.7564 0.6540
vn -0.0157 0.7563 0.6540
vn -0.0079 0.3468 0.9379
vn 0.0315 -0.0079 0.9995
vn 0.0473 -0.3230 0.9452
vn -0.0078 -0.3303 0.9438
vn 0.0944 -0.3383 0.9363
vn 0.0709 -0.7092 0.7014
vn 0.1883 -0.6825 0.7062
vn 0.0158 -0.7490 0.6623
vn -0.9771 0.2127 -0.0000
vn -1.0000 -0.0000 -0.0000
vn -0.9985 0.0550 -0.0000
vn -0.9888 -0.1491 -0.0000
vn -0.9518 -0.3068 -0.0000
vn -0.9154 -0.4025 -0.0000
vn -0.6199 -0.7847 -0.0000
vn 0.1414 -0.9900 -0.0000
vn 0.0707 -0.3853 -0.9201
vn 0.0628 -0.3693 -0.9272
vn 0.0629 -0.3693 0.9272
vn 0.1810 -0.9835 -0.0000
vn 0.1414 -0.9899 -0.0000
vn 0.0708 -0.3853 -0.9201
vn 0.2370 -0.9715 -0.0000
vn 0.1969 -0.7088 0.6773
vn 0.2369 -0.9715 0.0001
vn 0.1812 -0.6381 0.7483
vn 0.1969 -0.7089 -0.6773
vn 0.2369 -0.9715 -0.0000
vn 0.1812 -0.6381 -0.7484
vn -0.3930 -0.9195 -0.0000
vn -0.3145 -0.7312 -0.6053
vn -0.2747 -0.6437 0.7143
vn -0.2747 -0.6437 -0.7143
vn -0.2525 -0.5602 -0.7890
vn -0.4090 -0.9125 -0.0000
vn -0.2047 -0.4409 -0.8739
vn -0.4091 -0.9125 -0.0000
vn -0.2525 -0.5602 0.7890
vn -0.2047 -0.4408 0.8739
vn 0.2758 -0.9612 -0.0000
vn 0.0710 -0.7093 0.7013
vn 0.1883 -0.6826 0.7061
vn 0.0707 -0.9975 -0.0000
vn 0.0157 -0.7491 0.6623
vn -0.0000 -1.0000 -0.0000
vn 0.0158 -0.7491 -0.6623
vn 0.0709 -0.7093 -0.7013
vn 0.1883 -0.6826 -0.7061
vn 0.0550 -0.1807 -0.9820
vn 0.0629 -0.3693 -0.9272
vn 0.0553 -0.1500 -0.9871
vn 0.0550 -0.0079 -0.9985
vn 0.0550 -0.0000 -0.9985
vn 0.0709 0.1576 -0.9850
vn 0.0632 0.1423 -0.9878
vn 0.0550 -0.0078 -0.9985
vn 0.1099 0.4318 -0.8952
vn 0.0709 0.1576 -0.9849
vn 0.2049 0.3703 -0.9060
vn 0.3939 0.7169 -0.5752
vn -0.0157 0.5121 -0.8588
vn -0.0395 0.1975 -0.9795
vn -0.0236 0.1733 -0.9846
vn -0.0393 0.0236 -0.9989
vn -0.1494 0.2045 -0.9674
vn -0.0393 -0.0079 -0.9992
vn -0.0710 -0.1499 -0.9862
vn -0.0947 -0.1815 -0.9788
vn -0.0000 -0.0551 -0.9985
vn -0.2525 -0.5601 -0.7890
vn -0.0947 -0.1816 -0.9788
vn 0.0315 0.0158 -0.9994
vn 0.1413 0.2512 -0.9576
vn -0.0000 -0.0550 -0.9985
vn 0.2048 0.3703 -0.9061
vn -0.2747 -0.6436 -0.7143
vn -0.0628 -0.3530 -0.9335
vn -0.3145 -0.7312 -0.6054
vn -0.0079 -0.3304 -0.9438
vn -0.0079 -0.3303 -0.9438
vn 0.0314 0.0157 -0.9994
vn -0.0393 -0.0078 -0.9992
vn -0.0710 -0.1499 -0.9861
vn -0.0627 -0.3530 -0.9335
vn 0.1969 -0.7088 -0.6774
vn 0.0709 -0.7092 -0.7014
vn -0.0078 -0.3303 -0.9438
vn 0.0158 -0.7490 -0.6624
vn 0.0944 -0.3383 -0.9363
vn 0.1883 -0.6825 -0.7062
vn 0.0473 -0.3230 -0.9452
vn 0.0315 0.0157 -0.9994
vn 0.0315 -0.0079 -0.9995
vn -0.0079 0.3468 -0.9379
vn 0.0157 0.3537 -0.9352
vn 0.0236 0.3536 -0.9351
vn -0.0158 0.7564 -0.6540
vn 0.0079 0.7564 -0.6540
vn 0.9263 -0.3767 -0.0000
vn 0.9263 -0.3768 -0.0000
vn 0.8865 -0.4628 -0.0000
vn 0.9899 -0.1414 -0.0000
vn 0.8864 -0.4629 -0.0000
vn 0.7708 -0.6371 -0.0000
vn 0.3468 -0.9379 -0.0000
vn 0.9900 -0.1414 -0.0000
vn 0.6871 0.7266 -0.0000
vn 0.9463 0.3233 -0.0000
vn 0.8589 0.5122 -0.0000
vn 1.0000 0.0081 -0.0000
vn 1.0000 0.0080 -0.0000
vn 1.0000 0.0077 -0.0000
vn 0.7953 0.6063 -0.0000
vn 0.7953 0.6062 -0.0000
vn 0.0785 0.9969 -0.0000
vn -0.0472 0.9989 -0.0000
vn 0.1104 0.9939 -0.0000
vn -0.0315 0.9995 -0.0000
vn 0.1026 0.9947 -0.0000
vn 0.2686 0.9632 -0.0000
vn 0.1977 0.9803 -0.0000
vn 0.2683 0.9633 -0.0000
vn 0.1976 0.9803 -0.0000
vn 0.1027 0.9947 -0.0000
vn -0.0000 0.1182 0.9930
vn -0.0002 -0.0000 1.0000
vn -0.0000 -0.0000 1.0000
vn -0.0001 -0.0000 1.0000
vn 0.0001 -0.0000 1.0000
vn -0.0000 -0.1337 0.9910
vn -0.0000 0.0472 0.9989
vn -0.0079 -0.2127 0.9771
vn -0.8497 0.5273 -0.0000
vn -0.8497 0.5272 -0.0000
vn -0.8496 0.5274 -0.0000
vn -0.7953 0.6063 -0.0000
vn -0.7953 0.6062 -0.0000
vn -0.7952 0.6063 -0.0000
vn -0.9224 0.3863 -0.0000
vn -0.9224 0.3862 -0.0000
vn -0.9414 -0.3374 -0.0000
vn -0.9495 -0.3139 -0.0000
vn -0.9414 -0.3373 -0.0000
vn -0.9787 0.2052 -0.0000
vn -1.0000 0.0079 -0.0000
vn -0.9495 -0.3138 -0.0000
vn -0.9463 0.3234 -0.0000
vn -0.9462 0.3235 -0.0000
vn -0.3162 -0.9487 -0.0000
vn 0.0236 -0.9997 -0.0000
vn 0.3467 -0.9380 -0.0000
vn 0.0237 -0.9997 -0.0000
vn 0.5655 -0.8247 -0.0000
vn 0.4970 -0.8678 -0.0000
vn -0.0000 0.1182 -0.9930
vn 0.0002 -0.0000 -1.0000
vn -0.0000 -0.0000 -1.0000
vn 0.0001 -0.0000 -1.0000
vn -0.0001 -0.0000 -1.0000
vn -0.0002 -0.0000 -1.0000
vn 0.0003 -0.0000 -1.0000
vn -0.0000 -0.1337 -0.9910
vn -0.0000 0.0472 -0.9989
vn -0.0079 -0.2128 -0.9771
vn -0.0079 -0.2127 -0.9771
vn 0.8782 0.4783 -0.0000
vn 0.8814 0.4092 0.2361
vn 0.8814 0.4092 -0.2361
vn 0.8814 0.2361 -0.4092
vn 0.8814 0.2361 0.4092
vn 0.8782 -0.0000 -0.4783
vn 0.8814 0.2360 0.4092
vn 0.8782 -0.0000 0.4783
vn 0.8814 -0.2360 -0.4092
vn 0.8814 -0.2361 0.4092
vn 0.8814 -0.4092 -0.2361
vn 0.8814 -0.2361 -0.4092
vn 0.8814 -0.4092 0.2361
vn 1.0000 -0.0001 -0.0000
vn 0.8782 -0.4783 -0.0000
vn 0.8814 -0.4092 -0.2360
vn 0.9678 0.2517 -0.0000
vn 0.8247 0.5655 -0.0000
vn 0.8248 0.5655 -0.0000
vn 0.9678 0.2518 -0.0000
vn 0.8019 -0.5975 -0.0000
vn 0.8019 -0.5974 -0.0000
vn 0.0080 0.8533 0.5214
vn 0.1968 0.8503 0.4881
vn 0.0079 1.0000 -0.0000
vn 0.1968 0.8503 -0.4881
vn 0.0079 0.8533 -0.5214
vn 0.1976 0.9803 -0.0001
vn 0.1968 0.8503 0.4882
vn 0.0079 0.8532 0.5215
vn 0.1968 0.4882 0.8503
vn 0.1968 0.4882 -0.8503
vn 0.0079 0.8532 -0.5215
vn 0.1968 0.8503 -0.4882
vn -0.0236 0.9997 -0.0000
vn -0.4410 0.8975 -0.0000
vn -0.4409 0.8975 -0.0000
vn 0.3537 0.9354 -0.0000
vn 0.3537 0.9353 -0.0000
vn 0.8247 0.5656 -0.0000
vn -0.0000 0.8764 0.4816
vn 0.0079 0.8533 0.5214
vn -0.0000 0.8764 -0.4816
vn -0.0000 0.8533 0.5214
vn -0.0000 1.0000 -0.0001
vn -0.0000 0.8533 -0.5214
vn -0.0079 1.0000 -0.0000
vn -0.0079 0.8533 0.5214
vn -0.0000 0.8345 0.5510
vn -0.0054 0.8533 -0.5214
vn -0.0000 0.8345 -0.5510
vn -0.0000 0.4817 0.8764
vn 0.0011 0.4817 -0.8764
vn 0.0079 0.4816 0.8763
vn 0.0079 0.0001 1.0000
vn 0.1968 0.4881 0.8503
vn 0.0079 0.4816 0.8764
vn 0.1976 -0.0000 0.9803
vn 0.1968 -0.4881 0.8503
vn 0.0079 -0.0000 1.0000
vn 0.0079 -0.4816 0.8764
vn 0.0079 -0.4816 0.8763
vn -0.0000 -0.8345 0.5511
vn 0.0079 -0.8532 0.5215
vn -0.0000 -0.4250 0.9052
vn -0.0000 0.0707 0.9975
vn -0.0000 0.5364 0.8440
vn -0.0000 0.8764 0.4817
vn 0.1968 -0.8503 0.4882
vn 0.0079 -0.8532 0.5214
vn 0.1968 -0.4882 0.8503
vn -0.0157 0.0472 0.9988
vn -0.0315 0.0550 0.9980
vn -0.0237 0.0869 0.9959
vn -0.0314 0.0628 0.9975
vn -0.0314 -0.0079 0.9995
vn 0.0079 -0.0157 0.9998
vn 0.0079 -0.0236 0.9997
vn 0.0079 -0.0393 0.9992
vn 0.0079 -0.0394 0.9992
vn 0.0080 -0.0948 0.9955
vn 0.0158 -0.0948 0.9954
vn 0.0079 -0.1260 0.9920
vn -0.0000 -0.1260 0.9920
vn -0.0157 -0.0000 0.9999
vn -0.0157 -0.0078 0.9998
vn -0.0079 -0.0237 0.9997
vn -0.0079 -0.0236 0.9997
vn -0.0236 -0.0079 0.9997
vn -0.0000 -0.4783 0.8782
vn 0.0078 -0.8308 0.5565
vn -0.0079 -0.0000 1.0000
vn -0.0078 0.0707 0.9975
vn -0.0079 0.4816 0.8763
vn -0.0000 0.8533 0.5215
vn -0.0000 -0.8533 0.5215
vn -0.0000 -0.5364 0.8440
vn -0.0000 -0.4816 0.8764
vn -0.0000 -0.8764 0.4817
vn -0.0000 -0.0707 0.9975
vn -0.0000 0.4250 0.9052
vn -0.0000 0.4783 0.8782
vn -0.0000 0.8345 0.5511
vn -0.0079 0.8532 0.5215
vn -0.0000 -0.5363 0.8440
vn -0.0002 -0.4816 0.8764
vn -0.0000 -0.8764 0.4816
vn 0.0012 0.4816 0.8764
vn -0.0000 0.8344 0.5511
vn -0.9007 -0.4345 -0.0000
vn -0.9006 -0.4346 -0.0000
vn -0.9006 -0.4345 -0.0000
vn -0.6151 -0.7885 -0.0000
vn -0.8589 -0.5122 -0.0000
vn -0.8896 -0.4566 -0.0000
vn -0.8897 -0.4566 -0.0000
vn -0.8815 -0.4722 -0.0000
vn -0.8404 -0.5420 -0.0000
vn -0.8404 -0.5419 -0.0000
vn -0.9947 -0.1026 -0.0000
vn -0.9379 -0.3468 -0.0005
vn -0.9379 -0.3468 -0.0000
vn -0.7342 -0.6789 -0.0000
vn -0.7342 -0.6790 -0.0000
vn 0.1809 -0.9835 -0.0000
vn -0.1259 -0.9920 -0.0000
vn 0.3863 -0.9224 -0.0000
vn 0.2757 -0.9612 -0.0000
vn 0.3632 -0.9317 -0.0000
vn -0.1260 -0.9920 -0.0000
vn 0.0079 -0.8533 -0.5214
vn -0.0000 -0.8345 -0.5510
vn 0.0079 -1.0000 -0.0000
vn 0.0079 -0.8533 0.5214
vn -0.0000 -0.8345 0.5510
vn 0.1968 -0.8503 0.4881
vn 0.1976 -0.9803 -0.0000
vn 0.1968 -0.8503 -0.4881
vn 0.1976 -0.9803 -0.0001
vn 0.0078 -0.8308 -0.5565
vn -0.0000 -0.8533 -0.5214
vn -0.0000 -0.8764 -0.4816
vn 0.0023 -0.8533 0.5214
vn -0.0023 -0.8533 0.5214
vn -0.1260 -0.9920 -0.0001
vn -0.6150 -0.7885 -0.0000
vn 0.0079 0.4816 -0.8763
vn 0.1968 0.4881 -0.8503
vn 0.0079 -0.0000 -1.0000
vn 0.0079 0.4816 -0.8764
vn 0.1976 -0.0000 -0.9803
vn 0.0079 -0.0001 -1.0000
vn 0.1968 -0.4881 -0.8503
vn 0.0079 -0.4816 -0.8764
vn -0.0000 0.8764 -0.4817
vn -0.0000 0.5364 -0.8440
vn -0.0000 0.0706 -0.9975
vn -0.0000 -0.4250 -0.9052
vn -0.0000 -0.8345 -0.5511
vn 0.0079 -0.8532 -0.5215
vn 0.0079 -0.4816 -0.8763
vn 0.1968 -0.8503 -0.4882
vn 0.1968 -0.4882 -0.8503
vn -0.0236 0.0079 -0.9997
vn -0.0472 0.0157 -0.9988
vn 0.0079 -0.0157 -0.9998
vn 0.0079 -0.0236 -0.9997
vn 0.0079 -0.0394 -0.9992
vn 0.0079 -0.0393 -0.9992
vn 0.0079 -0.0948 -0.9955
vn 0.0158 -0.0948 -0.9954
vn 0.0079 -0.1259 -0.9920
vn -0.0000 -0.1260 -0.9920
vn -0.0315 -0.0000 -0.9995
vn -0.0079 -0.0236 -0.9997
vn -0.0158 -0.0078 -0.9998
vn -0.0157 -0.0079 -0.9998
vn -0.0157 -0.0000 -0.9999
vn -0.0078 -0.0236 -0.9997
vn -0.0236 -0.0079 -0.9997
vn -0.0000 0.8533 -0.5215
vn -0.0079 0.4816 -0.8763
vn -0.0078 0.0707 -0.9975
vn -0.0079 -0.0000 -1.0000
vn -0.0000 -0.4783 -0.8782
vn -0.0079 0.8532 -0.5215
vn -0.0000 0.8345 -0.5511
vn -0.0000 0.4783 -0.8782
vn -0.0000 0.4250 -0.9052
vn -0.0000 -0.0707 -0.9975
vn -0.0000 -0.4816 -0.8764
vn -0.0000 -0.5364 -0.8440
vn -0.0000 -0.8533 -0.5215
vn -0.0000 0.4816 -0.8764
vn -0.0000 0.8344 -0.5511
vn -0.0000 -0.5363 -0.8440
vn -0.0010 -0.8533 -0.5215
vt 0.482213 0.662909
vt 0.403329 0.662909
vt 0.442771 0.634575
vt 0.511087 0.770794
vt 0.374455 0.770794
vt 0.521655 0.915539
vt 0.363887 0.915542
vt 0.511087 1.060290
vt 0.374455 1.060290
vt 0.482213 1.166250
vt 0.403329 1.166250
vt 0.442771 1.189750
vt -0.581952 0.921270
vt -0.581937 0.962801
vt -0.657656 0.960712
vt -0.657670 0.921270
vt -0.657656 0.881828
vt -0.581937 0.879740
vt 0.150698 0.948775
vt 0.150685 0.921270
vt 0.150698 0.893765
vt 0.271337 0.893765
vt 0.511932 0.892031
vt 0.511916 0.921270
vt 0.271337 0.948775
vt 0.271337 0.921270
vt 0.511932 0.950509
vt 1.531320 0.921270
vt 1.273440 0.880104
vt 1.531330 0.877122
vt 1.273420 0.921270
vt 1.273440 0.962436
vt 1.531330 0.965418
vt 1.485060 0.662909
vt 1.434680 0.765335
vt 1.408430 0.655609
vt 1.510410 0.770794
vt 1.456170 0.917747
vt 1.531900 0.915542
vt 1.543150 1.060290
vt 1.467430 1.070160
vt 1.543200 1.166250
vt 1.467480 1.181730
vt 0.614205 0.993608
vt 0.373506 1.112270
vt 0.373446 1.059050
vt 0.614205 0.947376
vt 0.373403 1.020100
vt 0.734702 0.994145
vt 0.734754 1.061170
vt 0.614205 1.039840
vt 0.734806 1.128200
vt 0.614205 1.073680
vt 0.734844 1.177260
vt 0.614205 0.913532
vt 0.734663 0.945079
vt 0.373566 1.165480
vt 0.373610 1.204440
vt -0.387894 1.204580
vt -0.397354 1.165630
vt -0.645790 1.197880
vt -0.657607 1.145770
vt -0.397413 1.112410
vt -0.657670 1.074580
vt -0.380354 1.059200
vt -0.636335 1.003390
vt -0.363219 1.020240
vt -0.614908 0.951276
vt 0.398623 1.197880
vt 0.486919 1.197880
vt 0.442771 1.216950
vt 0.519238 1.145770
vt 0.366304 1.145770
vt 0.354475 1.074580
vt 0.531067 1.074580
vt 0.366304 1.003390
vt 0.519238 1.003390
vt 0.398623 0.951276
vt 0.486919 0.951276
vt -0.614908 0.965418
vt -0.614908 0.877122
vt -0.590656 0.921270
vt 1.482780 0.921270
vt 1.408430 0.879740
vt 1.485060 0.881828
vt 1.408430 0.962801
vt 1.485060 0.960712
vt 1.422410 0.921270
vt 0.734651 0.921270
vt 0.614205 0.948775
vt 0.614205 0.921270
vt 0.734663 0.948775
vt 0.614205 0.893765
vt 0.734663 0.893765
vt 0.373387 0.921270
vt 0.373403 0.950509
vt 0.373403 0.892031
vt -0.363219 0.962436
vt -0.343820 0.921270
vt -0.363219 0.880104
vt -0.549141 0.765335
vt -0.599516 0.662909
vt -0.522888 0.655609
vt -0.624870 0.770794
vt -0.570629 0.917745
vt -0.646354 0.915539
vt -0.581890 1.070160
vt -0.657656 1.166250
vt -0.657611 1.060290
vt -0.581937 1.181730
vt 0.271337 1.073680
vt 0.511976 1.165480
vt 0.511932 1.204440
vt 0.150736 1.128200
vt 0.150698 1.177260
vt 0.150788 1.061170
vt 0.271337 1.039840
vt 0.150840 0.994145
vt 0.271337 0.993608
vt 0.150879 0.945079
vt 0.512036 1.112270
vt 0.512139 1.020100
vt 0.271337 0.947376
vt 0.271337 0.913532
vt 0.512096 1.059050
vt 1.248760 1.020240
vt 1.521880 1.003390
vt 1.500450 0.951276
vt 1.265900 1.059200
vt 1.543210 1.074580
vt 1.282960 1.112410
vt 1.543150 1.145770
vt 1.282900 1.165630
vt 1.531330 1.197880
vt 1.273440 1.204580
vt 0.071818 1.431130
vt 0.050712 1.412650
vt 0.071818 1.412650
vt 0.050712 1.431130
vt 0.071818 1.196190
vt 0.071818 1.229350
vt 0.050712 1.196190
vt 0.071818 1.168640
vt 0.050712 1.168640
vt 0.071818 1.261800
vt 0.050712 1.255270
vt 0.071818 1.255270
vt 0.050712 1.261800
vt 0.050712 1.229350
vt 0.071818 1.448710
vt 0.050712 1.448710
vt 0.086545 1.555170
vt 0.068054 1.569850
vt 0.067218 1.555170
vt 0.090124 1.569850
vt 0.054604 1.569850
vt 0.036113 1.555170
vt 0.055439 1.555170
vt 0.032534 1.569850
vt 0.061329 1.520340
vt 0.071270 1.520340
vt 0.081211 1.520340
vt 0.061329 1.555170
vt 0.051388 1.520340
vt 0.041446 1.520340
vt 0.068288 1.555640
vt 0.049581 1.519530
vt 0.073076 1.519530
vt 0.054369 1.555640
vt -0.549273 1.343160
vt -0.480382 1.343160
vt -0.480382 1.365230
vt -0.549273 1.365230
vt -0.549273 1.378680
vt -0.480382 1.378680
vt -0.480382 1.400750
vt -0.549273 1.400750
vt -0.470163 1.366370
vt -0.557927 1.371960
vt -0.557927 1.366070
vt -0.470163 1.371960
vt -0.470163 1.377540
vt -0.557927 1.377850
vt -0.858415 1.361470
vt -0.837421 1.361470
vt -0.837421 1.382570
vt -0.810407 1.361470
vt -0.810407 1.382570
vt -0.779614 1.361470
vt -0.858415 1.382570
vt -0.709032 1.361470
vt -0.736039 1.382570
vt -0.736039 1.361470
vt -0.709032 1.382570
vt -0.779614 1.382570
vt 0.957747 1.378560
vt 0.880973 1.365000
vt 0.957747 1.365360
vt 0.880973 1.378920
vt -0.758315 1.555640
vt -0.864364 1.516640
vt -0.731047 1.519530
vt -0.835089 1.563810
vt 0.756014 1.168640
vt 0.748477 1.194450
vt 0.741322 1.173560
vt 0.778687 1.196190
vt 0.752691 1.228390
vt 0.787690 1.229350
vt 0.787290 1.255270
vt 0.749098 1.254830
vt 0.792273 1.261800
vt 0.739601 1.267890
vt 0.782654 1.275430
vt 0.739600 1.281370
vt 0.806877 1.275740
vt 0.806047 1.262110
vt 0.979501 1.412650
vt 0.933064 1.453960
vt 0.902272 1.454540
vt 0.987021 1.431130
vt 0.960079 1.456540
vt 0.981072 1.448710
vt 0.962811 1.401270
vt 0.858697 1.461360
vt 0.948173 1.392950
vt 0.831689 1.468890
vt 0.680866 1.520340
vt 0.592821 1.550700
vt 0.568048 1.517890
vt 0.680584 1.555170
vt 0.671931 1.569850
vt 0.603040 1.575270
vt 0.054729 1.563810
vt 0.049581 1.516640
vt 0.073076 1.516640
vt 0.067928 1.563810
vt 0.055744 1.550700
vt 0.051388 1.517890
vt 0.061329 1.517890
vt 0.037417 1.550700
vt 0.041446 1.517890
vt 0.061329 1.550700
vt 0.066914 1.550700
vt 0.071270 1.517890
vt 0.085240 1.550700
vt 0.081211 1.517890
vt 0.032534 1.575270
vt 0.054604 1.575270
vt 0.068054 1.575270
vt 0.090124 1.575270
vt 0.050840 1.267890
vt 0.050840 1.254830
vt 0.071946 1.267890
vt 0.071946 1.254830
vt 0.050840 1.281370
vt 0.071946 1.281370
vt 0.050840 1.194450
vt 0.071946 1.228390
vt 0.050840 1.228390
vt 0.050840 1.173560
vt 0.071946 1.194450
vt 0.071946 1.173560
vt 0.756014 1.382570
vt 0.741322 1.361470
vt 0.756014 1.361470
vt 0.741322 1.382570
vt 0.806047 1.361470
vt 0.792273 1.382570
vt 0.792273 1.361470
vt 0.806047 1.382570
vt 0.979502 1.361470
vt 0.979501 1.382570
vt 0.962811 1.361470
vt 0.962811 1.382570
vt 0.948173 1.361470
vt 0.948173 1.382570
vt 0.853705 1.519530
vt 0.987021 1.516640
vt 0.880973 1.555640
vt 0.957747 1.563810
vt -0.659997 1.275430
vt -0.616943 1.267890
vt -0.616943 1.281370
vt -0.669615 1.261800
vt -0.665032 1.229350
vt -0.656029 1.196190
vt -0.630033 1.228390
vt -0.664632 1.255270
vt -0.625819 1.194450
vt -0.633357 1.168640
vt -0.618664 1.173560
vt -0.626441 1.254830
vt -0.684220 1.275740
vt -0.683389 1.262110
vt -0.864364 1.431130
vt -0.837421 1.456540
vt -0.858415 1.448710
vt -0.810407 1.453960
vt -0.856844 1.412650
vt -0.779614 1.454540
vt -0.840153 1.401270
vt -0.736039 1.461360
vt -0.825516 1.392950
vt -0.709032 1.468890
vt -0.470163 1.550700
vt -0.557927 1.555170
vt -0.558208 1.520340
vt -0.445390 1.517890
vt -0.549273 1.569850
vt -0.480382 1.575270
vt -0.305278 1.093110
vt -0.329041 1.086750
vt -0.305278 1.045590
vt -0.281515 1.086750
vt -0.264119 1.069350
vt -0.346437 1.069350
vt -0.257751 1.045590
vt -0.352805 1.045590
vt -0.264119 1.021820
vt -0.346437 1.021820
vt -0.281515 1.004430
vt -0.329041 1.004430
vt -0.305278 0.998060
vt -0.284389 0.811341
vt -0.323524 0.758379
vt -0.286292 0.758379
vt -0.325426 0.811341
vt -0.326503 0.827877
vt -0.283312 0.827877
vt -0.983660 0.938356
vt -1.044270 0.932241
vt -0.983660 0.908477
vt -1.044270 0.908477
vt -1.044270 0.884714
vt -0.983660 0.878598
vt -1.044270 0.949637
vt -1.044270 0.867318
vt -0.958835 0.926723
vt -1.075260 0.930667
vt -0.958835 0.889491
vt -1.075260 0.881971
vt -1.098650 0.882018
vt -1.098650 0.934196
vt -0.928046 0.926723
vt -0.928046 0.889491
vt -0.906922 0.926723
vt -0.906922 0.889491
vt 0.660651 0.936583
vt 0.664724 0.908477
vt 0.660651 0.880372
vt -0.337310 0.908477
vt 0.475557 0.936583
vt -0.337310 0.938356
vt 0.479630 0.908477
vt 0.475557 0.880372
vt -0.337310 0.878598
vt 0.434704 0.908477
vt -0.337310 0.894207
vt 0.436649 0.895054
vt -0.337310 0.922747
vt 0.436649 0.921900
vt -0.983660 0.883761
vt 0.621743 0.895054
vt -0.983660 0.894207
vt 0.619798 0.908477
vt -0.983660 0.922747
vt 0.621743 0.921900
vt -0.983660 0.933193
vt 0.373104 1.075470
vt 0.433713 1.069350
vt 0.373104 1.097340
vt 0.373104 1.045590
vt 0.433713 1.045590
vt 0.433713 1.021820
vt 0.373104 1.015710
vt -1.218540 0.994264
vt 0.373104 0.993834
vt -1.229670 1.017250
vt -1.244880 1.048650
vt -1.260080 1.080050
vt -1.271210 1.103030
vt 0.433713 1.004430
vt 0.305678 0.721490
vt 0.470536 0.705508
vt 0.348279 0.738574
vt 0.317490 0.741773
vt 0.464706 0.727138
vt 0.288747 0.730235
vt 0.488097 0.738644
vt 0.296366 0.758379
vt 0.272077 0.747779
vt 0.269213 0.811341
vt 0.242948 0.806087
vt 0.232431 0.824615
vt 0.276398 0.827877
vt 0.225327 0.840423
vt 0.290391 0.840423
vt 0.217755 0.852145
vt 0.332317 0.850791
vt 0.571427 0.761654
vt 0.629112 0.822689
vt 0.664724 0.788641
vt 0.492826 0.760643
vt 0.629112 0.843591
vt 0.532678 0.840977
vt 0.479429 0.827055
vt 0.532678 0.860258
vt 0.461558 0.846308
vt -0.273246 0.895309
vt -1.033450 0.867741
vt -0.273246 0.873436
vt -1.044580 0.890727
vt -0.273246 0.925188
vt -1.059780 0.922126
vt -0.273246 0.955067
vt -1.074980 0.953525
vt -0.273246 0.976940
vt -1.086110 0.976510
vt -0.273246 0.949904
vt -1.067040 0.937122
vt -0.273246 0.939458
vt -1.072360 0.948099
vt -1.052520 0.907130
vt -0.273246 0.910918
vt -1.047210 0.896152
vt -0.273246 0.900472
vt 0.373104 1.070300
vt -1.252140 1.063640
vt 0.373104 1.059860
vt -1.257450 1.074620
vt -1.237610 1.033650
vt 0.373104 1.031320
vt -1.232300 1.022680
vt -0.318701 1.074620
vt -0.353958 1.080050
vt -0.328527 1.063640
vt -0.333384 1.103030
vt -0.361489 1.048650
vt -0.332124 1.048650
vt -0.328527 1.033650
vt -0.353958 1.017250
vt -0.318701 1.022680
vt -0.333384 0.994264
vt -0.305278 1.018660
vt -0.305278 0.985851
vt -0.277173 0.994264
vt -0.291855 1.022680
vt -0.256598 1.017250
vt -0.282029 1.033650
vt -0.249067 1.048650
vt -0.278432 1.048650
vt -0.282029 1.063640
vt -0.256598 1.080050
vt -0.291855 1.074620
vt -0.277173 1.103030
vt -0.305278 1.078640
vt -0.305278 1.111450
vt -0.318701 0.948099
vt -0.353958 0.953525
vt -0.328527 0.937122
vt -0.333384 0.976510
vt -0.361489 0.922126
vt -0.332124 0.922126
vt -0.328527 0.907130
vt -0.353958 0.890727
vt -0.318701 0.896152
vt -0.333384 0.867741
vt -0.305278 0.892134
vt -0.305278 0.859328
vt -0.277173 0.867741
vt -0.291855 0.896152
vt -0.256598 0.890727
vt -0.282029 0.907130
vt -0.249067 0.922126
vt -0.278432 0.922126
vt -0.282029 0.937122
vt -0.256598 0.953525
vt -0.291855 0.948099
vt -0.277173 0.976510
vt -0.305278 0.952117
vt -0.305278 0.984923
vt -0.324264 0.730235
vt -0.287032 0.730235
vt -0.324264 0.747779
vt -0.287032 0.747779
vt -0.285130 0.806087
vt -0.326167 0.806087
vt -0.327419 0.824615
vt -0.283878 0.824615
vt -0.282074 0.840423
vt -0.329223 0.840423
vt -0.330009 0.852145
vt -0.281288 0.852145
vt -0.279070 0.760643
vt -0.332226 0.760643
vt -0.331737 0.738644
vt -0.279559 0.738644
vt -0.278051 0.827055
vt -0.333246 0.827055
vt -0.278153 0.846308
vt -0.333144 0.846308
vt 0.470536 0.883058
vt 0.305678 0.926723
vt 0.305678 0.889491
vt 0.571427 0.935713
vt 0.470536 0.933156
vt 0.571427 0.880500
vt 0.664724 0.879154
vt 0.664724 0.937060
vt 0.276398 0.886511
vt 0.290391 0.930839
vt 0.276398 0.929703
vt 0.290391 0.885375
vt 0.332317 0.883253
vt 0.332317 0.932961
vt 0.373104 0.878598
vt -1.214470 0.908477
vt -1.218540 0.880372
vt 0.373104 0.908477
vt 0.373104 0.938356
vt -1.218540 0.936583
vt 0.433713 0.932241
vt 0.433713 0.908477
vt 0.433713 0.884714
vt -0.273246 0.878598
vt -1.029380 0.908477
vt -1.033450 0.880372
vt -0.273246 0.908477
vt -0.273246 0.938356
vt -1.033450 0.936583
vt -0.273246 0.922747
vt -1.072360 0.921900
vt -1.074300 0.908477
vt -1.072360 0.895054
vt -0.273246 0.894207
vt 0.373104 0.922747
vt -1.257450 0.921900
vt -1.259400 0.908477
vt -1.257450 0.895054
vt 0.373104 0.894207
vt 0.288747 0.889491
vt 0.288747 0.926723
vt -0.983660 1.097340
vt -1.044270 1.069350
vt -0.983660 1.075470
vt -0.983660 1.045590
vt -1.044270 1.045590
vt -1.044270 1.021820
vt -0.983660 1.015710
vt 0.660651 1.103030
vt 0.649522 1.080050
vt 0.634319 1.048650
vt 0.619116 1.017250
vt 0.607987 0.994264
vt -0.983660 0.993834
vt -1.044270 1.004430
vt -0.899303 0.730235
vt -0.928046 0.741773
vt -0.916234 0.721490
vt -0.958835 0.738574
vt -0.906922 0.758379
vt -0.882633 0.747779
vt -0.879769 0.811341
vt -0.853504 0.806087
vt -0.842987 0.824615
vt -0.886954 0.827877
vt -0.835883 0.840423
vt -0.900948 0.840423
vt -0.828311 0.852145
vt -0.942873 0.850791
vt -1.081090 0.705508
vt -1.098650 0.738644
vt -1.075260 0.727138
vt -1.181980 0.761654
vt -1.239670 0.822689
vt -1.275280 0.788641
vt -1.103380 0.760643
vt -1.239670 0.843591
vt -1.143230 0.840977
vt -1.089990 0.827055
vt -1.143230 0.860258
vt -1.072110 0.846308
vt 0.475557 0.976510
vt -0.337310 0.976940
vt 0.464428 0.953525
vt -0.337310 0.955067
vt 0.449225 0.922126
vt -0.337310 0.925188
vt 0.434022 0.890727
vt -0.337310 0.895309
vt 0.422893 0.867741
vt -0.337310 0.873436
vt -0.337310 0.900472
vt 0.436649 0.896152
vt -0.337310 0.910918
vt 0.441964 0.907130
vt -0.337310 0.939458
vt 0.456486 0.937122
vt -0.337310 0.949904
vt 0.461801 0.948099
vt 0.627058 1.033650
vt -0.983660 1.031320
vt 0.621743 1.022680
vt -0.983660 1.059860
vt 0.641580 1.063640
vt -0.983660 1.070300
vt 0.646895 1.074620
s 1
usemtl Handle1Mtl.047
f 1/1/1 2/2/2 3/3/3
f 1/1/1 4/4/4 2/2/2
f 4/4/4 5/5/4 2/2/2
f 4/4/4 6/6/5 5/5/4
f 6/6/5 7/7/5 5/5/4
f 6/6/5 8/8/6 7/7/5
f 8/8/6 9/9/6 7/7/5
f 8/8/6 10/10/7 9/9/6
f 10/10/7 11/11/7 9/9/6
f 12/12/8 11/11/7 10/10/7
f 15/13/9 14/14/10 13/15/11
f 16/16/9 15/13/9 13/15/11
f 17/17/12 15/13/9 16/16/9
f 20/13/13 18/17/12 19/18/14
f 21/19/15 22/13/16 23/20/16
f 24/18/17 25/21/18 22/13/16
f 26/22/19 27/23/20 28/24/21
f 28/24/22 29/25/23 30/26/24
f 29/25/23 28/24/22 31/27/25
f 33/25/26 32/19/27 34/26/28
f 34/26/28 35/21/29 36/22/30
f 38/22/19 39/24/31 40/26/22
f 43/13/32 42/19/15 41/14/33
f 44/20/32 43/13/32 37/21/18
f 45/21/34 46/26/28 47/20/28
f 47/20/28 46/26/28 48/19/27
f 52/28/16 50/29/35 49/30/36
f 53/31/37 51/23/38 50/29/35
f 50/29/35 52/28/16 53/31/37
f 51/23/38 53/31/37 54/24/37
f 54/24/37 53/31/37 55/27/39
f 56/32/40 55/27/39 53/31/37
f 53/31/37 52/28/16 56/32/40
f 57/33/41 56/32/40 52/28/16
f 59/34/42 60/35/43 58/36/44
f 60/35/43 59/34/42 61/37/45
f 61/37/45 62/38/46 60/35/43
f 62/38/46 61/37/45 63/39/47
f 62/38/46 64/40/48 65/41/49
f 66/41/50 67/42/51 68/43/52
f 67/42/51 66/41/50 69/40/53
f 69/40/48 70/38/54 71/39/47
f 72/44/55 73/45/56 74/46/57
f 75/47/58 74/46/59 76/48/60
f 77/49/61 72/44/55 75/47/62
f 77/49/61 78/38/63 79/50/64
f 80/51/65 72/44/66 79/50/64
f 81/41/67 79/50/64 78/38/63
f 79/50/64 81/41/67 82/52/68
f 80/51/65 82/52/69 83/53/26
f 84/54/27 85/53/26 86/52/69
f 88/48/60 87/55/70 89/47/58
f 90/56/71 89/47/72 91/55/73
f 90/56/71 92/49/74 89/47/72
f 93/46/57 89/47/58 94/44/55
f 95/50/64 94/44/66 92/49/75
f 86/52/68 96/51/65 95/50/64
f 97/45/76 94/44/66 98/51/77
f 98/51/77 99/57/78 97/45/76
f 99/57/78 98/51/77 100/53/79
f 100/53/79 101/58/80 99/57/78
f 102/38/81 92/49/61 103/35/82
f 104/56/83 103/35/82 92/49/61
f 103/35/82 104/56/83 105/36/84
f 106/43/33 86/52/69 107/41/85
f 86/52/69 106/43/33 108/54/15
f 109/57/86 110/59/40 111/60/87
f 110/59/40 109/57/86 112/58/88
f 113/61/89 111/60/87 110/59/40
f 111/60/87 114/45/56 109/57/86
f 111/60/87 113/61/89 115/62/90
f 115/62/90 116/63/56 111/60/87
f 114/45/56 111/60/87 116/63/56
f 116/63/56 115/62/90 117/64/91
f 118/65/92 114/45/56 116/63/56
f 117/64/91 118/65/92 116/63/56
f 114/45/56 118/65/92 119/46/93
f 118/65/92 117/64/91 120/66/94
f 121/67/95 119/46/93 118/65/92
f 118/65/92 120/66/94 121/67/95
f 121/67/95 120/66/94 122/68/96
f 119/46/93 121/67/95 123/48/97
f 124/69/98 125/70/98 126/71/99
f 124/69/98 127/72/100 125/70/98
f 128/73/100 127/72/100 124/69/98
f 129/74/101 127/72/100 128/73/100
f 127/72/100 129/74/101 130/75/101
f 131/76/102 130/75/101 129/74/101
f 130/75/101 131/76/102 132/77/102
f 133/78/103 132/77/102 131/76/102
f 132/77/102 133/78/103 134/79/103
f 136/80/103 135/81/103 137/82/104
f 138/83/105 139/84/106 140/85/107
f 141/86/44 138/83/105 142/87/108
f 143/86/44 144/88/109 145/83/110
f 144/88/109 146/84/111 145/83/110
f 147/89/112 148/90/113 149/91/114
f 148/90/113 147/89/112 150/92/115
f 151/93/116 152/89/112 153/91/117
f 152/89/112 151/93/116 154/94/118
f 155/95/119 156/91/119 157/90/70
f 155/95/119 158/93/120 156/91/119
f 155/95/119 157/90/70 159/96/121
f 158/93/120 155/95/119 160/97/122
f 162/84/123 163/89/124 161/94/125
f 163/89/124 162/84/123 164/88/126
f 165/86/127 163/89/124 164/88/126
f 163/89/124 165/86/127 166/92/128
f 170/82/129 167/98/130 168/80/131
f 171/99/132 169/96/133 167/98/130
f 167/98/130 170/82/129 171/99/132
f 169/96/133 171/99/132 172/95/134
f 171/99/132 173/97/135 172/95/134
f 170/82/129 174/100/136 171/99/132
f 173/97/135 171/99/132 174/100/136
f 174/100/136 170/82/129 175/81/137
f 177/101/138 178/102/139 176/103/111
f 178/102/139 177/101/138 179/104/140
f 180/105/141 179/104/140 177/101/138
f 179/104/140 180/105/141 181/106/142
f 183/107/143 182/108/12 184/109/144
f 184/109/144 185/105/145 183/107/143
f 185/105/145 184/109/144 186/106/142
f 187/108/146 188/107/147 189/110/14
f 190/111/19 191/112/148 192/113/149
f 193/110/150 194/114/151 195/115/18
f 194/114/151 193/110/150 196/107/152
f 196/107/152 197/116/153 194/114/151
f 197/116/153 198/117/154 194/114/151
f 199/105/155 200/118/156 197/116/153
f 201/101/157 200/118/156 199/105/155
f 200/118/156 202/119/158 197/116/153
f 203/103/159 204/120/125 201/101/160
f 205/121/161 206/117/162 202/119/163
f 206/117/162 205/121/161 207/112/164
f 207/112/164 208/111/19 206/117/162
f 210/122/165 211/123/166 209/124/167
f 211/123/166 210/122/165 212/125/168
f 212/125/168 202/119/158 211/123/166
f 213/119/158 214/125/169 215/121/170
f 216/117/154 217/116/153 213/119/163
f 217/116/153 218/107/152 219/105/171
f 220/111/30 221/114/151 216/117/154
f 221/114/151 220/111/30 222/115/34
f 213/119/158 223/118/172 224/123/173
f 225/120/118 224/123/173 223/118/172
f 224/123/173 225/120/118 226/124/174
f 227/101/160 228/120/125 223/118/172
f 230/126/175 232/125/176 229/122/177
f 233/127/178 230/126/175 231/128/179
f 232/125/176 230/126/175 234/129/180
f 230/126/175 233/127/178 234/129/180
f 234/129/180 235/121/181 232/125/176
f 236/130/182 234/129/180 233/127/178
f 234/129/180 236/130/182 237/131/181
f 235/121/181 234/129/180 237/131/181
f 238/132/183 237/131/181 236/130/182
f 239/133/184 235/121/181 237/131/181
f 237/131/181 238/132/183 239/133/184
f 235/121/181 239/133/184 240/112/185
f 241/134/186 239/133/184 238/132/183
f 242/135/35 240/112/185 239/133/184
f 239/133/184 241/134/186 242/135/35
f 240/112/185 242/135/35 243/113/187
usemtl Barrel1Mtl
f 244/136/188 245/137/188 246/138/188
f 247/137/189 248/136/189 249/139/189
f 250/140/190 251/141/191 252/142/192
f 253/143/193 250/140/190 252/142/192
f 253/143/193 252/142/192 254/144/193
f 255/145/194 256/146/191 257/147/191
f 256/146/191 255/145/194 258/148/194
f 259/141/195 260/149/195 261/142/190
f 259/141/195 262/146/195 260/149/195
f 259/141/195 263/147/195 262/146/195
f 264/150/196 265/151/196 266/136/197
f 266/136/197 265/151/196 267/139/197
f 268/152/198 269/153/198 270/154/198
f 269/153/198 268/152/198 271/155/198
f 272/156/198 273/157/198 274/158/198
f 273/157/198 272/156/198 275/159/198
f 276/154/199 277/160/200 278/161/200
f 279/162/200 276/154/199 278/161/200
f 279/162/200 280/152/199 276/154/199
f 277/160/200 276/154/199 281/163/201
f 277/160/200 281/163/201 282/158/200
f 277/160/200 282/158/200 283/164/200
f 282/158/200 284/165/201 283/164/200
f 284/165/201 282/158/200 285/157/200
f 286/166/202 287/167/202 288/168/203
f 287/167/202 286/166/202 289/169/202
f 290/170/204 291/171/204 292/172/204
f 290/170/204 292/172/204 293/173/204
f 294/174/204 295/175/204 296/176/204
f 294/174/204 296/176/204 297/177/204
f 298/178/205 299/179/205 300/180/205
f 299/179/205 298/178/205 301/181/205
f 299/179/205 301/181/205 302/182/205
f 299/179/205 302/182/205 303/183/205
f 304/184/196 305/185/206 306/186/206
f 305/185/206 307/187/207 306/186/206
f 307/187/207 308/188/207 306/186/206
f 307/187/207 309/189/208 308/188/207
f 304/184/196 306/186/206 310/190/196
f 311/191/209 312/192/210 313/193/210
f 312/192/210 311/191/209 314/194/211
f 315/189/208 316/195/208 317/188/207
f 315/189/208 318/193/212 316/195/208
f 319/192/212 316/195/208 318/193/212
f 320/196/213 321/197/213 322/198/213
f 321/197/213 320/196/213 323/199/208
f 324/200/214 325/201/214 326/202/214
f 325/201/214 324/200/214 327/203/214
f 328/204/215 329/205/216 330/206/216
f 329/205/216 328/204/215 331/207/216
f 332/207/217 333/208/216 334/205/216
f 333/208/216 332/207/217 335/209/216
f 336/210/218 333/208/216 335/209/216
f 333/208/216 336/210/218 337/211/217
f 338/211/218 339/210/216 340/212/216
f 338/211/218 340/212/216 341/213/216
f 341/213/216 340/212/216 342/214/216
f 341/213/216 342/214/216 343/215/217
f 340/212/216 344/216/216 342/214/216
f 344/216/216 340/212/216 345/217/217
f 346/218/216 347/219/216 348/220/216
f 347/219/216 346/218/216 349/221/217
f 349/221/217 350/222/218 347/219/216
f 350/222/218 349/221/217 351/223/216
f 348/220/216 352/224/218 346/218/216
f 353/225/217 352/224/218 348/220/216
f 353/225/217 354/226/216 352/224/218
f 354/226/216 353/225/217 355/227/216
f 356/228/219 357/229/219 358/230/219
f 357/229/219 356/228/219 359/231/219
f 360/232/220 361/229/220 362/231/220
f 361/229/220 360/232/220 363/233/220
f 364/232/221 365/229/221 366/231/221
f 365/229/221 364/232/221 367/233/221
f 368/234/222 369/235/223 370/236/224
f 368/234/222 370/236/224 371/237/222
f 372/238/225 373/239/225 374/240/225
f 375/241/226 373/239/225 372/238/225
f 373/239/225 375/241/226 376/242/225
f 372/238/225 374/240/225 377/243/225
f 374/240/225 378/244/227 377/243/225
f 378/244/227 374/240/225 379/245/225
f 379/245/225 380/246/225 378/244/227
f 380/246/225 379/245/225 381/247/226
f 382/248/228 383/241/228 384/249/228
f 383/241/228 385/238/228 384/249/228
f 386/250/228 387/246/229 388/251/229
f 387/246/229 386/250/228 389/244/228
f 390/252/230 391/253/231 392/254/230
f 391/253/231 393/255/231 392/254/230
f 394/256/99 392/254/232 395/257/99
f 394/256/99 396/252/232 392/254/232
f 397/258/233 398/259/234 399/260/234
f 400/255/235 399/260/234 398/259/234
f 399/260/234 400/255/235 401/253/235
f 402/261/236 403/262/233 404/258/233
f 403/262/233 402/261/236 405/263/237
f 406/259/234 404/258/233 403/262/233
f 407/264/238 408/265/238 409/266/238
f 408/265/238 407/264/238 410/267/238
f 413/268/239 412/269/240 411/270/240
f 412/269/240 413/268/239 414/271/241
f 415/272/242 416/273/242 417/274/242
f 417/274/242 416/273/242 418/275/242
f 419/276/243 420/274/243 421/277/243
f 420/274/243 422/275/243 421/277/243
f 423/278/244 424/279/244 425/280/244
f 425/280/244 424/279/244 426/281/244
f 427/282/245 428/283/246 429/284/246
f 428/283/246 427/282/245 430/285/245
f 431/286/247 432/287/248 433/288/248
f 434/289/246 431/286/247 433/288/248
f 433/288/248 432/287/248 435/290/248
f 432/287/248 436/291/248 435/290/248
f 435/290/248 436/291/248 437/292/245
f 438/293/248 434/289/246 433/288/248
f 438/293/248 439/285/246 434/289/246
f 439/285/246 438/293/248 440/283/246
f 441/282/246 442/294/249 439/285/245
f 439/285/245 442/294/249 443/295/246
f 444/296/246 445/297/247 446/298/250
f 444/296/246 447/299/245 445/297/247
f 448/300/248 449/299/246 450/296/249
f 448/300/248 451/301/247 449/299/246
f 452/302/246 451/301/247 448/300/248
f 452/302/246 453/303/245 451/301/247
f 454/304/246 455/303/249 456/302/246
f 454/304/246 457/305/247 455/303/249
f 458/306/251 459/307/251 460/308/251
f 458/306/251 460/308/251 461/309/251
f 462/306/252 463/310/252 464/307/252
f 463/310/252 462/306/252 465/311/252
f 466/306/253 467/310/254 468/307/253
f 467/310/254 466/306/253 469/311/254
usemtl Barrel21Mtl
f 470/312/255 471/313/256 472/314/7
f 473/315/257 474/312/255 475/314/7
f 476/316/258 477/315/257 478/314/7
f 479/313/256 480/317/259 481/314/7
f 482/318/260 483/316/258 484/314/7
f 485/317/261 486/319/262 487/314/7
f 488/320/263 489/318/260 490/314/7
f 491/319/262 492/321/264 493/314/7
f 494/322/265 495/320/266 496/314/7
f 497/321/264 498/323/267 499/314/268
f 500/324/269 501/322/270 502/314/7
f 503/323/267 504/324/269 505/314/7
f 508/325/271 506/326/272 507/327/273
f 506/326/272 508/325/271 509/328/274
f 508/325/271 510/329/275 509/328/274
f 511/330/276 510/329/275 508/325/271
f 512/331/277 513/332/278 514/333/279
f 515/334/212 514/333/279 513/332/278
f 516/333/279 517/335/280 518/336/281
f 517/335/280 516/333/279 519/334/282
f 522/332/283 521/331/284 520/337/285
f 524/338/286 523/336/287 525/335/288
f 526/339/208 527/340/289 528/341/208
f 529/342/32 528/341/208 527/340/289
f 529/342/32 527/340/289 530/343/290
f 530/343/290 527/340/289 531/344/291
f 532/341/208 533/345/292 526/339/213
f 534/346/293 533/345/292 532/341/208
f 534/346/293 535/347/294 533/345/292
f 536/348/294 535/347/294 534/346/293
f 539/333/279 538/349/295 537/331/296
f 538/349/295 539/333/279 540/350/37
f 540/350/37 539/333/279 541/351/297
f 542/336/281 541/351/297 539/333/279
f 545/352/37 544/353/295 543/354/298
f 544/353/295 545/352/37 546/355/299
f 546/355/299 545/352/37 547/356/297
f 548/357/300 547/356/297 545/352/37
f 551/358/301 550/359/302 549/360/303
f 550/359/302 551/358/301 552/352/301
f 551/358/301 553/361/304 552/352/301
f 553/361/304 551/358/301 554/362/305
f 555/363/306 556/364/303 557/365/298
f 558/366/37 557/365/298 556/364/303
f 557/365/298 558/366/37 559/333/37
f 558/366/37 560/367/300 559/333/37
f 560/367/300 558/366/37 561/368/305
f 560/367/300 561/368/305 562/369/307
f 563/370/308 564/371/285 565/372/284
f 566/373/309 567/371/310 568/370/311
f 567/371/310 566/373/309 569/374/312
f 570/375/313 571/373/314 572/376/315
f 571/373/314 570/375/313 573/374/312
f 576/376/316 575/377/317 574/378/318
f 575/377/317 576/376/316 577/379/319
f 578/373/314 577/379/319 576/376/316
f 577/379/319 578/373/314 579/380/320
f 580/370/311 579/380/320 578/373/314
f 579/380/320 580/370/311 581/381/321
f 582/372/284 581/381/321 580/370/311
f 581/381/321 582/372/284 583/382/322
f 584/383/323 585/376/316 586/378/324
f 585/376/316 584/383/323 587/375/325
f 588/384/326 589/385/327 590/386/328
f 591/387/216 588/384/326 590/386/328
f 590/386/328 589/385/327 592/388/329
f 588/384/326 591/387/216 593/389/217
f 589/385/327 594/390/330 592/388/329
f 595/391/331 593/389/217 591/387/216
f 593/389/217 595/391/331 596/392/332
f 597/393/333 596/392/332 595/391/331
f 596/392/332 597/393/333 598/394/334
f 597/393/333 599/395/335 598/394/334
f 600/396/336 599/395/335 597/393/333
f 600/396/336 601/397/337 599/395/335
f 602/398/338 601/397/337 600/396/336
f 601/397/337 602/398/338 603/399/219
f 604/400/219 603/399/219 602/398/338
f 589/385/327 605/401/339 594/390/330
f 606/402/340 594/390/330 605/401/339
f 606/402/340 605/401/339 607/403/339
f 606/402/340 608/404/341 594/390/330
f 608/404/341 606/402/340 609/405/342
f 608/404/341 609/405/342 610/406/342
f 608/404/341 610/406/342 611/407/342
f 612/408/343 611/407/342 610/406/342
f 611/407/342 612/408/343 613/409/343
f 616/410/344 615/411/345 614/412/318
f 615/411/345 616/410/344 617/413/319
f 618/414/346 617/413/319 616/410/344
f 617/413/319 618/414/346 619/415/347
f 620/416/348 619/415/347 618/414/346
f 619/415/347 620/416/348 621/417/321
f 622/418/349 621/417/321 620/416/348
f 621/417/321 622/418/349 623/419/322
f 624/420/350 625/421/351 626/422/352
f 625/421/351 624/420/350 627/423/353
f 628/415/354 626/422/352 625/421/351
f 626/422/352 628/415/354 629/414/216
f 630/424/355 629/414/216 628/415/354
f 629/414/216 630/424/355 631/425/356
f 632/426/357 631/425/356 630/424/355
f 631/425/356 632/426/357 633/427/358
f 634/428/350 635/429/359 636/430/360
f 635/429/359 634/428/350 637/431/361
f 638/380/354 636/430/360 635/429/359
f 636/430/360 638/380/354 639/373/216
f 640/432/355 639/373/216 638/380/354
f 639/373/216 640/432/355 641/433/362
f 642/434/363 641/433/362 640/432/355
f 643/435/364 644/436/365 645/437/364
f 644/436/365 643/435/364 646/438/365
f 647/439/365 645/437/364 644/436/365
f 645/437/364 647/439/365 648/440/365
f 647/439/365 649/441/366 648/440/365
f 650/442/365 649/441/366 647/439/365
f 649/441/366 650/442/365 651/443/365
f 651/443/365 650/442/365 652/444/365
f 652/444/365 653/445/365 651/443/365
f 653/445/365 652/444/365 654/446/364
f 655/447/364 653/445/365 654/446/364
f 653/445/365 655/447/364 656/448/365
f 657/449/364 656/448/365 655/447/364
f 656/448/365 657/449/364 658/450/364
f 659/451/365 658/450/364 657/449/364
f 658/450/364 659/451/365 660/452/365
f 659/451/365 661/453/365 660/452/365
f 661/453/365 659/451/365 662/454/365
f 662/454/365 663/455/365 661/453/365
f 662/454/365 664/456/366 663/455/365
f 664/456/366 665/457/365 663/455/365
f 666/458/365 665/457/365 664/456/366
f 667/438/365 665/457/365 666/458/365
f 665/457/365 667/438/365 668/435/364
f 669/459/365 670/460/365 671/461/365
f 670/460/365 669/459/365 672/462/366
f 673/463/365 671/461/365 670/460/365
f 671/461/365 673/463/365 674/464/365
f 673/463/365 675/465/365 674/464/365
f 676/466/365 675/465/365 673/463/365
f 675/465/365 676/466/365 677/467/365
f 677/467/365 676/466/365 678/468/364
f 678/468/364 679/469/365 677/467/365
f 679/469/365 678/468/364 680/470/364
f 681/471/365 679/469/365 680/470/364
f 679/469/365 681/471/365 682/472/365
f 683/473/365 682/472/365 681/471/365
f 682/472/365 683/473/365 684/474/365
f 685/475/365 684/474/365 683/473/365
f 684/474/365 685/475/365 686/476/365
f 685/475/365 687/477/365 686/476/365
f 687/477/365 685/475/365 688/478/365
f 688/478/365 689/479/365 687/477/365
f 688/478/365 690/480/365 689/479/365
f 690/480/365 691/481/365 689/479/365
f 692/482/364 691/481/365 690/480/365
f 693/462/365 691/481/365 692/482/364
f 691/481/365 693/462/365 694/459/365
f 695/483/367 696/484/367 697/485/368
f 697/485/368 696/484/367 698/486/368
f 697/485/368 698/486/368 699/487/369
f 700/488/370 697/485/368 699/487/369
f 700/488/370 699/487/369 701/489/370
f 701/489/370 699/487/369 702/490/369
f 703/491/371 701/489/370 702/490/369
f 701/489/370 703/491/371 704/492/371
f 703/491/371 705/493/372 704/492/371
f 705/493/372 703/491/371 706/494/373
f 707/495/374 708/496/374 709/497/98
f 709/497/98 710/498/98 707/495/374
f 708/496/374 707/495/374 711/499/375
f 712/500/376 708/496/374 711/499/375
f 713/501/377 712/500/376 711/499/375
f 712/500/376 713/501/377 714/502/378
f 715/503/379 716/504/380 717/505/380
f 715/503/109 718/506/381 719/507/109
f 715/503/109 720/508/381 718/506/381
f 721/509/382 718/506/381 720/508/381
f 718/506/381 721/509/382 722/510/129
f 724/511/275 725/512/383 723/513/275
f 726/514/383 725/512/383 724/511/275
f 727/515/112 725/512/383 726/514/383
f 725/512/383 727/515/112 728/516/112
f 729/504/384 730/503/379 731/507/379
f 733/517/385 734/518/134 732/519/386
f 734/518/134 733/517/385 735/520/387
f 736/521/388 734/518/134 735/520/387
f 734/518/134 736/521/388 737/522/389
f 738/520/387 739/523/390 740/521/388
f 739/523/390 738/520/387 741/524/391
f 742/525/392 743/520/387 744/517/385
f 743/520/387 742/525/392 745/524/393
f 747/526/385 748/527/387 746/528/394
f 748/527/387 747/526/385 749/529/387
f 750/530/388 748/527/387 749/529/387
f 748/527/387 750/530/388 751/531/345
f 752/532/395 753/533/396 754/529/134
f 755/534/134 754/529/134 753/533/396
f 756/535/361 754/529/134 755/534/134
f 754/529/134 756/535/361 757/536/397
f 758/537/395 759/538/396 760/520/134
f 761/539/134 760/520/134 759/538/396
f 762/540/361 760/520/134 761/539/134
f 760/520/134 762/540/361 763/541/398
f 764/505/384 765/504/399 766/542/400
f 766/542/400 765/504/399 767/543/400
f 768/544/287 769/545/286 770/546/401
f 771/545/402 772/547/403 773/546/404
f 772/547/403 771/545/402 774/548/405
f 775/547/406 776/549/407 777/550/408
f 776/549/407 775/547/406 778/548/405
f 779/551/409 780/544/287 781/552/410
f 781/552/410 780/544/287 782/546/404
f 781/552/410 782/546/404 783/553/411
f 783/553/411 782/546/404 784/547/403
f 783/553/411 784/547/403 785/554/412
f 785/554/412 784/547/403 786/550/408
f 785/554/412 786/550/408 787/555/413
f 787/555/413 786/550/408 788/556/414
f 789/550/415 790/557/416 791/556/414
f 790/557/416 789/550/415 792/549/417
f 793/558/246 794/559/246 795/560/418
f 796/561/419 795/560/418 794/559/246
f 793/558/246 797/562/420 794/559/246
f 798/563/421 797/562/420 793/558/246
f 798/563/421 799/564/422 797/562/420
f 799/564/422 798/563/421 800/565/423
f 801/566/424 799/564/422 800/565/423
f 799/564/422 801/566/424 802/567/425
f 803/568/426 802/567/425 801/566/424
f 802/567/425 803/568/426 804/569/427
f 805/570/251 804/569/427 803/568/426
f 805/570/251 806/571/251 804/569/427
f 807/561/419 808/572/428 809/560/418
f 810/573/429 808/572/428 811/574/428
f 812/575/430 808/572/428 810/573/429
f 810/573/429 813/576/431 812/575/430
f 812/575/430 813/576/431 814/577/432
f 813/576/431 810/573/429 815/578/429
f 815/578/429 816/579/433 813/576/431
f 815/578/429 817/580/429 816/579/433
f 817/580/429 815/578/429 818/581/429
f 818/581/429 819/582/434 817/580/429
f 820/583/434 819/582/434 818/581/429
f 821/584/409 822/585/435 823/586/410
f 823/586/410 822/585/435 824/587/436
f 823/586/410 824/587/436 825/588/437
f 825/588/437 824/587/436 826/589/438
f 825/588/437 826/589/438 827/590/412
f 827/590/412 826/589/438 828/591/439
f 827/590/412 828/591/439 829/592/394
f 829/592/394 828/591/439 830/593/414
f 831/594/440 832/595/441 833/596/442
f 834/597/443 833/596/442 832/595/441
f 833/596/442 834/597/443 835/589/246
f 836/588/444 835/589/246 834/597/443
f 835/589/246 836/588/444 837/598/445
f 838/599/446 837/598/445 836/588/444
f 837/598/445 838/599/446 839/600/447
f 840/601/396 839/600/447 838/599/446
f 841/572/428 842/561/419 843/574/428
f 846/602/443 845/603/448 844/604/449
f 845/603/448 846/602/443 847/547/246
f 848/553/444 847/547/246 846/602/443
f 847/547/246 848/553/444 849/605/445
f 850/606/450 849/605/445 848/553/444
f 849/605/445 850/606/450 851/607/451
f 852/608/396 851/607/451 850/606/450
