# Blender 5.1.2
# www.blender.org
mtllib Detacher.mtl
o Detacher
v 0.140005 0.407144 -0.140009
v 0.140005 0.407144 0.139992
v 0.140005 -0.112856 -0.140009
v 0.140005 -0.112856 0.139992
v -0.139996 0.407144 0.139992
v 0.140005 0.407144 0.139992
v -0.139996 0.407144 -0.140009
v 0.140005 0.407144 -0.140009
v 0.140005 0.407144 0.139992
v -0.139996 0.407144 0.139992
v 0.140005 -0.112856 0.139992
v -0.139996 -0.112856 0.139992
v -0.139996 0.407144 0.139992
v -0.139996 0.407144 -0.140009
v -0.139996 -0.112856 0.139992
v -0.139996 -0.112856 -0.140009
v -0.139996 -0.112856 -0.140009
v 0.140005 -0.112856 -0.140009
v -0.139996 -0.112856 0.139992
v 0.140005 -0.112856 0.139992
v -0.139996 0.407144 -0.140009
v 0.140005 0.407144 -0.140009
v -0.139996 -0.112856 -0.140009
v 0.140005 -0.112856 -0.140009
v 0.300005 -0.012857 -0.240009
v 0.240005 -0.162856 -0.300009
v 0.240005 -0.012857 -0.300009
v 0.300005 -0.162856 -0.240009
v 0.270004 0.037144 -0.210009
v 0.210005 -0.012857 -0.270010
v 0.210005 0.037144 -0.270010
v 0.270004 -0.012856 -0.210009
v 0.300005 -0.012856 0.239990
v 0.300005 -0.162856 -0.240009
v 0.300005 -0.012857 -0.240009
v 0.300005 -0.162856 0.239990
v 0.270004 0.037144 0.209991
v 0.270004 -0.012856 -0.210009
v 0.270004 0.037144 -0.210009
v 0.270004 -0.012856 0.209991
v -0.209995 0.037144 0.269991
v 0.210005 0.037144 0.269991
v 0.210005 0.037144 -0.270010
v 0.270004 0.037144 0.209991
v 0.270004 0.037144 -0.210009
v -0.269995 0.037144 0.209991
v -0.209995 0.037144 -0.270010
v -0.269995 0.037144 -0.210009
v -0.239994 -0.012856 0.299992
v 0.240005 -0.012856 0.299992
v 0.240005 -0.012857 -0.300009
v 0.300005 -0.012856 0.239990
v 0.300005 -0.012857 -0.240009
v -0.299995 -0.012856 0.239990
v -0.239994 -0.012857 -0.300009
v -0.299995 -0.012857 -0.240009
v -0.239994 -0.012856 0.299992
v -0.299995 -0.012856 0.239990
v -0.239994 -0.162856 0.299992
v -0.299995 -0.162856 0.239990
v 0.300005 -0.012856 0.239990
v 0.240005 -0.012856 0.299992
v 0.300005 -0.162856 0.239990
v 0.240005 -0.162856 0.299992
v -0.269995 -0.012856 0.209991
v -0.209995 -0.012856 0.269991
v -0.269995 0.037144 0.209991
v -0.209995 0.037144 0.269991
v 0.210005 -0.012856 0.269991
v 0.270004 -0.012856 0.209991
v 0.210005 0.037144 0.269991
v 0.270004 0.037144 0.209991
v -0.239994 -0.012856 0.299992
v 0.240005 -0.162856 0.299992
v 0.240005 -0.012856 0.299992
v -0.239994 -0.162856 0.299992
v -0.209995 0.037144 0.269991
v 0.210005 -0.012856 0.269991
v 0.210005 0.037144 0.269991
v -0.209995 -0.012856 0.269991
v -0.299995 -0.012857 -0.240009
v -0.239994 -0.012857 -0.300009
v -0.299995 -0.162856 -0.240009
v -0.239994 -0.162856 -0.300009
v -0.209995 -0.012857 -0.270010
v -0.269995 -0.012856 -0.210009
v -0.209995 0.037144 -0.270010
v -0.269995 0.037144 -0.210009
v -0.299995 -0.012857 -0.240009
v -0.299995 -0.162856 0.239990
v -0.299995 -0.012856 0.239990
v -0.299995 -0.162856 -0.240009
v -0.269995 0.037144 -0.210009
v -0.269995 -0.012856 0.209991
v -0.269995 0.037144 0.209991
v -0.269995 -0.012856 -0.210009
v -0.239994 -0.162856 -0.300009
v 0.240005 -0.162856 -0.300009
v 0.300005 -0.162856 0.239990
v 0.300005 -0.162856 -0.240009
v 0.240005 -0.162856 0.299992
v -0.239994 -0.162856 0.299992
v -0.299995 -0.162856 0.239990
v -0.299995 -0.162856 -0.240009
v 0.240005 -0.012857 -0.300009
v -0.239994 -0.162856 -0.300009
v -0.239994 -0.012857 -0.300009
v 0.240005 -0.162856 -0.300009
v 0.210005 0.037144 -0.270010
v -0.209995 -0.012857 -0.270010
v -0.209995 0.037144 -0.270010
v 0.210005 -0.012857 -0.270010
vn 1.0000 -0.0000 -0.0000
vn -0.0000 1.0000 -0.0000
vn -0.0000 -0.0000 1.0000
vn -1.0000 -0.0000 -0.0000
vn -0.0000 -1.0000 -0.0000
vn -0.0000 -0.0000 -1.0000
vn 0.7071 -0.0000 -0.7071
vn -0.7071 -0.0000 0.7071
vn 0.7071 -0.0000 0.7071
vn -0.7071 -0.0000 -0.7071
vt 0.533338 1.116900
vt 0.253338 1.116900
vt 0.533338 0.596901
vt 0.253338 0.596901
vt 0.533338 0.836901
vt 0.253338 0.836901
vt -0.044586 0.795938
vt 0.033414 0.600938
vt 0.033414 0.795938
vt -0.044586 0.600938
vt -0.083586 0.860938
vt -0.005586 0.795938
vt -0.005586 0.860938
vt -0.083586 0.795938
vt -0.668586 0.795938
vt -0.668586 0.600938
vt -0.629586 0.860938
vt -0.629586 0.795938
vt -0.083586 1.081940
vt -0.629586 1.081940
vt -0.629586 0.379938
vt -0.707586 1.003940
vt -0.707586 0.457938
vt -0.005586 1.003940
vt -0.083586 0.379938
vt -0.005586 0.457938
vt -0.044586 1.120940
vt -0.668586 1.120940
vt -0.668586 0.340938
vt -0.746586 1.042940
vt -0.746586 0.418938
vt 0.033414 1.042940
vt -0.044586 0.340938
vt 0.033414 0.418938
vt -0.746586 0.795938
vt -0.746586 0.600938
vt -0.707586 0.795938
vt -0.707586 0.860938
vt -0.044585 0.600938
vt -0.044585 0.795938
vt -0.083586 0.795938
vt -0.083586 0.860938
s 1
usemtl Thingy1Mtl
f 1/1/1 2/2/1 3/3/1
f 3/3/1 2/2/1 4/4/1
f 5/1/2 6/2/2 7/5/2
f 7/5/2 6/2/2 8/6/2
f 9/1/3 10/2/3 11/3/3
f 11/3/3 10/2/3 12/4/3
f 13/1/4 14/2/4 15/3/4
f 15/3/4 14/2/4 16/4/4
f 17/1/5 18/2/5 19/5/5
f 19/5/5 18/2/5 20/6/5
f 21/1/6 22/2/6 23/3/6
f 23/3/6 22/2/6 24/4/6
usemtl Handle1Mtl.013
f 25/7/7 26/8/7 27/9/7
f 26/8/7 25/7/7 28/10/7
f 29/11/7 30/12/7 31/13/7
f 30/12/7 29/11/7 32/14/7
f 33/15/1 34/10/1 35/7/1
f 34/10/1 33/15/1 36/16/1
f 37/17/1 38/14/1 39/11/1
f 38/14/1 37/17/1 40/18/1
f 41/19/2 42/20/2 43/21/2
f 43/21/2 42/20/2 44/22/2
f 43/21/2 44/22/2 45/23/2
f 43/21/2 46/24/2 41/19/2
f 46/24/2 43/21/2 47/25/2
f 46/24/2 47/25/2 48/26/2
f 49/27/2 50/28/2 51/29/2
f 51/29/2 50/28/2 52/30/2
f 51/29/2 52/30/2 53/31/2
f 51/29/2 54/32/2 49/27/2
f 54/32/2 51/29/2 55/33/2
f 54/32/2 55/33/2 56/34/2
f 57/15/8 58/35/8 59/16/8
f 58/35/8 60/36/8 59/16/8
f 61/9/9 62/7/9 63/8/9
f 62/7/9 64/10/9 63/8/9
f 65/37/8 66/18/8 67/38/8
f 68/17/8 67/38/8 66/18/8
f 69/14/9 70/12/9 71/11/9
f 72/13/9 71/11/9 70/12/9
f 73/15/3 74/10/3 75/7/3
f 74/10/3 73/15/3 76/16/3
f 77/17/3 78/14/3 79/11/3
f 78/14/3 77/17/3 80/18/3
f 81/15/10 82/35/10 83/16/10
f 82/35/10 84/36/10 83/16/10
f 85/37/10 86/18/10 87/38/10
f 88/17/10 87/38/10 86/18/10
f 89/15/4 90/39/4 91/40/4
f 90/39/4 89/15/4 92/16/4
f 93/17/4 94/41/4 95/42/4
f 94/41/4 93/17/4 96/18/4
f 97/29/5 98/33/5 99/32/5
f 99/32/5 98/33/5 100/34/5
f 101/27/5 97/29/5 99/32/5
f 97/29/5 101/27/5 102/28/5
f 97/29/5 102/28/5 103/30/5
f 97/29/5 103/30/5 104/31/5
f 105/15/6 106/10/6 107/7/6
f 106/10/6 105/15/6 108/16/6
f 109/17/6 110/14/6 111/11/6
f 110/14/6 109/17/6 112/18/6
