# Blender 5.1.2
# www.blender.org
mtllib Hood.mtl
o Hood
v 2.774050 0.039092 -0.912624
v 2.774050 0.139093 1.925278
v 2.774050 0.039093 1.925278
v 2.774050 0.139093 -1.012623
v 2.774050 -0.178187 -1.012623
v 2.774050 -0.178187 -0.912624
v -0.000000 0.139093 -1.012623
v -2.774050 0.139093 -1.012623
v -2.774050 0.139093 1.925278
v -0.000000 0.139093 1.925278
v 2.774050 0.139093 1.925278
v 2.774050 0.139093 -1.012623
v -0.000000 0.039093 1.925278
v -2.774050 0.139093 1.925278
v -2.774050 0.039093 1.925278
v -0.000000 0.139093 1.925278
v 2.774050 0.139093 1.925278
v 2.774050 0.039093 1.925278
v -2.774050 -0.178187 -0.912624
v -0.000000 -0.178187 -0.912624
v -0.000000 0.039092 -0.912624
v -2.774050 0.039092 -0.912624
v 2.774050 -0.178187 -0.912624
v 2.774050 0.039092 -0.912624
v -2.774050 0.139093 1.925278
v -2.774050 0.039092 -0.912624
v -2.774050 0.039093 1.925278
v -2.774050 0.139093 -1.012623
v -2.774050 -0.178187 -1.012623
v -2.774050 -0.178187 -0.912624
v -2.774050 -0.178187 -1.012623
v -0.000000 -0.178187 -1.012623
v -0.000000 -0.178187 -0.912624
v -2.774050 -0.178187 -0.912624
v 2.774050 -0.178187 -1.012623
v 2.774050 -0.178187 -0.912624
v -2.774050 0.039092 -0.912624
v -0.000000 0.039092 -0.912624
v -0.000000 0.039093 1.925278
v -2.774050 0.039093 1.925278
v 2.774050 0.039092 -0.912624
v 2.774050 0.039093 1.925278
v -0.000000 0.139093 -1.012623
v -2.774050 -0.178187 -1.012623
v -2.774050 0.139093 -1.012623
v -0.000000 -0.178187 -1.012623
v 2.774050 -0.178187 -1.012623
v 2.774050 0.139093 -1.012623
vn 1.0000 -0.0000 -0.0000
vn -0.0000 1.0000 -0.0000
vn -0.0000 -0.0000 1.0000
vn -1.0000 -0.0000 -0.0000
vn -0.0000 -1.0000 -0.0000
vn -0.0000 -0.0000 -1.0000
vt 3.398200 2.144720
vt 2.830620 2.164720
vt 2.830620 2.144720
vt 3.418200 2.164720
vt 3.418200 2.101270
vt 3.398200 2.101270
vt 3.124410 1.839210
vt 3.679220 1.839210
vt 3.679220 2.426780
vt 3.124410 2.426780
vt 2.569600 2.426780
vt 2.569600 1.839210
vt 3.124410 2.144720
vt 2.569600 2.164720
vt 2.569600 2.144720
vt 3.124410 2.164720
vt 3.679220 2.164720
vt 3.679220 2.144720
vt 2.569600 2.101270
vt 3.124410 2.101270
vt 3.679220 2.101270
vt 2.850620 2.144720
vt 3.418200 2.144720
vt 2.830620 2.101270
vt 2.850620 2.101270
vt 3.124410 1.859210
vt 2.569600 1.859210
vt 3.679220 1.859210
s 1
usemtl Door1Mtl.006
f 1/1/1 2/2/1 3/3/1
f 2/2/1 1/1/1 4/4/1
f 1/1/1 5/5/1 4/4/1
f 5/5/1 1/1/1 6/6/1
f 7/7/2 8/8/2 9/9/2
f 7/7/2 9/9/2 10/10/2
f 11/11/2 7/7/2 10/10/2
f 7/7/2 11/11/2 12/12/2
f 13/13/3 14/14/3 15/15/3
f 14/14/3 13/13/3 16/16/3
f 13/13/3 17/17/3 16/16/3
f 13/13/3 18/18/3 17/17/3
f 19/19/3 20/20/3 21/13/3
f 19/19/3 21/13/3 22/15/3
f 23/21/3 21/13/3 20/20/3
f 21/13/3 23/21/3 24/18/3
f 25/4/4 26/22/4 27/23/4
f 26/22/4 25/4/4 28/2/4
f 29/24/4 26/22/4 28/2/4
f 26/22/4 29/24/4 30/25/4
f 31/12/5 32/7/5 33/26/5
f 31/12/5 33/26/5 34/27/5
f 32/7/5 35/8/5 33/26/5
f 36/28/5 33/26/5 35/8/5
f 37/27/5 38/26/5 39/10/5
f 37/27/5 39/10/5 40/11/5
f 41/28/5 39/10/5 38/26/5
f 39/10/5 41/28/5 42/9/5
f 43/16/6 44/21/6 45/17/6
f 44/21/6 43/16/6 46/20/6
f 43/16/6 47/19/6 46/20/6
f 43/16/6 48/14/6 47/19/6
