# Blender 5.1.2
# www.blender.org
mtllib Gate-OR.mtl
o Gate-OR
v 1.077806 -0.065944 -0.002140
v 1.077806 -0.065944 -0.002140
v 1.077806 -0.065944 -0.002140
v 1.077806 -0.065944 -0.002140
v 1.077806 -0.065944 -0.002140
v 1.077806 -0.265944 -0.002140
v 1.077806 -0.265944 -0.002140
v 1.077806 -0.065944 -0.002140
v -0.422194 -0.265944 1.097860
v 1.077806 -0.265944 -0.002140
v -0.422194 -0.265944 -0.002140
v -0.422194 -0.265944 -0.002140
v 1.077806 -0.265944 -0.002140
v -0.422194 -0.265944 -0.002140
v -0.422194 -0.265944 -1.102139
v -0.422194 -0.265944 -0.002140
v 1.077806 -0.265944 -0.002140
v -0.422194 -0.265944 1.097860
v -0.422194 -0.265944 -0.002140
v -0.422194 -0.265944 1.097860
v -0.422194 -0.065944 1.097860
v -0.422194 -0.065944 1.097860
v -0.422194 -0.065944 -0.002140
v 1.077806 -0.065944 -0.002140
v 1.077806 -0.265944 -0.002140
v -0.422194 -0.265944 -1.102139
v 1.077806 -0.265944 -0.002140
v -0.422194 -0.065944 -1.102139
v -0.422194 -0.065944 -0.002140
v 1.077806 -0.065944 -0.002140
v -0.422194 -0.065944 -1.102139
v -0.422194 -0.265944 -1.102139
v -0.422194 -0.065944 -1.102139
v 1.077806 -0.065944 -0.002140
v -0.422194 -0.065944 -0.002140
v -0.422194 -0.065944 1.097860
v 1.077806 -0.065944 -0.002140
v -0.422194 -0.065944 -0.002140
v -0.422194 -0.065944 -0.002140
v -0.422194 -0.065944 -0.002140
v 1.077806 -0.065944 -0.002140
v -0.422194 -0.265944 -0.002140
v 1.077806 -0.265944 -0.002140
v 1.077806 -0.265944 -0.002140
v 1.077806 -0.265944 -0.002140
v 1.077806 -0.065944 -0.002140
v 1.077806 -0.065944 -0.002140
v 1.077806 -0.265944 -0.002140
v 1.077806 -0.265944 -0.002140
v 1.077806 -0.065944 -0.002140
v 1.077806 -0.265944 -0.002140
v 1.077806 -0.265944 -0.002140
v 1.077806 -0.265944 -0.002140
v 1.077806 -0.065944 -0.002140
v 0.132835 0.059056 0.492861
v 0.132835 -0.090944 0.492861
v 0.180505 0.059056 0.554960
v 0.180505 -0.090944 0.554960
v 0.210475 0.059056 0.627361
v 0.210475 -0.090944 0.627361
v 0.220695 0.059056 0.704960
v 0.220695 -0.090944 0.704960
v 0.210475 0.059056 0.782661
v 0.210475 -0.090944 0.782661
v 0.180505 0.059056 0.854961
v 0.180505 -0.090944 0.854961
v 0.132835 0.059056 0.917160
v 0.132835 -0.090944 0.917160
v -0.283165 0.059056 0.822660
v -0.237615 0.027406 0.863361
v -0.273195 0.027406 0.816961
v -0.245755 0.059056 0.871460
v -0.295555 0.027406 0.762960
v -0.273195 0.027406 0.816961
v -0.306684 0.059056 0.765961
v -0.283165 0.059056 0.822660
v -0.303185 0.027406 0.704960
v -0.295555 0.027406 0.762960
v -0.314705 0.059056 0.704960
v -0.306684 0.059056 0.765961
v -0.295555 0.027406 0.647060
v -0.303185 0.027406 0.704960
v -0.314705 0.059056 0.704960
v -0.306684 0.059056 0.644060
v -0.273195 0.027406 0.593061
v -0.295555 0.027406 0.647060
v -0.306684 0.059056 0.644060
v -0.283165 0.059056 0.587261
v -0.237615 0.027406 0.546661
v -0.273195 0.027406 0.593061
v -0.283165 0.059056 0.587261
v -0.245755 0.059056 0.538561
v -0.229305 0.059056 0.445160
v -0.245755 0.059056 0.538561
v -0.197005 0.059056 0.501160
v -0.291435 0.059056 0.492861
v -0.283165 0.059056 0.587261
v -0.291435 0.059056 0.492861
v -0.339105 0.059056 0.554960
v -0.245755 0.059056 0.538561
v -0.079305 0.059056 0.404961
v -0.140224 0.059056 0.477661
v -0.079305 0.059056 0.469561
v -0.156945 0.059056 0.415260
v -0.140224 0.059056 0.477661
v -0.229305 0.059056 0.445160
v -0.197005 0.059056 0.501160
v -0.156945 0.059056 0.415260
v -0.369075 0.059056 0.627361
v -0.314705 0.059056 0.704960
v -0.306684 0.059056 0.644060
v -0.379305 0.059056 0.704960
v -0.314705 0.059056 0.704960
v -0.379305 0.059056 0.704960
v -0.369075 0.059056 0.782661
v -0.306684 0.059056 0.765961
v -0.339105 0.059056 0.854961
v -0.283165 0.059056 0.822660
v -0.369075 0.059056 0.782661
v -0.306684 0.059056 0.765961
v -0.369075 0.059056 0.627361
v -0.283165 0.059056 0.587261
v -0.339105 0.059056 0.554960
v -0.306684 0.059056 0.644060
v -0.197005 0.059056 0.908861
v -0.291435 0.059056 0.917160
v -0.229305 0.059056 0.964861
v -0.245755 0.059056 0.871460
v -0.140224 0.059056 0.932360
v -0.229305 0.059056 0.964861
v -0.156945 0.059056 0.994761
v -0.197005 0.059056 0.908861
v -0.079305 0.059056 0.940460
v -0.156945 0.059056 0.994761
v -0.079305 0.059056 1.004961
v -0.156945 0.059056 0.994761
v -0.079305 0.059056 0.940460
v -0.140224 0.059056 0.932360
v -0.245755 0.059056 0.871460
v -0.339105 0.059056 0.854961
v -0.291435 0.059056 0.917160
v -0.283165 0.059056 0.822660
v -0.079305 0.059056 1.004961
v -0.018374 0.059056 0.932360
v -0.079305 0.059056 0.940460
v -0.001655 0.059056 0.994761
v -0.001655 0.059056 0.994761
v 0.038405 0.059056 0.908861
v -0.018374 0.059056 0.932360
v 0.070695 0.059056 0.964861
v 0.038405 0.059056 0.908861
v 0.070695 0.059056 0.964861
v 0.087155 0.059056 0.871460
v 0.132835 0.059056 0.917160
v 0.180505 0.059056 0.854961
v 0.124565 0.059056 0.822660
v 0.132835 0.059056 0.917160
v 0.087155 0.059056 0.871460
v 0.148085 0.059056 0.644060
v 0.180505 0.059056 0.554960
v 0.124565 0.059056 0.587261
v 0.210475 0.059056 0.627361
v 0.180505 0.059056 0.854961
v 0.210475 0.059056 0.782661
v 0.124565 0.059056 0.822660
v 0.148085 0.059056 0.765961
v 0.148085 0.059056 0.765961
v 0.220695 0.059056 0.704960
v 0.156106 0.059056 0.704960
v 0.220695 0.059056 0.704960
v 0.148085 0.059056 0.765961
v 0.210475 0.059056 0.782661
v 0.156106 0.059056 0.704960
v 0.210475 0.059056 0.627361
v 0.148085 0.059056 0.644060
v 0.220695 0.059056 0.704960
v 0.070695 0.059056 0.445160
v -0.018374 0.059056 0.477661
v 0.038405 0.059056 0.501160
v -0.001655 0.059056 0.415260
v -0.001655 0.059056 0.415260
v -0.079305 0.059056 0.404961
v -0.018374 0.059056 0.477661
v -0.079305 0.059056 0.469561
v 0.124565 0.059056 0.587261
v 0.132835 0.059056 0.492861
v 0.087155 0.059056 0.538561
v 0.180505 0.059056 0.554960
v 0.087155 0.059056 0.538561
v 0.132835 0.059056 0.492861
v 0.038405 0.059056 0.501160
v 0.070695 0.059056 0.445160
v -0.009035 -0.038364 0.686161
v 0.054355 -0.023814 0.669161
v -0.016304 -0.038364 0.668661
v -0.079305 -0.043374 0.704960
v 0.040525 -0.023814 0.635860
v 0.104655 -0.001154 0.655760
v 0.085635 -0.001154 0.609760
v 0.136955 0.027406 0.647060
v 0.114585 0.027406 0.593061
v 0.104655 -0.001154 0.655760
v 0.059065 -0.023814 0.704960
v 0.111145 -0.001154 0.704960
v 0.144585 0.027406 0.704960
v 0.054355 -0.023814 0.669161
v 0.136955 0.027406 0.647060
v -0.009035 -0.038364 0.686161
v -0.006555 -0.038364 0.704960
v -0.079305 -0.043374 0.704960
v 0.144585 0.027406 0.704960
v 0.104655 -0.001154 0.754261
v 0.136955 0.027406 0.762960
v 0.111145 -0.001154 0.704960
v 0.059065 -0.023814 0.704960
v 0.054355 -0.023814 0.740860
v -0.009035 -0.038364 0.723860
v -0.006555 -0.038364 0.704960
v -0.079305 -0.043374 0.704960
v -0.079305 -0.043374 0.704960
v -0.016304 -0.038364 0.741360
v -0.009035 -0.038364 0.723860
v 0.054355 -0.023814 0.740860
v 0.040525 -0.023814 0.774160
v 0.104655 -0.001154 0.754261
v 0.085635 -0.001154 0.800261
v 0.136955 0.027406 0.762960
v 0.114585 0.027406 0.816961
v 0.079005 0.027406 0.863361
v 0.114585 0.027406 0.816961
v 0.085635 -0.001154 0.800261
v 0.055366 -0.001154 0.839661
v 0.018545 -0.023814 0.802860
v 0.040525 -0.023814 0.774160
v -0.027864 -0.038364 0.756460
v -0.016304 -0.038364 0.741360
v -0.079305 -0.043374 0.704960
v -0.042925 -0.038364 0.767962
v 0.018545 -0.023814 0.802860
v -0.027864 -0.038364 0.756460
v -0.079305 -0.043374 0.704960
v -0.010115 -0.023814 0.824860
v 0.015925 -0.001154 0.869961
v 0.055366 -0.001154 0.839661
v 0.032645 0.027406 0.898861
v 0.079005 0.027406 0.863361
v -0.043485 -0.023814 0.838661
v 0.015925 -0.001154 0.869961
v -0.010115 -0.023814 0.824860
v -0.042925 -0.038364 0.767962
v -0.060475 -0.038364 0.775261
v -0.079305 -0.043374 0.704960
v -0.030005 -0.001154 0.888960
v -0.021355 0.027406 0.921261
v 0.032645 0.027406 0.898861
v -0.128595 -0.001154 0.888960
v -0.079305 0.027406 0.928860
v -0.079305 -0.001154 0.895460
v -0.137245 0.027406 0.921261
v -0.115115 -0.023814 0.838661
v -0.079305 -0.023814 0.843361
v -0.098125 -0.038364 0.775261
v -0.079305 -0.038364 0.777761
v -0.079305 -0.043374 0.704960
v -0.128595 -0.001154 0.888960
v -0.174525 -0.001154 0.869961
v -0.191245 0.027406 0.898861
v -0.148485 -0.023814 0.824860
v -0.137245 0.027406 0.921261
v -0.115115 -0.023814 0.838661
v -0.115674 -0.038364 0.767962
v -0.098125 -0.038364 0.775261
v -0.079305 -0.043374 0.704960
v -0.079305 -0.043374 0.704960
v -0.130734 -0.038364 0.756460
v -0.115674 -0.038364 0.767962
v -0.177145 -0.023814 0.802860
v -0.148485 -0.023814 0.824860
v -0.174525 -0.001154 0.869961
v -0.213964 -0.001154 0.839661
v -0.191245 0.027406 0.898861
v -0.237615 0.027406 0.863361
v -0.237615 0.027406 0.863361
v -0.273195 0.027406 0.816961
v -0.244235 -0.001154 0.800261
v -0.213964 -0.001154 0.839661
v -0.177145 -0.023814 0.802860
v -0.199135 -0.023814 0.774160
v -0.130734 -0.038364 0.756460
v -0.142295 -0.038364 0.741360
v -0.079305 -0.043374 0.704960
v -0.199135 -0.023814 0.774160
v -0.149565 -0.038364 0.723860
v -0.212955 -0.023814 0.740860
v -0.142295 -0.038364 0.741360
v -0.079305 -0.043374 0.704960
v -0.244235 -0.001154 0.800261
v -0.263255 -0.001154 0.754261
v -0.295555 0.027406 0.762960
v -0.273195 0.027406 0.816961
v -0.148485 -0.023814 0.585161
v -0.115674 -0.038364 0.641960
v -0.115115 -0.023814 0.571360
v -0.098125 -0.038364 0.634760
v -0.079305 -0.043374 0.704960
v -0.128595 -0.001154 0.521061
v -0.174525 -0.001154 0.540060
v -0.191245 0.027406 0.511160
v -0.137245 0.027406 0.488760
v -0.079305 -0.001154 0.514561
v -0.128595 -0.001154 0.521061
v -0.115115 -0.023814 0.571360
v -0.137245 0.027406 0.488760
v -0.079305 -0.023814 0.566660
v -0.079305 0.027406 0.481161
v -0.098125 -0.038364 0.634760
v -0.079305 -0.038364 0.632261
v -0.079305 -0.043374 0.704960
v -0.079305 -0.001154 0.514561
v -0.043485 -0.023814 0.571360
v -0.030005 -0.001154 0.521061
v -0.021355 0.027406 0.488760
v -0.079305 -0.023814 0.566660
v -0.079305 0.027406 0.481161
v -0.060475 -0.038364 0.634760
v -0.079305 -0.038364 0.632261
v -0.079305 -0.043374 0.704960
v -0.079305 -0.043374 0.704960
v -0.042925 -0.038364 0.641960
v -0.060475 -0.038364 0.634760
v -0.043485 -0.023814 0.571360
v -0.010115 -0.023814 0.585161
v -0.030005 -0.001154 0.521061
v 0.015925 -0.001154 0.540060
v -0.021355 0.027406 0.488760
v 0.032645 0.027406 0.511160
v 0.079005 0.027406 0.546661
v 0.032645 0.027406 0.511160
v 0.055366 -0.001154 0.570360
v 0.015925 -0.001154 0.540060
v -0.010115 -0.023814 0.585161
v 0.018545 -0.023814 0.607161
v -0.042925 -0.038364 0.641960
v -0.027864 -0.038364 0.653561
v -0.079305 -0.043374 0.704960
v -0.016304 -0.038364 0.668661
v 0.018545 -0.023814 0.607161
v -0.027864 -0.038364 0.653561
v -0.079305 -0.043374 0.704960
v 0.040525 -0.023814 0.635860
v 0.055366 -0.001154 0.570360
v 0.085635 -0.001154 0.609760
v 0.079005 0.027406 0.546661
v 0.114585 0.027406 0.593061
v -0.079305 -0.001154 0.895460
v -0.043485 -0.023814 0.838661
v -0.079305 -0.023814 0.843361
v -0.030005 -0.001154 0.888960
v -0.060475 -0.038364 0.775261
v -0.079305 -0.038364 0.777761
v -0.079305 -0.043374 0.704960
v -0.079305 0.027406 0.928860
v -0.021355 0.027406 0.921261
v -0.269745 -0.001154 0.704960
v -0.212955 -0.023814 0.740860
v -0.217665 -0.023814 0.704960
v -0.152045 -0.038364 0.704960
v -0.149565 -0.038364 0.723860
v -0.079305 -0.043374 0.704960
v -0.263255 -0.001154 0.754261
v -0.303185 0.027406 0.704960
v -0.295555 0.027406 0.762960
v -0.263255 -0.001154 0.655760
v -0.217665 -0.023814 0.704960
v -0.212955 -0.023814 0.669161
v -0.269745 -0.001154 0.704960
v -0.152045 -0.038364 0.704960
v -0.149565 -0.038364 0.686161
v -0.079305 -0.043374 0.704960
v -0.295555 0.027406 0.647060
v -0.303185 0.027406 0.704960
v -0.273195 0.027406 0.593061
v -0.263255 -0.001154 0.655760
v -0.244235 -0.001154 0.609760
v -0.199135 -0.023814 0.635860
v -0.295555 0.027406 0.647060
v -0.212955 -0.023814 0.669161
v -0.142295 -0.038364 0.668661
v -0.149565 -0.038364 0.686161
v -0.079305 -0.043374 0.704960
v -0.079305 -0.043374 0.704960
v -0.130734 -0.038364 0.653561
v -0.142295 -0.038364 0.668661
v -0.177145 -0.023814 0.607161
v -0.199135 -0.023814 0.635860
v -0.244235 -0.001154 0.609760
v -0.213964 -0.001154 0.570360
v -0.237615 0.027406 0.546661
v -0.273195 0.027406 0.593061
v -0.115674 -0.038364 0.641960
v -0.177145 -0.023814 0.607161
v -0.130734 -0.038364 0.653561
v -0.079305 -0.043374 0.704960
v -0.148485 -0.023814 0.585161
v -0.213964 -0.001154 0.570360
v -0.174525 -0.001154 0.540060
v -0.191245 0.027406 0.511160
v -0.237615 0.027406 0.546661
v -0.156945 -0.090944 0.994761
v -0.079305 -0.090944 1.004961
v -0.156945 0.059056 0.994761
v -0.079305 0.059056 1.004961
v -0.229305 0.059056 0.964861
v -0.229305 -0.090944 0.964861
v -0.291435 0.059056 0.917160
v -0.291435 -0.090944 0.917160
v 0.132835 0.059056 0.917160
v 0.132835 -0.090944 0.917160
v 0.070695 0.059056 0.964861
v 0.070695 -0.090944 0.964861
v -0.001655 0.059056 0.994761
v -0.001655 -0.090944 0.994761
v -0.079305 0.059056 1.004961
v -0.079305 -0.090944 1.004961
v -0.191245 0.027406 0.511160
v -0.137245 0.027406 0.488760
v -0.140224 0.059056 0.477661
v -0.197005 0.059056 0.501160
v -0.137245 0.027406 0.488760
v -0.079305 0.027406 0.481161
v -0.079305 0.059056 0.469561
v -0.140224 0.059056 0.477661
v -0.021355 0.027406 0.488760
v -0.079305 0.027406 0.481161
v -0.079305 0.059056 0.469561
v -0.018374 0.059056 0.477661
v -0.021355 0.027406 0.488760
v 0.032645 0.027406 0.511160
v -0.018374 0.059056 0.477661
v 0.038405 0.059056 0.501160
v 0.079005 0.027406 0.546661
v 0.038405 0.059056 0.501160
v 0.032645 0.027406 0.511160
v 0.087155 0.059056 0.538561
v -0.191245 0.027406 0.511160
v -0.237615 0.027406 0.546661
v -0.197005 0.059056 0.501160
v -0.245755 0.059056 0.538561
v -0.291435 0.059056 0.917160
v -0.291435 -0.090944 0.917160
v -0.339105 0.059056 0.854961
v -0.339105 -0.090944 0.854961
v -0.369075 0.059056 0.782661
v -0.369075 -0.090944 0.782661
v -0.379305 0.059056 0.704960
v -0.379305 -0.090944 0.704960
v -0.369075 0.059056 0.627361
v -0.369075 -0.090944 0.627361
v -0.339105 0.059056 0.554960
v -0.339105 -0.090944 0.554960
v -0.291435 0.059056 0.492861
v -0.291435 -0.090944 0.492861
v 0.136955 0.027406 0.647060
v 0.114585 0.027406 0.593061
v 0.148085 0.059056 0.644060
v 0.124565 0.059056 0.587261
v 0.144585 0.027406 0.704960
v 0.136955 0.027406 0.647060
v 0.156106 0.059056 0.704960
v 0.148085 0.059056 0.644060
v 0.144585 0.027406 0.704960
v 0.136955 0.027406 0.762960
v 0.156106 0.059056 0.704960
v 0.148085 0.059056 0.765961
v 0.136955 0.027406 0.762960
v 0.114585 0.027406 0.816961
v 0.148085 0.059056 0.765961
v 0.124565 0.059056 0.822660
v 0.124565 0.059056 0.822660
v 0.079005 0.027406 0.863361
v 0.087155 0.059056 0.871460
v 0.114585 0.027406 0.816961
v 0.079005 0.027406 0.546661
v 0.114585 0.027406 0.593061
v 0.124565 0.059056 0.587261
v 0.087155 0.059056 0.538561
v 0.132835 -0.090944 0.492861
v -0.339105 -0.090944 0.854961
v -0.229305 -0.090944 0.445160
v -0.001655 -0.090944 0.415260
v 0.070695 -0.090944 0.445160
v -0.079305 -0.090944 0.404961
v -0.156945 -0.090944 0.415260
v 0.132835 -0.090944 0.917160
v 0.180505 -0.090944 0.554960
v -0.379305 -0.090944 0.704960
v -0.369075 -0.090944 0.782661
v -0.369075 -0.090944 0.627361
v -0.291435 -0.090944 0.492861
v -0.339105 -0.090944 0.554960
v 0.220695 -0.090944 0.704960
v 0.210475 -0.090944 0.627361
v 0.180505 -0.090944 0.854961
v 0.210475 -0.090944 0.782661
v -0.229305 -0.090944 0.964861
v -0.291435 -0.090944 0.917160
v -0.079305 -0.090944 1.004961
v -0.156945 -0.090944 0.994761
v 0.070695 -0.090944 0.964861
v -0.001655 -0.090944 0.994761
v -0.291435 0.059056 0.492861
v -0.291435 -0.090944 0.492861
v -0.229305 0.059056 0.445160
v -0.229305 -0.090944 0.445160
v -0.156945 0.059056 0.415260
v -0.156945 -0.090944 0.415260
v -0.079305 0.059056 0.404961
v -0.079305 -0.090944 0.404961
v -0.001655 0.059056 0.415260
v -0.001655 -0.090944 0.415260
v 0.070695 0.059056 0.445160
v 0.070695 -0.090944 0.445160
v 0.132835 0.059056 0.492861
v 0.132835 -0.090944 0.492861
v 0.032645 0.027406 0.898861
v 0.079005 0.027406 0.863361
v 0.038405 0.059056 0.908861
v 0.087155 0.059056 0.871460
v -0.021355 0.027406 0.921261
v 0.032645 0.027406 0.898861
v -0.018374 0.059056 0.932360
v 0.038405 0.059056 0.908861
v -0.079305 0.027406 0.928860
v -0.137245 0.027406 0.921261
v -0.079305 0.059056 0.940460
v -0.140224 0.059056 0.932360
v -0.191245 0.027406 0.898861
v -0.137245 0.027406 0.921261
v -0.140224 0.059056 0.932360
v -0.197005 0.059056 0.908861
v -0.191245 0.027406 0.898861
v -0.237615 0.027406 0.863361
v -0.197005 0.059056 0.908861
v -0.245755 0.059056 0.871460
v -0.079305 0.027406 0.928860
v -0.021355 0.027406 0.921261
v -0.079305 0.059056 0.940460
v -0.018374 0.059056 0.932360
v 0.132835 0.059056 -0.921339
v 0.132835 -0.090944 -0.921339
v 0.180505 0.059056 -0.859240
v 0.180505 -0.090944 -0.859240
v 0.210475 0.059056 -0.786839
v 0.210475 -0.090944 -0.786839
v 0.220695 0.059056 -0.709240
v 0.220695 -0.090944 -0.709240
v 0.210475 0.059056 -0.631540
v 0.210475 -0.090944 -0.631540
v 0.180505 0.059056 -0.559240
v 0.180505 -0.090944 -0.559240
v 0.132835 0.059056 -0.497040
v 0.132835 -0.090944 -0.497040
v -0.283165 0.059056 -0.591539
v -0.237615 0.027406 -0.550940
v -0.273195 0.027406 -0.597239
v -0.245755 0.059056 -0.542740
v -0.295555 0.027406 -0.651239
v -0.273195 0.027406 -0.597239
v -0.306684 0.059056 -0.648239
v -0.283165 0.059056 -0.591539
v -0.303185 0.027406 -0.709240
v -0.295555 0.027406 -0.651239
v -0.314705 0.059056 -0.709240
v -0.306684 0.059056 -0.648239
v -0.295555 0.027406 -0.767139
v -0.303185 0.027406 -0.709240
v -0.314705 0.059056 -0.709240
v -0.306684 0.059056 -0.770140
v -0.273195 0.027406 -0.821140
v -0.295555 0.027406 -0.767139
v -0.306684 0.059056 -0.770140
v -0.283165 0.059056 -0.826939
v -0.237615 0.027406 -0.867540
v -0.273195 0.027406 -0.821140
v -0.283165 0.059056 -0.826939
v -0.245755 0.059056 -0.875639
v -0.229305 0.059056 -0.969040
v -0.245755 0.059056 -0.875639
v -0.197005 0.059056 -0.913040
v -0.291435 0.059056 -0.921339
v -0.283165 0.059056 -0.826939
v -0.291435 0.059056 -0.921339
v -0.339105 0.059056 -0.859240
v -0.245755 0.059056 -0.875639
v -0.079305 0.059056 -1.009239
v -0.140224 0.059056 -0.936539
v -0.079305 0.059056 -0.944639
v -0.156945 0.059056 -0.998940
v -0.140224 0.059056 -0.936539
v -0.229305 0.059056 -0.969040
v -0.197005 0.059056 -0.913040
v -0.156945 0.059056 -0.998940
v -0.369075 0.059056 -0.786839
v -0.314705 0.059056 -0.709240
v -0.306684 0.059056 -0.770140
v -0.379305 0.059056 -0.709240
v -0.314705 0.059056 -0.709240
v -0.379305 0.059056 -0.709240
v -0.369075 0.059056 -0.631540
v -0.306684 0.059056 -0.648239
v -0.339105 0.059056 -0.559240
v -0.283165 0.059056 -0.591539
v -0.369075 0.059056 -0.631540
v -0.306684 0.059056 -0.648239
v -0.369075 0.059056 -0.786839
v -0.283165 0.059056 -0.826939
v -0.339105 0.059056 -0.859240
v -0.306684 0.059056 -0.770140
v -0.197005 0.059056 -0.505339
v -0.291435 0.059056 -0.497040
v -0.229305 0.059056 -0.449440
v -0.245755 0.059056 -0.542740
v -0.140224 0.059056 -0.481840
v -0.229305 0.059056 -0.449440
v -0.156945 0.059056 -0.419439
v -0.197005 0.059056 -0.505339
v -0.079305 0.059056 -0.473839
v -0.156945 0.059056 -0.419439
v -0.079305 0.059056 -0.409239
v -0.156945 0.059056 -0.419439
v -0.079305 0.059056 -0.473839
v -0.140224 0.059056 -0.481840
v -0.245755 0.059056 -0.542740
v -0.339105 0.059056 -0.559240
v -0.291435 0.059056 -0.497040
v -0.283165 0.059056 -0.591539
v -0.079305 0.059056 -0.409239
v -0.018374 0.059056 -0.481840
v -0.079305 0.059056 -0.473839
v -0.001655 0.059056 -0.419439
v -0.001655 0.059056 -0.419439
v 0.038405 0.059056 -0.505339
v -0.018374 0.059056 -0.481840
v 0.070695 0.059056 -0.449440
v 0.038405 0.059056 -0.505339
v 0.070695 0.059056 -0.449440
v 0.087155 0.059056 -0.542740
v 0.132835 0.059056 -0.497040
v 0.180505 0.059056 -0.559240
v 0.124565 0.059056 -0.591539
v 0.132835 0.059056 -0.497040
v 0.087155 0.059056 -0.542740
v 0.148085 0.059056 -0.770140
v 0.180505 0.059056 -0.859240
v 0.124565 0.059056 -0.826939
v 0.210475 0.059056 -0.786839
v 0.180505 0.059056 -0.559240
v 0.210475 0.059056 -0.631540
v 0.124565 0.059056 -0.591539
v 0.148085 0.059056 -0.648239
v 0.148085 0.059056 -0.648239
v 0.220695 0.059056 -0.709240
v 0.156106 0.059056 -0.709240
v 0.220695 0.059056 -0.709240
v 0.148085 0.059056 -0.648239
v 0.210475 0.059056 -0.631540
v 0.156106 0.059056 -0.709240
v 0.210475 0.059056 -0.786839
v 0.148085 0.059056 -0.770140
v 0.220695 0.059056 -0.709240
v 0.070695 0.059056 -0.969040
v -0.018374 0.059056 -0.936539
v 0.038405 0.059056 -0.913040
v -0.001655 0.059056 -0.998940
v -0.001655 0.059056 -0.998940
v -0.079305 0.059056 -1.009239
v -0.018374 0.059056 -0.936539
v -0.079305 0.059056 -0.944639
v 0.124565 0.059056 -0.826939
v 0.132835 0.059056 -0.921339
v 0.087155 0.059056 -0.875639
v 0.180505 0.059056 -0.859240
v 0.087155 0.059056 -0.875639
v 0.132835 0.059056 -0.921339
v 0.038405 0.059056 -0.913040
v 0.070695 0.059056 -0.969040
v -0.009035 -0.038364 -0.728039
v 0.054355 -0.023814 -0.745039
v -0.016304 -0.038364 -0.745539
v -0.079305 -0.043374 -0.709240
v 0.040525 -0.023814 -0.778339
v 0.104655 -0.001154 -0.758539
v 0.085635 -0.001154 -0.804440
v 0.136955 0.027406 -0.767139
v 0.114585 0.027406 -0.821140
v 0.104655 -0.001154 -0.758539
v 0.059065 -0.023814 -0.709240
v 0.111145 -0.001154 -0.709240
v 0.144585 0.027406 -0.709240
v 0.054355 -0.023814 -0.745039
v 0.136955 0.027406 -0.767139
v -0.009035 -0.038364 -0.728039
v -0.006555 -0.038364 -0.709240
v -0.079305 -0.043374 -0.709240
v 0.144585 0.027406 -0.709240
v 0.104655 -0.001154 -0.659939
v 0.136955 0.027406 -0.651239
v 0.111145 -0.001154 -0.709240
v 0.059065 -0.023814 -0.709240
v 0.054355 -0.023814 -0.673340
v -0.009035 -0.038364 -0.690340
v -0.006555 -0.038364 -0.709240
v -0.079305 -0.043374 -0.709240
v -0.079305 -0.043374 -0.709240
v -0.016304 -0.038364 -0.672840
v -0.009035 -0.038364 -0.690340
v 0.054355 -0.023814 -0.673340
v 0.040525 -0.023814 -0.640039
v 0.104655 -0.001154 -0.659939
v 0.085635 -0.001154 -0.613939
v 0.136955 0.027406 -0.651239
v 0.114585 0.027406 -0.597239
v 0.079005 0.027406 -0.550940
v 0.114585 0.027406 -0.597239
v 0.085635 -0.001154 -0.613939
v 0.055366 -0.001154 -0.574539
v 0.018545 -0.023814 -0.611340
v 0.040525 -0.023814 -0.640039
v -0.027864 -0.038364 -0.657740
v -0.016304 -0.038364 -0.672840
v -0.079305 -0.043374 -0.709240
v -0.042925 -0.038364 -0.646240
v 0.018545 -0.023814 -0.611340
v -0.027864 -0.038364 -0.657740
v -0.079305 -0.043374 -0.709240
v -0.010115 -0.023814 -0.589340
v 0.015925 -0.001154 -0.544239
v 0.055366 -0.001154 -0.574539
v 0.032645 0.027406 -0.515339
v 0.079005 0.027406 -0.550940
v -0.043485 -0.023814 -0.575539
v 0.015925 -0.001154 -0.544239
v -0.010115 -0.023814 -0.589340
v -0.042925 -0.038364 -0.646240
v -0.060475 -0.038364 -0.638939
v -0.079305 -0.043374 -0.709240
v -0.030005 -0.001154 -0.525240
v -0.021355 0.027406 -0.492939
v 0.032645 0.027406 -0.515339
v -0.128595 -0.001154 -0.525240
v -0.079305 0.027406 -0.485340
v -0.079305 -0.001154 -0.518740
v -0.137245 0.027406 -0.492939
v -0.115115 -0.023814 -0.575539
v -0.079305 -0.023814 -0.570839
v -0.098125 -0.038364 -0.638939
v -0.079305 -0.038364 -0.636440
v -0.079305 -0.043374 -0.709240
v -0.128595 -0.001154 -0.525240
v -0.174525 -0.001154 -0.544239
v -0.191245 0.027406 -0.515339
v -0.148485 -0.023814 -0.589340
v -0.137245 0.027406 -0.492939
v -0.115115 -0.023814 -0.575539
v -0.115674 -0.038364 -0.646240
v -0.098125 -0.038364 -0.638939
v -0.079305 -0.043374 -0.709240
v -0.079305 -0.043374 -0.709240
v -0.130734 -0.038364 -0.657740
v -0.115674 -0.038364 -0.646240
v -0.177145 -0.023814 -0.611340
v -0.148485 -0.023814 -0.589340
v -0.174525 -0.001154 -0.544239
v -0.213964 -0.001154 -0.574539
v -0.191245 0.027406 -0.515339
v -0.237615 0.027406 -0.550940
v -0.237615 0.027406 -0.550940
v -0.273195 0.027406 -0.597239
v -0.244235 -0.001154 -0.613939
v -0.213964 -0.001154 -0.574539
v -0.177145 -0.023814 -0.611340
v -0.199135 -0.023814 -0.640039
v -0.130734 -0.038364 -0.657740
v -0.142295 -0.038364 -0.672840
v -0.079305 -0.043374 -0.709240
v -0.199135 -0.023814 -0.640039
v -0.149565 -0.038364 -0.690340
v -0.212955 -0.023814 -0.673340
v -0.142295 -0.038364 -0.672840
v -0.079305 -0.043374 -0.709240
v -0.244235 -0.001154 -0.613939
v -0.263255 -0.001154 -0.659939
v -0.295555 0.027406 -0.651239
v -0.273195 0.027406 -0.597239
v -0.148485 -0.023814 -0.829039
v -0.115674 -0.038364 -0.772240
v -0.115115 -0.023814 -0.842840
v -0.098125 -0.038364 -0.779440
v -0.079305 -0.043374 -0.709240
v -0.128595 -0.001154 -0.893139
v -0.174525 -0.001154 -0.874140
v -0.191245 0.027406 -0.903139
v -0.137245 0.027406 -0.925440
v -0.079305 -0.001154 -0.899639
v -0.128595 -0.001154 -0.893139
v -0.115115 -0.023814 -0.842840
v -0.137245 0.027406 -0.925440
v -0.079305 -0.023814 -0.847540
v -0.079305 0.027406 -0.933039
v -0.098125 -0.038364 -0.779440
v -0.079305 -0.038364 -0.781939
v -0.079305 -0.043374 -0.709240
v -0.079305 -0.001154 -0.899639
v -0.043485 -0.023814 -0.842840
v -0.030005 -0.001154 -0.893139
v -0.021355 0.027406 -0.925440
v -0.079305 -0.023814 -0.847540
v -0.079305 0.027406 -0.933039
v -0.060475 -0.038364 -0.779440
v -0.079305 -0.038364 -0.781939
v -0.079305 -0.043374 -0.709240
v -0.079305 -0.043374 -0.709240
v -0.042925 -0.038364 -0.772240
v -0.060475 -0.038364 -0.779440
v -0.043485 -0.023814 -0.842840
v -0.010115 -0.023814 -0.829039
v -0.030005 -0.001154 -0.893139
v 0.015925 -0.001154 -0.874140
v -0.021355 0.027406 -0.925440
v 0.032645 0.027406 -0.903139
v 0.079005 0.027406 -0.867540
v 0.032645 0.027406 -0.903139
v 0.055366 -0.001154 -0.843840
v 0.015925 -0.001154 -0.874140
v -0.010115 -0.023814 -0.829039
v 0.018545 -0.023814 -0.807039
v -0.042925 -0.038364 -0.772240
v -0.027864 -0.038364 -0.760639
v -0.079305 -0.043374 -0.709240
v -0.016304 -0.038364 -0.745539
v 0.018545 -0.023814 -0.807039
v -0.027864 -0.038364 -0.760639
v -0.079305 -0.043374 -0.709240
v 0.040525 -0.023814 -0.778339
v 0.055366 -0.001154 -0.843840
v 0.085635 -0.001154 -0.804440
v 0.079005 0.027406 -0.867540
v 0.114585 0.027406 -0.821140
v -0.079305 -0.001154 -0.518740
v -0.043485 -0.023814 -0.575539
v -0.079305 -0.023814 -0.570839
v -0.030005 -0.001154 -0.525240
v -0.060475 -0.038364 -0.638939
v -0.079305 -0.038364 -0.636440
v -0.079305 -0.043374 -0.709240
v -0.079305 0.027406 -0.485340
v -0.021355 0.027406 -0.492939
v -0.269745 -0.001154 -0.709240
v -0.212955 -0.023814 -0.673340
v -0.217665 -0.023814 -0.709240
v -0.152045 -0.038364 -0.709240
v -0.149565 -0.038364 -0.690340
v -0.079305 -0.043374 -0.709240
v -0.263255 -0.001154 -0.659939
v -0.303185 0.027406 -0.709240
v -0.295555 0.027406 -0.651239
v -0.263255 -0.001154 -0.758539
v -0.217665 -0.023814 -0.709240
v -0.212955 -0.023814 -0.745039
v -0.269745 -0.001154 -0.709240
v -0.152045 -0.038364 -0.709240
v -0.149565 -0.038364 -0.728039
v -0.079305 -0.043374 -0.709240
v -0.295555 0.027406 -0.767139
v -0.303185 0.027406 -0.709240
v -0.273195 0.027406 -0.821140
v -0.263255 -0.001154 -0.758539
v -0.244235 -0.001154 -0.804440
v -0.199135 -0.023814 -0.778339
v -0.295555 0.027406 -0.767139
v -0.212955 -0.023814 -0.745039
v -0.142295 -0.038364 -0.745539
v -0.149565 -0.038364 -0.728039
v -0.079305 -0.043374 -0.709240
v -0.079305 -0.043374 -0.709240
v -0.130734 -0.038364 -0.760639
v -0.142295 -0.038364 -0.745539
v -0.177145 -0.023814 -0.807039
v -0.199135 -0.023814 -0.778339
v -0.244235 -0.001154 -0.804440
v -0.213964 -0.001154 -0.843840
v -0.237615 0.027406 -0.867540
v -0.273195 0.027406 -0.821140
v -0.115674 -0.038364 -0.772240
v -0.177145 -0.023814 -0.807039
v -0.130734 -0.038364 -0.760639
v -0.079305 -0.043374 -0.709240
v -0.148485 -0.023814 -0.829039
v -0.213964 -0.001154 -0.843840
v -0.174525 -0.001154 -0.874140
v -0.191245 0.027406 -0.903139
v -0.237615 0.027406 -0.867540
v -0.156945 -0.090944 -0.419439
v -0.079305 -0.090944 -0.409239
v -0.156945 0.059056 -0.419439
v -0.079305 0.059056 -0.409239
v -0.229305 0.059056 -0.449440
v -0.229305 -0.090944 -0.449440
v -0.291435 0.059056 -0.497040
v -0.291435 -0.090944 -0.497040
v 0.132835 0.059056 -0.497040
v 0.132835 -0.090944 -0.497040
v 0.070695 0.059056 -0.449440
v 0.070695 -0.090944 -0.449440
v -0.001655 0.059056 -0.419439
v -0.001655 -0.090944 -0.419439
v -0.079305 0.059056 -0.409239
v -0.079305 -0.090944 -0.409239
v -0.191245 0.027406 -0.903139
v -0.137245 0.027406 -0.925440
v -0.140224 0.059056 -0.936539
v -0.197005 0.059056 -0.913040
v -0.137245 0.027406 -0.925440
v -0.079305 0.027406 -0.933039
v -0.079305 0.059056 -0.944639
v -0.140224 0.059056 -0.936539
v -0.021355 0.027406 -0.925440
v -0.079305 0.027406 -0.933039
v -0.079305 0.059056 -0.944639
v -0.018374 0.059056 -0.936539
v -0.021355 0.027406 -0.925440
v 0.032645 0.027406 -0.903139
v -0.018374 0.059056 -0.936539
v 0.038405 0.059056 -0.913040
v 0.079005 0.027406 -0.867540
v 0.038405 0.059056 -0.913040
v 0.032645 0.027406 -0.903139
v 0.087155 0.059056 -0.875639
v -0.191245 0.027406 -0.903139
v -0.237615 0.027406 -0.867540
v -0.197005 0.059056 -0.913040
v -0.245755 0.059056 -0.875639
v -0.291435 0.059056 -0.497040
v -0.291435 -0.090944 -0.497040
v -0.339105 0.059056 -0.559240
v -0.339105 -0.090944 -0.559240
v -0.369075 0.059056 -0.631540
v -0.369075 -0.090944 -0.631540
v -0.379305 0.059056 -0.709240
v -0.379305 -0.090944 -0.709240
v -0.369075 0.059056 -0.786839
v -0.369075 -0.090944 -0.786839
v -0.339105 0.059056 -0.859240
v -0.339105 -0.090944 -0.859240
v -0.291435 0.059056 -0.921339
v -0.291435 -0.090944 -0.921339
v 0.136955 0.027406 -0.767139
v 0.114585 0.027406 -0.821140
v 0.148085 0.059056 -0.770140
v 0.124565 0.059056 -0.826939
v 0.144585 0.027406 -0.709240
v 0.136955 0.027406 -0.767139
v 0.156106 0.059056 -0.709240
v 0.148085 0.059056 -0.770140
v 0.144585 0.027406 -0.709240
v 0.136955 0.027406 -0.651239
v 0.156106 0.059056 -0.709240
v 0.148085 0.059056 -0.648239
v 0.136955 0.027406 -0.651239
v 0.114585 0.027406 -0.597239
v 0.148085 0.059056 -0.648239
v 0.124565 0.059056 -0.591539
v 0.124565 0.059056 -0.591539
v 0.079005 0.027406 -0.550940
v 0.087155 0.059056 -0.542740
v 0.114585 0.027406 -0.597239
v 0.079005 0.027406 -0.867540
v 0.114585 0.027406 -0.821140
v 0.124565 0.059056 -0.826939
v 0.087155 0.059056 -0.875639
v 0.132835 -0.090944 -0.921339
v -0.339105 -0.090944 -0.559240
v -0.229305 -0.090944 -0.969040
v -0.001655 -0.090944 -0.998940
v 0.070695 -0.090944 -0.969040
v -0.079305 -0.090944 -1.009239
v -0.156945 -0.090944 -0.998940
v 0.132835 -0.090944 -0.497040
v 0.180505 -0.090944 -0.859240
v -0.379305 -0.090944 -0.709240
v -0.369075 -0.090944 -0.631540
v -0.369075 -0.090944 -0.786839
v -0.291435 -0.090944 -0.921339
v -0.339105 -0.090944 -0.859240
v 0.220695 -0.090944 -0.709240
v 0.210475 -0.090944 -0.786839
v 0.180505 -0.090944 -0.559240
v 0.210475 -0.090944 -0.631540
v -0.229305 -0.090944 -0.449440
v -0.291435 -0.090944 -0.497040
v -0.079305 -0.090944 -0.409239
v -0.156945 -0.090944 -0.419439
v 0.070695 -0.090944 -0.449440
v -0.001655 -0.090944 -0.419439
v -0.291435 0.059056 -0.921339
v -0.291435 -0.090944 -0.921339
v -0.229305 0.059056 -0.969040
v -0.229305 -0.090944 -0.969040
v -0.156945 0.059056 -0.998940
v -0.156945 -0.090944 -0.998940
v -0.079305 0.059056 -1.009239
v -0.079305 -0.090944 -1.009239
v -0.001655 0.059056 -0.998940
v -0.001655 -0.090944 -0.998940
v 0.070695 0.059056 -0.969040
v 0.070695 -0.090944 -0.969040
v 0.132835 0.059056 -0.921339
v 0.132835 -0.090944 -0.921339
v 0.032645 0.027406 -0.515339
v 0.079005 0.027406 -0.550940
v 0.038405 0.059056 -0.505339
v 0.087155 0.059056 -0.542740
v -0.021355 0.027406 -0.492939
v 0.032645 0.027406 -0.515339
v -0.018374 0.059056 -0.481840
v 0.038405 0.059056 -0.505339
v -0.079305 0.027406 -0.485340
v -0.137245 0.027406 -0.492939
v -0.079305 0.059056 -0.473839
v -0.140224 0.059056 -0.481840
v -0.191245 0.027406 -0.515339
v -0.137245 0.027406 -0.492939
v -0.140224 0.059056 -0.481840
v -0.197005 0.059056 -0.505339
v -0.191245 0.027406 -0.515339
v -0.237615 0.027406 -0.550940
v -0.197005 0.059056 -0.505339
v -0.245755 0.059056 -0.542740
v -0.079305 0.027406 -0.485340
v -0.021355 0.027406 -0.492939
v -0.079305 0.059056 -0.473839
v -0.018374 0.059056 -0.481840
v 0.927805 0.034056 -0.242140
v 0.867805 -0.115944 -0.302139
v 0.867805 0.034056 -0.302139
v 0.927805 -0.115944 -0.242140
v 0.897805 0.084056 -0.212139
v 0.837805 0.034056 -0.272139
v 0.837805 0.084056 -0.272139
v 0.897805 0.034056 -0.212139
v 0.927805 0.034056 0.237860
v 0.927805 -0.115944 -0.242140
v 0.927805 0.034056 -0.242140
v 0.927805 -0.115944 0.237860
v 0.897805 0.084056 0.207861
v 0.897805 0.034056 -0.212139
v 0.897805 0.084056 -0.212139
v 0.897805 0.034056 0.207861
v 0.417805 0.084056 0.267860
v 0.837805 0.084056 0.267860
v 0.837805 0.084056 -0.272139
v 0.897805 0.084056 0.207861
v 0.897805 0.084056 -0.212139
v 0.357805 0.084056 0.207861
v 0.417805 0.084056 -0.272139
v 0.357805 0.084056 -0.212139
v 0.387805 0.034056 0.297861
v 0.867805 0.034056 0.297861
v 0.867805 0.034056 -0.302139
v 0.927805 0.034056 0.237860
v 0.927805 0.034056 -0.242140
v 0.327806 0.034056 0.237860
v 0.387805 0.034056 -0.302139
v 0.327806 0.034056 -0.242140
v 0.387805 0.034056 0.297861
v 0.327806 0.034056 0.237860
v 0.387805 -0.115944 0.297861
v 0.327806 -0.115944 0.237860
v 0.927805 0.034056 0.237860
v 0.867805 0.034056 0.297861
v 0.927805 -0.115944 0.237860
v 0.867805 -0.115944 0.297861
v 0.357805 0.034056 0.207861
v 0.417805 0.034056 0.267860
v 0.357805 0.084056 0.207861
v 0.417805 0.084056 0.267860
v 0.837805 0.034056 0.267860
v 0.897805 0.034056 0.207861
v 0.837805 0.084056 0.267860
v 0.897805 0.084056 0.207861
v 0.387805 0.034056 0.297861
v 0.867805 -0.115944 0.297861
v 0.867805 0.034056 0.297861
v 0.387805 -0.115944 0.297861
v 0.417805 0.084056 0.267860
v 0.837805 0.034056 0.267860
v 0.837805 0.084056 0.267860
v 0.417805 0.034056 0.267860
v 0.327806 0.034056 -0.242140
v 0.387805 0.034056 -0.302139
v 0.327806 -0.115944 -0.242140
v 0.387805 -0.115944 -0.302139
v 0.417805 0.034056 -0.272139
v 0.357805 0.034056 -0.212139
v 0.417805 0.084056 -0.272139
v 0.357805 0.084056 -0.212139
v 0.327806 0.034056 -0.242140
v 0.327806 -0.115944 0.237860
v 0.327806 0.034056 0.237860
v 0.327806 -0.115944 -0.242140
v 0.357805 0.084056 -0.212139
v 0.357805 0.034056 0.207861
v 0.357805 0.084056 0.207861
v 0.357805 0.034056 -0.212139
v 0.387805 -0.115944 -0.302139
v 0.867805 -0.115944 -0.302139
v 0.927805 -0.115944 0.237860
v 0.927805 -0.115944 -0.242140
v 0.867805 -0.115944 0.297861
v 0.387805 -0.115944 0.297861
v 0.327806 -0.115944 0.237860
v 0.327806 -0.115944 -0.242140
v 0.867805 0.034056 -0.302139
v 0.387805 -0.115944 -0.302139
v 0.387805 0.034056 -0.302139
v 0.867805 -0.115944 -0.302139
v 0.837805 0.084056 -0.272139
v 0.417805 0.034056 -0.272139
v 0.417805 0.084056 -0.272139
v 0.837805 0.034056 -0.272139
vn -0.0000 -0.0000 -1.0000
vn -0.0000 -0.0000 1.0000
vn 0.5924 -0.0000 0.8056
vn 0.5923 -0.0000 0.8057
vn 0.5924 -0.0000 0.8057
vn -0.0000 -1.0000 -0.0000
vn -1.0000 -0.0000 -0.0000
vn 0.5924 -0.0000 -0.8056
vn 0.5925 -0.0000 -0.8056
vn -0.0000 1.0000 -0.0000
vn 0.5923 -0.0000 -0.8057
vn -0.0000 -0.0000 -0.0000
vn 0.5924 -0.0000 -0.8057
vn 0.8644 -0.0000 -0.5029
vn 0.7071 -0.0000 -0.7071
vn 0.9659 -0.0000 -0.2591
vn 0.9658 -0.0000 -0.2592
vn 1.0000 -0.0000 -0.0001
vn 0.9659 -0.0000 0.2589
vn 0.8644 -0.0000 0.5029
vn 0.7071 -0.0000 0.7071
vn 0.8128 0.3393 -0.4735
vn 0.5927 0.5453 -0.5927
vn 0.7266 0.5449 -0.4186
vn 0.6649 0.3404 -0.6649
vn 0.9082 0.3396 -0.2448
vn 0.8104 0.5429 -0.2203
vn 0.9405 0.3398 -0.0000
vn 0.8104 0.5428 -0.2203
vn 0.8381 0.5455 -0.0000
vn 0.8104 0.5429 0.2203
vn 0.9082 0.3396 0.2448
vn 0.7266 0.5449 0.4185
vn 0.8128 0.3393 0.4734
vn 0.5928 0.5453 0.5927
vn 0.8128 0.3393 0.4735
vn 0.7266 0.5449 0.4186
vn 0.6649 0.3404 0.6649
vn -0.1413 0.9892 0.0393
vn -0.3081 0.9481 0.0790
vn -0.1257 0.9896 0.0707
vn -0.2765 0.9479 0.1580
vn -0.5254 0.8391 0.1412
vn -0.4713 0.8405 0.2671
vn -0.8104 0.5429 0.2203
vn -0.7266 0.5449 0.4185
vn -0.5254 0.8391 0.1411
vn -0.3162 0.9487 -0.0000
vn -0.5419 0.8404 -0.0000
vn -0.8381 0.5456 -0.0000
vn -0.1491 0.9888 -0.0000
vn -0.5254 0.8391 -0.1411
vn -0.8104 0.5429 -0.2203
vn -0.3081 0.9481 -0.0790
vn -0.1413 0.9892 -0.0392
vn -0.1256 0.9896 -0.0707
vn -0.2765 0.9479 -0.1580
vn -0.5254 0.8391 -0.1412
vn -0.4713 0.8405 -0.2671
vn -0.7265 0.5450 -0.4185
vn -0.5927 0.5453 -0.5927
vn -0.7265 0.5449 -0.4186
vn -0.3844 0.8394 -0.3844
vn -0.2287 0.9463 -0.2287
vn -0.1021 0.9895 -0.1021
vn -0.1257 0.9896 -0.0707
vn -0.0707 0.9896 -0.1257
vn -0.1580 0.9479 -0.2765
vn -0.2671 0.8405 -0.4713
vn -0.3843 0.8394 -0.3844
vn -0.4185 0.5450 -0.7265
vn -0.0790 0.9481 -0.3081
vn -0.0393 0.9892 -0.1413
vn -0.1412 0.8391 -0.5254
vn -0.2203 0.5429 -0.8104
vn 0.1411 0.8391 -0.5254
vn -0.0000 0.5456 -0.8381
vn -0.0000 0.8404 -0.5419
vn 0.2203 0.5429 -0.8104
vn 0.0790 0.9481 -0.3081
vn -0.0000 0.9487 -0.3162
vn 0.0393 0.9892 -0.1413
vn -0.0000 0.9888 -0.1491
vn 0.1412 0.8391 -0.5254
vn 0.2671 0.8405 -0.4713
vn 0.4185 0.5450 -0.7265
vn 0.1580 0.9479 -0.2765
vn 0.0707 0.9896 -0.1257
vn 0.1021 0.9895 -0.1021
vn 0.2287 0.9463 -0.2287
vn 0.3844 0.8394 -0.3844
vn 0.4186 0.5449 -0.7265
vn 0.5927 0.5454 -0.5927
vn 0.4713 0.8405 -0.2671
vn 0.7265 0.5450 -0.4186
vn 0.2765 0.9479 -0.1580
vn 0.1257 0.9896 -0.0707
vn 0.1413 0.9892 -0.0393
vn 0.3081 0.9481 -0.0790
vn 0.5254 0.8391 -0.1412
vn 0.7265 0.5450 -0.4185
vn 0.1580 0.9479 0.2765
vn 0.0707 0.9896 0.1257
vn 0.0790 0.9481 0.3081
vn 0.0392 0.9892 0.1413
vn 0.1412 0.8391 0.5254
vn 0.2671 0.8405 0.4713
vn 0.4185 0.5449 0.7265
vn 0.2203 0.5429 0.8104
vn -0.0000 0.8404 0.5419
vn 0.1411 0.8391 0.5254
vn -0.0000 0.9487 0.3162
vn -0.0000 0.5456 0.8381
vn -0.0000 0.9888 0.1491
vn -0.0790 0.9481 0.3081
vn -0.1411 0.8391 0.5254
vn -0.2203 0.5429 0.8104
vn -0.0392 0.9892 0.1413
vn -0.0707 0.9896 0.1257
vn -0.1580 0.9479 0.2765
vn -0.1412 0.8391 0.5254
vn -0.2671 0.8405 0.4713
vn -0.4185 0.5450 0.7265
vn -0.4186 0.5450 0.7265
vn -0.3844 0.8394 0.3844
vn -0.5927 0.5453 0.5927
vn -0.2287 0.9463 0.2287
vn -0.1021 0.9895 0.1021
vn -0.1256 0.9896 0.0707
vn -0.7265 0.5450 0.4185
vn -0.1411 0.8391 -0.5254
vn -0.0392 0.9892 -0.1413
vn 0.5419 0.8404 -0.0000
vn 0.3162 0.9487 -0.0000
vn 0.1491 0.9888 -0.0000
vn 0.1413 0.9892 -0.0392
vn 0.5254 0.8391 -0.1411
vn 0.8380 0.5456 -0.0000
vn 0.5254 0.8391 0.1412
vn 0.3081 0.9481 0.0790
vn 0.1413 0.9892 0.0393
vn 0.8381 0.5456 -0.0000
vn 0.7265 0.5450 0.4185
vn 0.4713 0.8405 0.2671
vn 0.2765 0.9479 0.1580
vn 0.1257 0.9896 0.0707
vn 0.1021 0.9895 0.1021
vn 0.2287 0.9463 0.2287
vn 0.3844 0.8394 0.3844
vn 0.5927 0.5453 0.5927
vn 0.7265 0.5450 0.4186
vn 0.5927 0.5454 0.5927
vn -0.2591 -0.0000 0.9658
vn -0.2592 -0.0000 0.9658
vn -0.5029 -0.0000 0.8644
vn -0.7071 -0.0000 0.7071
vn 0.5029 -0.0000 0.8644
vn 0.2591 -0.0000 0.9658
vn 0.2592 -0.0000 0.9658
vn 0.4186 0.5449 0.7266
vn 0.2203 0.5428 0.8104
vn 0.2448 0.3396 0.9081
vn 0.4734 0.3393 0.8128
vn -0.0000 0.5455 0.8381
vn -0.0000 0.3398 0.9405
vn 0.2448 0.3396 0.9082
vn -0.2448 0.3396 0.9082
vn -0.4185 0.5449 0.7266
vn -0.2203 0.5428 0.8104
vn -0.4734 0.3393 0.8128
vn -0.5927 0.5453 0.5928
vn -0.4735 0.3393 0.8128
vn -0.4186 0.5449 0.7266
vn -0.6649 0.3404 0.6649
vn 0.4735 0.3393 0.8128
vn 0.5927 0.5453 0.5928
vn -0.8644 -0.0000 0.5029
vn -0.8643 -0.0000 0.5029
vn -0.9658 -0.0000 0.2593
vn -0.9659 -0.0000 0.2589
vn -1.0000 -0.0000 -0.0001
vn -0.9659 -0.0000 -0.2588
vn -0.9658 -0.0000 -0.2591
vn -0.8644 -0.0000 -0.5029
vn -0.7071 -0.0000 -0.7071
vn -0.7266 0.5449 0.4186
vn -0.9082 0.3396 0.2448
vn -0.8128 0.3393 0.4734
vn -0.8104 0.5428 0.2203
vn -0.8381 0.5455 -0.0000
vn -0.9405 0.3398 -0.0000
vn -0.9082 0.3396 -0.2448
vn -0.7266 0.5449 -0.4185
vn -0.8104 0.5428 -0.2203
vn -0.8128 0.3393 -0.4735
vn -0.5928 0.5453 -0.5927
vn -0.6649 0.3404 -0.6649
vn -0.7266 0.5449 -0.4186
vn -0.5928 0.5453 0.5927
vn -0.8128 0.3393 0.4735
vn -0.5029 -0.0000 -0.8644
vn -0.2592 -0.0000 -0.9658
vn -0.2589 -0.0000 -0.9659
vn 0.2592 -0.0000 -0.9658
vn 0.2589 -0.0000 -0.9659
vn 0.5029 -0.0000 -0.8644
vn -0.5927 0.5453 -0.5928
vn -0.4186 0.5449 -0.7266
vn -0.4735 0.3393 -0.8128
vn -0.2448 0.3396 -0.9082
vn -0.4734 0.3393 -0.8128
vn 0.2203 0.5428 -0.8104
vn -0.0000 0.3398 -0.9405
vn -0.0000 0.5455 -0.8381
vn 0.2448 0.3396 -0.9082
vn 0.4185 0.5449 -0.7266
vn 0.4734 0.3393 -0.8128
vn 0.4735 0.3393 -0.8128
vn 0.4186 0.5449 -0.7266
vn -0.2203 0.5428 -0.8104
vn 0.9658 -0.0000 0.2592
vn 0.8643 -0.0000 0.5029
vn 0.6649 0.3404 -0.6648
vn 0.9081 0.3396 0.2449
vn 0.8104 0.5428 0.2203
vn -0.8380 0.5456 -0.0000
vn -0.5927 0.5454 -0.5927
vn -0.4185 0.5449 -0.7265
vn 0.0392 0.9892 -0.1413
vn 0.7265 0.5449 -0.4185
vn 0.4185 0.5450 0.7265
vn -0.4186 0.5449 0.7265
vn -0.3843 0.8394 0.3844
vn -0.3844 0.8394 0.3843
vn 0.5254 0.8391 0.1411
vn 0.7265 0.5449 0.4186
vn 0.3844 0.8394 0.3843
vn 0.5029 -0.0000 0.8643
vn 0.2589 -0.0000 0.9659
vn -0.2449 0.3396 0.9081
vn -0.9659 -0.0000 0.2590
vn -0.9081 0.3396 0.2449
vn -0.4738 0.3377 -0.8133
vn 0.2448 0.3396 -0.9081
vn 0.5927 0.5453 -0.5928
vn 1.0000 -0.0000 -0.0000
vt 22.600100 -9.391730
vt -1.141450 25.969101
vt -1.181450 25.969101
vt -1.181450 26.269100
vt -26.085100 -9.391730
vt -26.385099 -9.391730
vt -26.385099 -9.611730
vt -26.385099 -9.171730
vt -2.303570 -9.391730
vt -2.303570 -9.171730
vt -2.343570 -9.171730
vt -1.141450 26.269100
vt -2.343570 -9.391730
vt -2.303570 25.969101
vt -2.303570 26.269100
vt 22.900101 -9.611730
vt 22.900101 -9.391730
vt -2.343570 -9.611730
vt -2.303570 -9.611730
vt -2.343570 26.269100
vt -2.343570 25.969101
vt 22.900101 -9.171730
vt -0.253187 0.470409
vt -0.191055 0.320409
vt -0.191055 0.470409
vt -0.253187 0.320409
vt -0.325541 0.470409
vt -0.325541 0.320409
vt -0.403187 0.470409
vt -0.403187 0.320409
vt -0.480833 0.470409
vt -0.480833 0.320409
vt -0.553187 0.470409
vt -0.553187 0.320409
vt -0.615319 0.470409
vt -0.615319 0.320409
vt -0.520890 0.470409
vt -0.561497 0.438755
vt -0.515129 0.438755
vt -0.569644 0.470409
vt -0.464115 0.470409
vt -0.461133 0.438755
vt -0.403187 0.438755
vt -0.345241 0.438755
vt -0.342259 0.470409
vt -0.291245 0.438755
vt -0.285484 0.470409
vt -0.244877 0.438755
vt -0.236730 0.470409
vt -0.253187 0.135602
vt -0.236730 0.228952
vt -0.285484 0.191542
vt -0.191055 0.183277
vt -0.199319 0.277706
vt -0.143379 0.245409
vt -0.403187 0.095409
vt -0.342259 0.168024
vt -0.403187 0.160003
vt -0.325541 0.105632
vt -0.113409 0.317764
vt -0.167781 0.395409
vt -0.175802 0.334482
vt -0.103187 0.395409
vt -0.113409 0.473055
vt -0.175802 0.456337
vt -0.143379 0.545409
vt -0.199319 0.513112
vt -0.285484 0.599277
vt -0.191055 0.607541
vt -0.253187 0.655217
vt -0.236730 0.561866
vt -0.342259 0.622794
vt -0.325541 0.685187
vt -0.403187 0.630815
vt -0.403187 0.695409
vt -0.464115 0.622794
vt -0.480833 0.685187
vt -0.520890 0.599277
vt -0.553187 0.655217
vt -0.569644 0.561866
vt -0.615319 0.607541
vt -0.662995 0.545409
vt -0.607055 0.513112
vt -0.630572 0.334482
vt -0.662994 0.245409
vt -0.607055 0.277706
vt -0.692965 0.317764
vt -0.692965 0.473055
vt -0.630572 0.456337
vt -0.703187 0.395409
vt -0.638593 0.395409
vt -0.553187 0.135602
vt -0.464115 0.168024
vt -0.520890 0.191542
vt -0.480833 0.105632
vt -0.615319 0.183277
vt -0.569644 0.228952
vt -0.473453 0.376582
vt -0.536840 0.359597
vt -0.466185 0.359037
vt -0.403187 0.395409
vt -0.523017 0.326225
vt -0.587145 0.346118
vt -0.568119 0.300185
vt -0.619443 0.337464
vt -0.597077 0.283467
vt -0.541555 0.395409
vt -0.593634 0.395409
vt -0.627071 0.395409
vt -0.475931 0.395409
vt -0.587145 0.444701
vt -0.619443 0.453355
vt -0.536840 0.431222
vt -0.473453 0.414237
vt -0.466185 0.431781
vt -0.523017 0.464593
vt -0.568119 0.490633
vt -0.597077 0.507351
vt -0.561497 0.553719
vt -0.537854 0.530076
vt -0.501028 0.493250
vt -0.454625 0.446847
vt -0.439559 0.458408
vt -0.472371 0.515240
vt -0.498411 0.560342
vt -0.515129 0.589299
vt -0.438999 0.529063
vt -0.422015 0.465675
vt -0.452478 0.579368
vt -0.461133 0.611665
vt -0.353895 0.579368
vt -0.403187 0.619294
vt -0.403187 0.585857
vt -0.345241 0.611665
vt -0.367375 0.529063
vt -0.403187 0.533777
vt -0.384359 0.465675
vt -0.403187 0.468154
vt -0.307963 0.560342
vt -0.291245 0.589299
vt -0.334003 0.515240
vt -0.366815 0.458408
vt -0.351749 0.446847
vt -0.305346 0.493250
vt -0.268520 0.530076
vt -0.244877 0.553719
vt -0.238254 0.490633
vt -0.209297 0.507351
vt -0.283356 0.464593
vt -0.340188 0.431781
vt -0.332921 0.414237
vt -0.269533 0.431222
vt -0.219229 0.444701
vt -0.186931 0.453355
vt -0.334003 0.275579
vt -0.366815 0.332411
vt -0.367375 0.261756
vt -0.384359 0.325143
vt -0.353895 0.211451
vt -0.307963 0.230477
vt -0.291245 0.201520
vt -0.345241 0.179153
vt -0.403187 0.204962
vt -0.403187 0.257041
vt -0.403187 0.171525
vt -0.403187 0.322665
vt -0.438999 0.261756
vt -0.452478 0.211451
vt -0.461133 0.179153
vt -0.422015 0.325143
vt -0.439559 0.332411
vt -0.472371 0.275579
vt -0.498411 0.230477
vt -0.515129 0.201520
vt -0.537854 0.260743
vt -0.561497 0.237099
vt -0.501028 0.297568
vt -0.454625 0.343971
vt -0.212739 0.395409
vt -0.264819 0.395409
vt -0.330442 0.395409
vt -0.179302 0.395409
vt -0.219229 0.346118
vt -0.269534 0.359597
vt -0.332921 0.376582
vt -0.186931 0.337464
vt -0.209297 0.283467
vt -0.238254 0.300185
vt -0.283356 0.326225
vt -0.340188 0.359037
vt -0.351749 0.343971
vt -0.305346 0.297568
vt -0.268520 0.260742
vt -0.244877 0.237099
vt -0.345242 0.438755
vt -0.342260 0.470409
vt -0.662994 0.545409
vt -0.662995 0.245409
vt -0.028843 0.532716
vt 0.033289 0.382716
vt 0.033289 0.532716
vt -0.028843 0.382716
vt -0.101197 0.532716
vt -0.101197 0.382716
vt -0.178843 0.532716
vt -0.178843 0.382716
vt -0.256488 0.532716
vt -0.256488 0.382716
vt -0.328842 0.532716
vt -0.328842 0.382716
vt -0.390974 0.532716
vt -0.390974 0.382716
vt -0.296545 0.532716
vt -0.337153 0.501061
vt -0.290785 0.501061
vt -0.345300 0.532716
vt -0.239770 0.532716
vt -0.236788 0.501061
vt -0.178843 0.501061
vt -0.120897 0.501061
vt -0.117915 0.532716
vt -0.066900 0.501061
vt -0.061139 0.532716
vt -0.020532 0.501061
vt -0.012385 0.532716
vt -0.028843 0.197908
vt -0.012385 0.291258
vt -0.061140 0.253848
vt 0.033289 0.245584
vt 0.025025 0.340013
vt 0.080965 0.307716
vt -0.178843 0.157716
vt -0.117915 0.230331
vt -0.178843 0.222310
vt -0.101197 0.167938
vt 0.110935 0.380070
vt 0.056564 0.457716
vt 0.048542 0.396788
vt 0.121157 0.457716
vt 0.110935 0.535362
vt 0.048542 0.518643
vt 0.080965 0.607716
vt 0.025025 0.575419
vt -0.061139 0.661583
vt 0.033289 0.669848
vt -0.028843 0.717523
vt -0.012385 0.624173
vt -0.117915 0.685101
vt -0.101197 0.747494
vt -0.178843 0.693122
vt -0.178843 0.757716
vt -0.239770 0.685101
vt -0.256489 0.747494
vt -0.296545 0.661583
vt -0.328843 0.717523
vt -0.345300 0.624173
vt -0.390975 0.669848
vt -0.438650 0.607716
vt -0.382710 0.575419
vt -0.406227 0.396788
vt -0.438650 0.307716
vt -0.382710 0.340013
vt -0.468620 0.380070
vt -0.468620 0.535362
vt -0.406227 0.518643
vt -0.478843 0.457716
vt -0.414249 0.457716
vt -0.328843 0.197908
vt -0.239770 0.230331
vt -0.296545 0.253848
vt -0.256488 0.167938
vt -0.390974 0.245584
vt -0.345300 0.291258
vt -0.249108 0.438888
vt -0.312496 0.421903
vt -0.241841 0.421344
vt -0.178843 0.457716
vt -0.298673 0.388532
vt -0.362801 0.408424
vt -0.343775 0.362492
vt -0.395098 0.399770
vt -0.372732 0.345774
vt -0.317211 0.457716
vt -0.369290 0.457716
vt -0.402727 0.457716
vt -0.251587 0.457716
vt -0.362801 0.507007
vt -0.395098 0.515661
vt -0.312496 0.493528
vt -0.249108 0.476543
vt -0.241841 0.494088
vt -0.298673 0.526900
vt -0.343775 0.552939
vt -0.372732 0.569658
vt -0.337153 0.616026
vt -0.313509 0.592383
vt -0.276684 0.555557
vt -0.230281 0.509154
vt -0.215215 0.520714
vt -0.248027 0.577546
vt -0.274066 0.622648
vt -0.290785 0.651605
vt -0.214655 0.591369
vt -0.197670 0.527982
vt -0.228134 0.641674
vt -0.236788 0.673971
vt -0.129551 0.641674
vt -0.178843 0.681600
vt -0.178843 0.648163
vt -0.120897 0.673971
vt -0.143030 0.591369
vt -0.178843 0.596084
vt -0.160015 0.527982
vt -0.178843 0.530460
vt -0.083619 0.622648
vt -0.066900 0.651605
vt -0.109658 0.577546
vt -0.142470 0.520714
vt -0.127405 0.509154
vt -0.081001 0.555557
vt -0.044176 0.592383
vt -0.020532 0.616026
vt -0.013910 0.552939
vt 0.015047 0.569658
vt -0.059012 0.526900
vt -0.115844 0.494088
vt -0.108577 0.476543
vt -0.045189 0.493528
vt 0.005116 0.507007
vt 0.037413 0.515661
vt -0.109658 0.337885
vt -0.142470 0.394717
vt -0.143030 0.324062
vt -0.160015 0.387450
vt -0.129551 0.273758
vt -0.083619 0.292783
vt -0.066900 0.263826
vt -0.120897 0.241460
vt -0.178843 0.267268
vt -0.178843 0.319348
vt -0.178843 0.233831
vt -0.178843 0.384971
vt -0.214655 0.324062
vt -0.228134 0.273758
vt -0.236788 0.241460
vt -0.197670 0.387450
vt -0.215215 0.394717
vt -0.248027 0.337885
vt -0.274066 0.292783
vt -0.290785 0.263826
vt -0.313509 0.323049
vt -0.337153 0.299406
vt -0.276684 0.359875
vt -0.230281 0.406278
vt 0.011605 0.457716
vt -0.040475 0.457716
vt -0.106098 0.457716
vt 0.045042 0.457716
vt 0.005116 0.408424
vt -0.045189 0.421903
vt -0.108577 0.438888
vt 0.037413 0.399770
vt 0.015047 0.345774
vt -0.013910 0.362492
vt -0.059012 0.388532
vt -0.115844 0.421344
vt -0.127405 0.406278
vt -0.081001 0.359875
vt -0.044176 0.323049
vt -0.020532 0.299406
vt -0.328843 0.532716
vt -0.328843 0.382716
vt -0.390975 0.532716
vt -0.390975 0.382716
vt -0.028842 0.532716
vt -0.028842 0.382716
vt -0.061140 0.532716
vt -0.012385 0.532716
vt -0.296546 0.532716
vt -0.066901 0.501061
vt -0.020533 0.501061
vt 0.033289 0.245584
vt 0.080965 0.307716
vt -0.390975 0.245584
vt 0.080965 0.607716
vt -0.256488 0.747494
vt -0.028842 0.717523
vt 0.914983 1.356720
vt 0.974983 1.206720
vt 0.974983 1.356720
vt 0.914983 1.206720
vt 0.884983 1.406720
vt 0.944983 1.356720
vt 0.944983 1.406720
vt 0.884983 1.356720
vt 0.434983 1.356720
vt 0.434983 1.206720
vt 0.464983 1.406720
vt 0.464983 1.356720
vt 0.884983 1.576720
vt 0.464983 1.576720
vt 0.464983 1.036720
vt 0.404983 1.516720
vt 0.404983 1.096720
vt 0.944983 1.516720
vt 0.884983 1.036720
vt 0.944983 1.096720
vt 0.914983 1.606720
vt 0.434983 1.606720
vt 0.434983 1.006720
vt 0.374983 1.546720
vt 0.374983 1.066720
vt 0.974983 1.546720
vt 0.914983 1.006720
vt 0.974983 1.066720
vt 0.374983 1.356720
vt 0.374983 1.206720
vt 0.404983 1.356720
vt 0.404983 1.406720
vt 0.914984 1.206720
vt 0.914984 1.356720
vt 0.884984 1.356720
vt 0.884984 1.406720
s 0
usemtl Handle1Mtl.019
f 1/1/1 2/1/1 3/1/1
f 4/2/2 5/2/2 6/3/2
s 1
f 7/3/3 8/2/4 9/4/5
s 0
f 5/2/2 10/3/2 6/3/2
f 11/4/2 10/3/2 12/4/2
f 10/3/2 11/4/2 6/3/2
s 1
f 13/5/6 14/6/6 15/7/6
f 16/6/6 17/5/6 18/8/6
f 19/9/7 20/10/7 21/11/7
f 22/12/4 9/4/5 8/2/4
f 19/9/7 21/11/7 23/13/7
s 0
f 22/12/3 8/2/2 24/2/3
f 25/14/8 26/15/9 27/14/1
s 1
f 28/16/10 29/17/10 30/1/10
f 23/13/7 31/18/7 32/19/7
f 26/15/11 33/20/11 34/21/11
f 35/17/10 36/22/10 37/1/10
s 0
f 21/11/12 38/13/12 23/13/12
f 39/20/1 40/20/1 41/21/1
f 19/9/7 23/13/7 42/9/1
f 43/14/1 41/21/1 44/14/1
s 1
f 34/21/11 27/14/11 26/15/11
s 0
f 45/14/1 25/14/1 27/14/1
f 25/14/1 45/14/13 46/21/13
f 47/2/3 48/3/2 49/3/3
f 46/21/1 50/21/13 25/14/13
f 51/5/1 52/5/1 53/5/1
f 49/3/3 24/2/2 47/2/3
f 54/21/1 44/14/1 41/21/1
f 47/2/2 24/2/2 8/2/2
f 40/20/1 54/21/1 41/21/1
s 1
f 42/9/7 23/13/7 32/19/7
usemtl Inputb1Mtl.001
f 57/23/14 56/24/15 55/25/15
f 56/24/15 57/23/14 58/26/14
f 57/23/14 59/27/16 58/26/14
f 58/26/14 59/27/16 60/28/17
f 59/27/16 61/29/18 60/28/17
f 60/28/17 61/29/18 62/30/18
f 61/29/18 63/31/19 62/30/18
f 62/30/18 63/31/19 64/32/19
f 63/31/19 65/33/20 64/32/19
f 64/32/19 65/33/20 66/34/20
f 66/34/20 65/33/20 67/35/21
f 66/34/20 67/35/21 68/36/21
f 69/37/22 70/38/23 71/39/24
f 70/38/23 69/37/22 72/40/25
f 75/41/26 74/39/24 73/42/27
f 74/39/24 75/41/26 76/37/22
f 79/29/28 78/42/29 77/43/30
f 78/42/29 79/29/28 80/41/26
f 81/44/31 83/29/28 82/43/30
f 83/29/28 81/44/31 84/45/32
f 85/46/33 87/45/32 86/44/31
f 87/45/32 85/46/33 88/47/34
f 89/48/35 91/47/36 90/46/37
f 91/47/36 89/48/35 92/49/38
f 93/50/10 94/51/10 95/52/10
f 94/51/10 93/50/10 96/53/10
f 97/54/10 98/53/10 99/55/10
f 98/53/10 97/54/10 100/51/10
f 101/56/10 102/57/10 103/58/10
f 102/57/10 101/56/10 104/59/10
f 105/57/10 106/50/10 107/52/10
f 106/50/10 105/57/10 108/59/10
f 109/60/10 110/61/10 111/62/10
f 110/61/10 109/60/10 112/63/10
f 113/61/10 114/63/10 115/64/10
f 113/61/10 115/64/10 116/65/10
f 117/66/10 118/67/10 119/64/10
f 119/64/10 118/67/10 120/65/10
f 121/60/10 122/54/10 123/55/10
f 122/54/10 121/60/10 124/62/10
f 125/68/10 126/69/10 127/70/10
f 126/69/10 125/68/10 128/71/10
f 129/72/10 130/70/10 131/73/10
f 130/70/10 129/72/10 132/68/10
f 133/74/10 134/73/10 135/75/10
f 136/73/10 137/74/10 138/72/10
f 139/71/10 140/66/10 141/69/10
f 140/66/10 139/71/10 142/67/10
f 143/75/10 144/76/10 145/74/10
f 144/76/10 143/75/10 146/77/10
f 147/77/10 148/78/10 149/76/10
f 148/78/10 147/77/10 150/79/10
f 151/78/10 152/79/10 153/80/10
f 152/79/10 154/81/10 153/80/10
f 155/82/10 156/83/10 157/81/10
f 157/81/10 156/83/10 158/80/10
f 159/84/10 160/85/10 161/86/10
f 160/85/10 159/84/10 162/87/10
f 163/82/10 164/88/10 165/83/10
f 164/88/10 166/89/10 165/83/10
f 167/89/10 168/90/10 169/91/10
f 170/90/10 171/89/10 172/88/10
f 173/91/10 174/87/10 175/84/10
f 174/87/10 173/91/10 176/90/10
f 177/92/10 178/93/10 179/94/10
f 178/93/10 177/92/10 180/95/10
f 181/95/10 182/56/10 183/93/10
f 182/56/10 184/58/10 183/93/10
f 185/86/10 186/96/10 187/97/10
f 186/96/10 185/86/10 188/85/10
f 189/97/10 190/96/10 191/94/10
f 190/96/10 192/92/10 191/94/10
f 193/98/39 194/99/40 195/100/41
f 196/101/10 193/98/39 195/100/41
f 195/100/41 194/99/40 197/102/42
f 194/99/40 198/103/43 197/102/42
f 197/102/42 198/103/43 199/104/44
f 199/104/44 198/103/43 200/105/45
f 199/104/44 200/105/45 201/106/46
f 202/103/47 203/107/48 204/108/49
f 202/103/47 204/108/49 205/109/50
f 203/107/48 202/103/47 206/99/40
f 202/103/47 205/109/50 207/105/45
f 206/99/40 208/98/39 203/107/48
f 209/110/51 203/107/48 208/98/39
f 210/101/10 209/110/51 208/98/39
f 211/109/50 212/111/52 213/112/53
f 212/111/52 211/109/50 214/108/49
f 214/108/49 215/107/48 212/111/52
f 215/107/48 216/113/54 212/111/52
f 215/107/48 217/114/55 216/113/54
f 217/114/55 215/107/48 218/110/51
f 219/101/10 217/114/55 218/110/51
f 220/101/10 221/115/56 222/114/55
f 221/115/56 223/113/54 222/114/55
f 223/113/54 221/115/56 224/116/57
f 224/116/57 225/111/58 223/113/54
f 225/111/58 224/116/57 226/117/59
f 226/117/59 227/112/53 225/111/58
f 227/112/53 226/117/59 228/118/60
f 229/119/61 230/118/62 231/117/59
f 229/119/61 231/117/59 232/120/63
f 231/117/59 233/121/64 232/120/63
f 233/121/64 231/117/59 234/116/57
f 234/116/57 235/122/65 233/121/64
f 235/122/65 234/116/57 236/115/66
f 237/101/10 235/122/65 236/115/66
f 238/123/67 239/121/64 240/122/65
f 241/101/10 238/123/67 240/122/65
f 239/121/64 238/123/67 242/124/68
f 243/125/69 239/121/64 242/124/68
f 239/121/64 243/125/69 244/120/70
f 245/126/71 244/120/70 243/125/69
f 244/120/70 245/126/71 246/119/61
f 247/127/72 248/125/69 249/124/68
f 250/123/67 247/127/72 249/124/68
f 247/127/72 250/123/67 251/128/73
f 252/101/10 251/128/73 250/123/67
f 248/125/69 247/127/72 253/129/74
f 254/130/75 248/125/69 253/129/74
f 248/125/69 254/130/75 255/126/71
f 256/131/76 257/132/77 258/133/78
f 257/132/77 256/131/76 259/134/79
f 258/133/78 260/135/80 256/131/76
f 260/135/80 258/133/78 261/136/81
f 261/136/81 262/137/82 260/135/80
f 262/137/82 261/136/81 263/138/83
f 264/101/10 262/137/82 263/138/83
f 265/131/84 266/139/85 267/140/86
f 265/131/84 268/141/87 266/139/85
f 265/131/84 267/140/86 269/134/79
f 268/141/87 265/131/84 270/135/80
f 270/135/80 271/142/88 268/141/87
f 271/142/88 270/135/80 272/137/82
f 273/101/10 271/142/88 272/137/82
f 274/101/10 275/143/89 276/142/88
f 276/142/88 275/143/89 277/144/90
f 278/141/87 276/142/88 277/144/90
f 277/144/90 279/139/85 278/141/87
f 279/139/85 277/144/90 280/145/91
f 280/145/91 281/140/92 279/139/85
f 281/140/92 280/145/91 282/146/93
f 283/146/23 285/147/94 284/148/95
f 285/147/94 283/146/23 286/145/91
f 285/147/94 286/145/91 287/144/90
f 285/147/94 287/144/90 288/149/96
f 287/144/90 289/143/89 288/149/96
f 288/149/96 289/143/89 290/150/97
f 291/101/10 290/150/97 289/143/89
f 292/149/96 293/151/98 294/152/99
f 293/151/98 292/149/96 295/150/97
f 296/101/10 293/151/98 295/150/97
f 294/152/99 297/147/94 292/149/96
f 297/147/94 294/152/99 298/153/100
f 299/154/27 297/147/94 298/153/100
f 299/154/27 300/148/101 297/147/94
f 301/155/102 302/156/103 303/157/104
f 302/156/103 304/158/105 303/157/104
f 305/101/10 304/158/105 302/156/103
f 301/155/102 303/157/104 306/159/106
f 307/160/107 301/155/102 306/159/106
f 306/159/106 308/161/108 307/160/107
f 308/161/108 306/159/106 309/162/109
f 310/163/110 311/159/111 312/157/104
f 310/163/110 313/162/109 311/159/111
f 310/163/110 312/157/104 314/164/112
f 313/162/109 310/163/110 315/165/113
f 312/157/104 316/158/105 314/164/112
f 314/164/112 316/158/105 317/166/114
f 318/101/10 317/166/114 316/158/105
f 319/163/110 320/167/115 321/168/116
f 322/169/117 319/163/110 321/168/116
f 320/167/115 319/163/110 323/164/112
f 322/169/117 324/165/113 319/163/110
f 323/164/112 325/170/118 320/167/115
f 325/170/118 323/164/112 326/166/114
f 327/101/10 325/170/118 326/166/114
f 328/101/10 329/171/119 330/170/118
f 329/171/119 331/167/115 330/170/118
f 331/167/115 329/171/119 332/172/120
f 332/172/120 333/168/121 331/167/115
f 333/168/121 332/172/120 334/173/122
f 334/173/122 335/169/117 333/168/121
f 335/169/117 334/173/122 336/174/123
f 338/174/124 339/175/125 337/176/126
f 339/175/125 338/174/124 340/173/122
f 341/172/120 339/175/125 340/173/122
f 339/175/125 341/172/120 342/177/127
f 343/171/119 342/177/127 341/172/120
f 342/177/127 343/171/119 344/178/128
f 345/101/10 344/178/128 343/171/119
f 346/100/129 347/177/127 348/178/128
f 349/101/10 346/100/129 348/178/128
f 347/177/127 346/100/129 350/102/42
f 350/102/42 351/175/125 347/177/127
f 351/175/125 350/102/42 352/104/44
f 352/104/44 353/176/126 351/175/125
f 353/176/126 352/104/44 354/106/130
f 355/133/78 356/127/72 357/136/81
f 356/127/72 355/133/78 358/129/131
f 359/128/132 357/136/81 356/127/72
f 357/136/81 359/128/132 360/138/83
f 361/101/10 360/138/83 359/128/132
f 362/132/77 358/129/131 355/133/78
f 358/129/131 362/132/77 363/130/75
f 364/179/133 365/152/99 366/180/134
f 365/152/99 367/181/135 366/180/134
f 367/181/135 365/152/99 368/151/136
f 369/101/10 367/181/135 368/151/136
f 365/152/99 364/179/133 370/153/137
f 371/182/138 370/153/137 364/179/133
f 370/153/137 371/182/138 372/154/27
f 373/183/139 374/180/134 375/184/140
f 374/180/134 373/183/139 376/179/133
f 377/181/135 375/184/140 374/180/134
f 375/184/140 377/181/135 378/185/141
f 379/101/10 378/185/141 377/181/135
f 380/186/31 376/179/133 373/183/139
f 376/179/133 380/186/31 381/182/142
f 382/187/143 383/183/139 384/188/144
f 383/183/139 385/189/145 384/188/144
f 383/183/139 382/187/143 386/186/31
f 385/189/145 383/183/139 387/184/140
f 387/184/140 388/190/146 385/189/145
f 388/190/146 387/184/140 389/185/141
f 390/101/10 388/190/146 389/185/141
f 391/101/10 392/191/147 393/190/146
f 392/191/147 394/192/148 393/190/146
f 393/190/146 394/192/148 395/189/145
f 394/192/148 396/188/144 395/189/145
f 396/188/144 394/192/148 397/193/149
f 396/188/144 397/193/149 398/194/150
f 396/188/144 398/194/150 399/187/151
f 400/156/103 401/192/148 402/191/147
f 403/101/10 400/156/103 402/191/147
f 401/192/148 400/156/103 404/155/102
f 404/155/102 405/193/149 401/192/148
f 405/193/149 404/155/102 406/160/107
f 405/193/149 406/160/107 407/161/108
f 405/193/149 407/161/108 408/194/152
f 409/32/153 410/30/2 411/31/154
f 410/30/2 412/29/2 411/31/154
f 409/32/153 411/31/154 413/33/155
f 414/34/155 409/32/153 413/33/155
f 414/34/155 413/33/155 415/35/156
f 415/35/156 416/36/156 414/34/155
f 418/24/21 417/25/21 419/23/157
f 419/23/157 420/26/157 418/24/21
f 420/26/157 419/23/157 421/27/158
f 422/28/159 420/26/157 421/27/158
f 422/28/159 421/27/158 423/29/2
f 424/30/2 422/28/159 423/29/2
f 425/39/160 426/42/161 427/41/162
f 425/39/160 427/41/162 428/37/163
f 429/42/161 430/43/164 431/29/165
f 429/42/161 431/29/165 432/41/166
f 433/44/117 435/29/165 434/43/164
f 435/29/165 433/44/117 436/45/167
f 438/46/168 439/45/167 437/44/169
f 439/45/167 438/46/168 440/47/170
f 441/48/171 442/47/172 443/46/173
f 442/47/172 441/48/171 444/49/174
f 445/39/160 447/37/175 446/38/176
f 446/38/176 447/37/175 448/40/38
f 451/23/177 450/24/156 449/25/156
f 451/23/177 452/26/178 450/24/156
f 453/27/179 452/26/178 451/23/177
f 453/27/179 454/28/180 452/26/178
f 455/29/181 454/28/180 453/27/179
f 455/29/181 456/30/181 454/28/180
f 457/31/182 456/30/181 455/29/181
f 457/31/182 458/32/183 456/30/181
f 459/33/184 458/32/183 457/31/182
f 459/33/184 460/34/184 458/32/183
f 461/35/185 460/34/184 459/33/184
f 461/35/185 462/36/185 460/34/184
f 464/39/186 463/42/45 465/41/187
f 465/41/187 466/37/188 464/39/186
f 468/42/189 467/43/190 469/29/191
f 469/29/191 470/41/187 468/42/189
f 472/195/53 473/29/191 471/43/190
f 473/29/191 472/195/53 474/196/192
f 476/46/193 477/196/192 475/195/194
f 477/196/192 476/46/193 478/47/195
f 479/47/195 480/48/196 481/49/197
f 480/48/196 479/47/195 482/46/198
f 483/38/199 484/39/186 485/37/200
f 486/40/174 483/38/199 485/37/200
f 487/53/6 488/197/6 489/92/6
f 487/53/6 490/59/6 491/50/6
f 487/53/6 492/56/6 490/59/6
f 489/92/6 492/56/6 487/53/6
f 492/56/6 489/92/6 493/95/6
f 494/69/6 488/197/6 487/53/6
f 494/69/6 487/53/6 495/55/6
f 488/197/6 496/90/6 489/92/6
f 496/90/6 488/197/6 497/88/6
f 498/87/6 489/92/6 496/90/6
f 498/87/6 499/96/6 489/92/6
f 499/96/6 498/87/6 500/198/6
f 501/63/6 494/69/6 495/55/6
f 501/63/6 495/55/6 502/60/6
f 494/69/6 501/63/6 503/66/6
f 503/66/6 501/63/6 504/64/6
f 488/197/6 494/69/6 505/79/6
f 488/197/6 505/79/6 506/81/6
f 505/79/6 494/69/6 507/75/6
f 505/79/6 507/75/6 508/77/6
f 507/75/6 494/69/6 509/70/6
f 507/75/6 509/70/6 510/73/6
f 513/23/201 512/24/185 511/25/185
f 512/24/185 513/23/201 514/26/201
f 515/27/202 514/26/201 513/23/201
f 514/26/201 515/27/202 516/28/203
f 517/29/1 516/28/203 515/27/202
f 516/28/203 517/29/1 518/30/1
f 519/31/204 518/30/1 517/29/1
f 518/30/1 519/31/204 520/32/205
f 521/33/206 520/32/205 519/31/204
f 520/32/205 521/33/206 522/34/206
f 523/35/15 522/34/206 521/33/206
f 522/34/206 523/35/15 524/36/15
f 526/38/207 525/39/208 527/37/209
f 527/37/209 528/40/197 526/38/207
f 531/41/210 530/39/208 529/42/75
f 531/41/210 532/37/211 530/39/208
f 534/44/212 535/29/213 533/43/214
f 535/29/213 534/44/212 536/45/215
f 537/46/216 539/45/215 538/44/212
f 539/45/215 537/46/216 540/47/217
f 542/48/23 543/47/218 541/46/219
f 543/47/218 542/48/23 544/49/25
f 547/29/213 546/42/220 545/43/214
f 547/29/213 548/41/210 546/42/220
f 551/199/14 550/200/15 549/201/15
f 550/200/15 551/199/14 552/202/14
f 551/199/14 553/203/16 552/202/14
f 552/202/14 553/203/16 554/204/17
f 553/203/16 555/205/18 554/204/17
f 554/204/17 555/205/18 556/206/18
f 555/205/18 557/207/221 556/206/18
f 556/206/18 557/207/221 558/208/221
f 557/207/221 559/209/222 558/208/221
f 558/208/221 559/209/222 560/210/20
f 560/210/20 559/209/222 561/211/21
f 560/210/20 561/211/21 562/212/21
f 563/213/22 564/214/23 565/215/24
f 564/214/23 563/213/22 566/216/223
f 569/217/26 568/215/24 567/218/27
f 568/215/24 569/217/26 570/213/22
f 573/205/28 572/218/27 571/219/30
f 572/218/27 573/205/28 574/217/26
f 575/220/31 577/205/28 576/219/30
f 577/205/28 575/220/31 578/221/32
f 579/222/33 581/221/224 580/220/225
f 581/221/224 579/222/33 582/223/36
f 583/224/35 585/223/36 584/222/37
f 585/223/36 583/224/35 586/225/38
f 587/226/10 588/227/10 589/228/10
f 588/227/10 587/226/10 590/229/10
f 591/230/10 592/229/10 593/231/10
f 592/229/10 591/230/10 594/227/10
f 595/232/10 596/233/10 597/234/10
f 596/233/10 595/232/10 598/235/10
f 599/233/10 600/226/10 601/228/10
f 600/226/10 599/233/10 602/235/10
f 603/236/10 604/237/10 605/238/10
f 604/237/10 603/236/10 606/239/10
f 607/237/10 608/239/10 609/240/10
f 607/237/10 609/240/10 610/241/10
f 611/242/10 612/243/10 613/240/10
f 613/240/10 612/243/10 614/241/10
f 615/236/10 616/230/10 617/231/10
f 616/230/10 615/236/10 618/238/10
f 619/244/10 620/245/10 621/246/10
f 620/245/10 619/244/10 622/247/10
f 623/248/10 624/246/10 625/249/10
f 624/246/10 623/248/10 626/244/10
f 627/250/10 628/249/10 629/251/10
f 630/249/10 631/250/10 632/248/10
f 633/247/10 634/242/10 635/245/10
f 634/242/10 633/247/10 636/243/10
f 637/251/10 638/252/10 639/250/10
f 638/252/10 637/251/10 640/253/10
f 641/253/10 642/254/10 643/252/10
f 642/254/10 641/253/10 644/255/10
f 645/254/10 646/255/10 647/256/10
f 646/255/10 648/257/10 647/256/10
f 649/258/10 650/259/10 651/257/10
f 651/257/10 650/259/10 652/256/10
f 653/260/10 654/261/10 655/262/10
f 654/261/10 653/260/10 656/263/10
f 657/258/10 658/264/10 659/259/10
f 658/264/10 660/265/10 659/259/10
f 661/265/10 662/266/10 663/267/10
f 664/266/10 665/265/10 666/264/10
f 667/267/10 668/263/10 669/260/10
f 668/263/10 667/267/10 670/266/10
f 671/268/10 672/269/10 673/270/10
f 672/269/10 671/268/10 674/271/10
f 675/271/10 676/232/10 677/269/10
f 676/232/10 678/234/10 677/269/10
f 679/262/10 680/272/10 681/273/10
f 680/272/10 679/262/10 682/261/10
f 683/273/10 684/272/10 685/270/10
f 684/272/10 686/268/10 685/270/10
f 687/274/39 688/275/40 689/276/41
f 690/277/10 687/274/39 689/276/41
f 689/276/41 688/275/40 691/278/42
f 688/275/40 692/279/43 691/278/42
f 691/278/42 692/279/43 693/280/44
f 693/280/44 692/279/43 694/281/45
f 693/280/44 694/281/45 695/282/130
f 696/279/47 697/283/48 698/284/49
f 696/279/47 698/284/49 699/285/226
f 697/283/48 696/279/47 700/275/40
f 696/279/47 699/285/226 701/281/45
f 700/275/40 702/274/39 697/283/48
f 703/286/51 697/283/48 702/274/39
f 704/277/10 703/286/51 702/274/39
f 705/285/50 706/287/52 707/288/53
f 706/287/52 705/285/50 708/284/49
f 708/284/49 709/283/48 706/287/52
f 709/283/48 710/289/54 706/287/52
f 709/283/48 711/290/55 710/289/54
f 711/290/55 709/283/48 712/286/51
f 713/277/10 711/290/55 712/286/51
f 714/277/10 715/291/56 716/290/55
f 715/291/56 717/289/54 716/290/55
f 717/289/54 715/291/56 718/292/57
f 718/292/57 719/287/58 717/289/54
f 719/287/58 718/292/57 720/293/59
f 720/293/59 721/288/53 719/287/58
f 721/288/53 720/293/59 722/294/62
f 723/295/227 724/294/62 725/293/59
f 723/295/227 725/293/59 726/296/63
f 725/293/59 727/297/64 726/296/63
f 727/297/64 725/293/59 728/292/57
f 728/292/57 729/298/65 727/297/64
f 729/298/65 728/292/57 730/291/66
f 731/277/10 729/298/65 730/291/66
f 732/299/67 733/297/64 734/298/65
f 735/277/10 732/299/67 734/298/65
f 733/297/64 732/299/67 736/300/68
f 737/301/69 733/297/64 736/300/68
f 733/297/64 737/301/69 738/296/63
f 739/302/71 738/296/63 737/301/69
f 738/296/63 739/302/71 740/295/61
f 741/303/72 742/301/69 743/300/68
f 744/299/67 741/303/72 743/300/68
f 741/303/72 744/299/67 745/304/73
f 746/277/10 745/304/73 744/299/67
f 742/301/69 741/303/72 747/305/74
f 748/306/75 742/301/69 747/305/74
f 742/301/69 748/306/75 749/302/228
f 750/307/76 751/308/77 752/309/78
f 751/308/77 750/307/76 753/310/79
f 752/309/78 754/311/80 750/307/76
f 754/311/80 752/309/78 755/312/81
f 755/312/81 756/313/229 754/311/80
f 756/313/229 755/312/81 757/314/83
f 758/277/10 756/313/229 757/314/83
f 759/307/84 760/315/85 761/316/92
f 759/307/84 762/317/87 760/315/85
f 759/307/84 761/316/92 763/310/79
f 762/317/87 759/307/84 764/311/80
f 764/311/80 765/318/88 762/317/87
f 765/318/88 764/311/80 766/313/82
f 767/277/10 765/318/88 766/313/82
f 768/277/10 769/319/89 770/318/88
f 770/318/88 769/319/89 771/320/90
f 772/317/87 770/318/88 771/320/90
f 771/320/90 773/315/85 772/317/87
f 773/315/85 771/320/90 774/321/91
f 774/321/91 775/316/92 773/315/85
f 775/316/92 774/321/91 776/322/23
f 777/322/23 779/323/94 778/324/95
f 779/323/94 777/322/23 780/321/91
f 779/323/94 780/321/91 781/320/90
f 779/323/94 781/320/90 782/325/96
f 781/320/90 783/319/89 782/325/96
f 782/325/96 783/319/89 784/326/97
f 785/277/10 784/326/97 783/319/89
f 786/325/96 787/327/98 788/328/99
f 787/327/98 786/325/96 789/326/97
f 790/277/10 787/327/98 789/326/97
f 788/328/99 791/323/94 786/325/96
f 791/323/94 788/328/99 792/329/100
f 793/330/27 791/323/94 792/329/100
f 793/330/27 794/324/230 791/323/94
f 795/331/102 796/332/103 797/333/104
f 796/332/103 798/334/105 797/333/104
f 799/277/10 798/334/105 796/332/103
f 795/331/102 797/333/104 800/335/106
f 801/336/107 795/331/102 800/335/106
f 800/335/106 802/337/231 801/336/107
f 802/337/231 800/335/106 803/338/109
f 804/339/110 805/335/111 806/333/104
f 804/339/110 807/338/109 805/335/111
f 804/339/110 806/333/104 808/340/112
f 807/338/109 804/339/110 809/341/113
f 806/333/104 810/334/105 808/340/112
f 808/340/112 810/334/105 811/342/114
f 812/277/10 811/342/114 810/334/105
f 813/339/110 814/343/115 815/344/116
f 816/345/117 813/339/110 815/344/116
f 814/343/115 813/339/110 817/340/112
f 816/345/117 818/341/113 813/339/110
f 817/340/112 819/346/118 814/343/115
f 819/346/118 817/340/112 820/342/114
f 821/277/10 819/346/118 820/342/114
f 822/277/10 823/347/119 824/346/118
f 823/347/119 825/343/115 824/346/118
f 825/343/115 823/347/119 826/348/120
f 826/348/120 827/344/121 825/343/115
f 827/344/121 826/348/120 828/349/122
f 828/349/122 829/345/117 827/344/121
f 829/345/117 828/349/122 830/350/123
f 832/350/232 833/351/233 831/352/126
f 833/351/233 832/350/232 834/349/122
f 835/348/120 833/351/233 834/349/122
f 833/351/233 835/348/120 836/353/127
f 837/347/119 836/353/127 835/348/120
f 836/353/127 837/347/119 838/354/128
f 839/277/10 838/354/128 837/347/119
f 840/276/129 841/353/127 842/354/128
f 843/277/10 840/276/129 842/354/128
f 841/353/127 840/276/129 844/278/42
f 844/278/42 845/351/234 841/353/127
f 845/351/234 844/278/42 846/280/44
f 846/280/44 847/352/126 845/351/234
f 847/352/126 846/280/44 848/282/130
f 849/309/78 850/303/72 851/312/81
f 850/303/72 849/309/78 852/305/131
f 853/304/132 851/312/81 850/303/72
f 851/312/81 853/304/132 854/314/83
f 855/277/10 854/314/83 853/304/132
f 856/308/77 852/305/131 849/309/78
f 852/305/131 856/308/77 857/306/75
f 858/355/133 859/328/99 860/356/134
f 859/328/99 861/357/135 860/356/134
f 861/357/135 859/328/99 862/327/136
f 863/277/10 861/357/135 862/327/136
f 859/328/99 858/355/133 864/329/137
f 865/358/142 864/329/137 858/355/133
f 864/329/137 865/358/142 866/330/27
f 867/359/235 868/356/134 869/360/140
f 868/356/134 867/359/235 870/355/133
f 871/357/135 869/360/140 868/356/134
f 869/360/140 871/357/135 872/361/141
f 873/277/10 872/361/141 871/357/135
f 874/362/31 870/355/133 867/359/235
f 870/355/133 874/362/31 875/358/142
f 876/363/236 877/359/139 878/364/144
f 877/359/139 879/365/145 878/364/144
f 877/359/139 876/363/236 880/362/31
f 879/365/145 877/359/139 881/360/140
f 881/360/140 882/366/146 879/365/145
f 882/366/146 881/360/140 883/361/141
f 884/277/10 882/366/146 883/361/141
f 885/277/10 886/367/147 887/366/146
f 886/367/147 888/368/148 887/366/146
f 887/366/146 888/368/148 889/365/145
f 888/368/148 890/364/144 889/365/145
f 890/364/144 888/368/148 891/369/237
f 890/364/144 891/369/237 892/370/152
f 890/364/144 892/370/152 893/363/151
f 894/332/103 895/368/148 896/367/147
f 897/277/10 894/332/103 896/367/147
f 895/368/148 894/332/103 898/331/102
f 898/331/102 899/369/149 895/368/148
f 899/369/149 898/331/102 900/336/107
f 899/369/149 900/336/107 901/337/231
f 899/369/149 901/337/231 902/370/150
f 903/208/154 904/206/2 905/207/154
f 904/206/2 906/205/2 905/207/154
f 903/208/154 905/207/154 907/371/155
f 908/372/155 903/208/154 907/371/155
f 908/372/155 907/371/155 909/373/156
f 909/373/156 910/374/156 908/372/155
f 912/200/21 911/201/21 913/375/238
f 913/375/238 914/376/238 912/200/21
f 914/376/238 913/375/238 915/203/239
f 916/204/159 914/376/238 915/203/239
f 916/204/159 915/203/239 917/205/2
f 918/206/2 916/204/159 917/205/2
f 919/215/160 920/218/161 921/217/166
f 919/215/160 921/217/166 922/213/175
f 923/218/161 924/219/164 925/205/165
f 923/218/161 925/205/165 926/217/166
f 927/220/117 929/205/165 928/219/164
f 929/205/165 927/220/117 930/221/167
f 932/222/168 933/221/240 931/220/169
f 933/221/240 932/222/168 934/377/172
f 935/224/171 936/377/172 937/222/173
f 936/377/172 935/224/171 938/378/174
f 939/215/160 941/213/175 940/214/150
f 940/214/150 941/213/175 942/216/38
f 945/199/177 944/200/156 943/201/156
f 945/199/177 946/202/177 944/200/156
f 947/203/241 946/202/177 945/199/177
f 947/203/241 948/204/180 946/202/177
f 949/205/181 948/204/180 947/203/241
f 949/205/181 950/206/181 948/204/180
f 951/207/182 950/206/181 949/205/181
f 951/207/182 952/208/183 950/206/181
f 953/371/184 952/208/183 951/207/182
f 953/371/184 954/372/184 952/208/183
f 955/373/185 954/372/184 953/371/184
f 955/373/185 956/374/185 954/372/184
f 958/215/46 957/218/45 959/217/242
f 959/217/242 960/379/200 958/215/46
f 962/218/189 961/219/190 963/205/191
f 963/205/191 964/217/187 962/218/189
f 966/220/194 967/205/191 965/219/190
f 967/205/191 966/220/194 968/221/192
f 970/380/193 971/221/192 969/220/194
f 971/221/192 970/380/193 972/377/195
f 973/377/195 974/381/61 975/378/197
f 974/381/61 973/377/195 976/380/198
f 977/214/126 978/215/186 979/379/200
f 980/216/174 977/214/126 979/379/200
f 981/382/6 982/258/6 983/268/6
f 981/382/6 984/235/6 985/226/6
f 981/382/6 986/232/6 984/235/6
f 983/268/6 986/232/6 981/382/6
f 986/232/6 983/268/6 987/271/6
f 988/245/6 982/258/6 981/382/6
f 988/245/6 981/382/6 989/383/6
f 982/258/6 990/266/6 983/268/6
f 990/266/6 982/258/6 991/264/6
f 992/263/6 983/268/6 990/266/6
f 992/263/6 993/384/6 983/268/6
f 993/384/6 992/263/6 994/261/6
f 995/239/6 988/245/6 989/383/6
f 995/239/6 989/383/6 996/236/6
f 988/245/6 995/239/6 997/385/6
f 997/385/6 995/239/6 998/240/6
f 982/258/6 988/245/6 999/255/6
f 982/258/6 999/255/6 1000/257/6
f 999/255/6 988/245/6 1001/251/6
f 999/255/6 1001/251/6 1002/386/6
f 1001/251/6 988/245/6 1003/387/6
f 1001/251/6 1003/387/6 1004/249/6
f 1007/199/201 1006/200/185 1005/201/185
f 1006/200/185 1007/199/201 1008/202/201
f 1009/203/203 1008/202/201 1007/199/201
f 1008/202/201 1009/203/203 1010/204/202
f 1011/205/1 1010/204/202 1009/203/203
f 1010/204/202 1011/205/1 1012/206/1
f 1013/207/204 1012/206/1 1011/205/1
f 1012/206/1 1013/207/204 1014/208/204
f 1015/371/206 1014/208/204 1013/207/204
f 1014/208/204 1015/371/206 1016/372/206
f 1017/211/15 1016/372/206 1015/371/206
f 1016/372/206 1017/211/15 1018/212/15
f 1020/214/207 1019/215/208 1021/213/243
f 1021/213/243 1022/216/197 1020/214/207
f 1025/217/210 1024/215/208 1023/218/220
f 1025/217/210 1026/213/211 1024/215/208
f 1028/220/79 1029/205/213 1027/219/214
f 1029/205/213 1028/220/79 1030/221/215
f 1031/222/216 1033/221/244 1032/220/212
f 1033/221/244 1031/222/216 1034/223/217
f 1036/224/245 1037/223/218 1035/222/219
f 1037/223/218 1036/224/245 1038/378/25
f 1041/205/213 1040/218/75 1039/219/214
f 1041/205/213 1042/217/210 1040/218/75
usemtl Output1Mtl.003
f 1043/388/15 1044/389/15 1045/390/15
f 1044/389/15 1043/388/15 1046/391/15
f 1047/392/15 1048/393/15 1049/394/15
f 1048/393/15 1047/392/15 1050/395/15
f 1051/396/246 1052/391/246 1053/388/246
f 1052/391/246 1051/396/246 1054/397/246
f 1055/398/246 1056/395/246 1057/392/246
f 1056/395/246 1055/398/246 1058/399/246
f 1059/400/10 1060/401/10 1061/402/10
f 1061/402/10 1060/401/10 1062/403/10
f 1061/402/10 1062/403/10 1063/404/10
f 1061/402/10 1064/405/10 1059/400/10
f 1064/405/10 1061/402/10 1065/406/10
f 1064/405/10 1065/406/10 1066/407/10
f 1067/408/10 1068/409/10 1069/410/10
f 1069/410/10 1068/409/10 1070/411/10
f 1069/410/10 1070/411/10 1071/412/10
f 1069/410/10 1072/413/10 1067/408/10
f 1072/413/10 1069/410/10 1073/414/10
f 1072/413/10 1073/414/10 1074/415/10
f 1075/396/156 1076/416/156 1077/397/156
f 1076/416/156 1078/417/156 1077/397/156
f 1079/390/21 1080/388/21 1081/389/21
f 1080/388/21 1082/391/21 1081/389/21
f 1083/418/156 1084/399/156 1085/419/156
f 1086/398/156 1085/419/156 1084/399/156
f 1087/395/21 1088/393/21 1089/392/21
f 1090/394/21 1089/392/21 1088/393/21
f 1091/396/2 1092/391/2 1093/388/2
f 1092/391/2 1091/396/2 1094/397/2
f 1095/398/2 1096/395/2 1097/392/2
f 1096/395/2 1095/398/2 1098/399/2
f 1099/396/185 1100/416/185 1101/397/185
f 1100/416/185 1102/417/185 1101/397/185
f 1103/418/185 1104/399/185 1105/419/185
f 1106/398/185 1105/419/185 1104/399/185
f 1107/396/7 1108/420/7 1109/421/7
f 1108/420/7 1107/396/7 1110/397/7
f 1111/398/7 1112/422/7 1113/423/7
f 1112/422/7 1111/398/7 1114/399/7
f 1115/410/6 1116/414/6 1117/413/6
f 1117/413/6 1116/414/6 1118/415/6
f 1119/408/6 1115/410/6 1117/413/6
f 1115/410/6 1119/408/6 1120/409/6
f 1115/410/6 1120/409/6 1121/411/6
f 1115/410/6 1121/411/6 1122/412/6
f 1123/396/1 1124/391/1 1125/388/1
f 1124/391/1 1123/396/1 1126/397/1
f 1127/398/1 1128/395/1 1129/392/1
f 1128/395/1 1127/398/1 1130/399/1
