# Blender 5.1.2
# www.blender.org
mtllib Servo_Physics.mtl
o Servo_Physics
v 0.190920 0.150004 0.442265
v 0.190920 0.150004 0.542267
v 0.190920 -0.149996 0.442265
v 0.190920 -0.149996 0.542267
v -0.059080 0.150004 0.542267
v 0.190920 0.150004 0.542267
v -0.059080 0.150004 0.442265
v 0.190920 0.150004 0.442265
v 0.190920 0.150004 0.542267
v -0.059080 0.150004 0.542267
v 0.190920 -0.149996 0.542267
v -0.059080 -0.149996 0.542267
v -0.059080 0.150004 0.542267
v -0.059080 0.150004 0.442265
v -0.059080 -0.149996 0.542267
v -0.059080 -0.149996 0.442265
v -0.059080 -0.149996 0.442265
v 0.190920 -0.149996 0.442265
v -0.059080 -0.149996 0.542267
v 0.190920 -0.149996 0.542267
v -0.059080 0.150004 0.442265
v 0.190920 0.150004 0.442265
v -0.059080 -0.149996 0.442265
v 0.190920 -0.149996 0.442265
v 0.190920 0.150004 -0.557735
v 0.190920 0.150004 -0.457733
v 0.190920 -0.149996 -0.557735
v 0.190920 -0.149996 -0.457733
v -0.059080 0.150004 -0.457733
v 0.190920 0.150004 -0.457733
v -0.059080 0.150004 -0.557735
v 0.190920 0.150004 -0.557735
v 0.190920 0.150004 -0.457733
v -0.059080 0.150004 -0.457733
v 0.190920 -0.149996 -0.457733
v -0.059080 -0.149996 -0.457733
v -0.059080 0.150004 -0.457733
v -0.059080 0.150004 -0.557735
v -0.059080 -0.149996 -0.457733
v -0.059080 -0.149996 -0.557735
v -0.059080 -0.149996 -0.557735
v 0.190920 -0.149996 -0.557735
v -0.059080 -0.149996 -0.457733
v 0.190920 -0.149996 -0.457733
v -0.059080 0.150004 -0.557735
v 0.190920 0.150004 -0.557735
v -0.059080 -0.149996 -0.557735
v 0.190920 -0.149996 -0.557735
v 0.215921 -0.353556 0.345768
v 0.215921 0.097544 0.482666
v 0.215921 -0.097546 0.482666
v 0.215921 0.000004 0.492268
v 0.215921 -0.277786 0.407967
v 0.215921 -0.191336 0.454166
v 0.215921 -0.461936 0.183567
v 0.215921 -0.415736 0.270065
v 0.215921 -0.461936 -0.199135
v 0.215921 -0.490386 0.089767
v 0.215921 -0.499996 -0.007732
v 0.215921 -0.490386 -0.105335
v 0.215921 0.000004 -0.507732
v 0.215921 -0.353556 -0.361336
v 0.215921 -0.415736 -0.285534
v 0.215921 -0.277786 -0.423534
v 0.215921 -0.097546 -0.498135
v 0.215921 -0.191336 -0.469734
v 0.215921 0.191344 -0.469734
v 0.215921 0.097544 -0.498135
v 0.215921 0.500004 -0.007732
v 0.215921 0.277784 0.407967
v 0.215921 0.191345 0.454166
v 0.215921 0.353554 -0.361336
v 0.215921 0.277784 -0.423534
v 0.215921 0.415734 -0.285534
v 0.215921 0.461944 -0.199135
v 0.215921 0.490394 -0.105335
v 0.215921 0.461944 0.183567
v 0.215921 0.490394 0.089767
v 0.215921 0.353555 0.345768
v 0.215921 0.415734 0.270065
v -0.084080 0.353554 -0.361336
v 0.215921 0.353554 -0.361336
v -0.084080 0.415734 -0.285534
v 0.215921 0.415734 -0.285534
v -0.084080 0.461944 -0.199135
v 0.215921 0.461944 -0.199135
v -0.084080 0.490394 -0.105335
v 0.215921 0.490394 -0.105335
v -0.084080 0.500004 -0.007732
v 0.215921 0.500004 -0.007732
v -0.084080 0.490394 0.089767
v 0.215921 0.490394 0.089767
v -0.084080 0.461944 0.183567
v 0.215921 0.461944 0.183567
v -0.084080 0.415734 0.270065
v 0.215921 0.415734 0.270065
v -0.084080 0.353555 0.345768
v 0.215921 0.353555 0.345768
v -0.084080 0.114444 -0.122234
v -0.003380 0.135434 -0.143234
v -0.003380 0.159254 -0.114136
v -0.084080 0.134574 -0.097633
v -0.003380 0.176954 -0.081036
v -0.084080 0.149534 -0.069733
v -0.003380 0.187854 -0.045136
v -0.084080 0.158744 -0.039333
v -0.003380 0.191534 -0.007732
v -0.084080 0.161854 -0.007732
v -0.084080 0.158744 0.023766
v -0.003380 0.187854 0.029568
v -0.084080 0.149534 0.054165
v -0.003380 0.176954 0.065567
v -0.084080 0.134574 0.082165
v -0.003380 0.159254 0.098667
v -0.084080 0.114445 0.106667
v -0.003380 0.135434 0.127666
v -0.003380 -0.279496 -0.287235
v -0.084080 -0.279496 0.271767
v -0.003380 -0.279496 0.271767
v -0.084080 -0.328646 0.211865
v -0.003380 -0.328646 0.211865
v -0.084080 -0.365176 0.143467
v -0.003380 -0.365176 0.143467
v -0.084080 -0.387666 0.069366
v -0.003380 -0.387666 0.069366
v -0.084080 -0.395266 -0.007732
v -0.003380 -0.395266 -0.007732
v -0.084080 -0.387666 -0.084835
v -0.003380 -0.387666 -0.084835
v -0.084080 -0.365176 -0.159035
v -0.003380 -0.365176 -0.159035
v -0.084080 -0.328646 -0.227333
v -0.003380 -0.328646 -0.227333
v -0.084080 -0.279496 -0.287235
v -0.084080 0.000004 0.492268
v 0.215921 -0.097546 0.482666
v 0.215921 0.000004 0.492268
v -0.084080 -0.097546 0.482666
v 0.215921 -0.191336 0.454166
v -0.084080 -0.191336 0.454166
v 0.215921 -0.277786 0.407967
v -0.084080 -0.277786 0.407967
v 0.215921 -0.353556 0.345768
v -0.084080 -0.353556 0.345768
v -0.084080 0.353555 0.345768
v 0.215921 0.353555 0.345768
v 0.215921 0.277784 0.407967
v -0.084080 0.277784 0.407967
v 0.215921 0.191345 0.454166
v -0.084080 0.191345 0.454166
v 0.215921 0.097544 0.482666
v -0.084080 0.097544 0.482666
v 0.215921 0.000004 0.492268
v -0.084080 0.000004 0.492268
v -0.084080 -0.114446 0.106667
v -0.003380 -0.135426 0.127666
v -0.003380 -0.106406 0.151466
v -0.084080 -0.089916 0.126766
v -0.003380 -0.073296 0.169167
v -0.084080 -0.061936 0.141766
v -0.003380 -0.037366 0.180065
v -0.084080 -0.031576 0.150967
v -0.003380 0.000004 0.183765
v -0.084080 0.000004 0.154068
v -0.084080 0.114445 0.106667
v -0.003380 0.135434 0.127666
v -0.003380 0.106414 0.151466
v -0.084080 0.089924 0.126766
v -0.003380 0.073294 0.169167
v -0.084080 0.061944 0.141766
v -0.003380 0.037364 0.180065
v -0.084080 0.031574 0.150967
v -0.003380 0.000004 0.183765
v -0.084080 0.000004 0.154068
v -0.003380 -0.219596 -0.336433
v -0.084080 -0.219596 -0.336433
v -0.003380 -0.279496 -0.287235
v -0.084080 -0.151256 -0.372932
v -0.003380 -0.151256 -0.372932
v -0.084080 -0.077106 -0.395435
v -0.003380 -0.077106 -0.395435
v -0.084080 0.000004 -0.403034
v -0.003380 0.000004 -0.403034
v -0.084080 0.077114 -0.395435
v -0.003380 0.077114 -0.395435
v -0.084080 0.151264 -0.372932
v -0.003380 0.151264 -0.372932
v -0.084080 0.219604 -0.336433
v -0.003380 0.219604 -0.336433
v -0.084080 0.279494 -0.287235
v -0.003380 0.279494 -0.287235
v -0.084080 -0.279496 -0.287235
v -0.084080 -0.077106 0.379868
v -0.084080 -0.191336 0.454166
v -0.084080 -0.097546 0.482666
v -0.084080 0.000004 0.387466
v -0.084080 0.000004 0.492268
v -0.084080 -0.151256 0.357365
v -0.084080 -0.219596 0.320866
v -0.084080 -0.277786 0.407967
v -0.084080 -0.279496 0.271767
v -0.084080 -0.353556 0.345768
v -0.084080 -0.328646 0.211865
v -0.084080 -0.415736 0.270065
v -0.084080 -0.365176 0.143467
v -0.084080 -0.461936 0.183567
v -0.084080 -0.387666 0.069366
v -0.084080 -0.490386 0.089767
v -0.084080 -0.395266 -0.007732
v -0.084080 -0.499996 -0.007732
v -0.084080 -0.387666 -0.084835
v -0.084080 -0.490386 -0.105335
v -0.084080 -0.365176 -0.159035
v -0.084080 -0.461936 -0.199135
v -0.084080 -0.328646 -0.227333
v -0.084080 -0.415736 -0.285534
v -0.084080 -0.279496 -0.287235
v -0.084080 -0.353556 -0.361336
v -0.084080 -0.277786 -0.423534
v -0.084080 -0.219596 -0.336433
v -0.084080 -0.151256 -0.372932
v -0.084080 -0.191336 -0.469734
v -0.084080 -0.097546 -0.498135
v -0.084080 -0.077106 -0.395435
v -0.084080 0.000004 -0.507732
v -0.084080 0.000004 -0.403034
v -0.084080 0.077114 -0.395435
v -0.084080 0.097544 -0.498135
v -0.084080 0.151264 -0.372932
v -0.084080 0.191344 -0.469734
v -0.084080 0.219604 -0.336433
v -0.084080 0.277784 -0.423534
v -0.084080 0.279494 -0.287235
v -0.084080 0.353554 -0.361336
v -0.084080 0.415734 -0.285534
v -0.084080 0.328654 -0.227333
v -0.084080 0.365184 -0.159035
v -0.084080 0.461944 -0.199135
v -0.084080 0.490394 -0.105335
v -0.084080 0.387674 -0.084835
v -0.084080 0.500004 -0.007732
v -0.084080 0.395264 -0.007732
v -0.084080 0.387674 0.069366
v -0.084080 0.490394 0.089767
v -0.084080 0.461944 0.183567
v -0.084080 0.365184 0.143467
v -0.084080 0.415734 0.270065
v -0.084080 0.328654 0.211864
v -0.084080 0.353555 0.345768
v -0.084080 0.279494 0.271767
v -0.084080 0.277784 0.407967
v -0.084080 0.219604 0.320866
v -0.084080 0.191345 0.454166
v -0.084080 0.151264 0.357365
v -0.084080 0.097544 0.482666
v -0.084080 0.077114 0.379868
v -0.084080 0.000004 0.492268
v -0.084080 0.000004 0.387466
v -0.084080 -0.149526 0.054165
v -0.084080 -0.061936 0.141766
v -0.084080 0.000004 -0.169632
v -0.084080 -0.089916 0.126766
v -0.084080 -0.114446 0.106667
v -0.084080 -0.134566 0.082165
v -0.084080 0.000004 0.154068
v -0.084080 -0.031576 0.150967
v -0.084080 -0.089916 -0.142334
v -0.084080 -0.158736 0.023766
v -0.084080 -0.161846 -0.007732
v -0.084080 -0.031576 -0.166534
v -0.084080 -0.061936 -0.157333
v -0.084080 -0.149526 -0.069733
v -0.084080 -0.158736 -0.039333
v -0.084080 -0.134566 -0.097633
v -0.084080 -0.114446 -0.122234
v -0.084080 0.161854 -0.007732
v -0.084080 0.134574 0.082165
v -0.084080 0.158744 0.023766
v -0.084080 0.149534 0.054165
v -0.084080 0.114445 0.106667
v -0.084080 0.031574 0.150967
v -0.084080 0.061944 0.141766
v -0.084080 0.089924 0.126766
v -0.084080 0.149534 -0.069733
v -0.084080 0.158744 -0.039333
v -0.084080 0.031574 -0.166534
v -0.084080 0.114444 -0.122234
v -0.084080 0.134574 -0.097633
v -0.084080 0.061944 -0.157333
v -0.084080 0.089924 -0.142334
v -0.003380 -0.365176 0.143467
v -0.003380 -0.187846 0.029568
v -0.003380 -0.387666 0.069366
v -0.003380 -0.176946 0.065567
v -0.003380 -0.191526 -0.007732
v -0.003380 -0.159246 0.098667
v -0.003380 -0.395266 -0.007732
v -0.003380 -0.328646 0.211865
v -0.003380 -0.187846 -0.045135
v -0.003380 -0.279496 0.271767
v -0.003380 -0.387666 -0.084835
v -0.003380 -0.135426 0.127666
v -0.003380 -0.176946 -0.081036
v -0.003380 -0.219596 0.320866
v -0.003380 -0.365176 -0.159035
v -0.003380 -0.106406 0.151466
v -0.003380 -0.159246 -0.114136
v -0.003380 -0.328646 -0.227333
v -0.003380 -0.151256 0.357365
v -0.003380 -0.073296 0.169167
v -0.003380 -0.037366 0.180065
v -0.003380 -0.135426 -0.143234
v -0.003380 -0.077106 0.379868
v -0.003380 0.000004 0.183765
v -0.003380 0.000004 0.387466
v -0.003380 -0.279496 -0.287235
v -0.003380 -0.219596 -0.336433
v -0.003380 -0.106406 -0.167034
v -0.003380 -0.073296 -0.184734
v -0.003380 -0.151256 -0.372932
v -0.003380 -0.077106 -0.395435
v -0.003380 -0.037366 -0.195633
v -0.003380 0.000004 -0.403034
v -0.003380 0.000004 -0.199333
v -0.003380 0.037364 -0.195633
v -0.003380 0.077114 -0.395435
v -0.003380 0.073294 -0.184734
v -0.003380 0.151264 -0.372932
v -0.003380 0.106414 -0.167034
v -0.003380 0.219604 -0.336433
v -0.003380 0.279494 -0.287235
v -0.003380 0.135434 -0.143234
v -0.003380 0.328654 -0.227333
v -0.003380 0.159254 -0.114136
v -0.003380 0.365184 -0.159035
v -0.003380 0.176954 -0.081036
v -0.003380 0.387674 -0.084835
v -0.003380 0.187854 -0.045136
v -0.003380 0.395264 -0.007732
v -0.003380 0.191534 -0.007732
v -0.003380 0.187854 0.029568
v -0.003380 0.387674 0.069366
v -0.003380 0.365184 0.143467
v -0.003380 0.176954 0.065567
v -0.003380 0.328654 0.211864
v -0.003380 0.159254 0.098667
v -0.003380 0.279494 0.271767
v -0.003380 0.135434 0.127666
v -0.003380 0.219604 0.320866
v -0.003380 0.106414 0.151466
v -0.003380 0.151264 0.357365
v -0.003380 0.073294 0.169167
v -0.003380 0.077114 0.379868
v -0.003380 0.037364 0.180065
v -0.003380 0.000004 0.387466
v -0.003380 0.000004 0.183765
v 0.215921 -0.353556 0.345768
v -0.084080 -0.353556 0.345768
v -0.084080 -0.415736 0.270065
v 0.215921 -0.415736 0.270065
v -0.084080 -0.461936 0.183567
v 0.215921 -0.461936 0.183567
v -0.084080 -0.490386 0.089767
v 0.215921 -0.490386 0.089767
v -0.084080 -0.499996 -0.007732
v 0.215921 -0.499996 -0.007732
v -0.084080 -0.490386 -0.105335
v 0.215921 -0.490386 -0.105335
v -0.084080 -0.461936 -0.199135
v 0.215921 -0.461936 -0.199135
v -0.084080 -0.415736 -0.285534
v 0.215921 -0.415736 -0.285534
v -0.084080 -0.353556 -0.361336
v 0.215921 -0.353556 -0.361336
v -0.003380 -0.187846 -0.045135
v -0.084080 -0.149526 -0.069733
v -0.003380 -0.176946 -0.081036
v -0.084080 -0.158736 -0.039333
v -0.084080 -0.134566 -0.097633
v -0.003380 -0.191526 -0.007732
v -0.003380 -0.159246 -0.114136
v -0.084080 -0.161846 -0.007732
v -0.084080 -0.114446 -0.122234
v -0.084080 -0.158736 0.023766
v -0.003380 -0.135426 -0.143234
v -0.003380 -0.187846 0.029568
v -0.084080 -0.149526 0.054165
v -0.003380 -0.176946 0.065567
v -0.084080 -0.134566 0.082165
v -0.003380 -0.159246 0.098667
v -0.084080 -0.114446 0.106667
v -0.003380 -0.135426 0.127666
v -0.084080 0.279494 -0.287235
v -0.003380 0.279494 -0.287235
v -0.084080 0.328654 -0.227333
v -0.003380 0.328654 -0.227333
v -0.084080 0.365184 -0.159035
v -0.003380 0.365184 -0.159035
v -0.084080 0.387674 -0.084835
v -0.003380 0.387674 -0.084835
v -0.003380 0.395264 -0.007732
v -0.084080 0.395264 -0.007732
v -0.003380 0.387674 0.069366
v -0.084080 0.387674 0.069366
v -0.084080 0.365184 0.143467
v -0.003380 0.365184 0.143467
v -0.084080 0.328654 0.211864
v -0.003380 0.328654 0.211864
v -0.084080 0.279494 0.271767
v -0.003380 0.279494 0.271767
v -0.084080 -0.353556 -0.361336
v 0.215921 -0.353556 -0.361336
v -0.084080 -0.277786 -0.423534
v 0.215921 -0.277786 -0.423534
v -0.084080 -0.191336 -0.469734
v 0.215921 -0.191336 -0.469734
v -0.084080 -0.097546 -0.498135
v 0.215921 -0.097546 -0.498135
v -0.084080 0.000004 -0.507732
v 0.215921 0.000004 -0.507732
v -0.084080 0.097544 -0.498135
v 0.215921 0.097544 -0.498135
v -0.084080 0.191344 -0.469734
v 0.215921 0.191344 -0.469734
v -0.084080 0.277784 -0.423534
v 0.215921 0.277784 -0.423534
v -0.084080 0.353554 -0.361336
v 0.215921 0.353554 -0.361336
v -0.084080 -0.114446 -0.122234
v -0.003380 -0.135426 -0.143234
v -0.003380 -0.106406 -0.167034
v -0.084080 -0.089916 -0.142334
v -0.003380 -0.073296 -0.184734
v -0.084080 -0.061936 -0.157333
v -0.003380 -0.037366 -0.195633
v -0.084080 -0.031576 -0.166534
v -0.003380 0.000004 -0.199333
v -0.084080 0.000004 -0.169632
v -0.084080 0.031574 -0.166534
v -0.003380 0.037364 -0.195633
v -0.084080 0.061944 -0.157333
v -0.003380 0.073294 -0.184734
v -0.084080 0.089924 -0.142334
v -0.003380 0.106414 -0.167034
v -0.084080 0.114444 -0.122234
v -0.003380 0.135434 -0.143234
v -0.084080 0.279494 0.271767
v -0.003380 0.279494 0.271767
v -0.084080 0.219604 0.320866
v -0.003380 0.219604 0.320866
v -0.084080 0.151264 0.357365
v -0.003380 0.151264 0.357365
v -0.084080 0.077114 0.379868
v -0.003380 0.077114 0.379868
v -0.084080 0.000004 0.387466
v -0.003380 0.000004 0.387466
v -0.003380 -0.219596 0.320866
v -0.084080 -0.279496 0.271767
v -0.084080 -0.219596 0.320866
v -0.003380 -0.279496 0.271767
v -0.003380 -0.151256 0.357365
v -0.084080 -0.151256 0.357365
v -0.003380 -0.077106 0.379868
v -0.084080 -0.077106 0.379868
v -0.003380 0.000004 0.387466
v -0.084080 0.000004 0.387466
vn 1.0000 -0.0000 -0.0000
vn -0.0000 1.0000 -0.0000
vn -0.0000 -0.0000 1.0000
vn -1.0000 -0.0000 -0.0000
vn -0.0000 -1.0000 -0.0000
vn -0.0000 -0.0000 -1.0000
vn 1.0000 0.0001 -0.0000
vn 1.0000 -0.0001 -0.0000
vn 1.0000 0.0002 -0.0000
vn -0.0000 0.8309 -0.5564
vn -0.0000 0.7071 -0.7071
vn -0.0000 0.8309 -0.5565
vn -0.0000 0.9224 -0.3863
vn -0.0000 0.9806 -0.1961
vn -0.0000 1.0000 0.0001
vn -0.0000 0.9806 0.1962
vn -0.0000 0.9224 0.3863
vn -0.0000 0.8309 0.5565
vn -0.0000 0.7071 0.7071
vn -0.3473 0.6631 -0.6631
vn -0.3468 0.7804 -0.5203
vn -0.3469 0.7804 -0.5203
vn -0.3462 0.8656 -0.3619
vn -0.3462 0.8655 -0.3619
vn -0.3462 0.9205 -0.1810
vn -0.3468 0.9379 -0.0000
vn -0.3462 0.9205 0.1810
vn -0.3462 0.8655 0.3619
vn -0.3469 0.7804 0.5203
vn -0.3468 0.7804 0.5203
vn -0.3473 0.6631 0.6631
vn -0.0000 0.9806 0.1961
vn -0.0000 0.8309 0.5564
vn -0.0000 -0.1962 0.9806
vn -0.0000 -0.1961 0.9806
vn -0.0000 -0.3863 0.9224
vn -0.0000 -0.5565 0.8309
vn -0.0000 -0.7071 0.7071
vn -0.0000 0.5565 0.8308
vn -0.0000 0.3863 0.9224
vn -0.0000 0.1961 0.9806
vn -0.3468 -0.5203 0.7804
vn -0.3473 -0.6631 0.6631
vn -0.3462 -0.3620 0.8655
vn -0.3462 -0.1810 0.9205
vn -0.3468 -0.0000 0.9379
vn -0.3468 0.5203 0.7804
vn -0.3462 0.3619 0.8655
vn -0.3462 0.3620 0.8655
vn -0.3462 0.1810 0.9205
vn -0.0000 0.5565 0.8309
vn -0.0000 -0.5565 0.8308
vn -0.0000 -0.5564 0.8309
vn -1.0000 -0.0001 -0.0000
vn -1.0000 0.0001 -0.0000
vn -1.0000 -0.0002 -0.0000
vn -1.0000 0.0002 -0.0000
vn -0.0000 -0.8309 0.5564
vn -0.0000 -0.8308 0.5565
vn -0.0000 -0.9224 0.3863
vn -0.0000 -0.9806 0.1962
vn -0.0000 -0.9806 0.1961
vn -0.0000 -1.0000 0.0001
vn -0.0000 -0.9806 -0.1961
vn -0.0000 -0.9224 -0.3863
vn -0.0000 -0.8309 -0.5565
vn -0.0000 -0.7071 -0.7071
vn -0.3462 -0.9205 -0.1810
vn -0.3462 -0.8655 -0.3619
vn -0.3462 -0.9205 -0.1809
vn -0.3468 -0.7804 -0.5203
vn -0.3468 -0.9380 -0.0000
vn -0.3468 -0.9379 -0.0000
vn -0.3473 -0.6631 -0.6631
vn -0.3462 -0.9205 0.1810
vn -0.3462 -0.8655 0.3619
vn -0.3468 -0.7804 0.5203
vn -0.0000 -0.8308 0.5566
vn -0.0000 -0.8309 0.5565
vn -0.0000 -0.9806 -0.1962
vn -0.0000 -0.8308 -0.5565
vn -0.0000 -0.5565 -0.8309
vn -0.0000 -0.3863 -0.9224
vn -0.0000 -0.1961 -0.9806
vn -0.0000 0.1961 -0.9806
vn -0.0000 0.3863 -0.9224
vn -0.0000 0.5565 -0.8309
vn -0.0000 0.5564 -0.8309
vn -0.3468 -0.5203 -0.7804
vn -0.3462 -0.3619 -0.8655
vn -0.3462 -0.1810 -0.9205
vn -0.3462 -0.1809 -0.9205
vn -0.3468 -0.0000 -0.9380
vn -0.3462 0.1810 -0.9205
vn -0.3462 0.3619 -0.8655
vn -0.3468 0.5203 -0.7804
vn -0.0000 -0.5565 -0.8308
vt -0.086218 1.165560
vt -0.186218 1.165560
vt -0.086218 0.865558
vt -0.186218 0.865558
vt 0.063782 1.165560
vt 0.063782 1.065560
vt -0.186218 1.065560
vt 0.063782 0.865558
vt 0.252472 1.293440
vt 0.152472 1.293440
vt 0.252472 0.993443
vt 0.152472 0.993443
vt 0.402472 1.293440
vt 0.402472 1.193440
vt 0.152472 1.193440
vt 0.402472 0.993443
vt -0.985074 0.933845
vt -1.121910 1.384940
vt -1.121910 1.189850
vt -1.131520 1.287400
vt -1.047250 1.009610
vt -1.093460 1.096060
vt -0.822862 0.825459
vt -0.909305 0.871664
vt -0.440178 0.825459
vt -0.729065 0.797006
vt -0.631520 0.787399
vt -0.533975 0.797006
vt -0.131520 1.287400
vt -0.277967 0.933846
vt -0.353735 0.871664
vt -0.215785 1.009610
vt -0.141127 1.189850
vt -0.169580 1.096060
vt -0.169580 1.478740
vt -0.141128 1.384940
vt -0.631521 1.787400
vt -1.047260 1.565180
vt -1.093460 1.478740
vt -0.277967 1.640950
vt -0.215786 1.565180
vt -0.353735 1.703130
vt -0.440179 1.749340
vt -0.533975 1.777790
vt -0.822862 1.749340
vt -0.729066 1.777790
vt -0.985074 1.640950
vt -0.909306 1.703130
vt -0.481520 1.009610
vt -0.781520 0.933846
vt -0.481520 0.933846
vt -0.781520 1.009610
vt -0.481520 1.096060
vt -0.781520 1.096060
vt -0.481520 1.189850
vt -0.781520 1.189850
vt -0.481520 1.287400
vt -0.781520 1.287400
vt -0.481520 1.384940
vt -0.781520 1.384940
vt -0.481520 1.478740
vt -0.781520 1.478740
vt -0.481520 1.565180
vt -0.781520 1.565180
vt -0.481520 1.640950
vt -0.781520 1.640950
vt -0.562166 1.151970
vt -0.481520 1.172950
vt -0.562166 1.180990
vt -0.481520 1.197480
vt -0.562166 1.214100
vt -0.481520 1.225460
vt -0.562166 1.250030
vt -0.481520 1.255820
vt -0.562166 1.287400
vt -0.481520 1.318970
vt -0.562166 1.324760
vt -0.481520 1.349340
vt -0.562166 1.360690
vt -0.481520 1.377320
vt -0.562166 1.393810
vt -0.481520 1.401840
vt -0.562166 1.422830
vt -0.562166 1.566890
vt -0.481520 1.507000
vt -0.481520 1.566890
vt -0.562166 1.507000
vt -0.481520 1.438660
vt -0.562166 1.438660
vt -0.481520 1.364510
vt -0.562166 1.364510
vt -0.481520 1.210290
vt -0.562166 1.210290
vt -0.481520 1.136140
vt -0.562166 1.136140
vt -0.481520 1.067800
vt -0.562166 1.067800
vt -0.481520 1.007900
vt -0.562166 1.007900
vt -0.481520 0.933845
vt -0.781520 0.933845
vt -0.700874 1.180990
vt -0.781520 1.172950
vt -0.700874 1.151970
vt -0.781520 1.197480
vt -0.700874 1.214100
vt -0.781520 1.225460
vt -0.700874 1.250030
vt -0.781520 1.255820
vt -0.700874 1.287400
vt -0.781520 1.401840
vt -0.700874 1.393810
vt -0.700874 1.422830
vt -0.781520 1.377320
vt -0.700874 1.360690
vt -0.781520 1.349340
vt -0.700874 1.324760
vt -0.781520 1.318970
vt -0.700874 1.067800
vt -0.781520 1.067800
vt -0.700874 1.007900
vt -0.781520 1.136140
vt -0.700874 1.136140
vt -0.781520 1.210290
vt -0.700874 1.210290
vt -0.781520 1.364510
vt -0.700874 1.364510
vt -0.781520 1.438660
vt -0.700874 1.438660
vt -0.781520 1.507000
vt -0.700874 1.507000
vt -0.781520 1.566890
vt -0.700874 1.566890
vt -0.781520 1.007900
vt -0.243849 1.210290
vt -0.141128 1.189850
vt -0.236254 1.287400
vt -0.266341 1.136140
vt -0.302868 1.067800
vt -0.352024 1.007900
vt -0.277967 0.933845
vt -0.411922 0.958747
vt -0.480258 0.922220
vt -0.440179 0.825459
vt -0.554407 0.899727
vt -0.631520 0.892132
vt -0.708633 0.899727
vt -0.782782 0.922220
vt -0.851119 0.958747
vt -0.911016 1.007900
vt -1.047260 1.009610
vt -0.960172 1.067800
vt -0.996699 1.136140
vt -1.019190 1.210290
vt -1.026790 1.287400
vt -1.019190 1.364510
vt -0.996699 1.438660
vt -0.960172 1.507000
vt -1.047250 1.565180
vt -0.911016 1.566890
vt -0.985073 1.640950
vt -0.909305 1.703130
vt -0.851118 1.616050
vt -0.782782 1.652580
vt -0.822861 1.749340
vt -0.729065 1.777790
vt -0.708632 1.675070
vt -0.631520 1.787400
vt -0.631520 1.682670
vt -0.554407 1.675070
vt -0.533974 1.777790
vt -0.440178 1.749340
vt -0.480258 1.652580
vt -0.353734 1.703130
vt -0.411921 1.616050
vt -0.277966 1.640950
vt -0.352024 1.566890
vt -0.215785 1.565180
vt -0.302868 1.507000
vt -0.266341 1.438660
vt -0.141127 1.384940
vt -0.243848 1.364510
vt -0.569583 1.137870
vt -0.481991 1.225460
vt -0.793370 1.287400
vt -0.496947 1.197480
vt -0.517075 1.172950
vt -0.541601 1.152830
vt -0.469671 1.287400
vt -0.472780 1.255820
vt -0.766093 1.197480
vt -0.599945 1.128660
vt -0.631520 1.125550
vt -0.790260 1.255820
vt -0.781050 1.225460
vt -0.693457 1.137870
vt -0.663095 1.128660
vt -0.721439 1.152830
vt -0.745965 1.172950
vt -0.631520 1.449250
vt -0.541601 1.421970
vt -0.599945 1.446140
vt -0.569583 1.436930
vt -0.517075 1.401840
vt -0.472780 1.318970
vt -0.481990 1.349340
vt -0.496947 1.377320
vt -0.693457 1.436930
vt -0.663095 1.446140
vt -0.790260 1.318970
vt -0.745965 1.401840
vt -0.721439 1.421970
vt -0.781050 1.349340
vt -0.766093 1.377320
vt -0.594154 1.099550
vt -0.558224 1.110450
vt -0.631520 1.095870
vt -0.525111 1.128150
vt -0.668886 1.099550
vt -0.496087 1.151970
vt -0.704816 1.110450
vt -0.472268 1.180990
vt -0.737929 1.128150
vt -0.454568 1.214100
vt -0.443669 1.250030
vt -0.766953 1.151970
vt -0.439989 1.287400
vt -0.790772 1.180990
vt -0.808472 1.214100
vt -0.819371 1.250030
vt -0.823051 1.287400
vt -0.819371 1.324760
vt -0.808472 1.360690
vt -0.790772 1.393810
vt -0.766953 1.422830
vt -0.737929 1.446650
vt -0.704816 1.464350
vt -0.668886 1.475250
vt -0.631520 1.478930
vt -0.594154 1.475250
vt -0.558224 1.464350
vt -0.525111 1.446650
vt -0.496087 1.422830
vt -0.472268 1.393810
vt -0.454568 1.360690
vt -0.443669 1.324760
vt -0.781520 1.566900
vt -0.700874 1.566900
s 1
usemtl Forwards1Mtl.001
f 1/1/1 2/2/1 3/3/1
f 3/3/1 2/2/1 4/4/1
f 5/5/2 6/2/2 7/6/2
f 7/6/2 6/2/2 8/7/2
f 9/5/3 10/2/3 11/8/3
f 11/8/3 10/2/3 12/4/3
f 13/1/4 14/2/4 15/3/4
f 15/3/4 14/2/4 16/4/4
f 17/5/5 18/2/5 19/6/5
f 19/6/5 18/2/5 20/7/5
f 21/5/6 22/2/6 23/8/6
f 23/8/6 22/2/6 24/4/6
usemtl Backwards1Mtl.001
f 25/9/1 26/10/1 27/11/1
f 27/11/1 26/10/1 28/12/1
f 29/13/2 30/10/2 31/14/2
f 31/14/2 30/10/2 32/15/2
f 33/13/3 34/10/3 35/16/3
f 35/16/3 34/10/3 36/12/3
f 37/9/4 38/10/4 39/11/4
f 39/11/4 38/10/4 40/12/4
f 41/13/5 42/10/5 43/14/5
f 43/14/5 42/10/5 44/15/5
f 45/13/6 46/10/6 47/16/6
f 47/16/6 46/10/6 48/12/6
usemtl Handle1Mtl.046
f 49/17/1 50/18/1 51/19/1
f 51/19/1 50/18/1 52/20/1
f 49/17/1 51/19/1 53/21/1
f 53/21/1 51/19/1 54/22/7
f 55/23/1 49/17/1 56/24/1
f 49/17/1 55/23/1 57/25/1
f 57/25/1 55/23/1 58/26/1
f 57/25/1 58/26/1 59/27/1
f 57/25/1 59/27/1 60/28/1
f 57/25/1 61/29/1 49/17/1
f 50/18/1 49/17/1 61/29/1
f 62/30/1 57/25/1 63/31/1
f 61/29/1 57/25/1 62/30/1
f 64/32/1 61/29/1 62/30/1
f 61/29/1 64/32/1 65/33/1
f 65/33/1 64/32/1 66/34/7
f 67/35/1 61/29/1 68/36/1
f 50/18/1 61/29/1 69/37/1
f 67/35/1 69/37/1 61/29/1
f 50/18/1 69/37/1 70/38/1
f 50/18/1 70/38/1 71/39/8
f 69/37/1 67/35/1 72/40/1
f 72/40/1 67/35/1 73/41/9
f 69/37/1 72/40/1 74/42/1
f 69/37/1 74/42/1 75/43/8
f 69/37/1 75/43/8 76/44/1
f 77/45/7 70/38/1 69/37/1
f 77/45/7 69/37/1 78/46/8
f 70/38/1 77/45/7 79/47/8
f 79/47/8 77/45/7 80/48/1
f 83/49/10 82/50/11 81/51/11
f 83/49/10 84/52/12 82/50/11
f 85/53/13 84/52/12 83/49/10
f 85/53/13 86/54/13 84/52/12
f 87/55/14 86/54/13 85/53/13
f 87/55/14 88/56/14 86/54/13
f 89/57/15 88/56/14 87/55/14
f 89/57/15 90/58/2 88/56/14
f 91/59/16 90/58/2 89/57/15
f 91/59/16 92/60/16 90/58/2
f 93/61/17 92/60/16 91/59/16
f 93/61/17 94/62/17 92/60/16
f 95/63/18 94/62/17 93/61/17
f 95/63/18 96/64/18 94/62/17
f 97/65/19 96/64/18 95/63/18
f 97/65/19 98/66/19 96/64/18
f 100/67/20 99/68/20 101/69/21
f 102/70/22 101/69/21 99/68/20
f 101/69/21 102/70/22 103/71/23
f 104/72/24 103/71/23 102/70/22
f 103/71/23 104/72/24 105/73/25
f 106/74/25 105/73/25 104/72/24
f 105/73/25 106/74/25 107/75/26
f 108/57/26 107/75/26 106/74/25
f 109/76/27 107/75/26 108/57/26
f 107/75/26 109/76/27 110/77/27
f 111/78/28 110/77/27 109/76/27
f 110/77/27 111/78/28 112/79/28
f 113/80/29 112/79/28 111/78/28
f 112/79/28 113/80/29 114/81/30
f 115/82/31 114/81/30 113/80/29
f 114/81/30 115/82/31 116/83/31
f 119/84/11 120/85/12 118/86/11
f 120/85/12 119/84/11 121/87/12
f 121/87/12 122/88/13 120/85/12
f 122/88/13 121/87/12 123/89/13
f 123/89/13 124/90/14 122/88/13
f 124/90/14 123/89/13 125/91/14
f 125/91/14 126/57/2 124/90/14
f 126/57/2 125/91/14 127/75/2
f 127/75/2 128/92/32 126/57/2
f 128/92/32 127/75/2 129/93/32
f 129/93/32 130/94/17 128/92/32
f 130/94/17 129/93/32 131/95/17
f 131/95/17 132/96/33 130/94/17
f 132/96/33 131/95/17 133/97/33
f 133/97/33 134/98/19 132/96/33
f 134/98/19 133/97/33 117/99/19
f 135/58/3 136/55/34 137/57/3
f 136/55/34 135/58/3 138/56/35
f 138/56/35 139/53/36 136/55/34
f 139/53/36 138/56/35 140/54/36
f 140/54/36 141/49/37 139/53/36
f 141/49/37 140/54/36 142/52/37
f 142/52/37 143/100/38 141/49/37
f 143/100/38 142/52/37 144/101/38
f 145/66/19 147/63/39 146/65/19
f 147/63/39 145/66/19 148/64/39
f 148/64/39 149/61/40 147/63/39
f 149/61/40 148/64/39 150/62/40
f 150/62/40 151/59/41 149/61/40
f 151/59/41 150/62/40 152/60/41
f 152/60/41 153/57/3 151/59/41
f 153/57/3 152/60/41 154/58/3
f 157/102/42 155/103/43 156/104/43
f 155/103/43 157/102/42 158/105/42
f 159/106/44 158/105/42 157/102/42
f 158/105/42 159/106/44 160/107/44
f 161/108/45 160/107/44 159/106/44
f 160/107/44 161/108/45 162/109/45
f 163/110/46 162/109/45 161/108/45
f 162/109/45 163/110/46 164/58/46
f 165/111/31 167/112/47 166/113/31
f 167/112/47 165/111/31 168/114/47
f 168/114/47 169/115/48 167/112/47
f 169/115/48 168/114/47 170/116/49
f 170/116/49 171/117/50 169/115/48
f 171/117/50 170/116/49 172/118/50
f 172/118/50 173/110/46 171/117/50
f 173/110/46 172/118/50 174/58/46
f 175/119/51 176/120/39 177/121/19
f 178/122/40 176/120/39 175/119/51
f 179/123/40 178/122/40 175/119/51
f 180/124/41 178/122/40 179/123/40
f 181/125/41 180/124/41 179/123/40
f 182/58/3 180/124/41 181/125/41
f 183/110/3 182/58/3 181/125/41
f 184/126/35 182/58/3 183/110/3
f 185/127/35 184/126/35 183/110/3
f 186/128/36 184/126/35 185/127/35
f 187/129/36 186/128/36 185/127/35
f 188/130/52 186/128/36 187/129/36
f 189/131/53 188/130/52 187/129/36
f 188/130/52 189/131/53 190/132/38
f 191/133/38 190/132/38 189/131/53
f 192/134/19 177/121/19 176/120/39
f 193/135/4 194/34/4 195/136/4
f 195/136/4 196/137/4 193/135/4
f 196/137/4 195/136/4 197/29/4
f 194/34/4 193/135/4 198/138/4
f 199/139/4 194/34/4 198/138/4
f 194/34/4 199/139/4 200/32/4
f 201/140/4 200/32/4 199/139/4
f 200/32/4 201/140/4 202/141/4
f 203/142/4 202/141/4 201/140/4
f 202/141/4 203/142/4 204/31/4
f 205/143/4 204/31/4 203/142/4
f 204/31/4 205/143/4 206/144/4
f 207/145/4 206/144/4 205/143/4
f 206/144/4 207/145/4 208/28/4
f 209/146/4 208/28/4 207/145/4
f 208/28/4 209/146/4 210/27/4
f 211/147/4 210/27/4 209/146/4
f 210/27/4 211/147/4 212/26/4
f 213/148/4 212/26/4 211/147/4
f 212/26/4 213/148/4 214/23/4
f 215/149/4 214/23/4 213/148/4
f 214/23/4 215/149/4 216/24/4
f 217/150/4 216/24/4 215/149/4
f 216/24/4 217/150/4 218/17/4
f 217/150/4 219/151/4 218/17/4
f 219/151/4 217/150/4 220/152/4
f 221/153/4 219/151/4 220/152/4
f 219/151/4 221/153/4 222/22/4
f 222/22/4 221/153/4 223/19/4
f 223/19/4 221/153/4 224/154/4
f 225/20/4 223/19/4 224/154/4
f 226/155/4 225/20/4 224/154/4
f 227/156/4 225/20/4 226/155/4
f 225/20/4 227/156/4 228/18/4
f 229/157/4 228/18/4 227/156/4
f 228/18/4 229/157/4 230/39/4
f 231/158/4 230/39/4 229/157/4
f 230/39/4 231/158/4 232/159/4
f 233/160/4 232/159/4 231/158/4
f 232/159/4 233/160/4 234/161/4
f 233/160/4 235/162/4 234/161/4
f 235/162/4 233/160/4 236/163/4
f 237/164/4 235/162/4 236/163/4
f 235/162/4 237/164/4 238/165/4
f 237/164/4 239/166/4 238/165/4
f 239/166/4 237/164/4 240/167/4
f 240/167/4 241/168/4 239/166/4
f 241/168/4 240/167/4 242/169/4
f 243/170/4 241/168/4 242/169/4
f 241/168/4 243/170/4 244/171/4
f 244/171/4 243/170/4 245/172/4
f 245/172/4 243/170/4 246/173/4
f 247/174/4 245/172/4 246/173/4
f 248/175/4 247/174/4 246/173/4
f 249/176/4 247/174/4 248/175/4
f 250/177/4 249/176/4 248/175/4
f 251/178/4 249/176/4 250/177/4
f 250/177/4 252/179/4 251/178/4
f 252/179/4 253/35/4 251/178/4
f 253/35/4 252/179/4 254/180/4
f 254/180/4 255/181/4 253/35/4
f 255/181/4 254/180/4 256/182/4
f 256/182/4 257/29/4 255/181/4
f 257/29/4 256/182/4 258/137/4
f 259/183/4 260/184/4 261/185/4
f 260/184/4 259/183/4 262/186/4
f 259/183/4 263/187/54 262/186/4
f 263/187/54 259/183/4 264/188/55
f 265/189/4 260/184/4 266/190/4
f 261/185/4 260/184/4 265/189/4
f 267/191/4 259/183/4 261/185/4
f 259/183/4 267/191/4 268/192/4
f 268/192/4 267/191/4 269/193/56
f 267/191/4 261/185/4 270/194/54
f 267/191/4 270/194/54 271/195/57
f 267/191/4 272/196/55 269/193/56
f 269/193/56 272/196/55 273/197/4
f 272/196/55 267/191/4 274/198/4
f 274/198/4 267/191/4 275/199/4
f 276/200/4 261/185/4 265/189/4
f 276/200/4 265/189/4 277/201/4
f 276/200/4 277/201/4 278/202/4
f 278/202/4 277/201/4 279/203/55
f 277/201/4 265/189/4 280/204/4
f 280/204/4 265/189/4 281/205/54
f 280/204/4 281/205/54 282/206/55
f 280/204/4 282/206/55 283/207/4
f 284/208/4 261/185/4 276/200/4
f 284/208/4 276/200/4 285/209/4
f 261/185/4 284/208/4 286/210/4
f 287/211/4 286/210/4 284/208/4
f 287/211/4 284/208/4 288/212/55
f 286/210/4 287/211/4 289/213/57
f 289/213/57 287/211/4 290/214/4
f 291/143/4 292/215/4 293/145/4
f 292/215/4 291/143/4 294/216/4
f 295/217/4 293/145/4 292/215/4
f 294/216/4 291/143/4 296/218/4
f 293/145/4 295/217/4 297/146/4
f 298/142/4 296/218/4 291/143/4
f 299/219/4 297/146/4 295/217/4
f 300/140/4 296/218/4 298/142/4
f 297/146/4 299/219/4 301/147/4
f 296/218/4 300/140/4 302/220/4
f 303/221/4 301/147/4 299/219/4
f 304/139/4 302/220/4 300/140/4
f 301/147/4 303/221/4 305/148/4
f 302/220/4 304/139/4 306/222/4
f 307/223/4 305/148/4 303/221/4
f 305/148/4 307/223/4 308/149/4
f 309/138/4 306/222/4 304/139/4
f 306/222/4 309/138/4 310/224/55
f 309/138/4 311/225/4 310/224/55
f 312/226/4 308/149/4 307/223/4
f 311/225/4 309/138/4 313/135/4
f 313/135/4 314/227/4 311/225/4
f 314/227/4 313/135/4 315/137/4
f 308/149/4 312/226/4 316/150/4
f 312/226/4 317/152/4 316/150/4
f 317/152/4 312/226/4 318/228/4
f 319/229/4 317/152/4 318/228/4
f 317/152/4 319/229/4 320/153/4
f 320/153/4 319/229/4 321/154/4
f 321/154/4 319/229/4 322/230/4
f 321/154/4 322/230/4 323/155/4
f 324/231/4 323/155/4 322/230/4
f 325/232/4 323/155/4 324/231/4
f 323/155/4 325/232/4 326/156/4
f 327/233/4 326/156/4 325/232/4
f 326/156/4 327/233/4 328/157/4
f 329/234/4 328/157/4 327/233/4
f 328/157/4 329/234/4 330/158/4
f 329/234/4 331/160/4 330/158/4
f 332/235/4 331/160/4 329/234/4
f 332/235/4 333/163/4 331/160/4
f 333/163/4 332/235/4 334/236/4
f 334/236/4 335/164/4 333/163/4
f 335/164/4 334/236/4 336/237/4
f 336/237/4 337/167/4 335/164/4
f 337/167/4 336/237/4 338/238/4
f 338/238/4 339/169/4 337/167/4
f 339/169/4 338/238/4 340/239/4
f 341/240/4 339/169/4 340/239/4
f 339/169/4 341/240/4 342/170/4
f 342/170/4 341/240/4 343/173/4
f 343/173/4 341/240/4 344/241/4
f 343/173/4 344/241/4 345/175/4
f 346/242/4 345/175/4 344/241/4
f 345/175/4 346/242/4 347/177/4
f 348/243/4 347/177/4 346/242/4
f 349/179/4 347/177/4 348/243/4
f 350/244/4 349/179/4 348/243/4
f 351/180/4 349/179/4 350/244/4
f 352/245/4 351/180/4 350/244/4
f 352/245/4 353/182/4 351/180/4
f 354/246/4 353/182/4 352/245/4
f 354/246/4 355/137/4 353/182/4
f 355/137/4 354/246/4 356/227/4
f 359/64/58 357/65/38 358/66/38
f 359/64/58 360/63/59 357/65/38
f 361/62/60 360/63/59 359/64/58
f 361/62/60 362/61/60 360/63/59
f 363/60/61 362/61/60 361/62/60
f 363/60/61 364/59/62 362/61/60
f 365/58/63 364/59/62 363/60/61
f 365/58/63 366/57/63 364/59/62
f 367/56/64 366/57/63 365/58/63
f 367/56/64 368/55/64 366/57/63
f 369/54/65 368/55/64 367/56/64
f 369/54/65 370/53/65 368/55/64
f 371/52/66 370/53/65 369/54/65
f 371/52/66 372/49/66 370/53/65
f 373/101/67 372/49/66 371/52/66
f 373/101/67 374/100/67 372/49/66
f 375/108/68 376/107/69 377/106/69
f 376/107/69 375/108/68 378/109/70
f 379/105/71 377/106/69 376/107/69
f 380/110/72 378/109/70 375/108/68
f 377/106/69 379/105/71 381/102/71
f 378/109/70 380/110/72 382/58/73
f 383/103/74 381/102/71 379/105/71
f 382/58/73 380/110/72 384/118/75
f 381/102/71 383/103/74 385/104/74
f 386/117/75 384/118/75 380/110/72
f 384/118/75 386/117/75 387/116/76
f 388/115/76 387/116/76 386/117/75
f 387/116/76 388/115/76 389/114/77
f 390/112/77 389/114/77 388/115/76
f 389/114/77 390/112/77 391/111/43
f 392/113/43 391/111/43 390/112/77
f 394/121/38 395/120/78 393/134/38
f 395/120/78 394/121/38 396/119/79
f 396/119/79 397/122/60 395/120/78
f 397/122/60 396/119/79 398/123/60
f 398/123/60 399/124/62 397/122/60
f 399/124/62 398/123/60 400/125/62
f 401/110/5 399/124/62 400/125/62
f 399/124/62 401/110/5 402/58/5
f 403/127/80 402/58/5 401/110/5
f 402/58/5 403/127/80 404/126/80
f 403/127/80 405/128/65 404/126/80
f 405/128/65 403/127/80 406/129/65
f 406/129/65 407/130/66 405/128/65
f 407/130/66 406/129/65 408/131/81
f 408/131/81 409/247/67 407/130/66
f 409/247/67 408/131/81 410/248/67
f 413/49/82 412/50/67 411/100/67
f 413/49/82 414/52/82 412/50/67
f 415/53/83 414/52/82 413/49/82
f 415/53/83 416/54/83 414/52/82
f 417/55/84 416/54/83 415/53/83
f 417/55/84 418/56/84 416/54/83
f 419/57/6 418/56/84 417/55/84
f 419/57/6 420/58/6 418/56/84
f 421/59/85 420/58/6 419/57/6
f 421/59/85 422/60/85 420/58/6
f 423/61/86 422/60/85 421/59/85
f 423/61/86 424/62/86 422/60/85
f 425/63/87 424/62/86 423/61/86
f 425/63/87 426/64/88 424/62/86
f 427/65/11 426/64/88 425/63/87
f 427/65/11 428/66/11 426/64/88
f 430/67/74 429/68/74 431/69/89
f 432/70/89 431/69/89 429/68/74
f 431/69/89 432/70/89 433/71/90
f 434/72/90 433/71/90 432/70/89
f 433/71/90 434/72/90 435/73/91
f 436/74/92 435/73/91 434/72/90
f 435/73/91 436/74/92 437/75/93
f 438/57/93 437/75/93 436/74/92
f 439/76/94 437/75/93 438/57/93
f 437/75/93 439/76/94 440/77/94
f 441/78/95 440/77/94 439/76/94
f 440/77/94 441/78/95 442/79/95
f 443/80/96 442/79/95 441/78/95
f 442/79/95 443/80/96 444/81/96
f 445/82/20 444/81/96 443/80/96
f 444/81/96 445/82/20 446/83/20
f 448/84/67 449/85/82 447/86/67
f 449/85/82 448/84/67 450/87/97
f 450/87/97 451/88/83 449/85/82
f 451/88/83 450/87/97 452/89/83
f 452/89/83 453/90/84 451/88/83
f 453/90/84 452/89/83 454/91/84
f 454/91/84 455/57/6 453/90/84
f 455/57/6 454/91/84 456/75/6
f 457/97/87 458/98/11 459/96/87
f 458/98/11 457/97/87 460/99/11
f 459/96/87 461/95/86 457/97/87
f 461/95/86 459/96/87 462/94/86
f 462/94/86 463/93/85 461/95/86
f 463/93/85 462/94/86 464/92/85
f 464/92/85 465/75/6 463/93/85
f 465/75/6 464/92/85 466/57/6
