# Blender 5.1.2
# www.blender.org
mtllib Uzi.mtl
o Uzi
v -0.860661 0.077075 0.000229
v -0.860661 0.061075 0.012527
v -0.860661 0.068775 0.020226
v -0.860661 0.066185 0.000229
v -0.860661 0.077075 0.000229
v -0.860661 0.068775 -0.019871
v -0.860661 0.061075 -0.012173
v -0.860661 0.066185 0.000229
v -0.860661 0.068775 -0.019871
v -0.860661 0.048745 -0.028172
v -0.860661 0.048745 -0.017273
v -0.860661 0.061075 -0.012173
v -0.860661 0.036405 -0.012173
v -0.860661 0.028705 -0.019871
v -0.860661 0.028705 -0.019871
v -0.860661 0.020405 0.000229
v -0.860661 0.031295 0.000229
v -0.860661 0.036405 -0.012173
v -0.860661 0.028705 0.020226
v -0.860661 0.031295 0.000229
v -0.860661 0.020405 0.000229
v -0.860661 0.036405 0.012527
v -0.860661 0.036405 0.012527
v -0.860661 0.048745 0.028526
v -0.860661 0.048745 0.017628
v -0.860661 0.028705 0.020226
v -0.860661 0.048745 0.017628
v -0.860661 0.068775 0.020226
v -0.860661 0.061075 0.012527
v -0.860661 0.048745 0.028526
v 0.670038 -0.353835 -0.036373
v 0.722839 -0.081495 -0.036373
v 0.722839 -0.081495 0.036728
v 0.670038 -0.353835 0.036728
v 0.663439 -0.366545 -0.036373
v 0.663439 -0.366545 0.036728
v 0.650839 -0.379135 -0.036373
v 0.650839 -0.379135 0.036728
v 0.682440 -0.065875 -0.052574
v 0.682440 -0.082315 0.053028
v 0.682440 -0.082315 -0.052574
v 0.682440 -0.065875 0.053028
v 0.674438 -0.032085 0.053028
v 0.674438 -0.032085 -0.052574
v 0.659840 0.028445 -0.052574
v 0.659840 0.028445 0.053028
v 0.682440 -0.065875 0.053028
v 0.682440 -0.065875 -0.052574
v 0.674438 -0.032085 -0.052574
v 0.674438 -0.032085 0.053028
v 0.646238 0.023045 -0.036472
v 0.644539 0.069445 -0.036472
v 0.644539 0.069445 0.036926
v 0.646238 0.023045 0.036926
v 0.637838 0.084865 0.036926
v 0.637838 0.084865 -0.036472
v 0.659840 0.028445 0.053028
v 0.659840 0.028445 -0.052574
v 0.651838 0.045075 -0.052574
v 0.651838 0.045075 0.053028
v -0.650761 0.048745 0.039829
v -0.650761 0.009085 0.000229
v -0.650761 0.020695 0.028229
v -0.650761 0.020695 -0.027874
v -0.650761 0.048745 -0.039474
v -0.650761 0.088405 0.000229
v -0.650761 0.076785 -0.027874
v -0.650761 0.076785 0.028229
v 0.604738 -0.178435 -0.023071
v 0.604738 -0.135655 -0.023071
v 0.604738 -0.135655 0.023426
v 0.604738 -0.083505 0.023426
v 0.604738 -0.083505 -0.023071
v 0.604738 -0.178435 0.023426
v 0.608438 -0.274955 -0.023071
v 0.608438 -0.274955 0.023426
v 0.580839 0.130135 -0.063671
v 0.580839 -0.002435 0.064129
v 0.580839 -0.002435 -0.063671
v 0.580839 0.130135 0.064129
v -0.582661 0.048745 0.044827
v -0.582661 0.004115 0.000229
v -0.582661 0.017185 0.031727
v -0.582661 0.017185 -0.031372
v -0.582661 0.048745 -0.044472
v -0.582661 0.093375 0.000229
v -0.582661 0.080305 0.031727
v -0.582661 0.080305 -0.031372
v -0.556961 0.101215 -0.047371
v -0.556961 -0.012545 -0.047371
v -0.556961 0.101215 0.047829
v -0.556961 -0.012545 0.047829
v -0.556961 -0.012545 0.047829
v -0.556961 -0.012545 -0.047371
v -0.538160 -0.045285 -0.047371
v -0.538160 -0.045285 0.047829
v 0.707439 -0.055435 -0.036373
v 0.707439 -0.055435 0.036728
v 0.716240 -0.063065 -0.036373
v 0.693439 -0.046315 0.036728
v 0.716240 -0.063065 0.036728
v 0.722839 -0.081495 -0.036373
v 0.722839 -0.081495 0.036728
v 0.693439 -0.046315 -0.036373
v 0.671839 -0.032535 0.036728
v 0.671839 -0.032535 -0.036373
v 0.682440 -0.082315 -0.052574
v 0.674438 -0.087175 0.053028
v 0.674438 -0.087175 -0.052574
v 0.682440 -0.082315 0.053028
v -0.458761 0.130135 -0.063671
v -0.458761 -0.002435 -0.063671
v -0.458761 0.130135 0.064129
v -0.458761 -0.002435 0.064129
v -0.818161 0.036405 0.012527
v -0.818161 0.048745 0.017628
v -0.818161 0.061075 0.012527
v -0.860661 0.036405 0.012527
v -0.860661 0.048745 0.017628
v -0.860661 0.031295 0.000229
v -0.818161 0.031295 0.000229
v -0.860661 0.061075 0.012527
v -0.818161 0.036405 -0.012173
v -0.818161 0.066185 0.000229
v -0.860661 0.066185 0.000229
v -0.818161 0.061075 -0.012173
v -0.818161 0.048745 -0.017273
v 0.023338 -0.376925 -0.033871
v 0.163839 -0.376925 -0.033871
v 0.163839 -0.376925 0.034229
v 0.023338 -0.376925 0.034229
v 0.184340 -0.366575 0.034229
v 0.184340 -0.366575 -0.033871
v 0.215139 -0.324705 -0.020271
v 0.215139 -0.324705 0.020729
v 0.650839 -0.379135 -0.036373
v 0.650839 -0.379135 0.036728
v 0.613539 -0.379135 -0.036373
v 0.613539 -0.379135 0.036728
v -0.345161 0.028445 -0.052574
v -0.345161 -0.052305 -0.052574
v -0.345161 0.028445 0.053028
v -0.345161 -0.052305 0.053028
v 0.500938 -0.086295 -0.023071
v 0.500938 -0.086295 0.023426
v 0.525740 -0.103205 -0.023071
v 0.525740 -0.103205 0.023426
v 0.545439 -0.120555 -0.023071
v 0.545439 -0.120555 0.023426
v 0.556839 -0.135525 -0.023071
v 0.556839 -0.135525 0.023426
v -0.303560 0.155695 0.064129
v -0.303560 0.155695 -0.063671
v -0.343460 0.130135 -0.063671
v -0.343460 0.130135 0.064129
v 0.215139 -0.098895 -0.020271
v 0.215139 -0.309155 0.020729
v 0.215139 -0.309155 -0.020271
v 0.215139 -0.098895 0.020729
v 0.215139 -0.314885 0.020729
v 0.215139 -0.314885 -0.020271
v 0.215139 -0.324705 0.020729
v 0.215139 -0.324705 -0.020271
v 0.651838 0.045075 0.053028
v 0.651838 0.045075 -0.052574
v 0.625639 0.052455 -0.052574
v 0.625639 0.052455 0.053028
v -0.244961 0.210845 -0.004673
v -0.244961 0.194925 -0.004673
v -0.244961 0.210845 0.005127
v -0.244961 0.194925 0.005127
v -0.244961 0.210845 0.005127
v -0.229061 0.210845 -0.004673
v -0.244961 0.210845 -0.004673
v -0.229061 0.210845 0.005127
v 0.562540 0.099005 -0.036472
v 0.562540 0.099005 0.036926
v 0.597239 0.096435 -0.036472
v 0.597239 0.096435 0.036926
v 0.620138 0.092945 -0.036472
v 0.620138 0.092945 0.036926
v 0.637838 0.084865 -0.036472
v 0.637838 0.084865 0.036926
v -0.267462 0.197795 0.000229
v -0.236961 0.197795 0.030727
v -0.236961 0.197795 -0.030273
v -0.258461 0.197795 0.021729
v -0.258461 0.197795 -0.021374
v -0.206461 0.197795 0.000229
v -0.215361 0.197795 0.021729
v -0.215361 0.197795 -0.021374
v 0.023338 -0.376925 -0.033871
v 0.012440 -0.362385 0.034229
v 0.012440 -0.362385 -0.033871
v 0.023338 -0.376925 0.034229
v 0.253439 0.148595 -0.063671
v 0.375040 0.130135 0.064129
v 0.375040 0.130135 -0.063671
v 0.253439 0.148595 0.064129
v 0.443539 0.186965 -0.039974
v 0.443539 0.121425 -0.039974
v 0.443539 0.121425 -0.021774
v 0.443539 0.186965 -0.021774
v 0.447538 0.195975 -0.039974
v 0.447538 0.195975 -0.021774
v 0.457439 0.204845 -0.039974
v 0.457439 0.204845 -0.021774
v 0.477240 0.212265 -0.039974
v 0.477240 0.212265 -0.021774
v 0.494339 0.214915 -0.039974
v 0.494339 0.214915 -0.021774
v 0.519739 0.214915 -0.039974
v 0.519739 0.214915 -0.021774
v 0.536839 0.212265 -0.039974
v 0.536839 0.212265 -0.021774
v 0.556639 0.204845 -0.039974
v 0.556639 0.204845 -0.021774
v 0.566540 0.195975 -0.039974
v 0.566540 0.195975 -0.021774
v 0.570539 0.186965 -0.039974
v 0.570539 0.186965 -0.021774
v 0.570539 0.121425 -0.039974
v 0.570539 0.121425 -0.021774
v 0.443539 0.186965 0.022427
v 0.443539 0.121425 0.022427
v 0.443539 0.121425 0.040527
v 0.443539 0.186965 0.040527
v 0.447538 0.195975 0.022427
v 0.447538 0.195975 0.040527
v 0.457439 0.204845 0.022427
v 0.457439 0.204845 0.040527
v 0.477240 0.212265 0.022427
v 0.477240 0.212265 0.040527
v 0.494339 0.214915 0.022427
v 0.494339 0.214915 0.040527
v 0.519739 0.214915 0.022427
v 0.519739 0.214915 0.040527
v 0.536839 0.212265 0.022427
v 0.536839 0.212265 0.040527
v 0.556639 0.204845 0.022427
v 0.556639 0.204845 0.040527
v 0.566540 0.195975 0.022427
v 0.566540 0.195975 0.040527
v 0.570539 0.186965 0.022427
v 0.570539 0.186965 0.040527
v 0.570539 0.121425 0.022427
v 0.570539 0.121425 0.040527
v -0.551561 0.194005 -0.039974
v -0.551561 0.100305 -0.039974
v -0.551561 0.100305 -0.021774
v -0.551561 0.194005 -0.021774
v -0.548761 0.203005 -0.039974
v -0.548761 0.203005 -0.021774
v -0.541361 0.211885 -0.039974
v -0.541361 0.211885 -0.021774
v -0.526760 0.219295 -0.039974
v -0.526760 0.219295 -0.021774
v -0.514261 0.221945 -0.039974
v -0.514261 0.221945 -0.021774
v -0.495562 0.221945 -0.039974
v -0.495562 0.221945 -0.021774
v -0.482962 0.219295 -0.039974
v -0.482962 0.219295 -0.021774
v -0.468361 0.211885 -0.039974
v -0.468361 0.211885 -0.021774
v -0.461061 0.203005 -0.039974
v -0.461061 0.203005 -0.021774
v -0.458261 0.194005 -0.039974
v -0.458261 0.194005 -0.021774
v -0.458261 0.100305 -0.039974
v -0.458261 0.100305 -0.021774
v -0.551561 0.194005 0.022427
v -0.551561 0.100305 0.022427
v -0.551561 0.100305 0.040527
v -0.551561 0.194005 0.040527
v -0.548761 0.203005 0.022427
v -0.548761 0.203005 0.040527
v -0.541361 0.211885 0.022427
v -0.541361 0.211885 0.040527
v -0.526760 0.219295 0.022427
v -0.526760 0.219295 0.040527
v -0.514261 0.221945 0.022427
v -0.514261 0.221945 0.040527
v -0.495562 0.221945 0.022427
v -0.495562 0.221945 0.040527
v -0.482962 0.219295 0.022427
v -0.482962 0.219295 0.040527
v -0.468361 0.211885 0.022427
v -0.468361 0.211885 0.040527
v -0.461061 0.203005 0.022427
v -0.461061 0.203005 0.040527
v -0.458261 0.194005 0.022427
v -0.458261 0.194005 0.040527
v -0.458261 0.100305 0.022427
v -0.458261 0.100305 0.040527
v -0.647760 0.033205 -0.015373
v -0.788761 0.026765 0.000229
v -0.788761 0.033205 -0.015373
v -0.647760 0.026765 0.000229
v -0.788761 0.033205 0.015728
v -0.647760 0.048745 -0.021774
v -0.788761 0.064285 0.015728
v -0.788761 0.048745 0.022129
v -0.788761 0.048745 -0.021774
v -0.647760 0.064285 -0.015373
v -0.788761 0.064285 -0.015373
v -0.788761 0.070715 0.000229
v -0.647760 0.070715 0.000229
v -0.303560 0.155695 -0.063671
v 0.253439 0.148595 0.064129
v 0.253439 0.148595 -0.063671
v -0.303560 0.155695 0.064129
v 0.375040 0.130135 -0.063671
v 0.447639 0.130135 0.064129
v 0.447639 0.130135 -0.063671
v 0.375040 0.130135 0.064129
v 0.580839 0.130135 -0.063671
v 0.580839 0.130135 0.064129
v -0.458761 0.130135 -0.063671
v -0.343460 0.130135 0.064129
v -0.343460 0.130135 -0.063671
v -0.458761 0.130135 0.064129
v -0.132961 0.028445 -0.052574
v -0.132961 -0.052305 -0.052574
v -0.132961 0.028445 0.053028
v -0.132961 -0.052305 0.053028
v -0.344261 0.101215 -0.047371
v -0.538160 0.101215 -0.047371
v -0.538160 0.101215 0.047829
v -0.344261 0.101215 0.047829
v -0.556961 0.101215 -0.047371
v -0.556961 0.101215 0.047829
v -0.148460 0.003185 0.015629
v -0.130760 0.003185 -0.015274
v -0.148460 0.003185 -0.015274
v -0.148460 -0.131675 -0.015274
v -0.130760 0.003185 0.015629
v -0.148460 -0.131675 0.015629
v -0.130760 -0.131675 0.015629
v -0.145460 -0.148985 -0.015274
v -0.130760 -0.131675 -0.015274
v -0.145460 -0.148985 0.015629
v -0.128962 -0.142985 0.015629
v -0.132360 -0.164815 -0.015274
v -0.128962 -0.142985 -0.015274
v -0.132360 -0.164815 0.015629
v -0.121361 -0.150995 0.015629
v -0.113760 -0.173865 -0.015274
v -0.121361 -0.150995 -0.015274
v -0.113760 -0.173865 0.015629
v -0.113760 -0.156245 0.015629
v -0.016861 -0.173865 -0.015274
v -0.113760 -0.156245 -0.015274
v -0.016861 -0.173865 0.015629
v -0.016861 -0.156245 0.015629
v -0.010462 -0.173865 -0.015274
v -0.016861 -0.156245 -0.015274
v -0.010462 -0.173865 0.015629
v 0.014540 -0.126425 0.015629
v 0.026739 -0.140635 -0.015274
v 0.014540 -0.126425 -0.015274
v 0.026739 -0.140635 0.015629
v 0.014540 -0.061475 0.015629
v 0.026739 -0.061475 -0.015274
v 0.014540 -0.061475 -0.015274
v 0.026739 -0.061475 0.015629
v -0.002060 -0.061475 0.015629
v -0.002060 -0.061475 -0.015274
v -0.002060 -0.051545 0.015629
v 0.026739 -0.051545 -0.015274
v -0.002060 -0.051545 -0.015274
v 0.026739 -0.051545 0.015629
v 0.014540 -0.051545 0.015629
v 0.014540 -0.051545 -0.015274
v 0.608438 -0.274955 -0.023071
v 0.608438 -0.274955 0.023426
v 0.588039 -0.269165 -0.023071
v 0.588039 -0.269165 0.023426
v 0.583439 -0.087175 -0.052574
v 0.296839 -0.087175 0.053028
v 0.296839 -0.087175 -0.052574
v 0.583439 -0.087175 0.053028
v 0.602039 -0.087175 -0.052574
v 0.602039 -0.087175 0.053028
v 0.625639 -0.087175 -0.052574
v 0.625639 -0.087175 0.053028
v 0.651838 -0.087175 -0.052574
v 0.651838 -0.087175 0.053028
v 0.659840 -0.087175 -0.052574
v 0.659840 -0.087175 0.053028
v 0.674438 -0.087175 -0.052574
v 0.674438 -0.087175 0.053028
v 0.375040 -0.002435 -0.063671
v 0.375040 0.130135 -0.063671
v 0.447639 0.130135 -0.063671
v -0.343460 -0.002435 -0.063671
v 0.447639 -0.002435 -0.063671
v 0.580839 -0.002435 -0.063671
v 0.580839 0.130135 -0.063671
v -0.343460 0.130135 -0.063671
v -0.458761 -0.002435 -0.063671
v -0.458761 0.130135 -0.063671
v 0.375040 0.130135 -0.063671
v -0.343460 0.130135 -0.063671
v 0.253439 0.148595 -0.063671
v -0.303560 0.155695 -0.063671
v 0.375040 0.130135 0.064129
v 0.375040 -0.002435 0.064129
v 0.447639 -0.002435 0.064129
v 0.447639 0.130135 0.064129
v 0.580839 0.130135 0.064129
v 0.580839 -0.002435 0.064129
v -0.343460 0.130135 0.064129
v 0.253439 0.148595 0.064129
v -0.303560 0.155695 0.064129
v -0.343460 -0.002435 0.064129
v -0.458761 0.130135 0.064129
v -0.458761 -0.002435 0.064129
v -0.132961 -0.052305 -0.052574
v 0.259140 -0.052305 -0.052574
v 0.259140 -0.052305 0.053028
v -0.132961 -0.052305 0.053028
v -0.345161 -0.052305 -0.052574
v -0.146360 -0.052305 -0.052574
v -0.146360 -0.052305 0.053028
v -0.345161 -0.052305 0.053028
v -0.132961 0.028445 -0.052574
v 0.259140 0.028445 -0.052574
v 0.259140 -0.052305 -0.052574
v -0.132961 -0.052305 -0.052574
v -0.132961 -0.052305 0.053028
v 0.259140 -0.052305 0.053028
v 0.259140 0.028445 0.053028
v -0.132961 0.028445 0.053028
v 0.296839 0.028445 0.053028
v 0.296839 -0.087175 0.053028
v 0.583439 -0.087175 0.053028
v 0.583439 0.028445 0.053028
v 0.296839 0.028445 -0.052574
v 0.259140 -0.052305 -0.052574
v 0.259140 0.028445 -0.052574
v 0.296839 -0.087175 -0.052574
v 0.583439 0.028445 -0.052574
v 0.296839 -0.087175 -0.052574
v 0.296839 0.028445 -0.052574
v 0.583439 -0.087175 -0.052574
v 0.583439 0.028445 -0.052574
v 0.602039 -0.087175 -0.052574
v 0.583439 -0.087175 -0.052574
v 0.602039 0.045075 -0.052574
v 0.602039 -0.087175 0.053028
v 0.583439 0.028445 0.053028
v 0.583439 -0.087175 0.053028
v 0.602039 0.045075 0.053028
v 0.602039 0.045075 -0.052574
v 0.625639 -0.087175 -0.052574
v 0.602039 -0.087175 -0.052574
v 0.625639 0.052455 -0.052574
v 0.651838 0.045075 -0.052574
v 0.651838 -0.087175 -0.052574
v 0.625639 -0.087175 0.053028
v 0.602039 0.045075 0.053028
v 0.602039 -0.087175 0.053028
v 0.625639 0.052455 0.053028
v 0.625639 -0.087175 0.053028
v 0.651838 0.045075 0.053028
v 0.625639 0.052455 0.053028
v 0.651838 -0.087175 0.053028
v 0.651838 -0.087175 -0.052574
v 0.651838 0.045075 -0.052574
v 0.659840 0.028445 -0.052574
v 0.659840 -0.087175 -0.052574
v 0.651838 -0.087175 0.053028
v 0.659840 0.028445 0.053028
v 0.651838 0.045075 0.053028
v 0.659840 -0.087175 0.053028
v 0.659840 -0.087175 -0.052574
v 0.659840 0.028445 -0.052574
v 0.674438 -0.032085 -0.052574
v 0.674438 -0.087175 -0.052574
v 0.659840 -0.087175 0.053028
v 0.674438 -0.032085 0.053028
v 0.659840 0.028445 0.053028
v 0.674438 -0.087175 0.053028
v 0.674438 -0.087175 -0.052574
v 0.674438 -0.032085 -0.052574
v 0.682440 -0.065875 -0.052574
v 0.682440 -0.082315 -0.052574
v 0.674438 -0.087175 0.053028
v 0.682440 -0.065875 0.053028
v 0.674438 -0.032085 0.053028
v 0.682440 -0.082315 0.053028
v -0.345161 0.028445 -0.052574
v -0.146360 0.028445 -0.052574
v -0.146360 -0.052305 -0.052574
v -0.345161 -0.052305 -0.052574
v -0.345161 -0.052305 0.053028
v -0.146360 -0.052305 0.053028
v -0.146360 0.028445 0.053028
v -0.345161 0.028445 0.053028
v -0.538160 0.101215 -0.047371
v -0.344261 0.101215 -0.047371
v -0.344261 -0.045285 -0.047371
v -0.538160 -0.045285 -0.047371
v -0.538160 -0.045285 0.047829
v -0.344261 -0.045285 0.047829
v -0.344261 0.101215 0.047829
v -0.538160 0.101215 0.047829
v -0.538160 0.101215 0.047829
v -0.556961 -0.012545 0.047829
v -0.538160 -0.045285 0.047829
v -0.556961 0.101215 0.047829
v -0.556961 -0.012545 -0.047371
v -0.556961 0.101215 -0.047371
v -0.538160 0.101215 -0.047371
v -0.538160 -0.045285 -0.047371
v -0.538160 -0.045285 -0.047371
v -0.344261 -0.045285 -0.047371
v -0.344261 -0.045285 0.047829
v -0.538160 -0.045285 0.047829
v -0.011162 -0.064755 -0.010574
v -0.015461 -0.049395 -0.010574
v -0.015461 -0.049395 0.011028
v -0.011162 -0.064755 0.011028
v -0.011261 -0.093175 -0.010574
v -0.011261 -0.093175 0.011028
v -0.024961 -0.121785 -0.010574
v -0.024961 -0.121785 0.011028
v -0.044260 -0.140395 -0.010574
v -0.044260 -0.140395 0.011028
v -0.058861 -0.148335 -0.010574
v -0.058861 -0.148335 0.011028
v -0.065460 -0.150505 -0.010574
v -0.065460 -0.150505 0.011028
v 0.163839 -0.046675 -0.033871
v 0.163839 -0.353905 -0.033871
v 0.023338 -0.046675 -0.033871
v 0.184340 -0.057025 -0.033871
v 0.023338 -0.353905 -0.033871
v 0.184340 -0.345035 -0.033871
v 0.215139 -0.098895 -0.020271
v 0.215139 -0.309155 -0.020271
v 0.215139 -0.314885 -0.020271
v 0.184340 -0.352975 -0.033871
v 0.215139 -0.324705 -0.020271
v 0.184340 -0.366575 -0.033871
v 0.163839 -0.362385 -0.033871
v 0.163839 -0.376925 -0.033871
v 0.012440 -0.362385 -0.033871
v 0.023338 -0.376925 -0.033871
v 0.163839 -0.353905 0.034229
v 0.163839 -0.046675 0.034229
v 0.023338 -0.353905 0.034229
v 0.023338 -0.046675 0.034229
v 0.184340 -0.057025 0.034229
v 0.163839 -0.362385 0.034229
v 0.012440 -0.362385 0.034229
v 0.023338 -0.376925 0.034229
v 0.163839 -0.376925 0.034229
v 0.184340 -0.366575 0.034229
v 0.184340 -0.352975 0.034229
v 0.215139 -0.324705 0.020729
v 0.215139 -0.314885 0.020729
v 0.184340 -0.345035 0.034229
v 0.215139 -0.309155 0.020729
v 0.215139 -0.098895 0.020729
v 0.443539 0.186965 -0.039974
v 0.570539 0.186965 -0.039974
v 0.570539 0.121425 -0.039974
v 0.443539 0.121425 -0.039974
v 0.566540 0.195975 -0.039974
v 0.447538 0.195975 -0.039974
v 0.457439 0.204845 -0.039974
v 0.556639 0.204845 -0.039974
v 0.477240 0.212265 -0.039974
v 0.536839 0.212265 -0.039974
v 0.494339 0.214915 -0.039974
v 0.519739 0.214915 -0.039974
v -0.551561 0.194005 -0.039974
v -0.458261 0.194005 -0.039974
v -0.458261 0.100305 -0.039974
v -0.551561 0.100305 -0.039974
v -0.461061 0.203005 -0.039974
v -0.548761 0.203005 -0.039974
v -0.468361 0.211885 -0.039974
v -0.541361 0.211885 -0.039974
v -0.526760 0.219295 -0.039974
v -0.482962 0.219295 -0.039974
v -0.495562 0.221945 -0.039974
v -0.514261 0.221945 -0.039974
v -0.551561 0.100305 0.040527
v -0.458261 0.100305 0.040527
v -0.551561 0.194005 0.040527
v -0.458261 0.194005 0.040527
v -0.461061 0.203005 0.040527
v -0.548761 0.203005 0.040527
v -0.468361 0.211885 0.040527
v -0.541361 0.211885 0.040527
v -0.526760 0.219295 0.040527
v -0.482962 0.219295 0.040527
v -0.495562 0.221945 0.040527
v -0.514261 0.221945 0.040527
v 0.570539 0.186965 0.040527
v 0.443539 0.186965 0.040527
v 0.570539 0.121425 0.040527
v 0.443539 0.121425 0.040527
v 0.566540 0.195975 0.040527
v 0.447538 0.195975 0.040527
v 0.457439 0.204845 0.040527
v 0.556639 0.204845 0.040527
v 0.477240 0.212265 0.040527
v 0.536839 0.212265 0.040527
v 0.494339 0.214915 0.040527
v 0.519739 0.214915 0.040527
v 0.644539 0.069445 -0.036472
v 0.564240 0.023045 -0.036472
v 0.562540 0.099005 -0.036472
v 0.646238 0.023045 -0.036472
v 0.644539 0.069445 -0.036472
v 0.562540 0.099005 -0.036472
v 0.597239 0.096435 -0.036472
v 0.637838 0.084865 -0.036472
v 0.620138 0.092945 -0.036472
v 0.564240 0.023045 0.036926
v 0.644539 0.069445 0.036926
v 0.562540 0.099005 0.036926
v 0.646238 0.023045 0.036926
v 0.597239 0.096435 0.036926
v 0.644539 0.069445 0.036926
v 0.637838 0.084865 0.036926
v 0.562540 0.099005 0.036926
v 0.620138 0.092945 0.036926
v 0.722839 -0.081495 -0.036373
v 0.670038 -0.353835 -0.036373
v 0.599440 -0.081495 -0.036373
v 0.609638 -0.353835 -0.036373
v 0.663439 -0.366545 -0.036373
v 0.611238 -0.366545 -0.036373
v 0.650839 -0.379135 -0.036373
v 0.613539 -0.379135 -0.036373
v 0.722839 -0.081495 -0.036373
v 0.599440 -0.081495 -0.036373
v 0.707439 -0.055435 -0.036373
v 0.716240 -0.063065 -0.036373
v 0.599440 -0.081495 -0.036373
v 0.693439 -0.046315 -0.036373
v 0.707439 -0.055435 -0.036373
v 0.671839 -0.032535 -0.036373
v 0.599440 -0.081495 0.036728
v 0.609638 -0.353835 0.036728
v 0.670038 -0.353835 0.036728
v 0.722839 -0.081495 0.036728
v 0.663439 -0.366545 0.036728
v 0.611238 -0.366545 0.036728
v 0.650839 -0.379135 0.036728
v 0.613539 -0.379135 0.036728
v 0.599440 -0.081495 0.036728
v 0.722839 -0.081495 0.036728
v 0.707439 -0.055435 0.036728
v 0.716240 -0.063065 0.036728
v 0.599440 -0.081495 0.036728
v 0.693439 -0.046315 0.036728
v 0.671839 -0.032535 0.036728
v 0.707439 -0.055435 0.036728
v -0.557161 0.017185 -0.031372
v -0.582661 0.004115 0.000229
v -0.582661 0.017185 -0.031372
v -0.557161 0.004115 0.000229
v -0.557161 0.048745 -0.044472
v -0.582661 0.048745 -0.044472
v -0.557161 0.080305 -0.031372
v -0.582661 0.080305 -0.031372
v -0.557161 0.093375 0.000229
v -0.582661 0.093375 0.000229
v 0.259140 0.028445 -0.052574
v -0.132961 0.028445 -0.052574
v -0.132961 0.028445 0.053028
v 0.259140 0.028445 0.053028
v 0.296839 0.028445 0.053028
v 0.296839 0.028445 -0.052574
v 0.583439 0.028445 0.053028
v 0.583439 0.028445 -0.052574
v -0.146360 0.028445 -0.052574
v -0.345161 0.028445 -0.052574
v -0.345161 0.028445 0.053028
v -0.146360 0.028445 0.053028
v -0.557161 0.048745 0.044827
v -0.582661 0.080305 0.031727
v -0.582661 0.048745 0.044827
v -0.557161 0.080305 0.031727
v -0.582661 0.093375 0.000229
v -0.557161 0.093375 0.000229
v -0.557161 0.017185 0.031727
v -0.582661 0.017185 0.031727
v -0.557161 0.004115 0.000229
v -0.582661 0.004115 0.000229
v -0.581060 0.048745 0.039829
v -0.650761 0.076785 0.028229
v -0.650761 0.048745 0.039829
v -0.581060 0.076785 0.028229
v -0.650761 0.088405 0.000229
v -0.581060 0.088405 0.000229
v -0.581060 0.020695 0.028229
v -0.650761 0.020695 0.028229
v -0.581060 0.009085 0.000229
v -0.650761 0.009085 0.000229
v -0.581060 0.020695 -0.027874
v -0.650761 0.009085 0.000229
v -0.650761 0.020695 -0.027874
v -0.581060 0.009085 0.000229
v -0.581060 0.048745 -0.039474
v -0.650761 0.048745 -0.039474
v -0.581060 0.076785 -0.027874
v -0.650761 0.076785 -0.027874
v -0.581060 0.088405 0.000229
v -0.650761 0.088405 0.000229
v 0.500938 -0.086295 -0.023071
v 0.473940 -0.103205 -0.023071
v 0.444540 -0.086295 -0.023071
v 0.525740 -0.103205 -0.023071
v 0.497839 -0.120555 -0.023071
v 0.545439 -0.120555 -0.023071
v 0.545439 -0.120555 -0.023071
v 0.529039 -0.151285 -0.023071
v 0.497839 -0.120555 -0.023071
v 0.556839 -0.135525 -0.023071
v 0.546940 -0.178435 -0.023071
v 0.556839 -0.135525 -0.023071
v 0.564440 -0.135655 -0.023071
v 0.529039 -0.151285 -0.023071
v 0.604738 -0.178435 -0.023071
v 0.561739 -0.212115 -0.023071
v 0.604738 -0.135655 -0.023071
v 0.564440 -0.083505 -0.023071
v 0.604738 -0.083505 -0.023071
v 0.608438 -0.274955 -0.023071
v 0.573139 -0.251365 -0.023071
v 0.588039 -0.269165 -0.023071
v 0.500938 -0.086295 0.023426
v 0.473940 -0.103205 0.023426
v 0.525740 -0.103205 0.023426
v 0.444540 -0.086295 0.023426
v 0.497839 -0.120555 0.023426
v 0.545439 -0.120555 0.023426
v 0.529039 -0.151285 0.023426
v 0.556839 -0.135525 0.023426
v 0.546940 -0.178435 0.023426
v 0.564440 -0.135655 0.023426
v 0.604738 -0.178435 0.023426
v 0.561739 -0.212115 0.023426
v 0.604738 -0.135655 0.023426
v 0.564440 -0.083505 0.023426
v 0.604738 -0.083505 0.023426
v 0.608438 -0.274955 0.023426
v 0.573139 -0.251365 0.023426
v 0.588039 -0.269165 0.023426
v -0.236961 0.153825 0.030727
v -0.236961 0.197795 0.030727
v -0.258461 0.153825 0.021729
v -0.215361 0.197795 0.021729
v -0.258461 0.197795 0.021729
v -0.267462 0.153825 0.000229
v -0.267462 0.197795 0.000229
v -0.215361 0.153825 0.021729
v -0.206461 0.197795 0.000229
v -0.206461 0.153825 0.000229
v -0.215361 0.197795 -0.021374
v -0.206461 0.153825 0.000229
v -0.215361 0.153825 -0.021374
v -0.206461 0.197795 0.000229
v -0.236961 0.197795 -0.030273
v -0.236961 0.153825 -0.030273
v -0.258461 0.197795 -0.021374
v -0.258461 0.153825 -0.021374
v -0.267462 0.197795 0.000229
v -0.267462 0.153825 0.000229
v -0.798061 0.028705 -0.019871
v -0.860661 0.020405 0.000229
v -0.860661 0.028705 -0.019871
v -0.798061 0.020405 0.000229
v -0.798061 0.048745 -0.028172
v -0.860661 0.048745 -0.028172
v -0.798061 0.068775 -0.019871
v -0.860661 0.068775 -0.019871
v -0.798061 0.077075 0.000229
v -0.860661 0.077075 0.000229
v -0.798061 0.048745 0.028526
v -0.860661 0.068775 0.020226
v -0.860661 0.048745 0.028526
v -0.798061 0.068775 0.020226
v -0.860661 0.077075 0.000229
v -0.798061 0.077075 0.000229
v -0.798061 0.028705 0.020226
v -0.860661 0.028705 0.020226
v -0.798061 0.020405 0.000229
v -0.860661 0.020405 0.000229
v -0.130760 0.003185 -0.015274
v -0.130760 -0.131675 -0.015274
v -0.148460 0.003185 -0.015274
v -0.148460 -0.131675 -0.015274
v -0.128962 -0.142985 -0.015274
v -0.145460 -0.148985 -0.015274
v -0.132360 -0.164815 -0.015274
v -0.128962 -0.142985 -0.015274
v -0.121361 -0.150995 -0.015274
v -0.145460 -0.148985 -0.015274
v -0.113760 -0.156245 -0.015274
v -0.113760 -0.173865 -0.015274
v -0.132360 -0.164815 -0.015274
v -0.121361 -0.150995 -0.015274
v -0.113760 -0.156245 -0.015274
v -0.016861 -0.173865 -0.015274
v -0.113760 -0.173865 -0.015274
v -0.016861 -0.156245 -0.015274
v -0.010462 -0.173865 -0.015274
v -0.016861 -0.156245 -0.015274
v 0.026739 -0.140635 -0.015274
v -0.010462 -0.173865 -0.015274
v 0.014540 -0.126425 -0.015274
v 0.026739 -0.061475 -0.015274
v 0.014540 -0.126425 -0.015274
v 0.014540 -0.061475 -0.015274
v 0.026739 -0.140635 -0.015274
v 0.026739 -0.051545 -0.015274
v 0.014540 -0.051545 -0.015274
v -0.002060 -0.061475 -0.015274
v -0.002060 -0.051545 -0.015274
v -0.130760 -0.131675 0.015629
v -0.130760 0.003185 0.015629
v -0.148460 -0.131675 0.015629
v -0.148460 0.003185 0.015629
v -0.128962 -0.142985 0.015629
v -0.145460 -0.148985 0.015629
v -0.128962 -0.142985 0.015629
v -0.145460 -0.148985 0.015629
v -0.132360 -0.164815 0.015629
v -0.121361 -0.150995 0.015629
v -0.132360 -0.164815 0.015629
v -0.113760 -0.156245 0.015629
v -0.121361 -0.150995 0.015629
v -0.113760 -0.173865 0.015629
v -0.016861 -0.173865 0.015629
v -0.113760 -0.156245 0.015629
v -0.113760 -0.173865 0.015629
v -0.016861 -0.156245 0.015629
v -0.010462 -0.173865 0.015629
v 0.026739 -0.140635 0.015629
v 0.014540 -0.126425 0.015629
v 0.026739 -0.061475 0.015629
v 0.014540 -0.061475 0.015629
v 0.026739 -0.051545 0.015629
v 0.014540 -0.051545 0.015629
v -0.002060 -0.051545 0.015629
v -0.002060 -0.061475 0.015629
v -0.647760 0.048745 0.022129
v -0.788761 0.064285 0.015728
v -0.788761 0.048745 0.022129
v -0.647760 0.064285 0.015728
v -0.788761 0.070715 0.000229
v -0.647760 0.070715 0.000229
v -0.647760 0.033205 0.015728
v -0.788761 0.033205 0.015728
v -0.647760 0.026765 0.000229
v -0.788761 0.026765 0.000229
v -0.015461 -0.049395 -0.010574
v -0.036661 -0.064755 -0.010574
v -0.040960 -0.049395 -0.010574
v -0.011162 -0.064755 -0.010574
v -0.011162 -0.064755 -0.010574
v -0.032961 -0.089555 -0.010574
v -0.036661 -0.064755 -0.010574
v -0.011261 -0.093175 -0.010574
v -0.011261 -0.093175 -0.010574
v -0.038061 -0.114155 -0.010574
v -0.032961 -0.089555 -0.010574
v -0.024961 -0.121785 -0.010574
v -0.050661 -0.131875 -0.010574
v -0.044260 -0.140395 -0.010574
v -0.061361 -0.145095 -0.010574
v -0.044260 -0.140395 -0.010574
v -0.058861 -0.148335 -0.010574
v -0.050661 -0.131875 -0.010574
v -0.061361 -0.145095 -0.010574
v -0.058861 -0.148335 -0.010574
v -0.065460 -0.150505 -0.010574
v -0.015461 -0.049395 0.011028
v -0.036661 -0.064755 0.011028
v -0.011162 -0.064755 0.011028
v -0.040960 -0.049395 0.011028
v -0.011162 -0.064755 0.011028
v -0.032961 -0.089555 0.011028
v -0.011261 -0.093175 0.011028
v -0.036661 -0.064755 0.011028
v -0.038061 -0.114155 0.011028
v -0.011261 -0.093175 0.011028
v -0.032961 -0.089555 0.011028
v -0.024961 -0.121785 0.011028
v -0.050661 -0.131875 0.011028
v -0.024961 -0.121785 0.011028
v -0.038061 -0.114155 0.011028
v -0.044260 -0.140395 0.011028
v -0.044260 -0.140395 0.011028
v -0.061361 -0.145095 0.011028
v -0.058861 -0.148335 0.011028
v -0.050661 -0.131875 0.011028
v -0.061361 -0.145095 0.011028
v -0.065460 -0.150505 0.011028
v -0.058861 -0.148335 0.011028
v -0.778461 0.048745 0.014027
v -0.808960 0.058515 0.009926
v -0.808960 0.048745 0.014027
v -0.778461 0.058515 0.009926
v -0.808960 0.062555 0.000229
v -0.778461 0.062555 0.000229
v -0.778461 0.038975 0.009926
v -0.808960 0.038975 0.009926
v -0.778461 0.034925 0.000229
v -0.808960 0.034925 0.000229
v -0.244961 0.210845 -0.004673
v -0.229061 0.210845 -0.004673
v -0.229061 0.194925 -0.004673
v -0.244961 0.194925 -0.004673
v -0.244961 0.194925 0.005127
v -0.229061 0.194925 0.005127
v -0.229061 0.210845 0.005127
v -0.244961 0.210845 0.005127
v -0.778461 0.038975 -0.009571
v -0.808960 0.034925 0.000229
v -0.808960 0.038975 -0.009571
v -0.778461 0.034925 0.000229
v -0.808960 0.038975 0.009926
v -0.778461 0.038975 0.009926
v -0.778461 0.058515 0.009926
v -0.778461 0.048745 0.014027
v -0.778461 0.058515 -0.009571
v -0.778461 0.062555 0.000229
v -0.778461 0.048745 -0.013573
v -0.808960 0.048745 -0.013573
v -0.808960 0.058515 -0.009571
v -0.808960 0.062555 0.000229
v -0.808960 0.058515 0.009926
v -0.808960 0.048745 0.014027
v 0.375040 -0.002435 0.064129
v 0.375040 -0.002435 -0.063671
v 0.447639 -0.002435 -0.063671
v -0.343460 -0.002435 0.064129
v 0.447639 -0.002435 0.064129
v 0.580839 -0.002435 0.064129
v 0.580839 -0.002435 -0.063671
v -0.343460 -0.002435 -0.063671
v -0.458761 -0.002435 0.064129
v -0.458761 -0.002435 -0.063671
v -0.040960 -0.049395 -0.010574
v -0.036661 -0.064755 -0.010574
v -0.036661 -0.064755 0.011028
v -0.040960 -0.049395 0.011028
v -0.032961 -0.089555 0.011028
v -0.032961 -0.089555 -0.010574
v -0.038061 -0.114155 0.011028
v -0.038061 -0.114155 -0.010574
v -0.050661 -0.131875 0.011028
v -0.050661 -0.131875 -0.010574
v -0.061361 -0.145095 0.011028
v -0.061361 -0.145095 -0.010574
v -0.065460 -0.150505 0.011028
v -0.065460 -0.150505 -0.010574
v -0.818161 0.061075 -0.012173
v -0.860661 0.066185 0.000229
v -0.860661 0.061075 -0.012173
v -0.818161 0.066185 0.000229
v -0.818161 0.048745 -0.017273
v -0.860661 0.048745 -0.017273
v -0.818161 0.036405 -0.012173
v -0.860661 0.036405 -0.012173
v -0.818161 0.031295 0.000229
v -0.860661 0.031295 0.000229
v 0.023338 -0.046675 0.034229
v 0.163839 -0.046675 -0.033871
v 0.023338 -0.046675 -0.033871
v 0.163839 -0.046675 0.034229
v 0.184340 -0.057025 0.034229
v 0.184340 -0.057025 -0.033871
v 0.215139 -0.098895 -0.020271
v 0.215139 -0.098895 0.020729
v 0.564240 0.023045 -0.036472
v 0.646238 0.023045 -0.036472
v 0.646238 0.023045 0.036926
v 0.564240 0.023045 0.036926
v -0.551561 0.194005 0.022427
v -0.458261 0.194005 0.022427
v -0.458261 0.100305 0.022427
v -0.551561 0.100305 0.022427
v -0.461061 0.203005 0.022427
v -0.548761 0.203005 0.022427
v -0.468361 0.211885 0.022427
v -0.541361 0.211885 0.022427
v -0.526760 0.219295 0.022427
v -0.482962 0.219295 0.022427
v -0.495562 0.221945 0.022427
v -0.514261 0.221945 0.022427
v 0.443539 0.186965 0.022427
v 0.570539 0.186965 0.022427
v 0.570539 0.121425 0.022427
v 0.443539 0.121425 0.022427
v 0.566540 0.195975 0.022427
v 0.447538 0.195975 0.022427
v 0.457439 0.204845 0.022427
v 0.556639 0.204845 0.022427
v 0.477240 0.212265 0.022427
v 0.536839 0.212265 0.022427
v 0.494339 0.214915 0.022427
v 0.519739 0.214915 0.022427
v 0.570539 0.186965 -0.021774
v 0.443539 0.186965 -0.021774
v 0.570539 0.121425 -0.021774
v 0.443539 0.121425 -0.021774
v 0.566540 0.195975 -0.021774
v 0.447538 0.195975 -0.021774
v 0.457439 0.204845 -0.021774
v 0.556639 0.204845 -0.021774
v 0.477240 0.212265 -0.021774
v 0.536839 0.212265 -0.021774
v 0.494339 0.214915 -0.021774
v 0.519739 0.214915 -0.021774
v -0.551561 0.100305 -0.021774
v -0.458261 0.100305 -0.021774
v -0.551561 0.194005 -0.021774
v -0.458261 0.194005 -0.021774
v -0.461061 0.203005 -0.021774
v -0.548761 0.203005 -0.021774
v -0.468361 0.211885 -0.021774
v -0.541361 0.211885 -0.021774
v -0.526760 0.219295 -0.021774
v -0.482962 0.219295 -0.021774
v -0.495562 0.221945 -0.021774
v -0.514261 0.221945 -0.021774
v 0.023338 -0.353905 0.034229
v 0.023338 -0.046675 0.034229
v 0.023338 -0.353905 -0.033871
v 0.023338 -0.046675 -0.033871
v -0.015461 -0.049395 -0.010574
v -0.040960 -0.049395 -0.010574
v -0.040960 -0.049395 0.011028
v -0.015461 -0.049395 0.011028
v 0.604738 -0.083505 -0.023071
v 0.564440 -0.083505 -0.023071
v 0.564440 -0.083505 0.023426
v 0.604738 -0.083505 0.023426
v 0.500938 -0.086295 -0.023071
v 0.444540 -0.086295 -0.023071
v 0.444540 -0.086295 0.023426
v 0.500938 -0.086295 0.023426
v -0.551561 0.100305 -0.039974
v -0.458261 0.100305 -0.039974
v -0.458261 0.100305 -0.021774
v -0.551561 0.100305 -0.021774
v -0.551561 0.100305 0.022427
v -0.458261 0.100305 0.022427
v -0.458261 0.100305 0.040527
v -0.551561 0.100305 0.040527
v 0.443539 0.121425 -0.039974
v 0.570539 0.121425 -0.039974
v 0.570539 0.121425 -0.021774
v 0.443539 0.121425 -0.021774
v 0.443539 0.121425 0.022427
v 0.570539 0.121425 0.022427
v 0.570539 0.121425 0.040527
v 0.443539 0.121425 0.040527
v -0.146360 0.028445 -0.052574
v -0.146360 -0.052305 0.053028
v -0.146360 -0.052305 -0.052574
v -0.146360 0.028445 0.053028
v 0.556839 -0.135525 -0.023071
v 0.556839 -0.135525 0.023426
v 0.564440 -0.135655 -0.023071
v 0.564440 -0.135655 0.023426
v 0.625639 0.052455 0.053028
v 0.625639 0.052455 -0.052574
v 0.602039 0.045075 -0.052574
v 0.602039 0.045075 0.053028
v 0.296839 -0.087175 -0.052574
v 0.259140 -0.052305 0.053028
v 0.259140 -0.052305 -0.052574
v 0.296839 -0.087175 0.053028
v -0.244961 0.194925 -0.004673
v -0.229061 0.194925 -0.004673
v -0.229061 0.194925 0.005127
v -0.244961 0.194925 0.005127
v -0.229061 0.210845 -0.004673
v -0.229061 0.194925 0.005127
v -0.229061 0.194925 -0.004673
v -0.229061 0.210845 0.005127
v 0.012440 -0.362385 -0.033871
v 0.023338 -0.353905 0.034229
v 0.023338 -0.353905 -0.033871
v 0.012440 -0.362385 0.034229
v -0.344261 0.101215 -0.047371
v -0.344261 -0.045285 0.047829
v -0.344261 -0.045285 -0.047371
v -0.344261 0.101215 0.047829
v 0.444540 -0.086295 -0.023071
v 0.473940 -0.103205 -0.023071
v 0.473940 -0.103205 0.023426
v 0.444540 -0.086295 0.023426
v 0.497839 -0.120555 0.023426
v 0.497839 -0.120555 -0.023071
v 0.529039 -0.151285 0.023426
v 0.529039 -0.151285 -0.023071
v 0.546940 -0.178435 0.023426
v 0.546940 -0.178435 -0.023071
v 0.561739 -0.212115 0.023426
v 0.561739 -0.212115 -0.023071
v 0.573139 -0.251365 0.023426
v 0.573139 -0.251365 -0.023071
v 0.588039 -0.269165 0.023426
v 0.588039 -0.269165 -0.023071
v 0.602039 0.045075 0.053028
v 0.602039 0.045075 -0.052574
v 0.583439 0.028445 -0.052574
v 0.583439 0.028445 0.053028
v 0.671839 -0.032535 -0.036373
v 0.599440 -0.081495 -0.036373
v 0.599440 -0.081495 0.036728
v 0.671839 -0.032535 0.036728
v -0.557161 0.093375 0.000229
v -0.557161 0.048745 0.044827
v -0.557161 0.048745 -0.044472
v -0.557161 0.080305 -0.031372
v -0.557161 0.080305 0.031727
v -0.557161 0.017185 -0.031372
v -0.557161 0.004115 0.000229
v -0.557161 0.017185 0.031727
v -0.581060 0.088405 0.000229
v -0.581060 0.048745 0.039829
v -0.581060 0.048745 -0.039474
v -0.581060 0.076785 -0.027874
v -0.581060 0.076785 0.028229
v -0.581060 0.020695 -0.027874
v -0.581060 0.009085 0.000229
v -0.581060 0.020695 0.028229
v 0.564440 -0.083505 -0.023071
v 0.564440 -0.135655 -0.023071
v 0.564440 -0.135655 0.023426
v 0.564440 -0.083505 0.023426
v 0.562540 0.099005 -0.036472
v 0.564240 0.023045 -0.036472
v 0.564240 0.023045 0.036926
v 0.562540 0.099005 0.036926
v 0.599440 -0.081495 -0.036373
v 0.609638 -0.353835 -0.036373
v 0.609638 -0.353835 0.036728
v 0.599440 -0.081495 0.036728
v 0.611238 -0.366545 0.036728
v 0.611238 -0.366545 -0.036373
v 0.613539 -0.379135 0.036728
v 0.613539 -0.379135 -0.036373
v -0.647760 0.064285 -0.015373
v -0.647760 0.064285 0.015728
v -0.647760 0.048745 -0.021774
v -0.647760 0.070715 0.000229
v -0.647760 0.033205 -0.015373
v -0.647760 0.033205 0.015728
v -0.647760 0.026765 0.000229
v -0.647760 0.048745 0.022129
v -0.798061 0.068775 -0.019871
v -0.798061 0.020405 0.000229
v -0.798061 0.048745 -0.028172
v -0.798061 0.028705 -0.019871
v -0.798061 0.068775 0.020226
v -0.798061 0.077075 0.000229
v -0.798061 0.048745 0.028526
v -0.798061 0.028705 0.020226
vn -1.0000 0.0002 -0.0000
vn -1.0000 0.0003 -0.0000
vn -1.0000 0.0004 -0.0000
vn -1.0000 -0.0000 -0.0000
vn -1.0000 -0.0001 -0.0000
vn -1.0000 0.0001 -0.0000
vn -1.0000 -0.0002 -0.0000
vn 0.9787 -0.2053 -0.0000
vn 0.9821 -0.1886 -0.0000
vn 0.9821 -0.1885 -0.0000
vn 0.7952 -0.6063 -0.0000
vn 0.7953 -0.6063 -0.0000
vn 0.7069 -0.7073 -0.0000
vn 0.7070 -0.7072 -0.0000
vn 1.0000 -0.0000 -0.0000
vn 0.9715 0.2369 -0.0000
vn 0.9715 0.2370 -0.0000
vn 0.9737 0.2277 -0.0000
vn 0.9737 0.2278 -0.0000
vn 0.9992 0.0393 -0.0000
vn 0.9910 0.1337 -0.0000
vn 0.9154 0.4025 -0.0000
vn 0.9007 0.4345 -0.0000
vn 0.9997 0.0236 -0.0000
vn 0.9992 0.0392 -0.0000
vn -0.8677 -0.4970 -0.0000
vn -0.8678 -0.4969 -0.0000
vn 0.5924 0.8056 -0.0000
vn 0.8589 0.5122 -0.0000
vn 0.5419 0.8404 -0.0000
vn 0.9439 0.3304 -0.0000
vn 0.9439 0.3303 -0.0000
vn 0.5418 0.8405 -0.0000
vn 0.5364 0.8440 -0.0000
vn 0.5179 -0.8554 -0.0000
vn 0.5180 -0.8554 -0.0000
vn -0.7754 0.4465 -0.4465
vn -0.7778 -0.0000 -0.6285
vn -0.7754 -0.4465 -0.4465
vn -0.0000 0.7071 -0.7071
vn -0.0000 -0.0001 -1.0000
vn -0.0000 1.0000 -0.0001
vn -0.7778 0.6285 -0.0000
vn -0.0000 -0.7071 -0.7072
vn -0.7754 0.4465 0.4465
vn -0.7778 -0.6285 -0.0000
vn -0.0000 -1.0000 -0.0000
vn -0.7754 -0.4465 0.4465
vn -0.7778 -0.0000 0.6285
vn 0.0629 -0.9980 -0.0000
vn 0.6831 -0.7303 -0.0000
vn 0.8055 -0.5926 -0.0000
vn 0.8056 -0.5925 -0.0000
vn 0.5655 0.8247 -0.0000
vn 0.6063 0.7952 -0.0000
vn 0.7189 0.6951 -0.0000
vn 0.7953 0.6063 -0.0000
vn 0.7953 0.6062 -0.0000
vn -0.5364 0.8440 -0.0000
vn 0.2685 0.9633 -0.0000
vn -0.0000 1.0000 -0.0000
vn 0.0707 0.9975 -0.0000
vn 0.1026 0.9947 -0.0000
vn 0.2758 0.9612 -0.0000
vn 0.4185 0.9082 -0.0000
vn -0.8019 -0.5975 -0.0000
vn 0.1491 0.9888 -0.0000
vn 0.1490 0.9888 -0.0000
vn -0.9985 0.0551 -0.0000
vn -0.7885 0.6150 -0.0000
vn -0.4816 0.8764 -0.0000
vn -0.2591 0.9658 -0.0000
vn -0.0629 0.9980 -0.0000
vn 0.0629 0.9980 -0.0000
vn 0.2591 0.9659 -0.0000
vn 0.2591 0.9658 -0.0000
vn 0.4816 0.8764 -0.0000
vn 0.7885 0.6150 -0.0000
vn 0.9985 0.0551 -0.0000
vn 0.9985 0.0550 -0.0000
vn -0.9995 0.0315 -0.0000
vn -0.8678 0.4970 -0.0000
vn -0.5975 0.8019 -0.0000
vn -0.3468 0.9379 -0.0000
vn -0.0863 0.9963 -0.0000
vn 0.0863 0.9963 -0.0000
vn 0.3468 0.9379 -0.0000
vn 0.5975 0.8019 -0.0000
vn 0.8678 0.4970 -0.0000
vn 0.9995 0.0315 -0.0000
vn -0.0000 -0.7069 -0.7074
vn -0.4250 -0.9052 -0.0000
vn -0.4265 -0.6393 -0.6398
vn -0.4264 -0.6396 0.6396
vn -0.0000 -0.0000 -1.0000
vn -0.4264 0.6396 0.6396
vn -0.4251 -0.0001 0.9051
vn -0.4251 -0.0001 -0.9051
vn -0.0000 0.7070 -0.7072
vn -0.4264 0.6396 -0.6396
vn -0.4250 0.9052 -0.0000
vn 0.0157 0.9999 -0.0000
vn 0.0158 0.9999 -0.0000
vn -0.9920 0.1259 -0.0000
vn 0.9920 0.1259 -0.0000
vn -0.9920 0.1260 -0.0000
vn -0.9999 -0.0158 -0.0000
vn 0.9920 0.1260 -0.0000
vn 0.9999 0.0158 -0.0000
vn -0.9007 -0.4345 -0.0000
vn -0.6150 -0.7885 -0.0000
vn 0.6585 0.7526 -0.0000
vn -0.0785 -0.9969 -0.0000
vn -0.0785 -0.9969 -0.0001
vn 0.0472 0.9989 -0.0001
vn 0.0472 0.9989 -0.0000
vn -0.2277 0.9737 -0.0000
vn 0.6062 -0.7953 -0.0000
vn -0.2278 0.9737 -0.0000
vn -0.9495 0.3139 -0.0000
vn 0.9495 -0.3139 -0.0000
vn -0.9678 -0.2518 -0.0000
vn -0.5122 -0.8589 -0.0000
vn -0.5122 0.8589 -0.0000
vn 0.6324 0.7746 -0.0000
vn -0.2757 -0.9612 -0.0000
vn -0.0000 -0.0000 1.0000
vn -0.0001 -0.0000 1.0000
vn -0.0001 -0.0000 -1.0000
vn 0.0001 -0.0000 -1.0000
vn 0.0002 -0.0000 -1.0000
vn 0.0003 -0.0000 1.0000
vn 0.0002 -0.0000 1.0000
vn 0.0001 -0.0000 1.0000
vn 0.9955 0.0948 -0.0000
vn 0.9633 0.2684 -0.0000
vn 0.9633 0.2685 -0.0000
vn 0.9715 -0.2369 -0.0000
vn 0.8185 -0.5745 -0.0000
vn 0.6150 -0.7885 -0.0000
vn 0.4315 -0.9021 -0.0000
vn 0.4314 -0.9021 -0.0000
vn 0.3138 -0.9495 -0.0000
vn 0.3139 -0.9495 -0.0000
vn 0.1260 -0.0000 -0.9920
vn 0.1491 -0.0000 -0.9888
vn 0.4024 -0.0000 -0.9155
vn 0.4025 -0.0000 -0.9154
vn 0.2591 -0.0000 -0.9659
vn 0.1260 -0.0000 0.9920
vn 0.2591 -0.0000 0.9658
vn 0.4025 -0.0000 0.9154
vn 0.4022 -0.0000 0.9155
vn 0.1491 -0.0000 0.9888
vn 0.4024 -0.0000 0.9154
vn -0.0002 -0.0000 -1.0000
vn -0.0000 -0.7071 -0.7071
vn -0.0000 -0.7073 -0.7069
vn -0.0000 0.7072 -0.7070
vn -0.0001 1.0000 -0.0000
vn -0.0000 0.7071 0.7071
vn -0.0000 -0.7071 0.7071
vn -0.0001 -1.0000 0.0001
vn -0.0000 0.0001 1.0000
vn -0.0000 0.7067 0.7075
vn -0.0000 -0.7070 0.7072
vn -0.0000 -0.7068 0.7074
vn -0.0000 -0.7072 -0.7070
vn -0.0000 -0.7073 -0.7070
vn -0.0000 0.0001 -1.0000
vn -0.0003 -0.0000 -1.0000
vn -0.7071 -0.0000 0.7072
vn 0.7071 -0.0000 0.7071
vn -0.7071 -0.0000 0.7071
vn 1.0000 -0.0001 0.0001
vn 1.0000 -0.0000 0.0001
vn 0.7072 -0.0000 -0.7070
vn 0.7071 -0.0000 -0.7071
vn -0.7071 -0.0000 -0.7071
vn -1.0000 -0.0000 -0.0001
vn -0.0000 0.7069 0.7073
vn -0.0000 -0.7069 0.7074
vn 0.0003 -0.0000 -1.0000
vn -0.4250 -0.0000 0.9052
vn -0.0000 -0.7071 0.7072
vn -0.4251 -0.9052 -0.0000
vn 0.8056 -0.0000 0.5924
vn -0.8058 0.4187 0.4187
vn -0.8056 -0.0000 0.5924
vn 0.8058 0.4187 0.4187
vn -0.8056 0.5924 -0.0001
vn 0.8057 0.5924 0.0001
vn 0.8058 -0.4187 0.4187
vn -0.8058 -0.4187 0.4187
vn 0.8057 -0.5924 -0.0000
vn -0.8057 -0.5924 -0.0000
vn 0.8058 -0.4188 -0.4187
vn -0.8056 -0.5924 -0.0000
vn -0.8058 -0.4188 -0.4187
vn 0.8058 0.4188 0.4187
vn 0.8056 0.0001 0.5924
vn 0.8058 0.4187 -0.4187
vn 0.8057 0.5924 -0.0001
vn 0.8056 -0.0000 -0.5924
vn -0.8056 -0.0000 -0.5924
vn -0.8058 0.4188 -0.4187
vn -0.8057 0.5924 -0.0000
vn -0.8058 0.4187 0.4188
vn -0.9633 -0.2685 -0.0000
vn -0.9806 -0.1961 -0.0000
vn -0.9633 -0.2684 -0.0000
vn -0.9995 0.0314 -0.0000
vn -0.9224 0.3863 -0.0000
vn -0.7991 0.6012 -0.0000
vn -0.7991 0.6013 -0.0000
vn -0.7847 0.6199 -0.0000
vn -0.7953 0.6063 -0.0000
vn -0.7755 -0.4464 0.4465
vn -0.0000 -0.7072 0.7070
vn -0.0000 -0.0001 1.0000
vn -0.7755 0.4465 0.4464
vn -0.0000 0.7072 0.7070
vn 0.6832 0.7303 -0.0000
vn 0.8056 0.5925 -0.0000
vn -0.2996 0.9541 -0.0000
vn -0.6790 -0.7341 -0.0000
vn -0.6787 -0.7344 -0.0000
vn -0.6790 -0.7342 -0.0000
vn -0.6150 0.7885 -0.0000
vn -0.6149 0.7886 -0.0000
vn -0.4970 -0.8677 -0.0000
vn -0.5420 -0.8404 -0.0000
vn -0.5419 -0.8404 -0.0000
vn -0.6540 -0.7565 -0.0000
vn -0.7637 -0.6456 -0.0000
vn -0.8815 -0.4722 -0.0000
vn -0.8815 -0.4723 -0.0000
vn -0.9414 -0.3373 -0.0000
vn -0.9414 -0.3374 -0.0000
vn -0.9082 -0.4186 -0.0000
vn -0.6668 0.7453 -0.0000
vn -0.6669 0.7451 -0.0000
vn -0.6666 0.7454 -0.0000
vn -0.6669 0.7452 -0.0000
vn -0.5602 0.8284 -0.0000
vn -0.5601 0.8284 -0.0000
vn -0.5602 0.8283 -0.0000
vn 1.0000 -0.0001 -0.0000
vn 1.0000 0.0002 -0.0000
vn 1.0000 -0.0002 -0.0000
vn -0.9997 -0.0236 -0.0000
vn -0.9992 -0.0393 -0.0000
vn -0.9992 -0.0394 -0.0000
vn -0.9888 -0.1491 -0.0000
vn -0.9835 -0.1809 -0.0000
vn -0.9835 -0.1810 -0.0000
vn 1.0000 0.0001 -0.0000
vt 1.000000 0.758984
vt 1.000000 0.732367
vt 1.000000 0.745176
vt 1.000000 0.740869
vt 1.000000 0.711841
vt 1.000000 0.691315
vt 1.000000 0.678505
vt 1.000000 0.664697
vt 1.000000 0.682813
vt 0.033292 0.042089
vt -0.000000 0.495176
vt 0.037474 0.020934
vt 0.045468 0.000000
vt 0.025458 0.521158
vt 0.025458 0.493803
vt 0.030524 0.577373
vt 0.039735 0.678076
vt 0.048349 0.669090
vt 0.049392 0.746279
vt 0.053684 0.771944
vt 0.044800 0.705733
vt 0.867467 0.711841
vt 0.867467 0.645858
vt 0.867467 0.665184
vt 0.867467 0.777823
vt 0.867467 0.758497
vt 0.074545 0.333888
vt 0.074545 0.405065
vt 0.074545 0.491827
vt 0.072243 0.173318
vt 0.089631 0.847251
vt 0.089631 0.626694
vt 0.824400 0.711841
vt 0.824400 0.637590
vt 0.824400 0.659337
vt 0.824400 0.786092
vt 0.824400 0.764344
vt 0.808229 0.799140
vt 0.808229 0.609883
vt 0.796303 0.555414
vt 0.009708 0.538529
vt 0.004114 0.525833
vt 0.018524 0.553703
vt 0.032160 0.576618
vt 0.030524 0.485715
vt 0.746214 0.847251
vt 0.746214 0.626694
vt 0.973128 0.691315
vt 0.973128 0.711841
vt 0.973128 0.732367
vt 0.973128 0.682813
vt 0.973128 0.740869
vt 0.441748 0.003667
vt 0.352995 0.003667
vt 0.340038 0.020887
vt 0.320603 0.090542
vt 0.068973 0.000000
vt 0.674417 0.678076
vt 0.674417 0.543733
vt 0.140104 0.487178
vt 0.124462 0.459053
vt 0.111998 0.430186
vt 0.104805 0.405285
vt 0.648188 0.889782
vt 0.673397 0.847251
vt 0.320603 0.466218
vt 0.320603 0.116423
vt 0.320603 0.106888
vt 0.061348 0.718025
vt 0.611195 0.981523
vt 0.611195 0.955042
vt 0.601143 0.981523
vt 0.101193 0.795470
vt 0.079273 0.791193
vt 0.064818 0.785387
vt 0.625360 0.959815
vt 0.606106 0.959815
vt 0.619720 0.959815
vt 0.586853 0.959815
vt 0.592492 0.959815
vt 0.448634 0.027854
vt 0.296407 0.877968
vt 0.219624 0.847251
vt 0.176337 0.941804
vt 0.176337 0.832767
vt 0.173863 0.956789
vt 0.167596 0.971553
vt 0.155061 0.983893
vt 0.144302 0.988300
vt 0.128217 0.988300
vt 0.117458 0.983893
vt 0.104924 0.971553
vt 0.098657 0.956789
vt 0.096183 0.941804
vt 0.096183 0.832767
vt 0.804811 0.953504
vt 0.804811 0.797630
vt 0.802991 0.968488
vt 0.798380 0.983253
vt 0.789159 0.995593
vt 0.781244 1.000000
vt 0.769410 1.000000
vt 0.761495 0.995593
vt 0.752274 0.983253
vt 0.747664 0.968488
vt 0.745844 0.953504
vt 0.745844 0.797630
vt 0.865527 0.685987
vt 0.954581 0.675279
vt 0.954581 0.685987
vt 0.865527 0.675279
vt 0.865527 0.711841
vt 0.954581 0.737694
vt 0.954581 0.711841
vt 0.865527 0.737694
vt 0.954581 0.748403
vt 0.865527 0.748403
vt 0.173742 0.847251
vt 0.540460 0.678076
vt 0.540460 0.543733
vt 0.673898 0.799140
vt 0.796303 0.799140
vt 0.550192 0.636052
vt 0.539058 0.636052
vt 0.550192 0.411684
vt 0.539058 0.411684
vt 0.548354 0.382896
vt 0.537884 0.392873
vt 0.540053 0.356561
vt 0.533136 0.379543
vt 0.528314 0.341496
vt 0.528314 0.370809
vt 0.467083 0.341496
vt 0.467083 0.370809
vt 0.463068 0.341496
vt 0.447264 0.420419
vt 0.439557 0.396778
vt 0.447264 0.528474
vt 0.439557 0.528474
vt 0.457781 0.528474
vt 0.457781 0.545002
vt 0.439557 0.545001
vt 0.447264 0.545002
vt 0.085111 0.182952
vt 0.088016 0.485715
vt 0.268978 0.485715
vt 0.076277 0.485715
vt 0.061348 0.485715
vt 0.044800 0.485715
vt 0.039735 0.485715
vt 0.219624 0.626694
vt 0.673397 0.626694
vt 0.173742 0.626694
vt 0.292837 0.543733
vt 0.548910 0.543733
vt 0.292837 0.678076
vt 0.268978 0.678076
vt 0.088016 0.678076
vt 0.076277 0.705733
vt 0.548910 0.678076
vt 0.673898 0.555414
vt 0.463501 0.523015
vt 0.466234 0.548576
vt 0.463596 0.475746
vt 0.472237 0.428148
vt 0.484389 0.397186
vt 0.493639 0.383969
vt 0.497811 0.380360
vt 0.352995 0.553092
vt 0.352995 0.041964
vt 0.441748 0.553092
vt 0.340038 0.535872
vt 0.441748 0.041964
vt 0.340038 0.056723
vt 0.340038 0.043520
vt 0.352995 0.027854
vt 0.100149 0.669090
vt 0.077886 0.495176
vt 0.071446 0.042089
vt 0.070442 0.020934
vt 0.808339 0.659337
vt 0.808339 0.637590
vt 0.808339 0.711841
vt 0.808339 0.764344
vt 0.808339 0.786092
vt 0.823436 0.711841
vt 0.823436 0.758497
vt 0.823436 0.777823
vt 0.823436 0.665184
vt 0.823436 0.645858
vt 0.157138 0.459053
vt 0.175708 0.487178
vt 0.142081 0.430186
vt 0.122340 0.379062
vt 0.111048 0.333888
vt 0.100037 0.405065
vt 0.101702 0.277867
vt 0.100037 0.491827
vt 0.094523 0.212568
vt 0.606106 0.886657
vt 0.619720 0.886657
vt 0.625360 0.886657
vt 0.592492 0.886657
vt 0.586853 0.886657
vt 0.960449 0.678505
vt 0.960449 0.664697
vt 0.960449 0.711841
vt 0.960449 0.745176
vt 0.960449 0.758984
vt 0.479628 0.523015
vt 0.482361 0.548576
vt 0.477259 0.481762
vt 0.480492 0.440838
vt 0.488490 0.411359
vt 0.495200 0.389364
vt 0.948087 0.711841
vt 0.967372 0.728094
vt 0.967372 0.711841
vt 0.948087 0.728094
vt 0.967372 0.734827
vt 0.948087 0.734827
vt 0.948087 0.695587
vt 0.967372 0.695587
vt 0.948087 0.688855
vt 0.967372 0.688855
vt 0.601143 0.955042
s 1
usemtl Handle1Mtl.061
f 1/1/1 2/2/2 3/3/3
f 2/2/2 1/1/1 4/4/4
f 5/1/5 6/3/5 7/2/5
f 5/1/5 7/2/5 8/4/4
f 9/3/5 10/5/4 11/5/4
f 9/3/5 11/5/4 12/2/4
f 10/5/4 13/6/2 11/5/4
f 13/6/2 10/5/4 14/7/5
f 15/7/4 16/8/4 17/9/4
f 15/7/4 17/9/4 18/6/4
f 19/7/6 20/9/7 21/8/4
f 20/9/7 19/7/6 22/6/5
f 23/6/6 24/5/6 25/5/4
f 24/5/6 23/6/6 26/7/7
f 27/5/7 28/3/5 29/2/4
f 28/3/5 27/5/7 30/5/6
f 31/10/8 32/11/9 33/11/10
f 31/10/8 33/11/10 34/10/8
f 31/10/8 34/10/8 35/12/11
f 35/12/11 34/10/8 36/12/12
f 35/12/11 36/12/12 37/13/13
f 37/13/13 36/12/12 38/13/14
f 39/14/15 40/15/15 41/15/15
f 40/15/15 39/14/15 42/14/15
f 43/16/16 44/16/17 45/17/16
f 45/17/16 46/17/17 43/16/16
f 47/14/18 48/14/18 49/16/19
f 49/16/19 50/16/18 47/14/18
f 51/18/20 52/19/21 53/19/21
f 51/18/20 53/19/21 54/18/20
f 52/19/21 55/20/22 53/19/21
f 56/20/22 55/20/22 52/19/21
f 57/17/23 58/17/23 59/21/23
f 59/21/23 60/21/23 57/17/23
f 61/22/4 62/23/4 63/24/7
f 62/23/4 61/22/4 64/24/6
f 61/22/4 65/22/6 64/24/6
f 65/22/6 61/22/4 66/25/4
f 65/22/6 66/25/4 67/26/1
f 66/25/4 61/22/4 68/26/6
f 69/27/24 70/28/15 71/28/15
f 70/28/15 72/29/15 71/28/15
f 70/28/15 73/29/15 72/29/15
f 69/27/24 71/28/15 74/27/24
f 75/30/25 69/27/24 74/27/24
f 75/30/25 74/27/24 76/30/20
f 77/31/15 78/32/15 79/32/15
f 78/32/15 77/31/15 80/31/15
f 81/33/4 82/34/4 83/35/6
f 82/34/4 81/33/4 84/35/5
f 81/33/4 85/33/4 84/35/5
f 81/33/4 86/36/4 85/33/4
f 86/36/4 81/33/4 87/37/1
f 85/33/4 86/36/4 88/37/4
f 89/38/4 90/39/4 91/38/4
f 90/39/4 92/39/4 91/38/4
f 93/39/26 94/39/26 95/40/27
f 95/40/27 96/40/26 93/39/26
f 97/41/28 98/41/28 99/42/29
f 97/41/28 100/43/30 98/41/28
f 99/42/29 98/41/28 101/42/29
f 99/42/29 101/42/29 102/11/31
f 102/11/31 101/42/29 103/11/32
f 104/43/33 100/43/30 97/41/28
f 104/43/33 105/44/34 100/43/30
f 106/44/34 105/44/34 104/43/33
f 107/15/35 108/45/35 109/45/35
f 108/45/35 107/15/35 110/15/36
f 111/46/4 112/47/4 113/46/4
f 112/47/4 114/47/4 113/46/4
f 115/48/37 116/49/38 117/50/39
f 118/6/40 116/49/38 115/48/37
f 116/49/38 118/6/40 119/5/41
f 119/5/41 117/50/39 116/49/38
f 118/6/40 115/48/37 120/9/42
f 121/51/43 120/9/42 115/48/37
f 117/50/39 119/5/41 122/2/44
f 115/48/37 123/48/45 121/51/43
f 123/48/45 115/48/37 117/50/39
f 122/2/44 124/52/46 117/50/39
f 123/48/45 117/50/39 124/52/46
f 124/52/46 122/2/44 125/4/47
f 123/48/45 124/52/46 126/50/48
f 123/48/45 126/50/48 127/49/49
f 128/53/47 129/54/50 130/54/50
f 128/53/47 130/54/50 131/53/47
f 129/54/50 132/55/51 130/54/50
f 132/55/51 129/54/50 133/55/51
f 134/56/52 132/55/51 133/55/51
f 132/55/51 134/56/52 135/56/53
f 136/13/47 137/13/47 138/57/47
f 138/57/47 137/13/47 139/57/47
f 140/58/4 141/59/4 142/58/4
f 141/59/4 143/59/4 142/58/4
f 144/60/54 145/60/54 146/61/55
f 146/61/55 145/60/54 147/61/55
f 146/61/55 147/61/55 148/62/56
f 148/62/56 147/61/55 149/62/56
f 148/62/56 149/62/56 150/63/57
f 150/63/57 149/62/56 151/63/58
f 152/64/59 153/64/59 154/65/59
f 154/65/59 155/65/59 152/64/59
f 156/66/15 157/67/15 158/67/15
f 157/67/15 156/66/15 159/66/15
f 158/67/15 157/67/15 160/68/15
f 160/68/15 161/68/15 158/67/15
f 161/68/15 160/68/15 162/56/15
f 162/56/15 163/56/15 161/68/15
f 164/21/60 165/21/60 166/69/60
f 166/69/60 167/69/60 164/21/60
f 168/70/4 169/71/4 170/70/4
f 169/71/4 171/71/4 170/70/4
f 172/70/61 173/72/61 174/70/61
f 173/72/61 172/70/61 175/72/61
f 176/73/62 177/73/62 178/74/63
f 178/74/63 177/73/62 179/74/63
f 178/74/63 179/74/63 180/75/64
f 180/75/64 179/74/63 181/75/64
f 180/75/64 181/75/64 182/20/65
f 182/20/65 181/75/64 183/20/65
f 184/76/61 185/77/61 186/77/61
f 185/77/61 184/76/61 187/78/61
f 184/76/61 186/77/61 188/78/61
f 185/77/61 189/79/61 186/77/61
f 189/79/61 185/77/61 190/80/61
f 186/77/61 189/79/61 191/80/61
f 192/53/66 193/81/66 194/81/66
f 193/81/66 192/53/66 195/53/66
f 196/82/67 197/83/67 198/83/67
f 197/83/67 196/82/67 199/82/68
f 200/84/69 201/85/4 202/85/4
f 200/84/69 202/85/4 203/84/69
f 200/84/69 203/84/69 204/86/70
f 204/86/70 203/84/69 205/86/70
f 204/86/70 205/86/70 206/87/71
f 206/87/71 205/86/70 207/87/71
f 208/88/72 206/87/71 207/87/71
f 208/88/72 207/87/71 209/88/72
f 210/89/73 208/88/72 209/88/72
f 210/89/73 209/88/72 211/89/73
f 212/90/74 210/89/73 211/89/73
f 212/90/74 211/89/73 213/90/74
f 214/91/75 212/90/74 213/90/74
f 214/91/75 213/90/74 215/91/76
f 216/92/77 214/91/75 215/91/76
f 216/92/77 215/91/76 217/92/77
f 216/92/77 217/92/77 218/93/78
f 218/93/78 217/92/77 219/93/78
f 218/93/78 219/93/78 220/94/79
f 220/94/79 219/93/78 221/94/80
f 222/95/15 220/94/79 221/94/80
f 222/95/15 221/94/80 223/95/15
f 224/84/69 225/85/4 226/85/4
f 224/84/69 226/85/4 227/84/69
f 224/84/69 227/84/69 228/86/70
f 228/86/70 227/84/69 229/86/70
f 228/86/70 229/86/70 230/87/71
f 230/87/71 229/86/70 231/87/71
f 232/88/72 230/87/71 231/87/71
f 232/88/72 231/87/71 233/88/72
f 234/89/73 232/88/72 233/88/72
f 234/89/73 233/88/72 235/89/73
f 236/90/74 234/89/73 235/89/73
f 236/90/74 235/89/73 237/90/74
f 238/91/75 236/90/74 237/90/74
f 238/91/75 237/90/74 239/91/76
f 240/92/77 238/91/75 239/91/76
f 240/92/77 239/91/76 241/92/77
f 240/92/77 241/92/77 242/93/78
f 242/93/78 241/92/77 243/93/78
f 242/93/78 243/93/78 244/94/79
f 244/94/79 243/93/78 245/94/80
f 246/95/15 244/94/79 245/94/80
f 246/95/15 245/94/80 247/95/15
f 248/96/81 249/97/4 250/97/4
f 248/96/81 250/97/4 251/96/81
f 248/96/81 251/96/81 252/98/82
f 252/98/82 251/96/81 253/98/82
f 252/98/82 253/98/82 254/99/83
f 254/99/83 253/98/82 255/99/83
f 256/100/84 254/99/83 255/99/83
f 256/100/84 255/99/83 257/100/84
f 258/101/85 256/100/84 257/100/84
f 258/101/85 257/100/84 259/101/85
f 260/102/86 258/101/85 259/101/85
f 260/102/86 259/101/85 261/102/86
f 262/103/87 260/102/86 261/102/86
f 262/103/87 261/102/86 263/103/87
f 264/104/88 262/103/87 263/103/87
f 264/104/88 263/103/87 265/104/88
f 264/104/88 265/104/88 266/105/89
f 266/105/89 265/104/88 267/105/89
f 266/105/89 267/105/89 268/106/90
f 268/106/90 267/105/89 269/106/90
f 270/107/15 268/106/90 269/106/90
f 270/107/15 269/106/90 271/107/15
f 272/96/81 273/97/4 274/97/4
f 272/96/81 274/97/4 275/96/81
f 272/96/81 275/96/81 276/98/82
f 276/98/82 275/96/81 277/98/82
f 276/98/82 277/98/82 278/99/83
f 278/99/83 277/98/82 279/99/83
f 280/100/84 278/99/83 279/99/83
f 280/100/84 279/99/83 281/100/84
f 282/101/85 280/100/84 281/100/84
f 282/101/85 281/100/84 283/101/85
f 284/102/86 282/101/85 283/101/85
f 284/102/86 283/101/85 285/102/86
f 286/103/87 284/102/86 285/102/86
f 286/103/87 285/102/86 287/103/87
f 288/104/88 286/103/87 287/103/87
f 288/104/88 287/103/87 289/104/88
f 288/104/88 289/104/88 290/105/89
f 290/105/89 289/104/88 291/105/89
f 290/105/89 291/105/89 292/106/90
f 292/106/90 291/105/89 293/106/90
f 294/107/15 292/106/90 293/106/90
f 294/107/15 293/106/90 295/107/15
f 296/108/91 297/109/92 298/110/93
f 297/109/92 296/108/91 299/111/47
f 300/110/94 298/110/93 297/109/92
f 298/110/93 301/112/95 296/108/91
f 298/110/93 300/110/94 302/113/96
f 300/110/94 303/114/97 302/113/96
f 301/112/95 298/110/93 304/114/98
f 298/110/93 302/113/96 304/114/98
f 304/114/98 305/115/99 301/112/95
f 304/114/98 302/113/96 306/113/100
f 305/115/99 304/114/98 306/113/100
f 306/113/100 302/113/96 307/116/101
f 305/115/99 306/113/100 308/117/61
f 307/116/101 308/117/61 306/113/100
f 309/64/102 310/82/102 311/82/103
f 310/82/102 309/64/102 312/64/103
f 313/83/61 314/118/61 315/118/61
f 314/118/61 313/83/61 316/83/61
f 314/118/61 317/31/61 315/118/61
f 317/31/61 314/118/61 318/31/61
f 319/46/61 320/65/61 321/65/61
f 320/65/61 319/46/61 322/46/61
f 323/119/4 324/120/4 325/119/4
f 324/120/4 326/120/4 325/119/4
f 327/121/61 328/122/61 329/122/61
f 327/121/61 329/122/61 330/121/61
f 331/38/61 329/122/61 328/122/61
f 329/122/61 331/38/61 332/38/61
f 333/123/104 334/124/105 335/123/106
f 335/123/106 336/125/107 333/123/104
f 334/124/105 333/123/104 337/124/108
f 338/125/107 333/123/104 336/125/107
f 339/126/109 334/124/105 337/124/108
f 340/127/110 338/125/107 336/125/107
f 334/124/105 339/126/109 341/126/109
f 338/125/107 340/127/110 342/127/110
f 341/126/109 339/126/109 343/128/23
f 344/129/111 342/127/110 340/127/110
f 343/128/23 345/128/23 341/126/109
f 342/127/110 344/129/111 346/129/111
f 345/128/23 343/128/23 347/130/112
f 348/131/113 346/129/111 344/129/111
f 347/130/112 349/130/112 345/128/23
f 346/129/111 348/131/113 350/131/114
f 349/130/112 347/130/112 351/132/115
f 352/133/47 350/131/114 348/131/113
f 351/132/115 353/132/116 349/130/112
f 350/131/114 352/133/47 354/133/47
f 351/132/115 355/134/117 353/132/116
f 356/135/118 354/133/47 352/133/47
f 357/134/119 353/132/116 355/134/117
f 354/133/47 356/135/118 358/135/118
f 357/134/119 355/134/117 359/136/120
f 360/137/121 358/135/118 356/135/118
f 361/136/120 357/134/119 359/136/120
f 358/135/118 360/137/121 362/137/121
f 359/136/120 363/138/122 361/136/120
f 364/139/15 362/137/121 360/137/121
f 365/138/122 361/136/120 363/138/122
f 362/137/121 364/139/15 366/139/15
f 365/138/122 363/138/122 367/140/123
f 367/140/123 368/140/123 365/138/122
f 368/140/123 367/140/123 369/141/124
f 370/142/125 366/139/15 364/139/15
f 369/141/124 371/141/124 368/140/123
f 366/139/15 370/142/125 372/142/125
f 373/143/61 371/141/124 369/141/124
f 370/142/125 373/143/61 372/142/125
f 371/141/124 373/143/61 374/143/61
f 373/143/61 370/142/125 374/143/61
f 375/30/126 376/30/126 377/144/126
f 377/144/126 376/30/126 378/144/126
f 379/145/47 380/146/47 381/146/47
f 380/146/47 379/145/47 382/145/47
f 383/147/47 382/145/47 379/145/47
f 382/145/47 383/147/47 384/147/47
f 385/148/47 384/147/47 383/147/47
f 384/147/47 385/148/47 386/148/47
f 387/149/47 386/148/47 385/148/47
f 386/148/47 387/149/47 388/149/47
f 389/150/47 388/149/47 387/149/47
f 388/149/47 389/150/47 390/150/47
f 391/45/47 390/150/47 389/150/47
f 390/150/47 391/45/47 392/45/47
f 393/151/95 394/83/95 395/118/95
f 393/151/95 396/152/95 394/83/95
f 395/118/95 397/153/95 393/151/95
f 395/118/95 398/32/95 397/153/95
f 395/118/95 399/31/95 398/32/95
f 400/65/95 394/83/95 396/152/95
f 400/65/95 396/152/95 401/47/95
f 402/46/95 400/65/95 401/47/95
f 403/83/95 404/65/95 405/82/95
f 405/82/95 404/65/95 406/64/95
f 407/83/127 408/151/127 409/153/127
f 409/153/127 410/118/127 407/83/127
f 409/153/127 411/31/127 410/118/127
f 409/153/127 412/32/127 411/31/127
f 407/83/127 413/65/127 408/151/127
f 413/65/127 407/83/127 414/82/127
f 413/65/127 414/82/127 415/64/127
f 416/152/127 408/151/127 413/65/127
f 416/152/127 413/65/127 417/46/127
f 418/47/127 416/152/127 417/46/127
f 419/120/47 420/154/47 421/154/47
f 419/120/47 421/154/47 422/120/47
f 423/59/47 424/155/47 425/155/47
f 423/59/47 425/155/47 426/59/47
f 427/119/95 428/156/95 429/154/95
f 427/119/95 429/154/95 430/120/95
f 431/120/127 432/154/127 433/156/127
f 431/120/127 433/156/127 434/119/127
f 432/154/127 435/157/127 433/156/127
f 435/157/127 432/154/127 436/146/127
f 437/145/127 435/157/127 436/146/127
f 435/157/127 437/145/127 438/158/127
f 439/157/95 440/154/95 441/156/95
f 439/157/95 442/146/95 440/154/95
f 443/158/95 444/146/95 445/157/95
f 444/146/95 443/158/95 446/145/95
f 447/158/95 448/147/95 449/145/95
f 448/147/95 447/158/95 450/159/95
f 451/147/127 452/158/128 453/145/127
f 451/147/127 454/159/128 452/158/128
f 455/159/129 456/148/95 457/147/95
f 456/148/95 455/159/129 458/69/130
f 459/21/131 456/148/95 458/69/130
f 456/148/95 459/21/131 460/149/95
f 461/148/127 462/159/127 463/147/127
f 461/148/127 464/69/127 462/159/127
f 465/148/127 466/21/127 467/69/127
f 466/21/127 465/148/127 468/149/127
f 469/149/95 470/21/130 471/17/130
f 469/149/95 471/17/130 472/150/95
f 473/149/127 474/17/127 475/21/132
f 474/17/127 473/149/127 476/150/127
f 477/150/95 478/17/95 479/16/95
f 477/150/95 479/16/95 480/45/95
f 481/150/127 482/16/127 483/17/127
f 482/16/127 481/150/127 484/45/127
f 485/45/129 486/16/95 487/14/130
f 485/45/129 487/14/130 488/15/95
f 489/45/133 490/14/134 491/16/127
f 490/14/134 489/45/133 492/15/127
f 493/58/95 494/160/95 495/155/95
f 493/58/95 495/155/95 496/59/95
f 497/59/127 498/155/127 499/160/127
f 497/59/127 499/160/127 500/58/127
f 501/122/95 502/121/95 503/161/95
f 501/122/95 503/161/95 504/40/95
f 505/40/127 506/161/127 507/121/127
f 505/40/127 507/121/127 508/122/127
f 509/122/127 510/39/134 511/40/134
f 510/39/134 509/122/127 512/38/127
f 513/39/130 514/38/95 515/122/95
f 515/122/95 516/40/130 513/39/130
f 517/40/47 518/161/47 519/161/47
f 517/40/47 519/161/47 520/40/47
f 521/162/135 522/163/136 523/163/137
f 521/162/135 523/163/137 524/162/135
f 525/164/138 521/162/135 524/162/135
f 525/164/138 524/162/135 526/164/138
f 527/165/139 525/164/138 526/164/138
f 527/165/139 526/164/138 528/165/139
f 529/166/140 527/165/139 528/165/139
f 529/166/140 528/165/139 530/166/140
f 531/167/141 529/166/140 530/166/140
f 531/167/141 530/166/140 532/167/142
f 531/167/141 532/167/142 533/168/143
f 533/168/143 532/167/142 534/168/144
f 535/169/130 536/170/95 537/171/95
f 538/172/145 536/170/95 535/169/130
f 537/171/95 536/170/95 539/173/95
f 536/170/95 538/172/145 540/174/146
f 540/174/146 538/172/145 541/66/147
f 540/174/146 541/66/147 542/67/148
f 543/68/148 540/174/146 542/67/148
f 540/174/146 543/68/148 544/175/149
f 544/175/149 536/170/95 540/174/146
f 545/56/148 544/175/149 543/68/148
f 544/175/149 545/56/148 546/55/145
f 536/170/95 544/175/149 547/176/95
f 546/55/145 547/176/95 544/175/149
f 539/173/95 536/170/95 547/176/95
f 547/176/95 546/55/145 548/54/129
f 547/176/95 549/81/95 539/173/95
f 550/53/95 547/176/95 548/54/129
f 547/176/95 550/53/95 549/81/95
f 551/170/127 552/169/127 553/173/127
f 553/173/127 552/169/127 554/171/127
f 551/170/127 555/172/150 552/169/127
f 553/173/127 556/176/127 551/170/127
f 556/176/127 553/173/127 557/81/127
f 556/176/127 557/81/127 558/53/127
f 558/53/127 559/54/127 556/176/127
f 560/55/150 556/176/127 559/54/127
f 560/55/150 561/175/151 556/176/127
f 561/175/151 551/170/127 556/176/127
f 560/55/150 562/56/152 561/175/151
f 563/68/153 561/175/151 562/56/152
f 564/174/154 551/170/127 561/175/151
f 561/175/151 563/68/153 564/174/154
f 555/172/150 551/170/127 564/174/154
f 565/67/155 564/174/154 563/68/153
f 564/174/154 566/66/155 555/172/150
f 566/66/155 564/174/154 565/67/155
f 567/84/95 568/94/95 569/95/95
f 567/84/95 569/95/95 570/85/95
f 567/84/95 571/93/95 568/94/95
f 571/93/95 567/84/95 572/86/95
f 571/93/95 572/86/95 573/87/95
f 571/93/95 573/87/95 574/92/95
f 574/92/95 573/87/95 575/88/95
f 574/92/95 575/88/95 576/91/95
f 577/89/95 576/91/95 575/88/95
f 576/91/95 577/89/95 578/90/95
f 579/96/95 580/106/95 581/107/95
f 579/96/95 581/107/95 582/97/95
f 579/96/95 583/105/95 580/106/95
f 583/105/95 579/96/95 584/98/95
f 584/98/95 585/104/95 583/105/95
f 585/104/95 584/98/95 586/99/95
f 585/104/95 586/99/95 587/100/95
f 585/104/95 587/100/95 588/103/95
f 587/100/95 589/102/95 588/103/95
f 589/102/95 587/100/95 590/101/95
f 591/97/127 592/107/127 593/96/127
f 592/107/127 594/106/127 593/96/127
f 595/105/127 593/96/127 594/106/127
f 593/96/127 595/105/127 596/98/127
f 597/104/127 596/98/127 595/105/127
f 596/98/127 597/104/127 598/99/127
f 598/99/127 597/104/127 599/100/127
f 599/100/127 597/104/127 600/103/127
f 601/102/127 599/100/127 600/103/127
f 599/100/127 601/102/127 602/101/127
f 603/94/127 604/84/127 605/95/127
f 606/85/127 605/95/127 604/84/127
f 607/93/127 604/84/127 603/94/127
f 604/84/127 607/93/127 608/86/127
f 608/86/127 607/93/127 609/87/127
f 609/87/127 607/93/127 610/92/127
f 610/92/127 611/88/127 609/87/127
f 611/88/127 610/92/127 612/91/127
f 612/91/127 613/89/127 611/88/127
f 613/89/127 612/91/127 614/90/127
f 615/19/95 616/177/95 617/73/95
f 616/177/95 615/19/95 618/18/95
f 619/19/129 620/73/95 621/74/95
f 619/19/129 621/74/95 622/20/129
f 622/20/129 621/74/95 623/75/130
f 624/177/127 625/19/127 626/73/127
f 625/19/127 624/177/127 627/18/127
f 628/74/127 629/19/127 630/20/127
f 631/73/127 629/19/127 628/74/127
f 630/20/127 632/75/134 628/74/127
f 633/11/95 634/10/95 635/178/95
f 635/178/95 634/10/95 636/179/95
f 636/179/95 634/10/95 637/12/95
f 636/179/95 637/12/95 638/180/95
f 639/13/95 638/180/95 637/12/95
f 638/180/95 639/13/95 640/57/95
f 641/11/156 642/178/95 643/41/156
f 641/11/156 643/41/156 644/42/95
f 645/178/95 646/43/95 647/41/95
f 646/43/95 645/178/95 648/44/95
f 649/178/127 650/179/127 651/10/127
f 651/10/127 652/11/127 649/178/127
f 650/179/127 653/12/127 651/10/127
f 653/12/127 650/179/127 654/180/127
f 654/180/127 655/13/127 653/12/127
f 655/13/127 654/180/127 656/57/127
f 657/178/127 658/11/127 659/41/127
f 659/41/127 658/11/127 660/42/127
f 661/178/127 662/43/134 663/44/127
f 661/178/127 664/41/134 662/43/134
f 665/181/157 666/34/47 667/35/158
f 666/34/47 665/181/157 668/182/47
f 667/35/158 669/183/95 665/181/157
f 669/183/95 667/35/158 670/33/95
f 670/33/95 671/184/159 669/183/95
f 671/184/159 670/33/95 672/37/40
f 671/184/159 672/37/40 673/185/160
f 672/37/40 674/36/61 673/185/160
f 675/156/61 676/119/61 677/119/61
f 675/156/61 677/119/61 678/156/61
f 675/156/61 678/156/61 679/157/61
f 679/157/61 680/157/61 675/156/61
f 679/157/61 681/158/61 680/157/61
f 682/158/61 680/157/61 681/158/61
f 683/160/61 684/58/61 685/58/61
f 683/160/61 685/58/61 686/160/61
f 687/183/127 688/37/161 689/33/127
f 688/37/161 687/183/127 690/184/161
f 691/36/61 688/37/161 690/184/161
f 692/185/61 691/36/61 690/184/161
f 689/33/127 693/181/162 687/183/127
f 693/181/162 689/33/127 694/35/162
f 694/35/162 695/182/163 693/181/162
f 695/182/163 694/35/162 696/34/47
f 697/186/164 698/26/165 699/22/164
f 698/26/165 697/186/164 700/187/165
f 698/26/165 700/187/165 701/25/61
f 702/188/61 701/25/61 700/187/165
f 699/22/164 703/189/166 697/186/164
f 703/189/166 699/22/164 704/24/167
f 704/24/167 705/190/47 703/189/166
f 705/190/47 704/24/167 706/23/47
f 707/189/168 708/23/47 709/24/169
f 708/23/47 707/189/168 710/190/47
f 709/24/169 711/186/170 707/189/168
f 711/186/170 709/24/169 712/22/170
f 712/22/170 713/187/159 711/186/170
f 713/187/159 712/22/170 714/26/159
f 713/187/159 714/26/159 715/188/61
f 716/25/61 715/188/61 714/26/159
f 717/60/95 718/191/95 719/192/95
f 718/191/95 717/60/95 720/61/95
f 720/61/95 721/193/95 718/191/95
f 721/193/95 720/61/95 722/62/95
f 723/62/130 724/194/130 725/193/95
f 724/194/130 723/62/130 726/63/171
f 727/195/95 728/63/131 729/196/130
f 728/63/131 727/195/95 730/194/95
f 729/196/130 731/27/95 727/195/95
f 731/27/95 732/197/95 727/195/95
f 731/27/95 729/196/130 733/28/95
f 734/198/95 733/28/95 729/196/130
f 734/198/95 735/29/95 733/28/95
f 732/197/95 731/27/95 736/30/130
f 736/30/130 737/199/131 732/197/95
f 737/199/131 736/30/130 738/144/130
f 739/60/127 740/191/127 741/61/127
f 740/191/127 739/60/127 742/192/127
f 743/193/127 741/61/127 740/191/127
f 741/61/127 743/193/127 744/62/128
f 745/194/127 744/62/128 743/193/127
f 744/62/128 745/194/127 746/63/128
f 747/195/127 746/63/128 745/194/127
f 746/63/128 747/195/127 748/196/127
f 749/27/127 748/196/127 747/195/127
f 747/195/127 750/197/127 749/27/127
f 748/196/127 749/27/127 751/28/127
f 748/196/127 751/28/127 752/198/127
f 751/28/127 753/29/127 752/198/127
f 754/30/127 749/27/127 750/197/127
f 755/199/127 754/30/127 750/197/127
f 754/30/127 755/199/127 756/144/127
f 757/200/128 758/77/127 759/201/172
f 757/200/128 760/80/173 758/77/127
f 759/201/172 758/77/127 761/78/174
f 759/201/172 761/78/174 762/202/4
f 763/76/4 762/202/4 761/78/174
f 764/203/173 760/80/173 757/200/128
f 764/203/173 765/79/175 760/80/173
f 765/79/175 764/203/173 766/204/176
f 767/80/177 768/204/15 769/203/178
f 768/204/15 767/80/177 770/79/15
f 767/80/177 769/203/178 771/77/129
f 771/77/129 769/203/178 772/200/95
f 771/77/129 772/200/95 773/78/179
f 773/78/179 772/200/95 774/201/179
f 773/78/179 774/201/179 775/76/4
f 776/202/180 775/76/4 774/201/179
f 777/205/157 778/8/47 779/7/158
f 778/8/47 777/205/157 780/206/47
f 779/7/158 781/207/170 777/205/157
f 781/207/170 779/7/158 782/5/170
f 782/5/170 783/208/159 781/207/170
f 783/208/159 782/5/170 784/3/159
f 783/208/159 784/3/159 785/209/61
f 786/1/61 785/209/61 784/3/159
f 787/207/164 788/3/181 789/5/164
f 788/3/181 787/207/164 790/208/181
f 788/3/181 790/208/181 791/1/61
f 792/209/61 791/1/61 790/208/181
f 789/5/164 793/205/182 787/207/164
f 793/205/182 789/5/164 794/7/162
f 794/7/162 795/206/47 793/205/182
f 795/206/47 794/7/162 796/8/47
f 797/124/95 798/126/95 799/123/95
f 799/123/95 798/126/95 800/125/95
f 801/128/95 800/125/95 798/126/95
f 800/125/95 801/128/95 802/127/95
f 803/129/129 804/128/95 805/130/183
f 804/128/95 803/129/129 806/127/130
f 807/132/156 808/131/95 809/129/129
f 807/132/156 809/129/129 810/130/95
f 811/132/95 812/133/95 813/131/95
f 812/133/95 811/132/95 814/134/95
f 812/133/95 814/134/95 815/135/95
f 816/134/95 817/137/95 818/135/95
f 817/137/95 816/134/95 819/136/95
f 820/139/95 821/136/95 822/138/95
f 821/136/95 820/139/95 823/137/95
f 822/138/95 824/142/95 820/139/95
f 824/142/95 822/138/95 825/143/95
f 825/143/95 822/138/95 826/140/95
f 827/141/95 825/143/95 826/140/95
f 828/126/127 829/124/127 830/125/127
f 830/125/127 829/124/127 831/123/127
f 830/125/127 832/128/127 828/126/127
f 832/128/127 830/125/127 833/127/127
f 834/128/127 835/127/127 836/129/127
f 834/128/127 836/129/127 837/130/127
f 838/129/127 839/132/128 840/130/127
f 839/132/128 838/129/127 841/131/133
f 842/133/127 843/132/127 844/131/127
f 843/132/127 842/133/127 845/134/127
f 845/134/127 842/133/127 846/135/127
f 845/134/127 846/135/127 847/137/133
f 848/136/128 845/134/127 847/137/133
f 847/137/133 849/139/127 848/136/128
f 848/136/128 849/139/127 850/138/127
f 849/139/127 851/142/127 850/138/127
f 850/138/127 851/142/127 852/143/127
f 850/138/127 852/143/127 853/141/127
f 854/140/127 850/138/127 853/141/127
f 855/112/127 856/113/96 857/114/184
f 856/113/96 855/112/127 858/115/161
f 856/113/96 858/115/161 859/116/101
f 860/117/61 859/116/101 858/115/161
f 857/114/184 861/108/185 855/112/127
f 861/108/185 857/114/184 862/110/94
f 862/110/94 863/111/47 861/108/185
f 863/111/47 862/110/94 864/109/186
f 865/163/95 866/210/95 867/211/95
f 866/210/95 865/163/95 868/162/95
f 869/162/95 870/212/95 871/210/95
f 870/212/95 869/162/95 872/164/95
f 873/164/130 874/213/129 875/212/95
f 874/213/129 873/164/130 876/165/95
f 876/165/95 877/214/129 874/213/129
f 877/214/129 876/165/95 878/166/95
f 879/215/95 880/166/95 881/167/95
f 880/166/95 879/215/95 882/214/95
f 883/215/129 884/167/129 885/168/129
f 886/163/127 887/210/127 888/162/127
f 887/210/127 886/163/127 889/211/127
f 890/162/134 891/212/134 892/164/134
f 891/212/134 890/162/134 893/210/127
f 894/213/128 895/164/127 896/212/134
f 895/164/127 894/213/128 897/165/128
f 898/214/127 899/165/127 900/213/127
f 899/165/127 898/214/127 901/166/127
f 902/166/127 903/215/134 904/167/133
f 903/215/134 902/166/127 905/214/127
f 906/215/134 907/168/134 908/167/134
f 909/216/187 910/217/188 911/218/189
f 910/217/188 909/216/187 912/219/190
f 910/217/188 912/219/190 913/220/191
f 914/221/192 913/220/191 912/219/190
f 911/218/189 915/222/193 909/216/187
f 915/222/193 911/218/189 916/223/194
f 916/223/194 917/224/195 915/222/193
f 917/224/195 916/223/194 918/225/196
f 919/70/95 920/72/95 921/226/95
f 919/70/95 921/226/95 922/71/95
f 923/71/127 924/226/127 925/72/127
f 923/71/127 925/72/127 926/70/127
f 927/222/197 928/225/198 929/223/199
f 928/225/198 927/222/197 930/224/195
f 931/223/194 929/223/199 928/225/198
f 927/222/197 932/222/193 930/224/195
f 927/222/197 933/219/200 932/222/193
f 932/222/193 933/219/200 934/216/201
f 927/222/197 935/219/202 933/219/200
f 933/219/200 935/219/202 936/221/203
f 935/219/202 927/222/197 937/216/204
f 929/223/199 937/216/204 927/222/197
f 938/218/205 935/219/202 937/216/204
f 937/216/204 929/223/199 938/218/205
f 935/219/202 939/217/206 936/221/203
f 935/219/202 938/218/205 939/217/206
f 929/223/199 939/217/206 938/218/205
f 940/220/207 936/221/203 939/217/206
f 939/217/206 941/217/208 940/220/207
f 939/217/206 929/223/199 941/217/208
f 929/223/199 931/223/194 941/217/208
f 931/223/194 942/218/189 941/217/208
f 943/151/47 944/151/47 945/153/47
f 943/151/47 946/152/47 944/151/47
f 945/153/47 947/153/47 943/151/47
f 945/153/47 948/32/47 947/153/47
f 945/153/47 949/32/47 948/32/47
f 950/152/47 944/151/47 946/152/47
f 950/152/47 946/152/47 951/47/47
f 952/47/47 950/152/47 951/47/47
f 953/211/209 954/210/210 955/210/210
f 953/211/209 955/210/210 956/211/211
f 954/210/210 957/212/212 955/210/210
f 954/210/210 958/212/81 957/212/212
f 958/212/81 959/213/213 957/212/212
f 958/212/81 960/213/213 959/213/213
f 960/213/213 961/214/214 959/213/213
f 960/213/213 962/214/215 961/214/214
f 962/214/215 963/215/216 961/214/214
f 962/214/215 964/215/216 963/215/216
f 964/215/216 965/168/217 963/215/216
f 966/168/217 965/168/217 964/215/216
f 967/50/218 968/4/47 969/2/219
f 968/4/47 967/50/218 970/52/46
f 969/2/219 971/49/49 967/50/218
f 971/49/49 969/2/219 972/5/220
f 972/5/220 973/48/221 971/49/49
f 973/48/221 972/5/220 974/6/222
f 973/48/221 974/6/222 975/51/43
f 976/9/61 975/51/43 974/6/222
f 977/171/61 978/169/74 979/171/61
f 978/169/74 977/171/61 980/169/74
f 978/169/74 980/169/74 981/172/223
f 981/172/223 982/172/223 978/169/74
f 981/172/223 983/66/224 982/172/223
f 983/66/224 981/172/223 984/66/224
f 985/177/47 986/18/47 987/18/47
f 985/177/47 987/18/47 988/177/47
f 989/96/95 990/106/95 991/107/95
f 989/96/95 991/107/95 992/97/95
f 989/96/95 993/105/95 990/106/95
f 993/105/95 989/96/95 994/98/95
f 994/98/95 995/104/95 993/105/95
f 995/104/95 994/98/95 996/99/95
f 995/104/95 996/99/95 997/100/95
f 995/104/95 997/100/95 998/103/95
f 997/100/95 999/102/95 998/103/95
f 999/102/95 997/100/95 1000/101/95
f 1001/84/95 1002/94/95 1003/95/95
f 1001/84/95 1003/95/95 1004/85/95
f 1001/84/95 1005/93/95 1002/94/95
f 1005/93/95 1001/84/95 1006/86/95
f 1005/93/95 1006/86/95 1007/87/95
f 1005/93/95 1007/87/95 1008/92/95
f 1008/92/95 1007/87/95 1009/88/95
f 1008/92/95 1009/88/95 1010/91/95
f 1011/89/95 1010/91/95 1009/88/95
f 1010/91/95 1011/89/95 1012/90/95
f 1013/94/127 1014/84/127 1015/95/127
f 1016/85/127 1015/95/127 1014/84/127
f 1017/93/127 1014/84/127 1013/94/127
f 1014/84/127 1017/93/127 1018/86/127
f 1018/86/127 1017/93/127 1019/87/127
f 1019/87/127 1017/93/127 1020/92/127
f 1020/92/127 1021/88/127 1019/87/127
f 1021/88/127 1020/92/127 1022/91/127
f 1022/91/127 1023/89/127 1021/88/127
f 1023/89/127 1022/91/127 1024/90/127
f 1025/97/127 1026/107/127 1027/96/127
f 1026/107/127 1028/106/127 1027/96/127
f 1029/105/127 1027/96/127 1028/106/127
f 1027/96/127 1029/105/127 1030/98/127
f 1031/104/127 1030/98/127 1029/105/127
f 1030/98/127 1031/104/127 1032/99/127
f 1032/99/127 1031/104/127 1033/100/127
f 1033/100/127 1031/104/127 1034/103/127
f 1035/102/127 1033/100/127 1034/103/127
f 1033/100/127 1035/102/127 1036/101/127
f 1037/173/4 1038/171/4 1039/173/4
f 1040/171/4 1039/173/4 1038/171/4
f 1041/163/61 1042/211/61 1043/211/61
f 1041/163/61 1043/211/61 1044/163/61
f 1045/29/61 1046/198/61 1047/198/61
f 1045/29/61 1047/198/61 1048/29/61
f 1049/60/61 1050/192/61 1051/192/61
f 1049/60/61 1051/192/61 1052/60/61
f 1053/97/47 1054/107/47 1055/107/47
f 1053/97/47 1055/107/47 1056/97/47
f 1057/97/47 1058/107/47 1059/107/47
f 1057/97/47 1059/107/47 1060/97/47
f 1061/85/47 1062/95/47 1063/95/47
f 1061/85/47 1063/95/47 1064/85/47
f 1065/85/47 1066/95/47 1067/95/47
f 1065/85/47 1067/95/47 1068/85/47
f 1069/160/15 1070/155/15 1071/155/15
f 1070/155/15 1069/160/15 1072/160/15
f 1073/63/103 1074/63/102 1075/196/103
f 1075/196/103 1074/63/102 1076/196/102
f 1077/69/225 1078/69/225 1079/159/225
f 1079/159/225 1080/159/225 1077/69/225
f 1081/146/226 1082/154/226 1083/154/227
f 1082/154/226 1081/146/226 1084/146/228
f 1085/71/47 1086/226/47 1087/226/47
f 1085/71/47 1087/226/47 1088/71/47
f 1089/72/15 1090/226/15 1091/226/15
f 1090/226/15 1089/72/15 1092/72/15
f 1093/81/229 1094/173/230 1095/173/229
f 1094/173/230 1093/81/229 1096/81/230
f 1097/121/15 1098/161/15 1099/161/15
f 1098/161/15 1097/121/15 1100/121/15
f 1101/192/231 1102/191/232 1103/191/233
f 1101/192/231 1103/191/233 1104/192/231
f 1102/191/232 1105/193/234 1103/191/233
f 1106/193/234 1105/193/234 1102/191/232
f 1106/193/234 1107/194/235 1105/193/234
f 1106/193/234 1108/194/235 1107/194/235
f 1108/194/235 1109/195/236 1107/194/235
f 1108/194/235 1110/195/237 1109/195/236
f 1110/195/237 1111/197/238 1109/195/236
f 1110/195/237 1112/197/239 1111/197/238
f 1112/197/239 1113/199/240 1111/197/238
f 1112/197/239 1114/199/240 1113/199/240
f 1114/199/240 1115/144/235 1113/199/240
f 1116/144/235 1115/144/235 1114/199/240
f 1117/159/241 1118/159/242 1119/158/243
f 1119/158/243 1120/158/244 1117/159/241
f 1121/44/245 1122/178/246 1123/178/245
f 1121/44/245 1123/178/245 1124/44/247
f 1125/185/15 1126/183/15 1127/183/15
f 1125/185/15 1127/183/15 1128/184/15
f 1126/183/15 1125/185/15 1129/184/15
f 1126/183/15 1130/181/15 1127/183/15
f 1130/181/15 1126/183/15 1131/182/15
f 1131/182/15 1126/183/15 1132/181/15
f 1133/188/248 1134/186/15 1135/186/248
f 1133/188/248 1135/186/248 1136/187/249
f 1134/186/15 1133/188/248 1137/187/250
f 1134/186/15 1138/189/15 1135/186/248
f 1138/189/15 1134/186/15 1139/190/15
f 1139/190/15 1134/186/15 1140/189/249
f 1141/198/4 1142/196/4 1143/196/4
f 1141/198/4 1143/196/4 1144/198/4
f 1145/73/251 1146/177/251 1147/177/251
f 1145/73/251 1147/177/251 1148/73/251
f 1149/178/252 1150/179/252 1151/179/253
f 1149/178/252 1151/179/253 1152/178/252
f 1150/179/252 1153/180/254 1151/179/253
f 1154/180/254 1153/180/254 1150/179/252
f 1154/180/254 1155/57/255 1153/180/254
f 1156/57/256 1155/57/255 1154/180/254
f 1157/115/15 1158/115/15 1159/112/257
f 1158/115/15 1157/115/15 1160/117/15
f 1158/115/15 1161/108/257 1159/112/257
f 1161/108/257 1158/115/15 1162/108/15
f 1161/108/257 1162/108/15 1163/111/15
f 1162/108/15 1158/115/15 1164/112/15
f 1165/208/248 1166/206/15 1167/207/15
f 1167/207/15 1166/206/15 1168/205/15
f 1166/206/15 1165/208/248 1169/208/248
f 1169/208/248 1165/208/248 1170/209/15
f 1166/206/15 1169/208/248 1171/207/15
f 1166/206/15 1171/207/15 1172/205/249
