# Blender 5.1.2
# www.blender.org
mtllib Wheel.mtl
o Wheel
v -0.251414 -1.000009 0.000031
v 0.451786 -1.000009 0.000031
v 0.451786 -0.980789 0.195129
v 0.522285 -0.962169 0.191429
v -0.251414 -0.980789 0.195129
v -0.321915 -0.962169 0.191429
v -0.321915 -0.906349 0.375427
v 0.522285 -0.906349 0.375427
v 0.573986 -0.858429 0.355530
v 0.573986 -0.772569 0.516228
v 0.451786 -0.923889 0.382729
v 0.522285 -0.815689 0.545029
v 0.522285 -0.693689 0.693729
v -0.251414 -0.923889 0.382729
v -0.321915 -0.815689 0.545029
v 0.451786 -0.831479 0.555531
v -0.251414 -0.831479 0.555531
v -0.321915 -0.693689 0.693729
v 0.451786 -0.707109 0.707130
v -0.251414 -0.707109 0.707130
v -0.251414 -0.555579 0.831429
v 0.451786 -0.555579 0.831429
v 0.522285 -0.545029 0.815727
v 0.451786 -0.382689 0.923927
v 0.451786 0.831461 0.555530
v -0.251414 0.831461 0.555530
v -0.251414 0.707101 0.707130
v -0.321915 0.693681 0.693729
v -0.251414 0.555561 0.831428
v 0.451786 0.707101 0.707130
v 0.451786 0.555561 0.831428
v 0.522285 0.693681 0.693729
v 0.522285 0.815681 0.545029
v 0.451786 0.923871 0.382729
v 0.522285 0.906331 0.375427
v 0.451786 0.980781 0.195129
v -0.251414 0.923871 0.382729
v -0.251414 0.980781 0.195129
v 0.451786 0.999991 0.000030
v -0.321915 0.906331 0.375427
v -0.251414 0.999991 0.000030
v -0.321915 0.815681 0.545029
v -0.373514 0.772551 0.516228
v -0.373514 0.657001 0.657028
v 0.451786 0.980781 -0.195072
v 0.522285 0.962161 -0.191372
v 0.522285 0.906331 -0.375370
v -0.251414 0.980781 -0.195072
v -0.321915 0.962161 -0.191372
v 0.451786 0.923871 -0.382671
v 0.522285 0.815681 -0.545071
v -0.321915 0.906331 -0.375370
v -0.251414 0.923871 -0.382671
v -0.321915 0.815681 -0.545071
v 0.451786 0.831461 -0.555573
v 0.522285 0.693681 -0.693672
v -0.251414 0.831461 -0.555573
v -0.321915 0.693681 -0.693672
v 0.451786 0.707101 -0.707069
v -0.251414 0.707101 -0.707069
v -0.251414 0.555561 -0.831471
v 0.451786 0.555561 -0.831471
v 0.451786 0.382681 -0.923870
v 0.522285 0.545021 -0.815670
v 0.573986 0.516201 -0.772572
v 0.522285 0.375411 -0.906372
v 0.573986 0.355561 -0.858471
v -0.251414 -0.195099 -0.980770
v 0.451786 -0.195099 -0.980770
v 0.451786 -0.382689 -0.923870
v -0.251414 -0.000009 -0.999969
v 0.522285 -0.375429 -0.906372
v 0.451786 -0.000009 -0.999969
v 0.522285 -0.191389 -0.962170
v 0.573986 -0.181279 -0.911270
v 0.522285 -0.000009 -0.980972
v 0.522285 0.191381 -0.962170
v 0.573986 0.181261 -0.911270
v 0.451786 0.195081 -0.980770
v 0.573986 -0.000009 -0.929173
v -0.251414 0.195081 -0.980770
v -0.251414 0.382681 -0.923870
v -0.321915 0.191381 -0.962170
v -0.321915 0.375411 -0.906372
v -0.321915 -0.000009 -0.980972
v -0.373514 0.181261 -0.911270
v -0.321915 -0.191389 -0.962170
v -0.373514 -0.181279 -0.911270
v -0.321915 -0.375429 -0.906372
v -0.251414 -0.382689 -0.923870
v -0.321915 -0.545029 -0.815670
v -0.373514 -0.355579 -0.858471
v -0.373514 -0.000009 -0.929173
v -0.392414 -0.328469 -0.792973
v -0.392414 0.167441 -0.841770
v -0.392414 -0.167449 -0.841770
v -0.392414 -0.000009 -0.858273
v -0.375315 -0.000009 -0.720871
v -0.375315 -0.140649 -0.707069
v -0.375315 0.140631 -0.707069
v -0.375315 -0.275879 -0.666073
v -0.375315 0.275871 -0.666073
v -0.375315 -0.400519 -0.599369
v -0.392414 0.328451 -0.792973
v -0.392414 0.476841 -0.713673
v -0.375315 0.400511 -0.599369
v -0.373514 0.355561 -0.858471
v -0.375315 0.509751 -0.509769
v -0.321915 0.545021 -0.815670
v -0.373514 0.516201 -0.772572
v -0.373514 0.657001 -0.656971
v -0.392414 0.606901 -0.606873
v -0.392414 0.713651 -0.476872
v -0.375315 0.599401 -0.400471
v -0.375315 0.666021 -0.275871
v -0.373514 0.772551 -0.516171
v -0.392414 0.792961 -0.328472
v -0.392414 0.841801 -0.167473
v -0.375315 0.707041 -0.140671
v -0.373514 0.858421 -0.355572
v -0.375315 0.720901 0.000030
v -0.392414 0.858301 0.000030
v -0.373514 0.911291 -0.181271
v -0.373514 0.929141 0.000030
v -0.392414 0.841801 0.167431
v -0.375315 0.707041 0.140629
v -0.375315 0.666021 0.275829
v -0.321915 0.981011 0.000030
v -0.392414 0.792961 0.328430
v -0.375315 0.599401 0.400528
v -0.373514 0.911291 0.181229
v -0.321915 0.962161 0.191429
v -0.373514 0.858421 0.355530
v -0.392414 0.713651 0.476829
v -0.392414 0.606901 0.606930
v -0.375315 0.509751 0.509727
v -0.375315 0.400511 0.599430
v -0.392414 0.476841 0.713631
v -0.375315 0.275871 0.666031
v -0.392414 0.328451 0.792931
v -0.375315 0.140631 0.707027
v -0.373514 0.516201 0.772530
v -0.373514 0.355561 0.858429
v -0.392414 0.167441 0.841827
v -0.375315 -0.000009 0.720928
v -0.373514 0.181261 0.911327
v -0.392414 -0.000009 0.858330
v -0.375315 -0.140649 0.707027
v -0.392414 -0.167449 0.841827
v -0.375315 -0.275879 0.666031
v -0.373514 -0.000009 0.929131
v -0.392414 -0.328459 0.792931
v -0.373514 -0.181269 0.911327
v -0.392414 -0.476849 0.713631
v -0.373514 -0.355579 0.858429
v -0.375315 -0.400519 0.599430
v -0.321915 -0.191389 0.962128
v -0.321915 -0.000009 0.981030
v -0.321915 0.191381 0.962128
v -0.251414 -0.000009 1.000031
v -0.321915 -0.375419 0.906330
v -0.321915 0.375411 0.906330
v -0.251414 -0.195099 0.980827
v -0.321915 0.545021 0.815727
v -0.251414 0.195081 0.980827
v -0.251414 0.382681 0.923828
v 0.451786 0.382681 0.923828
v 0.451786 0.195081 0.980827
v 0.451786 -0.000009 1.000031
v 0.522285 0.375411 0.906330
v 0.522285 0.545021 0.815727
v 0.522285 0.191381 0.962128
v 0.573986 0.355561 0.858429
v 0.522285 -0.000009 0.981030
v 0.573986 0.181261 0.911327
v 0.522285 -0.191389 0.962128
v 0.573986 0.516201 0.772530
v 0.451786 -0.195099 0.980827
v -0.251414 -0.382689 0.923927
v 0.522285 -0.375419 0.906330
v -0.321915 -0.545029 0.815727
v -0.373514 -0.516209 0.772530
v -0.373514 -0.657009 0.657028
v -0.392414 -0.606919 0.606930
v -0.375315 -0.509759 0.509728
v -0.373514 -0.772569 0.516228
v -0.392414 -0.713659 0.476830
v -0.375315 -0.599409 0.400528
v -0.375315 -0.666029 0.275829
v -0.392414 -0.792969 0.328430
v -0.392414 -0.841819 0.167431
v -0.375315 -0.707059 0.140629
v -0.375315 -0.720909 0.000031
v -0.392414 -0.858309 0.000031
v -0.392414 -0.841819 -0.167473
v -0.375315 -0.707059 -0.140671
v -0.373514 -0.929159 0.000031
v -0.373514 -0.911299 0.181229
v -0.392414 -0.792969 -0.328472
v -0.375315 -0.666029 -0.275871
v -0.375315 -0.599419 -0.400471
v -0.373514 -0.858429 0.355530
v -0.392414 -0.713659 -0.476871
v -0.375315 -0.509759 -0.509769
v -0.373514 -0.911299 -0.181271
v -0.373514 -0.858429 -0.355572
v -0.321915 -0.962169 -0.191372
v -0.321915 -0.981019 0.000031
v -0.392414 -0.606919 -0.606872
v -0.392414 -0.476859 -0.713673
v -0.373514 -0.516219 -0.772572
v -0.373514 -0.657019 -0.656971
v -0.373514 -0.772569 -0.516170
v -0.321915 -0.693689 -0.693672
v -0.321915 -0.815689 -0.545071
v -0.321915 -0.906349 -0.375370
v -0.251414 -0.555579 -0.831470
v -0.251414 -0.980789 -0.195072
v -0.251414 -0.923889 -0.382671
v -0.251414 -0.831479 -0.555572
v -0.251414 -0.707109 -0.707069
v 0.451786 -0.555579 -0.831470
v 0.451786 -0.707109 -0.707069
v 0.451786 -0.831479 -0.555572
v 0.451786 -0.923889 -0.382671
v 0.522285 -0.693689 -0.693672
v 0.522285 -0.815689 -0.545071
v 0.451786 -0.980789 -0.195072
v 0.522285 -0.906349 -0.375370
v 0.522285 -0.962169 -0.191372
v 0.592786 0.599401 -0.400471
v 0.592786 -0.275879 -0.666073
v 0.592786 0.400511 -0.599369
v 0.592786 0.509751 -0.509769
v 0.592786 0.275871 -0.666073
v 0.592786 0.140631 -0.707069
v 0.592786 -0.140649 -0.707069
v 0.592786 -0.000009 -0.720871
v 0.592786 -0.509759 -0.509769
v 0.592786 -0.400519 -0.599369
v 0.592786 -0.666029 -0.275871
v 0.592786 -0.599419 -0.400471
v 0.592786 0.707041 -0.140671
v 0.592786 0.666021 -0.275871
v 0.592786 0.720901 0.000030
v 0.592786 0.275871 0.666031
v 0.592786 0.707041 0.140629
v 0.592786 -0.707059 0.140629
v 0.592786 -0.707059 -0.140671
v 0.592786 -0.720909 0.000031
v 0.592786 -0.400519 0.599430
v 0.592786 -0.599409 0.400528
v 0.592786 -0.666029 0.275829
v 0.592786 -0.509759 0.509728
v 0.592786 -0.140649 0.707027
v 0.592786 -0.275879 0.666031
v 0.592786 0.140631 0.707027
v 0.592786 -0.000009 0.720928
v 0.592786 0.509751 0.509727
v 0.592786 0.400511 0.599430
v 0.592786 0.666021 0.275829
v 0.592786 0.599401 0.400528
v 0.573986 -0.858429 -0.355572
v 0.522285 -0.981019 0.000031
v 0.573986 -0.772569 -0.516170
v 0.592886 -0.713659 -0.476871
v 0.573986 -0.657019 -0.656971
v 0.573986 -0.911299 -0.181271
v 0.573986 -0.516219 -0.772572
v 0.573986 -0.929159 0.000031
v 0.592886 -0.792969 -0.328472
v 0.592786 -0.606919 -0.606872
v 0.575686 -0.509759 -0.509769
v 0.575686 -0.599419 -0.400471
v 0.575686 -0.400519 -0.599369
v 0.575686 -0.666029 -0.275871
v 0.575686 -0.707059 -0.140671
v 0.592786 -0.841819 -0.167473
v 0.575686 -0.720909 0.000031
v 0.592886 -0.858309 0.000031
v 0.592786 -0.841819 0.167431
v 0.575686 -0.707059 0.140629
v 0.575686 -0.666029 0.275829
v 0.573986 -0.911299 0.181229
v 0.592886 -0.792969 0.328430
v 0.592886 -0.713659 0.476830
v 0.575686 -0.599409 0.400528
v 0.575686 -0.509759 0.509728
v 0.592786 -0.606919 0.606930
v 0.575686 -0.400519 0.599430
v 0.592886 -0.476849 0.713631
v 0.575686 -0.275879 0.666031
v 0.573986 -0.657009 0.657028
v 0.592786 -0.328459 0.792931
v 0.592786 -0.167449 0.841827
v 0.573986 -0.355579 0.858429
v 0.575686 -0.140649 0.707027
v 0.573986 -0.516209 0.772530
v 0.573986 -0.181269 0.911327
v 0.573986 -0.000009 0.929131
v 0.592886 -0.000009 0.858330
v 0.575686 -0.000009 0.720928
v 0.592886 0.167441 0.841827
v 0.575686 0.140631 0.707027
v 0.592886 0.328451 0.792931
v 0.575686 0.275871 0.666031
v 0.592886 0.476841 0.713631
v 0.575686 0.400511 0.599430
v 0.592886 0.606901 0.606930
v 0.575686 0.509751 0.509727
v 0.575686 0.599401 0.400528
v 0.573986 0.657001 0.657028
v 0.592886 0.713651 0.476829
v 0.592886 0.792961 0.328430
v 0.575686 0.666021 0.275829
v 0.573986 0.772551 0.516228
v 0.573986 0.858421 0.355530
v 0.592886 0.841801 0.167431
v 0.575686 0.707041 0.140629
v 0.575686 0.720901 0.000030
v 0.573986 0.911291 0.181229
v 0.592886 0.858301 0.000030
v 0.573986 0.929141 0.000030
v 0.592886 0.841801 -0.167473
v 0.575686 0.707041 -0.140671
v 0.575686 0.666021 -0.275871
v 0.522285 0.962161 0.191429
v 0.522285 0.981011 0.000030
v 0.573986 0.911291 -0.181271
v 0.573986 0.858421 -0.355572
v 0.592886 0.792961 -0.328472
v 0.573986 0.772551 -0.516171
v 0.592886 0.713651 -0.476872
v 0.575686 0.599401 -0.400471
v 0.575686 0.509751 -0.509769
v 0.592886 0.606901 -0.606873
v 0.573986 0.657001 -0.656971
v 0.592886 0.476841 -0.713673
v 0.575686 0.400511 -0.599369
v 0.575686 0.275871 -0.666073
v 0.592886 0.328451 -0.792973
v 0.592886 0.167441 -0.841770
v 0.575686 0.140631 -0.707069
v 0.575686 -0.000009 -0.720871
v 0.592886 -0.000009 -0.858273
v 0.592786 -0.167449 -0.841770
v 0.575686 -0.140649 -0.707069
v 0.592786 -0.328469 -0.792973
v 0.575686 -0.275879 -0.666073
v 0.573986 -0.355579 -0.858471
v 0.592886 -0.476859 -0.713673
v 0.522285 -0.545029 -0.815670
v -0.392414 0.225601 0.130230
v -0.392414 -0.000009 0.260529
v -0.392414 0.130251 0.225628
v -0.392414 -0.000009 0.635731
v -0.392414 0.317881 0.550629
v -0.392414 -0.000009 -0.260471
v -0.392414 -0.225609 -0.130272
v -0.392414 -0.130259 0.225628
v -0.392414 -0.130259 -0.225571
v -0.392414 -0.225609 0.130230
v -0.392414 -0.260519 0.000031
v -0.392414 -0.550599 0.317829
v -0.392414 -0.550599 -0.317871
v -0.392414 -0.000009 -0.635773
v -0.392414 0.130251 -0.225571
v -0.392414 -0.317889 -0.550571
v -0.392414 0.225601 -0.130272
v -0.392414 0.260501 0.000030
v -0.392414 0.550581 -0.317871
v -0.392414 0.635761 0.000030
v -0.392414 0.317881 -0.550571
v -0.392414 0.550581 0.317829
v -0.392414 0.707041 -0.140671
v -0.392414 0.720901 0.000030
v -0.392414 0.666021 -0.275871
v -0.392414 0.707041 0.140629
v -0.392414 0.599401 -0.400471
v -0.392414 0.666021 0.275829
v -0.392414 0.509751 -0.509769
v -0.392414 0.599401 0.400528
v -0.392414 0.400511 -0.599369
v -0.392414 0.509751 0.509727
v -0.392414 0.275871 -0.666073
v -0.392414 0.140631 -0.707069
v -0.392414 -0.000009 -0.720871
v -0.392414 -0.140649 -0.707069
v -0.392414 0.400511 0.599430
v -0.392414 0.275871 0.666031
v -0.392414 0.140631 0.707027
v -0.392414 -0.000009 0.720928
v -0.392414 -0.140649 0.707027
v -0.392414 -0.317889 0.550629
v -0.392414 -0.275879 0.666031
v -0.392414 -0.400519 0.599430
v -0.392414 -0.509759 0.509728
v -0.392414 -0.599409 0.400528
v -0.392414 -0.666029 0.275829
v -0.392414 -0.707059 0.140629
v -0.392414 -0.635769 0.000031
v -0.392414 -0.720909 0.000031
v -0.392414 -0.707059 -0.140671
v -0.392414 -0.666029 -0.275871
v -0.392414 -0.599419 -0.400471
v -0.392414 -0.509759 -0.509769
v -0.392414 -0.400519 -0.599369
v -0.392414 -0.275879 -0.666073
v -0.320214 -0.130259 0.225628
v -0.320214 -0.000009 0.635731
v -0.320214 -0.000009 0.260529
v -0.320214 -0.317889 0.550629
v -0.320214 -0.550599 0.317829
v -0.320214 -0.260519 0.000031
v -0.320214 -0.635769 0.000031
v -0.320214 -0.225609 0.130230
v -0.320214 -0.130259 -0.225571
v -0.320214 -0.317889 -0.550571
v -0.320214 -0.225609 -0.130272
v -0.320214 -0.550599 -0.317871
v -0.320214 -0.000009 -0.635773
v -0.320214 0.130251 -0.225571
v -0.320214 0.317881 -0.550571
v -0.320214 -0.000009 -0.260471
v -0.320214 0.260501 0.000030
v -0.320214 0.550581 -0.317871
v -0.320214 0.225601 -0.130272
v -0.320214 0.635761 0.000030
v -0.320214 0.317881 0.550629
v -0.320214 0.550581 0.317829
v -0.320214 0.225601 0.130230
v -0.320214 0.130251 0.225628
v -0.320214 -0.260519 0.000031
v -0.320214 -0.225609 0.130230
v -0.392414 -0.260519 0.000031
v -0.392414 -0.225609 0.130230
v -0.320214 -0.130259 0.225628
v -0.320214 -0.000009 0.260529
v -0.392414 -0.130259 0.225628
v -0.392414 -0.000009 0.260529
v -0.320214 0.130251 -0.225571
v -0.320214 -0.000009 -0.260471
v -0.392414 0.130251 -0.225571
v -0.392414 -0.000009 -0.260471
v -0.320214 0.130251 0.225628
v -0.320214 0.225601 0.130230
v -0.392414 0.130251 0.225628
v -0.392414 0.225601 0.130230
v -0.392414 0.225601 -0.130272
v -0.392414 0.260501 0.000030
v -0.320214 0.225601 -0.130272
v -0.320214 0.260501 0.000030
v -0.320214 -0.130259 -0.225571
v -0.320214 -0.225609 -0.130272
v -0.392414 -0.130259 -0.225571
v -0.392414 -0.225609 -0.130272
v -0.320214 -0.635769 0.000031
v -0.320214 -0.260519 0.000031
v -0.392414 -0.635769 0.000031
v -0.392414 -0.260519 0.000031
v -0.320214 0.550581 0.317829
v -0.392414 0.225601 0.130230
v -0.320214 0.225601 0.130230
v -0.392414 0.550581 0.317829
v -0.320214 0.550581 -0.317871
v -0.392414 0.225601 -0.130272
v -0.320214 0.225601 -0.130272
v -0.392414 0.550581 -0.317871
v -0.320214 -0.130259 -0.225571
v -0.392414 -0.317889 -0.550571
v -0.320214 -0.317889 -0.550571
v -0.392414 -0.130259 -0.225571
v -0.320214 -0.000009 0.260529
v -0.320214 -0.000009 0.635731
v -0.392414 -0.000009 0.260529
v -0.392414 -0.000009 0.635731
v -0.320214 0.130251 -0.225571
v -0.392414 0.317881 -0.550571
v -0.320214 0.317881 -0.550571
v -0.392414 0.130251 -0.225571
v -0.392414 0.140631 0.707027
v -0.392414 -0.000009 0.720928
v -0.375315 -0.000009 0.720928
v -0.375315 0.140631 0.707027
v -0.375315 -0.140649 0.707027
v -0.392414 0.275871 0.666031
v -0.392414 -0.140649 0.707027
v -0.375315 0.275871 0.666031
v -0.375315 -0.275879 0.666031
v -0.392414 0.400511 0.599430
v -0.392414 -0.275879 0.666031
v -0.375315 0.400511 0.599430
v -0.375315 -0.400519 0.599430
v -0.392414 0.509751 0.509727
v -0.392414 -0.400519 0.599430
v -0.375315 0.509751 0.509727
v -0.375315 -0.509759 0.509728
v -0.392414 0.599401 0.400528
v -0.392414 -0.509759 0.509728
v -0.375315 0.599401 0.400528
v -0.375315 -0.599409 0.400528
v -0.392414 0.666021 0.275829
v -0.392414 -0.599409 0.400528
v -0.375315 0.666021 0.275829
v -0.375315 -0.666029 0.275829
v -0.392414 0.707041 0.140629
v -0.392414 -0.666029 0.275829
v -0.375315 0.707041 0.140629
v -0.375315 -0.707059 0.140629
v -0.392414 0.720901 0.000030
v -0.392414 -0.707059 0.140629
v -0.375315 0.720901 0.000030
v -0.375315 -0.720909 0.000031
v -0.392414 0.707041 -0.140671
v -0.392414 -0.720909 0.000031
v -0.375315 0.707041 -0.140671
v -0.375315 -0.707059 -0.140671
v -0.392414 0.666021 -0.275871
v -0.392414 -0.707059 -0.140671
v -0.375315 0.666021 -0.275871
v -0.375315 -0.666029 -0.275871
v -0.392414 0.599401 -0.400471
v -0.392414 -0.666029 -0.275871
v -0.375315 0.599401 -0.400471
v -0.375315 -0.599419 -0.400471
v -0.392414 0.509751 -0.509769
v -0.392414 -0.599419 -0.400471
v -0.375315 0.509751 -0.509769
v -0.375315 -0.509759 -0.509769
v -0.392414 0.400511 -0.599369
v -0.392414 -0.509759 -0.509769
v -0.375315 0.400511 -0.599369
v -0.375315 -0.400519 -0.599369
v -0.392414 0.275871 -0.666073
v -0.392414 -0.400519 -0.599369
v -0.375315 0.275871 -0.666073
v -0.375315 -0.275879 -0.666073
v -0.392414 0.140631 -0.707069
v -0.392414 -0.275879 -0.666073
v -0.375315 0.140631 -0.707069
v -0.375315 -0.140649 -0.707069
v -0.392414 -0.000009 -0.720871
v -0.392414 -0.140649 -0.707069
v -0.375315 -0.000009 -0.720871
v -0.320214 -0.550599 0.317829
v -0.392414 -0.225609 0.130230
v -0.320214 -0.225609 0.130230
v -0.392414 -0.550599 0.317829
v -0.320214 -0.550599 -0.317871
v -0.392414 -0.225609 -0.130272
v -0.320214 -0.225609 -0.130272
v -0.392414 -0.550599 -0.317871
v -0.320214 0.635761 0.000030
v -0.320214 0.260501 0.000030
v -0.392414 0.635761 0.000030
v -0.392414 0.260501 0.000030
v -0.392414 0.130251 0.225628
v -0.392414 0.317881 0.550629
v -0.320214 0.130251 0.225628
v -0.320214 0.317881 0.550629
v -0.392414 -0.130259 0.225628
v -0.392414 -0.317889 0.550629
v -0.320214 -0.130259 0.225628
v -0.320214 -0.317889 0.550629
v -0.392414 -0.000009 -0.635773
v -0.392414 -0.000009 -0.260471
v -0.320214 -0.000009 -0.635773
v -0.320214 -0.000009 -0.260471
v 0.592786 0.666021 0.275829
v 0.592786 0.707041 0.140629
v 0.575686 0.707041 0.140629
v 0.575686 0.666021 0.275829
v 0.575686 0.720901 0.000030
v 0.592786 0.599401 0.400528
v 0.592786 0.720901 0.000030
v 0.575686 0.599401 0.400528
v 0.575686 0.707041 -0.140671
v 0.592786 0.509751 0.509727
v 0.592786 0.707041 -0.140671
v 0.575686 0.509751 0.509727
v 0.575686 0.666021 -0.275871
v 0.592786 0.400511 0.599430
v 0.592786 0.666021 -0.275871
v 0.575686 0.400511 0.599430
v 0.575686 0.599401 -0.400471
v 0.592786 0.275871 0.666031
v 0.592786 0.599401 -0.400471
v 0.575686 0.275871 0.666031
v 0.575686 0.509751 -0.509769
v 0.592786 0.140631 0.707027
v 0.592786 0.509751 -0.509769
v 0.575686 0.140631 0.707027
v 0.575686 0.400511 -0.599369
v 0.575686 -0.000009 0.720928
v 0.592786 0.400511 -0.599369
v 0.592786 -0.000009 0.720928
v 0.575686 0.275871 -0.666073
v 0.592786 -0.140649 0.707027
v 0.592786 0.275871 -0.666073
v 0.575686 -0.140649 0.707027
v 0.575686 0.140631 -0.707069
v 0.592786 -0.275879 0.666031
v 0.592786 0.140631 -0.707069
v 0.575686 -0.275879 0.666031
v 0.575686 -0.000009 -0.720871
v 0.575686 -0.400519 0.599430
v 0.592786 -0.000009 -0.720871
v 0.592786 -0.400519 0.599430
v 0.592786 -0.140649 -0.707069
v 0.575686 -0.140649 -0.707069
v 0.575686 -0.275879 -0.666073
v 0.592786 -0.509759 0.509728
v 0.592786 -0.275879 -0.666073
v 0.575686 -0.509759 0.509728
v 0.575686 -0.400519 -0.599369
v 0.575686 -0.599409 0.400528
v 0.592786 -0.400519 -0.599369
v 0.592786 -0.599409 0.400528
v 0.592786 -0.509759 -0.509769
v 0.592786 -0.666029 0.275829
v 0.575686 -0.509759 -0.509769
v 0.575686 -0.666029 0.275829
v 0.575686 -0.599419 -0.400471
v 0.592786 -0.707059 0.140629
v 0.592786 -0.599419 -0.400471
v 0.575686 -0.707059 0.140629
v 0.575686 -0.666029 -0.275871
v 0.575686 -0.720909 0.000031
v 0.592786 -0.666029 -0.275871
v 0.592786 -0.720909 0.000031
v 0.592786 -0.707059 -0.140671
v 0.575686 -0.707059 -0.140671
v -0.320214 0.317881 -0.550571
v -0.392414 -0.000009 -0.635773
v -0.320214 -0.000009 -0.635773
v -0.392414 0.317881 -0.550571
v -0.320214 0.550581 -0.317871
v -0.320214 0.635761 0.000030
v -0.392414 0.550581 -0.317871
v -0.392414 0.635761 0.000030
v -0.392414 -0.317889 -0.550571
v -0.392414 -0.550599 -0.317871
v -0.320214 -0.317889 -0.550571
v -0.320214 -0.550599 -0.317871
v -0.320214 -0.317889 0.550629
v -0.392414 -0.000009 0.635731
v -0.320214 -0.000009 0.635731
v -0.392414 -0.317889 0.550629
v -0.392414 -0.635769 0.000031
v -0.392414 -0.550599 0.317829
v -0.320214 -0.635769 0.000031
v -0.320214 -0.550599 0.317829
v -0.320214 0.550581 0.317829
v -0.320214 0.317881 0.550629
v -0.392414 0.550581 0.317829
v -0.392414 0.317881 0.550629
vn -0.1337 -0.9910 -0.0000
vn 0.1337 -0.9910 -0.0000
vn 0.1332 -0.9715 0.1959
vn 0.4962 -0.8507 0.1733
vn -0.1332 -0.9715 0.1959
vn -0.4962 -0.8507 0.1733
vn -0.4959 -0.8029 0.3307
vn 0.4959 -0.8030 0.3307
vn 0.8589 -0.4728 0.1970
vn 0.8593 -0.4256 0.2838
vn 0.1342 -0.9157 0.3789
vn 0.4957 -0.7238 0.4800
vn 0.4960 -0.6140 0.6140
vn -0.1341 -0.9157 0.3789
vn -0.4957 -0.7238 0.4800
vn 0.1335 -0.8246 0.5497
vn -0.1335 -0.8246 0.5497
vn -0.4960 -0.6140 0.6140
vn 0.1339 -0.7007 0.7007
vn -0.1339 -0.7007 0.7008
vn -0.1335 -0.5497 0.8246
vn 0.1335 -0.5497 0.8246
vn 0.4957 -0.4800 0.7238
vn 0.1342 -0.3789 0.9157
vn 0.1335 0.8246 0.5497
vn -0.1335 0.8246 0.5497
vn -0.1339 0.7007 0.7007
vn -0.4959 0.6140 0.6140
vn -0.1334 0.5498 0.8246
vn 0.1339 0.7007 0.7007
vn 0.1335 0.5497 0.8246
vn 0.4959 0.6140 0.6140
vn 0.4957 0.7238 0.4800
vn 0.1342 0.9157 0.3789
vn 0.4959 0.8030 0.3306
vn 0.1331 0.9716 0.1958
vn -0.1342 0.9157 0.3789
vn -0.1332 0.9715 0.1959
vn 0.1337 0.9910 -0.0000
vn -0.4959 0.8029 0.3307
vn -0.1337 0.9910 -0.0000
vn -0.4957 0.7239 0.4799
vn -0.8592 0.4257 0.2838
vn -0.8587 0.3624 0.3624
vn 0.1332 0.9715 -0.1959
vn 0.4963 0.8507 -0.1733
vn 0.4959 0.8030 -0.3306
vn -0.1332 0.9715 -0.1959
vn -0.4962 0.8507 -0.1733
vn 0.1342 0.9157 -0.3789
vn 0.4957 0.7239 -0.4799
vn -0.4959 0.8029 -0.3307
vn -0.1341 0.9157 -0.3789
vn -0.4957 0.7239 -0.4799
vn 0.1335 0.8246 -0.5498
vn 0.4959 0.6140 -0.6140
vn -0.1335 0.8246 -0.5498
vn -0.4960 0.6140 -0.6140
vn 0.1339 0.7007 -0.7007
vn -0.1339 0.7008 -0.7007
vn -0.1335 0.5497 -0.8246
vn 0.1335 0.5497 -0.8246
vn 0.1341 0.3789 -0.9157
vn 0.4957 0.4799 -0.7238
vn 0.8593 0.2838 -0.4256
vn 0.4959 0.3306 -0.8030
vn 0.8589 0.1970 -0.4728
vn -0.1332 -0.1959 -0.9715
vn 0.1332 -0.1959 -0.9715
vn 0.1342 -0.3789 -0.9157
vn -0.1337 -0.0000 -0.9910
vn 0.4959 -0.3306 -0.8030
vn 0.1337 -0.0000 -0.9910
vn 0.4962 -0.1733 -0.8507
vn 0.8578 -0.1023 -0.5037
vn 0.4969 -0.0000 -0.8678
vn 0.4962 0.1733 -0.8507
vn 0.8578 0.1023 -0.5037
vn 0.1332 0.1959 -0.9715
vn 0.8589 -0.0000 -0.5121
vn -0.1331 0.1958 -0.9716
vn -0.1342 0.3789 -0.9157
vn -0.4962 0.1733 -0.8507
vn -0.4959 0.3307 -0.8030
vn -0.4970 -0.0000 -0.8678
vn -0.8578 0.1023 -0.5036
vn -0.4962 -0.1733 -0.8507
vn -0.8578 -0.1023 -0.5037
vn -0.4959 -0.3306 -0.8030
vn -0.1342 -0.3789 -0.9157
vn -0.4957 -0.4799 -0.7239
vn -0.8589 -0.1970 -0.4728
vn -0.8589 -0.0000 -0.5122
vn -0.9970 -0.0314 -0.0706
vn -0.9968 0.0157 -0.0786
vn -0.9968 -0.0156 -0.0786
vn -0.9969 -0.0000 -0.0785
vn -0.9920 -0.0000 0.1259
vn -0.9927 0.0236 0.1182
vn -0.9927 -0.0236 0.1182
vn -0.9919 0.0472 0.1181
vn -0.9919 -0.0472 0.1181
vn -0.9922 0.0709 0.1024
vn -0.9970 0.0314 -0.0707
vn -0.9969 0.0471 -0.0628
vn -0.9922 -0.0709 0.1024
vn -0.8589 0.1970 -0.4728
vn -0.9925 -0.0867 0.0867
vn -0.4957 0.4800 -0.7238
vn -0.8592 0.2838 -0.4257
vn -0.8587 0.3624 -0.3624
vn -0.9970 0.0550 -0.0550
vn -0.9969 0.0628 -0.0471
vn -0.9922 -0.1024 0.0708
vn -0.9919 -0.1181 0.0472
vn -0.8592 0.4257 -0.2838
vn -0.9970 0.0706 -0.0314
vn -0.9968 0.0782 -0.0158
vn -0.9927 -0.1182 0.0236
vn -0.8589 0.4728 -0.1970
vn -0.9920 -0.1260 -0.0000
vn -0.9969 0.0785 -0.0000
vn -0.8578 0.5037 -0.1023
vn -0.8589 0.5122 -0.0000
vn -0.9968 0.0783 0.0157
vn -0.9927 -0.1182 -0.0236
vn -0.9919 -0.1180 -0.0472
vn -0.4970 0.8678 -0.0000
vn -0.9970 0.0707 0.0314
vn -0.9922 -0.1024 -0.0708
vn -0.8578 0.5037 0.1023
vn -0.4962 0.8507 0.1733
vn -0.8589 0.4727 0.1969
vn -0.9969 0.0628 0.0471
vn -0.9970 0.0550 0.0550
vn -0.9925 -0.0867 -0.0867
vn -0.9922 -0.0709 -0.1024
vn -0.9969 0.0471 0.0628
vn -0.9919 -0.0472 -0.1181
vn -0.9970 0.0314 0.0706
vn -0.9927 -0.0236 -0.1182
vn -0.8592 0.2838 0.4257
vn -0.8589 0.1970 0.4728
vn -0.9968 0.0157 0.0787
vn -0.9920 -0.0000 -0.1259
vn -0.8578 0.1023 0.5037
vn -0.9969 -0.0000 0.0785
vn -0.9927 0.0236 -0.1182
vn -0.9968 -0.0157 0.0787
vn -0.9919 0.0472 -0.1181
vn -0.8589 -0.0000 0.5122
vn -0.9970 -0.0314 0.0706
vn -0.8578 -0.1023 0.5037
vn -0.9969 -0.0471 0.0628
vn -0.8589 -0.1970 0.4728
vn -0.9922 0.0709 -0.1024
vn -0.4962 -0.1733 0.8507
vn -0.4969 -0.0000 0.8678
vn -0.4962 0.1733 0.8507
vn -0.1336 -0.0000 0.9910
vn -0.4960 -0.3306 0.8030
vn -0.4960 0.3306 0.8030
vn -0.1332 -0.1958 0.9716
vn -0.4957 0.4800 0.7238
vn -0.1332 0.1959 0.9715
vn -0.1341 0.3789 0.9157
vn 0.1341 0.3789 0.9157
vn 0.1332 0.1959 0.9715
vn 0.1337 -0.0000 0.9910
vn 0.4959 0.3307 0.8030
vn 0.4957 0.4800 0.7238
vn 0.4962 0.1733 0.8507
vn 0.8589 0.1970 0.4728
vn 0.4969 -0.0000 0.8678
vn 0.8578 0.1023 0.5037
vn 0.4962 -0.1733 0.8507
vn 0.8592 0.2838 0.4257
vn 0.1332 -0.1958 0.9716
vn -0.1342 -0.3789 0.9157
vn 0.4959 -0.3307 0.8030
vn -0.4957 -0.4799 0.7238
vn -0.8593 -0.2838 0.4256
vn -0.8587 -0.3624 0.3624
vn -0.9970 -0.0550 0.0550
vn -0.9925 0.0867 -0.0867
vn -0.8592 -0.4257 0.2838
vn -0.9969 -0.0628 0.0471
vn -0.9922 0.1024 -0.0708
vn -0.9919 0.1181 -0.0472
vn -0.9970 -0.0707 0.0314
vn -0.9968 -0.0787 0.0157
vn -0.9927 0.1182 -0.0236
vn -0.9920 0.1260 -0.0000
vn -0.9969 -0.0785 -0.0000
vn -0.9968 -0.0787 -0.0157
vn -0.9927 0.1182 0.0236
vn -0.8589 -0.5121 -0.0000
vn -0.8578 -0.5037 0.1023
vn -0.9970 -0.0707 -0.0314
vn -0.9919 0.1181 0.0472
vn -0.9922 0.1024 0.0708
vn -0.8589 -0.4728 0.1970
vn -0.9969 -0.0628 -0.0471
vn -0.9925 0.0867 0.0867
vn -0.8578 -0.5037 -0.1023
vn -0.8589 -0.4728 -0.1970
vn -0.4962 -0.8507 -0.1733
vn -0.4970 -0.8678 -0.0000
vn -0.9970 -0.0549 -0.0549
vn -0.9969 -0.0471 -0.0628
vn -0.8593 -0.2838 -0.4256
vn -0.8587 -0.3624 -0.3624
vn -0.8592 -0.4257 -0.2838
vn -0.4958 -0.6141 -0.6141
vn -0.4957 -0.7238 -0.4799
vn -0.4959 -0.8030 -0.3307
vn -0.1334 -0.5498 -0.8246
vn -0.1332 -0.9715 -0.1959
vn -0.1342 -0.9157 -0.3789
vn -0.1335 -0.8246 -0.5498
vn -0.1338 -0.7008 -0.7007
vn 0.1334 -0.5498 -0.8246
vn 0.1338 -0.7007 -0.7007
vn 0.1335 -0.8246 -0.5497
vn 0.1341 -0.9157 -0.3789
vn 0.4960 -0.6140 -0.6140
vn 0.4957 -0.7238 -0.4800
vn 0.1332 -0.9715 -0.1959
vn 0.4959 -0.8030 -0.3307
vn 0.4962 -0.8507 -0.1733
vn 1.0000 -0.0000 -0.0000
vn 1.0000 -0.0001 -0.0000
vn 1.0000 0.0001 -0.0000
vn 0.8589 -0.4727 -0.1969
vn 0.4970 -0.8678 -0.0000
vn 0.8592 -0.4256 -0.2838
vn 0.9969 -0.0628 -0.0471
vn 0.8587 -0.3624 -0.3624
vn 0.8578 -0.5037 -0.1023
vn 0.8592 -0.2838 -0.4256
vn 0.8589 -0.5121 -0.0000
vn 0.9970 -0.0707 -0.0314
vn 0.9970 -0.0550 -0.0550
vn 0.9925 0.0867 0.0867
vn 0.9922 0.1024 0.0708
vn 0.9922 0.0709 0.1024
vn 0.9919 0.1181 0.0472
vn 0.9927 0.1182 0.0236
vn 0.9968 -0.0785 -0.0157
vn 0.9920 0.1259 -0.0000
vn 0.9969 -0.0785 -0.0000
vn 0.9968 -0.0785 0.0157
vn 0.9927 0.1182 -0.0236
vn 0.9919 0.1181 -0.0472
vn 0.8578 -0.5037 0.1023
vn 0.9970 -0.0706 0.0314
vn 0.9969 -0.0628 0.0471
vn 0.9922 0.1024 -0.0709
vn 0.9925 0.0867 -0.0867
vn 0.9970 -0.0550 0.0550
vn 0.9922 0.0708 -0.1024
vn 0.9969 -0.0471 0.0628
vn 0.9919 0.0472 -0.1181
vn 0.8587 -0.3623 0.3623
vn 0.9970 -0.0314 0.0707
vn 0.9968 -0.0157 0.0784
vn 0.8589 -0.1969 0.4727
vn 0.9927 0.0236 -0.1182
vn 0.8592 -0.2838 0.4256
vn 0.8578 -0.1023 0.5037
vn 0.8589 -0.0000 0.5121
vn 0.9969 -0.0000 0.0785
vn 0.9920 -0.0000 -0.1259
vn 0.9968 0.0159 0.0788
vn 0.9927 -0.0236 -0.1182
vn 0.9970 0.0314 0.0706
vn 0.9919 -0.0472 -0.1181
vn 0.9969 0.0471 0.0628
vn 0.9922 -0.0709 -0.1024
vn 0.9970 0.0550 0.0550
vn 0.9925 -0.0866 -0.0866
vn 0.9922 -0.1024 -0.0708
vn 0.8587 0.3623 0.3623
vn 0.9969 0.0628 0.0471
vn 0.9970 0.0707 0.0314
vn 0.9919 -0.1181 -0.0472
vn 0.8592 0.4257 0.2838
vn 0.8589 0.4728 0.1970
vn 0.9968 0.0787 0.0159
vn 0.9927 -0.1182 -0.0236
vn 0.9920 -0.1259 -0.0000
vn 0.8578 0.5037 0.1023
vn 0.9969 0.0785 -0.0000
vn 0.8589 0.5122 -0.0000
vn 0.9968 0.0788 -0.0160
vn 0.9927 -0.1181 0.0236
vn 0.9919 -0.1181 0.0472
vn 0.4962 0.8507 0.1733
vn 0.4970 0.8678 -0.0000
vn 0.8578 0.5037 -0.1023
vn 0.8589 0.4728 -0.1970
vn 0.9970 0.0707 -0.0314
vn 0.8592 0.4257 -0.2838
vn 0.9969 0.0628 -0.0471
vn 0.9922 -0.1024 0.0708
vn 0.9925 -0.0867 0.0867
vn 0.9970 0.0550 -0.0550
vn 0.8587 0.3624 -0.3624
vn 0.9969 0.0471 -0.0628
vn 0.9922 -0.0709 0.1024
vn 0.9919 -0.0472 0.1181
vn 0.9970 0.0314 -0.0707
vn 0.9968 0.0158 -0.0786
vn 0.9927 -0.0236 0.1182
vn 0.9920 -0.0000 0.1260
vn 0.9969 -0.0000 -0.0784
vn 0.9968 -0.0157 -0.0786
vn 0.9927 0.0236 0.1182
vn 0.9970 -0.0314 -0.0707
vn 0.9919 0.0472 0.1181
vn 0.8589 -0.1970 -0.4728
vn 0.9969 -0.0471 -0.0628
vn 0.4957 -0.4799 -0.7239
vn -1.0000 -0.0000 -0.0000
vn -0.0000 -0.9659 0.2590
vn -0.0000 -0.9658 0.2593
vn -0.0000 -0.2588 0.9659
vn -0.0000 -0.2591 0.9658
vn -0.0000 0.2591 -0.9658
vn -0.0000 0.2588 -0.9659
vn -0.0000 0.7073 0.7069
vn -0.0000 0.9658 -0.2592
vn -0.0000 0.9659 -0.2590
vn -0.0000 0.9660 -0.2587
vn -0.0000 -0.7069 -0.7073
vn -0.0000 -0.0000 1.0000
vn -0.0000 -0.5029 0.8644
vn -0.0000 0.5029 0.8644
vn -0.0000 -0.8643 0.5029
vn -0.0000 -0.8644 0.5029
vn -0.0000 -1.0000 -0.0000
vn -0.0000 -0.8644 -0.5029
vn -0.0000 -0.8643 -0.5029
vn -0.0000 0.1961 0.9806
vn -0.0000 -0.1961 0.9806
vn -0.0000 0.3863 0.9224
vn -0.0000 -0.3863 0.9224
vn -0.0000 0.5564 0.8309
vn -0.0000 -0.5565 0.8308
vn -0.0000 0.7072 0.7071
vn -0.0000 -0.5564 0.8309
vn -0.0000 -0.7071 0.7071
vn -0.0000 0.8309 0.5565
vn -0.0000 0.8309 0.5564
vn -0.0000 -0.8309 0.5565
vn -0.0000 0.9224 0.3863
vn -0.0000 -0.9224 0.3863
vn -0.0000 0.9806 0.1962
vn -0.0000 0.9806 0.1961
vn -0.0000 -0.9806 0.1961
vn -0.0000 1.0000 -0.0000
vn -0.0000 0.9806 -0.1962
vn -0.0000 0.9806 -0.1961
vn -0.0000 -0.9806 -0.1961
vn -0.0000 0.9224 -0.3863
vn -0.0000 -0.9806 -0.1962
vn -0.0000 -0.9224 -0.3863
vn -0.0000 0.8309 -0.5565
vn -0.0000 0.8309 -0.5564
vn -0.0000 -0.8309 -0.5564
vn -0.0000 0.7071 -0.7071
vn -0.0000 -0.8308 -0.5565
vn -0.0000 -0.7071 -0.7071
vn -0.0000 0.5565 -0.8309
vn -0.0000 -0.5564 -0.8309
vn -0.0000 0.3863 -0.9224
vn -0.0000 -0.5565 -0.8309
vn -0.0000 -0.3863 -0.9224
vn -0.0000 0.1961 -0.9806
vn -0.0000 0.1962 -0.9806
vn -0.0000 -0.1961 -0.9806
vn -0.0000 -0.0000 -1.0000
vn -0.0000 -0.5029 -0.8644
vn -0.0000 0.5029 -0.8644
vn -0.0000 0.8644 -0.5029
vn -0.0000 0.8643 -0.5029
vn -0.0000 0.8644 0.5029
vn -0.0000 0.8643 0.5029
vn -0.0000 0.9806 0.1960
vn -0.0000 0.7071 0.7071
vn -0.0000 0.5565 0.8308
vn -0.0000 0.8308 -0.5565
vn -0.0000 0.1960 0.9806
vn -0.0000 -0.5565 0.8309
vn -0.0000 -0.1962 -0.9806
vn -0.0000 -0.5565 -0.8308
vn -0.0000 -0.8309 0.5564
vn -0.0000 -0.7071 -0.7072
vn -0.0000 -0.2593 0.9658
vn -0.0000 -0.2592 0.9658
vn -0.0000 -0.2589 0.9659
vn -0.0000 -0.9658 0.2591
vn -0.0000 -0.9659 0.2588
vn -0.0000 0.2591 -0.9659
vn -0.0000 0.2592 -0.9658
vn -0.0000 0.9659 -0.2589
vn -0.0000 -0.7073 -0.7069
vn -0.0000 -0.7072 -0.7070
vt 0.484375 0.242187
vt 0.484375 0.734375
s 1
usemtl Wheel1Mtl
f 1/1/1 2/1/2 3/1/3
f 2/1/2 4/1/4 3/1/3
f 1/1/1 3/1/3 5/1/5
f 6/1/6 1/1/1 5/1/5
f 5/1/5 7/1/7 6/1/6
f 8/1/8 3/1/3 4/1/4
f 4/1/4 9/1/9 8/1/8
f 10/1/10 8/1/8 9/1/9
f 3/1/3 8/1/8 11/1/11
f 5/1/5 3/1/3 11/1/11
f 8/1/8 10/1/10 12/1/12
f 12/1/12 11/1/11 8/1/8
f 13/1/13 12/1/12 10/1/10
f 5/1/5 11/1/11 14/1/14
f 7/1/7 5/1/5 14/1/14
f 14/1/14 15/1/15 7/1/7
f 11/1/11 12/1/12 16/1/16
f 14/1/14 11/1/11 16/1/16
f 13/1/13 16/1/16 12/1/12
f 15/1/15 14/1/14 17/1/17
f 14/1/14 16/1/16 17/1/17
f 17/1/17 18/1/18 15/1/15
f 16/1/16 13/1/13 19/1/19
f 17/1/17 16/1/16 19/1/19
f 18/1/18 17/1/17 20/1/20
f 17/1/17 19/1/19 20/1/20
f 21/1/21 18/1/18 20/1/20
f 13/1/13 22/1/22 19/1/19
f 20/1/20 19/1/19 22/1/22
f 20/1/20 22/1/22 21/1/21
f 22/1/22 13/1/13 23/1/23
f 21/1/21 22/1/22 24/1/24
f 23/1/23 24/1/24 22/1/22
f 25/1/25 26/1/26 27/1/27
f 26/1/26 28/1/28 27/1/27
f 28/1/28 29/1/29 27/1/27
f 29/1/29 30/1/30 27/1/27
f 25/1/25 27/1/27 30/1/30
f 29/1/29 31/1/31 30/1/30
f 31/1/31 32/1/32 30/1/30
f 25/1/25 30/1/30 32/1/32
f 32/1/32 33/1/33 25/1/25
f 34/1/34 25/1/25 33/1/33
f 34/1/34 26/1/26 25/1/25
f 33/1/33 35/1/35 34/1/34
f 36/1/36 34/1/34 35/1/35
f 34/1/34 37/1/37 26/1/26
f 36/1/36 37/1/37 34/1/34
f 36/1/36 38/1/38 37/1/37
f 39/1/39 38/1/38 36/1/36
f 38/1/38 40/1/40 37/1/37
f 39/1/39 41/1/41 38/1/38
f 42/1/42 37/1/37 40/1/40
f 37/1/37 42/1/42 26/1/26
f 40/1/40 43/1/43 42/1/42
f 28/1/28 26/1/26 42/1/42
f 44/1/44 42/1/42 43/1/43
f 42/1/42 44/1/44 28/1/28
f 45/1/45 41/1/41 39/1/39
f 39/1/39 46/1/46 45/1/45
f 47/1/47 45/1/45 46/1/46
f 45/1/45 48/1/48 41/1/41
f 41/1/41 48/1/48 49/1/49
f 45/1/45 47/1/47 50/1/50
f 50/1/50 48/1/48 45/1/45
f 51/1/51 50/1/50 47/1/47
f 52/1/52 49/1/49 48/1/48
f 48/1/48 53/1/53 52/1/52
f 50/1/50 53/1/53 48/1/48
f 54/1/54 52/1/52 53/1/53
f 50/1/50 51/1/51 55/1/55
f 55/1/55 53/1/53 50/1/50
f 56/1/56 55/1/55 51/1/51
f 53/1/53 57/1/57 54/1/54
f 55/1/55 57/1/57 53/1/53
f 58/1/58 54/1/54 57/1/57
f 55/1/55 56/1/56 59/1/59
f 59/1/59 57/1/57 55/1/55
f 57/1/57 60/1/60 58/1/58
f 59/1/59 60/1/60 57/1/57
f 61/1/61 58/1/58 60/1/60
f 60/1/60 59/1/59 62/1/62
f 60/1/60 62/1/62 61/1/61
f 56/1/56 62/1/62 59/1/59
f 61/1/61 62/1/62 63/1/63
f 62/1/62 56/1/56 64/1/64
f 64/1/64 63/1/63 62/1/62
f 56/1/56 65/1/65 64/1/64
f 63/1/63 64/1/64 66/1/66
f 67/1/67 64/1/64 65/1/65
f 64/1/64 67/1/67 66/1/66
f 68/1/68 69/1/69 70/1/70
f 71/1/71 69/1/69 68/1/68
f 69/1/69 72/1/72 70/1/70
f 71/1/71 73/1/73 69/1/69
f 72/1/72 69/1/69 74/1/74
f 73/1/73 74/1/74 69/1/69
f 72/1/72 74/1/74 75/1/75
f 74/1/74 73/1/73 76/1/76
f 76/1/76 75/1/75 74/1/74
f 73/1/73 77/1/77 76/1/76
f 78/1/78 76/1/76 77/1/77
f 77/1/77 73/1/73 79/1/79
f 76/1/76 78/1/78 80/1/80
f 75/1/75 76/1/76 80/1/80
f 66/1/66 78/1/78 77/1/77
f 79/1/79 66/1/66 77/1/77
f 81/1/81 79/1/79 73/1/73
f 81/1/81 73/1/73 71/1/71
f 66/1/66 79/1/79 63/1/63
f 82/1/82 79/1/79 81/1/81
f 82/1/82 63/1/63 79/1/79
f 71/1/71 83/1/83 81/1/81
f 81/1/81 84/1/84 82/1/82
f 84/1/84 81/1/81 83/1/83
f 83/1/83 71/1/71 85/1/85
f 84/1/84 83/1/83 86/1/86
f 85/1/85 86/1/86 83/1/83
f 71/1/71 87/1/87 85/1/85
f 87/1/87 71/1/71 68/1/68
f 85/1/85 87/1/87 88/1/88
f 68/1/68 89/1/89 87/1/87
f 89/1/89 88/1/88 87/1/87
f 89/1/89 68/1/68 90/1/90
f 68/1/68 70/1/70 90/1/90
f 90/1/90 91/1/91 89/1/89
f 88/1/88 89/1/89 92/1/92
f 91/1/91 92/1/92 89/1/89
f 85/1/85 88/1/88 93/1/93
f 86/1/86 85/1/85 93/1/93
f 88/1/88 92/1/92 94/1/94
f 93/1/93 95/1/95 86/1/86
f 93/1/93 88/1/88 96/1/96
f 88/1/88 94/1/94 96/1/96
f 93/1/93 96/1/96 97/1/97
f 95/1/95 93/1/93 97/1/97
f 96/1/96 98/1/98 97/1/97
f 95/1/95 97/1/97 98/1/98
f 98/1/98 96/1/96 99/1/99
f 94/1/94 99/1/99 96/1/96
f 95/1/95 98/1/98 100/1/100
f 99/1/99 94/1/94 101/1/101
f 102/1/102 95/1/95 100/1/100
f 103/1/103 101/1/101 94/1/94
f 95/1/95 102/1/102 104/1/104
f 104/1/104 86/1/86 95/1/95
f 102/1/102 105/1/105 104/1/104
f 105/1/105 102/1/102 106/1/106
f 86/1/86 104/1/104 107/1/107
f 84/1/84 86/1/86 107/1/107
f 108/1/108 105/1/105 106/1/106
f 107/1/107 109/1/109 84/1/84
f 109/1/109 82/1/82 84/1/84
f 104/1/104 110/1/110 107/1/107
f 109/1/109 107/1/107 110/1/110
f 110/1/110 104/1/104 105/1/105
f 82/1/82 109/1/109 61/1/61
f 110/1/110 58/1/58 109/1/109
f 58/1/58 61/1/61 109/1/109
f 61/1/61 63/1/63 82/1/82
f 105/1/105 111/1/111 110/1/110
f 58/1/58 110/1/110 111/1/111
f 105/1/105 108/1/108 112/1/112
f 111/1/111 105/1/105 112/1/112
f 108/1/108 113/1/113 112/1/112
f 113/1/113 111/1/111 112/1/112
f 113/1/113 108/1/108 114/1/114
f 115/1/115 113/1/113 114/1/114
f 111/1/111 113/1/113 116/1/116
f 113/1/113 115/1/115 117/1/117
f 117/1/117 116/1/116 113/1/113
f 115/1/115 118/1/118 117/1/117
f 115/1/115 119/1/119 118/1/118
f 116/1/116 117/1/117 120/1/120
f 118/1/118 120/1/120 117/1/117
f 121/1/121 118/1/118 119/1/119
f 116/1/116 120/1/120 52/1/52
f 118/1/118 121/1/121 122/1/122
f 54/1/54 111/1/111 116/1/116
f 116/1/116 52/1/52 54/1/54
f 111/1/111 54/1/54 58/1/58
f 120/1/120 118/1/118 123/1/123
f 123/1/123 52/1/52 120/1/120
f 124/1/124 123/1/123 118/1/118
f 118/1/118 122/1/122 124/1/124
f 52/1/52 123/1/123 49/1/49
f 124/1/124 49/1/49 123/1/123
f 122/1/122 121/1/121 125/1/125
f 125/1/125 124/1/124 122/1/122
f 121/1/121 126/1/126 125/1/125
f 127/1/127 125/1/125 126/1/126
f 49/1/49 124/1/124 128/1/128
f 125/1/125 127/1/127 129/1/129
f 130/1/130 129/1/129 127/1/127
f 124/1/124 125/1/125 131/1/131
f 132/1/132 128/1/128 124/1/124
f 124/1/124 131/1/131 132/1/132
f 49/1/49 128/1/128 41/1/41
f 132/1/132 41/1/41 128/1/128
f 133/1/133 131/1/131 125/1/125
f 133/1/133 125/1/125 129/1/129
f 40/1/40 132/1/132 131/1/131
f 40/1/40 131/1/131 133/1/133
f 134/1/134 133/1/133 129/1/129
f 129/1/129 130/1/130 134/1/134
f 133/1/133 134/1/134 43/1/43
f 43/1/43 40/1/40 133/1/133
f 135/1/135 134/1/134 130/1/130
f 135/1/135 43/1/43 134/1/134
f 135/1/135 130/1/130 136/1/136
f 137/1/137 135/1/135 136/1/136
f 40/1/40 38/1/38 132/1/132
f 41/1/41 132/1/132 38/1/38
f 135/1/135 137/1/137 138/1/138
f 139/1/139 138/1/138 137/1/137
f 43/1/43 135/1/135 44/1/44
f 138/1/138 139/1/139 140/1/140
f 141/1/141 140/1/140 139/1/139
f 142/1/142 135/1/135 138/1/138
f 135/1/135 142/1/142 44/1/44
f 143/1/143 138/1/138 140/1/140
f 138/1/138 143/1/143 142/1/142
f 140/1/140 141/1/141 144/1/144
f 145/1/145 144/1/144 141/1/141
f 146/1/146 140/1/140 144/1/144
f 140/1/140 146/1/146 143/1/143
f 144/1/144 145/1/145 147/1/147
f 147/1/147 146/1/146 144/1/144
f 148/1/148 147/1/147 145/1/145
f 147/1/147 148/1/148 149/1/149
f 150/1/150 149/1/149 148/1/148
f 146/1/146 147/1/147 151/1/151
f 149/1/149 151/1/151 147/1/147
f 149/1/149 150/1/150 152/1/152
f 151/1/151 149/1/149 153/1/153
f 152/1/152 150/1/150 154/1/154
f 149/1/149 152/1/152 155/1/155
f 149/1/149 155/1/155 153/1/153
f 154/1/154 155/1/155 152/1/152
f 150/1/150 156/1/156 154/1/154
f 151/1/151 153/1/153 157/1/157
f 155/1/155 157/1/157 153/1/153
f 158/1/158 146/1/146 151/1/151
f 151/1/151 157/1/157 158/1/158
f 146/1/146 158/1/158 159/1/159
f 159/1/159 143/1/143 146/1/146
f 157/1/157 160/1/160 158/1/158
f 160/1/160 159/1/159 158/1/158
f 157/1/157 155/1/155 161/1/161
f 143/1/143 159/1/159 162/1/162
f 161/1/161 163/1/163 157/1/157
f 160/1/160 157/1/157 163/1/163
f 164/1/164 143/1/143 162/1/162
f 143/1/143 164/1/164 142/1/142
f 165/1/165 162/1/162 159/1/159
f 159/1/159 160/1/160 165/1/165
f 166/1/166 164/1/164 162/1/162
f 162/1/162 165/1/165 166/1/166
f 28/1/28 142/1/142 164/1/164
f 142/1/142 28/1/28 44/1/44
f 164/1/164 166/1/166 29/1/29
f 29/1/29 28/1/28 164/1/164
f 165/1/165 167/1/167 166/1/166
f 166/1/166 31/1/31 29/1/29
f 166/1/166 167/1/167 31/1/31
f 165/1/165 168/1/168 167/1/167
f 160/1/160 168/1/168 165/1/165
f 160/1/160 169/1/169 168/1/168
f 163/1/163 169/1/169 160/1/160
f 168/1/168 170/1/170 167/1/167
f 167/1/167 171/1/171 31/1/31
f 171/1/171 167/1/167 170/1/170
f 170/1/170 168/1/168 172/1/172
f 169/1/169 172/1/172 168/1/168
f 173/1/173 171/1/171 170/1/170
f 172/1/172 173/1/173 170/1/170
f 32/1/32 31/1/31 171/1/171
f 172/1/172 169/1/169 174/1/174
f 174/1/174 175/1/175 172/1/172
f 173/1/173 172/1/172 175/1/175
f 169/1/169 176/1/176 174/1/174
f 171/1/171 173/1/173 177/1/177
f 177/1/177 32/1/32 171/1/171
f 163/1/163 178/1/178 169/1/169
f 176/1/176 169/1/169 178/1/178
f 179/1/179 178/1/178 163/1/163
f 163/1/163 161/1/161 179/1/179
f 178/1/178 180/1/180 176/1/176
f 181/1/181 179/1/179 161/1/161
f 181/1/181 161/1/161 155/1/155
f 179/1/179 24/1/24 178/1/178
f 180/1/180 178/1/178 24/1/24
f 179/1/179 181/1/181 21/1/21
f 21/1/21 24/1/24 179/1/179
f 155/1/155 182/1/182 181/1/181
f 155/1/155 154/1/154 182/1/182
f 18/1/18 21/1/21 181/1/181
f 18/1/18 181/1/181 182/1/182
f 183/1/183 182/1/182 154/1/154
f 182/1/182 183/1/183 18/1/18
f 154/1/154 184/1/184 183/1/183
f 154/1/154 156/1/156 184/1/184
f 156/1/156 185/1/185 184/1/184
f 186/1/186 183/1/183 184/1/184
f 186/1/186 18/1/18 183/1/183
f 187/1/187 184/1/184 185/1/185
f 186/1/186 184/1/184 187/1/187
f 187/1/187 185/1/185 188/1/188
f 189/1/189 187/1/187 188/1/188
f 187/1/187 189/1/189 190/1/190
f 190/1/190 186/1/186 187/1/187
f 191/1/191 190/1/190 189/1/189
f 191/1/191 189/1/189 192/1/192
f 193/1/193 191/1/191 192/1/192
f 191/1/191 193/1/193 194/1/194
f 193/1/193 195/1/195 194/1/194
f 195/1/195 193/1/193 196/1/196
f 197/1/197 191/1/191 194/1/194
f 195/1/195 197/1/197 194/1/194
f 198/1/198 190/1/190 191/1/191
f 191/1/191 197/1/197 198/1/198
f 196/1/196 199/1/199 195/1/195
f 199/1/199 196/1/196 200/1/200
f 201/1/201 199/1/199 200/1/200
f 198/1/198 202/1/202 190/1/190
f 186/1/186 190/1/190 202/1/202
f 6/1/6 202/1/202 198/1/198
f 197/1/197 6/1/6 198/1/198
f 7/1/7 186/1/186 202/1/202
f 6/1/6 7/1/7 202/1/202
f 7/1/7 15/1/15 186/1/186
f 18/1/18 186/1/186 15/1/15
f 199/1/199 201/1/201 203/1/203
f 204/1/204 203/1/203 201/1/201
f 199/1/199 205/1/205 195/1/195
f 197/1/197 195/1/195 205/1/205
f 205/1/205 199/1/199 206/1/206
f 203/1/203 206/1/206 199/1/199
f 207/1/207 197/1/197 205/1/205
f 206/1/206 207/1/207 205/1/205
f 6/1/6 197/1/197 208/1/208
f 197/1/197 207/1/207 208/1/208
f 1/1/1 6/1/6 208/1/208
f 207/1/207 1/1/1 208/1/208
f 203/1/203 204/1/204 209/1/209
f 103/1/103 209/1/209 204/1/204
f 209/1/209 103/1/103 210/1/210
f 210/1/210 103/1/103 94/1/94
f 94/1/94 211/1/211 210/1/210
f 209/1/209 210/1/210 211/1/211
f 211/1/211 94/1/94 92/1/92
f 92/1/92 91/1/91 211/1/211
f 209/1/209 211/1/211 212/1/212
f 203/1/203 209/1/209 212/1/212
f 212/1/212 211/1/211 91/1/91
f 203/1/203 212/1/212 213/1/213
f 206/1/206 203/1/203 213/1/213
f 91/1/91 214/1/214 212/1/212
f 213/1/213 212/1/212 214/1/214
f 215/1/215 206/1/206 213/1/213
f 213/1/213 214/1/214 215/1/215
f 206/1/206 215/1/215 216/1/216
f 207/1/207 206/1/206 216/1/216
f 217/1/217 214/1/214 91/1/91
f 91/1/91 90/1/90 217/1/217
f 216/1/216 218/1/218 207/1/207
f 215/1/215 219/1/219 216/1/216
f 218/1/218 216/1/216 219/1/219
f 1/1/1 207/1/207 218/1/218
f 219/1/219 215/1/215 220/1/220
f 214/1/214 220/1/220 215/1/215
f 214/1/214 217/1/217 221/1/221
f 220/1/220 214/1/214 221/1/221
f 90/1/90 222/1/222 217/1/217
f 90/1/90 70/1/70 222/1/222
f 217/1/217 223/1/223 221/1/221
f 217/1/217 222/1/222 223/1/223
f 221/1/221 224/1/224 220/1/220
f 221/1/221 223/1/223 224/1/224
f 220/1/220 224/1/224 225/1/225
f 220/1/220 225/1/225 219/1/219
f 226/1/226 224/1/224 223/1/223
f 222/1/222 226/1/226 223/1/223
f 227/1/227 225/1/225 224/1/224
f 224/1/224 226/1/226 227/1/227
f 219/1/219 225/1/225 228/1/228
f 219/1/219 228/1/228 218/1/218
f 225/1/225 227/1/227 229/1/229
f 229/1/229 228/1/228 225/1/225
f 218/1/218 228/1/228 2/1/2
f 228/1/228 229/1/229 230/1/230
f 230/1/230 2/1/2 228/1/228
f 218/1/218 2/1/2 1/1/1
f 231/2/231 232/2/231 233/2/231
f 231/2/231 233/2/231 234/2/231
f 233/2/231 232/2/231 235/2/231
f 235/2/231 232/2/231 236/2/231
f 237/2/231 236/2/231 232/2/231
f 236/2/231 237/2/231 238/2/231
f 232/2/231 239/2/231 240/2/232
f 232/2/231 241/2/231 239/2/231
f 231/2/231 241/2/231 232/2/231
f 239/2/231 241/2/231 242/2/232
f 243/2/231 231/2/231 244/2/233
f 245/2/231 231/2/231 243/2/231
f 245/2/231 246/2/231 231/2/231
f 246/2/231 245/2/231 247/2/231
f 231/2/231 248/2/231 241/2/231
f 248/2/231 249/2/231 241/2/231
f 249/2/231 248/2/231 250/2/233
f 231/2/231 251/2/231 248/2/231
f 251/2/231 231/2/231 246/2/231
f 248/2/231 251/2/231 252/2/231
f 248/2/231 252/2/231 253/2/231
f 252/2/231 251/2/231 254/2/233
f 251/2/231 246/2/231 255/2/231
f 251/2/231 255/2/231 256/2/231
f 257/2/231 255/2/231 246/2/231
f 255/2/231 257/2/231 258/2/231
f 247/2/231 259/2/231 246/2/231
f 246/2/231 259/2/231 260/2/233
f 261/2/231 259/2/231 247/2/231
f 259/2/231 261/2/231 262/2/231
f 227/1/227 263/1/234 229/1/229
f 263/1/234 230/1/230 229/1/229
f 2/1/2 230/1/230 264/1/235
f 263/1/234 227/1/227 265/1/236
f 226/1/226 265/1/236 227/1/227
f 266/1/237 263/1/234 265/1/236
f 265/1/236 226/1/226 267/1/238
f 267/1/238 266/1/237 265/1/236
f 230/1/230 263/1/234 268/1/239
f 269/1/240 267/1/238 226/1/226
f 230/1/230 270/1/241 264/1/235
f 270/1/241 230/1/230 268/1/239
f 271/1/242 268/1/239 263/1/234
f 266/1/237 271/1/242 263/1/234
f 266/1/237 267/1/238 272/1/243
f 269/1/240 272/1/243 267/1/238
f 273/1/244 266/1/237 272/1/243
f 266/1/237 273/1/244 274/1/245
f 274/1/245 271/1/242 266/1/237
f 272/1/243 275/1/246 273/1/244
f 276/1/247 271/1/242 274/1/245
f 277/1/248 271/1/242 276/1/247
f 271/1/242 277/1/248 278/1/249
f 268/1/239 271/1/242 278/1/249
f 278/1/249 270/1/241 268/1/239
f 279/1/250 278/1/249 277/1/248
f 278/1/249 279/1/250 280/1/251
f 270/1/241 278/1/249 280/1/251
f 280/1/251 279/1/250 281/1/252
f 281/1/252 270/1/241 280/1/251
f 279/1/250 282/1/253 281/1/252
f 283/1/254 281/1/252 282/1/253
f 270/1/241 281/1/252 284/1/255
f 281/1/252 283/1/254 285/1/256
f 285/1/256 284/1/255 281/1/252
f 4/1/4 270/1/241 284/1/255
f 270/1/241 4/1/4 264/1/235
f 284/1/255 285/1/256 9/1/9
f 9/1/9 4/1/4 284/1/255
f 4/1/4 2/1/2 264/1/235
f 285/1/256 10/1/10 9/1/9
f 286/1/257 285/1/256 283/1/254
f 10/1/10 285/1/256 286/1/257
f 286/1/257 283/1/254 287/1/258
f 288/1/259 286/1/257 287/1/258
f 286/1/257 288/1/259 289/1/260
f 289/1/260 10/1/10 286/1/257
f 290/1/261 289/1/260 288/1/259
f 289/1/260 290/1/261 291/1/262
f 292/1/263 291/1/262 290/1/261
f 10/1/10 289/1/260 293/1/264
f 291/1/262 293/1/264 289/1/260
f 291/1/262 292/1/263 294/1/265
f 292/1/263 295/1/266 294/1/265
f 291/1/262 294/1/265 296/1/267
f 295/1/266 296/1/267 294/1/265
f 295/1/266 292/1/263 297/1/268
f 296/1/267 298/1/269 291/1/262
f 293/1/264 291/1/262 298/1/269
f 296/1/267 295/1/266 299/1/270
f 298/1/269 13/1/13 293/1/264
f 13/1/13 10/1/10 293/1/264
f 296/1/267 23/1/23 298/1/269
f 13/1/13 298/1/269 23/1/23
f 299/1/270 180/1/180 296/1/267
f 23/1/23 296/1/267 180/1/180
f 180/1/180 299/1/270 176/1/176
f 24/1/24 23/1/23 180/1/180
f 300/1/271 176/1/176 299/1/270
f 295/1/266 300/1/271 299/1/270
f 176/1/176 300/1/271 174/1/174
f 175/1/175 174/1/174 300/1/271
f 295/1/266 301/1/272 300/1/271
f 301/1/272 175/1/175 300/1/271
f 297/1/268 301/1/272 295/1/266
f 301/1/272 297/1/268 302/1/273
f 302/1/273 303/1/274 301/1/272
f 301/1/272 303/1/274 175/1/175
f 304/1/275 303/1/274 302/1/273
f 305/1/276 175/1/175 303/1/274
f 304/1/275 305/1/276 303/1/274
f 175/1/175 305/1/276 173/1/173
f 304/1/275 306/1/277 305/1/276
f 307/1/278 173/1/173 305/1/276
f 305/1/276 306/1/277 307/1/278
f 173/1/173 307/1/278 177/1/177
f 306/1/277 308/1/279 307/1/278
f 307/1/278 308/1/279 309/1/280
f 309/1/280 177/1/177 307/1/278
f 308/1/279 310/1/281 309/1/280
f 311/1/282 309/1/280 310/1/281
f 177/1/177 309/1/280 312/1/283
f 32/1/32 177/1/177 312/1/283
f 309/1/280 311/1/282 313/1/284
f 314/1/285 313/1/284 311/1/282
f 314/1/285 311/1/282 315/1/286
f 316/1/287 309/1/280 313/1/284
f 309/1/280 316/1/287 312/1/283
f 317/1/288 313/1/284 314/1/285
f 317/1/288 316/1/287 313/1/284
f 318/1/289 314/1/285 315/1/286
f 318/1/289 317/1/288 314/1/285
f 318/1/289 315/1/286 319/1/290
f 320/1/291 318/1/289 319/1/290
f 33/1/33 312/1/283 316/1/287
f 312/1/283 33/1/33 32/1/32
f 35/1/35 316/1/287 317/1/288
f 35/1/35 33/1/33 316/1/287
f 317/1/288 318/1/289 321/1/292
f 321/1/292 35/1/35 317/1/288
f 318/1/289 320/1/291 322/1/293
f 323/1/294 321/1/292 318/1/289
f 318/1/289 322/1/293 323/1/294
f 320/1/291 324/1/295 322/1/293
f 324/1/295 323/1/294 322/1/293
f 324/1/295 320/1/291 325/1/296
f 326/1/297 324/1/295 325/1/296
f 35/1/35 321/1/292 327/1/298
f 323/1/294 327/1/298 321/1/292
f 327/1/298 323/1/294 328/1/299
f 35/1/35 327/1/298 36/1/36
f 327/1/298 328/1/299 39/1/39
f 39/1/39 36/1/36 327/1/298
f 46/1/46 328/1/299 323/1/294
f 46/1/46 39/1/39 328/1/299
f 323/1/294 329/1/300 46/1/46
f 323/1/294 324/1/295 329/1/300
f 47/1/47 46/1/46 329/1/300
f 330/1/301 329/1/300 324/1/295
f 329/1/300 330/1/301 47/1/47
f 324/1/295 331/1/302 330/1/301
f 324/1/295 326/1/297 331/1/302
f 331/1/302 332/1/303 330/1/301
f 332/1/303 47/1/47 330/1/301
f 326/1/297 333/1/304 331/1/302
f 331/1/302 333/1/304 332/1/303
f 333/1/304 326/1/297 334/1/305
f 335/1/306 333/1/304 334/1/305
f 333/1/304 335/1/306 336/1/307
f 333/1/304 337/1/308 332/1/303
f 337/1/308 333/1/304 336/1/307
f 335/1/306 338/1/309 336/1/307
f 338/1/309 337/1/308 336/1/307
f 335/1/306 339/1/310 338/1/309
f 340/1/311 338/1/309 339/1/310
f 337/1/308 51/1/51 332/1/303
f 47/1/47 332/1/303 51/1/51
f 51/1/51 337/1/308 56/1/56
f 337/1/308 338/1/309 65/1/65
f 65/1/65 56/1/56 337/1/308
f 338/1/309 340/1/311 341/1/312
f 341/1/312 65/1/65 338/1/309
f 342/1/313 341/1/312 340/1/311
f 340/1/311 343/1/314 342/1/313
f 344/1/315 342/1/313 343/1/314
f 78/1/78 341/1/312 342/1/313
f 342/1/313 344/1/315 345/1/316
f 342/1/313 80/1/80 78/1/78
f 80/1/80 342/1/313 345/1/316
f 341/1/312 78/1/78 67/1/67
f 65/1/65 341/1/312 67/1/67
f 78/1/78 66/1/66 67/1/67
f 346/1/317 345/1/316 344/1/315
f 346/1/317 80/1/80 345/1/316
f 346/1/317 344/1/315 347/1/318
f 80/1/80 346/1/317 75/1/75
f 347/1/318 348/1/319 346/1/317
f 348/1/319 75/1/75 346/1/317
f 348/1/319 347/1/318 349/1/320
f 275/1/246 348/1/319 349/1/320
f 75/1/75 348/1/319 350/1/321
f 348/1/319 275/1/246 351/1/322
f 351/1/322 350/1/321 348/1/319
f 275/1/246 272/1/243 351/1/322
f 75/1/75 350/1/321 72/1/72
f 272/1/243 269/1/240 351/1/322
f 350/1/321 351/1/322 269/1/240
f 350/1/321 269/1/240 352/1/323
f 352/1/323 72/1/72 350/1/321
f 226/1/226 352/1/323 269/1/240
f 352/1/323 70/1/70 72/1/72
f 226/1/226 222/1/222 352/1/323
f 70/1/70 352/1/323 222/1/222
f 353/2/324 354/2/324 355/2/324
f 356/2/324 355/2/324 354/2/324
f 355/2/324 356/2/324 357/2/324
f 358/2/324 354/2/324 353/2/324
f 354/2/324 358/2/324 359/2/324
f 354/2/324 359/2/324 360/2/324
f 359/2/324 358/2/324 361/2/324
f 359/2/324 362/2/324 360/2/324
f 362/2/324 359/2/324 363/2/324
f 364/2/324 360/2/324 362/2/324
f 365/2/324 363/2/324 359/2/324
f 366/2/324 361/2/324 358/2/324
f 358/2/324 353/2/324 367/2/324
f 361/2/324 366/2/324 368/2/324
f 367/2/324 353/2/324 369/2/324
f 369/2/324 353/2/324 370/2/324
f 371/2/324 367/2/324 369/2/324
f 372/2/324 370/2/324 353/2/324
f 367/2/324 371/2/324 373/2/324
f 372/2/324 353/2/324 374/2/324
f 375/2/324 371/2/324 372/2/324
f 375/2/324 372/2/324 376/2/324
f 371/2/324 375/2/324 377/2/324
f 376/2/324 372/2/324 378/2/324
f 374/2/324 378/2/324 372/2/324
f 377/2/324 379/2/324 371/2/324
f 378/2/324 374/2/324 380/2/324
f 381/2/324 371/2/324 379/2/324
f 371/2/324 381/2/324 373/2/324
f 380/2/324 374/2/324 382/2/324
f 383/2/324 373/2/324 381/2/324
f 374/2/324 384/2/324 382/2/324
f 373/2/324 383/2/324 385/2/324
f 386/2/324 373/2/324 385/2/324
f 373/2/324 386/2/324 366/2/324
f 366/2/324 386/2/324 387/2/324
f 387/2/324 388/2/324 366/2/324
f 384/2/324 374/2/324 357/2/324
f 384/2/324 357/2/324 389/2/324
f 390/2/324 389/2/324 357/2/324
f 357/2/324 391/2/324 390/2/324
f 357/2/324 356/2/324 391/2/324
f 391/2/324 356/2/324 392/2/324
f 356/2/324 393/2/324 392/2/324
f 394/2/324 393/2/324 356/2/324
f 393/2/324 394/2/324 395/2/324
f 395/2/324 394/2/324 396/2/324
f 396/2/324 394/2/324 397/2/324
f 364/2/324 397/2/324 394/2/324
f 360/2/324 364/2/324 394/2/324
f 397/2/324 364/2/324 398/2/324
f 364/2/324 399/2/324 398/2/324
f 399/2/324 364/2/324 400/2/324
f 401/2/324 400/2/324 364/2/324
f 400/2/324 401/2/324 402/2/324
f 401/2/324 403/2/324 402/2/324
f 403/2/324 401/2/324 404/2/324
f 401/2/324 365/2/324 404/2/324
f 363/2/324 365/2/324 401/2/324
f 365/2/324 405/2/324 404/2/324
f 405/2/324 365/2/324 406/2/324
f 368/2/324 406/2/324 365/2/324
f 406/2/324 368/2/324 407/2/324
f 408/2/324 407/2/324 368/2/324
f 368/2/324 388/2/324 408/2/324
f 388/2/324 368/2/324 366/2/324
f 409/2/324 410/2/324 411/2/324
f 410/2/324 409/2/324 412/2/324
f 413/2/324 414/2/324 415/2/324
f 414/2/324 413/2/324 416/2/324
f 417/2/324 418/2/324 419/2/324
f 419/2/324 418/2/324 420/2/324
f 421/2/324 422/2/324 423/2/324
f 422/2/324 421/2/324 424/2/324
f 425/2/324 426/2/324 427/2/324
f 426/2/324 425/2/324 428/2/324
f 429/2/324 430/2/324 431/2/324
f 429/2/324 431/2/324 432/2/324
f 433/2/325 434/2/325 435/2/326
f 435/2/326 434/2/325 436/2/326
f 437/2/327 438/2/328 439/2/327
f 439/2/327 438/2/328 440/2/327
f 441/2/329 442/2/329 443/2/329
f 443/2/329 442/2/329 444/2/330
f 445/2/331 446/2/331 447/2/331
f 447/2/331 446/2/331 448/2/331
f 449/2/332 450/2/333 451/2/332
f 451/2/332 450/2/333 452/2/334
f 453/2/335 454/2/335 455/2/335
f 455/2/335 454/2/335 456/2/335
f 457/2/336 458/2/336 459/2/336
f 459/2/336 458/2/336 460/2/336
f 461/2/337 462/2/337 463/2/337
f 462/2/337 461/2/337 464/2/337
f 465/2/338 466/2/338 467/2/338
f 466/2/338 465/2/338 468/2/338
f 469/2/339 470/2/339 471/2/340
f 470/2/339 469/2/339 472/2/340
f 473/2/341 474/2/341 475/2/341
f 475/2/341 474/2/341 476/2/341
f 477/2/342 478/2/343 479/2/342
f 478/2/343 477/2/342 480/2/342
f 481/2/344 482/2/336 483/2/336
f 483/2/336 484/2/344 481/2/344
f 485/2/345 483/2/336 482/2/336
f 486/2/346 481/2/344 484/2/344
f 482/2/336 487/2/345 485/2/345
f 484/2/344 488/2/346 486/2/346
f 489/2/347 485/2/345 487/2/345
f 490/2/348 486/2/346 488/2/346
f 487/2/345 491/2/347 489/2/347
f 488/2/346 492/2/348 490/2/348
f 493/2/349 489/2/347 491/2/347
f 494/2/350 490/2/348 492/2/348
f 491/2/347 495/2/351 493/2/349
f 492/2/348 496/2/350 494/2/350
f 497/2/352 493/2/349 495/2/351
f 496/2/350 498/2/353 494/2/350
f 495/2/351 499/2/352 497/2/352
f 498/2/353 496/2/350 500/2/354
f 501/2/355 497/2/352 499/2/352
f 500/2/354 502/2/356 498/2/353
f 499/2/352 503/2/355 501/2/355
f 502/2/356 500/2/354 504/2/356
f 505/2/357 501/2/355 503/2/355
f 504/2/356 506/2/358 502/2/356
f 503/2/355 507/2/357 505/2/357
f 506/2/358 504/2/356 508/2/359
f 509/2/360 505/2/357 507/2/357
f 508/2/359 510/2/361 506/2/358
f 507/2/357 511/2/360 509/2/360
f 510/2/361 508/2/359 512/2/361
f 513/2/341 509/2/360 511/2/360
f 512/2/361 514/2/362 510/2/361
f 511/2/360 515/2/341 513/2/341
f 514/2/362 512/2/361 516/2/363
f 517/2/364 513/2/341 515/2/341
f 516/2/363 518/2/365 514/2/362
f 515/2/341 519/2/366 517/2/364
f 518/2/365 516/2/363 520/2/365
f 521/2/367 517/2/364 519/2/366
f 520/2/365 522/2/368 518/2/365
f 519/2/366 523/2/367 521/2/367
f 522/2/368 520/2/365 524/2/369
f 525/2/370 521/2/367 523/2/367
f 524/2/369 526/2/371 522/2/368
f 523/2/367 527/2/372 525/2/370
f 526/2/371 524/2/369 528/2/371
f 529/2/373 525/2/370 527/2/372
f 530/2/374 526/2/371 528/2/371
f 527/2/372 531/2/373 529/2/373
f 528/2/371 532/2/374 530/2/374
f 533/2/375 529/2/373 531/2/373
f 534/2/376 530/2/374 532/2/374
f 531/2/373 535/2/377 533/2/375
f 532/2/374 536/2/376 534/2/376
f 537/2/378 533/2/375 535/2/377
f 538/2/379 534/2/376 536/2/376
f 535/2/377 539/2/378 537/2/378
f 536/2/376 540/2/380 538/2/379
f 541/2/381 537/2/378 539/2/378
f 542/2/382 538/2/379 540/2/380
f 539/2/378 543/2/381 541/2/381
f 540/2/380 544/2/382 542/2/382
f 543/2/381 542/2/382 544/2/382
f 544/2/382 541/2/381 543/2/381
f 545/2/383 546/2/383 547/2/383
f 546/2/383 545/2/383 548/2/383
f 549/2/384 550/2/384 551/2/384
f 550/2/384 549/2/384 552/2/384
f 553/2/382 554/2/382 555/2/382
f 555/2/382 554/2/382 556/2/382
f 557/2/385 558/2/386 559/2/385
f 559/2/385 558/2/386 560/2/385
f 561/2/387 562/2/388 563/2/388
f 563/2/388 562/2/388 564/2/387
f 565/2/361 566/2/361 567/2/361
f 567/2/361 566/2/361 568/2/361
f 569/2/356 570/2/389 571/2/389
f 571/2/389 572/2/356 569/2/356
f 573/2/361 571/2/389 570/2/389
f 574/2/353 569/2/356 572/2/356
f 570/2/389 575/2/361 573/2/361
f 572/2/356 576/2/353 574/2/353
f 577/2/362 573/2/361 575/2/361
f 578/2/390 574/2/353 576/2/353
f 575/2/361 579/2/362 577/2/362
f 576/2/353 580/2/390 578/2/390
f 581/2/365 577/2/362 579/2/362
f 580/2/390 582/2/348 578/2/390
f 579/2/362 583/2/365 581/2/365
f 582/2/348 580/2/390 584/2/391
f 585/2/392 581/2/365 583/2/365
f 584/2/391 586/2/346 582/2/348
f 583/2/365 587/2/392 585/2/392
f 586/2/346 584/2/391 588/2/346
f 589/2/371 585/2/392 587/2/392
f 588/2/346 590/2/344 586/2/346
f 587/2/392 591/2/371 589/2/371
f 590/2/344 588/2/346 592/2/393
f 591/2/371 593/2/374 589/2/371
f 594/2/336 590/2/344 592/2/393
f 593/2/374 591/2/371 595/2/374
f 590/2/344 594/2/336 596/2/336
f 595/2/374 597/2/376 593/2/374
f 594/2/336 598/2/345 596/2/336
f 597/2/376 595/2/374 599/2/376
f 598/2/345 594/2/336 600/2/345
f 599/2/376 601/2/379 597/2/376
f 600/2/345 602/2/347 598/2/345
f 601/2/379 599/2/376 603/2/379
f 602/2/347 600/2/345 604/2/347
f 603/2/379 605/2/382 601/2/379
f 606/2/351 602/2/347 604/2/347
f 605/2/382 603/2/379 607/2/382
f 602/2/347 606/2/351 608/2/394
f 609/2/395 605/2/382 607/2/382
f 605/2/382 609/2/395 610/2/381
f 609/2/395 611/2/378 610/2/381
f 606/2/351 612/2/352 608/2/394
f 611/2/378 609/2/395 613/2/378
f 612/2/352 606/2/351 614/2/352
f 613/2/378 615/2/375 611/2/378
f 616/2/355 612/2/352 614/2/352
f 615/2/375 613/2/378 617/2/396
f 612/2/352 616/2/355 618/2/397
f 619/2/373 615/2/375 617/2/396
f 616/2/355 620/2/357 618/2/397
f 615/2/375 619/2/373 621/2/398
f 620/2/357 616/2/355 622/2/357
f 619/2/373 623/2/372 621/2/398
f 622/2/357 624/2/360 620/2/357
f 623/2/372 619/2/373 625/2/372
f 624/2/360 622/2/357 626/2/360
f 625/2/372 627/2/367 623/2/372
f 628/2/341 624/2/360 626/2/360
f 627/2/367 625/2/372 629/2/367
f 624/2/360 628/2/341 630/2/341
f 631/2/366 627/2/367 629/2/367
f 628/2/341 631/2/366 630/2/341
f 627/2/367 631/2/366 632/2/366
f 631/2/366 628/2/341 632/2/366
f 633/2/399 634/2/400 635/2/401
f 634/2/400 633/2/399 636/2/401
f 637/2/402 638/2/403 639/2/402
f 639/2/402 638/2/403 640/2/402
f 641/2/390 642/2/390 643/2/390
f 643/2/390 642/2/390 644/2/390
f 645/2/404 646/2/405 647/2/405
f 646/2/405 645/2/404 648/2/405
f 649/2/406 650/2/332 651/2/332
f 651/2/332 650/2/332 652/2/332
f 653/2/407 654/2/408 655/2/407
f 655/2/407 654/2/408 656/2/408
