# Blender 5.1.2
# www.blender.org
mtllib Lock.mtl
o Lock
v 0.082428 -0.451317 0.254500
v 0.048245 -0.537521 0.254500
v 0.082428 -0.537521 0.156424
v 0.048245 -0.537521 -0.245500
v 0.082428 -0.451317 -0.245500
v 0.082428 -0.537521 -0.147424
v 0.082428 -0.184319 -0.245500
v 0.048245 -0.098122 -0.245500
v 0.082428 -0.098122 -0.147424
v -0.057655 -0.537521 -0.245500
v 0.048245 -0.537521 0.254500
v -0.057655 -0.537521 0.254500
v 0.082428 -0.537521 0.156424
v 0.048245 -0.537521 -0.245500
v 0.082428 -0.537521 -0.147424
v -0.091837 -0.537521 0.156424
v -0.091837 -0.537521 -0.147424
v -0.091837 -0.451317 0.254500
v -0.091837 -0.451317 -0.245500
v -0.057655 -0.537521 -0.245500
v -0.091837 -0.184319 -0.245500
v 0.082428 -0.184319 -0.245500
v 0.082428 -0.451317 -0.245500
v 0.048245 -0.537521 -0.245500
v -0.057655 -0.098122 -0.245500
v 0.048245 -0.098122 -0.245500
v -0.091837 -0.184319 0.254500
v 0.048245 -0.537521 0.254500
v -0.057655 -0.537521 0.254500
v 0.082428 -0.451317 0.254500
v 0.082428 -0.537521 -0.147424
v 0.082428 -0.537521 0.156424
v 0.082428 -0.184319 0.254500
v 0.082428 -0.451317 -0.245500
v 0.082428 -0.184319 -0.245500
v 0.082428 -0.098122 -0.147424
v 0.082428 -0.098122 0.156424
v 0.048245 -0.098122 0.254500
v 0.048245 -0.098122 0.254500
v -0.057655 -0.098122 0.254500
v -0.091837 -0.098122 0.156424
v -0.091837 -0.098122 -0.147424
v -0.057655 -0.098122 -0.245500
v 0.048245 -0.098122 -0.245500
v -0.057655 -0.098122 0.254500
v 0.082428 -0.098122 0.156424
v 0.082428 -0.098122 -0.147424
v 0.040919 -0.100121 0.239855
v 0.040919 0.149178 0.170921
v 0.040919 0.100380 0.208324
v 0.040919 0.043678 0.231836
v 0.040919 -0.017319 0.239855
v 0.059817 0.082680 0.177705
v 0.059817 -0.017319 0.204500
v 0.059817 -0.100121 0.204500
v 0.059817 0.034477 0.197685
v 0.040919 -0.017319 0.169145
v 0.040919 -0.100121 0.169145
v 0.040919 0.025284 0.163535
v 0.040919 0.065079 0.147086
v 0.040919 0.099182 0.120921
v 0.059817 0.124184 0.145921
v 0.040919 0.125282 0.086822
v 0.059817 0.155884 0.104500
v 0.040919 0.141777 0.047113
v 0.059817 0.175880 0.056263
v 0.040919 0.147377 0.004500
v 0.040919 0.186577 0.122178
v 0.040919 0.210083 0.065414
v 0.040919 0.141777 -0.038113
v 0.059817 0.182678 0.004500
v 0.040919 0.218079 0.004500
v 0.059817 0.175880 -0.047264
v 0.040919 0.210083 -0.056415
v 0.040919 0.125282 -0.077823
v 0.059817 0.155884 -0.095500
v 0.040919 0.186577 -0.113178
v 0.059817 0.124184 -0.136921
v 0.040919 0.099182 -0.111921
v 0.040919 0.065079 -0.138086
v 0.040919 0.025284 -0.154535
v 0.059817 0.082680 -0.168705
v 0.040919 0.149178 -0.161921
v 0.040919 0.100380 -0.199324
v 0.040919 0.043678 -0.222836
v 0.059817 0.034477 -0.188685
v 0.040919 -0.017319 -0.230855
v 0.040919 -0.100121 -0.230855
v 0.059817 -0.017319 -0.195500
v 0.059817 -0.100121 -0.195500
v 0.040919 -0.017319 -0.160145
v 0.040919 -0.100121 -0.160145
v -0.050329 0.218079 0.004500
v -0.050329 0.149178 0.170921
v -0.050329 0.210083 0.065414
v -0.050329 0.186577 0.122178
v -0.004705 0.232780 0.004500
v -0.004705 0.224182 0.069204
v -0.004705 0.199280 0.129500
v -0.004705 0.159477 0.181277
v 0.040919 0.149178 0.170921
v 0.040919 0.186577 0.122178
v 0.040919 0.210083 0.065414
v 0.040919 0.218079 0.004500
v 0.040919 0.210083 -0.056415
v 0.040919 0.186577 -0.113178
v 0.040919 0.149178 -0.161921
v -0.004705 0.224182 -0.060205
v -0.004705 0.199280 -0.120500
v -0.050329 0.210083 -0.056415
v -0.050329 0.186577 -0.113178
v -0.050329 0.149178 -0.161921
v -0.004705 0.159477 -0.172277
v -0.050329 0.043678 0.231836
v -0.050329 -0.017319 0.239855
v -0.004705 -0.017319 0.254500
v -0.004705 -0.100121 0.254500
v -0.050329 -0.100121 0.239855
v 0.040919 -0.100121 0.239855
v -0.050329 0.149178 0.170921
v -0.050329 0.100380 0.208324
v -0.004705 0.159477 0.181277
v -0.004705 0.047379 0.245981
v -0.004705 0.107681 0.221006
v 0.040919 0.149178 0.170921
v 0.040919 0.100380 0.208324
v 0.040919 0.043678 0.231836
v 0.040919 -0.017319 0.239855
v -0.004705 0.088783 -0.101566
v 0.040919 0.099182 -0.111921
v 0.040919 0.065079 -0.138086
v -0.004705 0.057678 -0.125404
v 0.040919 0.025284 -0.154535
v -0.004705 0.021584 -0.140389
v -0.004705 0.088783 -0.101566
v -0.050329 0.099182 -0.111921
v -0.050329 0.065079 -0.138086
v -0.004705 0.057678 -0.125404
v -0.050329 0.025284 -0.154535
v -0.004705 0.021584 -0.140389
v -0.050329 -0.017319 -0.160145
v -0.004705 -0.017319 -0.145500
v -0.004705 -0.100121 -0.145500
v -0.050329 -0.100121 -0.160145
v 0.040919 -0.017319 -0.160145
v 0.040919 -0.100121 -0.160145
v -0.004705 -0.017319 -0.145500
v -0.004705 -0.100121 -0.145500
v -0.050329 0.043678 0.231836
v -0.050329 -0.017319 0.239855
v -0.050329 -0.100121 0.239855
v -0.069227 -0.100121 0.204500
v -0.069227 -0.017319 0.204500
v -0.050329 -0.100121 0.169145
v -0.050329 -0.017319 0.169145
v -0.050329 0.025284 0.163535
v -0.069227 0.034477 0.197685
v -0.050329 0.065079 0.147086
v -0.069227 0.082680 0.177705
v -0.050329 0.099182 0.120921
v -0.050329 0.125282 0.086822
v -0.069227 0.124184 0.145921
v -0.050329 0.141777 0.047113
v -0.050329 0.147377 0.004500
v -0.069227 0.175880 0.056263
v -0.050329 0.141777 -0.038114
v -0.069227 0.182678 0.004500
v -0.069227 0.155884 0.104500
v -0.050329 0.218079 0.004500
v -0.050329 0.149178 0.170921
v -0.050329 0.210083 0.065414
v -0.050329 0.186577 0.122178
v -0.050329 0.100380 0.208324
v -0.050329 0.210083 -0.056415
v -0.050329 0.186577 -0.113178
v -0.069227 0.175880 -0.047264
v -0.069227 0.155884 -0.095500
v -0.069227 0.124184 -0.136921
v -0.050329 0.125282 -0.077823
v -0.050329 0.099182 -0.111921
v -0.050329 0.065079 -0.138086
v -0.050329 0.149178 -0.161921
v -0.069227 0.082680 -0.168705
v -0.050329 0.025284 -0.154535
v -0.050329 -0.017319 -0.160145
v -0.050329 -0.100121 -0.160145
v -0.069227 -0.100121 -0.195500
v -0.069227 -0.017319 -0.195500
v -0.050329 -0.100121 -0.230855
v -0.069227 0.034477 -0.188685
v -0.050329 -0.017319 -0.230855
v -0.050329 0.100380 -0.199324
v -0.050329 0.043678 -0.222836
v -0.004705 0.088783 0.110566
v -0.050329 0.099182 0.120921
v -0.050329 0.125282 0.086822
v -0.004705 0.112579 0.079500
v -0.050329 0.141777 0.047113
v -0.004705 0.127579 0.043323
v -0.050329 0.147377 0.004500
v -0.004705 0.132683 0.004500
v -0.004705 0.127579 -0.034323
v -0.050329 0.141777 -0.038114
v -0.004705 0.112579 -0.070500
v -0.004705 0.088783 0.110566
v 0.040919 0.099182 0.120921
v 0.040919 0.125282 0.086822
v -0.004705 0.112579 0.079500
v 0.040919 0.141777 0.047113
v -0.004705 0.127579 0.043323
v 0.040919 0.147377 0.004500
v -0.004705 0.132683 0.004500
v -0.004705 0.127579 -0.034323
v 0.040919 0.141777 -0.038113
v -0.004705 0.112579 -0.070500
v 0.040919 0.125282 -0.077823
v -0.004705 0.088783 -0.101566
v 0.040919 0.099182 -0.111921
v -0.050329 0.125282 -0.077823
v -0.004705 0.088783 -0.101566
v -0.050329 0.099182 -0.111921
v -0.050329 -0.100121 0.169145
v -0.050329 -0.017319 0.169145
v -0.004705 -0.100121 0.154500
v -0.004705 -0.017319 0.154500
v -0.004705 0.021584 0.149389
v -0.050329 0.025284 0.163535
v -0.004705 0.057678 0.134404
v -0.050329 0.065079 0.147086
v -0.004705 0.088783 0.110566
v -0.050329 0.099182 0.120921
v 0.040919 -0.017319 0.169145
v 0.040919 -0.100121 0.169145
v -0.004705 -0.017319 0.154500
v -0.004705 -0.100121 0.154500
v -0.004705 0.021584 0.149389
v 0.040919 0.025284 0.163535
v -0.004705 0.057678 0.134404
v 0.040919 0.065079 0.147086
v -0.004705 0.088783 0.110566
v 0.040919 0.099182 0.120921
v 0.040919 0.149178 -0.161921
v -0.050329 0.149178 -0.161921
v -0.004705 0.159477 -0.172277
v -0.004705 0.107681 -0.212006
v -0.050329 -0.100121 -0.230855
v -0.050329 -0.017319 -0.230855
v -0.004705 -0.100121 -0.245500
v -0.050329 0.100380 -0.199324
v -0.050329 0.043678 -0.222836
v -0.004705 0.047379 -0.236981
v -0.004705 -0.017319 -0.245500
v 0.040919 0.100380 -0.199324
v 0.040919 0.043678 -0.222836
v 0.040919 -0.017319 -0.230855
v 0.040919 -0.100121 -0.230855
vn 0.9410 -0.0785 0.3293
vn 0.3622 -0.7010 0.6143
vn 0.9272 -0.3693 0.0629
vn 0.3622 -0.7009 -0.6144
vn 0.9409 -0.0785 -0.3293
vn 0.9272 -0.3693 -0.0629
vn 0.9409 0.0785 -0.3293
vn 0.3622 0.7010 -0.6143
vn 0.9272 0.3693 -0.0629
vn -0.3623 -0.7009 -0.6144
vn 0.3623 -0.7009 0.6144
vn -0.3623 -0.7010 0.6143
vn 0.9272 -0.3693 0.0628
vn 0.3623 -0.7009 -0.6143
vn 0.9272 -0.3693 -0.0628
vn -0.9272 -0.3693 0.0628
vn -0.9272 -0.3693 -0.0629
vn -0.9409 -0.0784 0.3293
vn -0.9410 -0.0784 -0.3293
vn -0.3623 -0.7010 -0.6143
vn -0.9410 0.0784 -0.3293
vn 0.9409 0.0784 -0.3294
vn 0.9409 -0.0784 -0.3294
vn 0.3623 -0.7010 -0.6143
vn -0.3623 0.7010 -0.6143
vn 0.3624 0.7009 -0.6143
vn -0.9409 0.0784 0.3294
vn 0.3624 -0.7009 0.6143
vn 0.9409 -0.0784 0.3294
vn 0.9410 0.0784 0.3293
vn 0.9410 -0.0784 -0.3293
vn 0.9410 0.0784 -0.3293
vn 0.9272 0.3693 -0.0628
vn 0.9272 0.3693 0.0629
vn 0.3622 0.7010 0.6144
vn 0.3623 0.7010 0.6143
vn -0.3623 0.7010 0.6143
vn -0.9272 0.3693 0.0629
vn -0.9272 0.3693 -0.0629
vn 0.3623 0.7009 -0.6144
vn -0.3623 0.7009 0.6144
vn 0.3623 0.7009 0.6144
vn 0.9272 0.3693 0.0628
vn 0.5962 0.2039 0.7765
vn 0.9989 0.0236 0.0393
vn 0.5986 0.4016 0.6931
vn 0.5982 0.5667 0.5667
vn 0.6150 -0.0000 0.7885
vn 0.9997 -0.0000 0.0236
vn 0.6054 0.0550 0.7940
vn 1.0000 -0.0000 -0.0000
vn 0.9992 0.0079 0.0393
vn 0.6228 -0.0552 -0.7804
vn 0.6150 -0.0000 -0.7885
vn 0.6305 -0.2049 -0.7487
vn 0.6320 -0.3871 -0.6714
vn 0.9990 0.0314 0.0314
vn 0.6286 -0.5500 -0.5499
vn 0.6320 -0.6714 -0.3870
vn 0.9989 0.0393 0.0236
vn 0.9992 0.0393 0.0079
vn 0.6305 -0.7487 -0.2049
vn 0.6286 -0.7778 -0.0000
vn 0.5986 0.6931 0.4017
vn 0.5962 0.7765 0.2039
vn 0.9992 0.0390 -0.0000
vn 0.6305 -0.7487 0.2049
vn 0.5975 0.8019 -0.0000
vn 0.9992 0.0393 -0.0079
vn 0.5961 0.7765 -0.2039
vn 0.9989 0.0393 -0.0236
vn 0.6320 -0.6714 0.3871
vn 0.5986 0.6931 -0.4017
vn 0.9990 0.0314 -0.0314
vn 0.6286 -0.5500 0.5500
vn 0.6320 -0.3871 0.6714
vn 0.9989 0.0236 -0.0393
vn 0.6305 -0.2049 0.7487
vn 0.5982 0.5667 -0.5666
vn 0.5986 0.4017 -0.6931
vn 0.9992 0.0078 -0.0393
vn 0.5961 0.2039 -0.7765
vn 0.6054 0.0550 -0.7940
vn 0.9997 -0.0000 -0.0236
vn 0.6151 -0.0000 -0.7885
vn 0.6228 -0.0552 0.7804
vn 0.6151 -0.0000 0.7885
vn -0.5961 0.7766 0.2039
vn -0.0000 1.0000 -0.0000
vn -0.5974 0.8019 -0.0000
vn -0.5985 0.6931 0.4017
vn -0.0000 0.9658 0.2591
vn -0.0000 0.8644 0.5029
vn -0.5981 0.5667 0.5667
vn -0.0000 0.7071 0.7071
vn 0.5981 0.5667 0.5667
vn 0.5985 0.6931 0.4017
vn 0.5961 0.7766 0.2040
vn 0.5974 0.8019 -0.0000
vn 0.5961 0.7766 -0.2039
vn 0.5985 0.6931 -0.4017
vn -0.0000 0.9658 -0.2592
vn -0.0000 0.8644 -0.5029
vn 0.5981 0.5667 -0.5667
vn -0.5961 0.7766 -0.2040
vn -0.5985 0.6931 -0.4017
vn -0.5981 0.5667 -0.5667
vn -0.0000 0.7071 -0.7071
vn -0.5961 0.2040 0.7766
vn -0.6053 0.0551 0.7941
vn -0.0000 0.0629 0.9980
vn -0.0000 -0.0000 1.0000
vn -0.6150 -0.0000 0.7885
vn -0.5986 0.4017 0.6931
vn -0.0000 0.2591 0.9659
vn -0.0000 0.4970 0.8677
vn 0.5985 0.4017 0.6931
vn 0.5961 0.2039 0.7766
vn 0.6053 0.0550 0.7941
vn -0.0000 -0.7071 0.7071
vn 0.6319 -0.3871 0.6715
vn 0.6285 -0.5500 0.5500
vn -0.0000 -0.4970 0.8678
vn -0.0000 -0.2591 0.9658
vn -0.6319 -0.3871 0.6715
vn -0.6285 -0.5500 0.5500
vn -0.0000 -0.4970 0.8677
vn -0.6305 -0.2049 0.7487
vn -0.6227 -0.0552 0.7805
vn -0.0000 -0.0629 0.9980
vn 0.6228 -0.0552 0.7805
vn 0.0001 -0.0000 1.0000
vn -0.6054 0.0550 0.7940
vn -1.0000 -0.0000 -0.0000
vn -0.6151 -0.0000 0.7885
vn -0.9997 -0.0000 0.0236
vn -0.5962 0.2039 0.7765
vn -0.6151 -0.0000 -0.7885
vn -0.6228 -0.0552 -0.7804
vn -0.9992 0.0079 0.0393
vn -0.6305 -0.2049 -0.7487
vn -0.6320 -0.3870 -0.6714
vn -0.9989 0.0236 0.0393
vn -0.9990 0.0315 0.0315
vn -0.6286 -0.5500 -0.5500
vn -0.6320 -0.6714 -0.3871
vn -0.9992 0.0393 0.0079
vn -0.6305 -0.7487 -0.2049
vn -0.6286 -0.7778 -0.0000
vn -0.9992 0.0392 -0.0000
vn -0.6305 -0.7487 0.2049
vn -0.9989 0.0393 0.0236
vn -0.5975 0.8019 -0.0000
vn -0.5982 0.5667 0.5666
vn -0.5962 0.7765 0.2039
vn -0.5986 0.6931 0.4017
vn -0.9992 0.0393 -0.0079
vn -0.5961 0.7766 -0.2039
vn -0.5986 0.6931 -0.4017
vn -0.9989 0.0393 -0.0236
vn -0.9990 0.0315 -0.0315
vn -0.6320 -0.6714 0.3870
vn -0.6286 -0.5500 0.5499
vn -0.6320 -0.3871 0.6714
vn -0.5982 0.5666 -0.5667
vn -0.9989 0.0236 -0.0393
vn -0.6228 -0.0552 0.7804
vn -0.9997 -0.0000 -0.0236
vn -0.6150 -0.0000 -0.7885
vn -0.9992 0.0079 -0.0393
vn -0.6054 0.0550 -0.7940
vn -0.5986 0.4017 -0.6931
vn -0.5961 0.2039 -0.7765
vn -0.6319 -0.6715 -0.3871
vn -0.0000 -0.7071 -0.7071
vn -0.6285 -0.5500 -0.5500
vn -0.0000 -0.8643 -0.5029
vn -0.6304 -0.7487 -0.2049
vn -0.0000 -0.9658 -0.2591
vn -0.6285 -0.7778 -0.0000
vn -0.0000 -1.0000 -0.0000
vn -0.0000 -0.9658 0.2591
vn -0.6304 -0.7487 0.2049
vn -0.0000 -0.8644 0.5029
vn 0.6319 -0.6715 -0.3871
vn 0.6285 -0.5500 -0.5500
vn 0.6304 -0.7487 -0.2049
vn 0.6285 -0.7778 -0.0000
vn 0.0001 -0.9658 0.2591
vn 0.6304 -0.7487 0.2049
vn -0.0000 -0.8643 0.5029
vn 0.6319 -0.6715 0.3871
vn -0.6319 -0.6715 0.3871
vn -0.6228 -0.0552 -0.7805
vn -0.0001 -0.0000 -1.0000
vn -0.0000 -0.0629 -0.9980
vn -0.0000 -0.2591 -0.9658
vn -0.6304 -0.2049 -0.7487
vn -0.0000 -0.4970 -0.8678
vn -0.6319 -0.3871 -0.6715
vn 0.6228 -0.0552 -0.7805
vn -0.0000 -0.0000 -1.0000
vn -0.0000 -0.4970 -0.8677
vn 0.6319 -0.3871 -0.6714
vn 0.0001 -0.7071 -0.7071
vn -0.0000 0.4970 -0.8678
vn -0.6053 0.0550 -0.7941
vn -0.5985 0.4017 -0.6931
vn -0.0000 0.2591 -0.9659
vn -0.5961 0.2039 -0.7766
vn -0.0000 0.0629 -0.9980
vn 0.5985 0.4017 -0.6931
vn 0.5961 0.2039 -0.7766
vn 0.6053 0.0551 -0.7941
vt 0.424038 0.250000
vt 0.375000 0.299038
vt 0.125000 0.549038
vt 0.174038 0.750000
vt 0.424038 1.000000
vt 0.375000 0.049038
vt 0.575962 0.000000
vt 0.625000 0.950962
vt 0.875000 0.700962
vt 0.325962 0.750000
vt 0.174038 0.500000
vt 0.325962 0.500000
vt 0.125000 0.700962
vt 0.375000 0.549038
vt 0.375000 0.700962
vt 0.424038 0.500000
vt 0.424038 0.750000
vt 0.375000 0.799038
vt 0.575962 0.750000
vt 0.575962 1.000000
vt 0.375000 0.950962
vt 0.625000 0.799038
vt 0.575962 0.500000
vt 0.375000 0.450962
vt 0.375000 0.200962
vt 0.575962 0.250000
vt 0.424038 0.000000
vt 0.625000 0.049038
vt 0.625000 0.200962
vt 0.825962 0.500000
vt 0.625000 0.299038
vt 0.625000 0.450962
vt 0.625000 0.549038
vt 0.625000 0.700962
vt 0.674038 0.750000
vt 0.825962 0.750000
vt 0.674038 0.500000
vt 0.875000 0.549038
vt 0.216211 1.131820
vt 0.270342 1.170910
vt 0.239723 1.188590
vt 0.277126 1.237340
vt 0.208192 0.988089
vt 0.243547 1.070900
vt 0.208192 1.070900
vt 0.243547 0.988089
vt 0.250362 1.122670
vt 0.278902 1.070900
vt 0.278902 0.988089
vt 0.284512 1.113520
vt 0.300961 1.153230
vt 0.302126 1.212340
vt 0.327126 1.187330
vt 0.361225 1.213500
vt 0.343547 1.244120
vt 0.391783 1.264100
vt 0.400934 1.229950
vt 0.443547 1.235560
vt 0.325869 1.274740
vt 0.382632 1.298260
vt 0.443547 1.270920
vt 0.486160 1.229950
vt 0.443547 1.306280
vt 0.495311 1.264100
vt 0.504461 1.298260
vt 0.543547 1.244120
vt 0.525869 1.213500
vt 0.561225 1.274740
vt 0.584968 1.212340
vt 0.559968 1.187330
vt 0.586133 1.153230
vt 0.616752 1.170910
vt 0.602582 1.113520
vt 0.609968 1.237340
vt 0.647371 1.188590
vt 0.636732 1.122670
vt 0.670883 1.131820
vt 0.678902 1.070900
vt 0.643547 1.070900
vt 0.678902 0.988089
vt 0.643547 0.988089
vt 0.608192 1.070900
vt 0.608192 0.988089
vt 0.489171 1.215420
vt 0.443547 1.154510
vt 0.489171 1.154510
vt 0.489171 1.272180
vt 0.443547 1.219210
vt 0.443547 1.279510
vt 0.489171 1.320930
vt 0.443547 1.331280
vt 0.397923 1.320930
vt 0.397923 1.272180
vt 0.397923 1.215420
vt 0.397923 1.154510
vt 0.397923 1.093590
vt 0.397923 1.036830
vt 0.443547 1.089800
vt 0.443547 1.029510
vt 0.397923 0.988085
vt 0.489171 1.093590
vt 0.489171 1.036830
vt 0.489171 0.988085
vt 0.443547 0.977730
vt 0.397923 1.131820
vt 0.397923 1.070900
vt 0.443547 1.070900
vt 0.443547 0.988089
vt 0.397923 0.988089
vt 0.489171 0.988089
vt 0.397923 1.188590
vt 0.443547 1.135610
vt 0.397923 1.237340
vt 0.443547 1.195910
vt 0.443547 1.247690
vt 0.489171 1.237340
vt 0.489171 1.188590
vt 0.489171 1.131820
vt 0.489171 1.070900
vt 0.443547 1.176980
vt 0.489171 1.153230
vt 0.489171 1.187330
vt 0.443547 1.145910
vt 0.489171 1.113520
vt 0.443547 1.109730
vt 0.397923 1.153230
vt 0.397923 1.187330
vt 0.397923 1.113520
vt 0.382633 1.298260
vt 0.397923 1.236830
vt 0.443547 1.260570
vt 0.397923 1.270930
vt 0.443547 1.229510
vt 0.397923 1.197120
vt 0.443547 1.193330
vt 0.443547 1.115680
vt 0.397923 1.111890
vt 0.443547 1.079510
vt 0.489171 1.236830
vt 0.489171 1.270930
vt 0.489171 1.197120
vt 0.489171 1.111890
vt 0.489171 1.072180
vt 0.443547 1.048440
vt 0.489171 1.038090
vt 0.397923 1.072180
vt 0.397923 1.038090
s 1
usemtl Handle1Mtl.030
f 1/1/1 2/2/2 3/3/3
f 4/4/4 5/5/5 6/6/6
f 7/7/7 8/8/8 9/9/9
f 10/10/10 11/11/11 12/12/12
f 11/11/11 10/10/10 13/3/13
f 13/3/13 10/10/10 14/4/14
f 13/3/13 14/4/14 15/13/15
f 10/10/10 12/12/12 16/14/16
f 10/10/10 16/14/16 17/15/17
f 12/12/12 18/16/18 16/14/16
f 16/14/16 19/17/19 17/15/17
f 19/17/19 20/18/20 17/15/17
f 16/14/16 21/19/21 19/17/19
f 18/16/18 21/19/21 16/14/16
f 19/17/19 22/20/22 20/18/20
f 21/19/21 22/20/22 19/17/19
f 20/18/20 22/20/22 23/5/23
f 20/18/20 23/5/23 24/21/24
f 22/20/22 21/19/21 25/22/25
f 22/20/22 25/22/25 26/8/26
f 27/23/27 21/19/21 18/16/18
f 28/2/28 27/23/27 18/16/18
f 28/2/28 18/16/18 29/24/12
f 30/1/29 27/23/27 28/2/28
f 31/6/15 30/1/29 32/25/13
f 31/6/15 33/26/30 30/1/29
f 33/26/30 27/23/27 30/1/29
f 34/27/31 33/26/30 31/6/15
f 35/7/32 33/26/30 34/27/31
f 33/26/30 35/7/32 36/28/33
f 33/26/30 36/28/33 37/29/34
f 33/26/30 37/29/34 38/30/35
f 27/23/27 33/26/30 39/31/36
f 27/23/27 39/31/36 40/32/37
f 40/32/37 41/33/38 27/23/27
f 21/19/21 27/23/27 41/33/38
f 21/19/21 41/33/38 42/34/39
f 42/34/39 43/35/25 21/19/21
f 41/33/38 43/35/25 42/34/39
f 41/33/38 44/36/40 43/35/25
f 44/36/40 41/33/38 45/37/41
f 45/37/41 38/30/42 44/36/40
f 44/36/40 38/30/42 46/38/43
f 44/36/40 46/38/43 47/9/9
usemtl Lock1Mtl
f 51/39/44 53/40/45 50/41/46
f 49/42/47 50/41/46 53/40/45
f 48/43/48 54/44/49 52/45/50
f 51/39/44 52/45/50 54/44/49
f 55/46/51 54/44/49 48/43/48
f 53/40/45 51/39/44 56/47/52
f 54/44/49 56/47/52 51/39/44
f 55/46/51 57/48/53 54/44/49
f 56/47/52 54/44/49 57/48/53
f 58/49/54 57/48/53 55/46/51
f 57/48/53 59/50/55 56/47/52
f 60/51/56 56/47/52 59/50/55
f 56/47/52 60/51/56 53/40/45
f 62/52/57 53/40/45 60/51/56
f 62/52/57 60/51/56 61/53/58
f 49/42/47 53/40/45 62/52/57
f 63/54/59 62/52/57 61/53/58
f 64/55/60 49/42/47 62/52/57
f 62/52/57 63/54/59 64/55/60
f 63/54/59 66/56/61 64/55/60
f 66/56/61 63/54/59 65/57/62
f 67/58/63 66/56/61 65/57/62
f 49/42/47 64/55/60 68/59/64
f 64/55/60 69/60/65 68/59/64
f 69/60/65 64/55/60 66/56/61
f 66/56/61 67/58/63 71/61/66
f 70/62/67 71/61/66 67/58/63
f 66/56/61 72/63/68 69/60/65
f 72/63/68 66/56/61 71/61/66
f 71/61/66 70/62/67 73/64/69
f 73/64/69 72/63/68 71/61/66
f 72/63/68 73/64/69 74/65/70
f 70/62/67 76/66/71 73/64/69
f 70/62/67 75/67/72 76/66/71
f 73/64/69 77/68/73 74/65/70
f 73/64/69 76/66/71 77/68/73
f 78/69/74 76/66/71 75/67/72
f 78/69/74 77/68/73 76/66/71
f 75/67/72 79/70/75 78/69/74
f 80/71/76 78/69/74 79/70/75
f 78/69/74 80/71/76 82/72/77
f 81/73/78 82/72/77 80/71/76
f 77/68/73 78/69/74 83/74/79
f 82/72/77 83/74/79 78/69/74
f 83/74/79 82/72/77 84/75/80
f 86/76/81 84/75/80 82/72/77
f 84/75/80 86/76/81 85/77/82
f 82/72/77 81/73/78 86/76/81
f 86/76/81 87/78/83 85/77/82
f 87/78/83 86/76/81 89/79/84
f 89/79/84 88/80/85 87/78/83
f 81/73/78 89/79/84 86/76/81
f 88/80/85 89/79/84 90/81/51
f 89/79/84 81/73/78 91/82/86
f 91/82/86 90/81/51 89/79/84
f 90/81/51 91/82/86 92/83/87
f 95/84/88 97/85/89 93/86/90
f 96/87/91 98/88/92 95/84/88
f 97/85/89 95/84/88 98/88/92
f 98/88/92 96/87/91 99/89/93
f 94/90/94 99/89/93 96/87/91
f 99/89/93 94/90/94 100/91/95
f 99/89/93 100/91/95 101/92/96
f 101/92/96 102/93/97 99/89/93
f 98/88/92 99/89/93 102/93/97
f 98/88/92 102/93/97 103/94/98
f 97/85/89 98/88/92 103/94/98
f 97/85/89 103/94/98 104/95/99
f 105/96/100 97/85/89 104/95/99
f 106/97/101 108/98/102 105/96/100
f 97/85/89 105/96/100 108/98/102
f 108/98/102 106/97/101 109/99/103
f 107/100/104 109/99/103 106/97/101
f 110/101/105 97/85/89 108/98/102
f 110/101/105 93/86/90 97/85/89
f 111/102/106 110/101/105 108/98/102
f 108/98/102 109/99/103 111/102/106
f 112/103/107 111/102/106 109/99/103
f 109/99/103 113/104/108 112/103/107
f 109/99/103 107/100/104 113/104/108
f 114/105/109 115/106/110 116/107/111
f 115/106/110 117/108/112 116/107/111
f 117/108/112 115/106/110 118/109/113
f 119/110/48 116/107/111 117/108/112
f 121/111/114 114/105/109 123/112/115
f 120/113/94 121/111/114 124/114/116
f 124/114/116 122/115/95 120/113/94
f 123/112/115 124/114/116 121/111/114
f 114/105/109 116/107/111 123/112/115
f 124/114/116 125/116/96 122/115/95
f 123/112/115 126/117/117 124/114/116
f 125/116/96 124/114/116 126/117/117
f 116/107/111 127/118/118 123/112/115
f 126/117/117 123/112/115 127/118/118
f 127/118/118 116/107/111 128/119/119
f 116/107/111 119/110/48 128/119/119
f 129/120/120 131/121/121 130/122/122
f 132/123/123 131/121/121 129/120/120
f 132/123/123 133/124/78 131/121/121
f 134/125/124 133/124/78 132/123/123
f 137/126/125 135/120/120 136/127/126
f 135/120/120 137/126/125 138/123/127
f 139/128/128 138/123/127 137/126/125
f 138/123/127 139/128/128 140/125/124
f 141/106/129 140/125/124 139/128/128
f 140/125/124 141/106/129 142/107/130
f 141/106/129 143/108/112 142/107/130
f 143/108/112 141/106/129 144/109/113
f 134/125/124 145/119/131 133/124/78
f 147/107/130 145/119/131 134/125/124
f 147/107/130 146/110/48 145/119/131
f 146/110/48 147/107/130 148/108/132
f 150/78/133 152/81/134 151/80/135
f 152/81/134 150/78/133 153/79/136
f 149/77/137 153/79/136 150/78/133
f 153/79/136 154/83/138 152/81/134
f 155/82/139 154/83/138 153/79/136
f 157/76/140 155/82/139 153/79/136
f 155/82/139 157/76/140 156/73/141
f 153/79/136 149/77/137 157/76/140
f 157/76/140 158/71/142 156/73/141
f 149/77/137 159/72/143 157/76/140
f 158/71/142 157/76/140 159/72/143
f 158/71/142 162/69/144 160/70/145
f 162/69/144 158/71/142 159/72/143
f 161/67/146 160/70/145 162/69/144
f 161/67/146 165/64/147 163/62/148
f 165/64/147 164/58/149 163/62/148
f 165/64/147 167/61/150 164/58/149
f 167/61/150 166/57/151 164/58/149
f 165/64/147 161/67/146 168/66/152
f 162/69/144 168/66/152 161/67/146
f 165/64/147 169/63/153 167/61/150
f 168/66/152 162/69/144 170/74/154
f 159/72/143 170/74/154 162/69/144
f 168/66/152 171/65/155 165/64/147
f 169/63/153 165/64/147 171/65/155
f 171/65/155 168/66/152 172/68/156
f 170/74/154 172/68/156 168/66/152
f 170/74/154 159/72/143 173/75/114
f 159/72/143 149/77/137 173/75/114
f 176/56/157 169/63/153 174/129/158
f 175/59/159 176/56/157 174/129/158
f 169/63/153 176/56/157 167/61/150
f 166/57/151 167/61/150 176/56/157
f 176/56/157 175/59/159 177/55/160
f 177/55/160 166/57/151 176/56/157
f 175/59/159 178/52/161 177/55/160
f 166/57/151 177/55/160 179/54/162
f 178/52/161 179/54/162 177/55/160
f 179/54/162 178/52/161 180/53/163
f 178/52/161 181/51/164 180/53/163
f 178/52/161 175/59/159 182/42/165
f 181/51/164 178/52/161 183/40/166
f 182/42/165 183/40/166 178/52/161
f 184/50/128 181/51/164 183/40/166
f 185/48/167 187/46/134 186/49/113
f 188/44/168 187/46/134 185/48/167
f 184/50/128 188/44/168 185/48/167
f 188/44/168 189/43/169 187/46/134
f 188/44/168 184/50/128 190/47/170
f 191/45/171 189/43/169 188/44/168
f 190/47/170 191/45/171 188/44/168
f 183/40/166 190/47/170 184/50/128
f 190/47/170 183/40/166 192/41/172
f 183/40/166 182/42/165 192/41/172
f 192/41/172 193/39/173 190/47/170
f 191/45/171 190/47/170 193/39/173
f 196/130/174 194/131/175 195/132/176
f 194/131/175 196/130/174 197/133/177
f 198/134/178 197/133/177 196/130/174
f 197/133/177 198/134/178 199/135/179
f 200/95/180 199/135/179 198/134/178
f 199/135/179 200/95/180 201/85/181
f 200/95/180 202/136/182 201/85/181
f 203/137/183 202/136/182 200/95/180
f 203/137/183 204/138/184 202/136/182
f 205/131/175 207/139/185 206/140/186
f 208/133/177 207/139/185 205/131/175
f 208/133/177 209/141/187 207/139/185
f 210/135/179 209/141/187 208/133/177
f 210/135/179 211/86/188 209/141/187
f 212/85/181 211/86/188 210/135/179
f 213/136/189 211/86/188 212/85/181
f 211/86/188 213/136/189 214/142/190
f 215/138/191 214/142/190 213/136/189
f 214/142/190 215/138/191 216/143/192
f 217/144/120 216/143/192 215/138/191
f 216/143/192 217/144/120 218/145/122
f 219/146/193 204/138/184 203/137/183
f 219/146/193 220/144/120 204/138/184
f 221/147/126 220/144/120 219/146/193
f 222/110/169 223/119/194 224/108/195
f 225/107/196 224/108/195 223/119/194
f 223/119/194 226/125/197 225/107/196
f 227/124/198 226/125/197 223/119/194
f 227/124/198 228/123/199 226/125/197
f 229/121/200 228/123/199 227/124/198
f 229/121/200 230/120/175 228/123/199
f 231/122/176 230/120/175 229/121/200
f 232/106/201 233/109/54 234/107/196
f 235/108/202 234/107/196 233/109/54
f 236/125/197 232/106/201 234/107/196
f 232/106/201 236/125/197 237/128/55
f 238/123/203 237/128/55 236/125/197
f 237/128/55 238/123/203 239/126/204
f 240/120/205 239/126/204 238/123/203
f 239/126/204 240/120/205 241/127/186
f 245/114/206 243/116/107 244/115/108
f 245/114/206 244/115/108 242/113/104
f 246/110/169 247/119/207 248/108/202
f 243/116/107 245/114/206 249/117/208
f 251/112/209 249/117/208 245/114/206
f 249/117/208 251/112/209 250/118/210
f 250/118/210 252/107/211 247/119/207
f 252/107/211 250/118/210 251/112/209
f 252/107/211 248/108/202 247/119/207
f 251/112/209 245/114/206 253/111/212
f 242/113/104 253/111/212 245/114/206
f 251/112/209 253/111/212 254/105/213
f 252/107/211 251/112/209 254/105/213
f 252/107/211 254/105/213 255/106/214
f 255/106/214 248/108/202 252/107/211
f 248/108/202 255/106/214 256/109/54
