# Blender 5.1.2
# www.blender.org
mtllib RubberBand.mtl
o RubberBand
v 1.950001 -0.000002 0.000000
v 1.950001 0.070708 -0.070702
v 1.950001 0.055468 -0.083202
v 1.950001 0.031628 -0.094902
v 1.950001 -0.000002 -0.100002
v 1.950001 -0.031622 -0.094902
v 1.950001 -0.055472 -0.083202
v 1.950001 -0.070712 -0.070702
v 1.950001 -0.070712 -0.070702
v 1.950001 -0.083202 -0.055500
v 1.950001 -0.094872 -0.031700
v 1.950001 -0.100002 0.000000
v 1.950001 -0.094872 0.031597
v 1.950001 -0.083202 0.055397
v 1.950001 -0.070712 0.070698
v 1.950001 -0.070712 0.070698
v 1.950001 -0.055472 0.083199
v 1.950001 -0.031622 0.094799
v 1.950001 -0.000002 0.099998
v 1.950001 0.031628 0.094799
v 1.950001 0.055468 0.083199
v 1.950001 0.070708 0.070698
v 1.950001 0.070708 0.070698
v 1.950001 0.083208 0.055397
v 1.950001 0.094868 0.031597
v 1.950001 0.099998 -0.000000
v 1.950001 0.094868 -0.031700
v 1.950001 0.083208 -0.055500
v 1.950001 0.070708 -0.070702
v 1.450001 0.070708 0.070698
v 1.950001 0.070708 0.070698
v 1.450001 0.083208 0.055397
v 1.950001 0.083208 0.055397
v 1.450001 0.094868 0.031597
v 1.950001 0.094868 0.031597
v 1.450001 0.099998 -0.000000
v 1.950001 0.099998 -0.000000
v 1.450001 0.094868 -0.031700
v 1.950001 0.094868 -0.031700
v 1.450001 0.083208 -0.055500
v 1.950001 0.083208 -0.055500
v 1.450001 0.070708 -0.070702
v 1.950001 0.070708 -0.070702
v 1.950001 0.070708 0.070698
v 1.450001 0.070708 0.070698
v 1.950001 0.055468 0.083199
v 1.450001 0.055468 0.083199
v 1.950001 0.031628 0.094799
v 1.450001 0.031628 0.094799
v 1.950001 -0.000002 0.099998
v 1.450001 -0.000002 0.099998
v 1.950001 -0.031622 0.094799
v 1.450001 -0.031622 0.094799
v 1.950001 -0.055472 0.083199
v 1.450001 -0.055472 0.083199
v 1.950001 -0.070712 0.070698
v 1.450001 -0.070712 0.070698
v 1.450001 -0.000002 0.000000
v 1.450001 0.070708 0.070698
v 1.450001 0.055468 0.083199
v 1.450001 0.031628 0.094799
v 1.450001 -0.000002 0.099998
v 1.450001 -0.031622 0.094799
v 1.450001 -0.055472 0.083199
v 1.450001 -0.070712 0.070698
v 1.450001 -0.070712 0.070698
v 1.450001 -0.083202 0.055397
v 1.450001 -0.094872 0.031597
v 1.450001 -0.100002 0.000000
v 1.450001 -0.094872 -0.031700
v 1.450001 -0.083202 -0.055500
v 1.450001 -0.070712 -0.070702
v 1.450001 -0.070712 -0.070702
v 1.450001 -0.055472 -0.083202
v 1.450001 -0.031622 -0.094902
v 1.450001 -0.000002 -0.100002
v 1.450001 0.031628 -0.094902
v 1.450001 0.055468 -0.083202
v 1.450001 0.070708 -0.070702
v 1.450001 0.070708 -0.070702
v 1.450001 0.083208 -0.055500
v 1.450001 0.094868 -0.031700
v 1.450001 0.099998 -0.000000
v 1.450001 0.094868 0.031597
v 1.450001 0.083208 0.055397
v 1.450001 0.070708 0.070698
v 1.450001 -0.070712 -0.070702
v 1.950001 -0.070712 -0.070702
v 1.450001 -0.083202 -0.055500
v 1.950001 -0.083202 -0.055500
v 1.450001 -0.094872 -0.031700
v 1.950001 -0.094872 -0.031700
v 1.450001 -0.100002 0.000000
v 1.950001 -0.100002 0.000000
v 1.450001 -0.094872 0.031597
v 1.950001 -0.094872 0.031597
v 1.450001 -0.083202 0.055397
v 1.950001 -0.083202 0.055397
v 1.450001 -0.070712 0.070698
v 1.950001 -0.070712 0.070698
v 1.450001 0.070708 -0.070702
v 1.950001 0.070708 -0.070702
v 1.450001 0.055468 -0.083202
v 1.950001 0.055468 -0.083202
v 1.450001 0.031628 -0.094902
v 1.950001 0.031628 -0.094902
v 1.450001 -0.000002 -0.100002
v 1.950001 -0.000002 -0.100002
v 1.450001 -0.031622 -0.094902
v 1.950001 -0.031622 -0.094902
v 1.450001 -0.055472 -0.083202
v 1.950001 -0.055472 -0.083202
v 1.450001 -0.070712 -0.070702
v 1.950001 -0.070712 -0.070702
v -1.449999 -0.000002 0.000000
v -1.449999 0.070708 -0.070702
v -1.449999 0.055468 -0.083202
v -1.449999 0.031628 -0.094902
v -1.449999 -0.000002 -0.100002
v -1.449999 -0.031622 -0.094902
v -1.449999 -0.055472 -0.083202
v -1.449999 -0.070712 -0.070702
v -1.449999 -0.070712 -0.070702
v -1.449999 -0.083202 -0.055500
v -1.449999 -0.094872 -0.031700
v -1.449999 -0.100002 0.000000
v -1.449999 -0.094872 0.031597
v -1.449999 -0.083202 0.055397
v -1.449999 -0.070712 0.070698
v -1.449999 -0.070712 0.070698
v -1.449999 -0.055472 0.083199
v -1.449999 -0.031622 0.094799
v -1.449999 -0.000002 0.099998
v -1.449999 0.031628 0.094799
v -1.449999 0.055468 0.083199
v -1.449999 0.070708 0.070698
v -1.449999 0.070708 0.070698
v -1.449999 0.083208 0.055397
v -1.449999 0.094868 0.031597
v -1.449999 0.099998 -0.000000
v -1.449999 0.094868 -0.031700
v -1.449999 0.083208 -0.055500
v -1.449999 0.070708 -0.070702
v -1.949999 0.070708 0.070698
v -1.449999 0.070708 0.070698
v -1.949999 0.083208 0.055397
v -1.449999 0.083208 0.055397
v -1.949999 0.094868 0.031597
v -1.449999 0.094868 0.031597
v -1.949999 0.099998 -0.000000
v -1.449999 0.099998 -0.000000
v -1.949999 0.094868 -0.031700
v -1.449999 0.094868 -0.031700
v -1.949999 0.083208 -0.055500
v -1.449999 0.083208 -0.055500
v -1.949999 0.070708 -0.070702
v -1.449999 0.070708 -0.070702
v -1.449999 0.070708 0.070698
v -1.949999 0.070708 0.070698
v -1.449999 0.055468 0.083199
v -1.949999 0.055468 0.083199
v -1.449999 0.031628 0.094799
v -1.949999 0.031628 0.094799
v -1.449999 -0.000002 0.099998
v -1.949999 -0.000002 0.099998
v -1.449999 -0.031622 0.094799
v -1.949999 -0.031622 0.094799
v -1.449999 -0.055472 0.083199
v -1.949999 -0.055472 0.083199
v -1.449999 -0.070712 0.070698
v -1.949999 -0.070712 0.070698
v -1.949999 -0.000002 0.000000
v -1.949999 0.070708 0.070698
v -1.949999 0.055468 0.083199
v -1.949999 0.031628 0.094799
v -1.949999 -0.000002 0.099998
v -1.949999 -0.031622 0.094799
v -1.949999 -0.055472 0.083199
v -1.949999 -0.070712 0.070698
v -1.949999 -0.070712 0.070698
v -1.949999 -0.083202 0.055397
v -1.949999 -0.094872 0.031597
v -1.949999 -0.100002 0.000000
v -1.949999 -0.094872 -0.031700
v -1.949999 -0.083202 -0.055500
v -1.949999 -0.070712 -0.070702
v -1.949999 -0.070712 -0.070702
v -1.949999 -0.055472 -0.083202
v -1.949999 -0.031622 -0.094902
v -1.949999 -0.000002 -0.100002
v -1.949999 0.031628 -0.094902
v -1.949999 0.055468 -0.083202
v -1.949999 0.070708 -0.070702
v -1.949999 0.070708 -0.070702
v -1.949999 0.083208 -0.055500
v -1.949999 0.094868 -0.031700
v -1.949999 0.099998 -0.000000
v -1.949999 0.094868 0.031597
v -1.949999 0.083208 0.055397
v -1.949999 0.070708 0.070698
v -1.949999 -0.070712 -0.070702
v -1.449999 -0.070712 -0.070702
v -1.949999 -0.083202 -0.055500
v -1.449999 -0.083202 -0.055500
v -1.949999 -0.094872 -0.031700
v -1.449999 -0.094872 -0.031700
v -1.949999 -0.100002 0.000000
v -1.449999 -0.100002 0.000000
v -1.949999 -0.094872 0.031597
v -1.449999 -0.094872 0.031597
v -1.949999 -0.083202 0.055397
v -1.449999 -0.083202 0.055397
v -1.949999 -0.070712 0.070698
v -1.449999 -0.070712 0.070698
v -1.949999 0.070708 -0.070702
v -1.449999 0.070708 -0.070702
v -1.949999 0.055468 -0.083202
v -1.449999 0.055468 -0.083202
v -1.949999 0.031628 -0.094902
v -1.449999 0.031628 -0.094902
v -1.949999 -0.000002 -0.100002
v -1.449999 -0.000002 -0.100002
v -1.949999 -0.031622 -0.094902
v -1.449999 -0.031622 -0.094902
v -1.949999 -0.055472 -0.083202
v -1.449999 -0.055472 -0.083202
v -1.949999 -0.070712 -0.070702
v -1.449999 -0.070712 -0.070702
vn 1.0000 -0.0000 -0.0000
vn -0.0000 0.7071 0.7071
vn -0.0000 0.8345 0.5511
vn -0.0000 0.9487 0.3163
vn -0.0000 0.9487 0.3162
vn -0.0000 1.0000 -0.0001
vn -0.0000 0.9487 -0.3162
vn -0.0000 0.8345 -0.5510
vn -0.0000 0.8345 -0.5511
vn -0.0000 0.7071 -0.7071
vn -0.0000 0.5510 0.8345
vn -0.0000 0.5511 0.8345
vn -0.0000 0.3162 0.9487
vn -0.0000 -0.0000 1.0000
vn -0.0000 -0.3162 0.9487
vn -0.0000 -0.5510 0.8345
vn -0.0000 -0.5511 0.8345
vn -0.0000 -0.7071 0.7071
vn -1.0000 -0.0000 -0.0000
vn -0.0000 -0.7071 -0.7071
vn -0.0000 -0.8345 -0.5511
vn -0.0000 -0.9487 -0.3162
vn -0.0000 -1.0000 -0.0001
vn -0.0000 -0.9487 0.3162
vn -0.0000 -0.8345 0.5510
vn -0.0000 -0.8345 0.5511
vn -0.0000 0.5511 -0.8345
vn -0.0000 0.3162 -0.9487
vn -0.0000 -0.0000 -1.0000
vn -0.0000 -0.3162 -0.9487
vn -0.0000 -0.5511 -0.8345
vn -0.0000 -0.5510 -0.8345
vt -0.163150 1.011440
vt -0.079945 1.066910
vt -0.092439 1.082150
vt -0.068282 1.043060
vt -0.063150 1.011440
vt -0.068282 0.979817
vt -0.079945 0.955970
vt -0.092439 0.940729
vt -0.107680 0.928235
vt -0.131527 0.916571
vt -0.163150 0.911440
vt -0.194773 0.916571
vt -0.218620 0.928235
vt -0.233861 0.940729
vt -0.246355 0.955970
vt -0.258018 0.979817
vt -0.263150 1.011440
vt -0.258018 1.043060
vt -0.246355 1.066910
vt -0.233861 1.082150
vt -0.218620 1.094640
vt -0.194773 1.106310
vt -0.163150 1.111440
vt -0.131527 1.106310
vt -0.107680 1.094640
vt -0.026300 1.222880
vt -0.526300 1.222880
vt -0.026300 1.189550
vt -0.526300 1.189550
vt -0.026300 1.156210
vt -0.526300 1.156210
vt -0.026300 1.122880
vt -0.526300 1.122880
vt -0.026300 1.089550
vt -0.526300 1.089550
vt -0.026300 1.056210
vt -0.526300 1.056210
vt -0.026300 1.022880
vt -0.526300 1.022880
vt 0.547372 0.580576
vt 0.630577 0.636046
vt 0.618083 0.651286
vt 0.642240 0.612198
vt 0.647372 0.580576
vt 0.642240 0.548953
vt 0.630577 0.525106
vt 0.618083 0.509865
vt 0.602842 0.497371
vt 0.578995 0.485707
vt 0.547372 0.480576
vt 0.515749 0.485707
vt 0.491902 0.497371
vt 0.476661 0.509865
vt 0.464167 0.525106
vt 0.452504 0.548953
vt 0.447372 0.580576
vt 0.452504 0.612198
vt 0.464167 0.636046
vt 0.476661 0.651286
vt 0.491902 0.663781
vt 0.515749 0.675444
vt 0.547372 0.680576
vt 0.578995 0.675444
vt 0.602842 0.663781
vt 1.394740 0.361151
vt 0.894744 0.361151
vt 1.394740 0.327818
vt 0.894744 0.327818
vt 1.394740 0.294485
vt 0.894744 0.294485
vt 1.394740 0.261151
vt 0.894744 0.261151
vt 1.394740 0.227818
vt 0.894744 0.227818
vt 1.394740 0.194485
vt 0.894744 0.194485
vt 1.394740 0.161151
vt 0.894744 0.161151
s 1
usemtl Handle21Mtl.001
f 1/1/1 3/2/1 2/3/1
f 1/1/1 4/4/1 3/2/1
f 1/1/1 5/5/1 4/4/1
f 1/1/1 6/6/1 5/5/1
f 1/1/1 7/7/1 6/6/1
f 1/1/1 8/8/1 7/7/1
f 1/1/1 10/9/1 9/8/1
f 1/1/1 11/10/1 10/9/1
f 1/1/1 12/11/1 11/10/1
f 1/1/1 13/12/1 12/11/1
f 1/1/1 14/13/1 13/12/1
f 1/1/1 15/14/1 14/13/1
f 1/1/1 17/15/1 16/14/1
f 1/1/1 18/16/1 17/15/1
f 1/1/1 19/17/1 18/16/1
f 1/1/1 20/18/1 19/17/1
f 1/1/1 21/19/1 20/18/1
f 1/1/1 22/20/1 21/19/1
f 1/1/1 24/21/1 23/20/1
f 1/1/1 25/22/1 24/21/1
f 1/1/1 26/23/1 25/22/1
f 1/1/1 27/24/1 26/23/1
f 1/1/1 28/25/1 27/24/1
f 1/1/1 29/3/1 28/25/1
f 30/26/2 31/27/2 32/28/3
f 32/28/3 31/27/2 33/29/3
f 32/28/3 33/29/3 34/30/4
f 34/30/4 33/29/3 35/31/5
f 34/30/4 35/31/5 36/32/6
f 36/32/6 35/31/5 37/33/6
f 36/32/6 37/33/6 38/34/7
f 38/34/7 37/33/6 39/35/7
f 38/34/7 39/35/7 40/36/8
f 40/36/8 39/35/7 41/37/9
f 40/36/8 41/37/9 42/38/10
f 42/38/10 41/37/9 43/39/10
f 44/26/2 45/27/2 46/28/11
f 46/28/11 45/27/2 47/29/12
f 46/28/11 47/29/12 48/30/13
f 48/30/13 47/29/12 49/31/13
f 48/30/13 49/31/13 50/32/14
f 50/32/14 49/31/13 51/33/14
f 50/32/14 51/33/14 52/34/15
f 52/34/15 51/33/14 53/35/15
f 52/34/15 53/35/15 54/36/16
f 54/36/16 53/35/15 55/37/17
f 54/36/16 55/37/17 56/38/18
f 56/38/18 55/37/17 57/39/18
f 58/1/19 60/2/19 59/3/19
f 58/1/19 61/4/19 60/2/19
f 58/1/19 62/5/19 61/4/19
f 58/1/19 63/6/19 62/5/19
f 58/1/19 64/7/19 63/6/19
f 58/1/19 65/8/19 64/7/19
f 58/1/19 67/9/19 66/8/19
f 58/1/19 68/10/19 67/9/19
f 58/1/19 69/11/19 68/10/19
f 58/1/19 70/12/19 69/11/19
f 58/1/19 71/13/19 70/12/19
f 58/1/19 72/14/19 71/13/19
f 58/1/19 74/15/19 73/14/19
f 58/1/19 75/16/19 74/15/19
f 58/1/19 76/17/19 75/16/19
f 58/1/19 77/18/19 76/17/19
f 58/1/19 78/19/19 77/18/19
f 58/1/19 79/20/19 78/19/19
f 58/1/19 81/21/19 80/20/19
f 58/1/19 82/22/19 81/21/19
f 58/1/19 83/23/19 82/22/19
f 58/1/19 84/24/19 83/23/19
f 58/1/19 85/25/19 84/24/19
f 58/1/19 86/3/19 85/25/19
f 87/26/20 88/27/20 89/28/21
f 89/28/21 88/27/20 90/29/21
f 89/28/21 90/29/21 91/30/22
f 91/30/22 90/29/21 92/31/22
f 91/30/22 92/31/22 93/32/23
f 93/32/23 92/31/22 94/33/23
f 93/32/23 94/33/23 95/34/24
f 95/34/24 94/33/23 96/35/24
f 95/34/24 96/35/24 97/36/25
f 97/36/25 96/35/24 98/37/26
f 97/36/25 98/37/26 99/38/18
f 99/38/18 98/37/26 100/39/18
f 101/26/10 102/27/10 103/28/27
f 103/28/27 102/27/10 104/29/27
f 103/28/27 104/29/27 105/30/28
f 105/30/28 104/29/27 106/31/28
f 105/30/28 106/31/28 107/32/29
f 107/32/29 106/31/28 108/33/29
f 107/32/29 108/33/29 109/34/30
f 109/34/30 108/33/29 110/35/30
f 109/34/30 110/35/30 111/36/31
f 111/36/31 110/35/30 112/37/32
f 111/36/31 112/37/32 113/38/20
f 113/38/20 112/37/32 114/39/20
f 115/40/1 117/41/1 116/42/1
f 115/40/1 118/43/1 117/41/1
f 115/40/1 119/44/1 118/43/1
f 115/40/1 120/45/1 119/44/1
f 115/40/1 121/46/1 120/45/1
f 115/40/1 122/47/1 121/46/1
f 115/40/1 124/48/1 123/47/1
f 115/40/1 125/49/1 124/48/1
f 115/40/1 126/50/1 125/49/1
f 115/40/1 127/51/1 126/50/1
f 115/40/1 128/52/1 127/51/1
f 115/40/1 129/53/1 128/52/1
f 115/40/1 131/54/1 130/53/1
f 115/40/1 132/55/1 131/54/1
f 115/40/1 133/56/1 132/55/1
f 115/40/1 134/57/1 133/56/1
f 115/40/1 135/58/1 134/57/1
f 115/40/1 136/59/1 135/58/1
f 115/40/1 138/60/1 137/59/1
f 115/40/1 139/61/1 138/60/1
f 115/40/1 140/62/1 139/61/1
f 115/40/1 141/63/1 140/62/1
f 115/40/1 142/64/1 141/63/1
f 115/40/1 143/42/1 142/64/1
f 144/65/2 145/66/2 146/67/3
f 146/67/3 145/66/2 147/68/3
f 146/67/3 147/68/3 148/69/4
f 148/69/4 147/68/3 149/70/5
f 148/69/4 149/70/5 150/71/6
f 150/71/6 149/70/5 151/72/6
f 150/71/6 151/72/6 152/73/7
f 152/73/7 151/72/6 153/74/7
f 152/73/7 153/74/7 154/75/8
f 154/75/8 153/74/7 155/76/9
f 154/75/8 155/76/9 156/77/10
f 156/77/10 155/76/9 157/78/10
f 158/65/2 159/66/2 160/67/11
f 160/67/11 159/66/2 161/68/12
f 160/67/11 161/68/12 162/69/13
f 162/69/13 161/68/12 163/70/13
f 162/69/13 163/70/13 164/71/14
f 164/71/14 163/70/13 165/72/14
f 164/71/14 165/72/14 166/73/15
f 166/73/15 165/72/14 167/74/15
f 166/73/15 167/74/15 168/75/16
f 168/75/16 167/74/15 169/76/17
f 168/75/16 169/76/17 170/77/18
f 170/77/18 169/76/17 171/78/18
f 172/40/19 174/41/19 173/42/19
f 172/40/19 175/43/19 174/41/19
f 172/40/19 176/44/19 175/43/19
f 172/40/19 177/45/19 176/44/19
f 172/40/19 178/46/19 177/45/19
f 172/40/19 179/47/19 178/46/19
f 172/40/19 181/48/19 180/47/19
f 172/40/19 182/49/19 181/48/19
f 172/40/19 183/50/19 182/49/19
f 172/40/19 184/51/19 183/50/19
f 172/40/19 185/52/19 184/51/19
f 172/40/19 186/53/19 185/52/19
f 172/40/19 188/54/19 187/53/19
f 172/40/19 189/55/19 188/54/19
f 172/40/19 190/56/19 189/55/19
f 172/40/19 191/57/19 190/56/19
f 172/40/19 192/58/19 191/57/19
f 172/40/19 193/59/19 192/58/19
f 172/40/19 195/60/19 194/59/19
f 172/40/19 196/61/19 195/60/19
f 172/40/19 197/62/19 196/61/19
f 172/40/19 198/63/19 197/62/19
f 172/40/19 199/64/19 198/63/19
f 172/40/19 200/42/19 199/64/19
f 201/65/20 202/66/20 203/67/21
f 203/67/21 202/66/20 204/68/21
f 203/67/21 204/68/21 205/69/22
f 205/69/22 204/68/21 206/70/22
f 205/69/22 206/70/22 207/71/23
f 207/71/23 206/70/22 208/72/23
f 207/71/23 208/72/23 209/73/24
f 209/73/24 208/72/23 210/74/24
f 209/73/24 210/74/24 211/75/25
f 211/75/25 210/74/24 212/76/26
f 211/75/25 212/76/26 213/77/18
f 213/77/18 212/76/26 214/78/18
f 215/65/10 216/66/10 217/67/27
f 217/67/27 216/66/10 218/68/27
f 217/67/27 218/68/27 219/69/28
f 219/69/28 218/68/27 220/70/28
f 219/69/28 220/70/28 221/71/29
f 221/71/29 220/70/28 222/72/29
f 221/71/29 222/72/29 223/73/30
f 223/73/30 222/72/29 224/74/30
f 223/73/30 224/74/30 225/75/31
f 225/75/31 224/74/30 226/76/32
f 225/75/31 226/76/32 227/77/20
f 227/77/20 226/76/32 228/78/20
