# Blender 5.1.2
# www.blender.org
mtllib TV.mtl
o TV
v -1.031399 1.120293 0.235035
v -1.031399 1.120293 1.235035
v -1.031399 0.190683 0.235035
v -1.031399 1.120293 1.235035
v -1.031399 1.120293 0.235035
v -2.031399 1.120293 0.235035
v -1.031399 0.190683 0.235035
v -1.031399 -0.879707 0.235035
v -2.031399 0.190683 0.235035
v -1.031399 -0.879707 0.235035
v -1.031399 -0.879707 1.235035
v 0.281601 -0.879707 1.235035
v 0.968601 -0.879707 1.235035
v 0.968601 1.120293 1.235035
v 0.968601 -0.879707 1.235035
v 0.281601 -0.879707 1.235035
v 0.968601 -0.879707 1.235035
v 0.968601 -0.879707 1.235035
v 0.281601 -0.879707 1.235035
v 0.968601 -1.879707 0.235035
v 0.968601 -0.879707 1.235035
v 0.968601 -0.879707 1.235035
v 0.968601 -0.879707 1.235035
v -1.031399 -0.879707 0.235035
v -0.059299 -0.879707 0.235035
v -1.031399 -0.879707 0.235035
v -0.059299 -0.879707 0.235035
v -1.031399 -0.879707 0.235035
v -1.031399 -0.879707 1.235035
v 0.281601 -0.879707 0.235035
v 0.281601 -0.879707 1.235035
v -1.031399 -0.879707 1.235035
v 0.281601 -0.879707 0.235035
v -0.059299 -0.879707 0.235035
v 0.281601 -0.879707 0.235035
v -0.059299 -1.879707 0.235035
v 1.968601 2.120293 -1.764965
v 0.968601 2.120293 0.235035
v 1.968601 2.120293 0.235035
v -2.031399 2.120293 -1.764965
v 1.968601 1.145283 0.235035
v 1.968601 2.120293 0.235035
v 0.968601 2.120293 0.235035
v 1.968601 2.120293 0.235035
v 1.968601 1.145283 0.235035
v 1.968601 2.120293 -1.764965
v 1.968601 -0.879707 0.235035
v 0.968601 1.120293 0.235035
v 1.968601 0.190683 0.235035
v -1.031399 2.120293 0.235035
v -0.059299 2.120293 0.235035
v -0.059299 1.120293 0.235035
v -0.059299 2.120293 0.235035
v -1.031399 2.120293 0.235035
v -1.031399 1.120293 1.235035
v 0.968601 1.120293 1.235035
v 0.968601 2.120293 0.235035
v -1.031399 1.120293 1.235035
v -1.031399 2.120293 0.235035
v -1.031399 1.120293 0.235035
v -0.059299 2.120293 0.235035
v 0.968601 2.120293 0.235035
v 1.968601 1.120293 0.235035
v 1.968601 0.190683 0.235035
v 0.968601 0.190683 0.235035
v 1.968601 0.190683 0.235035
v 1.968601 1.120293 0.235035
v 0.968601 1.120293 1.235035
v 0.968601 1.120293 1.235035
v 1.968601 1.120293 0.235035
v 0.968601 1.120293 0.235035
v 0.968601 -0.879707 1.235035
v 1.968601 -0.879707 0.235035
v 1.968601 -0.879707 0.235035
v 0.968601 1.120293 1.235035
v 0.968601 1.120293 0.235035
v 0.968601 2.120293 0.235035
v 0.968601 1.120293 0.235035
v 0.968601 1.120293 1.235035
v 0.968601 1.120293 1.235035
v 0.968601 1.120293 1.235035
v 0.968601 1.120293 1.235035
v -1.031399 1.120293 1.235035
v 0.968601 -0.879707 0.235035
v 0.968601 1.120293 0.235035
v 0.968601 1.120293 0.235035
v 0.968601 0.190683 0.235035
v 0.968601 1.120293 1.235035
v 0.968601 -0.879707 0.235035
v 0.968601 0.190683 0.235035
v 0.968601 -0.879707 0.235035
v 0.968601 -0.879707 1.235035
v 0.968601 -0.879707 0.235035
v -1.031399 1.120293 0.235035
v -1.031399 1.120293 0.235035
v -0.059299 1.120293 0.235035
v -1.031399 1.120293 0.235035
v -1.031399 1.120293 0.235035
v -0.059299 1.120293 0.235035
v -1.031399 1.120293 0.235035
v -1.031399 1.120293 0.235035
v -1.031399 -0.879707 0.235035
v -1.031399 1.120293 1.235035
v -2.031399 2.120293 0.235035
v -1.031399 -0.879707 1.235035
v -1.031399 1.120293 1.235035
v -1.031399 -0.879707 1.235035
v 0.968601 -0.879707 1.235035
v -1.031399 -0.879707 0.235035
v -2.031399 0.190683 0.235035
v -2.031399 -1.879707 0.235035
v -1.031399 0.190683 0.235035
v -1.031399 -1.879707 0.235035
v 0.968601 -0.879707 0.235035
v 0.968601 -0.879707 0.235035
v -0.059299 -1.879707 0.235035
v -1.031399 -1.879707 0.235035
v -1.031399 -1.879707 0.235035
v -0.059299 -1.879707 0.235035
v -1.031399 -1.879707 0.235035
v -1.031399 -1.879707 0.235035
v -1.031399 -1.879707 0.235035
v -1.031399 -1.879707 0.235035
v -1.031399 -1.879707 0.235035
v -1.031399 -1.879707 0.235035
v -2.031399 -1.879707 0.235035
v -2.031399 -1.879707 -1.764965
v -1.031399 -1.879707 0.235035
v -0.059299 -1.879707 0.235035
v 0.968601 -1.879707 0.235035
v 0.968601 -1.879707 0.235035
v 0.968601 -0.879707 0.235035
v 0.968601 -0.879707 0.235035
v 1.468601 1.620293 -0.764965
v 1.468601 -1.379707 -0.764965
v -1.531399 -1.379707 -0.764965
v 1.468601 -1.379707 -0.764965
v 1.468601 1.620293 -0.764965
v 1.468601 1.620293 -1.764965
v -1.531399 -1.379707 -0.764965
v 1.468601 -1.379707 -0.764965
v -1.531399 -1.379707 -1.764965
v 1.968601 2.120293 -1.764965
v 1.968601 -1.879707 -1.764965
v 1.468601 1.620293 -1.764965
v 1.968601 -1.879707 -1.764965
v 1.468601 -1.379707 -1.764965
v 1.468601 -1.379707 -1.764965
v 0.968601 -0.879707 0.235035
v 1.968601 -1.879707 0.235035
v 1.968601 -1.879707 -1.764965
v 1.968601 -1.879707 0.235035
v 1.968601 -1.879707 0.235035
v 0.968601 -0.879707 0.235035
v 0.968601 -0.879707 1.235035
v -1.031399 -0.879707 1.235035
v 0.968601 -0.879707 1.235035
v 0.968601 -0.879707 1.235035
v 0.968601 -0.879707 1.235035
v 0.968601 -0.879707 0.235035
v 1.968601 -0.879707 0.235035
v -1.031399 1.120293 1.235035
v -2.031399 1.120293 0.235035
v -2.031399 0.190683 0.235035
v -2.031399 2.120293 0.235035
v -2.031399 2.120293 -1.764965
v -2.031399 1.120293 0.235035
v -2.031399 2.120293 0.235035
v -1.531399 1.620293 -1.764965
v 1.468601 1.620293 -1.764965
v 1.468601 1.620293 -0.764965
v -1.531399 1.620293 -1.764965
v -1.531399 1.620293 -1.764965
v -1.531399 1.620293 -0.764965
v -1.531399 -1.379707 -0.764965
v -1.531399 1.620293 -0.764965
v -2.031399 -1.879707 -1.764965
v -2.031399 -0.879707 0.235035
v -1.031399 -0.879707 1.235035
v -2.031399 -0.879707 0.235035
v -2.031399 -0.879707 0.235035
v -1.031399 -0.879707 0.235035
v -1.031399 -0.879707 1.235035
v -2.031399 1.120293 0.235035
v -2.031399 -1.879707 -1.764965
v -2.031399 2.120293 -1.764965
v -1.531399 -1.379707 -1.764965
v -2.031399 -1.879707 0.235035
v -1.531399 -1.379707 -1.764965
v 1.468601 -1.379707 -1.764965
v -1.031399 -0.879707 1.235035
v -1.031399 -0.879707 0.235035
v -1.531399 1.620293 -0.764965
v 1.468601 1.620293 -1.764965
v 1.468601 1.620293 -0.764965
v 1.468601 -1.379707 -1.764965
v 1.468601 -1.379707 -0.764965
v -1.531399 1.620293 -0.764965
v 1.468601 1.620293 -0.764965
v -1.531399 1.620293 -1.764965
v 1.468601 1.620293 -1.764965
v 1.468601 1.620293 -0.764965
v -1.531399 1.620293 -0.764965
v 1.468601 -1.379707 -0.764965
v -1.531399 -1.379707 -0.764965
v -1.531399 1.620293 -0.764965
v -1.531399 1.620293 -1.764965
v -1.531399 -1.379707 -0.764965
v -1.531399 -1.379707 -1.764965
v -1.531399 -1.379707 -1.764965
v 1.468601 -1.379707 -1.764965
v -1.531399 -1.379707 -0.764965
v 1.468601 -1.379707 -0.764965
v -1.531399 1.620293 -1.764965
v 1.468601 1.620293 -1.764965
v -1.531399 -1.379707 -1.764965
v 1.468601 -1.379707 -1.764965
vn 1.0000 -0.0000 -0.0000
vn -0.0000 1.0000 -0.0000
vn -0.0000 -0.0000 -1.0000
vn -0.0000 -0.0000 1.0000
vn -0.0000 -0.7071 0.7071
vn -0.0000 -1.0000 -0.0000
vn -0.0000 0.7071 0.7071
vn -1.0000 -0.0000 -0.0000
vn 0.7071 -0.0000 0.7071
vn -0.0000 -0.0000 -0.0000
vn 0.0001 -0.7071 0.7071
vn -0.0000 -0.7072 0.7071
vn -0.7071 -0.0000 0.7071
vt 2.620520 -5.431550
vt 1.320520 -5.431550
vt 2.620520 -6.640040
vt -70.205498 -0.702791
vt -70.205498 -2.002790
vt -68.905502 -2.002790
vt -70.205498 -6.640040
vt -70.205498 -8.031550
vt -68.905502 -6.640040
vt 2.620520 -8.031550
vt 1.320520 -8.031550
vt 76.308296 -8.031550
vt 77.201500 -8.031550
vt 77.201500 -5.431550
vt -72.805496 -0.702789
vt -71.912300 -0.702789
vt 77.201500 -9.331550
vt 74.601501 -8.031550
vt 75.865196 -8.031550
vt -71.469101 -2.002790
vt -70.205498 -0.702790
vt 76.308296 -2.002790
vt 76.308296 -0.702789
vt 74.601501 -0.702789
vt -71.912300 -2.002790
vt -71.469101 -8.031550
vt -71.912300 -8.031550
vt -71.469101 -9.331550
vt -74.105499 -4.602790
vt -72.805496 -2.002790
vt -74.105499 -2.002790
vt -68.905502 -4.602790
vt 78.501503 -5.399050
vt 78.501503 -4.131550
vt 77.201500 -4.131550
vt 2.620520 -4.131550
vt 2.620520 -5.399050
vt 5.220520 -4.131550
vt 78.501503 -6.640040
vt -70.205498 -4.131550
vt -71.469101 -4.131550
vt -71.469101 -5.431550
vt 75.865196 -4.131550
vt 74.601501 -4.131550
vt 74.601501 -5.431550
vt 3.075520 -5.431550
vt 1.775520 -4.131550
vt 1.775520 -5.431550
vt -74.105499 -5.431550
vt -74.105499 -6.640040
vt -72.805496 -6.640040
vt 78.501503 -5.431550
vt -72.805496 -0.702790
vt 78.501503 -8.031550
vt -70.205498 -0.702789
vt -72.805496 -5.431550
vt 1.775520 -6.640040
vt 77.201500 -6.640040
vt 1.775520 -8.031550
vt 3.075520 -8.031550
vt -70.205498 -5.431550
vt 75.865196 -5.431550
vt 73.301498 -4.131550
vt 74.601501 -2.002790
vt 73.301498 -6.640040
vt 73.301498 -9.331550
vt 74.601501 -6.640040
vt 74.601501 -9.331550
vt 77.201500 -2.002790
vt 75.865196 -9.331550
vt 1.775520 -9.331550
vt -70.205498 -9.331550
vt 73.301498 -2.002790
vt 73.301498 -4.602790
vt 75.865196 -2.002790
vt -72.805496 -9.331550
vt 2.620520 -9.331550
vt -72.805496 -8.031550
vt -73.455498 -4.781550
vt -73.455498 -8.681550
vt -69.555496 -8.681550
vt 0.475522 -8.681550
vt 0.475522 -4.781550
vt -0.824477 -4.781550
vt -69.555496 -3.302790
vt -73.455498 -3.302790
vt -69.555496 -4.602790
vt -74.105499 -4.131550
vt -74.105499 -9.331550
vt 5.220520 -9.331550
vt -0.824477 -8.681550
vt 78.501503 -9.331550
vt 78.501503 -4.602790
vt 78.501503 -2.002790
vt 77.201500 -0.702789
vt 77.201500 -0.702790
vt 73.301498 -5.431550
vt -0.824477 -4.131550
vt 73.951500 -4.602790
vt 77.851501 -4.602790
vt 77.851501 -3.302790
vt -69.555496 -4.781550
vt 5.220520 -4.781550
vt 3.920520 -4.781550
vt 3.920520 -8.681550
vt 73.951500 -3.302790
vt -0.824477 -9.331550
vt 73.301498 -8.031550
vt -68.905502 -8.031550
vt 74.601501 -0.702790
vt -68.905502 -9.331550
vt -68.905502 -4.131550
vt 5.220520 -8.681550
vt -73.455498 -4.602790
vt 1.637810 2.389580
vt 0.337810 2.389580
vt 1.637810 -1.510420
vt 0.337810 -1.510420
vt 4.237810 2.389580
vt 4.237810 1.089580
vt 0.337810 1.089580
vt 4.237810 -1.510420
s 1
usemtl Tvbox1Mtl
f 1/1/1 2/2/1 3/3/1
f 4/4/2 5/5/2 6/6/2
f 7/7/3 8/8/3 9/9/3
f 10/10/1 3/3/1 11/11/1
f 12/12/4 13/13/4 14/14/4
s 0
f 15/15/2 16/16/2 17/15/3
s 1
f 18/13/5 19/12/5 20/17/5
s 0
f 21/11/3 22/11/3 23/11/3
f 24/18/4 25/19/4 26/18/4
s 1
f 27/20/2 28/5/2 29/21/2
f 30/22/6 31/23/6 32/24/6
f 16/16/2 33/25/2 27/20/2
f 34/26/3 35/27/3 36/28/3
f 37/29/2 38/30/2 39/31/2
f 38/30/2 37/29/2 40/32/2
f 41/33/4 42/34/4 43/35/4
f 44/36/1 45/37/1 46/38/1
f 46/38/1 45/37/1 47/10/1
f 48/14/4 41/33/4 43/35/4
f 41/33/4 48/14/4 49/39/4
f 50/40/3 51/41/3 52/42/3
f 53/43/7 54/44/7 55/45/7
f 53/43/7 56/14/7 57/35/7
f 56/14/7 53/43/7 55/45/7
f 58/46/8 59/47/8 60/48/8
s 0
f 61/43/4 62/35/4 43/35/4
s 1
f 63/49/3 64/50/3 65/51/3
f 66/39/9 67/52/9 68/14/9
f 69/53/2 70/31/2 71/30/2
f 66/39/9 72/13/9 73/54/9
f 72/13/9 66/39/9 68/14/9
s 0
f 49/39/4 74/54/4 41/33/4
f 48/14/4 43/35/4 62/35/4
s 1
f 75/2/1 76/1/1 77/36/1
s 0
f 78/1/10 79/2/10 80/2/10
f 81/15/3 82/53/2 83/55/2
s 1
f 78/1/1 80/2/1 84/10/1
f 65/51/3 85/56/3 63/49/3
f 86/48/8 87/57/8 88/46/8
s 0
f 89/13/4 90/58/4 48/14/4
s 1
f 87/57/8 91/59/8 92/60/8
f 87/57/8 92/60/8 88/46/8
s 0
f 89/13/4 48/14/4 93/13/4
s 1
f 90/58/4 49/39/4 48/14/4
f 52/42/3 94/61/3 50/40/3
s 0
f 95/5/2 96/20/2 97/5/3
s 1
f 98/45/4 99/62/4 61/43/4
s 0
f 100/48/3 101/48/8 102/59/8
s 1
f 14/14/4 103/45/4 12/12/4
f 61/43/4 104/63/4 98/45/4
s 0
f 104/63/4 61/43/4 43/35/4
s 1
f 105/60/8 106/46/8 102/59/8
f 103/45/4 107/18/4 12/12/4
s 0
f 14/14/4 13/13/4 108/13/4
s 1
f 102/59/8 106/46/8 100/48/8
f 32/24/6 109/64/6 30/22/6
f 26/18/4 110/65/4 111/66/4
f 110/65/4 26/18/4 112/67/4
s 0
f 24/18/4 26/18/4 113/68/4
f 93/13/4 26/18/4 25/19/4
f 109/64/6 114/69/6 30/22/6
f 30/22/6 114/69/3 115/69/6
s 1
f 93/13/4 25/19/4 116/70/4
s 0
f 117/68/4 118/68/5 119/70/5
f 120/71/3 121/71/3 122/71/3
f 123/72/3 124/72/3 36/28/3
s 1
f 125/64/6 126/73/6 127/74/6
s 0
f 126/73/6 125/64/3 128/64/6
s 1
f 129/75/6 125/64/6 127/74/6
f 36/28/3 35/27/3 130/76/3
f 131/77/1 132/10/1 23/11/1
f 133/78/3 130/76/3 35/27/3
f 119/70/5 20/17/5 19/12/5
f 134/79/3 135/80/3 136/81/3
f 137/82/8 138/83/8 139/84/8
f 140/85/2 141/86/2 142/87/2
f 143/88/3 144/89/3 145/79/3
f 146/90/1 46/38/1 47/10/1
f 139/84/8 147/91/8 137/82/8
f 148/80/3 145/79/3 144/89/3
f 149/13/4 116/70/4 150/92/4
s 0
f 116/70/4 149/13/4 93/13/4
s 1
f 151/93/6 152/94/6 129/75/6
f 153/77/1 146/90/1 47/10/1
f 149/13/4 150/92/4 74/54/4
s 0
f 91/59/10 154/59/10 92/60/10
f 149/13/4 89/13/4 93/13/4
f 115/69/10 114/69/10 155/95/10
s 1
f 117/68/5 119/70/5 156/18/5
s 0
f 20/17/11 157/13/4 18/13/12
s 1
f 156/18/5 119/70/5 19/12/5
f 84/10/1 80/2/1 158/11/1
f 159/96/6 160/69/6 161/94/6
f 162/45/13 163/97/13 164/65/13
f 165/47/8 166/98/8 167/48/8
f 40/32/2 168/6/2 38/30/2
f 169/99/6 170/100/6 171/101/6
f 145/79/3 172/102/3 143/88/3
f 173/103/1 174/104/1 175/105/1
f 176/106/6 169/99/6 171/101/6
f 167/48/8 166/98/8 177/107/8
f 164/65/13 178/108/13 179/18/13
f 180/109/3 9/9/3 8/8/3
f 181/73/6 182/64/6 183/110/6
s 0
f 111/66/4 110/65/4 184/97/4
s 1
f 185/111/3 186/112/3 187/81/3
f 177/107/8 188/71/8 167/48/8
f 144/89/3 185/111/3 187/81/3
f 127/74/6 151/93/6 129/75/6
f 189/113/1 173/103/1 175/105/1
f 172/102/3 187/81/3 186/112/3
f 144/89/3 187/81/3 148/80/3
f 190/114/2 142/87/2 141/86/2
f 111/66/4 113/68/4 26/18/4
f 29/21/2 16/16/2 27/20/2
f 11/11/1 3/3/1 2/2/1
s 0
f 98/45/4 112/67/4 26/18/4
s 1
f 179/18/13 162/45/13 164/65/13
f 184/97/4 98/45/4 104/63/4
f 191/60/8 192/59/8 121/71/8
f 134/79/3 136/81/3 193/102/3
f 186/112/3 143/88/3 172/102/3
usemtl Screen1Mtl
f 194/115/1 195/116/1 196/117/1
f 196/117/1 195/116/1 197/118/1
f 198/119/2 199/116/2 200/120/2
f 200/120/2 199/116/2 201/121/2
f 202/119/4 203/116/4 204/122/4
f 204/122/4 203/116/4 205/118/4
f 206/115/8 207/116/8 208/117/8
f 208/117/8 207/116/8 209/118/8
f 210/119/6 211/116/6 212/120/6
f 212/120/6 211/116/6 213/121/6
f 214/119/3 215/116/3 216/122/3
f 216/122/3 215/116/3 217/118/3
