# Blender 5.1.2
# www.blender.org
mtllib PressurePlate.mtl
o PressurePlate
v -0.158218 0.045861 -0.214138
v -0.158218 -0.104139 -0.214138
v -0.110619 0.045861 -0.151937
v -0.110619 -0.104139 -0.151937
v -0.080618 0.045861 -0.079638
v -0.080618 -0.104139 -0.079638
v -0.070418 0.045861 -0.001938
v -0.070418 -0.104139 -0.001938
v -0.080618 0.045861 0.075663
v -0.080618 -0.104139 0.075663
v -0.110619 0.045861 0.148062
v -0.110619 -0.104139 0.148062
v -0.158218 0.045861 0.210163
v -0.158218 -0.104139 0.210163
v -0.574219 0.045861 0.115763
v -0.528718 0.014211 0.156363
v -0.564319 0.014211 0.109962
v -0.536819 0.045861 0.164463
v -0.586618 0.014211 0.055964
v -0.564319 0.014211 0.109962
v -0.597818 0.045861 0.058962
v -0.574219 0.045861 0.115763
v -0.594318 0.014211 -0.001938
v -0.586618 0.014211 0.055964
v -0.605819 0.045861 -0.001938
v -0.597818 0.045861 0.058962
v -0.586618 0.014211 -0.059937
v -0.594318 0.014211 -0.001938
v -0.605819 0.045861 -0.001938
v -0.597818 0.045861 -0.062937
v -0.564319 0.014211 -0.113937
v -0.586618 0.014211 -0.059937
v -0.597818 0.045861 -0.062937
v -0.574219 0.045861 -0.119637
v -0.528718 0.014211 -0.160238
v -0.564319 0.014211 -0.113937
v -0.574219 0.045861 -0.119637
v -0.536819 0.045861 -0.168438
v -0.520418 0.045861 -0.261738
v -0.536819 0.045861 -0.168438
v -0.488118 0.045861 -0.205837
v -0.582519 0.045861 -0.214138
v -0.574219 0.045861 -0.119637
v -0.582519 0.045861 -0.214138
v -0.630219 0.045861 -0.151937
v -0.536819 0.045861 -0.168438
v -0.370419 0.045861 -0.301937
v -0.431318 0.045861 -0.229338
v -0.370419 0.045861 -0.237337
v -0.448018 0.045861 -0.291737
v -0.431318 0.045861 -0.229338
v -0.520418 0.045861 -0.261738
v -0.488118 0.045861 -0.205837
v -0.448018 0.045861 -0.291737
v -0.660218 0.045861 -0.079638
v -0.605819 0.045861 -0.001938
v -0.597818 0.045861 -0.062937
v -0.670419 0.045861 -0.001938
v -0.605819 0.045861 -0.001938
v -0.670419 0.045861 -0.001938
v -0.660218 0.045861 0.075663
v -0.597818 0.045861 0.058962
v -0.630219 0.045861 0.148062
v -0.574219 0.045861 0.115763
v -0.660218 0.045861 0.075663
v -0.597818 0.045861 0.058962
v -0.660218 0.045861 -0.079638
v -0.574219 0.045861 -0.119637
v -0.630219 0.045861 -0.151937
v -0.597818 0.045861 -0.062937
v -0.488118 0.045861 0.201862
v -0.582519 0.045861 0.210163
v -0.520418 0.045861 0.257862
v -0.536819 0.045861 0.164463
v -0.431318 0.045861 0.225462
v -0.520418 0.045861 0.257862
v -0.448018 0.045861 0.287762
v -0.488118 0.045861 0.201862
v -0.370419 0.045861 0.233463
v -0.448018 0.045861 0.287762
v -0.370419 0.045861 0.298063
v -0.448018 0.045861 0.287762
v -0.370419 0.045861 0.233463
v -0.431318 0.045861 0.225462
v -0.536819 0.045861 0.164463
v -0.630219 0.045861 0.148062
v -0.582519 0.045861 0.210163
v -0.574219 0.045861 0.115763
v -0.370419 0.045861 0.298063
v -0.309419 0.045861 0.225462
v -0.370419 0.045861 0.233463
v -0.292718 0.045861 0.287762
v -0.292718 0.045861 0.287762
v -0.252718 0.045861 0.201862
v -0.309419 0.045861 0.225462
v -0.220418 0.045861 0.257862
v -0.252718 0.045861 0.201862
v -0.220418 0.045861 0.257862
v -0.203918 0.045861 0.164463
v -0.158218 0.045861 0.210163
v -0.110619 0.045861 0.148062
v -0.166518 0.045861 0.115763
v -0.158218 0.045861 0.210163
v -0.203918 0.045861 0.164463
v -0.143019 0.045861 -0.062937
v -0.110619 0.045861 -0.151937
v -0.166518 0.045861 -0.119637
v -0.080618 0.045861 -0.079638
v -0.110619 0.045861 0.148062
v -0.080618 0.045861 0.075663
v -0.166518 0.045861 0.115763
v -0.143019 0.045861 0.058962
v -0.143019 0.045861 0.058962
v -0.070418 0.045861 -0.001938
v -0.135018 0.045861 -0.001938
v -0.070418 0.045861 -0.001938
v -0.143019 0.045861 0.058962
v -0.080618 0.045861 0.075663
v -0.135018 0.045861 -0.001938
v -0.080618 0.045861 -0.079638
v -0.143019 0.045861 -0.062937
v -0.070418 0.045861 -0.001938
v -0.220418 0.045861 -0.261738
v -0.309419 0.045861 -0.229338
v -0.252718 0.045861 -0.205837
v -0.292718 0.045861 -0.291737
v -0.292718 0.045861 -0.291737
v -0.370419 0.045861 -0.301937
v -0.309419 0.045861 -0.229338
v -0.370419 0.045861 -0.237337
v -0.166518 0.045861 -0.119637
v -0.158218 0.045861 -0.214138
v -0.203918 0.045861 -0.168438
v -0.110619 0.045861 -0.151937
v -0.203918 0.045861 -0.168438
v -0.158218 0.045861 -0.214138
v -0.252718 0.045861 -0.205837
v -0.220418 0.045861 -0.261738
v -0.300118 -0.051559 -0.020838
v -0.236718 -0.037009 -0.037737
v -0.307418 -0.051559 -0.038338
v -0.370419 -0.056569 -0.001938
v -0.250518 -0.037009 -0.071136
v -0.186419 -0.014349 -0.051237
v -0.205419 -0.014349 -0.097237
v -0.154119 0.014211 -0.059937
v -0.176518 0.014211 -0.113937
v -0.186419 -0.014349 -0.051237
v -0.232018 -0.037009 -0.001938
v -0.179918 -0.014349 -0.001938
v -0.146519 0.014211 -0.001938
v -0.236718 -0.037009 -0.037737
v -0.154119 0.014211 -0.059937
v -0.300118 -0.051559 -0.020838
v -0.297618 -0.051559 -0.001938
v -0.370419 -0.056569 -0.001938
v -0.146519 0.014211 -0.001938
v -0.186419 -0.014349 0.047363
v -0.154119 0.014211 0.055964
v -0.179918 -0.014349 -0.001938
v -0.232018 -0.037009 -0.001938
v -0.236718 -0.037009 0.033863
v -0.300118 -0.051559 0.016863
v -0.297618 -0.051559 -0.001938
v -0.370419 -0.056569 -0.001938
v -0.370419 -0.056569 -0.001938
v -0.307418 -0.051559 0.034363
v -0.300118 -0.051559 0.016863
v -0.236718 -0.037009 0.033863
v -0.250518 -0.037009 0.067263
v -0.186419 -0.014349 0.047363
v -0.205419 -0.014349 0.093262
v -0.154119 0.014211 0.055964
v -0.176518 0.014211 0.109962
v -0.212118 0.014211 0.156363
v -0.176518 0.014211 0.109962
v -0.205419 -0.014349 0.093262
v -0.235719 -0.014349 0.132662
v -0.272518 -0.037009 0.095863
v -0.250518 -0.037009 0.067263
v -0.318918 -0.051559 0.049463
v -0.307418 -0.051559 0.034363
v -0.370419 -0.056569 -0.001938
v -0.334019 -0.051559 0.061062
v -0.272518 -0.037009 0.095863
v -0.318918 -0.051559 0.049463
v -0.370419 -0.056569 -0.001938
v -0.301218 -0.037009 0.117863
v -0.275218 -0.014349 0.162962
v -0.235719 -0.014349 0.132662
v -0.258418 0.014211 0.191963
v -0.212118 0.014211 0.156363
v -0.334619 -0.037009 0.131662
v -0.275218 -0.014349 0.162962
v -0.301218 -0.037009 0.117863
v -0.334019 -0.051559 0.061062
v -0.351519 -0.051559 0.068262
v -0.370419 -0.056569 -0.001938
v -0.321118 -0.014349 0.181963
v -0.312418 0.014211 0.214262
v -0.258418 0.014211 0.191963
v -0.419719 -0.014349 0.181963
v -0.370419 0.014211 0.221962
v -0.370419 -0.014349 0.188463
v -0.428318 0.014211 0.214262
v -0.406219 -0.037009 0.131662
v -0.370419 -0.037009 0.136362
v -0.389218 -0.051559 0.068262
v -0.370419 -0.051559 0.070763
v -0.370419 -0.056569 -0.001938
v -0.419719 -0.014349 0.181963
v -0.465618 -0.014349 0.162962
v -0.482318 0.014211 0.191963
v -0.439618 -0.037009 0.117863
v -0.428318 0.014211 0.214262
v -0.406219 -0.037009 0.131662
v -0.406718 -0.051559 0.061062
v -0.389218 -0.051559 0.068262
v -0.370419 -0.056569 -0.001938
v -0.370419 -0.056569 -0.001938
v -0.421819 -0.051559 0.049463
v -0.406718 -0.051559 0.061062
v -0.468218 -0.037009 0.095863
v -0.439618 -0.037009 0.117863
v -0.465618 -0.014349 0.162962
v -0.505018 -0.014349 0.132662
v -0.482318 0.014211 0.191963
v -0.528718 0.014211 0.156363
v -0.528718 0.014211 0.156363
v -0.564319 0.014211 0.109962
v -0.535318 -0.014349 0.093262
v -0.505018 -0.014349 0.132662
v -0.468218 -0.037009 0.095863
v -0.490218 -0.037009 0.067263
v -0.421819 -0.051559 0.049463
v -0.433418 -0.051559 0.034363
v -0.370419 -0.056569 -0.001938
v -0.490218 -0.037009 0.067263
v -0.440619 -0.051559 0.016863
v -0.504018 -0.037009 0.033863
v -0.433418 -0.051559 0.034363
v -0.370419 -0.056569 -0.001938
v -0.535318 -0.014349 0.093262
v -0.554318 -0.014349 0.047363
v -0.586618 0.014211 0.055964
v -0.564319 0.014211 0.109962
v -0.439618 -0.037009 -0.121838
v -0.406718 -0.051559 -0.064938
v -0.406219 -0.037009 -0.135637
v -0.389218 -0.051559 -0.072237
v -0.370419 -0.056569 -0.001938
v -0.419719 -0.014349 -0.185938
v -0.465618 -0.014349 -0.166937
v -0.482318 0.014211 -0.195837
v -0.428318 0.014211 -0.218237
v -0.370419 -0.014349 -0.192438
v -0.419719 -0.014349 -0.185938
v -0.406219 -0.037009 -0.135637
v -0.428318 0.014211 -0.218237
v -0.370419 -0.037009 -0.140337
v -0.370419 0.014211 -0.225838
v -0.389218 -0.051559 -0.072237
v -0.370419 -0.051559 -0.074738
v -0.370419 -0.056569 -0.001938
v -0.370419 -0.014349 -0.192438
v -0.334619 -0.037009 -0.135637
v -0.321118 -0.014349 -0.185938
v -0.312418 0.014211 -0.218237
v -0.370419 -0.037009 -0.140337
v -0.370419 0.014211 -0.225838
v -0.351519 -0.051559 -0.072237
v -0.370419 -0.051559 -0.074738
v -0.370419 -0.056569 -0.001938
v -0.370419 -0.056569 -0.001938
v -0.334019 -0.051559 -0.064938
v -0.351519 -0.051559 -0.072237
v -0.334619 -0.037009 -0.135637
v -0.301218 -0.037009 -0.121838
v -0.321118 -0.014349 -0.185938
v -0.275218 -0.014349 -0.166937
v -0.312418 0.014211 -0.218237
v -0.258418 0.014211 -0.195837
v -0.212118 0.014211 -0.160238
v -0.258418 0.014211 -0.195837
v -0.235719 -0.014349 -0.136637
v -0.275218 -0.014349 -0.166937
v -0.301218 -0.037009 -0.121838
v -0.272518 -0.037009 -0.099838
v -0.334019 -0.051559 -0.064938
v -0.318918 -0.051559 -0.053438
v -0.370419 -0.056569 -0.001938
v -0.307418 -0.051559 -0.038338
v -0.272518 -0.037009 -0.099838
v -0.318918 -0.051559 -0.053438
v -0.370419 -0.056569 -0.001938
v -0.250518 -0.037009 -0.071136
v -0.235719 -0.014349 -0.136637
v -0.205419 -0.014349 -0.097237
v -0.212118 0.014211 -0.160238
v -0.176518 0.014211 -0.113937
v -0.370419 -0.014349 0.188463
v -0.334619 -0.037009 0.131662
v -0.370419 -0.037009 0.136362
v -0.321118 -0.014349 0.181963
v -0.351519 -0.051559 0.068262
v -0.370419 -0.051559 0.070763
v -0.370419 -0.056569 -0.001938
v -0.370419 0.014211 0.221962
v -0.312418 0.014211 0.214262
v -0.560819 -0.014349 -0.001938
v -0.504018 -0.037009 0.033863
v -0.508718 -0.037009 -0.001938
v -0.443118 -0.051559 -0.001938
v -0.440619 -0.051559 0.016863
v -0.370419 -0.056569 -0.001938
v -0.554318 -0.014349 0.047363
v -0.594318 0.014211 -0.001938
v -0.586618 0.014211 0.055964
v -0.554318 -0.014349 -0.051237
v -0.508718 -0.037009 -0.001938
v -0.504018 -0.037009 -0.037737
v -0.560819 -0.014349 -0.001938
v -0.443118 -0.051559 -0.001938
v -0.440619 -0.051559 -0.020838
v -0.370419 -0.056569 -0.001938
v -0.586618 0.014211 -0.059937
v -0.594318 0.014211 -0.001938
v -0.564319 0.014211 -0.113937
v -0.554318 -0.014349 -0.051237
v -0.535318 -0.014349 -0.097237
v -0.490218 -0.037009 -0.071136
v -0.586618 0.014211 -0.059937
v -0.504018 -0.037009 -0.037737
v -0.433418 -0.051559 -0.038338
v -0.440619 -0.051559 -0.020838
v -0.370419 -0.056569 -0.001938
v -0.370419 -0.056569 -0.001938
v -0.421819 -0.051559 -0.053438
v -0.433418 -0.051559 -0.038338
v -0.468218 -0.037009 -0.099838
v -0.490218 -0.037009 -0.071136
v -0.535318 -0.014349 -0.097237
v -0.505018 -0.014349 -0.136637
v -0.528718 0.014211 -0.160238
v -0.564319 0.014211 -0.113937
v -0.406718 -0.051559 -0.064938
v -0.468218 -0.037009 -0.099838
v -0.421819 -0.051559 -0.053438
v -0.370419 -0.056569 -0.001938
v -0.439618 -0.037009 -0.121838
v -0.505018 -0.014349 -0.136637
v -0.465618 -0.014349 -0.166937
v -0.482318 0.014211 -0.195837
v -0.528718 0.014211 -0.160238
v -0.448018 -0.104139 0.287762
v -0.370419 -0.104139 0.298063
v -0.448018 0.045861 0.287762
v -0.370419 0.045861 0.298063
v -0.520418 0.045861 0.257862
v -0.520418 -0.104139 0.257862
v -0.582519 0.045861 0.210163
v -0.582519 -0.104139 0.210163
v -0.158218 0.045861 0.210163
v -0.158218 -0.104139 0.210163
v -0.220418 0.045861 0.257862
v -0.220418 -0.104139 0.257862
v -0.292718 0.045861 0.287762
v -0.292718 -0.104139 0.287762
v -0.370419 0.045861 0.298063
v -0.370419 -0.104139 0.298063
v -0.482318 0.014211 -0.195837
v -0.428318 0.014211 -0.218237
v -0.431318 0.045861 -0.229338
v -0.488118 0.045861 -0.205837
v -0.428318 0.014211 -0.218237
v -0.370419 0.014211 -0.225838
v -0.370419 0.045861 -0.237337
v -0.431318 0.045861 -0.229338
v -0.312418 0.014211 -0.218237
v -0.370419 0.014211 -0.225838
v -0.370419 0.045861 -0.237337
v -0.309419 0.045861 -0.229338
v -0.312418 0.014211 -0.218237
v -0.258418 0.014211 -0.195837
v -0.309419 0.045861 -0.229338
v -0.252718 0.045861 -0.205837
v -0.212118 0.014211 -0.160238
v -0.252718 0.045861 -0.205837
v -0.258418 0.014211 -0.195837
v -0.203918 0.045861 -0.168438
v -0.482318 0.014211 -0.195837
v -0.528718 0.014211 -0.160238
v -0.488118 0.045861 -0.205837
v -0.536819 0.045861 -0.168438
v -0.582519 0.045861 0.210163
v -0.582519 -0.104139 0.210163
v -0.630219 0.045861 0.148062
v -0.630219 -0.104139 0.148062
v -0.660218 0.045861 0.075663
v -0.660218 -0.104139 0.075663
v -0.670419 0.045861 -0.001938
v -0.670419 -0.104139 -0.001938
v -0.660218 0.045861 -0.079638
v -0.660218 -0.104139 -0.079638
v -0.630219 0.045861 -0.151937
v -0.630219 -0.104139 -0.151937
v -0.582519 0.045861 -0.214138
v -0.582519 -0.104139 -0.214138
v -0.154119 0.014211 -0.059937
v -0.176518 0.014211 -0.113937
v -0.143019 0.045861 -0.062937
v -0.166518 0.045861 -0.119637
v -0.146519 0.014211 -0.001938
v -0.154119 0.014211 -0.059937
v -0.135018 0.045861 -0.001938
v -0.143019 0.045861 -0.062937
v -0.146519 0.014211 -0.001938
v -0.154119 0.014211 0.055964
v -0.135018 0.045861 -0.001938
v -0.143019 0.045861 0.058962
v -0.154119 0.014211 0.055964
v -0.176518 0.014211 0.109962
v -0.143019 0.045861 0.058962
v -0.166518 0.045861 0.115763
v -0.166518 0.045861 0.115763
v -0.212118 0.014211 0.156363
v -0.203918 0.045861 0.164463
v -0.176518 0.014211 0.109962
v -0.212118 0.014211 -0.160238
v -0.176518 0.014211 -0.113937
v -0.166518 0.045861 -0.119637
v -0.203918 0.045861 -0.168438
v -0.158218 -0.104139 -0.214138
v -0.630219 -0.104139 0.148062
v -0.520418 -0.104139 -0.261738
v -0.292718 -0.104139 -0.291737
v -0.220418 -0.104139 -0.261738
v -0.370419 -0.104139 -0.301937
v -0.448018 -0.104139 -0.291737
v -0.158218 -0.104139 0.210163
v -0.110619 -0.104139 -0.151937
v -0.670419 -0.104139 -0.001938
v -0.660218 -0.104139 0.075663
v -0.660218 -0.104139 -0.079638
v -0.582519 -0.104139 -0.214138
v -0.630219 -0.104139 -0.151937
v -0.070418 -0.104139 -0.001938
v -0.080618 -0.104139 -0.079638
v -0.110619 -0.104139 0.148062
v -0.080618 -0.104139 0.075663
v -0.520418 -0.104139 0.257862
v -0.582519 -0.104139 0.210163
v -0.370419 -0.104139 0.298063
v -0.448018 -0.104139 0.287762
v -0.220418 -0.104139 0.257862
v -0.292718 -0.104139 0.287762
v -0.582519 0.045861 -0.214138
v -0.582519 -0.104139 -0.214138
v -0.520418 0.045861 -0.261738
v -0.520418 -0.104139 -0.261738
v -0.448018 0.045861 -0.291737
v -0.448018 -0.104139 -0.291737
v -0.370419 0.045861 -0.301937
v -0.370419 -0.104139 -0.301937
v -0.292718 0.045861 -0.291737
v -0.292718 -0.104139 -0.291737
v -0.220418 0.045861 -0.261738
v -0.220418 -0.104139 -0.261738
v -0.158218 0.045861 -0.214138
v -0.158218 -0.104139 -0.214138
v -0.258418 0.014211 0.191963
v -0.212118 0.014211 0.156363
v -0.252718 0.045861 0.201862
v -0.203918 0.045861 0.164463
v -0.312418 0.014211 0.214262
v -0.258418 0.014211 0.191963
v -0.309419 0.045861 0.225462
v -0.252718 0.045861 0.201862
v -0.370419 0.014211 0.221962
v -0.428318 0.014211 0.214262
v -0.370419 0.045861 0.233463
v -0.431318 0.045861 0.225462
v -0.482318 0.014211 0.191963
v -0.428318 0.014211 0.214262
v -0.431318 0.045861 0.225462
v -0.488118 0.045861 0.201862
v -0.482318 0.014211 0.191963
v -0.528718 0.014211 0.156363
v -0.488118 0.045861 0.201862
v -0.536819 0.045861 0.164463
v -0.370419 0.014211 0.221962
v -0.312418 0.014211 0.214262
v -0.370419 0.045861 0.233463
v -0.309419 0.045861 0.225462
v 2.529612 0.170861 -0.901937
v 2.529612 0.170861 0.898062
v 2.529612 0.070861 -0.901937
v 2.529612 0.070861 0.898062
v 0.729582 0.170861 0.898062
v 2.529612 0.170861 0.898062
v 0.729582 0.170861 -0.901937
v 2.529612 0.170861 -0.901937
v 2.529612 0.170861 0.898062
v 0.729582 0.170861 0.898062
v 2.529612 0.070861 0.898062
v 0.729582 0.070861 0.898062
v 0.729582 0.170861 0.898062
v 0.729582 0.170861 -0.901937
v 0.729582 0.070861 0.898062
v 0.729582 0.070861 -0.901937
v 0.729582 0.070861 -0.901937
v 2.529612 0.070861 -0.901937
v 0.729582 0.070861 0.898062
v 2.529612 0.070861 0.898062
v 0.729582 0.170861 -0.901937
v 2.529612 0.170861 -0.901937
v 0.729582 0.070861 -0.901937
v 2.529612 0.070861 -0.901937
v 2.629612 0.020861 -0.901937
v 2.529612 -0.129139 -1.001938
v 2.529612 0.020861 -1.001938
v 2.629612 -0.129139 -0.901937
v 2.629612 0.020861 0.898062
v 2.529612 0.020861 0.998062
v 2.629612 -0.129139 0.898062
v 2.529612 -0.129139 0.998062
v 2.629612 0.020861 0.898062
v 2.629612 -0.129139 -0.901937
v 2.629612 0.020861 -0.901937
v 2.629612 -0.129139 0.898062
v 2.579612 0.070861 0.848063
v 2.579612 0.020861 -0.851938
v 2.579612 0.070861 -0.851938
v 2.579612 0.020861 0.848063
v 2.579612 0.070861 -0.851938
v 0.779582 0.070861 -0.951937
v 0.779582 0.070861 0.948063
v 2.479611 0.070861 -0.951937
v 0.679582 0.070861 -0.851938
v 0.679582 0.070861 0.848063
v 2.579612 0.070861 0.848063
v 2.479611 0.070861 0.948063
v 2.629612 0.020861 -0.901937
v 0.729582 0.020861 -1.001938
v 0.729582 0.020861 0.998062
v 2.529612 0.020861 -1.001938
v 0.629581 0.020861 -0.901937
v 0.629581 0.020861 0.898062
v 2.629612 0.020861 0.898062
v 2.529612 0.020861 0.998062
v 2.479611 0.020861 0.948063
v 2.579612 0.020861 0.848063
v 2.479611 0.070861 0.948063
v 2.579612 0.070861 0.848063
v 0.729582 0.020861 0.998062
v 2.529612 -0.129139 0.998062
v 2.529612 0.020861 0.998062
v 0.729582 -0.129139 0.998062
v 0.779582 0.070861 0.948063
v 2.479611 0.020861 0.948063
v 2.479611 0.070861 0.948063
v 0.779582 0.020861 0.948063
v 0.629581 0.020861 -0.901937
v 0.729582 0.020861 -1.001938
v 0.629581 -0.129139 -0.901937
v 0.729582 -0.129139 -1.001938
v 0.729582 0.020861 0.998062
v 0.629581 0.020861 0.898062
v 0.729582 -0.129139 0.998062
v 0.629581 -0.129139 0.898062
v 0.779582 0.020861 -0.951937
v 0.679582 0.020861 -0.851938
v 0.779582 0.070861 -0.951937
v 0.679582 0.070861 -0.851938
v 0.679582 0.020861 0.848063
v 0.779582 0.020861 0.948063
v 0.679582 0.070861 0.848063
v 0.779582 0.070861 0.948063
v 0.629581 0.020861 -0.901937
v 0.629581 -0.129139 0.898062
v 0.629581 0.020861 0.898062
v 0.629581 -0.129139 -0.901937
v 0.679582 0.070861 -0.851938
v 0.679582 0.020861 0.848063
v 0.679582 0.070861 0.848063
v 0.679582 0.020861 -0.851938
v 2.629612 -0.129139 -0.901937
v 0.729582 -0.129139 0.998062
v 0.729582 -0.129139 -1.001938
v 2.529612 -0.129139 -1.001938
v 2.629612 -0.129139 0.898062
v 2.529612 -0.129139 0.998062
v 0.629581 -0.129139 -0.901937
v 0.629581 -0.129139 0.898062
v 2.579612 0.070861 -0.851938
v 2.479611 0.020861 -0.951937
v 2.479611 0.070861 -0.951937
v 2.579612 0.020861 -0.851938
v 2.529612 0.020861 -1.001938
v 0.729582 -0.129139 -1.001938
v 0.729582 0.020861 -1.001938
v 2.529612 -0.129139 -1.001938
v 2.479611 0.070861 -0.951937
v 0.779582 0.020861 -0.951937
v 0.779582 0.070861 -0.951937
v 2.479611 0.020861 -0.951937
vn 0.8644 -0.0000 -0.5029
vn 0.7071 -0.0000 -0.7071
vn 0.9659 -0.0000 -0.2589
vn 0.9658 -0.0000 -0.2593
vn 1.0000 -0.0000 0.0001
vn 0.9658 -0.0000 0.2591
vn 0.8644 -0.0000 0.5029
vn 0.7071 -0.0000 0.7071
vn 0.8128 0.3393 -0.4735
vn 0.5928 0.5453 -0.5927
vn 0.7266 0.5449 -0.4186
vn 0.6649 0.3404 -0.6649
vn 0.9082 0.3396 -0.2448
vn 0.8104 0.5428 -0.2203
vn 0.9405 0.3398 -0.0001
vn 0.8104 0.5429 -0.2203
vn 0.8381 0.5455 -0.0000
vn 0.8104 0.5428 0.2203
vn 0.9405 0.3398 -0.0000
vn 0.9085 0.3387 0.2448
vn 0.7266 0.5449 0.4185
vn 0.9082 0.3396 0.2448
vn 0.8104 0.5429 0.2203
vn 0.8128 0.3393 0.4734
vn 0.5927 0.5453 0.5927
vn 0.8128 0.3393 0.4735
vn 0.7266 0.5449 0.4186
vn 0.6649 0.3404 0.6649
vn -0.0000 1.0000 -0.0000
vn -0.1413 0.9892 0.0393
vn -0.3081 0.9481 0.0790
vn -0.1257 0.9896 0.0707
vn -0.2765 0.9479 0.1580
vn -0.5254 0.8391 0.1412
vn -0.4713 0.8405 0.2671
vn -0.8104 0.5429 0.2203
vn -0.7265 0.5449 0.4185
vn -0.5254 0.8391 0.1411
vn -0.3162 0.9487 -0.0000
vn -0.5419 0.8404 -0.0000
vn -0.8381 0.5456 -0.0000
vn -0.1413 0.9892 0.0392
vn -0.1491 0.9888 -0.0000
vn -0.5254 0.8391 -0.1412
vn -0.8104 0.5429 -0.2203
vn -0.3081 0.9481 -0.0790
vn -0.1413 0.9892 -0.0392
vn -0.1257 0.9896 -0.0707
vn -0.1413 0.9892 -0.0393
vn -0.2765 0.9479 -0.1580
vn -0.4713 0.8405 -0.2671
vn -0.7265 0.5450 -0.4185
vn -0.5927 0.5454 -0.5927
vn -0.7265 0.5450 -0.4186
vn -0.3844 0.8394 -0.3844
vn -0.2287 0.9463 -0.2287
vn -0.1021 0.9895 -0.1021
vn -0.0707 0.9896 -0.1256
vn -0.1580 0.9479 -0.2765
vn -0.2671 0.8405 -0.4713
vn -0.4185 0.5450 -0.7265
vn -0.0790 0.9481 -0.3081
vn -0.0707 0.9896 -0.1257
vn -0.0392 0.9892 -0.1413
vn -0.1411 0.8391 -0.5254
vn -0.2203 0.5429 -0.8104
vn 0.1411 0.8391 -0.5254
vn -0.0000 0.5456 -0.8381
vn -0.0000 0.8404 -0.5419
vn 0.2203 0.5429 -0.8104
vn 0.0790 0.9481 -0.3081
vn -0.0000 0.9487 -0.3162
vn 0.0392 0.9892 -0.1413
vn -0.0000 0.9888 -0.1491
vn 0.1412 0.8391 -0.5254
vn 0.2671 0.8405 -0.4713
vn 0.4185 0.5450 -0.7265
vn 0.1580 0.9479 -0.2765
vn 0.0707 0.9896 -0.1257
vn 0.0393 0.9892 -0.1413
vn 0.1021 0.9895 -0.1021
vn 0.2287 0.9463 -0.2287
vn 0.3844 0.8394 -0.3844
vn 0.4186 0.5450 -0.7265
vn 0.5927 0.5453 -0.5927
vn 0.4713 0.8405 -0.2671
vn 0.7265 0.5449 -0.4186
vn 0.3844 0.8394 -0.3843
vn 0.2765 0.9479 -0.1580
vn 0.1256 0.9896 -0.0707
vn 0.1413 0.9892 -0.0393
vn 0.3081 0.9481 -0.0790
vn 0.1257 0.9896 -0.0707
vn 0.5254 0.8391 -0.1411
vn 0.7265 0.5449 -0.4185
vn 0.1580 0.9479 0.2765
vn 0.0707 0.9896 0.1257
vn 0.0790 0.9481 0.3081
vn 0.0393 0.9892 0.1413
vn 0.1412 0.8391 0.5254
vn 0.2671 0.8405 0.4713
vn 0.4185 0.5449 0.7265
vn 0.2203 0.5429 0.8104
vn -0.0000 0.8404 0.5419
vn 0.1411 0.8391 0.5254
vn -0.0000 0.9487 0.3162
vn -0.0000 0.5456 0.8381
vn 0.0392 0.9892 0.1413
vn -0.0000 0.9888 0.1491
vn -0.0790 0.9481 0.3081
vn -0.1411 0.8391 0.5254
vn -0.2203 0.5429 0.8104
vn -0.0392 0.9892 0.1413
vn -0.0707 0.9896 0.1257
vn -0.0393 0.9892 0.1413
vn -0.1580 0.9479 0.2765
vn -0.1412 0.8391 0.5254
vn -0.2671 0.8405 0.4713
vn -0.4185 0.5450 0.7265
vn -0.4186 0.5450 0.7265
vn -0.3844 0.8394 0.3844
vn -0.5927 0.5453 0.5927
vn -0.2287 0.9463 0.2287
vn -0.0707 0.9896 0.1256
vn -0.1021 0.9895 0.1021
vn -0.3844 0.8394 0.3843
vn -0.7265 0.5450 0.4185
vn 0.5419 0.8404 -0.0000
vn 0.3162 0.9487 -0.0000
vn 0.1491 0.9888 -0.0000
vn 0.8381 0.5456 -0.0000
vn 0.5254 0.8391 0.1412
vn 0.3081 0.9481 0.0790
vn 0.1413 0.9892 0.0392
vn 0.8380 0.5456 -0.0000
vn 0.7265 0.5450 0.4185
vn 0.4713 0.8405 0.2671
vn 0.2765 0.9479 0.1580
vn 0.1257 0.9896 0.0707
vn 0.1413 0.9892 0.0393
vn 0.1021 0.9895 0.1021
vn 0.2287 0.9463 0.2287
vn 0.3844 0.8394 0.3844
vn 0.7265 0.5450 0.4186
vn 0.3843 0.8394 0.3844
vn 0.4185 0.5450 0.7265
vn -0.2588 -0.0000 0.9659
vn -0.0000 -0.0000 1.0000
vn -0.2592 -0.0000 0.9658
vn -0.5029 -0.0000 0.8644
vn -0.7071 -0.0000 0.7071
vn 0.5028 -0.0000 0.8644
vn 0.5029 -0.0000 0.8644
vn 0.2593 -0.0000 0.9658
vn 0.2590 -0.0000 0.9659
vn 0.0001 -0.0000 1.0000
vn 0.4186 0.5449 0.7266
vn 0.2448 0.3396 0.9082
vn 0.4735 0.3393 0.8128
vn -0.0000 0.5455 0.8381
vn -0.0000 0.3398 0.9405
vn -0.2448 0.3396 0.9082
vn -0.4185 0.5449 0.7266
vn -0.4735 0.3393 0.8128
vn -0.5927 0.5453 0.5928
vn -0.4186 0.5449 0.7266
vn -0.6652 0.3388 0.6654
vn 0.4738 0.3379 0.8132
vn 0.5927 0.5453 0.5928
vn -0.8644 -0.0000 0.5029
vn -0.9659 -0.0000 0.2588
vn -0.9658 -0.0000 0.2591
vn -1.0000 -0.0000 0.0001
vn -0.9659 -0.0000 -0.2589
vn -0.8644 -0.0000 -0.5029
vn -0.8644 -0.0000 -0.5028
vn -0.7071 -0.0000 -0.7071
vn -0.7266 0.5449 0.4186
vn -0.8104 0.5428 0.2203
vn -0.9082 0.3396 0.2448
vn -0.8128 0.3393 0.4734
vn -0.8381 0.5455 -0.0000
vn -0.9405 0.3398 -0.0000
vn -0.9082 0.3396 -0.2448
vn -0.7266 0.5449 -0.4185
vn -0.8104 0.5428 -0.2203
vn -0.8128 0.3393 -0.4734
vn -0.8128 0.3393 -0.4735
vn -0.5927 0.5453 -0.5927
vn -0.6649 0.3404 -0.6649
vn -0.7266 0.5449 -0.4186
vn -0.5928 0.5453 0.5927
vn -0.8128 0.3393 0.4735
vn -0.6649 0.3404 0.6649
vn -0.0000 -1.0000 -0.0000
vn -0.5029 -0.0000 -0.8644
vn -0.2593 -0.0000 -0.9658
vn -0.2591 -0.0000 -0.9658
vn -0.0001 -0.0000 -1.0000
vn 0.2589 -0.0000 -0.9659
vn 0.5029 -0.0000 -0.8644
vn -0.4186 0.5449 -0.7266
vn -0.4735 0.3393 -0.8128
vn -0.2449 0.3396 -0.9081
vn -0.2203 0.5428 -0.8104
vn -0.4734 0.3393 -0.8128
vn -0.0000 0.3398 -0.9405
vn -0.0000 0.5455 -0.8381
vn 0.2448 0.3387 -0.9085
vn 0.4186 0.5449 -0.7266
vn 0.2448 0.3396 -0.9082
vn 0.4735 0.3393 -0.8128
vn 0.5927 0.5453 -0.5928
vn -0.2448 0.3396 -0.9082
vn 1.0000 -0.0000 -0.0000
vn -1.0000 -0.0000 -0.0000
vn -0.0000 -0.0000 -1.0000
vt 0.634345 1.303650
vt 0.715117 1.108650
vt 0.715117 1.303650
vt 0.634345 1.108650
vt 0.540285 1.303650
vt 0.540285 1.108650
vt 0.439345 1.303650
vt 0.439345 1.108650
vt 0.338406 1.303650
vt 0.338406 1.108650
vt 0.244346 1.303650
vt 0.244346 1.108650
vt 0.163574 1.303650
vt 0.163574 1.108650
vt 0.286332 1.303650
vt 0.233542 1.262500
vt 0.293821 1.262500
vt 0.222951 1.303650
vt 0.360139 1.303650
vt 0.364016 1.262500
vt 0.439345 1.262500
vt 0.514675 1.262500
vt 0.518551 1.303650
vt 0.584870 1.262500
vt 0.592359 1.303650
vt 0.645149 1.262500
vt 0.655740 1.303650
vt 0.634345 0.868397
vt 0.655740 0.989752
vt 0.592359 0.941118
vt 0.715117 0.930375
vt 0.704373 1.053130
vt 0.777095 1.011150
vt 0.439345 0.816146
vt 0.518551 0.910546
vt 0.439345 0.900118
vt 0.540285 0.829435
vt 0.816056 1.105210
vt 0.745373 1.206150
vt 0.734945 1.126940
vt 0.829345 1.206150
vt 0.816056 1.307090
vt 0.734945 1.285350
vt 0.777095 1.401150
vt 0.704373 1.359160
vt 0.592359 1.471170
vt 0.715117 1.481920
vt 0.634345 1.543900
vt 0.655740 1.422540
vt 0.518551 1.501750
vt 0.540285 1.582860
vt 0.439345 1.512170
vt 0.439345 1.596150
vt 0.360139 1.501750
vt 0.338406 1.582860
vt 0.286332 1.471170
vt 0.244345 1.543900
vt 0.222951 1.422540
vt 0.163574 1.481920
vt 0.101595 1.401150
vt 0.174317 1.359160
vt 0.143745 1.126940
vt 0.101596 1.011150
vt 0.174317 1.053130
vt 0.062634 1.105210
vt 0.062634 1.307090
vt 0.143745 1.285350
vt 0.049345 1.206150
vt 0.133317 1.206150
vt 0.244345 0.868396
vt 0.360139 0.910546
vt 0.286332 0.941118
vt 0.338406 0.829435
vt 0.163574 0.930375
vt 0.222951 0.989752
vt 0.348000 1.181670
vt 0.265596 1.159590
vt 0.357447 1.158860
vt 0.439345 1.206150
vt 0.283566 1.116210
vt 0.200200 1.142070
vt 0.224933 1.082360
vt 0.158213 1.130820
vt 0.187289 1.060620
vt 0.259467 1.206150
vt 0.191764 1.206150
vt 0.148296 1.206150
vt 0.344778 1.206150
vt 0.200200 1.270220
vt 0.158213 1.281480
vt 0.265596 1.252700
vt 0.348000 1.230620
vt 0.357447 1.253430
vt 0.283566 1.296090
vt 0.224933 1.329940
vt 0.187289 1.351670
vt 0.233542 1.411950
vt 0.264279 1.381210
vt 0.312152 1.333340
vt 0.372476 1.273020
vt 0.392061 1.288040
vt 0.349406 1.361930
vt 0.315555 1.420560
vt 0.293820 1.458200
vt 0.392789 1.379900
vt 0.414869 1.297490
vt 0.375266 1.445290
vt 0.364016 1.487280
vt 0.503424 1.445290
vt 0.439345 1.497200
vt 0.439345 1.453730
vt 0.514675 1.487280
vt 0.485901 1.379900
vt 0.439345 1.386020
vt 0.463821 1.297490
vt 0.439345 1.300710
vt 0.563136 1.420560
vt 0.584870 1.458200
vt 0.529285 1.361930
vt 0.486629 1.288040
vt 0.506215 1.273020
vt 0.566539 1.333340
vt 0.614412 1.381210
vt 0.645149 1.411950
vt 0.653758 1.329940
vt 0.691402 1.351670
vt 0.595125 1.296090
vt 0.521243 1.253430
vt 0.530691 1.230620
vt 0.613095 1.252700
vt 0.678491 1.270220
vt 0.720478 1.281480
vt 0.529285 1.050370
vt 0.486629 1.124250
vt 0.485901 1.032400
vt 0.463821 1.114800
vt 0.503424 0.967001
vt 0.563136 0.991734
vt 0.584870 0.954090
vt 0.514675 0.925014
vt 0.439345 0.958565
vt 0.439345 1.026270
vt 0.439345 0.915096
vt 0.439345 1.111580
vt 0.392789 1.032400
vt 0.375266 0.967001
vt 0.364016 0.925014
vt 0.414869 1.114800
vt 0.392061 1.124250
vt 0.349406 1.050370
vt 0.315555 0.991734
vt 0.293820 0.954090
vt 0.264279 1.031080
vt 0.233542 1.000340
vt 0.312152 1.078950
vt 0.372476 1.139280
vt 0.686927 1.206150
vt 0.619224 1.206150
vt 0.533913 1.206150
vt 0.730395 1.206150
vt 0.678491 1.142070
vt 0.613095 1.159590
vt 0.530691 1.181670
vt 0.720478 1.130820
vt 0.691402 1.060620
vt 0.653758 1.082360
vt 0.595125 1.116210
vt 0.521243 1.158860
vt 0.506215 1.139280
vt 0.566539 1.078950
vt 0.614412 1.031080
vt 0.645149 1.000340
vt 0.244345 1.303650
vt 0.244345 1.108650
vt 0.634346 1.303650
vt 0.634346 1.108650
vt 0.293820 1.262500
vt 0.286331 1.303650
vt 0.514674 1.262500
vt 0.645148 1.262500
vt 0.101596 1.401150
vt 0.244345 0.868397
vt 0.634345 0.868396
vt 0.101595 1.011150
vt 0.634346 1.543900
vt 1.019300 -0.674096
vt -1.320700 -0.674096
vt 1.019300 -0.804096
vt -1.320700 -0.804096
vt 1.019300 -3.014100
vt -1.320700 -3.014100
vt 1.460690 1.866570
vt 1.590690 1.671570
vt 1.590690 1.866570
vt 1.460690 1.671570
vt -0.879310 1.866570
vt -1.009310 1.866570
vt -0.879310 1.671570
vt -1.009310 1.671570
vt -0.814310 1.931570
vt 1.395690 1.866570
vt 1.395690 1.931570
vt -0.814310 1.866570
vt -0.944310 0.696570
vt 1.395690 0.566570
vt 1.395690 3.036570
vt -0.814309 0.566570
vt 1.525690 0.696570
vt 1.525690 2.906570
vt -0.944310 2.906570
vt -0.814309 3.036570
vt -1.009310 0.631570
vt 1.460690 0.501570
vt 1.460690 3.101570
vt -0.879310 0.501570
vt 1.590690 0.631570
vt 1.590690 2.971570
vt -1.009310 2.971570
vt -0.879310 3.101570
vt 1.525690 1.866570
vt 1.525690 1.931570
vt -0.814309 1.931570
vt -0.814309 1.866570
vt -0.879309 1.866570
vt -0.879309 1.671570
vt -0.944310 1.866570
vt -0.944310 1.931570
s 1
usemtl Output1Mtl.004
f 3/1/1 2/2/2 1/3/2
f 2/2/2 3/1/1 4/4/1
f 3/1/1 5/5/3 4/4/1
f 4/4/1 5/5/3 6/6/4
f 5/5/3 7/7/5 6/6/4
f 6/6/4 7/7/5 8/8/5
f 7/7/5 9/9/6 8/8/5
f 8/8/5 9/9/6 10/10/6
f 9/9/6 11/11/7 10/10/6
f 10/10/6 11/11/7 12/12/7
f 12/12/7 11/11/7 13/13/8
f 12/12/7 13/13/8 14/14/8
f 15/15/9 16/16/10 17/17/11
f 16/16/10 15/15/9 18/18/12
f 21/19/13 20/17/11 19/20/14
f 20/17/11 21/19/13 22/15/9
f 25/7/15 24/20/16 23/21/17
f 24/20/16 25/7/15 26/19/13
f 27/22/18 29/7/19 28/21/17
f 29/7/19 27/22/18 30/23/20
f 31/24/21 33/23/22 32/22/23
f 33/23/22 31/24/21 34/25/24
f 35/26/25 37/25/26 36/24/27
f 37/25/26 35/26/25 38/27/28
f 39/28/29 40/29/29 41/30/29
f 40/29/29 39/28/29 42/31/29
f 43/32/29 44/31/29 45/33/29
f 44/31/29 43/32/29 46/29/29
f 47/34/29 48/35/29 49/36/29
f 48/35/29 47/34/29 50/37/29
f 51/35/29 52/28/29 53/30/29
f 52/28/29 51/35/29 54/37/29
f 55/38/29 56/39/29 57/40/29
f 56/39/29 55/38/29 58/41/29
f 59/39/29 60/41/29 61/42/29
f 59/39/29 61/42/29 62/43/29
f 63/44/29 64/45/29 65/42/29
f 65/42/29 64/45/29 66/43/29
f 67/38/29 68/32/29 69/33/29
f 68/32/29 67/38/29 70/40/29
f 71/46/29 72/47/29 73/48/29
f 72/47/29 71/46/29 74/49/29
f 75/50/29 76/48/29 77/51/29
f 76/48/29 75/50/29 78/46/29
f 79/52/29 80/51/29 81/53/29
f 82/51/29 83/52/29 84/50/29
f 85/49/29 86/44/29 87/47/29
f 86/44/29 85/49/29 88/45/29
f 89/53/29 90/54/29 91/52/29
f 90/54/29 89/53/29 92/55/29
f 93/55/29 94/56/29 95/54/29
f 94/56/29 93/55/29 96/57/29
f 97/56/29 98/57/29 99/58/29
f 98/57/29 100/59/29 99/58/29
f 101/60/29 102/61/29 103/59/29
f 103/59/29 102/61/29 104/58/29
f 105/62/29 106/63/29 107/64/29
f 106/63/29 105/62/29 108/65/29
f 109/60/29 110/66/29 111/61/29
f 110/66/29 112/67/29 111/61/29
f 113/67/29 114/68/29 115/69/29
f 116/68/29 117/67/29 118/66/29
f 119/69/29 120/65/29 121/62/29
f 120/65/29 119/69/29 122/68/29
f 123/70/29 124/71/29 125/72/29
f 124/71/29 123/70/29 126/73/29
f 127/73/29 128/34/29 129/71/29
f 128/34/29 130/36/29 129/71/29
f 131/64/29 132/74/29 133/75/29
f 132/74/29 131/64/29 134/63/29
f 135/75/29 136/74/29 137/72/29
f 136/74/29 138/70/29 137/72/29
f 139/76/30 140/77/31 141/78/32
f 142/79/29 139/76/30 141/78/32
f 141/78/32 140/77/31 143/80/33
f 140/77/31 144/81/34 143/80/33
f 143/80/33 144/81/34 145/82/35
f 145/82/35 144/81/34 146/83/36
f 145/82/35 146/83/36 147/84/37
f 148/81/38 149/85/39 150/86/40
f 148/81/38 150/86/40 151/87/41
f 149/85/39 148/81/38 152/77/31
f 148/81/38 151/87/41 153/83/36
f 152/77/31 154/76/42 149/85/39
f 155/88/43 149/85/39 154/76/42
f 156/79/29 155/88/43 154/76/42
f 157/87/41 158/89/44 159/90/45
f 158/89/44 157/87/41 160/86/40
f 160/86/40 161/85/39 158/89/44
f 161/85/39 162/91/46 158/89/44
f 161/85/39 163/92/47 162/91/46
f 163/92/47 161/85/39 164/88/43
f 165/79/29 163/92/47 164/88/43
f 166/79/29 167/93/48 168/92/49
f 167/93/48 169/91/46 168/92/49
f 169/91/46 167/93/48 170/94/50
f 170/94/50 171/89/44 169/91/46
f 171/89/44 170/94/50 172/95/51
f 172/95/51 173/90/45 171/89/44
f 173/90/45 172/95/51 174/96/52
f 175/97/53 176/96/54 177/95/51
f 175/97/53 177/95/51 178/98/55
f 177/95/51 179/99/56 178/98/55
f 179/99/56 177/95/51 180/94/50
f 180/94/50 181/100/57 179/99/56
f 181/100/57 180/94/50 182/93/48
f 183/79/29 181/100/57 182/93/48
f 184/101/58 185/99/56 186/100/57
f 187/79/29 184/101/58 186/100/57
f 185/99/56 184/101/58 188/102/59
f 189/103/60 185/99/56 188/102/59
f 185/99/56 189/103/60 190/98/55
f 191/104/61 190/98/55 189/103/60
f 190/98/55 191/104/61 192/97/53
f 193/105/62 194/103/60 195/102/59
f 196/101/63 193/105/62 195/102/59
f 193/105/62 196/101/63 197/106/64
f 198/79/29 197/106/64 196/101/63
f 194/103/60 193/105/62 199/107/65
f 200/108/66 194/103/60 199/107/65
f 194/103/60 200/108/66 201/104/61
f 202/109/67 203/110/68 204/111/69
f 203/110/68 202/109/67 205/112/70
f 204/111/69 206/113/71 202/109/67
f 206/113/71 204/111/69 207/114/72
f 207/114/72 208/115/73 206/113/71
f 208/115/73 207/114/72 209/116/74
f 210/79/29 208/115/73 209/116/74
f 211/109/75 212/117/76 213/118/77
f 211/109/75 214/119/78 212/117/76
f 211/109/75 213/118/77 215/112/70
f 214/119/78 211/109/75 216/113/71
f 216/113/71 217/120/79 214/119/78
f 217/120/79 216/113/71 218/115/80
f 219/79/29 217/120/79 218/115/80
f 220/79/29 221/121/81 222/120/79
f 222/120/79 221/121/81 223/122/82
f 224/119/78 222/120/79 223/122/82
f 223/122/82 225/117/76 224/119/78
f 225/117/76 223/122/82 226/123/83
f 226/123/83 227/118/84 225/117/76
f 227/118/84 226/123/83 228/124/85
f 229/124/85 231/125/86 230/126/87
f 231/125/86 229/124/85 232/123/88
f 231/125/86 232/123/88 233/122/82
f 231/125/86 233/122/82 234/127/89
f 233/122/82 235/121/81 234/127/89
f 234/127/89 235/121/81 236/128/90
f 237/79/29 236/128/90 235/121/81
f 238/127/89 239/129/91 240/130/92
f 239/129/91 238/127/89 241/128/93
f 242/79/29 239/129/91 241/128/93
f 240/130/92 243/125/86 238/127/89
f 243/125/86 240/130/92 244/131/94
f 245/132/16 243/125/86 244/131/94
f 245/132/16 246/126/95 243/125/86
f 247/133/96 248/134/97 249/135/98
f 248/134/97 250/136/99 249/135/98
f 251/79/29 250/136/99 248/134/97
f 247/133/96 249/135/98 252/137/100
f 253/138/101 247/133/96 252/137/100
f 252/137/100 254/139/102 253/138/101
f 254/139/102 252/137/100 255/140/103
f 256/141/104 257/137/105 258/135/98
f 256/141/104 259/140/103 257/137/105
f 256/141/104 258/135/98 260/142/106
f 259/140/103 256/141/104 261/143/107
f 258/135/98 262/136/108 260/142/106
f 260/142/106 262/136/108 263/144/109
f 264/79/29 263/144/109 262/136/108
f 265/141/104 266/145/110 267/146/111
f 268/147/112 265/141/104 267/146/111
f 266/145/110 265/141/104 269/142/106
f 268/147/112 270/143/107 265/141/104
f 269/142/106 271/148/113 266/145/110
f 271/148/113 269/142/106 272/144/109
f 273/79/29 271/148/113 272/144/109
f 274/79/29 275/149/114 276/148/115
f 275/149/114 277/145/110 276/148/115
f 277/145/110 275/149/114 278/150/116
f 278/150/116 279/146/117 277/145/110
f 279/146/117 278/150/116 280/151/118
f 280/151/118 281/147/112 279/146/117
f 281/147/112 280/151/118 282/152/119
f 284/152/120 285/153/121 283/154/122
f 285/153/121 284/152/120 286/151/118
f 287/150/116 285/153/121 286/151/118
f 285/153/121 287/150/116 288/155/123
f 289/149/124 288/155/123 287/150/116
f 288/155/123 289/149/124 290/156/125
f 291/79/29 290/156/125 289/149/124
f 292/78/32 293/155/123 294/156/125
f 295/79/29 292/78/32 294/156/125
f 293/155/123 292/78/32 296/80/33
f 296/80/33 297/153/126 293/155/123
f 297/153/126 296/80/33 298/82/35
f 298/82/35 299/154/122 297/153/126
f 299/154/122 298/82/35 300/84/127
f 301/111/69 302/105/62 303/114/72
f 302/105/62 301/111/69 304/107/65
f 305/106/64 303/114/72 302/105/62
f 303/114/72 305/106/64 306/116/74
f 307/79/29 306/116/74 305/106/64
f 308/110/68 304/107/65 301/111/69
f 304/107/65 308/110/68 309/108/66
f 310/157/128 311/130/92 312/158/129
f 311/130/92 313/159/130 312/158/129
f 313/159/130 311/130/92 314/129/91
f 315/79/29 313/159/130 314/129/91
f 311/130/92 310/157/128 316/131/94
f 317/160/131 316/131/94 310/157/128
f 316/131/94 317/160/131 318/132/16
f 319/161/132 320/158/129 321/162/133
f 320/158/129 319/161/132 322/157/128
f 323/159/130 321/162/133 320/158/129
f 321/162/133 323/159/130 324/163/134
f 325/79/29 324/163/134 323/159/130
f 326/164/23 322/157/128 319/161/132
f 322/157/128 326/164/23 327/160/135
f 328/165/136 329/161/132 330/166/137
f 329/161/132 331/167/138 330/166/137
f 329/161/132 328/165/136 332/164/23
f 331/167/138 329/161/132 333/162/133
f 333/162/133 334/168/139 331/167/138
f 334/168/139 333/162/133 335/163/140
f 336/79/29 334/168/139 335/163/140
f 337/79/29 338/169/141 339/168/139
f 338/169/141 340/170/142 339/168/139
f 339/168/139 340/170/142 341/167/138
f 340/170/142 342/166/137 341/167/138
f 342/166/137 340/170/142 343/171/143
f 342/166/137 343/171/143 344/172/25
f 342/166/137 344/172/25 345/165/144
f 346/134/97 347/170/142 348/169/141
f 349/79/29 346/134/97 348/169/141
f 347/170/142 346/134/97 350/133/96
f 350/133/96 351/171/145 347/170/142
f 351/171/145 350/133/96 352/138/101
f 351/171/145 352/138/101 353/139/146
f 351/171/145 353/139/146 354/172/25
f 355/10/147 356/8/148 357/9/149
f 356/8/148 358/7/148 357/9/149
f 355/10/147 357/9/149 359/173/150
f 360/174/150 355/10/147 359/173/150
f 360/174/150 359/173/150 361/13/151
f 361/13/151 362/14/151 360/174/150
f 364/2/8 363/3/8 365/175/152
f 365/175/152 366/176/153 364/2/8
f 366/176/153 365/175/152 367/5/154
f 368/6/155 366/176/153 367/5/154
f 368/6/155 367/5/154 369/7/148
f 370/8/156 368/6/155 369/7/148
f 371/177/157 372/20/103 373/19/158
f 371/177/157 373/19/158 374/15/159
f 375/20/103 376/21/160 377/7/161
f 375/20/103 377/7/161 378/19/158
f 379/22/112 381/7/161 380/21/160
f 381/7/161 379/22/112 382/23/162
f 384/24/163 385/23/162 383/22/112
f 385/23/162 384/24/163 386/25/164
f 387/26/165 388/25/164 389/24/166
f 388/25/164 387/26/165 390/27/167
f 391/177/157 393/15/168 392/16/169
f 392/16/169 393/15/168 394/18/28
f 397/1/170 396/2/151 395/3/151
f 397/1/170 398/4/170 396/2/151
f 399/5/171 398/4/170 397/1/170
f 399/5/171 400/6/172 398/4/170
f 401/7/173 400/6/172 399/5/171
f 401/7/173 402/8/173 400/6/172
f 403/9/174 402/8/173 401/7/173
f 403/9/174 404/10/174 402/8/173
f 405/173/175 404/10/174 403/9/174
f 405/173/175 406/174/176 404/10/174
f 407/13/177 406/174/176 405/173/175
f 407/13/177 408/14/177 406/174/176
f 410/177/178 409/20/179 411/19/180
f 411/19/180 412/178/181 410/177/178
f 414/20/179 413/21/182 415/7/183
f 415/7/183 416/19/180 414/20/179
f 418/179/45 419/7/183 417/21/182
f 419/7/183 418/179/45 420/23/184
f 422/24/185 423/23/184 421/179/186
f 423/23/184 422/24/185 424/25/187
f 425/25/188 426/180/189 427/27/190
f 426/180/189 425/25/188 428/24/191
f 429/16/192 430/177/178 431/178/193
f 432/18/194 429/16/192 431/178/193
f 433/31/195 434/181/195 435/182/195
f 433/31/195 436/37/195 437/183/195
f 433/31/195 438/34/195 436/37/195
f 435/182/195 438/34/195 433/31/195
f 438/34/195 435/182/195 439/73/195
f 440/47/195 434/181/195 433/31/195
f 440/47/195 433/31/195 441/33/195
f 434/181/195 442/68/195 435/182/195
f 442/68/195 434/181/195 443/66/195
f 444/65/195 435/182/195 442/68/195
f 444/65/195 445/74/195 435/182/195
f 445/74/195 444/65/195 446/184/195
f 447/41/195 440/47/195 441/33/195
f 447/41/195 441/33/195 448/38/195
f 440/47/195 447/41/195 449/44/195
f 449/44/195 447/41/195 450/42/195
f 434/181/195 440/47/195 451/57/195
f 434/181/195 451/57/195 452/59/195
f 451/57/195 440/47/195 453/53/195
f 451/57/195 453/53/195 454/55/195
f 453/53/195 440/47/195 455/185/195
f 453/53/195 455/185/195 456/51/195
f 459/1/196 458/2/177 457/3/177
f 458/2/177 459/1/196 460/4/196
f 461/5/197 460/4/196 459/1/196
f 460/4/196 461/5/197 462/6/198
f 463/7/199 462/6/198 461/5/197
f 462/6/198 463/7/199 464/8/199
f 465/9/200 464/8/199 463/7/199
f 464/8/199 465/9/200 466/10/200
f 467/173/201 466/10/200 465/9/200
f 466/10/200 467/173/201 468/174/201
f 469/13/2 468/174/201 467/173/201
f 468/174/201 469/13/2 470/14/2
f 472/16/189 471/177/202 473/15/203
f 473/15/203 474/18/190 472/16/189
f 477/19/204 476/177/202 475/20/205
f 477/19/204 478/15/206 476/177/202
f 480/22/70 481/7/207 479/21/208
f 481/7/207 480/22/70 482/23/209
f 483/24/210 485/23/211 484/22/70
f 485/23/211 483/24/210 486/25/212
f 488/26/213 489/25/212 487/24/210
f 489/25/212 488/26/213 490/27/12
f 493/7/207 492/20/66 491/21/208
f 493/7/207 494/19/214 492/20/66
f 495/186/215 496/187/215 497/188/215
f 497/188/215 496/187/215 498/189/215
f 499/186/29 500/187/29 501/190/29
f 501/190/29 500/187/29 502/191/29
f 503/186/148 504/187/148 505/188/148
f 505/188/148 504/187/148 506/189/148
f 507/186/216 508/187/216 509/188/216
f 509/188/216 508/187/216 510/189/216
f 511/186/195 512/187/195 513/190/195
f 513/190/195 512/187/195 514/191/195
f 515/186/217 516/187/217 517/188/217
f 517/188/217 516/187/217 518/189/217
usemtl Handle1Mtl.037
f 519/192/2 520/193/2 521/194/2
f 520/193/2 519/192/2 522/195/2
f 523/196/8 524/197/8 525/198/8
f 524/197/8 526/199/8 525/198/8
f 527/196/215 528/195/215 529/192/215
f 528/195/215 527/196/215 530/198/215
f 531/200/215 532/201/215 533/202/215
f 532/201/215 531/200/215 534/203/215
f 535/204/29 536/205/29 537/206/29
f 536/205/29 535/204/29 538/207/29
f 539/208/29 537/206/29 536/205/29
f 537/206/29 539/208/29 540/209/29
f 535/204/29 537/206/29 541/210/29
f 541/210/29 537/206/29 542/211/29
f 543/212/29 544/213/29 545/214/29
f 544/213/29 543/212/29 546/215/29
f 547/216/29 545/214/29 544/213/29
f 545/214/29 547/216/29 548/217/29
f 543/212/29 545/214/29 549/218/29
f 549/218/29 545/214/29 550/219/29
f 551/201/8 552/220/8 553/202/8
f 554/221/8 553/202/8 552/220/8
f 555/196/148 556/195/148 557/192/148
f 556/195/148 555/196/148 558/198/148
f 559/222/148 560/201/148 561/202/148
f 560/201/148 559/222/148 562/223/148
f 563/224/177 564/197/177 565/225/177
f 564/197/177 566/199/177 565/225/177
f 567/194/151 568/192/151 569/193/151
f 568/192/151 570/195/151 569/193/151
f 571/226/177 572/203/177 573/227/177
f 574/200/177 573/227/177 572/203/177
f 575/201/151 576/220/151 577/202/151
f 578/221/151 577/202/151 576/220/151
f 579/224/216 580/195/216 581/192/216
f 580/195/216 579/224/216 582/225/216
f 583/200/216 584/201/216 585/202/216
f 584/201/216 583/200/216 586/203/216
f 587/216/195 588/219/195 589/215/195
f 587/216/195 589/215/195 590/213/195
f 588/219/195 587/216/195 591/217/195
f 588/219/195 591/217/195 592/214/195
f 588/219/195 593/212/195 589/215/195
f 593/212/195 588/219/195 594/218/195
f 595/227/2 596/223/2 597/222/2
f 596/223/2 595/227/2 598/226/2
f 599/196/217 600/195/217 601/192/217
f 600/195/217 599/196/217 602/198/217
f 603/222/217 604/201/217 605/202/217
f 604/201/217 603/222/217 606/223/217
