# Blender 5.1.2
# www.blender.org
mtllib Connector.mtl
o Connector
v 0.200008 0.168096 0.199944
v 0.200008 -0.231904 0.199944
v 0.200008 -0.031904 0.187145
v 0.200008 0.016566 0.180843
v 0.200008 -0.080374 0.180843
v 0.200008 0.061736 0.162144
v 0.200008 0.100526 0.132343
v 0.200008 0.130286 0.093544
v 0.200008 0.148996 0.048344
v 0.200008 0.155376 -0.000053
v 0.200008 0.168096 -0.200054
v 0.200008 0.148996 -0.048553
v 0.200008 0.130286 -0.093754
v 0.200008 0.100526 -0.132553
v 0.200008 0.061736 -0.162254
v 0.200008 0.016566 -0.180954
v 0.200008 -0.031904 -0.187355
v 0.200008 -0.231904 -0.200054
v 0.200008 -0.080374 -0.180954
v 0.200008 -0.125534 -0.162254
v 0.200008 -0.164324 -0.132553
v 0.200008 -0.194084 -0.093754
v 0.200008 -0.212794 -0.048553
v 0.200008 -0.219174 -0.000053
v 0.200008 -0.212794 0.048344
v 0.200008 -0.194084 0.093544
v 0.200008 -0.164324 0.132343
v 0.200008 -0.125534 0.162144
v 0.132638 0.037726 -0.000053
v 0.132638 0.035356 0.017944
v 0.123478 -0.031904 -0.000053
v 0.159518 0.102616 -0.000053
v 0.159518 0.098036 0.034744
v 0.200008 0.155376 -0.000053
v 0.200008 0.148996 0.048344
v 0.132638 0.035356 -0.018055
v 0.132638 0.037726 -0.000053
v 0.123478 -0.031904 -0.000053
v 0.159518 0.102616 -0.000053
v 0.159518 0.098036 -0.034855
v 0.200008 0.155376 -0.000053
v 0.200008 0.148996 -0.048553
v 0.159518 0.084596 0.067146
v 0.132638 0.035356 0.017944
v 0.159518 0.098036 0.034744
v 0.132638 0.028396 0.034744
v 0.123478 -0.031904 -0.000053
v 0.200008 0.130286 0.093544
v 0.200008 0.148996 0.048344
v 0.132638 0.028396 -0.034855
v 0.132638 0.035356 -0.018055
v 0.123478 -0.031904 -0.000053
v 0.159518 0.084596 -0.067356
v 0.159518 0.098036 -0.034855
v 0.200008 0.130286 -0.093754
v 0.200008 0.148996 -0.048553
v 0.132638 0.028396 0.034744
v 0.132638 0.017336 0.049145
v 0.123478 -0.031904 -0.000053
v 0.159518 0.084596 0.067146
v 0.159518 0.063216 0.095047
v 0.200008 0.100526 0.132343
v 0.200008 0.130286 0.093544
v 0.132638 0.017336 -0.049355
v 0.159518 0.084596 -0.067356
v 0.132638 0.028396 -0.034855
v 0.123478 -0.031904 -0.000053
v 0.159518 0.063216 -0.095154
v 0.200008 0.130286 -0.093754
v 0.200008 0.100526 -0.132553
v 0.132638 0.017336 0.049145
v 0.132638 0.002916 0.060246
v 0.123478 -0.031904 -0.000053
v 0.159518 0.035356 0.116444
v 0.159518 0.063216 0.095047
v 0.200008 0.061736 0.162144
v 0.200008 0.100526 0.132343
v 0.132638 0.002916 -0.060356
v 0.132638 0.017336 -0.049355
v 0.123478 -0.031904 -0.000053
v 0.159518 0.035356 -0.116554
v 0.159518 0.063216 -0.095154
v 0.200008 0.061736 -0.162254
v 0.200008 0.100526 -0.132553
v 0.159518 0.002916 0.129845
v 0.132638 0.002916 0.060246
v 0.159518 0.035356 0.116444
v 0.200008 0.061736 0.162144
v 0.200008 0.016566 0.180843
v 0.132638 -0.013884 0.067146
v 0.123478 -0.031904 -0.000053
v 0.132638 -0.013884 -0.067356
v 0.132638 0.002916 -0.060356
v 0.123478 -0.031904 -0.000053
v 0.159518 0.002916 -0.130054
v 0.159518 0.035356 -0.116554
v 0.200008 0.061736 -0.162254
v 0.200008 0.016566 -0.180954
v 0.132638 -0.013884 0.067146
v 0.132638 -0.031904 0.069546
v 0.123478 -0.031904 -0.000053
v 0.159518 0.002916 0.129845
v 0.159518 -0.031904 0.134445
v 0.200008 0.016566 0.180843
v 0.200008 -0.031904 0.187145
v 0.159518 0.002916 -0.130054
v 0.132638 -0.031904 -0.069756
v 0.159518 -0.031904 -0.134556
v 0.132638 -0.013884 -0.067356
v 0.123478 -0.031904 -0.000053
v 0.200008 0.016566 -0.180954
v 0.200008 -0.031904 -0.187355
v 0.132638 -0.031904 0.069546
v 0.132638 -0.049924 0.067146
v 0.123478 -0.031904 -0.000053
v 0.159518 -0.066714 0.129845
v 0.159518 -0.031904 0.134445
v 0.200008 -0.080374 0.180843
v 0.200008 -0.031904 0.187145
v 0.132638 -0.049924 -0.067356
v 0.132638 -0.031904 -0.069756
v 0.123478 -0.031904 -0.000053
v 0.159518 -0.066714 -0.130054
v 0.159518 -0.031904 -0.134556
v 0.200008 -0.080374 -0.180954
v 0.200008 -0.031904 -0.187355
v 0.132638 -0.049924 0.067146
v 0.132638 -0.066714 0.060246
v 0.123478 -0.031904 -0.000053
v 0.159518 -0.066714 0.129845
v 0.159518 -0.099154 0.116444
v 0.200008 -0.080374 0.180843
v 0.200008 -0.125534 0.162144
v 0.132638 -0.066714 -0.060356
v 0.132638 -0.049924 -0.067356
v 0.123478 -0.031904 -0.000053
v 0.159518 -0.066714 -0.130054
v 0.159518 -0.099154 -0.116554
v 0.200008 -0.080374 -0.180954
v 0.200008 -0.125534 -0.162254
v 0.132638 -0.066714 0.060246
v 0.132638 -0.081134 0.049145
v 0.123478 -0.031904 -0.000053
v 0.159518 -0.099154 0.116444
v 0.159518 -0.127014 0.095047
v 0.200008 -0.125534 0.162144
v 0.200008 -0.164324 0.132343
v 0.159518 -0.099154 -0.116554
v 0.132638 -0.081134 -0.049355
v 0.159518 -0.127014 -0.095154
v 0.132638 -0.066714 -0.060356
v 0.123478 -0.031904 -0.000053
v 0.200008 -0.125534 -0.162254
v 0.200008 -0.164324 -0.132553
v 0.159518 -0.148394 0.067146
v 0.132638 -0.092204 0.034744
v 0.159518 -0.127014 0.095047
v 0.200008 -0.194084 0.093544
v 0.200008 -0.164324 0.132343
v 0.132638 -0.081134 0.049145
v 0.123478 -0.031904 -0.000053
v 0.132638 -0.092204 -0.034855
v 0.132638 -0.081134 -0.049355
v 0.123478 -0.031904 -0.000053
v 0.159518 -0.127014 -0.095154
v 0.159518 -0.148394 -0.067356
v 0.200008 -0.164324 -0.132553
v 0.200008 -0.194084 -0.093754
v 0.132638 -0.092204 0.034744
v 0.132638 -0.099154 0.017944
v 0.123478 -0.031904 -0.000053
v 0.159518 -0.161834 0.034744
v 0.159518 -0.148394 0.067146
v 0.200008 -0.194084 0.093544
v 0.200008 -0.212794 0.048344
v 0.132638 -0.099154 -0.018055
v 0.132638 -0.092204 -0.034855
v 0.123478 -0.031904 -0.000053
v 0.159518 -0.161834 -0.034855
v 0.159518 -0.148394 -0.067356
v 0.200008 -0.194084 -0.093754
v 0.200008 -0.212794 -0.048553
v 0.132638 -0.099154 0.017944
v 0.132638 -0.101534 -0.000053
v 0.123478 -0.031904 -0.000053
v 0.159518 -0.161834 0.034744
v 0.159518 -0.166414 -0.000053
v 0.200008 -0.212794 0.048344
v 0.200008 -0.219174 -0.000053
v 0.159518 -0.161834 -0.034855
v 0.132638 -0.101534 -0.000053
v 0.159518 -0.166414 -0.000053
v 0.132638 -0.099154 -0.018055
v 0.123478 -0.031904 -0.000053
v 0.200008 -0.212794 -0.048553
v 0.200008 -0.219174 -0.000053
v -0.199992 0.168096 -0.200054
v -0.180892 0.168096 -0.048553
v -0.162182 0.168096 -0.093754
v -0.132422 0.168096 -0.132553
v -0.093632 0.168096 -0.162254
v -0.048472 0.168096 -0.180954
v -0.187272 0.168096 -0.000053
v 0.000008 0.168096 -0.187355
v -0.199992 0.168096 0.199944
v 0.200008 0.168096 -0.200054
v -0.180892 0.168096 0.048344
v 0.048478 0.168096 -0.180954
v -0.162182 0.168096 0.093544
v 0.093638 0.168096 -0.162254
v -0.132422 0.168096 0.132343
v -0.093632 0.168096 0.162144
v -0.048472 0.168096 0.180843
v 0.000008 0.168096 0.187145
v 0.132428 0.168096 -0.132553
v 0.162188 0.168096 -0.093754
v 0.180898 0.168096 -0.048553
v 0.187278 0.168096 -0.000053
v 0.200008 0.168096 0.199944
v 0.048478 0.168096 0.180843
v 0.180898 0.168096 0.048344
v 0.093638 0.168096 0.162144
v 0.162188 0.168096 0.093544
v 0.132428 0.168096 0.132343
v -0.034812 0.127616 0.129845
v 0.000008 0.168096 0.187145
v 0.000008 0.127616 0.134445
v -0.048472 0.168096 0.180843
v -0.018022 0.100736 0.067146
v 0.000008 0.100736 0.069546
v 0.000008 0.091566 -0.000053
v 0.000008 0.091566 -0.000053
v -0.034812 0.100736 0.060246
v -0.018022 0.100736 0.067146
v -0.067252 0.127616 0.116444
v -0.034812 0.127616 0.129845
v -0.093632 0.168096 0.162144
v -0.048472 0.168096 0.180843
v -0.067252 0.127616 0.116444
v -0.034812 0.100736 0.060246
v -0.095112 0.127616 0.095047
v -0.132422 0.168096 0.132343
v -0.093632 0.168096 0.162144
v -0.049232 0.100736 0.049145
v 0.000008 0.091566 -0.000053
v -0.162182 0.168096 0.093544
v -0.132422 0.168096 0.132343
v -0.095112 0.127616 0.095047
v -0.116492 0.127616 0.067146
v -0.049232 0.100736 0.049145
v -0.060302 0.100736 0.034744
v 0.000008 0.091566 -0.000053
v 0.000008 0.091566 -0.000053
v -0.067252 0.100736 0.017944
v -0.060302 0.100736 0.034744
v -0.116492 0.127616 0.067146
v -0.129932 0.127616 0.034744
v -0.162182 0.168096 0.093544
v -0.180892 0.168096 0.048344
v -0.134512 0.127616 -0.000053
v -0.067252 0.100736 0.017944
v -0.069632 0.100736 -0.000053
v 0.000008 0.091566 -0.000053
v -0.129932 0.127616 0.034744
v -0.187272 0.168096 -0.000053
v -0.180892 0.168096 0.048344
v -0.129932 0.127616 -0.034855
v -0.187272 0.168096 -0.000053
v -0.134512 0.127616 -0.000053
v -0.180892 0.168096 -0.048553
v -0.067252 0.100736 -0.018055
v -0.069632 0.100736 -0.000053
v 0.000008 0.091566 -0.000053
v 0.000008 0.091566 -0.000053
v -0.060302 0.100736 -0.034855
v -0.067252 0.100736 -0.018055
v -0.116492 0.127616 -0.067356
v -0.129932 0.127616 -0.034855
v -0.162182 0.168096 -0.093754
v -0.180892 0.168096 -0.048553
v -0.095112 0.127616 -0.095154
v -0.162182 0.168096 -0.093754
v -0.116492 0.127616 -0.067356
v -0.132422 0.168096 -0.132553
v -0.049232 0.100736 -0.049355
v -0.060302 0.100736 -0.034855
v 0.000008 0.091566 -0.000053
v -0.067252 0.127616 -0.116554
v -0.132422 0.168096 -0.132553
v -0.095112 0.127616 -0.095154
v -0.093632 0.168096 -0.162254
v -0.034812 0.100736 -0.060356
v -0.049232 0.100736 -0.049355
v 0.000008 0.091566 -0.000053
v -0.067252 0.127616 -0.116554
v -0.034812 0.100736 -0.060356
v -0.034812 0.127616 -0.130054
v -0.093632 0.168096 -0.162254
v -0.048472 0.168096 -0.180954
v -0.018022 0.100736 -0.067356
v 0.000008 0.091566 -0.000053
v -0.048472 0.168096 -0.180954
v 0.000008 0.127616 -0.134556
v 0.000008 0.168096 -0.187355
v -0.034812 0.127616 -0.130054
v 0.000008 0.100736 -0.069756
v -0.018022 0.100736 -0.067356
v 0.000008 0.091566 -0.000053
v 0.000008 0.091566 -0.000053
v 0.018028 0.100736 -0.067356
v 0.000008 0.100736 -0.069756
v 0.034818 0.127616 -0.130054
v 0.000008 0.127616 -0.134556
v 0.048478 0.168096 -0.180954
v 0.000008 0.168096 -0.187355
v 0.034818 0.100736 -0.060356
v 0.034818 0.127616 -0.130054
v 0.018028 0.100736 -0.067356
v 0.000008 0.091566 -0.000053
v 0.067258 0.127616 -0.116554
v 0.093638 0.168096 -0.162254
v 0.048478 0.168096 -0.180954
v 0.095118 0.127616 -0.095154
v 0.093638 0.168096 -0.162254
v 0.067258 0.127616 -0.116554
v 0.132428 0.168096 -0.132553
v 0.034818 0.100736 -0.060356
v 0.049238 0.100736 -0.049355
v 0.000008 0.091566 -0.000053
v 0.000008 0.091566 -0.000053
v 0.060308 0.100736 -0.034855
v 0.049238 0.100736 -0.049355
v 0.116498 0.127616 -0.067356
v 0.095118 0.127616 -0.095154
v 0.162188 0.168096 -0.093754
v 0.132428 0.168096 -0.132553
v 0.067258 0.100736 -0.018055
v 0.116498 0.127616 -0.067356
v 0.060308 0.100736 -0.034855
v 0.000008 0.091566 -0.000053
v 0.129938 0.127616 -0.034855
v 0.162188 0.168096 -0.093754
v 0.180898 0.168096 -0.048553
v 0.180898 0.168096 -0.048553
v 0.129938 0.127616 -0.034855
v 0.187278 0.168096 -0.000053
v 0.134518 0.127616 -0.000053
v 0.067258 0.100736 -0.018055
v 0.069638 0.100736 -0.000053
v 0.000008 0.091566 -0.000053
v 0.000008 0.091566 -0.000053
v 0.067258 0.100736 0.017944
v 0.069638 0.100736 -0.000053
v 0.134518 0.127616 -0.000053
v 0.129938 0.127616 0.034744
v 0.187278 0.168096 -0.000053
v 0.180898 0.168096 0.048344
v 0.129938 0.127616 0.034744
v 0.067258 0.100736 0.017944
v 0.116498 0.127616 0.067146
v 0.162188 0.168096 0.093544
v 0.180898 0.168096 0.048344
v 0.060308 0.100736 0.034744
v 0.000008 0.091566 -0.000053
v 0.162188 0.168096 0.093544
v 0.095118 0.127616 0.095047
v 0.132428 0.168096 0.132343
v 0.116498 0.127616 0.067146
v 0.049238 0.100736 0.049145
v 0.060308 0.100736 0.034744
v 0.000008 0.091566 -0.000053
v 0.000008 0.091566 -0.000053
v 0.034818 0.100736 0.060246
v 0.049238 0.100736 0.049145
v 0.095118 0.127616 0.095047
v 0.067258 0.127616 0.116444
v 0.132428 0.168096 0.132343
v 0.093638 0.168096 0.162144
v 0.018028 0.100736 0.067146
v 0.067258 0.127616 0.116444
v 0.034818 0.100736 0.060246
v 0.000008 0.091566 -0.000053
v 0.034818 0.127616 0.129845
v 0.093638 0.168096 0.162144
v 0.048478 0.168096 0.180843
v 0.000008 0.168096 0.187145
v 0.034818 0.127616 0.129845
v 0.000008 0.127616 0.134445
v 0.048478 0.168096 0.180843
v 0.018028 0.100736 0.067146
v 0.000008 0.100736 0.069546
v 0.000008 0.091566 -0.000053
v 0.093638 -0.194084 0.199944
v 0.048478 -0.212794 0.199944
v 0.200008 -0.231904 0.199944
v 0.132428 -0.164324 0.199944
v 0.162188 -0.125534 0.199944
v 0.180898 -0.080374 0.199944
v 0.000008 -0.219174 0.199944
v 0.187278 -0.031904 0.199944
v -0.199992 -0.231904 0.199944
v -0.048472 -0.212794 0.199944
v 0.200008 0.168096 0.199944
v -0.093632 -0.194084 0.199944
v 0.180898 0.016566 0.199944
v -0.132422 -0.164324 0.199944
v -0.162182 -0.125534 0.199944
v -0.180892 -0.080374 0.199944
v -0.187272 -0.031904 0.199944
v 0.162188 0.061736 0.199944
v -0.199992 0.168096 0.199944
v -0.180892 0.016566 0.199944
v 0.132428 0.100526 0.199944
v 0.093638 0.130286 0.199944
v 0.048478 0.148996 0.199944
v 0.000008 0.155376 0.199944
v -0.048472 0.148996 0.199944
v -0.162182 0.061736 0.199944
v -0.093632 0.130286 0.199944
v -0.132422 0.100526 0.199944
v 0.000008 0.037726 0.132545
v -0.018022 0.035356 0.132545
v 0.000008 -0.031904 0.123344
v 0.000008 0.102616 0.159447
v -0.034812 0.098036 0.159447
v 0.000008 0.155376 0.199944
v -0.048472 0.148996 0.199944
v 0.018028 0.035356 0.132545
v 0.000008 0.037726 0.132545
v 0.000008 -0.031904 0.123344
v 0.000008 0.102616 0.159447
v 0.034818 0.098036 0.159447
v 0.000008 0.155376 0.199944
v 0.048478 0.148996 0.199944
v -0.067252 0.084596 0.159447
v -0.018022 0.035356 0.132545
v -0.034812 0.098036 0.159447
v -0.034812 0.028396 0.132545
v 0.000008 -0.031904 0.123344
v -0.093632 0.130286 0.199944
v -0.048472 0.148996 0.199944
v 0.034818 0.028396 0.132545
v 0.018028 0.035356 0.132545
v 0.000008 -0.031904 0.123344
v 0.067258 0.084596 0.159447
v 0.034818 0.098036 0.159447
v 0.093638 0.130286 0.199944
v 0.048478 0.148996 0.199944
v -0.034812 0.028396 0.132545
v -0.049232 0.017336 0.132545
v 0.000008 -0.031904 0.123344
v -0.067252 0.084596 0.159447
v -0.095112 0.063216 0.159447
v -0.132422 0.100526 0.199944
v -0.093632 0.130286 0.199944
v 0.067258 0.084596 0.159447
v 0.049238 0.017336 0.132545
v 0.095118 0.063216 0.159447
v 0.132428 0.100526 0.199944
v 0.093638 0.130286 0.199944
v 0.034818 0.028396 0.132545
v 0.000008 -0.031904 0.123344
v -0.049232 0.017336 0.132545
v -0.060302 0.002916 0.132545
v 0.000008 -0.031904 0.123344
v -0.116492 0.035356 0.159447
v -0.095112 0.063216 0.159447
v -0.162182 0.061736 0.199944
v -0.132422 0.100526 0.199944
v 0.060308 0.002916 0.132545
v 0.049238 0.017336 0.132545
v 0.000008 -0.031904 0.123344
v 0.116498 0.035356 0.159447
v 0.095118 0.063216 0.159447
v 0.162188 0.061736 0.199944
v 0.132428 0.100526 0.199944
v -0.129932 0.002916 0.159447
v -0.060302 0.002916 0.132545
v -0.116492 0.035356 0.159447
v -0.162182 0.061736 0.199944
v -0.180892 0.016566 0.199944
v -0.067252 -0.013884 0.132545
v 0.000008 -0.031904 0.123344
v 0.067258 -0.013884 0.132545
v 0.060308 0.002916 0.132545
v 0.000008 -0.031904 0.123344
v 0.129938 0.002916 0.159447
v 0.116498 0.035356 0.159447
v 0.162188 0.061736 0.199944
v 0.180898 0.016566 0.199944
v -0.067252 -0.013884 0.132545
v -0.069632 -0.031904 0.132545
v 0.000008 -0.031904 0.123344
v -0.129932 0.002916 0.159447
v -0.134512 -0.031904 0.159447
v -0.180892 0.016566 0.199944
v -0.187272 -0.031904 0.199944
v 0.129938 0.002916 0.159447
v 0.069638 -0.031904 0.132545
v 0.134518 -0.031904 0.159447
v 0.067258 -0.013884 0.132545
v 0.000008 -0.031904 0.123344
v 0.180898 0.016566 0.199944
v 0.187278 -0.031904 0.199944
v -0.069632 -0.031904 0.132545
v -0.067252 -0.049924 0.132545
v 0.000008 -0.031904 0.123344
v -0.129932 -0.066714 0.159447
v -0.134512 -0.031904 0.159447
v -0.180892 -0.080374 0.199944
v -0.187272 -0.031904 0.199944
v 0.067258 -0.049924 0.132545
v 0.069638 -0.031904 0.132545
v 0.000008 -0.031904 0.123344
v 0.129938 -0.066714 0.159447
v 0.134518 -0.031904 0.159447
v 0.180898 -0.080374 0.199944
v 0.187278 -0.031904 0.199944
v -0.067252 -0.049924 0.132545
v -0.060302 -0.066714 0.132545
v 0.000008 -0.031904 0.123344
v -0.129932 -0.066714 0.159447
v -0.116492 -0.099154 0.159447
v -0.180892 -0.080374 0.199944
v -0.162182 -0.125534 0.199944
v 0.060308 -0.066714 0.132545
v 0.067258 -0.049924 0.132545
v 0.000008 -0.031904 0.123344
v 0.129938 -0.066714 0.159447
v 0.116498 -0.099154 0.159447
v 0.180898 -0.080374 0.199944
v 0.162188 -0.125534 0.199944
v -0.060302 -0.066714 0.132545
v -0.049232 -0.081134 0.132545
v 0.000008 -0.031904 0.123344
v -0.116492 -0.099154 0.159447
v -0.095112 -0.127014 0.159447
v -0.162182 -0.125534 0.199944
v -0.132422 -0.164324 0.199944
v 0.049238 -0.081134 0.132545
v 0.116498 -0.099154 0.159447
v 0.060308 -0.066714 0.132545
v 0.000008 -0.031904 0.123344
v 0.095118 -0.127014 0.159447
v 0.162188 -0.125534 0.199944
v 0.132428 -0.164324 0.199944
v -0.067252 -0.148394 0.159447
v -0.034812 -0.092204 0.132545
v -0.095112 -0.127014 0.159447
v -0.093632 -0.194084 0.199944
v -0.132422 -0.164324 0.199944
v -0.049232 -0.081134 0.132545
v 0.000008 -0.031904 0.123344
v 0.034818 -0.092204 0.132545
v 0.049238 -0.081134 0.132545
v 0.000008 -0.031904 0.123344
v 0.095118 -0.127014 0.159447
v 0.067258 -0.148394 0.159447
v 0.132428 -0.164324 0.199944
v 0.093638 -0.194084 0.199944
v -0.034812 -0.092204 0.132545
v -0.018022 -0.099154 0.132545
v 0.000008 -0.031904 0.123344
v -0.034812 -0.161834 0.159447
v -0.067252 -0.148394 0.159447
v -0.093632 -0.194084 0.199944
v -0.048472 -0.212794 0.199944
v 0.018028 -0.099154 0.132545
v 0.034818 -0.092204 0.132545
v 0.000008 -0.031904 0.123344
v 0.034818 -0.161834 0.159447
v 0.067258 -0.148394 0.159447
v 0.093638 -0.194084 0.199944
v 0.048478 -0.212794 0.199944
v -0.018022 -0.099154 0.132545
v 0.000008 -0.101534 0.132545
v 0.000008 -0.031904 0.123344
v -0.034812 -0.161834 0.159447
v 0.000008 -0.166414 0.159447
v -0.048472 -0.212794 0.199944
v 0.000008 -0.219174 0.199944
v 0.034818 -0.161834 0.159447
v 0.000008 -0.101534 0.132545
v 0.000008 -0.166414 0.159447
v 0.018028 -0.099154 0.132545
v 0.000008 -0.031904 0.123344
v 0.048478 -0.212794 0.199944
v 0.000008 -0.219174 0.199944
v -0.199992 -0.231904 0.199944
v -0.199992 0.168096 0.199944
v -0.199992 -0.031904 0.187145
v -0.199992 -0.080374 0.180843
v -0.199992 0.016566 0.180843
v -0.199992 -0.125544 0.162144
v -0.199992 -0.164324 0.132343
v -0.199992 -0.194084 0.093544
v -0.199992 -0.212794 0.048344
v -0.199992 -0.219174 -0.000053
v -0.199992 -0.231904 -0.200054
v -0.199992 -0.212794 -0.048553
v -0.199992 -0.194084 -0.093754
v -0.199992 -0.164324 -0.132553
v -0.199992 -0.125544 -0.162254
v -0.199992 -0.080374 -0.180954
v -0.199992 -0.031904 -0.187355
v -0.199992 0.168096 -0.200054
v -0.199992 0.016566 -0.180954
v -0.199992 0.061736 -0.162254
v -0.199992 0.100526 -0.132553
v -0.199992 0.130286 -0.093754
v -0.199992 0.148996 -0.048553
v -0.199992 0.155376 -0.000053
v -0.199992 0.148996 0.048344
v -0.199992 0.130286 0.093544
v -0.199992 0.100526 0.132343
v -0.199992 0.061736 0.162144
v -0.199992 0.155376 -0.000053
v -0.159512 0.098036 0.034744
v -0.199992 0.148996 0.048344
v -0.159512 0.102616 -0.000053
v -0.132632 0.035356 0.017944
v -0.132632 0.037726 -0.000053
v -0.123472 -0.031904 -0.000053
v -0.199992 0.148996 -0.048553
v -0.159512 0.098036 -0.034855
v -0.199992 0.155376 -0.000053
v -0.159512 0.102616 -0.000053
v -0.132632 0.035356 -0.018055
v -0.132632 0.037726 -0.000053
v -0.123472 -0.031904 -0.000053
v -0.123472 -0.031904 -0.000053
v -0.132632 0.028396 0.034744
v -0.132632 0.035356 0.017944
v -0.159512 0.084596 0.067146
v -0.159512 0.098036 0.034744
v -0.199992 0.130286 0.093544
v -0.199992 0.148996 0.048344
v -0.132632 0.035356 -0.018055
v -0.159512 0.084596 -0.067356
v -0.132632 0.028396 -0.034855
v -0.123472 -0.031904 -0.000053
v -0.159512 0.098036 -0.034855
v -0.199992 0.130286 -0.093754
v -0.199992 0.148996 -0.048553
v -0.159512 0.084596 0.067146
v -0.132632 0.028396 0.034744
v -0.159512 0.063216 0.095047
v -0.199992 0.100526 0.132343
v -0.199992 0.130286 0.093544
v -0.132632 0.017336 0.049145
v -0.123472 -0.031904 -0.000053
v -0.123472 -0.031904 -0.000053
v -0.132632 0.028396 -0.034855
v -0.132632 0.017336 -0.049355
v -0.159512 0.063216 -0.095154
v -0.159512 0.084596 -0.067356
v -0.199992 0.100526 -0.132553
v -0.199992 0.130286 -0.093754
v -0.199992 0.061736 0.162144
v -0.159512 0.063216 0.095047
v -0.159512 0.035356 0.116444
v -0.199992 0.100526 0.132343
v -0.132632 0.017336 0.049145
v -0.132632 0.002916 0.060246
v -0.123472 -0.031904 -0.000053
v -0.159512 0.063216 -0.095154
v -0.199992 0.061736 -0.162254
v -0.159512 0.035356 -0.116554
v -0.199992 0.100526 -0.132553
v -0.132632 0.017336 -0.049355
v -0.132632 0.002916 -0.060356
v -0.123472 -0.031904 -0.000053
v -0.123472 -0.031904 -0.000053
v -0.132632 -0.013884 0.067146
v -0.132632 0.002916 0.060246
v -0.159512 0.035356 0.116444
v -0.159512 0.002916 0.129845
v -0.199992 0.061736 0.162144
v -0.199992 0.016566 0.180843
v -0.159512 0.035356 -0.116554
v -0.132632 -0.013884 -0.067356
v -0.132632 0.002916 -0.060356
v -0.123472 -0.031904 -0.000053
v -0.159512 0.002916 -0.130054
v -0.199992 0.061736 -0.162254
v -0.199992 0.016566 -0.180954
v -0.159512 -0.031904 0.134445
v -0.132632 -0.013884 0.067146
v -0.132632 -0.031904 0.069546
v -0.123472 -0.031904 -0.000053
v -0.159512 0.002916 0.129845
v -0.199992 -0.031904 0.187145
v -0.199992 0.016566 0.180843
v -0.123472 -0.031904 -0.000053
v -0.132632 -0.013884 -0.067356
v -0.132632 -0.031904 -0.069756
v -0.159512 -0.031904 -0.134556
v -0.159512 0.002916 -0.130054
v -0.199992 -0.031904 -0.187355
v -0.199992 0.016566 -0.180954
v -0.159512 -0.066714 0.129845
v -0.199992 -0.031904 0.187145
v -0.159512 -0.031904 0.134445
v -0.199992 -0.080374 0.180843
v -0.132632 -0.049924 0.067146
v -0.132632 -0.031904 0.069546
v -0.123472 -0.031904 -0.000053
v -0.199992 -0.031904 -0.187355
v -0.199992 -0.080374 -0.180954
v -0.159512 -0.066714 -0.130054
v -0.159512 -0.031904 -0.134556
v -0.132632 -0.049924 -0.067356
v -0.132632 -0.031904 -0.069756
v -0.123472 -0.031904 -0.000053
v -0.123472 -0.031904 -0.000053
v -0.132632 -0.066714 0.060246
v -0.132632 -0.049924 0.067146
v -0.159512 -0.099154 0.116444
v -0.159512 -0.066714 0.129845
v -0.199992 -0.080374 0.180843
v -0.199992 -0.125544 0.162144
v -0.159512 -0.099154 -0.116554
v -0.132632 -0.049924 -0.067356
v -0.159512 -0.066714 -0.130054
v -0.132632 -0.066714 -0.060356
v -0.123472 -0.031904 -0.000053
v -0.199992 -0.125544 -0.162254
v -0.199992 -0.080374 -0.180954
v -0.199992 -0.125544 0.162144
v -0.159512 -0.127014 0.095047
v -0.199992 -0.164324 0.132343
v -0.159512 -0.099154 0.116444
v -0.132632 -0.081134 0.049145
v -0.132632 -0.066714 0.060246
v -0.123472 -0.031904 -0.000053
v -0.123472 -0.031904 -0.000053
v -0.132632 -0.066714 -0.060356
v -0.132632 -0.081134 -0.049355
v -0.159512 -0.099154 -0.116554
v -0.159512 -0.127014 -0.095154
v -0.199992 -0.125544 -0.162254
v -0.199992 -0.164324 -0.132553
v -0.199992 -0.164324 0.132343
v -0.159512 -0.148394 0.067146
v -0.199992 -0.194084 0.093544
v -0.159512 -0.127014 0.095047
v -0.132632 -0.092204 0.034744
v -0.132632 -0.081134 0.049145
v -0.123472 -0.031904 -0.000053
v -0.159512 -0.127014 -0.095154
v -0.199992 -0.194084 -0.093754
v -0.159512 -0.148394 -0.067356
v -0.199992 -0.164324 -0.132553
v -0.132632 -0.092204 -0.034855
v -0.132632 -0.081134 -0.049355
v -0.123472 -0.031904 -0.000053
v -0.159512 -0.161834 0.034744
v -0.159512 -0.148394 0.067146
v -0.132632 -0.092204 0.034744
v -0.199992 -0.194084 0.093544
v -0.199992 -0.212794 0.048344
v -0.132632 -0.099154 0.017944
v -0.123472 -0.031904 -0.000053
v -0.132632 -0.092204 -0.034855
v -0.159512 -0.161834 -0.034855
v -0.132632 -0.099154 -0.018055
v -0.123472 -0.031904 -0.000053
v -0.159512 -0.148394 -0.067356
v -0.199992 -0.194084 -0.093754
v -0.199992 -0.212794 -0.048553
v -0.159512 -0.166414 -0.000053
v -0.199992 -0.212794 0.048344
v -0.159512 -0.161834 0.034744
v -0.199992 -0.219174 -0.000053
v -0.132632 -0.101534 -0.000053
v -0.132632 -0.099154 0.017944
v -0.123472 -0.031904 -0.000053
v -0.123472 -0.031904 -0.000053
v -0.132632 -0.099154 -0.018055
v -0.132632 -0.101534 -0.000053
v -0.159512 -0.161834 -0.034855
v -0.159512 -0.166414 -0.000053
v -0.199992 -0.212794 -0.048553
v -0.199992 -0.219174 -0.000053
v 0.200008 -0.231904 -0.200054
v -0.199992 -0.231904 0.199944
v -0.199992 -0.231904 -0.200054
v 0.200008 -0.231904 0.199944
v -0.093632 -0.194084 -0.200054
v -0.048472 -0.212794 -0.200054
v -0.199992 -0.231904 -0.200054
v -0.132422 -0.164324 -0.200054
v -0.162182 -0.125544 -0.200054
v -0.180892 -0.080374 -0.200054
v 0.000008 -0.219174 -0.200054
v -0.187272 -0.031904 -0.200054
v 0.200008 -0.231904 -0.200054
v 0.048478 -0.212794 -0.200054
v -0.199992 0.168096 -0.200054
v 0.093638 -0.194084 -0.200054
v -0.180892 0.016566 -0.200054
v 0.132428 -0.164324 -0.200054
v 0.162188 -0.125544 -0.200054
v 0.180898 -0.080374 -0.200054
v 0.187278 -0.031904 -0.200054
v -0.162182 0.061736 -0.200054
v 0.200008 0.168096 -0.200054
v 0.180898 0.016566 -0.200054
v -0.132422 0.100526 -0.200054
v -0.093632 0.130286 -0.200054
v -0.048472 0.148996 -0.200054
v 0.000008 0.155376 -0.200054
v 0.048478 0.148996 -0.200054
v 0.162188 0.061736 -0.200054
v 0.093638 0.130286 -0.200054
v 0.132428 0.100526 -0.200054
v 0.000008 0.155376 -0.200054
v -0.034812 0.098036 -0.159554
v -0.048472 0.148996 -0.200054
v 0.000008 0.102616 -0.159554
v -0.018022 0.035356 -0.132755
v 0.000008 0.037726 -0.132755
v 0.000008 -0.031904 -0.123554
v 0.000008 0.155376 -0.200054
v 0.048478 0.148996 -0.200054
v 0.034818 0.098036 -0.159554
v 0.000008 0.102616 -0.159554
v 0.018028 0.035356 -0.132755
v 0.000008 0.037726 -0.132755
v 0.000008 -0.031904 -0.123554
v 0.000008 -0.031904 -0.123554
v -0.034812 0.028396 -0.132755
v -0.018022 0.035356 -0.132755
v -0.067252 0.084596 -0.159554
v -0.034812 0.098036 -0.159554
v -0.093632 0.130286 -0.200054
v -0.048472 0.148996 -0.200054
v 0.067258 0.084596 -0.159554
v 0.018028 0.035356 -0.132755
v 0.034818 0.098036 -0.159554
v 0.034818 0.028396 -0.132755
v 0.000008 -0.031904 -0.123554
v 0.093638 0.130286 -0.200054
v 0.048478 0.148996 -0.200054
v -0.095112 0.063216 -0.159554
v -0.034812 0.028396 -0.132755
v -0.049232 0.017336 -0.132755
v 0.000008 -0.031904 -0.123554
v -0.067252 0.084596 -0.159554
v -0.132422 0.100526 -0.200054
v -0.093632 0.130286 -0.200054
v 0.000008 -0.031904 -0.123554
v 0.034818 0.028396 -0.132755
v 0.049238 0.017336 -0.132755
v 0.095118 0.063216 -0.159554
v 0.067258 0.084596 -0.159554
v 0.132428 0.100526 -0.200054
v 0.093638 0.130286 -0.200054
v -0.162182 0.061736 -0.200054
v -0.095112 0.063216 -0.159554
v -0.116492 0.035356 -0.159554
v -0.132422 0.100526 -0.200054
v -0.049232 0.017336 -0.132755
v -0.060302 0.002916 -0.132755
v 0.000008 -0.031904 -0.123554
v 0.095118 0.063216 -0.159554
v 0.162188 0.061736 -0.200054
v 0.116498 0.035356 -0.159554
v 0.132428 0.100526 -0.200054
v 0.049238 0.017336 -0.132755
v 0.060308 0.002916 -0.132755
v 0.000008 -0.031904 -0.123554
v 0.000008 -0.031904 -0.123554
v -0.067252 -0.013884 -0.132755
v -0.060302 0.002916 -0.132755
v -0.116492 0.035356 -0.159554
v -0.129932 0.002916 -0.159554
v -0.162182 0.061736 -0.200054
v -0.180892 0.016566 -0.200054
v 0.116498 0.035356 -0.159554
v 0.067258 -0.013884 -0.132755
v 0.060308 0.002916 -0.132755
v 0.000008 -0.031904 -0.123554
v 0.129938 0.002916 -0.159554
v 0.162188 0.061736 -0.200054
v 0.180898 0.016566 -0.200054
v -0.069632 -0.031904 -0.132755
v -0.134512 -0.031904 -0.159554
v -0.067252 -0.013884 -0.132755
v 0.000008 -0.031904 -0.123554
v -0.129932 0.002916 -0.159554
v -0.187272 -0.031904 -0.200054
v -0.180892 0.016566 -0.200054
v 0.000008 -0.031904 -0.123554
v 0.067258 -0.013884 -0.132755
v 0.069638 -0.031904 -0.132755
v 0.134518 -0.031904 -0.159554
v 0.129938 0.002916 -0.159554
v 0.187278 -0.031904 -0.200054
v 0.180898 0.016566 -0.200054
v -0.187272 -0.031904 -0.200054
v -0.129932 -0.066714 -0.159554
v -0.180892 -0.080374 -0.200054
v -0.134512 -0.031904 -0.159554
v -0.067252 -0.049924 -0.132755
v -0.069632 -0.031904 -0.132755
v 0.000008 -0.031904 -0.123554
v 0.187278 -0.031904 -0.200054
v 0.129938 -0.066714 -0.159554
v 0.134518 -0.031904 -0.159554
v 0.180898 -0.080374 -0.200054
v 0.067258 -0.049924 -0.132755
v 0.069638 -0.031904 -0.132755
v 0.000008 -0.031904 -0.123554
v 0.000008 -0.031904 -0.123554
v -0.060302 -0.066714 -0.132755
v -0.067252 -0.049924 -0.132755
v -0.116492 -0.099154 -0.159554
v -0.129932 -0.066714 -0.159554
v -0.162182 -0.125544 -0.200054
v -0.180892 -0.080374 -0.200054
v 0.116498 -0.099154 -0.159554
v 0.067258 -0.049924 -0.132755
v 0.129938 -0.066714 -0.159554
v 0.060308 -0.066714 -0.132755
v 0.000008 -0.031904 -0.123554
v 0.162188 -0.125544 -0.200054
v 0.180898 -0.080374 -0.200054
v -0.162182 -0.125544 -0.200054
v -0.095112 -0.127014 -0.159554
v -0.132422 -0.164324 -0.200054
v -0.116492 -0.099154 -0.159554
v -0.049232 -0.081134 -0.132755
v -0.060302 -0.066714 -0.132755
v 0.000008 -0.031904 -0.123554
v 0.000008 -0.031904 -0.123554
v 0.060308 -0.066714 -0.132755
v 0.049238 -0.081134 -0.132755
v 0.116498 -0.099154 -0.159554
v 0.095118 -0.127014 -0.159554
v 0.162188 -0.125544 -0.200054
v 0.132428 -0.164324 -0.200054
v -0.067252 -0.148394 -0.159554
v -0.132422 -0.164324 -0.200054
v -0.095112 -0.127014 -0.159554
v -0.093632 -0.194084 -0.200054
v -0.034812 -0.092204 -0.132755
v -0.049232 -0.081134 -0.132755
v 0.000008 -0.031904 -0.123554
v 0.093638 -0.194084 -0.200054
v 0.095118 -0.127014 -0.159554
v 0.132428 -0.164324 -0.200054
v 0.067258 -0.148394 -0.159554
v 0.034818 -0.092204 -0.132755
v 0.049238 -0.081134 -0.132755
v 0.000008 -0.031904 -0.123554
v -0.034812 -0.161834 -0.159554
v -0.034812 -0.092204 -0.132755
v -0.018022 -0.099154 -0.132755
v 0.000008 -0.031904 -0.123554
v -0.067252 -0.148394 -0.159554
v -0.093632 -0.194084 -0.200054
v -0.048472 -0.212794 -0.200054
v 0.034818 -0.092204 -0.132755
v 0.034818 -0.161834 -0.159554
v 0.018028 -0.099154 -0.132755
v 0.000008 -0.031904 -0.123554
v 0.067258 -0.148394 -0.159554
v 0.093638 -0.194084 -0.200054
v 0.048478 -0.212794 -0.200054
v 0.000008 -0.166414 -0.159554
v -0.048472 -0.212794 -0.200054
v -0.034812 -0.161834 -0.159554
v 0.000008 -0.219174 -0.200054
v 0.000008 -0.101534 -0.132755
v -0.018022 -0.099154 -0.132755
v 0.000008 -0.031904 -0.123554
v 0.000008 -0.031904 -0.123554
v 0.018028 -0.099154 -0.132755
v 0.000008 -0.101534 -0.132755
v 0.034818 -0.161834 -0.159554
v 0.000008 -0.166414 -0.159554
v 0.048478 -0.212794 -0.200054
v 0.000008 -0.219174 -0.200054
vn 1.0000 -0.0000 -0.0000
vn 0.9633 -0.2685 -0.0000
vn 0.9629 -0.2604 -0.0710
vn 0.8589 -0.5122 -0.0000
vn 0.8613 -0.4899 -0.1343
vn 0.9463 -0.3234 -0.0000
vn 0.9451 -0.3151 -0.0866
vn 0.9629 -0.2604 0.0710
vn 0.8613 -0.4899 0.1343
vn 0.9451 -0.3151 0.0866
vn 0.8606 -0.4422 -0.2526
vn 0.9629 -0.2604 -0.0711
vn 0.9623 -0.2366 -0.1341
vn 0.9446 -0.2834 -0.1653
vn 0.9451 -0.3150 -0.0867
vn 0.9623 -0.2366 0.1341
vn 0.8606 -0.4422 0.2526
vn 0.8613 -0.4899 0.1344
vn 0.9446 -0.2834 0.1653
vn 0.9451 -0.3150 0.0867
vn 0.9634 -0.1895 -0.1895
vn 0.8606 -0.4421 -0.2527
vn 0.8587 -0.3624 -0.3624
vn 0.9463 -0.2287 -0.2287
vn 0.9634 -0.1895 0.1895
vn 0.8606 -0.4421 0.2527
vn 0.8587 -0.3624 0.3624
vn 0.9446 -0.2834 0.1654
vn 0.9462 -0.2287 0.2287
vn 0.9623 -0.1341 -0.2366
vn 0.8606 -0.2527 -0.4421
vn 0.9446 -0.1653 -0.2834
vn 0.9623 -0.1341 0.2366
vn 0.8606 -0.2527 0.4422
vn 0.9446 -0.1653 0.2834
vn 0.8613 -0.1343 -0.4899
vn 0.9451 -0.0867 -0.3151
vn 0.9629 -0.0710 -0.2604
vn 0.9629 -0.0710 0.2604
vn 0.8613 -0.1344 0.4899
vn 0.8606 -0.2526 0.4422
vn 0.9446 -0.1653 0.2835
vn 0.9451 -0.0867 0.3151
vn 0.9629 -0.0710 -0.2605
vn 0.9633 -0.0000 -0.2685
vn 0.8589 -0.0000 -0.5122
vn 0.9451 -0.0866 -0.3151
vn 0.9518 -0.0000 -0.3068
vn 0.8613 -0.1343 0.4899
vn 0.9633 -0.0000 0.2685
vn 0.8589 -0.0000 0.5122
vn 0.9629 -0.0710 0.2605
vn 0.9451 -0.0866 0.3151
vn 0.9518 -0.0000 0.3068
vn 0.9629 0.0710 -0.2605
vn 0.8613 0.1343 -0.4899
vn 0.9451 0.0866 -0.3151
vn 0.9629 0.0710 0.2605
vn 0.8613 0.1343 0.4899
vn 0.9451 0.0866 0.3151
vn 0.9629 0.0711 -0.2604
vn 0.9623 0.1341 -0.2366
vn 0.8606 0.2527 -0.4422
vn 0.9451 0.0867 -0.3151
vn 0.9446 0.1653 -0.2835
vn 0.9623 0.1341 0.2366
vn 0.9629 0.0711 0.2604
vn 0.8606 0.2526 0.4422
vn 0.9451 0.0867 0.3151
vn 0.9446 0.1653 0.2835
vn 0.9634 0.1895 -0.1895
vn 0.8606 0.2527 -0.4421
vn 0.8587 0.3624 -0.3624
vn 0.9446 0.1654 -0.2834
vn 0.9463 0.2287 -0.2287
vn 0.8606 0.2527 0.4422
vn 0.9634 0.1895 0.1895
vn 0.8587 0.3624 0.3624
vn 0.9446 0.1654 0.2834
vn 0.9462 0.2287 0.2287
vn 0.8606 0.4421 -0.2527
vn 0.9623 0.2366 -0.1341
vn 0.9446 0.2834 -0.1654
vn 0.9462 0.2287 -0.2287
vn 0.9623 0.2366 0.1341
vn 0.8606 0.4422 0.2527
vn 0.9446 0.2834 0.1654
vn 0.9629 0.2605 -0.0710
vn 0.8613 0.4899 -0.1344
vn 0.8606 0.4422 -0.2526
vn 0.9446 0.2834 -0.1653
vn 0.9451 0.3151 -0.0866
vn 0.9629 0.2604 0.0710
vn 0.8613 0.4899 0.1344
vn 0.9446 0.2834 0.1653
vn 0.9451 0.3151 0.0867
vn 0.9629 0.2604 -0.0710
vn 0.9633 0.2685 -0.0000
vn 0.8613 0.4899 -0.1343
vn 0.8589 0.5122 -0.0000
vn 0.9463 0.3233 -0.0000
vn 0.8613 0.4899 0.1343
vn 0.9451 0.3151 0.0866
vn -0.0000 1.0000 -0.0000
vn 0.1343 0.8613 -0.4899
vn -0.0000 0.9463 -0.3234
vn -0.0000 0.8589 -0.5122
vn 0.0866 0.9451 -0.3151
vn 0.0710 0.9629 -0.2604
vn -0.0000 0.9633 -0.2685
vn 0.1341 0.9623 -0.2366
vn 0.0711 0.9629 -0.2604
vn 0.2526 0.8606 -0.4422
vn 0.1653 0.9446 -0.2834
vn 0.0867 0.9451 -0.3151
vn 0.2527 0.8606 -0.4421
vn 0.3624 0.8587 -0.3624
vn 0.2287 0.9463 -0.2287
vn 0.1654 0.9446 -0.2834
vn 0.1895 0.9634 -0.1895
vn 0.2834 0.9446 -0.1653
vn 0.2287 0.9462 -0.2287
vn 0.4421 0.8606 -0.2527
vn 0.2366 0.9623 -0.1341
vn 0.2604 0.9629 -0.0711
vn 0.4422 0.8606 -0.2526
vn 0.4899 0.8613 -0.1343
vn 0.3151 0.9451 -0.0867
vn 0.5122 0.8589 -0.0000
vn 0.2605 0.9629 -0.0710
vn 0.2685 0.9633 -0.0000
vn 0.3068 0.9518 -0.0000
vn 0.3151 0.9451 -0.0866
vn 0.4899 0.8613 0.1343
vn 0.3151 0.9451 0.0866
vn 0.2605 0.9629 0.0710
vn 0.0001 1.0000 -0.0000
vn 0.2366 0.9623 0.1341
vn 0.4422 0.8606 0.2526
vn 0.4899 0.8613 0.1344
vn 0.2835 0.9446 0.1653
vn 0.3151 0.9451 0.0867
vn 0.3624 0.8587 0.3624
vn 0.2834 0.9446 0.1654
vn 0.4422 0.8606 0.2527
vn 0.2287 0.9462 0.2287
vn 0.1895 0.9634 0.1895
vn 0.2527 0.8606 0.4422
vn 0.1653 0.9446 0.2834
vn 0.1341 0.9623 0.2366
vn 0.2526 0.8606 0.4422
vn 0.1343 0.8613 0.4899
vn 0.0867 0.9451 0.3151
vn 0.0710 0.9629 0.2604
vn 0.0866 0.9451 0.3151
vn -0.0000 0.8589 0.5122
vn -0.0000 0.9463 0.3234
vn -0.0000 0.9633 0.2685
vn 0.0710 0.9629 0.2605
vn -0.0710 0.9629 0.2604
vn -0.1343 0.8613 0.4899
vn -0.0866 0.9451 0.3151
vn -0.1341 0.9623 0.2366
vn -0.2526 0.8606 0.4422
vn -0.1653 0.9446 0.2834
vn -0.0867 0.9451 0.3151
vn -0.3624 0.8587 0.3624
vn -0.2527 0.8606 0.4421
vn -0.2287 0.9462 0.2287
vn -0.1895 0.9634 0.1895
vn -0.2366 0.9623 0.1341
vn -0.4422 0.8606 0.2527
vn -0.2834 0.9446 0.1654
vn -0.2604 0.9629 0.0711
vn -0.4422 0.8606 0.2526
vn -0.4899 0.8613 0.1344
vn -0.2835 0.9446 0.1653
vn -0.3151 0.9451 0.0867
vn -0.3151 0.9451 0.0866
vn -0.4899 0.8613 0.1343
vn -0.3068 0.9518 -0.0000
vn -0.5122 0.8589 -0.0000
vn -0.2605 0.9629 0.0710
vn -0.2685 0.9633 -0.0000
vn -0.0001 1.0000 -0.0000
vn -0.2605 0.9629 -0.0710
vn -0.4899 0.8613 -0.1343
vn -0.3151 0.9451 -0.0866
vn -0.2604 0.9629 -0.0711
vn -0.4422 0.8606 -0.2526
vn -0.2834 0.9446 -0.1653
vn -0.3151 0.9451 -0.0867
vn -0.2366 0.9623 -0.1341
vn -0.2834 0.9446 -0.1654
vn -0.3624 0.8587 -0.3624
vn -0.2287 0.9462 -0.2287
vn -0.4421 0.8606 -0.2527
vn -0.1895 0.9634 -0.1895
vn -0.1341 0.9623 -0.2366
vn -0.2527 0.8606 -0.4421
vn -0.2287 0.9463 -0.2287
vn -0.1653 0.9446 -0.2834
vn -0.0711 0.9629 -0.2604
vn -0.2526 0.8606 -0.4422
vn -0.1343 0.8613 -0.4899
vn -0.0867 0.9451 -0.3151
vn -0.0000 0.9463 -0.3233
vn -0.0866 0.9451 -0.3151
vn -0.0710 0.9629 -0.2605
vn -0.0000 -0.0000 1.0000
vn -0.0001 -0.0000 1.0000
vn 0.0001 -0.0000 1.0000
vn -0.0000 -0.2685 0.9633
vn 0.0710 -0.2604 0.9629
vn -0.0000 -0.5122 0.8589
vn 0.1343 -0.4899 0.8613
vn -0.0000 -0.3233 0.9463
vn 0.0866 -0.3151 0.9451
vn -0.0710 -0.2605 0.9629
vn -0.1343 -0.4899 0.8613
vn -0.0866 -0.3151 0.9451
vn 0.2526 -0.4422 0.8606
vn 0.1344 -0.4899 0.8613
vn 0.1341 -0.2366 0.9623
vn 0.1653 -0.2834 0.9446
vn 0.0867 -0.3151 0.9451
vn -0.1341 -0.2366 0.9623
vn -0.0710 -0.2604 0.9629
vn -0.2526 -0.4422 0.8606
vn -0.1344 -0.4899 0.8613
vn -0.1653 -0.2834 0.9446
vn -0.0867 -0.3151 0.9451
vn 0.1895 -0.1895 0.9634
vn 0.2527 -0.4421 0.8606
vn 0.3624 -0.3624 0.8587
vn 0.2287 -0.2287 0.9463
vn -0.2527 -0.4421 0.8606
vn -0.1895 -0.1895 0.9634
vn -0.3624 -0.3624 0.8587
vn -0.2287 -0.2287 0.9463
vn -0.1654 -0.2834 0.9446
vn 0.2366 -0.1341 0.9623
vn 0.4421 -0.2527 0.8606
vn 0.2834 -0.1654 0.9446
vn 0.2287 -0.2287 0.9462
vn -0.2366 -0.1341 0.9623
vn -0.4422 -0.2527 0.8606
vn -0.2834 -0.1654 0.9446
vn -0.2287 -0.2287 0.9462
vn 0.4899 -0.1343 0.8613
vn 0.4422 -0.2526 0.8606
vn 0.2834 -0.1653 0.9446
vn 0.3151 -0.0867 0.9451
vn 0.2604 -0.0710 0.9629
vn -0.2604 -0.0710 0.9629
vn -0.4899 -0.1343 0.8613
vn -0.4422 -0.2526 0.8606
vn -0.2834 -0.1653 0.9446
vn -0.3151 -0.0867 0.9451
vn 0.2605 -0.0710 0.9629
vn 0.2685 -0.0000 0.9633
vn 0.5122 -0.0000 0.8589
vn 0.3151 -0.0866 0.9451
vn 0.3068 -0.0000 0.9518
vn -0.2685 -0.0000 0.9633
vn -0.5122 -0.0000 0.8589
vn -0.3151 -0.0866 0.9451
vn -0.3068 -0.0000 0.9518
vn 0.2605 0.0710 0.9629
vn 0.4899 0.1343 0.8613
vn 0.3151 0.0866 0.9451
vn -0.2604 0.0710 0.9629
vn -0.4899 0.1343 0.8613
vn -0.3151 0.0866 0.9451
vn 0.2604 0.0711 0.9629
vn 0.2366 0.1341 0.9623
vn 0.4899 0.1344 0.8613
vn 0.4422 0.2526 0.8606
vn 0.3151 0.0867 0.9451
vn 0.2835 0.1653 0.9446
vn -0.2366 0.1341 0.9623
vn -0.2604 0.0711 0.9629
vn -0.4899 0.1344 0.8613
vn -0.4422 0.2526 0.8606
vn -0.3151 0.0867 0.9451
vn -0.2834 0.1653 0.9446
vn 0.1895 0.1895 0.9634
vn 0.4421 0.2527 0.8606
vn 0.3624 0.3624 0.8587
vn 0.2834 0.1653 0.9446
vn 0.2287 0.2287 0.9462
vn -0.1896 0.1895 0.9634
vn -0.4421 0.2527 0.8606
vn -0.3624 0.3624 0.8587
vn -0.2834 0.1654 0.9446
vn -0.2287 0.2287 0.9462
vn 0.2527 0.4421 0.8606
vn 0.1341 0.2366 0.9623
vn 0.1653 0.2834 0.9446
vn -0.1341 0.2366 0.9623
vn -0.1895 0.1895 0.9634
vn -0.2527 0.4421 0.8606
vn -0.1654 0.2834 0.9446
vn 0.0710 0.2605 0.9629
vn 0.1344 0.4899 0.8613
vn 0.2526 0.4422 0.8606
vn 0.0866 0.3151 0.9451
vn -0.0710 0.2604 0.9629
vn -0.1344 0.4899 0.8613
vn -0.2526 0.4422 0.8606
vn -0.1653 0.2834 0.9446
vn -0.0867 0.3151 0.9451
vn -0.0000 0.2685 0.9633
vn 0.1343 0.4899 0.8613
vn -0.0000 0.5122 0.8589
vn 0.0001 0.3234 0.9463
vn -0.1343 0.4899 0.8613
vn -0.0710 0.2605 0.9629
vn -0.0000 0.0001 1.0000
vn -0.0866 0.3151 0.9451
vn -0.0000 0.3234 0.9463
vn -1.0000 -0.0000 -0.0000
vn -1.0000 -0.0001 -0.0000
vn -0.9463 -0.3234 -0.0000
vn -0.8613 -0.4899 -0.1343
vn -0.9451 -0.3151 -0.0866
vn -0.8589 -0.5122 -0.0000
vn -0.9629 -0.2604 -0.0710
vn -0.9633 -0.2685 -0.0000
vn -0.9451 -0.3151 0.0866
vn -0.8613 -0.4899 0.1343
vn -0.9629 -0.2604 0.0710
vn -0.9623 -0.2366 -0.1341
vn -0.9629 -0.2605 -0.0710
vn -0.8606 -0.4422 -0.2526
vn -0.9446 -0.2834 -0.1653
vn -0.9451 -0.3151 -0.0867
vn -0.8606 -0.4422 0.2526
vn -0.9623 -0.2366 0.1341
vn -0.8613 -0.4899 0.1344
vn -0.9446 -0.2834 0.1653
vn -0.9451 -0.3151 0.0867
vn -0.8606 -0.4421 -0.2527
vn -0.8587 -0.3624 -0.3624
vn -0.9463 -0.2287 -0.2287
vn -0.9634 -0.1895 -0.1895
vn -0.9634 -0.1895 0.1895
vn -0.8587 -0.3624 0.3624
vn -0.8606 -0.4421 0.2527
vn -0.9463 -0.2287 0.2287
vn -0.9446 -0.1654 -0.2834
vn -0.8606 -0.2527 -0.4421
vn -0.9462 -0.2287 -0.2287
vn -0.9623 -0.1341 -0.2366
vn -0.9446 -0.1653 0.2834
vn -0.8606 -0.2527 0.4421
vn -0.9623 -0.1341 0.2366
vn -0.9629 -0.0710 -0.2604
vn -0.8606 -0.2526 -0.4422
vn -0.8613 -0.1344 -0.4899
vn -0.9446 -0.1653 -0.2834
vn -0.9451 -0.0867 -0.3151
vn -0.8606 -0.2527 0.4422
vn -0.9629 -0.0710 0.2604
vn -0.8613 -0.1343 0.4899
vn -0.9451 -0.0867 0.3151
vn -0.8589 -0.0000 -0.5122
vn -0.9629 -0.0710 -0.2605
vn -0.9633 -0.0000 -0.2685
vn -0.8613 -0.1343 -0.4899
vn -0.9518 -0.0000 -0.3068
vn -0.9451 -0.0866 -0.3151
vn -0.9629 -0.0710 0.2605
vn -0.9633 -0.0000 0.2685
vn -0.8589 -0.0000 0.5122
vn -0.9518 -0.0000 0.3068
vn -0.9451 -0.0866 0.3151
vn -0.8613 0.1343 -0.4899
vn -0.9451 0.0866 -0.3151
vn -0.9629 0.0710 -0.2604
vn -0.9451 0.0866 0.3151
vn -0.8613 0.1343 0.4899
vn -0.9629 0.0710 0.2605
vn -0.9623 0.1341 -0.2366
vn -0.8606 0.2526 -0.4422
vn -0.8613 0.1344 -0.4899
vn -0.9446 0.1653 -0.2834
vn -0.8606 0.2526 0.4422
vn -0.9623 0.1341 0.2366
vn -0.9446 0.1653 0.2835
vn -0.9451 0.0867 0.3151
vn -0.9446 0.1654 -0.2834
vn -0.8587 0.3624 -0.3624
vn -0.9463 0.2287 -0.2287
vn -0.8606 0.2527 -0.4421
vn -0.9634 0.1895 -0.1895
vn -0.9634 0.1895 0.1895
vn -0.8606 0.2527 0.4421
vn -0.8587 0.3624 0.3624
vn -0.9446 0.1653 0.2834
vn -0.9463 0.2287 0.2287
vn -0.8606 0.4421 -0.2527
vn -0.9446 0.2834 -0.1654
vn -0.9623 0.2366 -0.1341
vn -0.9446 0.2834 0.1654
vn -0.8606 0.4421 0.2527
vn -0.9623 0.2366 0.1341
vn -0.8613 0.4899 -0.1343
vn -0.8606 0.4422 -0.2526
vn -0.9446 0.2834 -0.1653
vn -0.9451 0.3150 -0.0867
vn -0.9629 0.2605 -0.0710
vn -0.8613 0.4899 0.1343
vn -0.9629 0.2604 0.0710
vn -0.9446 0.2834 0.1653
vn -0.9451 0.3151 0.0866
vn -0.8589 0.5122 -0.0000
vn -0.9451 0.3151 -0.0866
vn -0.9463 0.3233 -0.0000
vn -0.9633 0.2685 -0.0000
vn -1.0000 0.0001 -0.0000
vn -0.0000 -1.0000 -0.0000
vn -0.0000 -0.0000 -1.0000
vn -0.0001 -0.0000 -1.0000
vn 0.0001 -0.0000 -1.0000
vn -0.0000 -0.3233 -0.9463
vn 0.1343 -0.4899 -0.8613
vn 0.0866 -0.3151 -0.9451
vn -0.0000 -0.5122 -0.8589
vn 0.0710 -0.2605 -0.9629
vn -0.0000 -0.2685 -0.9633
vn -0.0866 -0.3151 -0.9451
vn -0.1343 -0.4899 -0.8613
vn -0.0710 -0.2605 -0.9629
vn 0.1341 -0.2366 -0.9623
vn 0.0710 -0.2604 -0.9629
vn 0.2526 -0.4422 -0.8606
vn 0.1653 -0.2834 -0.9446
vn 0.0867 -0.3151 -0.9451
vn -0.2526 -0.4422 -0.8606
vn -0.0711 -0.2604 -0.9629
vn -0.1344 -0.4899 -0.8613
vn -0.1341 -0.2366 -0.9623
vn -0.1653 -0.2834 -0.9446
vn 0.3624 -0.3624 -0.8587
vn 0.1895 -0.1895 -0.9634
vn 0.2527 -0.4421 -0.8606
vn 0.2287 -0.2287 -0.9462
vn 0.1654 -0.2834 -0.9446
vn -0.1895 -0.1895 -0.9634
vn -0.3624 -0.3624 -0.8587
vn -0.2527 -0.4421 -0.8606
vn -0.2287 -0.2287 -0.9463
vn 0.2834 -0.1653 -0.9446
vn 0.4421 -0.2527 -0.8606
vn 0.2287 -0.2287 -0.9463
vn 0.2366 -0.1341 -0.9623
vn -0.2834 -0.1653 -0.9446
vn -0.4421 -0.2527 -0.8606
vn -0.2366 -0.1341 -0.9623
vn 0.2604 -0.0710 -0.9629
vn 0.4422 -0.2526 -0.8606
vn 0.4899 -0.1344 -0.8613
vn 0.2835 -0.1653 -0.9446
vn 0.3151 -0.0867 -0.9451
vn -0.4422 -0.2527 -0.8606
vn -0.2604 -0.0710 -0.9629
vn -0.4899 -0.1344 -0.8613
vn -0.3151 -0.0867 -0.9451
vn 0.2685 -0.0000 -0.9633
vn 0.5122 -0.0000 -0.8589
vn 0.2605 -0.0710 -0.9629
vn 0.4899 -0.1343 -0.8613
vn 0.3068 -0.0000 -0.9518
vn 0.3151 -0.0866 -0.9451
vn -0.2685 -0.0000 -0.9633
vn -0.5122 -0.0000 -0.8589
vn -0.4899 -0.1343 -0.8613
vn -0.3068 -0.0000 -0.9518
vn -0.3151 -0.0866 -0.9451
vn 0.4899 0.1343 -0.8613
vn 0.3151 0.0866 -0.9451
vn 0.2605 0.0710 -0.9629
vn -0.4899 0.1343 -0.8613
vn -0.3151 0.0866 -0.9451
vn -0.2605 0.0710 -0.9629
vn 0.2366 0.1341 -0.9623
vn 0.2604 0.0711 -0.9629
vn 0.4422 0.2526 -0.8606
vn 0.4899 0.1344 -0.8613
vn 0.2834 0.1653 -0.9446
vn 0.3151 0.0867 -0.9451
vn -0.4422 0.2526 -0.8606
vn -0.2604 0.0710 -0.9629
vn -0.4899 0.1344 -0.8613
vn -0.2366 0.1341 -0.9623
vn -0.2834 0.1653 -0.9446
vn -0.3151 0.0867 -0.9451
vn 0.2834 0.1654 -0.9446
vn 0.3624 0.3624 -0.8587
vn 0.2287 0.2287 -0.9463
vn 0.4421 0.2527 -0.8606
vn 0.1895 0.1895 -0.9634
vn -0.1895 0.1895 -0.9634
vn -0.4421 0.2527 -0.8606
vn -0.3624 0.3624 -0.8587
vn -0.2287 0.2287 -0.9463
vn 0.2527 0.4421 -0.8606
vn 0.2287 0.2287 -0.9462
vn 0.1653 0.2834 -0.9446
vn 0.1341 0.2366 -0.9623
vn -0.1653 0.2834 -0.9446
vn -0.2527 0.4421 -0.8606
vn -0.1341 0.2366 -0.9623
vn 0.1344 0.4899 -0.8613
vn 0.0710 0.2604 -0.9629
vn 0.2527 0.4422 -0.8606
vn 0.0866 0.3151 -0.9451
vn -0.1343 0.4899 -0.8613
vn -0.0711 0.2604 -0.9629
vn -0.0000 0.0001 -1.0000
vn -0.2526 0.4422 -0.8606
vn -0.0867 0.3151 -0.9451
vn -0.0000 0.5122 -0.8589
vn 0.1343 0.4899 -0.8613
vn -0.0000 0.3233 -0.9463
vn -0.0000 0.2685 -0.9633
vn -0.0710 0.2605 -0.9629
vn -0.0866 0.3151 -0.9451
vt -0.550867 1.254040
vt -0.550867 0.854040
vt -0.538143 1.054040
vt -0.531761 1.102510
vt -0.531761 1.005570
vt -0.513053 1.147680
vt -0.483291 1.186460
vt -0.444505 1.216230
vt -0.399337 1.234930
vt -0.350867 1.241320
vt -0.150867 1.254040
vt -0.302396 1.234930
vt -0.257229 1.216230
vt -0.218443 1.186460
vt -0.188681 1.147680
vt -0.169972 1.102510
vt -0.163591 1.054040
vt -0.150867 0.854040
vt -0.169972 1.005570
vt -0.188681 0.960402
vt -0.218443 0.921616
vt -0.257229 0.891854
vt -0.302396 0.873145
vt -0.350867 0.866764
vt -0.399337 0.873145
vt -0.444505 0.891854
vt -0.483291 0.921616
vt -0.513052 0.960402
vt -0.350867 1.123670
vt -0.368889 1.121300
vt -0.350867 1.054040
vt -0.350867 1.188560
vt -0.385682 1.183970
vt -0.332845 1.121300
vt -0.316051 1.183970
vt -0.418125 1.170530
vt -0.385682 1.114340
vt -0.316051 1.114340
vt -0.283609 1.170530
vt -0.400103 1.103280
vt -0.445984 1.149160
vt -0.301630 1.103280
vt -0.255750 1.149160
vt -0.411169 1.088860
vt -0.467361 1.121300
vt -0.290565 1.088860
vt -0.234373 1.121300
vt -0.480799 1.088860
vt -0.418125 1.072060
vt -0.283609 1.072060
vt -0.220935 1.088860
vt -0.420497 1.054040
vt -0.485383 1.054040
vt -0.281236 1.054040
vt -0.216351 1.054040
vt -0.418125 1.036020
vt -0.480799 1.019220
vt -0.283609 1.036020
vt -0.220935 1.019220
vt -0.411169 1.019220
vt -0.467361 0.986782
vt -0.290565 1.019220
vt -0.234373 0.986782
vt -0.400103 1.004800
vt -0.445984 0.958922
vt -0.301630 1.004800
vt -0.255750 0.958923
vt -0.418125 0.937545
vt -0.385682 0.993738
vt -0.316051 0.993738
vt -0.283609 0.937545
vt -0.368889 0.986782
vt -0.385682 0.924107
vt -0.332845 0.986782
vt -0.316051 0.924107
vt -0.350867 0.984409
vt -0.350867 0.919524
vt -0.169970 1.005570
vt -0.188680 0.960401
vt -0.218442 0.921615
vt -0.257228 0.891853
vt -0.302396 0.873143
vt -0.163589 1.054040
vt -0.350867 0.866762
vt -0.169970 1.102510
vt -0.399338 0.873143
vt -0.188680 1.147680
vt -0.444506 0.891853
vt -0.218441 1.186470
vt -0.257228 1.216230
vt -0.302396 1.234940
vt -0.483292 0.921615
vt -0.513054 0.960401
vt -0.531763 1.005570
vt -0.538145 1.054040
vt -0.399338 1.234940
vt -0.531763 1.102510
vt -0.444506 1.216230
vt -0.513054 1.147680
vt -0.483292 1.186470
vt -0.220934 1.088860
vt -0.220934 1.019220
vt -0.255750 0.958922
vt -0.513052 1.147680
vt -0.169971 1.005570
s 1
usemtl Connector1Mtl
f 1/1/1 2/2/1 3/3/1
f 1/1/1 3/3/1 4/4/1
f 3/3/1 2/2/1 5/5/1
f 1/1/1 4/4/1 6/6/1
f 1/1/1 6/6/1 7/7/1
f 8/8/1 1/1/1 7/7/1
f 9/9/1 1/1/1 8/8/1
f 10/10/1 1/1/1 9/9/1
f 11/11/1 1/1/1 10/10/1
f 11/11/1 10/10/1 12/12/1
f 11/11/1 12/12/1 13/13/1
f 14/14/1 11/11/1 13/13/1
f 15/15/1 11/11/1 14/14/1
f 16/16/1 11/11/1 15/15/1
f 17/17/1 11/11/1 16/16/1
f 18/18/1 11/11/1 17/17/1
f 18/18/1 17/17/1 19/19/1
f 18/18/1 19/19/1 20/20/1
f 21/21/1 18/18/1 20/20/1
f 18/18/1 21/21/1 22/22/1
f 22/22/1 23/23/1 18/18/1
f 24/24/1 18/18/1 23/23/1
f 2/2/1 18/18/1 24/24/1
f 2/2/1 24/24/1 25/25/1
f 2/2/1 25/25/1 26/26/1
f 2/2/1 26/26/1 27/27/1
f 27/27/1 28/28/1 2/2/1
f 5/5/1 2/2/1 28/28/1
f 29/29/2 30/30/3 31/31/1
f 29/29/2 32/32/4 30/30/3
f 33/33/5 30/30/3 32/32/4
f 34/10/6 33/33/5 32/32/4
f 33/33/5 34/10/6 35/9/7
f 36/34/8 37/29/2 38/31/1
f 36/34/8 39/32/4 37/29/2
f 39/32/4 36/34/8 40/35/9
f 40/35/9 41/10/6 39/32/4
f 40/35/9 42/12/10 41/10/6
f 43/36/11 44/30/12 45/33/5
f 44/30/12 43/36/11 46/37/13
f 44/30/12 46/37/13 47/31/1
f 48/8/14 43/36/11 45/33/5
f 49/9/15 48/8/14 45/33/5
f 50/38/16 51/34/8 52/31/1
f 50/38/16 53/39/17 51/34/8
f 53/39/17 54/35/18 51/34/8
f 55/13/19 54/35/18 53/39/17
f 54/35/18 55/13/19 56/12/20
f 57/37/13 58/40/21 59/31/1
f 60/36/22 58/40/21 57/37/13
f 58/40/21 60/36/22 61/41/23
f 62/7/24 61/41/23 60/36/22
f 63/8/14 62/7/24 60/36/22
f 64/42/25 65/39/26 66/38/16
f 64/42/25 66/38/16 67/31/1
f 65/39/26 64/42/25 68/43/27
f 68/43/27 69/13/28 65/39/26
f 69/13/28 68/43/27 70/14/29
f 71/40/21 72/44/30 73/31/1
f 71/40/21 74/45/31 72/44/30
f 74/45/31 71/40/21 75/41/23
f 76/6/32 74/45/31 75/41/23
f 76/6/32 75/41/23 77/7/24
f 78/46/33 79/42/25 80/31/1
f 81/47/34 79/42/25 78/46/33
f 79/42/25 81/47/34 82/43/27
f 83/15/35 82/43/27 81/47/34
f 82/43/27 83/15/35 84/14/29
f 85/48/36 86/44/30 87/45/31
f 88/6/32 85/48/36 87/45/31
f 85/48/36 88/6/32 89/4/37
f 86/44/30 85/48/36 90/49/38
f 86/44/30 90/49/38 91/31/1
f 92/50/39 93/46/33 94/31/1
f 95/51/40 93/46/33 92/50/39
f 93/46/33 95/51/40 96/47/41
f 95/51/40 97/15/42 96/47/41
f 97/15/42 95/51/40 98/16/43
f 99/49/44 100/52/45 101/31/1
f 102/48/36 100/52/45 99/49/44
f 100/52/45 102/48/36 103/53/46
f 104/4/47 103/53/46 102/48/36
f 103/53/46 104/4/47 105/3/48
f 106/51/49 107/54/50 108/55/51
f 107/54/50 106/51/49 109/50/52
f 107/54/50 109/50/52 110/31/1
f 111/16/53 106/51/49 108/55/51
f 112/17/54 111/16/53 108/55/51
f 113/52/45 114/56/55 115/31/1
f 113/52/45 116/57/56 114/56/55
f 116/57/56 113/52/45 117/53/46
f 117/53/46 118/5/57 116/57/56
f 118/5/57 117/53/46 119/3/48
f 120/58/58 121/54/50 122/31/1
f 123/59/59 121/54/50 120/58/58
f 124/55/51 121/54/50 123/59/59
f 125/19/60 124/55/51 123/59/59
f 124/55/51 125/19/60 126/17/54
f 127/56/61 128/60/62 129/31/1
f 127/56/61 130/57/56 128/60/62
f 131/61/63 128/60/62 130/57/56
f 132/5/64 131/61/63 130/57/56
f 131/61/63 132/5/64 133/28/65
f 134/62/66 135/58/67 136/31/1
f 134/62/66 137/59/59 135/58/67
f 137/59/59 134/62/66 138/63/68
f 138/63/68 139/19/69 137/59/59
f 138/63/68 140/20/70 139/19/69
f 141/60/62 142/64/71 143/31/1
f 141/60/62 144/61/72 142/64/71
f 145/65/73 142/64/71 144/61/72
f 146/28/74 145/65/73 144/61/72
f 145/65/73 146/28/74 147/27/75
f 148/63/76 149/66/77 150/67/78
f 149/66/77 148/63/76 151/62/66
f 149/66/77 151/62/66 152/31/1
f 150/67/78 153/20/79 148/63/76
f 153/20/79 150/67/78 154/21/80
f 155/68/81 156/69/82 157/65/73
f 158/26/83 155/68/81 157/65/73
f 159/27/84 158/26/83 157/65/73
f 157/65/73 156/69/82 160/64/71
f 160/64/71 156/69/82 161/31/1
f 162/70/85 163/66/77 164/31/1
f 162/70/85 165/67/78 163/66/77
f 165/67/78 162/70/85 166/71/86
f 166/71/86 167/21/80 165/67/78
f 167/21/80 166/71/86 168/22/87
f 169/69/82 170/72/88 171/31/1
f 169/69/82 172/73/89 170/72/88
f 172/73/89 169/69/82 173/68/90
f 174/26/91 172/73/89 173/68/90
f 172/73/89 174/26/91 175/25/92
f 176/74/93 177/70/85 178/31/1
f 179/75/94 177/70/85 176/74/93
f 177/70/85 179/75/94 180/71/86
f 179/75/94 181/22/95 180/71/86
f 181/22/95 179/75/94 182/23/96
f 183/72/97 184/76/98 185/31/1
f 186/73/99 184/76/98 183/72/97
f 184/76/98 186/73/99 187/77/100
f 188/25/92 187/77/100 186/73/99
f 187/77/100 188/25/92 189/24/101
f 190/75/102 191/76/98 192/77/100
f 191/76/98 190/75/102 193/74/93
f 191/76/98 193/74/93 194/31/1
f 192/77/100 195/23/103 190/75/102
f 195/23/103 192/77/100 196/24/101
f 197/18/104 198/78/104 199/79/104
f 200/80/104 197/18/104 199/79/104
f 201/81/104 197/18/104 200/80/104
f 202/82/104 197/18/104 201/81/104
f 197/18/104 203/83/104 198/78/104
f 204/84/104 197/18/104 202/82/104
f 197/18/104 205/11/104 203/83/104
f 206/2/104 197/18/104 204/84/104
f 203/83/104 205/11/104 207/85/104
f 206/2/104 204/84/104 208/86/104
f 207/85/104 205/11/104 209/87/104
f 206/2/104 208/86/104 210/88/104
f 209/87/104 205/11/104 211/89/104
f 212/90/104 211/89/104 205/11/104
f 205/11/104 213/91/104 212/90/104
f 205/11/104 214/10/104 213/91/104
f 215/92/104 206/2/104 210/88/104
f 216/93/104 206/2/104 215/92/104
f 217/94/104 206/2/104 216/93/104
f 218/95/104 206/2/104 217/94/104
f 205/11/104 219/1/104 214/10/104
f 219/1/104 206/2/104 218/95/104
f 214/10/104 219/1/104 220/96/104
f 219/1/104 218/95/104 221/97/104
f 220/96/104 219/1/104 222/98/104
f 219/1/104 221/97/104 223/99/104
f 222/98/104 219/1/104 224/100/104
f 219/1/104 223/99/104 224/100/104
f 225/35/105 226/10/106 227/32/107
f 226/10/106 225/35/105 228/91/108
f 227/32/107 229/34/109 225/35/105
f 229/34/109 227/32/107 230/29/110
f 231/31/104 229/34/109 230/29/110
f 232/31/104 233/38/111 234/34/112
f 233/38/111 235/39/113 234/34/112
f 236/35/105 234/34/112 235/39/113
f 236/35/105 235/39/113 237/90/114
f 238/91/115 236/35/105 237/90/114
f 239/39/116 240/38/111 241/43/117
f 239/39/116 241/43/117 242/89/118
f 243/90/119 239/39/116 242/89/118
f 240/38/111 244/42/120 241/43/117
f 245/31/104 244/42/120 240/38/111
f 246/87/121 247/89/122 248/43/117
f 246/87/121 248/43/117 249/47/123
f 248/43/117 250/42/120 249/47/123
f 249/47/123 250/42/120 251/46/124
f 252/31/104 251/46/124 250/42/120
f 253/31/104 254/50/125 255/46/124
f 254/50/125 256/47/126 255/46/124
f 256/47/126 254/50/125 257/101/127
f 257/101/127 258/87/121 256/47/126
f 258/87/121 257/101/127 259/85/128
f 260/55/129 261/50/130 262/54/131
f 263/31/104 262/54/131 261/50/130
f 261/50/130 260/55/129 264/101/127
f 265/83/132 264/101/127 260/55/129
f 264/101/127 265/83/132 266/85/133
f 267/102/134 268/83/132 269/55/129
f 268/83/132 267/102/134 270/78/135
f 269/55/129 271/58/136 267/102/134
f 271/58/136 269/55/129 272/54/131
f 273/31/137 271/58/136 272/54/131
f 274/31/137 275/62/138 276/58/136
f 277/63/139 276/58/136 275/62/138
f 276/58/136 277/63/139 278/102/140
f 279/79/141 278/102/140 277/63/139
f 278/102/140 279/79/141 280/78/142
f 281/103/143 282/79/144 283/63/145
f 282/79/144 281/103/143 284/80/146
f 283/63/145 285/66/147 281/103/143
f 285/66/147 283/63/145 286/62/138
f 287/31/104 285/66/147 286/62/138
f 288/71/148 289/80/146 290/103/143
f 289/80/146 288/71/148 291/81/149
f 290/103/143 292/70/150 288/71/148
f 292/70/150 290/103/143 293/66/147
f 294/31/104 292/70/150 293/66/147
f 295/71/151 296/70/150 297/75/152
f 297/75/152 298/81/149 295/71/151
f 298/81/149 297/75/152 299/82/153
f 296/70/150 300/74/154 297/75/152
f 301/31/104 300/74/154 296/70/150
f 302/82/155 303/77/156 304/84/157
f 303/77/156 302/82/155 305/75/152
f 305/75/152 306/76/158 303/77/156
f 306/76/158 305/75/152 307/74/159
f 308/31/104 306/76/158 307/74/159
f 309/31/104 310/72/160 311/76/158
f 312/73/161 311/76/158 310/72/160
f 313/77/156 311/76/158 312/73/161
f 314/86/162 313/77/156 312/73/161
f 314/86/162 315/84/157 313/77/156
f 316/69/163 317/73/161 318/72/160
f 319/31/104 316/69/163 318/72/160
f 317/73/161 316/69/163 320/68/164
f 321/88/165 317/73/161 320/68/164
f 317/73/161 321/88/165 322/86/166
f 323/65/167 324/88/165 325/68/168
f 324/88/165 323/65/167 326/92/169
f 327/69/163 323/65/167 325/68/168
f 323/65/167 327/69/163 328/64/170
f 329/31/104 328/64/170 327/69/163
f 330/31/104 331/60/171 332/64/170
f 333/61/172 332/64/170 331/60/171
f 332/64/170 333/61/172 334/65/167
f 335/93/173 334/65/167 333/61/172
f 334/65/167 335/93/173 336/92/169
f 337/56/174 338/61/175 339/60/171
f 340/31/104 337/56/174 339/60/171
f 338/61/175 337/56/174 341/57/176
f 341/57/176 342/93/177 338/61/175
f 342/93/177 341/57/176 343/94/178
f 344/94/179 345/57/180 346/95/181
f 345/57/180 347/53/182 346/95/181
f 345/57/180 348/56/183 347/53/182
f 349/52/184 347/53/182 348/56/183
f 350/31/104 349/52/184 348/56/183
f 351/31/185 352/49/186 353/52/184
f 352/49/186 354/53/182 353/52/184
f 354/53/182 352/49/186 355/48/187
f 355/48/187 356/95/181 354/53/182
f 356/95/181 355/48/187 357/97/188
f 358/48/187 359/49/189 360/45/190
f 361/99/191 358/48/187 360/45/190
f 361/99/191 362/97/192 358/48/187
f 360/45/190 359/49/189 363/44/193
f 364/31/104 363/44/193 359/49/189
f 365/99/194 366/41/195 367/100/196
f 366/41/195 365/99/194 368/45/197
f 368/45/197 369/40/198 366/41/195
f 369/40/198 368/45/197 370/44/193
f 371/31/104 369/40/198 370/44/193
f 372/31/104 373/37/199 374/40/198
f 373/37/199 375/41/195 374/40/198
f 375/41/195 373/37/199 376/36/200
f 376/36/200 377/100/201 375/41/195
f 377/100/201 376/36/200 378/98/202
f 379/30/203 380/36/204 381/37/199
f 382/31/104 379/30/203 381/37/199
f 380/36/204 379/30/203 383/33/205
f 383/33/205 384/98/202 380/36/204
f 384/98/202 383/33/205 385/96/206
f 386/10/207 387/33/205 388/32/107
f 387/33/205 386/10/207 389/96/208
f 390/30/209 388/32/107 387/33/205
f 388/32/107 390/30/209 391/29/110
f 392/31/104 391/29/110 390/30/209
f 393/22/210 394/23/210 395/18/210
f 395/18/210 396/21/210 393/22/210
f 396/21/210 395/18/210 397/20/210
f 395/18/210 398/19/211 397/20/210
f 399/24/210 395/18/210 394/23/210
f 395/18/210 400/17/210 398/19/211
f 401/2/210 395/18/210 399/24/210
f 401/2/210 399/24/210 402/25/210
f 395/18/210 403/11/210 400/17/210
f 401/2/210 402/25/210 404/26/210
f 400/17/210 403/11/210 405/16/210
f 401/2/210 404/26/210 406/27/210
f 401/2/210 406/27/210 407/28/212
f 408/5/210 401/2/210 407/28/212
f 409/3/210 401/2/210 408/5/210
f 405/16/210 403/11/210 410/15/211
f 411/1/210 401/2/210 409/3/210
f 411/1/210 409/3/210 412/4/212
f 410/15/211 403/11/210 413/14/210
f 414/13/210 413/14/210 403/11/210
f 403/11/210 415/12/210 414/13/210
f 403/11/210 416/10/210 415/12/210
f 403/11/210 411/1/210 416/10/210
f 416/10/210 411/1/210 417/9/210
f 411/1/210 412/4/212 418/104/210
f 417/9/210 411/1/210 419/8/210
f 411/1/210 418/104/210 420/7/210
f 419/8/210 411/1/210 420/7/210
f 421/29/213 422/30/214 423/31/210
f 421/29/213 424/32/215 422/30/214
f 424/32/215 425/33/216 422/30/214
f 426/10/217 425/33/216 424/32/215
f 425/33/216 426/10/217 427/9/218
f 428/34/219 429/29/213 430/31/210
f 428/34/219 431/32/215 429/29/213
f 431/32/215 428/34/219 432/35/220
f 432/35/220 433/10/217 431/32/215
f 433/10/217 432/35/220 434/12/221
f 435/36/222 436/30/214 437/33/223
f 436/30/214 435/36/222 438/37/224
f 436/30/214 438/37/224 439/31/210
f 437/33/223 440/8/225 435/36/222
f 437/33/223 441/9/226 440/8/225
f 442/38/227 443/34/228 444/31/210
f 445/39/229 443/34/228 442/38/227
f 443/34/228 445/39/229 446/35/230
f 447/13/231 446/35/230 445/39/229
f 446/35/230 447/13/231 448/12/232
f 449/37/224 450/40/233 451/31/210
f 449/37/224 452/36/234 450/40/233
f 453/41/235 450/40/233 452/36/234
f 452/36/234 454/7/236 453/41/235
f 452/36/234 455/8/225 454/7/236
f 456/39/237 457/42/238 458/43/239
f 459/14/240 456/39/237 458/43/239
f 456/39/237 459/14/240 460/13/241
f 457/42/238 456/39/237 461/38/227
f 457/42/238 461/38/227 462/31/210
f 463/40/233 464/44/242 465/31/210
f 463/40/233 466/45/243 464/44/242
f 466/45/243 463/40/233 467/41/235
f 468/104/244 466/45/243 467/41/235
f 469/7/245 468/104/244 467/41/235
f 470/46/246 471/42/238 472/31/210
f 473/47/247 471/42/238 470/46/246
f 471/42/238 473/47/247 474/43/239
f 475/15/248 474/43/239 473/47/247
f 474/43/239 475/15/248 476/14/249
f 477/48/250 478/44/242 479/45/251
f 480/104/252 477/48/250 479/45/251
f 477/48/250 480/104/252 481/4/253
f 478/44/242 477/48/250 482/49/254
f 478/44/242 482/49/254 483/31/210
f 484/50/255 485/46/246 486/31/210
f 487/51/256 485/46/246 484/50/255
f 488/47/257 485/46/246 487/51/256
f 489/15/258 488/47/257 487/51/256
f 490/16/259 489/15/258 487/51/256
f 491/49/260 492/52/261 493/31/210
f 494/48/250 492/52/261 491/49/260
f 492/52/261 494/48/250 495/53/262
f 496/4/263 495/53/262 494/48/250
f 495/53/262 496/4/263 497/3/264
f 498/51/256 499/54/265 500/55/266
f 499/54/265 498/51/256 501/50/255
f 499/54/265 501/50/255 502/31/210
f 500/55/266 503/16/267 498/51/256
f 500/55/266 504/17/268 503/16/267
f 505/52/261 506/56/269 507/31/210
f 505/52/261 508/57/270 506/56/269
f 508/57/270 505/52/261 509/53/262
f 509/53/262 510/5/271 508/57/270
f 510/5/271 509/53/262 511/3/264
f 512/58/272 513/54/265 514/31/210
f 512/58/272 515/59/273 513/54/265
f 516/55/266 513/54/265 515/59/273
f 517/19/274 516/55/266 515/59/273
f 516/55/266 517/19/274 518/17/268
f 519/56/275 520/60/276 521/31/210
f 522/57/277 520/60/276 519/56/275
f 520/60/276 522/57/277 523/61/278
f 524/5/279 523/61/278 522/57/277
f 523/61/278 524/5/279 525/28/280
f 526/62/281 527/58/282 528/31/210
f 526/62/281 529/59/283 527/58/282
f 529/59/283 526/62/281 530/63/284
f 530/63/284 531/19/285 529/59/283
f 531/19/285 530/63/284 532/20/286
f 533/60/276 534/64/287 535/31/210
f 533/60/276 536/61/288 534/64/287
f 536/61/288 537/65/289 534/64/287
f 538/28/290 537/65/289 536/61/288
f 537/65/289 538/28/290 539/27/291
f 540/66/292 541/63/293 542/62/281
f 540/66/292 542/62/281 543/31/210
f 541/63/293 540/66/292 544/67/294
f 544/67/294 545/20/295 541/63/293
f 545/20/295 544/67/294 546/21/296
f 547/68/297 548/69/298 549/65/289
f 549/65/289 550/26/299 547/68/297
f 550/26/299 549/65/289 551/27/291
f 552/64/287 549/65/289 548/69/298
f 552/64/287 548/69/298 553/31/210
f 554/70/300 555/66/301 556/31/210
f 554/70/300 557/67/294 555/66/301
f 557/67/294 554/70/300 558/71/302
f 558/71/302 559/21/296 557/67/294
f 559/21/296 558/71/302 560/22/303
f 561/69/298 562/72/304 563/31/210
f 561/69/298 564/73/305 562/72/304
f 564/73/305 561/69/298 565/68/306
f 566/26/299 564/73/305 565/68/306
f 564/73/305 566/26/299 567/25/307
f 568/74/308 569/70/300 570/31/210
f 571/75/309 569/70/300 568/74/308
f 569/70/300 571/75/309 572/71/310
f 571/75/309 573/22/311 572/71/310
f 573/22/311 571/75/309 574/23/312
f 575/72/304 576/76/313 577/31/210
f 578/73/314 576/76/313 575/72/304
f 579/77/315 576/76/313 578/73/314
f 580/25/307 579/77/315 578/73/314
f 579/77/315 580/25/307 581/24/316
f 582/75/317 583/76/313 584/77/315
f 583/76/313 582/75/317 585/74/318
f 583/76/313 585/74/318 586/31/319
f 587/23/320 582/75/317 584/77/315
f 588/24/321 587/23/320 584/77/315
f 589/18/322 590/11/322 591/83/322
f 589/18/322 591/83/322 592/105/322
f 591/83/322 590/11/322 593/85/322
f 589/18/322 592/105/322 594/79/322
f 595/80/322 589/18/322 594/79/322
f 589/18/322 595/80/322 596/81/322
f 596/81/322 597/82/322 589/18/322
f 598/84/322 589/18/322 597/82/322
f 599/2/322 589/18/322 598/84/322
f 599/2/322 598/84/322 600/86/322
f 599/2/322 600/86/322 601/88/322
f 602/92/322 599/2/322 601/88/322
f 603/93/322 599/2/322 602/92/322
f 604/94/322 599/2/322 603/93/322
f 605/95/322 599/2/322 604/94/322
f 606/1/322 599/2/322 605/95/322
f 606/1/322 605/95/322 607/97/322
f 606/1/322 607/97/322 608/99/322
f 606/1/322 608/99/322 609/100/322
f 610/98/322 606/1/322 609/100/322
f 611/96/322 606/1/322 610/98/322
f 612/10/322 606/1/322 611/96/322
f 590/11/322 606/1/322 612/10/322
f 590/11/322 612/10/322 613/91/323
f 590/11/322 613/91/323 614/90/322
f 590/11/322 614/90/322 615/89/322
f 615/89/322 616/87/322 590/11/322
f 593/85/322 590/11/322 616/87/322
f 617/10/324 618/35/325 619/91/326
f 618/35/325 617/10/324 620/32/327
f 620/32/327 621/34/328 618/35/325
f 621/34/328 620/32/327 622/29/329
f 623/31/322 621/34/328 622/29/329
f 624/96/330 625/33/331 626/10/324
f 625/33/331 627/32/327 626/10/324
f 625/33/331 628/30/332 627/32/327
f 629/29/329 627/32/327 628/30/332
f 630/31/322 629/29/329 628/30/332
f 631/31/322 632/38/333 633/34/334
f 634/39/335 633/34/334 632/38/333
f 635/35/325 633/34/334 634/39/335
f 636/90/336 635/35/325 634/39/335
f 636/90/336 637/91/337 635/35/325
f 638/30/332 639/36/338 640/37/339
f 641/31/322 638/30/332 640/37/339
f 639/36/338 638/30/332 642/33/340
f 642/33/340 643/98/341 639/36/338
f 643/98/341 642/33/340 644/96/342
f 645/39/343 646/38/333 647/43/344
f 648/89/345 645/39/343 647/43/344
f 648/89/345 649/90/336 645/39/343
f 647/43/344 646/38/333 650/42/346
f 651/31/322 650/42/346 646/38/333
f 652/31/322 653/37/339 654/40/347
f 653/37/339 655/41/348 654/40/347
f 655/41/348 653/37/339 656/36/349
f 656/36/349 657/100/350 655/41/348
f 657/100/350 656/36/349 658/98/341
f 659/87/351 660/43/344 661/47/352
f 660/43/344 659/87/351 662/89/353
f 663/42/346 661/47/352 660/43/344
f 661/47/352 663/42/346 664/46/354
f 665/31/322 664/46/354 663/42/346
f 666/41/348 667/99/355 668/45/356
f 667/99/355 666/41/348 669/100/350
f 668/45/356 670/40/347 666/41/348
f 670/40/347 668/45/356 671/44/357
f 672/31/322 670/40/347 671/44/357
f 673/31/322 674/50/358 675/46/354
f 674/50/358 676/47/359 675/46/354
f 676/47/359 674/50/358 677/101/360
f 677/101/360 678/87/361 676/47/359
f 678/87/361 677/101/360 679/85/362
f 680/45/363 681/49/364 682/44/357
f 683/31/322 682/44/357 681/49/364
f 681/49/364 680/45/363 684/48/365
f 685/99/355 684/48/365 680/45/363
f 684/48/365 685/99/355 686/97/366
f 687/55/367 688/50/368 689/54/369
f 690/31/322 689/54/369 688/50/368
f 688/50/368 687/55/367 691/101/370
f 692/83/371 691/101/370 687/55/367
f 691/101/370 692/83/371 693/85/372
f 694/31/322 695/49/373 696/52/374
f 695/49/373 697/53/375 696/52/374
f 697/53/375 695/49/373 698/48/365
f 698/48/365 699/95/376 697/53/375
f 699/95/376 698/48/365 700/97/377
f 701/102/378 702/83/371 703/55/367
f 702/83/371 701/102/378 704/105/379
f 703/55/367 705/58/380 701/102/378
f 705/58/380 703/55/367 706/54/369
f 707/31/322 705/58/380 706/54/369
f 708/95/376 709/94/381 710/57/382
f 708/95/376 710/57/382 711/53/375
f 710/57/382 712/56/383 711/53/375
f 711/53/375 712/56/383 713/52/374
f 714/31/322 713/52/374 712/56/383
f 715/31/322 716/62/384 717/58/380
f 716/62/384 718/63/385 717/58/380
f 719/102/386 717/58/380 718/63/385
f 718/63/385 720/105/379 719/102/386
f 720/105/379 718/63/385 721/79/387
f 722/61/388 723/56/383 724/57/382
f 723/56/383 722/61/388 725/60/389
f 726/31/322 723/56/383 725/60/389
f 724/57/382 727/93/390 722/61/388
f 727/93/390 724/57/382 728/94/391
f 729/79/392 730/103/393 731/80/394
f 730/103/393 729/79/392 732/63/395
f 732/63/395 733/66/396 730/103/393
f 733/66/396 732/63/395 734/62/384
f 735/31/322 733/66/396 734/62/384
f 736/31/322 737/60/389 738/64/397
f 737/60/389 739/61/398 738/64/397
f 740/65/399 738/64/397 739/61/398
f 740/65/399 739/61/398 741/93/400
f 740/65/399 741/93/400 742/92/401
f 743/80/394 744/71/402 745/81/403
f 744/71/402 743/80/394 746/103/393
f 746/103/393 747/70/404 744/71/402
f 747/70/404 746/103/393 748/66/396
f 749/31/322 747/70/404 748/66/396
f 750/65/399 751/88/405 752/68/406
f 751/88/405 750/65/399 753/92/401
f 754/69/407 750/65/399 752/68/406
f 755/64/397 750/65/399 754/69/407
f 756/31/322 755/64/397 754/69/407
f 757/75/408 758/71/409 759/70/404
f 757/75/408 760/81/410 758/71/409
f 760/81/410 757/75/408 761/82/411
f 757/75/408 759/70/404 762/74/412
f 763/31/322 762/74/412 759/70/404
f 764/69/407 765/73/413 766/72/414
f 767/31/322 764/69/407 766/72/414
f 765/73/413 764/69/407 768/68/406
f 769/88/415 765/73/413 768/68/406
f 765/73/413 769/88/415 770/86/416
f 771/77/417 772/82/418 773/75/408
f 772/82/418 771/77/417 774/84/419
f 773/75/408 775/76/420 771/77/417
f 775/76/420 773/75/408 776/74/412
f 777/31/421 775/76/420 776/74/412
f 778/31/322 779/72/414 780/76/420
f 781/73/413 780/76/420 779/72/414
f 780/76/420 781/73/413 782/77/417
f 783/86/416 782/77/417 781/73/413
f 782/77/417 783/86/416 784/84/419
f 785/18/422 786/1/422 787/2/422
f 786/1/422 785/18/422 788/11/422
f 789/81/423 790/82/423 791/18/423
f 791/18/423 792/80/423 789/81/423
f 792/80/423 791/18/423 793/79/424
f 791/18/423 794/78/425 793/79/424
f 795/84/423 791/18/423 790/82/423
f 791/18/423 796/83/423 794/78/425
f 797/2/423 791/18/423 795/84/423
f 797/2/423 795/84/423 798/86/423
f 791/18/423 799/11/423 796/83/423
f 797/2/423 798/86/423 800/88/423
f 796/83/423 799/11/423 801/85/423
f 800/88/423 802/92/424 797/2/423
f 803/93/425 797/2/423 802/92/424
f 804/94/423 797/2/423 803/93/425
f 805/95/423 797/2/423 804/94/423
f 801/85/423 799/11/423 806/87/424
f 807/1/423 797/2/423 805/95/423
f 807/1/423 805/95/423 808/97/424
f 799/11/423 809/89/423 806/87/424
f 799/11/423 810/90/423 809/89/423
f 799/11/423 811/91/423 810/90/423
f 799/11/423 812/10/423 811/91/423
f 799/11/423 807/1/423 812/10/423
f 812/10/423 807/1/423 813/96/423
f 807/1/423 808/97/424 814/99/425
f 813/96/423 807/1/423 815/98/423
f 807/1/423 814/99/425 816/100/423
f 815/98/423 807/1/423 816/100/423
f 817/10/426 818/35/427 819/91/428
f 818/35/427 817/10/426 820/32/429
f 820/32/429 821/34/430 818/35/427
f 821/34/430 820/32/429 822/29/431
f 823/31/423 821/34/430 822/29/431
f 824/10/426 825/96/432 826/33/433
f 824/10/426 826/33/433 827/32/429
f 826/33/433 828/30/434 827/32/429
f 827/32/429 828/30/434 829/29/431
f 830/31/423 829/29/431 828/30/434
f 831/31/423 832/38/435 833/34/436
f 834/39/437 833/34/436 832/38/435
f 833/34/436 834/39/437 835/35/427
f 836/90/438 835/35/427 834/39/437
f 835/35/427 836/90/438 837/91/439
f 838/36/440 839/30/441 840/33/442
f 839/30/441 838/36/440 841/37/443
f 842/31/423 839/30/441 841/37/443
f 840/33/442 843/98/444 838/36/440
f 843/98/444 840/33/442 844/96/432
f 845/43/445 846/38/435 847/42/446
f 848/31/423 847/42/446 846/38/435
f 846/38/435 845/43/445 849/39/447
f 850/89/448 849/39/447 845/43/445
f 849/39/447 850/89/448 851/90/449
f 852/31/423 853/37/443 854/40/450
f 853/37/443 855/41/451 854/40/450
f 855/41/451 853/37/443 856/36/452
f 856/36/452 857/100/453 855/41/451
f 857/100/453 856/36/452 858/98/444
f 859/87/454 860/43/445 861/47/455
f 860/43/445 859/87/454 862/89/456
f 863/42/446 861/47/455 860/43/445
f 861/47/455 863/42/446 864/46/457
f 865/31/423 864/46/457 863/42/446
f 866/41/451 867/99/458 868/45/459
f 867/99/458 866/41/451 869/100/453
f 868/45/459 870/40/450 866/41/451
f 870/40/450 868/45/459 871/44/460
f 872/31/423 870/40/450 871/44/460
f 873/31/423 874/50/461 875/46/457
f 874/50/461 876/47/462 875/46/457
f 876/47/462 874/50/461 877/101/463
f 877/101/463 878/87/464 876/47/462
f 878/87/464 877/101/463 879/85/465
f 880/45/466 881/49/467 882/44/460
f 883/31/423 882/44/460 881/49/467
f 881/49/467 880/45/466 884/48/468
f 885/99/458 884/48/468 880/45/466
f 884/48/468 885/99/458 886/97/469
f 887/54/470 888/55/471 889/50/472
f 890/31/423 887/54/470 889/50/472
f 891/101/473 889/50/472 888/55/471
f 891/101/473 888/55/471 892/83/474
f 893/85/475 891/101/473 892/83/474
f 894/31/423 895/49/467 896/52/476
f 895/49/467 897/53/477 896/52/476
f 897/53/477 895/49/467 898/48/478
f 898/48/478 899/95/479 897/53/477
f 899/95/479 898/48/478 900/97/480
f 901/83/474 902/102/481 903/78/482
f 902/102/481 901/83/474 904/55/471
f 904/55/471 905/58/483 902/102/481
f 905/58/483 904/55/471 906/54/470
f 907/31/423 905/58/483 906/54/470
f 908/95/479 909/57/484 910/53/477
f 909/57/484 908/95/479 911/94/485
f 912/56/486 910/53/477 909/57/484
f 910/53/477 912/56/486 913/52/476
f 914/31/423 913/52/476 912/56/486
f 915/31/423 916/62/487 917/58/488
f 918/63/489 917/58/488 916/62/487
f 919/102/490 917/58/488 918/63/489
f 920/79/491 919/102/490 918/63/489
f 920/79/491 921/78/492 919/102/490
f 922/61/493 923/56/494 924/57/495
f 923/56/494 922/61/493 925/60/496
f 926/31/423 923/56/494 925/60/496
f 924/57/495 927/93/497 922/61/493
f 927/93/497 924/57/495 928/94/498
f 929/79/499 930/103/500 931/80/501
f 930/103/500 929/79/499 932/63/502
f 932/63/502 933/66/503 930/103/500
f 933/66/503 932/63/502 934/62/487
f 935/31/423 933/66/503 934/62/487
f 936/31/423 937/60/496 938/64/504
f 939/61/505 938/64/504 937/60/496
f 940/65/506 938/64/504 939/61/505
f 941/93/497 940/65/506 939/61/505
f 941/93/497 942/92/507 940/65/506
f 943/71/508 944/80/509 945/103/500
f 944/80/509 943/71/508 946/81/510
f 945/103/500 947/70/511 943/71/508
f 947/70/511 945/103/500 948/66/503
f 949/31/423 947/70/511 948/66/503
f 950/88/512 951/65/506 952/92/507
f 951/65/506 950/88/512 953/68/513
f 953/68/513 954/69/514 951/65/506
f 954/69/514 955/64/504 951/65/506
f 956/31/423 955/64/504 954/69/514
f 957/75/515 958/70/511 959/74/516
f 960/31/423 959/74/516 958/70/511
f 958/70/511 957/75/515 961/71/517
f 957/75/515 962/81/510 961/71/517
f 962/81/510 957/75/515 963/82/518
f 964/69/514 965/73/519 966/72/520
f 967/31/521 964/69/514 966/72/520
f 965/73/519 964/69/514 968/68/522
f 965/73/519 968/68/522 969/88/512
f 970/86/523 965/73/519 969/88/512
f 971/77/524 972/82/518 973/75/525
f 972/82/518 971/77/524 974/84/526
f 973/75/525 975/76/527 971/77/524
f 975/76/527 973/75/525 976/74/516
f 977/31/423 975/76/527 976/74/516
f 978/31/423 979/72/528 980/76/527
f 979/72/528 981/73/519 980/76/527
f 980/76/527 981/73/519 982/77/524
f 981/73/519 983/86/529 982/77/524
f 982/77/524 983/86/529 984/84/526
