# Blender 5.1.2
# www.blender.org
mtllib Leg.mtl
o Leg
v 0.000347 0.337517 0.121353
v 0.002548 0.243207 0.102253
v 0.054050 0.328737 0.109354
v 0.049351 0.379567 0.106354
v 0.002148 0.379567 0.117453
v 0.055450 0.240097 0.093254
v 0.002148 0.108887 0.095453
v 0.084450 0.322017 0.079054
v 0.043049 0.426777 0.096754
v 0.002148 0.426777 0.106354
v 0.083950 0.379567 0.076054
v 0.073048 0.426777 0.070553
v 0.025749 0.461347 0.070553
v 0.002148 0.461347 0.076054
v 0.043049 0.461347 0.055353
v 0.002148 0.473997 0.034653
v 0.049351 0.461347 0.034653
v 0.083950 0.426777 0.034653
v 0.096649 0.379567 0.034653
v 0.043049 0.461347 0.013954
v 0.073048 0.426777 -0.001146
v 0.025749 0.461347 -0.001146
v 0.002148 0.461347 -0.006746
v 0.002148 0.426777 -0.037046
v 0.043049 0.426777 -0.027447
v 0.002148 0.379567 -0.048147
v 0.049351 0.379567 -0.037046
v -0.000050 0.338597 -0.051647
v 0.083950 0.379567 -0.006746
v -0.001251 -0.150553 -0.060146
v -0.053051 -0.180343 -0.128347
v -0.062050 -0.160363 -0.048046
v -0.001251 -0.171713 -0.126846
v -0.055050 -0.106223 -0.023046
v -0.001053 -0.105533 -0.032347
v -0.041252 -0.190113 -0.185646
v -0.001251 -0.187023 -0.194347
v -0.052250 -0.210113 -0.210747
v -0.001251 -0.210983 -0.236347
v -0.001251 -0.245093 -0.253046
v -0.074852 -0.205453 -0.139946
v -0.054550 -0.243623 -0.224747
v -0.077850 -0.239523 -0.148346
v -0.052250 -0.279523 -0.219246
v -0.001251 -0.282053 -0.245947
v -0.001251 -0.306293 -0.208746
v -0.079250 -0.199733 -0.058847
v -0.081150 -0.235373 -0.063347
v -0.041252 -0.300603 -0.198246
v -0.001251 -0.309813 -0.138647
v -0.074650 -0.274683 -0.146046
v -0.052250 -0.300433 -0.139046
v -0.001251 -0.304513 -0.060247
v -0.077850 -0.269723 -0.062546
v -0.054550 -0.295303 -0.060247
v -0.001251 -0.304853 -0.006147
v -0.077850 -0.268883 -0.005747
v -0.054550 -0.295303 -0.005146
v -0.001251 -0.309983 0.030554
v -0.081150 -0.233663 -0.006046
v -0.080853 -0.197193 -0.004147
v -0.081150 -0.233583 0.031853
v -0.077850 -0.270923 0.031954
v -0.054550 -0.299583 0.031954
v -0.077850 -0.233883 0.065054
v -0.074650 -0.273123 0.064854
v -0.052250 -0.302933 0.063854
v -0.001251 -0.313813 0.062553
v -0.041252 -0.299363 0.082653
v -0.001251 -0.305373 0.084854
v -0.001251 -0.276963 0.093853
v -0.052250 -0.274573 0.087654
v -0.001251 -0.236673 0.095154
v -0.054550 -0.234803 0.088654
v -0.001251 -0.197483 0.095253
v -0.054550 -0.196303 0.088854
v -0.001251 -0.157203 0.095354
v -0.054550 -0.156803 0.089054
v -0.001152 -0.106203 0.095354
v -0.054352 -0.106123 0.089054
v -0.077652 -0.106103 0.066454
v -0.077850 -0.156763 0.066254
v -0.080952 -0.106113 0.034853
v -0.077850 -0.196073 0.065554
v -0.081150 -0.156933 0.034254
v -0.077751 -0.106193 0.002554
v -0.081150 -0.196453 0.032953
v -0.079250 -0.157453 -0.000647
v 0.059448 -0.161253 -0.050047
v 0.050549 -0.180743 -0.129847
v -0.001251 -0.150553 -0.060146
v -0.001251 -0.171713 -0.126846
v 0.052849 -0.106363 -0.023746
v -0.001053 -0.105533 -0.032347
v 0.076649 -0.158983 -0.004347
v 0.075550 -0.106423 0.000654
v 0.038651 -0.190083 -0.186346
v -0.001251 -0.187023 -0.194347
v 0.049747 -0.210383 -0.212147
v -0.001251 -0.210983 -0.236347
v -0.001251 -0.245093 -0.253046
v 0.072350 -0.207373 -0.144146
v 0.052048 -0.244343 -0.226747
v 0.049747 -0.280133 -0.220947
v -0.001251 -0.282053 -0.245947
v 0.075348 -0.242553 -0.154547
v -0.001251 -0.306293 -0.208746
v 0.038651 -0.300933 -0.199347
v -0.001251 -0.309813 -0.138647
v 0.072147 -0.276943 -0.151047
v 0.078648 -0.240823 -0.073147
v 0.076649 -0.203523 -0.065746
v 0.049747 -0.301233 -0.141346
v 0.052048 -0.296673 -0.063946
v -0.001251 -0.304513 -0.060247
v 0.075348 -0.273673 -0.070547
v 0.078648 -0.239973 -0.016546
v 0.075348 -0.273423 -0.014547
v 0.052048 -0.296873 -0.009447
v -0.001251 -0.304853 -0.006147
v 0.078247 -0.201703 -0.011847
v 0.078648 -0.239703 0.022553
v 0.078648 -0.200853 0.025454
v 0.078648 -0.158463 0.029554
v 0.078751 -0.106353 0.031553
v 0.075348 -0.275323 0.023953
v 0.075348 -0.239433 0.057354
v 0.075348 -0.200063 0.058853
v 0.075348 -0.158143 0.061054
v 0.075348 -0.106323 0.062054
v 0.052048 -0.301113 0.027653
v -0.001251 -0.309983 0.030554
v 0.072147 -0.277133 0.057953
v 0.049747 -0.304383 0.059753
v -0.001251 -0.313813 0.062553
v 0.038651 -0.300753 0.079453
v -0.001251 -0.305373 0.084854
v -0.001251 -0.276963 0.093853
v 0.049747 -0.277303 0.083254
v -0.001251 -0.236673 0.095154
v 0.052048 -0.238523 0.083954
v 0.052048 -0.198973 0.084454
v -0.001251 -0.197483 0.095253
v 0.052048 -0.157733 0.085154
v -0.001251 -0.157203 0.095354
v 0.052151 -0.106283 0.085453
v -0.001152 -0.106203 0.095354
v -0.049351 0.345607 0.108654
v -0.050552 0.245907 0.093954
v 0.000347 0.337517 0.121353
v 0.002548 0.243207 0.102253
v -0.050053 0.109657 0.088453
v 0.002148 0.108887 0.095453
v -0.000050 -0.021643 0.095053
v -0.074051 0.246787 0.069454
v -0.052853 -0.021463 0.088654
v -0.001152 -0.106203 0.095354
v -0.054352 -0.106123 0.089054
v -0.073051 0.110127 0.066254
v -0.076050 -0.021313 0.066254
v -0.077652 -0.106103 0.066454
v -0.080952 -0.106113 0.034853
v -0.082649 0.346827 0.078154
v -0.079250 -0.021213 0.035154
v -0.075752 -0.021153 0.003853
v -0.077751 -0.106193 0.002554
v -0.076153 0.110397 0.035654
v -0.072151 0.110607 0.004854
v -0.052452 -0.021163 -0.019247
v -0.055050 -0.106223 -0.023046
v -0.001053 -0.105533 -0.032347
v 0.000149 -0.021273 -0.027546
v -0.048851 0.110527 -0.017946
v 0.002647 0.109977 -0.026146
v 0.003250 0.244717 -0.031046
v -0.048950 0.247117 -0.022146
v -0.000050 0.338597 -0.051647
v -0.072849 0.247457 0.002653
v -0.077152 0.246937 0.036154
v -0.091053 0.346197 0.036453
v -0.083050 0.347297 -0.010347
v -0.054150 0.346467 -0.038147
v -0.079651 0.379567 -0.006746
v -0.049553 0.379567 -0.035246
v 0.002148 0.379567 -0.048147
v -0.079651 0.379567 0.076054
v -0.092251 0.379567 0.034653
v -0.068649 0.426777 -0.001146
v -0.038750 0.426777 -0.027447
v 0.002148 0.426777 -0.037046
v -0.045052 0.379567 0.106354
v 0.002148 0.379567 0.117453
v -0.021450 0.461347 -0.001146
v 0.002148 0.461347 -0.006746
v 0.002148 0.473997 0.034653
v -0.038750 0.461347 0.013954
v -0.038750 0.426777 0.096754
v 0.002148 0.426777 0.106354
v -0.068649 0.426777 0.070553
v -0.045052 0.461347 0.034653
v -0.079651 0.426777 0.034653
v -0.038750 0.461347 0.055353
v -0.021450 0.461347 0.070553
v 0.002148 0.461347 0.076054
v 0.051949 0.329737 -0.039948
v 0.003250 0.244717 -0.031046
v 0.084049 0.322627 -0.006546
v 0.055149 0.241507 -0.022446
v 0.002647 0.109977 -0.026146
v 0.087749 0.319877 0.036253
v 0.078148 0.239067 0.002153
v 0.078548 0.238227 0.068653
v 0.081650 0.237907 0.035454
v 0.053947 0.109247 -0.018446
v 0.076550 0.108677 0.003853
v 0.052650 -0.021403 -0.019747
v 0.000149 -0.021273 -0.027546
v -0.001053 -0.105533 -0.032347
v 0.052849 -0.106363 -0.023746
v 0.075550 -0.106423 0.000654
v 0.075649 -0.021523 0.002453
v 0.078751 -0.106353 0.031553
v 0.079048 -0.021623 0.032454
v 0.075348 -0.106323 0.062054
v 0.079948 0.108287 0.033854
v 0.075848 -0.021733 0.062553
v 0.076847 0.108077 0.063953
v 0.054150 0.108237 0.086554
v 0.052750 -0.021763 0.085554
v -0.000050 -0.021643 0.095053
v 0.052151 -0.106283 0.085453
v -0.001152 -0.106203 0.095354
vn -0.0157 -0.0472 0.9988
vn -0.0078 -0.1182 0.9930
vn 0.4623 -0.0470 0.8855
vn 0.4573 0.1577 0.8752
vn 0.0001 0.1580 0.9874
vn 0.4669 -0.1029 0.8783
vn 0.0158 -0.0236 0.9996
vn 0.8834 -0.0552 0.4653
vn 0.4091 0.4485 0.7946
vn 0.0001 0.4409 0.8976
vn 0.8555 0.1256 0.5023
vn 0.7395 0.4720 0.4799
vn 0.2518 0.8264 0.5037
vn 0.0001 0.8222 0.5692
vn 0.4549 0.8392 0.2981
vn 0.0001 1.0000 -0.0000
vn 0.5364 0.8440 -0.0000
vn 0.8765 0.4815 -0.0000
vn 0.9955 0.0948 -0.0000
vn 0.4549 0.8392 -0.2981
vn 0.7396 0.4720 -0.4799
vn 0.2519 0.8264 -0.5037
vn -0.0000 0.8222 -0.5692
vn 0.0001 0.4409 -0.8975
vn 0.4091 0.4485 -0.7947
vn 0.0001 0.1580 -0.9874
vn 0.4646 0.1417 -0.8741
vn -0.0157 -0.0550 -0.9984
vn 0.8571 0.1101 -0.5033
vn -0.0000 0.7885 -0.6150
vn -0.5056 0.8296 -0.2370
vn -0.7021 0.5522 -0.4496
vn -0.0000 0.9697 -0.2444
vn -0.5438 0.2128 -0.8118
vn -0.0079 0.2758 -0.9612
vn -0.3868 0.8605 -0.3316
vn -0.0000 0.9224 -0.3863
vn -0.6461 0.5436 -0.5358
vn -0.0079 0.6285 -0.7778
vn -0.0158 0.1104 -0.9938
vn -0.9006 0.3871 -0.1975
vn -0.7428 0.0869 -0.6638
vn -0.9834 0.0157 -0.1809
vn -0.6950 -0.4501 -0.5607
vn -0.0158 -0.5028 -0.8642
vn -0.0079 -0.9353 -0.3537
vn -0.9622 0.2524 -0.1025
vn -0.9996 -0.0159 -0.0236
vn -0.4476 -0.8559 -0.2591
vn -0.0079 -0.9999 0.0079
vn -0.9138 -0.3860 -0.1260
vn -0.5026 -0.8639 -0.0314
vn -0.0079 -0.9995 0.0315
vn -0.9195 -0.3930 -0.0000
vn -0.4968 -0.8675 0.0237
vn -0.0157 -0.9979 -0.0629
vn -0.9223 -0.3862 -0.0158
vn -0.4964 -0.8668 -0.0473
vn -0.0158 -0.9929 -0.1182
vn -0.9992 -0.0393 -0.0078
vn -0.9942 0.0868 -0.0631
vn -0.9981 -0.0393 0.0472
vn -0.9289 -0.3700 0.0158
vn -0.5201 -0.8511 -0.0709
vn -0.9075 -0.0395 0.4182
vn -0.8721 -0.3299 0.3614
vn -0.5339 -0.8165 0.2198
vn -0.0079 -0.9939 0.1104
vn -0.3314 -0.6390 0.6942
vn 0.0158 -0.6951 0.7188
vn 0.0394 -0.1579 0.9867
vn -0.4635 -0.2278 0.8563
vn 0.0393 -0.0157 0.9991
vn -0.4471 -0.0235 0.8942
vn 0.0393 -0.0079 0.9992
vn -0.4345 -0.0079 0.9006
vn -0.4315 -0.0000 0.9021
vn 0.0314 -0.0000 0.9995
vn -0.4314 0.0078 0.9021
vn -0.8975 0.0079 0.4409
vn -0.9007 -0.0000 0.4345
vn -0.9998 0.0158 0.0079
vn -0.9021 -0.0078 0.4314
vn -0.9997 0.0079 0.0236
vn -0.9356 0.0708 -0.3459
vn -0.9992 0.0078 0.0394
vn -0.9706 0.1263 -0.2052
vn 0.7021 0.5522 -0.4496
vn 0.5124 0.8278 -0.2286
vn 0.5348 0.2124 -0.8179
vn -0.0078 0.2758 -0.9612
vn 0.9706 0.1263 -0.2052
vn 0.9325 0.0632 -0.3556
vn 0.3868 0.8605 -0.3316
vn 0.6360 0.5496 -0.5418
vn -0.0078 0.6285 -0.7778
vn 0.9021 0.3844 -0.1961
vn 0.7238 0.0865 -0.6845
vn 0.6756 -0.4635 -0.5734
vn -0.0157 -0.5028 -0.8642
vn 0.9819 0.0157 -0.1885
vn -0.0078 -0.9353 -0.3537
vn 0.4319 -0.8639 -0.2592
vn -0.0078 -0.9999 0.0079
vn 0.9059 -0.4018 -0.1339
vn 0.9994 -0.0236 -0.0236
vn 0.9622 0.2524 -0.1025
vn 0.4781 -0.8778 -0.0314
vn 0.4627 -0.8864 0.0157
vn -0.0078 -0.9995 0.0315
vn 0.9082 -0.4185 -0.0079
vn 0.9992 -0.0393 -0.0079
vn 0.9081 -0.4185 -0.0158
vn 0.4561 -0.8887 -0.0472
vn 0.9942 0.0868 -0.0631
vn 0.9978 -0.0471 0.0471
vn 0.9992 0.0079 0.0393
vn 0.9997 0.0079 0.0236
vn 1.0000 -0.0000 0.0079
vn 0.9153 -0.4025 0.0158
vn 0.9188 -0.0393 0.3927
vn 0.9124 -0.0157 0.4090
vn 0.9051 -0.0157 0.4250
vn 0.9021 -0.0078 0.4314
vn 0.4804 -0.8742 -0.0709
vn -0.0157 -0.9929 -0.1182
vn 0.8770 -0.3398 0.3397
vn 0.5200 -0.8273 0.2127
vn -0.0078 -0.9939 0.1104
vn 0.3541 -0.6453 0.6768
vn 0.0395 -0.1579 0.9867
vn 0.5124 -0.2286 0.8277
vn 0.0394 -0.0157 0.9991
vn 0.5027 -0.0314 0.8639
vn 0.4876 -0.0157 0.8729
vn 0.0394 -0.0079 0.9992
vn 0.4782 -0.0156 0.8781
vn 0.4661 -0.0079 0.8847
vn 0.0315 -0.0000 0.9995
vn -0.4722 -0.0079 0.8815
vn -0.4640 -0.0944 0.8808
vn -0.0158 -0.0472 0.9988
vn -0.0079 -0.1182 0.9930
vn -0.4408 -0.0157 0.8975
vn 0.0157 -0.0236 0.9996
vn 0.0236 -0.0000 0.9997
vn -0.8953 -0.0707 0.4398
vn -0.4314 0.0079 0.9021
vn -0.9021 -0.0000 0.4315
vn -0.8975 0.0158 0.4408
vn -0.9998 0.0158 0.0078
vn -0.8696 -0.0157 0.4935
vn -0.9997 0.0236 -0.0079
vn -0.9047 0.0315 -0.4248
vn -0.9998 0.0079 -0.0157
vn -0.8975 0.0079 -0.4409
vn -0.4626 0.0314 -0.8860
vn -0.5438 0.2127 -0.8118
vn -0.0079 0.2757 -0.9612
vn -0.0079 0.0315 -0.9995
vn -0.4566 -0.0000 -0.8897
vn -0.0000 -0.0079 -1.0000
vn -0.0158 -0.1182 -0.9929
vn -0.4727 -0.1103 -0.8743
vn -0.0158 -0.0550 -0.9984
vn -0.8942 -0.0863 -0.4392
vn -0.9980 -0.0629 -0.0078
vn -0.9992 -0.0393 0.0079
vn -0.8761 -0.0237 -0.4815
vn -0.4876 -0.0157 -0.8729
vn -0.8462 0.1802 -0.5014
vn -0.4642 0.1888 -0.8654
vn -0.0000 0.1580 -0.9874
vn -0.8371 0.1659 0.5212
vn -0.9888 0.1491 -0.0000
vn -0.7423 0.4738 -0.4738
vn -0.4077 0.4547 -0.7918
vn -0.0000 0.4409 -0.8976
vn -0.4499 0.1736 0.8761
vn -0.0001 0.1580 0.9874
vn -0.2518 0.8264 -0.5037
vn -0.0000 1.0000 -0.0000
vn -0.4549 0.8392 -0.2981
vn -0.4091 0.4485 0.7946
vn -0.0000 0.4409 0.8975
vn -0.7395 0.4720 0.4799
vn -0.5364 0.8440 -0.0000
vn -0.8764 0.4816 -0.0000
vn -0.4549 0.8392 0.2982
vn -0.2519 0.8264 0.5037
vn -0.0000 0.8222 0.5692
vn 0.4591 -0.0554 -0.8866
vn -0.0157 -0.1182 -0.9929
vn 0.8879 -0.0629 -0.4557
vn 0.4734 -0.0947 -0.8758
vn 0.9975 -0.0707 -0.0000
vn 0.9064 -0.0630 -0.4177
vn 0.9059 -0.0709 0.4175
vn 0.9989 -0.0471 -0.0078
vn 0.4566 -0.0158 -0.8895
vn 0.9021 -0.0078 -0.4314
vn 0.4502 0.0237 -0.8926
vn -0.0078 0.0315 -0.9995
vn 0.5348 0.2123 -0.8179
vn 0.9006 0.0079 -0.4345
vn 1.0000 -0.0079 -0.0000
vn 0.9999 -0.0079 -0.0079
vn 0.9021 -0.0079 0.4314
vn 0.9049 -0.0236 0.4249
vn 0.4658 -0.0316 0.8843
vn 0.4627 -0.0079 0.8865
vt 0.245310 0.111060
vt 0.224617 0.111049
vt 0.241394 0.100607
vt 0.250128 0.099055
vt 0.253777 0.107660
vt 0.223988 0.099680
vt 0.196190 0.110029
vt 0.239404 0.093311
vt 0.257402 0.096051
vt 0.262171 0.101961
vt 0.248270 0.092037
vt 0.254990 0.090824
vt 0.263443 0.091950
vt 0.267045 0.094336
vt 0.261409 0.089068
vt 0.268880 0.086105
vt 0.260775 0.086032
vt 0.254232 0.085973
vt 0.247884 0.085898
vt 0.261463 0.083009
vt 0.255086 0.081146
vt 0.263547 0.080160
vt 0.267197 0.077833
vt 0.262438 0.070096
vt 0.257572 0.075959
vt 0.254058 0.064249
vt 0.250351 0.072878
vt 0.245759 0.060765
vt 0.248475 0.079846
vt 0.947406 0.661124
vt 0.948808 0.679843
vt 0.934955 0.668104
vt 0.956927 0.672665
vt 0.931539 0.654858
vt 0.942634 0.650735
vt 0.957169 0.686996
vt 0.964966 0.684931
vt 0.957565 0.692634
vt 0.967783 0.695025
vt 0.966514 0.702958
vt 0.946898 0.686155
vt 0.956876 0.698287
vt 0.945499 0.692228
vt 0.953817 0.703029
vt 0.962106 0.709492
vt 0.953243 0.713572
vt 0.933236 0.678074
vt 0.931300 0.685258
vt 0.949915 0.706240
vt 0.938319 0.713392
vt 0.942860 0.697752
vt 0.940128 0.703233
vt 0.922223 0.708503
vt 0.928749 0.691537
vt 0.926051 0.697851
vt 0.911397 0.704253
vt 0.918447 0.687561
vt 0.915832 0.693895
vt 0.904224 0.700751
vt 0.920658 0.681090
vt 0.922422 0.673816
vt 0.913718 0.679073
vt 0.911857 0.685500
vt 0.909290 0.691425
vt 0.907818 0.677885
vt 0.906599 0.684296
vt 0.904302 0.689493
vt 0.898524 0.696876
vt 0.900970 0.688693
vt 0.895179 0.693030
vt 0.892550 0.687130
vt 0.901582 0.684417
vt 0.891165 0.678614
vt 0.901793 0.677605
vt 0.891060 0.670214
vt 0.902176 0.670278
vt 0.891516 0.661615
vt 0.902829 0.662329
vt 0.892394 0.650735
vt 0.903830 0.651740
vt 0.910680 0.652463
vt 0.909523 0.663034
vt 0.917408 0.653287
vt 0.908652 0.670905
vt 0.916138 0.663994
vt 0.924280 0.654215
vt 0.915040 0.672020
vt 0.923524 0.665331
vt 0.507460 0.029995
vt 0.493845 0.042006
vt 0.495069 0.022819
vt 0.485697 0.034699
vt 0.510978 0.016422
vt 0.499811 0.012327
vt 0.518593 0.027294
vt 0.518089 0.015800
vt 0.485709 0.049225
vt 0.477890 0.047222
vt 0.485395 0.054975
vt 0.475291 0.057417
vt 0.476770 0.065343
vt 0.495570 0.048748
vt 0.486188 0.060666
vt 0.489357 0.065258
vt 0.481326 0.071821
vt 0.496880 0.055030
vt 0.490287 0.075816
vt 0.493362 0.068361
vt 0.505400 0.075487
vt 0.499768 0.060191
vt 0.510344 0.048585
vt 0.508654 0.040973
vt 0.502895 0.065286
vt 0.516610 0.060013
vt 0.521214 0.070172
vt 0.513187 0.054392
vt 0.520715 0.044406
vt 0.523300 0.050423
vt 0.526623 0.056020
vt 0.531866 0.065732
vt 0.519173 0.036647
vt 0.527826 0.042096
vt 0.526594 0.034626
vt 0.525803 0.025900
vt 0.524678 0.014867
vt 0.529993 0.048151
vt 0.533975 0.040590
vt 0.533116 0.033251
vt 0.532313 0.024841
vt 0.531172 0.014028
vt 0.533090 0.053461
vt 0.538901 0.062169
vt 0.535422 0.046702
vt 0.538083 0.051431
vt 0.544481 0.058198
vt 0.541533 0.050510
vt 0.547765 0.054278
vt 0.550131 0.048295
vt 0.540729 0.046453
vt 0.551191 0.039726
vt 0.540322 0.039769
vt 0.539873 0.032277
vt 0.550954 0.031454
vt 0.539167 0.023981
vt 0.550386 0.023012
vt 0.538121 0.013290
vt 0.549463 0.012327
vt 0.341966 0.073360
vt 0.361489 0.072555
vt 0.341598 0.083677
vt 0.362017 0.083751
vt 0.389824 0.071946
vt 0.389984 0.082964
vt 0.416943 0.082951
vt 0.361403 0.065616
vt 0.417148 0.071975
vt 0.434350 0.083175
vt 0.434620 0.072146
vt 0.389785 0.065269
vt 0.417235 0.065321
vt 0.434744 0.065460
vt 0.434802 0.058900
vt 0.342910 0.065708
vt 0.417255 0.058836
vt 0.417270 0.052303
vt 0.434862 0.052212
vt 0.389757 0.058821
vt 0.389730 0.052318
vt 0.417194 0.045496
vt 0.434813 0.045166
vt 0.434225 0.033930
vt 0.416876 0.034494
vt 0.389714 0.045525
vt 0.389776 0.034599
vt 0.361723 0.033930
vt 0.361234 0.044998
vt 0.341339 0.033983
vt 0.361266 0.052076
vt 0.361413 0.058876
vt 0.343307 0.059002
vt 0.342802 0.051638
vt 0.341943 0.044978
vt 0.337831 0.052459
vt 0.336194 0.046031
vt 0.332388 0.036066
vt 0.337830 0.065056
vt 0.338262 0.058757
vt 0.330908 0.053744
vt 0.328403 0.048308
vt 0.323412 0.042049
vt 0.335957 0.072233
vt 0.332389 0.081412
vt 0.322094 0.052601
vt 0.318295 0.050111
vt 0.316438 0.058773
vt 0.324235 0.055605
vt 0.328413 0.069215
vt 0.323438 0.075462
vt 0.330909 0.063781
vt 0.324919 0.058765
vt 0.331726 0.058761
vt 0.324239 0.061927
vt 0.322104 0.064932
vt 0.318314 0.067427
vt 0.241776 0.071017
vt 0.224917 0.061064
vt 0.239539 0.078950
vt 0.224229 0.072260
vt 0.196390 0.061831
vt 0.238712 0.086179
vt 0.223622 0.079191
vt 0.223493 0.092748
vt 0.223343 0.085994
vt 0.196406 0.072725
vt 0.196346 0.079406
vt 0.168819 0.072559
vt 0.168914 0.061393
vt 0.151250 0.060765
vt 0.150938 0.072208
vt 0.151004 0.079172
vt 0.168851 0.079300
vt 0.151097 0.085661
vt 0.168889 0.085670
vt 0.151157 0.092084
vt 0.196302 0.085800
vt 0.168911 0.092052
vt 0.196290 0.092179
vt 0.196288 0.098926
vt 0.168902 0.098890
vt 0.168852 0.110145
vt 0.151174 0.098982
vt 0.151152 0.110315
s 1
usemtl Leg1Mtl
f 1/1/1 2/2/2 3/3/3
f 4/4/4 1/1/1 3/3/3
f 1/1/1 4/4/4 5/5/5
f 3/3/3 2/2/2 6/6/6
f 2/2/2 7/7/7 6/6/6
f 3/3/3 6/6/6 8/8/8
f 9/9/9 5/5/5 4/4/4
f 5/5/5 9/9/9 10/10/10
f 3/3/3 11/11/11 4/4/4
f 11/11/11 3/3/3 8/8/8
f 4/4/4 12/12/12 9/9/9
f 12/12/12 4/4/4 11/11/11
f 13/13/13 10/10/10 9/9/9
f 10/10/10 13/13/13 14/14/14
f 15/15/15 9/9/9 12/12/12
f 9/9/9 15/15/15 13/13/13
f 13/13/13 16/16/16 14/14/14
f 15/15/15 16/16/16 13/13/13
f 17/17/17 16/16/16 15/15/15
f 18/18/18 15/15/15 12/12/12
f 15/15/15 18/18/18 17/17/17
f 12/12/12 19/19/19 18/18/18
f 19/19/19 12/12/12 11/11/11
f 18/18/18 20/20/20 17/17/17
f 20/20/20 16/16/16 17/17/17
f 20/20/20 18/18/18 21/21/21
f 19/19/19 21/21/21 18/18/18
f 22/22/22 16/16/16 20/20/20
f 23/23/23 16/16/16 22/22/22
f 22/22/22 24/24/24 23/23/23
f 25/25/25 22/22/22 20/20/20
f 24/24/24 22/22/22 25/25/25
f 21/21/21 25/25/25 20/20/20
f 25/25/25 26/26/26 24/24/24
f 26/26/26 25/25/25 27/27/27
f 21/21/21 27/27/27 25/25/25
f 27/27/27 28/28/28 26/26/26
f 27/27/27 21/21/21 29/29/29
f 21/21/21 19/19/19 29/29/29
f 30/30/30 31/31/31 32/32/32
f 31/31/31 30/30/30 33/33/33
f 34/34/34 30/30/30 32/32/32
f 35/35/35 30/30/30 34/34/34
f 33/33/33 36/36/36 31/31/31
f 36/36/36 33/33/33 37/37/37
f 37/37/37 38/38/38 36/36/36
f 38/38/38 37/37/37 39/39/39
f 40/40/40 38/38/38 39/39/39
f 41/41/41 36/36/36 38/38/38
f 36/36/36 41/41/41 31/31/31
f 38/38/38 40/40/40 42/42/42
f 38/38/38 43/43/43 41/41/41
f 43/43/43 38/38/38 42/42/42
f 40/40/40 44/44/44 42/42/42
f 44/44/44 43/43/43 42/42/42
f 44/44/44 40/40/40 45/45/45
f 44/44/44 45/45/45 46/46/46
f 47/47/47 31/31/31 41/41/41
f 31/31/31 47/47/47 32/32/32
f 48/48/48 41/41/41 43/43/43
f 41/41/41 48/48/48 47/47/47
f 44/44/44 46/46/46 49/49/49
f 46/46/46 50/50/50 49/49/49
f 43/43/43 44/44/44 51/51/51
f 49/49/49 51/51/51 44/44/44
f 49/49/49 50/50/50 52/52/52
f 51/51/51 49/49/49 52/52/52
f 53/53/53 52/52/52 50/50/50
f 51/51/51 54/54/54 43/43/43
f 52/52/52 54/54/54 51/51/51
f 48/48/48 43/43/43 54/54/54
f 52/52/52 53/53/53 55/55/55
f 54/54/54 52/52/52 55/55/55
f 53/53/53 56/56/56 55/55/55
f 57/57/57 48/48/48 54/54/54
f 55/55/55 57/57/57 54/54/54
f 55/55/55 56/56/56 58/58/58
f 57/57/57 55/55/55 58/58/58
f 56/56/56 59/59/59 58/58/58
f 48/48/48 57/57/57 60/60/60
f 60/60/60 47/47/47 48/48/48
f 47/47/47 60/60/60 61/61/61
f 61/61/61 32/32/32 47/47/47
f 57/57/57 62/62/62 60/60/60
f 62/62/62 61/61/61 60/60/60
f 57/57/57 58/58/58 63/63/63
f 62/62/62 57/57/57 63/63/63
f 63/63/63 58/58/58 64/64/64
f 58/58/58 59/59/59 64/64/64
f 62/62/62 63/63/63 65/65/65
f 63/63/63 64/64/64 66/66/66
f 65/65/65 63/63/63 66/66/66
f 59/59/59 67/67/67 64/64/64
f 66/66/66 64/64/64 67/67/67
f 67/67/67 59/59/59 68/68/68
f 68/68/68 69/69/69 67/67/67
f 69/69/69 66/66/66 67/67/67
f 69/69/69 68/68/68 70/70/70
f 71/71/71 69/69/69 70/70/70
f 71/71/71 72/72/72 69/69/69
f 66/66/66 69/69/69 72/72/72
f 73/73/73 72/72/72 71/71/71
f 74/74/74 66/66/66 72/72/72
f 74/74/74 72/72/72 73/73/73
f 65/65/65 66/66/66 74/74/74
f 75/75/75 74/74/74 73/73/73
f 76/76/76 74/74/74 75/75/75
f 76/76/76 65/65/65 74/74/74
f 77/77/75 76/76/76 75/75/75
f 78/78/77 76/76/76 77/77/75
f 79/79/78 78/78/77 77/77/75
f 80/80/79 78/78/77 79/79/78
f 81/81/80 78/78/77 80/80/79
f 78/78/77 81/81/80 82/82/81
f 83/83/82 82/82/81 81/81/80
f 78/78/77 84/84/83 76/76/76
f 78/78/77 82/82/81 84/84/83
f 76/76/76 84/84/83 65/65/65
f 82/82/81 83/83/82 85/85/84
f 85/85/84 84/84/83 82/82/81
f 86/86/85 85/85/84 83/83/82
f 87/87/86 65/65/65 84/84/83
f 84/84/83 85/85/84 87/87/86
f 65/65/65 87/87/86 62/62/62
f 61/61/61 62/62/62 87/87/86
f 88/88/87 87/87/86 85/85/84
f 87/87/86 88/88/87 61/61/61
f 85/85/84 86/86/85 88/88/87
f 32/32/32 61/61/61 88/88/87
f 34/34/34 88/88/87 86/86/85
f 88/88/87 34/34/34 32/32/32
f 89/89/88 90/90/89 91/91/30
f 91/91/30 90/90/89 92/92/33
f 91/91/30 93/93/90 89/89/88
f 93/93/90 91/91/30 94/94/91
f 95/95/92 89/89/88 93/93/90
f 96/96/93 95/95/92 93/93/90
f 97/97/94 92/92/33 90/90/89
f 92/92/33 97/97/94 98/98/37
f 98/98/37 97/97/94 99/99/95
f 100/100/96 98/98/37 99/99/95
f 99/99/95 101/101/40 100/100/96
f 97/97/94 102/102/97 99/99/95
f 102/102/97 97/97/94 90/90/89
f 101/101/40 99/99/95 103/103/98
f 101/101/40 103/103/98 104/104/99
f 101/101/40 104/104/99 105/105/100
f 99/99/95 106/106/101 103/103/98
f 106/106/101 99/99/95 102/102/97
f 106/106/101 104/104/99 103/103/98
f 104/104/99 107/107/102 105/105/100
f 107/107/102 104/104/99 108/108/103
f 108/108/103 109/109/104 107/107/102
f 104/104/99 106/106/101 110/110/105
f 110/110/105 108/108/103 104/104/99
f 102/102/97 111/111/106 106/106/101
f 111/111/106 110/110/105 106/106/101
f 90/90/89 112/112/107 102/102/97
f 111/111/106 102/102/97 112/112/107
f 112/112/107 90/90/89 89/89/88
f 109/109/104 108/108/103 113/113/108
f 108/108/103 110/110/105 113/113/108
f 113/113/108 114/114/109 109/109/104
f 109/109/104 114/114/109 115/115/110
f 116/116/111 113/113/108 110/110/105
f 110/110/105 111/111/106 116/116/111
f 113/113/108 116/116/111 114/114/109
f 117/117/112 116/116/111 111/111/106
f 117/117/112 111/111/106 112/112/107
f 116/116/111 118/118/113 114/114/109
f 116/116/111 117/117/112 118/118/113
f 114/114/109 119/119/114 115/115/110
f 114/114/109 118/118/113 119/119/114
f 115/115/110 119/119/114 120/120/56
f 112/112/107 121/121/115 117/117/112
f 121/121/115 112/112/107 89/89/88
f 89/89/88 95/95/92 121/121/115
f 121/121/115 122/122/116 117/117/112
f 122/122/116 118/118/113 117/117/112
f 123/123/117 121/121/115 95/95/92
f 121/121/115 123/123/117 122/122/116
f 95/95/92 124/124/118 123/123/117
f 96/96/93 124/124/118 95/95/92
f 125/125/119 124/124/118 96/96/93
f 118/118/113 122/122/116 126/126/120
f 126/126/120 119/119/114 118/118/113
f 123/123/117 127/127/121 122/122/116
f 127/127/121 126/126/120 122/122/116
f 124/124/118 128/128/122 123/123/117
f 123/123/117 128/128/122 127/127/121
f 125/125/119 129/129/123 124/124/118
f 124/124/118 129/129/123 128/128/122
f 130/130/124 129/129/123 125/125/119
f 119/119/114 126/126/120 131/131/125
f 119/119/114 131/131/125 120/120/56
f 120/120/56 131/131/125 132/132/126
f 133/133/127 131/131/125 126/126/120
f 126/126/120 127/127/121 133/133/127
f 131/131/125 134/134/128 132/132/126
f 131/131/125 133/133/127 134/134/128
f 132/132/126 134/134/128 135/135/129
f 135/135/129 134/134/128 136/136/130
f 133/133/127 136/136/130 134/134/128
f 135/135/129 136/136/130 137/137/70
f 136/136/130 138/138/131 137/137/70
f 136/136/130 133/133/127 139/139/132
f 138/138/131 136/136/130 139/139/132
f 127/127/121 139/139/132 133/133/127
f 139/139/132 140/140/133 138/138/131
f 139/139/132 127/127/121 141/141/134
f 140/140/133 139/139/132 141/141/134
f 128/128/122 141/141/134 127/127/121
f 142/142/135 140/140/133 141/141/134
f 128/128/122 142/142/135 141/141/134
f 143/143/136 140/140/133 142/142/135
f 129/129/123 142/142/135 128/128/122
f 144/144/137 143/143/136 142/142/135
f 144/144/137 142/142/135 129/129/123
f 130/130/124 144/144/137 129/129/123
f 145/145/136 143/143/136 144/144/137
f 146/146/138 144/144/137 130/130/124
f 146/146/138 145/145/136 144/144/137
f 147/147/139 145/145/136 146/146/138
f 148/148/140 149/149/141 150/150/142
f 150/150/142 149/149/141 151/151/143
f 149/149/141 152/152/144 151/151/143
f 151/151/143 152/152/144 153/153/145
f 152/152/144 154/154/146 153/153/145
f 155/155/147 152/152/144 149/149/141
f 148/148/140 155/155/147 149/149/141
f 154/154/146 152/152/144 156/156/79
f 156/156/79 157/157/139 154/154/146
f 157/157/139 156/156/79 158/158/148
f 159/159/149 156/156/79 152/152/144
f 152/152/144 155/155/147 159/159/149
f 160/160/150 158/158/148 156/156/79
f 156/156/79 159/159/149 160/160/150
f 158/158/148 160/160/150 161/161/80
f 160/160/150 162/162/151 161/161/80
f 163/163/152 155/155/147 148/148/140
f 164/164/153 162/162/151 160/160/150
f 159/159/149 164/164/153 160/160/150
f 165/165/154 162/162/151 164/164/153
f 162/162/151 165/165/154 166/166/85
f 167/167/155 164/164/153 159/159/149
f 164/164/153 168/168/156 165/165/154
f 168/168/156 164/164/153 167/167/155
f 169/169/157 166/166/85 165/165/154
f 168/168/156 169/169/157 165/165/154
f 166/166/85 169/169/157 170/170/158
f 169/169/157 171/171/159 170/170/158
f 172/172/160 171/171/159 169/169/157
f 173/173/161 172/172/160 169/169/157
f 173/173/161 169/169/157 168/168/156
f 174/174/162 172/172/160 173/173/161
f 173/173/161 175/175/163 174/174/162
f 175/175/163 173/173/161 176/176/164
f 176/176/164 177/177/165 175/175/163
f 178/178/166 173/173/161 168/168/156
f 176/176/164 173/173/161 178/178/166
f 179/179/167 168/168/156 167/167/155
f 178/178/166 168/168/156 179/179/167
f 159/159/149 179/179/167 167/167/155
f 179/179/167 159/159/149 155/155/147
f 155/155/147 180/180/168 179/179/167
f 180/180/168 178/178/166 179/179/167
f 180/180/168 155/155/147 163/163/152
f 176/176/164 178/178/166 181/181/169
f 181/181/169 178/178/166 180/180/168
f 182/182/170 176/176/164 181/181/169
f 177/177/165 176/176/164 182/182/170
f 180/180/168 183/183/171 181/181/169
f 183/183/171 182/182/170 181/181/169
f 184/184/172 177/177/165 182/182/170
f 183/183/171 184/184/172 182/182/170
f 184/184/172 185/185/173 177/177/165
f 186/186/174 180/180/168 163/163/152
f 148/148/140 186/186/174 163/163/152
f 183/183/171 180/180/168 187/187/175
f 186/186/174 187/187/175 180/180/168
f 188/188/176 184/184/172 183/183/171
f 187/187/175 188/188/176 183/183/171
f 189/189/177 185/185/173 184/184/172
f 184/184/172 188/188/176 189/189/177
f 185/185/173 189/189/177 190/190/178
f 186/186/174 148/148/140 191/191/179
f 150/150/142 191/191/179 148/148/140
f 191/191/179 150/150/142 192/192/180
f 193/193/181 190/190/178 189/189/177
f 190/190/178 193/193/181 194/194/23
f 193/193/181 195/195/182 194/194/23
f 189/189/177 196/196/183 193/193/181
f 196/196/183 189/189/177 188/188/176
f 196/196/183 195/195/182 193/193/181
f 192/192/180 197/197/184 191/191/179
f 197/197/184 192/192/180 198/198/185
f 191/191/179 199/199/186 186/186/174
f 199/199/186 191/191/179 197/197/184
f 199/199/186 187/187/175 186/186/174
f 200/200/187 195/195/182 196/196/183
f 187/187/175 199/199/186 201/201/188
f 188/188/176 187/187/175 201/201/188
f 201/201/188 196/196/183 188/188/176
f 196/196/183 201/201/188 200/200/187
f 202/202/189 201/201/188 199/199/186
f 201/201/188 202/202/189 200/200/187
f 202/202/189 195/195/182 200/200/187
f 197/197/184 202/202/189 199/199/186
f 203/203/190 195/195/182 202/202/189
f 202/202/189 197/197/184 203/203/190
f 198/198/185 203/203/190 197/197/184
f 204/204/191 195/195/182 203/203/190
f 203/203/190 198/198/185 204/204/191
f 28/28/28 27/27/27 205/205/192
f 29/29/29 205/205/192 27/27/27
f 205/205/192 206/206/193 28/28/28
f 19/19/19 207/207/194 29/29/29
f 205/205/192 29/29/29 207/207/194
f 206/206/193 205/205/192 208/208/195
f 207/207/194 208/208/195 205/205/192
f 208/208/195 209/209/162 206/206/193
f 207/207/194 19/19/19 210/210/196
f 11/11/11 210/210/196 19/19/19
f 210/210/196 11/11/11 8/8/8
f 210/210/196 211/211/197 207/207/194
f 208/208/195 207/207/194 211/211/197
f 8/8/8 212/212/198 210/210/196
f 8/8/8 6/6/6 212/212/198
f 211/211/197 210/210/196 213/213/199
f 210/210/196 212/212/198 213/213/199
f 211/211/197 214/214/200 208/208/195
f 209/209/162 208/208/195 214/214/200
f 214/214/200 211/211/197 215/215/201
f 213/213/199 215/215/201 211/211/197
f 214/214/200 216/216/202 209/209/162
f 215/215/201 216/216/202 214/214/200
f 209/209/162 216/216/202 217/217/203
f 216/216/202 218/218/159 217/217/203
f 218/218/159 216/216/202 219/219/204
f 216/216/202 220/220/93 219/219/204
f 221/221/205 220/220/93 216/216/202
f 216/216/202 215/215/201 221/221/205
f 221/221/205 222/222/119 220/220/93
f 223/223/206 222/222/119 221/221/205
f 215/215/201 223/223/206 221/221/205
f 223/223/206 224/224/124 222/222/119
f 225/225/207 223/223/206 215/215/201
f 215/215/201 213/213/199 225/225/207
f 226/226/208 224/224/124 223/223/206
f 225/225/207 226/226/208 223/223/206
f 213/213/199 227/227/209 225/225/207
f 227/227/209 226/226/208 225/225/207
f 212/212/198 227/227/209 213/213/199
f 212/212/198 228/228/210 227/227/209
f 228/228/210 226/226/208 227/227/209
f 6/6/6 228/228/210 212/212/198
f 6/6/6 7/7/7 228/228/210
f 226/226/208 228/228/210 229/229/211
f 7/7/7 229/229/211 228/228/210
f 229/229/211 224/224/124 226/226/208
f 229/229/211 7/7/7 230/230/146
f 224/224/124 229/229/211 231/231/138
f 230/230/146 231/231/138 229/229/211
f 231/231/138 230/230/146 232/232/139
