# Blender 5.1.2
# www.blender.org
mtllib CannonBall.mtl
o CannonBall
v -0.154597 -0.535550 0.267719
v 0.154603 -0.535550 0.267719
v 0.267773 -0.309200 0.463820
v 0.000003 -0.618400 0.000019
v 0.309203 -0.535550 0.000019
v -0.309197 -0.535550 0.000019
v 0.535553 -0.309200 0.000019
v -0.535557 -0.309200 0.000019
v 0.618403 0.000000 0.000019
v -0.267777 -0.309200 0.463820
v -0.618407 0.000000 0.000019
v -0.309197 0.000000 0.535519
v 0.309203 0.000000 0.535519
v -0.267777 0.309200 0.463819
v -0.535557 0.309200 0.000019
v 0.267773 0.309200 0.463819
v 0.535553 0.309200 0.000019
v 0.309203 0.535550 0.000019
v 0.154603 0.535550 0.267719
v 0.000003 0.618400 0.000019
v -0.154597 0.535550 0.267719
v -0.309197 0.535550 0.000019
v 0.154603 -0.535550 -0.267780
v 0.535553 -0.309200 0.000019
v 0.309203 -0.535550 0.000019
v 0.000003 -0.618400 0.000019
v -0.154597 -0.535550 -0.267780
v -0.309197 -0.535550 0.000019
v -0.267777 -0.309200 -0.463781
v -0.535557 -0.309200 0.000019
v -0.618407 0.000000 0.000019
v 0.267773 -0.309200 -0.463781
v 0.618403 0.000000 0.000019
v -0.309197 -0.000000 -0.535580
v 0.309203 -0.000000 -0.535580
v 0.267773 0.309200 -0.463781
v 0.535553 0.309200 0.000019
v -0.267777 0.309200 -0.463781
v -0.535557 0.309200 0.000019
v -0.309197 0.535550 0.000019
v 0.154603 0.535550 -0.267780
v 0.309203 0.535550 0.000019
v -0.154597 0.535550 -0.267780
v 0.000003 0.618400 0.000019
vn -0.3228 -0.7637 0.5590
vn 0.3227 -0.7638 0.5590
vn 0.4483 -0.4247 0.7865
vn -0.0000 -1.0000 0.0001
vn 0.6456 -0.7637 0.0001
vn -0.6456 -0.7637 0.0001
vn 0.9052 -0.4251 -0.0000
vn -0.9052 -0.4250 -0.0000
vn 1.0000 -0.0000 -0.0000
vn -0.4483 -0.4247 0.7865
vn -1.0000 -0.0000 -0.0000
vn -0.4970 -0.0000 0.8678
vn 0.4970 -0.0000 0.8677
vn -0.4483 0.4247 0.7865
vn -0.9052 0.4250 -0.0000
vn 0.4483 0.4247 0.7865
vn 0.9052 0.4250 -0.0000
vn 0.6456 0.7637 0.0001
vn 0.3227 0.7638 0.5590
vn -0.0000 1.0000 0.0001
vn -0.3228 0.7637 0.5590
vn -0.6456 0.7637 0.0001
vn 0.3228 -0.7638 -0.5590
vn 0.9052 -0.4250 -0.0000
vn 0.6456 -0.7637 -0.0001
vn -0.0000 -1.0000 -0.0000
vn -0.3228 -0.7638 -0.5590
vn -0.6456 -0.7637 -0.0001
vn -0.4483 -0.4247 -0.7865
vn 0.4483 -0.4247 -0.7865
vn -0.4970 -0.0000 -0.8678
vn 0.5029 -0.0000 -0.8643
vn 0.4483 0.4247 -0.7865
vn 0.9052 0.4251 -0.0000
vn -0.4483 0.4247 -0.7865
vn -0.6456 0.7637 -0.0001
vn 0.3228 0.7638 -0.5590
vn 0.6456 0.7637 -0.0001
vn -0.3228 0.7638 -0.5590
vn -0.0000 1.0000 -0.0000
vt 0.618209 0.090513
vt 0.381791 0.090513
vt 0.295256 0.263582
vt 0.500000 0.027165
vt 0.263582 0.090513
vt 0.736418 0.090513
vt 0.090513 0.263582
vt 0.909487 0.263582
vt 0.027165 0.500000
vt 0.704744 0.263582
vt 0.972835 0.500000
vt 0.736418 0.500000
vt 0.263582 0.500000
vt 0.704744 0.736418
vt 0.909487 0.736418
vt 0.295256 0.736418
vt 0.090513 0.736418
vt 0.263582 0.909487
vt 0.381791 0.909487
vt 0.500000 0.972835
vt 0.618209 0.909487
vt 0.736418 0.909487
s 1
usemtl Cannonball1Mtl
f 1/1/1 2/2/2 3/3/3
f 2/2/2 1/1/1 4/4/4
f 5/5/5 2/2/2 4/4/4
f 5/5/5 3/3/3 2/2/2
f 1/1/1 6/6/6 4/4/4
f 3/3/3 5/5/5 7/7/7
f 1/1/1 8/8/8 6/6/6
f 9/9/9 3/3/3 7/7/7
f 8/8/8 1/1/1 10/10/10
f 1/1/1 3/3/3 10/10/10
f 10/10/10 11/11/11 8/8/8
f 11/11/11 10/10/10 12/12/12
f 10/10/10 3/3/3 13/13/13
f 3/3/3 9/9/9 13/13/13
f 10/10/10 13/13/13 12/12/12
f 11/11/11 12/12/12 14/14/14
f 13/13/13 14/14/14 12/12/12
f 15/15/15 11/11/11 14/14/14
f 9/9/9 16/16/16 13/13/13
f 14/14/14 13/13/13 16/16/16
f 16/16/16 9/9/9 17/17/17
f 16/16/16 17/17/17 18/18/18
f 16/16/16 18/18/18 19/19/19
f 19/19/19 18/18/18 20/20/20
f 16/16/16 21/21/21 14/14/14
f 21/21/21 16/16/16 19/19/19
f 21/21/21 15/15/15 14/14/14
f 21/21/21 19/19/19 20/20/20
f 15/15/15 21/21/21 22/22/22
f 22/22/22 21/21/21 20/20/20
f 23/2/23 24/7/24 25/5/25
f 23/2/23 25/5/25 26/4/26
f 27/1/27 23/2/23 26/4/26
f 28/6/28 27/1/27 26/4/26
f 28/6/28 29/10/29 27/1/27
f 29/10/29 23/2/23 27/1/27
f 29/10/29 28/6/28 30/8/8
f 29/10/29 30/8/8 31/11/11
f 24/7/24 23/2/23 32/3/30
f 29/10/29 32/3/30 23/2/23
f 32/3/30 33/9/9 24/7/24
f 34/12/31 29/10/29 31/11/11
f 34/12/31 32/3/30 29/10/29
f 33/9/9 32/3/30 35/13/32
f 34/12/31 35/13/32 32/3/30
f 36/16/33 33/9/9 35/13/32
f 34/12/31 36/16/33 35/13/32
f 33/9/9 36/16/33 37/17/34
f 31/11/11 38/14/35 34/12/31
f 36/16/33 34/12/31 38/14/35
f 38/14/35 31/11/11 39/15/15
f 38/14/35 39/15/15 40/22/36
f 37/17/34 36/16/33 41/19/37
f 38/14/35 41/19/37 36/16/33
f 37/17/34 41/19/37 42/18/38
f 38/14/35 40/22/36 43/21/39
f 41/19/37 38/14/35 43/21/39
f 43/21/39 40/22/36 44/20/40
f 42/18/38 41/19/37 44/20/40
f 41/19/37 43/21/39 44/20/40
