# Blender 5.1.2
# www.blender.org
mtllib ConnectorBall.mtl
o ConnectorBall
v 0.132156 0.193019 0.118381
v 0.132156 0.193019 0.118381
v 0.116957 0.193017 0.118381
v 0.132156 0.193019 0.118381
v 0.132156 0.193019 0.118381
v 0.116957 0.193017 0.118381
v 0.465456 0.193021 0.118381
v 0.268456 0.193017 0.118381
v 0.465456 0.193021 0.118381
v 0.132156 0.193019 0.118381
v 0.465456 0.193019 0.118381
v 0.465456 0.193019 0.118381
v 0.465456 0.193019 0.118381
v 0.465456 0.193019 0.118381
v 0.132156 0.193020 0.451681
v 0.132156 0.193019 0.118381
v 0.132156 0.526349 0.118381
v 0.132156 0.193020 0.451681
v 0.132156 0.193020 0.451681
v 0.132156 0.193019 0.118381
v 0.132156 0.193020 0.451681
v 0.132156 -0.140315 0.451681
v 0.132156 0.193020 0.451681
v 0.132156 0.193020 0.451681
v 0.132156 -0.140315 0.451681
v 0.132156 0.193020 0.451681
v -0.201244 0.193020 0.451681
v 0.132156 0.193019 0.118381
v 0.116957 0.193017 0.118381
v 0.132156 0.526349 0.118381
v -0.201244 0.193021 0.451681
v -0.201244 0.193020 0.451681
v -0.201244 0.193020 0.451681
v -0.201244 0.193021 0.451681
v -0.201244 -0.140315 0.451681
v -0.201244 0.193020 0.451681
v -0.201244 0.193020 0.451681
v -0.201244 0.193020 0.451681
v -0.034544 0.193020 0.451681
v -0.201244 0.193020 0.451681
v 0.132156 0.193020 0.451681
v -0.034544 0.526349 0.118381
v -0.201244 0.193019 0.118381
v -0.201244 0.193017 0.444080
v -0.201244 0.193019 0.118381
v -0.201244 0.193017 0.444080
v -0.201244 0.193019 0.118381
v -0.201244 0.193019 0.118381
v 0.465456 0.193019 -0.215019
v 0.132156 0.193019 -0.215019
v 0.132156 0.526349 -0.215019
v 0.132156 0.193019 -0.215019
v 0.465456 0.193019 -0.215019
v 0.132156 0.193019 -0.215019
v 0.465456 0.193019 -0.215019
v 0.465456 0.193019 -0.215019
v 0.465456 -0.140315 -0.215019
v 0.465456 0.193019 -0.215019
v 0.132156 0.193019 -0.215019
v 0.132156 0.193019 0.118381
v 0.132156 0.526349 0.118381
v 0.465456 0.193019 0.118381
v 0.465456 0.193019 0.118381
v 0.465456 -0.140315 0.118382
v -0.201244 0.193019 0.118381
v -0.201244 0.193019 -0.215019
v -0.201244 0.193019 0.118381
v -0.201244 0.193019 -0.215019
v -0.201244 0.193019 -0.215019
v -0.201244 0.193019 0.118381
v -0.201244 0.193019 -0.215019
v -0.201244 0.193019 -0.215019
v -0.201244 -0.140313 -0.215019
v 0.132156 0.193017 -0.048319
v 0.132156 0.193019 -0.215019
v 0.132156 0.193019 -0.215019
v 0.132156 0.193017 -0.048319
v 0.132156 0.193019 -0.548319
v 0.132156 0.526349 -0.215019
v 0.132156 0.193019 -0.548319
v 0.132156 0.193019 -0.215019
v 0.132156 0.193019 -0.215019
v 0.132156 0.526349 -0.215019
v -0.201244 0.193019 -0.548319
v -0.201244 -0.140315 -0.548319
v -0.201244 0.193019 -0.548319
v -0.201244 0.193019 -0.548319
v -0.201244 0.193019 -0.548319
v -0.201244 0.193019 -0.215019
v -0.201244 0.526349 -0.215019
v -0.201244 0.193019 -0.215019
v -0.201244 0.193019 -0.548319
v 0.132156 0.193019 -0.548319
v -0.201244 -0.140315 -0.548319
v 0.132156 0.193019 -0.548319
v 0.132156 0.193019 -0.548319
v -0.201244 0.193019 -0.548319
v 0.132156 0.526349 -0.215019
v 0.132156 0.193019 -0.548319
v 0.132156 0.193019 -0.351318
v -0.201244 0.193019 0.118381
v -0.201244 0.193019 0.118381
v -0.201244 0.193019 0.118381
v -0.201244 0.193019 0.118381
v -0.201244 0.193017 0.444080
v -0.201244 0.526349 0.118381
v -0.534544 0.193019 0.118381
v -0.534544 0.193019 0.118381
v -0.534544 -0.140315 0.118382
v -0.534544 0.193019 0.118381
v -0.534544 0.193019 0.118381
v -0.534544 0.193019 -0.215019
v -0.534544 0.193019 -0.215019
v -0.534544 0.193019 0.118381
v -0.201244 0.526349 0.118381
v -0.534544 0.193019 -0.215019
v -0.534544 0.193019 0.118381
v -0.534544 0.193019 -0.215019
v -0.534544 -0.140313 -0.215019
v -0.534544 0.193019 -0.215019
v -0.534544 0.193017 -0.215019
v 0.465456 0.193019 0.118381
v 0.465456 0.193019 -0.215019
v 0.132156 0.526349 0.118381
v -0.201244 0.193019 0.118381
v -0.201244 0.193019 0.118381
v -0.534544 0.193019 0.118381
v -0.534544 0.193019 0.118381
v -0.534544 0.193019 0.118381
v -0.201244 0.193019 0.118381
v -0.201244 0.526349 0.118381
v -0.034544 0.193020 0.451681
v 0.132156 0.193017 0.451681
v 0.132156 0.193017 0.451681
v -0.034544 0.193020 0.451681
v 0.132156 0.193017 0.451681
v -0.201244 0.193017 0.451681
v -0.201244 0.193017 0.451681
v -0.201244 0.193020 0.451681
v -0.201244 0.193017 0.451681
v -0.201244 0.193017 0.451681
v 0.132156 -0.140315 -0.215019
v 0.132156 -0.140313 -0.215019
v -0.201244 -0.140313 -0.215019
v 0.132156 -0.140313 -0.215019
v 0.132156 -0.140315 -0.215019
v 0.465456 -0.140315 -0.215019
v 0.132156 -0.140315 -0.215019
v 0.132156 -0.140315 -0.215019
v 0.132156 -0.140315 -0.250319
v 0.132156 -0.140315 -0.215019
v -0.534544 -0.140317 0.118382
v -0.534544 -0.140317 -0.215019
v -0.201244 -0.473649 0.118382
v -0.534544 -0.140317 -0.215019
v -0.534544 -0.140317 0.118382
v -0.201244 -0.140317 0.118382
v -0.534544 -0.140315 0.118382
v -0.201244 -0.140315 0.118382
v -0.201244 -0.140317 0.451681
v -0.201244 -0.140315 0.118382
v -0.534544 -0.140315 0.118382
v -0.534544 0.193017 0.118381
v -0.201244 0.193019 0.118381
v -0.201244 -0.140313 0.118382
v -0.201244 -0.140315 0.118382
v -0.201244 -0.140313 0.118382
v -0.201244 -0.140315 0.451681
v -0.201244 -0.140315 0.118382
v -0.201244 -0.140315 0.118382
v 0.132156 -0.140317 -0.048319
v 0.132156 -0.140315 0.118382
v 0.465456 -0.140315 0.118382
v 0.132156 -0.140317 0.118382
v 0.132156 -0.140315 0.118382
v 0.465456 -0.140315 0.118382
v 0.132156 -0.140315 0.118382
v 0.268456 -0.140315 0.118382
v 0.465456 -0.140317 0.118382
v 0.465456 -0.140315 0.118382
v 0.465456 -0.140313 0.118382
v 0.465456 -0.140317 0.118382
v 0.465456 -0.140313 0.118382
v -0.201244 -0.140315 -0.215019
v -0.201244 0.193019 -0.548319
v -0.201244 -0.140313 -0.215019
v -0.201244 -0.140315 -0.548319
v -0.201244 -0.140313 -0.215019
v -0.201244 -0.140313 0.118382
v -0.201244 -0.140315 -0.215019
v -0.201244 -0.140313 -0.215019
v -0.534544 -0.140313 -0.215019
v 0.132156 0.193019 0.118381
v 0.132156 -0.140315 0.118382
v 0.132156 -0.140315 0.451681
v 0.132156 -0.140315 0.118382
v 0.132156 0.193019 0.118381
v 0.268456 0.193017 0.118381
v 0.132156 -0.140317 -0.048319
v 0.132156 -0.140313 -0.215019
v 0.132156 -0.140313 0.118382
v 0.132156 -0.140317 -0.215019
v -0.201244 -0.140313 0.118382
v 0.132156 -0.140313 0.118382
v -0.201244 -0.140313 0.118382
v -0.201244 -0.140313 0.118382
v 0.132156 -0.140315 0.451681
v -0.201244 -0.140313 -0.215019
v -0.534544 -0.140315 0.118382
v -0.201244 0.193017 -0.215019
v 0.132156 -0.140315 -0.250319
v 0.132156 -0.140313 -0.215019
v 0.268456 0.193017 0.118381
v 0.132156 0.193019 0.118381
v 0.132156 0.193020 0.451681
v 0.268456 -0.140315 0.118382
v 0.132156 -0.140313 0.118382
v 0.465456 -0.140313 0.118382
v 0.268456 -0.140315 0.118382
v 0.465456 -0.140315 -0.215019
v 0.465456 -0.140313 0.118382
v 0.465456 -0.140313 0.118382
v 0.132156 -0.140313 -0.215019
v 0.132156 0.193017 -0.215019
v 0.465456 -0.140315 0.118382
v 0.465456 -0.140315 -0.215019
v 0.132156 -0.140313 -0.215019
v 0.465456 0.193019 0.118381
v 0.465456 -0.140313 0.118382
v 0.465456 -0.140315 0.118382
v 0.132156 0.193020 0.451681
v 0.465456 -0.140313 0.118382
v 0.465456 0.193019 0.118381
v -0.534544 -0.140313 -0.215019
v -0.534544 -0.140315 -0.215019
v -0.534544 -0.140313 -0.215019
v -0.534544 -0.140315 -0.215019
v -0.201244 -0.140313 0.118382
v -0.534544 -0.140315 0.118382
v -0.534544 -0.140315 -0.215019
v -0.201244 0.193019 -0.548319
v -0.201244 -0.140315 -0.548319
v -0.534544 0.193017 -0.215019
v -0.534544 -0.140313 -0.215019
v -0.534544 -0.140315 -0.215019
v -0.534544 -0.140315 -0.215019
v -0.534544 0.193017 -0.215019
v -0.201244 0.193017 -0.215019
v -0.201244 0.193019 -0.548319
v -0.201244 -0.140315 -0.215019
v -0.201244 -0.140315 -0.548319
v 0.465456 -0.140317 -0.215019
v 0.465456 -0.140313 0.118382
v 0.465456 -0.140315 0.118382
v 0.465456 -0.140317 -0.215019
v 0.465456 -0.140315 0.118382
v 0.465456 -0.140315 0.118382
v 0.465456 -0.140315 0.118382
v 0.465456 -0.140315 0.118382
v 0.465456 -0.140315 0.118382
v 0.465456 -0.140315 0.118382
v 0.465456 -0.140315 0.118382
v 0.465456 -0.140315 0.118382
v 0.465456 -0.140315 0.118382
v 0.465456 -0.140315 0.118382
v 0.465456 -0.140315 0.118382
v 0.465456 -0.140315 0.118382
v 0.465456 -0.140315 0.118382
v -0.201244 -0.140317 0.451681
v -0.201244 -0.140315 0.451681
v -0.201244 -0.140313 0.451681
v -0.201244 -0.140315 0.451681
v -0.201244 -0.140315 0.451681
v -0.534544 -0.140315 0.118382
v -0.534544 0.193017 0.118381
v 0.132156 -0.140317 0.118382
v 0.132156 -0.140317 -0.048319
v 0.132156 -0.473649 -0.048319
v 0.465456 -0.140317 0.118382
v 0.465456 -0.140317 0.118382
v 0.465456 -0.140317 0.118382
v 0.465456 -0.140317 0.118382
v 0.465456 -0.140315 0.118382
v 0.132156 -0.140317 0.118382
v 0.132156 -0.140315 0.451681
v 0.132156 -0.140317 0.118382
v 0.132156 -0.140315 0.118382
v 0.132156 -0.140317 0.118382
v 0.132156 -0.140317 0.118382
v 0.132156 -0.140315 0.451681
v 0.465456 -0.140315 0.118382
v 0.465456 -0.140315 0.118382
v 0.465456 -0.140315 0.118382
v -0.201244 -0.140315 0.451681
v -0.201244 -0.140315 0.451681
v 0.132156 0.193020 0.451681
v 0.132156 0.193017 0.451681
v -0.201244 -0.140313 0.451681
v -0.201244 0.193017 0.451681
v -0.201244 0.193020 0.451681
v -0.201244 -0.140313 0.451681
v -0.201244 0.193020 0.451681
v -0.201244 -0.140315 0.451681
v -0.201244 -0.140317 -0.215019
v -0.201244 -0.473649 -0.215019
v -0.534544 -0.140317 -0.215019
v -0.201244 -0.473649 -0.215019
v -0.201244 -0.140317 -0.215019
v -0.201244 -0.473649 0.118382
v -0.201244 -0.473649 -0.215019
v 0.132156 -0.140319 -0.215019
v -0.201244 -0.140319 -0.215019
v 0.132156 -0.473651 -0.215019
v 0.132156 -0.140319 -0.548319
v 0.132156 -0.413624 -0.215019
v 0.132156 -0.140319 -0.548319
v 0.132156 -0.473651 -0.215019
v -0.201244 -0.473651 -0.215019
v 0.132156 -0.284848 -0.215019
v 0.132156 -0.421200 -0.215019
v 0.132156 -0.140319 -0.215019
v 0.132156 -0.284848 -0.215019
v -0.201244 -0.140319 -0.548319
v -0.201244 -0.473649 -0.215019
v -0.201244 -0.140319 -0.215019
v -0.201244 -0.473651 -0.215019
v 0.132156 -0.421200 -0.215019
v 0.132156 -0.473651 0.118382
v 0.132156 -0.473651 0.118382
v 0.132156 -0.473649 -0.215019
v 0.132156 -0.473651 -0.215019
v 0.132156 -0.473649 -0.215019
v 0.132156 -0.421200 -0.215019
v 0.132156 -0.473651 -0.215019
v 0.132156 -0.473649 -0.215019
v 0.132156 -0.473651 -0.215019
v 0.132156 -0.473649 -0.048319
v 0.132156 -0.473651 0.118382
v 0.132156 -0.473649 -0.048319
v -0.201244 -0.140319 -0.215019
v 0.132156 -0.140319 -0.215019
v -0.201244 -0.140319 -0.548319
v -0.201244 -0.473649 0.118382
v -0.201244 -0.277270 0.118382
v -0.201244 -0.277270 0.118382
v -0.201244 -0.473649 0.118382
v -0.201244 -0.140319 0.451681
v -0.201244 -0.473651 0.118382
v -0.201244 -0.473649 0.118382
v -0.201244 -0.277270 0.118382
v -0.201244 -0.140319 0.118382
v 0.132156 -0.140319 0.118382
v -0.201244 -0.140319 0.118382
v -0.201244 -0.140319 0.451681
v -0.201244 -0.473651 0.118382
v 0.132156 -0.473651 0.118382
v -0.201244 -0.473649 0.118382
v -0.201244 -0.473649 0.118382
v -0.201244 -0.473649 -0.215019
v -0.201244 -0.473651 0.118382
v -0.201244 -0.473649 0.118382
v 0.132156 -0.473651 0.118382
v -0.201244 -0.473651 -0.215019
v -0.201244 -0.473651 0.118382
v -0.201244 -0.473651 0.118382
v -0.201244 -0.473649 -0.215019
v 0.132156 -0.277270 0.118382
v -0.201244 -0.140313 -0.215019
v -0.201244 -0.473651 -0.215019
v -0.201244 -0.473649 -0.215019
v -0.201244 -0.473651 -0.215019
v 0.132156 -0.277270 0.118382
v 0.132156 -0.140319 0.118382
v 0.132156 -0.140319 0.451681
v 0.132156 -0.277270 0.118382
v 0.132156 -0.473649 0.118382
v 0.132156 -0.473649 -0.048319
v 0.132156 -0.473649 0.118382
v 0.132156 -0.473651 0.118382
v 0.132156 -0.473649 0.118382
v 0.132156 -0.473649 0.118382
v 0.132156 -0.413624 -0.215019
v 0.132156 -0.473651 -0.215019
v 0.132156 -0.413624 -0.215019
v 0.072056 -0.473649 -0.215019
v 0.132156 -0.473649 -0.215019
v 0.132156 -0.473651 -0.215019
v 0.072056 -0.473649 -0.215019
v 0.132156 -0.473651 -0.215019
v 0.072056 -0.473649 -0.215019
v -0.201244 -0.473651 -0.215019
v -0.201244 -0.473649 -0.215019
v -0.201244 -0.473649 -0.215019
v 0.132156 -0.473649 -0.124119
v 0.132156 -0.473651 0.118382
v 0.132156 -0.473649 0.118382
v 0.132156 -0.473649 0.118382
v 0.132156 -0.473651 0.118382
v 0.132156 -0.473649 -0.199820
v 0.132156 -0.473649 -0.124119
v 0.132156 -0.473649 -0.124119
v 0.132156 -0.473649 -0.199820
v 0.132156 -0.473649 -0.215019
v 0.132156 -0.473651 -0.215019
v 0.132156 -0.421200 -0.215019
v 0.132156 -0.473649 -0.215019
v 0.132156 -0.473651 -0.215019
v 0.132156 -0.473649 -0.215019
v 0.465456 -0.140317 -0.215019
v 0.132156 -0.473649 -0.124119
v 0.132156 -0.473651 -0.215019
v 0.132156 -0.473649 -0.215019
v 0.465456 -0.140315 0.118382
v -0.201244 -0.140319 0.118382
v -0.201244 -0.140319 0.451681
v 0.132156 -0.140319 0.118382
v 0.132156 -0.140319 0.451681
v 0.132156 -0.140319 0.451681
v -0.534544 -0.140317 0.118382
v -0.201244 -0.473649 0.118382
v -0.201244 -0.140317 0.118382
v 0.465456 -0.140315 -0.215019
v 0.132156 -0.140315 -0.215019
v 0.132156 -0.140315 -0.351318
v 0.132156 -0.140315 -0.548319
v 0.465456 -0.140315 -0.215019
v 0.132156 -0.140315 -0.548319
v 0.132156 0.193019 -0.548319
v 0.132156 -0.140315 -0.548319
v 0.132156 -0.140315 -0.351318
v 0.132156 0.193019 -0.351318
v -0.201244 -0.140319 -0.548319
v 0.132156 -0.140319 -0.548319
v -0.201244 0.193017 -0.215019
v -0.201244 -0.140315 -0.548319
v 0.132156 -0.140315 -0.548319
v 0.132156 -0.140315 -0.351318
v 0.132156 -0.140315 -0.548319
v 0.132156 -0.140315 -0.548319
v 0.465456 0.193017 -0.215019
v 0.465456 0.193019 -0.215019
v 0.132156 0.193019 -0.548319
v 0.132156 0.193019 -0.351318
v 0.465456 0.193017 -0.215019
v 0.132156 0.193019 -0.548319
v 0.132156 0.193017 -0.215019
v -0.201244 0.193020 0.451681
v -0.201244 0.193020 0.451681
v -0.201244 0.193020 0.451681
v -0.201244 0.193020 0.444080
v -0.201244 0.193020 0.451681
v -0.201244 0.193020 0.451681
v -0.201244 0.526349 0.118381
v -0.201244 0.193020 0.451681
v -0.201244 0.193020 0.451681
v -0.534544 0.193017 0.118381
v -0.201244 0.193020 0.451681
v -0.201244 0.193020 0.444080
v -0.201244 0.193020 0.444080
v -0.201244 0.193020 0.451681
v -0.201244 0.193019 0.118381
v -0.201244 0.526349 0.118381
v -0.201244 0.193019 0.118381
v -0.201244 0.526349 0.118381
v 0.132156 0.526349 0.118381
v 0.116957 0.526349 0.118381
v 0.132156 0.526349 0.118381
v 0.116957 0.526349 0.118381
v 0.132156 0.526349 0.118381
v 0.132156 0.526349 0.118381
v 0.132156 0.526349 0.118381
v 0.132156 0.526349 0.118381
v 0.116957 0.526349 0.118381
v 0.116957 0.526349 0.118381
v 0.132156 0.526349 -0.048319
v -0.034544 0.526349 0.118381
v -0.034544 0.526349 0.118381
v -0.034544 0.526349 0.118381
v -0.201244 0.526349 0.118381
v -0.201244 0.526349 -0.215019
v -0.201244 0.193019 -0.215019
v -0.534544 0.193019 -0.215019
v -0.201244 0.193019 -0.215019
v -0.201244 0.526349 -0.215019
v -0.201244 0.526349 -0.215019
v -0.201244 0.526349 0.118381
v -0.534544 0.193019 0.118381
v 0.132156 0.526349 -0.215019
v 0.132156 0.193019 -0.215019
v 0.132156 0.193017 -0.048319
v 0.132156 0.526349 0.118381
v 0.132156 0.526349 0.118381
v 0.132156 0.526349 -0.048319
v 0.132156 0.526349 0.118381
v 0.132156 0.526349 0.118381
v 0.132156 0.526349 0.118381
v 0.465456 0.193019 0.118381
v 0.132156 0.193019 0.118381
v -0.201244 0.526349 -0.215019
v -0.201244 0.193019 -0.215019
v -0.201244 0.526349 -0.215019
v -0.201244 0.526349 -0.215019
v -0.201244 0.526349 -0.215019
v -0.201244 0.526349 -0.215019
v -0.201244 0.526349 -0.215019
v 0.132156 0.526349 -0.215019
v -0.201244 0.526349 0.118381
v -0.201244 0.526349 -0.215019
v -0.201244 0.526349 0.118381
v 0.132156 0.526349 -0.215019
v 0.132156 0.526349 -0.048319
v 0.132156 0.526349 -0.215019
v 0.132156 0.526349 -0.215019
v 0.132156 0.526349 -0.215019
v 0.132156 0.526349 -0.215019
v -0.201244 0.526349 0.118381
v -0.201244 0.526349 0.118381
v -0.201244 0.526349 0.118381
v -0.201244 0.526349 0.118381
v -0.201244 0.526349 0.118381
v -0.201244 0.193019 0.118381
v 0.465456 0.193017 -0.215019
v 0.132156 0.193017 -0.215019
v -0.201244 -0.140317 -0.215019
v -0.201244 -0.140317 0.118382
v 0.132156 -0.140317 -0.215019
v 0.132156 -0.140317 -0.215019
vn -0.0000 -0.0000 1.0000
vn -0.0000 1.0000 -0.0000
vn -0.0000 -0.0000 -1.0000
vn -0.0001 1.0000 -0.0000
vn 1.0000 -0.0000 -0.0000
vn -0.0000 -0.0000 -0.0000
vn -1.0000 -0.0000 -0.0000
vn -0.0000 0.7071 0.7071
vn -0.0000 0.7071 -0.7071
vn -0.7071 0.7071 -0.0000
vn 0.7071 0.7071 -0.0000
vn -0.0000 -1.0000 -0.0000
vn -0.0001 0.7071 0.7071
vn -0.0003 -1.0000 -0.0000
vn -0.7071 -0.7071 -0.0000
vn 0.7071 -0.0000 0.7071
vn 0.0001 -1.0000 -0.0000
vn -0.7071 -0.0000 -0.7071
vn 0.7071 -0.7071 -0.0000
vn -0.0000 1.0000 -0.0001
vn 0.7072 -0.7071 -0.0000
vn -0.7071 -0.0000 0.7071
vn -0.0000 -1.0000 -0.0001
vn 0.7072 -0.7070 -0.0000
vn -0.0000 -1.0000 0.0001
vn -0.0000 -0.7071 -0.7071
vn -0.0000 -0.7071 0.7071
vn -0.0001 -0.0000 1.0000
vn 0.7070 -0.7072 -0.0000
vn 1.0000 -0.0000 0.0001
vn 0.7071 -0.0000 -0.7071
vn -0.7072 -0.0000 0.7071
vn -0.7071 -0.0001 0.7071
vn -1.0000 -0.0001 -0.0000
vn -1.0000 0.0001 -0.0000
vn -0.7072 0.7070 -0.0000
vt -3.914100 -434.007996
vt -3.917130 -434.007996
vt 3.152570 -4.007910
vt 3.119240 -4.041250
vt 3.185910 -4.074580
vt 3.119240 -434.104004
vt 3.119240 -434.131012
vt 3.119240 -434.140991
vt -3.847430 -434.007996
vt -3.886830 -434.007996
vt 3.119240 -4.007910
vt 3.052570 -4.007910
vt 3.052570 -434.007996
vt 3.119240 -434.007996
vt 3.119240 -433.941010
vt 3.119240 -3.941250
vt 3.052570 -434.075012
vt -3.914100 -434.075012
vt 3.185910 -3.941250
vt 3.122270 -434.007996
vt -3.847430 -434.075012
vt -3.980760 -434.007996
vt -3.947430 -434.007996
vt -3.947430 -433.941010
vt 3.185910 -4.007910
vt 3.185910 -3.942760
vt -3.848950 -434.007996
vt 3.119240 -4.074580
vt 3.052570 -4.074580
vt 3.185910 -434.007996
vt 3.185910 -434.075012
vt 3.119240 -434.075012
vt 3.152570 -434.007996
vt 3.252570 -434.007996
vt 3.185910 -433.941010
vt 3.119240 -4.141240
vt -4.047430 -434.007996
vt -4.047430 -434.075012
vt 3.185910 -4.141250
vt 3.185910 -4.141240
vt -3.980760 -433.941010
vt 3.119240 -4.141250
vt 3.213180 -434.007996
vt -3.914100 -433.941010
vt 3.252570 -4.007910
vt 3.252570 -4.074580
vt -3.980760 -434.075012
vt -3.980760 -4.007910
vt -4.047430 -4.007910
vt -3.914100 -434.101990
vt -3.914100 -4.074580
vt -3.980760 -4.074580
vt -3.987830 -434.075012
vt -3.914100 -434.140991
vt -3.980760 -3.941250
vt 3.252570 -434.075012
vt 3.091970 -434.075012
vt 3.091970 -434.007996
vt 3.152570 -434.075012
vt -3.914100 -4.007910
vt -3.914100 -3.941250
vt -3.914100 -4.081650
vt 3.091970 -4.007910
vt -3.886830 -434.075012
vt -3.847430 -4.007910
vt -3.886830 -4.007910
vt -3.847430 -4.074580
vt -4.047430 -4.074580
vt -3.980760 -4.141250
vt -3.947430 -434.075012
vt -3.947430 -434.140991
vt 3.185910 -434.140991
vt -3.980760 -434.140991
vt 3.185910 -434.128998
vt 3.185910 -434.104004
vt 3.185910 -434.131012
vt -3.980760 -434.131012
vt -3.914100 -4.041250
vt -3.980760 -434.101990
vt 3.185910 -434.101990
vt 3.119240 -434.101990
vt 3.119240 -434.128998
vt -3.914100 -434.128998
vt -3.926100 -434.140991
vt -3.926100 -4.074580
vt 3.131240 -434.140991
vt 3.152570 -434.140991
vt 3.182880 -434.140991
vt 3.167720 -434.140991
vt -3.914100 -4.056400
vt -3.914100 -4.071550
vt -3.914100 -4.101850
vt -3.914100 -4.141250
vt -4.008040 -434.075012
vt -4.008040 -434.007996
vt 3.213180 -434.075012
vt 3.119240 -4.101850
vt -3.917130 -433.941010
vt 3.122270 -4.007910
vt 3.122270 -433.941010
vt 3.152570 -433.941010
s 0
usemtl Handle1Mtl.011
f 1/1/1 2/1/1 3/2/1
s 1
f 476/3/2 475/4/2 505/5/2
s 0
f 319/6/3 320/7/3 331/8/3
s 1
f 7/9/1 2/1/1 8/10/1
s 0
f 4/11/2 9/12/2 10/11/3
f 11/9/1 7/9/1 12/9/1
f 9/12/4 13/12/3 14/12/2
s 1
f 15/13/5 16/14/5 17/15/5
s 0
f 5/11/6 18/16/6 19/16/6
s 1
f 20/14/5 21/13/5 22/17/5
s 0
f 19/16/6 4/11/6 5/11/6
f 23/1/1 24/1/1 25/18/1
f 26/16/3 19/16/2 27/19/2
s 1
f 28/14/3 29/20/3 30/15/3
s 0
f 31/19/4 27/19/3 32/19/2
f 33/9/7 34/9/7 35/21/7
f 34/9/7 36/9/3 37/9/7
f 32/19/3 27/19/2 18/16/2
f 18/16/2 27/19/2 19/16/3
f 24/1/1 38/22/1 39/23/1
s 1
f 40/22/8 41/1/8 42/24/8
s 0
f 43/25/6 44/26/6 45/25/6
f 46/27/6 47/1/6 48/1/6
s 1
f 49/13/3 50/14/3 51/15/3
s 0
f 52/28/2 53/29/2 54/28/3
f 55/30/3 56/30/5 57/31/5
f 53/29/3 58/29/2 54/28/2
f 52/28/3 54/28/3 59/28/3
f 20/14/3 60/14/5 61/15/5
f 62/14/3 63/14/5 64/32/5
f 65/25/6 66/5/6 67/25/6
f 66/5/6 65/25/6 68/5/6
f 69/22/6 70/1/6 47/1/6
f 71/30/3 72/30/3 73/31/3
f 74/33/6 75/30/6 76/30/6
f 59/28/6 77/4/6 52/28/6
s 1
f 75/30/5 78/34/5 79/35/5
s 0
f 80/36/6 59/28/6 54/28/6
f 81/14/3 82/14/3 83/15/3
s 1
f 69/22/7 84/37/7 85/38/7
s 0
f 86/39/6 68/5/6 87/40/6
s 1
f 88/37/7 89/22/7 90/41/7
s 0
f 91/5/6 87/40/6 68/5/6
s 1
f 92/30/3 93/14/3 94/31/3
s 0
f 95/42/2 86/39/3 87/40/2
s 1
f 96/14/9 97/30/9 98/15/9
s 0
f 87/40/2 80/36/3 95/42/2
f 80/36/6 54/28/6 95/42/6
f 99/34/5 76/30/5 100/43/5
f 101/22/1 102/22/1 103/22/1
f 67/25/3 43/25/3 65/25/3
s 1
f 104/1/7 105/27/7 106/44/7
s 0
f 107/37/1 108/37/1 109/38/1
f 110/45/6 111/45/6 112/46/6
s 1
f 113/22/10 114/1/10 115/44/10
s 0
f 111/45/6 116/46/6 112/46/6
s 1
f 117/1/7 118/22/7 119/47/7
s 0
f 112/46/3 116/46/2 66/5/2
s 1
f 120/34/3 71/30/3 121/34/3
f 122/12/11 123/29/11 124/11/11
f 56/30/5 62/14/5 57/31/5
s 0
f 125/48/3 126/48/12 127/49/12
s 1
f 103/22/1 107/37/1 109/38/1
s 0
f 128/49/12 125/48/12 127/49/3
s 1
f 129/37/1 130/22/1 131/41/1
f 527/32/3 409/17/3 405/7/3
f 217/18/1 238/47/1 367/50/1
f 171/4/2 173/12/2 255/29/2
s 0
f 137/22/1 138/22/8 139/22/13
s 1
f 526/28/2 171/4/2 255/29/2
f 142/51/14 143/51/12 144/52/12
f 145/18/1 146/18/1 147/21/1
s 0
f 148/47/6 149/47/6 150/53/6
f 146/18/1 151/18/1 147/21/1
s 1
f 152/18/15 153/47/15 154/54/15
f 155/46/2 156/45/2 157/25/2
f 158/49/12 159/48/12 160/55/12
f 161/31/3 162/56/3 163/34/3
s 0
f 161/31/3 164/30/3 165/31/3
s 1
f 164/30/3 161/31/3 163/34/3
f 166/32/5 167/32/5 168/17/5
s 0
f 165/31/3 169/31/3 161/31/3
f 159/48/6 170/48/6 160/55/6
s 1
f 171/4/2 172/11/2 173/12/2
f 172/11/2 171/4/2 174/11/2
s 0
f 172/11/2 174/11/2 175/11/3
f 176/17/3 177/32/3 178/57/3
f 179/32/16 180/32/16 181/32/16
f 173/12/2 182/12/2 183/12/4
s 1
f 184/31/5 185/34/5 186/31/5
f 185/34/5 184/31/5 187/56/5
f 308/31/5 525/32/5 309/8/5
f 155/46/2 157/25/2 524/5/2
f 190/47/1 191/47/1 192/38/1
f 193/1/7 194/18/7 195/21/7
s 0
f 194/18/7 193/1/7 196/18/3
s 1
f 177/32/3 197/14/3 198/58/3
f 199/59/5 200/31/5 201/32/5
f 200/31/5 199/59/5 202/31/5
s 0
f 203/48/3 189/48/12 204/60/12
f 205/18/3 206/18/7 47/1/7
s 1
f 203/48/12 204/60/12 207/61/12
s 0
f 73/31/3 208/31/3 71/30/3
f 188/52/6 144/52/6 189/48/6
s 1
f 188/52/12 189/48/12 209/49/12
s 0
f 71/30/3 208/31/3 210/30/3
s 1
f 142/51/14 144/52/12 211/62/12
s 0
f 144/52/12 143/51/3 212/51/12
s 1
f 213/63/2 214/11/2 215/16/2
f 216/64/1 8/10/1 217/18/1
f 198/58/3 178/57/3 177/32/3
f 218/65/17 219/66/12 220/67/12
f 178/57/3 221/17/3 176/17/3
s 0
f 180/32/16 222/32/1 181/32/16
s 1
f 204/60/12 212/51/12 219/66/12
s 0
f 200/31/3 223/31/5 224/30/5
f 200/31/5 224/30/5 76/30/5
s 1
f 217/18/1 8/10/1 2/1/1
f 218/65/17 220/67/12 225/65/12
f 226/17/3 227/32/3 81/14/3
f 212/51/12 220/67/12 219/66/12
s 0
f 179/32/16 181/32/16 228/14/16
f 12/9/1 229/21/1 230/21/1
s 1
f 179/32/16 228/14/16 231/13/16
s 0
f 232/65/3 218/65/12 225/65/17
s 1
f 64/32/5 57/31/5 62/14/5
f 213/63/2 215/16/2 233/12/2
f 8/10/1 12/9/1 7/9/1
f 234/68/12 188/52/12 209/49/12
f 147/21/1 523/1/1 145/18/1
f 192/38/1 237/38/1 190/47/1
f 109/38/1 238/47/1 103/22/1
f 119/47/7 239/18/7 117/1/7
f 147/21/1 522/9/1 523/1/1
f 235/47/18 241/37/18 242/38/18
f 241/37/18 235/47/18 236/47/18
f 236/47/18 243/22/18 241/37/18
s 0
f 121/34/3 244/56/3 120/34/3
f 245/56/3 120/34/3 244/56/3
f 118/22/7 246/47/7 119/47/7
s 1
f 210/30/3 121/34/3 71/30/3
f 247/46/2 248/5/2 249/39/2
f 250/52/12 240/68/12 251/69/12
f 252/67/19 253/65/19 254/65/19
f 183/12/20 255/29/2 173/12/2
s 0
f 256/17/3 176/17/3 257/17/3
f 254/65/6 258/65/6 252/67/6
f 254/65/21 253/65/19 259/65/3
s 1
f 9/12/4 14/12/2 10/11/4
s 0
f 262/65/3 259/65/21 253/65/19
f 114/1/3 487/1/10 115/44/10
f 263/65/3 264/65/3 265/65/3
f 264/65/3 263/65/3 266/65/3
f 518/41/1 101/22/1 479/41/1
f 266/65/3 263/65/3 267/65/3
f 260/32/1 268/32/1 180/32/1
f 521/22/1 516/41/1 101/22/1
f 269/47/22 270/47/22 271/47/22
s 1
f 272/55/12 160/55/23 170/48/12
s 0
f 273/17/6 166/32/6 168/17/6
s 1
f 274/38/22 269/47/22 275/37/22
f 276/18/7 277/70/7 278/71/7
s 0
f 253/65/19 279/65/24 262/65/19
f 280/12/2 183/12/4 182/12/3
f 281/21/1 282/21/1 283/21/1
s 1
f 195/21/7 194/18/7 284/18/7
f 179/32/16 231/13/16 285/17/16
s 0
f 286/18/1 287/18/1 288/18/1
s 1
f 289/60/12 267/65/12 290/61/12
s 0
f 291/21/1 286/18/1 288/18/1
f 261/32/16 179/32/16 292/32/1
s 1
f 285/17/16 292/32/16 179/32/16
s 0
f 293/65/25 290/61/12 267/65/1
f 293/65/3 267/65/3 263/65/3
f 516/41/1 479/41/1 101/22/1
f 520/44/3 507/44/7 47/1/7
s 1
f 294/55/12 203/48/12 207/61/12
s 0
f 270/47/1 295/47/22 271/47/22
s 1
f 195/21/7 296/9/7 193/1/7
f 22/17/5 201/32/5 20/14/5
f 25/18/1 297/1/1 39/23/1
s 0
f 297/1/1 25/18/1 24/1/1
s 1
f 294/55/12 207/61/12 298/55/12
s 0
f 269/47/22 271/47/22 299/22/22
f 300/9/7 301/21/7 34/9/7
f 271/47/22 302/22/22 299/22/22
s 1
f 269/47/22 299/22/22 275/37/22
f 39/23/1 38/22/1 303/47/1
f 207/61/12 272/55/12 298/55/12
f 303/47/1 25/18/1 39/23/1
s 0
f 35/21/7 34/9/7 301/21/7
s 1
f 304/31/3 305/72/3 306/56/3
f 307/72/5 308/31/5 309/8/5
f 153/47/15 310/73/15 154/54/15
f 73/31/3 311/32/3 312/31/3
f 311/32/3 73/31/3 227/32/3
f 313/72/5 314/56/5 315/74/5
f 316/32/26 317/8/26 318/72/26
s 0
f 319/6/3 311/32/3 320/7/3
s 1
f 321/31/5 322/75/5 314/56/5
f 314/56/5 322/75/5 315/74/5
s 0
f 311/32/3 227/32/3 320/7/3
s 1
f 323/38/7 324/73/7 325/47/7
f 324/73/7 323/38/7 326/73/7
s 0
f 327/76/5 200/31/5 202/31/5
s 1
f 288/18/1 328/54/1 291/21/1
f 329/54/7 276/18/7 278/71/7
s 0
f 320/7/3 330/8/3 331/8/3
f 332/73/7 333/77/7 334/73/7
f 509/25/3 519/25/2 476/3/2
f 479/41/1 517/41/1 518/41/1
s 1
f 338/60/19 339/78/19 258/65/19
f 340/5/2 341/28/2 342/39/2
s 0
f 343/73/1 344/79/1 238/47/1
s 1
f 345/50/7 346/54/7 347/21/7
f 346/54/7 348/54/7 347/21/7
s 0
f 348/54/7 346/54/3 349/54/7
s 1
f 350/80/3 351/31/3 352/32/3
f 353/18/7 345/50/7 347/21/7
f 354/55/27 355/48/27 356/60/27
s 0
f 357/48/6 358/48/6 359/52/6
s 1
f 360/72/3 361/72/3 362/8/3
f 348/54/7 205/18/7 363/73/7
s 0
f 238/47/1 364/73/1 343/73/1
s 1
f 358/48/12 365/48/12 366/52/12
f 238/47/1 344/79/1 367/50/1
f 363/73/7 205/18/7 368/47/7
s 0
f 359/52/6 358/48/6 366/52/6
f 369/72/3 73/31/3 370/72/3
s 1
f 365/48/12 371/52/12 366/52/12
s 0
f 312/31/3 370/72/3 73/31/3
s 1
f 372/81/5 373/32/5 374/17/5
f 352/32/3 375/81/3 350/80/3
f 376/60/12 357/48/12 377/78/12
f 361/72/3 378/8/3 362/8/3
s 0
f 379/8/5 380/8/3 381/8/5
f 382/82/3 319/6/3 330/8/3
s 1
f 383/54/28 384/83/28 385/84/1
s 0
f 331/8/3 330/8/3 319/6/3
s 1
f 386/51/12 387/51/12 388/85/12
s 0
f 331/8/3 330/8/3 389/8/3
s 1
f 382/82/3 330/8/3 390/86/3
f 383/54/28 385/84/1 391/73/1
f 359/52/12 388/85/12 377/78/12
f 385/84/1 392/73/1 391/73/1
s 0
f 326/73/7 393/73/3 324/73/7
f 516/41/1 477/24/1 479/41/1
s 1
f 199/59/5 379/8/5 337/87/5
f 379/8/5 199/59/5 201/32/5
f 376/60/12 377/78/12 395/60/23
f 359/52/12 377/78/12 357/48/12
f 372/81/5 374/17/5 381/8/5
s 0
f 367/50/1 396/54/1 217/18/1
f 397/60/3 376/60/12 395/60/17
f 398/54/1 217/18/1 396/54/1
s 1
f 258/65/19 339/78/19 252/67/19
s 0
f 399/88/6 400/89/6 394/89/6
s 1
f 401/90/19 402/91/24 252/67/19
f 252/67/19 339/78/19 401/90/19
s 0
f 403/8/3 404/8/3 405/7/3
f 400/89/6 337/87/6 394/89/6
s 1
f 406/72/5 399/88/5 407/72/5
f 402/91/24 408/51/24 252/67/19
f 409/17/3 403/8/3 405/7/3
s 0
f 335/51/19 252/67/29 408/51/3
s 1
f 399/88/5 394/89/30 407/72/5
s 0
f 410/90/6 387/51/6 411/51/6
s 1
f 387/51/12 410/90/12 388/85/12
f 388/85/12 410/90/12 377/78/12
s 0
f 412/8/3 389/8/3 330/8/3
f 413/65/19 338/60/19 258/65/3
s 1
f 414/25/2 415/19/2 416/11/2
f 374/17/5 379/8/5 381/8/5
f 356/60/27 417/61/27 354/55/27
f 418/16/2 416/11/2 415/19/2
f 419/38/1 420/73/1 421/47/1
f 422/67/12 423/51/12 424/92/12
f 425/93/12 422/67/12 424/92/12
f 426/17/31 427/32/31 428/14/31
f 429/38/7 430/94/7 431/95/7
s 0
f 430/94/6 148/47/6 150/53/6
s 1
f 432/31/26 316/32/26 318/72/26
f 433/42/2 342/39/2 341/28/2
s 0
f 501/35/3 514/15/3 83/15/3
f 83/15/3 515/15/3 81/14/3
s 1
f 424/92/12 211/62/12 144/52/12
f 185/34/5 434/30/5 186/31/5
f 144/52/12 435/69/12 424/92/12
f 85/38/7 368/47/7 69/22/7
f 436/93/12 424/92/12 435/69/12
f 437/96/5 438/56/5 100/43/5
f 439/32/3 94/31/3 93/14/3
f 426/17/31 428/14/31 440/13/31
s 0
f 514/15/3 515/15/3 83/15/3
f 230/21/1 11/9/1 12/9/1
s 1
f 297/1/1 24/1/1 39/23/1
f 441/13/3 226/17/3 81/14/3
f 76/30/5 224/30/5 100/43/5
f 442/42/2 443/97/2 444/29/2
f 431/95/7 445/37/7 429/38/7
f 438/56/5 99/34/5 100/43/5
f 444/29/2 443/97/2 446/28/2
s 0
f 513/28/3 506/28/2 505/5/2
s 1
f 299/22/22 302/22/22 275/37/22
s 0
f 448/19/6 449/19/6 450/26/6
f 451/22/1 452/22/1 40/22/1
f 451/22/1 40/22/8 453/41/13
f 454/9/3 300/9/7 34/9/7
f 302/22/1 455/22/32 275/37/33
f 456/45/4 457/19/3 448/19/4
f 454/9/7 34/9/7 37/9/3
s 1
f 456/45/2 448/19/2 450/26/2
f 458/27/7 46/27/7 48/1/7
f 105/27/7 459/27/34 106/44/7
f 459/27/34 460/9/35 106/44/7
s 0
f 206/18/7 48/1/3 47/1/7
s 1
f 461/25/2 456/45/2 450/26/2
s 0
f 238/47/1 101/22/1 103/22/1
f 462/15/5 463/14/5 464/15/3
s 1
f 41/1/8 465/44/8 466/98/8
f 3/2/1 2/1/1 467/44/1
f 3/2/1 467/44/1 468/98/1
s 0
f 469/11/3 470/11/3 471/11/3
f 61/15/3 472/15/5 20/14/5
f 473/99/2 469/11/3 471/11/2
s 1
f 29/20/3 474/100/3 30/15/3
f 473/99/2 475/4/2 476/3/2
f 475/4/2 473/99/2 471/11/2
f 42/24/8 41/1/8 466/98/8
s 0
f 477/24/1 468/98/1 478/24/1
s 1
f 453/41/8 40/22/8 42/24/8
s 0
f 477/24/1 478/24/1 479/41/1
s 1
f 480/35/3 481/30/3 482/34/3
f 483/30/5 484/35/5 464/15/5
f 115/44/10 485/41/10 113/22/10
s 0
f 486/44/3 115/44/10 487/1/36
s 1
f 464/15/5 463/14/5 483/30/5
f 488/41/7 489/22/7 490/23/7
s 0
f 491/44/6 492/44/6 493/24/6
f 494/44/1 495/44/1 496/44/1
s 1
f 497/9/1 494/44/1 498/1/1
s 0
f 496/44/1 498/1/1 494/44/1
f 499/35/3 500/30/3 501/35/3
s 1
f 97/30/9 502/35/9 98/15/9
s 0
f 503/35/3 501/35/3 500/30/3
f 504/5/3 505/5/2 506/28/2
s 1
f 507/44/7 508/41/7 69/22/7
f 505/5/2 509/25/2 476/3/2
s 0
f 72/30/3 503/35/3 500/30/3
s 1
f 69/22/7 47/1/7 507/44/7
s 0
f 499/35/3 501/35/3 83/15/3
s 1
f 74/33/5 76/30/5 510/35/5
f 511/101/5 74/33/5 510/35/5
f 490/23/7 493/24/7 488/41/7
s 0
f 488/41/6 493/24/6 492/44/6
s 1
f 512/28/11 124/11/11 123/29/11
f 475/4/2 513/28/2 505/5/2
