# Blender 5.1.2
# www.blender.org
mtllib SprayPaint.mtl
o SprayPaint
v 0.082371 0.208155 -0.148880
v 0.089571 0.179025 -0.161480
v 0.142672 0.208155 -0.088577
v 0.155272 0.179025 -0.095779
v 0.179371 0.179025 -0.006077
v 0.164772 0.208155 -0.006077
v 0.142672 0.208155 0.076321
v 0.155272 0.179025 0.083622
v 0.089571 0.179025 0.149322
v 0.205671 0.144145 0.112720
v 0.258072 0.072045 -0.006077
v 0.237572 0.144145 -0.006077
v 0.223471 0.072045 0.123020
v 0.205671 0.144145 -0.124878
v 0.223471 0.072045 -0.135178
v 0.118671 0.144145 -0.211880
v 0.128971 0.072045 -0.229778
v 0.067671 0.367335 -0.045177
v 0.038971 0.208155 -0.073879
v 0.038971 0.367335 -0.073879
v 0.067671 0.208155 -0.045177
v 0.078171 0.367335 -0.006077
v 0.078171 0.208155 -0.006077
v 0.067671 0.367335 0.033020
v 0.067671 0.208155 0.033020
v 0.038971 0.367335 0.061623
v 0.038971 0.208155 0.061623
v 0.245371 0.072045 0.135620
v 0.283371 0.018185 -0.006077
v 0.283371 0.072045 -0.006077
v 0.245371 0.018185 0.135620
v 0.245371 0.018185 -0.147877
v 0.141672 0.072045 0.239422
v 0.245371 0.072045 -0.147877
v 0.141672 0.018185 0.239422
v 0.141672 0.018185 -0.251579
v 0.141672 0.072045 -0.251579
v 0.223471 -0.823415 0.123020
v 0.128971 0.018185 -0.229778
v 0.223471 0.018185 0.123020
v 0.128971 -0.823415 -0.229778
v 0.258072 -0.823415 -0.006077
v 0.223471 0.018185 -0.135178
v 0.258072 0.018185 -0.006077
v 0.223471 -0.823415 -0.135178
v 0.223471 -0.823415 -0.135178
v 0.128971 -0.957665 -0.229778
v 0.128971 -0.823415 -0.229778
v 0.223471 -0.957665 -0.135178
v 0.258072 -0.823415 -0.006077
v 0.258072 -0.957665 -0.006077
v 0.223471 -0.823415 0.123020
v 0.223471 -0.957665 0.123020
v -0.032928 0.266105 0.063320
v -0.019028 0.250265 -0.006077
v -0.032928 0.266105 -0.006077
v -0.019028 0.250265 0.067020
v -0.037928 0.287745 0.062023
v -0.037928 0.287745 -0.006077
v -0.032928 0.309385 -0.006077
v -0.032928 0.309385 0.063320
v -0.019028 0.325225 -0.006077
v -0.019028 0.325225 0.067020
v -0.039228 0.367335 -0.073879
v 0.078171 0.367335 -0.006077
v 0.038971 0.367335 -0.073879
v -0.000128 0.367335 -0.084377
v 0.067671 0.367335 -0.045177
v -0.067829 0.367335 0.033020
v -0.067829 0.367335 -0.045177
v -0.078329 0.367335 -0.006077
v 0.067671 0.367335 0.033020
v -0.000128 0.367335 0.072121
v -0.039228 0.367335 0.061623
v 0.038971 0.367335 0.061623
v 0.082371 0.208155 -0.148880
v -0.000128 0.208155 -0.170979
v -0.082529 0.208155 -0.148880
v -0.039228 0.208155 -0.073879
v -0.000128 0.208155 -0.084377
v -0.067829 0.208155 -0.045177
v 0.038971 0.208155 -0.073879
v -0.142929 0.208155 -0.088577
v -0.078329 0.208155 -0.006077
v 0.067671 0.208155 -0.045177
v 0.142672 0.208155 -0.088577
v 0.078171 0.208155 -0.006077
v 0.164772 0.208155 -0.006077
v 0.067671 0.208155 0.033020
v 0.142672 0.208155 0.076321
v 0.038971 0.208155 0.061623
v 0.082371 0.208155 0.136723
v -0.000128 0.208155 0.072121
v -0.000128 0.208155 0.158722
v -0.082529 0.208155 0.136723
v -0.039228 0.208155 0.061623
v -0.142929 0.208155 0.076321
v -0.067829 0.208155 0.033020
v -0.164928 0.208155 -0.006077
v 0.205671 0.144145 0.112720
v 0.237572 0.144145 -0.006077
v 0.205671 0.144145 -0.124878
v 0.155272 0.179025 0.083622
v 0.179371 0.179025 -0.006077
v 0.089571 0.179025 0.149322
v 0.155272 0.179025 -0.095779
v 0.118671 0.144145 0.199722
v -0.000128 0.144145 0.231522
v -0.000128 0.179025 0.173321
v -0.118929 0.144145 0.199722
v -0.089828 0.179025 0.149322
v -0.205929 0.144145 0.112720
v -0.155529 0.179025 0.083622
v -0.237728 0.144145 -0.006077
v -0.179529 0.179025 -0.006077
v -0.205929 0.144145 -0.124878
v -0.155529 0.179025 -0.095779
v -0.118929 0.144145 -0.211880
v -0.089828 0.179025 -0.161480
v -0.000128 0.179025 -0.185577
v -0.000128 0.144145 -0.243778
v 0.118671 0.144145 -0.211880
v 0.089571 0.179025 -0.161480
v 0.141672 0.072045 -0.251579
v 0.223471 0.072045 -0.135178
v 0.245371 0.072045 -0.147877
v 0.128971 0.072045 -0.229778
v 0.258072 0.072045 -0.006077
v -0.000128 0.072045 -0.289577
v 0.283371 0.072045 -0.006077
v -0.000128 0.072045 -0.264278
v 0.223471 0.072045 0.123020
v -0.141829 0.072045 -0.251579
v 0.245371 0.072045 0.135620
v -0.129229 0.072045 -0.229778
v 0.128971 0.072045 0.217522
v -0.223728 0.072045 -0.135178
v 0.141672 0.072045 0.239422
v -0.245628 0.072045 -0.147877
v -0.000128 0.072045 0.252121
v -0.258329 0.072045 -0.006077
v -0.000128 0.072045 0.277420
v -0.283628 0.072045 -0.006077
v -0.223728 0.072045 0.123020
v -0.245628 0.072045 0.135620
v -0.129229 0.072045 0.217522
v -0.141829 0.072045 0.239422
v -0.019028 0.250265 -0.006077
v -0.019028 0.250265 0.067020
v -0.000128 0.244475 -0.006077
v -0.000128 0.244475 0.072121
v 0.018871 0.250265 0.067020
v 0.018871 0.250265 -0.006077
v 0.142672 0.208155 0.076321
v 0.089571 0.179025 0.149322
v 0.082371 0.208155 0.136723
v -0.000128 0.179025 0.173321
v -0.000128 0.208155 0.158722
v -0.082529 0.208155 0.136723
v -0.089828 0.179025 0.149322
v 0.205671 0.144145 0.112720
v 0.223471 0.072045 0.123020
v 0.128971 0.072045 0.217522
v 0.118671 0.144145 0.199722
v -0.000128 0.072045 0.252121
v -0.000128 0.144145 0.231522
v -0.118929 0.144145 0.199722
v -0.129229 0.072045 0.217522
v 0.038971 0.367335 0.061623
v -0.039228 0.208155 0.061623
v 0.038971 0.208155 0.061623
v -0.039228 0.367335 0.061623
v 0.037771 0.287745 0.062023
v 0.032671 0.266105 0.063320
v 0.032671 0.309385 0.063320
v 0.018871 0.250265 0.067020
v 0.018871 0.325225 0.067020
v -0.000128 0.208155 0.072121
v -0.000128 0.367335 0.072121
v -0.000128 0.244475 0.072121
v -0.000128 0.331025 0.072121
v -0.019028 0.250265 0.067020
v -0.019028 0.325225 0.067020
v -0.032928 0.266105 0.063320
v -0.032928 0.309385 0.063320
v -0.037928 0.287745 0.062023
v 0.141672 0.072045 0.239422
v 0.141672 0.018185 0.239422
v -0.000128 0.072045 0.277420
v -0.000128 0.018185 0.277420
v -0.141829 0.072045 0.239422
v -0.141829 0.018185 0.239422
v 0.018871 0.250265 -0.006077
v -0.032928 0.266105 -0.006077
v -0.019028 0.250265 -0.006077
v -0.000128 0.244475 -0.006077
v 0.032671 0.266105 -0.006077
v 0.032671 0.309385 -0.006077
v 0.037771 0.287745 -0.006077
v 0.018871 0.325225 -0.006077
v -0.032928 0.309385 -0.006077
v -0.037928 0.287745 -0.006077
v -0.019028 0.325225 -0.006077
v -0.000128 0.331025 -0.006077
v -0.129229 -0.823415 0.217522
v -0.129229 0.018185 0.217522
v -0.000128 -0.823415 0.252121
v -0.000128 0.018185 0.252121
v 0.128971 -0.823415 0.217522
v 0.128971 0.018185 0.217522
v 0.223471 -0.823415 0.123020
v 0.223471 0.018185 0.123020
v 0.223471 -0.823415 0.123020
v 0.223471 -0.957665 0.123020
v 0.128971 -0.823415 0.217522
v 0.128971 -0.957665 0.217522
v -0.000128 -0.823415 0.252121
v -0.000128 -0.957665 0.252121
v -0.129229 -0.823415 0.217522
v -0.129229 -0.957665 0.217522
v -0.142929 0.208155 -0.088577
v -0.155529 0.179025 -0.095779
v -0.179529 0.179025 -0.006077
v -0.082529 0.208155 0.136723
v -0.089828 0.179025 0.149322
v -0.155529 0.179025 0.083622
v -0.142929 0.208155 0.076321
v -0.164928 0.208155 -0.006077
v -0.118929 0.144145 0.199722
v -0.129229 0.072045 0.217522
v -0.223728 0.072045 0.123020
v -0.205929 0.144145 0.112720
v -0.258329 0.072045 -0.006077
v -0.237728 0.144145 -0.006077
v -0.205929 0.144145 -0.124878
v -0.223728 0.072045 -0.135178
v -0.067829 0.208155 -0.045177
v -0.067829 0.367335 -0.045177
v -0.078329 0.208155 -0.006077
v -0.078329 0.367335 -0.006077
v -0.067829 0.208155 0.033020
v -0.067829 0.367335 0.033020
v -0.039228 0.208155 0.061623
v -0.039228 0.367335 0.061623
v -0.141829 0.072045 0.239422
v -0.141829 0.018185 0.239422
v -0.245628 0.072045 0.135620
v -0.245628 0.018185 0.135620
v -0.245628 0.018185 -0.147877
v -0.283628 0.072045 -0.006077
v -0.245628 0.072045 -0.147877
v -0.283628 0.018185 -0.006077
v -0.258329 0.018185 -0.006077
v -0.223728 -0.823415 0.123020
v -0.223728 0.018185 0.123020
v -0.258329 -0.823415 -0.006077
v -0.129229 -0.823415 0.217522
v -0.223728 0.018185 -0.135178
v -0.129229 0.018185 0.217522
v -0.223728 -0.823415 -0.135178
v -0.223728 -0.957665 -0.135178
v -0.223728 -0.823415 -0.135178
v -0.258329 -0.957665 -0.006077
v -0.258329 -0.823415 -0.006077
v -0.223728 -0.957665 0.123020
v -0.129229 -0.823415 0.217522
v -0.223728 -0.823415 0.123020
v -0.129229 -0.957665 0.217522
v 0.018871 0.250265 0.067020
v 0.018871 0.250265 -0.006077
v 0.032671 0.266105 0.063320
v 0.032671 0.266105 -0.006077
v 0.018871 0.325225 0.067020
v 0.037771 0.287745 0.062023
v 0.018871 0.325225 -0.006077
v 0.037771 0.287745 -0.006077
v 0.032671 0.309385 0.063320
v 0.032671 0.309385 -0.006077
v 0.128971 -0.957665 0.217522
v -0.129229 -0.957665 -0.229778
v 0.258072 -0.957665 -0.006077
v -0.000128 -0.957665 -0.264278
v 0.128971 -0.957665 -0.229778
v 0.223471 -0.957665 -0.135178
v 0.223471 -0.957665 0.123020
v -0.223728 -0.957665 -0.135178
v -0.223728 -0.957665 0.123020
v -0.258329 -0.957665 -0.006077
v -0.000128 -0.957665 0.252121
v -0.129229 -0.957665 0.217522
v -0.000128 0.018185 -0.289577
v 0.128971 0.018185 -0.229778
v -0.000128 0.018185 -0.264278
v 0.141672 0.018185 -0.251579
v -0.141829 0.018185 -0.251579
v 0.245371 0.018185 -0.147877
v -0.129229 0.018185 -0.229778
v 0.223471 0.018185 -0.135178
v -0.223728 0.018185 -0.135178
v 0.258072 0.018185 -0.006077
v -0.245628 0.018185 -0.147877
v 0.283371 0.018185 -0.006077
v -0.258329 0.018185 -0.006077
v 0.223471 0.018185 0.123020
v -0.283628 0.018185 -0.006077
v 0.245371 0.018185 0.135620
v -0.223728 0.018185 0.123020
v 0.128971 0.018185 0.217522
v -0.245628 0.018185 0.135620
v 0.141672 0.018185 0.239422
v -0.000128 0.018185 0.252121
v -0.000128 0.018185 0.277420
v -0.129229 0.018185 0.217522
v -0.141829 0.018185 0.239422
v -0.019028 0.325225 -0.006077
v -0.019028 0.325225 0.067020
v -0.000128 0.331025 -0.006077
v -0.000128 0.331025 0.072121
v 0.018871 0.325225 0.067020
v 0.018871 0.325225 -0.006077
v 0.032671 0.309385 0.063320
v 0.032671 0.309385 -0.006077
v 0.082371 0.208155 -0.148880
v -0.000128 0.179025 -0.185577
v -0.000128 0.208155 -0.170979
v 0.089571 0.179025 -0.161480
v -0.082529 0.208155 -0.148880
v -0.089828 0.179025 -0.161480
v -0.142929 0.208155 -0.088577
v -0.155529 0.179025 -0.095779
v 0.142672 0.208155 -0.088577
v 0.155272 0.179025 -0.095779
v -0.205929 0.144145 -0.124878
v -0.223728 0.072045 -0.135178
v -0.129229 0.072045 -0.229778
v -0.118929 0.144145 -0.211880
v -0.000128 0.072045 -0.264278
v -0.000128 0.144145 -0.243778
v 0.118671 0.144145 -0.211880
v 0.128971 0.072045 -0.229778
v 0.038971 0.208155 -0.073879
v 0.038971 0.367335 -0.073879
v -0.000128 0.208155 -0.084377
v -0.000128 0.367335 -0.084377
v -0.039228 0.208155 -0.073879
v -0.039228 0.367335 -0.073879
v -0.067829 0.208155 -0.045177
v -0.067829 0.367335 -0.045177
v 0.141672 0.018185 -0.251579
v 0.141672 0.072045 -0.251579
v -0.000128 0.018185 -0.289577
v -0.000128 0.072045 -0.289577
v -0.141829 0.018185 -0.251579
v -0.141829 0.072045 -0.251579
v -0.245628 0.018185 -0.147877
v -0.245628 0.072045 -0.147877
v -0.223728 0.018185 -0.135178
v -0.223728 -0.823415 -0.135178
v -0.129229 0.018185 -0.229778
v -0.129229 -0.823415 -0.229778
v -0.000128 0.018185 -0.264278
v -0.000128 -0.823415 -0.264278
v 0.128971 0.018185 -0.229778
v 0.128971 -0.823415 -0.229778
v 0.128971 -0.957665 -0.229778
v 0.128971 -0.823415 -0.229778
v -0.000128 -0.957665 -0.264278
v -0.000128 -0.823415 -0.264278
v -0.129229 -0.957665 -0.229778
v -0.129229 -0.823415 -0.229778
v -0.223728 -0.957665 -0.135178
v -0.223728 -0.823415 -0.135178
vn 0.5262 0.7933 -0.3063
vn 0.4492 0.4492 -0.7723
vn 0.3063 0.7932 -0.5262
vn 0.8945 0.4472 -0.0000
vn 0.7723 0.4492 -0.4492
vn 0.6112 0.7914 -0.0000
vn 0.5262 0.7932 0.3063
vn 0.7723 0.4492 0.4492
vn 0.4492 0.4492 0.7723
vn 0.7157 0.5662 0.4089
vn 0.9612 0.2757 -0.0000
vn 0.8248 0.5655 -0.0000
vn 0.8333 0.2751 0.4795
vn 0.7157 0.5662 -0.4090
vn 0.8333 0.2752 -0.4795
vn 0.4090 0.5662 -0.7157
vn 0.4796 0.2751 -0.8333
vn 0.8677 -0.0000 -0.4970
vn 0.4970 -0.0000 -0.8677
vn 1.0000 -0.0000 -0.0000
vn 0.8677 -0.0000 0.4970
vn 0.4970 -0.0000 0.8677
vn 1.0000 -0.0000 0.0001
vn 0.8678 -0.0000 0.4970
vn 0.8678 -0.0000 0.4969
vn 0.4970 -0.0001 -0.8677
vn 0.8678 -0.0000 -0.4970
vn 0.8847 0.4661 -0.0000
vn 0.5511 0.8344 -0.0000
vn 0.8928 0.4504 -0.0000
vn 0.5180 0.8554 -0.0000
vn 0.8928 -0.4504 -0.0000
vn 0.8847 -0.4661 -0.0000
vn 0.5511 -0.8344 -0.0000
vn 0.5180 -0.8554 -0.0000
vn -0.0000 1.0000 -0.0000
vn -0.0000 0.7915 -0.6112
vn -0.3063 0.7932 -0.5262
vn 0.3064 0.7932 -0.5262
vn -0.5263 0.7932 -0.3063
vn 0.5263 0.7932 -0.3063
vn 0.6112 0.7915 -0.0000
vn 0.3063 0.7932 0.5262
vn -0.0000 0.7915 0.6112
vn -0.3063 0.7932 0.5263
vn -0.5263 0.7932 0.3063
vn -0.6112 0.7915 -0.0000
vn 0.8247 0.5656 -0.0000
vn 0.4476 0.8559 0.2591
vn 0.7156 0.5662 0.4090
vn 0.5121 0.8589 -0.0000
vn 0.7156 0.5662 -0.4089
vn 0.2591 0.8559 0.4476
vn 0.4476 0.8559 -0.2591
vn 0.4089 0.5662 0.7157
vn -0.0000 0.5656 0.8247
vn -0.0000 0.8589 0.5122
vn -0.4089 0.5663 0.7156
vn -0.2591 0.8559 0.4476
vn -0.7156 0.5662 0.4089
vn -0.4476 0.8559 0.2591
vn -0.8247 0.5656 -0.0000
vn -0.5122 0.8589 -0.0000
vn -0.7156 0.5662 -0.4089
vn -0.4476 0.8559 -0.2591
vn -0.4089 0.5663 -0.7156
vn -0.2591 0.8559 -0.4476
vn -0.0000 0.8589 -0.5122
vn -0.0000 0.5655 -0.8247
vn 0.4089 0.5662 -0.7156
vn 0.2591 0.8559 -0.4475
vn 0.5179 0.8554 -0.0000
vn 0.5510 0.8345 -0.0000
vn -0.5179 0.8554 -0.0000
vn -0.5510 0.8345 -0.0000
vn 0.5262 0.7933 0.3063
vn 0.3064 0.7932 0.5262
vn -0.0000 0.4473 0.8944
vn -0.3063 0.7933 0.5262
vn -0.4492 0.4492 0.7723
vn 0.7157 0.5662 0.4090
vn 0.4795 0.2752 0.8333
vn 0.4090 0.5662 0.7157
vn -0.0000 0.2757 0.9613
vn -0.0000 0.5655 0.8248
vn -0.4089 0.5662 0.7157
vn -0.4795 0.2751 0.8333
vn 0.4970 -0.0000 0.8678
vn 0.2592 -0.0000 0.9658
vn 0.2591 -0.0000 0.9658
vn 0.2591 -0.0001 0.9658
vn 0.2591 0.0001 0.9658
vn -0.0002 0.0002 1.0000
vn -0.0002 -0.0002 1.0000
vn 0.0001 -0.0000 1.0000
vn -0.0000 -0.0000 1.0000
vn -0.2591 -0.0000 0.9659
vn -0.4969 -0.0000 0.8678
vn -0.2591 -0.0000 0.9658
vn -0.2592 -0.0000 0.9658
vn -0.0001 -0.0000 1.0000
vn 0.4969 -0.0000 0.8678
vn -0.4969 0.0001 0.8678
vn 0.0002 -0.0000 1.0000
vn -0.4970 -0.0000 0.8678
vn -0.8944 0.4473 -0.0000
vn -0.5262 0.7933 -0.3063
vn -0.7723 0.4492 -0.4491
vn -0.7723 0.4492 0.4492
vn -0.5262 0.7933 0.3063
vn -0.6113 0.7914 -0.0000
vn -0.4090 0.5662 0.7157
vn -0.8333 0.2751 0.4795
vn -0.4796 0.2751 0.8333
vn -0.7157 0.5662 0.4090
vn -0.9612 0.2757 -0.0000
vn -0.8247 0.5655 -0.0000
vn -0.7157 0.5662 -0.4090
vn -0.8333 0.2751 -0.4795
vn -1.0000 -0.0000 -0.0000
vn -0.8678 -0.0000 -0.4969
vn -0.8677 -0.0000 0.4970
vn -0.8678 -0.0000 0.4970
vn -0.4970 -0.0000 0.8677
vn -1.0000 -0.0000 0.0001
vn -0.8678 -0.0000 -0.4970
vn -0.8847 0.4661 -0.0000
vn -0.5511 0.8344 -0.0000
vn -0.5180 0.8554 -0.0000
vn -0.8928 0.4504 -0.0000
vn -0.5511 -0.8344 -0.0000
vn -0.8847 -0.4661 -0.0000
vn -0.5180 -0.8554 -0.0000
vn -0.8929 -0.4503 -0.0000
vn -0.8848 -0.4660 -0.0000
vn -0.0000 -1.0000 -0.0000
vn 0.5179 -0.8554 -0.0000
vn 0.5510 -0.8345 -0.0000
vn -0.5179 -0.8554 -0.0000
vn -0.5510 -0.8345 -0.0000
vn -0.8928 -0.4504 -0.0000
vn 0.3063 0.7933 -0.5262
vn -0.0000 0.4473 -0.8944
vn -0.4492 0.4492 -0.7723
vn -0.5263 0.7933 -0.3063
vn -0.7723 0.4492 -0.4493
vn 0.7723 0.4492 -0.4493
vn -0.7156 0.5662 -0.4090
vn -0.4795 0.2751 -0.8333
vn -0.8332 0.2752 -0.4796
vn -0.4090 0.5662 -0.7157
vn -0.0000 0.2757 -0.9612
vn -0.0000 0.5655 -0.8248
vn 0.4089 0.5662 -0.7157
vn 0.4795 0.2751 -0.8333
vn -0.0000 -0.0000 -1.0000
vn 0.4970 -0.0000 -0.8678
vn -0.4970 -0.0000 -0.8678
vn -0.4970 -0.0000 -0.8677
vn -0.8677 -0.0000 -0.4970
vn -0.0001 -0.0000 -1.0000
vn 0.4969 -0.0000 -0.8678
vt -0.094249 1.476160
vt -0.079657 1.470330
vt -0.082179 1.476160
vt -0.110736 1.470330
vt -0.092793 1.470330
vt -0.110736 1.476160
vt -0.127223 1.476160
vt -0.128680 1.470330
vt -0.141815 1.470330
vt -0.134499 1.463350
vt -0.110736 1.448930
vt -0.110736 1.463350
vt -0.136558 1.448930
vt -0.086973 1.463350
vt -0.084915 1.448930
vt -0.069577 1.463350
vt -0.066012 1.448930
vt -0.102913 1.507990
vt -0.097187 1.476160
vt -0.097187 1.507990
vt -0.102913 1.476160
vt -0.110736 1.507990
vt -0.118559 1.507990
vt -0.118559 1.476160
vt -0.124285 1.507990
vt -0.124285 1.476160
vt -0.139086 1.448930
vt -0.110736 1.438160
vt -0.139086 1.438160
vt -0.082386 1.438160
vt -0.159840 1.448930
vt -0.082386 1.448930
vt -0.159840 1.438160
vt -0.061632 1.438160
vt -0.061632 1.448930
vt -0.110736 1.269840
vt -0.136558 1.438160
vt -0.136558 1.269840
vt -0.084915 1.438160
vt -0.066012 1.269840
vt -0.066012 1.438160
vt -0.084915 1.269840
vt -0.066012 1.242990
vt -0.084915 1.242990
vt -0.110736 1.242990
vt -0.136558 1.242990
vt -0.124625 1.487750
vt -0.110736 1.484580
vt -0.110736 1.487750
vt -0.125367 1.484580
vt -0.124353 1.492070
vt -0.110736 1.492070
vt -0.110736 1.496400
vt -0.124625 1.496400
vt -0.110736 1.499570
vt -0.125367 1.499570
vt -0.102914 1.361940
vt -0.126381 1.375490
vt -0.118559 1.361940
vt -0.110736 1.359850
vt -0.124285 1.367670
vt -0.097187 1.383310
vt -0.097187 1.367670
vt -0.095091 1.375490
vt -0.124285 1.383310
vt -0.110736 1.391140
vt -0.102913 1.389040
vt -0.118559 1.389040
vt -0.110736 1.342520
vt -0.094249 1.346930
vt -0.127223 1.346930
vt -0.082179 1.359000
vt -0.139293 1.359000
vt -0.143711 1.375490
vt -0.139293 1.391980
vt -0.127223 1.404050
vt -0.110736 1.408470
vt -0.094249 1.404050
vt -0.082179 1.391980
vt -0.077762 1.375490
vt -0.158262 1.375490
vt -0.141815 1.393440
vt -0.151895 1.399250
vt -0.146623 1.375490
vt -0.151895 1.351730
vt -0.128680 1.406570
vt -0.141815 1.357550
vt -0.134499 1.416650
vt -0.110736 1.423020
vt -0.110736 1.411380
vt -0.086973 1.416650
vt -0.092793 1.406570
vt -0.069577 1.399250
vt -0.079657 1.393440
vt -0.063210 1.375490
vt -0.074849 1.375490
vt -0.069577 1.351730
vt -0.079657 1.357550
vt -0.086973 1.334330
vt -0.092793 1.344410
vt -0.110736 1.339600
vt -0.110736 1.327970
vt -0.134499 1.334330
vt -0.128680 1.344410
vt -0.139086 1.326390
vt -0.155460 1.349670
vt -0.159840 1.347140
vt -0.136558 1.330770
vt -0.162379 1.375490
vt -0.110736 1.318790
vt -0.167436 1.375490
vt -0.110736 1.323850
vt -0.155460 1.401310
vt -0.082386 1.326390
vt -0.159840 1.403840
vt -0.084915 1.330770
vt -0.136558 1.420220
vt -0.066012 1.349670
vt -0.139086 1.424600
vt -0.061632 1.347140
vt -0.110736 1.427130
vt -0.059093 1.375490
vt -0.110736 1.432190
vt -0.054036 1.375490
vt -0.066012 1.401310
vt -0.061632 1.403840
vt -0.084915 1.420220
vt -0.082386 1.424600
vt -0.106951 1.390120
vt -0.110736 1.375490
vt -0.106951 1.375490
vt -0.114521 1.390120
vt -0.114521 1.375490
vt -0.069577 1.463350
vt -0.103167 1.492070
vt -0.104181 1.487750
vt -0.104181 1.496400
vt -0.106951 1.484580
vt -0.106951 1.499570
vt -0.110736 1.483420
vt -0.110736 1.500730
vt -0.114521 1.484580
vt -0.114521 1.499570
vt -0.117292 1.487750
vt -0.117292 1.496400
vt -0.118306 1.492070
vt -0.102914 1.476160
vt -0.102914 1.507990
vt -0.084915 1.269840
vt -0.084915 1.242990
vt -0.096847 1.487750
vt -0.096105 1.484580
vt -0.097119 1.492070
vt -0.096847 1.496400
vt -0.096105 1.499570
vt -0.082386 1.424600
vt -0.104181 1.389380
vt -0.104181 1.375490
vt -0.139293 1.476160
s 1
usemtl Handle1Mtl.053
f 3/1/1 2/2/2 1/3/3
f 3/1/1 5/4/4 4/5/5
f 5/4/4 3/1/1 6/6/6
f 7/7/7 5/4/4 6/6/6
f 5/4/4 7/7/7 8/8/8
f 7/7/7 9/9/9 8/8/8
f 10/10/10 11/11/11 12/12/12
f 11/11/11 10/10/10 13/13/13
f 11/11/11 14/14/14 12/12/12
f 14/14/14 11/11/11 15/15/15
f 16/16/16 15/15/15 17/17/17
f 15/15/15 16/16/16 14/14/14
f 18/18/18 19/19/19 20/20/19
f 19/19/19 18/18/18 21/21/18
f 22/22/20 21/21/18 18/18/18
f 21/21/18 22/22/20 23/6/20
f 24/23/21 23/6/20 22/22/20
f 23/6/20 24/23/21 25/24/21
f 26/25/22 25/24/21 24/23/21
f 25/24/21 26/25/22 27/26/22
f 28/27/21 29/28/23 30/11/23
f 29/28/23 28/27/21 31/29/24
f 32/30/18 30/11/23 29/28/23
f 33/31/22 31/29/24 28/27/21
f 30/11/23 32/30/18 34/32/18
f 31/29/24 33/31/22 35/33/22
f 36/34/19 34/32/18 32/30/18
f 34/32/18 36/34/19 37/35/19
f 42/36/20 40/37/25 38/38/25
f 43/39/18 41/40/19 39/41/26
f 40/37/25 42/36/20 44/28/20
f 41/40/19 43/39/18 45/42/18
f 45/42/18 44/28/20 42/36/20
f 44/28/20 45/42/18 43/39/18
f 46/42/27 47/43/19 48/40/19
f 47/43/19 46/42/27 49/44/18
f 50/36/20 49/44/18 46/42/27
f 49/44/18 50/36/20 51/45/20
f 52/38/25 51/45/20 50/36/20
f 51/45/20 52/38/25 53/46/24
f 54/47/28 55/48/29 56/49/30
f 55/48/29 54/47/28 57/50/31
f 56/49/30 58/51/20 54/47/28
f 58/51/20 56/49/30 59/52/20
f 60/53/32 58/51/20 59/52/20
f 58/51/20 60/53/32 61/54/33
f 62/55/34 61/54/33 60/53/32
f 61/54/33 62/55/34 63/56/35
f 64/57/36 65/58/36 66/59/36
f 64/57/36 66/59/36 67/60/36
f 66/59/36 65/58/36 68/61/36
f 69/62/36 65/58/36 64/57/36
f 70/63/36 69/62/36 64/57/36
f 69/62/36 70/63/36 71/64/36
f 65/58/36 69/62/36 72/65/36
f 69/62/36 73/66/36 72/65/36
f 73/66/36 69/62/36 74/67/36
f 72/65/36 73/66/36 75/68/36
f 79/57/36 77/69/37 78/70/38
f 77/69/37 79/57/36 80/60/36
f 80/60/36 76/71/39 77/69/37
f 78/70/38 81/63/36 79/57/36
f 76/71/39 80/60/36 82/59/36
f 81/63/36 78/70/38 83/72/40
f 83/72/40 84/64/36 81/63/36
f 76/71/39 82/59/36 85/61/36
f 86/73/41 76/71/39 85/61/36
f 86/73/41 85/61/36 87/58/36
f 87/58/36 88/74/42 86/73/41
f 89/65/36 88/74/42 87/58/36
f 88/74/42 89/65/36 90/75/7
f 91/68/36 90/75/7 89/65/36
f 90/75/7 91/68/36 92/76/43
f 93/66/36 92/76/43 91/68/36
f 94/77/44 92/76/43 93/66/36
f 93/66/36 95/78/45 94/77/44
f 95/78/45 93/66/36 96/67/36
f 96/67/36 97/79/46 95/78/45
f 97/79/46 96/67/36 98/62/36
f 98/62/36 99/80/47 97/79/46
f 99/80/47 98/62/36 84/64/36
f 84/64/36 83/72/40 99/80/47
f 101/81/48 103/82/49 100/83/50
f 103/82/49 101/81/48 104/84/51
f 101/81/48 102/85/52 104/84/51
f 105/86/53 100/83/50 103/82/49
f 102/85/52 106/87/54 104/84/51
f 100/83/50 105/86/53 107/88/55
f 105/86/53 108/89/56 107/88/55
f 108/89/56 105/86/53 109/90/57
f 109/90/57 110/91/58 108/89/56
f 110/91/58 109/90/57 111/92/59
f 111/92/59 112/93/60 110/91/58
f 112/93/60 111/92/59 113/94/61
f 113/94/61 114/95/62 112/93/60
f 114/95/62 113/94/61 115/96/63
f 115/96/63 116/97/64 114/95/62
f 116/97/64 115/96/63 117/98/65
f 117/98/65 118/99/66 116/97/64
f 118/99/66 117/98/65 119/100/67
f 120/101/68 118/99/66 119/100/67
f 118/99/66 120/101/68 121/102/69
f 120/101/68 122/103/70 121/102/69
f 122/103/70 120/101/68 123/104/71
f 106/87/54 122/103/70 123/104/71
f 102/85/52 122/103/70 106/87/54
f 124/105/36 125/106/36 126/107/36
f 127/108/36 125/106/36 124/105/36
f 128/109/36 126/107/36 125/106/36
f 124/105/36 129/110/36 127/108/36
f 130/111/36 126/107/36 128/109/36
f 131/112/36 127/108/36 129/110/36
f 132/113/36 130/111/36 128/109/36
f 129/110/36 133/114/36 131/112/36
f 134/115/36 130/111/36 132/113/36
f 131/112/36 133/114/36 135/116/36
f 132/113/36 136/117/36 134/115/36
f 133/114/36 137/118/36 135/116/36
f 138/119/36 134/115/36 136/117/36
f 137/118/36 133/114/36 139/120/36
f 136/117/36 140/121/36 138/119/36
f 139/120/36 141/122/36 137/118/36
f 138/119/36 140/121/36 142/123/36
f 141/122/36 139/120/36 143/124/36
f 143/124/36 144/125/36 141/122/36
f 144/125/36 143/124/36 145/126/36
f 146/127/36 142/123/36 140/121/36
f 145/126/36 146/127/36 144/125/36
f 147/128/36 142/123/36 146/127/36
f 146/127/36 145/126/36 147/128/36
f 149/129/72 150/130/36 148/131/73
f 151/66/36 150/130/36 149/129/72
f 152/132/74 150/130/36 151/66/36
f 150/130/36 152/132/74 153/133/75
f 155/5/9 154/3/76 156/1/77
f 156/1/77 157/4/78 155/5/9
f 157/4/78 156/1/77 158/6/44
f 159/7/79 157/4/78 158/6/44
f 157/4/78 159/7/79 160/8/80
f 161/134/81 163/15/82 162/17/13
f 163/15/82 161/134/81 164/14/83
f 164/14/83 165/11/84 163/15/82
f 165/11/84 164/14/83 166/12/85
f 167/10/86 165/11/84 166/12/85
f 165/11/84 167/10/86 168/13/87
f 171/21/88 169/18/88 173/135/89
f 171/21/88 173/135/89 174/136/90
f 173/135/89 169/18/88 175/137/89
f 176/138/91 171/21/88 174/136/90
f 175/137/89 169/18/88 177/139/92
f 171/21/88 176/138/91 178/6/93
f 179/22/94 177/139/92 169/18/88
f 176/138/91 180/140/95 178/6/93
f 177/139/92 179/22/94 181/141/96
f 182/142/97 178/6/93 180/140/95
f 178/6/93 182/142/97 170/24/98
f 179/22/94 183/143/99 181/141/96
f 172/23/98 183/143/99 179/22/94
f 170/24/98 182/142/97 184/144/99
f 183/143/99 172/23/98 185/145/99
f 186/146/100 170/24/98 184/144/99
f 172/23/98 170/24/98 186/146/100
f 172/23/98 186/146/100 185/145/99
f 189/11/101 188/30/88 187/32/102
f 188/30/88 189/11/101 190/28/101
f 191/27/98 190/28/101 189/11/101
f 190/28/101 191/27/98 192/29/103
f 193/138/96 194/144/96 195/142/96
f 193/138/96 195/142/96 196/140/96
f 197/136/96 194/144/96 193/138/96
f 198/137/104 197/136/96 199/135/96
f 197/136/96 198/137/104 200/139/96
f 194/144/96 197/136/96 200/139/96
f 201/145/101 194/144/96 200/139/96
f 194/144/96 201/145/101 202/146/96
f 201/145/101 200/139/96 203/143/96
f 203/143/96 200/139/96 204/141/96
f 207/36/96 206/37/105 205/38/105
f 206/37/105 207/36/96 208/28/96
f 209/42/88 208/28/96 207/36/96
f 208/28/96 209/42/88 210/39/22
f 211/40/21 210/39/22 209/42/88
f 210/39/22 211/40/21 212/41/21
f 215/42/22 214/43/21 213/40/21
f 214/43/21 215/42/22 216/44/22
f 217/36/96 216/44/22 215/42/22
f 216/44/22 217/36/96 218/45/96
f 219/38/105 218/45/96 217/36/96
f 218/45/96 219/38/105 220/46/103
f 223/4/106 221/7/107 222/8/108
f 224/3/79 226/5/109 225/2/80
f 226/5/109 224/3/79 227/1/110
f 227/1/110 223/4/106 226/5/109
f 223/4/106 227/1/110 228/6/111
f 221/7/107 223/4/106 228/6/111
f 229/16/112 231/15/113 230/17/114
f 231/15/113 229/16/112 232/14/115
f 232/14/115 233/11/116 231/15/113
f 233/11/116 232/14/115 234/12/117
f 235/10/118 233/11/116 234/12/117
f 233/11/116 235/10/118 236/13/119
f 239/6/120 238/23/121 237/24/121
f 238/23/121 239/6/120 240/22/120
f 241/147/122 240/22/120 239/6/120
f 240/22/120 241/147/122 242/148/123
f 243/19/124 242/148/123 241/147/122
f 242/148/123 243/19/124 244/20/124
f 247/32/122 246/34/124 245/35/124
f 246/34/124 247/32/122 248/30/122
f 250/11/125 248/30/122 247/32/122
f 248/30/122 250/11/125 252/28/125
f 252/28/125 251/27/121 249/29/121
f 251/27/121 252/28/125 250/11/125
f 253/28/120 254/149/122 255/39/122
f 254/149/122 253/28/120 256/36/120
f 257/40/124 255/39/122 254/149/122
f 258/37/126 256/36/120 253/28/120
f 255/39/122 257/40/124 259/41/124
f 256/36/120 258/37/126 260/38/121
f 263/45/120 262/38/121 261/46/121
f 262/38/121 263/45/120 264/36/120
f 265/150/122 264/36/120 263/45/120
f 264/36/120 265/150/122 267/149/122
f 268/43/124 267/149/122 265/150/122
f 267/149/122 268/43/124 266/40/124
f 271/151/127 270/48/128 269/152/129
f 270/48/128 271/151/127 272/49/130
f 274/153/120 272/49/130 271/151/127
f 272/49/130 274/153/120 276/52/120
f 275/55/131 277/154/132 273/155/133
f 276/52/120 274/153/120 278/53/134
f 277/154/135 278/53/134 274/153/120
f 279/127/136 280/108/136 281/122/136
f 281/122/136 280/108/136 282/112/136
f 281/122/136 282/112/136 283/116/136
f 281/122/136 283/116/136 284/118/136
f 279/127/136 281/122/136 285/125/136
f 280/108/136 279/127/136 286/106/136
f 279/127/136 287/113/136 286/106/136
f 286/106/136 287/113/136 288/109/136
f 287/113/136 279/127/136 289/121/136
f 287/113/136 289/121/136 290/117/136
f 291/110/136 292/116/136 293/112/136
f 292/116/136 291/110/136 294/114/136
f 293/112/136 295/105/136 291/110/136
f 294/114/136 296/120/136 292/116/136
f 295/105/136 293/112/136 297/108/136
f 298/118/136 292/116/136 296/120/136
f 299/106/136 295/105/136 297/108/136
f 296/120/136 300/122/136 298/118/136
f 301/107/136 295/105/136 299/106/136
f 300/122/136 296/120/136 302/124/136
f 299/106/136 303/109/136 301/107/136
f 302/124/136 304/125/136 300/122/136
f 305/111/136 301/107/136 303/109/136
f 304/125/136 302/124/136 306/126/136
f 303/109/136 307/113/136 305/111/136
f 306/126/136 308/127/136 304/125/136
f 305/111/136 307/113/136 309/115/136
f 308/127/136 306/126/136 310/156/136
f 310/156/136 311/121/136 308/127/136
f 311/121/136 310/156/136 312/123/136
f 313/117/136 309/115/136 307/113/136
f 312/123/136 313/117/136 311/121/136
f 314/119/136 309/115/136 313/117/136
f 313/117/136 312/123/136 314/119/136
f 317/130/136 316/132/137 315/133/138
f 316/132/137 317/130/136 318/66/136
f 317/130/136 319/129/139 318/66/136
f 319/129/139 317/130/136 320/131/140
f 321/157/132 320/131/131 322/158/141
f 323/7/142 324/4/143 325/6/37
f 324/4/143 323/7/142 326/8/2
f 324/4/143 327/1/38 325/6/37
f 327/1/38 324/4/143 328/5/144
f 328/5/144 329/3/145 327/1/38
f 329/3/145 328/5/144 330/2/146
f 326/8/2 331/159/1 332/9/147
f 333/16/148 335/15/149 334/17/150
f 335/15/149 333/16/148 336/14/151
f 336/14/151 337/11/152 335/15/149
f 337/11/152 336/14/151 338/12/153
f 339/10/154 337/11/152 338/12/153
f 337/11/152 339/10/154 340/13/155
f 343/6/156 342/23/157 341/24/157
f 342/23/157 343/6/156 344/22/156
f 345/147/158 344/22/156 343/6/156
f 344/22/156 345/147/158 346/148/159
f 347/19/160 346/148/159 345/147/158
f 346/148/159 347/19/160 348/20/160
f 351/28/161 350/27/157 349/29/157
f 350/27/157 351/28/161 352/11/161
f 353/30/159 352/11/161 351/28/161
f 352/11/161 353/30/159 354/32/159
f 355/34/160 354/32/159 353/30/159
f 354/32/159 355/34/160 356/35/160
f 359/39/158 358/40/160 357/41/160
f 358/40/160 359/39/158 360/42/158
f 361/28/156 360/42/158 359/39/158
f 360/42/158 361/28/156 362/36/156
f 363/37/157 362/36/156 361/28/156
f 362/36/156 363/37/157 364/38/162
f 367/45/156 366/38/157 365/46/162
f 366/38/157 367/45/156 368/36/156
f 369/44/159 368/36/156 367/45/156
f 368/36/156 369/44/159 370/42/159
f 371/43/160 370/42/159 369/44/159
f 370/42/159 371/43/160 372/40/160
