# Blender 5.1.2
# www.blender.org
mtllib Bearing.mtl
o Bearing
v 0.223515 -0.353552 0.344860
v 0.223515 0.097548 0.481758
v 0.223515 -0.097542 0.481758
v 0.223515 -0.000002 0.491360
v 0.223515 -0.277782 0.407059
v 0.223515 -0.191342 0.453259
v 0.223515 -0.461942 0.182659
v 0.223515 -0.415732 0.269157
v 0.223515 -0.461942 -0.200043
v 0.223515 -0.490392 0.088860
v 0.223515 -0.500002 -0.008640
v 0.223515 -0.490392 -0.106243
v 0.223515 -0.000002 -0.508640
v 0.223515 -0.353552 -0.362244
v 0.223515 -0.415732 -0.286442
v 0.223515 -0.277782 -0.424442
v 0.223515 -0.097542 -0.499043
v 0.223515 -0.191342 -0.470642
v 0.223515 0.191348 -0.470642
v 0.223515 0.097548 -0.499043
v 0.223515 0.499998 -0.008640
v 0.223515 0.277788 0.407059
v 0.223515 0.191338 0.453259
v 0.223515 0.353558 -0.362244
v 0.223515 0.277788 -0.424442
v 0.223515 0.415738 -0.286442
v 0.223515 0.461938 -0.200043
v 0.223515 0.490398 -0.106243
v 0.223515 0.461938 0.182659
v 0.223515 0.490398 0.088860
v 0.223515 0.353558 0.344860
v 0.223515 0.415738 0.269157
v -0.076487 0.353558 -0.362244
v 0.223515 0.353558 -0.362244
v -0.076487 0.415738 -0.286442
v 0.223515 0.415738 -0.286442
v -0.076487 0.461938 -0.200043
v 0.223515 0.461938 -0.200043
v -0.076487 0.490398 -0.106243
v 0.223515 0.490398 -0.106243
v -0.076487 0.499998 -0.008640
v 0.223515 0.499998 -0.008640
v -0.076487 0.490398 0.088860
v 0.223515 0.490398 0.088860
v -0.076487 0.461938 0.182659
v 0.223515 0.461938 0.182659
v -0.076487 0.415738 0.269157
v 0.223515 0.415738 0.269157
v -0.076487 0.353558 0.344860
v 0.223515 0.353558 0.344860
v -0.076487 0.114448 -0.123142
v 0.004213 0.135438 -0.144142
v 0.004213 0.159258 -0.115044
v -0.076487 0.134578 -0.098541
v 0.004213 0.176948 -0.081944
v -0.076487 0.149528 -0.070641
v 0.004213 0.187848 -0.046043
v -0.076487 0.158738 -0.040241
v 0.004213 0.191528 -0.008640
v -0.076487 0.161848 -0.008640
v -0.076487 0.158738 0.022858
v 0.004213 0.187848 0.028660
v -0.076487 0.149528 0.053257
v 0.004213 0.176948 0.064659
v -0.076487 0.134578 0.081257
v 0.004213 0.159258 0.097759
v -0.076487 0.114448 0.105759
v 0.004213 0.135438 0.126759
v 0.004213 -0.279492 -0.288143
v -0.076487 -0.279492 0.270859
v 0.004213 -0.279492 0.270859
v -0.076487 -0.328652 0.210957
v 0.004213 -0.328652 0.210957
v -0.076487 -0.365182 0.142559
v 0.004213 -0.365182 0.142559
v -0.076487 -0.387672 0.068459
v 0.004213 -0.387672 0.068459
v -0.076487 -0.395262 -0.008640
v 0.004213 -0.395262 -0.008640
v -0.076487 -0.387672 -0.085743
v 0.004213 -0.387672 -0.085743
v -0.076487 -0.365182 -0.159943
v 0.004213 -0.365182 -0.159943
v -0.076487 -0.328652 -0.228241
v 0.004213 -0.328652 -0.228241
v -0.076487 -0.279492 -0.288143
v -0.076487 -0.000002 0.491360
v 0.223515 -0.097542 0.481758
v 0.223515 -0.000002 0.491360
v -0.076487 -0.097542 0.481758
v 0.223515 -0.191342 0.453259
v -0.076487 -0.191342 0.453259
v 0.223515 -0.277782 0.407059
v -0.076487 -0.277782 0.407059
v 0.223515 -0.353552 0.344860
v -0.076487 -0.353552 0.344860
v -0.076487 0.353558 0.344860
v 0.223515 0.353558 0.344860
v 0.223515 0.277788 0.407059
v -0.076487 0.277788 0.407059
v 0.223515 0.191338 0.453259
v -0.076487 0.191338 0.453259
v 0.223515 0.097548 0.481758
v -0.076487 0.097548 0.481758
v 0.223515 -0.000002 0.491360
v -0.076487 -0.000002 0.491360
v -0.076487 -0.114442 0.105759
v 0.004213 -0.135432 0.126759
v 0.004213 -0.106412 0.150558
v -0.076487 -0.089922 0.125858
v 0.004213 -0.073292 0.168259
v -0.076487 -0.061932 0.140858
v 0.004213 -0.037362 0.179157
v -0.076487 -0.031572 0.150059
v 0.004213 -0.000002 0.182858
v -0.076487 -0.000002 0.153160
v -0.076487 0.114448 0.105759
v 0.004213 0.135438 0.126759
v 0.004213 0.106408 0.150558
v -0.076487 0.089918 0.125858
v 0.004213 0.073298 0.168259
v -0.076487 0.061938 0.140858
v 0.004213 0.037368 0.179157
v -0.076487 0.031578 0.150059
v 0.004213 -0.000002 0.182858
v -0.076487 -0.000002 0.153160
v 0.004213 -0.219602 -0.337341
v -0.076487 -0.219602 -0.337341
v 0.004213 -0.279492 -0.288143
v -0.076487 -0.151262 -0.373840
v 0.004213 -0.151262 -0.373840
v -0.076487 -0.077112 -0.396343
v 0.004213 -0.077112 -0.396343
v -0.076487 -0.000002 -0.403942
v 0.004213 -0.000002 -0.403942
v -0.076487 0.077118 -0.396343
v 0.004213 0.077118 -0.396343
v -0.076487 0.151268 -0.373840
v 0.004213 0.151268 -0.373840
v -0.076487 0.219598 -0.337341
v 0.004213 0.219598 -0.337341
v -0.076487 0.279498 -0.288143
v 0.004213 0.279498 -0.288143
v -0.076487 -0.279492 -0.288143
v -0.076487 -0.077112 0.378960
v -0.076487 -0.191342 0.453259
v -0.076487 -0.097542 0.481758
v -0.076487 -0.000002 0.386559
v -0.076487 -0.000002 0.491360
v -0.076487 -0.151262 0.356457
v -0.076487 -0.219602 0.319958
v -0.076487 -0.277782 0.407059
v -0.076487 -0.279492 0.270859
v -0.076487 -0.353552 0.344860
v -0.076487 -0.328652 0.210957
v -0.076487 -0.415732 0.269157
v -0.076487 -0.365182 0.142559
v -0.076487 -0.461942 0.182659
v -0.076487 -0.387672 0.068459
v -0.076487 -0.490392 0.088860
v -0.076487 -0.395262 -0.008640
v -0.076487 -0.500002 -0.008640
v -0.076487 -0.387672 -0.085743
v -0.076487 -0.490392 -0.106243
v -0.076487 -0.365182 -0.159943
v -0.076487 -0.461942 -0.200043
v -0.076487 -0.328652 -0.228241
v -0.076487 -0.415732 -0.286442
v -0.076487 -0.279492 -0.288143
v -0.076487 -0.353552 -0.362244
v -0.076487 -0.277782 -0.424442
v -0.076487 -0.219602 -0.337341
v -0.076487 -0.151262 -0.373840
v -0.076487 -0.191342 -0.470642
v -0.076487 -0.097542 -0.499043
v -0.076487 -0.077112 -0.396343
v -0.076487 -0.000002 -0.508640
v -0.076487 -0.000002 -0.403942
v -0.076487 0.077118 -0.396343
v -0.076487 0.097548 -0.499043
v -0.076487 0.151268 -0.373840
v -0.076487 0.191348 -0.470642
v -0.076487 0.219598 -0.337341
v -0.076487 0.277788 -0.424442
v -0.076487 0.279498 -0.288143
v -0.076487 0.353558 -0.362244
v -0.076487 0.415738 -0.286442
v -0.076487 0.328658 -0.228241
v -0.076487 0.365178 -0.159943
v -0.076487 0.461938 -0.200043
v -0.076487 0.490398 -0.106243
v -0.076487 0.387668 -0.085743
v -0.076487 0.499998 -0.008640
v -0.076487 0.395268 -0.008640
v -0.076487 0.387668 0.068459
v -0.076487 0.490398 0.088860
v -0.076487 0.461938 0.182659
v -0.076487 0.365178 0.142559
v -0.076487 0.415738 0.269157
v -0.076487 0.328648 0.210957
v -0.076487 0.353558 0.344860
v -0.076487 0.279498 0.270859
v -0.076487 0.277788 0.407059
v -0.076487 0.219598 0.319958
v -0.076487 0.191338 0.453259
v -0.076487 0.151258 0.356457
v -0.076487 0.097548 0.481758
v -0.076487 0.077118 0.378960
v -0.076487 -0.000002 0.491360
v -0.076487 -0.000002 0.386559
v -0.076487 -0.149532 0.053257
v -0.076487 -0.061932 0.140858
v -0.076487 -0.000002 -0.170540
v -0.076487 -0.089922 0.125858
v -0.076487 -0.114442 0.105759
v -0.076487 -0.134572 0.081257
v -0.076487 -0.000002 0.153160
v -0.076487 -0.031572 0.150059
v -0.076487 -0.089922 -0.143242
v -0.076487 -0.158742 0.022858
v -0.076487 -0.161852 -0.008640
v -0.076487 -0.031572 -0.167442
v -0.076487 -0.061932 -0.158241
v -0.076487 -0.149532 -0.070641
v -0.076487 -0.158742 -0.040241
v -0.076487 -0.134572 -0.098541
v -0.076487 -0.114442 -0.123142
v -0.076487 0.161848 -0.008640
v -0.076487 0.134578 0.081257
v -0.076487 0.158738 0.022858
v -0.076487 0.149528 0.053257
v -0.076487 0.114448 0.105759
v -0.076487 0.031578 0.150059
v -0.076487 0.061938 0.140858
v -0.076487 0.089918 0.125858
v -0.076487 0.149528 -0.070641
v -0.076487 0.158738 -0.040241
v -0.076487 0.031578 -0.167442
v -0.076487 0.114448 -0.123142
v -0.076487 0.134578 -0.098541
v -0.076487 0.061938 -0.158241
v -0.076487 0.089918 -0.143242
v 0.004213 -0.365182 0.142559
v 0.004213 -0.187852 0.028660
v 0.004213 -0.387672 0.068459
v 0.004213 -0.176952 0.064659
v 0.004213 -0.191532 -0.008640
v 0.004213 -0.159252 0.097759
v 0.004213 -0.395262 -0.008640
v 0.004213 -0.328652 0.210957
v 0.004213 -0.187852 -0.046043
v 0.004213 -0.279492 0.270859
v 0.004213 -0.387672 -0.085743
v 0.004213 -0.135432 0.126759
v 0.004213 -0.176952 -0.081943
v 0.004213 -0.219602 0.319958
v 0.004213 -0.365182 -0.159943
v 0.004213 -0.106412 0.150558
v 0.004213 -0.159252 -0.115044
v 0.004213 -0.328652 -0.228241
v 0.004213 -0.151262 0.356457
v 0.004213 -0.073292 0.168259
v 0.004213 -0.037362 0.179157
v 0.004213 -0.135432 -0.144142
v 0.004213 -0.077112 0.378960
v 0.004213 -0.000002 0.182858
v 0.004213 -0.000002 0.386559
v 0.004213 -0.279492 -0.288143
v 0.004213 -0.219602 -0.337341
v 0.004213 -0.106412 -0.167942
v 0.004213 -0.073292 -0.185642
v 0.004213 -0.151262 -0.373840
v 0.004213 -0.077112 -0.396343
v 0.004213 -0.037362 -0.196541
v 0.004213 -0.000002 -0.403942
v 0.004213 -0.000002 -0.200241
v 0.004213 0.037368 -0.196541
v 0.004213 0.077118 -0.396343
v 0.004213 0.073298 -0.185642
v 0.004213 0.151268 -0.373840
v 0.004213 0.106408 -0.167942
v 0.004213 0.219598 -0.337341
v 0.004213 0.279498 -0.288143
v 0.004213 0.135438 -0.144142
v 0.004213 0.328658 -0.228241
v 0.004213 0.159258 -0.115044
v 0.004213 0.365178 -0.159943
v 0.004213 0.176948 -0.081944
v 0.004213 0.387668 -0.085743
v 0.004213 0.187848 -0.046043
v 0.004213 0.395268 -0.008640
v 0.004213 0.191528 -0.008640
v 0.004213 0.187848 0.028660
v 0.004213 0.387668 0.068459
v 0.004213 0.365178 0.142559
v 0.004213 0.176948 0.064659
v 0.004213 0.328648 0.210957
v 0.004213 0.159258 0.097759
v 0.004213 0.279498 0.270859
v 0.004213 0.135438 0.126759
v 0.004213 0.219598 0.319958
v 0.004213 0.106408 0.150558
v 0.004213 0.151258 0.356457
v 0.004213 0.073298 0.168259
v 0.004213 0.077118 0.378960
v 0.004213 0.037368 0.179157
v 0.004213 -0.000002 0.386559
v 0.004213 -0.000002 0.182858
v 0.223515 -0.353552 0.344860
v -0.076487 -0.353552 0.344860
v -0.076487 -0.415732 0.269157
v 0.223515 -0.415732 0.269157
v -0.076487 -0.461942 0.182659
v 0.223515 -0.461942 0.182659
v -0.076487 -0.490392 0.088860
v 0.223515 -0.490392 0.088860
v -0.076487 -0.500002 -0.008640
v 0.223515 -0.500002 -0.008640
v -0.076487 -0.490392 -0.106243
v 0.223515 -0.490392 -0.106243
v -0.076487 -0.461942 -0.200043
v 0.223515 -0.461942 -0.200043
v -0.076487 -0.415732 -0.286442
v 0.223515 -0.415732 -0.286442
v -0.076487 -0.353552 -0.362244
v 0.223515 -0.353552 -0.362244
v 0.004213 -0.187852 -0.046043
v -0.076487 -0.149532 -0.070641
v 0.004213 -0.176952 -0.081943
v -0.076487 -0.158742 -0.040241
v -0.076487 -0.134572 -0.098541
v 0.004213 -0.191532 -0.008640
v 0.004213 -0.159252 -0.115044
v -0.076487 -0.161852 -0.008640
v -0.076487 -0.114442 -0.123142
v -0.076487 -0.158742 0.022858
v 0.004213 -0.135432 -0.144142
v 0.004213 -0.187852 0.028660
v -0.076487 -0.149532 0.053257
v 0.004213 -0.176952 0.064659
v -0.076487 -0.134572 0.081257
v 0.004213 -0.159252 0.097759
v -0.076487 -0.114442 0.105759
v 0.004213 -0.135432 0.126759
v -0.076487 0.279498 -0.288143
v 0.004213 0.279498 -0.288143
v -0.076487 0.328658 -0.228241
v 0.004213 0.328658 -0.228241
v -0.076487 0.365178 -0.159943
v 0.004213 0.365178 -0.159943
v -0.076487 0.387668 -0.085743
v 0.004213 0.387668 -0.085743
v 0.004213 0.395268 -0.008640
v -0.076487 0.395268 -0.008640
v 0.004213 0.387668 0.068459
v -0.076487 0.387668 0.068459
v -0.076487 0.365178 0.142559
v 0.004213 0.365178 0.142559
v -0.076487 0.328648 0.210957
v 0.004213 0.328648 0.210957
v -0.076487 0.279498 0.270859
v 0.004213 0.279498 0.270859
v -0.076487 -0.353552 -0.362244
v 0.223515 -0.353552 -0.362244
v -0.076487 -0.277782 -0.424442
v 0.223515 -0.277782 -0.424442
v -0.076487 -0.191342 -0.470642
v 0.223515 -0.191342 -0.470642
v -0.076487 -0.097542 -0.499043
v 0.223515 -0.097542 -0.499043
v -0.076487 -0.000002 -0.508640
v 0.223515 -0.000002 -0.508640
v -0.076487 0.097548 -0.499043
v 0.223515 0.097548 -0.499043
v -0.076487 0.191348 -0.470642
v 0.223515 0.191348 -0.470642
v -0.076487 0.277788 -0.424442
v 0.223515 0.277788 -0.424442
v -0.076487 0.353558 -0.362244
v 0.223515 0.353558 -0.362244
v -0.076487 -0.114442 -0.123142
v 0.004213 -0.135432 -0.144142
v 0.004213 -0.106412 -0.167942
v -0.076487 -0.089922 -0.143242
v 0.004213 -0.073292 -0.185642
v -0.076487 -0.061932 -0.158241
v 0.004213 -0.037362 -0.196541
v -0.076487 -0.031572 -0.167442
v 0.004213 -0.000002 -0.200241
v -0.076487 -0.000002 -0.170540
v -0.076487 0.031578 -0.167442
v 0.004213 0.037368 -0.196541
v -0.076487 0.061938 -0.158241
v 0.004213 0.073298 -0.185642
v -0.076487 0.089918 -0.143242
v 0.004213 0.106408 -0.167942
v -0.076487 0.114448 -0.123142
v 0.004213 0.135438 -0.144142
v -0.076487 0.279498 0.270859
v 0.004213 0.279498 0.270859
v -0.076487 0.219598 0.319958
v 0.004213 0.219598 0.319958
v -0.076487 0.151258 0.356457
v 0.004213 0.151258 0.356457
v -0.076487 0.077118 0.378960
v 0.004213 0.077118 0.378960
v -0.076487 -0.000002 0.386559
v 0.004213 -0.000002 0.386559
v 0.004213 -0.219602 0.319958
v -0.076487 -0.279492 0.270859
v -0.076487 -0.219602 0.319958
v 0.004213 -0.279492 0.270859
v 0.004213 -0.151262 0.356457
v -0.076487 -0.151262 0.356457
v 0.004213 -0.077112 0.378960
v -0.076487 -0.077112 0.378960
v 0.004213 -0.000002 0.386559
v -0.076487 -0.000002 0.386559
vn 1.0000 -0.0000 -0.0000
vn 1.0000 0.0001 -0.0000
vn 1.0000 -0.0001 -0.0000
vn 1.0000 0.0002 -0.0000
vn -0.0000 0.8308 -0.5565
vn -0.0000 0.7071 -0.7071
vn -0.0000 0.8309 -0.5565
vn -0.0000 0.9224 -0.3863
vn -0.0000 0.9806 -0.1961
vn -0.0000 1.0000 0.0001
vn -0.0000 1.0000 -0.0000
vn -0.0000 0.9806 0.1961
vn -0.0000 0.9224 0.3863
vn -0.0000 0.8309 0.5565
vn -0.0000 0.8308 0.5565
vn -0.0000 0.7071 0.7071
vn -0.3473 0.6631 -0.6631
vn -0.3468 0.7804 -0.5203
vn -0.3462 0.8656 -0.3619
vn -0.3462 0.8655 -0.3619
vn -0.3462 0.9205 -0.1810
vn -0.3462 0.9205 -0.1809
vn -0.3468 0.9379 -0.0000
vn -0.3462 0.9205 0.1810
vn -0.3462 0.8655 0.3619
vn -0.3462 0.8656 0.3619
vn -0.3468 0.7804 0.5203
vn -0.3473 0.6631 0.6631
vn -0.0000 0.8309 -0.5564
vn -0.0000 0.9806 -0.1962
vn -0.0000 0.9806 0.1962
vn -0.0000 -0.0000 1.0000
vn -0.0000 -0.1961 0.9806
vn -0.0000 -0.3863 0.9224
vn -0.0000 -0.5565 0.8308
vn -0.0000 -0.5564 0.8309
vn -0.0000 -0.7071 0.7071
vn -0.0000 0.5565 0.8308
vn -0.0000 0.3863 0.9224
vn -0.0000 0.1961 0.9806
vn -0.3468 -0.5203 0.7804
vn -0.3473 -0.6631 0.6631
vn -0.3462 -0.3619 0.8655
vn -0.3462 -0.1810 0.9205
vn -0.3468 -0.0000 0.9379
vn -0.3468 0.5203 0.7804
vn -0.3469 0.5202 0.7804
vn -0.3462 0.3620 0.8655
vn -0.3462 0.1809 0.9205
vn -0.3462 0.1810 0.9205
vn -0.0000 0.5564 0.8309
vn -0.0000 -0.5565 0.8309
vn -1.0000 -0.0000 -0.0000
vn -1.0000 -0.0001 -0.0000
vn -1.0000 -0.0002 -0.0000
vn -1.0000 0.0002 -0.0000
vn -1.0000 0.0001 -0.0000
vn -1.0000 -0.0004 -0.0000
vn -0.0000 -0.8308 0.5565
vn -0.0000 -0.8309 0.5565
vn -0.0000 -0.9224 0.3863
vn -0.0000 -0.9806 0.1961
vn -0.0000 -1.0000 -0.0000
vn -0.0000 -1.0000 0.0001
vn -0.0000 -0.9806 -0.1961
vn -0.0000 -0.9224 -0.3863
vn -0.0000 -0.8309 -0.5565
vn -0.0000 -0.7071 -0.7071
vn -0.3462 -0.9205 -0.1810
vn -0.3462 -0.8655 -0.3619
vn -0.3468 -0.7804 -0.5203
vn -0.3469 -0.9379 -0.0000
vn -0.3468 -0.9379 -0.0000
vn -0.3473 -0.6631 -0.6631
vn -0.3462 -0.9205 0.1809
vn -0.3462 -0.9205 0.1810
vn -0.3462 -0.8655 0.3619
vn -0.3468 -0.7804 0.5203
vn -0.0000 -0.8309 0.5564
vn -0.0000 -0.9806 -0.1960
vn -0.0000 -0.5564 -0.8309
vn -0.0000 -0.5565 -0.8308
vn -0.0000 -0.3863 -0.9224
vn -0.0000 -0.1961 -0.9806
vn -0.0000 -0.1962 -0.9806
vn -0.0000 -0.0000 -1.0000
vn -0.0000 0.1961 -0.9806
vn -0.0000 0.3863 -0.9224
vn -0.0000 0.5565 -0.8309
vn -0.3468 -0.5203 -0.7804
vn -0.3462 -0.3620 -0.8655
vn -0.3462 -0.3619 -0.8655
vn -0.3462 -0.1810 -0.9205
vn -0.3468 -0.0000 -0.9379
vn -0.3468 -0.0000 -0.9380
vn -0.3462 0.1809 -0.9205
vn -0.3462 0.1810 -0.9205
vn -0.3462 0.3619 -0.8655
vn -0.3468 0.5203 -0.7804
vn -0.0000 -0.5565 -0.8309
vn -0.0000 0.5565 -0.8308
vn -0.0000 0.1962 -0.9806
vt -0.421923 0.469703
vt -0.449291 0.559923
vt -0.449291 0.520905
vt -0.451212 0.540414
vt -0.434359 0.484857
vt -0.443600 0.502146
vt -0.389481 0.448026
vt -0.406769 0.457267
vt -0.312944 0.448026
vt -0.370721 0.442336
vt -0.351212 0.440414
vt -0.331703 0.442336
vt -0.251212 0.540414
vt -0.280502 0.469703
vt -0.295655 0.457267
vt -0.268065 0.484857
vt -0.253134 0.520905
vt -0.258824 0.502146
vt -0.258824 0.578682
vt -0.253134 0.559923
vt -0.351212 0.640414
vt -0.434359 0.595971
vt -0.443600 0.578682
vt -0.280502 0.611125
vt -0.268065 0.595971
vt -0.295655 0.623561
vt -0.312944 0.632802
vt -0.331703 0.638493
vt -0.389481 0.632802
vt -0.370721 0.638493
vt -0.421923 0.611125
vt -0.406769 0.623561
vt -0.321212 0.484857
vt -0.381212 0.469703
vt -0.321212 0.469703
vt -0.381212 0.484857
vt -0.321212 0.502146
vt -0.381212 0.502146
vt -0.321212 0.520905
vt -0.381212 0.520905
vt -0.321212 0.540414
vt -0.381212 0.540414
vt -0.321212 0.559923
vt -0.381212 0.559923
vt -0.321212 0.578683
vt -0.381212 0.578683
vt -0.321212 0.595971
vt -0.381212 0.595971
vt -0.321212 0.611125
vt -0.381212 0.611125
vt -0.337341 0.513327
vt -0.321212 0.517525
vt -0.337341 0.519132
vt -0.321212 0.522430
vt -0.337341 0.525755
vt -0.321212 0.528027
vt -0.337341 0.532941
vt -0.321212 0.534099
vt -0.337341 0.540414
vt -0.321212 0.546729
vt -0.337341 0.547887
vt -0.321212 0.552802
vt -0.337341 0.555073
vt -0.321212 0.558398
vt -0.337341 0.561696
vt -0.321212 0.563303
vt -0.337341 0.567501
vt -0.337341 0.596313
vt -0.321212 0.584334
vt -0.321212 0.596313
vt -0.337341 0.584334
vt -0.321212 0.570666
vt -0.337341 0.570666
vt -0.321212 0.555837
vt -0.337341 0.555837
vt -0.321212 0.524992
vt -0.337341 0.524992
vt -0.321212 0.510162
vt -0.337341 0.510162
vt -0.321212 0.496494
vt -0.337341 0.496494
vt -0.321212 0.484515
vt -0.337341 0.484515
vt -0.321212 0.578682
vt -0.381212 0.578682
vt -0.365083 0.519132
vt -0.381212 0.517525
vt -0.365083 0.513327
vt -0.381212 0.522430
vt -0.365083 0.525755
vt -0.381212 0.528027
vt -0.365083 0.532941
vt -0.381212 0.534099
vt -0.365083 0.540414
vt -0.381212 0.563303
vt -0.365083 0.561696
vt -0.365083 0.567501
vt -0.381212 0.558398
vt -0.365083 0.555073
vt -0.381212 0.552801
vt -0.365083 0.547887
vt -0.381212 0.546729
vt -0.365083 0.496494
vt -0.381212 0.496494
vt -0.365083 0.484515
vt -0.381212 0.510162
vt -0.365083 0.510162
vt -0.381212 0.524992
vt -0.365083 0.524992
vt -0.381212 0.555837
vt -0.365083 0.555837
vt -0.381212 0.570666
vt -0.365083 0.570666
vt -0.381212 0.584334
vt -0.365083 0.584334
vt -0.381212 0.596313
vt -0.365083 0.596313
vt -0.381212 0.484515
vt -0.273678 0.524992
vt -0.272159 0.540414
vt -0.278177 0.510162
vt -0.285482 0.496494
vt -0.295313 0.484515
vt -0.307293 0.474684
vt -0.320960 0.467378
vt -0.335790 0.462880
vt -0.351212 0.461361
vt -0.366635 0.462880
vt -0.381465 0.467378
vt -0.395132 0.474684
vt -0.407111 0.484515
vt -0.416943 0.496494
vt -0.424248 0.510162
vt -0.428747 0.524992
vt -0.430266 0.540414
vt -0.428747 0.555837
vt -0.424248 0.570666
vt -0.416943 0.584334
vt -0.407111 0.596313
vt -0.395132 0.606145
vt -0.381465 0.613450
vt -0.366635 0.617948
vt -0.351212 0.619467
vt -0.335790 0.617948
vt -0.320960 0.613450
vt -0.307292 0.606144
vt -0.280501 0.611125
vt -0.295313 0.596313
vt -0.285482 0.584334
vt -0.278176 0.570666
vt -0.273678 0.555836
vt -0.338825 0.510508
vt -0.321306 0.528027
vt -0.383582 0.540414
vt -0.324298 0.522430
vt -0.328323 0.517525
vt -0.333228 0.513499
vt -0.318842 0.540414
vt -0.319464 0.534099
vt -0.378127 0.522430
vt -0.344897 0.508666
vt -0.351212 0.508044
vt -0.382960 0.534099
vt -0.381118 0.528027
vt -0.363600 0.510508
vt -0.357527 0.508666
vt -0.369196 0.513499
vt -0.374101 0.517525
vt -0.351212 0.572784
vt -0.333228 0.567329
vt -0.344897 0.572162
vt -0.338825 0.570320
vt -0.328323 0.563303
vt -0.319464 0.546729
vt -0.321306 0.552801
vt -0.324298 0.558398
vt -0.363600 0.570320
vt -0.357527 0.572162
vt -0.382960 0.546729
vt -0.374101 0.563303
vt -0.369196 0.567329
vt -0.381118 0.552801
vt -0.378127 0.558398
vt -0.343739 0.502844
vt -0.336553 0.505024
vt -0.351212 0.502108
vt -0.329930 0.508564
vt -0.358685 0.502844
vt -0.324126 0.513327
vt -0.365871 0.505024
vt -0.319362 0.519132
vt -0.372494 0.508564
vt -0.315822 0.525755
vt -0.313642 0.532941
vt -0.378299 0.513327
vt -0.312906 0.540414
vt -0.383063 0.519132
vt -0.386603 0.525755
vt -0.388782 0.532941
vt -0.389518 0.540414
vt -0.388782 0.547887
vt -0.386603 0.555073
vt -0.383063 0.561696
vt -0.378299 0.567501
vt -0.372494 0.572265
vt -0.365871 0.575804
vt -0.358685 0.577984
vt -0.351212 0.578720
vt -0.343739 0.577984
vt -0.336553 0.575804
vt -0.329930 0.572264
vt -0.324126 0.567501
vt -0.319362 0.561696
vt -0.315822 0.555073
vt -0.313642 0.547887
vt -0.381212 0.570667
vt -0.365083 0.570667
vt -0.321212 0.552801
vt -0.321212 0.555836
vt -0.337341 0.555836
s 1
usemtl Handle1Mtl.006
f 1/1/1 2/2/1 3/3/1
f 3/3/1 2/2/1 4/4/1
f 1/1/1 3/3/1 5/5/1
f 5/5/1 3/3/1 6/6/2
f 7/7/1 1/1/1 8/8/1
f 1/1/1 7/7/1 9/9/1
f 9/9/1 7/7/1 10/10/1
f 9/9/1 10/10/1 11/11/1
f 9/9/1 11/11/1 12/12/1
f 9/9/1 13/13/1 1/1/1
f 2/2/1 1/1/1 13/13/1
f 14/14/1 9/9/1 15/15/1
f 13/13/1 9/9/1 14/14/1
f 16/16/1 13/13/1 14/14/1
f 13/13/1 16/16/1 17/17/1
f 17/17/1 16/16/1 18/18/2
f 19/19/1 13/13/1 20/20/1
f 2/2/1 13/13/1 21/21/1
f 19/19/1 21/21/1 13/13/1
f 2/2/1 21/21/1 22/22/1
f 2/2/1 22/22/1 23/23/3
f 21/21/1 19/19/1 24/24/1
f 24/24/1 19/19/1 25/25/4
f 21/21/1 24/24/1 26/26/1
f 21/21/1 26/26/1 27/27/3
f 21/21/1 27/27/3 28/28/1
f 29/29/2 22/22/1 21/21/1
f 29/29/2 21/21/1 30/30/3
f 22/22/1 29/29/2 31/31/3
f 31/31/3 29/29/2 32/32/1
f 35/33/5 34/34/6 33/35/6
f 35/33/5 36/36/7 34/34/6
f 37/37/8 36/36/7 35/33/5
f 37/37/8 38/38/8 36/36/7
f 39/39/9 38/38/8 37/37/8
f 39/39/9 40/40/9 38/38/8
f 41/41/10 40/40/9 39/39/9
f 41/41/10 42/42/11 40/40/9
f 43/43/12 42/42/11 41/41/10
f 43/43/12 44/44/12 42/42/11
f 45/45/13 44/44/12 43/43/12
f 45/45/13 46/46/13 44/44/12
f 47/47/14 46/46/13 45/45/13
f 47/47/14 48/48/15 46/46/13
f 49/49/16 48/48/15 47/47/14
f 49/49/16 50/50/16 48/48/15
f 52/51/17 51/52/17 53/53/18
f 54/54/18 53/53/18 51/52/17
f 53/53/18 54/54/18 55/55/19
f 56/56/20 55/55/19 54/54/18
f 55/55/19 56/56/20 57/57/21
f 58/58/22 57/57/21 56/56/20
f 57/57/21 58/58/22 59/59/23
f 60/41/23 59/59/23 58/58/22
f 61/60/24 59/59/23 60/41/23
f 59/59/23 61/60/24 62/61/24
f 63/62/25 62/61/24 61/60/24
f 62/61/24 63/62/25 64/63/26
f 65/64/27 64/63/26 63/62/25
f 64/63/26 65/64/27 66/65/27
f 67/66/28 66/65/27 65/64/27
f 66/65/27 67/66/28 68/67/28
f 71/68/6 72/69/29 70/70/6
f 72/69/29 71/68/6 73/71/7
f 73/71/7 74/72/8 72/69/29
f 74/72/8 73/71/7 75/73/8
f 75/73/8 76/74/30 74/72/8
f 76/74/30 75/73/8 77/75/9
f 77/75/9 78/41/11 76/74/30
f 78/41/11 77/75/9 79/59/11
f 79/59/11 80/76/31 78/41/11
f 80/76/31 79/59/11 81/77/31
f 81/77/31 82/78/13 80/76/31
f 82/78/13 81/77/31 83/79/13
f 83/79/13 84/80/14 82/78/13
f 84/80/14 83/79/13 85/81/14
f 85/81/14 86/82/16 84/80/14
f 86/82/16 85/81/14 69/83/16
f 87/42/32 88/39/33 89/41/32
f 88/39/33 87/42/32 90/40/33
f 90/40/33 91/37/34 88/39/33
f 91/37/34 90/40/33 92/38/34
f 92/38/34 93/33/35 91/37/34
f 93/33/35 92/38/34 94/36/36
f 94/36/36 95/35/37 93/33/35
f 95/35/37 94/36/36 96/34/37
f 97/50/16 99/47/38 98/49/16
f 99/47/38 97/50/16 100/48/38
f 100/48/38 101/84/39 99/47/38
f 101/84/39 100/48/38 102/85/39
f 102/85/39 103/43/40 101/84/39
f 103/43/40 102/85/39 104/44/40
f 104/44/40 105/41/32 103/43/40
f 105/41/32 104/44/40 106/42/32
f 109/86/41 107/87/42 108/88/42
f 107/87/42 109/86/41 110/89/41
f 111/90/43 110/89/41 109/86/41
f 110/89/41 111/90/43 112/91/43
f 113/92/44 112/91/43 111/90/43
f 112/91/43 113/92/44 114/93/44
f 115/94/45 114/93/44 113/92/44
f 114/93/44 115/94/45 116/42/45
f 117/95/28 119/96/46 118/97/28
f 119/96/46 117/95/28 120/98/47
f 120/98/47 121/99/48 119/96/46
f 121/99/48 120/98/47 122/100/48
f 122/100/48 123/101/49 121/99/48
f 123/101/49 122/100/48 124/102/50
f 124/102/50 125/94/45 123/101/49
f 125/94/45 124/102/50 126/42/45
f 127/103/51 128/104/38 129/105/16
f 130/106/39 128/104/38 127/103/51
f 131/107/39 130/106/39 127/103/51
f 132/108/40 130/106/39 131/107/39
f 133/109/40 132/108/40 131/107/39
f 134/42/32 132/108/40 133/109/40
f 135/94/32 134/42/32 133/109/40
f 136/110/33 134/42/32 135/94/32
f 137/111/33 136/110/33 135/94/32
f 138/112/34 136/110/33 137/111/33
f 139/113/34 138/112/34 137/111/33
f 140/114/52 138/112/34 139/113/34
f 141/115/36 140/114/52 139/113/34
f 140/114/52 141/115/36 142/116/37
f 143/117/37 142/116/37 141/115/36
f 144/118/16 129/105/16 128/104/38
f 145/119/53 146/18/53 147/17/53
f 147/17/53 148/120/53 145/119/53
f 148/120/53 147/17/53 149/13/53
f 146/18/53 145/119/53 150/121/53
f 151/122/53 146/18/53 150/121/53
f 146/18/53 151/122/53 152/16/53
f 153/123/53 152/16/53 151/122/53
f 152/16/53 153/123/53 154/14/53
f 155/124/53 154/14/53 153/123/53
f 154/14/53 155/124/53 156/15/53
f 157/125/53 156/15/53 155/124/53
f 156/15/53 157/125/53 158/9/53
f 159/126/53 158/9/53 157/125/53
f 158/9/53 159/126/53 160/12/53
f 161/127/53 160/12/53 159/126/53
f 160/12/53 161/127/53 162/11/53
f 163/128/53 162/11/53 161/127/53
f 162/11/53 163/128/53 164/10/53
f 165/129/53 164/10/53 163/128/53
f 164/10/53 165/129/53 166/7/53
f 167/130/53 166/7/53 165/129/53
f 166/7/53 167/130/53 168/8/53
f 169/131/53 168/8/53 167/130/53
f 168/8/53 169/131/53 170/1/53
f 169/131/53 171/5/53 170/1/53
f 171/5/53 169/131/53 172/132/53
f 173/133/53 171/5/53 172/132/53
f 171/5/53 173/133/53 174/6/53
f 174/6/53 173/133/53 175/3/53
f 175/3/53 173/133/53 176/134/53
f 177/4/53 175/3/53 176/134/53
f 178/135/53 177/4/53 176/134/53
f 179/136/53 177/4/53 178/135/53
f 177/4/53 179/136/53 180/2/53
f 181/137/53 180/2/53 179/136/53
f 180/2/53 181/137/53 182/23/53
f 183/138/53 182/23/53 181/137/53
f 182/23/53 183/138/53 184/22/53
f 185/139/53 184/22/53 183/138/53
f 184/22/53 185/139/53 186/31/53
f 185/139/53 187/32/53 186/31/53
f 187/32/53 185/139/53 188/140/53
f 189/141/53 187/32/53 188/140/53
f 187/32/53 189/141/53 190/29/53
f 189/141/53 191/30/53 190/29/53
f 191/30/53 189/141/53 192/142/53
f 192/142/53 193/21/53 191/30/53
f 193/21/53 192/142/53 194/143/53
f 195/144/53 193/21/53 194/143/53
f 193/21/53 195/144/53 196/28/53
f 196/28/53 195/144/53 197/27/53
f 197/27/53 195/144/53 198/145/53
f 199/26/53 197/27/53 198/145/53
f 200/146/53 199/26/53 198/145/53
f 201/147/53 199/26/53 200/146/53
f 202/148/53 201/147/53 200/146/53
f 203/25/53 201/147/53 202/148/53
f 202/148/53 204/149/53 203/25/53
f 204/149/53 205/19/53 203/25/53
f 205/19/53 204/149/53 206/150/53
f 206/150/53 207/20/53 205/19/53
f 207/20/53 206/150/53 208/151/53
f 208/151/53 209/13/53 207/20/53
f 209/13/53 208/151/53 210/120/53
f 211/152/53 212/153/53 213/154/53
f 212/153/53 211/152/53 214/155/53
f 211/152/53 215/156/54 214/155/53
f 215/156/54 211/152/53 216/157/53
f 217/158/53 212/153/53 218/159/53
f 213/154/53 212/153/53 217/158/53
f 219/160/53 211/152/53 213/154/53
f 211/152/53 219/160/53 220/161/53
f 220/161/53 219/160/53 221/162/55
f 219/160/53 213/154/53 222/163/54
f 219/160/53 222/163/54 223/164/56
f 219/160/53 224/165/57 221/162/55
f 221/162/55 224/165/57 225/166/53
f 224/165/57 219/160/53 226/167/53
f 226/167/53 219/160/53 227/168/53
f 228/169/53 213/154/53 217/158/53
f 228/169/53 217/158/53 229/170/53
f 228/169/53 229/170/53 230/171/58
f 230/171/58 229/170/53 231/172/53
f 229/170/53 217/158/53 232/173/53
f 232/173/53 217/158/53 233/174/54
f 232/173/53 233/174/54 234/175/57
f 232/173/53 234/175/57 235/176/56
f 236/177/53 213/154/53 228/169/53
f 236/177/53 228/169/53 237/178/53
f 213/154/53 236/177/53 238/179/53
f 239/180/53 238/179/53 236/177/53
f 239/180/53 236/177/53 240/181/53
f 238/179/53 239/180/53 241/182/56
f 241/182/56 239/180/53 242/183/53
f 243/125/53 244/184/53 245/126/53
f 244/184/53 243/125/53 246/185/53
f 247/186/53 245/126/53 244/184/53
f 246/185/53 243/125/53 248/187/53
f 245/126/53 247/186/53 249/127/53
f 250/124/53 248/187/53 243/125/53
f 251/188/53 249/127/53 247/186/53
f 252/123/53 248/187/53 250/124/53
f 249/127/53 251/188/53 253/128/53
f 248/187/53 252/123/53 254/189/53
f 255/190/53 253/128/53 251/188/53
f 256/122/53 254/189/53 252/123/53
f 253/128/53 255/190/53 257/129/53
f 254/189/53 256/122/53 258/191/53
f 259/192/53 257/129/53 255/190/53
f 257/129/53 259/192/53 260/130/53
f 261/121/53 258/191/53 256/122/53
f 258/191/53 261/121/53 262/193/57
f 261/121/53 263/194/53 262/193/57
f 264/195/53 260/130/53 259/192/53
f 263/194/53 261/121/53 265/119/53
f 265/119/53 266/196/53 263/194/53
f 266/196/53 265/119/53 267/120/53
f 260/130/53 264/195/53 268/131/53
f 264/195/53 269/132/53 268/131/53
f 269/132/53 264/195/53 270/197/53
f 271/198/53 269/132/53 270/197/53
f 269/132/53 271/198/53 272/133/53
f 272/133/53 271/198/53 273/134/53
f 273/134/53 271/198/53 274/199/53
f 273/134/53 274/199/53 275/135/53
f 276/200/53 275/135/53 274/199/53
f 277/201/53 275/135/53 276/200/53
f 275/135/53 277/201/53 278/136/53
f 279/202/53 278/136/53 277/201/53
f 278/136/53 279/202/53 280/137/53
f 281/203/53 280/137/53 279/202/53
f 280/137/53 281/203/53 282/138/53
f 281/203/53 283/139/53 282/138/53
f 284/204/53 283/139/53 281/203/53
f 284/204/53 285/140/53 283/139/53
f 285/140/53 284/204/53 286/205/53
f 286/205/53 287/141/53 285/140/53
f 287/141/53 286/205/53 288/206/53
f 288/206/53 289/142/53 287/141/53
f 289/142/53 288/206/53 290/207/53
f 290/207/53 291/143/53 289/142/53
f 291/143/53 290/207/53 292/208/53
f 293/209/53 291/143/53 292/208/53
f 291/143/53 293/209/53 294/144/53
f 294/144/53 293/209/53 295/145/53
f 295/145/53 293/209/53 296/210/53
f 295/145/53 296/210/53 297/146/53
f 298/211/53 297/146/53 296/210/53
f 297/146/53 298/211/53 299/148/53
f 300/212/53 299/148/53 298/211/53
f 301/149/53 299/148/53 300/212/53
f 302/213/53 301/149/53 300/212/53
f 303/150/53 301/149/53 302/213/53
f 304/214/53 303/150/53 302/213/53
f 304/214/53 305/151/53 303/150/53
f 306/215/53 305/151/53 304/214/53
f 306/215/53 307/120/53 305/151/53
f 307/120/53 306/215/53 308/196/53
f 311/48/59 309/49/37 310/50/37
f 311/48/59 312/47/60 309/49/37
f 313/85/61 312/47/60 311/48/59
f 313/85/61 314/84/61 312/47/60
f 315/44/62 314/84/61 313/85/61
f 315/44/62 316/43/62 314/84/61
f 317/42/63 316/43/62 315/44/62
f 317/42/63 318/41/64 316/43/62
f 319/40/65 318/41/64 317/42/63
f 319/40/65 320/39/65 318/41/64
f 321/38/66 320/39/65 319/40/65
f 321/38/66 322/37/66 320/39/65
f 323/36/67 322/37/66 321/38/66
f 323/36/67 324/33/67 322/37/66
f 325/34/68 324/33/67 323/36/67
f 325/34/68 326/35/68 324/33/67
f 327/92/69 328/91/70 329/90/70
f 328/91/70 327/92/69 330/93/69
f 331/89/71 329/90/70 328/91/70
f 332/94/72 330/93/69 327/92/69
f 329/90/70 331/89/71 333/86/71
f 330/93/69 332/94/72 334/42/73
f 335/87/74 333/86/71 331/89/71
f 334/42/73 332/94/72 336/102/75
f 333/86/71 335/87/74 337/88/74
f 338/101/76 336/102/75 332/94/72
f 336/102/75 338/101/76 339/100/77
f 340/99/77 339/100/77 338/101/76
f 339/100/77 340/99/77 341/98/78
f 342/96/78 341/98/78 340/99/77
f 341/98/78 342/96/78 343/95/42
f 344/97/42 343/95/42 342/96/78
f 346/105/37 347/104/79 345/118/37
f 347/104/79 346/105/37 348/103/79
f 348/103/79 349/106/61 347/104/79
f 349/106/61 348/103/79 350/107/61
f 350/107/61 351/108/62 349/106/61
f 351/108/62 350/107/61 352/109/62
f 353/94/63 351/108/62 352/109/62
f 351/108/62 353/94/63 354/42/63
f 355/111/65 354/42/63 353/94/63
f 354/42/63 355/111/65 356/110/80
f 355/111/65 357/216/66 356/110/80
f 357/216/66 355/111/65 358/217/66
f 358/217/66 359/114/67 357/216/66
f 359/114/67 358/217/66 360/115/67
f 360/115/67 361/116/68 359/114/67
f 361/116/68 360/115/67 362/117/68
f 365/33/81 364/34/68 363/35/68
f 365/33/81 366/36/82 364/34/68
f 367/37/83 366/36/82 365/33/81
f 367/37/83 368/38/83 366/36/82
f 369/39/84 368/38/83 367/37/83
f 369/39/84 370/40/85 368/38/83
f 371/41/86 370/40/85 369/39/84
f 371/41/86 372/42/86 370/40/85
f 373/43/87 372/42/86 371/41/86
f 373/43/87 374/44/87 372/42/86
f 375/84/88 374/44/87 373/43/87
f 375/84/88 376/85/88 374/44/87
f 377/47/89 376/85/88 375/84/88
f 377/47/89 378/48/89 376/85/88
f 379/49/6 378/48/89 377/47/89
f 379/49/6 380/50/6 378/48/89
f 382/51/74 381/52/74 383/53/90
f 384/54/90 383/53/90 381/52/74
f 383/53/90 384/54/90 385/55/91
f 386/56/92 385/55/91 384/54/90
f 385/55/91 386/56/92 387/57/93
f 388/58/93 387/57/93 386/56/92
f 387/57/93 388/58/93 389/59/94
f 390/41/95 389/59/94 388/58/93
f 391/60/96 389/59/94 390/41/95
f 389/59/94 391/60/96 392/61/97
f 393/218/98 392/61/97 391/60/96
f 392/61/97 393/218/98 394/63/98
f 395/64/99 394/63/98 393/218/98
f 394/63/98 395/64/99 396/65/99
f 397/66/17 396/65/99 395/64/99
f 396/65/99 397/66/17 398/67/17
f 400/68/68 401/69/100 399/70/68
f 401/69/100 400/68/68 402/71/82
f 402/71/82 403/72/83 401/69/100
f 403/72/83 402/71/82 404/73/83
f 404/73/83 405/219/84 403/72/83
f 405/219/84 404/73/83 406/220/84
f 406/220/84 407/41/86 405/219/84
f 407/41/86 406/220/84 408/59/86
f 409/81/89 410/82/6 411/80/101
f 410/82/6 409/81/89 412/83/6
f 411/80/101 413/79/88 409/81/89
f 413/79/88 411/80/101 414/78/88
f 414/78/88 415/77/87 413/79/88
f 415/77/87 414/78/88 416/76/102
f 416/76/102 417/59/86 415/77/87
f 417/59/86 416/76/102 418/41/86
