# Blender 5.1.2
# www.blender.org
mtllib Canister.mtl
o Canister
v 0.196072 -0.407794 0.563664
v -0.203928 0.092206 0.563663
v -0.203928 -0.407794 0.563664
v 0.196072 0.092206 0.563663
v 0.027271 0.482146 -0.662636
v -0.002129 0.453376 -0.668438
v -0.002129 0.510906 -0.656738
v 0.019272 0.461226 -0.666836
v 0.019272 0.503066 -0.658337
v -0.031428 0.482146 -0.662636
v -0.023428 0.461226 -0.666836
v -0.023428 0.503066 -0.658337
v -0.203928 0.092206 0.563663
v 0.105871 0.292206 0.463665
v -0.113729 0.292206 0.463665
v 0.196072 0.092206 0.563663
v 0.196072 -0.407794 -0.336338
v -0.203928 -0.407794 0.563664
v -0.203928 -0.407794 -0.336338
v 0.196072 -0.407794 0.563664
v 0.188871 0.047356 0.199364
v 0.199672 -0.023004 0.113663
v 0.199672 0.058186 0.194862
v 0.188871 -0.038324 0.113663
v 0.188871 -0.160104 -0.008137
v 0.188871 -0.245784 -0.093838
v 0.199672 -0.160104 -0.023437
v 0.199672 -0.241294 -0.104637
v -0.193028 0.047356 0.199364
v -0.203928 -0.023004 0.113663
v -0.193028 -0.038324 0.113663
v -0.203928 0.058186 0.194862
v -0.193028 -0.245784 -0.093838
v -0.193028 -0.160104 -0.008137
v -0.203928 -0.160104 -0.023437
v -0.203928 -0.241294 -0.104637
v 0.196072 0.092206 -0.336338
v -0.203928 -0.407794 -0.336338
v -0.203928 0.092206 -0.336338
v 0.196072 -0.407794 -0.336338
v -0.203928 0.092206 -0.336338
v 0.105871 0.292206 -0.236336
v 0.196072 0.092206 -0.336338
v -0.113729 0.292206 -0.236336
v 0.196072 -0.407794 -0.336338
v 0.199672 -0.078914 -0.104637
v 0.199672 -0.241294 -0.104637
v 0.199672 -0.160104 -0.023437
v 0.199672 -0.378404 -0.104637
v 0.196072 0.092206 -0.336338
v 0.199672 0.058186 -0.104637
v 0.199672 -0.378404 0.032463
v 0.196072 -0.407794 0.563664
v 0.199672 -0.297214 0.113663
v 0.199672 -0.378404 0.194862
v 0.199672 -0.378404 0.331963
v 0.199672 -0.241294 0.331963
v 0.199672 -0.078914 0.331963
v 0.199672 -0.160104 0.250763
v 0.196072 0.092206 0.563663
v 0.199672 0.058186 0.331963
v 0.105871 0.292206 0.463665
v 0.105871 0.292206 -0.236336
v -0.113729 0.292206 -0.236336
v -0.113729 0.292206 0.463665
v -0.203928 -0.378404 0.032463
v -0.203928 -0.407794 -0.336338
v -0.203928 -0.407794 0.563664
v -0.203928 -0.378404 -0.104637
v -0.203928 -0.241294 -0.104637
v -0.203928 -0.078914 -0.104637
v -0.203928 -0.160104 -0.023437
v -0.203928 0.092206 -0.336338
v -0.203928 0.058186 -0.104637
v -0.203928 0.058186 0.032463
v -0.203928 0.092206 0.563663
v -0.203928 0.058186 0.194862
v -0.203928 -0.023004 0.113663
v -0.203928 0.058186 0.331963
v -0.203928 -0.078914 0.331963
v -0.203928 -0.241294 0.331963
v -0.203928 -0.160104 0.250763
v -0.203928 -0.378404 0.331963
v -0.203928 -0.378404 0.194862
v -0.203928 -0.297214 0.113663
v 0.199672 0.058186 0.032463
v 0.196072 0.092206 -0.336338
v 0.196072 0.092206 0.563663
v 0.199672 0.058186 -0.104637
v 0.199672 0.058186 0.194862
v 0.199672 0.058186 0.331963
v 0.199672 -0.023004 0.113663
v 0.188871 -0.074434 -0.093838
v 0.188871 0.047356 0.027962
v 0.188871 -0.038324 0.113663
v 0.188871 0.047356 -0.093838
v 0.188871 -0.160104 -0.008137
v 0.188871 -0.160104 0.235462
v 0.188871 0.047356 0.199364
v 0.188871 -0.074434 0.321163
v 0.188871 0.047356 0.321163
v 0.188871 -0.281894 0.113663
v 0.188871 -0.367574 0.027962
v 0.188871 -0.245784 -0.093838
v 0.188871 -0.367574 -0.093838
v 0.188871 -0.367574 0.199364
v 0.188871 -0.245784 0.321163
v 0.188871 -0.367574 0.321163
v -0.193028 -0.245784 0.321163
v -0.193028 -0.367574 0.199364
v -0.193028 -0.367574 0.321163
v -0.193028 -0.160104 0.235462
v -0.193028 -0.281894 0.113663
v -0.193028 -0.160104 -0.008137
v -0.193028 -0.367574 0.027962
v -0.193028 -0.245784 -0.093838
v -0.193028 -0.367574 -0.093838
v -0.193028 -0.038324 0.113663
v -0.193028 -0.074434 -0.093838
v -0.193028 0.047356 0.027962
v -0.193028 0.047356 -0.093838
v -0.193028 0.047356 0.199364
v -0.193028 -0.074434 0.321163
v -0.193028 0.047356 0.321163
v -0.113729 0.292206 -0.236336
v -0.132528 0.250546 0.334763
v -0.113729 0.292206 0.463665
v -0.132528 0.250546 -0.107437
v -0.180328 0.144446 0.377262
v -0.180328 0.144446 -0.149937
v -0.203928 0.092206 0.563663
v -0.203928 0.092206 -0.336338
v 0.124672 0.250546 -0.107437
v 0.172571 0.144446 -0.149937
v 0.105871 0.292206 -0.236336
v 0.124672 0.250546 0.334763
v 0.196072 0.092206 -0.336338
v 0.105871 0.292206 0.463665
v 0.172571 0.144446 0.377262
v 0.196072 0.092206 0.563663
v 0.199672 0.058186 0.194862
v 0.188871 0.047356 0.321163
v 0.188871 0.047356 0.199364
v 0.199672 0.058186 0.331963
v 0.199672 0.058186 -0.104637
v 0.199672 0.058186 0.032463
v 0.188871 0.047356 -0.093838
v 0.188871 0.047356 0.027962
v -0.203928 0.058186 0.194862
v -0.193028 0.047356 0.321163
v -0.203928 0.058186 0.331963
v -0.193028 0.047356 0.199364
v -0.203928 0.058186 0.032463
v -0.203928 0.058186 -0.104637
v -0.193028 0.047356 -0.093838
v -0.193028 0.047356 0.027962
v 0.199672 -0.378404 -0.104637
v 0.199672 -0.241294 -0.104637
v 0.188871 -0.367574 -0.093838
v 0.188871 -0.245784 -0.093838
v 0.199672 -0.078914 -0.104637
v 0.188871 0.047356 -0.093838
v 0.188871 -0.074434 -0.093838
v 0.199672 0.058186 -0.104637
v -0.203928 -0.241294 -0.104637
v -0.203928 -0.378404 -0.104637
v -0.193028 -0.367574 -0.093838
v -0.193028 -0.245784 -0.093838
v -0.203928 -0.078914 -0.104637
v -0.193028 0.047356 -0.093838
v -0.203928 0.058186 -0.104637
v -0.193028 -0.074434 -0.093838
v 0.199672 -0.023004 0.113663
v 0.188871 0.047356 0.027962
v 0.199672 0.058186 0.032463
v 0.188871 -0.038324 0.113663
v 0.188871 -0.245784 0.321163
v 0.199672 -0.160104 0.250763
v 0.199672 -0.241294 0.331963
v 0.188871 -0.160104 0.235462
v -0.203928 -0.023004 0.113663
v -0.203928 0.058186 0.032463
v -0.193028 0.047356 0.027962
v -0.193028 -0.038324 0.113663
v -0.193028 -0.245784 0.321163
v -0.203928 -0.160104 0.250763
v -0.193028 -0.160104 0.235462
v -0.203928 -0.241294 0.331963
v 0.172571 0.144446 -0.149937
v -0.180328 0.144446 -0.149937
v 0.172571 0.144446 0.377262
v -0.180328 0.144446 0.377262
v 0.199672 -0.160104 -0.023437
v 0.188871 -0.074434 -0.093838
v 0.188871 -0.160104 -0.008137
v 0.199672 -0.078914 -0.104637
v 0.199672 -0.378404 0.194862
v 0.199672 -0.297214 0.113663
v 0.188871 -0.367574 0.199364
v 0.188871 -0.281894 0.113663
v -0.203928 -0.160104 -0.023437
v -0.193028 -0.074434 -0.093838
v -0.203928 -0.078914 -0.104637
v -0.193028 -0.160104 -0.008137
v -0.193028 -0.367574 0.199364
v -0.193028 -0.281894 0.113663
v -0.203928 -0.297214 0.113663
v -0.203928 -0.378404 0.194862
v -0.002129 0.416176 -0.482136
v -0.002129 0.410826 -0.455437
v -0.023428 0.423796 -0.480038
v -0.023428 0.461226 -0.666836
v -0.002129 0.453376 -0.668438
v -0.031428 0.482146 -0.662636
v 0.019272 0.461226 -0.666836
v 0.019272 0.423796 -0.480038
v 0.027271 0.482146 -0.662636
v -0.031428 0.444106 -0.474438
v -0.023428 0.503066 -0.658337
v -0.023428 0.417926 -0.452236
v 0.027271 0.444106 -0.474438
v 0.019272 0.503066 -0.658337
v 0.019272 0.417926 -0.452236
v 0.019272 0.464416 -0.468739
v -0.002129 0.510906 -0.656738
v 0.027271 0.436866 -0.443737
v -0.002129 0.401276 -0.433739
v 0.019272 0.407546 -0.429138
v 0.019272 0.455806 -0.435139
v -0.002129 0.472026 -0.466637
v -0.023428 0.464416 -0.468739
v 0.027271 0.424266 -0.416939
v -0.031428 0.436866 -0.443737
v -0.023428 0.455806 -0.435139
v -0.002129 0.462916 -0.431938
v 0.019272 0.440986 -0.404736
v -0.002129 0.447266 -0.400135
v -0.023428 0.440986 -0.404736
v -0.031428 0.424266 -0.416939
v -0.023428 0.407546 -0.429138
v -0.002129 0.421856 -0.375538
v -0.023428 0.416636 -0.381336
v -0.031428 0.402726 -0.396736
v -0.023428 0.388806 -0.412136
v 0.019272 0.416636 -0.381336
v -0.002129 0.391716 -0.356339
v -0.023428 0.387376 -0.362938
v -0.031428 0.375806 -0.380535
v -0.002129 0.167696 -0.230335
v -0.023428 0.163786 -0.237335
v -0.031428 0.153356 -0.255936
v 0.019272 0.387376 -0.362938
v 0.019272 0.163786 -0.237335
v -0.023428 0.364246 -0.398136
v -0.023428 0.142926 -0.274536
v 0.027271 0.402726 -0.396736
v 0.027271 0.375806 -0.380535
v 0.027271 0.153356 -0.255936
v 0.019272 0.388806 -0.412136
v 0.019272 0.364246 -0.398136
v 0.019272 0.142926 -0.274536
v -0.002129 0.383586 -0.417938
v -0.002129 0.359906 -0.404736
v -0.002129 0.139016 -0.281536
v -0.132528 0.250546 -0.107437
v 0.172571 0.144446 -0.149937
v 0.124672 0.250546 -0.107437
v -0.180328 0.144446 -0.149937
v 0.188871 -0.160104 0.235462
v 0.188871 -0.074434 0.321163
v 0.199672 -0.160104 0.250763
v 0.199672 -0.078914 0.331963
v 0.188871 -0.367574 0.027962
v 0.199672 -0.297214 0.113663
v 0.199672 -0.378404 0.032463
v 0.188871 -0.281894 0.113663
v -0.193028 -0.074434 0.321163
v -0.203928 -0.160104 0.250763
v -0.203928 -0.078914 0.331963
v -0.193028 -0.160104 0.235462
v -0.203928 -0.297214 0.113663
v -0.193028 -0.367574 0.027962
v -0.203928 -0.378404 0.032463
v -0.193028 -0.281894 0.113663
v 0.199672 0.058186 0.331963
v 0.199672 -0.078914 0.331963
v 0.188871 0.047356 0.321163
v 0.188871 -0.074434 0.321163
v 0.199672 -0.241294 0.331963
v 0.188871 -0.367574 0.321163
v 0.188871 -0.245784 0.321163
v 0.199672 -0.378404 0.331963
v 0.124672 0.250546 -0.107437
v -0.132528 0.250546 0.334763
v -0.132528 0.250546 -0.107437
v 0.124672 0.250546 0.334763
v -0.203928 -0.078914 0.331963
v -0.203928 0.058186 0.331963
v -0.193028 0.047356 0.321163
v -0.193028 -0.074434 0.321163
v -0.203928 -0.241294 0.331963
v -0.193028 -0.367574 0.321163
v -0.203928 -0.378404 0.331963
v -0.193028 -0.245784 0.321163
v 0.188871 -0.367574 0.321163
v 0.199672 -0.378404 0.194862
v 0.188871 -0.367574 0.199364
v 0.199672 -0.378404 0.331963
v 0.188871 -0.367574 -0.093838
v 0.199672 -0.378404 0.032463
v 0.199672 -0.378404 -0.104637
v 0.188871 -0.367574 0.027962
v -0.193028 -0.367574 0.321163
v -0.193028 -0.367574 0.199364
v -0.203928 -0.378404 0.194862
v -0.203928 -0.378404 0.331963
v -0.203928 -0.378404 0.032463
v -0.193028 -0.367574 -0.093838
v -0.203928 -0.378404 -0.104637
v -0.193028 -0.367574 0.027962
v 0.172571 0.144446 0.377262
v -0.132528 0.250546 0.334763
v 0.124672 0.250546 0.334763
v -0.180328 0.144446 0.377262
vn -0.0000 -0.0000 1.0000
vn -0.0000 0.1976 -0.9803
vn -0.0000 0.1978 -0.9802
vn -0.0000 0.1977 -0.9803
vn -0.0001 0.1976 -0.9803
vn -0.0000 0.4472 0.8944
vn -0.0000 -1.0000 -0.0000
vn 0.7051 -0.5014 0.5014
vn -0.7052 -0.5014 0.5013
vn -0.7051 -0.5015 0.5014
vn -0.7050 -0.5015 0.5014
vn -0.7051 -0.5014 0.5014
vn -0.7052 -0.5014 0.5014
vn -0.0000 -0.0000 -1.0000
vn -0.0000 0.4472 -0.8944
vn 1.0000 -0.0079 -0.0000
vn -0.0000 1.0000 -0.0000
vn -1.0000 0.0001 -0.0000
vn -1.0000 -0.0000 -0.0000
vn -1.0000 -0.0001 -0.0000
vn 0.9969 0.0785 -0.0000
vn 1.0000 -0.0000 -0.0000
vn -0.9125 0.4091 -0.0000
vn -0.9125 0.4090 -0.0000
vn 0.9125 0.4091 -0.0000
vn 0.7071 -0.7071 -0.0000
vn 0.7072 -0.7071 -0.0000
vn 0.7072 -0.7070 -0.0000
vn -0.7071 -0.7071 -0.0000
vn 0.7072 -0.0000 0.7071
vn 0.7069 -0.0000 0.7073
vn 0.7071 -0.0000 0.7071
vn 0.7071 -0.0000 0.7072
vn 0.7072 -0.0000 0.7070
vn 0.7070 -0.0000 0.7072
vn -0.7071 -0.0000 0.7071
vn 0.7051 -0.5014 -0.5014
vn -0.7049 -0.5016 -0.5015
vn -0.7052 -0.5014 -0.5013
vn -0.7051 -0.5014 -0.5014
vn -0.7052 -0.5014 -0.5014
vn 0.7051 0.5014 0.5014
vn -0.7051 0.5014 0.5014
vn -0.7052 0.5013 0.5013
vn -0.7052 0.5013 0.5014
vn -0.7050 0.5015 0.5014
vn -0.7053 0.5013 0.5013
vn -0.0000 -0.9803 -0.1976
vn -0.0000 -0.9518 -0.3068
vn -0.7038 -0.6960 -0.1423
vn -0.7078 -0.6921 -0.1415
vn 0.0001 -0.9806 -0.1961
vn 0.7078 -0.6921 -0.1415
vn 0.7038 -0.6960 -0.1423
vn 1.0000 -0.0001 -0.0000
vn -0.7078 0.6921 0.1415
vn -0.7167 -0.6616 -0.2205
vn 0.7078 0.6921 0.1415
vn 0.7167 -0.6616 -0.2205
vn 0.7022 0.6943 0.1578
vn -0.0000 0.9803 0.1977
vn 0.9997 0.0236 0.0079
vn -0.0000 -0.8084 -0.5886
vn 0.7318 -0.5509 -0.4013
vn 0.6844 0.6843 0.2517
vn -0.0000 0.9737 0.2277
vn -0.7022 0.6943 0.1578
vn 0.9992 0.0315 0.0236
vn -0.9997 0.0236 0.0079
vn -0.6844 0.6843 0.2517
vn -0.0000 0.9379 0.3468
vn 0.6789 0.5921 0.4342
vn -0.0000 0.8084 0.5886
vn -0.6789 0.5921 0.4342
vn -0.9992 0.0315 0.0236
vn -0.7318 -0.5508 -0.4013
vn -0.0003 0.6198 0.7847
vn -0.6846 0.4486 0.5745
vn -0.9998 0.0158 0.0157
vn -0.7157 -0.4089 -0.5662
vn 0.6847 0.4486 0.5745
vn -0.0000 0.5122 0.8589
vn -0.7009 0.3624 0.6143
vn -0.0000 0.4877 0.8730
vn -0.7054 0.3449 0.6192
vn 0.7009 0.3623 0.6143
vn 0.7054 0.3449 0.6192
vn -0.7015 -0.3468 -0.6226
vn -0.7054 -0.3449 -0.6192
vn 0.9998 0.0157 0.0158
vn 1.0000 0.0001 -0.0003
vn 0.7157 -0.4089 -0.5662
vn 0.7015 -0.3468 -0.6226
vn 0.7054 -0.3449 -0.6193
vn -0.0000 -0.5835 -0.8121
vn -0.0002 -0.4876 -0.8731
vn -0.0000 -0.4877 -0.8730
vn -0.0000 -0.3701 0.9290
vn -0.0000 -0.3700 0.9290
vn 0.7051 0.5014 -0.5014
vn -0.7051 0.5014 -0.5014
vn -0.7050 0.5015 -0.5014
vn -0.7053 0.5012 -0.5014
vn -0.7052 0.5014 -0.5013
vn -0.7049 0.5016 -0.5015
vn 0.7072 -0.0000 -0.7070
vn 0.7070 -0.0000 -0.7072
vn 0.7068 -0.0000 -0.7074
vn 0.7071 -0.0000 -0.7071
vn 0.7072 -0.0000 -0.7071
vn -0.7071 -0.0000 -0.7071
vn 0.7071 0.7071 -0.0000
vn 0.7072 0.7070 -0.0000
vn 0.7072 0.7071 -0.0000
vn -0.7071 0.7071 -0.0000
vn -0.0000 -0.3701 -0.9290
vn -0.0000 -0.3700 -0.9290
vt 0.464844 0.730469
vt 0.550781 0.214844
s 1
usemtl Canister1Mtl
f 1/1/1 2/1/1 3/1/1
f 2/1/1 1/1/1 4/1/1
f 5/2/2 6/2/3 7/2/4
f 6/2/3 5/2/2 8/2/2
f 5/2/2 7/2/4 9/2/4
f 6/2/3 10/2/4 7/2/4
f 10/2/4 6/2/3 11/2/5
f 7/2/4 10/2/4 12/2/2
f 13/1/6 14/1/6 15/1/6
f 14/1/6 13/1/6 16/1/6
f 17/1/7 18/1/7 19/1/7
f 18/1/7 17/1/7 20/1/7
f 21/1/8 22/1/8 23/1/8
f 22/1/8 21/1/8 24/1/8
f 25/1/8 26/1/8 27/1/8
f 27/1/8 26/1/8 28/1/8
f 29/1/9 30/1/10 31/1/11
f 30/1/10 29/1/9 32/1/9
f 33/1/12 34/1/13 35/1/12
f 35/1/12 36/1/12 33/1/12
f 37/1/14 38/1/14 39/1/14
f 38/1/14 37/1/14 40/1/14
f 41/1/15 42/1/15 43/1/15
f 42/1/15 41/1/15 44/1/15
f 45/1/16 46/1/16 47/1/16
f 47/1/16 46/1/16 48/1/16
f 45/1/16 47/1/16 49/1/16
f 46/1/16 45/1/16 50/1/16
f 46/1/16 50/1/16 51/1/16
f 52/1/16 45/1/16 49/1/16
f 52/1/16 53/1/16 45/1/16
f 52/1/16 54/1/16 55/1/16
f 55/1/16 53/1/16 52/1/16
f 53/1/16 55/1/16 56/1/16
f 57/1/16 53/1/16 56/1/16
f 58/1/16 53/1/16 57/1/16
f 58/1/16 57/1/16 59/1/16
f 53/1/16 58/1/16 60/1/16
f 60/1/16 58/1/16 61/1/16
f 62/1/17 63/1/17 64/1/17
f 64/1/17 65/1/17 62/1/17
f 66/1/18 67/1/19 68/1/19
f 67/1/19 66/1/18 69/1/20
f 70/1/19 67/1/19 69/1/20
f 71/1/19 67/1/19 70/1/19
f 70/1/19 72/1/19 71/1/19
f 71/1/19 73/1/19 67/1/19
f 73/1/19 71/1/19 74/1/18
f 75/1/19 73/1/19 74/1/18
f 75/1/19 76/1/19 73/1/19
f 77/1/19 76/1/19 75/1/19
f 75/1/19 78/1/19 77/1/19
f 76/1/19 77/1/19 79/1/18
f 76/1/19 79/1/18 80/1/19
f 80/1/19 68/1/19 76/1/19
f 80/1/19 81/1/19 68/1/19
f 81/1/19 80/1/19 82/1/19
f 68/1/19 81/1/19 83/1/20
f 84/1/18 68/1/19 83/1/20
f 68/1/19 84/1/18 66/1/18
f 84/1/18 85/1/19 66/1/18
f 86/1/21 87/1/21 88/1/21
f 87/1/21 86/1/21 89/1/21
f 88/1/21 90/1/21 86/1/21
f 90/1/21 88/1/21 91/1/21
f 86/1/21 90/1/21 92/1/21
f 93/1/22 94/1/22 95/1/22
f 94/1/22 93/1/22 96/1/22
f 95/1/22 97/1/22 93/1/22
f 98/1/22 97/1/22 95/1/22
f 99/1/22 98/1/22 95/1/22
f 98/1/22 99/1/22 100/1/22
f 100/1/22 99/1/22 101/1/22
f 97/1/22 98/1/22 102/1/22
f 103/1/22 97/1/22 102/1/22
f 97/1/22 103/1/22 104/1/22
f 105/1/22 104/1/22 103/1/22
f 98/1/22 106/1/22 102/1/22
f 107/1/22 106/1/22 98/1/22
f 106/1/22 107/1/22 108/1/22
f 109/1/19 110/1/19 111/1/19
f 112/1/19 110/1/19 109/1/19
f 110/1/19 112/1/19 113/1/19
f 112/1/19 114/1/19 113/1/19
f 114/1/19 115/1/19 113/1/19
f 116/1/19 115/1/19 114/1/19
f 115/1/19 116/1/19 117/1/19
f 114/1/19 112/1/19 118/1/19
f 118/1/19 119/1/19 114/1/19
f 119/1/19 118/1/19 120/1/19
f 119/1/19 120/1/19 121/1/19
f 112/1/19 122/1/19 118/1/19
f 123/1/19 122/1/19 112/1/19
f 122/1/19 123/1/19 124/1/19
f 125/1/23 126/1/23 127/1/23
f 126/1/23 125/1/23 128/1/23
f 129/1/23 127/1/23 126/1/23
f 125/1/23 130/1/24 128/1/23
f 129/1/23 131/1/23 127/1/23
f 130/1/24 131/1/23 129/1/23
f 125/1/23 132/1/23 130/1/24
f 131/1/23 130/1/24 132/1/23
f 133/1/25 134/1/25 135/1/25
f 135/1/25 136/1/25 133/1/25
f 137/1/25 135/1/25 134/1/25
f 136/1/25 135/1/25 138/1/25
f 139/1/25 137/1/25 134/1/25
f 138/1/25 139/1/25 136/1/25
f 137/1/25 139/1/25 140/1/25
f 140/1/25 139/1/25 138/1/25
f 141/1/26 142/1/26 143/1/26
f 142/1/26 141/1/26 144/1/27
f 145/1/26 146/1/26 147/1/26
f 147/1/26 146/1/26 148/1/28
f 149/1/29 150/1/29 151/1/29
f 150/1/29 149/1/29 152/1/29
f 153/1/29 154/1/29 155/1/29
f 153/1/29 155/1/29 156/1/29
f 157/1/30 158/1/31 159/1/32
f 159/1/32 158/1/31 160/1/31
f 161/1/33 162/1/34 163/1/35
f 162/1/34 161/1/33 164/1/34
f 165/1/36 166/1/36 167/1/36
f 165/1/36 167/1/36 168/1/36
f 169/1/36 170/1/36 171/1/36
f 170/1/36 169/1/36 172/1/36
f 173/1/37 174/1/37 175/1/37
f 176/1/37 174/1/37 173/1/37
f 177/1/37 178/1/37 179/1/37
f 178/1/37 177/1/37 180/1/37
f 181/1/38 182/1/39 183/1/39
f 183/1/39 184/1/38 181/1/38
f 185/1/40 186/1/40 187/1/41
f 186/1/40 185/1/40 188/1/41
f 189/1/17 190/1/17 191/1/17
f 190/1/17 192/1/17 191/1/17
f 193/1/42 194/1/42 195/1/42
f 194/1/42 193/1/42 196/1/42
f 197/1/42 198/1/42 199/1/42
f 200/1/42 199/1/42 198/1/42
f 201/1/43 202/1/43 203/1/43
f 202/1/43 201/1/43 204/1/43
f 205/1/44 206/1/45 207/1/46
f 205/1/44 207/1/46 208/1/47
f 209/2/48 210/2/49 211/2/50
f 212/2/51 209/2/48 211/2/50
f 213/2/52 209/2/48 212/2/51
f 212/2/51 211/2/50 214/2/19
f 215/2/53 209/2/48 213/2/52
f 209/2/48 215/2/53 216/2/54
f 216/2/54 210/2/49 209/2/48
f 217/2/55 216/2/54 215/2/53
f 214/2/19 211/2/50 218/2/19
f 214/2/19 218/2/19 219/2/56
f 211/2/50 210/2/49 220/2/57
f 211/2/50 220/2/57 218/2/19
f 216/2/54 217/2/55 221/2/22
f 222/2/58 221/2/22 217/2/55
f 210/2/49 216/2/54 223/2/59
f 221/2/22 223/2/59 216/2/54
f 221/2/22 222/2/58 224/2/60
f 225/2/61 224/2/60 222/2/58
f 223/2/59 221/2/22 226/2/62
f 224/2/60 226/2/62 221/2/22
f 223/2/59 227/2/63 210/2/49
f 210/2/49 227/2/63 220/2/57
f 226/2/62 228/2/64 223/2/59
f 227/2/63 223/2/59 228/2/64
f 226/2/62 224/2/60 229/2/65
f 224/2/60 225/2/61 230/2/66
f 230/2/66 229/2/65 224/2/60
f 225/2/61 231/2/67 230/2/66
f 219/2/56 231/2/67 225/2/61
f 219/2/56 218/2/19 231/2/67
f 228/2/64 226/2/62 232/2/68
f 229/2/65 232/2/68 226/2/62
f 218/2/19 233/2/69 231/2/67
f 233/2/69 218/2/19 220/2/57
f 231/2/67 234/2/70 230/2/66
f 234/2/70 231/2/67 233/2/69
f 229/2/65 230/2/66 235/2/71
f 230/2/66 234/2/70 235/2/71
f 235/2/71 236/2/72 229/2/65
f 232/2/68 229/2/65 236/2/72
f 236/2/72 235/2/71 237/2/73
f 234/2/70 238/2/74 235/2/71
f 235/2/71 238/2/74 237/2/73
f 234/2/70 233/2/69 239/2/75
f 238/2/74 234/2/70 239/2/75
f 239/2/75 233/2/69 240/2/76
f 233/2/69 220/2/57 240/2/76
f 220/2/57 227/2/63 240/2/76
f 238/2/74 241/2/77 237/2/73
f 241/2/77 236/2/72 237/2/73
f 239/2/75 242/2/78 238/2/74
f 241/2/77 238/2/74 242/2/78
f 240/2/76 243/2/79 239/2/75
f 242/2/78 239/2/75 243/2/79
f 227/2/63 244/2/80 240/2/76
f 243/2/79 240/2/76 244/2/80
f 241/2/77 245/2/81 236/2/72
f 245/2/81 232/2/68 236/2/72
f 242/2/78 246/2/82 241/2/77
f 246/2/82 245/2/81 241/2/77
f 243/2/79 247/2/83 242/2/78
f 246/2/82 242/2/78 247/2/83
f 244/2/80 248/2/19 243/2/79
f 247/2/83 243/2/79 248/2/19
f 247/2/83 249/2/84 246/2/82
f 248/2/19 250/2/85 247/2/83
f 249/2/84 247/2/83 250/2/85
f 250/2/85 248/2/19 251/2/19
f 249/2/84 252/2/86 246/2/82
f 246/2/82 252/2/86 245/2/81
f 253/2/87 252/2/86 249/2/84
f 254/2/88 251/2/19 248/2/19
f 248/2/19 244/2/80 254/2/88
f 251/2/19 254/2/88 255/2/89
f 252/2/86 256/2/90 245/2/81
f 232/2/68 245/2/81 256/2/90
f 256/2/90 228/2/64 232/2/68
f 253/2/87 257/2/22 252/2/86
f 252/2/86 257/2/22 256/2/90
f 258/2/91 257/2/22 253/2/87
f 228/2/64 256/2/90 259/2/92
f 257/2/22 259/2/92 256/2/90
f 228/2/64 259/2/92 227/2/63
f 258/2/91 260/2/93 257/2/22
f 257/2/22 260/2/93 259/2/92
f 261/2/94 260/2/93 258/2/91
f 227/2/63 259/2/92 262/2/95
f 259/2/92 260/2/93 262/2/95
f 244/2/80 227/2/63 262/2/95
f 262/2/95 254/2/88 244/2/80
f 262/2/95 260/2/93 263/2/96
f 254/2/88 262/2/95 263/2/96
f 260/2/93 261/2/94 263/2/96
f 263/2/96 255/2/89 254/2/88
f 263/2/96 261/2/94 264/2/97
f 255/2/89 263/2/96 264/2/97
f 265/1/98 266/1/99 267/1/98
f 268/1/98 266/1/99 265/1/98
f 269/1/100 270/1/100 271/1/100
f 272/1/100 271/1/100 270/1/100
f 273/1/100 274/1/100 275/1/100
f 274/1/100 273/1/100 276/1/100
f 277/1/101 278/1/101 279/1/101
f 277/1/101 280/1/102 278/1/101
f 281/1/103 282/1/104 283/1/104
f 282/1/104 281/1/103 284/1/105
f 285/1/106 286/1/107 287/1/106
f 287/1/106 286/1/107 288/1/107
f 289/1/108 290/1/109 291/1/108
f 290/1/109 289/1/108 292/1/110
f 293/1/7 294/1/7 295/1/7
f 294/1/7 293/1/7 296/1/7
f 297/1/111 298/1/111 299/1/111
f 297/1/111 299/1/111 300/1/111
f 301/1/111 302/1/111 303/1/111
f 302/1/111 301/1/111 304/1/111
f 305/1/112 306/1/112 307/1/113
f 308/1/114 306/1/112 305/1/112
f 309/1/113 310/1/112 311/1/112
f 310/1/112 309/1/113 312/1/112
f 313/1/115 314/1/115 315/1/115
f 315/1/115 316/1/115 313/1/115
f 317/1/115 318/1/115 319/1/115
f 318/1/115 317/1/115 320/1/115
f 321/1/116 322/1/117 323/1/116
f 322/1/117 321/1/116 324/1/116
