# Blender 5.1.2
# www.blender.org
mtllib Gate-AND.mtl
o Gate-AND
v 1.065569 -0.082789 0.219408
v 0.980649 -0.082789 0.424408
v 0.980649 -0.237339 0.424408
v 0.980649 -0.082789 0.424408
v 1.065569 -0.082789 0.219408
v 0.845569 -0.082789 0.600508
v 1.094529 -0.082789 -0.000591
v 1.065569 -0.237339 0.219408
v 1.094529 -0.082789 -0.000591
v 1.065569 -0.082789 -0.220591
v 1.065569 -0.082789 -0.220591
v 1.065569 -0.237339 -0.220591
v 0.244529 -0.082789 0.849409
v -0.605471 -0.082789 -0.000591
v -0.605471 -0.082789 0.849409
v 0.244529 -0.082789 -0.850592
v 0.244529 -0.082789 0.849409
v 0.244529 -0.082789 0.849409
v 0.980649 -0.082789 -0.425591
v 0.244529 -0.082789 -0.850592
v -0.605471 -0.082789 -0.850592
v 0.464529 -0.082789 0.820509
v 0.244529 -0.082789 0.849409
v 0.464529 -0.237339 0.820509
v 0.464529 -0.082789 0.820509
v 0.669529 -0.082789 0.735609
v 0.669529 -0.082789 0.735609
v 0.845569 -0.082789 0.600508
v 0.845569 -0.237339 0.600508
v 0.845569 -0.082789 0.600508
v 0.845569 -0.082789 -0.601591
v 0.980649 -0.082789 -0.425591
v 0.980649 -0.237339 -0.425590
v 0.845569 -0.082789 -0.601591
v 0.464529 -0.082789 -0.821592
v 0.669529 -0.082789 -0.736691
v 0.845569 -0.082789 -0.601591
v 0.845569 -0.237339 -0.601591
v 0.669529 -0.082789 -0.736691
v 0.464529 -0.082789 -0.821592
v 0.464529 -0.237339 -0.821592
v 0.244529 -0.082789 -0.850592
v 0.244529 -0.082789 -0.850592
v 0.244529 -0.237339 -0.850592
v 0.244529 -0.082789 -0.850592
v 0.244529 -0.082789 -0.850592
v 0.244529 -0.237339 -0.850592
v 0.244529 -0.082789 -0.850592
v 0.244529 -0.237339 -0.850592
v 0.244529 -0.082789 0.849409
v 0.244529 -0.082789 0.849409
v 0.244529 -0.237339 0.849409
v 0.244529 -0.082789 0.849409
v 0.244529 -0.237339 0.849409
v -0.605471 -0.082789 0.849409
v -0.605471 -0.082789 -0.850592
v -0.605471 -0.237339 0.849409
v -0.605471 -0.082789 -0.850592
v 0.244529 -0.082789 -0.850592
v -0.605471 -0.237339 -0.850592
v 0.980649 -0.237339 -0.425590
v 1.065569 -0.237339 -0.220591
v 1.065569 -0.237339 0.219408
v 1.094529 -0.237339 -0.000591
v 1.094529 -0.237339 -0.000591
v 0.244529 -0.237339 -0.850592
v 0.244529 -0.237339 -0.850592
v 0.244529 -0.237339 -0.850592
v 0.244529 -0.237339 -0.850592
v 0.244529 -0.237339 0.849409
v 0.464529 -0.237339 -0.821592
v 0.669529 -0.237339 -0.736691
v 0.669529 -0.237339 -0.736691
v 0.845569 -0.237339 -0.601591
v 0.845569 -0.237339 -0.601591
v 0.845569 -0.237339 0.600508
v 0.980649 -0.237339 0.424408
v 0.845569 -0.237339 0.600508
v 0.669529 -0.237339 0.735609
v 0.669529 -0.237339 0.735609
v 0.464529 -0.237339 0.820509
v 0.244529 -0.237339 0.849409
v 0.244529 -0.237339 -0.850592
v 0.244529 -0.237339 -0.850592
v 0.244529 -0.237339 0.849409
v 0.244529 -0.237339 0.849409
v 0.244529 -0.237339 0.849409
v -0.605471 -0.237339 -0.850592
v -0.605471 -0.237339 0.849409
v 0.244529 -0.237339 0.849409
v -0.605471 -0.082789 0.849409
v -0.605471 -0.237339 0.849409
v -0.605471 -0.237339 -0.850592
v 0.244529 -0.237339 -0.850592
v 0.244529 -0.082789 0.849409
v 0.099549 0.064931 0.494408
v 0.099549 -0.085069 0.494408
v 0.147229 0.064931 0.556608
v 0.147229 -0.085069 0.556608
v 0.177199 0.064931 0.628908
v 0.177199 -0.085069 0.628908
v 0.187419 0.064931 0.706509
v 0.187419 -0.085069 0.706509
v 0.177199 0.064931 0.784208
v 0.177199 -0.085069 0.784208
v 0.147229 0.064931 0.856508
v 0.147229 -0.085069 0.856508
v 0.099549 0.064931 0.918709
v 0.099549 -0.085069 0.918709
v -0.316451 0.064931 0.824308
v -0.270891 0.033281 0.864908
v -0.306471 0.033281 0.818508
v -0.279041 0.064931 0.873009
v -0.328841 0.033281 0.764509
v -0.306471 0.033281 0.818508
v -0.339961 0.064931 0.767509
v -0.316451 0.064931 0.824308
v -0.336461 0.033281 0.706509
v -0.328841 0.033281 0.764509
v -0.347991 0.064931 0.706509
v -0.339961 0.064931 0.767509
v -0.328841 0.033281 0.648609
v -0.336461 0.033281 0.706509
v -0.347991 0.064931 0.706509
v -0.339961 0.064931 0.645609
v -0.306471 0.033281 0.594608
v -0.328841 0.033281 0.648609
v -0.339961 0.064931 0.645609
v -0.316451 0.064931 0.588808
v -0.270891 0.033281 0.548208
v -0.306471 0.033281 0.594608
v -0.316451 0.064931 0.588808
v -0.279041 0.064931 0.540108
v -0.262581 0.064931 0.446709
v -0.279041 0.064931 0.540108
v -0.230281 0.064931 0.502708
v -0.324711 0.064931 0.494408
v -0.316451 0.064931 0.588808
v -0.324711 0.064931 0.494408
v -0.372391 0.064931 0.556608
v -0.279041 0.064931 0.540108
v -0.112581 0.064931 0.406609
v -0.173511 0.064931 0.479208
v -0.112581 0.064931 0.471109
v -0.190231 0.064931 0.416809
v -0.173511 0.064931 0.479208
v -0.262581 0.064931 0.446709
v -0.230281 0.064931 0.502708
v -0.190231 0.064931 0.416809
v -0.402361 0.064931 0.628908
v -0.347991 0.064931 0.706509
v -0.339961 0.064931 0.645609
v -0.412581 0.064931 0.706509
v -0.347991 0.064931 0.706509
v -0.412581 0.064931 0.706509
v -0.402361 0.064931 0.784208
v -0.339961 0.064931 0.767509
v -0.372391 0.064931 0.856508
v -0.316451 0.064931 0.824308
v -0.402361 0.064931 0.784208
v -0.339961 0.064931 0.767509
v -0.402361 0.064931 0.628908
v -0.316451 0.064931 0.588808
v -0.372391 0.064931 0.556608
v -0.339961 0.064931 0.645609
v -0.230281 0.064931 0.910408
v -0.324711 0.064931 0.918709
v -0.262581 0.064931 0.966408
v -0.279041 0.064931 0.873009
v -0.173511 0.064931 0.933908
v -0.262581 0.064931 0.966408
v -0.190231 0.064931 0.996309
v -0.230281 0.064931 0.910408
v -0.112581 0.064931 0.942009
v -0.190231 0.064931 0.996309
v -0.112581 0.064931 1.006508
v -0.190231 0.064931 0.996309
v -0.112581 0.064931 0.942009
v -0.173511 0.064931 0.933908
v -0.279041 0.064931 0.873009
v -0.372391 0.064931 0.856508
v -0.324711 0.064931 0.918709
v -0.316451 0.064931 0.824308
v -0.112581 0.064931 1.006508
v -0.051651 0.064931 0.933908
v -0.112581 0.064931 0.942009
v -0.034931 0.064931 0.996309
v -0.034931 0.064931 0.996309
v 0.005119 0.064931 0.910408
v -0.051651 0.064931 0.933908
v 0.037419 0.064931 0.966408
v 0.005119 0.064931 0.910408
v 0.037419 0.064931 0.966408
v 0.053879 0.064931 0.873009
v 0.099549 0.064931 0.918709
v 0.147229 0.064931 0.856508
v 0.091289 0.064931 0.824308
v 0.099549 0.064931 0.918709
v 0.053879 0.064931 0.873009
v 0.114809 0.064931 0.645609
v 0.147229 0.064931 0.556608
v 0.091289 0.064931 0.588808
v 0.177199 0.064931 0.628908
v 0.147229 0.064931 0.856508
v 0.177199 0.064931 0.784208
v 0.091289 0.064931 0.824308
v 0.114809 0.064931 0.767509
v 0.114809 0.064931 0.767509
v 0.187419 0.064931 0.706509
v 0.122829 0.064931 0.706509
v 0.187419 0.064931 0.706509
v 0.114809 0.064931 0.767509
v 0.177199 0.064931 0.784208
v 0.122829 0.064931 0.706509
v 0.177199 0.064931 0.628908
v 0.114809 0.064931 0.645609
v 0.187419 0.064931 0.706509
v 0.037419 0.064931 0.446709
v -0.051651 0.064931 0.479208
v 0.005119 0.064931 0.502708
v -0.034931 0.064931 0.416809
v -0.034931 0.064931 0.416809
v -0.112581 0.064931 0.406609
v -0.051651 0.064931 0.479208
v -0.112581 0.064931 0.471109
v 0.091289 0.064931 0.588808
v 0.099549 0.064931 0.494408
v 0.053879 0.064931 0.540108
v 0.147229 0.064931 0.556608
v 0.053879 0.064931 0.540108
v 0.099549 0.064931 0.494408
v 0.005119 0.064931 0.502708
v 0.037419 0.064931 0.446709
v -0.042311 -0.032489 0.687708
v 0.021069 -0.017939 0.670708
v -0.049581 -0.032489 0.670208
v -0.112581 -0.037499 0.706509
v 0.007249 -0.017939 0.637409
v 0.071379 0.004721 0.657309
v 0.052349 0.004721 0.611309
v 0.103679 0.033281 0.648609
v 0.081309 0.033281 0.594608
v 0.071379 0.004721 0.657309
v 0.025789 -0.017939 0.706509
v 0.077869 0.004721 0.706509
v 0.111299 0.033281 0.706509
v 0.021069 -0.017939 0.670708
v 0.103679 0.033281 0.648609
v -0.042311 -0.032489 0.687708
v -0.039841 -0.032489 0.706509
v -0.112581 -0.037499 0.706509
v 0.111299 0.033281 0.706509
v 0.071379 0.004721 0.755808
v 0.103679 0.033281 0.764509
v 0.077869 0.004721 0.706509
v 0.025789 -0.017939 0.706509
v 0.021069 -0.017939 0.742409
v -0.042311 -0.032489 0.725409
v -0.039841 -0.032489 0.706509
v -0.112581 -0.037499 0.706509
v -0.112581 -0.037499 0.706509
v -0.049581 -0.032489 0.742908
v -0.042311 -0.032489 0.725409
v 0.021069 -0.017939 0.742409
v 0.007249 -0.017939 0.775709
v 0.071379 0.004721 0.755808
v 0.052349 0.004721 0.801809
v 0.103679 0.033281 0.764509
v 0.081309 0.033281 0.818508
v 0.045729 0.033281 0.864908
v 0.081309 0.033281 0.818508
v 0.052349 0.004721 0.801809
v 0.022089 0.004721 0.841209
v -0.014741 -0.017939 0.804409
v 0.007249 -0.017939 0.775709
v -0.061141 -0.032489 0.758009
v -0.049581 -0.032489 0.742908
v -0.112581 -0.037499 0.706509
v -0.076211 -0.032489 0.769508
v -0.014741 -0.017939 0.804409
v -0.061141 -0.032489 0.758009
v -0.112581 -0.037499 0.706509
v -0.043401 -0.017939 0.826408
v -0.017361 0.004721 0.871508
v 0.022089 0.004721 0.841209
v -0.000641 0.033281 0.900408
v 0.045729 0.033281 0.864908
v -0.076771 -0.017939 0.840208
v -0.017361 0.004721 0.871508
v -0.043401 -0.017939 0.826408
v -0.076211 -0.032489 0.769508
v -0.093751 -0.032489 0.776808
v -0.112581 -0.037499 0.706509
v -0.063291 0.004721 0.890509
v -0.054631 0.033281 0.922808
v -0.000641 0.033281 0.900408
v -0.161871 0.004721 0.890509
v -0.112581 0.033281 0.930408
v -0.112581 0.004721 0.897009
v -0.170531 0.033281 0.922808
v -0.148391 -0.017939 0.840208
v -0.112581 -0.017939 0.844908
v -0.131411 -0.032489 0.776808
v -0.112581 -0.032489 0.779308
v -0.112581 -0.037499 0.706509
v -0.161871 0.004721 0.890509
v -0.207801 0.004721 0.871508
v -0.224521 0.033281 0.900408
v -0.181761 -0.017939 0.826408
v -0.170531 0.033281 0.922808
v -0.148391 -0.017939 0.840208
v -0.148951 -0.032489 0.769508
v -0.131411 -0.032489 0.776808
v -0.112581 -0.037499 0.706509
v -0.112581 -0.037499 0.706509
v -0.164021 -0.032489 0.758009
v -0.148951 -0.032489 0.769508
v -0.210421 -0.017939 0.804409
v -0.181761 -0.017939 0.826408
v -0.207801 0.004721 0.871508
v -0.247251 0.004721 0.841209
v -0.224521 0.033281 0.900408
v -0.270891 0.033281 0.864908
v -0.270891 0.033281 0.864908
v -0.306471 0.033281 0.818508
v -0.277511 0.004721 0.801809
v -0.247251 0.004721 0.841209
v -0.210421 -0.017939 0.804409
v -0.232411 -0.017939 0.775709
v -0.164021 -0.032489 0.758009
v -0.175581 -0.032489 0.742908
v -0.112581 -0.037499 0.706509
v -0.232411 -0.017939 0.775709
v -0.182851 -0.032489 0.725409
v -0.246231 -0.017939 0.742409
v -0.175581 -0.032489 0.742908
v -0.112581 -0.037499 0.706509
v -0.277511 0.004721 0.801809
v -0.296541 0.004721 0.755808
v -0.328841 0.033281 0.764509
v -0.306471 0.033281 0.818508
v -0.181761 -0.017939 0.586708
v -0.148951 -0.032489 0.643509
v -0.148391 -0.017939 0.572908
v -0.131411 -0.032489 0.636309
v -0.112581 -0.037499 0.706509
v -0.161871 0.004721 0.522608
v -0.207801 0.004721 0.541609
v -0.224521 0.033281 0.512709
v -0.170531 0.033281 0.490309
v -0.112581 0.004721 0.516109
v -0.161871 0.004721 0.522608
v -0.148391 -0.017939 0.572908
v -0.170531 0.033281 0.490309
v -0.112581 -0.017939 0.568209
v -0.112581 0.033281 0.482708
v -0.131411 -0.032489 0.636309
v -0.112581 -0.032489 0.633808
v -0.112581 -0.037499 0.706509
v -0.112581 0.004721 0.516109
v -0.076771 -0.017939 0.572908
v -0.063291 0.004721 0.522608
v -0.054631 0.033281 0.490309
v -0.112581 -0.017939 0.568209
v -0.112581 0.033281 0.482708
v -0.093751 -0.032489 0.636309
v -0.112581 -0.032489 0.633808
v -0.112581 -0.037499 0.706509
v -0.112581 -0.037499 0.706509
v -0.076211 -0.032489 0.643509
v -0.093751 -0.032489 0.636309
v -0.076771 -0.017939 0.572908
v -0.043401 -0.017939 0.586708
v -0.063291 0.004721 0.522608
v -0.017361 0.004721 0.541609
v -0.054631 0.033281 0.490309
v -0.000641 0.033281 0.512709
v 0.045729 0.033281 0.548208
v -0.000641 0.033281 0.512709
v 0.022089 0.004721 0.571909
v -0.017361 0.004721 0.541609
v -0.043401 -0.017939 0.586708
v -0.014741 -0.017939 0.608709
v -0.076211 -0.032489 0.643509
v -0.061141 -0.032489 0.655109
v -0.112581 -0.037499 0.706509
v -0.049581 -0.032489 0.670208
v -0.014741 -0.017939 0.608709
v -0.061141 -0.032489 0.655109
v -0.112581 -0.037499 0.706509
v 0.007249 -0.017939 0.637409
v 0.022089 0.004721 0.571909
v 0.052349 0.004721 0.611309
v 0.045729 0.033281 0.548208
v 0.081309 0.033281 0.594608
v -0.112581 0.004721 0.897009
v -0.076771 -0.017939 0.840208
v -0.112581 -0.017939 0.844908
v -0.063291 0.004721 0.890509
v -0.093751 -0.032489 0.776808
v -0.112581 -0.032489 0.779308
v -0.112581 -0.037499 0.706509
v -0.112581 0.033281 0.930408
v -0.054631 0.033281 0.922808
v -0.303031 0.004721 0.706509
v -0.246231 -0.017939 0.742409
v -0.250951 -0.017939 0.706509
v -0.185321 -0.032489 0.706509
v -0.182851 -0.032489 0.725409
v -0.112581 -0.037499 0.706509
v -0.296541 0.004721 0.755808
v -0.336461 0.033281 0.706509
v -0.328841 0.033281 0.764509
v -0.296541 0.004721 0.657309
v -0.250951 -0.017939 0.706509
v -0.246231 -0.017939 0.670708
v -0.303031 0.004721 0.706509
v -0.185321 -0.032489 0.706509
v -0.182851 -0.032489 0.687708
v -0.112581 -0.037499 0.706509
v -0.328841 0.033281 0.648609
v -0.336461 0.033281 0.706509
v -0.306471 0.033281 0.594608
v -0.296541 0.004721 0.657309
v -0.277511 0.004721 0.611309
v -0.232411 -0.017939 0.637409
v -0.328841 0.033281 0.648609
v -0.246231 -0.017939 0.670708
v -0.175581 -0.032489 0.670208
v -0.182851 -0.032489 0.687708
v -0.112581 -0.037499 0.706509
v -0.112581 -0.037499 0.706509
v -0.164021 -0.032489 0.655109
v -0.175581 -0.032489 0.670208
v -0.210421 -0.017939 0.608709
v -0.232411 -0.017939 0.637409
v -0.277511 0.004721 0.611309
v -0.247251 0.004721 0.571909
v -0.270891 0.033281 0.548208
v -0.306471 0.033281 0.594608
v -0.148951 -0.032489 0.643509
v -0.210421 -0.017939 0.608709
v -0.164021 -0.032489 0.655109
v -0.112581 -0.037499 0.706509
v -0.181761 -0.017939 0.586708
v -0.247251 0.004721 0.571909
v -0.207801 0.004721 0.541609
v -0.224521 0.033281 0.512709
v -0.270891 0.033281 0.548208
v -0.190231 -0.085069 0.996309
v -0.112581 -0.085069 1.006508
v -0.190231 0.064931 0.996309
v -0.112581 0.064931 1.006508
v -0.262581 0.064931 0.966408
v -0.262581 -0.085069 0.966408
v -0.324711 0.064931 0.918709
v -0.324711 -0.085069 0.918709
v 0.099549 0.064931 0.918709
v 0.099549 -0.085069 0.918709
v 0.037419 0.064931 0.966408
v 0.037419 -0.085069 0.966408
v -0.034931 0.064931 0.996309
v -0.034931 -0.085069 0.996309
v -0.112581 0.064931 1.006508
v -0.112581 -0.085069 1.006508
v -0.224521 0.033281 0.512709
v -0.170531 0.033281 0.490309
v -0.173511 0.064931 0.479208
v -0.230281 0.064931 0.502708
v -0.170531 0.033281 0.490309
v -0.112581 0.033281 0.482708
v -0.112581 0.064931 0.471109
v -0.173511 0.064931 0.479208
v -0.054631 0.033281 0.490309
v -0.112581 0.033281 0.482708
v -0.112581 0.064931 0.471109
v -0.051651 0.064931 0.479208
v -0.054631 0.033281 0.490309
v -0.000641 0.033281 0.512709
v -0.051651 0.064931 0.479208
v 0.005119 0.064931 0.502708
v 0.045729 0.033281 0.548208
v 0.005119 0.064931 0.502708
v -0.000641 0.033281 0.512709
v 0.053879 0.064931 0.540108
v -0.224521 0.033281 0.512709
v -0.270891 0.033281 0.548208
v -0.230281 0.064931 0.502708
v -0.279041 0.064931 0.540108
v -0.324711 0.064931 0.918709
v -0.324711 -0.085069 0.918709
v -0.372391 0.064931 0.856508
v -0.372391 -0.085069 0.856508
v -0.402361 0.064931 0.784208
v -0.402361 -0.085069 0.784208
v -0.412581 0.064931 0.706509
v -0.412581 -0.085069 0.706509
v -0.402361 0.064931 0.628908
v -0.402361 -0.085069 0.628908
v -0.372391 0.064931 0.556608
v -0.372391 -0.085069 0.556608
v -0.324711 0.064931 0.494408
v -0.324711 -0.085069 0.494408
v 0.103679 0.033281 0.648609
v 0.081309 0.033281 0.594608
v 0.114809 0.064931 0.645609
v 0.091289 0.064931 0.588808
v 0.111299 0.033281 0.706509
v 0.103679 0.033281 0.648609
v 0.122829 0.064931 0.706509
v 0.114809 0.064931 0.645609
v 0.111299 0.033281 0.706509
v 0.103679 0.033281 0.764509
v 0.122829 0.064931 0.706509
v 0.114809 0.064931 0.767509
v 0.103679 0.033281 0.764509
v 0.081309 0.033281 0.818508
v 0.114809 0.064931 0.767509
v 0.091289 0.064931 0.824308
v 0.091289 0.064931 0.824308
v 0.045729 0.033281 0.864908
v 0.053879 0.064931 0.873009
v 0.081309 0.033281 0.818508
v 0.045729 0.033281 0.548208
v 0.081309 0.033281 0.594608
v 0.091289 0.064931 0.588808
v 0.053879 0.064931 0.540108
v 0.099549 -0.085069 0.494408
v -0.372391 -0.085069 0.856508
v -0.262581 -0.085069 0.446709
v -0.034931 -0.085069 0.416809
v 0.037419 -0.085069 0.446709
v -0.112581 -0.085069 0.406609
v -0.190231 -0.085069 0.416809
v 0.099549 -0.085069 0.918709
v 0.147229 -0.085069 0.556608
v -0.412581 -0.085069 0.706509
v -0.402361 -0.085069 0.784208
v -0.402361 -0.085069 0.628908
v -0.324711 -0.085069 0.494408
v -0.372391 -0.085069 0.556608
v 0.187419 -0.085069 0.706509
v 0.177199 -0.085069 0.628908
v 0.147229 -0.085069 0.856508
v 0.177199 -0.085069 0.784208
v -0.262581 -0.085069 0.966408
v -0.324711 -0.085069 0.918709
v -0.112581 -0.085069 1.006508
v -0.190231 -0.085069 0.996309
v 0.037419 -0.085069 0.966408
v -0.034931 -0.085069 0.996309
v -0.324711 0.064931 0.494408
v -0.324711 -0.085069 0.494408
v -0.262581 0.064931 0.446709
v -0.262581 -0.085069 0.446709
v -0.190231 0.064931 0.416809
v -0.190231 -0.085069 0.416809
v -0.112581 0.064931 0.406609
v -0.112581 -0.085069 0.406609
v -0.034931 0.064931 0.416809
v -0.034931 -0.085069 0.416809
v 0.037419 0.064931 0.446709
v 0.037419 -0.085069 0.446709
v 0.099549 0.064931 0.494408
v 0.099549 -0.085069 0.494408
v -0.000641 0.033281 0.900408
v 0.045729 0.033281 0.864908
v 0.005119 0.064931 0.910408
v 0.053879 0.064931 0.873009
v -0.054631 0.033281 0.922808
v -0.000641 0.033281 0.900408
v -0.051651 0.064931 0.933908
v 0.005119 0.064931 0.910408
v -0.112581 0.033281 0.930408
v -0.170531 0.033281 0.922808
v -0.112581 0.064931 0.942009
v -0.173511 0.064931 0.933908
v -0.224521 0.033281 0.900408
v -0.170531 0.033281 0.922808
v -0.173511 0.064931 0.933908
v -0.230281 0.064931 0.910408
v -0.224521 0.033281 0.900408
v -0.270891 0.033281 0.864908
v -0.230281 0.064931 0.910408
v -0.279041 0.064931 0.873009
v -0.112581 0.033281 0.930408
v -0.054631 0.033281 0.922808
v -0.112581 0.064931 0.942009
v -0.051651 0.064931 0.933908
v 0.099549 0.064931 -0.919792
v 0.099549 -0.085069 -0.919792
v 0.147229 0.064931 -0.857691
v 0.147229 -0.085069 -0.857691
v 0.177199 0.064931 -0.785292
v 0.177199 -0.085069 -0.785292
v 0.187419 0.064931 -0.707691
v 0.187419 -0.085069 -0.707691
v 0.177199 0.064931 -0.629992
v 0.177199 -0.085069 -0.629992
v 0.147229 0.064931 -0.557692
v 0.147229 -0.085069 -0.557692
v 0.099549 0.064931 -0.495491
v 0.099549 -0.085069 -0.495491
v -0.316451 0.064931 -0.589991
v -0.270891 0.033281 -0.549292
v -0.306471 0.033281 -0.595692
v -0.279031 0.064931 -0.541191
v -0.328831 0.033281 -0.649691
v -0.306471 0.033281 -0.595692
v -0.339961 0.064931 -0.646692
v -0.316451 0.064931 -0.589991
v -0.336461 0.033281 -0.707691
v -0.328831 0.033281 -0.649691
v -0.347981 0.064931 -0.707691
v -0.339961 0.064931 -0.646692
v -0.328831 0.033281 -0.765591
v -0.336461 0.033281 -0.707691
v -0.347981 0.064931 -0.707691
v -0.339961 0.064931 -0.768591
v -0.306471 0.033281 -0.819592
v -0.328831 0.033281 -0.765591
v -0.339961 0.064931 -0.768591
v -0.316451 0.064931 -0.825392
v -0.270891 0.033281 -0.865992
v -0.306471 0.033281 -0.819592
v -0.316451 0.064931 -0.825392
v -0.279031 0.064931 -0.874092
v -0.262581 0.064931 -0.967491
v -0.279031 0.064931 -0.874092
v -0.230281 0.064931 -0.911491
v -0.324711 0.064931 -0.919792
v -0.316451 0.064931 -0.825392
v -0.324711 0.064931 -0.919792
v -0.372391 0.064931 -0.857691
v -0.279031 0.064931 -0.874092
v -0.112581 0.064931 -1.007692
v -0.173501 0.064931 -0.934992
v -0.112581 0.064931 -0.943092
v -0.190221 0.064931 -0.997391
v -0.173501 0.064931 -0.934992
v -0.262581 0.064931 -0.967491
v -0.230281 0.064931 -0.911491
v -0.190221 0.064931 -0.997391
v -0.402361 0.064931 -0.785292
v -0.347981 0.064931 -0.707691
v -0.339961 0.064931 -0.768591
v -0.412581 0.064931 -0.707691
v -0.347981 0.064931 -0.707691
v -0.412581 0.064931 -0.707691
v -0.402361 0.064931 -0.629992
v -0.339961 0.064931 -0.646692
v -0.372391 0.064931 -0.557692
v -0.316451 0.064931 -0.589991
v -0.402361 0.064931 -0.629992
v -0.339961 0.064931 -0.646692
v -0.402361 0.064931 -0.785292
v -0.316451 0.064931 -0.825392
v -0.372391 0.064931 -0.857691
v -0.339961 0.064931 -0.768591
v -0.230281 0.064931 -0.503792
v -0.324711 0.064931 -0.495491
v -0.262581 0.064931 -0.447891
v -0.279031 0.064931 -0.541191
v -0.173501 0.064931 -0.480291
v -0.262581 0.064931 -0.447891
v -0.190221 0.064931 -0.417891
v -0.230281 0.064931 -0.503792
v -0.112581 0.064931 -0.472292
v -0.190221 0.064931 -0.417891
v -0.112581 0.064931 -0.407692
v -0.190221 0.064931 -0.417891
v -0.112581 0.064931 -0.472292
v -0.173501 0.064931 -0.480291
v -0.279031 0.064931 -0.541191
v -0.372391 0.064931 -0.557692
v -0.324711 0.064931 -0.495491
v -0.316451 0.064931 -0.589991
v -0.112581 0.064931 -0.407692
v -0.051651 0.064931 -0.480291
v -0.112581 0.064931 -0.472292
v -0.034931 0.064931 -0.417891
v -0.034931 0.064931 -0.417891
v 0.005129 0.064931 -0.503792
v -0.051651 0.064931 -0.480291
v 0.037419 0.064931 -0.447891
v 0.005129 0.064931 -0.503792
v 0.037419 0.064931 -0.447891
v 0.053879 0.064931 -0.541191
v 0.099549 0.064931 -0.495491
v 0.147229 0.064931 -0.557692
v 0.091289 0.064931 -0.589991
v 0.099549 0.064931 -0.495491
v 0.053879 0.064931 -0.541191
v 0.114809 0.064931 -0.768591
v 0.147229 0.064931 -0.857691
v 0.091289 0.064931 -0.825392
v 0.177199 0.064931 -0.785292
v 0.147229 0.064931 -0.557692
v 0.177199 0.064931 -0.629992
v 0.091289 0.064931 -0.589991
v 0.114809 0.064931 -0.646692
v 0.114809 0.064931 -0.646692
v 0.187419 0.064931 -0.707691
v 0.122829 0.064931 -0.707691
v 0.187419 0.064931 -0.707691
v 0.114809 0.064931 -0.646692
v 0.177199 0.064931 -0.629992
v 0.122829 0.064931 -0.707691
v 0.177199 0.064931 -0.785292
v 0.114809 0.064931 -0.768591
v 0.187419 0.064931 -0.707691
v 0.037419 0.064931 -0.967491
v -0.051651 0.064931 -0.934992
v 0.005129 0.064931 -0.911491
v -0.034931 0.064931 -0.997391
v -0.034931 0.064931 -0.997391
v -0.112581 0.064931 -1.007692
v -0.051651 0.064931 -0.934992
v -0.112581 0.064931 -0.943092
v 0.091289 0.064931 -0.825392
v 0.099549 0.064931 -0.919792
v 0.053879 0.064931 -0.874092
v 0.147229 0.064931 -0.857691
v 0.053879 0.064931 -0.874092
v 0.099549 0.064931 -0.919792
v 0.005129 0.064931 -0.911491
v 0.037419 0.064931 -0.967491
v -0.042311 -0.032489 -0.726492
v 0.021079 -0.017939 -0.743492
v -0.049581 -0.032489 -0.743992
v -0.112581 -0.037499 -0.707691
v 0.007249 -0.017939 -0.776791
v 0.071379 0.004721 -0.756992
v 0.052349 0.004721 -0.802891
v 0.103679 0.033281 -0.765591
v 0.081309 0.033281 -0.819592
v 0.071379 0.004721 -0.756992
v 0.025789 -0.017939 -0.707691
v 0.077869 0.004721 -0.707691
v 0.111309 0.033281 -0.707691
v 0.021079 -0.017939 -0.743492
v 0.103679 0.033281 -0.765591
v -0.042311 -0.032489 -0.726492
v -0.039831 -0.032489 -0.707691
v -0.112581 -0.037499 -0.707691
v 0.111309 0.033281 -0.707691
v 0.071379 0.004721 -0.658392
v 0.103679 0.033281 -0.649691
v 0.077869 0.004721 -0.707691
v 0.025789 -0.017939 -0.707691
v 0.021079 -0.017939 -0.671791
v -0.042311 -0.032489 -0.688791
v -0.039831 -0.032489 -0.707691
v -0.112581 -0.037499 -0.707691
v -0.112581 -0.037499 -0.707691
v -0.049581 -0.032489 -0.671291
v -0.042311 -0.032489 -0.688791
v 0.021079 -0.017939 -0.671791
v 0.007249 -0.017939 -0.638491
v 0.071379 0.004721 -0.658392
v 0.052349 0.004721 -0.612391
v 0.103679 0.033281 -0.649691
v 0.081309 0.033281 -0.595692
v 0.045729 0.033281 -0.549292
v 0.081309 0.033281 -0.595692
v 0.052349 0.004721 -0.612391
v 0.022089 0.004721 -0.572992
v -0.014741 -0.017939 -0.609791
v 0.007249 -0.017939 -0.638491
v -0.061141 -0.032489 -0.656191
v -0.049581 -0.032489 -0.671291
v -0.112581 -0.037499 -0.707691
v -0.076211 -0.032489 -0.644691
v -0.014741 -0.017939 -0.609791
v -0.061141 -0.032489 -0.656191
v -0.112581 -0.037499 -0.707691
v -0.043391 -0.017939 -0.587791
v -0.017351 0.004721 -0.542692
v 0.022089 0.004721 -0.572992
v -0.000641 0.033281 -0.513792
v 0.045729 0.033281 -0.549292
v -0.076771 -0.017939 -0.573992
v -0.017351 0.004721 -0.542692
v -0.043391 -0.017939 -0.587791
v -0.076211 -0.032489 -0.644691
v -0.093751 -0.032489 -0.637392
v -0.112581 -0.037499 -0.707691
v -0.063291 0.004721 -0.523691
v -0.054631 0.033281 -0.491392
v -0.000641 0.033281 -0.513792
v -0.161871 0.004721 -0.523691
v -0.112581 0.033281 -0.483791
v -0.112581 0.004721 -0.517191
v -0.170521 0.033281 -0.491392
v -0.148391 -0.017939 -0.573992
v -0.112581 -0.017939 -0.569292
v -0.131411 -0.032489 -0.637392
v -0.112581 -0.032489 -0.634892
v -0.112581 -0.037499 -0.707691
v -0.161871 0.004721 -0.523691
v -0.207801 0.004721 -0.542692
v -0.224521 0.033281 -0.513792
v -0.181761 -0.017939 -0.587791
v -0.170521 0.033281 -0.491392
v -0.148391 -0.017939 -0.573992
v -0.148951 -0.032489 -0.644691
v -0.131411 -0.032489 -0.637392
v -0.112581 -0.037499 -0.707691
v -0.112581 -0.037499 -0.707691
v -0.164021 -0.032489 -0.656191
v -0.148951 -0.032489 -0.644691
v -0.210421 -0.017939 -0.609791
v -0.181761 -0.017939 -0.587791
v -0.207801 0.004721 -0.542692
v -0.247241 0.004721 -0.572992
v -0.224521 0.033281 -0.513792
v -0.270891 0.033281 -0.549292
v -0.270891 0.033281 -0.549292
v -0.306471 0.033281 -0.595692
v -0.277511 0.004721 -0.612391
v -0.247241 0.004721 -0.572992
v -0.210421 -0.017939 -0.609791
v -0.232411 -0.017939 -0.638491
v -0.164021 -0.032489 -0.656191
v -0.175581 -0.032489 -0.671291
v -0.112581 -0.037499 -0.707691
v -0.232411 -0.017939 -0.638491
v -0.182841 -0.032489 -0.688791
v -0.246231 -0.017939 -0.671791
v -0.175581 -0.032489 -0.671291
v -0.112581 -0.037499 -0.707691
v -0.277511 0.004721 -0.612391
v -0.296541 0.004721 -0.658392
v -0.328831 0.033281 -0.649691
v -0.306471 0.033281 -0.595692
v -0.181761 -0.017939 -0.827492
v -0.148951 -0.032489 -0.770691
v -0.148391 -0.017939 -0.841291
v -0.131411 -0.032489 -0.777891
v -0.112581 -0.037499 -0.707691
v -0.161871 0.004721 -0.891592
v -0.207801 0.004721 -0.872591
v -0.224521 0.033281 -0.901491
v -0.170521 0.033281 -0.923891
v -0.112581 0.004721 -0.898092
v -0.161871 0.004721 -0.891592
v -0.148391 -0.017939 -0.841291
v -0.170521 0.033281 -0.923891
v -0.112581 -0.017939 -0.845991
v -0.112581 0.033281 -0.931492
v -0.131411 -0.032489 -0.777891
v -0.112581 -0.032489 -0.780392
v -0.112581 -0.037499 -0.707691
v -0.112581 0.004721 -0.898092
v -0.076771 -0.017939 -0.841291
v -0.063291 0.004721 -0.891592
v -0.054631 0.033281 -0.923891
v -0.112581 -0.017939 -0.845991
v -0.112581 0.033281 -0.931492
v -0.093751 -0.032489 -0.777891
v -0.112581 -0.032489 -0.780392
v -0.112581 -0.037499 -0.707691
v -0.112581 -0.037499 -0.707691
v -0.076211 -0.032489 -0.770691
v -0.093751 -0.032489 -0.777891
v -0.076771 -0.017939 -0.841291
v -0.043391 -0.017939 -0.827492
v -0.063291 0.004721 -0.891592
v -0.017351 0.004721 -0.872591
v -0.054631 0.033281 -0.923891
v -0.000641 0.033281 -0.901491
v 0.045729 0.033281 -0.865992
v -0.000641 0.033281 -0.901491
v 0.022089 0.004721 -0.842291
v -0.017351 0.004721 -0.872591
v -0.043391 -0.017939 -0.827492
v -0.014741 -0.017939 -0.805490
v -0.076211 -0.032489 -0.770691
v -0.061141 -0.032489 -0.759092
v -0.112581 -0.037499 -0.707691
v -0.049581 -0.032489 -0.743992
v -0.014741 -0.017939 -0.805490
v -0.061141 -0.032489 -0.759092
v -0.112581 -0.037499 -0.707691
v 0.007249 -0.017939 -0.776791
v 0.022089 0.004721 -0.842291
v 0.052349 0.004721 -0.802891
v 0.045729 0.033281 -0.865992
v 0.081309 0.033281 -0.819592
v -0.112581 0.004721 -0.517191
v -0.076771 -0.017939 -0.573992
v -0.112581 -0.017939 -0.569292
v -0.063291 0.004721 -0.523691
v -0.093751 -0.032489 -0.637392
v -0.112581 -0.032489 -0.634892
v -0.112581 -0.037499 -0.707691
v -0.112581 0.033281 -0.483791
v -0.054631 0.033281 -0.491392
v -0.303021 0.004721 -0.707691
v -0.246231 -0.017939 -0.671791
v -0.250951 -0.017939 -0.707691
v -0.185321 -0.032489 -0.707691
v -0.182841 -0.032489 -0.688791
v -0.112581 -0.037499 -0.707691
v -0.296541 0.004721 -0.658392
v -0.336461 0.033281 -0.707691
v -0.328831 0.033281 -0.649691
v -0.296541 0.004721 -0.756992
v -0.250951 -0.017939 -0.707691
v -0.246231 -0.017939 -0.743492
v -0.303021 0.004721 -0.707691
v -0.185321 -0.032489 -0.707691
v -0.182841 -0.032489 -0.726492
v -0.112581 -0.037499 -0.707691
v -0.328831 0.033281 -0.765591
v -0.336461 0.033281 -0.707691
v -0.306471 0.033281 -0.819592
v -0.296541 0.004721 -0.756992
v -0.277511 0.004721 -0.802891
v -0.232411 -0.017939 -0.776791
v -0.328831 0.033281 -0.765591
v -0.246231 -0.017939 -0.743492
v -0.175581 -0.032489 -0.743992
v -0.182841 -0.032489 -0.726492
v -0.112581 -0.037499 -0.707691
v -0.112581 -0.037499 -0.707691
v -0.164021 -0.032489 -0.759092
v -0.175581 -0.032489 -0.743992
v -0.210421 -0.017939 -0.805490
v -0.232411 -0.017939 -0.776791
v -0.277511 0.004721 -0.802891
v -0.247241 0.004721 -0.842291
v -0.270891 0.033281 -0.865992
v -0.306471 0.033281 -0.819592
v -0.148951 -0.032489 -0.770691
v -0.210421 -0.017939 -0.805490
v -0.164021 -0.032489 -0.759092
v -0.112581 -0.037499 -0.707691
v -0.181761 -0.017939 -0.827492
v -0.247241 0.004721 -0.842291
v -0.207801 0.004721 -0.872591
v -0.224521 0.033281 -0.901491
v -0.270891 0.033281 -0.865992
v -0.190221 -0.085069 -0.417891
v -0.112581 -0.085069 -0.407692
v -0.190221 0.064931 -0.417891
v -0.112581 0.064931 -0.407692
v -0.262581 0.064931 -0.447891
v -0.262581 -0.085069 -0.447891
v -0.324711 0.064931 -0.495491
v -0.324711 -0.085069 -0.495491
v 0.099549 0.064931 -0.495491
v 0.099549 -0.085069 -0.495491
v 0.037419 0.064931 -0.447891
v 0.037419 -0.085069 -0.447891
v -0.034931 0.064931 -0.417891
v -0.034931 -0.085069 -0.417891
v -0.112581 0.064931 -0.407692
v -0.112581 -0.085069 -0.407692
v -0.224521 0.033281 -0.901491
v -0.170521 0.033281 -0.923891
v -0.173501 0.064931 -0.934992
v -0.230281 0.064931 -0.911491
v -0.170521 0.033281 -0.923891
v -0.112581 0.033281 -0.931492
v -0.112581 0.064931 -0.943092
v -0.173501 0.064931 -0.934992
v -0.054631 0.033281 -0.923891
v -0.112581 0.033281 -0.931492
v -0.112581 0.064931 -0.943092
v -0.051651 0.064931 -0.934992
v -0.054631 0.033281 -0.923891
v -0.000641 0.033281 -0.901491
v -0.051651 0.064931 -0.934992
v 0.005129 0.064931 -0.911491
v 0.045729 0.033281 -0.865992
v 0.005129 0.064931 -0.911491
v -0.000641 0.033281 -0.901491
v 0.053879 0.064931 -0.874092
v -0.224521 0.033281 -0.901491
v -0.270891 0.033281 -0.865992
v -0.230281 0.064931 -0.911491
v -0.279031 0.064931 -0.874092
v -0.324711 0.064931 -0.495491
v -0.324711 -0.085069 -0.495491
v -0.372391 0.064931 -0.557692
v -0.372391 -0.085069 -0.557692
v -0.402361 0.064931 -0.629992
v -0.402361 -0.085069 -0.629992
v -0.412581 0.064931 -0.707691
v -0.412581 -0.085069 -0.707691
v -0.402361 0.064931 -0.785292
v -0.402361 -0.085069 -0.785292
v -0.372391 0.064931 -0.857691
v -0.372391 -0.085069 -0.857691
v -0.324711 0.064931 -0.919792
v -0.324711 -0.085069 -0.919792
v 0.103679 0.033281 -0.765591
v 0.081309 0.033281 -0.819592
v 0.114809 0.064931 -0.768591
v 0.091289 0.064931 -0.825392
v 0.111309 0.033281 -0.707691
v 0.103679 0.033281 -0.765591
v 0.122829 0.064931 -0.707691
v 0.114809 0.064931 -0.768591
v 0.111309 0.033281 -0.707691
v 0.103679 0.033281 -0.649691
v 0.122829 0.064931 -0.707691
v 0.114809 0.064931 -0.646692
v 0.103679 0.033281 -0.649691
v 0.081309 0.033281 -0.595692
v 0.114809 0.064931 -0.646692
v 0.091289 0.064931 -0.589991
v 0.091289 0.064931 -0.589991
v 0.045729 0.033281 -0.549292
v 0.053879 0.064931 -0.541191
v 0.081309 0.033281 -0.595692
v 0.045729 0.033281 -0.865992
v 0.081309 0.033281 -0.819592
v 0.091289 0.064931 -0.825392
v 0.053879 0.064931 -0.874092
v 0.099549 -0.085069 -0.919792
v -0.372391 -0.085069 -0.557692
v -0.262581 -0.085069 -0.967491
v -0.034931 -0.085069 -0.997391
v 0.037419 -0.085069 -0.967491
v -0.112581 -0.085069 -1.007692
v -0.190221 -0.085069 -0.997391
v 0.099549 -0.085069 -0.495491
v 0.147229 -0.085069 -0.857691
v -0.412581 -0.085069 -0.707691
v -0.402361 -0.085069 -0.629992
v -0.402361 -0.085069 -0.785292
v -0.324711 -0.085069 -0.919792
v -0.372391 -0.085069 -0.857691
v 0.187419 -0.085069 -0.707691
v 0.177199 -0.085069 -0.785292
v 0.147229 -0.085069 -0.557692
v 0.177199 -0.085069 -0.629992
v -0.262581 -0.085069 -0.447891
v -0.324711 -0.085069 -0.495491
v -0.112581 -0.085069 -0.407692
v -0.190221 -0.085069 -0.417891
v 0.037419 -0.085069 -0.447891
v -0.034931 -0.085069 -0.417891
v -0.324711 0.064931 -0.919792
v -0.324711 -0.085069 -0.919792
v -0.262581 0.064931 -0.967491
v -0.262581 -0.085069 -0.967491
v -0.190221 0.064931 -0.997391
v -0.190221 -0.085069 -0.997391
v -0.112581 0.064931 -1.007692
v -0.112581 -0.085069 -1.007692
v -0.034931 0.064931 -0.997391
v -0.034931 -0.085069 -0.997391
v 0.037419 0.064931 -0.967491
v 0.037419 -0.085069 -0.967491
v 0.099549 0.064931 -0.919792
v 0.099549 -0.085069 -0.919792
v -0.000641 0.033281 -0.513792
v 0.045729 0.033281 -0.549292
v 0.005129 0.064931 -0.503792
v 0.053879 0.064931 -0.541191
v -0.054631 0.033281 -0.491392
v -0.000641 0.033281 -0.513792
v -0.051651 0.064931 -0.480291
v 0.005129 0.064931 -0.503792
v -0.112581 0.033281 -0.483791
v -0.170521 0.033281 -0.491392
v -0.112581 0.064931 -0.472292
v -0.173501 0.064931 -0.480291
v -0.224521 0.033281 -0.513792
v -0.170521 0.033281 -0.491392
v -0.173501 0.064931 -0.480291
v -0.230281 0.064931 -0.503792
v -0.224521 0.033281 -0.513792
v -0.270891 0.033281 -0.549292
v -0.230281 0.064931 -0.503792
v -0.279031 0.064931 -0.541191
v -0.112581 0.033281 -0.483791
v -0.054631 0.033281 -0.491392
v -0.112581 0.064931 -0.472292
v -0.051651 0.064931 -0.480291
v 1.094529 0.039931 -0.240591
v 1.034519 -0.110069 -0.300591
v 1.034519 0.039931 -0.300591
v 1.094529 -0.110069 -0.240591
v 1.064529 0.089931 -0.210592
v 1.004529 0.039931 -0.270592
v 1.004529 0.089931 -0.270592
v 1.064529 0.039931 -0.210592
v 1.094529 0.039931 0.239408
v 1.094529 -0.110069 -0.240591
v 1.094529 0.039931 -0.240591
v 1.094529 -0.110069 0.239409
v 1.064529 0.089931 0.209408
v 1.064529 0.039931 -0.210592
v 1.064529 0.089931 -0.210592
v 1.064529 0.039931 0.209408
v 0.584519 0.089931 0.269409
v 1.004529 0.089931 0.269409
v 1.004529 0.089931 -0.270592
v 1.064529 0.089931 0.209408
v 1.064529 0.089931 -0.210592
v 0.524529 0.089931 0.209408
v 0.584519 0.089931 -0.270592
v 0.524529 0.089931 -0.210592
v 0.554529 0.039931 0.299408
v 1.034519 0.039931 0.299408
v 1.034519 0.039931 -0.300591
v 1.094529 0.039931 0.239408
v 1.094529 0.039931 -0.240591
v 0.494519 0.039931 0.239408
v 0.554529 0.039931 -0.300591
v 0.494519 0.039931 -0.240591
v 0.554529 0.039931 0.299408
v 0.494519 0.039931 0.239408
v 0.554529 -0.110069 0.299408
v 0.494519 -0.110069 0.239409
v 1.094529 0.039931 0.239408
v 1.034519 0.039931 0.299408
v 1.094529 -0.110069 0.239409
v 1.034519 -0.110069 0.299408
v 0.524529 0.039931 0.209408
v 0.584519 0.039931 0.269409
v 0.524529 0.089931 0.209408
v 0.584519 0.089931 0.269409
v 1.004529 0.039931 0.269409
v 1.064529 0.039931 0.209408
v 1.004529 0.089931 0.269409
v 1.064529 0.089931 0.209408
v 0.554529 0.039931 0.299408
v 1.034519 -0.110069 0.299408
v 1.034519 0.039931 0.299408
v 0.554529 -0.110069 0.299408
v 0.584519 0.089931 0.269409
v 1.004529 0.039931 0.269409
v 1.004529 0.089931 0.269409
v 0.584519 0.039931 0.269409
v 0.494519 0.039931 -0.240591
v 0.554529 0.039931 -0.300591
v 0.494519 -0.110069 -0.240591
v 0.554529 -0.110069 -0.300591
v 0.584519 0.039931 -0.270592
v 0.524529 0.039931 -0.210592
v 0.584519 0.089931 -0.270592
v 0.524529 0.089931 -0.210592
v 0.494519 0.039931 -0.240591
v 0.494519 -0.110069 0.239409
v 0.494519 0.039931 0.239408
v 0.494519 -0.110069 -0.240591
v 0.524529 0.089931 -0.210592
v 0.524529 0.039931 0.209408
v 0.524529 0.089931 0.209408
v 0.524529 0.039931 -0.210592
v 0.554529 -0.110069 -0.300591
v 1.034519 -0.110069 -0.300591
v 1.094529 -0.110069 0.239409
v 1.094529 -0.110069 -0.240591
v 1.034519 -0.110069 0.299408
v 0.554529 -0.110069 0.299408
v 0.494519 -0.110069 0.239409
v 0.494519 -0.110069 -0.240591
v 1.034519 0.039931 -0.300591
v 0.554529 -0.110069 -0.300591
v 0.554529 0.039931 -0.300591
v 1.034519 -0.110069 -0.300591
v 1.004529 0.089931 -0.270592
v 0.584519 0.039931 -0.270592
v 0.584519 0.089931 -0.270592
v 1.004529 0.039931 -0.270592
vn 0.9658 -0.0000 0.2592
vn 0.8677 -0.0000 0.4970
vn 0.8678 -0.0000 0.4970
vn -0.0000 1.0000 -0.0000
vn 1.0000 -0.0000 -0.0000
vn 0.9658 -0.0000 -0.2592
vn -0.0000 -0.0000 -1.0000
vn -0.0000 -0.0000 -0.0000
vn -0.0000 -0.0000 1.0000
vn -0.0000 1.0000 0.0001
vn 0.2590 -0.0000 0.9659
vn 0.2591 -0.0000 0.9658
vn 0.4970 -0.0000 0.8677
vn 0.7071 -0.0000 0.7071
vn 0.7071 -0.0000 -0.7071
vn 0.8643 -0.0000 -0.5029
vn 0.8644 -0.0000 -0.5029
vn 0.4970 -0.0000 -0.8677
vn 0.2592 -0.0000 -0.9658
vn -1.0000 -0.0000 -0.0000
vn -0.0000 -1.0000 -0.0000
vn 0.4970 -0.0000 -0.8678
vn 0.9658 -0.0000 -0.2593
vn 1.0000 -0.0000 -0.0001
vn 0.8643 -0.0000 0.5029
vn 0.8644 -0.0000 0.5029
vn 0.8128 0.3393 -0.4735
vn 0.5928 0.5453 -0.5927
vn 0.7266 0.5449 -0.4186
vn 0.6649 0.3404 -0.6649
vn 0.9082 0.3396 -0.2449
vn 0.8104 0.5429 -0.2203
vn 0.8128 0.3393 -0.4734
vn 0.9405 0.3398 -0.0000
vn 0.8381 0.5455 -0.0000
vn 0.9082 0.3396 -0.2448
vn 0.8104 0.5429 0.2203
vn 0.9082 0.3396 0.2448
vn 0.7266 0.5449 0.4185
vn 0.9081 0.3396 0.2449
vn 0.8104 0.5428 0.2203
vn 0.8128 0.3393 0.4735
vn 0.5927 0.5453 0.5927
vn 0.7266 0.5449 0.4186
vn 0.6649 0.3404 0.6649
vn -0.1413 0.9892 0.0392
vn -0.3081 0.9481 0.0790
vn -0.1257 0.9896 0.0707
vn -0.2765 0.9479 0.1580
vn -0.5254 0.8391 0.1412
vn -0.4713 0.8405 0.2671
vn -0.8104 0.5429 0.2203
vn -0.7265 0.5449 0.4185
vn -0.5254 0.8391 0.1411
vn -0.3162 0.9487 -0.0000
vn -0.5419 0.8404 -0.0000
vn -0.8380 0.5456 -0.0000
vn -0.1491 0.9888 -0.0000
vn -0.8381 0.5456 -0.0000
vn -0.5254 0.8391 -0.1411
vn -0.8104 0.5429 -0.2203
vn -0.3081 0.9481 -0.0790
vn -0.1413 0.9892 -0.0392
vn -0.1257 0.9896 -0.0707
vn -0.1413 0.9892 -0.0393
vn -0.2765 0.9479 -0.1580
vn -0.5254 0.8391 -0.1412
vn -0.4713 0.8405 -0.2671
vn -0.7265 0.5450 -0.4185
vn -0.5927 0.5453 -0.5927
vn -0.7265 0.5450 -0.4186
vn -0.3844 0.8394 -0.3844
vn -0.2287 0.9463 -0.2287
vn -0.1021 0.9895 -0.1021
vn -0.0707 0.9896 -0.1257
vn -0.1580 0.9479 -0.2765
vn -0.2671 0.8405 -0.4713
vn -0.3843 0.8394 -0.3844
vn -0.4185 0.5449 -0.7265
vn -0.0790 0.9481 -0.3081
vn -0.0707 0.9896 -0.1256
vn -0.0393 0.9892 -0.1413
vn -0.1412 0.8391 -0.5254
vn -0.2203 0.5429 -0.8104
vn -0.4185 0.5449 -0.7266
vn 0.1411 0.8391 -0.5254
vn -0.0000 0.5456 -0.8381
vn -0.0000 0.8404 -0.5419
vn 0.2203 0.5429 -0.8104
vn 0.0790 0.9481 -0.3081
vn -0.0000 0.9487 -0.3162
vn 0.0393 0.9892 -0.1413
vn -0.0000 0.9888 -0.1491
vn 0.1412 0.8391 -0.5254
vn 0.2671 0.8405 -0.4713
vn 0.4185 0.5450 -0.7265
vn 0.1580 0.9479 -0.2765
vn 0.0707 0.9896 -0.1256
vn 0.1021 0.9895 -0.1021
vn 0.0707 0.9896 -0.1257
vn 0.2287 0.9463 -0.2287
vn 0.3843 0.8394 -0.3844
vn 0.4186 0.5449 -0.7265
vn 0.5927 0.5453 -0.5927
vn 0.4713 0.8405 -0.2671
vn 0.7265 0.5450 -0.4185
vn 0.3844 0.8394 -0.3843
vn 0.2765 0.9479 -0.1580
vn 0.1257 0.9896 -0.0707
vn 0.1413 0.9892 -0.0393
vn 0.3081 0.9481 -0.0790
vn 0.1256 0.9896 -0.0707
vn 0.5254 0.8391 -0.1412
vn 0.7265 0.5449 -0.4185
vn 0.1580 0.9479 0.2765
vn 0.0707 0.9896 0.1257
vn 0.0790 0.9481 0.3081
vn 0.0393 0.9892 0.1413
vn 0.1411 0.8391 0.5254
vn 0.2671 0.8405 0.4713
vn 0.4185 0.5449 0.7265
vn 0.2203 0.5429 0.8104
vn -0.0000 0.8404 0.5419
vn -0.0000 0.9487 0.3162
vn -0.0000 0.5456 0.8381
vn 0.0392 0.9892 0.1413
vn -0.0000 0.9888 0.1491
vn -0.0790 0.9481 0.3081
vn -0.1411 0.8391 0.5254
vn -0.2203 0.5429 0.8104
vn -0.0392 0.9892 0.1413
vn -0.0707 0.9896 0.1257
vn -0.0393 0.9892 0.1413
vn -0.1580 0.9479 0.2765
vn -0.1412 0.8391 0.5254
vn -0.2671 0.8405 0.4713
vn -0.4186 0.5450 0.7265
vn -0.4186 0.5449 0.7265
vn -0.3844 0.8394 0.3844
vn -0.5927 0.5454 0.5927
vn -0.2287 0.9463 0.2287
vn -0.0707 0.9896 0.1256
vn -0.1021 0.9895 0.1021
vn -0.5927 0.5453 0.5927
vn -0.1411 0.8391 -0.5254
vn 0.5419 0.8404 -0.0000
vn 0.3162 0.9487 -0.0000
vn 0.1491 0.9888 -0.0000
vn 0.5254 0.8391 -0.1411
vn 0.8381 0.5456 -0.0000
vn 0.5254 0.8391 0.1411
vn 0.3081 0.9481 0.0790
vn 0.1413 0.9892 0.0392
vn 0.7265 0.5449 0.4186
vn 0.5254 0.8391 0.1412
vn 0.4713 0.8405 0.2671
vn 0.2765 0.9479 0.1580
vn 0.1257 0.9896 0.0707
vn 0.1413 0.9892 0.0393
vn 0.1021 0.9895 0.1021
vn 0.2287 0.9463 0.2287
vn 0.3844 0.8394 0.3843
vn 0.5927 0.5454 0.5927
vn 0.0707 0.9896 0.1256
vn 0.3844 0.8394 0.3844
vn 0.4185 0.5450 0.7265
vn -0.2591 -0.0000 0.9658
vn -0.2592 -0.0000 0.9658
vn -0.0001 -0.0000 1.0000
vn -0.5029 -0.0000 0.8644
vn -0.7071 -0.0000 0.7071
vn 0.5029 -0.0000 0.8644
vn 0.2592 -0.0000 0.9658
vn 0.0001 -0.0000 1.0000
vn 0.4186 0.5449 0.7266
vn 0.2449 0.3396 0.9081
vn 0.4735 0.3393 0.8128
vn 0.2203 0.5428 0.8104
vn -0.0000 0.5455 0.8381
vn -0.0000 0.3398 0.9405
vn 0.2448 0.3396 0.9082
vn -0.2448 0.3396 0.9082
vn -0.4185 0.5449 0.7266
vn -0.2449 0.3396 0.9081
vn -0.2203 0.5428 0.8104
vn -0.4735 0.3393 0.8128
vn -0.4186 0.5449 0.7266
vn -0.6649 0.3404 0.6649
vn -0.8644 -0.0000 0.5029
vn -0.8643 -0.0000 0.5029
vn -0.9659 -0.0000 0.2589
vn -0.9658 -0.0000 0.2592
vn -1.0000 -0.0000 -0.0001
vn -0.9659 -0.0000 -0.2590
vn -0.8644 -0.0000 -0.5029
vn -0.8643 -0.0000 -0.5029
vn -0.7071 -0.0000 -0.7071
vn -0.7266 0.5449 0.4186
vn -0.9082 0.3396 0.2449
vn -0.8128 0.3393 0.4735
vn -0.8381 0.5455 -0.0000
vn -0.9405 0.3398 -0.0000
vn -0.9082 0.3396 0.2448
vn -0.8104 0.5428 -0.2203
vn -0.9082 0.3396 -0.2448
vn -0.7266 0.5449 -0.4185
vn -0.8128 0.3393 -0.4734
vn -0.8128 0.3393 -0.4735
vn -0.5928 0.5453 -0.5927
vn -0.6649 0.3404 -0.6649
vn -0.7266 0.5449 -0.4186
vn -0.5029 -0.0000 -0.8644
vn -0.2592 -0.0000 -0.9658
vn -0.2591 -0.0000 -0.9658
vn 0.2591 -0.0000 -0.9658
vn 0.5029 -0.0000 -0.8644
vn -0.5927 0.5453 -0.5928
vn -0.4186 0.5449 -0.7266
vn -0.4735 0.3393 -0.8128
vn -0.2449 0.3396 -0.9081
vn -0.0000 0.3398 -0.9405
vn -0.0000 0.5455 -0.8381
vn 0.2448 0.3396 -0.9082
vn 0.4185 0.5449 -0.7266
vn 0.2449 0.3396 -0.9081
vn 0.2203 0.5428 -0.8104
vn 0.4735 0.3393 -0.8128
vn 0.5927 0.5453 -0.5928
vn 0.4186 0.5449 -0.7266
vn -0.2448 0.3396 -0.9082
vn 0.5928 0.5453 0.5927
vn -0.1413 0.9892 0.0393
vn -0.7266 0.5449 0.4185
vn -0.5927 0.5454 -0.5927
vn -0.4186 0.5450 -0.7265
vn -0.4185 0.5450 -0.7265
vn 0.3844 0.8394 -0.3844
vn 0.1412 0.8391 0.5254
vn 0.4185 0.5449 0.7266
vn -0.4185 0.5450 0.7265
vn 0.1413 0.9892 -0.0392
vn 0.7265 0.5450 0.4185
vn -0.2589 -0.0000 0.9659
vn -0.2593 -0.0000 0.9658
vn 0.5029 -0.0000 0.8643
vn 0.2589 -0.0000 0.9659
vn 0.2588 -0.0000 0.9659
vn 0.4734 0.3393 0.8128
vn -0.0001 0.3398 0.9405
vn -0.4734 0.3393 0.8128
vn -0.5927 0.5453 0.5928
vn 0.5927 0.5453 0.5928
vn -0.9659 -0.0000 -0.2591
vn -0.2593 -0.0000 -0.9658
vn -0.2589 -0.0000 -0.9659
vn 0.2589 -0.0000 -0.9659
vn -0.6648 0.3404 -0.6649
vn -0.4734 0.3393 -0.8128
vn 0.4734 0.3393 -0.8128
vn 0.7070 -0.0000 -0.7072
vn 0.7071 -0.0000 -0.7072
vn -0.7071 -0.0000 0.7072
vn -0.7070 -0.0000 0.7072
vn 0.7070 -0.0000 0.7072
vn 0.7071 -0.0000 0.7072
vn -0.7072 -0.0000 0.7071
vn -0.7072 -0.0000 0.7070
vn -0.7070 -0.0000 -0.7072
vn -0.7071 -0.0000 -0.7072
vn -0.7072 -0.0000 -0.7071
vn -0.7072 -0.0000 -0.7070
vt 1.262240 -0.541356
vt 1.262240 -0.582356
vt 1.293150 -0.582356
vt 1.424920 -0.582356
vt 1.441910 -0.541356
vt 1.397910 -0.617564
vt 1.262240 -0.497357
vt 1.293150 -0.541356
vt 1.447700 -0.497357
vt 1.441910 -0.453357
vt 1.262240 -0.453357
vt 1.293150 -0.453357
vt 1.277700 -0.667356
vt 1.107700 -0.497357
vt 1.107700 -0.667356
vt 1.277700 -0.327356
vt 1.277700 -0.667357
vt 1.424920 -0.412356
vt -0.003781 1.598310
vt -0.423781 1.648310
vt -0.423781 1.598310
vt -0.003781 1.648310
vt 1.107700 -0.327356
vt 1.293150 -0.497356
vt 1.321700 -0.661564
vt 1.362700 -0.644581
vt 1.293150 -0.617565
vt 1.262240 -0.617565
vt 1.262240 -0.617564
vt 1.262240 -0.377148
vt 1.262240 -0.412356
vt 1.293150 -0.412356
vt 1.397910 -0.377148
vt 1.321700 -0.333149
vt 1.293150 -0.617564
vt 1.362700 -0.350132
vt 1.262240 -0.497356
vt 0.026219 1.448310
vt -0.453781 1.598310
vt -0.453781 1.448310
vt 1.293150 -0.497357
vt 1.262240 -0.327356
vt 1.293150 -0.327356
vt 0.026219 1.598310
vt 1.262240 -0.667356
vt 1.262240 -0.667357
vt 1.293150 -0.667357
vt 1.293150 -0.667356
vt 1.130470 -0.412356
vt 1.113490 -0.453357
vt 1.113490 -0.541356
vt -0.453781 1.248310
vt -0.513781 1.788310
vt -0.513781 1.308310
vt -0.453781 1.848310
vt 0.026219 1.848310
vt 0.086219 1.788310
vt 1.233700 -0.333149
vt 1.192700 -0.350132
vt 1.157490 -0.377148
vt 1.293150 -0.377148
vt 1.130470 -0.582356
vt 1.157490 -0.617564
vt 1.192700 -0.644581
vt 1.233700 -0.661564
vt 1.447700 -0.327356
vt 1.447700 -0.667356
vt 0.711943 0.424123
vt 0.774075 0.274123
vt 0.774075 0.424123
vt 0.711943 0.274123
vt 0.639589 0.424123
vt 0.639589 0.274123
vt 0.561943 0.424123
vt 0.561943 0.274123
vt 0.484297 0.424123
vt 0.484297 0.274123
vt 0.411943 0.424123
vt 0.411943 0.274123
vt 0.349811 0.424123
vt 0.349811 0.274123
vt 0.444240 0.424123
vt 0.403633 0.392469
vt 0.450001 0.392469
vt 0.395486 0.424123
vt 0.501015 0.424123
vt 0.503997 0.392469
vt 0.561943 0.392469
vt 0.619888 0.392469
vt 0.622870 0.424123
vt 0.673885 0.392469
vt 0.679646 0.424123
vt 0.720253 0.392469
vt 0.728400 0.424123
vt 0.711943 0.089316
vt 0.728400 0.182666
vt 0.679646 0.145256
vt 0.774075 0.136991
vt 0.765810 0.231420
vt 0.821751 0.199123
vt 0.561943 0.049123
vt 0.622870 0.121738
vt 0.561943 0.113717
vt 0.639589 0.059345
vt 0.851721 0.271477
vt 0.797349 0.349123
vt 0.789328 0.288196
vt 0.861943 0.349123
vt 0.851721 0.426769
vt 0.789328 0.410051
vt 0.821750 0.499123
vt 0.765810 0.466826
vt 0.679646 0.552991
vt 0.774075 0.561255
vt 0.711943 0.608931
vt 0.728400 0.515580
vt 0.622870 0.576508
vt 0.639589 0.638901
vt 0.561943 0.584529
vt 0.561943 0.649123
vt 0.501015 0.576508
vt 0.484297 0.638901
vt 0.444240 0.552991
vt 0.411943 0.608931
vt 0.395486 0.515580
vt 0.349811 0.561255
vt 0.302135 0.499123
vt 0.358075 0.466826
vt 0.334558 0.288196
vt 0.302135 0.199123
vt 0.358075 0.231420
vt 0.272165 0.271477
vt 0.272165 0.426769
vt 0.334558 0.410050
vt 0.261943 0.349123
vt 0.326537 0.349123
vt 0.411943 0.089315
vt 0.501015 0.121738
vt 0.444240 0.145256
vt 0.484297 0.059345
vt 0.349811 0.136991
vt 0.395486 0.182666
vt 0.491677 0.330296
vt 0.428290 0.313311
vt 0.498944 0.312751
vt 0.561943 0.349123
vt 0.442112 0.279939
vt 0.377985 0.299832
vt 0.397010 0.253899
vt 0.345687 0.291178
vt 0.368053 0.237181
vt 0.423575 0.349123
vt 0.371495 0.349123
vt 0.338059 0.349123
vt 0.489199 0.349123
vt 0.377985 0.398414
vt 0.345687 0.407068
vt 0.428290 0.384935
vt 0.491677 0.367951
vt 0.498944 0.385495
vt 0.442112 0.418307
vt 0.397010 0.444347
vt 0.368053 0.461065
vt 0.403633 0.507433
vt 0.427276 0.483790
vt 0.464102 0.446964
vt 0.510505 0.400561
vt 0.525571 0.412122
vt 0.492759 0.468953
vt 0.466719 0.514055
vt 0.450001 0.543013
vt 0.526131 0.482776
vt 0.543115 0.419389
vt 0.512651 0.533081
vt 0.503997 0.565379
vt 0.611234 0.533081
vt 0.561943 0.573007
vt 0.561943 0.539571
vt 0.619888 0.565379
vt 0.597755 0.482776
vt 0.561943 0.487491
vt 0.580770 0.419389
vt 0.561943 0.421867
vt 0.657167 0.514055
vt 0.673885 0.543013
vt 0.631127 0.468953
vt 0.598315 0.412122
vt 0.613381 0.400561
vt 0.659784 0.446964
vt 0.696609 0.483790
vt 0.720253 0.507433
vt 0.726875 0.444347
vt 0.755832 0.461065
vt 0.681773 0.418307
vt 0.624941 0.385495
vt 0.632209 0.367951
vt 0.695596 0.384935
vt 0.745901 0.398414
vt 0.778199 0.407069
vt 0.631127 0.229293
vt 0.598315 0.286124
vt 0.597755 0.215470
vt 0.580770 0.278857
vt 0.611234 0.165165
vt 0.657167 0.184191
vt 0.673885 0.155234
vt 0.619888 0.132867
vt 0.561943 0.158676
vt 0.561943 0.210755
vt 0.561943 0.125239
vt 0.561943 0.276379
vt 0.526131 0.215470
vt 0.512651 0.165165
vt 0.503997 0.132867
vt 0.543115 0.278857
vt 0.525571 0.286124
vt 0.492759 0.229293
vt 0.466719 0.184191
vt 0.450001 0.155234
vt 0.427276 0.214456
vt 0.403633 0.190813
vt 0.464102 0.251282
vt 0.510505 0.297685
vt 0.752390 0.349123
vt 0.700311 0.349123
vt 0.634687 0.349123
vt 0.785827 0.349123
vt 0.745901 0.299832
vt 0.695596 0.313311
vt 0.632209 0.330296
vt 0.778199 0.291178
vt 0.755832 0.237181
vt 0.726875 0.253899
vt 0.681773 0.279939
vt 0.624941 0.312751
vt 0.613381 0.297685
vt 0.659784 0.251282
vt 0.696609 0.214456
vt 0.720253 0.190813
vt 0.395485 0.424123
vt 0.411943 0.089316
vt 0.711943 0.089315
vt 0.821750 0.199123
vt 0.821751 0.499123
vt 0.129570 0.981564
vt 0.191703 0.831564
vt 0.191703 0.981564
vt 0.129570 0.831564
vt 0.057216 0.981564
vt 0.057216 0.831564
vt -0.020429 0.981564
vt -0.020429 0.831564
vt -0.098075 0.981564
vt -0.098075 0.831564
vt -0.170429 0.981564
vt -0.170429 0.831564
vt -0.232561 0.981564
vt -0.232561 0.831564
vt -0.138132 0.981564
vt -0.178740 0.949909
vt -0.132372 0.949909
vt -0.186887 0.981564
vt -0.081357 0.981564
vt -0.078375 0.949909
vt -0.020429 0.949909
vt 0.037516 0.949909
vt 0.040498 0.981564
vt 0.091513 0.949909
vt 0.097274 0.981564
vt 0.137881 0.949909
vt 0.146028 0.981564
vt 0.129570 0.646756
vt 0.146028 0.740106
vt 0.097273 0.702696
vt 0.191703 0.694432
vt 0.183438 0.788861
vt 0.239378 0.756564
vt -0.020429 0.606564
vt 0.040498 0.679179
vt -0.020429 0.671158
vt 0.057216 0.616786
vt 0.269348 0.828918
vt 0.214977 0.906564
vt 0.206955 0.845636
vt 0.279570 0.906564
vt 0.269348 0.984209
vt 0.206955 0.967491
vt 0.239378 1.056560
vt 0.183438 1.024270
vt 0.097274 1.110430
vt 0.191703 1.118700
vt 0.129570 1.166370
vt 0.146028 1.073020
vt 0.040498 1.133950
vt 0.057216 1.196340
vt -0.020429 1.141970
vt -0.020429 1.206560
vt -0.081357 1.133950
vt -0.098076 1.196340
vt -0.138132 1.110430
vt -0.170430 1.166370
vt -0.186887 1.073020
vt -0.232562 1.118700
vt -0.280237 1.056560
vt -0.224297 1.024270
vt -0.247814 0.845636
vt -0.280237 0.756564
vt -0.224297 0.788861
vt -0.310207 0.828918
vt -0.310207 0.984209
vt -0.247814 0.967491
vt -0.320430 0.906564
vt -0.255836 0.906564
vt -0.170430 0.646756
vt -0.081357 0.679179
vt -0.138132 0.702696
vt -0.098075 0.616786
vt -0.232561 0.694432
vt -0.186887 0.740106
vt -0.090695 0.887736
vt -0.154083 0.870751
vt -0.083428 0.870191
vt -0.020429 0.906564
vt -0.140260 0.837380
vt -0.204388 0.857272
vt -0.185362 0.811340
vt -0.236685 0.848618
vt -0.214319 0.794621
vt -0.158798 0.906564
vt -0.210877 0.906564
vt -0.244314 0.906564
vt -0.093174 0.906564
vt -0.204388 0.955855
vt -0.236685 0.964509
vt -0.154083 0.942376
vt -0.090695 0.925391
vt -0.083428 0.942936
vt -0.140260 0.975748
vt -0.185362 1.001790
vt -0.214319 1.018510
vt -0.178740 1.064870
vt -0.155096 1.041230
vt -0.118271 1.004400
vt -0.071868 0.958002
vt -0.056802 0.969562
vt -0.089614 1.026390
vt -0.115653 1.071500
vt -0.132372 1.100450
vt -0.056242 1.040220
vt -0.039257 0.976829
vt -0.069721 1.090520
vt -0.078375 1.122820
vt 0.028862 1.090520
vt -0.020429 1.130450
vt -0.020429 1.097010
vt 0.037516 1.122820
vt 0.015383 1.040220
vt -0.020429 1.044930
vt -0.001602 0.976829
vt -0.020429 0.979308
vt 0.074794 1.071500
vt 0.091513 1.100450
vt 0.048755 1.026390
vt 0.015943 0.969562
vt 0.031009 0.958002
vt 0.077412 1.004400
vt 0.114237 1.041230
vt 0.137881 1.064870
vt 0.144503 1.001790
vt 0.173460 1.018510
vt 0.099401 0.975748
vt 0.042569 0.942936
vt 0.049836 0.925391
vt 0.113224 0.942376
vt 0.163529 0.955855
vt 0.195826 0.964509
vt 0.048755 0.786733
vt 0.015943 0.843565
vt 0.015383 0.772910
vt -0.001602 0.836298
vt 0.028862 0.722606
vt 0.074794 0.741631
vt 0.091513 0.712674
vt 0.037516 0.690308
vt -0.020429 0.716116
vt -0.020429 0.768195
vt -0.020429 0.682679
vt -0.020429 0.833819
vt -0.056242 0.772910
vt -0.069721 0.722606
vt -0.078375 0.690308
vt -0.039257 0.836298
vt -0.056802 0.843565
vt -0.089614 0.786733
vt -0.115653 0.741631
vt -0.132372 0.712674
vt -0.155096 0.771897
vt -0.178740 0.748253
vt -0.118271 0.808723
vt -0.071868 0.855125
vt 0.170018 0.906564
vt 0.117939 0.906564
vt 0.052315 0.906564
vt 0.203455 0.906564
vt 0.163529 0.857272
vt 0.113224 0.870751
vt 0.049836 0.887736
vt 0.195826 0.848618
vt 0.173460 0.794621
vt 0.144503 0.811340
vt 0.099401 0.837380
vt 0.042569 0.870191
vt 0.031009 0.855125
vt 0.077412 0.808723
vt 0.114237 0.771897
vt 0.137881 0.748253
vt -0.170430 0.981564
vt -0.170430 0.831564
vt -0.232562 0.981564
vt -0.232562 0.831564
vt 0.129571 0.981564
vt 0.129571 0.831564
vt 0.057216 0.981564
vt 0.057216 0.831564
vt 0.097273 0.981564
vt -0.138133 0.981564
vt 0.037516 0.949909
vt 0.040498 0.981564
vt 0.091513 0.949909
vt 0.137880 0.949909
vt 0.191702 0.694432
vt -0.232562 0.694432
vt -0.098075 1.196340
vt 0.129571 1.166370
vt 0.057216 1.196340
vt 0.086219 1.448310
vt 0.086219 1.598310
vt 0.056219 1.598310
vt 0.056219 1.648310
vt -0.423782 1.648310
vt -0.423782 1.598310
vt -0.003781 1.818310
vt -0.423781 1.818310
vt -0.423781 1.278310
vt -0.483781 1.758310
vt -0.483781 1.338310
vt 0.056219 1.758310
vt -0.003781 1.278310
vt 0.056219 1.338310
vt 0.026219 1.248310
vt 0.086219 1.308310
vt -0.513781 1.598310
vt -0.513781 1.448310
vt -0.483781 1.598310
vt -0.483781 1.648310
vt 0.026219 1.448310
vt 0.026219 1.598310
vt -0.003781 1.598310
vt -0.003781 1.648310
s 1
usemtl Handle1Mtl.017
f 1/1/1 2/2/2 3/3/3
f 4/4/4 5/5/4 6/6/4
f 7/7/5 1/1/1 8/8/1
f 5/5/4 9/9/4 10/10/4
f 11/11/6 7/7/5 12/12/6
f 13/13/4 14/14/4 15/15/4
f 14/14/4 13/13/4 16/16/4
s 0
f 17/13/7 13/13/7 18/17/7
f 13/13/8 17/13/8 16/16/8
s 1
f 16/16/4 17/13/4 19/18/4
s 0
f 16/16/9 20/16/10 14/14/4
f 20/16/7 16/16/4 21/23/4
s 1
f 20/16/4 21/23/4 14/14/4
f 22/8/11 23/24/9 24/1/12
f 17/13/4 25/25/4 26/26/4
f 27/3/13 22/8/11 24/1/12
f 28/27/14 27/3/13 29/28/14
f 26/26/4 6/6/4 17/13/4
f 2/2/2 30/29/14 3/3/3
f 31/30/15 32/31/16 33/32/17
f 19/18/4 34/33/4 35/34/4
f 36/2/18 37/29/15 38/35/15
f 34/33/4 39/36/4 35/34/4
f 40/1/19 36/2/18 41/8/19
f 42/37/7 40/1/19 41/8/19
f 35/34/4 16/16/4 19/18/4
s 0
f 42/37/7 43/7/7 44/41/7
f 45/42/7 46/42/5 47/43/5
f 50/45/7 51/46/5 52/47/5
f 51/46/7 53/45/5 54/48/5
f 15/15/8 14/14/8 21/23/8
s 1
f 55/48/20 56/43/20 57/45/20
f 58/42/7 59/37/7 60/43/7
f 12/12/6 33/32/17 11/11/6
f 61/49/21 62/50/21 63/51/21
f 64/41/5 12/12/6 7/7/5
f 62/50/21 65/14/21 63/51/21
f 8/8/1 64/41/5 7/7/5
s 0
f 67/16/7 66/16/7 68/16/7
f 44/41/7 69/24/7 42/37/7
s 1
f 70/13/21 67/16/21 61/49/21
f 41/8/19 69/24/7 42/37/7
f 67/16/21 71/58/21 61/49/21
f 72/3/22 41/8/19 36/2/18
f 71/58/21 73/59/21 74/60/21
f 38/35/15 72/3/22 36/2/18
f 33/32/17 75/61/15 31/30/15
f 74/60/21 61/49/21 71/58/21
f 76/35/14 3/3/3 30/29/14
f 77/62/21 78/63/21 63/51/21
f 79/2/13 29/28/14 27/3/13
f 78/63/21 80/64/21 70/13/21
f 24/1/12 79/2/13 27/3/13
f 80/64/21 81/65/21 70/13/21
f 82/37/9 24/1/12 23/24/9
s 0
f 49/41/7 83/41/7 48/7/7
f 47/43/7 84/43/5 45/42/5
f 52/47/7 85/48/5 50/45/5
f 70/13/7 86/17/7 87/13/7
f 54/48/7 52/47/5 51/46/5
s 1
f 67/16/21 87/13/21 88/66/21
s 0
f 87/13/8 67/16/8 70/13/8
s 1
f 89/42/9 90/37/9 91/43/9
f 87/13/21 92/67/21 88/66/21
f 93/42/20 57/45/20 56/43/20
f 94/24/7 60/43/7 59/37/7
f 91/43/9 90/37/9 95/24/9
f 8/8/1 1/1/1 3/3/3
f 33/32/17 32/31/16 11/11/6
f 19/18/4 17/13/4 6/6/4
f 19/18/4 6/6/4 5/5/4
f 19/18/4 5/5/4 10/10/4
f 78/63/21 61/49/21 63/51/21
f 61/49/21 78/63/21 70/13/21
usemtl Inputb1Mtl
f 98/68/17 97/69/15 96/70/15
f 97/69/15 98/68/17 99/71/16
f 98/68/17 100/72/23 99/71/16
f 99/71/16 100/72/23 101/73/23
f 100/72/23 102/74/24 101/73/23
f 101/73/23 102/74/24 103/75/24
f 102/74/24 104/76/1 103/75/24
f 103/75/24 104/76/1 105/77/1
f 104/76/1 106/78/25 105/77/1
f 105/77/1 106/78/25 107/79/26
f 107/79/26 106/78/25 108/80/14
f 107/79/26 108/80/14 109/81/14
f 110/82/27 111/83/28 112/84/29
f 111/83/28 110/82/27 113/85/30
f 116/86/31 115/84/29 114/87/32
f 115/84/29 116/86/31 117/82/33
f 120/74/34 119/87/32 118/88/35
f 119/87/32 120/74/34 121/86/36
f 122/89/37 124/74/34 123/88/35
f 124/74/34 122/89/37 125/90/38
f 126/91/39 128/90/40 127/89/41
f 128/90/40 126/91/39 129/92/42
f 130/93/43 132/92/42 131/91/44
f 132/92/42 130/93/43 133/94/45
f 134/95/4 135/96/4 136/97/4
f 135/96/4 134/95/4 137/98/4
f 138/99/4 139/98/4 140/100/4
f 139/98/4 138/99/4 141/96/4
f 142/101/4 143/102/4 144/103/4
f 143/102/4 142/101/4 145/104/4
f 146/102/4 147/95/4 148/97/4
f 147/95/4 146/102/4 149/104/4
f 150/105/4 151/106/4 152/107/4
f 151/106/4 150/105/4 153/108/4
f 154/106/4 155/108/4 156/109/4
f 154/106/4 156/109/4 157/110/4
f 158/111/4 159/112/4 160/109/4
f 160/109/4 159/112/4 161/110/4
f 162/105/4 163/99/4 164/100/4
f 163/99/4 162/105/4 165/107/4
f 166/113/4 167/114/4 168/115/4
f 167/114/4 166/113/4 169/116/4
f 170/117/4 171/115/4 172/118/4
f 171/115/4 170/117/4 173/113/4
f 174/119/4 175/118/4 176/120/4
f 177/118/4 178/119/4 179/117/4
f 180/116/4 181/111/4 182/114/4
f 181/111/4 180/116/4 183/112/4
f 184/120/4 185/121/4 186/119/4
f 185/121/4 184/120/4 187/122/4
f 188/122/4 189/123/4 190/121/4
f 189/123/4 188/122/4 191/124/4
f 192/123/4 193/124/4 194/125/4
f 193/124/4 195/126/4 194/125/4
f 196/127/4 197/128/4 198/126/4
f 198/126/4 197/128/4 199/125/4
f 200/129/4 201/130/4 202/131/4
f 201/130/4 200/129/4 203/132/4
f 204/127/4 205/133/4 206/128/4
f 205/133/4 207/134/4 206/128/4
f 208/134/4 209/135/4 210/136/4
f 211/135/4 212/134/4 213/133/4
f 214/136/4 215/132/4 216/129/4
f 215/132/4 214/136/4 217/135/4
f 218/137/4 219/138/4 220/139/4
f 219/138/4 218/137/4 221/140/4
f 222/140/4 223/101/4 224/138/4
f 223/101/4 225/103/4 224/138/4
f 226/131/4 227/141/4 228/142/4
f 227/141/4 226/131/4 229/130/4
f 230/142/4 231/141/4 232/139/4
f 231/141/4 233/137/4 232/139/4
f 234/143/46 235/144/47 236/145/48
f 237/146/4 234/143/46 236/145/48
f 236/145/48 235/144/47 238/147/49
f 235/144/47 239/148/50 238/147/49
f 238/147/49 239/148/50 240/149/51
f 240/149/51 239/148/50 241/150/52
f 240/149/51 241/150/52 242/151/53
f 243/148/54 244/152/55 245/153/56
f 243/148/54 245/153/56 246/154/57
f 244/152/55 243/148/54 247/144/47
f 243/148/54 246/154/57 248/150/52
f 247/144/47 249/143/46 244/152/55
f 250/155/58 244/152/55 249/143/46
f 251/146/4 250/155/58 249/143/46
f 252/154/59 253/156/60 254/157/61
f 253/156/60 252/154/59 255/153/56
f 255/153/56 256/152/55 253/156/60
f 256/152/55 257/158/62 253/156/60
f 256/152/55 258/159/63 257/158/62
f 258/159/63 256/152/55 259/155/58
f 260/146/4 258/159/63 259/155/58
f 261/146/4 262/160/64 263/159/65
f 262/160/64 264/158/62 263/159/65
f 264/158/62 262/160/64 265/161/66
f 265/161/66 266/156/67 264/158/62
f 266/156/67 265/161/66 267/162/68
f 267/162/68 268/157/61 266/156/67
f 268/157/61 267/162/68 269/163/69
f 270/164/70 271/163/71 272/162/68
f 270/164/70 272/162/68 273/165/72
f 272/162/68 274/166/73 273/165/72
f 274/166/73 272/162/68 275/161/66
f 275/161/66 276/167/74 274/166/73
f 276/167/74 275/161/66 277/160/64
f 278/146/4 276/167/74 277/160/64
f 279/168/75 280/166/73 281/167/74
f 282/146/4 279/168/75 281/167/74
f 280/166/73 279/168/75 283/169/76
f 284/170/77 280/166/73 283/169/76
f 280/166/73 284/170/77 285/165/78
f 286/171/79 285/165/78 284/170/77
f 285/165/78 286/171/79 287/164/70
f 288/172/80 289/170/77 290/169/76
f 291/168/81 288/172/80 290/169/76
f 288/172/80 291/168/81 292/173/82
f 293/146/4 292/173/82 291/168/81
f 289/170/77 288/172/80 294/174/83
f 295/175/84 289/170/77 294/174/83
f 289/170/77 295/175/84 296/171/85
f 297/176/86 298/177/87 299/178/88
f 298/177/87 297/176/86 300/179/89
f 299/178/88 301/180/90 297/176/86
f 301/180/90 299/178/88 302/181/91
f 302/181/91 303/182/92 301/180/90
f 303/182/92 302/181/91 304/183/93
f 305/146/4 303/182/92 304/183/93
f 306/176/94 307/184/95 308/185/96
f 306/176/94 309/186/97 307/184/95
f 306/176/94 308/185/96 310/179/89
f 309/186/97 306/176/94 311/180/90
f 311/180/90 312/187/98 309/186/97
f 312/187/98 311/180/90 313/182/92
f 314/146/4 312/187/98 313/182/92
f 315/146/4 316/188/99 317/187/100
f 317/187/100 316/188/99 318/189/101
f 319/186/97 317/187/100 318/189/101
f 318/189/101 320/184/95 319/186/97
f 320/184/95 318/189/101 321/190/102
f 321/190/102 322/185/103 320/184/95
f 322/185/103 321/190/102 323/191/104
f 324/191/104 326/192/105 325/193/106
f 326/192/105 324/191/104 327/190/107
f 326/192/105 327/190/107 328/189/101
f 326/192/105 328/189/101 329/194/108
f 328/189/101 330/188/99 329/194/108
f 329/194/108 330/188/99 331/195/109
f 332/146/4 331/195/109 330/188/99
f 333/194/108 334/196/110 335/197/111
f 334/196/110 333/194/108 336/195/112
f 337/146/4 334/196/110 336/195/112
f 335/197/111 338/192/105 333/194/108
f 338/192/105 335/197/111 339/198/113
f 340/199/32 338/192/105 339/198/113
f 340/199/32 341/193/114 338/192/105
f 342/200/115 343/201/116 344/202/117
f 343/201/116 345/203/118 344/202/117
f 346/146/4 345/203/118 343/201/116
f 342/200/115 344/202/117 347/204/119
f 348/205/120 342/200/115 347/204/119
f 347/204/119 349/206/121 348/205/120
f 349/206/121 347/204/119 350/207/122
f 351/208/123 352/204/119 353/202/117
f 351/208/123 354/207/122 352/204/119
f 351/208/123 353/202/117 355/209/124
f 354/207/122 351/208/123 356/210/125
f 353/202/117 357/203/126 355/209/124
f 355/209/124 357/203/126 358/211/127
f 359/146/4 358/211/127 357/203/126
f 360/208/123 361/212/128 362/213/129
f 363/214/130 360/208/123 362/213/129
f 361/212/128 360/208/123 364/209/124
f 363/214/130 365/210/125 360/208/123
f 364/209/124 366/215/131 361/212/128
f 366/215/131 364/209/124 367/211/127
f 368/146/4 366/215/131 367/211/127
f 369/146/4 370/216/132 371/215/133
f 370/216/132 372/212/128 371/215/133
f 372/212/128 370/216/132 373/217/134
f 373/217/134 374/213/135 372/212/128
f 374/213/135 373/217/134 375/218/136
f 375/218/136 376/214/130 374/213/135
f 376/214/130 375/218/136 377/219/137
f 379/219/138 380/220/139 378/221/140
f 380/220/139 379/219/138 381/218/136
f 382/217/134 380/220/139 381/218/136
f 380/220/139 382/217/134 383/222/141
f 384/216/142 383/222/141 382/217/134
f 383/222/141 384/216/142 385/223/143
f 386/146/4 385/223/143 384/216/142
f 387/145/48 388/222/141 389/223/143
f 390/146/4 387/145/48 389/223/143
f 388/222/141 387/145/48 391/147/49
f 391/147/49 392/220/139 388/222/141
f 392/220/139 391/147/49 393/149/51
f 393/149/51 394/221/144 392/220/139
f 394/221/144 393/149/51 395/151/53
f 396/178/88 397/172/80 398/181/91
f 397/172/80 396/178/88 399/174/145
f 400/173/82 398/181/91 397/172/80
f 398/181/91 400/173/82 401/183/93
f 402/146/4 401/183/93 400/173/82
f 403/177/87 399/174/145 396/178/88
f 399/174/145 403/177/87 404/175/84
f 405/224/146 406/197/111 407/225/147
f 406/197/111 408/226/148 407/225/147
f 408/226/148 406/197/111 409/196/110
f 410/146/4 408/226/148 409/196/110
f 406/197/111 405/224/146 411/198/149
f 412/227/150 411/198/149 405/224/146
f 411/198/149 412/227/150 413/199/32
f 414/228/151 415/225/147 416/229/152
f 415/225/147 414/228/151 417/224/146
f 418/226/148 416/229/152 415/225/147
f 416/229/152 418/226/148 419/230/153
f 420/146/4 419/230/153 418/226/148
f 421/231/37 417/224/146 414/228/151
f 417/224/146 421/231/37 422/227/150
f 423/232/154 424/228/155 425/233/156
f 424/228/155 426/234/157 425/233/156
f 424/228/155 423/232/154 427/231/37
f 426/234/157 424/228/155 428/229/152
f 428/229/152 429/235/158 426/234/157
f 429/235/158 428/229/152 430/230/159
f 431/146/4 429/235/158 430/230/159
f 432/146/4 433/236/160 434/235/158
f 433/236/160 435/237/161 434/235/158
f 434/235/158 435/237/161 436/234/157
f 435/237/161 437/233/156 436/234/157
f 437/233/156 435/237/161 438/238/162
f 437/233/156 438/238/162 439/239/163
f 437/233/156 439/239/163 440/232/154
f 441/201/164 442/237/161 443/236/160
f 444/146/4 441/201/164 443/236/160
f 442/237/161 441/201/164 445/200/115
f 445/200/115 446/238/165 442/237/161
f 446/238/165 445/200/115 447/205/120
f 446/238/165 447/205/120 448/206/166
f 446/238/165 448/206/166 449/239/163
f 450/77/167 451/75/9 452/76/168
f 451/75/9 453/74/169 452/76/168
f 450/77/167 452/76/168 454/78/170
f 455/79/170 450/77/167 454/78/170
f 455/79/170 454/78/170 456/80/171
f 456/80/171 457/81/171 455/79/170
f 459/69/14 458/70/14 460/68/172
f 460/68/172 461/71/172 459/69/14
f 461/71/172 460/68/172 462/72/11
f 463/73/173 461/71/172 462/72/11
f 463/73/173 462/72/11 464/74/9
f 465/75/174 463/73/173 464/74/9
f 466/84/175 467/87/122 468/86/176
f 466/84/175 468/86/176 469/82/177
f 470/87/178 471/88/179 472/74/180
f 470/87/178 472/74/180 473/86/181
f 474/89/130 476/74/180 475/88/179
f 476/74/180 474/89/130 477/90/182
f 479/91/183 480/90/184 478/89/185
f 480/90/184 479/91/183 481/92/186
f 482/93/144 483/92/186 484/91/187
f 483/92/186 482/93/144 485/94/188
f 486/84/175 488/82/177 487/83/43
f 487/83/43 488/82/177 489/85/45
f 492/68/189 491/69/171 490/70/171
f 492/68/189 493/71/190 491/69/171
f 494/72/191 493/71/190 492/68/189
f 494/72/191 495/73/192 493/71/190
f 496/74/193 495/73/192 494/72/191
f 496/74/193 497/75/193 495/73/192
f 498/76/194 497/75/193 496/74/193
f 498/76/194 499/77/194 497/75/193
f 500/78/195 499/77/194 498/76/194
f 500/78/195 501/79/196 499/77/194
f 502/80/197 501/79/196 500/78/195
f 502/80/197 503/81/197 501/79/196
f 505/84/198 504/87/52 506/86/199
f 506/86/199 507/82/200 505/84/198
f 509/87/52 508/88/201 510/74/202
f 510/74/202 511/86/203 509/87/52
f 513/89/204 514/74/202 512/88/201
f 514/74/202 513/89/204 515/90/205
f 517/91/206 518/90/205 516/89/61
f 518/90/205 517/91/206 519/92/207
f 520/92/208 521/93/209 522/94/210
f 521/93/209 520/92/208 523/91/211
f 524/83/144 525/84/198 526/82/200
f 527/240/188 524/83/144 526/82/200
f 528/98/21 529/127/21 530/241/21
f 528/98/21 531/104/21 532/242/21
f 528/98/21 533/101/21 531/104/21
f 530/241/21 533/101/21 528/98/21
f 533/101/21 530/241/21 534/140/21
f 535/114/21 529/127/21 528/98/21
f 535/114/21 528/98/21 536/243/21
f 529/127/21 537/135/21 530/241/21
f 537/135/21 529/127/21 538/133/21
f 539/132/21 530/241/21 537/135/21
f 539/132/21 540/141/21 530/241/21
f 540/141/21 539/132/21 541/130/21
f 542/108/21 535/114/21 536/243/21
f 542/108/21 536/243/21 543/105/21
f 535/114/21 542/108/21 544/244/21
f 544/244/21 542/108/21 545/109/21
f 529/127/21 535/114/21 546/124/21
f 529/127/21 546/124/21 547/126/21
f 546/124/21 535/114/21 548/120/21
f 546/124/21 548/120/21 549/122/21
f 548/120/21 535/114/21 550/115/21
f 548/120/21 550/115/21 551/118/21
f 554/68/212 553/69/197 552/70/197
f 553/69/197 554/68/212 555/71/212
f 556/72/213 555/71/212 554/68/212
f 555/71/212 556/72/213 557/73/214
f 558/74/7 557/73/214 556/72/213
f 557/73/214 558/74/7 559/75/7
f 560/76/215 559/75/7 558/74/7
f 559/75/7 560/76/215 561/77/215
f 562/78/216 561/77/215 560/76/215
f 561/77/215 562/78/216 563/79/216
f 564/80/15 563/79/216 562/78/216
f 563/79/216 564/80/15 565/81/15
f 567/83/217 566/84/218 568/82/219
f 568/82/219 569/85/210 567/83/217
f 572/86/220 571/84/218 570/87/84
f 572/86/220 573/82/219 571/84/218
f 575/89/89 576/74/221 574/88/222
f 576/74/221 575/89/89 577/90/223
f 578/91/224 580/90/225 579/89/226
f 580/90/225 578/91/224 581/92/227
f 583/93/228 584/92/227 582/91/229
f 584/92/227 583/93/228 585/94/30
f 588/74/221 587/87/84 586/88/222
f 588/74/221 589/86/230 587/87/84
f 592/245/16 591/246/15 590/247/15
f 591/246/15 592/245/16 593/248/16
f 592/245/16 594/249/6 593/248/16
f 593/248/16 594/249/6 595/250/6
f 594/249/6 596/251/24 595/250/6
f 595/250/6 596/251/24 597/252/24
f 596/251/24 598/253/1 597/252/24
f 597/252/24 598/253/1 599/254/1
f 598/253/1 600/255/25 599/254/1
f 599/254/1 600/255/25 601/256/26
f 601/256/26 600/255/25 602/257/14
f 601/256/26 602/257/14 603/258/14
f 604/259/27 605/260/28 606/261/29
f 605/260/28 604/259/27 607/262/30
f 610/263/36 609/261/29 608/264/32
f 609/261/29 610/263/36 611/259/33
f 614/251/34 613/264/32 612/265/35
f 613/264/32 614/251/34 615/263/36
f 616/266/41 618/251/34 617/265/35
f 618/251/34 616/266/41 619/267/38
f 620/268/39 622/267/40 621/266/37
f 622/267/40 620/268/39 623/269/42
f 624/270/231 626/269/42 625/268/44
f 626/269/42 624/270/231 627/271/45
f 628/272/4 629/273/4 630/274/4
f 629/273/4 628/272/4 631/275/4
f 632/276/4 633/275/4 634/277/4
f 633/275/4 632/276/4 635/273/4
f 636/278/4 637/279/4 638/280/4
f 637/279/4 636/278/4 639/281/4
f 640/279/4 641/272/4 642/274/4
f 641/272/4 640/279/4 643/281/4
f 644/282/4 645/283/4 646/284/4
f 645/283/4 644/282/4 647/285/4
f 648/283/4 649/285/4 650/286/4
f 648/283/4 650/286/4 651/287/4
f 652/288/4 653/289/4 654/286/4
f 654/286/4 653/289/4 655/287/4
f 656/282/4 657/276/4 658/277/4
f 657/276/4 656/282/4 659/284/4
f 660/290/4 661/291/4 662/292/4
f 661/291/4 660/290/4 663/293/4
f 664/294/4 665/292/4 666/295/4
f 665/292/4 664/294/4 667/290/4
f 668/296/4 669/295/4 670/297/4
f 671/295/4 672/296/4 673/294/4
f 674/293/4 675/288/4 676/291/4
f 675/288/4 674/293/4 677/289/4
f 678/297/4 679/298/4 680/296/4
f 679/298/4 678/297/4 681/299/4
f 682/299/4 683/300/4 684/298/4
f 683/300/4 682/299/4 685/301/4
f 686/300/4 687/301/4 688/302/4
f 687/301/4 689/303/4 688/302/4
f 690/304/4 691/305/4 692/303/4
f 692/303/4 691/305/4 693/302/4
f 694/306/4 695/307/4 696/308/4
f 695/307/4 694/306/4 697/309/4
f 698/304/4 699/310/4 700/305/4
f 699/310/4 701/311/4 700/305/4
f 702/311/4 703/312/4 704/313/4
f 705/312/4 706/311/4 707/310/4
f 708/313/4 709/309/4 710/306/4
f 709/309/4 708/313/4 711/312/4
f 712/314/4 713/315/4 714/316/4
f 713/315/4 712/314/4 715/317/4
f 716/317/4 717/278/4 718/315/4
f 717/278/4 719/280/4 718/315/4
f 720/308/4 721/318/4 722/319/4
f 721/318/4 720/308/4 723/307/4
f 724/319/4 725/318/4 726/316/4
f 725/318/4 727/314/4 726/316/4
f 728/320/232 729/321/47 730/322/48
f 731/323/4 728/320/232 730/322/48
f 730/322/48 729/321/47 732/324/49
f 729/321/47 733/325/50 732/324/49
f 732/324/49 733/325/50 734/326/51
f 734/326/51 733/325/50 735/327/52
f 734/326/51 735/327/52 736/328/233
f 737/325/54 738/329/55 739/330/56
f 737/325/54 739/330/56 740/331/59
f 738/329/55 737/325/54 741/321/47
f 737/325/54 740/331/59 742/327/52
f 741/321/47 743/320/46 738/329/55
f 744/332/58 738/329/55 743/320/46
f 745/323/4 744/332/58 743/320/46
f 746/331/59 747/333/60 748/334/61
f 747/333/60 746/331/59 749/330/56
f 749/330/56 750/329/55 747/333/60
f 750/329/55 751/335/62 747/333/60
f 750/329/55 752/336/63 751/335/62
f 752/336/63 750/329/55 753/332/58
f 754/323/4 752/336/63 753/332/58
f 755/323/4 756/337/64 757/336/63
f 756/337/64 758/335/62 757/336/63
f 758/335/62 756/337/64 759/338/66
f 759/338/66 760/333/67 758/335/62
f 760/333/67 759/338/66 761/339/68
f 761/339/68 762/334/61 760/333/67
f 762/334/61 761/339/68 763/340/69
f 764/341/234 765/340/71 766/339/68
f 764/341/234 766/339/68 767/342/72
f 766/339/68 768/343/73 767/342/72
f 768/343/73 766/339/68 769/338/66
f 769/338/66 770/344/74 768/343/73
f 770/344/74 769/338/66 771/337/64
f 772/323/4 770/344/74 771/337/64
f 773/345/75 774/343/73 775/344/74
f 776/323/4 773/345/75 775/344/74
f 774/343/73 773/345/75 777/346/76
f 778/347/77 774/343/73 777/346/76
f 774/343/73 778/347/77 779/342/78
f 780/348/235 779/342/78 778/347/77
f 779/342/78 780/348/235 781/341/70
f 782/349/80 783/347/77 784/346/76
f 785/345/75 782/349/80 784/346/76
f 782/349/80 785/345/75 786/350/82
f 787/323/4 786/350/82 785/345/75
f 783/347/77 782/349/80 788/351/83
f 789/352/84 783/347/77 788/351/83
f 783/347/77 789/352/84 790/348/236
f 791/353/86 792/354/87 793/355/88
f 792/354/87 791/353/86 794/356/89
f 793/355/88 795/357/90 791/353/86
f 795/357/90 793/355/88 796/358/91
f 796/358/91 797/359/92 795/357/90
f 797/359/92 796/358/91 798/360/93
f 799/323/4 797/359/92 798/360/93
f 800/353/94 801/361/95 802/362/103
f 800/353/94 803/363/97 801/361/95
f 800/353/94 802/362/103 804/356/89
f 803/363/97 800/353/94 805/357/90
f 805/357/90 806/364/98 803/363/97
f 806/364/98 805/357/90 807/359/92
f 808/323/4 806/364/98 807/359/92
f 809/323/4 810/365/99 811/364/100
f 811/364/100 810/365/99 812/366/101
f 813/363/97 811/364/100 812/366/101
f 812/366/101 814/361/95 813/363/97
f 814/361/95 812/366/101 815/367/102
f 815/367/102 816/362/103 814/361/95
f 816/362/103 815/367/102 817/368/104
f 818/368/104 820/369/105 819/370/106
f 820/369/105 818/368/104 821/367/237
f 820/369/105 821/367/237 822/366/101
f 820/369/105 822/366/101 823/371/108
f 822/366/101 824/365/99 823/371/108
f 823/371/108 824/365/99 825/372/109
f 826/323/4 825/372/109 824/365/99
f 827/371/108 828/373/110 829/374/111
f 828/373/110 827/371/108 830/372/109
f 831/323/4 828/373/110 830/372/109
f 829/374/111 832/369/105 827/371/108
f 832/369/105 829/374/111 833/375/113
f 834/376/32 832/369/105 833/375/113
f 834/376/32 835/370/114 832/369/105
f 836/377/115 837/378/116 838/379/117
f 837/378/116 839/380/118 838/379/117
f 840/323/4 839/380/118 837/378/116
f 836/377/115 838/379/117 841/381/238
f 842/382/120 836/377/115 841/381/238
f 841/381/238 843/383/239 842/382/120
f 843/383/239 841/381/238 844/384/122
f 845/385/123 846/381/119 847/379/117
f 845/385/123 848/384/122 846/381/119
f 845/385/123 847/379/117 849/386/124
f 848/384/122 845/385/123 850/387/125
f 847/379/117 851/380/126 849/386/124
f 849/386/124 851/380/126 852/388/127
f 853/323/4 852/388/127 851/380/126
f 854/385/123 855/389/128 856/390/129
f 857/391/130 854/385/123 856/390/129
f 855/389/128 854/385/123 858/386/124
f 857/391/130 859/387/125 854/385/123
f 858/386/124 860/392/131 855/389/128
f 860/392/131 858/386/124 861/388/127
f 862/323/4 860/392/131 861/388/127
f 863/323/4 864/393/132 865/392/133
f 864/393/132 866/389/128 865/392/133
f 866/389/128 864/393/132 867/394/134
f 867/394/134 868/390/135 866/389/128
f 868/390/135 867/394/134 869/395/136
f 869/395/136 870/391/130 868/390/135
f 870/391/130 869/395/136 871/396/240
f 873/396/137 874/397/139 872/398/140
f 874/397/139 873/396/137 875/395/136
f 876/394/134 874/397/139 875/395/136
f 874/397/139 876/394/134 877/399/141
f 878/393/132 877/399/141 876/394/134
f 877/399/141 878/393/132 879/400/143
f 880/323/4 879/400/143 878/393/132
f 881/322/48 882/399/141 883/400/143
f 884/323/4 881/322/48 883/400/143
f 882/399/141 881/322/48 885/324/49
f 885/324/49 886/397/139 882/399/141
f 886/397/139 885/324/49 887/326/51
f 887/326/51 888/398/144 886/397/139
f 888/398/144 887/326/51 889/328/53
f 890/355/88 891/349/80 892/358/91
f 891/349/80 890/355/88 893/351/145
f 894/350/82 892/358/91 891/349/80
f 892/358/91 894/350/82 895/360/93
f 896/323/4 895/360/93 894/350/82
f 897/354/87 893/351/145 890/355/88
f 893/351/145 897/354/87 898/352/84
f 899/401/146 900/374/111 901/402/147
f 900/374/111 902/403/148 901/402/147
f 902/403/148 900/374/111 903/373/241
f 904/323/4 902/403/148 903/373/241
f 900/374/111 899/401/146 905/375/149
f 906/404/150 905/375/149 899/401/146
f 905/375/149 906/404/150 907/376/32
f 908/405/151 909/402/147 910/406/152
f 909/402/147 908/405/151 911/401/146
f 912/403/148 910/406/152 909/402/147
f 910/406/152 912/403/148 913/407/159
f 914/323/4 913/407/159 912/403/148
f 915/408/37 911/401/146 908/405/151
f 911/401/146 915/408/37 916/404/150
f 917/409/242 918/405/155 919/410/156
f 918/405/155 920/411/157 919/410/156
f 918/405/155 917/409/242 921/408/37
f 920/411/157 918/405/155 922/406/152
f 922/406/152 923/412/158 920/411/157
f 923/412/158 922/406/152 924/407/159
f 925/323/4 923/412/158 924/407/159
f 926/323/4 927/413/160 928/412/158
f 927/413/160 929/414/161 928/412/158
f 928/412/158 929/414/161 930/411/157
f 929/414/161 931/410/156 930/411/157
f 931/410/156 929/414/161 932/415/162
f 931/410/156 932/415/162 933/416/163
f 931/410/156 933/416/163 934/409/154
f 935/378/116 936/414/161 937/413/160
f 938/323/4 935/378/116 937/413/160
f 936/414/161 935/378/116 939/377/115
f 939/377/115 940/415/165 936/414/161
f 940/415/165 939/377/115 941/382/120
f 940/415/165 941/382/120 942/383/121
f 940/415/165 942/383/121 943/416/43
f 944/254/243 945/252/9 946/253/244
f 945/252/9 947/251/9 946/253/244
f 944/254/243 946/253/244 948/417/170
f 949/418/170 944/254/243 948/417/170
f 949/418/170 948/417/170 950/419/171
f 950/419/171 951/420/171 949/418/170
f 953/246/14 952/247/14 954/421/245
f 954/421/245 955/422/172 953/246/14
f 955/422/172 954/421/245 956/423/246
f 957/424/247 955/422/172 956/423/246
f 957/424/247 956/423/246 958/251/9
f 959/252/174 957/424/247 958/251/9
f 960/261/175 961/264/122 962/263/181
f 960/261/175 962/263/181 963/259/248
f 964/264/122 965/265/179 966/251/180
f 964/264/122 966/251/180 967/263/181
f 968/266/130 970/251/249 969/265/179
f 970/251/249 968/266/130 971/267/182
f 973/268/183 974/267/184 972/266/130
f 974/267/184 973/268/183 975/425/250
f 976/270/251 977/425/186 978/268/187
f 977/425/186 976/270/251 979/271/188
f 980/261/175 982/259/177 981/260/252
f 981/260/252 982/259/177 983/262/45
f 986/245/189 985/246/171 984/247/171
f 986/245/189 987/248/190 985/246/171
f 988/249/191 987/248/190 986/245/189
f 988/249/191 989/250/192 987/248/190
f 990/251/193 989/250/192 988/249/191
f 990/251/193 991/252/193 989/250/192
f 992/253/253 991/252/193 990/251/193
f 992/253/253 993/254/253 991/252/193
f 994/417/196 993/254/253 992/253/253
f 994/417/196 995/418/195 993/254/253
f 996/419/197 995/418/195 994/417/196
f 996/419/197 997/420/197 995/418/195
f 999/261/198 998/264/52 1000/263/199
f 1000/263/199 1001/426/200 999/261/198
f 1003/264/52 1002/265/201 1004/251/202
f 1004/251/202 1005/263/203 1003/264/52
f 1007/427/204 1008/251/202 1006/265/201
f 1008/251/202 1007/427/204 1009/428/205
f 1011/429/206 1012/428/205 1010/427/204
f 1012/428/205 1011/429/206 1013/425/207
f 1014/425/208 1015/430/209 1016/271/210
f 1015/430/209 1014/425/208 1017/429/211
f 1018/260/144 1019/261/198 1020/426/200
f 1021/262/188 1018/260/144 1020/426/200
f 1022/431/21 1023/304/21 1024/314/21
f 1022/431/21 1025/281/21 1026/272/21
f 1022/431/21 1027/278/21 1025/281/21
f 1024/314/21 1027/278/21 1022/431/21
f 1027/278/21 1024/314/21 1028/317/21
f 1029/291/21 1023/304/21 1022/431/21
f 1029/291/21 1022/431/21 1030/277/21
f 1023/304/21 1031/312/21 1024/314/21
f 1031/312/21 1023/304/21 1032/310/21
f 1033/309/21 1024/314/21 1031/312/21
f 1033/309/21 1034/432/21 1024/314/21
f 1034/432/21 1033/309/21 1035/307/21
f 1036/285/21 1029/291/21 1030/277/21
f 1036/285/21 1030/277/21 1037/282/21
f 1029/291/21 1036/285/21 1038/288/21
f 1038/288/21 1036/285/21 1039/286/21
f 1023/304/21 1029/291/21 1040/301/21
f 1023/304/21 1040/301/21 1041/303/21
f 1040/301/21 1029/291/21 1042/297/21
f 1040/301/21 1042/297/21 1043/433/21
f 1042/297/21 1029/291/21 1044/434/21
f 1042/297/21 1044/434/21 1045/435/21
f 1048/245/212 1047/246/197 1046/247/197
f 1047/246/197 1048/245/212 1049/248/212
f 1050/249/254 1049/248/212 1048/245/212
f 1049/248/212 1050/249/254 1051/250/255
f 1052/251/7 1051/250/255 1050/249/254
f 1051/250/255 1052/251/7 1053/252/7
f 1054/253/256 1053/252/7 1052/251/7
f 1053/252/7 1054/253/256 1055/254/256
f 1056/417/216 1055/254/256 1054/253/256
f 1055/254/256 1056/417/216 1057/418/216
f 1058/257/15 1057/418/216 1056/417/216
f 1057/418/216 1058/257/15 1059/258/15
f 1061/260/70 1060/261/218 1062/259/219
f 1062/259/219 1063/262/257 1061/260/70
f 1066/263/230 1065/261/218 1064/264/84
f 1066/263/230 1067/259/258 1065/261/218
f 1069/266/226 1070/251/221 1068/265/222
f 1070/251/221 1069/266/226 1071/267/223
f 1072/268/224 1074/267/223 1073/266/226
f 1074/267/223 1072/268/224 1075/269/259
f 1077/270/228 1078/269/227 1076/268/229
f 1078/269/227 1077/270/228 1079/271/30
f 1082/251/221 1081/264/84 1080/265/222
f 1082/251/221 1083/263/230 1081/264/84
usemtl Output1Mtl.001
f 1169/19/7 1168/20/7 1171/21/7
f 1168/20/7 1169/19/7 1170/22/7
f 1165/38/7 1164/39/7 1167/40/7
f 1164/39/7 1165/38/7 1166/44/7
f 1156/52/21 1162/53/21 1163/54/21
f 1156/52/21 1161/55/21 1162/53/21
f 1156/52/21 1160/56/21 1161/55/21
f 1160/56/21 1156/52/21 1158/57/21
f 1084/44/260 1085/436/260 1086/437/261
f 1085/436/260 1084/44/260 1087/38/260
f 1088/22/15 1089/438/15 1090/439/15
f 1089/438/15 1088/22/15 1091/19/15
f 1092/39/5 1093/38/5 1094/44/5
f 1093/38/5 1092/39/5 1095/40/5
f 1096/440/5 1097/19/5 1098/22/5
f 1097/19/5 1096/440/5 1099/441/5
f 1100/442/4 1101/443/4 1102/444/4
f 1102/444/4 1101/443/4 1103/445/4
f 1102/444/4 1103/445/4 1104/446/4
f 1102/444/4 1105/447/4 1100/442/4
f 1105/447/4 1102/444/4 1106/448/4
f 1105/447/4 1106/448/4 1107/449/4
f 1108/56/4 1109/55/4 1110/52/4
f 1110/52/4 1109/55/4 1111/53/4
f 1110/52/4 1111/53/4 1112/54/4
f 1110/52/4 1113/57/4 1108/56/4
f 1113/57/4 1110/52/4 1114/450/4
f 1113/57/4 1114/450/4 1115/451/4
f 1116/39/262 1117/452/263 1118/40/263
f 1117/452/263 1119/453/263 1118/40/263
f 1120/437/264 1121/44/264 1122/436/264
f 1121/44/264 1123/38/265 1122/436/264
f 1124/454/266 1125/21/267 1126/455/267
f 1127/20/267 1126/455/267 1125/21/267
f 1128/19/14 1129/438/14 1130/22/14
f 1131/439/14 1130/22/14 1129/438/14
f 1132/39/9 1133/38/9 1134/44/9
f 1133/38/9 1132/39/9 1135/40/9
f 1136/20/9 1137/19/9 1138/22/9
f 1137/19/9 1136/20/9 1139/21/9
f 1140/39/268 1141/452/268 1142/40/268
f 1141/452/268 1143/453/269 1142/40/268
f 1144/454/270 1145/21/271 1146/455/271
f 1147/20/271 1146/455/271 1145/21/271
f 1148/39/20 1149/456/20 1150/457/20
f 1149/456/20 1148/39/20 1151/40/20
f 1152/20/20 1153/458/20 1154/459/20
f 1153/458/20 1152/20/20 1155/21/20
f 1156/52/21 1157/450/21 1158/57/21
f 1158/57/21 1157/450/21 1159/451/21
