# Blender 5.1.2
# www.blender.org
mtllib Recorder.mtl
o Recorder
v 0.135971 -0.267470 0.092587
v 0.115570 -0.293810 0.419483
v 0.115570 -0.292250 0.092484
v 0.135971 -0.269030 0.419586
v 0.151070 -0.239210 0.092686
v 0.135971 -0.269030 0.419586
v 0.135971 -0.267470 0.092587
v 0.151070 -0.240770 0.419685
v 0.234371 -0.411790 0.184486
v 0.234371 -0.411790 -0.521015
v 0.234371 0.056940 -0.521015
v 0.234371 0.056940 0.184486
v 0.160370 -0.208540 0.092884
v 0.151070 -0.240770 0.419685
v 0.151070 -0.239210 0.092686
v 0.160370 -0.210100 0.419785
v 0.163471 -0.176640 0.092983
v 0.160370 -0.210100 0.419785
v 0.160370 -0.208540 0.092884
v 0.163471 -0.178200 0.419987
v 0.160370 -0.144750 0.093185
v 0.163471 -0.178200 0.419987
v 0.163471 -0.176640 0.092983
v 0.160370 -0.146310 0.420185
v 0.151070 -0.114080 0.093285
v 0.160370 -0.146310 0.420185
v 0.160370 -0.144750 0.093185
v 0.151070 -0.115640 0.420284
v 0.135971 -0.085810 0.093483
v 0.151070 -0.115640 0.420284
v 0.151070 -0.114080 0.093285
v 0.135971 -0.087370 0.420383
v 0.115570 -0.061040 0.093586
v 0.135971 -0.087370 0.420383
v 0.135971 -0.085810 0.093483
v 0.115570 -0.062600 0.420586
v 0.054371 0.118520 -0.131916
v 0.047672 -0.043670 0.073986
v 0.047672 -0.043670 -0.041515
v 0.059071 0.232400 0.045685
v 0.055470 0.145710 0.155785
v 0.057369 0.192730 -0.090515
v 0.051971 0.061960 -0.131916
v 0.053169 0.090240 -0.134815
v 0.056469 0.170770 -0.109314
v 0.055470 0.145710 -0.123314
v 0.048969 -0.012250 -0.090515
v 0.048172 -0.030270 -0.067616
v 0.047272 -0.051920 -0.013214
v 0.050869 0.034770 -0.123314
v 0.049870 0.009720 -0.109314
v 0.047173 -0.054700 0.016285
v 0.047272 -0.051920 0.045685
v 0.051971 0.061960 0.164387
v 0.048969 -0.012250 0.122986
v 0.048172 -0.030270 0.100086
v 0.049870 0.009720 0.141785
v 0.050869 0.034770 0.155785
v 0.054371 0.118520 0.164387
v 0.053169 0.090240 0.167286
v 0.056469 0.170770 0.141785
v 0.058170 0.210760 0.100086
v 0.057369 0.192730 0.122986
v 0.058670 0.224150 0.073986
v 0.059071 0.232400 -0.013214
v 0.059170 0.235180 0.016285
v 0.058670 0.224150 -0.041515
v 0.058170 0.210760 -0.067616
v 0.054371 0.133270 -0.399715
v 0.047672 -0.028920 -0.193813
v 0.047672 -0.028920 -0.309414
v 0.059071 0.247150 -0.222214
v 0.055470 0.160460 -0.112114
v 0.057369 0.207480 -0.358414
v 0.051971 0.076710 -0.399715
v 0.053169 0.104990 -0.402615
v 0.056469 0.185520 -0.377216
v 0.055470 0.160460 -0.391113
v 0.048969 0.002500 -0.358414
v 0.048172 -0.015520 -0.335514
v 0.047272 -0.037170 -0.281116
v 0.050869 0.049520 -0.391113
v 0.049870 0.024470 -0.377216
v 0.047173 -0.039950 -0.251614
v 0.047272 -0.037170 -0.222214
v 0.051971 0.076710 -0.103516
v 0.048969 0.002500 -0.144814
v 0.048172 -0.015520 -0.167717
v 0.049870 0.024470 -0.126114
v 0.050869 0.049520 -0.112114
v 0.054371 0.133270 -0.103516
v 0.053169 0.104990 -0.100616
v 0.056469 0.185520 -0.126114
v 0.058170 0.225510 -0.167717
v 0.057369 0.207480 -0.144814
v 0.058670 0.238900 -0.193813
v 0.059071 0.247150 -0.281117
v 0.059170 0.249930 -0.251614
v 0.058670 0.238900 -0.309414
v 0.058170 0.225510 -0.335514
v -0.048931 0.211860 -0.358414
v -0.048229 0.229890 -0.335514
v 0.058170 0.225510 -0.335514
v 0.057369 0.207480 -0.358414
v -0.048229 0.229890 -0.335514
v -0.047630 0.243280 -0.309414
v 0.058670 0.238900 -0.309414
v 0.058170 0.225510 -0.335514
v -0.047630 0.243280 -0.309414
v -0.047329 0.251530 -0.281117
v 0.059071 0.247150 -0.281117
v 0.058670 0.238900 -0.309414
v -0.047329 0.251530 -0.281117
v -0.047230 0.254310 -0.251614
v 0.059170 0.249930 -0.251614
v 0.059071 0.247150 -0.281117
v -0.047230 0.239560 0.016285
v -0.047329 0.236780 0.045685
v 0.059071 0.232400 0.045685
v 0.059170 0.235180 0.016285
v -0.047329 0.236780 0.045685
v -0.047630 0.228530 0.073986
v 0.058670 0.224150 0.073986
v 0.059071 0.232400 0.045685
v -0.047329 0.236780 -0.013214
v -0.047230 0.239560 0.016285
v 0.059170 0.235180 0.016285
v 0.059071 0.232400 -0.013214
v -0.047630 0.228530 0.073986
v -0.048229 0.215140 0.100086
v 0.058170 0.210760 0.100086
v 0.058670 0.224150 0.073986
v -0.047630 0.228530 -0.041515
v -0.047329 0.236780 -0.013214
v 0.059071 0.232400 -0.013214
v 0.058670 0.224150 -0.041515
v -0.048229 0.215140 0.100086
v -0.048931 0.197110 0.122986
v 0.057369 0.192730 0.122986
v 0.058170 0.210760 0.100086
v -0.047230 0.254310 -0.251614
v -0.047329 0.251530 -0.222214
v 0.059071 0.247150 -0.222214
v 0.059170 0.249930 -0.251614
v -0.048229 0.215140 -0.067616
v -0.047630 0.228530 -0.041515
v 0.058670 0.224150 -0.041515
v 0.058170 0.210760 -0.067616
v -0.048931 0.197110 -0.090515
v -0.048229 0.215140 -0.067616
v 0.058170 0.210760 -0.067616
v 0.057369 0.192730 -0.090515
v -0.047329 0.251530 -0.222214
v -0.047630 0.243280 -0.193813
v 0.058670 0.238900 -0.193813
v 0.059071 0.247150 -0.222214
v -0.047630 0.243280 -0.193813
v -0.048229 0.229890 -0.167717
v 0.058170 0.225510 -0.167717
v 0.058670 0.238900 -0.193813
v -0.048229 0.229890 -0.167717
v -0.048931 0.211860 -0.144814
v 0.057369 0.207480 -0.144814
v 0.058170 0.225510 -0.167717
v 0.234371 0.056940 0.184486
v -0.234329 0.056940 -0.521015
v -0.234329 0.056940 0.184486
v 0.234371 0.056940 -0.521015
v 0.090870 -0.040710 0.093685
v 0.115570 -0.062600 0.420586
v 0.115570 -0.061040 0.093586
v 0.090870 -0.042270 0.420685
v -0.115631 -0.061040 0.093586
v -0.090828 -0.042270 0.420685
v -0.090828 -0.040710 0.093685
v -0.115631 -0.062600 0.420586
v 0.062572 -0.025600 0.093685
v 0.090870 -0.042270 0.420685
v 0.090870 -0.040710 0.093685
v 0.062572 -0.027160 0.420685
v -0.090828 -0.040710 0.093685
v -0.062531 -0.027160 0.420685
v -0.062531 -0.025600 0.093685
v -0.090828 -0.042270 0.420685
v 0.031872 -0.016300 0.093784
v 0.062572 -0.027160 0.420685
v 0.062572 -0.025600 0.093685
v 0.031872 -0.017860 0.420784
v -0.062531 -0.025600 0.093685
v -0.031929 -0.017860 0.420784
v -0.031929 -0.016300 0.093784
v -0.062531 -0.027160 0.420685
v -0.000031 -0.013160 0.093784
v 0.031872 -0.017860 0.420784
v 0.031872 -0.016300 0.093784
v -0.000031 -0.014710 0.420784
v -0.031929 -0.016300 0.093784
v -0.000031 -0.014710 0.420784
v -0.000031 -0.013160 0.093784
v -0.031929 -0.017860 0.420784
v 0.031872 -0.017860 0.420784
v -0.151028 -0.115640 0.420284
v -0.151028 -0.240770 0.419685
v 0.062572 -0.329250 0.419285
v 0.160370 -0.210100 0.419785
v 0.115570 -0.062600 0.420586
v -0.031929 -0.017860 0.420784
v -0.000031 -0.014710 0.420784
v 0.090870 -0.042270 0.420685
v 0.062572 -0.027160 0.420685
v -0.115631 -0.062600 0.420586
v -0.135929 -0.087370 0.420383
v -0.160328 -0.146310 0.420185
v -0.062531 -0.027160 0.420685
v -0.090828 -0.042270 0.420685
v -0.163528 -0.178200 0.419987
v -0.160328 -0.210100 0.419785
v -0.115631 -0.293810 0.419483
v -0.031929 -0.338550 0.419186
v -0.135929 -0.269030 0.419586
v -0.090828 -0.314140 0.419384
v -0.062531 -0.329250 0.419285
v 0.031872 -0.338550 0.419186
v -0.000031 -0.341690 0.419186
v 0.090870 -0.314140 0.419384
v 0.135971 -0.269030 0.419586
v 0.115570 -0.293810 0.419483
v 0.151070 -0.240770 0.419685
v 0.160370 -0.146310 0.420185
v 0.163471 -0.178200 0.419987
v 0.151070 -0.115640 0.420284
v 0.135971 -0.087370 0.420383
v -0.048931 0.197110 0.122986
v -0.049828 0.175150 0.141785
v 0.056469 0.170770 0.141785
v 0.057369 0.192730 0.122986
v -0.049828 0.175150 0.141785
v -0.050930 0.150090 0.155785
v 0.055470 0.145710 0.155785
v 0.056469 0.170770 0.141785
v -0.050930 0.150090 0.155785
v -0.052029 0.122900 0.164387
v 0.054371 0.118520 0.164387
v 0.055470 0.145710 0.155785
v -0.234329 -0.411790 0.184486
v 0.234371 -0.411790 0.184486
v 0.234371 0.056940 0.184486
v -0.234329 0.056940 0.184486
v -0.052029 0.122900 0.164387
v -0.053131 0.094620 0.167286
v 0.053169 0.090240 0.167286
v 0.054371 0.118520 0.164387
v -0.053131 0.094620 0.167286
v -0.054329 0.066350 0.164387
v 0.051971 0.061960 0.164387
v 0.053169 0.090240 0.167286
v -0.054329 0.066350 0.164387
v -0.055428 0.039150 0.155785
v 0.050869 0.034770 0.155785
v 0.051971 0.061960 0.164387
v -0.055428 0.039150 0.155785
v -0.056530 0.014100 0.141785
v 0.049870 0.009720 0.141785
v 0.050869 0.034770 0.155785
v -0.056530 0.014100 0.141785
v -0.057430 -0.007870 0.122986
v 0.048969 -0.012250 0.122986
v 0.049870 0.009720 0.141785
v -0.048931 0.211860 -0.144814
v -0.049828 0.189900 -0.126114
v 0.056469 0.185520 -0.126114
v 0.057369 0.207480 -0.144814
v -0.049828 0.189900 -0.126114
v -0.050930 0.164840 -0.112114
v 0.055470 0.160460 -0.112114
v 0.056469 0.185520 -0.126114
v -0.050930 0.164840 -0.112114
v -0.052029 0.137650 -0.103516
v 0.054371 0.133270 -0.103516
v 0.055470 0.160460 -0.112114
v -0.052029 0.137650 -0.103516
v -0.053131 0.109370 -0.100616
v 0.053169 0.104990 -0.100616
v 0.054371 0.133270 -0.103516
v -0.053131 0.109370 -0.100616
v -0.054329 0.081100 -0.103516
v 0.051971 0.076710 -0.103516
v 0.053169 0.104990 -0.100616
v -0.056530 0.028850 -0.126114
v -0.057430 0.006880 -0.144814
v 0.048969 0.002500 -0.144814
v 0.049870 0.024470 -0.126114
v -0.054329 0.081100 -0.103516
v -0.055428 0.053900 -0.112114
v 0.050869 0.049520 -0.112114
v 0.051971 0.076710 -0.103516
v -0.055428 0.053900 -0.112114
v -0.056530 0.028850 -0.126114
v 0.049870 0.024470 -0.126114
v 0.050869 0.049520 -0.112114
v -0.115631 -0.292250 0.092484
v -0.135929 -0.269030 0.419586
v -0.135929 -0.267470 0.092587
v -0.115631 -0.293810 0.419483
v -0.135929 -0.267470 0.092587
v -0.151028 -0.240770 0.419685
v -0.151028 -0.239210 0.092686
v -0.135929 -0.269030 0.419586
v -0.234329 -0.411790 -0.521015
v -0.234329 -0.411790 0.184486
v -0.234329 0.056940 0.184486
v -0.234329 0.056940 -0.521015
v -0.151028 -0.239210 0.092686
v -0.160328 -0.210100 0.419785
v -0.160328 -0.208540 0.092884
v -0.151028 -0.240770 0.419685
v -0.160328 -0.208540 0.092884
v -0.163528 -0.178200 0.419987
v -0.163528 -0.176640 0.092983
v -0.160328 -0.210100 0.419785
v -0.163528 -0.176640 0.092983
v -0.160328 -0.146310 0.420185
v -0.160328 -0.144750 0.093185
v -0.163528 -0.178200 0.419987
v -0.160328 -0.144750 0.093185
v -0.151028 -0.115640 0.420284
v -0.151028 -0.114080 0.093285
v -0.160328 -0.146310 0.420185
v -0.151028 -0.114080 0.093285
v -0.135929 -0.087370 0.420383
v -0.135929 -0.085810 0.093483
v -0.151028 -0.115640 0.420284
v -0.047329 0.251530 -0.222214
v -0.048931 0.211860 -0.358414
v -0.052029 0.137650 -0.399715
v -0.050930 0.164840 -0.112114
v -0.047630 0.243280 -0.309414
v -0.047329 0.251530 -0.281117
v -0.047230 0.254310 -0.251614
v -0.048229 0.229890 -0.167717
v -0.047630 0.243280 -0.193813
v -0.049828 0.189900 -0.377216
v -0.048229 0.229890 -0.335514
v -0.050930 0.164840 -0.391113
v -0.058731 -0.024540 -0.309414
v -0.058731 -0.024540 -0.193813
v -0.054329 0.081100 -0.399715
v -0.053131 0.109370 -0.402615
v -0.059029 -0.032790 -0.281116
v -0.057430 0.006880 -0.358414
v -0.058128 -0.011140 -0.335514
v -0.054329 0.081100 -0.103516
v -0.057430 0.006880 -0.144814
v -0.058128 -0.011140 -0.167717
v -0.059128 -0.035570 -0.251614
v -0.059029 -0.032790 -0.222214
v -0.052029 0.137650 -0.103516
v -0.053131 0.109370 -0.100616
v -0.056530 0.028850 -0.126114
v -0.055428 0.053900 -0.112114
v -0.049828 0.189900 -0.126114
v -0.048931 0.211860 -0.144814
v -0.055428 0.053900 -0.391113
v -0.056530 0.028850 -0.377216
v -0.047329 0.236780 0.045685
v -0.048931 0.197110 -0.090515
v -0.052029 0.122900 -0.131916
v -0.050930 0.150090 0.155785
v -0.047630 0.228530 -0.041515
v -0.047329 0.236780 -0.013214
v -0.047230 0.239560 0.016285
v -0.048229 0.215140 0.100086
v -0.047630 0.228530 0.073986
v -0.049828 0.175150 -0.109314
v -0.048229 0.215140 -0.067616
v -0.050930 0.150090 -0.123314
v -0.058731 -0.039290 -0.041515
v -0.058731 -0.039290 0.073986
v -0.054329 0.066350 -0.131916
v -0.053131 0.094620 -0.134815
v -0.059029 -0.047540 -0.013214
v -0.057430 -0.007870 -0.090515
v -0.058128 -0.025890 -0.067616
v -0.054329 0.066350 0.164387
v -0.057430 -0.007870 0.122986
v -0.058128 -0.025890 0.100086
v -0.059128 -0.050320 0.016285
v -0.059029 -0.047540 0.045685
v -0.052029 0.122900 0.164387
v -0.053131 0.094620 0.167286
v -0.056530 0.014100 0.141785
v -0.055428 0.039150 0.155785
v -0.049828 0.175150 0.141785
v -0.048931 0.197110 0.122986
v -0.055428 0.039150 -0.123314
v -0.056530 0.014100 -0.109314
v -0.135929 -0.085810 0.093483
v -0.115631 -0.062600 0.420586
v -0.115631 -0.061040 0.093586
v -0.135929 -0.087370 0.420383
v -0.234329 -0.411790 -0.521015
v 0.234371 -0.411790 -0.521015
v -0.234329 -0.411790 0.184486
v 0.234371 -0.411790 0.184486
v 0.031872 -0.336990 0.092285
v -0.000031 -0.341690 0.419186
v -0.000031 -0.340130 0.092186
v 0.031872 -0.338550 0.419186
v -0.000031 -0.340130 0.092186
v -0.031929 -0.338550 0.419186
v -0.031929 -0.336990 0.092285
v -0.000031 -0.341690 0.419186
v 0.062572 -0.327690 0.092285
v 0.031872 -0.338550 0.419186
v 0.031872 -0.336990 0.092285
v 0.062572 -0.329250 0.419285
v -0.031929 -0.336990 0.092285
v -0.062531 -0.329250 0.419285
v -0.062531 -0.327690 0.092285
v -0.031929 -0.338550 0.419186
v 0.090870 -0.312580 0.092384
v 0.062572 -0.329250 0.419285
v 0.062572 -0.327690 0.092285
v 0.090870 -0.314140 0.419384
v -0.062531 -0.327690 0.092285
v -0.090828 -0.314140 0.419384
v -0.090828 -0.312580 0.092384
v -0.062531 -0.329250 0.419285
v 0.115570 -0.292250 0.092484
v 0.090870 -0.314140 0.419384
v 0.090870 -0.312580 0.092384
v 0.115570 -0.293810 0.419483
v -0.090828 -0.312580 0.092384
v -0.115631 -0.293810 0.419483
v -0.115631 -0.292250 0.092484
v -0.090828 -0.314140 0.419384
v -0.058128 -0.011140 -0.335514
v -0.057430 0.006880 -0.358414
v 0.048969 0.002500 -0.358414
v 0.048172 -0.015520 -0.335514
v -0.058731 -0.024540 -0.309414
v -0.058128 -0.011140 -0.335514
v 0.048172 -0.015520 -0.335514
v 0.047672 -0.028920 -0.309414
v -0.059029 -0.032790 -0.281116
v -0.058731 -0.024540 -0.309414
v 0.047672 -0.028920 -0.309414
v 0.047272 -0.037170 -0.281116
v -0.057430 -0.007870 0.122986
v -0.058128 -0.025890 0.100086
v 0.048172 -0.030270 0.100086
v 0.048969 -0.012250 0.122986
v -0.058128 -0.025890 0.100086
v -0.058731 -0.039290 0.073986
v 0.047672 -0.043670 0.073986
v 0.048172 -0.030270 0.100086
v -0.058128 -0.025890 -0.067616
v -0.057430 -0.007870 -0.090515
v 0.048969 -0.012250 -0.090515
v 0.048172 -0.030270 -0.067616
v -0.059128 -0.035570 -0.251614
v -0.059029 -0.032790 -0.281116
v 0.047272 -0.037170 -0.281116
v 0.047173 -0.039950 -0.251614
v -0.058731 -0.039290 0.073986
v -0.059029 -0.047540 0.045685
v 0.047272 -0.051920 0.045685
v 0.047672 -0.043670 0.073986
v -0.058731 -0.039290 -0.041515
v -0.058128 -0.025890 -0.067616
v 0.048172 -0.030270 -0.067616
v 0.047672 -0.043670 -0.041515
v -0.059029 -0.047540 0.045685
v -0.059128 -0.050320 0.016285
v 0.047173 -0.054700 0.016285
v 0.047272 -0.051920 0.045685
v -0.059029 -0.047540 -0.013214
v -0.058731 -0.039290 -0.041515
v 0.047672 -0.043670 -0.041515
v 0.047272 -0.051920 -0.013214
v -0.059128 -0.050320 0.016285
v -0.059029 -0.047540 -0.013214
v 0.047272 -0.051920 -0.013214
v 0.047173 -0.054700 0.016285
v -0.059029 -0.032790 -0.222214
v -0.059128 -0.035570 -0.251614
v 0.047173 -0.039950 -0.251614
v 0.047272 -0.037170 -0.222214
v -0.058731 -0.024540 -0.193813
v -0.059029 -0.032790 -0.222214
v 0.047272 -0.037170 -0.222214
v 0.047672 -0.028920 -0.193813
v -0.058128 -0.011140 -0.167717
v -0.058731 -0.024540 -0.193813
v 0.047672 -0.028920 -0.193813
v 0.048172 -0.015520 -0.167717
v -0.057430 0.006880 -0.144814
v -0.058128 -0.011140 -0.167717
v 0.048172 -0.015520 -0.167717
v 0.048969 0.002500 -0.144814
v 0.234371 -0.411790 -0.521015
v -0.234329 -0.411790 -0.521015
v -0.234329 0.056940 -0.521015
v 0.234371 0.056940 -0.521015
v -0.052029 0.137650 -0.399715
v -0.050930 0.164840 -0.391113
v 0.055470 0.160460 -0.391113
v 0.054371 0.133270 -0.399715
v -0.050930 0.164840 -0.391113
v -0.049828 0.189900 -0.377216
v 0.056469 0.185520 -0.377216
v 0.055470 0.160460 -0.391113
v -0.053131 0.109370 -0.402615
v -0.052029 0.137650 -0.399715
v 0.054371 0.133270 -0.399715
v 0.053169 0.104990 -0.402615
v -0.049828 0.189900 -0.377216
v -0.048931 0.211860 -0.358414
v 0.057369 0.207480 -0.358414
v 0.056469 0.185520 -0.377216
v -0.054329 0.081100 -0.399715
v -0.053131 0.109370 -0.402615
v 0.053169 0.104990 -0.402615
v 0.051971 0.076710 -0.399715
v -0.055428 0.053900 -0.391113
v -0.054329 0.081100 -0.399715
v 0.051971 0.076710 -0.399715
v 0.050869 0.049520 -0.391113
v -0.056530 0.028850 -0.377216
v -0.055428 0.053900 -0.391113
v 0.050869 0.049520 -0.391113
v 0.049870 0.024470 -0.377216
v -0.057430 0.006880 -0.358414
v -0.056530 0.028850 -0.377216
v 0.049870 0.024470 -0.377216
v 0.048969 0.002500 -0.358414
v -0.049828 0.175150 -0.109314
v -0.048931 0.197110 -0.090515
v 0.057369 0.192730 -0.090515
v 0.056469 0.170770 -0.109314
v -0.050930 0.150090 -0.123314
v -0.049828 0.175150 -0.109314
v 0.056469 0.170770 -0.109314
v 0.055470 0.145710 -0.123314
v -0.052029 0.122900 -0.131916
v -0.050930 0.150090 -0.123314
v 0.055470 0.145710 -0.123314
v 0.054371 0.118520 -0.131916
v -0.053131 0.094620 -0.134815
v -0.052029 0.122900 -0.131916
v 0.054371 0.118520 -0.131916
v 0.053169 0.090240 -0.134815
v -0.054329 0.066350 -0.131916
v -0.053131 0.094620 -0.134815
v 0.053169 0.090240 -0.134815
v 0.051971 0.061960 -0.131916
v -0.055428 0.039150 -0.123314
v -0.054329 0.066350 -0.131916
v 0.051971 0.061960 -0.131916
v 0.050869 0.034770 -0.123314
v -0.056530 0.014100 -0.109314
v -0.055428 0.039150 -0.123314
v 0.050869 0.034770 -0.123314
v 0.049870 0.009720 -0.109314
v -0.057430 -0.007870 -0.090515
v -0.056530 0.014100 -0.109314
v 0.049870 0.009720 -0.109314
v 0.048969 -0.012250 -0.090515
v 0.160370 -0.208540 0.092884
v 0.031872 -0.016300 0.093784
v 0.115570 -0.061040 0.093586
v 0.062572 -0.327690 0.092285
v 0.151070 -0.114080 0.093285
v 0.160370 -0.144750 0.093185
v 0.163471 -0.176640 0.092983
v 0.135971 -0.267470 0.092587
v 0.151070 -0.239210 0.092686
v 0.090870 -0.040710 0.093685
v 0.135971 -0.085810 0.093483
v 0.062572 -0.025600 0.093685
v -0.151028 -0.114080 0.093285
v -0.151028 -0.239210 0.092686
v -0.031929 -0.016300 0.093784
v -0.000031 -0.013160 0.093784
v -0.160328 -0.144750 0.093185
v -0.115631 -0.061040 0.093586
v -0.135929 -0.085810 0.093483
v -0.031929 -0.336990 0.092285
v -0.115631 -0.292250 0.092484
v -0.135929 -0.267470 0.092587
v -0.163528 -0.176640 0.092983
v -0.160328 -0.208540 0.092884
v 0.031872 -0.336990 0.092285
v -0.000031 -0.340130 0.092186
v -0.090828 -0.312580 0.092384
v -0.062531 -0.327690 0.092285
v 0.090870 -0.312580 0.092384
v 0.115570 -0.292250 0.092484
v -0.062531 -0.025600 0.093685
v -0.090828 -0.040710 0.093685
vn 0.7708 -0.6371 -0.0000
vn 0.8815 -0.4722 -0.0000
vn 0.8815 -0.4722 -0.0001
vn 1.0000 -0.0000 -0.0000
vn 0.9570 -0.2902 -0.0000
vn 0.9955 -0.0949 -0.0000
vn 0.9955 -0.0948 -0.0000
vn 0.9955 0.0948 -0.0000
vn 0.9570 0.2902 -0.0000
vn 0.8815 0.4722 -0.0000
vn 0.7708 0.6371 -0.0000
vn 0.9992 -0.0394 -0.0000
vn 0.9992 -0.0395 -0.0000
vn 0.9992 -0.0393 -0.0000
vn 0.9992 -0.0395 -0.0001
vn 0.9992 -0.0396 -0.0000
vn 0.9992 -0.0393 -0.0001
vn 0.9992 -0.0393 0.0001
vn 0.9992 -0.0394 -0.0001
vn 0.9992 -0.0394 0.0001
vn 0.0314 0.7843 -0.6196
vn 0.0313 0.7843 -0.6196
vn 0.0393 0.8890 -0.4563
vn 0.0393 0.9584 -0.2828
vn 0.0395 0.9947 -0.0947
vn 0.0396 0.9947 0.0947
vn 0.0395 0.9947 0.0947
vn 0.0393 0.9584 0.2828
vn 0.0393 0.8890 0.4563
vn 0.0394 0.8890 0.4563
vn 0.0314 0.7843 0.6196
vn 0.0315 0.7843 -0.6195
vn 0.0313 0.7843 0.6196
vn -0.0000 1.0000 -0.0000
vn 0.6371 0.7708 -0.0000
vn -0.6371 0.7708 -0.0000
vn 0.4722 0.8815 0.0078
vn 0.4722 0.8815 0.0079
vn -0.4722 0.8815 0.0079
vn -0.4722 0.8815 0.0078
vn 0.2902 0.9569 0.0079
vn 0.2902 0.9569 0.0078
vn -0.2902 0.9569 0.0079
vn -0.2902 0.9569 0.0078
vn 0.0948 0.9955 0.0079
vn -0.0948 0.9955 0.0079
vn -0.0000 -0.0078 1.0000
vn -0.0000 -0.0079 1.0000
vn 0.0236 0.6454 0.7635
vn 0.0236 0.4875 0.8728
vn 0.0158 0.2996 0.9539
vn 0.0157 0.2996 0.9539
vn -0.0000 -0.0000 1.0000
vn 0.0079 0.1026 0.9947
vn -0.0079 -0.1026 0.9947
vn -0.0158 -0.2996 0.9539
vn -0.0236 -0.4875 0.8728
vn -0.0236 -0.6454 0.7635
vn -0.0235 -0.4875 0.8728
vn -0.7708 -0.6371 -0.0000
vn -0.8815 -0.4722 -0.0000
vn -1.0000 -0.0000 -0.0000
vn -0.9570 -0.2902 -0.0000
vn -0.9570 -0.2902 0.0001
vn -0.9955 -0.0948 -0.0000
vn -0.9955 0.0948 -0.0000
vn -0.9570 0.2902 -0.0000
vn -0.8815 0.4722 -0.0000
vn -0.9992 0.0394 -0.0000
vn -0.9992 0.0393 -0.0000
vn -0.9992 0.0396 -0.0001
vn -0.9992 0.0396 0.0001
vn -0.9992 0.0395 -0.0000
vn -0.9992 0.0395 0.0001
vn -0.7708 0.6371 -0.0000
vn -0.0000 -1.0000 -0.0000
vn 0.0948 -0.9955 -0.0079
vn -0.0948 -0.9955 -0.0079
vn 0.2902 -0.9569 -0.0079
vn 0.2902 -0.9569 -0.0078
vn -0.2902 -0.9569 -0.0079
vn -0.2902 -0.9569 -0.0078
vn 0.4722 -0.8815 -0.0079
vn 0.4722 -0.8815 -0.0078
vn -0.4722 -0.8815 -0.0078
vn -0.4722 -0.8815 -0.0079
vn 0.6371 -0.7708 -0.0000
vn -0.6371 -0.7708 -0.0000
vn -0.0314 -0.7843 -0.6196
vn -0.0314 -0.7843 -0.6195
vn -0.0393 -0.8890 -0.4563
vn -0.0393 -0.9584 -0.2827
vn -0.0393 -0.9584 -0.2828
vn -0.0314 -0.7843 0.6195
vn -0.0314 -0.7843 0.6196
vn -0.0393 -0.8890 0.4563
vn -0.0395 -0.9947 -0.0947
vn -0.0393 -0.9584 0.2827
vn -0.0393 -0.9584 0.2828
vn -0.0395 -0.9947 0.0947
vn -0.0396 -0.9947 0.0947
vn -0.0394 -0.8890 0.4563
vn -0.0000 -0.0000 -1.0000
vn 0.0158 0.2996 -0.9539
vn 0.0236 0.4875 -0.8728
vn 0.0079 0.1026 -0.9947
vn 0.0236 0.6454 -0.7635
vn -0.0079 -0.1026 -0.9947
vn -0.0158 -0.2996 -0.9539
vn -0.0236 -0.4875 -0.8728
vn -0.0236 -0.6454 -0.7635
vn -0.0236 -0.6454 -0.7634
vn 0.0235 0.4875 -0.8728
vn -0.0000 0.0079 -1.0000
vn -0.0000 0.0078 -1.0000
vt 0.744482 0.493235
vt 0.319564 0.459001
vt 0.744635 0.461028
vt 0.319411 0.491208
vt 0.744307 0.529980
vt 0.319235 0.527953
vt 0.625014 0.305627
vt 1.542200 0.305627
vt 1.542200 0.914973
vt 0.625013 0.914973
vt 0.744116 0.569850
vt 0.319045 0.567823
vt 0.743919 0.611314
vt 0.318847 0.609287
vt 0.743721 0.652778
vt 0.318650 0.650751
vt 0.743531 0.692648
vt 0.318460 0.690621
vt 0.743356 0.729392
vt 0.318284 0.727365
vt 0.743202 0.761599
vt 0.318131 0.759572
vt 1.036260 0.995024
vt 0.768597 0.784183
vt 0.918848 0.784183
vt 0.805424 1.143070
vt 0.662353 1.030370
vt 0.982537 1.091500
vt 1.036260 0.921505
vt 1.040040 0.958265
vt 1.006950 1.062950
vt 1.025090 1.030370
vt 0.982537 0.825028
vt 0.952788 0.801595
vt 0.882021 0.773461
vt 1.025090 0.886158
vt 1.006950 0.853582
vt 0.843723 0.769840
vt 0.805424 0.773461
vt 0.651182 0.921505
vt 0.704908 0.825028
vt 0.734657 0.801595
vt 0.680494 0.853582
vt 0.662353 0.886158
vt 0.651182 0.995025
vt 0.647410 0.958265
vt 0.680494 1.062950
vt 0.734657 1.114930
vt 0.704908 1.091500
vt 0.768597 1.132350
vt 0.882022 1.143070
vt 0.843723 1.146690
vt 0.918849 1.132350
vt 0.952789 1.114930
vt 1.384490 1.014200
vt 1.116830 0.803358
vt 1.267080 0.803358
vt 1.153650 1.162240
vt 1.010580 1.049550
vt 1.330770 1.110680
vt 1.384490 0.940680
vt 1.388270 0.977440
vt 1.355180 1.082120
vt 1.373320 1.049550
vt 1.330770 0.844203
vt 1.301020 0.820770
vt 1.230250 0.792636
vt 1.373320 0.905333
vt 1.355180 0.872757
vt 1.191950 0.789015
vt 1.153650 0.792636
vt 0.999412 0.940680
vt 1.053140 0.844203
vt 1.082890 0.820770
vt 1.028720 0.872757
vt 1.010580 0.905333
vt 0.999412 1.014200
vt 0.995640 0.977440
vt 1.028720 1.082120
vt 1.082890 1.134110
vt 1.053140 1.110680
vt 1.116830 1.151520
vt 1.230250 1.162240
vt 1.191950 1.165860
vt 1.267080 1.151520
vt 1.301020 1.134110
vt 0.993652 0.337844
vt 0.992687 0.367593
vt 0.854442 0.367593
vt 0.855407 0.337844
vt 0.991970 0.401533
vt 0.853725 0.401533
vt 0.991528 0.438360
vt 0.853283 0.438360
vt 0.991379 0.476659
vt 0.853134 0.476659
vt 0.991379 0.824888
vt 0.991528 0.863187
vt 0.853283 0.863187
vt 0.853134 0.824888
vt 0.991970 0.900014
vt 0.853725 0.900014
vt 0.991528 0.786590
vt 0.853283 0.786590
vt 0.992687 0.933954
vt 0.854442 0.933954
vt 0.991970 0.749763
vt 0.853725 0.749763
vt 0.993652 0.963703
vt 0.855407 0.963703
vt 0.991528 0.514957
vt 0.853283 0.514957
vt 0.992687 0.715823
vt 0.854442 0.715823
vt 0.993652 0.686074
vt 0.855407 0.686074
vt 0.991970 0.551784
vt 0.853725 0.551784
vt 0.992687 0.585724
vt 0.854442 0.585724
vt 0.993652 0.615473
vt 0.855407 0.615473
vt 0.625345 1.043600
vt 1.234690 0.126409
vt 1.234690 1.043600
vt 0.625345 0.126409
vt 0.811939 0.925535
vt 0.779731 1.350480
vt 0.779731 0.925409
vt 0.811939 1.350610
vt 1.080310 0.925409
vt 1.048100 1.350610
vt 1.048100 0.925535
vt 1.080310 1.350480
vt 0.848684 0.925629
vt 0.848684 1.350700
vt 1.011350 1.350700
vt 1.011350 0.925629
vt 0.888554 0.925687
vt 0.888554 1.350760
vt 0.971482 1.350760
vt 0.971482 0.925687
vt 0.930018 0.925706
vt 0.930018 1.350780
vt 0.971482 0.817739
vt 0.733659 0.690621
vt 0.733659 0.527953
vt 1.011350 0.412929
vt 1.138470 0.567823
vt 1.080310 0.759572
vt 0.888554 0.817738
vt 0.930018 0.821822
vt 1.048100 0.786004
vt 1.011350 0.805644
vt 0.779731 0.759572
vt 0.753299 0.727365
vt 0.721564 0.650750
vt 0.848683 0.805644
vt 0.811938 0.786004
vt 0.717480 0.609287
vt 0.721564 0.567823
vt 0.779731 0.459001
vt 0.888554 0.400835
vt 0.753299 0.491208
vt 0.811938 0.432570
vt 0.848683 0.412929
vt 0.971482 0.400835
vt 0.930018 0.396751
vt 1.048100 0.432570
vt 1.106740 0.491208
vt 1.080310 0.459001
vt 1.126380 0.527953
vt 1.138470 0.650751
vt 1.142560 0.609287
vt 1.126380 0.690621
vt 1.106740 0.727365
vt 0.866384 1.097200
vt 0.865208 1.068640
vt 1.003450 1.062950
vt 1.004630 1.091500
vt 0.863866 1.036070
vt 1.002110 1.030370
vt 0.862410 1.000720
vt 1.000650 0.995025
vt 0.625345 0.305627
vt 1.234690 0.305627
vt 1.234690 0.914973
vt 0.625345 0.914973
vt 0.860896 0.963960
vt 0.999141 0.958265
vt 0.859381 0.927200
vt 0.997626 0.921505
vt 0.857925 0.891853
vt 0.996170 0.886158
vt 0.856583 0.859276
vt 0.994828 0.853582
vt 0.855407 0.830723
vt 0.993652 0.825028
vt 0.866384 1.116370
vt 0.865208 1.087820
vt 1.003450 1.082120
vt 1.004630 1.110680
vt 0.863866 1.055240
vt 1.002110 1.049550
vt 0.862410 1.019890
vt 1.000650 1.014200
vt 0.860896 0.983135
vt 0.999141 0.977440
vt 0.859381 0.946375
vt 0.997626 0.940680
vt 0.856583 0.878451
vt 0.855407 0.849898
vt 0.993652 0.844203
vt 0.994828 0.872757
vt 0.857925 0.911028
vt 0.996170 0.905333
vt 1.115400 0.461028
vt 1.540630 0.491208
vt 1.115550 0.493235
vt 1.540470 0.459001
vt 1.540800 0.527953
vt 1.115730 0.529980
vt 0.317834 0.305627
vt 1.235020 0.305627
vt 1.235020 0.914973
vt 0.317834 0.914973
vt 1.540990 0.567823
vt 1.115920 0.569850
vt 1.541190 0.609287
vt 1.116120 0.611314
vt 1.541390 0.650750
vt 1.116320 0.652777
vt 1.541580 0.690621
vt 1.116510 0.692648
vt 1.541750 0.727365
vt 1.116680 0.729392
vt 0.706382 1.167940
vt 0.529269 1.116370
vt 0.475543 1.019890
vt 0.849453 1.055240
vt 0.592958 1.157220
vt 0.629785 1.167940
vt 0.668084 1.171560
vt 0.777149 1.139800
vt 0.743209 1.157220
vt 0.504855 1.087820
vt 0.559018 1.139800
vt 0.486714 1.055240
vt 0.592958 0.809053
vt 0.743209 0.809053
vt 0.475543 0.946375
vt 0.471771 0.983135
vt 0.629785 0.798330
vt 0.529269 0.849898
vt 0.559018 0.826465
vt 0.860625 0.946375
vt 0.806898 0.849898
vt 0.777149 0.826465
vt 0.668084 0.794710
vt 0.706383 0.798330
vt 0.860625 1.019890
vt 0.864397 0.983135
vt 0.831312 0.878451
vt 0.849453 0.911028
vt 0.831312 1.087820
vt 0.806898 1.116370
vt 0.486714 0.911028
vt 0.504855 0.878451
vt 1.054610 1.148760
vt 0.877499 1.097200
vt 0.823773 1.000720
vt 1.197680 1.036070
vt 0.941188 1.138040
vt 0.978015 1.148760
vt 1.016310 1.152380
vt 1.125380 1.120630
vt 1.091440 1.138040
vt 0.853085 1.068640
vt 0.907248 1.120630
vt 0.834944 1.036070
vt 0.941188 0.789878
vt 1.091440 0.789878
vt 0.823773 0.927200
vt 0.820001 0.963960
vt 0.978015 0.779155
vt 0.877499 0.830723
vt 0.907248 0.807290
vt 1.208850 0.927200
vt 1.155130 0.830723
vt 1.125380 0.807290
vt 1.016310 0.775535
vt 1.054610 0.779155
vt 1.208850 1.000720
vt 1.212630 0.963960
vt 1.179540 0.859276
vt 1.197680 0.891853
vt 1.179540 1.068640
vt 1.155130 1.097200
vt 0.834944 0.891853
vt 0.853085 0.859276
vt 1.541910 0.759572
vt 1.116830 0.761599
vt 0.971482 0.923699
vt 0.930018 1.348750
vt 0.930018 0.923679
vt 0.971482 1.348770
vt 0.888554 1.348770
vt 0.888554 0.923699
vt 1.011350 0.923756
vt 1.011350 1.348830
vt 0.848683 1.348830
vt 0.848683 0.923756
vt 1.048100 0.923850
vt 1.048100 1.348920
vt 0.811938 1.348920
vt 0.811938 0.923850
vt 1.080310 0.923976
vt 1.080310 1.349050
vt 0.779731 1.349050
vt 0.779731 0.923976
vt 0.853134 0.824889
vt 0.991379 0.824889
vt 0.997626 1.019890
vt 0.996170 1.055240
vt 0.857925 1.049550
vt 0.859381 1.014200
vt 0.994828 1.087820
vt 0.856583 1.082120
vt 0.999141 0.983135
vt 0.860896 0.977440
vt 0.993652 1.116370
vt 0.855407 1.110680
vt 1.000650 0.946375
vt 0.862410 0.940680
vt 1.002110 0.911028
vt 0.863866 0.905333
vt 1.003450 0.878451
vt 0.865208 0.872757
vt 1.004630 0.849898
vt 0.866384 0.844203
vt 0.994828 1.068640
vt 0.993652 1.097200
vt 0.855407 1.091500
vt 0.856583 1.062950
vt 0.996170 1.036070
vt 0.857925 1.030370
vt 0.997626 1.000720
vt 0.859381 0.995024
vt 0.999141 0.963960
vt 0.860896 0.958265
vt 1.000650 0.927200
vt 0.862410 0.921505
vt 1.002110 0.891853
vt 0.863866 0.886158
vt 1.003450 0.859276
vt 0.865208 0.853582
vt 1.004630 0.830723
vt 0.866384 0.825028
vt 0.721564 0.569850
vt 0.888554 0.819766
vt 0.779731 0.761599
vt 0.848683 0.414957
vt 0.733659 0.692648
vt 0.721564 0.652778
vt 0.717480 0.611314
vt 0.753299 0.493235
vt 0.733659 0.529980
vt 0.811939 0.788031
vt 0.753299 0.729392
vt 0.848684 0.807671
vt 1.126380 0.692648
vt 1.126380 0.529980
vt 0.971482 0.819766
vt 0.930018 0.823849
vt 1.138470 0.652777
vt 1.080310 0.761599
vt 1.106740 0.729392
vt 0.971482 0.402862
vt 1.080310 0.461028
vt 1.106740 0.493235
vt 1.142560 0.611314
vt 1.138470 0.569850
vt 0.888554 0.402862
vt 0.930018 0.398778
vt 1.048100 0.434597
vt 1.011350 0.414956
vt 0.811938 0.434597
vt 0.779731 0.461028
vt 1.011350 0.807671
vt 1.048100 0.788031
s 1
usemtl Handle1Mtl.040
f 1/1/1 2/2/1 3/3/1
f 2/2/1 1/1/1 4/4/1
f 5/5/2 6/4/2 7/1/3
f 6/4/2 5/5/2 8/6/2
f 9/7/4 10/8/4 11/9/4
f 11/9/4 12/10/4 9/7/4
f 13/11/5 14/6/5 15/5/5
f 14/6/5 13/11/5 16/12/5
f 17/13/6 18/12/7 19/11/7
f 18/12/7 17/13/6 20/14/7
f 21/15/8 22/14/8 23/13/8
f 22/14/8 21/15/8 24/16/8
f 25/17/9 26/16/9 27/15/9
f 26/16/9 25/17/9 28/18/9
f 29/19/10 30/18/10 31/17/10
f 30/18/10 29/19/10 32/20/10
f 33/21/11 34/20/11 35/19/11
f 34/20/11 33/21/11 36/22/11
f 37/23/12 38/24/12 39/25/12
f 37/23/12 40/26/13 41/27/12
f 41/27/12 38/24/12 37/23/12
f 37/23/12 42/28/12 40/26/13
f 43/29/12 44/30/12 37/23/12
f 39/25/12 43/29/12 37/23/12
f 45/31/14 42/28/12 37/23/12
f 37/23/12 46/32/12 45/31/14
f 39/25/12 47/33/12 43/29/12
f 39/25/12 48/34/12 47/33/12
f 38/24/12 49/35/14 39/25/12
f 47/33/12 50/36/12 43/29/12
f 47/33/12 51/37/14 50/36/12
f 38/24/12 52/38/14 49/35/14
f 38/24/12 53/39/12 52/38/14
f 38/24/12 54/40/12 55/41/15
f 55/41/15 56/42/14 38/24/12
f 41/27/12 54/40/12 38/24/12
f 54/40/12 57/43/14 55/41/15
f 54/40/12 58/44/12 57/43/14
f 59/45/14 60/46/12 54/40/12
f 41/27/12 59/45/14 54/40/12
f 61/47/14 41/27/12 62/48/12
f 40/26/13 62/48/12 41/27/12
f 62/48/12 63/49/14 61/47/14
f 40/26/13 64/50/14 62/48/12
f 65/51/12 66/52/14 40/26/13
f 67/53/12 65/51/12 40/26/13
f 42/28/12 67/53/12 40/26/13
f 42/28/12 68/54/14 67/53/12
f 69/55/12 70/56/12 71/57/12
f 69/55/12 72/58/16 73/59/12
f 73/59/12 70/56/12 69/55/12
f 69/55/12 74/60/12 72/58/16
f 75/61/12 76/62/12 69/55/12
f 71/57/12 75/61/12 69/55/12
f 77/63/17 74/60/12 69/55/12
f 69/55/12 78/64/12 77/63/17
f 71/57/12 79/65/12 75/61/12
f 71/57/12 80/66/12 79/65/12
f 70/56/12 81/67/14 71/57/12
f 79/65/12 82/68/12 75/61/12
f 79/65/12 83/69/18 82/68/12
f 70/56/12 84/70/12 81/67/14
f 70/56/12 85/71/14 84/70/12
f 70/56/12 86/72/12 87/73/19
f 87/73/19 88/74/14 70/56/12
f 73/59/12 86/72/12 70/56/12
f 86/72/12 89/75/14 87/73/19
f 86/72/12 90/76/20 89/75/14
f 91/77/12 92/78/12 86/72/12
f 73/59/12 91/77/12 86/72/12
f 93/79/14 73/59/12 94/80/12
f 72/58/16 94/80/12 73/59/12
f 94/80/12 95/81/14 93/79/14
f 72/58/16 96/82/12 94/80/12
f 97/83/12 98/84/14 72/58/16
f 99/85/12 97/83/12 72/58/16
f 74/60/12 99/85/12 72/58/16
f 74/60/12 100/86/14 99/85/12
f 101/87/21 102/88/22 103/89/21
f 103/89/21 104/90/21 101/87/21
f 105/88/23 106/91/23 107/92/23
f 107/92/23 108/89/23 105/88/23
f 109/91/24 110/93/24 111/94/24
f 111/94/24 112/92/24 109/91/24
f 113/93/25 114/95/25 115/96/25
f 115/96/25 116/94/25 113/93/25
f 117/97/26 118/98/26 119/99/26
f 119/99/26 120/100/27 117/97/26
f 121/98/28 122/101/28 123/102/28
f 123/102/28 124/99/28 121/98/28
f 125/103/25 126/97/25 127/100/25
f 127/100/25 128/104/25 125/103/25
f 129/101/29 130/105/29 131/106/29
f 131/106/29 132/102/30 129/101/29
f 133/107/24 134/103/24 135/104/24
f 135/104/24 136/108/24 133/107/24
f 137/105/31 138/109/31 139/110/31
f 139/110/31 140/106/31 137/105/31
f 141/95/26 142/111/26 143/112/26
f 143/112/26 144/96/27 141/95/26
f 145/113/23 146/107/23 147/108/23
f 147/108/23 148/114/23 145/113/23
f 149/115/21 150/113/21 151/114/21
f 151/114/21 152/116/32 149/115/21
f 153/111/28 154/117/28 155/118/28
f 155/118/28 156/112/28 153/111/28
f 157/117/29 158/119/29 159/120/29
f 159/120/29 160/118/29 157/117/29
f 161/119/31 162/121/31 163/122/33
f 163/122/33 164/120/31 161/119/31
f 165/123/34 166/124/34 167/125/34
f 165/123/34 168/126/34 166/124/34
f 169/127/35 170/128/35 171/129/35
f 170/128/35 169/127/35 172/130/35
f 173/131/36 174/132/36 175/133/36
f 174/132/36 173/131/36 176/134/36
f 177/135/37 178/130/38 179/127/38
f 178/130/38 177/135/37 180/136/38
f 181/133/39 182/137/40 183/138/39
f 182/137/40 181/133/39 184/132/40
f 185/139/41 186/136/41 187/135/41
f 186/136/41 185/139/41 188/140/42
f 189/138/43 190/141/44 191/142/44
f 190/141/44 189/138/43 192/137/44
f 193/143/45 194/140/45 195/139/45
f 194/140/45 193/143/45 196/144/45
f 197/142/46 198/144/46 199/143/46
f 198/144/46 197/142/46 200/141/46
f 201/145/47 202/146/48 203/147/48
f 201/145/47 204/148/48 205/149/47
f 204/148/48 201/145/47 203/147/48
f 201/145/47 205/149/47 206/150/48
f 207/151/47 201/145/47 208/152/48
f 202/146/48 201/145/47 207/151/47
f 209/153/48 201/145/47 206/150/48
f 201/145/47 209/153/48 210/154/48
f 202/146/48 207/151/47 211/155/47
f 202/146/48 211/155/47 212/156/48
f 203/147/48 202/146/48 213/157/48
f 211/155/47 207/151/47 214/158/48
f 211/155/47 214/158/48 215/159/48
f 203/147/48 213/157/48 216/160/48
f 203/147/48 216/160/48 217/161/48
f 203/147/48 218/162/48 219/163/48
f 218/162/48 203/147/48 220/164/48
f 204/148/48 203/147/48 219/163/48
f 219/163/48 218/162/48 221/165/48
f 219/163/48 221/165/48 222/166/48
f 223/167/48 219/163/48 224/168/48
f 204/148/48 219/163/48 223/167/48
f 225/169/48 226/170/48 204/148/48
f 205/149/47 204/148/48 226/170/48
f 226/170/48 225/169/48 227/171/48
f 205/149/47 226/170/48 228/172/48
f 229/173/48 205/149/47 230/174/48
f 231/175/48 205/149/47 229/173/48
f 206/150/48 205/149/47 231/175/48
f 206/150/48 231/175/48 232/176/48
f 233/177/49 234/178/49 235/179/49
f 235/179/49 236/180/49 233/177/49
f 237/178/50 238/181/50 239/182/50
f 239/182/50 240/179/50 237/178/50
f 241/181/51 242/183/51 243/184/52
f 243/184/52 244/182/51 241/181/51
f 245/185/53 246/186/53 247/187/53
f 247/187/53 248/188/53 245/185/53
f 249/183/54 250/189/54 251/190/54
f 251/190/54 252/184/54 249/183/54
f 253/189/55 254/191/55 255/192/55
f 255/192/55 256/190/55 253/189/55
f 257/191/56 258/193/56 259/194/56
f 259/194/56 260/192/56 257/191/56
f 261/193/57 262/195/57 263/196/57
f 263/196/57 264/194/57 261/193/57
f 265/195/58 266/197/58 267/198/58
f 267/198/58 268/196/58 265/195/58
f 269/199/49 270/200/49 271/201/49
f 271/201/49 272/202/49 269/199/49
f 273/200/50 274/203/50 275/204/50
f 275/204/50 276/201/50 273/200/50
f 277/203/51 278/205/51 279/206/51
f 279/206/51 280/204/51 277/203/51
f 281/205/54 282/207/54 283/208/54
f 283/208/54 284/206/54 281/205/54
f 285/207/55 286/209/55 287/210/55
f 287/210/55 288/208/55 285/207/55
f 289/211/58 290/212/58 291/213/58
f 291/213/58 292/214/58 289/211/58
f 293/209/56 294/215/56 295/216/56
f 295/216/56 296/210/56 293/209/56
f 297/215/57 298/211/57 299/214/57
f 299/214/57 300/216/59 297/215/57
f 301/217/60 302/218/60 303/219/60
f 302/218/60 301/217/60 304/220/60
f 305/219/61 306/221/61 307/222/61
f 306/221/61 305/219/61 308/218/61
f 309/223/62 310/224/62 311/225/62
f 311/225/62 312/226/62 309/223/62
f 313/222/63 314/227/63 315/228/64
f 314/227/63 313/222/63 316/221/63
f 317/228/65 318/229/65 319/230/65
f 318/229/65 317/228/65 320/227/65
f 321/230/66 322/231/66 323/232/66
f 322/231/66 321/230/66 324/229/66
f 325/232/67 326/233/67 327/234/67
f 326/233/67 325/232/67 328/231/67
f 329/234/68 330/235/68 331/236/68
f 330/235/68 329/234/68 332/233/68
f 333/237/69 334/238/69 335/239/69
f 336/240/69 333/237/69 335/239/69
f 334/238/69 333/237/69 337/241/69
f 333/237/69 338/242/69 337/241/69
f 333/237/69 339/243/70 338/242/69
f 333/237/69 336/240/69 340/244/69
f 340/244/69 341/245/70 333/237/69
f 335/239/69 334/238/69 342/246/69
f 337/241/69 343/247/70 334/238/69
f 342/246/69 344/248/70 335/239/69
f 345/249/71 346/250/72 335/239/69
f 335/239/69 347/251/69 345/249/71
f 335/239/69 348/252/70 347/251/69
f 346/250/72 336/240/69 335/239/69
f 345/249/71 349/253/70 346/250/72
f 350/254/69 345/249/71 347/251/69
f 350/254/69 351/255/70 345/249/71
f 352/256/69 336/240/69 346/250/72
f 346/250/72 353/257/69 352/256/69
f 346/250/72 354/258/70 353/257/69
f 355/259/70 356/260/70 346/250/72
f 349/253/70 355/259/70 346/250/72
f 357/261/69 336/240/69 352/256/69
f 352/256/69 358/262/70 357/261/69
f 359/263/69 360/264/70 352/256/69
f 353/257/69 359/263/69 352/256/69
f 340/244/69 336/240/69 361/265/69
f 361/265/69 362/266/70 340/244/69
f 350/254/69 347/251/69 363/267/70
f 363/267/70 364/268/70 350/254/69
f 365/269/69 366/270/69 367/271/69
f 368/272/69 365/269/69 367/271/69
f 366/270/69 365/269/69 369/273/69
f 365/269/69 370/274/70 369/273/69
f 365/269/69 371/275/70 370/274/70
f 365/269/69 368/272/69 372/276/69
f 372/276/69 373/277/70 365/269/69
f 367/271/69 366/270/69 374/278/70
f 369/273/69 375/279/70 366/270/69
f 374/278/70 376/280/70 367/271/69
f 377/281/73 378/282/74 367/271/69
f 367/271/69 379/283/69 377/281/73
f 367/271/69 380/284/70 379/283/69
f 378/282/74 368/272/69 367/271/69
f 377/281/73 381/285/70 378/282/74
f 382/286/69 377/281/73 379/283/69
f 382/286/69 383/287/70 377/281/73
f 384/288/69 368/272/69 378/282/74
f 378/282/74 385/289/69 384/288/69
f 378/282/74 386/290/70 385/289/69
f 387/291/70 388/292/70 378/282/74
f 381/285/70 387/291/70 378/282/74
f 389/293/69 368/272/69 384/288/69
f 384/288/69 390/294/70 389/293/69
f 391/295/69 392/296/70 384/288/69
f 385/289/69 391/295/69 384/288/69
f 372/276/69 368/272/69 393/297/70
f 393/297/70 394/298/70 372/276/69
f 382/286/69 379/283/69 395/299/70
f 395/299/70 396/300/70 382/286/69
f 397/236/75 398/301/75 399/302/75
f 398/301/75 397/236/75 400/235/75
f 401/126/76 402/124/76 403/123/76
f 402/124/76 404/125/76 403/123/76
f 405/303/77 406/304/77 407/305/77
f 406/304/77 405/303/77 408/306/77
f 409/305/78 410/307/78 411/308/78
f 410/307/78 409/305/78 412/304/78
f 413/309/79 414/306/80 415/303/80
f 414/306/80 413/309/79 416/310/79
f 417/308/81 418/311/82 419/312/82
f 418/311/82 417/308/81 420/307/82
f 421/313/83 422/310/84 423/309/83
f 422/310/84 421/313/83 424/314/83
f 425/312/85 426/315/86 427/316/86
f 426/315/86 425/312/85 428/311/85
f 429/317/87 430/314/87 431/313/87
f 430/314/87 429/317/87 432/318/87
f 433/316/88 434/319/88 435/320/88
f 434/319/88 433/316/88 436/315/88
f 437/89/89 438/90/90 439/87/89
f 439/87/89 440/88/90 437/89/89
f 441/92/91 442/89/91 443/88/91
f 443/88/91 444/91/91 441/92/91
f 445/94/92 446/92/93 447/91/93
f 447/91/93 448/93/93 445/94/92
f 449/110/94 450/106/95 451/105/95
f 451/105/95 452/109/94 449/110/94
f 453/106/96 454/102/96 455/101/96
f 455/101/96 456/105/96 453/106/96
f 457/114/89 458/116/89 459/115/89
f 459/115/89 460/113/89 457/114/89
f 461/96/97 462/94/97 463/93/97
f 463/93/97 464/95/97 461/96/97
f 465/102/98 466/99/99 467/98/99
f 467/98/99 468/101/98 465/102/98
f 469/108/91 470/114/91 471/113/91
f 471/113/91 472/107/91 469/108/91
f 473/99/100 474/321/100 475/322/100
f 475/322/100 476/98/100 473/99/100
f 477/104/93 478/108/93 479/107/93
f 479/107/93 480/103/93 477/104/93
f 481/321/97 482/104/97 483/103/97
f 483/103/97 484/322/97 481/321/97
f 485/112/100 486/96/101 487/95/100
f 487/95/100 488/111/100 485/112/100
f 489/118/99 490/112/99 491/111/99
f 491/111/99 492/117/99 489/118/99
f 493/120/96 494/118/96 495/117/102
f 495/117/102 496/119/96 493/120/96
f 497/122/95 498/120/95 499/119/95
f 499/119/95 500/121/95 497/122/95
f 501/185/103 502/186/103 503/187/103
f 503/187/103 504/188/103 501/185/103
f 505/323/104 506/324/104 507/325/104
f 507/325/104 508/326/104 505/323/104
f 509/324/105 510/327/105 511/328/105
f 511/328/105 512/325/105 509/324/105
f 513/329/106 514/323/106 515/326/106
f 515/326/106 516/330/106 513/329/106
f 517/327/107 518/331/107 519/332/107
f 519/332/107 520/328/107 517/327/107
f 521/333/108 522/329/108 523/330/108
f 523/330/108 524/334/108 521/333/108
f 525/335/109 526/333/109 527/334/109
f 527/334/109 528/336/109 525/335/109
f 529/337/110 530/335/110 531/336/110
f 531/336/110 532/338/110 529/337/110
f 533/339/111 534/337/112 535/338/111
f 535/338/111 536/340/111 533/339/111
f 537/341/107 538/342/107 539/343/107
f 539/343/107 540/344/107 537/341/107
f 541/345/105 542/341/105 543/344/113
f 543/344/113 544/346/113 541/345/105
f 545/347/104 546/345/104 547/346/104
f 547/346/104 548/348/104 545/347/104
f 549/349/106 550/347/106 551/348/106
f 551/348/106 552/350/106 549/349/106
f 553/351/108 554/349/108 555/350/108
f 555/350/108 556/352/108 553/351/108
f 557/353/109 558/351/109 559/352/109
f 559/352/109 560/354/109 557/353/109
f 561/355/110 562/353/110 563/354/110
f 563/354/110 564/356/110 561/355/110
f 565/357/111 566/355/111 567/356/111
f 567/356/111 568/358/111 565/357/111
f 569/359/114 570/360/115 571/361/114
f 572/362/114 570/360/115 569/359/114
f 571/361/114 573/363/114 569/359/114
f 569/359/114 573/363/114 574/364/114
f 569/359/114 574/364/114 575/365/114
f 569/359/114 576/366/115 572/362/114
f 576/366/115 569/359/114 577/367/114
f 570/360/115 578/368/114 571/361/114
f 573/363/114 571/361/114 579/369/114
f 578/368/114 570/360/115 580/370/115
f 581/371/114 570/360/115 582/372/114
f 570/360/115 581/371/114 583/373/114
f 570/360/115 583/373/114 584/374/114
f 582/372/114 570/360/115 572/362/114
f 581/371/114 582/372/114 585/375/114
f 586/376/114 583/373/114 581/371/114
f 586/376/114 581/371/114 587/377/114
f 588/378/114 582/372/114 572/362/114
f 582/372/114 588/378/114 589/379/114
f 582/372/114 589/379/114 590/380/114
f 591/381/114 582/372/114 592/382/114
f 585/375/114 582/372/114 591/381/114
f 593/383/114 588/378/114 572/362/114
f 588/378/114 593/383/114 594/384/114
f 595/385/114 588/378/114 596/386/114
f 589/379/114 588/378/114 595/385/114
f 576/366/115 597/387/114 572/362/114
f 597/387/114 576/366/115 598/388/114
f 586/376/114 599/389/114 583/373/114
f 599/389/114 586/376/114 600/390/114
