# Blender 5.1.2
# www.blender.org
mtllib Splitter_1.mtl
o Splitter_1
v 0.211355 0.050846 -0.365404
v 0.211355 -0.099154 -0.365404
v 0.259036 0.050846 -0.303204
v 0.259036 -0.099154 -0.303204
v 0.289005 0.050846 -0.230904
v 0.289005 -0.099154 -0.230904
v 0.299225 0.050846 -0.153204
v 0.299225 -0.099154 -0.153204
v 0.289005 0.050846 -0.075603
v 0.289005 -0.099154 -0.075603
v 0.259036 0.050846 -0.003204
v 0.259036 -0.099154 -0.003204
v 0.211355 0.050846 0.058897
v 0.211355 -0.099154 0.058897
v -0.204645 0.050846 -0.035503
v -0.159085 0.019196 0.005096
v -0.194664 0.019196 -0.041304
v -0.167234 0.050846 0.013197
v -0.217025 0.019196 -0.095303
v -0.194664 0.019196 -0.041304
v -0.228155 0.050846 -0.092304
v -0.204645 0.050846 -0.035503
v -0.224655 0.019196 -0.153204
v -0.217025 0.019196 -0.095303
v -0.236175 0.050846 -0.153204
v -0.228155 0.050846 -0.092304
v -0.217025 0.019196 -0.211203
v -0.224655 0.019196 -0.153204
v -0.236175 0.050846 -0.153204
v -0.228155 0.050846 -0.214203
v -0.194664 0.019196 -0.265203
v -0.217025 0.019196 -0.211203
v -0.228155 0.050846 -0.214203
v -0.204645 0.050846 -0.270903
v -0.159085 0.019196 -0.311504
v -0.194664 0.019196 -0.265203
v -0.204645 0.050846 -0.270903
v -0.167234 0.050846 -0.319704
v -0.150774 0.050846 -0.413004
v -0.167234 0.050846 -0.319704
v -0.118474 0.050846 -0.357103
v -0.212904 0.050846 -0.365404
v -0.204645 0.050846 -0.270903
v -0.212904 0.050846 -0.365404
v -0.260585 0.050846 -0.303204
v -0.167234 0.050846 -0.319704
v -0.000775 0.050846 -0.453203
v -0.061705 0.050846 -0.380604
v -0.000775 0.050846 -0.388603
v -0.078414 0.050846 -0.443003
v -0.061705 0.050846 -0.380604
v -0.150774 0.050846 -0.413004
v -0.118474 0.050846 -0.357103
v -0.078414 0.050846 -0.443003
v -0.290555 0.050846 -0.230904
v -0.236175 0.050846 -0.153204
v -0.228155 0.050846 -0.214203
v -0.300775 0.050846 -0.153204
v -0.236175 0.050846 -0.153204
v -0.300775 0.050846 -0.153204
v -0.290555 0.050846 -0.075603
v -0.228155 0.050846 -0.092304
v -0.260585 0.050846 -0.003204
v -0.204645 0.050846 -0.035503
v -0.290555 0.050846 -0.075603
v -0.228155 0.050846 -0.092304
v -0.290555 0.050846 -0.230904
v -0.204645 0.050846 -0.270903
v -0.260585 0.050846 -0.303204
v -0.228155 0.050846 -0.214203
v -0.118474 0.050846 0.050596
v -0.212904 0.050846 0.058897
v -0.150774 0.050846 0.106596
v -0.167234 0.050846 0.013197
v -0.061705 0.050846 0.074196
v -0.150774 0.050846 0.106596
v -0.078414 0.050846 0.136496
v -0.118474 0.050846 0.050596
v -0.000775 0.050846 0.082197
v -0.078414 0.050846 0.136496
v -0.000775 0.050846 0.146797
v -0.078414 0.050846 0.136496
v -0.000775 0.050846 0.082197
v -0.061705 0.050846 0.074196
v -0.167234 0.050846 0.013197
v -0.260585 0.050846 -0.003204
v -0.212904 0.050846 0.058897
v -0.204645 0.050846 -0.035503
v -0.000775 0.050846 0.146797
v 0.060155 0.050846 0.074196
v -0.000775 0.050846 0.082197
v 0.076875 0.050846 0.136496
v 0.076875 0.050846 0.136496
v 0.116925 0.050846 0.050596
v 0.060155 0.050846 0.074196
v 0.149225 0.050846 0.106596
v 0.116925 0.050846 0.050596
v 0.149225 0.050846 0.106596
v 0.165685 0.050846 0.013197
v 0.211355 0.050846 0.058897
v 0.259036 0.050846 -0.003204
v 0.203095 0.050846 -0.035503
v 0.211355 0.050846 0.058897
v 0.165685 0.050846 0.013197
v 0.226615 0.050846 -0.214203
v 0.259036 0.050846 -0.303204
v 0.203095 0.050846 -0.270903
v 0.289005 0.050846 -0.230904
v 0.259036 0.050846 -0.003204
v 0.289005 0.050846 -0.075603
v 0.203095 0.050846 -0.035503
v 0.226615 0.050846 -0.092304
v 0.226615 0.050846 -0.092304
v 0.299225 0.050846 -0.153204
v 0.234635 0.050846 -0.153204
v 0.299225 0.050846 -0.153204
v 0.226615 0.050846 -0.092304
v 0.289005 0.050846 -0.075603
v 0.234635 0.050846 -0.153204
v 0.289005 0.050846 -0.230904
v 0.226615 0.050846 -0.214203
v 0.299225 0.050846 -0.153204
v 0.149225 0.050846 -0.413004
v 0.060155 0.050846 -0.380604
v 0.116925 0.050846 -0.357103
v 0.076875 0.050846 -0.443003
v 0.076875 0.050846 -0.443003
v -0.000775 0.050846 -0.453203
v 0.060155 0.050846 -0.380604
v -0.000775 0.050846 -0.388603
v 0.203095 0.050846 -0.270903
v 0.211355 0.050846 -0.365404
v 0.165685 0.050846 -0.319704
v 0.259036 0.050846 -0.303204
v 0.165685 0.050846 -0.319704
v 0.211355 0.050846 -0.365404
v 0.116925 0.050846 -0.357103
v 0.149225 0.050846 -0.413004
v 0.069495 -0.046574 -0.172104
v 0.132875 -0.032024 -0.189003
v 0.062225 -0.046574 -0.189604
v -0.000775 -0.051584 -0.153204
v 0.119055 -0.032024 -0.222403
v 0.183186 -0.009364 -0.202503
v 0.164155 -0.009364 -0.248503
v 0.215486 0.019196 -0.211203
v 0.193115 0.019196 -0.265203
v 0.183186 -0.009364 -0.202503
v 0.137595 -0.032024 -0.153204
v 0.189675 -0.009364 -0.153204
v 0.223115 0.019196 -0.153204
v 0.132875 -0.032024 -0.189003
v 0.215486 0.019196 -0.211203
v 0.069495 -0.046574 -0.172104
v 0.071975 -0.046574 -0.153204
v -0.000775 -0.051584 -0.153204
v 0.223115 0.019196 -0.153204
v 0.183186 -0.009364 -0.103903
v 0.215486 0.019196 -0.095303
v 0.189675 -0.009364 -0.153204
v 0.137595 -0.032024 -0.153204
v 0.132875 -0.032024 -0.117403
v 0.069495 -0.046574 -0.134403
v 0.071975 -0.046574 -0.153204
v -0.000775 -0.051584 -0.153204
v -0.000775 -0.051584 -0.153204
v 0.062225 -0.046574 -0.116903
v 0.069495 -0.046574 -0.134403
v 0.132875 -0.032024 -0.117403
v 0.119055 -0.032024 -0.084003
v 0.183186 -0.009364 -0.103903
v 0.164155 -0.009364 -0.058004
v 0.215486 0.019196 -0.095303
v 0.193115 0.019196 -0.041304
v 0.157536 0.019196 0.005096
v 0.193115 0.019196 -0.041304
v 0.164155 -0.009364 -0.058004
v 0.133895 -0.009364 -0.018604
v 0.097065 -0.032024 -0.055403
v 0.119055 -0.032024 -0.084003
v 0.050665 -0.046574 -0.101803
v 0.062225 -0.046574 -0.116903
v -0.000775 -0.051584 -0.153204
v 0.035595 -0.046574 -0.090204
v 0.097065 -0.032024 -0.055403
v 0.050665 -0.046574 -0.101803
v -0.000775 -0.051584 -0.153204
v 0.068415 -0.032024 -0.033403
v 0.094455 -0.009364 0.011696
v 0.133895 -0.009364 -0.018604
v 0.111166 0.019196 0.040697
v 0.157536 0.019196 0.005096
v 0.035035 -0.032024 -0.019604
v 0.094455 -0.009364 0.011696
v 0.068415 -0.032024 -0.033403
v 0.035595 -0.046574 -0.090204
v 0.018055 -0.046574 -0.083004
v -0.000775 -0.051584 -0.153204
v 0.048515 -0.009364 0.030697
v 0.057175 0.019196 0.062996
v 0.111166 0.019196 0.040697
v -0.050065 -0.009364 0.030697
v -0.000775 0.019196 0.070696
v -0.000775 -0.009364 0.037197
v -0.058715 0.019196 0.062996
v -0.036585 -0.032024 -0.019604
v -0.000775 -0.032024 -0.014904
v -0.019605 -0.046574 -0.083004
v -0.000775 -0.046574 -0.080503
v -0.000775 -0.051584 -0.153204
v -0.050065 -0.009364 0.030697
v -0.095994 -0.009364 0.011696
v -0.112715 0.019196 0.040697
v -0.069954 -0.032024 -0.033403
v -0.058715 0.019196 0.062996
v -0.036585 -0.032024 -0.019604
v -0.037145 -0.046574 -0.090204
v -0.019605 -0.046574 -0.083004
v -0.000775 -0.051584 -0.153204
v -0.000775 -0.051584 -0.153204
v -0.052215 -0.046574 -0.101803
v -0.037145 -0.046574 -0.090204
v -0.098615 -0.032024 -0.055403
v -0.069954 -0.032024 -0.033403
v -0.095994 -0.009364 0.011696
v -0.135435 -0.009364 -0.018604
v -0.112715 0.019196 0.040697
v -0.159085 0.019196 0.005096
v -0.159085 0.019196 0.005096
v -0.194664 0.019196 -0.041304
v -0.165705 -0.009364 -0.058004
v -0.135435 -0.009364 -0.018604
v -0.098615 -0.032024 -0.055403
v -0.120605 -0.032024 -0.084003
v -0.052215 -0.046574 -0.101803
v -0.063775 -0.046574 -0.116903
v -0.000775 -0.051584 -0.153204
v -0.120605 -0.032024 -0.084003
v -0.071034 -0.046574 -0.134403
v -0.134425 -0.032024 -0.117403
v -0.063775 -0.046574 -0.116903
v -0.000775 -0.051584 -0.153204
v -0.165705 -0.009364 -0.058004
v -0.184735 -0.009364 -0.103903
v -0.217025 0.019196 -0.095303
v -0.194664 0.019196 -0.041304
v -0.069954 -0.032024 -0.273104
v -0.037145 -0.046574 -0.216204
v -0.036585 -0.032024 -0.286903
v -0.019605 -0.046574 -0.223503
v -0.000775 -0.051584 -0.153204
v -0.050065 -0.009364 -0.337204
v -0.095994 -0.009364 -0.318203
v -0.112715 0.019196 -0.347103
v -0.058715 0.019196 -0.369503
v -0.000775 -0.009364 -0.343704
v -0.050065 -0.009364 -0.337204
v -0.036585 -0.032024 -0.286903
v -0.058715 0.019196 -0.369503
v -0.000775 -0.032024 -0.291603
v -0.000775 0.019196 -0.377104
v -0.019605 -0.046574 -0.223503
v -0.000775 -0.046574 -0.226004
v -0.000775 -0.051584 -0.153204
v -0.000775 -0.009364 -0.343704
v 0.035035 -0.032024 -0.286903
v 0.048515 -0.009364 -0.337204
v 0.057175 0.019196 -0.369503
v -0.000775 -0.032024 -0.291603
v -0.000775 0.019196 -0.377104
v 0.018055 -0.046574 -0.223503
v -0.000775 -0.046574 -0.226004
v -0.000775 -0.051584 -0.153204
v -0.000775 -0.051584 -0.153204
v 0.035595 -0.046574 -0.216204
v 0.018055 -0.046574 -0.223503
v 0.035035 -0.032024 -0.286903
v 0.068415 -0.032024 -0.273104
v 0.048515 -0.009364 -0.337204
v 0.094455 -0.009364 -0.318203
v 0.057175 0.019196 -0.369503
v 0.111166 0.019196 -0.347103
v 0.157536 0.019196 -0.311504
v 0.111166 0.019196 -0.347103
v 0.133895 -0.009364 -0.287903
v 0.094455 -0.009364 -0.318203
v 0.068415 -0.032024 -0.273104
v 0.097065 -0.032024 -0.251104
v 0.035595 -0.046574 -0.216204
v 0.050665 -0.046574 -0.204704
v -0.000775 -0.051584 -0.153204
v 0.062225 -0.046574 -0.189604
v 0.097065 -0.032024 -0.251104
v 0.050665 -0.046574 -0.204704
v -0.000775 -0.051584 -0.153204
v 0.119055 -0.032024 -0.222403
v 0.133895 -0.009364 -0.287903
v 0.164155 -0.009364 -0.248503
v 0.157536 0.019196 -0.311504
v 0.193115 0.019196 -0.265203
v -0.000775 -0.009364 0.037197
v 0.035035 -0.032024 -0.019604
v -0.000775 -0.032024 -0.014904
v 0.048515 -0.009364 0.030697
v 0.018055 -0.046574 -0.083004
v -0.000775 -0.046574 -0.080503
v -0.000775 -0.051584 -0.153204
v -0.000775 0.019196 0.070696
v 0.057175 0.019196 0.062996
v -0.191225 -0.009364 -0.153204
v -0.134425 -0.032024 -0.117403
v -0.139144 -0.032024 -0.153204
v -0.073514 -0.046574 -0.153204
v -0.071034 -0.046574 -0.134403
v -0.000775 -0.051584 -0.153204
v -0.184735 -0.009364 -0.103903
v -0.224655 0.019196 -0.153204
v -0.217025 0.019196 -0.095303
v -0.184735 -0.009364 -0.202503
v -0.139144 -0.032024 -0.153204
v -0.134425 -0.032024 -0.189003
v -0.191225 -0.009364 -0.153204
v -0.073514 -0.046574 -0.153204
v -0.071034 -0.046574 -0.172104
v -0.000775 -0.051584 -0.153204
v -0.217025 0.019196 -0.211203
v -0.224655 0.019196 -0.153204
v -0.194664 0.019196 -0.265203
v -0.184735 -0.009364 -0.202503
v -0.165705 -0.009364 -0.248503
v -0.120605 -0.032024 -0.222403
v -0.217025 0.019196 -0.211203
v -0.134425 -0.032024 -0.189003
v -0.063775 -0.046574 -0.189604
v -0.071034 -0.046574 -0.172104
v -0.000775 -0.051584 -0.153204
v -0.000775 -0.051584 -0.153204
v -0.052215 -0.046574 -0.204704
v -0.063775 -0.046574 -0.189604
v -0.098615 -0.032024 -0.251104
v -0.120605 -0.032024 -0.222403
v -0.165705 -0.009364 -0.248503
v -0.135435 -0.009364 -0.287903
v -0.159085 0.019196 -0.311504
v -0.194664 0.019196 -0.265203
v -0.037145 -0.046574 -0.216204
v -0.098615 -0.032024 -0.251104
v -0.052215 -0.046574 -0.204704
v -0.000775 -0.051584 -0.153204
v -0.069954 -0.032024 -0.273104
v -0.135435 -0.009364 -0.287903
v -0.095994 -0.009364 -0.318203
v -0.112715 0.019196 -0.347103
v -0.159085 0.019196 -0.311504
v -0.078414 -0.099154 0.136496
v -0.000775 -0.099154 0.146797
v -0.078414 0.050846 0.136496
v -0.000775 0.050846 0.146797
v -0.150774 0.050846 0.106596
v -0.150774 -0.099154 0.106596
v -0.212904 0.050846 0.058897
v -0.212904 -0.099154 0.058897
v 0.211355 0.050846 0.058897
v 0.211355 -0.099154 0.058897
v 0.149225 0.050846 0.106596
v 0.149225 -0.099154 0.106596
v 0.076875 0.050846 0.136496
v 0.076875 -0.099154 0.136496
v -0.000775 0.050846 0.146797
v -0.000775 -0.099154 0.146797
v -0.112715 0.019196 -0.347103
v -0.058715 0.019196 -0.369503
v -0.061705 0.050846 -0.380604
v -0.118474 0.050846 -0.357103
v -0.058715 0.019196 -0.369503
v -0.000775 0.019196 -0.377104
v -0.000775 0.050846 -0.388603
v -0.061705 0.050846 -0.380604
v 0.057175 0.019196 -0.369503
v -0.000775 0.019196 -0.377104
v -0.000775 0.050846 -0.388603
v 0.060155 0.050846 -0.380604
v 0.057175 0.019196 -0.369503
v 0.111166 0.019196 -0.347103
v 0.060155 0.050846 -0.380604
v 0.116925 0.050846 -0.357103
v 0.157536 0.019196 -0.311504
v 0.116925 0.050846 -0.357103
v 0.111166 0.019196 -0.347103
v 0.165685 0.050846 -0.319704
v -0.112715 0.019196 -0.347103
v -0.159085 0.019196 -0.311504
v -0.118474 0.050846 -0.357103
v -0.167234 0.050846 -0.319704
v -0.212904 0.050846 0.058897
v -0.212904 -0.099154 0.058897
v -0.260585 0.050846 -0.003204
v -0.260585 -0.099154 -0.003204
v -0.290555 0.050846 -0.075603
v -0.290555 -0.099154 -0.075603
v -0.300775 0.050846 -0.153204
v -0.300775 -0.099154 -0.153204
v -0.290555 0.050846 -0.230904
v -0.290555 -0.099154 -0.230904
v -0.260585 0.050846 -0.303204
v -0.260585 -0.099154 -0.303204
v -0.212904 0.050846 -0.365404
v -0.212904 -0.099154 -0.365404
v 0.215486 0.019196 -0.211203
v 0.193115 0.019196 -0.265203
v 0.226615 0.050846 -0.214203
v 0.203095 0.050846 -0.270903
v 0.223115 0.019196 -0.153204
v 0.215486 0.019196 -0.211203
v 0.234635 0.050846 -0.153204
v 0.226615 0.050846 -0.214203
v 0.223115 0.019196 -0.153204
v 0.215486 0.019196 -0.095303
v 0.234635 0.050846 -0.153204
v 0.226615 0.050846 -0.092304
v 0.215486 0.019196 -0.095303
v 0.193115 0.019196 -0.041304
v 0.226615 0.050846 -0.092304
v 0.203095 0.050846 -0.035503
v 0.203095 0.050846 -0.035503
v 0.157536 0.019196 0.005096
v 0.165685 0.050846 0.013197
v 0.193115 0.019196 -0.041304
v 0.157536 0.019196 -0.311504
v 0.193115 0.019196 -0.265203
v 0.203095 0.050846 -0.270903
v 0.165685 0.050846 -0.319704
v 0.211355 -0.099154 -0.365404
v -0.260585 -0.099154 -0.003204
v -0.150774 -0.099154 -0.413004
v 0.076875 -0.099154 -0.443003
v 0.149225 -0.099154 -0.413004
v -0.000775 -0.099154 -0.453203
v -0.078414 -0.099154 -0.443003
v 0.211355 -0.099154 0.058897
v 0.259036 -0.099154 -0.303204
v -0.300775 -0.099154 -0.153204
v -0.290555 -0.099154 -0.075603
v -0.290555 -0.099154 -0.230904
v -0.212904 -0.099154 -0.365404
v -0.260585 -0.099154 -0.303204
v 0.299225 -0.099154 -0.153204
v 0.289005 -0.099154 -0.230904
v 0.259036 -0.099154 -0.003204
v 0.289005 -0.099154 -0.075603
v -0.150774 -0.099154 0.106596
v -0.212904 -0.099154 0.058897
v -0.000775 -0.099154 0.146797
v -0.078414 -0.099154 0.136496
v 0.149225 -0.099154 0.106596
v 0.076875 -0.099154 0.136496
v -0.212904 0.050846 -0.365404
v -0.212904 -0.099154 -0.365404
v -0.150774 0.050846 -0.413004
v -0.150774 -0.099154 -0.413004
v -0.078414 0.050846 -0.443003
v -0.078414 -0.099154 -0.443003
v -0.000775 0.050846 -0.453203
v -0.000775 -0.099154 -0.453203
v 0.076875 0.050846 -0.443003
v 0.076875 -0.099154 -0.443003
v 0.149225 0.050846 -0.413004
v 0.149225 -0.099154 -0.413004
v 0.211355 0.050846 -0.365404
v 0.211355 -0.099154 -0.365404
v 0.111166 0.019196 0.040697
v 0.157536 0.019196 0.005096
v 0.116925 0.050846 0.050596
v 0.165685 0.050846 0.013197
v 0.057175 0.019196 0.062996
v 0.111166 0.019196 0.040697
v 0.060155 0.050846 0.074196
v 0.116925 0.050846 0.050596
v -0.000775 0.019196 0.070696
v -0.058715 0.019196 0.062996
v -0.000775 0.050846 0.082197
v -0.061705 0.050846 0.074196
v -0.112715 0.019196 0.040697
v -0.058715 0.019196 0.062996
v -0.061705 0.050846 0.074196
v -0.118474 0.050846 0.050596
v -0.112715 0.019196 0.040697
v -0.159085 0.019196 0.005096
v -0.118474 0.050846 0.050596
v -0.167234 0.050846 0.013197
v -0.000775 0.019196 0.070696
v 0.057175 0.019196 0.062996
v -0.000775 0.050846 0.082197
v 0.060155 0.050846 0.074196
v 0.299235 0.025846 0.606796
v 0.239235 -0.124154 0.546797
v 0.239235 0.025846 0.546797
v 0.299235 -0.124154 0.606796
v 0.269235 0.075846 0.636797
v 0.209235 0.025846 0.576796
v 0.209235 0.075846 0.576796
v 0.269235 0.025846 0.636797
v 0.299235 0.025846 1.086796
v 0.299235 -0.124154 0.606796
v 0.299235 0.025846 0.606796
v 0.299235 -0.124154 1.086796
v 0.269235 0.075846 1.056797
v 0.269235 0.025846 0.636797
v 0.269235 0.075846 0.636797
v 0.269235 0.025846 1.056797
v -0.210764 0.075846 1.116796
v 0.209235 0.075846 1.116796
v 0.209235 0.075846 0.576796
v 0.269235 0.075846 1.056797
v 0.269235 0.075846 0.636797
v -0.270765 0.075846 1.056797
v -0.210764 0.075846 0.576796
v -0.270765 0.075846 0.636797
v -0.240765 0.025846 1.146797
v 0.239235 0.025846 1.146797
v 0.239235 0.025846 0.546797
v 0.299235 0.025846 1.086796
v 0.299235 0.025846 0.606796
v -0.300765 0.025846 1.086796
v -0.240765 0.025846 0.546797
v -0.300765 0.025846 0.606796
v -0.240765 0.025846 1.146797
v -0.300765 0.025846 1.086796
v -0.240765 -0.124154 1.146797
v -0.300765 -0.124154 1.086796
v 0.299235 0.025846 1.086796
v 0.239235 0.025846 1.146797
v 0.299235 -0.124154 1.086796
v 0.239235 -0.124154 1.146797
v -0.270765 0.025846 1.056797
v -0.210764 0.025846 1.116796
v -0.270765 0.075846 1.056797
v -0.210764 0.075846 1.116796
v 0.209235 0.025846 1.116796
v 0.269235 0.025846 1.056797
v 0.209235 0.075846 1.116796
v 0.269235 0.075846 1.056797
v -0.240765 0.025846 1.146797
v 0.239235 -0.124154 1.146797
v 0.239235 0.025846 1.146797
v -0.240765 -0.124154 1.146797
v -0.210764 0.075846 1.116796
v 0.209235 0.025846 1.116796
v 0.209235 0.075846 1.116796
v -0.210764 0.025846 1.116796
v -0.300765 0.025846 0.606796
v -0.240765 0.025846 0.546797
v -0.300765 -0.124154 0.606796
v -0.240765 -0.124154 0.546797
v -0.210764 0.025846 0.576796
v -0.270765 0.025846 0.636797
v -0.210764 0.075846 0.576796
v -0.270765 0.075846 0.636797
v -0.300765 0.025846 0.606796
v -0.300765 -0.124154 1.086796
v -0.300765 0.025846 1.086796
v -0.300765 -0.124154 0.606796
v -0.270765 0.075846 0.636797
v -0.270765 0.025846 1.056797
v -0.270765 0.075846 1.056797
v -0.270765 0.025846 0.636797
v -0.240765 -0.124154 0.546797
v 0.239235 -0.124154 0.546797
v 0.299235 -0.124154 1.086796
v 0.299235 -0.124154 0.606796
v 0.239235 -0.124154 1.146797
v -0.240765 -0.124154 1.146797
v -0.300765 -0.124154 1.086796
v -0.300765 -0.124154 0.606796
v 0.239235 0.025846 0.546797
v -0.240765 -0.124154 0.546797
v -0.240765 0.025846 0.546797
v 0.239235 -0.124154 0.546797
v 0.209235 0.075846 0.576796
v -0.210764 0.025846 0.576796
v -0.210764 0.075846 0.576796
v 0.209235 0.025846 0.576796
vn 0.8644 -0.0000 -0.5029
vn 0.7071 -0.0000 -0.7071
vn 0.9659 -0.0000 -0.2589
vn 1.0000 -0.0000 0.0001
vn 0.9659 -0.0000 0.2591
vn 0.8644 -0.0000 0.5029
vn 0.7071 -0.0000 0.7071
vn 0.8128 0.3393 -0.4735
vn 0.5927 0.5453 -0.5927
vn 0.7266 0.5449 -0.4186
vn 0.6649 0.3404 -0.6649
vn 0.9081 0.3396 -0.2449
vn 0.8104 0.5429 -0.2203
vn 0.8128 0.3393 -0.4734
vn 0.9405 0.3398 -0.0000
vn 0.8104 0.5428 -0.2203
vn 0.8381 0.5455 -0.0000
vn 0.9082 0.3396 -0.2448
vn 0.8104 0.5429 0.2203
vn 0.9082 0.3396 0.2448
vn 0.7266 0.5449 0.4185
vn 0.9081 0.3396 0.2449
vn 0.8104 0.5428 0.2203
vn 0.8128 0.3393 0.4734
vn 0.5928 0.5453 0.5927
vn 0.8128 0.3393 0.4735
vn 0.7266 0.5449 0.4186
vn 0.6649 0.3404 0.6649
vn -0.0000 1.0000 -0.0000
vn -0.1413 0.9892 0.0393
vn -0.3081 0.9481 0.0790
vn -0.1257 0.9896 0.0707
vn -0.2765 0.9479 0.1580
vn -0.5254 0.8391 0.1412
vn -0.4713 0.8405 0.2671
vn -0.8104 0.5429 0.2203
vn -0.7266 0.5449 0.4185
vn -0.5254 0.8391 0.1411
vn -0.3162 0.9487 -0.0000
vn -0.5419 0.8404 -0.0000
vn -0.8381 0.5456 -0.0000
vn -0.1491 0.9888 -0.0000
vn -0.5254 0.8391 -0.1412
vn -0.8104 0.5429 -0.2203
vn -0.3081 0.9481 -0.0790
vn -0.1413 0.9892 -0.0393
vn -0.1257 0.9896 -0.0707
vn -0.1413 0.9892 -0.0392
vn -0.2765 0.9479 -0.1580
vn -0.4713 0.8405 -0.2671
vn -0.7265 0.5449 -0.4186
vn -0.5927 0.5454 -0.5927
vn -0.3844 0.8394 -0.3844
vn -0.2287 0.9463 -0.2287
vn -0.1021 0.9895 -0.1021
vn -0.0707 0.9896 -0.1257
vn -0.1580 0.9479 -0.2765
vn -0.2671 0.8405 -0.4713
vn -0.4185 0.5449 -0.7265
vn -0.0790 0.9481 -0.3081
vn -0.0393 0.9892 -0.1413
vn -0.1412 0.8391 -0.5254
vn -0.2203 0.5429 -0.8104
vn -0.4185 0.5450 -0.7265
vn 0.1411 0.8391 -0.5254
vn -0.0000 0.5456 -0.8381
vn -0.0000 0.8404 -0.5419
vn 0.2203 0.5429 -0.8104
vn 0.0790 0.9481 -0.3081
vn -0.0000 0.9487 -0.3162
vn 0.0392 0.9892 -0.1413
vn -0.0000 0.9888 -0.1491
vn 0.1412 0.8391 -0.5254
vn 0.2671 0.8405 -0.4713
vn 0.4185 0.5450 -0.7265
vn 0.1580 0.9479 -0.2765
vn 0.0707 0.9896 -0.1257
vn 0.0393 0.9892 -0.1413
vn 0.1021 0.9895 -0.1021
vn 0.2287 0.9463 -0.2287
vn 0.3844 0.8394 -0.3844
vn 0.4186 0.5449 -0.7265
vn 0.5927 0.5454 -0.5927
vn 0.4713 0.8405 -0.2671
vn 0.7265 0.5450 -0.4185
vn 0.3844 0.8394 -0.3843
vn 0.2765 0.9479 -0.1580
vn 0.1257 0.9896 -0.0707
vn 0.1413 0.9892 -0.0393
vn 0.3081 0.9481 -0.0790
vn 0.5254 0.8391 -0.1412
vn 0.1580 0.9479 0.2765
vn 0.0707 0.9896 0.1256
vn 0.0790 0.9481 0.3081
vn 0.0393 0.9892 0.1413
vn 0.1412 0.8391 0.5254
vn 0.2671 0.8405 0.4713
vn 0.4185 0.5449 0.7266
vn 0.2203 0.5429 0.8104
vn -0.0000 0.8404 0.5419
vn 0.1411 0.8391 0.5254
vn -0.0000 0.9487 0.3162
vn -0.0000 0.5456 0.8381
vn -0.0000 0.9888 0.1491
vn -0.0790 0.9481 0.3081
vn -0.1411 0.8391 0.5254
vn -0.2203 0.5429 0.8104
vn -0.0393 0.9892 0.1413
vn -0.0707 0.9896 0.1257
vn -0.1580 0.9479 0.2765
vn -0.1412 0.8391 0.5254
vn -0.2671 0.8405 0.4713
vn -0.4185 0.5450 0.7265
vn -0.4186 0.5449 0.7265
vn -0.3843 0.8394 0.3844
vn -0.5927 0.5453 0.5927
vn -0.2287 0.9463 0.2287
vn -0.1021 0.9895 0.1021
vn -0.3844 0.8394 0.3844
vn -0.7265 0.5450 0.4185
vn -0.1411 0.8391 -0.5254
vn -0.0392 0.9892 -0.1413
vn 0.5419 0.8404 -0.0000
vn 0.3162 0.9487 -0.0000
vn 0.1491 0.9888 -0.0000
vn 0.1413 0.9892 -0.0392
vn 0.5254 0.8391 -0.1411
vn 0.8381 0.5456 -0.0000
vn 0.5254 0.8391 0.1411
vn 0.3081 0.9481 0.0790
vn 0.1413 0.9892 0.0393
vn 0.7265 0.5450 0.4185
vn 0.5254 0.8391 0.1412
vn 0.4713 0.8405 0.2671
vn 0.2765 0.9479 0.1580
vn 0.1256 0.9896 0.0707
vn 0.1021 0.9895 0.1021
vn 0.1257 0.9896 0.0707
vn 0.2287 0.9463 0.2287
vn 0.3844 0.8394 0.3844
vn 0.5927 0.5453 0.5927
vn 0.7265 0.5450 0.4186
vn 0.0707 0.9896 0.1257
vn 0.4185 0.5449 0.7265
vn -0.2589 -0.0000 0.9659
vn -0.0000 -0.0000 1.0000
vn -0.5029 -0.0000 0.8644
vn -0.7071 -0.0000 0.7071
vn 0.5028 -0.0000 0.8644
vn 0.5029 -0.0000 0.8643
vn 0.2594 -0.0000 0.9658
vn 0.2593 -0.0000 0.9658
vn 0.4186 0.5449 0.7266
vn 0.2203 0.5428 0.8104
vn 0.2448 0.3396 0.9082
vn 0.4735 0.3393 0.8128
vn -0.0000 0.5455 0.8381
vn -0.0000 0.3398 0.9405
vn -0.2203 0.5428 0.8104
vn -0.2448 0.3396 0.9082
vn -0.4185 0.5449 0.7266
vn -0.2449 0.3396 0.9081
vn -0.4735 0.3393 0.8128
vn -0.5927 0.5453 0.5928
vn -0.4186 0.5449 0.7266
vn -0.6649 0.3404 0.6649
vn 0.5927 0.5453 0.5928
vn -0.8644 -0.0000 0.5029
vn -0.9659 -0.0000 0.2591
vn -1.0000 -0.0000 0.0001
vn -0.9659 -0.0000 -0.2589
vn -0.8644 -0.0000 -0.5029
vn -0.7071 -0.0000 -0.7071
vn -0.7266 0.5449 0.4186
vn -0.9082 0.3396 0.2449
vn -0.8128 0.3393 0.4734
vn -0.8381 0.5455 -0.0000
vn -0.9405 0.3398 -0.0000
vn -0.9082 0.3396 0.2448
vn -0.9082 0.3396 -0.2448
vn -0.7266 0.5449 -0.4185
vn -0.9081 0.3396 -0.2449
vn -0.8128 0.3393 -0.4734
vn -0.8128 0.3393 -0.4735
vn -0.5928 0.5453 -0.5927
vn -0.6649 0.3404 -0.6649
vn -0.7266 0.5449 -0.4186
vn -0.8128 0.3393 0.4735
vn -0.0000 -1.0000 -0.0000
vn -0.5029 -0.0000 -0.8644
vn -0.2592 -0.0000 -0.9658
vn -0.0000 -0.0000 -1.0000
vn 0.2594 -0.0000 -0.9658
vn 0.2589 -0.0000 -0.9659
vn 0.5029 -0.0000 -0.8644
vn -0.5927 0.5453 -0.5927
vn -0.4186 0.5449 -0.7266
vn -0.4735 0.3393 -0.8128
vn -0.2448 0.3396 -0.9082
vn -0.4734 0.3393 -0.8128
vn -0.0000 0.3398 -0.9405
vn -0.0000 0.5455 -0.8381
vn 0.2448 0.3387 -0.9085
vn 0.4185 0.5449 -0.7266
vn 0.2449 0.3396 -0.9081
vn 0.2203 0.5428 -0.8104
vn 0.4734 0.3393 -0.8128
vn 0.5927 0.5453 -0.5928
vn 0.4735 0.3393 -0.8128
vn 0.4186 0.5449 -0.7266
vn -0.2203 0.5428 -0.8104
vn 1.0000 -0.0000 -0.0000
vn -1.0000 -0.0000 -0.0000
vt -0.191760 0.685649
vt -0.110988 0.490649
vt -0.110988 0.685649
vt -0.191760 0.490649
vt -0.285821 0.685649
vt -0.285821 0.490649
vt -0.386760 0.685649
vt -0.386760 0.490649
vt -0.487700 0.685649
vt -0.487700 0.490649
vt -0.581760 0.685649
vt -0.581760 0.490649
vt -0.662531 0.685649
vt -0.662531 0.490649
vt -0.539774 0.685649
vt -0.592563 0.644498
vt -0.532285 0.644498
vt -0.603154 0.685649
vt -0.465966 0.685649
vt -0.462089 0.644498
vt -0.386760 0.644498
vt -0.311431 0.644498
vt -0.307554 0.685649
vt -0.241235 0.644498
vt -0.233746 0.685649
vt -0.180957 0.644498
vt -0.170366 0.685649
vt -0.191760 0.250399
vt -0.170366 0.371754
vt -0.233746 0.323121
vt -0.110988 0.312377
vt -0.121732 0.435135
vt -0.049010 0.393149
vt -0.386760 0.198149
vt -0.307554 0.292548
vt -0.386760 0.282121
vt -0.285821 0.211438
vt -0.010049 0.487209
vt -0.080732 0.588149
vt -0.091160 0.508943
vt 0.003240 0.588149
vt -0.010049 0.689088
vt -0.091160 0.667355
vt -0.049011 0.783149
vt -0.121732 0.741163
vt -0.233746 0.853176
vt -0.110988 0.863921
vt -0.191760 0.925898
vt -0.170366 0.804543
vt -0.307554 0.883749
vt -0.285821 0.964860
vt -0.386760 0.894177
vt -0.386760 0.978149
vt -0.465966 0.883749
vt -0.487700 0.964860
vt -0.539774 0.853176
vt -0.581761 0.925898
vt -0.603154 0.804543
vt -0.662532 0.863920
vt -0.724510 0.783148
vt -0.651788 0.741163
vt -0.682360 0.508943
vt -0.724510 0.393149
vt -0.651788 0.435135
vt -0.763471 0.487209
vt -0.763471 0.689088
vt -0.682360 0.667354
vt -0.776760 0.588149
vt -0.692788 0.588149
vt -0.581760 0.250399
vt -0.465966 0.292548
vt -0.539774 0.323121
vt -0.487700 0.211438
vt -0.662531 0.312377
vt -0.603154 0.371754
vt -0.478106 0.563673
vt -0.560509 0.541593
vt -0.468658 0.540865
vt -0.386760 0.588149
vt -0.542540 0.498209
vt -0.625906 0.524070
vt -0.601172 0.464358
vt -0.667892 0.512820
vt -0.638817 0.442624
vt -0.566639 0.588149
vt -0.634342 0.588149
vt -0.677810 0.588149
vt -0.481328 0.588149
vt -0.625906 0.652227
vt -0.667892 0.663478
vt -0.560509 0.634705
vt -0.478106 0.612624
vt -0.468658 0.635432
vt -0.542540 0.678088
vt -0.601172 0.711939
vt -0.638817 0.733673
vt -0.592564 0.793952
vt -0.561827 0.763215
vt -0.513954 0.715342
vt -0.453630 0.655018
vt -0.434044 0.670047
vt -0.476700 0.743928
vt -0.510551 0.802561
vt -0.532285 0.840205
vt -0.433316 0.761898
vt -0.411236 0.679494
vt -0.450839 0.827294
vt -0.462089 0.869281
vt -0.322681 0.827294
vt -0.386760 0.879198
vt -0.386760 0.835731
vt -0.311431 0.869281
vt -0.340204 0.761898
vt -0.386760 0.768027
vt -0.362284 0.679494
vt -0.386760 0.682716
vt -0.262969 0.802561
vt -0.241235 0.840205
vt -0.296821 0.743928
vt -0.339476 0.670047
vt -0.319891 0.655018
vt -0.259567 0.715342
vt -0.211693 0.763215
vt -0.180957 0.793952
vt -0.172348 0.711939
vt -0.134704 0.733673
vt -0.230981 0.678088
vt -0.304862 0.635432
vt -0.295415 0.612624
vt -0.213010 0.634705
vt -0.147615 0.652227
vt -0.105628 0.663478
vt -0.296821 0.432369
vt -0.339476 0.506250
vt -0.340204 0.414399
vt -0.362284 0.496803
vt -0.322681 0.349003
vt -0.262969 0.373737
vt -0.241235 0.336092
vt -0.311431 0.307016
vt -0.386760 0.340567
vt -0.386760 0.408270
vt -0.386760 0.297099
vt -0.386760 0.493581
vt -0.433316 0.414399
vt -0.450839 0.349003
vt -0.462089 0.307016
vt -0.411236 0.496803
vt -0.434044 0.506250
vt -0.476700 0.432369
vt -0.510551 0.373737
vt -0.532285 0.336092
vt -0.561827 0.413082
vt -0.592564 0.382345
vt -0.513954 0.460955
vt -0.453630 0.521279
vt -0.139178 0.588149
vt -0.206882 0.588149
vt -0.292192 0.588149
vt -0.095710 0.588149
vt -0.147615 0.524070
vt -0.213011 0.541593
vt -0.295415 0.563673
vt -0.105628 0.512820
vt -0.134704 0.442624
vt -0.172348 0.464358
vt -0.230981 0.498209
vt -0.304862 0.540865
vt -0.319891 0.521279
vt -0.259567 0.460955
vt -0.211693 0.413082
vt -0.180957 0.382345
vt -0.662532 0.685649
vt -0.662532 0.490649
vt -0.285820 0.685649
vt -0.285820 0.490649
vt -0.592564 0.644498
vt -0.307555 0.685649
vt -0.241236 0.644498
vt -0.603155 0.685649
vt -0.110989 0.312377
vt -0.724510 0.783149
vt -0.110988 0.863920
vt -0.049011 0.393149
vt -0.662532 0.312377
vt -0.049010 0.783148
vt -0.581760 0.925898
vt -0.662532 0.863921
vt -0.285820 0.964860
vt 0.160461 1.421590
vt 0.238461 1.226590
vt 0.238461 1.421590
vt 0.160461 1.226590
vt 0.121461 1.486590
vt 0.199461 1.421590
vt 0.199461 1.486590
vt 0.121461 1.421590
vt -0.463539 1.421590
vt -0.463539 1.226590
vt -0.424539 1.486590
vt -0.424539 1.421590
vt 0.121461 1.707590
vt -0.424539 1.707590
vt -0.424539 1.005590
vt -0.502539 1.629590
vt -0.502539 1.083590
vt 0.199461 1.629590
vt 0.121461 1.005590
vt 0.199461 1.083590
vt 0.160461 1.746590
vt -0.463539 1.746590
vt -0.463539 0.966586
vt -0.541539 1.668590
vt -0.541539 1.044590
vt 0.238461 1.668590
vt 0.160461 0.966586
vt 0.238461 1.044590
vt -0.541539 1.421590
vt -0.541539 1.226590
vt -0.502539 1.421590
vt -0.502539 1.486590
s 1
usemtl Output11Mtl
f 3/1/1 2/2/2 1/3/2
f 2/2/2 3/1/1 4/4/1
f 3/1/1 5/5/3 4/4/1
f 4/4/1 5/5/3 6/6/3
f 5/5/3 7/7/4 6/6/3
f 6/6/3 7/7/4 8/8/4
f 7/7/4 9/9/5 8/8/4
f 8/8/4 9/9/5 10/10/5
f 9/9/5 11/11/6 10/10/5
f 10/10/5 11/11/6 12/12/6
f 12/12/6 11/11/6 13/13/7
f 12/12/6 13/13/7 14/14/7
f 15/15/8 16/16/9 17/17/10
f 16/16/9 15/15/8 18/18/11
f 21/19/12 20/17/10 19/20/13
f 20/17/10 21/19/12 22/15/14
f 25/7/15 24/20/16 23/21/17
f 24/20/16 25/7/15 26/19/18
f 27/22/19 29/7/15 28/21/17
f 29/7/15 27/22/19 30/23/20
f 31/24/21 33/23/22 32/22/23
f 33/23/22 31/24/21 34/25/24
f 35/26/25 37/25/26 36/24/27
f 37/25/26 35/26/25 38/27/28
f 39/28/29 40/29/29 41/30/29
f 40/29/29 39/28/29 42/31/29
f 43/32/29 44/31/29 45/33/29
f 44/31/29 43/32/29 46/29/29
f 47/34/29 48/35/29 49/36/29
f 48/35/29 47/34/29 50/37/29
f 51/35/29 52/28/29 53/30/29
f 52/28/29 51/35/29 54/37/29
f 55/38/29 56/39/29 57/40/29
f 56/39/29 55/38/29 58/41/29
f 59/39/29 60/41/29 61/42/29
f 59/39/29 61/42/29 62/43/29
f 63/44/29 64/45/29 65/42/29
f 65/42/29 64/45/29 66/43/29
f 67/38/29 68/32/29 69/33/29
f 68/32/29 67/38/29 70/40/29
f 71/46/29 72/47/29 73/48/29
f 72/47/29 71/46/29 74/49/29
f 75/50/29 76/48/29 77/51/29
f 76/48/29 75/50/29 78/46/29
f 79/52/29 80/51/29 81/53/29
f 82/51/29 83/52/29 84/50/29
f 85/49/29 86/44/29 87/47/29
f 86/44/29 85/49/29 88/45/29
f 89/53/29 90/54/29 91/52/29
f 90/54/29 89/53/29 92/55/29
f 93/55/29 94/56/29 95/54/29
f 94/56/29 93/55/29 96/57/29
f 97/56/29 98/57/29 99/58/29
f 98/57/29 100/59/29 99/58/29
f 101/60/29 102/61/29 103/59/29
f 103/59/29 102/61/29 104/58/29
f 105/62/29 106/63/29 107/64/29
f 106/63/29 105/62/29 108/65/29
f 109/60/29 110/66/29 111/61/29
f 110/66/29 112/67/29 111/61/29
f 113/67/29 114/68/29 115/69/29
f 116/68/29 117/67/29 118/66/29
f 119/69/29 120/65/29 121/62/29
f 120/65/29 119/69/29 122/68/29
f 123/70/29 124/71/29 125/72/29
f 124/71/29 123/70/29 126/73/29
f 127/73/29 128/34/29 129/71/29
f 128/34/29 130/36/29 129/71/29
f 131/64/29 132/74/29 133/75/29
f 132/74/29 131/64/29 134/63/29
f 135/75/29 136/74/29 137/72/29
f 136/74/29 138/70/29 137/72/29
f 139/76/30 140/77/31 141/78/32
f 142/79/29 139/76/30 141/78/32
f 141/78/32 140/77/31 143/80/33
f 140/77/31 144/81/34 143/80/33
f 143/80/33 144/81/34 145/82/35
f 145/82/35 144/81/34 146/83/36
f 145/82/35 146/83/36 147/84/37
f 148/81/38 149/85/39 150/86/40
f 148/81/38 150/86/40 151/87/41
f 149/85/39 148/81/38 152/77/31
f 148/81/38 151/87/41 153/83/36
f 152/77/31 154/76/30 149/85/39
f 155/88/42 149/85/39 154/76/30
f 156/79/29 155/88/42 154/76/30
f 157/87/41 158/89/43 159/90/44
f 158/89/43 157/87/41 160/86/40
f 160/86/40 161/85/39 158/89/43
f 161/85/39 162/91/45 158/89/43
f 161/85/39 163/92/46 162/91/45
f 163/92/46 161/85/39 164/88/42
f 165/79/29 163/92/46 164/88/42
f 166/79/29 167/93/47 168/92/48
f 167/93/47 169/91/45 168/92/48
f 169/91/45 167/93/47 170/94/49
f 170/94/49 171/89/43 169/91/45
f 171/89/43 170/94/49 172/95/50
f 172/95/50 173/90/44 171/89/43
f 173/90/44 172/95/50 174/96/51
f 175/97/52 176/96/51 177/95/50
f 175/97/52 177/95/50 178/98/53
f 177/95/50 179/99/54 178/98/53
f 179/99/54 177/95/50 180/94/49
f 180/94/49 181/100/55 179/99/54
f 181/100/55 180/94/49 182/93/47
f 183/79/29 181/100/55 182/93/47
f 184/101/56 185/99/54 186/100/55
f 187/79/29 184/101/56 186/100/55
f 185/99/54 184/101/56 188/102/57
f 189/103/58 185/99/54 188/102/57
f 185/99/54 189/103/58 190/98/53
f 191/104/59 190/98/53 189/103/58
f 190/98/53 191/104/59 192/97/52
f 193/105/60 194/103/58 195/102/57
f 196/101/56 193/105/60 195/102/57
f 193/105/60 196/101/56 197/106/61
f 198/79/29 197/106/61 196/101/56
f 194/103/58 193/105/60 199/107/62
f 200/108/63 194/103/58 199/107/62
f 194/103/58 200/108/63 201/104/64
f 202/109/65 203/110/66 204/111/67
f 203/110/66 202/109/65 205/112/68
f 204/111/67 206/113/69 202/109/65
f 206/113/69 204/111/67 207/114/70
f 207/114/70 208/115/71 206/113/69
f 208/115/71 207/114/70 209/116/72
f 210/79/29 208/115/71 209/116/72
f 211/109/73 212/117/74 213/118/75
f 211/109/73 214/119/76 212/117/74
f 211/109/73 213/118/75 215/112/68
f 214/119/76 211/109/73 216/113/69
f 216/113/69 217/120/77 214/119/76
f 217/120/77 216/113/69 218/115/78
f 219/79/29 217/120/77 218/115/78
f 220/79/29 221/121/79 222/120/77
f 222/120/77 221/121/79 223/122/80
f 224/119/76 222/120/77 223/122/80
f 223/122/80 225/117/74 224/119/76
f 225/117/74 223/122/80 226/123/81
f 226/123/81 227/118/82 225/117/74
f 227/118/82 226/123/81 228/124/83
f 229/124/83 231/125/84 230/126/85
f 231/125/84 229/124/83 232/123/86
f 231/125/84 232/123/86 233/122/80
f 231/125/84 233/122/80 234/127/87
f 233/122/80 235/121/79 234/127/87
f 234/127/87 235/121/79 236/128/88
f 237/79/29 236/128/88 235/121/79
f 238/127/87 239/129/89 240/130/90
f 239/129/89 238/127/87 241/128/88
f 242/79/29 239/129/89 241/128/88
f 240/130/90 243/125/84 238/127/87
f 243/125/84 240/130/90 244/131/91
f 245/132/13 243/125/84 244/131/91
f 245/132/13 246/126/85 243/125/84
f 247/133/92 248/134/93 249/135/94
f 248/134/93 250/136/95 249/135/94
f 251/79/29 250/136/95 248/134/93
f 247/133/92 249/135/94 252/137/96
f 253/138/97 247/133/92 252/137/96
f 252/137/96 254/139/98 253/138/97
f 254/139/98 252/137/96 255/140/99
f 256/141/100 257/137/101 258/135/94
f 256/141/100 259/140/99 257/137/101
f 256/141/100 258/135/94 260/142/102
f 259/140/99 256/141/100 261/143/103
f 258/135/94 262/136/95 260/142/102
f 260/142/102 262/136/95 263/144/104
f 264/79/29 263/144/104 262/136/95
f 265/141/100 266/145/105 267/146/106
f 268/147/107 265/141/100 267/146/106
f 266/145/105 265/141/100 269/142/102
f 268/147/107 270/143/103 265/141/100
f 269/142/102 271/148/108 266/145/105
f 271/148/108 269/142/102 272/144/104
f 273/79/29 271/148/108 272/144/104
f 274/79/29 275/149/109 276/148/108
f 275/149/109 277/145/105 276/148/108
f 277/145/105 275/149/109 278/150/110
f 278/150/110 279/146/111 277/145/105
f 279/146/111 278/150/110 280/151/112
f 280/151/112 281/147/107 279/146/111
f 281/147/107 280/151/112 282/152/113
f 284/152/114 285/153/115 283/154/116
f 285/153/115 284/152/114 286/151/112
f 287/150/110 285/153/115 286/151/112
f 285/153/115 287/150/110 288/155/117
f 289/149/109 288/155/117 287/150/110
f 288/155/117 289/149/109 290/156/118
f 291/79/29 290/156/118 289/149/109
f 292/78/32 293/155/117 294/156/118
f 295/79/29 292/78/32 294/156/118
f 293/155/117 292/78/32 296/80/33
f 296/80/33 297/153/119 293/155/117
f 297/153/119 296/80/33 298/82/35
f 298/82/35 299/154/116 297/153/119
f 299/154/116 298/82/35 300/84/120
f 301/111/67 302/105/60 303/114/70
f 302/105/60 301/111/67 304/107/121
f 305/106/122 303/114/70 302/105/60
f 303/114/70 305/106/122 306/116/72
f 307/79/29 306/116/72 305/106/122
f 308/110/66 304/107/121 301/111/67
f 304/107/121 308/110/66 309/108/63
f 310/157/123 311/130/90 312/158/124
f 311/130/90 313/159/125 312/158/124
f 313/159/125 311/130/90 314/129/126
f 315/79/29 313/159/125 314/129/126
f 311/130/90 310/157/123 316/131/127
f 317/160/128 316/131/127 310/157/123
f 316/131/127 317/160/128 318/132/13
f 319/161/129 320/158/124 321/162/130
f 320/158/124 319/161/129 322/157/123
f 323/159/125 321/162/130 320/158/124
f 321/162/130 323/159/125 324/163/131
f 325/79/29 324/163/131 323/159/125
f 326/164/19 322/157/123 319/161/129
f 322/157/123 326/164/19 327/160/128
f 328/165/132 329/161/133 330/166/134
f 329/161/133 331/167/135 330/166/134
f 329/161/133 328/165/132 332/164/19
f 331/167/135 329/161/133 333/162/130
f 333/162/130 334/168/136 331/167/135
f 334/168/136 333/162/130 335/163/131
f 336/79/29 334/168/136 335/163/131
f 337/79/29 338/169/137 339/168/138
f 338/169/137 340/170/139 339/168/138
f 339/168/138 340/170/139 341/167/135
f 340/170/139 342/166/134 341/167/135
f 342/166/134 340/170/139 343/171/140
f 342/166/134 343/171/140 344/172/141
f 342/166/134 344/172/141 345/165/142
f 346/134/143 347/170/139 348/169/137
f 349/79/29 346/134/143 348/169/137
f 347/170/139 346/134/143 350/133/92
f 350/133/92 351/171/140 347/170/139
f 351/171/140 350/133/92 352/138/97
f 351/171/140 352/138/97 353/139/144
f 351/171/140 353/139/144 354/172/141
f 355/10/145 356/8/146 357/9/145
f 356/8/146 358/7/146 357/9/145
f 355/10/145 357/9/145 359/11/147
f 360/12/147 355/10/145 359/11/147
f 360/12/147 359/11/147 361/173/148
f 361/173/148 362/174/148 360/12/147
f 364/2/7 363/3/7 365/1/149
f 365/1/149 366/4/150 364/2/7
f 366/4/150 365/1/149 367/175/151
f 368/176/152 366/4/150 367/175/151
f 368/176/152 367/175/151 369/7/146
f 370/8/146 368/176/152 369/7/146
f 371/17/153 372/20/154 373/19/155
f 371/17/153 373/19/155 374/15/156
f 375/20/99 376/21/157 377/7/158
f 375/20/99 377/7/158 378/19/155
f 379/22/159 381/7/158 380/21/157
f 381/7/158 379/22/159 382/23/160
f 384/24/161 385/23/162 383/22/107
f 385/23/162 384/24/161 386/25/163
f 387/26/164 388/25/163 389/24/165
f 388/25/163 387/26/164 390/27/166
f 391/17/153 393/15/156 392/177/167
f 392/177/167 393/15/156 394/18/28
f 397/1/168 396/2/148 395/3/148
f 397/1/168 398/4/168 396/2/148
f 399/5/169 398/4/168 397/1/168
f 399/5/169 400/6/169 398/4/168
f 401/7/170 400/6/169 399/5/169
f 401/7/170 402/8/170 400/6/169
f 403/9/171 402/8/170 401/7/170
f 403/9/171 404/10/171 402/8/170
f 405/11/172 404/10/171 403/9/171
f 405/11/172 406/12/172 404/10/171
f 407/173/173 406/12/172 405/11/172
f 407/173/173 408/174/173 406/12/172
f 410/17/174 409/20/36 411/19/175
f 411/19/175 412/15/176 410/17/174
f 414/20/36 413/21/177 415/7/178
f 415/7/178 416/19/179 414/20/36
f 418/22/44 419/7/178 417/21/177
f 419/7/178 418/22/44 420/178/180
f 422/179/181 423/178/182 421/22/44
f 423/178/182 422/179/181 424/25/183
f 425/25/184 426/26/185 427/27/186
f 426/26/185 425/25/184 428/179/187
f 429/177/116 430/17/174 431/15/188
f 432/180/166 429/177/116 431/15/188
f 433/181/189 434/182/189 435/70/189
f 433/181/189 436/37/189 437/28/189
f 433/181/189 438/34/189 436/37/189
f 435/70/189 438/34/189 433/181/189
f 438/34/189 435/70/189 439/73/189
f 440/183/189 434/182/189 433/181/189
f 440/183/189 433/181/189 441/184/189
f 434/182/189 442/68/189 435/70/189
f 442/68/189 434/182/189 443/66/189
f 444/65/189 435/70/189 442/68/189
f 444/65/189 445/185/189 435/70/189
f 445/185/189 444/65/189 446/63/189
f 447/41/189 440/183/189 441/184/189
f 447/41/189 441/184/189 448/38/189
f 440/183/189 447/41/189 449/186/189
f 449/186/189 447/41/189 450/42/189
f 434/182/189 440/183/189 451/187/189
f 434/182/189 451/187/189 452/188/189
f 451/187/189 440/183/189 453/53/189
f 451/187/189 453/53/189 454/55/189
f 453/53/189 440/183/189 455/48/189
f 453/53/189 455/48/189 456/189/189
f 459/1/190 458/2/173 457/3/173
f 458/2/173 459/1/190 460/4/190
f 461/5/191 460/4/190 459/1/190
f 460/4/190 461/5/191 462/6/191
f 463/7/192 462/6/191 461/5/191
f 462/6/191 463/7/192 464/8/192
f 465/9/193 464/8/192 463/7/192
f 464/8/192 465/9/193 466/10/194
f 467/11/195 466/10/194 465/9/193
f 466/10/194 467/11/195 468/12/195
f 469/13/2 468/12/195 467/11/195
f 468/12/195 469/13/2 470/14/2
f 472/177/196 471/17/197 473/15/198
f 473/15/198 474/18/186 472/177/196
f 477/19/199 476/17/197 475/20/63
f 477/19/199 478/15/200 476/17/197
f 480/22/68 481/7/201 479/21/202
f 481/7/201 480/22/68 482/23/203
f 483/24/204 485/23/205 484/22/206
f 485/23/205 483/24/204 486/25/207
f 488/26/208 489/25/209 487/24/210
f 489/25/209 488/26/208 490/27/11
f 493/7/201 492/20/211 491/21/202
f 493/7/201 494/19/199 492/20/211
usemtl Handle1Mtl.049
f 495/190/2 496/191/2 497/192/2
f 496/191/2 495/190/2 498/193/2
f 499/194/2 500/195/2 501/196/2
f 500/195/2 499/194/2 502/197/2
f 503/198/212 504/193/212 505/190/212
f 504/193/212 503/198/212 506/199/212
f 507/200/212 508/197/212 509/194/212
f 508/197/212 507/200/212 510/201/212
f 511/202/29 512/203/29 513/204/29
f 513/204/29 512/203/29 514/205/29
f 513/204/29 514/205/29 515/206/29
f 513/204/29 516/207/29 511/202/29
f 516/207/29 513/204/29 517/208/29
f 516/207/29 517/208/29 518/209/29
f 519/210/29 520/211/29 521/212/29
f 521/212/29 520/211/29 522/213/29
f 521/212/29 522/213/29 523/214/29
f 521/212/29 524/215/29 519/210/29
f 524/215/29 521/212/29 525/216/29
f 524/215/29 525/216/29 526/217/29
f 527/198/148 528/218/148 529/199/148
f 528/218/148 530/219/148 529/199/148
f 531/192/7 532/190/7 533/191/7
f 532/190/7 534/193/7 533/191/7
f 535/220/148 536/201/148 537/221/148
f 538/200/148 537/221/148 536/201/148
f 539/197/7 540/195/7 541/194/7
f 542/196/7 541/194/7 540/195/7
f 543/198/146 544/193/146 545/190/146
f 544/193/146 543/198/146 546/199/146
f 547/200/146 548/197/146 549/194/146
f 548/197/146 547/200/146 550/201/146
f 551/198/173 552/218/173 553/199/173
f 552/218/173 554/219/173 553/199/173
f 555/220/173 556/201/173 557/221/173
f 558/200/173 557/221/173 556/201/173
f 559/198/213 560/193/213 561/190/213
f 560/193/213 559/198/213 562/199/213
f 563/200/213 564/197/213 565/194/213
f 564/197/213 563/200/213 566/201/213
f 567/212/189 568/216/189 569/215/189
f 569/215/189 568/216/189 570/217/189
f 571/210/189 567/212/189 569/215/189
f 567/212/189 571/210/189 572/211/189
f 567/212/189 572/211/189 573/213/189
f 567/212/189 573/213/189 574/214/189
f 575/198/192 576/193/192 577/190/192
f 576/193/192 575/198/192 578/199/192
f 579/200/192 580/197/192 581/194/192
f 580/197/192 579/200/192 582/201/192
