# Blender 5.1.2
# www.blender.org
mtllib EntitySensor.mtl
o EntitySensor
v -1.279969 -0.086442 -0.969002
v 1.220031 -0.086442 -0.969002
v 1.470031 -0.086442 -1.219002
v 1.220031 -0.086442 -0.969002
v -1.279969 -0.086442 -0.969002
v -1.279969 -0.076442 -0.969002
v -1.279969 -0.076442 -0.969002
v -1.279969 -0.086442 -0.969002
v -1.279969 -0.086442 1.030998
v 1.220031 -0.076442 -0.969002
v -1.279969 -0.076442 -0.969002
v -1.279969 -0.076442 1.030998
v 1.220031 -0.076442 -0.969002
v 1.220031 -0.086442 -0.969002
v 1.220031 -0.076442 -0.969002
v 1.220031 -0.076442 1.030998
v -1.529969 -0.086442 -1.219002
v 1.470031 -0.086442 -1.219002
v -1.529969 -0.586442 -1.219002
v -1.529969 -0.086442 -1.219002
v -1.529969 -0.086442 1.280998
v 1.220031 -0.086442 1.030998
v -1.529969 -0.586442 -1.219002
v -1.529969 -0.586442 1.280998
v -1.529969 -0.086442 1.280998
v -1.529969 -0.586442 1.280998
v -1.529969 -0.586442 -1.219002
v 1.470031 -0.586442 -1.219002
v 1.470031 -0.586442 1.280998
v 1.470031 -0.086442 -1.219002
v 1.470031 -0.586442 1.280998
v 1.470031 -0.586442 -1.219002
v 1.470031 -0.086442 1.280998
v 0.970031 -0.586442 1.780998
v 0.470031 -0.586442 1.780998
v 0.970031 -0.586442 1.280998
v 0.470031 -0.586442 1.780998
v 0.970031 -0.586442 1.780998
v 0.970031 -0.086442 1.780998
v 0.470031 -0.586442 1.280998
v 0.470031 -0.086442 1.280998
v 0.970031 -0.586442 1.280998
v 0.470031 -0.086442 1.280998
v 0.470031 -0.586442 1.280998
v 0.470031 -0.586442 1.780998
v 0.470031 -0.586442 1.280998
v 0.470031 -0.086442 1.780998
v -1.529969 -0.586442 1.280998
v 1.470031 -0.586442 1.280998
v 1.470031 -0.086442 1.280998
v -1.279969 -0.086442 1.030998
v -1.279969 -0.086442 1.030998
v 1.220031 -0.086442 1.030998
v -1.279969 -0.076442 1.030998
v 1.220031 -0.076442 1.030998
v 1.220031 -0.076442 1.030998
v -1.529969 -0.086442 1.280998
v -1.529969 -0.086442 -1.219002
v 0.970031 -0.086442 1.780998
v 0.970031 -0.086442 1.280998
v 0.470031 -0.086442 1.280998
v 0.970031 -0.086442 1.280998
v 0.970031 -0.086442 1.780998
v 0.970031 -0.586442 1.780998
v 0.970031 -0.086442 1.280998
v 0.970031 -0.586442 1.280998
v 1.470031 -0.086442 1.280998
v 0.470031 -0.086442 1.780998
v 0.470031 -0.086442 1.780998
v 1.220031 -0.086442 1.030998
v -1.279969 -0.076442 1.030998
v 1.470031 -0.586442 -1.219002
v 0.530031 0.061558 -0.839001
v 0.470031 -0.088442 -0.779001
v 0.470031 0.061558 -0.779001
v 0.530031 -0.088442 -0.839001
v 0.560031 0.111558 -0.809002
v 0.500031 0.061558 -0.749001
v 0.500031 0.111558 -0.749001
v 0.560031 0.061558 -0.809002
v 1.010031 0.061558 -0.839001
v 0.530031 -0.088442 -0.839001
v 0.530031 0.061558 -0.839001
v 1.010031 -0.088442 -0.839001
v 0.980031 0.111558 -0.809002
v 0.560031 0.061558 -0.809002
v 0.560031 0.111558 -0.809002
v 0.980031 0.061558 -0.809002
v 1.040031 0.111558 -0.329000
v 1.040031 0.111558 -0.749001
v 0.500031 0.111558 -0.749001
v 0.980031 0.111558 -0.809002
v 0.560031 0.111558 -0.809002
v 0.980031 0.111558 -0.269001
v 0.500031 0.111558 -0.329000
v 0.560031 0.111558 -0.269001
v 1.070031 0.061558 -0.299002
v 1.070031 0.061558 -0.779001
v 0.470031 0.061558 -0.779001
v 1.010031 0.061558 -0.839001
v 0.530031 0.061558 -0.839001
v 1.010031 0.061558 -0.239002
v 0.470031 0.061558 -0.299002
v 0.530031 0.061558 -0.239002
v 1.070031 0.061558 -0.299002
v 1.010031 0.061558 -0.239002
v 1.070031 -0.088442 -0.299002
v 1.010031 -0.088442 -0.239002
v 1.010031 0.061558 -0.839001
v 1.070031 0.061558 -0.779001
v 1.010031 -0.088442 -0.839001
v 1.070031 -0.088442 -0.779001
v 0.980031 0.061558 -0.269001
v 1.040031 0.061558 -0.329000
v 0.980031 0.111558 -0.269001
v 1.040031 0.111558 -0.329000
v 1.040031 0.061558 -0.749001
v 0.980031 0.061558 -0.809002
v 1.040031 0.111558 -0.749001
v 0.980031 0.111558 -0.809002
v 1.070031 0.061558 -0.299002
v 1.070031 -0.088442 -0.779001
v 1.070031 0.061558 -0.779001
v 1.070031 -0.088442 -0.299002
v 1.040031 0.111558 -0.329000
v 1.040031 0.061558 -0.749001
v 1.040031 0.111558 -0.749001
v 1.040031 0.061558 -0.329000
v 0.530031 0.061558 -0.239002
v 0.470031 0.061558 -0.299002
v 0.530031 -0.088442 -0.239002
v 0.470031 -0.088442 -0.299002
v 0.500031 0.061558 -0.329000
v 0.560031 0.061558 -0.269001
v 0.500031 0.111558 -0.329000
v 0.560031 0.111558 -0.269001
v 0.530031 0.061558 -0.239002
v 1.010031 -0.088442 -0.239002
v 1.010031 0.061558 -0.239002
v 0.530031 -0.088442 -0.239002
v 0.560031 0.111558 -0.269001
v 0.980031 0.061558 -0.269001
v 0.980031 0.111558 -0.269001
v 0.560031 0.061558 -0.269001
v 0.470031 -0.088442 -0.299002
v 0.470031 -0.088442 -0.779001
v 1.010031 -0.088442 -0.839001
v 0.530031 -0.088442 -0.839001
v 1.070031 -0.088442 -0.779001
v 1.070031 -0.088442 -0.299002
v 1.010031 -0.088442 -0.239002
v 0.530031 -0.088442 -0.239002
v 0.470031 0.061558 -0.779001
v 0.470031 -0.088442 -0.299002
v 0.470031 0.061558 -0.299002
v 0.470031 -0.088442 -0.779001
v 0.500031 0.111558 -0.749001
v 0.500031 0.061558 -0.329000
v 0.500031 0.111558 -0.329000
v 0.500031 0.061558 -0.749001
v -1.069969 0.061558 -0.839001
v -1.129969 -0.088442 -0.779001
v -1.129969 0.061558 -0.779001
v -1.069969 -0.088442 -0.839001
v -1.039969 0.111558 -0.809002
v -1.099969 0.061558 -0.749001
v -1.099969 0.111558 -0.749001
v -1.039969 0.061558 -0.809002
v -0.589969 0.061558 -0.839001
v -1.069969 -0.088442 -0.839001
v -1.069969 0.061558 -0.839001
v -0.589969 -0.088442 -0.839001
v -0.619969 0.111558 -0.809002
v -1.039969 0.061558 -0.809002
v -1.039969 0.111558 -0.809002
v -0.619969 0.061558 -0.809002
v -0.559969 0.111558 -0.329000
v -0.559969 0.111558 -0.749001
v -1.099969 0.111558 -0.749001
v -0.619969 0.111558 -0.809002
v -1.039969 0.111558 -0.809002
v -0.619969 0.111558 -0.269001
v -1.099969 0.111558 -0.329000
v -1.039969 0.111558 -0.269001
v -0.529969 0.061558 -0.299002
v -0.529969 0.061558 -0.779001
v -1.129969 0.061558 -0.779001
v -0.589969 0.061558 -0.839001
v -1.069969 0.061558 -0.839001
v -0.589969 0.061558 -0.239002
v -1.129969 0.061558 -0.299002
v -1.069969 0.061558 -0.239002
v -0.529969 0.061558 -0.299002
v -0.589969 0.061558 -0.239002
v -0.529969 -0.088442 -0.299002
v -0.589969 -0.088442 -0.239002
v -0.589969 0.061558 -0.839001
v -0.529969 0.061558 -0.779001
v -0.589969 -0.088442 -0.839001
v -0.529969 -0.088442 -0.779001
v -0.619969 0.061558 -0.269001
v -0.559969 0.061558 -0.329000
v -0.619969 0.111558 -0.269001
v -0.559969 0.111558 -0.329000
v -0.559969 0.061558 -0.749001
v -0.619969 0.061558 -0.809002
v -0.559969 0.111558 -0.749001
v -0.619969 0.111558 -0.809002
v -0.529969 0.061558 -0.299002
v -0.529969 -0.088442 -0.779001
v -0.529969 0.061558 -0.779001
v -0.529969 -0.088442 -0.299002
v -0.559969 0.111558 -0.329000
v -0.559969 0.061558 -0.749001
v -0.559969 0.111558 -0.749001
v -0.559969 0.061558 -0.329000
v -1.069969 0.061558 -0.239002
v -1.129969 0.061558 -0.299002
v -1.069969 -0.088442 -0.239002
v -1.129969 -0.088442 -0.299002
v -1.099969 0.061558 -0.329000
v -1.039969 0.061558 -0.269001
v -1.099969 0.111558 -0.329000
v -1.039969 0.111558 -0.269001
v -1.069969 0.061558 -0.239002
v -0.589969 -0.088442 -0.239002
v -0.589969 0.061558 -0.239002
v -1.069969 -0.088442 -0.239002
v -1.039969 0.111558 -0.269001
v -0.619969 0.061558 -0.269001
v -0.619969 0.111558 -0.269001
v -1.039969 0.061558 -0.269001
v -1.129969 -0.088442 -0.299002
v -1.129969 -0.088442 -0.779001
v -0.589969 -0.088442 -0.839001
v -1.069969 -0.088442 -0.839001
v -0.529969 -0.088442 -0.779001
v -0.529969 -0.088442 -0.299002
v -0.589969 -0.088442 -0.239002
v -1.069969 -0.088442 -0.239002
v -1.129969 0.061558 -0.779001
v -1.129969 -0.088442 -0.299002
v -1.129969 0.061558 -0.299002
v -1.129969 -0.088442 -0.779001
v -1.099969 0.111558 -0.749001
v -1.099969 0.061558 -0.329000
v -1.099969 0.111558 -0.329000
v -1.099969 0.061558 -0.749001
v -0.269969 0.061558 -0.839001
v -0.329969 -0.088442 -0.779001
v -0.329969 0.061558 -0.779001
v -0.269969 -0.088442 -0.839001
v -0.239969 0.111558 -0.809002
v -0.299969 0.061558 -0.749001
v -0.299969 0.111558 -0.749001
v -0.239969 0.061558 -0.809002
v 0.210031 0.061558 -0.839001
v -0.269969 -0.088442 -0.839001
v -0.269969 0.061558 -0.839001
v 0.210031 -0.088442 -0.839001
v 0.180031 0.111558 -0.809002
v -0.239969 0.061558 -0.809002
v -0.239969 0.111558 -0.809002
v 0.180031 0.061558 -0.809002
v 0.240031 0.111558 -0.329000
v 0.240031 0.111558 -0.749001
v -0.299969 0.111558 -0.749001
v 0.180031 0.111558 -0.809002
v -0.239969 0.111558 -0.809002
v 0.180031 0.111558 -0.269001
v -0.299969 0.111558 -0.329000
v -0.239969 0.111558 -0.269001
v 0.270031 0.061558 -0.299002
v 0.270031 0.061558 -0.779001
v -0.329969 0.061558 -0.779001
v 0.210031 0.061558 -0.839001
v -0.269969 0.061558 -0.839001
v 0.210031 0.061558 -0.239002
v -0.329969 0.061558 -0.299002
v -0.269969 0.061558 -0.239002
v 0.270031 0.061558 -0.299002
v 0.210031 0.061558 -0.239002
v 0.270031 -0.088442 -0.299002
v 0.210031 -0.088442 -0.239002
v 0.210031 0.061558 -0.839001
v 0.270031 0.061558 -0.779001
v 0.210031 -0.088442 -0.839001
v 0.270031 -0.088442 -0.779001
v 0.180031 0.061558 -0.269001
v 0.240031 0.061558 -0.329000
v 0.180031 0.111558 -0.269001
v 0.240031 0.111558 -0.329000
v 0.240031 0.061558 -0.749001
v 0.180031 0.061558 -0.809002
v 0.240031 0.111558 -0.749001
v 0.180031 0.111558 -0.809002
v 0.270031 0.061558 -0.299002
v 0.270031 -0.088442 -0.779001
v 0.270031 0.061558 -0.779001
v 0.270031 -0.088442 -0.299002
v 0.240031 0.111558 -0.329000
v 0.240031 0.061558 -0.749001
v 0.240031 0.111558 -0.749001
v 0.240031 0.061558 -0.329000
v -0.269969 0.061558 -0.239002
v -0.329969 0.061558 -0.299002
v -0.269969 -0.088442 -0.239002
v -0.329969 -0.088442 -0.299002
v -0.299969 0.061558 -0.329000
v -0.239969 0.061558 -0.269001
v -0.299969 0.111558 -0.329000
v -0.239969 0.111558 -0.269001
v -0.269969 0.061558 -0.239002
v 0.210031 -0.088442 -0.239002
v 0.210031 0.061558 -0.239002
v -0.269969 -0.088442 -0.239002
v -0.239969 0.111558 -0.269001
v 0.180031 0.061558 -0.269001
v 0.180031 0.111558 -0.269001
v -0.239969 0.061558 -0.269001
v -0.329969 -0.088442 -0.299002
v -0.329969 -0.088442 -0.779001
v 0.210031 -0.088442 -0.839001
v -0.269969 -0.088442 -0.839001
v 0.270031 -0.088442 -0.779001
v 0.270031 -0.088442 -0.299002
v 0.210031 -0.088442 -0.239002
v -0.269969 -0.088442 -0.239002
v -0.329969 0.061558 -0.779001
v -0.329969 -0.088442 -0.299002
v -0.329969 0.061558 -0.299002
v -0.329969 -0.088442 -0.779001
v -0.299969 0.111558 -0.749001
v -0.299969 0.061558 -0.329000
v -0.299969 0.111558 -0.329000
v -0.299969 0.061558 -0.749001
v -0.269969 0.061558 -0.039001
v -0.329969 -0.088442 0.020998
v -0.329969 0.061558 0.020998
v -0.269969 -0.088442 -0.039001
v -0.239969 0.111558 -0.009001
v -0.299969 0.061558 0.050999
v -0.299969 0.111558 0.050999
v -0.239969 0.061558 -0.009001
v 0.210031 0.061558 -0.039001
v -0.269969 -0.088442 -0.039001
v -0.269969 0.061558 -0.039001
v 0.210031 -0.088442 -0.039001
v 0.180031 0.111558 -0.009001
v -0.239969 0.061558 -0.009001
v -0.239969 0.111558 -0.009001
v 0.180031 0.061558 -0.009001
v 0.240031 0.111558 0.470999
v 0.240031 0.111558 0.050999
v -0.299969 0.111558 0.050999
v 0.180031 0.111558 -0.009001
v -0.239969 0.111558 -0.009001
v 0.180031 0.111558 0.530998
v -0.299969 0.111558 0.470999
v -0.239969 0.111558 0.530998
v 0.270031 0.061558 0.500999
v 0.270031 0.061558 0.020998
v -0.329969 0.061558 0.020998
v 0.210031 0.061558 -0.039001
v -0.269969 0.061558 -0.039001
v 0.210031 0.061558 0.560999
v -0.329969 0.061558 0.500999
v -0.269969 0.061558 0.560999
v 0.270031 0.061558 0.500999
v 0.210031 0.061558 0.560999
v 0.270031 -0.088442 0.500999
v 0.210031 -0.088442 0.560999
v 0.210031 0.061558 -0.039001
v 0.270031 0.061558 0.020998
v 0.210031 -0.088442 -0.039001
v 0.270031 -0.088442 0.020998
v 0.180031 0.061558 0.530998
v 0.240031 0.061558 0.470999
v 0.180031 0.111558 0.530998
v 0.240031 0.111558 0.470999
v 0.240031 0.061558 0.050999
v 0.180031 0.061558 -0.009001
v 0.240031 0.111558 0.050999
v 0.180031 0.111558 -0.009001
v 0.270031 0.061558 0.500999
v 0.270031 -0.088442 0.020998
v 0.270031 0.061558 0.020998
v 0.270031 -0.088442 0.500999
v 0.240031 0.111558 0.470999
v 0.240031 0.061558 0.050999
v 0.240031 0.111558 0.050999
v 0.240031 0.061558 0.470999
v -0.269969 0.061558 0.560999
v -0.329969 0.061558 0.500999
v -0.269969 -0.088442 0.560999
v -0.329969 -0.088442 0.500999
v -0.299969 0.061558 0.470999
v -0.239969 0.061558 0.530998
v -0.299969 0.111558 0.470999
v -0.239969 0.111558 0.530998
v -0.269969 0.061558 0.560999
v 0.210031 -0.088442 0.560999
v 0.210031 0.061558 0.560999
v -0.269969 -0.088442 0.560999
v -0.239969 0.111558 0.530998
v 0.180031 0.061558 0.530998
v 0.180031 0.111558 0.530998
v -0.239969 0.061558 0.530998
v -0.329969 -0.088442 0.500999
v -0.329969 -0.088442 0.020998
v 0.210031 -0.088442 -0.039001
v -0.269969 -0.088442 -0.039001
v 0.270031 -0.088442 0.020998
v 0.270031 -0.088442 0.500999
v 0.210031 -0.088442 0.560999
v -0.269969 -0.088442 0.560999
v -0.329969 0.061558 0.020998
v -0.329969 -0.088442 0.500999
v -0.329969 0.061558 0.500999
v -0.329969 -0.088442 0.020998
v -0.299969 0.111558 0.050999
v -0.299969 0.061558 0.470999
v -0.299969 0.111558 0.470999
v -0.299969 0.061558 0.050999
v -1.107969 0.061558 0.160999
v -1.167969 -0.088442 0.220999
v -1.167969 0.061558 0.220999
v -1.107969 -0.088442 0.160999
v -1.077969 0.111558 0.190998
v -1.137969 0.061558 0.250999
v -1.137969 0.111558 0.250999
v -1.077969 0.061558 0.190998
v -0.627969 0.061558 0.160999
v -1.107969 -0.088442 0.160999
v -1.107969 0.061558 0.160999
v -0.627969 -0.088442 0.160999
v -0.657969 0.111558 0.190998
v -1.077969 0.061558 0.190998
v -1.077969 0.111558 0.190998
v -0.657969 0.061558 0.190998
v -0.597969 0.111558 0.671000
v -0.597969 0.111558 0.250999
v -1.137969 0.111558 0.250999
v -0.657969 0.111558 0.190998
v -1.077969 0.111558 0.190998
v -0.657969 0.111558 0.730999
v -1.137969 0.111558 0.671000
v -1.077969 0.111558 0.730999
v -0.567969 0.061558 0.700998
v -0.567969 0.061558 0.220999
v -1.167969 0.061558 0.220999
v -0.627969 0.061558 0.160999
v -1.107969 0.061558 0.160999
v -0.627969 0.061558 0.760998
v -1.167969 0.061558 0.700998
v -1.107969 0.061558 0.760998
v -0.567969 0.061558 0.700998
v -0.627969 0.061558 0.760998
v -0.567969 -0.088442 0.700998
v -0.627969 -0.088442 0.760998
v -0.627969 0.061558 0.160999
v -0.567969 0.061558 0.220999
v -0.627969 -0.088442 0.160999
v -0.567969 -0.088442 0.220999
v -0.657969 0.061558 0.730999
v -0.597969 0.061558 0.671000
v -0.657969 0.111558 0.730999
v -0.597969 0.111558 0.671000
v -0.597969 0.061558 0.250999
v -0.657969 0.061558 0.190998
v -0.597969 0.111558 0.250999
v -0.657969 0.111558 0.190998
v -0.567969 0.061558 0.700998
v -0.567969 -0.088442 0.220999
v -0.567969 0.061558 0.220999
v -0.567969 -0.088442 0.700998
v -0.597969 0.111558 0.671000
v -0.597969 0.061558 0.250999
v -0.597969 0.111558 0.250999
v -0.597969 0.061558 0.671000
v -1.107969 0.061558 0.760998
v -1.167969 0.061558 0.700998
v -1.107969 -0.088442 0.760998
v -1.167969 -0.088442 0.700998
v -1.137969 0.061558 0.671000
v -1.077969 0.061558 0.730999
v -1.137969 0.111558 0.671000
v -1.077969 0.111558 0.730999
v -1.107969 0.061558 0.760998
v -0.627969 -0.088442 0.760998
v -0.627969 0.061558 0.760998
v -1.107969 -0.088442 0.760998
v -1.077969 0.111558 0.730999
v -0.657969 0.061558 0.730999
v -0.657969 0.111558 0.730999
v -1.077969 0.061558 0.730999
v -1.167969 -0.088442 0.700998
v -1.167969 -0.088442 0.220999
v -0.627969 -0.088442 0.160999
v -1.107969 -0.088442 0.160999
v -0.567969 -0.088442 0.220999
v -0.567969 -0.088442 0.700998
v -0.627969 -0.088442 0.760998
v -1.107969 -0.088442 0.760998
v -1.167969 0.061558 0.220999
v -1.167969 -0.088442 0.700998
v -1.167969 0.061558 0.700998
v -1.167969 -0.088442 0.220999
v -1.137969 0.111558 0.250999
v -1.137969 0.061558 0.671000
v -1.137969 0.111558 0.671000
v -1.137969 0.061558 0.250999
v 0.567881 0.061558 0.160799
v 0.507881 -0.088442 0.220798
v 0.507881 0.061558 0.220798
v 0.567881 -0.088442 0.160799
v 0.597891 0.111558 0.190798
v 0.537891 0.061558 0.250799
v 0.537891 0.111558 0.250799
v 0.597891 0.061558 0.190798
v 1.047891 0.061558 0.160799
v 0.567881 -0.088442 0.160799
v 0.567881 0.061558 0.160799
v 1.047891 -0.088442 0.160799
v 1.017891 0.111558 0.190798
v 0.597891 0.061558 0.190798
v 0.597891 0.111558 0.190798
v 1.017891 0.061558 0.190798
v 1.077891 0.111558 0.670799
v 1.077891 0.111558 0.250799
v 0.537891 0.111558 0.250799
v 1.017891 0.111558 0.190798
v 0.597891 0.111558 0.190798
v 1.017891 0.111558 0.730799
v 0.537891 0.111558 0.670799
v 0.597891 0.111558 0.730799
v 1.107891 0.061558 0.700798
v 1.107891 0.061558 0.220798
v 0.507881 0.061558 0.220798
v 1.047891 0.061558 0.160799
v 0.567881 0.061558 0.160799
v 1.047891 0.061558 0.760799
v 0.507881 0.061558 0.700798
v 0.567891 0.061558 0.760799
v 1.107891 0.061558 0.700798
v 1.047891 0.061558 0.760799
v 1.107891 -0.088442 0.700798
v 1.047891 -0.088442 0.760799
v 1.047891 0.061558 0.160799
v 1.107891 0.061558 0.220798
v 1.047891 -0.088442 0.160799
v 1.107891 -0.088442 0.220798
v 1.017891 0.061558 0.730799
v 1.077891 0.061558 0.670799
v 1.017891 0.111558 0.730799
v 1.077891 0.111558 0.670799
v 1.077891 0.061558 0.250799
v 1.017891 0.061558 0.190798
v 1.077891 0.111558 0.250799
v 1.017891 0.111558 0.190798
v 1.107891 0.061558 0.700798
v 1.107891 -0.088442 0.220798
v 1.107891 0.061558 0.220798
v 1.107891 -0.088442 0.700798
v 1.077891 0.111558 0.670799
v 1.077891 0.061558 0.250799
v 1.077891 0.111558 0.250799
v 1.077891 0.061558 0.670799
v 0.567891 0.061558 0.760799
v 0.507881 0.061558 0.700798
v 0.567891 -0.088442 0.760799
v 0.507881 -0.088442 0.700798
v 0.537891 0.061558 0.670799
v 0.597891 0.061558 0.730799
v 0.537891 0.111558 0.670799
v 0.597891 0.111558 0.730799
v 0.567891 0.061558 0.760799
v 1.047891 -0.088442 0.760799
v 1.047891 0.061558 0.760799
v 0.567891 -0.088442 0.760799
v 0.597891 0.111558 0.730799
v 1.017891 0.061558 0.730799
v 1.017891 0.111558 0.730799
v 0.597891 0.061558 0.730799
v 0.507881 -0.088442 0.700798
v 0.507881 -0.088442 0.220798
v 1.047891 -0.088442 0.160799
v 0.567881 -0.088442 0.160799
v 1.107891 -0.088442 0.220798
v 1.107891 -0.088442 0.700798
v 1.047891 -0.088442 0.760799
v 0.567891 -0.088442 0.760799
v 0.507881 0.061558 0.220798
v 0.507881 -0.088442 0.700798
v 0.507881 0.061558 0.700798
v 0.507881 -0.088442 0.220798
v 0.537891 0.111558 0.250799
v 0.537891 0.061558 0.670799
v 0.537891 0.111558 0.670799
v 0.537891 0.061558 0.250799
vn -0.0000 1.0000 -0.0000
vn -0.0000 -0.0000 -1.0000
vn -1.0000 -0.0000 -0.0000
vn 1.0000 -0.0000 -0.0000
vn -0.0000 -1.0000 -0.0000
vn -0.0000 -0.0000 1.0000
vn -0.7071 -0.0000 -0.7071
vn 0.7071 -0.0000 0.7072
vn 0.7071 -0.0000 0.7071
vn 0.7071 -0.0000 -0.7071
vn -0.7071 -0.0000 0.7071
vn -0.7071 -0.0000 0.7072
vn -0.7071 -0.0000 -0.7072
vn 0.7071 -0.0000 -0.7072
vn -0.7070 -0.0000 0.7072
vt 2.765770 -0.024664
vt 2.265770 -0.024664
vt 2.215770 -0.074664
vt 2.265770 0.025336
vt 2.765770 0.025336
vt 2.765770 0.027336
vt 2.210770 0.027336
vt 2.210770 0.025336
vt 2.610770 0.025336
vt 2.765770 0.375336
vt 2.265770 0.027336
vt 2.320770 0.025336
vt 2.320770 0.027336
vt 1.920770 0.027336
vt 2.815770 0.025336
vt 2.215770 0.025336
vt 2.815770 -0.074664
vt 2.815770 0.425336
vt 2.265770 0.375336
vt 2.160770 -0.074664
vt 2.660770 -0.074664
vt 2.660770 0.025336
vt 1.715770 0.425336
vt 1.715770 -0.074664
vt 2.315770 -0.074664
vt 2.315770 0.425336
vt 2.370770 0.025336
vt 1.870770 -0.074664
vt 2.370770 -0.074664
vt 1.870770 0.025336
vt 2.215770 0.525336
vt 2.115770 0.525336
vt 2.215770 0.425336
vt 2.115770 -0.074664
vt 2.415770 -0.074664
vt 2.415770 0.025336
vt 2.760770 -0.074664
vt 2.115770 0.425336
vt 2.760770 0.025336
vt 2.315770 0.025336
vt 1.765770 0.025336
vt 1.765770 0.027336
vt 1.715770 0.025336
vt 2.160770 0.025336
vt 2.315770 0.525336
vt 2.415770 0.425336
vt 1.770770 0.025336
vt 1.770770 -0.074664
vt 2.115770 0.025336
vt 2.415770 0.525336
vt 1.920770 0.025336
vt 2.610770 0.027336
vt 0.725983 1.459340
vt 0.785983 1.309340
vt 0.785983 1.459340
vt 0.725983 1.309340
vt 0.695983 1.509340
vt 0.755983 1.459340
vt 0.755983 1.509340
vt 0.695983 1.459340
vt 0.245983 1.459340
vt 0.245983 1.309340
vt 0.275983 1.509340
vt 0.275983 1.459340
vt 0.695983 1.679340
vt 0.275983 1.679340
vt 0.275983 1.139340
vt 0.215983 1.619340
vt 0.215983 1.199340
vt 0.755983 1.619340
vt 0.695983 1.139340
vt 0.755983 1.199340
vt 0.725983 1.709340
vt 0.245983 1.709340
vt 0.245983 1.109340
vt 0.185983 1.649340
vt 0.185983 1.169340
vt 0.785983 1.649340
vt 0.725983 1.109340
vt 0.785983 1.169340
vt 0.185983 1.459340
vt 0.185983 1.309340
vt 0.215983 1.459340
vt 0.215983 1.509340
vt 0.725984 1.309340
vt 0.725984 1.459340
vt 0.695984 1.459340
vt 0.695984 1.509340
vt 0.066649 0.564017
vt 0.126649 0.414017
vt 0.126649 0.564017
vt 0.066649 0.414017
vt 0.036649 0.614017
vt 0.096649 0.564017
vt 0.096649 0.614017
vt 0.036649 0.564017
vt -0.413351 0.564016
vt -0.413351 0.414017
vt -0.383351 0.614016
vt -0.383351 0.564016
vt 0.036649 0.784017
vt -0.383351 0.784017
vt -0.383351 0.244017
vt -0.443351 0.724017
vt -0.443351 0.304017
vt 0.096649 0.724017
vt 0.036649 0.244017
vt 0.096649 0.304017
vt 0.066649 0.814017
vt -0.413351 0.814017
vt -0.413351 0.214017
vt -0.473351 0.754017
vt -0.473351 0.274017
vt 0.126649 0.754017
vt 0.066649 0.214017
vt 0.126649 0.274017
vt -0.473351 0.564016
vt -0.473351 0.414017
vt 0.126649 0.564016
vt 0.066649 0.564016
vt -0.443351 0.564016
vt -0.443351 0.614016
vt 0.036649 0.564016
vt 0.096649 0.564016
vt 0.036649 0.614016
vt 0.096649 0.614016
vt -0.413351 0.564017
vt -0.473351 0.564017
vt -0.443351 0.564017
vt -0.383351 0.564017
vt -0.443351 0.614017
vt -0.383351 0.614017
vt 0.066649 0.414017
vt 0.066649 0.564016
vt 0.036649 0.564016
vt 0.036649 0.614016
vt 0.935912 1.150830
vt 0.995912 1.000830
vt 0.995912 1.150830
vt 0.935912 1.000830
vt 0.905912 1.200830
vt 0.965912 1.150830
vt 0.965912 1.200830
vt 0.905912 1.150830
vt 0.455912 1.150830
vt 0.455912 1.000830
vt 0.485912 1.200830
vt 0.485912 1.150830
vt 0.905912 1.370830
vt 0.485912 1.370830
vt 0.485912 0.830825
vt 0.425912 1.310830
vt 0.425912 0.890825
vt 0.965912 1.310830
vt 0.905912 0.830825
vt 0.965912 0.890825
vt 0.935912 1.400830
vt 0.455912 1.400830
vt 0.455912 0.800825
vt 0.395912 1.340830
vt 0.395912 0.860825
vt 0.995912 1.340830
vt 0.935912 0.800825
vt 0.995912 0.860825
vt 0.395912 1.150830
vt 0.395912 1.000830
vt 0.425912 1.150830
vt 0.425912 1.200830
vt -0.218947 0.553398
vt -0.158947 0.403398
vt -0.158947 0.553398
vt -0.218947 0.403398
vt -0.248947 0.603398
vt -0.188947 0.553398
vt -0.188947 0.603398
vt -0.248947 0.553398
vt -0.698947 0.553397
vt -0.698947 0.403398
vt -0.668947 0.603397
vt -0.668947 0.553397
vt -0.248947 0.773398
vt -0.668947 0.773398
vt -0.668947 0.233397
vt -0.728947 0.713398
vt -0.728947 0.293398
vt -0.188947 0.713398
vt -0.248947 0.233397
vt -0.188947 0.293398
vt -0.218947 0.803398
vt -0.698947 0.803398
vt -0.698947 0.203398
vt -0.758947 0.743398
vt -0.758947 0.263398
vt -0.158947 0.743398
vt -0.218947 0.203398
vt -0.158947 0.263398
vt -0.758947 0.553397
vt -0.758947 0.403398
vt -0.158947 0.553397
vt -0.218947 0.553397
vt -0.728947 0.553397
vt -0.728947 0.603397
vt -0.248947 0.553397
vt -0.188947 0.553397
vt -0.248947 0.603397
vt -0.188947 0.603397
vt -0.698947 0.553398
vt -0.758947 0.553398
vt -0.728947 0.553398
vt -0.668947 0.553398
vt -0.728947 0.603398
vt -0.668947 0.603398
vt 0.139175 0.761851
vt 0.199175 0.611851
vt 0.199175 0.761851
vt 0.139175 0.611851
vt 0.109175 0.811851
vt 0.169175 0.761851
vt 0.169175 0.811851
vt 0.109175 0.761851
vt -0.340825 0.761851
vt -0.340825 0.611851
vt -0.310825 0.811850
vt -0.310825 0.761851
vt 0.109175 0.981851
vt -0.310825 0.981851
vt -0.310825 0.441851
vt -0.370825 0.921851
vt -0.370825 0.501851
vt 0.169175 0.921851
vt 0.109175 0.441851
vt 0.169175 0.501851
vt 0.139175 1.011850
vt -0.340825 1.011850
vt -0.340825 0.411851
vt -0.400825 0.951851
vt -0.400825 0.471851
vt 0.199175 0.951851
vt 0.139175 0.411851
vt 0.199175 0.471851
vt -0.340825 0.761850
vt -0.400825 0.761851
vt -0.400825 0.611851
vt 0.139175 0.761850
vt -0.370825 0.761851
vt -0.310825 0.761850
vt -0.370825 0.811850
vt 0.109175 0.761850
vt 0.109175 0.811850
vt 0.169175 0.811850
vt -0.370825 0.811851
vt -0.310825 0.811851
vt -0.074051 1.071190
vt -0.014051 0.921186
vt -0.014051 1.071190
vt -0.074051 0.921186
vt -0.104051 1.121190
vt -0.044051 1.071190
vt -0.044051 1.121190
vt -0.104051 1.071190
vt -0.554051 1.071190
vt -0.554051 0.921186
vt -0.524051 1.121190
vt -0.524051 1.071190
vt -0.104051 1.291190
vt -0.524051 1.291190
vt -0.524051 0.751186
vt -0.584051 1.231190
vt -0.584051 0.811186
vt -0.044051 1.231190
vt -0.104051 0.751186
vt -0.044051 0.811186
vt -0.074051 1.321190
vt -0.554051 1.321190
vt -0.554051 0.721186
vt -0.614051 1.261190
vt -0.614051 0.781186
vt -0.014051 1.261190
vt -0.074051 0.721186
vt -0.014051 0.781186
vt -0.614051 1.071190
vt -0.614051 0.921186
vt -0.584051 1.071190
vt -0.584051 1.121190
s 1
usemtl Handle1Mtl.015
f 1/1/1 2/2/1 3/3/1
f 4/4/2 5/5/2 6/6/2
f 7/7/3 8/8/3 9/9/3
f 10/2/1 11/1/1 12/10/1
f 6/6/2 13/11/2 4/4/2
f 14/12/4 15/13/4 16/14/4
f 17/15/2 18/16/2 19/17/2
f 3/3/1 20/17/1 1/1/1
f 1/1/1 20/17/1 21/18/1
f 3/3/1 2/2/1 22/19/1
f 23/20/3 24/21/3 25/22/3
f 26/23/5 27/24/5 28/25/5
f 26/23/5 28/25/5 29/26/5
f 30/27/4 31/28/4 32/29/4
f 31/28/4 30/27/4 33/30/4
f 34/31/5 35/32/5 36/33/5
f 37/34/6 38/3/6 39/16/6
f 40/35/2 41/36/2 42/25/2
f 43/22/3 44/21/3 45/37/3
f 35/32/5 46/38/5 36/33/5
f 43/22/3 45/37/3 47/39/3
f 48/24/6 49/25/6 50/40/6
f 22/19/1 51/10/1 21/18/1
f 52/41/6 53/4/6 54/42/6
f 12/10/1 55/19/1 10/2/1
f 56/11/6 54/42/6 53/4/6
f 57/43/6 48/24/6 50/40/6
f 23/20/3 25/22/3 58/44/3
f 59/45/1 60/26/1 61/46/1
f 62/30/4 63/47/4 64/48/4
f 65/40/2 42/25/2 41/36/2
f 66/28/4 62/30/4 64/48/4
f 22/19/1 67/33/1 3/3/1
f 67/33/1 22/19/1 21/18/1
f 21/18/1 51/10/1 1/1/1
f 39/16/6 68/49/6 37/34/6
f 69/50/1 59/45/1 61/46/1
f 70/51/4 14/12/4 16/14/4
f 71/52/3 7/7/3 9/9/3
f 19/17/2 18/16/2 72/3/2
usemtl Left1Mtl
f 73/53/7 74/54/7 75/55/7
f 74/54/7 73/53/7 76/56/7
f 77/57/7 78/58/7 79/59/7
f 78/58/7 77/57/7 80/60/7
f 81/61/2 82/56/2 83/53/2
f 82/56/2 81/61/2 84/62/2
f 85/63/2 86/60/2 87/57/2
f 86/60/2 85/63/2 88/64/2
f 89/65/1 90/66/1 91/67/1
f 91/67/1 90/66/1 92/68/1
f 91/67/1 92/68/1 93/69/1
f 91/67/1 94/70/1 89/65/1
f 94/70/1 91/67/1 95/71/1
f 94/70/1 95/71/1 96/72/1
f 97/73/1 98/74/1 99/75/1
f 99/75/1 98/74/1 100/76/1
f 99/75/1 100/76/1 101/77/1
f 99/75/1 102/78/1 97/73/1
f 102/78/1 99/75/1 103/79/1
f 102/78/1 103/79/1 104/80/1
f 105/61/8 106/81/9 107/62/9
f 106/81/9 108/82/9 107/62/9
f 109/55/10 110/53/10 111/54/10
f 110/53/10 112/56/10 111/54/10
f 113/83/9 114/64/9 115/84/9
f 116/63/9 115/84/9 114/64/9
f 117/60/10 118/58/10 119/57/10
f 120/59/10 119/57/10 118/58/10
f 121/61/4 122/56/4 123/53/4
f 122/56/4 121/61/4 124/62/4
f 125/63/4 126/60/4 127/57/4
f 126/60/4 125/63/4 128/64/4
f 129/61/11 130/81/11 131/62/11
f 130/81/11 132/82/12 131/62/11
f 133/83/11 134/64/11 135/84/11
f 136/63/11 135/84/11 134/64/11
f 137/61/6 138/85/6 139/86/6
f 138/85/6 137/61/6 140/62/6
f 141/63/6 142/87/6 143/88/6
f 142/87/6 141/63/6 144/64/6
f 145/75/5 146/79/5 147/78/5
f 147/78/5 146/79/5 148/80/5
f 149/73/5 145/75/5 147/78/5
f 145/75/5 149/73/5 150/74/5
f 145/75/5 150/74/5 151/76/5
f 145/75/5 151/76/5 152/77/5
f 153/61/3 154/56/3 155/53/3
f 154/56/3 153/61/3 156/62/3
f 157/63/3 158/60/3 159/57/3
f 158/60/3 157/63/3 160/64/3
f 161/89/7 162/90/7 163/91/7
f 162/90/7 161/89/7 164/92/7
f 165/93/7 166/94/7 167/95/7
f 166/94/7 165/93/7 168/96/7
f 169/97/2 170/92/2 171/89/2
f 170/92/2 169/97/2 172/98/2
f 173/99/2 174/96/2 175/93/2
f 174/96/2 173/99/2 176/100/2
f 177/101/1 178/102/1 179/103/1
f 179/103/1 178/102/1 180/104/1
f 179/103/1 180/104/1 181/105/1
f 179/103/1 182/106/1 177/101/1
f 182/106/1 179/103/1 183/107/1
f 182/106/1 183/107/1 184/108/1
f 185/109/1 186/110/1 187/111/1
f 187/111/1 186/110/1 188/112/1
f 187/111/1 188/112/1 189/113/1
f 187/111/1 190/114/1 185/109/1
f 190/114/1 187/111/1 191/115/1
f 190/114/1 191/115/1 192/116/1
f 193/97/8 194/117/9 195/98/9
f 194/117/9 196/118/9 195/98/9
f 197/119/10 198/120/10 199/90/10
f 198/120/10 200/92/10 199/90/10
f 201/121/9 202/100/9 203/122/9
f 204/99/9 203/122/9 202/100/9
f 205/123/10 206/124/10 207/125/10
f 208/126/10 207/125/10 206/124/10
f 209/97/4 210/92/4 211/120/4
f 210/92/4 209/97/4 212/98/4
f 213/99/4 214/123/4 215/125/4
f 214/123/4 213/99/4 216/100/4
f 217/127/11 218/128/11 219/98/11
f 218/128/11 220/118/12 219/98/11
f 221/129/11 222/130/11 223/131/11
f 224/132/11 223/131/11 222/130/11
f 225/127/6 226/133/6 227/134/6
f 226/133/6 225/127/6 228/98/6
f 229/132/6 230/135/6 231/136/6
f 230/135/6 229/132/6 232/130/6
f 233/111/5 234/115/5 235/114/5
f 235/114/5 234/115/5 236/116/5
f 237/109/5 233/111/5 235/114/5
f 233/111/5 237/109/5 238/110/5
f 233/111/5 238/110/5 239/112/5
f 233/111/5 239/112/5 240/113/5
f 241/127/3 242/92/3 243/89/3
f 242/92/3 241/127/3 244/98/3
f 245/132/3 246/96/3 247/93/3
f 246/96/3 245/132/3 248/130/3
f 249/137/7 250/138/7 251/139/7
f 250/138/7 249/137/7 252/140/7
f 253/141/7 254/142/7 255/143/7
f 254/142/7 253/141/7 256/144/7
f 257/145/2 258/140/2 259/137/2
f 258/140/2 257/145/2 260/146/2
f 261/147/2 262/144/2 263/141/2
f 262/144/2 261/147/2 264/148/2
f 265/149/1 266/150/1 267/151/1
f 267/151/1 266/150/1 268/152/1
f 267/151/1 268/152/1 269/153/1
f 267/151/1 270/154/1 265/149/1
f 270/154/1 267/151/1 271/155/1
f 270/154/1 271/155/1 272/156/1
f 273/157/1 274/158/1 275/159/1
f 275/159/1 274/158/1 276/160/1
f 275/159/1 276/160/1 277/161/1
f 275/159/1 278/162/1 273/157/1
f 278/162/1 275/159/1 279/163/1
f 278/162/1 279/163/1 280/164/1
f 281/145/8 282/165/9 283/146/9
f 282/165/9 284/166/9 283/146/9
f 285/139/10 286/137/10 287/138/10
f 286/137/10 288/140/10 287/138/10
f 289/167/9 290/148/9 291/168/9
f 292/147/9 291/168/9 290/148/9
f 293/144/10 294/142/10 295/141/10
f 296/143/10 295/141/10 294/142/10
f 297/145/4 298/140/4 299/137/4
f 298/140/4 297/145/4 300/146/4
f 301/147/4 302/144/4 303/141/4
f 302/144/4 301/147/4 304/148/4
f 305/145/11 306/165/11 307/146/11
f 306/165/11 308/166/12 307/146/11
f 309/167/11 310/148/11 311/168/11
f 312/147/11 311/168/11 310/148/11
f 313/145/6 314/140/6 315/137/6
f 314/140/6 313/145/6 316/146/6
f 317/147/6 318/144/6 319/141/6
f 318/144/6 317/147/6 320/148/6
f 321/159/5 322/163/5 323/162/5
f 323/162/5 322/163/5 324/164/5
f 325/157/5 321/159/5 323/162/5
f 321/159/5 325/157/5 326/158/5
f 321/159/5 326/158/5 327/160/5
f 321/159/5 327/160/5 328/161/5
f 329/145/3 330/140/3 331/137/3
f 330/140/3 329/145/3 332/146/3
f 333/147/3 334/144/3 335/141/3
f 334/144/3 333/147/3 336/148/3
f 337/169/7 338/170/7 339/171/7
f 338/170/7 337/169/7 340/172/7
f 341/173/7 342/174/7 343/175/7
f 342/174/7 341/173/7 344/176/7
f 345/177/2 346/172/2 347/169/2
f 346/172/2 345/177/2 348/178/2
f 349/179/2 350/176/2 351/173/2
f 350/176/2 349/179/2 352/180/2
f 353/181/1 354/182/1 355/183/1
f 355/183/1 354/182/1 356/184/1
f 355/183/1 356/184/1 357/185/1
f 355/183/1 358/186/1 353/181/1
f 358/186/1 355/183/1 359/187/1
f 358/186/1 359/187/1 360/188/1
f 361/189/1 362/190/1 363/191/1
f 363/191/1 362/190/1 364/192/1
f 363/191/1 364/192/1 365/193/1
f 363/191/1 366/194/1 361/189/1
f 366/194/1 363/191/1 367/195/1
f 366/194/1 367/195/1 368/196/1
f 369/177/9 370/197/9 371/178/9
f 370/197/9 372/198/9 371/178/9
f 373/199/10 374/200/10 375/170/10
f 374/200/10 376/172/10 375/170/10
f 377/201/9 378/180/9 379/202/9
f 380/179/9 379/202/9 378/180/9
f 381/203/10 382/204/10 383/205/10
f 384/206/10 383/205/10 382/204/10
f 385/177/4 386/172/4 387/200/4
f 386/172/4 385/177/4 388/178/4
f 389/179/4 390/203/4 391/205/4
f 390/203/4 389/179/4 392/180/4
f 393/207/11 394/208/11 395/178/11
f 394/208/11 396/198/11 395/178/11
f 397/209/11 398/210/11 399/211/11
f 400/212/11 399/211/11 398/210/11
f 401/207/6 402/172/6 403/200/6
f 402/172/6 401/207/6 404/178/6
f 405/212/6 406/203/6 407/205/6
f 406/203/6 405/212/6 408/210/6
f 409/191/5 410/195/5 411/194/5
f 411/194/5 410/195/5 412/196/5
f 413/189/5 409/191/5 411/194/5
f 409/191/5 413/189/5 414/190/5
f 409/191/5 414/190/5 415/192/5
f 409/191/5 415/192/5 416/193/5
f 417/207/3 418/172/3 419/169/3
f 418/172/3 417/207/3 420/178/3
f 421/212/3 422/176/3 423/173/3
f 422/176/3 421/212/3 424/210/3
f 425/213/7 426/214/7 427/215/13
f 426/214/7 425/213/7 428/216/7
f 429/217/7 430/218/7 431/219/7
f 430/218/7 429/217/7 432/220/7
f 433/221/2 434/216/2 435/213/2
f 434/216/2 433/221/2 436/222/2
f 437/223/2 438/220/2 439/217/2
f 438/220/2 437/223/2 440/224/2
f 441/225/1 442/226/1 443/227/1
f 443/227/1 442/226/1 444/228/1
f 443/227/1 444/228/1 445/229/1
f 443/227/1 446/230/1 441/225/1
f 446/230/1 443/227/1 447/231/1
f 446/230/1 447/231/1 448/232/1
f 449/233/1 450/234/1 451/235/1
f 451/235/1 450/234/1 452/236/1
f 451/235/1 452/236/1 453/237/1
f 451/235/1 454/238/1 449/233/1
f 454/238/1 451/235/1 455/239/1
f 454/238/1 455/239/1 456/240/1
f 457/241/9 458/242/9 459/222/9
f 458/242/9 460/243/9 459/222/9
f 461/215/10 462/244/10 463/214/10
f 462/244/10 464/216/14 463/214/10
f 465/245/9 466/246/9 467/247/9
f 468/223/9 467/247/9 466/246/9
f 469/248/10 470/218/10 471/249/10
f 472/250/10 471/249/10 470/218/10
f 473/241/4 474/216/4 475/244/4
f 474/216/4 473/241/4 476/222/4
f 477/223/4 478/248/4 479/249/4
f 478/248/4 477/223/4 480/246/4
f 481/221/11 482/242/11 483/222/11
f 482/242/11 484/243/11 483/222/11
f 485/245/11 486/224/11 487/251/11
f 488/252/11 487/251/11 486/224/11
f 489/221/6 490/216/6 491/213/6
f 490/216/6 489/221/6 492/222/6
f 493/252/6 494/220/6 495/249/6
f 494/220/6 493/252/6 496/224/6
f 497/235/5 498/239/5 499/238/5
f 499/238/5 498/239/5 500/240/5
f 501/233/5 497/235/5 499/238/5
f 497/235/5 501/233/5 502/234/5
f 497/235/5 502/234/5 503/236/5
f 497/235/5 503/236/5 504/237/5
f 505/221/3 506/216/3 507/213/3
f 506/216/3 505/221/3 508/222/3
f 509/252/3 510/220/3 511/217/3
f 510/220/3 509/252/3 512/224/3
f 513/253/7 514/254/7 515/255/7
f 514/254/7 513/253/7 516/256/7
f 517/257/7 518/258/7 519/259/7
f 518/258/7 517/257/7 520/260/7
f 521/261/2 522/256/2 523/253/2
f 522/256/2 521/261/2 524/262/2
f 525/263/2 526/260/2 527/257/2
f 526/260/2 525/263/2 528/264/2
f 529/265/1 530/266/1 531/267/1
f 531/267/1 530/266/1 532/268/1
f 531/267/1 532/268/1 533/269/1
f 531/267/1 534/270/1 529/265/1
f 534/270/1 531/267/1 535/271/1
f 534/270/1 535/271/1 536/272/1
f 537/273/1 538/274/1 539/275/1
f 539/275/1 538/274/1 540/276/1
f 539/275/1 540/276/1 541/277/1
f 539/275/1 542/278/1 537/273/1
f 542/278/1 539/275/1 543/279/1
f 542/278/1 543/279/1 544/280/1
f 545/261/9 546/281/9 547/262/9
f 546/281/9 548/282/9 547/262/9
f 549/255/10 550/253/10 551/254/10
f 550/253/10 552/256/10 551/254/10
f 553/283/9 554/264/9 555/284/9
f 556/263/9 555/284/9 554/264/9
f 557/260/10 558/258/10 559/257/10
f 560/259/10 559/257/10 558/258/10
f 561/261/4 562/256/4 563/253/4
f 562/256/4 561/261/4 564/262/4
f 565/263/4 566/260/4 567/257/4
f 566/260/4 565/263/4 568/264/4
f 569/261/11 570/281/11 571/262/12
f 570/281/11 572/282/15 571/262/12
f 573/283/11 574/264/11 575/284/11
f 576/263/11 575/284/11 574/264/11
f 577/261/6 578/256/6 579/253/6
f 578/256/6 577/261/6 580/262/6
f 581/263/6 582/260/6 583/257/6
f 582/260/6 581/263/6 584/264/6
f 585/275/5 586/279/5 587/278/5
f 587/278/5 586/279/5 588/280/5
f 589/273/5 585/275/5 587/278/5
f 585/275/5 589/273/5 590/274/5
f 585/275/5 590/274/5 591/276/5
f 585/275/5 591/276/5 592/277/5
f 593/261/3 594/256/3 595/253/3
f 594/256/3 593/261/3 596/262/3
f 597/263/3 598/260/3 599/257/3
f 598/260/3 597/263/3 600/264/3
