# Blender 5.1.2
# www.blender.org
mtllib VelocitySensor.mtl
o VelocitySensor
v 0.275785 0.179999 -0.265919
v 0.275785 0.179999 0.175381
v 0.275785 -0.180001 -0.265919
v 0.275785 -0.180001 0.175381
v 0.220685 0.179999 0.254782
v 0.220685 -0.180001 0.230581
v 0.220685 0.179999 0.230581
v 0.220685 -0.180001 0.254782
v 0.275785 -0.180001 0.175381
v 0.275785 0.179999 0.175381
v 0.299985 0.239999 0.254782
v 0.299985 -0.240001 0.254782
v 0.299985 -0.240001 0.254782
v 0.299985 -0.240001 -0.345219
v 0.275785 -0.180001 -0.265919
v 0.275785 -0.180001 0.175381
v 0.299985 0.239999 -0.345219
v 0.275785 0.179999 0.175381
v 0.275785 0.179999 -0.265919
v 0.299985 0.239999 0.254782
v 0.299985 -0.240001 -0.345219
v 0.299985 0.239999 -0.345219
v 0.275785 0.179999 -0.265919
v 0.275785 -0.180001 -0.265919
v -0.300015 0.239999 -0.345219
v -0.300015 0.239999 0.254782
v 0.299985 0.239999 -0.345219
v 0.299985 0.239999 0.254782
v 0.220685 0.179999 0.230581
v -0.220615 0.179999 0.230581
v -0.220615 0.179999 0.254782
v 0.220685 0.179999 0.254782
v -0.220615 -0.180001 0.254782
v 0.220685 -0.180001 0.254782
v -0.220615 0.179999 0.254782
v 0.220685 0.179999 0.254782
v 0.299985 -0.240001 0.254782
v 0.220685 0.179999 0.230581
v 0.220685 -0.180001 0.230581
v 0.299985 0.239999 0.254782
v -0.300015 0.239999 0.254782
v -0.300015 -0.240001 0.254782
v -0.220615 -0.180001 0.230581
v -0.220615 0.179999 0.230581
v -0.300015 -0.240001 0.254782
v 0.299985 -0.240001 0.254782
v 0.220685 -0.180001 0.230581
v -0.220615 -0.180001 0.230581
v 0.299985 0.239999 0.254782
v -0.300015 0.239999 0.254782
v -0.220615 0.179999 0.230581
v 0.220685 0.179999 0.230581
v -0.275815 0.179999 -0.265919
v -0.275815 -0.180001 -0.265919
v -0.275815 -0.180001 0.175381
v -0.275815 0.179999 0.175381
v -0.220615 -0.180001 0.254782
v -0.220615 0.179999 0.230581
v -0.220615 -0.180001 0.230581
v -0.220615 0.179999 0.254782
v -0.275815 0.179999 0.175381
v -0.275815 -0.180001 0.175381
v -0.300015 -0.240001 0.254782
v -0.300015 0.239999 0.254782
v -0.300015 -0.240001 -0.345219
v -0.275815 -0.180001 0.175381
v -0.275815 -0.180001 -0.265919
v -0.300015 -0.240001 0.254782
v -0.300015 0.239999 0.254782
v -0.300015 0.239999 -0.345219
v -0.275815 0.179999 -0.265919
v -0.275815 0.179999 0.175381
v -0.300015 0.239999 -0.345219
v -0.300015 -0.240001 -0.345219
v -0.275815 -0.180001 -0.265919
v -0.275815 0.179999 -0.265919
v -0.300015 -0.240001 -0.345219
v 0.299985 -0.240001 -0.345219
v 0.299985 -0.240001 0.254782
v -0.300015 -0.240001 0.254782
v -0.220615 -0.180001 0.230581
v 0.220685 -0.180001 0.230581
v 0.220685 -0.180001 0.254782
v -0.220615 -0.180001 0.254782
v 0.220685 0.179999 -0.321018
v -0.220615 -0.180001 -0.321018
v -0.220615 0.179999 -0.321018
v 0.220685 -0.180001 -0.321018
v 0.299985 0.239999 -0.345219
v 0.220685 -0.180001 -0.321018
v 0.220685 0.179999 -0.321018
v 0.299985 -0.240001 -0.345219
v -0.300015 -0.240001 -0.345219
v -0.300015 0.239999 -0.345219
v -0.220615 0.179999 -0.321018
v -0.220615 -0.180001 -0.321018
v 0.299985 -0.240001 -0.345219
v -0.300015 -0.240001 -0.345219
v -0.220615 -0.180001 -0.321018
v 0.220685 -0.180001 -0.321018
v -0.300015 0.239999 -0.345219
v 0.299985 0.239999 -0.345219
v 0.220685 0.179999 -0.321018
v -0.220615 0.179999 -0.321018
vn 1.0000 -0.0000 -0.0000
vn 0.9563 -0.0000 -0.2924
vn 0.9263 0.3768 -0.0000
vn 0.9263 -0.3768 -0.0000
vn 0.9563 -0.0000 0.2923
vn 0.9563 -0.0000 0.2924
vn -0.0000 1.0000 -0.0000
vn -0.0000 -0.0000 1.0000
vn -0.2924 -0.0000 0.9563
vn -0.2923 -0.0000 0.9563
vn -0.2922 -0.0000 0.9563
vn 0.2924 -0.0000 0.9563
vn -0.0000 0.3768 0.9263
vn -0.0000 -0.3768 0.9263
vn -1.0000 -0.0000 -0.0000
vn -0.9563 -0.0000 -0.2924
vn -0.9563 -0.0000 -0.2923
vn -0.9263 0.3768 -0.0000
vn -0.9263 -0.3768 -0.0000
vn -0.9564 -0.0000 0.2922
vn -0.9563 -0.0000 0.2924
vn -0.9563 -0.0000 0.2923
vn -0.0000 -1.0000 -0.0000
vn -0.0000 -0.0000 -1.0000
vn -0.2924 -0.0000 -0.9563
vn -0.2923 -0.0000 -0.9563
vn -0.2922 -0.0000 -0.9563
vn 0.2924 -0.0000 -0.9563
vn 0.2923 -0.0000 -0.9563
vn -0.0000 0.3768 -0.9263
vn -0.0000 -0.3768 -0.9263
vt 0.282990 0.583741
vt -0.158260 0.583741
vt 0.282990 0.223741
vt -0.158260 0.223741
vt -0.237635 0.583741
vt -0.213417 0.223741
vt -0.213417 0.583741
vt -0.237635 0.223741
vt -0.237635 0.643741
vt -0.237635 0.163741
vt 0.362365 0.163741
vt 0.362365 0.643741
vt 0.362365 0.103741
vt 0.362365 0.703741
vt -0.237635 0.103741
vt -0.237635 0.703741
vt -0.158260 0.679523
vt 0.282990 0.679523
vt 0.282990 0.703741
vt -0.158260 0.703741
vt 0.362365 0.223741
vt 0.338147 0.583741
vt 0.338147 0.223741
vt 0.362365 0.583741
s 1
usemtl Handle1Mtl.062
f 1/1/1 2/2/1 3/3/1
f 3/3/1 2/2/1 4/4/1
f 5/5/1 6/6/1 7/7/1
f 6/6/1 5/5/1 8/8/1
f 9/4/2 10/2/2 11/9/2
f 9/4/2 11/9/2 12/10/2
f 13/10/3 14/11/3 15/3/3
f 13/10/3 15/3/3 16/4/3
f 17/12/4 18/2/4 19/1/4
f 17/12/4 20/9/4 18/2/4
f 21/11/5 22/12/5 23/1/5
f 21/11/5 23/1/5 24/3/6
f 25/13/7 26/14/7 27/15/7
f 27/15/7 26/14/7 28/16/7
f 29/17/7 30/18/7 31/19/7
f 29/17/7 31/19/7 32/20/7
f 33/4/8 34/3/8 35/2/8
f 34/3/8 36/1/8 35/2/8
f 37/11/9 38/1/10 39/3/11
f 37/11/9 40/12/9 38/1/10
f 41/9/12 42/10/12 43/4/12
f 41/9/12 43/4/12 44/2/12
f 45/10/13 46/11/13 47/3/13
f 45/10/13 47/3/13 48/4/13
f 49/12/14 50/9/14 51/2/14
f 49/12/14 51/2/14 52/1/14
f 53/2/15 54/4/15 55/3/15
f 53/2/15 55/3/15 56/1/15
f 57/21/15 58/22/15 59/23/15
f 58/22/15 57/21/15 60/24/15
f 61/1/16 62/3/17 63/11/16
f 61/1/16 63/11/16 64/12/16
f 65/10/18 66/3/18 67/4/18
f 65/10/18 68/11/18 66/3/18
f 69/12/19 70/9/19 71/2/19
f 69/12/19 71/2/19 72/1/19
f 73/9/20 74/10/21 75/4/22
f 73/9/20 75/4/22 76/2/20
f 77/15/23 78/13/23 79/14/23
f 77/15/23 79/14/23 80/16/23
f 81/17/23 82/18/23 83/19/23
f 81/17/23 83/19/23 84/20/23
f 85/2/24 86/3/24 87/1/24
f 86/3/24 85/2/24 88/4/24
f 89/9/25 90/4/26 91/2/27
f 89/9/25 92/10/26 90/4/26
f 93/11/28 94/12/29 95/1/28
f 93/11/28 95/1/28 96/3/28
f 97/10/30 98/11/30 99/3/30
f 97/10/30 99/3/30 100/4/30
f 101/12/31 102/9/31 103/2/31
f 101/12/31 103/2/31 104/1/31
