# Blender 5.1.2
# www.blender.org
mtllib FuelTank.mtl
o FuelTank
v 0.750017 -0.000002 0.000051
v 0.750017 0.530328 -0.530348
v 0.750017 0.416028 -0.624048
v 0.750017 0.237168 -0.711449
v 0.750017 -0.000002 -0.749949
v 0.750017 -0.237172 -0.711449
v 0.750017 -0.416022 -0.624048
v 0.750017 -0.530332 -0.530348
v 0.750017 -0.530332 -0.530348
v 0.750017 -0.624032 -0.416048
v 0.750017 -0.711512 -0.237148
v 0.750017 -0.750002 0.000052
v 0.750017 -0.711512 0.237152
v 0.750017 -0.624032 0.416052
v 0.750017 -0.530332 0.530352
v 0.750017 -0.530332 0.530352
v 0.750017 -0.416022 0.624052
v 0.750017 -0.237172 0.711552
v 0.750017 -0.000002 0.750051
v 0.750017 0.237168 0.711552
v 0.750017 0.416028 0.624052
v 0.750017 0.530328 0.530352
v 0.750017 0.530328 0.530352
v 0.750017 0.624038 0.416052
v 0.750017 0.711518 0.237152
v 0.750017 0.749998 0.000051
v 0.750017 0.711518 -0.237148
v 0.750017 0.624038 -0.416048
v 0.750017 0.530328 -0.530348
v -0.749983 0.530328 0.530352
v 0.750017 0.530328 0.530352
v -0.749983 0.624038 0.416052
v 0.750017 0.624038 0.416052
v -0.749983 0.711518 0.237152
v 0.750017 0.711518 0.237152
v -0.749983 0.749998 0.000051
v 0.750017 0.749998 0.000051
v -0.749983 0.711518 -0.237148
v 0.750017 0.711518 -0.237148
v -0.749983 0.624038 -0.416048
v 0.750017 0.624038 -0.416048
v -0.749983 0.530328 -0.530348
v 0.750017 0.530328 -0.530348
v 0.750017 0.530328 0.530352
v -0.749983 0.530328 0.530352
v 0.750017 0.416028 0.624052
v -0.749983 0.416028 0.624052
v 0.750017 0.237168 0.711552
v -0.749983 0.237168 0.711552
v 0.750017 -0.000002 0.750051
v -0.749983 -0.000002 0.750051
v 0.750017 -0.237172 0.711552
v -0.749983 -0.237172 0.711552
v 0.750017 -0.416022 0.624052
v -0.749983 -0.416022 0.624052
v 0.750017 -0.530332 0.530352
v -0.749983 -0.530332 0.530352
v -0.749983 -0.000002 0.000051
v -0.749983 0.530328 0.530352
v -0.749983 0.416028 0.624052
v -0.749983 0.237168 0.711552
v -0.749983 -0.000002 0.750051
v -0.749983 -0.237172 0.711552
v -0.749983 -0.416022 0.624052
v -0.749983 -0.530332 0.530352
v -0.749983 -0.530332 0.530352
v -0.749983 -0.624032 0.416052
v -0.749983 -0.711512 0.237152
v -0.749983 -0.750002 0.000052
v -0.749983 -0.711512 -0.237148
v -0.749983 -0.624032 -0.416048
v -0.749983 -0.530332 -0.530348
v -0.749983 -0.530332 -0.530348
v -0.749983 -0.416022 -0.624048
v -0.749983 -0.237172 -0.711449
v -0.749983 -0.000002 -0.749949
v -0.749983 0.237168 -0.711449
v -0.749983 0.416028 -0.624048
v -0.749983 0.530328 -0.530348
v -0.749983 0.530328 -0.530348
v -0.749983 0.624038 -0.416048
v -0.749983 0.711518 -0.237148
v -0.749983 0.749998 0.000051
v -0.749983 0.711518 0.237152
v -0.749983 0.624038 0.416052
v -0.749983 0.530328 0.530352
v -0.749983 -0.530332 -0.530348
v 0.750017 -0.530332 -0.530348
v -0.749983 -0.624032 -0.416048
v 0.750017 -0.624032 -0.416048
v -0.749983 -0.711512 -0.237148
v 0.750017 -0.711512 -0.237148
v -0.749983 -0.750002 0.000052
v 0.750017 -0.750002 0.000052
v -0.749983 -0.711512 0.237152
v 0.750017 -0.711512 0.237152
v -0.749983 -0.624032 0.416052
v 0.750017 -0.624032 0.416052
v -0.749983 -0.530332 0.530352
v 0.750017 -0.530332 0.530352
v -0.749983 0.530328 -0.530348
v 0.750017 0.530328 -0.530348
v -0.749983 0.416028 -0.624048
v 0.750017 0.416028 -0.624048
v -0.749983 0.237168 -0.711449
v 0.750017 0.237168 -0.711449
v -0.749983 -0.000002 -0.749949
v 0.750017 -0.000002 -0.749949
v -0.749983 -0.237172 -0.711449
v 0.750017 -0.237172 -0.711449
v -0.749983 -0.416022 -0.624048
v 0.750017 -0.416022 -0.624048
v -0.749983 -0.530332 -0.530348
v 0.750017 -0.530332 -0.530348
vn 1.0000 -0.0000 -0.0000
vn -0.0000 0.7071 0.7071
vn -0.0000 0.8345 0.5510
vn -0.0000 0.9487 0.3162
vn -0.0000 1.0000 -0.0000
vn -0.0000 0.9487 -0.3162
vn -0.0000 0.8345 -0.5510
vn -0.0000 0.7071 -0.7071
vn -0.0000 0.5511 0.8345
vn -0.0000 0.3162 0.9487
vn -0.0000 -0.0000 1.0000
vn -0.0000 -0.3162 0.9487
vn -0.0000 -0.5511 0.8345
vn -0.0000 -0.5510 0.8345
vn -0.0000 -0.7071 0.7071
vn -1.0000 -0.0000 -0.0000
vn -0.0000 -0.7071 -0.7071
vn -0.0000 -0.8345 -0.5511
vn -0.0000 -0.9487 -0.3162
vn -0.0000 -1.0000 -0.0000
vn -0.0000 -0.9487 0.3162
vn -0.0000 -0.8345 0.5511
vn -0.0000 0.5511 -0.8345
vn -0.0000 0.5510 -0.8345
vn -0.0000 0.3162 -0.9487
vn -0.0000 -0.0000 -1.0000
vn -0.0000 -0.3162 -0.9487
vn -0.0000 -0.5511 -0.8345
vt 1.731550 -0.273479
vt 2.542800 0.267354
vt 2.420980 0.415950
vt 2.656520 0.034843
vt 2.706550 -0.273479
vt 2.656520 -0.581801
vt 2.542800 -0.814311
vt 2.420980 -0.962908
vt 2.272380 -1.084730
vt 2.039870 -1.198440
vt 1.731550 -1.248480
vt 1.423230 -1.198440
vt 1.190720 -1.084730
vt 1.042120 -0.962908
vt 0.920302 -0.814311
vt 0.806585 -0.581801
vt 0.756551 -0.273479
vt 0.806585 0.034844
vt 0.920302 0.267354
vt 1.042120 0.415950
vt 1.190720 0.537770
vt 1.423230 0.651488
vt 1.731550 0.701521
vt 2.039870 0.651488
vt 2.272380 0.537770
vt 3.463100 0.403043
vt 1.513100 0.403043
vt 3.463100 0.078043
vt 1.513100 0.078043
vt 3.463100 -0.246957
vt 1.513100 -0.246957
vt 3.463100 -0.571957
vt 1.513100 -0.571957
vt 3.463100 -0.896957
vt 1.513100 -0.896957
vt 3.463100 -1.221960
vt 1.513100 -1.221960
vt 3.463100 -1.546960
vt 1.513100 -1.546960
s 1
usemtl Handle1Mtl.016
f 1/1/1 3/2/1 2/3/1
f 1/1/1 4/4/1 3/2/1
f 1/1/1 5/5/1 4/4/1
f 1/1/1 6/6/1 5/5/1
f 1/1/1 7/7/1 6/6/1
f 1/1/1 8/8/1 7/7/1
f 1/1/1 10/9/1 9/8/1
f 1/1/1 11/10/1 10/9/1
f 1/1/1 12/11/1 11/10/1
f 1/1/1 13/12/1 12/11/1
f 1/1/1 14/13/1 13/12/1
f 1/1/1 15/14/1 14/13/1
f 1/1/1 17/15/1 16/14/1
f 1/1/1 18/16/1 17/15/1
f 1/1/1 19/17/1 18/16/1
f 1/1/1 20/18/1 19/17/1
f 1/1/1 21/19/1 20/18/1
f 1/1/1 22/20/1 21/19/1
f 1/1/1 24/21/1 23/20/1
f 1/1/1 25/22/1 24/21/1
f 1/1/1 26/23/1 25/22/1
f 1/1/1 27/24/1 26/23/1
f 1/1/1 28/25/1 27/24/1
f 1/1/1 29/3/1 28/25/1
f 30/26/2 31/27/2 32/28/3
f 32/28/3 31/27/2 33/29/3
f 32/28/3 33/29/3 34/30/4
f 34/30/4 33/29/3 35/31/4
f 34/30/4 35/31/4 36/32/5
f 36/32/5 35/31/4 37/33/5
f 36/32/5 37/33/5 38/34/6
f 38/34/6 37/33/5 39/35/6
f 38/34/6 39/35/6 40/36/7
f 40/36/7 39/35/6 41/37/7
f 40/36/7 41/37/7 42/38/8
f 42/38/8 41/37/7 43/39/8
f 44/26/2 45/27/2 46/28/9
f 46/28/9 45/27/2 47/29/9
f 46/28/9 47/29/9 48/30/10
f 48/30/10 47/29/9 49/31/10
f 48/30/10 49/31/10 50/32/11
f 50/32/11 49/31/10 51/33/11
f 50/32/11 51/33/11 52/34/12
f 52/34/12 51/33/11 53/35/12
f 52/34/12 53/35/12 54/36/13
f 54/36/13 53/35/12 55/37/14
f 54/36/13 55/37/14 56/38/15
f 56/38/15 55/37/14 57/39/15
f 58/1/16 60/2/16 59/3/16
f 58/1/16 61/4/16 60/2/16
f 58/1/16 62/5/16 61/4/16
f 58/1/16 63/6/16 62/5/16
f 58/1/16 64/7/16 63/6/16
f 58/1/16 65/8/16 64/7/16
f 58/1/16 67/9/16 66/8/16
f 58/1/16 68/10/16 67/9/16
f 58/1/16 69/11/16 68/10/16
f 58/1/16 70/12/16 69/11/16
f 58/1/16 71/13/16 70/12/16
f 58/1/16 72/14/16 71/13/16
f 58/1/16 74/15/16 73/14/16
f 58/1/16 75/16/16 74/15/16
f 58/1/16 76/17/16 75/16/16
f 58/1/16 77/18/16 76/17/16
f 58/1/16 78/19/16 77/18/16
f 58/1/16 79/20/16 78/19/16
f 58/1/16 81/21/16 80/20/16
f 58/1/16 82/22/16 81/21/16
f 58/1/16 83/23/16 82/22/16
f 58/1/16 84/24/16 83/23/16
f 58/1/16 85/25/16 84/24/16
f 58/1/16 86/3/16 85/25/16
f 87/26/17 88/27/17 89/28/18
f 89/28/18 88/27/17 90/29/18
f 89/28/18 90/29/18 91/30/19
f 91/30/19 90/29/18 92/31/19
f 91/30/19 92/31/19 93/32/20
f 93/32/20 92/31/19 94/33/20
f 93/32/20 94/33/20 95/34/21
f 95/34/21 94/33/20 96/35/21
f 95/34/21 96/35/21 97/36/22
f 97/36/22 96/35/21 98/37/22
f 97/36/22 98/37/22 99/38/15
f 99/38/15 98/37/22 100/39/15
f 101/26/8 102/27/8 103/28/23
f 103/28/23 102/27/8 104/29/24
f 103/28/23 104/29/24 105/30/25
f 105/30/25 104/29/24 106/31/25
f 105/30/25 106/31/25 107/32/26
f 107/32/26 106/31/25 108/33/26
f 107/32/26 108/33/26 109/34/27
f 109/34/27 108/33/26 110/35/27
f 109/34/27 110/35/27 111/36/28
f 111/36/28 110/35/27 112/37/28
f 111/36/28 112/37/28 113/38/17
f 113/38/17 112/37/28 114/39/17
