# Blender 5.1.2
# www.blender.org
mtllib DoorD.mtl
o DoorD
v 0.300501 -0.807489 -1.243957
v -0.284399 2.044332 0.815243
v 0.300501 -0.807488 1.214241
v -0.284399 2.044332 -1.243958
v -0.474499 2.044332 0.815243
v -0.284399 2.044332 -1.243958
v -0.474499 2.044332 -1.243958
v -0.284399 2.044332 0.815243
v -0.474499 2.044332 0.815243
v 0.110401 -0.807488 1.214241
v -0.284399 2.044332 0.815243
v 0.300501 -0.807488 1.214241
v 0.110401 -0.807489 -1.243957
v -0.474499 2.044332 0.815243
v -0.474499 2.044332 -1.243958
v 0.110401 -0.807488 1.214241
v 0.300501 -0.807489 -1.243957
v 0.110401 -0.807488 1.214241
v 0.110401 -0.807489 -1.243957
v 0.300501 -0.807488 1.214241
v -0.284399 2.044332 -1.243958
v 0.110401 -0.807489 -1.243957
v -0.474499 2.044332 -1.243958
v 0.300501 -0.807489 -1.243957
v 0.373503 -0.807839 -1.253357
v 0.373503 -2.584349 -1.395157
v 0.373503 -0.807839 -1.395157
v 0.373503 -2.584349 0.990341
v 0.373503 -1.704136 1.382740
v 0.373503 -0.807838 1.204743
v 0.373503 -0.807838 1.382740
v 0.373503 -0.807839 -1.395157
v -0.211399 2.043982 -1.253357
v 0.373503 -0.807839 -1.253357
v -0.238298 2.175201 -1.395157
v -0.238298 2.175191 0.939743
v -0.211399 2.043982 0.805843
v 0.373503 -0.807838 1.382740
v 0.373503 -0.807838 1.204743
v -0.528399 2.175191 0.939743
v -0.238298 2.175201 -1.395157
v -0.528399 2.175201 -1.395157
v -0.238298 2.175191 0.939743
v 0.083403 -0.807839 -1.253357
v 0.083403 -0.807838 1.204743
v 0.373503 -0.807839 -1.253357
v 0.373503 -0.807838 1.204743
v 0.373503 -2.584349 0.990341
v 0.373503 -1.704136 1.382740
v 0.083403 -2.584349 0.990341
v 0.083403 -1.704136 1.382740
v 0.083403 -0.807838 1.382740
v 0.083403 -1.704136 1.382740
v 0.373503 -1.704136 1.382740
v 0.373503 -0.807838 1.382740
v 0.083403 -0.807838 1.382740
v -0.238298 2.175191 0.939743
v -0.528399 2.175191 0.939743
v 0.373503 -0.807838 1.382740
v 0.083403 -0.807839 -1.253357
v -0.211399 2.043982 -1.253357
v -0.501497 2.043982 -1.253357
v 0.373503 -0.807839 -1.253357
v -0.528399 2.175201 -1.395157
v 0.083403 -0.807839 -1.395157
v -0.501497 2.043982 -1.253357
v 0.083403 -0.807839 -1.253357
v -0.528399 2.175191 0.939743
v -0.501497 2.043982 0.805843
v 0.083403 -0.807838 1.382740
v 0.083403 -0.807838 1.204743
v 0.083403 -2.584349 -1.395157
v 0.083403 -0.807839 -1.253357
v 0.083403 -0.807839 -1.395157
v 0.083403 -2.584349 0.990341
v 0.083403 -1.704136 1.382740
v 0.083403 -0.807838 1.204743
v 0.083403 -0.807838 1.382740
v 0.373503 -2.584349 -1.395157
v 0.373503 -2.584349 0.990341
v 0.083403 -2.584349 -1.395157
v 0.083403 -2.584349 0.990341
v -0.501497 2.043982 0.805843
v -0.501497 2.043982 -1.253357
v -0.211399 2.043982 -1.253357
v -0.211399 2.043982 0.805843
v 0.373503 -0.807839 -1.395157
v 0.373503 -2.584349 -1.395157
v 0.083403 -0.807839 -1.395157
v 0.083403 -2.584349 -1.395157
v -0.238298 2.175201 -1.395157
v -0.528399 2.175201 -1.395157
v 0.083403 -0.807838 1.204743
v -0.501497 2.043982 0.805843
v -0.211399 2.043982 0.805843
v 0.373503 -0.807838 1.204743
vn 0.9787 0.2052 -0.0000
vn -0.0000 1.0000 -0.0000
vn -0.0000 0.1415 0.9899
vn -0.0000 0.1414 0.9900
vn -0.9787 -0.2052 -0.0000
vn -0.0000 -1.0000 -0.0000
vn -0.0000 -0.0000 -1.0000
vn 1.0000 -0.0000 -0.0000
vn -0.0000 -0.4091 0.9125
vn -0.0000 -0.0000 1.0000
vn -0.0000 0.1491 0.9888
vn -1.0000 -0.0000 -0.0000
vn -0.0000 -0.1414 -0.9899
vn -0.0000 -0.1414 -0.9900
vt -0.765678 1.214150
vt -2.824900 4.065970
vt -3.223850 1.214150
vt -0.765678 4.065970
vt -1.607280 3.470190
vt -1.797370 1.410970
vt -1.607280 1.410970
vt -1.797370 3.470190
vt -2.382250 4.065970
vt -1.797370 1.214150
vt -2.192160 4.065970
vt -1.607280 1.214150
vt -1.164630 4.065970
vt -3.223850 4.065970
vt -1.797370 3.869150
vt -1.607280 3.869150
vt -1.797370 4.065970
vt -2.192160 1.214150
vt -1.607280 4.065970
vt -2.382250 1.214150
vt 4.141020 -0.857639
vt 4.169370 -1.212940
vt 4.169370 -0.857639
vt 3.692280 -1.212940
vt 3.613790 -1.036900
vt 3.649390 -0.857639
vt 3.613790 -0.857639
vt 4.141020 -0.287274
vt 4.169370 -0.261031
vt 3.702410 -0.261031
vt 3.729180 -0.287274
vt 3.981770 -0.547809
vt 3.923750 -1.014770
vt 3.981770 -1.014770
vt 3.923750 -0.547809
vt 3.859410 -0.986428
vt 3.859410 -0.494793
vt 3.801390 -0.986428
vt 3.801390 -0.494793
vt 3.981770 -1.212940
vt 3.981770 -1.036900
vt 3.923750 -1.212940
vt 3.923750 -1.036900
vt 3.923750 -0.857639
vt 3.981770 -0.857639
vt 3.859410 -0.261031
vt 3.801390 -0.261031
vt 3.864790 -0.287274
vt 3.806780 -0.287274
vt 3.613790 -0.261031
vt 3.642140 -0.287274
vt 3.642140 -0.857639
vt 4.080760 -0.261031
vt 4.053980 -0.287274
vt 4.133770 -0.857639
vt 3.613790 -1.212940
vt 4.090880 -1.212940
vt 4.169370 -1.036900
vt 3.981770 -0.537686
vt 3.923750 -0.537686
vt 3.806780 -0.574584
vt 3.806780 -0.986428
vt 3.864790 -0.986428
vt 3.864790 -0.574584
vt 3.801390 -0.857639
vt 3.801390 -1.212940
vt 3.859410 -0.857639
vt 3.859410 -1.212940
vt 3.923750 -0.261031
vt 3.981770 -0.261031
vt 3.976390 -0.287274
vt 3.918370 -0.287274
s 1
usemtl Glass1Mtl.003
f 1/1/1 2/2/1 3/3/1
f 2/2/1 1/1/1 4/4/1
f 5/5/2 6/6/2 7/7/2
f 6/6/2 5/5/2 8/8/2
f 9/9/3 10/10/4 11/11/4
f 12/12/3 11/11/4 10/10/4
f 13/3/5 14/13/5 15/14/5
f 14/13/5 13/3/5 16/1/5
f 17/7/6 18/15/6 19/6/6
f 18/15/6 17/7/6 20/16/6
f 21/17/7 22/18/7 23/19/7
f 22/18/7 21/17/7 24/20/7
usemtl Door1Mtl.004
f 25/21/8 26/22/8 27/23/8
f 25/21/8 28/24/8 26/22/8
f 28/24/8 25/21/8 29/25/8
f 29/25/8 25/21/8 30/26/8
f 29/25/8 30/26/8 31/27/8
f 32/23/1 33/28/1 34/21/1
f 33/28/1 32/23/1 35/29/1
f 35/29/1 36/30/1 33/28/1
f 33/28/1 36/30/1 37/31/1
f 38/27/1 37/31/1 36/30/1
f 37/31/1 38/27/1 39/26/1
f 40/32/2 41/33/2 42/34/2
f 41/33/2 40/32/2 43/35/2
f 44/36/2 45/37/2 46/38/2
f 46/38/2 45/37/2 47/39/2
f 48/40/9 49/41/9 50/42/9
f 50/42/9 49/41/9 51/43/9
f 52/44/10 53/43/10 54/41/10
f 54/41/10 55/45/10 52/44/10
f 56/44/11 57/46/11 58/47/11
f 57/46/11 56/44/11 59/45/11
f 60/44/10 61/48/10 62/49/10
f 61/48/10 60/44/10 63/45/10
f 64/50/5 65/27/5 66/51/5
f 66/51/5 65/27/5 67/52/5
f 68/53/5 64/50/5 66/51/5
f 68/53/5 66/51/5 69/54/5
f 69/54/5 70/23/5 68/53/5
f 70/23/5 69/54/5 71/55/5
f 72/56/12 73/52/12 74/27/12
f 73/52/12 72/56/12 75/57/12
f 73/52/12 75/57/12 76/58/12
f 73/52/12 76/58/12 77/55/12
f 77/55/12 76/58/12 78/23/12
f 79/34/6 80/59/6 81/33/6
f 81/33/6 80/59/6 82/60/6
f 83/61/6 84/62/6 85/63/6
f 85/63/6 86/64/6 83/61/6
f 87/65/7 88/66/7 89/67/7
f 89/67/7 88/66/7 90/68/7
f 89/67/7 91/69/7 87/65/7
f 91/69/7 89/67/7 92/70/7
f 93/67/13 94/71/13 95/72/13
f 95/72/13 96/65/14 93/67/13
