# Blender 5.1.2
# www.blender.org
mtllib Plunger.mtl
o Plunger
v -0.304418 -0.699209 0.221108
v -0.116278 -0.699209 0.357807
v -0.150098 -0.699209 0.461908
v -0.392948 -0.699209 0.285507
v 0.150092 -0.699209 0.461908
v -0.485708 -0.699209 0.000008
v 0.116272 -0.699209 0.357807
v -0.376288 -0.699209 0.000008
v 0.304422 -0.699209 0.221108
v -0.392948 -0.699209 -0.285492
v 0.392942 -0.699209 0.285507
v -0.304418 -0.699209 -0.221191
v 0.485702 -0.699209 0.000008
v -0.150098 -0.699209 -0.461992
v 0.376282 -0.699209 0.000008
v -0.116278 -0.699209 -0.357891
v 0.304422 -0.699209 -0.221191
v 0.150092 -0.699209 -0.461992
v 0.392942 -0.699209 -0.285492
v 0.116272 -0.699209 -0.357891
v -0.116278 -0.699209 0.357807
v -0.304418 -0.699209 0.221108
v 0.000002 -0.254219 0.000008
v -0.376288 -0.699209 0.000008
v 0.116272 -0.699209 0.357807
v 0.304422 -0.699209 0.221108
v 0.376282 -0.699209 0.000008
v 0.304422 -0.699209 -0.221191
v 0.376282 -0.699209 0.000008
v 0.000002 -0.254219 0.000008
v 0.116272 -0.699209 -0.357891
v -0.116278 -0.699209 -0.357891
v -0.304418 -0.699209 -0.221191
v -0.376288 -0.699209 0.000008
v -0.392948 -0.699209 0.285507
v -0.150098 -0.699209 0.461908
v -0.150098 -0.549809 0.461908
v 0.150092 -0.549809 0.461908
v -0.392948 -0.549809 0.285507
v -0.485708 -0.699209 0.000008
v -0.485708 -0.549809 0.000008
v 0.150092 -0.699209 0.461908
v 0.392942 -0.549809 0.285507
v 0.392942 -0.699209 0.285507
v 0.485702 -0.549809 0.000008
v 0.485702 -0.699209 0.000008
v 0.485702 -0.699209 0.000008
v 0.392942 -0.699209 -0.285492
v 0.392942 -0.549809 -0.285492
v 0.485702 -0.549809 0.000008
v 0.150092 -0.549809 -0.461992
v 0.150092 -0.699209 -0.461992
v -0.150098 -0.549809 -0.461992
v -0.150098 -0.699209 -0.461992
v -0.392948 -0.549809 -0.285492
v -0.392948 -0.699209 -0.285492
v -0.485708 -0.549809 0.000008
v -0.485708 -0.699209 0.000008
v -0.029498 1.212421 0.090708
v -0.073438 1.243001 0.053308
v -0.077218 1.212421 0.056108
v -0.095448 1.212421 0.000008
v -0.095448 -0.134749 0.000008
v -0.077218 -0.134749 0.056108
v -0.090778 1.243001 0.000008
v -0.029498 -0.134749 0.090708
v -0.062478 1.270591 0.045408
v -0.077218 1.270591 0.000008
v -0.028058 1.243001 0.086307
v 0.029492 1.212421 0.090708
v 0.028052 1.243001 0.086307
v 0.029492 -0.134749 0.090708
v -0.045388 1.292481 0.032907
v -0.056108 1.292481 0.000008
v -0.023868 1.270591 0.073408
v 0.077212 1.212421 0.056108
v 0.077212 -0.134749 0.056108
v 0.095442 1.212421 0.000008
v 0.095442 -0.134749 0.000008
v 0.073442 1.243001 0.053308
v 0.090772 1.243001 0.000008
v 0.062472 1.270591 0.045408
v 0.077212 1.270591 0.000008
v 0.023862 1.270591 0.073408
v 0.045382 1.292481 0.032907
v 0.056102 1.292481 0.000008
v 0.017332 1.292481 0.053308
v 0.029492 1.306541 0.000008
v 0.023862 1.306541 0.017307
v 0.000002 1.311381 0.000008
v 0.009112 1.306541 0.028007
v -0.017338 1.292481 0.053308
v -0.009118 1.306541 0.028007
v -0.023868 1.306541 0.017307
v -0.029498 1.306541 0.000008
v 0.073442 1.243001 -0.053393
v 0.095442 1.212421 0.000008
v 0.077212 1.212421 -0.056091
v 0.095442 -0.134749 0.000008
v 0.077212 -0.134749 -0.056091
v 0.090772 1.243001 0.000008
v 0.029492 1.212421 -0.090792
v 0.029492 -0.134749 -0.090792
v 0.062472 1.270591 -0.045391
v 0.077212 1.270591 0.000008
v 0.028052 1.243001 -0.086392
v -0.029498 1.212421 -0.090792
v -0.029498 -0.134749 -0.090792
v -0.028058 1.243001 -0.086392
v 0.023862 1.270591 -0.073492
v 0.045382 1.292481 -0.032992
v 0.056102 1.292481 0.000008
v 0.029492 1.306541 0.000008
v 0.023862 1.306541 -0.017391
v 0.000002 1.311381 0.000008
v 0.017332 1.292481 -0.053393
v 0.009112 1.306541 -0.028092
v -0.017338 1.292481 -0.053393
v -0.023868 1.270591 -0.073492
v -0.062478 1.270591 -0.045391
v -0.009118 1.306541 -0.028092
v -0.023868 1.306541 -0.017391
v -0.029498 1.306541 0.000008
v -0.045388 1.292481 -0.032992
v -0.056108 1.292481 0.000008
v -0.077218 1.270591 0.000008
v -0.090778 1.243001 0.000008
v -0.073438 1.243001 -0.053393
v -0.095448 1.212421 0.000008
v -0.077218 1.212421 -0.056091
v -0.077218 -0.134749 -0.056091
v -0.095448 -0.134749 0.000008
v 0.074982 -0.131179 -0.054491
v 0.092682 -0.169379 0.000008
v 0.092682 -0.131179 0.000008
v 0.074982 -0.169379 -0.054491
v 0.028642 -0.169379 -0.088192
v 0.028642 -0.131179 -0.088192
v -0.028648 -0.169379 -0.088192
v -0.028648 -0.131179 -0.088192
v -0.074988 -0.169379 -0.054491
v -0.074988 -0.131179 -0.054491
v -0.092688 -0.169379 0.000008
v -0.092688 -0.131179 0.000008
v -0.074988 -0.131179 0.054508
v -0.028648 -0.131179 0.088108
v -0.028648 -0.169379 0.088108
v 0.028642 -0.169379 0.088108
v -0.074988 -0.169379 0.054508
v -0.092688 -0.169379 0.000008
v -0.092688 -0.131179 0.000008
v 0.028642 -0.131179 0.088108
v 0.074982 -0.169379 0.054508
v 0.074982 -0.131179 0.054508
v 0.092682 -0.169379 0.000008
v 0.092682 -0.131179 0.000008
v -0.123608 -0.549809 0.380407
v -0.307768 -0.426199 0.223608
v -0.323608 -0.549809 0.235107
v -0.399998 -0.549809 0.000008
v -0.380428 -0.426199 0.000008
v -0.261808 -0.314689 0.190208
v -0.323608 -0.314689 0.000008
v -0.117558 -0.426199 0.361809
v -0.190218 -0.226199 0.138208
v 0.117552 -0.426199 0.361809
v -0.235118 -0.226199 0.000008
v 0.123602 -0.549809 0.380407
v -0.099998 -0.169379 0.072609
v -0.123608 -0.169379 0.000008
v -0.099998 -0.131179 0.072609
v -0.123608 -0.131179 0.000008
v -0.038198 -0.131179 0.117508
v -0.038198 -0.169379 0.117508
v 0.038192 -0.131179 0.117508
v -0.072658 -0.226199 0.223608
v 0.038192 -0.169379 0.117508
v -0.099998 -0.314689 0.307709
v 0.072652 -0.226199 0.223608
v 0.100002 -0.131179 0.072609
v 0.100002 -0.314689 0.307709
v 0.261802 -0.314689 0.190208
v 0.190212 -0.226199 0.138208
v 0.100002 -0.169379 0.072609
v 0.123602 -0.169379 0.000008
v 0.123602 -0.131179 0.000008
v 0.235112 -0.226199 0.000008
v 0.323602 -0.314689 0.000008
v 0.380422 -0.426199 0.000008
v 0.307762 -0.426199 0.223608
v 0.400002 -0.549809 0.000008
v 0.323602 -0.549809 0.235107
v 0.307762 -0.426199 -0.223593
v 0.400002 -0.549809 0.000008
v 0.323602 -0.549809 -0.235092
v 0.380422 -0.426199 0.000008
v 0.123602 -0.549809 -0.380491
v 0.261802 -0.314689 -0.190191
v 0.323602 -0.314689 0.000008
v 0.117552 -0.426199 -0.361792
v -0.117558 -0.426199 -0.361792
v -0.123608 -0.549809 -0.380491
v 0.190212 -0.226199 -0.138191
v 0.235112 -0.226199 0.000008
v 0.100002 -0.169379 -0.072693
v 0.123602 -0.169379 0.000008
v 0.072652 -0.226199 -0.223593
v 0.100002 -0.131179 -0.072693
v 0.123602 -0.131179 0.000008
v 0.038192 -0.131179 -0.117592
v 0.038192 -0.169379 -0.117592
v -0.038198 -0.131179 -0.117592
v 0.100002 -0.314689 -0.307793
v -0.072658 -0.226199 -0.223593
v -0.038198 -0.169379 -0.117592
v -0.099998 -0.131179 -0.072693
v -0.099998 -0.314689 -0.307793
v -0.261808 -0.314689 -0.190191
v -0.190218 -0.226199 -0.138191
v -0.099998 -0.169379 -0.072693
v -0.123608 -0.169379 0.000008
v -0.123608 -0.131179 0.000008
v -0.235118 -0.226199 0.000008
v -0.323608 -0.314689 0.000008
v -0.380428 -0.426199 0.000008
v -0.307768 -0.426199 -0.223593
v -0.399998 -0.549809 0.000008
v -0.323608 -0.549809 -0.235092
v -0.028648 -0.131179 0.088108
v -0.099998 -0.131179 0.072609
v -0.038198 -0.131179 0.117508
v 0.038192 -0.131179 0.117508
v -0.074988 -0.131179 0.054508
v 0.028642 -0.131179 0.088108
v -0.123608 -0.131179 0.000008
v 0.074982 -0.131179 0.054508
v -0.092688 -0.131179 0.000008
v 0.100002 -0.131179 0.072609
v -0.074988 -0.131179 -0.054491
v 0.092682 -0.131179 0.000008
v -0.099998 -0.131179 -0.072693
v 0.123602 -0.131179 0.000008
v -0.028648 -0.131179 -0.088192
v 0.074982 -0.131179 -0.054491
v -0.038198 -0.131179 -0.117592
v 0.100002 -0.131179 -0.072693
v 0.038192 -0.131179 -0.117592
v 0.028642 -0.131179 -0.088192
v -0.392948 -0.549809 0.285507
v -0.150098 -0.549809 0.461908
v -0.123608 -0.549809 0.380407
v 0.150092 -0.549809 0.461908
v -0.323608 -0.549809 0.235107
v 0.123602 -0.549809 0.380407
v -0.485708 -0.549809 0.000008
v 0.323602 -0.549809 0.235107
v -0.399998 -0.549809 0.000008
v 0.392942 -0.549809 0.285507
v -0.392948 -0.549809 -0.285492
v 0.400002 -0.549809 0.000008
v -0.323608 -0.549809 -0.235092
v 0.485702 -0.549809 0.000008
v -0.123608 -0.549809 -0.380491
v 0.323602 -0.549809 -0.235092
v -0.150098 -0.549809 -0.461992
v 0.392942 -0.549809 -0.285492
v 0.150092 -0.549809 -0.461992
v 0.123602 -0.549809 -0.380491
vn -0.0000 -1.0000 -0.0000
vn 0.2365 -0.6465 -0.7253
vn 0.6155 -0.6471 -0.4498
vn 0.7637 -0.6456 -0.0001
vn -0.2365 -0.6465 -0.7253
vn -0.6156 -0.6471 -0.4498
vn -0.7637 -0.6456 -0.0000
vn -0.6156 -0.6471 0.4498
vn -0.7637 -0.6456 0.0001
vn -0.0000 -1.0000 -0.0001
vn -0.2365 -0.6465 0.7253
vn 0.2365 -0.6465 0.7253
vn 0.6155 -0.6471 0.4498
vn 0.7637 -0.6456 -0.0000
vn -0.8083 -0.0000 0.5887
vn -0.3068 -0.0000 0.9518
vn 0.3068 -0.0000 0.9518
vn -0.8084 -0.0000 0.5886
vn -1.0000 -0.0000 0.0001
vn 0.8084 -0.0000 0.5887
vn 1.0000 -0.0000 0.0001
vn 1.0000 -0.0000 -0.0000
vn 1.0000 -0.0000 -0.0001
vn 0.8084 -0.0000 -0.5886
vn 0.8084 -0.0000 -0.5887
vn 0.3068 -0.0000 -0.9518
vn -0.3067 -0.0000 -0.9518
vn -0.3068 -0.0000 -0.9518
vn -0.8084 -0.0000 -0.5886
vn -0.8084 -0.0000 -0.5887
vn -1.0000 -0.0000 -0.0001
vn -0.7759 0.2822 0.5643
vn -1.0000 -0.0000 -0.0000
vn -0.9591 0.2830 -0.0000
vn -0.6772 0.5434 0.4961
vn -0.8404 0.5420 0.0001
vn -0.2986 0.2829 0.9115
vn 0.2986 0.2829 0.9115
vn -0.5206 0.7652 0.3786
vn -0.6456 0.7637 0.0001
vn -0.2605 0.5446 0.7972
vn 0.8084 -0.0000 0.5886
vn 0.7759 0.2822 0.5643
vn 0.9591 0.2830 0.0001
vn 0.6772 0.5434 0.4961
vn 0.8404 0.5420 0.0001
vn 0.2605 0.5446 0.7972
vn 0.5206 0.7652 0.3787
vn 0.6456 0.7637 -0.0000
vn 0.1969 0.7640 0.6144
vn 0.4091 0.9125 -0.0000
vn 0.3302 0.9119 0.2437
vn -0.0000 1.0000 -0.0000
vn 0.1257 0.9111 0.3927
vn -0.1969 0.7641 0.6144
vn -0.1257 0.9110 0.3927
vn -0.3302 0.9119 0.2437
vn -0.4090 0.9125 -0.0000
vn 0.7759 0.2822 -0.5643
vn 0.9591 0.2830 -0.0000
vn 0.6772 0.5434 -0.4961
vn 0.8404 0.5420 -0.0000
vn 0.2986 0.2829 -0.9115
vn -0.2986 0.2829 -0.9115
vn 0.2605 0.5446 -0.7972
vn 0.5206 0.7652 -0.3786
vn 0.3302 0.9119 -0.2437
vn 0.1969 0.7640 -0.6144
vn 0.1256 0.9111 -0.3927
vn -0.1969 0.7640 -0.6144
vn -0.2605 0.5446 -0.7972
vn -0.6772 0.5434 -0.4961
vn -0.1257 0.9110 -0.3927
vn -0.3302 0.9119 -0.2437
vn -0.5207 0.7652 -0.3787
vn -0.6456 0.7637 -0.0000
vn -0.8404 0.5420 -0.0000
vn -0.7759 0.2821 -0.5643
vn -0.8083 -0.0000 -0.5887
vn -0.3067 -0.0000 0.9518
vn 0.8083 -0.0000 -0.5887
vn -0.3075 0.1577 0.9384
vn -0.7744 0.2924 0.5611
vn -0.7966 0.1577 0.5836
vn -0.9874 0.1580 -0.0000
vn -0.9563 0.2924 0.0001
vn -0.6697 0.5594 0.4885
vn -0.8284 0.5602 0.0001
vn -0.2979 0.2901 0.9094
vn -0.5133 0.7738 0.3711
vn 0.2979 0.2901 0.9094
vn -0.6324 0.7747 0.0001
vn 0.3075 0.1577 0.9384
vn -0.4644 0.8185 0.3384
vn -0.5798 0.8148 -0.0000
vn -0.8084 -0.0000 0.5887
vn -0.1786 0.8160 0.5498
vn -0.1967 0.7710 0.6057
vn 0.1786 0.8159 0.5498
vn -0.2598 0.5590 0.7874
vn 0.1967 0.7710 0.6058
vn 0.2598 0.5590 0.7874
vn 0.6697 0.5594 0.4885
vn 0.5132 0.7739 0.3711
vn 0.4648 0.8184 0.3378
vn 0.5798 0.8148 -0.0000
vn 0.6324 0.7747 -0.0000
vn 0.8284 0.5602 0.0001
vn 0.9563 0.2924 0.0001
vn 0.7744 0.2924 0.5611
vn 0.9874 0.1580 -0.0000
vn 0.7965 0.1577 0.5836
vn 0.7744 0.2924 -0.5611
vn 0.7966 0.1577 -0.5836
vn 0.9563 0.2924 -0.0001
vn 0.3076 0.1577 -0.9384
vn 0.6697 0.5594 -0.4885
vn 0.8284 0.5602 -0.0001
vn 0.2979 0.2901 -0.9095
vn -0.2979 0.2901 -0.9094
vn -0.3075 0.1577 -0.9384
vn 0.5133 0.7738 -0.3711
vn 0.4643 0.8184 -0.3385
vn 0.1967 0.7710 -0.6057
vn 0.1786 0.8159 -0.5499
vn 0.2598 0.5590 -0.7874
vn -0.1967 0.7710 -0.6058
vn -0.1786 0.8160 -0.5498
vn -0.2598 0.5590 -0.7874
vn -0.6697 0.5594 -0.4885
vn -0.5133 0.7738 -0.3711
vn -0.4649 0.8185 -0.3377
vn -0.6324 0.7747 -0.0000
vn -0.8284 0.5602 -0.0001
vn -0.9563 0.2924 -0.0001
vn -0.7744 0.2924 -0.5611
vn -0.7965 0.1577 -0.5836
vt 0.815966 0.045977
vt 0.773066 0.045977
vt 0.780776 0.045977
vt 0.836151 0.045977
vt 0.712328 0.045977
vt 0.857303 0.045977
vt 0.720038 0.045977
vt 0.832352 0.045977
vt 0.677137 0.045977
vt 0.656952 0.045977
vt 0.635800 0.045977
vt 0.660751 0.045977
vt 0.746552 0.757337
vt 0.780776 0.284813
vt 0.712328 0.284813
vt 0.836151 0.284813
vt 0.857303 0.284813
vt 0.656952 0.284813
vt 0.635800 0.284813
vt 0.291608 0.874243
vt 0.348462 0.892582
vt 0.353351 0.874243
vt 0.376935 0.874243
vt 0.376935 0.066411
vt 0.353351 0.066411
vt 0.370891 0.892582
vt 0.291608 0.066411
vt 0.334272 0.909126
vt 0.353351 0.909126
vt 0.289740 0.892582
vt 0.215289 0.874243
vt 0.217156 0.892582
vt 0.215289 0.066411
vt 0.312170 0.922255
vt 0.326032 0.922255
vt 0.284320 0.909126
vt 0.153545 0.874243
vt 0.153545 0.066411
vt 0.129961 0.874243
vt 0.129961 0.066411
vt 0.158435 0.892582
vt 0.136005 0.892582
vt 0.172625 0.909126
vt 0.153545 0.909126
vt 0.222576 0.909126
vt 0.194727 0.922255
vt 0.180864 0.922255
vt 0.231019 0.922255
vt 0.215289 0.930684
vt 0.222576 0.930684
vt 0.253448 0.933589
vt 0.241656 0.930684
vt 0.275878 0.922255
vt 0.265240 0.930684
vt 0.284320 0.930684
vt 0.291608 0.930684
vt 0.729453 0.954023
vt 0.725417 0.892955
vt 0.725417 0.954023
vt 0.729453 0.892955
vt 0.740021 0.892955
vt 0.740021 0.954023
vt 0.753083 0.892955
vt 0.753083 0.954023
vt 0.763650 0.892955
vt 0.763650 0.954023
vt 0.767686 0.892955
vt 0.767686 0.954023
vt 0.774737 0.284813
vt 0.816730 0.482410
vt 0.820341 0.284813
vt 0.837760 0.284813
vt 0.833296 0.482410
vt 0.806249 0.660666
vt 0.820341 0.660666
vt 0.773357 0.482410
vt 0.789924 0.802130
vt 0.719746 0.482410
vt 0.800163 0.802130
vt 0.718367 0.284813
vt 0.769354 0.892955
vt 0.774737 0.892955
vt 0.769354 0.954023
vt 0.774737 0.954023
vt 0.755261 0.954023
vt 0.755261 0.892955
vt 0.737842 0.954023
vt 0.763118 0.802130
vt 0.737842 0.892955
vt 0.769354 0.660666
vt 0.729985 0.802130
vt 0.723750 0.954023
vt 0.723750 0.660666
vt 0.686855 0.660666
vt 0.703179 0.802130
vt 0.723750 0.892955
vt 0.718367 0.892955
vt 0.718367 0.954023
vt 0.692941 0.802130
vt 0.672762 0.660666
vt 0.659807 0.482410
vt 0.676374 0.482410
vt 0.655343 0.284813
vt 0.672762 0.284813
s 1
usemtl Handle1Mtl.035
f 1/1/1 2/2/1 3/3/1
f 3/3/1 4/4/1 1/1/1
f 5/5/1 3/3/1 2/2/1
f 6/6/1 1/1/1 4/4/1
f 5/5/1 2/2/1 7/7/1
f 1/1/1 6/6/1 8/8/1
f 9/9/1 5/5/1 7/7/1
f 10/4/1 8/8/1 6/6/1
f 5/5/1 9/9/1 11/10/1
f 8/8/1 10/4/1 12/1/1
f 13/11/1 11/10/1 9/9/1
f 14/3/1 12/1/1 10/4/1
f 13/11/1 9/9/1 15/12/1
f 12/1/1 14/3/1 16/2/1
f 17/9/1 13/11/1 15/12/1
f 18/5/1 16/2/1 14/3/1
f 13/11/1 17/9/1 19/10/1
f 17/9/1 18/5/1 19/10/1
f 16/2/1 18/5/1 20/7/1
f 18/5/1 17/9/1 20/7/1
f 21/2/2 22/1/3 23/13/1
f 22/1/3 24/8/4 23/13/1
f 25/7/5 21/2/2 23/13/1
f 26/9/6 25/7/5 23/13/1
f 27/12/7 26/9/6 23/13/1
f 28/9/8 29/12/9 30/13/10
f 31/7/11 28/9/8 30/13/10
f 32/2/12 31/7/11 30/13/10
f 33/1/13 32/2/12 30/13/10
f 34/8/14 33/1/13 30/13/10
f 35/4/15 36/3/16 37/14/16
f 36/3/16 38/15/17 37/14/16
f 35/4/15 37/14/16 39/16/18
f 39/16/18 40/6/19 35/4/15
f 40/6/19 39/16/18 41/17/19
f 36/3/16 42/5/17 38/15/17
f 42/5/17 43/18/20 38/15/17
f 42/5/17 44/10/20 43/18/20
f 45/19/21 43/18/20 44/10/20
f 44/10/20 46/11/22 45/19/21
f 47/11/23 48/10/24 49/18/25
f 49/18/25 50/19/23 47/11/23
f 49/18/25 48/10/24 51/15/26
f 51/15/26 48/10/24 52/5/26
f 53/14/27 51/15/26 52/5/26
f 53/14/27 52/5/26 54/3/28
f 53/14/27 54/3/28 55/16/29
f 55/16/29 54/3/28 56/4/30
f 56/4/30 57/17/31 55/16/29
f 57/17/31 56/4/30 58/6/31
f 59/20/16 60/21/32 61/22/18
f 62/23/33 61/22/18 60/21/32
f 63/24/33 61/22/18 62/23/33
f 61/22/18 63/24/33 64/25/18
f 64/25/18 59/20/16 61/22/18
f 65/26/34 62/23/33 60/21/32
f 66/27/16 59/20/16 64/25/18
f 65/26/34 60/21/32 67/28/35
f 68/29/36 65/26/34 67/28/35
f 60/21/32 59/20/16 69/30/37
f 69/30/37 67/28/35 60/21/32
f 66/27/16 70/31/17 59/20/16
f 59/20/16 71/32/38 69/30/37
f 59/20/16 70/31/17 71/32/38
f 72/33/17 70/31/17 66/27/16
f 68/29/36 67/28/35 73/34/39
f 74/35/40 68/29/36 73/34/39
f 67/28/35 69/30/37 75/36/41
f 71/32/38 75/36/41 69/30/37
f 72/33/17 76/37/42 70/31/17
f 77/38/20 76/37/42 72/33/17
f 76/37/42 77/38/20 78/39/22
f 79/40/22 78/39/22 77/38/20
f 76/37/42 80/41/43 70/31/17
f 78/39/22 80/41/43 76/37/42
f 70/31/17 80/41/43 71/32/38
f 80/41/43 78/39/22 81/42/44
f 81/42/44 82/43/45 80/41/43
f 80/41/43 82/43/45 71/32/38
f 82/43/45 81/42/44 83/44/46
f 71/32/38 82/43/45 84/45/47
f 75/36/41 71/32/38 84/45/47
f 83/44/46 85/46/48 82/43/45
f 85/46/48 83/44/46 86/47/49
f 82/43/45 87/48/50 84/45/47
f 87/48/50 75/36/41 84/45/47
f 87/48/50 82/43/45 85/46/48
f 88/49/51 85/46/48 86/47/49
f 85/46/48 88/49/51 89/50/52
f 89/50/52 88/49/51 90/51/53
f 91/52/54 85/46/48 89/50/52
f 85/46/48 91/52/54 87/48/50
f 91/52/54 89/50/52 90/51/53
f 75/36/41 87/48/50 92/53/55
f 92/53/55 87/48/50 91/52/54
f 92/53/55 67/28/35 75/36/41
f 67/28/35 92/53/55 73/34/39
f 92/53/55 91/52/54 93/54/56
f 93/54/56 91/52/54 90/51/53
f 93/54/56 73/34/39 92/53/55
f 94/55/57 93/54/56 90/51/53
f 73/34/39 93/54/56 94/55/57
f 95/56/58 94/55/57 90/51/53
f 73/34/39 94/55/57 74/35/40
f 74/35/40 94/55/57 95/56/58
f 96/41/59 97/39/22 98/37/24
f 97/39/22 99/40/22 98/37/24
f 100/38/25 98/37/24 99/40/22
f 97/39/22 96/41/59 101/42/60
f 100/38/25 102/31/26 98/37/24
f 102/31/26 96/41/59 98/37/24
f 102/31/26 100/38/25 103/33/26
f 104/43/61 101/42/60 96/41/59
f 101/42/60 104/43/61 105/44/62
f 96/41/59 102/31/26 106/32/63
f 106/32/63 104/43/61 96/41/59
f 102/31/26 103/33/26 107/20/28
f 107/20/28 103/33/26 108/27/28
f 109/30/64 106/32/63 102/31/26
f 109/30/64 102/31/26 107/20/28
f 104/43/61 106/32/63 110/45/65
f 109/30/64 110/45/65 106/32/63
f 111/46/66 105/44/62 104/43/61
f 105/44/62 111/46/66 112/47/49
f 111/46/66 113/49/51 112/47/49
f 113/49/51 111/46/66 114/50/67
f 113/49/51 114/50/67 115/51/53
f 116/48/68 111/46/66 104/43/61
f 104/43/61 110/45/65 116/48/68
f 114/50/67 111/46/66 117/52/69
f 114/50/67 117/52/69 115/51/53
f 111/46/66 116/48/68 117/52/69
f 110/45/65 118/53/70 116/48/68
f 118/53/70 117/52/69 116/48/68
f 110/45/65 109/30/64 119/36/71
f 110/45/65 119/36/71 118/53/70
f 120/28/72 119/36/71 109/30/64
f 120/28/72 118/53/70 119/36/71
f 117/52/69 121/54/73 115/51/53
f 117/52/69 118/53/70 121/54/73
f 121/54/73 122/55/74 115/51/53
f 122/55/74 123/56/58 115/51/53
f 124/34/75 121/54/73 118/53/70
f 121/54/73 124/34/75 122/55/74
f 123/56/58 122/55/74 124/34/75
f 118/53/70 120/28/72 124/34/75
f 124/34/75 125/35/76 123/56/58
f 124/34/75 126/29/77 125/35/76
f 126/29/77 124/34/75 120/28/72
f 120/28/72 127/26/34 126/29/77
f 127/26/34 120/28/72 128/21/78
f 109/30/64 128/21/78 120/28/72
f 128/21/78 129/23/33 127/26/34
f 128/21/78 109/30/64 107/20/28
f 128/21/78 107/20/28 130/22/29
f 129/23/33 128/21/78 130/22/29
f 107/20/28 108/27/28 130/22/29
f 130/22/29 108/27/28 131/25/79
f 131/25/79 129/23/33 130/22/29
f 129/23/33 131/25/79 132/24/33
f 133/57/18 134/58/33 135/59/33
f 134/58/33 133/57/18 136/60/18
f 133/57/18 137/61/16 136/60/18
f 137/61/16 133/57/18 138/62/80
f 138/62/80 139/63/17 137/61/16
f 139/63/17 138/62/80 140/64/17
f 139/63/17 140/64/17 141/65/42
f 141/65/42 140/64/17 142/66/42
f 142/66/42 143/67/22 141/65/42
f 143/67/22 142/66/42 144/68/21
f 145/66/25 146/64/26 147/63/26
f 146/64/26 148/61/28 147/63/26
f 145/66/25 147/63/26 149/65/81
f 150/67/22 145/66/25 149/65/81
f 145/66/25 150/67/22 151/68/22
f 146/64/26 152/62/28 148/61/28
f 152/62/28 153/60/30 148/61/28
f 152/62/28 154/57/29 153/60/30
f 155/58/33 153/60/30 154/57/29
f 156/59/33 155/58/33 154/57/29
f 157/69/82 158/70/83 159/71/84
f 160/72/85 159/71/84 158/70/83
f 158/70/83 161/73/86 160/72/85
f 161/73/86 158/70/83 162/74/87
f 163/75/88 161/73/86 162/74/87
f 158/70/83 157/69/82 164/76/89
f 164/76/89 162/74/87 158/70/83
f 163/75/88 162/74/87 165/77/90
f 157/69/82 166/78/91 164/76/89
f 167/79/92 163/75/88 165/77/90
f 157/69/82 168/80/93 166/78/91
f 165/77/90 169/81/94 167/79/92
f 167/79/92 169/81/94 170/82/95
f 170/82/95 169/81/94 171/83/96
f 171/83/96 172/84/33 170/82/95
f 169/81/94 173/85/16 171/83/96
f 174/86/97 173/85/16 169/81/94
f 165/77/90 174/86/97 169/81/94
f 174/86/97 175/87/17 173/85/16
f 174/86/97 165/77/90 176/88/98
f 162/74/87 176/88/98 165/77/90
f 174/86/97 177/89/99 175/87/17
f 176/88/98 162/74/87 178/90/100
f 162/74/87 164/76/89 178/90/100
f 179/91/101 174/86/97 176/88/98
f 178/90/100 179/91/101 176/88/98
f 174/86/97 179/91/101 177/89/99
f 177/89/99 180/92/42 175/87/17
f 164/76/89 181/93/102 178/90/100
f 178/90/100 181/93/102 179/91/101
f 164/76/89 166/78/91 181/93/102
f 182/94/103 179/91/101 181/93/102
f 166/78/91 182/94/103 181/93/102
f 183/95/104 177/89/99 179/91/101
f 179/91/101 182/94/103 183/95/104
f 184/96/105 180/92/42 177/89/99
f 177/89/99 183/95/104 184/96/105
f 185/97/106 180/92/42 184/96/105
f 180/92/42 185/97/106 186/98/21
f 184/96/105 187/99/107 185/97/106
f 187/99/107 184/96/105 183/95/104
f 183/95/104 188/100/108 187/99/107
f 188/100/108 183/95/104 182/94/103
f 182/94/103 189/101/109 188/100/108
f 189/101/109 182/94/103 190/102/110
f 190/102/110 182/94/103 166/78/91
f 190/102/110 191/103/111 189/101/109
f 168/80/93 190/102/110 166/78/91
f 191/103/111 190/102/110 192/104/112
f 192/104/112 190/102/110 168/80/93
f 193/102/113 194/103/111 195/104/114
f 194/103/111 193/102/113 196/101/115
f 197/80/116 193/102/113 195/104/114
f 198/94/117 196/101/115 193/102/113
f 196/101/115 198/94/117 199/100/118
f 193/102/113 197/80/116 200/78/119
f 200/78/119 198/94/117 193/102/113
f 201/76/120 200/78/119 197/80/116
f 201/76/120 197/80/116 202/69/121
f 203/95/122 199/100/118 198/94/117
f 199/100/118 203/95/122 204/99/107
f 205/96/123 204/99/107 203/95/122
f 204/99/107 205/96/123 206/97/106
f 207/91/124 203/95/122 198/94/117
f 207/91/124 205/96/123 203/95/122
f 208/92/25 206/97/106 205/96/123
f 206/97/106 208/92/25 209/98/23
f 210/87/26 208/92/25 205/96/123
f 210/87/26 205/96/123 211/89/125
f 205/96/123 207/91/124 211/89/125
f 212/85/28 210/87/26 211/89/125
f 198/94/117 213/93/126 207/91/124
f 198/94/117 200/78/119 213/93/126
f 214/88/127 211/89/125 207/91/124
f 213/93/126 214/88/127 207/91/124
f 212/85/28 211/89/125 215/86/128
f 211/89/125 214/88/127 215/86/128
f 216/83/30 212/85/28 215/86/128
f 217/90/129 213/93/126 200/78/119
f 213/93/126 217/90/129 214/88/127
f 217/90/129 200/78/119 201/76/120
f 218/74/130 214/88/127 217/90/129
f 218/74/130 217/90/129 201/76/120
f 219/77/131 215/86/128 214/88/127
f 214/88/127 218/74/130 219/77/131
f 216/83/30 215/86/128 220/81/132
f 215/86/128 219/77/131 220/81/132
f 221/82/95 216/83/30 220/81/132
f 221/82/95 220/81/132 219/77/131
f 216/83/30 221/82/95 222/84/33
f 219/77/131 223/79/133 221/82/95
f 219/77/131 224/75/134 223/79/133
f 224/75/134 219/77/131 218/74/130
f 218/74/130 225/73/135 224/75/134
f 225/73/135 218/74/130 226/70/136
f 201/76/120 226/70/136 218/74/130
f 226/70/136 227/72/85 225/73/135
f 226/70/136 201/76/120 202/69/121
f 227/72/85 226/70/136 228/71/137
f 226/70/136 202/69/121 228/71/137
f 229/64/53 230/83/53 231/85/53
f 232/87/53 229/64/53 231/85/53
f 230/83/53 229/64/53 233/66/53
f 229/64/53 232/87/53 234/62/53
f 235/84/53 230/83/53 233/66/53
f 232/87/53 236/57/53 234/62/53
f 235/84/53 233/66/53 237/68/53
f 232/87/53 238/92/53 236/57/53
f 239/66/53 235/84/53 237/68/53
f 238/92/53 240/59/53 236/57/53
f 235/84/53 239/66/53 241/83/53
f 240/59/53 238/92/53 242/98/53
f 243/64/53 241/83/53 239/66/53
f 242/98/53 244/57/53 240/59/53
f 241/83/53 243/64/53 245/85/53
f 244/57/53 242/98/53 246/92/53
f 247/87/53 245/85/53 243/64/53
f 248/62/53 244/57/53 246/92/53
f 246/92/53 247/87/53 248/62/53
f 247/87/53 243/64/53 248/62/53
f 249/16/53 250/14/53 251/69/53
f 252/15/53 251/69/53 250/14/53
f 249/16/53 251/69/53 253/71/53
f 251/69/53 252/15/53 254/80/53
f 255/17/53 249/16/53 253/71/53
f 252/15/53 256/104/53 254/80/53
f 255/17/53 253/71/53 257/72/53
f 252/15/53 258/18/53 256/104/53
f 257/72/53 259/16/53 255/17/53
f 258/18/53 260/103/53 256/104/53
f 259/16/53 257/72/53 261/71/53
f 258/18/53 262/19/53 260/103/53
f 263/69/53 259/16/53 261/71/53
f 264/104/53 260/103/53 262/19/53
f 259/16/53 263/69/53 265/14/53
f 264/104/53 262/19/53 266/18/53
f 267/15/53 265/14/53 263/69/53
f 267/15/53 264/104/53 266/18/53
f 267/15/53 263/69/53 268/80/53
f 264/104/53 267/15/53 268/80/53
