# Blender 5.1.2
# www.blender.org
mtllib Piston.mtl
o Piston
v 0.240007 -0.145416 0.299980
v 0.300007 -0.145416 0.239979
v 0.300007 -0.018985 0.239979
v 0.240007 -0.018985 0.299980
v 0.300007 -0.018986 -0.240021
v 0.240007 -0.145416 -0.300020
v 0.240007 -0.018986 -0.300020
v 0.300007 -0.145416 -0.240021
v 0.300007 0.009074 -0.000021
v 0.300007 -0.145416 -0.240021
v 0.300007 0.024265 -0.062420
v 0.300007 -0.018986 -0.240021
v 0.300007 -0.145416 0.239979
v 0.300007 0.024265 0.062380
v 0.300007 -0.018985 0.239979
v 0.300007 0.024265 0.062380
v 0.062407 0.024265 0.299980
v 0.240007 -0.018985 0.299980
v 0.300007 -0.018985 0.239979
v 0.300007 -0.018986 -0.240021
v 0.062407 0.024265 -0.300020
v 0.300007 0.024265 -0.062420
v 0.240007 -0.018986 -0.300020
v -0.299994 0.024265 -0.062420
v -0.062293 0.024265 -0.300020
v -0.239993 -0.018986 -0.300020
v -0.299994 -0.018986 -0.240021
v -0.062293 0.024265 0.299980
v -0.299994 0.024265 0.062380
v -0.299994 -0.018985 0.239979
v -0.239993 -0.018985 0.299980
v -0.062293 0.024265 -0.300020
v 0.000007 -0.063976 -0.000021
v 0.000007 0.009074 -0.300020
v -0.299994 0.024265 -0.062420
v -0.299994 0.009074 -0.000021
v -0.062293 0.024265 0.299980
v 0.000007 -0.063976 -0.000021
v -0.299994 0.024265 0.062380
v 0.000007 0.009074 0.299980
v -0.299994 0.009074 -0.000021
v 0.000007 -0.063976 -0.000021
v 0.062407 0.024265 -0.300020
v 0.000007 0.009074 -0.300020
v 0.300007 0.024265 -0.062420
v 0.300007 0.009074 -0.000021
v 0.000007 -0.063976 -0.000021
v 0.300007 0.024265 0.062380
v 0.300007 0.009074 -0.000021
v 0.062407 0.024265 0.299980
v 0.000007 0.009074 0.299980
v 0.000007 0.009074 0.299980
v 0.240007 -0.145416 0.299980
v 0.062407 0.024265 0.299980
v 0.240007 -0.018985 0.299980
v -0.239993 -0.145416 0.299980
v -0.062293 0.024265 0.299980
v -0.239993 -0.018985 0.299980
v -0.299994 -0.145416 0.239979
v -0.239993 -0.145416 0.299980
v -0.239993 -0.018985 0.299980
v -0.299994 -0.018985 0.239979
v -0.239993 -0.018986 -0.300020
v -0.239993 -0.145416 -0.300020
v -0.299994 -0.018986 -0.240021
v -0.299994 -0.145416 -0.240021
v -0.299994 -0.145416 -0.240021
v -0.299994 0.024265 -0.062420
v -0.299994 -0.018986 -0.240021
v -0.299994 0.009074 -0.000021
v -0.299994 -0.145416 0.239979
v -0.299994 0.024265 0.062380
v -0.299994 -0.018985 0.239979
v -0.239993 -0.145416 -0.300020
v 0.240007 -0.145416 -0.300020
v 0.300007 -0.145416 0.239979
v 0.300007 -0.145416 -0.240021
v 0.240007 -0.145416 0.299980
v -0.239993 -0.145416 0.299980
v -0.299994 -0.145416 0.239979
v -0.299994 -0.145416 -0.240021
v -0.062293 0.024265 -0.300020
v -0.239993 -0.145416 -0.300020
v -0.239993 -0.018986 -0.300020
v 0.000007 0.009074 -0.300020
v 0.240007 -0.145416 -0.300020
v 0.062407 0.024265 -0.300020
v 0.240007 -0.018986 -0.300020
v 0.240007 0.134584 -0.300020
v 0.300007 0.134584 -0.240021
v 0.300007 -0.012146 -0.240021
v 0.240007 -0.012146 -0.300020
v 0.300007 -0.012146 0.239979
v 0.240007 0.134584 0.299980
v 0.240007 -0.012145 0.299980
v 0.300007 0.134584 0.239979
v 0.300007 0.134584 -0.240021
v 0.300007 0.026134 -0.062420
v 0.300007 -0.012146 -0.240021
v 0.300007 0.134584 0.239979
v 0.300007 0.026134 0.062380
v 0.300007 0.012685 -0.000021
v 0.300007 -0.012146 0.239979
v 0.240007 0.134584 -0.300020
v -0.239993 0.134584 -0.300020
v -0.239993 0.134584 0.299980
v -0.299994 0.134584 -0.240021
v -0.299994 0.134584 0.239979
v 0.300007 0.134584 -0.240021
v 0.240007 0.134584 0.299980
v 0.300007 0.134584 0.239979
v 0.062407 0.026135 0.299980
v -0.062293 0.026135 0.299980
v 0.000007 0.012685 0.299980
v -0.239993 0.134584 0.299980
v -0.239993 -0.012145 0.299980
v 0.240007 0.134584 0.299980
v 0.240007 -0.012145 0.299980
v -0.299994 0.134584 -0.240021
v -0.239993 0.134584 -0.300020
v -0.239993 -0.012146 -0.300020
v -0.299994 -0.012146 -0.240021
v -0.239993 -0.012145 0.299980
v -0.239993 0.134584 0.299980
v -0.299994 -0.012146 0.239979
v -0.299994 0.134584 0.239979
v -0.299994 0.026134 0.062380
v -0.299994 0.026134 -0.062420
v -0.299994 0.012685 -0.000021
v -0.299994 0.134584 -0.240021
v -0.299994 -0.012146 -0.240021
v -0.299994 0.134584 0.239979
v -0.299994 -0.012146 0.239979
v 0.062407 0.026135 0.299980
v 0.000007 -0.051965 -0.000021
v 0.300007 0.026134 0.062380
v 0.000007 0.012685 0.299980
v 0.300007 0.012685 -0.000021
v 0.000007 -0.051965 -0.000021
v 0.300007 0.026134 -0.062420
v 0.300007 0.012685 -0.000021
v 0.062407 0.026134 -0.300020
v 0.000007 0.012685 -0.300020
v 0.000007 0.012685 -0.300020
v 0.000007 -0.051965 -0.000021
v -0.062293 0.026134 -0.300020
v -0.299994 0.026134 -0.062420
v -0.299994 0.012685 -0.000021
v 0.000007 -0.051965 -0.000021
v -0.299994 0.026134 0.062380
v -0.299994 0.012685 -0.000021
v -0.062293 0.026135 0.299980
v 0.000007 0.012685 0.299980
v -0.299994 0.026134 0.062380
v -0.062293 0.026135 0.299980
v -0.239993 -0.012145 0.299980
v -0.299994 -0.012146 0.239979
v -0.299994 -0.012146 -0.240021
v -0.062293 0.026134 -0.300020
v -0.299994 0.026134 -0.062420
v -0.239993 -0.012146 -0.300020
v 0.062407 0.026135 0.299980
v 0.300007 0.026134 0.062380
v 0.300007 -0.012146 0.239979
v 0.240007 -0.012145 0.299980
v 0.300007 0.026134 -0.062420
v 0.062407 0.026134 -0.300020
v 0.240007 -0.012146 -0.300020
v 0.300007 -0.012146 -0.240021
v -0.062293 0.026134 -0.300020
v 0.062407 0.026134 -0.300020
v 0.000007 0.012685 -0.300020
v -0.239993 0.134584 -0.300020
v -0.239993 -0.012146 -0.300020
v 0.240007 0.134584 -0.300020
v 0.240007 -0.012146 -0.300020
vn 0.7071 -0.0000 0.7071
vn 0.7071 -0.0000 -0.7071
vn 1.0000 -0.0000 -0.0000
vn 0.2287 0.9463 0.2287
vn 0.2287 0.9462 0.2287
vn 0.2287 0.9463 -0.2287
vn 0.2286 0.9463 -0.2286
vn 0.2287 0.9462 -0.2287
vn -0.2287 0.9463 -0.2287
vn -0.2287 0.9462 -0.2287
vn -0.2287 0.9463 0.2287
vn -0.0000 -0.0000 1.0000
vn -0.7071 -0.0000 0.7071
vn -0.7071 -0.0000 -0.7071
vn -1.0000 -0.0000 -0.0000
vn -0.0000 -1.0000 -0.0000
vn -0.0000 -0.0000 -1.0000
vn 1.0000 0.0001 -0.0000
vn -0.0000 1.0000 -0.0000
vn -1.0000 -0.0001 -0.0000
vn 0.2056 -0.9568 0.2056
vn 0.2055 -0.9568 -0.2055
vn 0.2056 -0.9568 -0.2056
vn -0.2056 -0.9568 -0.2056
vn -0.2055 -0.9568 -0.2055
vn -0.2056 -0.9568 0.2056
vn -0.2055 -0.9568 0.2055
vn -0.2055 -0.9568 0.2056
vn 0.2055 -0.9568 0.2055
vn -0.2057 -0.9568 -0.2057
vt 0.203235 0.932187
vt 0.215235 0.932187
vt 0.215235 0.957472
vt 0.203235 0.957472
vt 0.311235 0.957472
vt 0.323235 0.932187
vt 0.323235 0.957472
vt 0.311235 0.932187
vt 0.263235 0.963085
vt 0.275711 0.966123
vt 0.250758 0.966123
vt 0.203235 0.961631
vt 0.250758 1.009150
vt 0.215235 1.009150
vt 0.203235 0.997155
vt 0.203235 0.901155
vt 0.250758 0.889155
vt 0.203235 0.936678
vt 0.215235 0.889155
vt 0.323235 0.936678
vt 0.275711 0.889155
vt 0.311235 0.889155
vt 0.323235 0.901155
vt 0.275711 1.009150
vt 0.323235 0.961631
vt 0.323235 0.997155
vt 0.311235 1.009150
vt 0.263235 0.949155
vt 0.263235 0.889155
vt 0.323235 0.949155
vt 0.263235 1.009150
vt 0.203235 0.949155
vt -0.536947 0.565717
vt -0.548947 0.565717
vt -0.548947 0.536370
vt -0.536947 0.536370
vt -0.644947 0.536370
vt -0.656947 0.565717
vt -0.656947 0.536370
vt -0.644947 0.565717
vt -0.584470 0.544026
vt -0.609423 0.544026
vt -0.596947 0.541337
vt -0.644947 0.487061
vt -0.548947 0.487061
vt -0.548947 0.607061
vt -0.536947 0.499061
vt -0.536947 0.595061
vt -0.656947 0.499061
vt -0.644947 0.607061
vt -0.656947 0.595061
vt -0.584470 0.607061
vt -0.596947 0.547061
vt -0.536947 0.559538
vt -0.596947 0.607061
vt -0.536947 0.547061
vt -0.536947 0.534585
vt -0.584470 0.487061
vt -0.596947 0.487061
vt -0.609423 0.487061
vt -0.656947 0.534585
vt -0.656947 0.547061
vt -0.656947 0.559538
vt -0.609423 0.607061
s 1
usemtl Handle1Mtl.034
f 1/1/1 2/2/1 3/3/1
f 1/1/1 3/3/1 4/4/1
f 5/5/2 6/6/2 7/7/2
f 6/6/2 5/5/2 8/8/2
f 9/9/3 10/8/3 11/10/3
f 11/10/3 10/8/3 12/5/3
f 13/2/3 10/8/3 9/9/3
f 13/2/3 9/9/3 14/11/3
f 14/11/3 15/3/3 13/2/3
f 16/12/4 17/13/5 18/14/4
f 16/12/4 18/14/4 19/15/4
f 20/16/6 21/17/7 22/18/8
f 21/17/7 20/16/6 23/19/6
f 24/20/9 25/21/10 26/22/9
f 24/20/9 26/22/9 27/23/9
f 28/24/11 29/25/11 30/26/11
f 28/24/11 30/26/11 31/27/11
f 32/21/4 33/28/4 34/29/4
f 35/20/4 33/28/4 32/21/4
f 33/28/4 35/20/4 36/30/4
f 37/24/6 38/28/6 39/25/6
f 38/28/6 37/24/6 40/31/6
f 38/28/6 41/30/6 39/25/6
f 42/28/11 43/17/11 44/29/11
f 43/17/11 42/28/11 45/18/11
f 45/18/11 42/28/11 46/32/11
f 47/28/9 48/12/9 49/32/9
f 48/12/9 47/28/9 50/13/9
f 50/13/9 47/28/9 51/31/9
f 52/9/12 53/8/12 54/10/12
f 54/10/12 53/8/12 55/5/12
f 56/2/12 53/8/12 52/9/12
f 56/2/12 52/9/12 57/11/12
f 56/2/12 57/11/12 58/3/12
f 59/8/13 60/6/13 61/7/13
f 59/8/13 61/7/13 62/5/13
f 63/4/14 64/1/14 65/3/14
f 65/3/14 64/1/14 66/2/14
f 67/2/15 68/11/15 69/3/15
f 68/11/15 67/2/15 70/9/15
f 67/2/15 71/8/15 70/9/15
f 71/8/15 72/10/15 70/9/15
f 72/10/15 71/8/15 73/5/15
f 74/19/16 75/22/16 76/26/16
f 76/26/16 75/22/16 77/23/16
f 78/27/16 74/19/16 76/26/16
f 74/19/16 78/27/16 79/14/16
f 74/19/16 79/14/16 80/15/16
f 74/19/16 80/15/16 81/16/16
f 82/10/17 83/8/17 84/5/17
f 83/8/17 82/10/17 85/9/17
f 85/9/17 86/2/17 83/8/17
f 87/11/17 86/2/17 85/9/17
f 86/2/17 87/11/17 88/3/17
usemtl Push1Mtl
f 89/33/2 90/34/2 91/35/2
f 89/33/2 91/35/2 92/36/2
f 93/37/1 94/38/1 95/39/1
f 94/38/1 93/37/1 96/40/1
f 97/34/3 98/41/3 99/35/3
f 97/34/3 100/40/3 98/41/3
f 98/41/3 100/40/3 101/42/3
f 98/41/3 101/42/3 102/43/18
f 100/40/3 103/37/3 101/42/3
f 104/44/19 105/45/19 106/46/19
f 106/46/19 105/45/19 107/47/19
f 106/46/19 107/47/19 108/48/19
f 106/46/19 109/49/19 104/44/19
f 109/49/19 106/46/19 110/50/19
f 109/49/19 110/50/19 111/51/19
f 112/41/12 113/42/12 114/43/12
f 113/42/12 112/41/12 115/40/12
f 115/40/12 116/37/12 113/42/12
f 117/34/12 115/40/12 112/41/12
f 112/41/12 118/35/12 117/34/12
f 119/40/14 120/38/14 121/39/14
f 119/40/14 121/39/14 122/37/14
f 123/36/13 124/33/13 125/35/13
f 125/35/13 124/33/13 126/34/13
f 127/41/15 128/42/15 129/43/20
f 127/41/15 130/40/15 128/42/15
f 130/40/15 131/37/15 128/42/15
f 132/34/15 130/40/15 127/41/15
f 127/41/15 133/35/15 132/34/15
f 134/52/21 135/53/21 136/54/21
f 135/53/21 134/52/21 137/55/21
f 135/53/21 138/56/21 136/54/21
f 139/53/22 140/57/23 141/56/23
f 140/57/23 139/53/22 142/58/23
f 139/53/22 143/59/23 142/58/23
f 144/59/24 145/53/24 146/60/24
f 145/53/24 147/61/25 146/60/24
f 147/61/25 145/53/24 148/62/25
f 149/53/26 150/63/26 151/62/27
f 150/63/26 149/53/26 152/64/28
f 152/64/28 149/53/26 153/55/26
f 154/63/22 155/64/22 156/50/23
f 154/63/22 156/50/23 157/51/23
f 158/49/21 159/60/29 160/61/21
f 159/60/29 158/49/21 161/44/21
f 162/52/30 163/54/24 164/48/30
f 162/52/30 164/48/30 165/46/24
f 166/57/26 167/58/26 168/45/26
f 166/57/26 168/45/26 169/47/26
f 170/41/17 171/42/17 172/43/17
f 173/34/17 171/42/17 170/41/17
f 173/34/17 170/41/17 174/35/17
f 171/42/17 173/34/17 175/40/17
f 175/40/17 176/37/17 171/42/17
