# Blender 5.1.2
# www.blender.org
mtllib Roof.mtl
o Roof
v 2.137484 1.580046 2.606582
v 2.774084 -1.271784 3.048382
v 2.774084 -1.271784 2.920383
v 2.137484 1.580046 2.477382
v -2.137417 1.580046 2.606582
v 2.137484 1.580046 2.606582
v -2.137417 1.580046 2.477382
v 2.137484 1.580046 2.477382
v -2.774015 -1.271784 3.048382
v 2.774084 -1.271784 3.048382
v 2.137484 1.580046 2.606582
v -2.137417 1.580046 2.606582
v -2.774015 -1.271784 3.048382
v -2.137417 1.580046 2.606582
v -2.774015 -1.271784 2.920383
v -2.137417 1.580046 2.477382
v 2.774084 -1.271784 2.920383
v -2.774015 -1.271784 3.048382
v -2.774015 -1.271784 2.920383
v 2.774084 -1.271784 3.048382
v 2.774084 -1.271784 2.920383
v -2.774015 -1.271784 2.920383
v 2.137484 1.580046 2.477382
v -2.137417 1.580046 2.477382
v 2.137484 1.580046 -2.294716
v 2.774084 -1.271785 -3.042618
v 2.774084 -1.271785 -3.138718
v 2.137484 1.580046 -2.135617
v -2.137417 1.580046 -2.294716
v -0.000015 1.580046 -2.135617
v -0.000015 1.580046 -2.294716
v -2.137417 1.580046 -2.135617
v 2.137484 1.580046 -2.294716
v 2.137484 1.580046 -2.135617
v -0.000015 -1.271785 -3.042618
v -2.137417 1.580046 -2.135617
v -2.774015 -1.271785 -3.042618
v -0.000015 1.580046 -2.135617
v 2.137484 1.580046 -2.135617
v 2.774084 -1.271785 -3.042618
v -2.774015 -1.271785 -3.042618
v -2.137417 1.580046 -2.294716
v -2.774015 -1.271785 -3.138718
v -2.137417 1.580046 -2.135617
v -2.774015 -1.271785 -3.138718
v -0.000015 -1.271785 -3.138718
v -0.000015 -1.271785 -3.042618
v -2.774015 -1.271785 -3.042618
v 2.774084 -1.271785 -3.138718
v 2.774084 -1.271785 -3.042618
v -2.137417 1.580046 -2.294716
v -0.000015 1.580046 -2.294716
v -0.000015 -1.271785 -3.138718
v -2.774015 -1.271785 -3.138718
v 2.137484 1.580046 -2.294716
v 2.774084 -1.271785 -3.138718
v 3.066284 -1.274754 0.020584
v 3.066284 -3.051253 0.120583
v 3.066284 -3.051253 0.020584
v 3.066284 -1.274754 0.120583
v 2.454485 1.708296 -2.117718
v 3.066284 -1.274745 -3.170818
v 2.427584 1.839506 -2.240216
v 3.066284 -1.274745 -3.024715
v 2.454485 1.708296 0.020584
v 2.454485 1.708296 0.120582
v 2.427584 1.839506 2.589283
v 3.066284 -1.274754 0.120583
v 3.066284 -1.274754 0.020584
v 2.454485 1.708296 2.455482
v 3.066284 -1.274744 3.076485
v 3.066284 -1.274744 2.898483
v -2.137417 1.577076 -2.117718
v -2.774015 -1.274745 -3.024715
v -2.137417 1.577076 -2.326817
v -2.774015 -1.274745 -3.170818
v -2.137417 1.577076 2.634682
v -2.774015 -1.274744 3.076485
v -2.774015 -1.274744 2.898483
v -2.137417 1.577076 2.455482
v -2.137417 1.577076 0.120582
v -2.774015 -1.274754 0.120583
v -2.137417 1.577076 0.020584
v -2.774115 -1.274754 0.020584
v -2.774115 -1.274754 0.020584
v -2.774015 -3.051253 0.120583
v -2.774115 -3.051253 0.020584
v -2.774015 -1.274754 0.120583
v -2.427515 1.839506 -2.240216
v -0.000015 1.839506 2.589283
v -0.000015 1.839506 -2.240216
v -2.427515 1.839506 2.589283
v 2.427584 1.839506 -2.240216
v 2.427584 1.839506 2.589283
v -0.000015 1.839506 2.589283
v -2.137417 1.577076 2.634682
v -0.000015 1.577076 2.634682
v -2.427515 1.839506 2.589283
v 2.137484 1.577076 2.634682
v 2.427584 1.839506 2.589283
v -2.137417 1.577076 2.634682
v -3.066217 -1.274744 3.076485
v -2.774015 -1.274744 3.076485
v -2.427515 1.839506 2.589283
v 2.137484 1.577076 2.634682
v 2.774084 -1.274744 3.076485
v 3.066284 -1.274744 3.076485
v 2.427584 1.839506 2.589283
v -2.774015 -1.274754 0.120583
v -3.066217 -3.051253 0.120583
v -2.774015 -3.051253 0.120583
v -3.066217 -1.274754 0.120583
v -2.454416 1.708296 0.120582
v -2.137417 1.577076 0.120582
v 2.773985 -1.274754 0.120583
v 2.773985 -3.051253 0.120583
v 3.066284 -3.051253 0.120583
v 3.066284 -1.274754 0.120583
v 2.454485 1.708296 0.120582
v 2.137484 1.577076 0.120582
v -2.454416 1.708296 -2.117718
v -3.066217 -1.274745 -3.024715
v -2.774015 -1.274745 -3.024715
v -2.137417 1.577076 -2.117718
v 3.066284 -1.274745 -3.024715
v 2.454485 1.708296 -2.117718
v 2.774084 -1.274745 -3.024715
v 2.137484 1.577076 -2.117718
v -3.066217 -1.274754 0.020584
v -3.066217 -3.051253 0.020584
v -3.066217 -3.051253 0.120583
v -3.066217 -1.274754 0.120583
v -3.066217 -1.274745 -3.024715
v -2.454416 1.708296 -2.117718
v -3.066217 -1.274745 -3.170818
v -2.427515 1.839506 -2.240216
v -2.454416 1.708296 0.020584
v -2.454416 1.708296 0.120582
v -2.427515 1.839506 2.589283
v -3.066217 -1.274754 0.120583
v -3.066217 -1.274754 0.020584
v -2.454416 1.708296 2.455482
v -3.066217 -1.274744 3.076485
v -3.066217 -1.274744 2.898483
v 2.774084 -1.274745 -3.024715
v 2.137484 1.577076 -2.117718
v 2.137484 1.577076 -2.326817
v 2.774084 -1.274745 -3.170818
v 2.774084 -1.274744 3.076485
v 2.137484 1.577076 2.634682
v 2.774084 -1.274744 2.898483
v 2.137484 1.577076 2.455482
v 2.137484 1.577076 0.020584
v 2.774084 -1.274754 0.020584
v 2.773985 -1.274754 0.120583
v 2.137484 1.577076 0.120582
v 2.774084 -1.274754 0.020584
v 2.774084 -3.051253 0.020584
v 2.773985 -3.051253 0.120583
v 2.773985 -1.274754 0.120583
v -2.774115 -3.051253 0.020584
v -3.066217 -3.051253 0.120583
v -3.066217 -3.051253 0.020584
v -2.774015 -3.051253 0.120583
v 2.774084 -3.051253 0.020584
v 3.066284 -3.051253 0.020584
v 3.066284 -3.051253 0.120583
v 2.773985 -3.051253 0.120583
v -2.774015 -1.274744 2.898483
v -3.066217 -1.274744 3.076485
v -3.066217 -1.274744 2.898483
v -2.774015 -1.274744 3.076485
v -3.066217 -1.274745 -3.170818
v -2.774015 -1.274745 -3.170818
v -2.774015 -1.274745 -3.024715
v -3.066217 -1.274745 -3.024715
v 2.774084 -1.274744 2.898483
v 3.066284 -1.274744 3.076485
v 2.774084 -1.274744 3.076485
v 3.066284 -1.274744 2.898483
v 3.066284 -1.274745 -3.170818
v 2.774084 -1.274745 -3.024715
v 2.774084 -1.274745 -3.170818
v 3.066284 -1.274745 -3.024715
v -2.137417 1.577076 -2.117718
v -2.137417 1.577076 0.020584
v -2.454416 1.708296 -2.117718
v -2.454416 1.708296 0.020584
v -2.137417 1.577076 0.120582
v -2.454416 1.708296 2.455482
v -2.454416 1.708296 0.120582
v -2.137417 1.577076 2.455482
v 2.454485 1.708296 -2.117718
v 2.137484 1.577076 0.020584
v 2.137484 1.577076 -2.117718
v 2.454485 1.708296 0.020584
v 2.137484 1.577076 0.120582
v 2.454485 1.708296 2.455482
v 2.137484 1.577076 2.455482
v 2.454485 1.708296 0.120582
v -2.137417 1.577076 -2.117718
v -0.000015 1.577076 -2.326817
v -2.137417 1.577076 0.020584
v -2.137417 1.577076 -2.326817
v -2.137417 1.577076 0.120582
v 2.137484 1.577076 -2.117718
v 2.137484 1.577076 -2.326817
v 2.137484 1.577076 0.020584
v 2.137484 1.577076 0.120582
v -0.000015 1.577076 2.634682
v -2.137417 1.577076 2.455482
v -2.137417 1.577076 2.634682
v 2.137484 1.577076 2.455482
v 2.137484 1.577076 2.634682
v -0.000015 1.839506 -2.240216
v -2.137417 1.577076 -2.326817
v -2.427515 1.839506 -2.240216
v -0.000015 1.577076 -2.326817
v -3.066217 -1.274745 -3.170818
v -2.774015 -1.274745 -3.170818
v 3.066284 -1.274745 -3.170818
v 2.137484 1.577076 -2.326817
v 2.427584 1.839506 -2.240216
v 2.774084 -1.274745 -3.170818
v -0.000015 1.839506 -2.240216
v -0.000015 1.577076 -2.326817
v -2.774115 -1.274754 0.020584
v -2.454416 1.708296 0.020584
v -2.137417 1.577076 0.020584
v -3.066217 -1.274754 0.020584
v -2.774115 -3.051253 0.020584
v -3.066217 -3.051253 0.020584
v 2.774084 -1.274754 0.020584
v 2.137484 1.577076 0.020584
v 2.454485 1.708296 0.020584
v 3.066284 -1.274754 0.020584
v 2.774084 -3.051253 0.020584
v 3.066284 -3.051253 0.020584
v -2.454416 1.708296 2.455482
v -2.774015 -1.274744 2.898483
v -3.066217 -1.274744 2.898483
v -2.137417 1.577076 2.455482
v 2.454485 1.708296 2.455482
v 2.774084 -1.274744 2.898483
v 2.137484 1.577076 2.455482
v 3.066284 -1.274744 2.898483
vn 0.9754 0.2202 -0.0000
vn 0.9754 0.2203 -0.0000
vn -0.0000 1.0000 -0.0000
vn -0.0000 0.1491 0.9888
vn -0.9754 0.2203 -0.0000
vn -0.9754 0.2202 -0.0000
vn -0.0000 -1.0000 -0.0000
vn -0.0000 -0.1503 -0.9886
vn -0.0000 -0.2996 0.9541
vn -0.0000 0.2830 -0.9591
vn -0.0000 0.2831 -0.9591
vn 1.0000 -0.0000 -0.0000
vn 0.9787 0.2052 -0.0000
vn 0.9754 -0.2203 -0.0000
vn 0.9754 -0.2202 -0.0000
vn 0.9755 -0.2202 -0.0000
vn 1.0000 -0.0000 -0.0001
vn -0.0000 0.1733 0.9849
vn -0.0079 0.1580 0.9874
vn 0.0079 0.1580 0.9874
vn -0.0000 -0.0000 1.0000
vn -0.0628 -0.2825 0.9572
vn -0.0627 -0.2825 0.9572
vn 0.0627 -0.2825 0.9572
vn 0.0628 -0.2825 0.9572
vn -1.0000 -0.0000 -0.0000
vn -0.9787 0.2052 -0.0000
vn -0.9754 -0.2202 -0.0000
vn -0.9754 -0.2203 -0.0000
vn -0.9755 -0.2202 -0.0000
vn -1.0000 -0.0000 -0.0001
vn -0.3863 -0.9224 -0.0000
vn 0.3863 -0.9224 -0.0000
vn -0.0079 0.2996 -0.9540
vn 0.0079 0.2996 -0.9540
vn -0.0000 -0.0000 -1.0000
vn -0.0314 -0.1414 -0.9895
vn 0.0314 -0.1414 -0.9895
vt -0.998313 -0.220311
vt -1.440100 -3.072140
vt -1.312120 -3.072140
vt -0.869066 -0.220311
vt 0.982867 -1.802490
vt -3.292030 -1.802490
vt 0.982867 -1.931740
vt -3.292030 -1.931740
vt -3.928640 -3.072140
vt 1.619470 -3.072140
vt 0.982867 -0.220311
vt -3.292030 -0.220311
vt -0.869066 -3.072140
vt -1.310850 -0.220311
vt -0.997043 -3.072140
vt -1.440100 -0.220311
vt 1.619480 -1.488680
vt -3.928640 -1.360710
vt -3.928640 -1.488680
vt 1.619470 -1.360710
vt 1.619480 -3.072140
vt 3.568630 2.176870
vt 4.316480 -0.674952
vt 4.412540 -0.674952
vt 3.409480 2.176870
vt 6.048460 1.093340
vt 3.911010 1.252490
vt 3.911010 1.093340
vt 6.048460 1.252490
vt 1.773560 1.093340
vt 1.773560 1.252490
vt 3.911010 -0.674952
vt 1.773560 2.176870
vt 1.136950 -0.674952
vt 3.911010 2.176870
vt 6.048460 2.176870
vt 6.685070 -0.674952
vt 3.505540 -0.674952
vt 4.253390 2.176870
vt 3.409480 -0.674952
vt 4.412540 2.176870
vt 1.136960 0.249430
vt 3.911010 0.249430
vt 3.911010 0.345493
vt 1.136950 0.345493
vt 6.685070 0.249430
vt 6.685070 0.345493
vt 1.136960 -0.674952
vt -2.787710 -4.754300
vt -2.807710 -5.109600
vt -2.787710 -5.109600
vt -2.807710 -4.754300
vt -2.360050 -4.157690
vt -2.149430 -4.754300
vt -2.335550 -4.131450
vt -2.178640 -4.754300
vt -2.787710 -4.157690
vt -2.807710 -4.157690
vt -3.301450 -4.131450
vt -3.274680 -4.157690
vt -3.398890 -4.754300
vt -3.363290 -4.754300
vt -2.360040 -4.183940
vt -2.318210 -4.183940
vt -3.310530 -4.183940
vt -3.274680 -4.183940
vt -2.807710 -4.183940
vt -2.787710 -4.183940
vt -2.288650 -5.059130
vt -2.774160 -4.093230
vt -2.774160 -5.059130
vt -2.288650 -4.093230
vt -3.259670 -5.059130
vt -3.259670 -4.093230
vt -2.774160 -4.131450
vt -3.201650 -4.183940
vt -2.774160 -4.183940
vt -3.259670 -4.131450
vt -2.346670 -4.183940
vt -2.288650 -4.131450
vt -3.387400 -4.754300
vt -3.328970 -4.754300
vt -2.219350 -4.754300
vt -2.160910 -4.754300
vt -3.328960 -4.754300
vt -3.387400 -5.109600
vt -3.328960 -5.109600
vt -3.265050 -4.157690
vt -2.219360 -4.754300
vt -2.219360 -5.109600
vt -2.160910 -5.109600
vt -2.283270 -4.157690
vt -2.760600 -4.754300
vt -2.760600 -5.109600
vt -2.740600 -5.109600
vt -2.740600 -4.754300
vt -3.369670 -4.754300
vt -3.188270 -4.157690
vt -3.212770 -4.131450
vt -2.760600 -4.157690
vt -2.740600 -4.157690
vt -2.246870 -4.131450
vt -2.273640 -4.157690
vt -2.185030 -4.754300
vt -3.188270 -4.183940
vt -3.230100 -4.183940
vt -2.237790 -4.183940
vt -2.273640 -4.183940
vt -2.760600 -4.183940
vt -2.740600 -4.183940
vt -3.328980 -4.606970
vt -3.387400 -4.586970
vt -3.387400 -4.606970
vt -3.328960 -4.586970
vt -2.219340 -4.606970
vt -2.160910 -4.606970
vt -2.160910 -4.586970
vt -2.219360 -4.586970
vt -3.328970 -4.031390
vt -3.387400 -3.995800
vt -3.387400 -4.031390
vt -3.328970 -3.995800
vt -3.387400 -5.245250
vt -3.328970 -5.245250
vt -3.328970 -5.216040
vt -3.387400 -5.216040
vt -2.219350 -4.031390
vt -2.160910 -3.995800
vt -2.219350 -3.995800
vt -2.160910 -4.031390
vt -2.160910 -5.245250
vt -2.219350 -5.216040
vt -2.219350 -5.245250
vt -2.160910 -5.216040
vt -3.201650 -5.034640
vt -3.201650 -4.606970
vt -3.265050 -5.034640
vt -3.265050 -4.606970
vt -3.201650 -4.586970
vt -3.265050 -4.120010
vt -3.265050 -4.586970
vt -3.201650 -4.120010
vt -2.283270 -5.034640
vt -2.346670 -4.606970
vt -2.346670 -5.034640
vt -2.283270 -4.606970
vt -2.346670 -4.586970
vt -2.283270 -4.120010
vt -2.346670 -4.120010
vt -2.283270 -4.586970
vt -2.774160 -5.076470
vt -3.201650 -5.076470
vt -2.346670 -5.076470
vt -2.774160 -4.084160
vt -3.201650 -4.084160
vt -2.346670 -4.084160
vt -2.219340 -4.754300
vt -2.219340 -5.109600
vt -3.328980 -4.754300
vt -3.328980 -5.109600
s 1
usemtl Glass1Mtl.004
f 1/1/1 2/2/2 3/3/2
f 3/3/2 4/4/1 1/1/1
f 5/5/3 6/6/3 7/7/3
f 8/8/3 7/7/3 6/6/3
f 9/9/4 10/10/4 11/11/4
f 9/9/4 11/11/4 12/12/4
f 13/13/5 14/14/6 15/15/5
f 16/16/6 15/15/5 14/14/6
f 17/17/7 18/18/7 19/19/7
f 18/18/7 17/17/7 20/20/7
f 21/9/8 22/21/8 23/12/8
f 23/12/8 22/21/8 24/11/8
f 25/22/1 26/23/1 27/24/1
f 26/23/1 25/22/1 28/25/1
f 29/26/3 30/27/3 31/28/3
f 30/27/3 29/26/3 32/29/3
f 33/30/3 31/28/3 30/27/3
f 33/30/3 30/27/3 34/31/3
f 35/32/9 36/33/9 37/34/9
f 36/33/9 35/32/9 38/35/9
f 35/32/9 39/36/9 38/35/9
f 35/32/9 40/37/9 39/36/9
f 41/38/5 42/39/6 43/40/5
f 42/39/6 41/38/5 44/41/6
f 45/42/7 46/43/7 47/44/7
f 45/42/7 47/44/7 48/45/7
f 49/46/7 47/44/7 46/43/7
f 47/44/7 49/46/7 50/47/7
f 51/36/10 52/35/10 53/32/11
f 53/32/11 54/37/11 51/36/10
f 55/33/10 53/32/11 52/35/10
f 53/32/11 55/33/10 56/48/11
usemtl Roof1Mtl
f 57/49/12 58/50/12 59/51/12
f 58/50/12 57/49/12 60/52/12
f 61/53/13 62/54/13 63/55/13
f 62/54/13 61/53/13 64/56/13
f 61/53/13 63/55/13 65/57/13
f 63/55/13 66/58/13 65/57/13
f 66/58/13 63/55/13 67/59/13
f 66/58/13 68/52/13 65/57/13
f 69/49/13 65/57/13 68/52/13
f 66/58/13 67/59/13 70/60/13
f 71/61/13 70/60/13 67/59/13
f 70/60/13 71/61/13 72/62/13
f 73/63/14 74/56/14 75/64/14
f 76/54/14 75/64/14 74/56/14
f 77/65/15 78/61/16 79/62/15
f 79/62/15 80/66/15 77/65/15
f 81/67/14 82/52/14 83/68/14
f 84/49/15 83/68/14 82/52/14
f 85/49/12 86/50/12 87/51/12
f 86/50/12 85/49/12 88/52/17
f 89/69/3 90/70/3 91/71/3
f 90/70/3 89/69/3 92/72/3
f 90/70/3 93/73/3 91/71/3
f 93/73/3 90/70/3 94/74/3
f 95/75/18 96/76/18 97/77/18
f 96/76/18 95/75/18 98/78/18
f 99/79/18 95/75/18 97/77/18
f 95/75/18 99/79/18 100/80/18
f 101/76/19 102/81/19 103/82/19
f 104/78/19 102/81/19 101/76/19
f 105/79/20 106/83/20 107/84/20
f 107/84/20 108/80/20 105/79/20
f 109/85/21 110/86/21 111/87/21
f 110/86/21 109/85/21 112/81/21
f 109/85/21 113/88/21 112/81/21
f 113/88/21 109/85/21 114/76/21
f 115/89/21 116/90/21 117/91/21
f 117/91/21 118/84/21 115/89/21
f 118/84/21 119/92/21 115/89/21
f 120/79/21 115/89/21 119/92/21
f 121/88/22 122/81/23 123/82/23
f 121/88/22 123/82/23 124/76/22
f 125/84/24 126/92/25 127/83/24
f 127/83/24 126/92/25 128/79/25
f 129/93/26 130/94/26 131/95/26
f 129/93/26 131/95/26 132/96/26
f 133/97/27 134/98/27 135/61/27
f 136/99/27 135/61/27 134/98/27
f 137/100/27 136/99/27 134/98/27
f 138/101/27 136/99/27 137/100/27
f 136/99/27 138/101/27 139/102/27
f 137/100/27 140/96/27 138/101/27
f 137/100/27 141/93/27 140/96/27
f 139/102/27 138/101/27 142/103/27
f 143/54/27 139/102/27 142/103/27
f 142/103/27 144/104/27 143/54/27
f 145/97/28 146/105/28 147/106/28
f 147/106/28 148/61/28 145/97/28
f 149/54/29 150/107/29 151/104/29
f 152/108/29 151/104/29 150/107/29
f 153/109/28 154/93/30 155/96/28
f 153/109/28 155/96/28 156/110/29
f 157/93/26 158/94/26 159/95/26
f 157/93/26 159/95/26 160/96/31
f 161/111/7 162/112/7 163/113/7
f 162/112/7 161/111/7 164/114/7
f 165/115/7 166/116/7 167/117/7
f 165/115/7 167/117/7 168/118/7
f 169/119/7 170/120/7 171/121/7
f 170/120/7 169/119/7 172/122/7
f 173/123/7 174/124/7 175/125/7
f 173/123/7 175/125/7 176/126/7
f 177/127/7 178/128/7 179/129/7
f 178/128/7 177/127/7 180/130/7
f 181/131/7 182/132/7 183/133/7
f 182/132/7 181/131/7 184/134/7
f 185/135/32 186/136/32 187/137/32
f 187/137/32 186/136/32 188/138/32
f 189/139/32 190/140/32 191/141/32
f 190/140/32 189/139/32 192/142/32
f 193/143/33 194/144/33 195/145/33
f 194/144/33 193/143/33 196/146/33
f 197/147/33 198/148/33 199/149/33
f 198/148/33 197/147/33 200/150/33
f 201/135/7 202/151/7 203/136/7
f 204/152/7 202/151/7 201/135/7
f 202/151/7 205/139/7 203/136/7
f 206/145/7 202/151/7 207/153/7
f 202/151/7 206/145/7 208/144/7
f 202/151/7 208/144/7 209/147/7
f 205/139/7 202/151/7 210/154/7
f 209/147/7 210/154/7 202/151/7
f 205/139/7 210/154/7 211/142/7
f 211/142/7 210/154/7 212/155/7
f 210/154/7 209/147/7 213/149/7
f 214/156/7 210/154/7 213/149/7
f 215/75/34 216/79/34 217/80/34
f 216/79/34 215/75/34 218/77/34
f 219/84/34 217/80/34 216/79/34
f 216/79/34 220/83/34 219/84/34
f 221/81/35 222/76/35 223/78/35
f 222/76/35 221/81/35 224/82/35
f 225/75/35 223/78/35 222/76/35
f 222/76/35 226/77/35 225/75/35
f 227/157/36 228/92/36 229/79/36
f 228/92/36 227/157/36 230/84/36
f 227/157/36 231/158/36 230/84/36
f 230/84/36 231/158/36 232/91/36
f 233/159/36 234/76/36 235/88/36
f 235/88/36 236/81/36 233/159/36
f 237/160/36 233/159/36 236/81/36
f 236/81/36 238/86/36 237/160/36
f 239/92/37 240/83/37 241/84/37
f 240/83/37 239/92/37 242/79/37
f 243/88/38 244/82/38 245/76/38
f 244/82/38 243/88/38 246/81/38
