# Blender 5.1.2
# www.blender.org
mtllib Thruster.mtl
o Thruster
v 0.410560 -0.000002 -0.100384
v 0.396570 -0.106262 -0.100384
v 0.434290 -0.000002 -0.023085
v 0.419490 -0.112402 -0.023085
v 0.419490 -0.112402 0.635715
v 0.376110 -0.217142 0.635715
v 0.355550 -0.205282 -0.100384
v 0.376110 -0.217142 -0.023085
v 0.307090 -0.307092 0.635715
v 0.290310 -0.290312 -0.100384
v 0.307090 -0.307092 -0.023085
v -0.259520 0.069538 -0.120884
v -0.232680 0.134338 -0.120884
v -0.268680 -0.000002 -0.120884
v -0.189990 0.189978 -0.120884
v -0.219260 0.126588 -0.087984
v -0.179030 0.179028 -0.087984
v -0.244550 0.065528 -0.087984
v -0.155030 0.089498 0.212915
v -0.126580 0.126578 0.212915
v -0.172910 0.046328 0.212915
v -0.253180 -0.000002 -0.087984
v -0.179010 -0.000002 0.212915
v -0.172910 -0.046332 0.212915
v -0.244550 -0.065522 -0.087984
v -0.155030 -0.089502 0.212915
v -0.259520 -0.069532 -0.120884
v -0.219260 -0.126592 -0.087984
v -0.126580 -0.126572 0.212915
v -0.232680 -0.134332 -0.120884
v -0.179030 -0.179022 -0.087984
v -0.189990 -0.189982 -0.120884
v 0.307090 0.307098 0.635715
v 0.290300 0.290308 -0.100384
v 0.307090 0.307098 -0.023085
v 0.376110 0.217148 0.635715
v 0.376110 0.217148 -0.023085
v 0.419490 0.112408 0.635715
v 0.419490 0.112408 -0.023085
v 0.434290 -0.000002 0.635715
v 0.355550 0.205278 -0.100384
v 0.396570 0.106258 -0.100384
v 0.070520 -0.070532 -0.152483
v 0.086380 -0.049872 -0.152483
v 0.096340 -0.025812 -0.152483
v 0.099740 -0.000002 -0.152483
v 0.127720 -0.000002 -0.113184
v 0.096340 0.025818 -0.152483
v 0.123370 0.033058 -0.113184
v 0.086380 0.049868 -0.152483
v 0.110610 0.063868 -0.113184
v 0.070520 0.070528 -0.152483
v 0.104850 0.104848 -0.063484
v 0.126570 0.126578 0.212915
v 0.155020 0.089498 0.212915
v 0.128410 0.074138 -0.063484
v 0.172900 0.046328 0.212915
v 0.090310 0.090318 -0.113184
v 0.143220 0.038378 -0.063484
v 0.179000 -0.000002 0.212915
v 0.148280 -0.000002 -0.063484
v 0.143220 -0.038382 -0.063484
v 0.172900 -0.046332 0.212915
v 0.123370 -0.033062 -0.113184
v 0.128410 -0.074142 -0.063484
v 0.155020 -0.089502 0.212915
v 0.110610 -0.063862 -0.113184
v 0.104850 -0.104852 -0.063484
v 0.126570 -0.126572 0.212915
v 0.090310 -0.090312 -0.113184
v -0.134340 -0.232682 -0.120884
v -0.069541 -0.259522 -0.120884
v -0.000000 -0.268672 -0.120884
v -0.307100 0.307098 0.635715
v -0.307100 0.307098 -0.023085
v -0.217150 0.376108 0.635715
v -0.290310 0.290308 -0.100384
v -0.217150 0.376108 -0.023085
v -0.112410 0.419498 0.635715
v -0.112410 0.419498 -0.023085
v -0.000000 0.434298 0.635715
v -0.205280 0.355558 -0.100384
v -0.000000 0.434298 -0.023085
v -0.106270 0.396568 -0.100384
v 0.112400 0.419498 0.635715
v -0.126580 -0.126572 0.212915
v -0.179030 -0.179022 -0.087984
v -0.189990 -0.189982 -0.120884
v -0.126590 -0.219262 -0.087984
v -0.089510 -0.155022 0.212915
v -0.065530 -0.244552 -0.087984
v -0.046330 -0.172902 0.212915
v -0.000000 -0.253172 -0.087984
v -0.000000 -0.179002 0.212915
v 0.046320 -0.172902 0.212915
v 0.065520 -0.244552 -0.087984
v 0.089500 -0.155022 0.212915
v 0.126580 -0.219262 -0.087984
v 0.126570 -0.126572 0.212915
v 0.069530 -0.259522 -0.120884
v 0.179020 -0.179022 -0.087984
v 0.134330 -0.232682 -0.120884
v 0.189980 -0.189982 -0.120884
v -0.000000 0.410558 -0.100384
v 0.106260 0.396568 -0.100384
v 0.112400 0.419498 -0.023085
v 0.217140 0.376108 0.635715
v 0.205280 0.355558 -0.100384
v 0.217140 0.376108 -0.023085
v 0.307090 0.307098 0.635715
v 0.290300 0.290308 -0.100384
v 0.307090 0.307098 -0.023085
v 0.070520 0.070528 -0.152483
v 0.049870 0.086378 -0.152483
v 0.063860 0.110618 -0.113184
v 0.033050 0.123378 -0.113184
v 0.038370 0.143228 -0.063484
v 0.025810 0.096348 -0.152483
v -0.000000 0.148278 -0.063484
v -0.000000 0.179008 0.212915
v -0.000000 0.127728 -0.113184
v -0.000000 0.099748 -0.152483
v -0.025820 0.096348 -0.152483
v -0.033060 0.123378 -0.113184
v -0.038380 0.143228 -0.063484
v -0.046330 0.172908 0.212915
v -0.049880 0.086378 -0.152483
v -0.063870 0.110618 -0.113184
v -0.074150 0.128418 -0.063484
v -0.089510 0.155018 0.212915
v -0.070530 0.070528 -0.152483
v -0.090320 0.090318 -0.113184
v -0.104860 0.104848 -0.063484
v -0.126580 0.126578 0.212915
v 0.089500 0.155018 0.212915
v 0.104850 0.104848 -0.063484
v 0.074140 0.128418 -0.063484
v 0.126570 0.126578 0.212915
v 0.046320 0.172908 0.212915
v 0.090310 0.090318 -0.113184
v -0.307100 0.307098 0.635715
v 0.376110 -0.217142 0.635715
v -0.112410 0.419498 0.635715
v -0.217150 0.376108 0.635715
v -0.419500 0.112408 0.635715
v -0.376120 0.217148 0.635715
v -0.434300 -0.000002 0.635715
v -0.000000 -0.434292 0.635716
v -0.376110 -0.217142 0.635715
v -0.419500 -0.112402 0.635715
v -0.112410 -0.419492 0.635716
v -0.307100 -0.307092 0.635715
v -0.217150 -0.376112 0.635715
v 0.112400 -0.419492 0.635716
v 0.307090 -0.307092 0.635715
v 0.217140 -0.376112 0.635715
v 0.307090 0.307098 0.635715
v 0.217140 0.376108 0.635715
v -0.000000 0.434298 0.635715
v 0.112400 0.419498 0.635715
v 0.376110 0.217148 0.635715
v 0.434290 -0.000002 0.635715
v 0.419490 0.112408 0.635715
v 0.419490 -0.112402 0.635715
v -0.290310 -0.290312 -0.100384
v -0.307100 -0.307092 0.635715
v -0.307100 -0.307092 -0.023085
v -0.376110 -0.217142 0.635715
v -0.376110 -0.217142 -0.023085
v -0.419500 -0.112402 0.635715
v -0.419500 -0.112402 -0.023085
v -0.434300 -0.000002 0.635715
v -0.434300 -0.000002 -0.023085
v -0.419500 0.112408 0.635715
v -0.355560 -0.205282 -0.100384
v -0.396580 -0.106262 -0.100384
v -0.410560 -0.000002 -0.100384
v -0.396580 0.106258 -0.100384
v -0.419500 0.112408 -0.023085
v -0.376120 0.217148 0.635715
v -0.376120 0.217148 -0.023085
v -0.307100 0.307098 0.635715
v -0.355560 0.205278 -0.100384
v -0.307100 0.307098 -0.023085
v -0.290310 0.290308 -0.100384
v 0.126570 -0.126572 0.212915
v 0.179020 -0.179022 -0.087984
v 0.189980 -0.189982 -0.120884
v 0.219250 -0.126592 -0.087984
v 0.155020 -0.089502 0.212915
v 0.232670 -0.134332 -0.120884
v 0.259510 -0.069532 -0.120884
v 0.244550 -0.065522 -0.087984
v 0.172900 -0.046332 0.212915
v 0.253170 -0.000002 -0.087984
v 0.179000 -0.000002 0.212915
v 0.172900 0.046328 0.212915
v 0.268670 -0.000002 -0.120884
v 0.244550 0.065528 -0.087984
v 0.155020 0.089498 0.212915
v 0.259510 0.069538 -0.120884
v 0.219250 0.126588 -0.087984
v 0.126570 0.126578 0.212915
v 0.232670 0.134338 -0.120884
v 0.179020 0.179028 -0.087984
v 0.189980 0.189978 -0.120884
v -0.070530 -0.070532 -0.152483
v -0.086380 -0.049872 -0.152483
v -0.070530 0.070528 -0.152483
v -0.086390 0.049868 -0.152483
v -0.110620 0.063868 -0.113184
v -0.090320 0.090318 -0.113184
v -0.128420 0.074138 -0.063484
v -0.104860 0.104848 -0.063484
v -0.155030 0.089498 0.212915
v -0.126580 0.126578 0.212915
v -0.104860 -0.104852 -0.063484
v -0.126580 -0.126572 0.212915
v -0.155030 -0.089502 0.212915
v -0.090320 -0.090312 -0.113184
v -0.128420 -0.074142 -0.063484
v -0.172910 -0.046332 0.212915
v -0.110620 -0.063862 -0.113184
v -0.143230 -0.038382 -0.063484
v -0.179010 -0.000002 0.212915
v -0.123380 -0.033062 -0.113184
v -0.148290 -0.000002 -0.063484
v -0.143230 0.038378 -0.063484
v -0.172910 0.046328 0.212915
v -0.127730 -0.000002 -0.113184
v -0.096350 -0.025812 -0.152483
v -0.123380 0.033058 -0.113184
v -0.096350 0.025818 -0.152483
v -0.099750 -0.000002 -0.152483
v 0.307090 -0.307092 0.635715
v 0.290310 -0.290312 -0.100384
v 0.307090 -0.307092 -0.023085
v 0.217140 -0.376112 0.635715
v 0.217140 -0.376112 -0.023085
v 0.112400 -0.419492 0.635716
v 0.205280 -0.355552 -0.100384
v 0.112400 -0.419492 -0.023085
v -0.000000 -0.434292 0.635716
v -0.000000 -0.434292 -0.023085
v 0.106260 -0.396572 -0.100384
v -0.000000 -0.410562 -0.100384
v -0.106270 -0.396572 -0.100384
v -0.112410 -0.419492 -0.023085
v -0.205280 -0.355552 -0.100384
v -0.217150 -0.376112 -0.023085
v -0.290310 -0.290312 -0.100384
v -0.217150 -0.376112 0.635715
v -0.112410 -0.419492 0.635716
v -0.307100 -0.307092 0.635715
v -0.307100 -0.307092 -0.023085
v -0.189990 0.189978 -0.120884
v -0.179030 0.179028 -0.087984
v -0.134340 0.232678 -0.120884
v -0.126580 0.126578 0.212915
v -0.126590 0.219258 -0.087984
v -0.089510 0.155018 0.212915
v 0.126570 0.126578 0.212915
v 0.179020 0.179028 -0.087984
v 0.126580 0.219258 -0.087984
v 0.089500 0.155018 0.212915
v 0.065520 0.244548 -0.087984
v 0.046320 0.172908 0.212915
v 0.069530 0.259518 -0.120884
v -0.000000 0.253178 -0.087984
v -0.000000 0.179008 0.212915
v -0.046330 0.172908 0.212915
v -0.000000 0.268678 -0.120884
v -0.065530 0.244548 -0.087984
v -0.069541 0.259518 -0.120884
v 0.134330 0.232678 -0.120884
v 0.189980 0.189978 -0.120884
v -0.070530 -0.070532 -0.152483
v -0.049880 -0.086382 -0.152483
v -0.025820 -0.096342 -0.152483
v -0.000000 -0.099742 -0.152483
v -0.000000 -0.127732 -0.113184
v 0.025810 -0.096342 -0.152483
v 0.033050 -0.123372 -0.113184
v 0.049870 -0.086382 -0.152483
v 0.070520 -0.070532 -0.152483
v 0.104850 -0.104852 -0.063484
v 0.126570 -0.126572 0.212915
v 0.089500 -0.155022 0.212915
v 0.090310 -0.090312 -0.113184
v 0.074140 -0.128412 -0.063484
v 0.046320 -0.172902 0.212915
v 0.063860 -0.110612 -0.113184
v 0.038370 -0.143232 -0.063484
v -0.000000 -0.179002 0.212915
v -0.000000 -0.148282 -0.063484
v -0.038380 -0.143232 -0.063484
v -0.046330 -0.172902 0.212915
v -0.033060 -0.123372 -0.113184
v -0.074150 -0.128412 -0.063484
v -0.089510 -0.155022 0.212915
v -0.063870 -0.110612 -0.113184
v -0.104860 -0.104852 -0.063484
v -0.126580 -0.126572 0.212915
v -0.090320 -0.090312 -0.113184
v 0.332640 -0.192052 -0.125984
v 0.287770 -0.166142 -0.143284
v 0.320960 -0.086002 -0.143284
v 0.371010 -0.099412 -0.125984
v 0.234960 -0.234962 -0.143284
v 0.410560 -0.000002 -0.100384
v 0.396570 -0.106262 -0.100384
v 0.355550 -0.205282 -0.100384
v 0.290310 -0.290312 -0.100384
v 0.271600 -0.271602 -0.125984
v 0.205280 -0.355552 -0.100384
v 0.106260 -0.396572 -0.100384
v 0.192050 -0.332642 -0.125984
v 0.166140 -0.287772 -0.143284
v 0.150960 -0.261482 -0.143284
v 0.078140 -0.291642 -0.143284
v 0.086000 -0.320972 -0.143284
v 0.099410 -0.371022 -0.125984
v -0.000000 -0.410562 -0.100384
v -0.000000 -0.384102 -0.125984
v -0.000000 -0.301932 -0.143284
v -0.106270 -0.396572 -0.100384
v -0.099420 -0.371022 -0.125984
v -0.000000 -0.332292 -0.143284
v -0.192060 -0.332642 -0.125984
v -0.205280 -0.355552 -0.100384
v -0.290310 -0.290312 -0.100384
v -0.271610 -0.271602 -0.125984
v -0.332650 -0.192052 -0.125984
v -0.234970 -0.234962 -0.143284
v -0.086010 -0.320972 -0.143284
v -0.166150 -0.287772 -0.143284
v -0.078150 -0.291642 -0.143284
v -0.150970 -0.261482 -0.143284
v -0.213500 -0.213492 -0.143284
v -0.199750 -0.199742 -0.134684
v -0.141250 -0.244632 -0.134684
v -0.134340 -0.232682 -0.120884
v -0.073120 -0.272852 -0.134684
v -0.069541 -0.259522 -0.120884
v -0.000000 -0.268672 -0.120884
v -0.000000 -0.282482 -0.134684
v 0.073110 -0.272852 -0.134684
v -0.355560 -0.205282 -0.100384
v -0.396580 -0.106262 -0.100384
v -0.410560 -0.000002 -0.100384
v -0.371020 -0.099412 -0.125984
v -0.384110 -0.000002 -0.125984
v -0.396580 0.106258 -0.100384
v -0.371020 0.099418 -0.125984
v -0.355560 0.205278 -0.100384
v -0.290310 0.290308 -0.100384
v -0.332650 0.192058 -0.125984
v -0.205280 0.355558 -0.100384
v -0.271610 0.271608 -0.125984
v -0.106270 0.396568 -0.100384
v -0.192060 0.332648 -0.125984
v -0.234970 0.234968 -0.143284
v -0.287780 0.166148 -0.143284
v -0.166150 0.287778 -0.143284
v -0.213500 0.213498 -0.143284
v -0.261480 0.150968 -0.143284
v -0.320970 0.086008 -0.143284
v -0.332300 -0.000002 -0.143284
v -0.320970 -0.086002 -0.143284
v -0.287780 -0.166142 -0.143284
v -0.291650 -0.078142 -0.143284
v -0.301930 -0.000002 -0.143284
v -0.291650 0.078148 -0.143284
v -0.282490 -0.000002 -0.134684
v -0.272860 0.073108 -0.134684
v -0.244640 0.141238 -0.134684
v -0.259520 0.069538 -0.120884
v -0.199750 0.199748 -0.134684
v -0.232680 0.134338 -0.120884
v -0.268680 -0.000002 -0.120884
v -0.150970 0.261478 -0.143284
v -0.189990 0.189978 -0.120884
v -0.134340 0.232678 -0.120884
v -0.141250 0.244638 -0.134684
v -0.259520 -0.069532 -0.120884
v -0.272860 -0.073112 -0.134684
v -0.232680 -0.134332 -0.120884
v -0.244640 -0.141242 -0.134684
v -0.261480 -0.150962 -0.143284
v -0.189990 -0.189982 -0.120884
v 0.069530 -0.259522 -0.120884
v 0.134330 -0.232682 -0.120884
v 0.189980 -0.189982 -0.120884
v 0.232670 -0.134332 -0.120884
v 0.141240 -0.244632 -0.134684
v 0.199740 -0.199742 -0.134684
v 0.244630 -0.141242 -0.134684
v 0.213490 -0.213492 -0.143284
v 0.272850 -0.073112 -0.134684
v 0.259510 -0.069532 -0.120884
v 0.268670 -0.000002 -0.120884
v 0.282480 -0.000002 -0.134684
v 0.259510 0.069538 -0.120884
v 0.232670 0.134338 -0.120884
v 0.069530 0.259518 -0.120884
v -0.000000 0.268678 -0.120884
v -0.069541 0.259518 -0.120884
v -0.073120 0.272858 -0.134684
v -0.000000 0.282488 -0.134684
v -0.078150 0.291638 -0.143284
v 0.073110 0.272858 -0.134684
v -0.000000 0.301928 -0.143284
v -0.086010 0.320968 -0.143284
v -0.000000 0.332288 -0.143284
v -0.099420 0.371018 -0.125984
v 0.086000 0.320968 -0.143284
v -0.000000 0.410558 -0.100384
v -0.000000 0.384108 -0.125984
v 0.106260 0.396568 -0.100384
v 0.099410 0.371018 -0.125984
v 0.205280 0.355558 -0.100384
v 0.192050 0.332648 -0.125984
v 0.290300 0.290308 -0.100384
v 0.271600 0.271608 -0.125984
v 0.355550 0.205278 -0.100384
v 0.396570 0.106258 -0.100384
v 0.332640 0.192058 -0.125984
v 0.166140 0.287778 -0.143284
v 0.234960 0.234968 -0.143284
v 0.078140 0.291638 -0.143284
v 0.150960 0.261478 -0.143284
v 0.141240 0.244638 -0.134684
v 0.134330 0.232678 -0.120884
v 0.189980 0.189978 -0.120884
v 0.199740 0.199748 -0.134684
v 0.213490 0.213498 -0.143284
v 0.244630 0.141238 -0.134684
v 0.261470 0.150968 -0.143284
v 0.272850 0.073108 -0.134684
v 0.287770 0.166148 -0.143284
v 0.291640 0.078148 -0.143284
v 0.320960 0.086008 -0.143284
v 0.301920 -0.000002 -0.143284
v 0.371010 0.099418 -0.125984
v 0.332290 -0.000002 -0.143284
v 0.291640 -0.078142 -0.143284
v 0.384100 -0.000002 -0.125984
v 0.261470 -0.150962 -0.143284
v -0.043530 -0.043522 -0.175385
v -0.070530 -0.070532 -0.152483
v -0.086380 -0.049872 -0.152483
v -0.049880 -0.086382 -0.152483
v -0.030780 -0.053302 -0.175385
v -0.000000 -0.000002 -0.185783
v -0.025820 -0.096342 -0.152483
v -0.015930 -0.059452 -0.175385
v -0.000000 -0.061552 -0.175385
v -0.000000 -0.099742 -0.152483
v 0.015930 -0.059452 -0.175385
v 0.025810 -0.096342 -0.152483
v 0.049870 -0.086382 -0.152483
v 0.030770 -0.053302 -0.175385
v 0.070520 -0.070532 -0.152483
v 0.043520 -0.043522 -0.175385
v 0.053300 -0.030772 -0.175385
v 0.086380 -0.049872 -0.152483
v 0.059450 -0.015932 -0.175385
v 0.096340 -0.025812 -0.152483
v 0.099740 -0.000002 -0.152483
v 0.061540 -0.000002 -0.175385
v 0.096340 0.025818 -0.152483
v 0.059450 0.015928 -0.175385
v 0.086380 0.049868 -0.152483
v 0.053300 0.030778 -0.175385
v 0.070520 0.070528 -0.152483
v 0.043520 0.043518 -0.175385
v 0.030770 0.053308 -0.175385
v 0.049870 0.086378 -0.152483
v 0.015930 0.059448 -0.175385
v 0.025810 0.096348 -0.152483
v -0.000000 0.099748 -0.152483
v -0.000000 0.061548 -0.175385
v -0.025820 0.096348 -0.152483
v -0.015930 0.059448 -0.175385
v -0.049880 0.086378 -0.152483
v -0.030780 0.053308 -0.175385
v -0.070530 0.070528 -0.152483
v -0.043530 0.043518 -0.175385
v -0.053310 0.030778 -0.175385
v -0.059460 0.015928 -0.175385
v -0.086390 0.049868 -0.152483
v -0.096350 -0.025812 -0.152483
v -0.096350 0.025818 -0.152483
v -0.099750 -0.000002 -0.152483
v -0.061550 -0.000002 -0.175385
v -0.059460 -0.015932 -0.175385
v -0.053310 -0.030772 -0.175385
vn 0.9888 -0.0000 -0.1491
vn 0.8292 -0.2211 -0.5133
vn 0.8589 -0.0000 -0.5121
vn 0.9539 -0.2601 -0.1498
vn 0.9658 -0.2593 -0.0000
vn 0.8644 -0.5029 -0.0000
vn 0.7437 -0.4272 -0.5142
vn 0.8561 -0.4948 -0.1492
vn 0.7071 -0.7071 -0.0000
vn 0.6072 -0.6072 -0.5125
vn 0.6992 -0.6992 -0.1493
vn 0.8155 -0.4704 -0.3372
vn 0.7856 -0.2121 -0.5813
vn 0.7014 -0.4098 -0.5831
vn 0.6658 -0.6658 -0.3368
vn 0.5748 -0.5747 -0.5825
vn 0.9095 -0.2430 -0.3372
vn 0.8122 -0.0000 -0.5834
vn 0.8409 -0.4872 -0.2358
vn 0.6873 -0.6872 -0.2355
vn 0.9383 -0.2523 -0.2366
vn 0.9414 -0.0000 -0.3373
vn 0.9715 -0.0000 -0.2370
vn 0.9383 0.2523 -0.2366
vn 0.9095 0.2432 -0.3371
vn 0.8409 0.4872 -0.2358
vn 0.7856 0.2121 -0.5813
vn 0.8155 0.4705 -0.3372
vn 0.6870 0.6869 -0.2369
vn 0.7014 0.4098 -0.5831
vn 0.6658 0.6658 -0.3368
vn 0.5748 0.5747 -0.5825
vn 0.8644 0.5029 -0.0000
vn 0.6992 0.6992 -0.1493
vn 0.7071 0.7071 -0.0000
vn 0.8561 0.4948 -0.1492
vn 0.6072 0.6072 -0.5125
vn 0.9659 0.2588 -0.0000
vn 0.9539 0.2601 -0.1498
vn 1.0000 -0.0000 -0.0000
vn 0.7437 0.4272 -0.5142
vn 0.8293 0.2211 -0.5133
vn 0.8764 -0.0000 -0.4815
vn 0.6631 -0.1816 -0.7262
vn 0.6871 -0.0000 -0.7266
vn 0.6631 0.1815 -0.7262
vn 0.8478 0.2276 -0.4790
vn 0.5976 0.3460 -0.7233
vn 0.7572 0.4417 -0.4811
vn 0.4879 0.4879 -0.7239
vn 0.8607 0.4969 -0.1105
vn 0.6857 0.6857 -0.2443
vn 0.7028 0.7027 -0.1105
vn 0.8393 0.4863 -0.2432
vn 0.9594 0.2595 -0.1101
vn 0.6206 0.6206 -0.4792
vn 0.9365 0.2518 -0.2440
vn 0.9939 -0.0000 -0.1105
vn 0.9697 -0.0000 -0.2444
vn 0.9365 -0.2518 -0.2440
vn 0.9594 -0.2595 -0.1101
vn 0.8478 -0.2276 -0.4789
vn 0.8393 -0.4863 -0.2432
vn 0.8607 -0.4969 -0.1105
vn 0.7572 -0.4417 -0.4811
vn 0.5976 -0.3460 -0.7233
vn 0.6857 -0.6857 -0.2443
vn 0.7028 -0.7028 -0.1105
vn 0.6206 -0.6206 -0.4792
vn 0.4879 -0.4878 -0.7239
vn -0.5028 0.8644 -0.0000
vn -0.6992 0.6992 -0.1493
vn -0.7071 0.7071 -0.0000
vn -0.4948 0.8561 -0.1493
vn -0.6072 0.6072 -0.5125
vn -0.2588 0.9659 -0.0000
vn -0.2601 0.9539 -0.1498
vn -0.0000 1.0000 -0.0000
vn -0.4272 0.7437 -0.5142
vn -0.0000 0.9888 -0.1491
vn -0.2211 0.8293 -0.5133
vn 0.2592 0.9658 -0.0000
vn 0.4098 0.7014 -0.5832
vn 0.5747 0.5747 -0.5825
vn 0.6872 0.6873 -0.2355
vn 0.4705 0.8155 -0.3372
vn 0.4872 0.8409 -0.2358
vn 0.2430 0.9095 -0.3372
vn 0.2523 0.9383 -0.2365
vn 0.2121 0.7856 -0.5813
vn -0.0000 0.9415 -0.3370
vn -0.0000 0.9715 -0.2370
vn -0.2523 0.9383 -0.2366
vn -0.0000 0.8121 -0.5835
vn -0.2432 0.9095 -0.3371
vn -0.4872 0.8409 -0.2358
vn -0.4705 0.8155 -0.3372
vn -0.6870 0.6870 -0.2369
vn -0.2121 0.7856 -0.5813
vn -0.6658 0.6658 -0.3368
vn -0.4098 0.7014 -0.5832
vn -0.5747 0.5748 -0.5826
vn -0.0000 0.8589 -0.5121
vn 0.2211 0.8292 -0.5133
vn 0.2601 0.9539 -0.1498
vn 0.5029 0.8643 -0.0000
vn 0.4272 0.7437 -0.5142
vn 0.4948 0.8561 -0.1493
vn 0.4417 0.7572 -0.4812
vn 0.4878 0.4879 -0.7239
vn 0.3460 0.5976 -0.7233
vn 0.2276 0.8478 -0.4789
vn 0.2518 0.9365 -0.2440
vn 0.1816 0.6631 -0.7262
vn -0.0000 0.9697 -0.2445
vn -0.0000 0.9939 -0.1105
vn -0.0000 0.8764 -0.4816
vn -0.0000 0.6871 -0.7265
vn -0.1815 0.6631 -0.7262
vn -0.2276 0.8478 -0.4789
vn -0.2518 0.9365 -0.2440
vn -0.2595 0.9594 -0.1101
vn -0.3460 0.5976 -0.7233
vn -0.4417 0.7572 -0.4811
vn -0.4863 0.8393 -0.2432
vn -0.4970 0.8607 -0.1105
vn -0.4878 0.4879 -0.7239
vn -0.6206 0.6206 -0.4792
vn -0.6857 0.6857 -0.2443
vn -0.7027 0.7028 -0.1105
vn 0.4970 0.8607 -0.1105
vn 0.6856 0.6857 -0.2443
vn 0.4863 0.8393 -0.2432
vn 0.7027 0.7028 -0.1106
vn 0.2595 0.9594 -0.1101
vn -0.0000 -0.0000 1.0000
vn -0.0001 -0.0000 1.0000
vn 0.0001 -0.0000 1.0000
vn -0.0002 -0.0000 1.0000
vn -0.8644 -0.5029 -0.0000
vn -0.6992 -0.6992 -0.1493
vn -0.7071 -0.7071 -0.0000
vn -0.8561 -0.4948 -0.1493
vn -0.6072 -0.6072 -0.5125
vn -0.9659 -0.2589 -0.0000
vn -0.9539 -0.2601 -0.1498
vn -1.0000 -0.0000 -0.0000
vn -0.9888 -0.0000 -0.1491
vn -0.9658 0.2593 -0.0000
vn -0.7437 -0.4272 -0.5142
vn -0.8292 -0.2211 -0.5133
vn -0.8589 -0.0000 -0.5121
vn -0.8292 0.2211 -0.5133
vn -0.9539 0.2601 -0.1498
vn -0.8644 0.5029 -0.0000
vn -0.8561 0.4948 -0.1492
vn -0.7437 0.4272 -0.5142
vn -0.6873 0.6872 -0.2355
vn -0.8155 0.4705 -0.3371
vn -0.8409 0.4872 -0.2358
vn -0.7014 0.4098 -0.5831
vn -0.5748 0.5747 -0.5825
vn -0.7856 0.2121 -0.5813
vn -0.9095 0.2432 -0.3371
vn -0.9383 0.2523 -0.2366
vn -0.9414 -0.0000 -0.3373
vn -0.9715 -0.0000 -0.2370
vn -0.9383 -0.2523 -0.2366
vn -0.8121 -0.0000 -0.5834
vn -0.9095 -0.2431 -0.3371
vn -0.8409 -0.4872 -0.2358
vn -0.7856 -0.2121 -0.5813
vn -0.8155 -0.4705 -0.3372
vn -0.6870 -0.6870 -0.2369
vn -0.7014 -0.4098 -0.5831
vn -0.6658 -0.6658 -0.3368
vn -0.5748 -0.5747 -0.5825
vn -0.7572 0.4417 -0.4812
vn -0.4879 0.4879 -0.7239
vn -0.5976 0.3460 -0.7233
vn -0.8393 0.4863 -0.2432
vn -0.6857 0.6856 -0.2443
vn -0.8608 0.4969 -0.1105
vn -0.7028 0.7027 -0.1106
vn -0.8607 -0.4969 -0.1105
vn -0.6857 -0.6857 -0.2443
vn -0.7028 -0.7028 -0.1105
vn -0.8393 -0.4863 -0.2432
vn -0.6207 -0.6206 -0.4792
vn -0.9594 -0.2596 -0.1101
vn -0.7572 -0.4417 -0.4811
vn -0.4879 -0.4878 -0.7239
vn -0.9365 -0.2518 -0.2440
vn -0.9939 -0.0000 -0.1105
vn -0.5976 -0.3459 -0.7233
vn -0.8478 -0.2276 -0.4789
vn -0.9697 -0.0000 -0.2444
vn -0.9365 0.2518 -0.2440
vn -0.9594 0.2595 -0.1101
vn -0.8764 -0.0000 -0.4816
vn -0.6631 -0.1816 -0.7262
vn -0.8478 0.2276 -0.4789
vn -0.6631 0.1816 -0.7262
vn -0.6871 -0.0000 -0.7266
vn 0.5029 -0.8644 -0.0000
vn 0.4948 -0.8561 -0.1492
vn 0.2593 -0.9658 -0.0000
vn 0.4272 -0.7437 -0.5142
vn 0.2602 -0.9539 -0.1498
vn -0.0000 -1.0000 -0.0000
vn -0.0000 -0.9888 -0.1491
vn 0.2211 -0.8292 -0.5133
vn -0.0000 -0.8589 -0.5122
vn -0.2211 -0.8292 -0.5133
vn -0.2602 -0.9539 -0.1498
vn -0.4272 -0.7437 -0.5142
vn -0.4948 -0.8561 -0.1493
vn -0.5028 -0.8644 -0.0000
vn -0.2593 -0.9658 -0.0000
vn -0.6991 -0.6992 -0.1493
vn 0.5747 -0.5748 -0.5826
vn 0.4098 -0.7014 -0.5832
vn 0.6869 -0.6870 -0.2369
vn 0.4707 -0.8154 -0.3370
vn 0.4872 -0.8409 -0.2358
vn -0.6872 -0.6873 -0.2355
vn -0.4704 -0.8155 -0.3372
vn -0.4872 -0.8409 -0.2358
vn -0.2431 -0.9095 -0.3372
vn -0.2523 -0.9383 -0.2366
vn -0.2121 -0.7856 -0.5813
vn -0.0000 -0.9414 -0.3374
vn -0.0000 -0.9715 -0.2370
vn 0.2523 -0.9383 -0.2366
vn -0.0000 -0.8121 -0.5835
vn 0.2431 -0.9095 -0.3372
vn 0.2121 -0.7856 -0.5813
vn -0.4098 -0.7014 -0.5832
vn -0.5747 -0.5747 -0.5825
vn -0.0000 -0.8764 -0.4816
vn -0.1816 -0.6631 -0.7262
vn -0.0000 -0.6871 -0.7266
vn 0.1815 -0.6631 -0.7262
vn 0.2276 -0.8478 -0.4789
vn 0.3459 -0.5976 -0.7233
vn 0.4972 -0.8606 -0.1105
vn 0.6856 -0.6857 -0.2443
vn 0.4863 -0.8393 -0.2431
vn 0.2595 -0.9594 -0.1101
vn 0.4417 -0.7572 -0.4812
vn 0.4878 -0.4879 -0.7239
vn 0.2518 -0.9365 -0.2440
vn -0.0000 -0.9939 -0.1105
vn -0.0000 -0.9697 -0.2444
vn -0.2518 -0.9365 -0.2440
vn -0.2595 -0.9594 -0.1101
vn -0.2276 -0.8478 -0.4789
vn -0.4863 -0.8393 -0.2432
vn -0.4969 -0.8607 -0.1105
vn -0.4417 -0.7572 -0.4811
vn -0.3460 -0.5976 -0.7233
vn -0.6856 -0.6857 -0.2443
vn -0.6206 -0.6206 -0.4792
vn -0.4878 -0.4879 -0.7239
vn 0.4621 -0.2663 -0.8459
vn 0.1497 -0.0867 -0.9849
vn 0.1655 -0.0473 -0.9851
vn 0.5110 -0.1337 -0.8491
vn 0.1260 -0.1260 -0.9840
vn 0.8589 -0.0000 -0.5122
vn 0.8292 -0.2211 -0.5134
vn 0.7436 -0.4272 -0.5143
vn 0.6071 -0.6072 -0.5126
vn 0.3763 -0.3763 -0.8467
vn 0.4272 -0.7437 -0.5143
vn 0.2663 -0.4621 -0.8459
vn 0.2211 -0.8292 -0.5134
vn 0.0867 -0.1497 -0.9849
vn -0.0944 0.1649 -0.9818
vn -0.0472 0.1808 -0.9824
vn 0.0473 -0.1655 -0.9851
vn 0.1337 -0.5110 -0.8491
vn -0.0000 -0.5328 -0.8462
vn -0.0000 0.1885 -0.9821
vn -0.1337 -0.5110 -0.8491
vn -0.2211 -0.8292 -0.5134
vn -0.0000 -0.1734 -0.9849
vn -0.2663 -0.4621 -0.8459
vn -0.4272 -0.7436 -0.5143
vn -0.3763 -0.3763 -0.8466
vn -0.6072 -0.6072 -0.5126
vn -0.4621 -0.2663 -0.8459
vn -0.1260 -0.1260 -0.9840
vn -0.0472 -0.1655 -0.9851
vn -0.0867 -0.1497 -0.9849
vn 0.0472 0.1808 -0.9824
vn 0.0944 0.1649 -0.9818
vn 0.1336 0.1336 -0.9820
vn 0.3923 0.3923 -0.8320
vn 0.2752 0.4795 -0.8333
vn 0.1415 0.5345 -0.8332
vn 0.2121 0.7855 -0.5813
vn -0.0000 0.5510 -0.8345
vn -0.1415 0.5345 -0.8332
vn -0.7437 -0.4272 -0.5143
vn -0.5110 -0.1337 -0.8491
vn -0.8292 -0.2211 -0.5134
vn -0.5328 -0.0000 -0.8463
vn -0.8589 -0.0000 -0.5122
vn -0.8292 0.2211 -0.5134
vn -0.5110 0.1336 -0.8491
vn -0.7436 0.4272 -0.5143
vn -0.6071 0.6072 -0.5126
vn -0.4621 0.2663 -0.8459
vn -0.4272 0.7437 -0.5143
vn -0.3763 0.3763 -0.8466
vn -0.2211 0.8292 -0.5133
vn -0.2663 0.4621 -0.8459
vn -0.1259 0.1259 -0.9840
vn -0.1502 0.0867 -0.9849
vn -0.0867 0.1497 -0.9849
vn 0.1335 -0.1335 -0.9820
vn 0.1649 -0.0944 -0.9818
vn -0.1655 0.0473 -0.9851
vn -0.1734 -0.0000 -0.9849
vn -0.1655 -0.0473 -0.9851
vn -0.1498 -0.0867 -0.9849
vn 0.1808 0.0472 -0.9824
vn 0.1886 -0.0000 -0.9821
vn 0.1808 -0.0472 -0.9824
vn 0.5510 -0.0000 -0.8345
vn 0.5345 -0.1415 -0.8332
vn 0.4795 -0.2751 -0.8333
vn 0.7855 -0.2121 -0.5813
vn 0.3922 -0.3922 -0.8321
vn 0.7014 -0.4098 -0.5832
vn 0.8121 -0.0000 -0.5835
vn 0.0944 -0.1649 -0.9818
vn 0.5747 -0.5747 -0.5826
vn 0.2752 -0.4795 -0.8333
vn 0.7855 0.2121 -0.5813
vn 0.5345 0.1415 -0.8332
vn 0.7014 0.4098 -0.5832
vn 0.4795 0.2751 -0.8333
vn 0.1649 0.0944 -0.9818
vn 0.5747 0.5747 -0.5826
vn -0.2121 0.7855 -0.5813
vn -0.5747 0.5747 -0.5826
vn -0.2751 0.4795 -0.8333
vn -0.3924 0.3922 -0.8320
vn -0.7014 0.4098 -0.5832
vn -0.4795 0.2751 -0.8333
vn -0.1336 0.1336 -0.9820
vn -0.5345 0.1415 -0.8332
vn -0.7855 0.2121 -0.5814
vn -0.5510 -0.0000 -0.8345
vn -0.8121 -0.0000 -0.5835
vn -0.7855 -0.2121 -0.5813
vn 0.2121 -0.7855 -0.5814
vn 0.1415 -0.5345 -0.8332
vn -0.0000 -0.5511 -0.8345
vn 0.0472 -0.1808 -0.9824
vn -0.1415 -0.5345 -0.8332
vn -0.2121 -0.7855 -0.5813
vn -0.0000 -0.1885 -0.9821
vn -0.0473 0.1655 -0.9851
vn -0.0000 0.1734 -0.9849
vn -0.1337 0.5110 -0.8491
vn 0.0473 0.1655 -0.9851
vn -0.0000 0.8589 -0.5122
vn -0.0000 0.5328 -0.8463
vn 0.2211 0.8292 -0.5134
vn 0.1336 0.5110 -0.8491
vn 0.4272 0.7437 -0.5143
vn 0.2663 0.4621 -0.8459
vn 0.6072 0.6071 -0.5126
vn 0.3763 0.3763 -0.8466
vn 0.7437 0.4272 -0.5143
vn 0.4621 0.2663 -0.8459
vn 0.8292 0.2211 -0.5134
vn 0.0867 0.1498 -0.9849
vn 0.1260 0.1260 -0.9840
vn -0.0472 -0.1808 -0.9824
vn -0.0943 -0.1649 -0.9818
vn -0.2752 -0.4795 -0.8333
vn -0.5747 -0.5747 -0.5826
vn -0.3922 -0.3922 -0.8321
vn -0.7014 -0.4098 -0.5832
vn -0.1335 -0.1335 -0.9820
vn -0.4795 -0.2752 -0.8333
vn -0.1649 -0.0944 -0.9818
vn -0.5345 -0.1415 -0.8332
vn 0.1498 0.0867 -0.9849
vn -0.1808 -0.0472 -0.9824
vn 0.1655 0.0473 -0.9851
vn -0.1886 -0.0000 -0.9821
vn 0.5110 0.1337 -0.8491
vn 0.1734 -0.0000 -0.9849
vn -0.1808 0.0472 -0.9824
vn 0.5328 -0.0000 -0.8462
vn -0.1649 0.0944 -0.9818
vn -0.2513 -0.2513 -0.9347
vn -0.4878 -0.4878 -0.7239
vn -0.5975 -0.3459 -0.7234
vn -0.3459 -0.5975 -0.7234
vn -0.1802 -0.3133 -0.9324
vn -0.0000 -0.0000 -1.0000
vn -0.1816 -0.6630 -0.7262
vn -0.0941 -0.3453 -0.9338
vn -0.0000 -0.3605 -0.9328
vn 0.0942 -0.3452 -0.9338
vn 0.1815 -0.6630 -0.7262
vn 0.1802 -0.3133 -0.9324
vn 0.3459 -0.5975 -0.7234
vn 0.4878 -0.4878 -0.7239
vn 0.2514 -0.2514 -0.9347
vn 0.3133 -0.1802 -0.9324
vn 0.5975 -0.3459 -0.7234
vn 0.3452 -0.0942 -0.9338
vn 0.6630 -0.1815 -0.7263
vn 0.3605 -0.0000 -0.9328
vn 0.3453 0.0942 -0.9338
vn 0.6630 0.1815 -0.7262
vn 0.5975 0.3459 -0.7234
vn 0.3134 0.1802 -0.9324
vn 0.4878 0.4878 -0.7239
vn 0.2514 0.2514 -0.9347
vn 0.1802 0.3134 -0.9324
vn 0.3459 0.5975 -0.7234
vn 0.0942 0.3452 -0.9338
vn 0.1815 0.6630 -0.7262
vn -0.0000 0.6870 -0.7266
vn -0.0000 0.3605 -0.9328
vn -0.1815 0.6630 -0.7262
vn -0.0942 0.3452 -0.9338
vn -0.3459 0.5975 -0.7234
vn -0.1802 0.3134 -0.9324
vn -0.4878 0.4878 -0.7239
vn -0.2514 0.2514 -0.9347
vn -0.3134 0.1802 -0.9324
vn -0.3453 0.0942 -0.9338
vn -0.5975 0.3460 -0.7234
vn -0.6870 -0.0000 -0.7266
vn -0.6630 0.1815 -0.7263
vn -0.3604 -0.0000 -0.9328
vn -0.6630 -0.1815 -0.7263
vn -0.3452 -0.0942 -0.9338
vn -0.3134 -0.1802 -0.9324
vt -1.224870 0.618893
vt -1.209420 0.597641
vt -1.209420 0.618893
vt -1.224870 0.596412
vt -1.356640 0.596412
vt -1.356640 0.575464
vt -1.209420 0.577837
vt -1.224870 0.575464
vt -1.356640 0.557475
vt -1.209420 0.560831
vt -1.224870 0.557475
vt -1.211910 0.644211
vt -1.205320 0.632801
vt -1.205320 0.645760
vt -1.211910 0.654698
vt -1.205320 0.656889
vt -1.211910 0.631999
vt -1.205320 0.618893
vt -1.272080 0.636793
vt -1.272080 0.644208
vt -1.272080 0.628159
vt -1.211910 0.618893
vt -1.272080 0.618893
vt -1.272080 0.609627
vt -1.211910 0.605788
vt -1.272080 0.600993
vt -1.205320 0.604986
vt -1.211910 0.593575
vt -1.272080 0.593578
vt -1.205320 0.592026
vt -1.211910 0.583089
vt -1.205320 0.580897
vt -1.356640 0.662323
vt -1.224870 0.680312
vt -1.356640 0.680312
vt -1.224870 0.662323
vt -1.209420 0.676955
vt -1.356640 0.641374
vt -1.224870 0.641374
vt -1.356640 0.618893
vt -1.209420 0.659949
vt -1.209420 0.640145
vt -1.206860 0.618893
vt -1.199000 0.613730
vt -1.199000 0.618893
vt -1.199000 0.624056
vt -1.206860 0.625505
vt -1.199000 0.628868
vt -1.206860 0.631666
vt -1.199000 0.632999
vt -1.216810 0.639863
vt -1.216810 0.633721
vt -1.206860 0.636957
vt -1.216810 0.626569
vt -1.216810 0.618893
vt -1.216810 0.611218
vt -1.206860 0.612282
vt -1.216810 0.604065
vt -1.206860 0.606120
vt -1.199000 0.608919
vt -1.216810 0.597923
vt -1.206860 0.600830
vt -1.199000 0.604787
vt -1.231070 0.701038
vt -1.213080 0.569269
vt -1.213080 0.701038
vt -1.231070 0.569269
vt -1.216430 0.553816
vt -1.252020 0.701038
vt -1.252020 0.569269
vt -1.274500 0.701038
vt -1.233440 0.553816
vt -1.274500 0.569269
vt -1.253240 0.553816
vt -1.296980 0.701038
vt -1.238690 0.556307
vt -1.247630 0.549714
vt -1.236500 0.549714
vt -1.249180 0.616478
vt -1.249180 0.556307
vt -1.256600 0.616478
vt -1.261390 0.556307
vt -1.265230 0.616478
vt -1.260590 0.549714
vt -1.274500 0.556307
vt -1.274500 0.616478
vt -1.283760 0.616478
vt -1.274500 0.549714
vt -1.287600 0.556307
vt -1.292400 0.616478
vt -1.299810 0.556307
vt -1.299810 0.616478
vt -1.288400 0.549714
vt -1.310300 0.556307
vt -1.301360 0.549714
vt -1.312490 0.549714
vt -1.274500 0.553816
vt -1.295750 0.553816
vt -1.296980 0.569269
vt -1.317930 0.701038
vt -1.315550 0.553816
vt -1.317930 0.569269
vt -1.335910 0.701038
vt -1.332560 0.553816
vt -1.335910 0.569269
vt -1.287270 0.551258
vt -1.288600 0.543395
vt -1.284470 0.543395
vt -1.281110 0.551258
vt -1.282170 0.561208
vt -1.279660 0.543395
vt -1.274500 0.561208
vt -1.274500 0.551258
vt -1.274500 0.543395
vt -1.269330 0.543395
vt -1.267880 0.551258
vt -1.266820 0.561208
vt -1.264520 0.543395
vt -1.261720 0.551258
vt -1.259670 0.561208
vt -1.260390 0.543395
vt -1.256430 0.551258
vt -1.253530 0.561208
vt -1.295470 0.561208
vt -1.289320 0.561208
vt -1.292560 0.551258
vt -1.335910 0.680312
vt -1.199270 0.575464
vt -1.296980 0.702792
vt -1.317930 0.694115
vt -1.358400 0.641374
vt -1.349720 0.662323
vt -1.361350 0.618893
vt -1.274500 0.532034
vt -1.349720 0.575464
vt -1.358400 0.596412
vt -1.296980 0.534994
vt -1.335910 0.557475
vt -1.317930 0.543671
vt -1.252020 0.534994
vt -1.213080 0.557475
vt -1.231070 0.543671
vt -1.213080 0.680312
vt -1.231070 0.694115
vt -1.274500 0.705752
vt -1.252020 0.702793
vt -1.199270 0.662323
vt -1.187640 0.618893
vt -1.190600 0.641374
vt -1.190600 0.596412
vt -1.192350 0.575464
vt -1.324120 0.557475
vt -1.192350 0.557475
vt -1.324120 0.575464
vt -1.339570 0.560831
vt -1.192350 0.596412
vt -1.324120 0.596412
vt -1.192350 0.618893
vt -1.324120 0.618893
vt -1.192350 0.641374
vt -1.339570 0.577837
vt -1.339570 0.597641
vt -1.339570 0.618893
vt -1.339570 0.640145
vt -1.324120 0.641374
vt -1.192350 0.662323
vt -1.324120 0.662323
vt -1.192350 0.680312
vt -1.339570 0.659949
vt -1.324120 0.680312
vt -1.339570 0.676955
vt -1.276910 0.593578
vt -1.337080 0.593575
vt -1.337080 0.583089
vt -1.276910 0.600993
vt -1.343680 0.592026
vt -1.343680 0.580897
vt -1.343680 0.604986
vt -1.337080 0.605788
vt -1.276910 0.609627
vt -1.337080 0.618893
vt -1.276910 0.618893
vt -1.276910 0.628159
vt -1.343680 0.618893
vt -1.337080 0.631999
vt -1.276910 0.636793
vt -1.343680 0.632801
vt -1.337080 0.644211
vt -1.276910 0.644208
vt -1.343680 0.645760
vt -1.337080 0.654698
vt -1.343680 0.656889
vt -1.342130 0.631666
vt -1.349990 0.632999
vt -1.349990 0.628868
vt -1.342130 0.636957
vt -1.332180 0.633721
vt -1.332180 0.639863
vt -1.332180 0.597923
vt -1.332180 0.604065
vt -1.342130 0.600830
vt -1.342130 0.606120
vt -1.349990 0.604787
vt -1.332180 0.611217
vt -1.349990 0.608919
vt -1.342130 0.612281
vt -1.332180 0.618893
vt -1.332180 0.626569
vt -1.342130 0.618893
vt -1.349990 0.613730
vt -1.342130 0.625505
vt -1.349990 0.624056
vt -1.349990 0.618893
vt -1.341030 0.580482
vt -1.332050 0.585664
vt -1.338690 0.601692
vt -1.348700 0.599010
vt -1.321490 0.571900
vt -1.356610 0.618893
vt -1.353810 0.597641
vt -1.345610 0.577837
vt -1.332560 0.560831
vt -1.328820 0.564572
vt -1.315550 0.547782
vt -1.312910 0.552364
vt -1.295750 0.539579
vt -1.307730 0.561339
vt -1.304690 0.566597
vt -1.290130 0.560565
vt -1.291700 0.554699
vt -1.294380 0.544689
vt -1.274500 0.536781
vt -1.274500 0.542072
vt -1.274500 0.558507
vt -1.254610 0.544689
vt -1.253240 0.539579
vt -1.274500 0.552435
vt -1.236090 0.552364
vt -1.233440 0.547782
vt -1.220180 0.564572
vt -1.216430 0.560831
vt -1.207970 0.580482
vt -1.227500 0.571900
vt -1.257300 0.554699
vt -1.241270 0.561339
vt -1.258870 0.560565
vt -1.244300 0.566597
vt -1.231800 0.576194
vt -1.234550 0.578944
vt -1.246250 0.569966
vt -1.247630 0.572358
vt -1.259870 0.564322
vt -1.260590 0.566990
vt -1.274500 0.565159
vt -1.274500 0.562397
vt -1.289120 0.564322
vt -1.203380 0.577837
vt -1.200290 0.599010
vt -1.195180 0.597641
vt -1.197670 0.618893
vt -1.192380 0.618893
vt -1.195180 0.640145
vt -1.200290 0.638776
vt -1.203380 0.659949
vt -1.216430 0.676955
vt -1.207970 0.657304
vt -1.233440 0.690004
vt -1.220170 0.673214
vt -1.253240 0.698207
vt -1.236090 0.685423
vt -1.227500 0.665886
vt -1.216940 0.652122
vt -1.241270 0.676448
vt -1.231800 0.661592
vt -1.222200 0.649086
vt -1.210300 0.636094
vt -1.208040 0.618893
vt -1.210300 0.601692
vt -1.216940 0.585664
vt -1.216170 0.603264
vt -1.214110 0.618893
vt -1.216170 0.634522
vt -1.218000 0.618893
vt -1.219920 0.633516
vt -1.225570 0.647141
vt -1.222590 0.632801
vt -1.234550 0.658842
vt -1.227960 0.645760
vt -1.220760 0.618893
vt -1.244300 0.671189
vt -1.236500 0.656889
vt -1.247630 0.665429
vt -1.246250 0.667821
vt -1.222590 0.604986
vt -1.219920 0.604271
vt -1.227960 0.592026
vt -1.225570 0.590645
vt -1.222200 0.588700
vt -1.236500 0.580897
vt -1.301360 0.572358
vt -1.288400 0.566990
vt -1.312490 0.580897
vt -1.302740 0.569966
vt -1.314450 0.578944
vt -1.321030 0.592026
vt -1.323420 0.590645
vt -1.317200 0.576194
vt -1.329070 0.604271
vt -1.326400 0.604986
vt -1.330990 0.618893
vt -1.328230 0.618893
vt -1.326400 0.632801
vt -1.260590 0.670797
vt -1.259870 0.673465
vt -1.274500 0.672628
vt -1.274500 0.675390
vt -1.258870 0.677222
vt -1.289120 0.673465
vt -1.288400 0.670797
vt -1.274500 0.679279
vt -1.257300 0.683087
vt -1.274500 0.685351
vt -1.254610 0.693097
vt -1.291700 0.683087
vt -1.274500 0.701005
vt -1.274500 0.695715
vt -1.295750 0.698207
vt -1.294380 0.693097
vt -1.315550 0.690004
vt -1.312910 0.685423
vt -1.332560 0.676955
vt -1.328820 0.673214
vt -1.345610 0.659949
vt -1.341030 0.657304
vt -1.353810 0.640145
vt -1.307730 0.676448
vt -1.321490 0.665886
vt -1.290130 0.677222
vt -1.304690 0.671189
vt -1.302740 0.667821
vt -1.301360 0.665429
vt -1.312490 0.656889
vt -1.314450 0.658842
vt -1.321030 0.645760
vt -1.317200 0.661592
vt -1.323420 0.647141
vt -1.326790 0.649086
vt -1.329070 0.633516
vt -1.332050 0.652122
vt -1.332820 0.634522
vt -1.338690 0.636094
vt -1.334880 0.618893
vt -1.348700 0.638776
vt -1.340950 0.618893
vt -1.332820 0.603264
vt -1.351320 0.618893
vt -1.326790 0.588700
vt -1.265790 0.610189
vt -1.260390 0.604787
vt -1.257220 0.608919
vt -1.264520 0.601617
vt -1.268340 0.608233
vt -1.274500 0.618893
vt -1.269330 0.599624
vt -1.271310 0.607003
vt -1.274500 0.606583
vt -1.274500 0.598944
vt -1.277680 0.607003
vt -1.279660 0.599624
vt -1.280650 0.608233
vt -1.284470 0.601617
vt -1.288600 0.604787
vt -1.283200 0.610189
vt -1.285160 0.612738
vt -1.291770 0.608919
vt -1.286390 0.615707
vt -1.293760 0.613730
vt -1.294440 0.618893
vt -1.286810 0.618893
vt -1.286390 0.622079
vt -1.293760 0.624056
vt -1.291770 0.628868
vt -1.285160 0.625048
vt -1.288600 0.632999
vt -1.283200 0.627597
vt -1.280650 0.629554
vt -1.284470 0.636169
vt -1.277680 0.630783
vt -1.279660 0.638162
vt -1.274500 0.638842
vt -1.274500 0.631203
vt -1.269330 0.638162
vt -1.271310 0.630783
vt -1.264520 0.636169
vt -1.268340 0.629554
vt -1.260390 0.632999
vt -1.265790 0.627597
vt -1.263840 0.625048
vt -1.262610 0.622079
vt -1.257220 0.628868
vt -1.254550 0.618893
vt -1.255230 0.624056
vt -1.262190 0.618893
vt -1.255230 0.613730
vt -1.262610 0.615707
vt -1.263840 0.612738
s 1
usemtl Handle1Mtl.057
f 3/1/1 2/2/2 1/3/3
f 2/2/2 3/1/1 4/4/4
f 3/1/1 5/5/5 4/4/4
f 6/6/6 4/4/4 5/5/5
f 4/4/4 7/7/7 2/2/2
f 4/4/4 6/6/6 8/8/8
f 7/7/7 4/4/4 8/8/8
f 9/9/9 8/8/8 6/6/6
f 8/8/8 10/10/10 7/7/7
f 8/8/8 9/9/9 11/11/11
f 10/10/10 8/8/8 11/11/11
f 16/12/12 12/13/13 13/14/14
f 17/15/15 13/14/14 15/16/16
f 13/14/14 17/15/15 16/12/12
f 12/13/13 16/12/12 18/17/17
f 18/17/17 14/18/18 12/13/13
f 19/19/19 18/17/17 16/12/12
f 16/12/12 20/20/20 19/19/19
f 20/20/20 16/12/12 17/15/15
f 18/17/17 19/19/19 21/21/21
f 21/21/21 22/22/22 18/17/17
f 14/18/18 18/17/17 22/22/22
f 22/22/22 21/21/21 23/23/23
f 22/22/22 23/23/23 24/24/24
f 24/24/24 25/25/25 22/22/22
f 22/22/22 25/25/25 14/18/18
f 25/25/25 24/24/24 26/26/26
f 27/27/27 14/18/18 25/25/25
f 26/26/26 28/28/28 25/25/25
f 27/27/27 25/25/25 28/28/28
f 28/28/28 26/26/26 29/29/29
f 30/30/30 27/27/27 28/28/28
f 29/29/29 31/31/31 28/28/28
f 30/30/30 28/28/28 31/31/31
f 32/32/32 30/30/30 31/31/31
f 36/33/33 35/34/34 33/35/35
f 35/34/34 36/33/33 37/36/36
f 37/36/36 34/37/37 35/34/34
f 38/38/38 37/36/36 36/33/33
f 37/36/36 38/38/38 39/39/39
f 40/40/40 39/39/39 38/38/38
f 34/37/37 37/36/36 41/41/41
f 39/39/39 41/41/41 37/36/36
f 39/39/39 40/40/40 3/1/1
f 5/5/5 3/1/1 40/40/40
f 41/41/41 39/39/39 42/42/42
f 3/1/1 42/42/42 39/39/39
f 42/42/42 3/1/1 1/3/3
f 47/43/43 45/44/44 46/45/45
f 48/46/46 47/43/43 46/45/45
f 47/43/43 48/46/46 49/47/47
f 50/48/48 49/47/47 48/46/46
f 49/47/47 50/48/48 51/49/49
f 52/50/50 51/49/49 50/48/48
f 55/19/51 53/51/52 54/20/53
f 53/51/52 55/19/51 56/52/54
f 57/21/55 56/52/54 55/19/51
f 56/52/54 58/53/56 53/51/52
f 56/52/54 57/21/55 59/54/57
f 60/23/58 59/54/57 57/21/55
f 58/53/56 56/52/54 51/49/49
f 59/54/57 51/49/49 56/52/54
f 51/49/49 52/50/50 58/53/56
f 51/49/49 59/54/57 49/47/47
f 59/54/57 60/23/58 61/55/59
f 61/55/59 49/47/47 59/54/57
f 60/23/58 62/56/60 61/55/59
f 62/56/60 60/23/58 63/24/61
f 49/47/47 61/55/59 47/43/43
f 64/57/62 61/55/59 62/56/60
f 61/55/59 64/57/62 47/43/43
f 63/24/61 65/58/63 62/56/60
f 65/58/63 63/24/61 66/26/64
f 62/56/60 67/59/65 64/57/62
f 67/59/65 62/56/60 65/58/63
f 45/44/44 47/43/43 64/57/62
f 44/60/66 64/57/62 67/59/65
f 64/57/62 44/60/66 45/44/44
f 66/26/64 68/61/67 65/58/63
f 68/61/67 66/26/64 69/29/68
f 70/62/69 65/58/63 68/61/67
f 65/58/63 70/62/69 67/59/65
f 43/63/70 67/59/65 70/62/69
f 67/59/65 43/63/70 44/60/66
f 76/64/71 75/65/72 74/66/73
f 75/65/72 76/64/71 78/67/74
f 78/67/74 77/68/75 75/65/72
f 79/69/76 78/67/74 76/64/71
f 78/67/74 79/69/76 80/70/77
f 81/71/78 80/70/77 79/69/76
f 77/68/75 78/67/74 82/72/79
f 80/70/77 82/72/79 78/67/74
f 80/70/77 81/71/78 83/73/80
f 82/72/79 80/70/77 84/74/81
f 83/73/80 84/74/81 80/70/77
f 85/75/82 83/73/80 81/71/78
f 87/76/31 71/77/83 88/78/84
f 86/79/85 89/80/86 87/76/31
f 71/77/83 87/76/31 89/80/86
f 89/80/86 86/79/85 90/81/87
f 90/81/87 91/82/88 89/80/86
f 91/82/88 90/81/87 92/83/89
f 89/80/86 72/84/90 71/77/83
f 72/84/90 89/80/86 91/82/88
f 92/83/89 93/85/91 91/82/88
f 93/85/91 92/83/89 94/86/92
f 93/85/91 94/86/92 95/87/93
f 73/88/94 91/82/88 93/85/91
f 91/82/88 73/88/94 72/84/90
f 95/87/93 96/89/95 93/85/91
f 93/85/91 96/89/95 73/88/94
f 96/89/95 95/87/93 97/90/96
f 97/90/96 98/91/97 96/89/95
f 98/91/97 97/90/96 99/92/98
f 100/93/99 96/89/95 98/91/97
f 100/93/99 73/88/94 96/89/95
f 99/92/98 101/94/100 98/91/97
f 102/95/101 100/93/99 98/91/97
f 102/95/101 98/91/97 101/94/100
f 103/96/102 102/95/101 101/94/100
f 84/74/81 83/73/80 104/97/103
f 83/73/80 105/98/104 104/97/103
f 105/98/104 83/73/80 106/99/105
f 83/73/80 85/75/82 106/99/105
f 107/100/106 106/99/105 85/75/82
f 106/99/105 108/101/107 105/98/104
f 106/99/105 107/100/106 109/102/108
f 108/101/107 106/99/105 109/102/108
f 110/103/35 109/102/108 107/100/106
f 109/102/108 111/104/37 108/101/107
f 109/102/108 110/103/35 112/105/34
f 111/104/37 109/102/108 112/105/34
f 115/106/109 113/107/110 114/108/111
f 114/108/111 116/109/112 115/106/109
f 117/110/113 115/106/109 116/109/112
f 116/109/112 114/108/111 118/111/114
f 116/109/112 119/112/115 117/110/113
f 120/86/116 117/110/113 119/112/115
f 118/111/114 121/113/117 116/109/112
f 119/112/115 116/109/112 121/113/117
f 121/113/117 118/111/114 122/114/118
f 123/115/119 121/113/117 122/114/118
f 124/116/120 119/112/115 121/113/117
f 121/113/117 123/115/119 124/116/120
f 125/117/121 120/86/116 119/112/115
f 119/112/115 124/116/120 125/117/121
f 120/86/116 125/117/121 126/83/122
f 127/118/123 124/116/120 123/115/119
f 128/119/124 125/117/121 124/116/120
f 124/116/120 127/118/123 128/119/124
f 129/120/125 126/83/122 125/117/121
f 125/117/121 128/119/124 129/120/125
f 126/83/122 129/120/125 130/81/126
f 131/121/127 128/119/124 127/118/123
f 128/119/124 131/121/127 132/122/128
f 132/122/128 129/120/125 128/119/124
f 129/120/125 132/122/128 133/123/129
f 133/123/129 130/81/126 129/120/125
f 130/81/126 133/123/129 134/79/130
f 135/90/131 136/124/132 137/125/133
f 136/124/132 135/90/131 138/92/134
f 137/125/133 139/87/135 135/90/131
f 140/126/56 137/125/133 136/124/132
f 139/87/135 137/125/133 117/110/113
f 117/110/113 120/86/116 139/87/135
f 137/125/133 140/126/56 115/106/109
f 115/106/109 117/110/113 137/125/133
f 113/107/110 115/106/109 140/126/56
f 141/127/136 142/128/136 143/129/136
f 141/127/136 143/129/136 144/130/136
f 145/131/137 141/127/136 146/132/136
f 147/133/136 141/127/136 145/131/137
f 147/133/136 148/134/136 141/127/136
f 142/128/136 141/127/136 148/134/136
f 148/134/136 147/133/136 149/135/136
f 149/135/136 147/133/136 150/136/136
f 148/134/136 149/135/136 151/137/136
f 151/137/136 149/135/136 152/138/136
f 151/137/136 152/138/136 153/139/138
f 154/140/136 142/128/136 148/134/136
f 155/141/136 154/140/136 156/142/137
f 142/128/136 154/140/136 155/141/136
f 142/128/136 157/143/136 143/129/136
f 158/144/136 143/129/136 157/143/136
f 158/144/136 159/145/136 143/129/136
f 159/145/136 158/144/136 160/146/136
f 157/143/136 142/128/136 161/147/138
f 161/147/138 142/128/136 162/148/136
f 161/147/138 162/148/136 163/149/139
f 162/148/136 142/128/136 164/150/136
f 168/151/140 167/152/141 166/153/142
f 167/152/141 168/151/140 169/154/143
f 169/154/143 165/155/144 167/152/141
f 170/156/145 169/154/143 168/151/140
f 169/154/143 170/156/145 171/157/146
f 172/158/147 171/157/146 170/156/145
f 171/157/146 172/158/147 173/159/148
f 174/160/149 173/159/148 172/158/147
f 171/157/146 175/161/150 169/154/143
f 165/155/144 169/154/143 175/161/150
f 175/161/150 171/157/146 176/162/151
f 173/159/148 176/162/151 171/157/146
f 176/162/151 173/159/148 177/163/152
f 173/159/148 178/164/153 177/163/152
f 173/159/148 174/160/149 179/165/154
f 178/164/153 173/159/148 179/165/154
f 180/166/155 179/165/154 174/160/149
f 179/165/154 180/166/155 181/167/156
f 182/168/73 181/167/156 180/166/155
f 179/165/154 183/169/157 178/164/153
f 183/169/157 179/165/154 181/167/156
f 181/167/156 182/168/73 184/170/72
f 181/167/156 185/171/75 183/169/157
f 185/171/75 181/167/156 184/170/72
f 186/172/158 189/173/159 187/174/100
f 189/173/159 186/172/158 190/175/160
f 187/174/100 191/176/161 188/177/162
f 191/176/161 187/174/100 189/173/159
f 189/173/159 192/178/163 191/176/161
f 192/178/163 189/173/159 193/179/164
f 190/175/160 193/179/164 189/173/159
f 193/179/164 190/175/160 194/180/165
f 194/180/165 195/181/166 193/179/164
f 195/181/166 194/180/165 196/182/167
f 195/181/166 196/182/167 197/183/168
f 198/184/169 193/179/164 195/181/166
f 193/179/164 198/184/169 192/178/163
f 197/183/168 199/185/170 195/181/166
f 195/181/166 199/185/170 198/184/169
f 199/185/170 197/183/168 200/186/171
f 201/187/172 198/184/169 199/185/170
f 200/186/171 202/188/173 199/185/170
f 201/187/172 199/185/170 202/188/173
f 202/188/173 200/186/171 203/189/174
f 204/190/175 201/187/172 202/188/173
f 203/189/174 205/191/176 202/188/173
f 204/190/175 202/188/173 205/191/176
f 206/192/177 204/190/175 205/191/176
f 211/193/178 209/194/179 210/195/180
f 209/194/179 211/193/178 212/196/128
f 213/197/181 212/196/128 211/193/178
f 212/196/128 213/197/181 214/198/182
f 215/186/183 214/198/182 213/197/181
f 214/198/182 215/186/183 216/189/184
f 219/175/185 217/199/186 218/172/187
f 217/199/186 219/175/185 221/200/188
f 221/200/188 220/201/189 217/199/186
f 222/180/190 221/200/188 219/175/185
f 220/201/189 221/200/188 223/202/191
f 223/202/191 207/203/192 220/201/189
f 221/200/188 222/180/190 224/204/193
f 224/204/193 223/202/191 221/200/188
f 225/182/194 224/204/193 222/180/190
f 207/203/192 223/202/191 208/205/195
f 223/202/191 224/204/193 226/206/196
f 226/206/196 208/205/195 223/202/191
f 224/204/193 225/182/194 227/207/197
f 227/207/197 226/206/196 224/204/193
f 225/182/194 228/208/198 227/207/197
f 228/208/198 225/182/194 229/183/199
f 226/206/196 227/207/197 230/209/200
f 208/205/195 226/206/196 231/210/201
f 230/209/200 231/210/201 226/206/196
f 227/207/197 232/211/202 230/209/200
f 232/211/202 227/207/197 228/208/198
f 233/212/203 230/209/200 232/211/202
f 229/183/199 213/197/181 228/208/198
f 213/197/181 229/183/199 215/186/183
f 228/208/198 211/193/178 232/211/202
f 211/193/178 228/208/198 213/197/181
f 230/209/200 233/212/203 234/213/204
f 231/210/201 230/209/200 234/213/204
f 232/211/202 210/195/180 233/212/203
f 210/195/180 232/211/202 211/193/178
f 238/64/205 237/65/11 235/66/9
f 237/65/11 238/64/205 239/67/206
f 239/67/206 236/68/10 237/65/11
f 240/69/207 239/67/206 238/64/205
f 236/68/10 239/67/206 241/72/208
f 239/67/206 240/69/207 242/70/209
f 242/70/209 241/72/208 239/67/206
f 243/71/210 242/70/209 240/69/207
f 242/70/209 243/71/210 244/73/211
f 241/72/208 242/70/209 245/74/212
f 244/73/211 245/74/212 242/70/209
f 245/74/212 244/73/211 246/97/213
f 244/73/211 247/98/214 246/97/213
f 247/98/214 244/73/211 248/99/215
f 248/99/215 249/101/216 247/98/214
f 249/101/216 248/99/215 250/102/217
f 250/102/217 251/104/144 249/101/216
f 248/99/215 252/100/218 250/102/217
f 252/100/218 248/99/215 253/75/219
f 254/103/142 250/102/217 252/100/218
f 244/73/211 253/75/219 248/99/215
f 253/75/219 244/73/211 243/71/210
f 250/102/217 254/103/142 255/105/220
f 251/104/144 250/102/217 255/105/220
f 256/96/221 258/95/222 257/94/15
f 259/92/223 257/94/15 260/91/224
f 258/95/222 260/91/224 257/94/15
f 260/91/224 261/90/225 259/92/223
f 262/79/226 264/80/227 263/76/176
f 264/80/227 262/79/226 265/81/228
f 265/81/228 266/82/229 264/80/227
f 266/82/229 265/81/228 267/83/230
f 268/84/231 264/80/227 266/82/229
f 267/83/230 269/85/232 266/82/229
f 269/85/232 267/83/230 270/86/233
f 269/85/232 270/86/233 271/87/234
f 272/88/235 266/82/229 269/85/232
f 266/82/229 272/88/235 268/84/231
f 271/87/234 273/89/236 269/85/232
f 269/85/232 273/89/236 272/88/235
f 273/89/236 271/87/234 261/90/225
f 261/90/225 260/91/224 273/89/236
f 274/93/237 273/89/236 260/91/224
f 274/93/237 272/88/235 273/89/236
f 258/95/222 274/93/237 260/91/224
f 264/80/227 268/84/231 275/77/238
f 275/77/238 263/76/176 264/80/227
f 263/76/176 275/77/238 276/78/239
f 281/113/240 279/111/241 280/114/242
f 282/115/243 281/113/240 280/114/242
f 281/113/240 282/115/243 283/116/244
f 284/118/245 283/116/244 282/115/243
f 288/81/246 286/123/247 287/79/68
f 286/123/247 288/81/246 290/120/248
f 290/120/248 289/122/69 286/123/247
f 291/83/249 290/120/248 288/81/246
f 289/122/69 290/120/248 292/119/250
f 292/119/250 285/121/251 289/122/69
f 290/120/248 291/83/249 293/117/252
f 293/117/252 292/119/250 290/120/248
f 294/86/253 293/117/252 291/83/249
f 292/119/250 293/117/252 283/116/244
f 293/117/252 294/86/253 295/112/254
f 295/112/254 283/116/244 293/117/252
f 283/116/244 284/118/245 292/119/250
f 285/121/251 292/119/250 284/118/245
f 283/116/244 295/112/254 281/113/240
f 294/86/253 296/110/255 295/112/254
f 296/110/255 294/86/253 297/87/256
f 298/109/257 295/112/254 296/110/255
f 295/112/254 298/109/257 281/113/240
f 297/87/256 299/125/258 296/110/255
f 299/125/258 297/87/256 300/90/259
f 296/110/255 301/106/260 298/109/257
f 301/106/260 296/110/255 299/125/258
f 279/111/241 281/113/240 298/109/257
f 278/108/261 298/109/257 301/106/260
f 298/109/257 278/108/261 279/111/241
f 300/90/259 302/124/262 299/125/258
f 302/124/262 300/90/259 303/92/187
f 304/126/263 299/125/258 302/124/262
f 299/125/258 304/126/263 301/106/260
f 277/107/264 301/106/260 304/126/263
f 301/106/260 277/107/264 278/108/261
f 305/214/265 306/215/266 307/216/267
f 308/217/268 305/214/265 307/216/267
f 305/214/265 309/218/269 306/215/266
f 308/217/268 310/219/270 311/220/271
f 311/220/271 305/214/265 308/217/268
f 305/214/265 311/220/271 312/221/272
f 312/221/272 313/222/273 305/214/265
f 314/223/274 305/214/265 313/222/273
f 309/218/269 305/214/265 314/223/274
f 315/224/275 314/223/274 313/222/273
f 314/223/274 315/224/275 317/225/276
f 316/226/277 317/225/276 315/224/275
f 314/223/274 318/227/278 309/218/269
f 318/227/278 314/223/274 317/225/276
f 319/228/279 309/218/269 318/227/278
f 318/227/278 320/229/280 319/228/279
f 317/225/276 321/230/281 318/227/278
f 320/229/280 318/227/278 321/230/281
f 317/225/276 316/226/277 322/231/282
f 321/230/281 317/225/276 322/231/282
f 323/232/213 322/231/282 316/226/277
f 324/233/283 321/230/281 322/231/282
f 322/231/282 323/232/213 324/233/283
f 321/230/281 325/234/284 320/229/280
f 323/232/213 327/235/285 324/233/283
f 327/235/285 323/232/213 326/236/286
f 321/230/281 324/233/283 328/237/287
f 327/235/285 328/237/287 324/233/283
f 325/234/284 321/230/281 328/237/287
f 326/236/286 329/238/288 327/235/285
f 329/238/288 326/236/286 330/239/289
f 332/240/290 330/239/289 331/241/291
f 330/239/289 332/240/290 329/238/288
f 331/241/291 333/242/292 332/240/290
f 332/240/290 333/242/292 334/243/293
f 334/243/293 329/238/288 332/240/290
f 329/238/288 335/244/294 327/235/285
f 328/237/287 327/235/285 335/244/294
f 329/238/288 334/243/293 336/245/295
f 335/244/294 329/238/288 336/245/295
f 337/246/296 328/237/287 335/244/294
f 335/244/294 336/245/295 337/246/296
f 328/237/287 337/246/296 325/234/284
f 336/245/295 334/243/293 338/247/297
f 337/246/296 336/245/295 338/247/297
f 334/243/293 339/248/298 338/247/297
f 340/249/299 338/247/297 339/248/298
f 338/247/297 340/249/299 341/250/300
f 341/250/300 337/246/296 338/247/297
f 341/250/300 340/249/299 342/251/83
f 342/251/83 343/252/301 341/250/300
f 337/246/296 341/250/300 343/252/301
f 343/252/301 342/251/83 344/253/302
f 345/254/94 343/252/301 344/253/302
f 346/255/303 337/246/296 343/252/301
f 343/252/301 345/254/94 346/255/303
f 337/246/296 346/255/303 325/234/284
f 345/254/94 347/256/304 346/255/303
f 346/255/303 320/229/280 325/234/284
f 320/229/280 346/255/303 347/256/304
f 333/242/292 331/241/291 348/257/305
f 351/258/306 348/257/305 349/259/307
f 348/257/305 351/258/306 333/242/292
f 352/260/308 349/259/307 350/261/309
f 349/259/307 352/260/308 351/258/306
f 353/262/310 352/260/308 350/261/309
f 352/260/308 353/262/310 354/263/311
f 355/264/312 354/263/311 353/262/310
f 356/265/313 357/266/314 355/264/312
f 354/263/311 355/264/312 357/266/314
f 356/265/313 358/267/315 359/268/316
f 357/266/314 356/265/313 359/268/316
f 358/267/315 360/269/317 361/270/318
f 359/268/316 358/267/315 361/270/318
f 362/271/319 357/266/314 359/268/316
f 361/270/318 362/271/319 359/268/316
f 357/266/314 362/271/319 363/272/320
f 363/272/320 354/263/311 357/266/314
f 362/271/319 361/270/318 364/273/321
f 365/274/322 363/272/320 362/271/319
f 362/271/319 364/273/321 365/274/322
f 363/272/320 365/274/322 366/275/323
f 354/263/311 363/272/320 367/276/324
f 366/275/323 367/276/324 363/272/320
f 368/277/325 354/263/311 367/276/324
f 354/263/311 368/277/325 352/260/308
f 368/277/325 351/258/306 352/260/308
f 351/258/306 368/277/325 369/278/326
f 369/278/326 370/279/327 351/258/306
f 333/242/292 351/258/306 370/279/327
f 368/277/325 371/280/328 369/278/326
f 371/280/328 370/279/327 369/278/326
f 367/276/324 372/281/329 368/277/325
f 371/280/328 368/277/325 372/281/329
f 372/281/329 367/276/324 373/282/330
f 367/276/324 366/275/323 373/282/330
f 373/282/330 374/283/331 372/281/329
f 374/283/331 371/280/328 372/281/329
f 366/275/323 375/284/332 373/282/330
f 374/283/331 373/282/330 375/284/332
f 375/284/332 366/275/323 376/285/333
f 376/285/333 377/286/334 375/284/332
f 377/286/334 374/283/331 375/284/332
f 366/275/323 378/287/335 376/285/333
f 378/287/335 366/275/323 365/274/322
f 377/286/334 376/285/333 379/288/336
f 378/287/335 379/288/336 376/285/333
f 374/283/331 377/286/334 380/289/337
f 365/274/322 381/290/338 378/287/335
f 365/274/322 364/273/321 381/290/338
f 379/288/336 378/287/335 382/291/339
f 378/287/335 383/292/222 382/291/339
f 383/292/222 378/287/335 384/293/340
f 378/287/335 381/290/338 384/293/340
f 385/294/341 374/283/331 380/289/337
f 374/283/331 385/294/341 386/295/342
f 371/280/328 374/283/331 386/295/342
f 385/294/341 387/296/343 386/295/342
f 386/295/342 388/297/344 371/280/328
f 388/297/344 386/295/342 387/296/343
f 389/298/345 371/280/328 388/297/344
f 370/279/327 371/280/328 389/298/345
f 387/296/343 340/249/299 388/297/344
f 388/297/344 340/249/299 389/298/345
f 340/249/299 387/296/343 390/299/346
f 340/249/299 390/299/346 342/251/83
f 339/248/298 389/298/345 340/249/299
f 334/243/293 389/298/345 339/248/298
f 389/298/345 334/243/293 370/279/327
f 333/242/292 370/279/327 334/243/293
f 392/300/101 347/256/304 391/301/347
f 347/256/304 345/254/94 391/301/347
f 393/302/348 395/303/349 392/300/101
f 347/256/304 392/300/101 395/303/349
f 395/303/349 393/302/348 396/304/350
f 393/302/348 394/305/351 396/304/350
f 319/228/279 347/256/304 395/303/349
f 396/304/350 319/228/279 395/303/349
f 397/306/352 396/304/350 394/305/351
f 396/304/350 397/306/352 398/307/353
f 319/228/279 396/304/350 398/307/353
f 394/305/351 399/308/354 397/306/352
f 347/256/304 319/228/279 320/229/280
f 399/308/354 394/305/351 400/309/355
f 402/310/356 400/309/355 401/311/357
f 400/309/355 402/310/356 399/308/354
f 403/312/358 402/310/356 401/311/357
f 384/293/340 407/313/359 383/292/222
f 407/313/359 384/293/340 408/314/360
f 408/314/360 406/315/235 407/313/359
f 381/290/338 408/314/360 384/293/340
f 406/315/235 408/314/360 409/316/361
f 408/314/360 381/290/338 410/317/362
f 410/317/362 409/316/361 408/314/360
f 409/316/361 411/318/363 406/315/235
f 405/319/364 406/315/235 411/318/363
f 409/316/361 410/317/362 412/320/365
f 412/320/365 411/318/363 409/316/361
f 413/321/366 410/317/362 381/290/338
f 364/273/321 413/321/366 381/290/338
f 361/270/318 413/321/366 364/273/321
f 413/321/366 414/322/367 410/317/362
f 412/320/365 410/317/362 414/322/367
f 413/321/366 361/270/318 415/323/368
f 415/323/368 414/322/367 413/321/366
f 360/269/317 415/323/368 361/270/318
f 414/322/367 416/324/369 412/320/365
f 360/269/317 417/325/370 415/323/368
f 414/322/367 415/323/368 418/326/371
f 418/326/371 415/323/368 417/325/370
f 418/326/371 416/324/369 414/322/367
f 417/325/370 419/327/372 418/326/371
f 420/328/373 418/326/371 419/327/372
f 416/324/369 418/326/371 420/328/373
f 421/329/374 420/328/373 419/327/372
f 420/328/373 421/329/374 422/330/375
f 422/330/375 416/324/369 420/328/373
f 423/331/376 422/330/375 421/329/374
f 422/330/375 423/331/376 424/332/377
f 425/333/378 424/332/377 423/331/376
f 424/332/377 425/333/378 427/334/379
f 426/335/380 427/334/379 425/333/378
f 424/332/377 428/336/381 422/330/375
f 416/324/369 422/330/375 428/336/381
f 428/336/381 424/332/377 429/337/382
f 427/334/379 429/337/382 424/332/377
f 428/336/381 430/338/383 416/324/369
f 430/338/383 412/320/365 416/324/369
f 411/318/363 412/320/365 430/338/383
f 430/338/383 428/336/381 431/339/384
f 429/337/382 431/339/384 428/336/381
f 430/338/383 432/340/385 411/318/363
f 432/340/385 430/338/383 431/339/384
f 433/341/238 411/318/363 432/340/385
f 411/318/363 433/341/238 405/319/364
f 432/340/385 434/342/386 433/341/238
f 434/342/386 432/340/385 435/343/387
f 435/343/387 404/344/388 434/342/386
f 431/339/384 435/343/387 432/340/385
f 435/343/387 431/339/384 436/345/389
f 431/339/384 429/337/382 436/345/389
f 404/344/388 435/343/387 437/346/390
f 436/345/389 437/346/390 435/343/387
f 429/337/382 438/347/391 436/345/389
f 437/346/390 436/345/389 438/347/391
f 439/348/392 404/344/388 437/346/390
f 438/347/391 439/348/392 437/346/390
f 404/344/388 439/348/392 403/312/358
f 438/347/391 429/337/382 440/349/393
f 429/337/382 427/334/379 440/349/393
f 439/348/392 402/310/356 403/312/358
f 439/348/392 438/347/391 441/350/394
f 441/350/394 402/310/356 439/348/392
f 442/351/395 438/347/391 440/349/393
f 438/347/391 442/351/395 441/350/394
f 427/334/379 442/351/395 440/349/393
f 402/310/356 441/350/394 443/352/396
f 442/351/395 427/334/379 444/353/397
f 427/334/379 426/335/380 444/353/397
f 442/351/395 445/354/398 441/350/394
f 441/350/394 445/354/398 443/352/396
f 444/353/397 445/354/398 442/351/395
f 443/352/396 446/355/399 402/310/356
f 445/354/398 446/355/399 443/352/396
f 446/355/399 399/308/354 402/310/356
f 445/354/398 444/353/397 447/356/400
f 426/335/380 310/219/270 444/353/397
f 444/353/397 310/219/270 447/356/400
f 446/355/399 448/357/401 399/308/354
f 397/306/352 399/308/354 448/357/401
f 448/357/401 398/307/353 397/306/352
f 307/216/267 448/357/401 446/355/399
f 446/355/399 445/354/398 307/216/267
f 306/215/266 398/307/353 448/357/401
f 448/357/401 307/216/267 306/215/266
f 398/307/353 306/215/266 309/218/269
f 309/218/269 319/228/279 398/307/353
f 447/356/400 308/217/268 445/354/398
f 308/217/268 307/216/267 445/354/398
f 310/219/270 308/217/268 447/356/400
f 449/358/402 450/359/403 451/360/404
f 449/358/402 452/361/405 450/359/403
f 452/361/405 449/358/402 453/362/406
f 449/358/402 454/363/407 453/362/406
f 453/362/406 455/364/408 452/361/405
f 455/364/408 453/362/406 456/365/409
f 453/362/406 454/363/407 456/365/409
f 457/366/410 455/364/408 456/365/409
f 456/365/409 454/363/407 457/366/410
f 455/364/408 457/366/410 458/367/242
f 459/368/411 458/367/242 457/366/410
f 457/366/410 454/363/407 459/368/411
f 458/367/242 459/368/411 460/369/412
f 462/370/413 460/369/412 459/368/411
f 460/369/412 462/370/413 461/371/414
f 459/368/411 454/363/407 462/370/413
f 462/370/413 463/372/415 461/371/414
f 463/372/415 462/370/413 464/373/416
f 462/370/413 454/363/407 464/373/416
f 463/372/415 464/373/416 465/374/417
f 464/373/416 454/363/407 465/374/417
f 466/375/418 463/372/415 465/374/417
f 466/375/418 465/374/417 467/376/419
f 465/374/417 454/363/407 467/376/419
f 467/376/419 468/377/420 466/375/418
f 467/376/419 469/378/45 468/377/420
f 469/378/45 467/376/419 470/379/421
f 467/376/419 454/363/407 470/379/421
f 472/380/422 469/378/45 470/379/421
f 472/380/422 471/381/423 469/378/45
f 470/379/421 454/363/407 472/380/422
f 472/380/422 473/382/424 471/381/423
f 473/382/424 472/380/422 474/383/425
f 472/380/422 454/363/407 474/383/425
f 474/383/425 475/384/426 473/382/424
f 475/384/426 474/383/425 476/385/427
f 474/383/425 454/363/407 476/385/427
f 477/386/428 475/384/426 476/385/427
f 476/385/427 454/363/407 477/386/428
f 475/384/426 477/386/428 478/387/429
f 478/387/429 477/386/428 479/388/430
f 477/386/428 454/363/407 479/388/430
f 478/387/429 479/388/430 480/389/431
f 479/388/430 481/390/432 480/389/431
f 481/390/432 479/388/430 482/391/433
f 479/388/430 454/363/407 482/391/433
f 482/391/433 483/392/434 481/390/432
f 483/392/434 482/391/433 484/393/435
f 482/391/433 454/363/407 484/393/435
f 484/393/435 485/394/436 483/392/434
f 485/394/436 484/393/435 486/395/437
f 484/393/435 454/363/407 486/395/437
f 486/395/437 487/396/438 485/394/436
f 486/395/437 454/363/407 488/397/439
f 487/396/438 486/395/437 488/397/439
f 488/397/439 454/363/407 489/398/440
f 489/398/440 487/396/438 488/397/439
f 489/398/440 454/363/407 490/399/441
f 490/399/441 491/400/442 489/398/440
f 487/396/438 489/398/440 491/400/442
f 490/399/441 494/401/443 493/402/444
f 491/400/442 490/399/441 493/402/444
f 495/403/445 492/404/446 494/401/443
f 494/401/443 490/399/441 495/403/445
f 492/404/446 495/403/445 496/405/447
f 492/404/446 496/405/447 497/406/448
f 451/360/404 492/404/446 497/406/448
f 495/403/445 454/363/407 496/405/447
f 490/399/441 454/363/407 495/403/445
f 496/405/447 454/363/407 497/406/448
f 451/360/404 497/406/448 449/358/402
f 497/406/448 454/363/407 449/358/402
