# Blender 5.1.2
# www.blender.org
mtllib Rocket.mtl
o Rocket
v 0.850675 0.078364 0.048923
v 0.850675 0.044434 0.082825
v 0.916295 -0.001916 0.002522
v 0.850675 0.090784 0.002522
v 0.850675 -0.001916 0.095222
v 0.850675 -0.048256 0.082825
v 0.850675 -0.082186 0.048923
v 0.850675 -0.094606 0.002522
v 0.850675 -0.082186 -0.043777
v 0.850675 -0.048256 -0.077679
v 0.850675 -0.001916 -0.090076
v 0.850675 0.044434 -0.077679
v 0.850675 0.078364 -0.043777
v 0.850675 0.078364 0.048923
v 0.457335 0.145954 0.071823
v 0.022135 0.267724 0.158222
v 0.022135 0.309434 0.002521
v 0.457335 0.168834 0.002522
v 0.850675 0.078364 -0.043777
v 0.457335 0.145954 -0.066677
v 0.850675 0.090784 0.002522
v 0.457335 0.168834 0.002522
v 0.850675 0.078364 0.048923
v 0.850675 0.078364 -0.043777
v 0.022135 0.309434 0.002521
v 0.457335 0.145954 0.071823
v 0.457335 0.145954 -0.066677
v 0.022135 0.267724 -0.153076
v -0.111965 0.151934 -0.086277
v -0.111965 0.175734 0.002522
v 0.022135 0.309434 0.002521
v 0.022135 0.267724 0.158222
v -0.111965 0.151934 0.091423
v 0.022135 0.309434 0.002521
v -0.111965 0.175734 0.002522
v 0.022135 0.267724 -0.153076
v -0.111965 0.151934 -0.086277
v -0.214225 -0.049246 0.084522
v -0.355794 -0.064196 0.110424
v -0.214225 -0.083896 0.049923
v -0.355794 -0.109786 0.064823
v -0.355794 -0.126476 0.002522
v -0.214225 -0.083896 -0.044777
v -0.214225 -0.096586 0.002522
v -0.355794 -0.109786 -0.059677
v -0.214225 -0.049246 -0.079376
v -0.355794 -0.064196 -0.105278
v -0.214225 -0.083896 -0.044777
v -0.214225 -0.096586 0.002522
v -0.355794 -0.126476 0.002522
v -0.214225 -0.083896 0.049923
v -0.345135 0.108864 0.194424
v -0.111965 0.151934 0.091423
v -0.111965 0.086914 0.156422
v -0.111965 0.086914 -0.151276
v -0.345135 0.108864 -0.189278
v -0.111965 0.151934 -0.086277
v -0.345135 0.189964 -0.108177
v -0.345135 0.219644 0.002521
v -0.111965 0.175734 0.002522
v -0.111965 0.151934 0.091423
v -0.345135 0.189964 0.113323
v 0.850675 0.044434 0.082825
v 0.850675 -0.048256 0.082825
v 0.457335 -0.001916 0.141022
v 0.457335 0.083464 0.122524
v 0.457335 -0.087286 0.122524
v 0.022135 -0.001906 0.313923
v 0.022135 0.153764 0.272224
v 0.022135 -0.157586 0.272224
v 0.457335 -0.149776 0.071823
v 0.022135 -0.271546 0.158222
v 0.850675 -0.082186 0.048923
v 0.457335 0.145954 0.071823
v 0.022135 0.267724 0.158222
v 0.850675 0.078364 0.048923
v 0.457335 0.145954 0.071823
v 0.457335 0.083464 0.122524
v 0.022135 0.153764 0.272224
v 0.850675 0.044434 0.082825
v 0.022135 -0.001906 0.313923
v 0.457335 -0.001916 0.141022
v 0.850675 -0.001916 0.095222
v 0.850675 -0.048256 0.082825
v 0.457335 -0.087286 0.122524
v 0.850675 -0.082186 0.048923
v 0.022135 0.153764 0.272224
v -0.111965 0.086914 0.156422
v 0.022135 -0.001906 0.313923
v -0.111965 -0.001906 0.180222
v -0.111965 -0.090736 0.156422
v 0.022135 -0.001906 0.313923
v -0.111965 -0.001906 0.180222
v 0.022135 -0.157586 0.272224
v -0.214225 0.080074 -0.044777
v -0.355794 0.105964 -0.059677
v -0.355794 0.060374 -0.105278
v -0.214225 0.045424 -0.079376
v -0.355794 -0.001906 -0.121979
v -0.214225 -0.001906 -0.092075
v -0.214225 -0.049246 -0.079376
v -0.355794 -0.064196 -0.105278
v -0.214225 -0.083896 -0.044777
v -0.355794 -0.109786 -0.059677
v -0.214225 -0.049246 -0.079376
v -0.355794 -0.001906 -0.121979
v -0.355794 -0.064196 -0.105278
v -0.214225 0.045424 -0.079376
v -0.355794 0.060374 -0.105278
v -0.345135 0.108864 0.194424
v -0.111965 0.151934 0.091423
v -0.345135 0.189964 0.113323
v -0.111965 0.086914 0.156422
v -0.345135 -0.001906 0.224121
v -0.111965 -0.001906 0.180222
v -0.111965 -0.090736 0.156422
v -0.345135 -0.112686 0.194424
v -0.111965 -0.155756 0.091423
v -0.345135 -0.193786 0.113323
v -0.345135 -0.001906 -0.218979
v -0.355794 -0.064196 -0.105278
v -0.355794 -0.001906 -0.121979
v -0.355794 0.060374 -0.105278
v -0.345135 0.108864 -0.189278
v -0.355794 0.105964 -0.059677
v -0.345135 0.189964 -0.108177
v -0.345135 0.219644 0.002521
v -0.355794 0.122654 0.002522
v -0.345135 0.189964 0.113323
v -0.355794 0.105964 0.064823
v -0.345135 0.108864 0.194424
v -0.355794 0.060374 0.110424
v -0.345135 -0.001906 0.224121
v -0.355794 -0.064196 0.110424
v -0.355794 -0.001906 0.127121
v -0.355794 -0.109786 0.064823
v -0.345135 -0.112686 0.194424
v -0.345135 -0.223466 0.002522
v -0.355794 -0.126476 0.002522
v -0.355794 -0.109786 -0.059677
v -0.345135 -0.112686 -0.189278
v -0.345135 -0.193786 -0.108177
v -0.355794 -0.001906 0.127121
v -0.345135 -0.001906 0.224121
v -0.355794 0.060374 0.110424
v -0.355794 -0.064196 0.110424
v -0.345135 -0.112686 0.194424
v -0.355794 -0.109786 0.064823
v -0.345135 -0.193786 0.113323
v -0.345135 -0.223466 0.002522
v -0.355794 -0.109786 -0.059677
v -0.345135 -0.193786 -0.108177
v -0.345135 -0.112686 -0.189278
v -0.355794 -0.064196 -0.105278
v -0.345135 -0.001906 -0.218979
v -0.355794 0.060374 -0.105278
v -0.345135 0.108864 -0.189278
v -0.355794 0.105964 -0.059677
v -0.345135 0.219644 0.002521
v -0.345135 0.189964 -0.108177
v -0.355794 0.105964 0.064823
v -0.355794 0.122654 0.002522
v -0.345135 0.189964 0.113323
v -0.214225 0.045424 0.084522
v -0.214225 0.080074 0.049923
v -0.235034 -0.001906 0.002522
v -0.214225 -0.001906 0.097221
v -0.214225 0.092764 0.002522
v -0.214225 -0.049246 0.084522
v -0.214225 0.080074 -0.044777
v -0.214225 -0.083896 0.049923
v -0.214225 -0.096586 0.002522
v -0.214225 0.045424 -0.079376
v -0.214225 -0.083896 -0.044777
v -0.214225 -0.001906 -0.092075
v -0.214225 -0.049246 -0.079376
v -0.111965 0.086914 -0.151276
v 0.022135 0.153764 -0.267078
v -0.111965 0.151934 -0.086277
v 0.022135 0.267724 -0.153076
v 0.022135 0.153764 0.272224
v 0.022135 0.267724 0.158222
v -0.111965 0.151934 0.091423
v -0.111965 0.086914 0.156422
v -0.111965 -0.090736 0.156422
v 0.022135 -0.157586 0.272224
v -0.111965 -0.155756 0.091423
v 0.022135 -0.271546 0.158222
v -0.111965 -0.155756 -0.086277
v -0.111965 -0.090736 -0.151276
v 0.022135 -0.157586 -0.267078
v -0.111965 -0.155756 -0.086277
v 0.022135 -0.271546 -0.153076
v 0.022135 -0.157586 -0.267078
v 0.457335 -0.149776 0.071823
v 0.850675 -0.082186 0.048923
v 0.850675 -0.094606 0.002522
v 0.457335 -0.172656 0.002522
v 0.022135 -0.313256 0.002522
v 0.457335 -0.149776 -0.066677
v 0.022135 -0.271546 -0.153076
v 0.850675 -0.082186 -0.043777
v 0.850675 -0.082186 0.048923
v 0.457335 -0.172656 0.002522
v 0.457335 -0.149776 0.071823
v 0.022135 -0.313256 0.002522
v 0.022135 -0.271546 0.158222
v 0.457335 -0.149776 -0.066677
v -0.111965 -0.155756 0.091423
v 0.022135 -0.313256 0.002522
v -0.111965 -0.179556 0.002522
v -0.111965 -0.155756 -0.086277
v 0.022135 -0.313256 0.002522
v 0.022135 -0.271546 0.158222
v -0.111965 -0.155756 0.091423
v -0.111965 -0.155756 -0.086277
v 0.022135 -0.271546 -0.153076
v -0.355794 0.060374 0.110424
v -0.214225 0.080074 0.049923
v -0.214225 0.045424 0.084522
v -0.355794 0.122654 0.002522
v -0.214225 0.092764 0.002522
v -0.214225 0.080074 -0.044777
v -0.214225 0.080074 0.049923
v -0.355794 0.105964 0.064823
v -0.355794 0.122654 0.002522
v -0.214225 0.080074 -0.044777
v -0.355794 0.105964 -0.059677
v -0.355794 0.060374 -0.105278
v -0.214225 0.045424 -0.079376
v -0.111965 -0.090736 0.156422
v -0.345135 -0.112686 0.194424
v -0.111965 -0.155756 0.091423
v -0.345135 -0.193786 0.113323
v -0.345135 -0.223466 0.002522
v -0.111965 -0.179556 0.002522
v -0.111965 -0.155756 -0.086277
v -0.345135 -0.193786 -0.108177
v -0.345135 -0.112686 -0.189278
v -0.111965 -0.090736 -0.151276
v 0.457335 -0.149776 -0.066677
v 0.850675 -0.082186 -0.043777
v 0.457335 -0.087286 -0.117378
v 0.022135 -0.157586 -0.267078
v 0.022135 -0.001906 -0.308777
v 0.457335 -0.001916 -0.135876
v 0.850675 -0.048256 -0.077679
v 0.850675 -0.001916 -0.090076
v 0.850675 0.044434 -0.077679
v 0.457335 0.083464 -0.117378
v 0.022135 0.153764 -0.267078
v 0.850675 0.078364 -0.043777
v 0.457335 0.145954 -0.066677
v 0.457335 0.145954 -0.066677
v 0.022135 0.267724 -0.153076
v 0.022135 0.153764 -0.267078
v 0.457335 0.083464 -0.117378
v 0.022135 -0.001906 -0.308777
v 0.457335 -0.001916 -0.135876
v 0.850675 0.044434 -0.077679
v 0.850675 -0.001916 -0.090076
v 0.457335 -0.149776 -0.066677
v 0.022135 -0.157586 -0.267078
v 0.022135 -0.271546 -0.153076
v 0.022135 -0.001906 -0.308777
v -0.111965 0.086914 -0.151276
v 0.022135 0.153764 -0.267078
v 0.022135 -0.157586 -0.267078
v 0.022135 -0.001906 -0.308777
v -0.111965 -0.090736 -0.151276
v -0.111965 -0.001906 -0.175076
v -0.111965 0.086914 -0.151276
v -0.355794 0.060374 0.110424
v -0.214225 0.045424 0.084522
v -0.355794 -0.001906 0.127121
v -0.214225 -0.049246 0.084522
v -0.355794 -0.064196 0.110424
v -0.214225 -0.083896 0.049923
v -0.355794 -0.109786 0.064823
v -0.214225 0.080074 0.049923
v -0.355794 0.060374 0.110424
v -0.355794 0.105964 0.064823
v -0.355794 -0.001906 0.127121
v -0.214225 0.045424 0.084522
v -0.214225 -0.001906 0.097221
v -0.214225 -0.049246 0.084522
v -0.111965 -0.155756 -0.086277
v -0.345135 -0.193786 -0.108177
v -0.345135 -0.112686 -0.189278
v -0.111965 -0.090736 -0.151276
v -0.345135 -0.001906 -0.218979
v -0.111965 -0.001906 -0.175076
v -0.111965 0.086914 -0.151276
v -0.345135 0.108864 -0.189278
v -0.111965 0.151934 -0.086277
v -0.345135 0.189964 -0.108177
vn 0.2287 0.8124 0.5364
vn 0.1971 0.4416 0.8753
vn 1.0000 -0.0000 -0.0003
vn 0.2517 0.9678 -0.0000
vn 0.1809 -0.0000 0.9835
vn 0.1971 -0.4415 0.8753
vn 0.2287 -0.8124 0.5364
vn 0.2518 -0.9678 -0.0000
vn 0.2287 -0.8124 -0.5364
vn 0.1971 -0.4416 -0.8753
vn 0.1809 -0.0000 -0.9835
vn 0.1971 0.4416 -0.8753
vn 0.2287 0.8124 -0.5363
vn 0.3293 0.7998 0.5018
vn 0.2835 0.8110 0.5117
vn 0.3139 0.9495 0.0001
vn 0.2834 0.8110 0.5118
vn 0.2287 0.8124 0.5363
vn 0.2757 0.9612 -0.0000
vn 0.2834 0.8110 -0.5117
vn 0.2518 0.9678 -0.0000
vn 0.2288 0.8124 -0.5363
vn 0.2758 0.9612 -0.0000
vn 0.3139 0.9495 -0.0000
vn 0.2835 0.8110 0.5118
vn 0.2835 0.8110 -0.5117
vn 0.3293 0.7998 -0.5018
vn -0.7069 0.6127 -0.3534
vn -0.7071 0.7071 -0.0000
vn -0.7071 0.7071 0.0001
vn -0.7069 0.6127 0.3534
vn -0.2044 0.8489 -0.4874
vn -0.2044 0.4874 -0.8489
vn -0.2044 0.8490 -0.4873
vn -0.2052 0.9787 -0.0000
vn -0.2044 0.8490 0.4873
vn -0.2052 0.9787 0.0001
vn -0.2044 0.4874 0.8489
vn -0.2044 0.8489 0.4874
vn 0.1892 0.8516 0.4889
vn 0.1892 0.4889 0.8516
vn 0.1892 0.4889 -0.8516
vn 0.1892 0.8516 -0.4889
vn 0.1886 0.9821 -0.0000
vn 0.1885 0.9821 -0.0000
vn 0.1893 0.8516 0.4888
vn 0.1892 0.8516 0.4888
vn 0.2924 -0.0000 0.9563
vn 0.2919 0.4496 0.8442
vn 0.2924 -0.0001 0.9563
vn 0.2919 -0.4497 0.8441
vn 0.3632 -0.0001 0.9317
vn 0.3632 0.0001 0.9317
vn 0.3537 0.4401 0.8253
vn 0.3537 -0.4402 0.8253
vn 0.2834 -0.8110 0.5118
vn 0.3293 -0.7998 0.5019
vn 0.2288 -0.8124 0.5364
vn 0.3537 0.4402 0.8253
vn 0.3293 0.7998 0.5019
vn 0.2919 0.4497 0.8441
vn 0.3632 -0.0000 0.9317
vn 0.1810 -0.0000 0.9835
vn 0.1971 -0.4416 0.8753
vn -0.7071 -0.0000 0.7071
vn -0.7069 0.3534 0.6127
vn -0.7069 -0.3534 0.6127
vn -0.2044 -0.4874 0.8489
vn -0.2044 -0.8489 0.4874
vn -0.2044 -0.4873 0.8490
vn -0.2052 -0.0000 0.9787
vn -0.2053 -0.0000 0.9787
vn -0.2044 0.4873 0.8490
vn -0.2052 -0.0001 0.9787
vn 0.1892 0.8515 0.4889
vn 0.1885 -0.0000 0.9821
vn 0.1892 0.4888 0.8516
vn 0.1892 -0.4888 0.8516
vn 0.1892 -0.8516 0.4889
vn 0.1892 -0.4889 0.8516
vn -0.9939 -0.0000 -0.1104
vn -0.9940 -0.0552 -0.0947
vn -0.9940 0.0552 -0.0947
vn -0.9940 0.0947 -0.0552
vn -0.9939 0.1104 -0.0000
vn -0.9940 0.0947 0.0552
vn -0.9940 0.0552 0.0947
vn -0.9939 -0.0000 0.1104
vn -0.9940 -0.0552 0.0947
vn -0.9940 -0.0947 0.0552
vn -0.9939 -0.1104 -0.0000
vn -0.9940 -0.0947 -0.0552
vn -0.9940 -0.0947 0.0553
vn -0.9758 0.1102 0.1889
vn -0.9758 0.1889 0.1102
vn -1.0000 -0.0000 -0.0001
vn -0.9771 -0.0000 0.2128
vn -0.9771 0.2128 -0.0000
vn -0.9758 -0.1102 0.1889
vn -0.9758 0.1889 -0.1102
vn -0.9758 -0.1889 0.1102
vn -0.9771 -0.2128 -0.0000
vn -0.9758 0.1102 -0.1889
vn -0.9758 -0.1889 -0.1102
vn -0.9771 -0.0000 -0.2128
vn -0.9758 -0.1102 -0.1889
vn -0.7069 0.6126 -0.3535
vn -0.7069 0.3535 -0.6126
vn -0.7069 0.3535 0.6126
vn -0.7069 0.6126 0.3535
vn -0.7069 0.6127 0.3535
vn -0.7069 -0.6126 0.3535
vn -0.7069 -0.3535 0.6126
vn -0.7069 -0.6126 -0.3535
vn -0.7069 -0.3535 -0.6126
vn 0.2287 -0.8124 0.5363
vn 0.2757 -0.9612 -0.0000
vn 0.2517 -0.9678 -0.0000
vn 0.2835 -0.8110 0.5118
vn 0.3139 -0.9495 0.0001
vn 0.2758 -0.9612 -0.0000
vn 0.2835 -0.8110 -0.5118
vn 0.3139 -0.9495 -0.0001
vn 0.3293 -0.7998 -0.5018
vn 0.2287 -0.8124 -0.5363
vn 0.2834 -0.8110 -0.5117
vn 0.2835 -0.8110 0.5117
vn 0.3293 -0.7998 0.5018
vn -0.7071 -0.7071 -0.0000
vn -0.7069 -0.6127 0.3534
vn -0.7069 -0.6127 -0.3534
vn -0.7071 -0.7071 0.0001
vn -0.2043 -0.4874 -0.8489
vn -0.2044 -0.8489 -0.4874
vn -0.2044 -0.4874 -0.8489
vn -0.2044 -0.8490 -0.4873
vn -0.2053 -0.9787 -0.0000
vn -0.2044 -0.8490 0.4873
vn -0.2052 -0.9787 -0.0000
vn -0.2052 -0.9787 0.0001
vn 0.1886 -0.9821 -0.0000
vn 0.1892 -0.8516 0.4888
vn 0.1892 -0.8516 -0.4888
vn 0.1892 -0.8516 -0.4889
vn 0.1892 -0.4889 -0.8516
vn 0.2919 -0.4497 -0.8442
vn 0.3537 -0.4402 -0.8253
vn 0.3632 -0.0001 -0.9317
vn 0.2924 -0.0001 -0.9563
vn 0.1810 -0.0000 -0.9835
vn 0.2924 -0.0000 -0.9563
vn 0.2919 0.4497 -0.8442
vn 0.2919 0.4496 -0.8442
vn 0.3632 0.0001 -0.9317
vn 0.3537 0.4401 -0.8253
vn 0.2287 0.8124 -0.5364
vn 0.2835 0.8110 -0.5118
vn 0.3537 0.4402 -0.8253
vn 0.3293 0.7998 -0.5019
vn 0.2919 0.4497 -0.8441
vn 0.3632 -0.0000 -0.9317
vn 0.3293 -0.7998 -0.5019
vn -0.7071 -0.0000 -0.7071
vn -0.7069 0.3534 -0.6127
vn -0.7069 -0.3534 -0.6127
vn -0.2044 -0.4873 -0.8490
vn -0.2052 -0.0001 -0.9787
vn -0.2052 0.0001 -0.9787
vn -0.2044 0.4873 -0.8490
vn -0.2043 0.4874 -0.8489
vn -0.2052 -0.0000 -0.9787
vn 0.1885 -0.0000 -0.9821
vn 0.1892 -0.4888 -0.8516
vn 0.1893 0.4888 -0.8516
vn 0.1892 0.4888 -0.8516
vn 0.1892 0.8515 -0.4889
vt -0.573991 1.355330
vt -0.580776 1.348540
vt -0.564722 1.339270
vt -0.564722 1.357810
vt -0.583260 1.339270
vt -0.580776 1.330000
vt -0.573991 1.323220
vt -0.564722 1.320730
vt -0.555453 1.323220
vt -0.548667 1.330000
vt -0.546183 1.339270
vt -0.548667 1.348540
vt -0.555453 1.355330
vt -0.513100 1.370410
vt -0.600139 1.353120
vt -0.513100 1.339270
vt -0.678808 1.348540
vt -0.600139 1.339270
vt -0.678808 1.330000
vt -0.600139 1.325420
vt -0.678808 1.339270
vt -0.513100 1.308140
vt -0.486279 1.321510
vt -0.486279 1.339270
vt -0.486279 1.357040
vt -0.465828 1.348740
vt -0.437513 1.360850
vt -0.465828 1.355670
vt -0.437513 1.351730
vt -0.437513 1.339270
vt -0.465828 1.329810
vt -0.465828 1.339270
vt -0.437513 1.326820
vt -0.437513 1.317700
vt -0.465828 1.322880
vt -0.439645 1.377650
vt -0.486279 1.370040
vt -0.439645 1.300900
vt -0.486279 1.308500
vt -0.439645 1.339270
vt -0.439645 1.317120
vt -0.439645 1.361430
vt -0.529304 1.339270
vt -0.450635 1.348540
vt -0.529304 1.356350
vt -0.450635 1.330000
vt -0.529304 1.322200
vt -0.616343 1.339270
vt -0.616343 1.370410
vt -0.616343 1.308140
vt -0.529304 1.309700
vt -0.616343 1.285350
vt -0.450635 1.323220
vt -0.529304 1.368850
vt -0.616343 1.393200
vt -0.450635 1.355330
vt -0.450635 1.339270
vt -0.643164 1.357040
vt -0.643164 1.339270
vt -0.643164 1.321510
vt -0.691931 1.351730
vt -0.663616 1.355670
vt -0.691931 1.360850
vt -0.663616 1.348740
vt -0.691931 1.339270
vt -0.663616 1.339270
vt -0.663616 1.329810
vt -0.663616 1.322880
vt -0.691931 1.326820
vt -0.691931 1.317700
vt -0.689798 1.361430
vt -0.643164 1.370040
vt -0.689798 1.377650
vt -0.689798 1.339270
vt -0.689798 1.317120
vt -0.643164 1.308500
vt -0.689798 1.300900
vt -0.609033 1.339270
vt -0.586297 1.326820
vt -0.589635 1.339270
vt -0.586297 1.351730
vt -0.603097 1.361430
vt -0.577178 1.360850
vt -0.586877 1.377650
vt -0.564722 1.383580
vt -0.564722 1.364190
vt -0.542566 1.377650
vt -0.552265 1.360850
vt -0.526347 1.361430
vt -0.543146 1.351730
vt -0.520410 1.339270
vt -0.543146 1.326820
vt -0.539809 1.339270
vt -0.552265 1.317700
vt -0.526347 1.317120
vt -0.564722 1.294960
vt -0.564722 1.314360
vt -0.577178 1.317700
vt -0.603097 1.317120
vt -0.586877 1.300900
vt -0.542566 1.300900
vt -0.548324 1.348740
vt -0.555254 1.355670
vt -0.545787 1.339270
vt -0.564722 1.358210
vt -0.548324 1.329810
vt -0.574189 1.355670
vt -0.555254 1.322880
vt -0.564722 1.320340
vt -0.581119 1.348740
vt -0.574189 1.322880
vt -0.583656 1.339270
vt -0.581119 1.329810
vt -0.582486 1.370040
vt -0.618648 1.370410
vt -0.595491 1.357040
vt -0.595856 1.393200
vt -0.510796 1.370410
vt -0.533587 1.393200
vt -0.546957 1.370040
vt -0.533953 1.357040
vt -0.546957 1.308500
vt -0.510796 1.308140
vt -0.533953 1.321510
vt -0.533587 1.285350
vt -0.582486 1.308500
vt -0.595491 1.321510
vt -0.618648 1.308140
vt -0.595856 1.285350
vt -0.529304 1.353120
vt -0.529304 1.325420
vt -0.600139 1.322200
vt -0.678808 1.323220
vt -0.600139 1.309700
vt -0.600139 1.356350
vt -0.678808 1.355330
vt -0.600139 1.368850
vt -0.513100 1.393200
vt -0.513100 1.285350
s 1
usemtl Handle1Mtl.043
f 1/1/1 2/2/2 3/3/3
f 4/4/4 1/1/1 3/3/3
f 2/2/2 5/5/5 3/3/3
f 5/5/5 6/6/6 3/3/3
f 6/6/6 7/7/7 3/3/3
f 7/7/7 8/8/8 3/3/3
f 8/8/8 9/9/9 3/3/3
f 9/9/9 10/10/10 3/3/3
f 10/10/10 11/11/11 3/3/3
f 11/11/11 12/12/12 3/3/3
f 12/12/12 13/13/13 3/3/3
f 13/13/13 4/4/4 3/3/3
f 16/14/14 15/15/15 17/16/16
f 15/15/17 14/17/18 18/18/19
f 18/18/19 19/19/13 20/20/20
f 21/21/21 22/18/19 23/17/18
f 24/19/22 22/18/19 21/21/21
f 22/18/23 25/16/24 26/15/25
f 27/20/26 25/16/24 22/18/23
f 25/16/24 27/20/26 28/22/27
f 29/23/28 30/24/29 31/16/29
f 34/16/30 33/25/31 32/14/31
f 33/25/31 34/16/30 35/24/29
f 36/22/28 37/23/28 34/16/29
f 40/26/32 39/27/33 38/28/33
f 41/29/34 40/26/34 42/30/35
f 43/31/36 42/30/37 44/32/37
f 42/30/37 43/31/36 45/33/36
f 47/34/38 48/31/39 46/35/38
f 49/32/35 50/30/35 51/26/34
f 53/25/40 52/36/41 54/37/41
f 56/38/42 57/23/43 55/39/42
f 59/40/44 57/23/43 58/41/43
f 57/23/43 59/40/44 60/24/45
f 60/24/45 59/40/44 61/25/46
f 62/42/47 61/25/46 59/40/44
f 65/43/48 63/44/2 66/45/49
f 64/46/6 65/43/50 67/47/51
f 68/48/52 67/47/51 65/43/50
f 68/48/53 66/45/49 69/49/54
f 67/47/51 68/48/52 70/50/55
f 67/47/51 70/50/55 71/51/56
f 71/51/56 70/50/55 72/52/57
f 73/53/58 67/47/51 71/51/56
f 69/49/59 74/54/25 75/55/60
f 78/45/61 76/56/1 77/54/25
f 77/54/25 79/49/59 78/45/61
f 76/56/1 78/45/61 80/44/2
f 78/45/49 81/48/62 82/43/48
f 80/44/2 82/43/48 83/57/63
f 82/43/48 84/46/64 83/57/63
f 84/46/64 85/47/51 86/53/7
f 89/48/65 87/49/66 88/58/66
f 89/48/65 88/58/66 90/59/65
f 91/60/67 92/48/65 93/59/65
f 92/48/65 91/60/67 94/50/67
f 97/61/68 95/62/69 96/63/69
f 98/64/70 99/65/71 100/66/72
f 99/65/71 101/67/73 100/66/72
f 103/68/39 102/69/38 104/70/39
f 105/67/73 106/65/71 107/69/73
f 106/65/74 108/64/70 109/61/70
f 110/71/41 111/72/75 112/73/75
f 114/74/76 113/58/77 110/71/77
f 113/58/77 114/74/76 115/59/76
f 114/74/76 116/60/78 115/59/76
f 116/60/78 114/74/76 117/75/78
f 118/76/79 117/75/80 119/77/79
f 120/78/81 121/79/82 122/80/81
f 123/81/83 120/78/81 122/80/81
f 124/82/83 125/83/84 126/84/84
f 127/85/85 125/83/84 128/86/85
f 129/87/86 130/88/86 131/89/87
f 131/89/87 130/88/86 132/90/87
f 133/91/88 131/89/87 132/90/87
f 134/92/89 133/91/88 135/93/88
f 136/94/90 137/95/89 134/92/89
f 138/96/91 136/94/90 139/97/91
f 140/98/92 138/96/91 139/97/91
f 140/98/92 141/99/82 142/100/92
f 143/93/88 144/91/88 145/90/87
f 144/91/88 146/92/89 147/95/89
f 147/95/89 148/94/90 149/101/93
f 149/101/93 148/94/90 150/96/91
f 150/96/91 151/98/92 152/100/92
f 153/99/82 151/98/92 154/79/82
f 154/79/82 155/78/81 153/99/82
f 155/78/81 156/81/83 157/82/83
f 158/83/84 157/82/83 156/81/83
f 158/83/84 159/85/85 160/84/84
f 161/88/86 159/85/85 162/86/85
f 159/85/85 161/88/86 163/87/86
f 164/102/94 165/103/95 166/3/96
f 167/104/97 164/102/94 166/3/96
f 165/103/95 168/105/98 166/3/96
f 169/106/99 167/104/97 166/3/96
f 168/105/98 170/107/100 166/3/96
f 171/108/101 169/106/99 166/3/96
f 172/109/102 171/108/101 166/3/96
f 170/107/100 173/110/103 166/3/96
f 174/111/104 172/109/102 166/3/96
f 173/110/103 175/112/105 166/3/96
f 176/113/106 174/111/104 166/3/96
f 175/112/105 176/113/106 166/3/96
f 179/114/107 178/115/108 177/116/108
f 178/115/108 179/114/107 180/117/107
f 181/118/109 182/119/110 183/120/111
f 181/118/109 183/120/111 184/121/109
f 187/122/112 186/123/113 185/124/113
f 186/123/113 187/122/112 188/125/112
f 189/126/114 190/127/115 191/128/115
f 192/126/114 194/128/115 193/129/114
f 196/44/116 198/43/117 197/57/118
f 195/130/119 199/48/120 198/43/121
f 200/131/122 199/48/123 201/50/124
f 198/43/117 202/46/125 197/57/118
f 202/46/125 198/43/117 200/131/126
f 204/43/117 203/44/116 205/130/56
f 206/48/120 205/130/127 207/49/128
f 206/48/123 208/131/122 204/43/121
f 210/48/129 209/58/130 211/59/129
f 212/60/131 210/48/129 211/59/129
f 213/48/132 214/49/130 215/58/130
f 213/48/129 216/60/131 217/50/131
f 218/63/133 219/64/134 220/62/135
f 219/64/136 221/65/137 222/66/137
f 221/65/137 223/67/138 222/66/137
f 226/65/139 224/64/136 225/61/136
f 227/67/138 226/65/140 228/69/138
f 227/67/69 229/70/68 230/68/68
f 232/73/80 233/58/79 231/72/80
f 235/74/141 233/58/142 234/71/142
f 233/58/142 235/74/141 236/59/141
f 235/74/141 237/60/143 236/59/141
f 237/60/143 235/74/141 238/75/143
f 237/60/144 239/77/145 240/76/145
f 243/132/146 242/133/9 241/134/122
f 241/134/122 244/22/147 243/132/146
f 245/16/148 243/132/146 244/22/147
f 243/132/146 245/16/148 246/18/149
f 242/133/9 243/132/146 247/19/10
f 246/18/149 247/19/10 243/132/146
f 247/19/10 246/18/149 248/21/150
f 249/17/12 246/18/151 250/135/152
f 250/135/153 245/16/154 251/14/155
f 249/17/12 250/135/152 252/136/156
f 252/136/156 250/135/152 253/137/157
f 254/137/157 256/14/158 255/138/159
f 257/135/160 256/14/158 254/137/157
f 258/16/161 257/135/153 259/18/151
f 259/18/151 260/17/12 261/21/150
f 263/22/147 262/134/122 264/139/162
f 265/16/163 266/25/164 267/14/164
f 269/16/163 268/22/165 270/23/165
f 269/16/163 270/23/165 271/24/163
f 272/25/164 269/16/163 271/24/163
f 274/26/166 275/30/167 273/29/166
f 275/30/168 276/31/169 277/33/169
f 277/33/170 278/35/32 279/34/32
f 280/28/134 281/29/135 282/27/134
f 283/30/171 284/26/166 285/32/171
f 286/31/169 283/30/171 285/32/171
f 289/41/145 287/39/144 288/38/144
f 291/40/172 290/23/173 289/41/173
f 290/23/173 291/40/172 292/24/172
f 291/40/172 293/25/174 292/24/172
f 293/25/174 291/40/172 294/42/175
f 295/37/43 294/42/42 296/36/176
