# Blender 5.1.2
# www.blender.org
mtllib Cannon.mtl
o Cannon
v -2.935574 -0.592483 0.974678
v -2.935574 -0.803963 0.385777
v -2.935574 -1.103493 0.603378
v -2.935574 -0.478073 0.622578
v -2.935574 -0.928443 0.002678
v -2.935574 0.039167 0.974678
v -2.935574 -1.298683 0.002678
v -2.935574 -0.075243 0.622578
v -2.935574 -1.103493 -0.598122
v -2.935574 0.250657 0.385776
v -2.935574 -0.803963 -0.380424
v -2.935574 0.550187 0.603378
v -2.935574 -0.478073 -0.617222
v -2.935574 -0.592484 -0.969322
v -2.935574 0.375137 0.002678
v -2.935574 0.745377 0.002678
v -2.935574 0.550187 -0.598122
v -2.935574 0.039167 -0.969322
v -2.935574 0.250657 -0.380425
v -2.935574 -0.075244 -0.617222
v -1.728434 -0.947243 -0.484524
v -1.728434 0.393937 -0.484524
v -1.728434 -0.532794 -0.785725
v -1.728434 -0.020514 -0.785725
v -1.728434 0.552237 0.002678
v -1.728434 0.393937 0.489876
v -1.728434 -0.020513 0.790977
v -1.728434 -1.105553 0.002678
v -1.728434 -0.947243 0.489876
v -1.728434 -0.532793 0.790978
v -2.935574 0.375137 0.002678
v -2.935574 0.250657 -0.380425
v -1.746984 -0.276653 0.002678
v -2.935574 -0.075244 -0.617222
v -2.935574 -0.478073 -0.617222
v -2.935574 -0.803963 -0.380424
v -2.935574 -0.928443 0.002678
v -2.935574 -0.803963 0.385777
v -2.935574 -0.478073 0.622578
v -1.746984 -0.276653 0.002678
v -2.935574 -0.928443 0.002678
v -2.935574 -0.075243 0.622578
v -2.935574 0.250657 0.385776
v -2.935574 0.375137 0.002678
v -1.005864 -1.030733 -0.545223
v -1.005864 0.011377 -0.883823
v -1.005864 -0.564683 -0.883823
v -1.005864 0.655437 0.002678
v -1.005864 0.477426 -0.545223
v -1.005864 -1.208753 0.002678
v -1.005864 0.477427 0.550476
v -1.005864 0.011377 0.889076
v -1.005864 -0.564683 0.889076
v -1.005864 -1.030733 0.550476
v 1.706316 1.347207 0.002678
v 2.032846 1.397787 0.002678
v 1.951216 1.385147 -0.142124
v 2.032846 1.397787 0.002678
v 1.706316 1.347207 0.002678
v 1.951216 1.385147 0.147377
v 1.787946 1.359847 0.147377
v 1.951216 1.385147 -0.142124
v 1.787946 1.359847 -0.142124
v -1.358604 -0.552063 0.850277
v -1.728434 -0.947243 0.489876
v -1.358604 -0.997673 0.526478
v -1.358604 -1.167883 0.002678
v -1.728434 -1.105553 0.002678
v -1.728434 -0.532793 0.790978
v -1.728434 -0.020513 0.790977
v -1.358604 -0.001253 0.850277
v -1.728434 0.393937 0.489876
v -1.358604 0.444367 0.526478
v -1.358604 0.614577 0.002678
v -1.728434 0.552237 0.002678
v -1.728434 0.393937 -0.484524
v -1.358604 0.614577 0.002678
v -1.358604 0.444367 -0.521225
v -1.728434 0.552237 0.002678
v -1.358604 -0.001253 -0.844925
v -1.728434 -0.020514 -0.785725
v -1.728434 -0.532794 -0.785725
v -1.358604 -0.552064 -0.844925
v -1.728434 -0.947243 -0.484524
v -1.358604 -0.997674 -0.521225
v -1.358604 -1.167883 0.002678
v -1.728434 -1.105553 0.002678
v 1.678906 1.024507 0.397175
v 2.125306 1.083487 0.397175
v 2.054096 1.074077 0.271274
v 2.348506 1.112967 0.002678
v 1.750116 1.033916 0.271274
v 1.455716 0.995027 0.002678
v 1.598126 1.013837 0.002678
v 1.750116 1.033916 -0.266022
v 1.678906 1.024507 -0.391922
v 2.054096 1.074077 -0.266022
v 2.206086 1.094157 0.002678
v 2.125306 1.083487 -0.391922
v 2.054096 1.074077 0.271274
v 2.348506 1.112967 0.002678
v 2.206086 1.094157 0.002678
v 2.054096 1.074077 -0.266022
v 1.678906 1.024507 -0.391922
v 1.750116 1.033916 -0.266022
v 1.455716 0.995027 0.002678
v 1.598126 1.013837 0.002678
v -0.589984 -0.586353 0.955776
v -1.005864 -1.030733 0.550476
v -0.589984 -1.087443 0.591675
v -0.589984 -1.278853 0.002678
v -1.005864 -1.208753 0.002678
v -1.005864 -0.564683 0.889076
v -0.589984 0.033037 0.955776
v -1.005864 0.011377 0.889076
v -1.005864 0.477427 0.550476
v -0.589984 0.534137 0.591675
v -0.589984 0.725537 0.002678
v -1.005864 0.655437 0.002678
v -1.005864 0.477426 -0.545223
v -0.589984 0.725537 0.002678
v -0.589984 0.534137 -0.586422
v -1.005864 0.655437 0.002678
v -0.589984 0.033037 -0.950523
v -1.005864 0.011377 -0.883823
v -1.005864 -0.564683 -0.883823
v -0.589984 -0.586353 -0.950523
v -1.005864 -1.030733 -0.545223
v -0.589984 -1.087443 -0.586422
v -0.589984 -1.278853 0.002678
v -1.005864 -1.208753 0.002678
v 3.888236 -0.409553 0.411678
v 3.746196 -0.938463 0.483475
v 3.888236 -0.624593 0.255478
v 3.746196 -1.094703 0.002678
v 3.888236 -0.706723 0.002678
v 3.524966 -1.402593 0.002678
v 3.937176 -0.276653 0.002678
v 3.524966 -1.187563 0.664478
v 3.246196 -1.600283 0.002678
v 3.746196 -0.529443 0.780678
v 3.888236 -0.143753 0.411678
v 3.524966 -0.624593 1.073475
v 3.888236 0.071277 0.255478
v 3.888236 0.153417 0.002678
v 3.746196 0.541387 0.002678
v 3.746196 0.385157 0.483475
v 3.524966 0.849287 0.002678
v 3.746196 -0.023863 0.780678
v 3.524966 0.634247 0.664478
v 3.246196 1.046967 0.002678
v 3.524966 0.071277 1.073475
v 3.246196 0.794177 0.780678
v 2.937176 1.115087 0.002678
v 3.246196 0.132367 1.261475
v 3.246196 -0.685673 1.261475
v 2.937176 0.849287 0.820675
v -2.177094 0.258017 0.391075
v -2.177094 0.384237 0.002678
v 2.937176 0.153417 1.326275
v -2.177094 -0.072433 0.631176
v 2.937176 -0.706723 1.326275
v -2.177094 -0.480883 0.631176
v -2.177094 -0.811333 0.391075
v 2.937176 -1.402593 0.820675
v 2.937176 -1.668393 0.002678
v -2.177094 -0.937543 0.002678
v 3.246196 -1.347493 0.780678
v 3.888236 0.071277 -0.250122
v 3.746196 0.541387 0.002678
v 3.888236 0.153417 0.002678
v 3.937176 -0.276653 0.002678
v 3.746196 0.385157 -0.478222
v 3.524966 0.849287 0.002678
v 3.888236 -0.143754 -0.406422
v 3.524966 0.634247 -0.659123
v 3.246196 1.046967 0.002678
v 3.746196 -0.023863 -0.775322
v 3.888236 -0.409554 -0.406422
v 3.888236 -0.624593 -0.250122
v 3.888236 -0.706723 0.002678
v 3.746196 -0.938463 -0.478222
v 3.746196 -1.094703 0.002678
v 3.524966 -1.402593 0.002678
v 3.746196 -0.529443 -0.775322
v 3.524966 -1.187563 -0.659122
v 3.246196 -1.600283 0.002678
v 3.524966 -0.624593 -1.068222
v 3.524966 0.071277 -1.068222
v 3.246196 0.132367 -1.256222
v 3.246196 -0.685673 -1.256222
v 3.246196 -1.347493 -0.775322
v 2.937176 -1.668393 0.002678
v 2.937176 -0.706723 -1.321022
v 2.937176 -1.402593 -0.815422
v -2.177094 -0.811333 -0.385822
v -2.177094 -0.937543 0.002678
v -2.177094 -0.480883 -0.625923
v 2.937176 0.153417 -1.321022
v -2.177094 -0.072434 -0.625923
v -2.177094 0.258017 -0.385822
v 2.937176 0.849286 -0.815422
v 2.937176 1.115087 0.002678
v -2.177094 0.384237 0.002678
v 3.246196 0.794177 -0.775322
v 2.054096 1.074077 0.271274
v 1.787946 1.359847 0.147377
v 1.750116 1.033916 0.271274
v 1.598126 1.013837 0.002678
v 1.706316 1.347207 0.002678
v 1.951216 1.385147 0.147377
v 2.206086 1.094157 0.002678
v 2.032846 1.397787 0.002678
v 1.951216 1.385147 -0.142124
v 2.206086 1.094157 0.002678
v 2.054096 1.074077 -0.266022
v 2.032846 1.397787 0.002678
v 1.787946 1.359847 -0.142124
v 1.750116 1.033916 -0.266022
v 1.598126 1.013837 0.002678
v 1.706316 1.347207 0.002678
v 2.129896 0.639667 0.397175
v 1.678906 1.024507 0.397175
v 1.674316 0.639667 0.397175
v 1.455716 0.995027 0.002678
v 1.446526 0.639667 0.002678
v 2.125306 1.083487 0.397175
v 2.357686 0.639667 0.002678
v 2.348506 1.112967 0.002678
v 2.125306 1.083487 -0.391922
v 2.357686 0.639667 0.002678
v 2.129896 0.639667 -0.391922
v 2.348506 1.112967 0.002678
v 1.678906 1.024507 -0.391922
v 1.674316 0.639667 -0.391922
v 1.455716 0.995027 0.002678
v 1.446526 0.639667 0.002678
v -2.177094 -0.550133 0.844276
v -2.935574 -0.592483 0.974678
v -2.177094 -0.992633 0.522877
v -2.935574 -1.103493 0.603378
v -2.935574 -1.298683 0.002678
v -2.177094 -1.161644 0.002678
v -2.935574 0.039167 0.974678
v -2.177094 -0.003173 0.844276
v -2.177094 0.439317 0.522877
v -2.935574 0.550187 0.603378
v -2.935574 0.745377 0.002678
v -2.177094 0.608337 0.002678
v -2.177094 0.439317 -0.517525
v -2.935574 0.745377 0.002678
v -2.177094 0.608337 0.002678
v -2.935574 0.550187 -0.598122
v -2.935574 0.039167 -0.969322
v -2.177094 -0.003173 -0.839024
v -2.177094 -0.550133 -0.839024
v -2.935574 -0.592484 -0.969322
v -2.177094 -0.992633 -0.517525
v -2.935574 -1.103493 -0.598122
v -2.935574 -1.298683 0.002678
v -2.177094 -1.161644 0.002678
v -0.589984 0.725537 0.002678
v -0.589984 -0.586353 -0.950523
v -0.589984 0.033037 -0.950523
v -0.589984 0.534137 -0.586422
v -0.589984 -1.278853 0.002678
v -0.589984 -1.087443 -0.586422
v -0.589984 0.033037 0.955776
v -0.589984 0.534137 0.591675
v -0.589984 -0.586353 0.955776
v -0.589984 -1.087443 0.591675
v -1.358604 0.444367 -0.521225
v -1.358604 -1.167883 0.002678
v -1.358604 -0.997674 -0.521225
v -1.358604 -0.552064 -0.844925
v -1.358604 -0.001253 -0.844925
v -1.358604 0.444367 0.526478
v -1.358604 0.614577 0.002678
v -1.358604 -0.001253 0.850277
v -1.358604 -0.997673 0.526478
v -1.358604 -0.552063 0.850277
v -2.177094 -0.550133 0.844276
v -2.177094 -0.992633 0.522877
v -2.177094 -0.811333 0.391075
v -2.177094 -1.161644 0.002678
v -2.177094 -0.480883 0.631176
v -2.177094 -0.937543 0.002678
v -2.177094 -0.003173 0.844276
v -2.177094 -0.811333 -0.385822
v -2.177094 -0.072433 0.631176
v -2.177094 -0.992633 -0.517525
v -2.177094 -0.480883 -0.625923
v -2.177094 -0.550133 -0.839024
v -2.177094 0.258017 0.391075
v -2.177094 -0.072434 -0.625923
v -2.177094 0.439317 0.522877
v -2.177094 -0.003173 -0.839024
v -2.177094 0.608337 0.002678
v -2.177094 0.384237 0.002678
v -2.177094 0.258017 -0.385822
v -2.177094 0.439317 -0.517525
vn -1.0000 -0.0000 -0.0000
vn -0.4816 -0.8764 -0.0000
vn -0.4816 -0.7105 0.5131
vn -0.4805 -0.2678 0.8351
vn -0.4806 0.2678 0.8351
vn -0.4815 0.7105 0.5132
vn -0.4816 0.8764 -0.0000
vn -0.4816 0.7105 -0.5131
vn -0.4805 0.2678 -0.8351
vn -0.4806 -0.2678 -0.8351
vn -0.4816 -0.7105 -0.5131
vn -0.1491 0.9888 -0.0000
vn -0.1654 -0.3071 0.9372
vn -0.1654 -0.7955 0.5829
vn -0.1654 -0.7956 0.5828
vn -0.1657 -0.9862 -0.0000
vn -0.1657 -0.9862 0.0001
vn -0.1654 0.3071 0.9372
vn -0.1654 0.7955 0.5829
vn -0.1654 0.7956 0.5829
vn -0.1657 0.9862 0.0001
vn -0.1657 0.9862 -0.0000
vn -0.1654 0.7956 -0.5828
vn -0.1654 0.7955 -0.5829
vn -0.1654 0.3071 -0.9372
vn -0.1654 -0.3071 -0.9372
vn -0.1654 -0.7955 -0.5829
vn -0.1657 -0.9862 -0.0001
vn -0.1337 0.9910 -0.0000
vn -0.1336 0.9910 -0.0000
vn -0.1654 -0.3072 0.9372
vn -0.1654 -0.7956 0.5829
vn -0.1654 0.3072 0.9372
vn -0.1654 0.3072 -0.9372
vn -0.1654 -0.3072 -0.9372
vn -0.1654 -0.7956 -0.5828
vn 0.9542 -0.0946 0.2839
vn 0.8610 -0.4107 0.3001
vn 0.9540 -0.2444 0.1735
vn 0.8589 -0.5122 -0.0000
vn 0.9541 -0.2996 -0.0000
vn 0.6789 -0.7342 -0.0000
vn 1.0000 -0.0000 -0.0000
vn 0.6789 -0.5921 0.4342
vn 0.3863 -0.9224 -0.0000
vn 0.8617 -0.1581 0.4822
vn 0.9542 0.0946 0.2839
vn 0.6766 -0.2281 0.7002
vn 0.9540 0.2444 0.1734
vn 0.9541 0.2996 -0.0000
vn 0.8589 0.5122 -0.0000
vn 0.8610 0.4107 0.3001
vn 0.6789 0.7342 -0.0000
vn 0.8617 0.1581 0.4822
vn 0.6789 0.5921 0.4342
vn 0.3863 0.9224 -0.0000
vn 0.6765 0.2281 0.7002
vn 0.3852 0.7467 0.5423
vn -0.1182 0.9930 -0.0000
vn 0.3872 0.2844 0.8770
vn 0.3871 -0.2844 0.8770
vn -0.1181 0.8038 0.5831
vn -0.1414 0.8013 0.5813
vn -0.1414 0.9899 -0.0000
vn -0.1180 0.3069 0.9444
vn -0.1415 0.3059 0.9415
vn -0.1180 -0.3069 0.9444
vn -0.1415 -0.3059 0.9415
vn -0.1414 -0.8013 0.5813
vn -0.1181 -0.8038 0.5831
vn -0.1182 -0.9930 -0.0000
vn -0.1414 -0.9899 0.0001
vn 0.3852 -0.7467 0.5423
vn 0.9540 0.2444 -0.1735
vn 0.8589 0.5122 -0.0001
vn 0.8609 0.4107 -0.3001
vn 0.6789 0.7342 -0.0001
vn 0.9542 0.0946 -0.2839
vn 0.6789 0.5921 -0.4342
vn 0.8617 0.1581 -0.4822
vn 0.9542 -0.0946 -0.2839
vn 0.9540 -0.2444 -0.1735
vn 0.8610 -0.4107 -0.3001
vn 0.6789 -0.7342 -0.0001
vn 0.8617 -0.1581 -0.4822
vn 0.6789 -0.5921 -0.4342
vn 0.6765 -0.2281 -0.7002
vn 0.6766 0.2281 -0.7002
vn 0.3872 0.2844 -0.8770
vn 0.3872 -0.2844 -0.8770
vn 0.3852 -0.7467 -0.5423
vn -0.1180 -0.3070 -0.9444
vn -0.1182 -0.8037 -0.5831
vn -0.1414 -0.8012 -0.5814
vn -0.1414 -0.9899 -0.0000
vn -0.1415 -0.3059 -0.9415
vn -0.1180 0.3069 -0.9444
vn -0.1412 0.3060 -0.9415
vn -0.1414 0.8013 -0.5813
vn -0.1182 0.8037 -0.5831
vn -0.1414 0.9899 -0.0001
vn 0.3852 0.7467 -0.5423
vn 0.4025 0.4499 0.7972
vn -0.5041 0.3544 0.7876
vn -0.5131 0.3552 0.7814
vn -0.9518 0.3068 -0.0000
vn 0.4167 0.4560 0.7864
vn 0.8678 0.4970 -0.0000
vn 0.4167 0.4560 -0.7864
vn 0.4026 0.4499 -0.7972
vn -0.5041 0.3544 -0.7876
vn -0.5130 0.3552 -0.7814
vn 0.5271 0.0079 0.8497
vn -0.4409 0.0079 0.8975
vn -0.4783 0.0078 0.8782
vn -0.9999 0.0157 -0.0000
vn 0.5601 0.0079 0.8284
vn 0.9999 0.0157 -0.0000
vn 0.9999 0.0158 -0.0000
vn 0.5601 0.0079 -0.8284
vn 0.5271 0.0079 -0.8497
vn -0.4409 0.0079 -0.8975
vn -0.4783 0.0078 -0.8782
vn 0.1806 -0.3063 0.9346
vn 0.1815 -0.7970 0.5761
vn 0.1809 -0.9835 -0.0000
vn 0.1810 -0.9835 -0.0000
vn 0.1807 0.3063 0.9346
vn 0.1806 0.3063 0.9346
vn 0.1815 0.7970 0.5761
vn 0.1809 0.9835 -0.0000
vn 0.1815 0.7970 -0.5761
vn 0.1810 0.9835 -0.0000
vn 0.1807 0.3063 -0.9346
vn 0.1806 0.3063 -0.9346
vn 0.1806 -0.3063 -0.9346
vn 0.1815 -0.7970 -0.5761
vn 0.1815 -0.7970 -0.5760
vn 0.1809 -0.9835 -0.0001
vt 0.595703 0.966044
vt 0.659789 0.966044
vt 0.750555 0.966044
vt 0.561034 0.966044
vt 0.697510 0.966044
vt 0.404296 0.966044
vt 0.809703 0.966044
vt 0.438966 0.966044
vt 0.340211 0.966044
vt 0.249445 0.966044
vt 0.302490 0.966044
vt 0.190297 0.966044
vt 0.837039 0.947934
vt 0.162961 0.947934
vt 0.628737 0.947934
vt 0.371263 0.947934
vt 0.083397 0.947934
vt 0.916603 0.947934
vt 0.500000 0.804847
vt 0.833632 0.943406
vt 0.372564 0.943406
vt 0.627436 0.943406
vt 0.087608 0.943406
vt 0.166368 0.943406
vt 0.912392 0.943406
vt 0.125574 0.685694
vt 0.067912 0.375999
vt 0.082327 0.453423
vt 0.111158 0.608271
vt 0.638419 0.052066
vt 0.862386 0.052066
vt 0.947934 0.052066
vt 0.361581 0.052066
vt 0.137613 0.052066
vt 0.052066 0.052066
vt 0.493406 0.711689
vt 0.426183 0.288311
vt 0.436906 0.355845
vt 0.392572 0.076623
vt 0.482683 0.644155
vt 0.527017 0.923377
vt 0.505571 0.788309
vt 0.414017 0.211690
vt 0.637020 0.056593
vt 0.858724 0.056593
vt 0.943407 0.056593
vt 0.362980 0.056593
vt 0.141276 0.056593
vt 0.056593 0.056593
vt 0.540272 0.040594
vt 0.700547 0.059857
vt 0.605434 0.040594
vt 0.747889 0.059857
vt 0.630323 0.040594
vt 0.841190 0.089861
vt 0.500000 0.033956
vt 0.776029 0.089861
vt 0.901093 0.127668
vt 0.576602 0.059857
vt 0.459728 0.040594
vt 0.605434 0.089861
vt 0.394566 0.040594
vt 0.369677 0.040594
vt 0.252111 0.059857
vt 0.299453 0.059857
vt 0.158810 0.089861
vt 0.423398 0.059857
vt 0.223971 0.089861
vt 0.098907 0.127668
vt 0.394566 0.089861
vt 0.175509 0.127668
vt 0.078266 0.169577
vt 0.376055 0.127668
vt 0.623945 0.127668
vt 0.158810 0.169577
vt 0.337980 0.863179
vt 0.299732 0.863179
vt 0.369677 0.169577
vt 0.438114 0.863179
vt 0.630323 0.169577
vt 0.561886 0.863179
vt 0.662020 0.863179
vt 0.841190 0.169577
vt 0.921734 0.169577
vt 0.700268 0.863179
vt 0.824491 0.127668
vt 0.932088 0.283956
vt 0.932088 0.716044
vt 0.932088 0.932088
vt 0.932088 0.067912
vt 0.582871 0.863179
vt 0.716959 0.863179
vt 0.768176 0.863179
vt 0.417129 0.863179
vt 0.283041 0.863179
vt 0.231824 0.863179
s 1
usemtl Handle1Mtl.010
f 1/1/1 2/2/1 3/3/1
f 2/2/1 1/1/1 4/4/1
f 5/5/1 3/3/1 2/2/1
f 6/6/1 4/4/1 1/1/1
f 3/3/1 5/5/1 7/7/1
f 4/4/1 6/6/1 8/8/1
f 9/3/1 7/7/1 5/5/1
f 8/8/1 6/6/1 10/9/1
f 5/5/1 11/2/1 9/3/1
f 6/6/1 12/10/1 10/9/1
f 13/4/1 9/3/1 11/2/1
f 9/3/1 13/4/1 14/1/1
f 12/10/1 15/11/1 10/9/1
f 15/11/1 12/10/1 16/12/1
f 17/10/1 15/11/1 16/12/1
f 14/1/1 13/4/1 18/6/1
f 15/11/1 17/10/1 19/9/1
f 18/6/1 19/9/1 17/10/1
f 18/6/1 13/4/1 20/8/1
f 19/9/1 18/6/1 20/8/1
f 21/13/1 22/14/1 23/15/1
f 23/15/1 22/14/1 24/16/1
f 22/14/1 21/13/1 25/17/1
f 25/17/1 21/13/1 26/14/1
f 26/14/1 21/13/1 27/16/1
f 28/18/1 27/16/1 21/13/1
f 27/16/1 28/18/1 29/13/1
f 27/16/1 29/13/1 30/15/1
f 31/11/2 32/9/3 33/19/1
f 32/9/3 34/8/4 33/19/1
f 34/8/4 35/4/5 33/19/1
f 35/4/5 36/2/6 33/19/1
f 36/2/6 37/5/7 33/19/1
f 38/2/8 39/4/9 40/19/1
f 41/5/7 38/2/8 40/19/1
f 39/4/9 42/8/10 40/19/1
f 42/8/10 43/9/11 40/19/1
f 43/9/11 44/11/2 40/19/1
f 45/20/1 46/21/1 47/22/1
f 46/21/1 45/20/1 48/23/1
f 46/21/1 48/23/1 49/24/1
f 50/25/1 48/23/1 45/20/1
f 48/23/1 50/25/1 51/24/1
f 51/24/1 50/25/1 52/21/1
f 50/25/1 53/22/1 52/21/1
f 53/22/1 50/25/1 54/20/1
f 55/26/12 56/27/12 57/28/12
f 58/27/12 59/26/12 60/28/12
f 59/26/12 61/29/12 60/28/12
f 59/26/12 62/28/12 63/29/12
f 64/30/13 65/13/14 66/31/15
f 67/32/16 66/31/15 65/13/14
f 68/18/17 67/32/16 65/13/14
f 65/13/14 64/30/13 69/15/13
f 64/30/13 70/16/18 69/15/13
f 71/33/18 70/16/18 64/30/13
f 71/33/18 72/14/19 70/16/18
f 73/34/20 72/14/19 71/33/18
f 74/35/21 72/14/19 73/34/20
f 72/14/19 74/35/21 75/17/22
f 76/14/23 77/35/22 78/34/24
f 77/35/22 76/14/23 79/17/22
f 80/33/25 76/14/23 78/34/24
f 76/14/23 80/33/25 81/16/25
f 82/15/26 81/16/25 80/33/25
f 82/15/26 80/33/25 83/30/26
f 84/13/27 82/15/26 83/30/26
f 84/13/27 83/30/26 85/31/27
f 86/32/16 84/13/27 85/31/27
f 84/13/27 86/32/16 87/18/28
f 88/36/29 89/37/30 90/38/29
f 91/39/29 90/38/29 89/37/30
f 88/36/29 90/38/29 92/40/29
f 92/40/29 93/41/29 88/36/29
f 93/41/29 92/40/29 94/42/29
f 93/41/29 95/40/29 96/36/29
f 91/39/29 97/38/29 98/43/29
f 91/39/29 99/37/29 97/38/29
f 96/36/29 97/38/29 99/37/29
f 100/38/29 101/39/29 102/43/29
f 103/38/29 104/36/29 105/40/29
f 105/40/29 106/41/29 107/42/29
f 108/44/31 109/20/32 110/45/32
f 111/46/16 110/45/32 109/20/32
f 112/25/16 111/46/16 109/20/32
f 109/20/32 108/44/31 113/22/13
f 114/47/33 113/22/13 108/44/31
f 113/22/13 114/47/33 115/21/18
f 114/47/33 116/24/20 115/21/18
f 117/48/20 116/24/20 114/47/33
f 118/49/22 116/24/20 117/48/20
f 116/24/20 118/49/22 119/23/22
f 120/24/24 121/49/22 122/48/24
f 121/49/22 120/24/24 123/23/22
f 124/47/25 120/24/24 122/48/24
f 120/24/24 124/47/25 125/21/34
f 126/22/35 125/21/34 124/47/25
f 126/22/35 124/47/25 127/44/26
f 128/20/36 126/22/35 127/44/26
f 128/20/36 127/44/26 129/45/36
f 130/46/16 128/20/36 129/45/36
f 128/20/36 130/46/16 131/25/16
f 132/50/37 133/51/38 134/52/39
f 135/53/40 134/52/39 133/51/38
f 134/52/39 135/53/40 136/54/41
f 133/51/38 137/55/42 135/53/40
f 134/52/39 136/54/41 138/56/43
f 132/50/37 134/52/39 138/56/43
f 137/55/42 133/51/38 139/57/44
f 139/57/44 140/58/45 137/55/42
f 133/51/38 132/50/37 141/59/46
f 141/59/46 139/57/44 133/51/38
f 142/60/47 132/50/37 138/56/43
f 139/57/44 141/59/46 143/61/48
f 144/62/49 142/60/47 138/56/43
f 145/63/50 144/62/49 138/56/43
f 146/64/51 144/62/49 145/63/50
f 146/64/51 147/65/52 144/62/49
f 147/65/52 142/60/47 144/62/49
f 148/66/53 147/65/52 146/64/51
f 142/60/47 149/67/54 132/50/37
f 149/67/54 142/60/47 147/65/52
f 132/50/37 149/67/54 141/59/46
f 148/66/53 150/68/55 147/65/52
f 150/68/55 149/67/54 147/65/52
f 151/69/56 150/68/55 148/66/53
f 141/59/46 149/67/54 152/70/57
f 150/68/55 152/70/57 149/67/54
f 141/59/46 152/70/57 143/61/48
f 151/69/56 153/71/58 150/68/55
f 154/72/59 153/71/58 151/69/56
f 150/68/55 155/73/60 152/70/57
f 155/73/60 150/68/55 153/71/58
f 152/70/57 156/74/61 143/61/48
f 156/74/61 152/70/57 155/73/60
f 139/57/44 143/61/48 156/74/61
f 153/71/58 154/72/59 157/75/62
f 154/72/59 158/76/63 157/75/62
f 158/76/63 154/72/59 159/77/64
f 160/78/65 153/71/58 157/75/62
f 157/75/62 158/76/63 160/78/65
f 153/71/58 160/78/65 155/73/60
f 160/78/65 158/76/63 161/79/66
f 162/80/67 155/73/60 160/78/65
f 160/78/65 161/79/66 162/80/67
f 155/73/60 162/80/67 156/74/61
f 162/80/67 161/79/66 163/81/68
f 164/82/69 162/80/67 163/81/68
f 162/80/67 164/82/69 165/83/70
f 165/83/70 164/82/69 166/84/71
f 167/85/72 166/84/71 164/82/69
f 168/86/73 162/80/67 165/83/70
f 166/84/71 168/86/73 165/83/70
f 168/86/73 156/74/61 162/80/67
f 168/86/73 166/84/71 140/58/45
f 139/57/44 156/74/61 168/86/73
f 140/58/45 139/57/44 168/86/73
f 169/62/74 170/64/75 171/63/50
f 169/62/74 171/63/50 172/56/43
f 170/64/75 169/62/74 173/65/76
f 173/65/76 174/66/77 170/64/75
f 175/60/78 169/62/74 172/56/43
f 174/66/77 173/65/76 176/68/79
f 176/68/79 177/69/56 174/66/77
f 169/62/74 178/67/80 173/65/76
f 169/62/74 175/60/78 178/67/80
f 178/67/80 176/68/79 173/65/76
f 179/50/81 175/60/78 172/56/43
f 179/50/81 178/67/80 175/60/78
f 180/52/82 179/50/81 172/56/43
f 181/54/41 180/52/82 172/56/43
f 181/54/41 182/51/83 180/52/82
f 182/51/83 179/50/81 180/52/82
f 182/51/83 181/54/41 183/53/40
f 182/51/83 183/53/40 184/55/84
f 179/50/81 182/51/83 185/59/85
f 178/67/80 179/50/81 185/59/85
f 182/51/83 184/55/84 186/57/86
f 186/57/86 185/59/85 182/51/83
f 186/57/86 184/55/84 187/58/45
f 188/61/87 178/67/80 185/59/85
f 185/59/85 186/57/86 188/61/87
f 188/61/87 189/70/88 178/67/80
f 176/68/79 178/67/80 189/70/88
f 188/61/87 190/73/89 189/70/88
f 176/68/79 189/70/88 190/73/89
f 186/57/86 191/74/90 188/61/87
f 190/73/89 188/61/87 191/74/90
f 187/58/45 192/86/91 186/57/86
f 191/74/90 186/57/86 192/86/91
f 192/86/91 187/58/45 193/84/71
f 192/86/91 194/80/92 191/74/90
f 194/80/92 190/73/89 191/74/90
f 193/84/71 195/83/93 192/86/91
f 194/80/92 192/86/91 195/83/93
f 193/84/71 196/82/94 195/83/93
f 194/80/92 195/83/93 196/82/94
f 196/82/94 193/84/71 197/85/95
f 198/81/96 194/80/92 196/82/94
f 199/78/97 194/80/92 198/81/96
f 194/80/92 199/78/97 190/73/89
f 200/79/98 199/78/97 198/81/96
f 201/76/99 199/78/97 200/79/98
f 199/78/97 201/76/99 202/75/100
f 201/76/99 203/72/59 202/75/100
f 203/72/59 201/76/99 204/77/101
f 199/78/97 202/75/100 205/71/102
f 203/72/59 205/71/102 202/75/100
f 199/78/97 205/71/102 190/73/89
f 205/71/102 203/72/59 177/69/56
f 190/73/89 205/71/102 176/68/79
f 177/69/56 176/68/79 205/71/102
f 206/38/103 207/29/104 208/40/105
f 208/40/105 207/29/104 209/42/106
f 210/26/106 209/42/106 207/29/104
f 207/29/104 206/38/103 211/28/107
f 212/43/108 211/28/107 206/38/103
f 211/28/107 212/43/108 213/27/108
f 214/28/109 215/43/108 216/38/110
f 215/43/108 214/28/109 217/27/108
f 216/38/110 218/29/111 214/28/109
f 218/29/111 216/38/110 219/40/112
f 220/42/106 218/29/111 219/40/112
f 218/29/111 220/42/106 221/26/106
f 222/87/113 223/36/114 224/88/115
f 225/41/116 224/88/115 223/36/114
f 224/88/115 225/41/116 226/89/116
f 223/36/114 222/87/113 227/37/117
f 228/90/118 227/37/117 222/87/113
f 227/37/117 228/90/118 229/39/119
f 230/37/120 231/90/118 232/87/121
f 231/90/118 230/37/120 233/39/119
f 232/87/121 234/36/122 230/37/120
f 234/36/122 232/87/121 235/88/123
f 234/36/122 235/88/123 236/41/116
f 235/88/123 237/89/116 236/41/116
f 238/91/124 239/1/124 240/92/125
f 240/92/125 239/1/124 241/3/125
f 242/7/126 240/92/125 241/3/125
f 240/92/125 242/7/126 243/93/127
f 238/91/124 244/6/128 239/1/124
f 244/6/128 238/91/124 245/94/129
f 246/95/130 244/6/128 245/94/129
f 244/6/128 246/95/130 247/10/130
f 246/95/130 248/12/131 247/10/130
f 248/12/131 246/95/130 249/96/131
f 250/95/132 251/12/133 252/96/133
f 251/12/133 250/95/132 253/10/132
f 253/10/132 250/95/132 254/6/134
f 254/6/134 250/95/132 255/94/135
f 256/91/136 254/6/134 255/94/135
f 254/6/134 256/91/136 257/1/136
f 258/92/137 257/1/136 256/91/136
f 257/1/136 258/92/137 259/3/138
f 259/3/138 258/92/137 260/7/139
f 258/92/137 261/93/139 260/7/139
f 262/49/43 263/44/43 264/47/43
f 262/49/43 264/47/43 265/48/43
f 263/44/43 262/49/43 266/46/43
f 263/44/43 266/46/43 267/45/43
f 262/49/43 268/47/43 266/46/43
f 268/47/43 262/49/43 269/48/43
f 270/44/43 266/46/43 268/47/43
f 266/46/43 270/44/43 271/45/43
f 272/34/43 273/32/43 274/31/43
f 272/34/43 274/31/43 275/30/43
f 272/34/43 275/30/43 276/33/43
f 272/34/43 277/34/43 273/32/43
f 277/34/43 272/34/43 278/35/43
f 279/33/43 273/32/43 277/34/43
f 273/32/43 279/33/43 280/31/43
f 280/31/43 279/33/43 281/30/43
f 282/91/43 283/92/43 284/82/43
f 285/93/43 284/82/43 283/92/43
f 282/91/43 284/82/43 286/81/43
f 284/82/43 285/93/43 287/85/43
f 286/81/43 288/94/43 282/91/43
f 289/82/43 287/85/43 285/93/43
f 286/81/43 290/79/43 288/94/43
f 289/82/43 285/93/43 291/92/43
f 291/92/43 292/81/43 289/82/43
f 292/81/43 291/92/43 293/91/43
f 294/76/43 288/94/43 290/79/43
f 293/91/43 295/79/43 292/81/43
f 288/94/43 294/76/43 296/95/43
f 293/91/43 297/94/43 295/79/43
f 298/96/43 296/95/43 294/76/43
f 298/96/43 294/76/43 299/77/43
f 300/76/43 295/79/43 297/94/43
f 300/76/43 298/96/43 299/77/43
f 297/94/43 301/95/43 300/76/43
f 298/96/43 300/76/43 301/95/43
