# Blender 5.1.2
# www.blender.org
mtllib SteeringGyro.mtl
o SteeringGyro
v 0.021859 0.025000 -0.568913
v 0.021859 0.025000 -0.018909
v 0.021859 -0.025000 -0.568913
v 0.021859 -0.025000 -0.018909
v -0.028141 0.025000 -0.018909
v 0.021859 0.025000 -0.018909
v -0.028141 0.025000 -0.568913
v 0.021859 0.025000 -0.568913
v 0.021859 0.025000 -0.018909
v -0.028141 0.025000 -0.018909
v 0.021859 -0.025000 -0.018909
v -0.028141 -0.025000 -0.018909
v -0.028141 0.025000 -0.018909
v -0.028141 0.025000 -0.568913
v -0.028141 -0.025000 -0.018909
v -0.028141 -0.025000 -0.568913
v -0.028141 -0.025000 -0.568913
v 0.021859 -0.025000 -0.568913
v -0.028141 -0.025000 -0.018909
v 0.021859 -0.025000 -0.018909
v -0.028141 0.025000 -0.568913
v 0.021859 0.025000 -0.568913
v -0.028141 -0.025000 -0.568913
v 0.021859 -0.025000 -0.568913
v 0.311519 0.000000 0.333290
v 0.400076 -0.014822 0.185589
v 0.305468 -0.014822 0.327190
v 0.407983 0.000000 0.188889
v 0.305468 0.014822 0.327190
v 0.400076 0.014822 0.185589
v 0.400076 0.014822 0.185589
v 0.433299 0.014822 0.018589
v 0.441856 0.000000 0.018589
v 0.400076 -0.014822 0.185589
v 0.433299 -0.014822 0.018589
v 0.100188 -0.051666 0.018589
v 0.028789 -0.051666 -0.079712
v 0.080453 0.051666 -0.042110
v 0.028789 -0.051666 0.116890
v 0.100188 -0.051666 0.018589
v 0.080453 0.051666 0.079288
v 0.100188 -0.051666 0.018589
v 0.080453 0.051666 -0.042110
v 0.080453 0.051666 0.079288
v -0.422471 0.014822 0.018589
v -0.390551 0.014822 0.179089
v -0.382641 0.000000 0.175789
v -0.413911 0.000000 0.018589
v -0.293601 0.000000 0.309090
v -0.390551 0.014822 0.179089
v -0.299651 0.014822 0.315090
v -0.390551 -0.014822 0.179089
v -0.299651 -0.014822 0.315090
v -0.293601 0.000000 0.309090
v -0.382641 0.000000 0.175789
v -0.422471 -0.014822 0.018589
v -0.390551 -0.014822 0.179089
v -0.413911 0.000000 0.018589
v -0.382641 0.000000 -0.138611
v -0.422471 -0.014822 0.018589
v -0.390551 -0.014822 -0.141911
v -0.422471 0.014822 0.018589
v -0.390551 0.014822 -0.141911
v -0.382641 0.000000 -0.138611
v -0.293601 0.000000 -0.271912
v -0.390551 0.014822 -0.141911
v -0.299651 0.014822 -0.277912
v -0.390551 -0.014822 -0.141911
v -0.299651 -0.014822 -0.277912
v -0.293601 0.000000 -0.271912
v 0.311519 0.000000 -0.296112
v 0.400076 -0.014822 -0.148411
v 0.305468 -0.014822 -0.290012
v 0.407983 0.000000 -0.151711
v 0.305468 0.014822 -0.290012
v 0.400076 0.014822 -0.148411
v 0.433299 0.014822 0.018589
v 0.400076 0.014822 -0.148411
v 0.441856 0.000000 0.018589
v 0.400076 -0.014822 -0.148411
v 0.433299 -0.014822 0.018589
v 0.163876 0.014822 0.421787
v -0.003141 0.014822 0.454990
v -0.003141 0.014822 0.437889
v 0.157326 0.014822 0.405991
v 0.157326 0.014822 0.405991
v 0.293365 0.014822 0.315090
v 0.305468 0.014822 0.327190
v 0.163876 0.014822 0.421787
v 0.305468 0.014822 0.327190
v 0.400076 0.014822 0.185589
v 0.293365 0.014822 0.315090
v 0.384264 0.014822 0.179089
v 0.416183 0.014822 0.018589
v 0.384264 0.014822 0.179089
v 0.400076 0.014822 0.185589
v 0.433299 0.014822 0.018589
v -0.035071 0.051666 -0.079712
v -0.106471 0.051666 0.018589
v -0.003141 0.115529 0.018589
v 0.080453 0.051666 -0.042110
v -0.035071 0.051666 -0.079712
v -0.003141 0.115529 0.018589
v 0.080453 0.051666 0.079288
v 0.080453 0.051666 -0.042110
v -0.003141 0.115529 0.018589
v -0.035071 0.051666 0.116890
v 0.080453 0.051666 0.079288
v -0.003141 0.115529 0.018589
v -0.106471 0.051666 0.018589
v -0.035071 0.051666 0.116890
v -0.003141 0.115529 0.018589
v -0.406361 0.014822 0.185589
v -0.439591 0.014822 0.018589
v -0.422471 0.014822 0.018589
v -0.390551 0.014822 0.179089
v -0.390551 0.014822 0.179089
v -0.299651 0.014822 0.315090
v -0.311751 0.014822 0.327190
v -0.406361 0.014822 0.185589
v -0.406361 0.014822 -0.148411
v -0.439591 0.014822 0.018589
v -0.422471 0.014822 0.018589
v -0.390551 0.014822 -0.141911
v -0.390551 0.014822 -0.141911
v -0.299651 0.014822 -0.277912
v -0.311751 0.014822 -0.290012
v -0.406361 0.014822 -0.148411
v -0.311751 0.014822 -0.290012
v -0.170161 0.014822 -0.384613
v -0.299651 0.014822 -0.277912
v -0.163611 0.014822 -0.368813
v -0.003141 0.014822 -0.400711
v -0.163611 0.014822 -0.368813
v -0.170161 0.014822 -0.384613
v -0.003141 0.014822 -0.417912
v 0.163876 0.014822 -0.384613
v -0.003141 0.014822 -0.417912
v -0.003141 0.014822 -0.400711
v 0.157326 0.014822 -0.368813
v 0.157326 0.014822 -0.368813
v 0.293365 0.014822 -0.277912
v 0.305468 0.014822 -0.290012
v 0.163876 0.014822 -0.384613
v 0.305468 0.014822 -0.290012
v 0.400076 0.014822 -0.148411
v 0.293365 0.014822 -0.277912
v 0.384264 0.014822 -0.141911
v 0.416183 0.014822 0.018589
v 0.384264 0.014822 -0.141911
v 0.433299 0.014822 0.018589
v 0.400076 0.014822 -0.148411
v -0.311751 0.014822 0.327190
v -0.170161 0.014822 0.421787
v -0.163611 0.014822 0.405991
v -0.299651 0.014822 0.315090
v -0.003141 0.014822 0.437889
v -0.163611 0.014822 0.405991
v -0.170161 0.014822 0.421787
v -0.003141 0.014822 0.454990
v -0.003141 0.000000 0.463589
v 0.163876 -0.014822 0.421787
v 0.167151 0.000000 0.429688
v 0.163876 0.014822 0.421787
v -0.003141 0.014822 0.454990
v 0.305468 0.014822 0.327190
v 0.163876 0.014822 0.421787
v 0.311519 0.000000 0.333290
v 0.305468 -0.014822 0.327190
v 0.163876 -0.014822 0.421787
v -0.086741 -0.051666 0.079288
v 0.028789 -0.051666 0.116890
v -0.035071 0.051666 0.116890
v 0.028789 -0.051666 0.116890
v 0.080453 0.051666 0.079288
v -0.035071 0.051666 0.116890
v -0.317811 0.000000 0.333290
v -0.293601 0.000000 -0.271912
v -0.293601 0.000000 -0.271912
v -0.163611 -0.014822 -0.368813
v -0.299651 -0.014822 -0.277912
v -0.160341 0.000000 -0.360912
v -0.299651 0.014822 -0.277912
v -0.163611 0.014822 -0.368813
v -0.160341 0.000000 -0.360912
v -0.003141 0.000000 -0.392212
v -0.003141 0.014822 -0.400711
v -0.163611 0.014822 -0.368813
v -0.003141 -0.014822 -0.400711
v -0.163611 -0.014822 -0.368813
v -0.003141 0.000000 -0.392212
v -0.003141 -0.014822 -0.400711
v 0.154051 0.000000 -0.360912
v 0.157326 -0.014822 -0.368813
v -0.003141 0.014822 -0.400711
v 0.157326 0.014822 -0.368813
v 0.154051 0.000000 -0.360912
v 0.287314 0.000000 -0.271912
v 0.157326 0.014822 -0.368813
v 0.293365 0.014822 -0.277912
v 0.157326 -0.014822 -0.368813
v 0.293365 -0.014822 -0.277912
v 0.287314 0.000000 -0.271912
v -0.173441 0.000000 0.429688
v -0.311751 0.014822 0.327190
v -0.311751 -0.014822 0.327190
v -0.170161 0.014822 0.421787
v -0.170161 -0.014822 0.421787
v -0.170161 0.014822 0.421787
v -0.003141 0.014822 0.454990
v -0.170161 -0.014822 0.421787
v -0.003141 -0.014822 0.454990
v -0.003141 -0.014822 0.454990
v 0.287314 0.000000 0.309090
v 0.287314 0.000000 0.309090
v 0.384264 -0.014822 0.179089
v 0.376357 0.000000 0.175789
v 0.293365 -0.014822 0.315090
v 0.293365 0.014822 0.315090
v 0.384264 0.014822 0.179089
v 0.376357 0.000000 0.175789
v 0.416183 0.014822 0.018589
v 0.407626 0.000000 0.018589
v 0.384264 0.014822 0.179089
v 0.416183 -0.014822 0.018589
v 0.384264 -0.014822 0.179089
v 0.407626 0.000000 0.018589
v -0.086741 -0.051666 -0.042110
v -0.086741 -0.051666 0.079288
v -0.106471 0.051666 0.018589
v -0.086741 -0.051666 -0.042110
v -0.106471 0.051666 0.018589
v -0.035071 0.051666 -0.079712
v -0.086741 -0.051666 0.079288
v -0.035071 0.051666 0.116890
v -0.106471 0.051666 0.018589
v -0.406361 0.014822 0.185589
v -0.439591 0.014822 0.018589
v -0.448141 0.000000 0.018589
v -0.414271 0.000000 0.188889
v -0.311751 0.014822 0.327190
v -0.406361 0.014822 0.185589
v -0.317811 0.000000 0.333290
v -0.311751 -0.014822 0.327190
v -0.406361 -0.014822 0.185589
v -0.406361 -0.014822 0.185589
v -0.439591 -0.014822 0.018589
v -0.406361 -0.014822 -0.148411
v -0.439591 -0.014822 0.018589
v -0.414271 0.000000 -0.151711
v -0.406361 0.014822 -0.148411
v -0.439591 0.014822 0.018589
v -0.311751 0.014822 -0.290012
v -0.406361 0.014822 -0.148411
v -0.317811 0.000000 -0.296112
v -0.311751 -0.014822 -0.290012
v -0.406361 -0.014822 -0.148411
v 0.287314 0.000000 -0.271912
v 0.287314 0.000000 -0.271912
v 0.384264 -0.014822 -0.141911
v 0.376358 0.000000 -0.138611
v 0.293365 -0.014822 -0.277912
v 0.293365 0.014822 -0.277912
v 0.384264 0.014822 -0.141911
v 0.376358 0.000000 -0.138611
v 0.416183 0.014822 0.018589
v 0.407626 0.000000 0.018589
v 0.384264 0.014822 -0.141911
v 0.384264 -0.014822 -0.141911
v 0.416183 -0.014822 0.018589
v 0.407626 0.000000 0.018589
v 0.163876 -0.014822 0.421787
v 0.305468 -0.014822 0.327190
v 0.163876 -0.014822 0.421787
v 0.157326 -0.014822 0.405991
v 0.293365 -0.014822 0.315090
v 0.384264 -0.014822 0.179089
v 0.293365 -0.014822 0.315090
v 0.400076 -0.014822 0.185589
v 0.305468 -0.014822 0.327190
v 0.400076 -0.014822 0.185589
v 0.433299 -0.014822 0.018589
v 0.416183 -0.014822 0.018589
v 0.384264 -0.014822 0.179089
v -0.003141 -0.115529 0.018589
v -0.086741 -0.051666 -0.042110
v 0.028789 -0.051666 -0.079712
v -0.086741 -0.051666 -0.042110
v -0.003141 -0.115529 0.018589
v -0.086741 -0.051666 0.079288
v -0.003141 -0.115529 0.018589
v 0.028789 -0.051666 -0.079712
v 0.100188 -0.051666 0.018589
v -0.003141 -0.115529 0.018589
v 0.100188 -0.051666 0.018589
v 0.028789 -0.051666 0.116890
v -0.003141 -0.115529 0.018589
v 0.028789 -0.051666 0.116890
v -0.086741 -0.051666 0.079288
v -0.311751 -0.014822 0.327190
v -0.406361 -0.014822 0.185589
v -0.390551 -0.014822 0.179089
v -0.299651 -0.014822 0.315090
v -0.406361 -0.014822 0.185589
v -0.439591 -0.014822 0.018589
v -0.422471 -0.014822 0.018589
v -0.390551 -0.014822 0.179089
v -0.422471 -0.014822 0.018589
v -0.390551 -0.014822 -0.141911
v -0.406361 -0.014822 -0.148411
v -0.439591 -0.014822 0.018589
v -0.311751 -0.014822 -0.290012
v -0.406361 -0.014822 -0.148411
v -0.390551 -0.014822 -0.141911
v -0.299651 -0.014822 -0.277912
v -0.163611 -0.014822 -0.368813
v -0.299651 -0.014822 -0.277912
v -0.170161 -0.014822 -0.384613
v -0.311751 -0.014822 -0.290012
v -0.170161 -0.014822 -0.384613
v -0.003141 -0.014822 -0.417912
v -0.003141 -0.014822 -0.400711
v -0.163611 -0.014822 -0.368813
v -0.003141 -0.014822 -0.400711
v 0.157326 -0.014822 -0.368813
v 0.163876 -0.014822 -0.384613
v -0.003141 -0.014822 -0.417912
v 0.305468 -0.014822 -0.290012
v 0.163876 -0.014822 -0.384613
v 0.157326 -0.014822 -0.368813
v 0.293365 -0.014822 -0.277912
v 0.384264 -0.014822 -0.141911
v 0.293365 -0.014822 -0.277912
v 0.400076 -0.014822 -0.148411
v 0.305468 -0.014822 -0.290012
v 0.400076 -0.014822 -0.148411
v 0.433299 -0.014822 0.018589
v 0.384264 -0.014822 -0.141911
v 0.416183 -0.014822 0.018589
v -0.311751 -0.014822 0.327190
v -0.170161 -0.014822 0.421787
v -0.163611 -0.014822 0.405991
v -0.299651 -0.014822 0.315090
v -0.170161 -0.014822 0.421787
v -0.003141 -0.014822 0.454990
v -0.003141 -0.014822 0.437889
v -0.163611 -0.014822 0.405991
v -0.003141 -0.014822 0.437889
v 0.157326 -0.014822 0.405991
v -0.003141 -0.014822 0.454990
v -0.003141 0.014822 0.437889
v 0.157326 0.014822 0.405991
v 0.154051 0.000000 0.398090
v -0.003141 0.000000 0.429390
v 0.157326 0.014822 0.405991
v 0.287314 0.000000 0.309090
v 0.293365 0.014822 0.315090
v 0.157326 -0.014822 0.405991
v 0.293365 -0.014822 0.315090
v 0.287314 0.000000 0.309090
v 0.154051 0.000000 0.398090
v 0.028789 -0.051666 -0.079712
v -0.086741 -0.051666 -0.042110
v -0.035071 0.051666 -0.079712
v 0.028789 -0.051666 -0.079712
v -0.035071 0.051666 -0.079712
v 0.080453 0.051666 -0.042110
v -0.293601 0.000000 0.309090
v -0.293601 0.000000 0.309090
v -0.317811 0.000000 -0.296112
v -0.170161 -0.014822 -0.384613
v -0.311751 -0.014822 -0.290012
v -0.173441 0.000000 -0.392509
v -0.311751 0.014822 -0.290012
v -0.170161 0.014822 -0.384613
v -0.170161 0.014822 -0.384613
v -0.003141 0.014822 -0.417912
v -0.003141 0.000000 -0.426411
v -0.170161 -0.014822 -0.384613
v -0.003141 -0.014822 -0.417912
v 0.163876 -0.014822 -0.384613
v -0.003141 -0.014822 -0.417912
v 0.167151 0.000000 -0.392509
v 0.163876 0.014822 -0.384613
v -0.003141 0.014822 -0.417912
v 0.305468 0.014822 -0.290012
v 0.163876 0.014822 -0.384613
v 0.311519 0.000000 -0.296112
v 0.305468 -0.014822 -0.290012
v 0.163876 -0.014822 -0.384613
v -0.163611 0.014822 0.405991
v -0.299651 0.014822 0.315090
v -0.160341 0.000000 0.398090
v -0.163611 -0.014822 0.405991
v -0.299651 -0.014822 0.315090
v -0.160341 0.000000 0.398090
v -0.003141 0.014822 0.437889
v -0.163611 0.014822 0.405991
v -0.003141 -0.014822 0.437889
v -0.163611 -0.014822 0.405991
v -0.003141 0.000000 0.429390
v -0.003141 -0.014822 0.437889
v 0.157326 -0.014822 0.405991
vn 1.0000 -0.0000 -0.0000
vn -0.0000 1.0000 -0.0000
vn -0.0000 -0.0000 1.0000
vn -1.0000 -0.0000 -0.0000
vn -0.0000 -1.0000 -0.0000
vn -0.0000 -0.0000 -1.0000
vn 0.9224 -0.0000 0.3863
vn 0.3844 -0.8394 0.3844
vn 0.5025 -0.8401 0.2042
vn 0.7071 -0.0000 0.7071
vn 0.3844 0.8394 0.3844
vn 0.5025 0.8401 0.2041
vn 0.5419 0.8404 -0.0000
vn 0.9224 -0.0000 0.3862
vn 0.5419 -0.8404 -0.0000
vn 0.7958 -0.1891 -0.5752
vn 0.7958 -0.1891 0.5752
vn 0.9821 0.1885 -0.0000
vn 0.4503 0.8929 -0.0000
vn 0.4182 0.8916 -0.1735
vn 0.9224 -0.0000 -0.3863
vn 0.7071 -0.0000 -0.7071
vn 0.4182 0.8916 -0.1736
vn 0.3165 0.8942 -0.3165
vn 0.4181 -0.8916 -0.1736
vn 0.3165 -0.8942 -0.3165
vn 0.4503 -0.8929 -0.0000
vn 0.4182 -0.8916 -0.1736
vn 1.0000 -0.0000 0.0001
vn 0.4182 -0.8916 0.1735
vn 0.4182 0.8916 0.1736
vn 1.0000 -0.0000 -0.0001
vn 0.3165 0.8942 0.3165
vn 0.4182 -0.8916 0.1736
vn 0.3165 -0.8942 0.3165
vn 0.3844 -0.8394 -0.3844
vn 0.5025 -0.8401 -0.2041
vn 0.3844 0.8394 -0.3844
vn 0.5025 0.8401 -0.2042
vn 0.9224 -0.0000 -0.3862
vn 0.5420 -0.8404 -0.0000
vn 0.2041 0.8401 0.5025
vn -0.0000 0.8929 -0.4504
vn -0.0000 0.8404 0.5420
vn -0.1736 0.8916 -0.4182
vn -0.1734 0.8916 -0.4183
vn 0.3843 0.8393 0.3845
vn -0.3165 0.8942 -0.3165
vn 0.2042 0.8401 0.5025
vn 0.5025 0.8401 0.2042
vn -0.3166 0.8942 -0.3165
vn 0.3844 0.8393 0.3844
vn -0.4182 0.8916 -0.1736
vn -0.4504 0.8929 -0.0000
vn 0.5420 0.8404 -0.0000
vn -0.4891 0.7967 -0.3550
vn 0.1891 0.7958 -0.5753
vn 0.6063 0.7952 -0.0000
vn 0.1891 0.7958 0.5752
vn -0.4891 0.7967 0.3550
vn -0.5025 0.8401 0.2042
vn 0.4504 0.8929 -0.0000
vn -0.5420 0.8404 -0.0000
vn -0.3845 0.8393 0.3843
vn -0.5025 0.8401 -0.2042
vn -0.3844 0.8393 -0.3844
vn 0.3167 0.8942 0.3164
vn 0.3165 0.8942 0.3166
vn -0.2042 0.8401 -0.5025
vn 0.1736 0.8916 0.4182
vn -0.0000 0.8929 0.4504
vn -0.2041 0.8401 -0.5025
vn -0.0000 0.8404 -0.5420
vn 0.2041 0.8401 -0.5025
vn -0.1735 0.8916 0.4182
vn -0.1736 0.8916 0.4182
vn -0.3166 0.8942 0.3165
vn 0.3844 0.8393 -0.3844
vn 0.2042 0.8401 -0.5025
vn -0.3165 0.8942 0.3165
vn -0.4182 0.8916 0.1736
vn 0.1736 0.8916 -0.4182
vn -0.3844 0.8393 0.3844
vn -0.2042 0.8401 0.5025
vn 0.3167 0.8942 -0.3164
vn -0.2041 0.8401 0.5025
vn 0.0001 -0.0000 1.0000
vn 0.2041 -0.8401 0.5025
vn 0.3863 -0.0000 0.9224
vn -0.0000 0.8404 0.5419
vn 0.3844 -0.8393 0.3844
vn -0.3058 -0.1882 0.9333
vn 0.3059 0.1882 0.9333
vn 0.1736 -0.8916 0.4182
vn 0.1736 0.8916 0.4181
vn -0.0000 0.8928 0.4504
vn 0.0001 -0.8929 0.4504
vn -0.0000 -0.8928 0.4504
vn -0.3863 -0.0000 0.9224
vn -0.1736 -0.8916 0.4182
vn -0.7071 -0.0000 0.7071
vn -0.3165 -0.8942 0.3165
vn -0.3844 0.8394 0.3844
vn -0.3844 -0.8393 0.3844
vn -0.2042 -0.8401 0.5025
vn -0.0001 -0.0000 1.0000
vn -0.3862 -0.0000 0.9224
vn -0.2041 -0.8401 0.5025
vn -0.0000 -0.8404 0.5419
vn -0.4182 -0.8916 -0.1736
vn -0.7071 -0.0000 -0.7071
vn -0.9224 -0.0000 -0.3863
vn -0.3165 -0.8942 -0.3165
vn -0.4503 0.8929 -0.0000
vn -0.4503 -0.8929 -0.0000
vn -0.9821 -0.1886 -0.0000
vn -0.7958 0.1891 -0.5752
vn -0.7958 0.1891 0.5752
vn -0.5025 0.8401 0.2041
vn -0.9224 -0.0000 0.3862
vn -0.9224 -0.0000 0.3863
vn -0.5025 -0.8401 0.2041
vn -0.5420 -0.8404 -0.0000
vn -0.5025 -0.8401 -0.2041
vn -0.5419 -0.8404 -0.0000
vn -1.0000 -0.0000 -0.0001
vn -0.9224 -0.0000 -0.3862
vn -0.5025 0.8401 -0.2041
vn -0.3844 -0.8393 -0.3844
vn -0.5025 -0.8401 -0.2042
vn -0.4182 -0.8916 0.1736
vn -0.4504 -0.8928 -0.0000
vn 0.2042 -0.8401 0.5025
vn -0.1736 -0.8916 -0.4182
vn -0.3166 -0.8942 -0.3165
vn -0.4504 -0.8929 -0.0000
vn -0.1891 -0.7958 -0.5752
vn -0.6064 -0.7952 -0.0000
vn 0.4891 -0.7967 -0.3550
vn 0.4891 -0.7967 0.3550
vn -0.1891 -0.7958 0.5753
vn -0.5025 -0.8401 0.2042
vn 0.3167 -0.8942 -0.3164
vn 0.4504 -0.8929 -0.0000
vn 0.3165 -0.8942 0.3166
vn -0.2042 -0.8401 -0.5025
vn -0.2041 -0.8401 -0.5025
vn -0.0000 -0.8404 -0.5420
vn -0.0000 -0.8929 0.4504
vn 0.2041 -0.8401 -0.5025
vn 0.3844 -0.8393 -0.3843
vn -0.1735 -0.8916 0.4182
vn 0.2042 -0.8401 -0.5025
vn -0.3166 -0.8942 0.3165
vn 0.5025 -0.8401 -0.2042
vn 0.3844 -0.8393 -0.3844
vn 0.1736 -0.8916 -0.4182
vn 0.3165 -0.8942 -0.3166
vn -0.0000 -0.8929 -0.4504
vn -0.0000 -0.8404 0.5420
vn -0.1734 -0.8916 -0.4183
vn -0.3863 -0.0000 -0.9224
vn -0.0000 0.8928 -0.4504
vn -0.7072 -0.0000 -0.7071
vn -0.1736 -0.8916 -0.4181
vn -0.3058 -0.1882 -0.9333
vn 0.3059 0.1882 -0.9333
vn -0.3844 -0.8394 -0.3844
vn -0.3844 0.8394 -0.3844
vn -0.0001 -0.0000 -1.0000
vn 0.0001 -0.0000 -1.0000
vn 0.3863 -0.0000 -0.9224
vn 0.3862 -0.0000 -0.9224
vn 0.0001 0.8929 -0.4504
vn -0.0000 -0.8928 -0.4504
vn -0.1735 -0.8916 -0.4182
vt 0.877398 0.847673
vt 0.162398 0.847673
vt 0.877398 0.782673
vt 0.162398 0.782673
vt 0.227398 0.847673
vt 0.227398 0.132673
vt 0.162398 0.132673
vt 0.227398 0.782673
vt 0.759231 0.746850
vt 0.579419 0.727581
vt 0.763489 0.727581
vt 0.571553 0.746850
vt 0.579419 0.766119
vt 0.763489 0.766119
vt 0.980614 0.746850
vt 0.980614 0.766119
vt 0.980614 0.727581
vt 0.980614 0.679684
vt 1.108370 0.679684
vt 1.059570 0.814016
vt 0.852858 0.679684
vt 0.901658 0.814016
vt 0.772003 0.766119
vt 0.776261 0.746850
vt 0.603019 0.746850
vt 0.595152 0.766119
vt 0.772003 0.727581
vt 0.595152 0.727581
vt 1.184970 0.746850
vt 1.189220 0.727581
vt 1.189220 0.766119
vt 1.358210 0.746850
vt 1.366080 0.766119
vt 1.366080 0.727581
vt 1.381810 0.727581
vt 1.202000 0.746850
vt 1.197740 0.727581
vt 1.389680 0.746850
vt 1.381810 0.766119
vt 1.197740 0.766119
vt 0.763489 1.271040
vt 0.980614 1.291980
vt 0.980614 1.314230
vt 0.772003 1.250480
vt 0.579419 1.148040
vt 0.595152 1.132310
vt 0.456428 0.963975
vt 0.476984 0.955461
vt 0.435489 0.746850
vt 0.413239 0.746850
vt 1.022120 0.619094
vt 1.114950 0.746850
vt 0.871938 0.667894
vt 0.871938 0.825806
vt 1.022120 0.874606
vt 1.504800 0.963975
vt 1.525740 0.746850
vt 1.547990 0.746850
vt 1.484240 0.955461
vt 1.381810 1.148040
vt 1.366080 1.132310
vt 1.504800 0.529725
vt 1.484240 0.538240
vt 1.381810 0.345655
vt 1.366080 0.361388
vt 1.197740 0.222664
vt 1.189220 0.243220
vt 0.980614 0.201725
vt 0.980614 0.179475
vt 0.763489 0.222664
vt 0.772003 0.243220
vt 0.595152 0.361389
vt 0.579419 0.345655
vt 0.456428 0.529725
vt 0.476984 0.538240
vt 1.189220 1.250480
vt 1.197740 1.271040
vt 0.871938 0.679684
vt 1.022120 0.679684
vt 0.939104 0.814016
vt 1.089290 0.814016
vt 0.595153 0.727581
vt 0.595153 0.766119
vt 0.901658 0.679684
vt 1.059570 0.679684
vt 0.980614 0.814016
vt 0.852858 0.814016
vt 1.108370 0.814016
vt 0.772004 0.727581
vt 0.772004 0.766119
vt 0.595153 0.361388
vt 1.366080 0.361389
vt 0.939104 0.679684
vt 1.089290 0.679684
vt 1.022120 0.814016
vt 0.871938 0.814016
s 1
usemtl Part1Mtl.004
f 1/1/1 2/2/1 3/3/1
f 3/3/1 2/2/1 4/4/1
f 5/5/2 6/2/2 7/6/2
f 7/6/2 6/2/2 8/7/2
f 9/5/3 10/2/3 11/8/3
f 11/8/3 10/2/3 12/4/3
f 13/1/4 14/2/4 15/3/4
f 15/3/4 14/2/4 16/4/4
f 17/5/5 18/2/5 19/6/5
f 19/6/5 18/2/5 20/7/5
f 21/5/6 22/2/6 23/8/6
f 23/8/6 22/2/6 24/4/6
f 28/9/7 27/10/8 26/11/9
f 28/9/7 25/12/10 27/10/8
f 28/9/7 29/13/11 25/12/10
f 29/13/11 28/9/7 30/14/12
f 31/14/12 33/15/1 32/16/13
f 33/15/1 31/14/12 28/9/14
f 34/11/9 33/15/1 28/9/14
f 33/15/1 34/11/9 35/17/15
f 36/18/16 37/19/16 38/20/16
f 39/21/17 40/18/17 41/22/17
f 42/18/18 43/20/18 44/22/18
f 45/16/19 46/23/20 47/24/21
f 47/24/21 48/15/1 45/16/19
f 49/25/22 47/24/21 50/23/23
f 50/23/23 51/26/24 49/25/22
f 52/27/25 54/25/22 53/28/26
f 54/25/22 52/27/25 55/24/21
f 56/17/27 55/24/21 57/27/28
f 55/24/21 56/17/27 58/15/29
f 59/29/7 58/15/1 60/17/27
f 60/17/27 61/30/30 59/29/7
f 62/16/19 64/29/7 63/31/31
f 64/29/7 62/16/19 48/15/32
f 65/32/10 66/31/31 64/29/7
f 66/31/31 65/32/10 67/33/33
f 68/30/34 69/34/35 70/32/10
f 70/32/10 59/29/7 68/30/34
f 73/35/36 74/36/21 72/37/37
f 74/36/21 73/35/36 71/38/22
f 75/39/38 74/36/21 71/38/22
f 74/36/21 75/39/38 76/40/39
f 79/15/32 78/40/39 77/16/13
f 78/40/39 79/15/32 74/36/40
f 79/15/32 80/37/37 74/36/40
f 80/37/37 79/15/32 81/17/41
f 82/41/42 84/42/43 83/43/44
f 84/42/43 82/41/42 85/44/45
f 86/44/46 88/45/47 87/46/48
f 88/45/47 86/44/46 89/41/49
f 91/47/50 92/46/51 90/45/52
f 92/46/51 91/47/50 93/48/53
f 96/47/50 94/49/54 95/48/53
f 94/49/54 96/47/50 97/50/55
f 98/51/56 99/52/56 100/15/56
f 101/53/57 102/51/57 103/15/57
f 104/54/58 105/53/58 106/15/58
f 107/55/59 108/54/59 109/15/59
f 110/52/60 111/55/60 112/15/60
f 113/56/61 115/57/62 114/58/63
f 115/57/62 113/56/61 116/59/23
f 117/59/23 119/60/64 118/61/24
f 119/60/64 117/59/23 120/56/61
f 121/62/65 122/58/63 123/57/62
f 123/57/62 124/63/31 121/62/65
f 127/64/66 125/63/31 126/65/67
f 125/63/31 127/64/66 128/62/65
f 131/65/68 130/66/69 129/64/66
f 130/66/69 131/65/68 132/67/70
f 133/68/71 135/66/72 134/67/70
f 135/66/72 133/68/71 136/69/73
f 137/70/74 138/69/73 139/68/71
f 139/68/71 140/71/75 137/70/74
f 141/71/76 142/72/77 143/73/78
f 143/73/78 144/70/79 141/71/76
f 146/74/39 145/73/78 147/72/80
f 147/72/80 148/75/81 146/74/39
f 151/50/55 150/75/81 149/49/54
f 150/75/81 151/50/55 152/74/39
f 155/76/82 153/60/83 154/77/84
f 153/60/83 155/76/82 156/61/85
f 159/77/86 157/42/43 158/76/82
f 157/42/43 159/77/86 160/43/44
f 161/15/87 162/37/88 163/36/89
f 161/15/87 163/36/89 164/40/42
f 161/15/87 164/40/42 165/16/90
f 163/36/89 166/39/52 167/40/49
f 163/36/89 168/38/10 166/39/52
f 163/36/89 169/35/91 168/38/10
f 169/35/91 163/36/89 170/37/88
f 171/78/92 172/79/92 173/80/92
f 174/79/93 175/81/93 176/80/93
f 180/27/94 179/25/10 181/82/35
f 179/25/10 180/27/94 182/24/89
f 184/23/95 183/83/33 178/25/10
f 178/25/10 185/24/89 184/23/95
f 185/24/89 186/15/87 187/16/96
f 185/24/89 187/16/96 188/23/70
f 189/17/97 182/24/89 190/27/94
f 182/24/89 189/17/97 191/15/3
f 192/17/98 193/29/99 191/15/3
f 192/17/98 194/30/100 193/29/99
f 195/16/96 197/29/99 196/31/75
f 197/29/99 195/16/96 186/15/3
f 198/32/101 199/31/76 197/29/99
f 199/31/76 198/32/101 200/33/80
f 201/30/100 202/34/102 203/32/101
f 201/30/100 203/32/101 193/29/99
f 204/9/99 205/13/103 177/12/101
f 206/10/104 204/9/99 177/12/101
f 205/13/103 204/9/99 207/14/86
f 206/10/104 208/11/105 204/9/99
f 209/14/86 161/15/106 210/16/90
f 161/15/106 209/14/86 204/9/107
f 211/11/108 161/15/106 204/9/107
f 211/11/108 212/17/109 161/15/106
f 162/37/88 161/15/87 213/17/109
f 216/30/110 215/32/111 217/29/112
f 216/30/110 218/34/113 215/32/111
f 220/31/53 214/32/111 219/33/48
f 214/32/111 220/31/53 221/29/112
f 221/29/112 222/16/114 223/15/4
f 222/16/114 221/29/112 224/31/53
f 217/29/112 225/17/115 226/30/110
f 225/17/115 217/29/112 227/15/4
f 228/84/116 229/85/116 230/86/116
f 231/84/117 232/86/117 233/87/117
f 234/85/118 235/88/118 236/86/118
f 237/40/119 238/16/63 239/15/4
f 239/15/4 240/36/120 237/40/119
f 241/39/83 242/40/119 240/36/121
f 240/36/121 243/38/101 241/39/83
f 240/36/121 244/35/104 243/38/101
f 244/35/104 240/36/121 245/37/122
f 239/15/4 246/37/122 240/36/120
f 246/37/122 239/15/4 247/17/123
f 248/11/124 249/17/125 239/15/126
f 239/15/126 250/9/127 248/11/124
f 239/15/126 251/14/128 250/9/127
f 251/14/128 239/15/126 252/16/63
f 253/13/66 250/9/112 254/14/128
f 250/9/112 253/13/66 255/12/111
f 250/9/112 255/12/111 256/10/129
f 256/10/129 257/11/130 250/9/112
f 259/25/101 260/89/131 261/24/121
f 260/89/131 259/25/101 262/82/102
f 258/25/101 264/90/81 263/83/80
f 264/90/81 258/25/101 265/24/121
f 266/16/54 265/24/121 267/15/4
f 265/24/121 266/16/54 268/90/81
f 270/17/132 261/24/121 269/89/131
f 261/24/121 270/17/132 271/15/4
f 273/60/91 274/77/133 275/76/134
f 275/76/134 276/61/135 273/60/91
f 279/56/9 278/61/113 277/59/110
f 279/56/9 280/60/91 278/61/113
f 281/56/9 283/57/136 282/58/41
f 283/57/136 281/56/9 284/59/110
f 285/15/137 286/53/137 287/51/137
f 288/53/138 289/15/138 290/54/138
f 291/15/139 292/51/139 293/52/139
f 294/15/140 295/52/140 296/55/140
f 297/15/141 298/55/141 299/54/141
f 300/45/104 301/47/142 302/48/28
f 300/45/104 302/48/28 303/46/143
f 304/47/142 305/50/123 306/49/144
f 304/47/142 306/49/144 307/48/28
f 308/49/144 310/74/124 309/75/34
f 310/74/124 308/49/144 311/50/123
f 312/73/129 314/75/34 313/74/130
f 314/75/34 312/73/129 315/91/35
f 317/91/145 318/70/146 316/71/94
f 318/70/146 317/91/145 319/73/129
f 320/70/147 321/69/148 322/68/149
f 320/70/147 322/68/149 323/71/94
f 324/68/149 326/66/150 325/67/100
f 326/66/150 324/68/149 327/69/148
f 328/64/151 330/67/152 329/66/153
f 330/67/152 328/64/151 331/92/102
f 333/92/154 334/62/155 332/63/131
f 334/62/155 333/92/154 335/64/156
f 337/58/41 338/63/131 336/62/155
f 338/63/131 337/58/41 339/57/136
f 340/45/104 342/44/157 341/41/105
f 342/44/157 340/45/104 343/46/158
f 344/41/108 346/42/159 345/43/160
f 346/42/159 344/41/108 347/44/157
f 348/42/159 349/76/161 272/77/88
f 272/77/88 350/43/160 348/42/159
f 353/24/162 351/16/163 352/23/45
f 351/16/163 353/24/162 354/15/6
f 355/23/45 356/25/164 353/24/162
f 355/23/45 357/26/48 356/25/164
f 358/27/165 360/25/111 359/28/113
f 360/25/111 358/27/165 361/24/162
f 362/93/166 363/94/166 364/95/166
f 365/93/167 366/95/167 367/96/167
f 372/35/168 373/36/162 371/37/147
f 373/36/162 372/35/168 370/38/111
f 373/36/162 370/38/111 374/39/169
f 374/39/169 375/40/69 373/36/162
f 376/40/69 377/16/73 378/15/170
f 376/40/69 378/15/170 373/36/162
f 378/15/170 379/37/147 373/36/162
f 379/37/147 378/15/170 380/17/148
f 378/15/171 381/11/150 382/17/148
f 378/15/171 383/9/172 381/11/150
f 378/15/171 384/14/74 383/9/172
f 384/14/74 378/15/171 385/16/73
f 386/13/78 383/9/172 387/14/79
f 383/9/172 386/13/78 388/12/22
f 383/9/172 388/12/22 389/10/156
f 383/9/172 389/10/156 390/11/153
f 391/31/82 368/32/22 392/33/24
f 368/32/22 391/31/82 393/29/173
f 369/32/22 394/30/157 395/34/26
f 369/32/22 396/29/172 394/30/157
f 393/29/172 397/16/174 354/15/6
f 397/16/174 393/29/172 398/31/82
f 396/29/172 399/17/175 400/30/157
f 396/29/172 401/15/171 399/17/175
f 361/24/162 402/17/175 401/15/6
f 402/17/175 361/24/162 403/27/176
