# Blender 5.1.2
# www.blender.org
mtllib output.mtl
o output
v 0.211221 0.050589 -0.214575
v 0.211221 -0.099412 -0.214575
v 0.258897 0.050589 -0.152374
v 0.258897 -0.099412 -0.152374
v 0.288867 0.050589 -0.080074
v 0.288867 -0.099412 -0.080074
v 0.299089 0.050589 -0.002375
v 0.299089 -0.099412 -0.002375
v 0.288867 0.050589 0.075226
v 0.288867 -0.099412 0.075226
v 0.258897 0.050589 0.147625
v 0.258897 -0.099412 0.147625
v 0.211222 0.050589 0.209726
v 0.211222 -0.099412 0.209726
v -0.204778 0.050589 0.115326
v -0.159221 0.018938 0.155926
v -0.194800 0.018938 0.109526
v -0.167368 0.050589 0.164026
v -0.217166 0.018938 0.055527
v -0.194800 0.018938 0.109526
v -0.228295 0.050589 0.058525
v -0.204778 0.050589 0.115326
v -0.224795 0.018938 -0.002375
v -0.217166 0.018938 0.055527
v -0.236317 0.050589 -0.002375
v -0.228295 0.050589 0.058525
v -0.217166 0.018938 -0.060373
v -0.224795 0.018938 -0.002375
v -0.236317 0.050589 -0.002375
v -0.228295 0.050589 -0.063374
v -0.194800 0.018938 -0.114374
v -0.217166 0.018938 -0.060373
v -0.228295 0.050589 -0.063374
v -0.204778 0.050589 -0.120073
v -0.159221 0.018938 -0.160675
v -0.194800 0.018938 -0.114374
v -0.204778 0.050589 -0.120073
v -0.167368 0.050589 -0.168875
v -0.150910 0.050589 -0.262175
v -0.167368 0.050589 -0.168875
v -0.118613 0.050589 -0.206274
v -0.213043 0.050589 -0.214575
v -0.204778 0.050589 -0.120073
v -0.213043 0.050589 -0.214575
v -0.260718 0.050589 -0.152374
v -0.167368 0.050589 -0.168875
v -0.000911 0.050589 -0.302374
v -0.061838 0.050589 -0.229774
v -0.000911 0.050589 -0.237774
v -0.078556 0.050589 -0.292173
v -0.061838 0.050589 -0.229774
v -0.150910 0.050589 -0.262175
v -0.118613 0.050589 -0.206274
v -0.078556 0.050589 -0.292173
v -0.290688 0.050589 -0.080074
v -0.236317 0.050589 -0.002375
v -0.228295 0.050589 -0.063374
v -0.300910 0.050589 -0.002375
v -0.236317 0.050589 -0.002375
v -0.300910 0.050589 -0.002375
v -0.290688 0.050589 0.075226
v -0.228295 0.050589 0.058525
v -0.260718 0.050589 0.147625
v -0.204778 0.050589 0.115326
v -0.290688 0.050589 0.075226
v -0.228295 0.050589 0.058525
v -0.290688 0.050589 -0.080074
v -0.204778 0.050589 -0.120073
v -0.260718 0.050589 -0.152374
v -0.228295 0.050589 -0.063374
v -0.118614 0.050589 0.201426
v -0.213043 0.050589 0.209726
v -0.150910 0.050589 0.257425
v -0.167368 0.050589 0.164026
v -0.061838 0.050589 0.225025
v -0.150910 0.050589 0.257425
v -0.078556 0.050589 0.287325
v -0.118614 0.050589 0.201426
v -0.000911 0.050589 0.233027
v -0.078556 0.050589 0.287325
v -0.000911 0.050589 0.297626
v -0.078556 0.050589 0.287325
v -0.000911 0.050589 0.233027
v -0.061838 0.050589 0.225025
v -0.167368 0.050589 0.164026
v -0.260718 0.050589 0.147625
v -0.213043 0.050589 0.209726
v -0.204778 0.050589 0.115326
v -0.000911 0.050589 0.297626
v 0.060017 0.050589 0.225025
v -0.000911 0.050589 0.233027
v 0.076735 0.050589 0.287325
v 0.076735 0.050589 0.287325
v 0.116792 0.050589 0.201426
v 0.060017 0.050589 0.225025
v 0.149090 0.050589 0.257425
v 0.116792 0.050589 0.201426
v 0.149090 0.050589 0.257425
v 0.165547 0.050589 0.164026
v 0.211222 0.050589 0.209726
v 0.258897 0.050589 0.147625
v 0.202957 0.050589 0.115326
v 0.211222 0.050589 0.209726
v 0.165547 0.050589 0.164026
v 0.226474 0.050589 -0.063374
v 0.258897 0.050589 -0.152374
v 0.202957 0.050589 -0.120073
v 0.288867 0.050589 -0.080074
v 0.258897 0.050589 0.147625
v 0.288867 0.050589 0.075226
v 0.202957 0.050589 0.115326
v 0.226474 0.050589 0.058525
v 0.226474 0.050589 0.058525
v 0.299089 0.050589 -0.002375
v 0.234496 0.050589 -0.002375
v 0.299089 0.050589 -0.002375
v 0.226474 0.050589 0.058525
v 0.288867 0.050589 0.075226
v 0.234496 0.050589 -0.002375
v 0.288867 0.050589 -0.080074
v 0.226474 0.050589 -0.063374
v 0.299089 0.050589 -0.002375
v 0.149089 0.050589 -0.262175
v 0.060017 0.050589 -0.229774
v 0.116792 0.050589 -0.206274
v 0.076735 0.050589 -0.292173
v 0.076735 0.050589 -0.292173
v -0.000911 0.050589 -0.302374
v 0.060017 0.050589 -0.229774
v -0.000911 0.050589 -0.237774
v 0.202957 0.050589 -0.120073
v 0.211221 0.050589 -0.214575
v 0.165547 0.050589 -0.168875
v 0.258897 0.050589 -0.152374
v 0.165547 0.050589 -0.168875
v 0.211221 0.050589 -0.214575
v 0.116792 0.050589 -0.206274
v 0.149089 0.050589 -0.262175
v 0.069355 -0.046831 -0.021275
v 0.132743 -0.032281 -0.038174
v 0.062088 -0.046831 -0.038774
v -0.000911 -0.051842 -0.002375
v 0.118920 -0.032281 -0.071573
v 0.183048 -0.009621 -0.051674
v 0.164022 -0.009621 -0.097673
v 0.215345 0.018938 -0.060373
v 0.192979 0.018938 -0.114374
v 0.183048 -0.009621 -0.051674
v 0.137458 -0.032281 -0.002375
v 0.189537 -0.009621 -0.002375
v 0.222974 0.018938 -0.002375
v 0.132743 -0.032281 -0.038174
v 0.215345 0.018938 -0.060373
v 0.069355 -0.046831 -0.021275
v 0.071834 -0.046831 -0.002375
v -0.000911 -0.051842 -0.002375
v 0.222974 0.018938 -0.002375
v 0.183048 -0.009621 0.046926
v 0.215345 0.018938 0.055527
v 0.189537 -0.009621 -0.002375
v 0.137458 -0.032281 -0.002375
v 0.132743 -0.032281 0.033426
v 0.069355 -0.046831 0.016426
v 0.071834 -0.046831 -0.002375
v -0.000911 -0.051842 -0.002375
v -0.000911 -0.051842 -0.002375
v 0.062088 -0.046831 0.033926
v 0.069355 -0.046831 0.016426
v 0.132743 -0.032281 0.033426
v 0.118920 -0.032281 0.066826
v 0.183048 -0.009621 0.046926
v 0.164022 -0.009621 0.092825
v 0.215345 0.018938 0.055527
v 0.192979 0.018938 0.109526
v 0.157400 0.018938 0.155926
v 0.192979 0.018938 0.109526
v 0.164022 -0.009621 0.092825
v 0.133756 -0.009621 0.132225
v 0.096931 -0.032281 0.095427
v 0.118920 -0.032281 0.066826
v 0.050527 -0.046831 0.049026
v 0.062088 -0.046831 0.033926
v -0.000911 -0.051842 -0.002375
v 0.035462 -0.046831 0.060625
v 0.096931 -0.032281 0.095427
v 0.050527 -0.046831 0.049026
v -0.000911 -0.051842 -0.002375
v 0.068274 -0.032281 0.117426
v 0.094313 -0.009621 0.162525
v 0.133756 -0.009621 0.132225
v 0.111032 0.018938 0.191526
v 0.157400 0.018938 0.155926
v 0.034902 -0.032281 0.131226
v 0.094313 -0.009621 0.162525
v 0.068274 -0.032281 0.117426
v 0.035462 -0.046831 0.060625
v 0.017917 -0.046831 0.067825
v -0.000911 -0.051842 -0.002375
v 0.048381 -0.009621 0.181526
v 0.057035 0.018938 0.213825
v 0.111032 0.018938 0.191526
v -0.050202 -0.009621 0.181526
v -0.000911 0.018938 0.221525
v -0.000911 -0.009621 0.188026
v -0.058856 0.018938 0.213825
v -0.036723 -0.032281 0.131226
v -0.000911 -0.032281 0.135925
v -0.019738 -0.046831 0.067825
v -0.000911 -0.046831 0.070326
v -0.000911 -0.051842 -0.002375
v -0.050202 -0.009621 0.181526
v -0.096134 -0.009621 0.162525
v -0.112853 0.018938 0.191526
v -0.070095 -0.032281 0.117426
v -0.058856 0.018938 0.213825
v -0.036723 -0.032281 0.131226
v -0.037283 -0.046831 0.060625
v -0.019738 -0.046831 0.067825
v -0.000911 -0.051842 -0.002375
v -0.000911 -0.051842 -0.002375
v -0.052349 -0.046831 0.049026
v -0.037283 -0.046831 0.060625
v -0.098752 -0.032281 0.095427
v -0.070095 -0.032281 0.117426
v -0.096134 -0.009621 0.162525
v -0.135577 -0.009621 0.132225
v -0.112853 0.018938 0.191526
v -0.159221 0.018938 0.155926
v -0.159221 0.018938 0.155926
v -0.194800 0.018938 0.109526
v -0.165843 -0.009621 0.092825
v -0.135577 -0.009621 0.132225
v -0.098752 -0.032281 0.095427
v -0.120741 -0.032281 0.066826
v -0.052349 -0.046831 0.049026
v -0.063909 -0.046831 0.033926
v -0.000911 -0.051842 -0.002375
v -0.120741 -0.032281 0.066826
v -0.071176 -0.046831 0.016426
v -0.134564 -0.032281 0.033426
v -0.063909 -0.046831 0.033926
v -0.000911 -0.051842 -0.002375
v -0.165843 -0.009621 0.092825
v -0.184869 -0.009621 0.046926
v -0.217166 0.018938 0.055527
v -0.194800 0.018938 0.109526
v -0.070095 -0.032281 -0.122274
v -0.037283 -0.046831 -0.065374
v -0.036723 -0.032281 -0.136074
v -0.019738 -0.046831 -0.072674
v -0.000911 -0.051842 -0.002375
v -0.050202 -0.009621 -0.186375
v -0.096134 -0.009621 -0.167374
v -0.112853 0.018938 -0.196274
v -0.058856 0.018938 -0.218674
v -0.000911 -0.009621 -0.192875
v -0.050202 -0.009621 -0.186375
v -0.036723 -0.032281 -0.136074
v -0.058856 0.018938 -0.218674
v -0.000911 -0.032281 -0.140774
v -0.000911 0.018938 -0.226274
v -0.019738 -0.046831 -0.072674
v -0.000911 -0.046831 -0.075174
v -0.000911 -0.051842 -0.002375
v -0.000911 -0.009621 -0.192875
v 0.034902 -0.032281 -0.136074
v 0.048381 -0.009621 -0.186375
v 0.057035 0.018938 -0.218674
v -0.000911 -0.032281 -0.140774
v -0.000911 0.018938 -0.226274
v 0.017917 -0.046831 -0.072674
v -0.000911 -0.046831 -0.075174
v -0.000911 -0.051842 -0.002375
v -0.000911 -0.051842 -0.002375
v 0.035462 -0.046831 -0.065374
v 0.017917 -0.046831 -0.072674
v 0.034902 -0.032281 -0.136074
v 0.068274 -0.032281 -0.122274
v 0.048381 -0.009621 -0.186375
v 0.094313 -0.009621 -0.167374
v 0.057035 0.018938 -0.218674
v 0.111032 0.018938 -0.196274
v 0.157400 0.018938 -0.160675
v 0.111032 0.018938 -0.196274
v 0.133756 -0.009621 -0.137074
v 0.094313 -0.009621 -0.167374
v 0.068274 -0.032281 -0.122274
v 0.096931 -0.032281 -0.100275
v 0.035462 -0.046831 -0.065374
v 0.050527 -0.046831 -0.053875
v -0.000911 -0.051842 -0.002375
v 0.062088 -0.046831 -0.038774
v 0.096931 -0.032281 -0.100275
v 0.050527 -0.046831 -0.053875
v -0.000911 -0.051842 -0.002375
v 0.118920 -0.032281 -0.071573
v 0.133756 -0.009621 -0.137074
v 0.164022 -0.009621 -0.097673
v 0.157400 0.018938 -0.160675
v 0.192979 0.018938 -0.114374
v -0.000911 -0.009621 0.188026
v 0.034902 -0.032281 0.131226
v -0.000911 -0.032281 0.135925
v 0.048381 -0.009621 0.181526
v 0.017917 -0.046831 0.067825
v -0.000911 -0.046831 0.070326
v -0.000911 -0.051842 -0.002375
v -0.000911 0.018938 0.221525
v 0.057035 0.018938 0.213825
v -0.191358 -0.009621 -0.002375
v -0.134564 -0.032281 0.033426
v -0.139279 -0.032281 -0.002375
v -0.073655 -0.046831 -0.002375
v -0.071176 -0.046831 0.016426
v -0.000911 -0.051842 -0.002375
v -0.184869 -0.009621 0.046926
v -0.224795 0.018938 -0.002375
v -0.217166 0.018938 0.055527
v -0.184869 -0.009621 -0.051674
v -0.139279 -0.032281 -0.002375
v -0.134564 -0.032281 -0.038174
v -0.191358 -0.009621 -0.002375
v -0.073655 -0.046831 -0.002375
v -0.071176 -0.046831 -0.021275
v -0.000911 -0.051842 -0.002375
v -0.217166 0.018938 -0.060373
v -0.224795 0.018938 -0.002375
v -0.194800 0.018938 -0.114374
v -0.184869 -0.009621 -0.051674
v -0.165843 -0.009621 -0.097673
v -0.120741 -0.032281 -0.071573
v -0.217166 0.018938 -0.060373
v -0.134564 -0.032281 -0.038174
v -0.063909 -0.046831 -0.038774
v -0.071176 -0.046831 -0.021275
v -0.000911 -0.051842 -0.002375
v -0.000911 -0.051842 -0.002375
v -0.052349 -0.046831 -0.053875
v -0.063909 -0.046831 -0.038774
v -0.098752 -0.032281 -0.100275
v -0.120741 -0.032281 -0.071573
v -0.165843 -0.009621 -0.097673
v -0.135577 -0.009621 -0.137074
v -0.159221 0.018938 -0.160675
v -0.194800 0.018938 -0.114374
v -0.037283 -0.046831 -0.065374
v -0.098752 -0.032281 -0.100275
v -0.052349 -0.046831 -0.053875
v -0.000911 -0.051842 -0.002375
v -0.070095 -0.032281 -0.122274
v -0.135577 -0.009621 -0.137074
v -0.096134 -0.009621 -0.167374
v -0.112853 0.018938 -0.196274
v -0.159221 0.018938 -0.160675
v -0.078556 -0.099412 0.287325
v -0.000911 -0.099412 0.297626
v -0.078556 0.050589 0.287325
v -0.000911 0.050589 0.297626
v -0.150910 0.050589 0.257425
v -0.150910 -0.099412 0.257425
v -0.213043 0.050589 0.209726
v -0.213043 -0.099412 0.209726
v 0.211222 0.050589 0.209726
v 0.211222 -0.099412 0.209726
v 0.149090 0.050589 0.257425
v 0.149090 -0.099412 0.257425
v 0.076735 0.050589 0.287325
v 0.076735 -0.099412 0.287325
v -0.000911 0.050589 0.297626
v -0.000911 -0.099412 0.297626
v -0.112853 0.018938 -0.196274
v -0.058856 0.018938 -0.218674
v -0.061838 0.050589 -0.229774
v -0.118613 0.050589 -0.206274
v -0.058856 0.018938 -0.218674
v -0.000911 0.018938 -0.226274
v -0.000911 0.050589 -0.237774
v -0.061838 0.050589 -0.229774
v 0.057035 0.018938 -0.218674
v -0.000911 0.018938 -0.226274
v -0.000911 0.050589 -0.237774
v 0.060017 0.050589 -0.229774
v 0.057035 0.018938 -0.218674
v 0.111032 0.018938 -0.196274
v 0.060017 0.050589 -0.229774
v 0.116792 0.050589 -0.206274
v 0.157400 0.018938 -0.160675
v 0.116792 0.050589 -0.206274
v 0.111032 0.018938 -0.196274
v 0.165547 0.050589 -0.168875
v -0.112853 0.018938 -0.196274
v -0.159221 0.018938 -0.160675
v -0.118613 0.050589 -0.206274
v -0.167368 0.050589 -0.168875
v -0.213043 0.050589 0.209726
v -0.213043 -0.099412 0.209726
v -0.260718 0.050589 0.147625
v -0.260718 -0.099412 0.147625
v -0.290688 0.050589 0.075226
v -0.290688 -0.099412 0.075226
v -0.300910 0.050589 -0.002375
v -0.300910 -0.099412 -0.002375
v -0.290688 0.050589 -0.080074
v -0.290688 -0.099412 -0.080074
v -0.260718 0.050589 -0.152374
v -0.260718 -0.099412 -0.152374
v -0.213043 0.050589 -0.214575
v -0.213043 -0.099412 -0.214575
v 0.215345 0.018938 -0.060373
v 0.192979 0.018938 -0.114374
v 0.226474 0.050589 -0.063374
v 0.202957 0.050589 -0.120073
v 0.222974 0.018938 -0.002375
v 0.215345 0.018938 -0.060373
v 0.234496 0.050589 -0.002375
v 0.226474 0.050589 -0.063374
v 0.222974 0.018938 -0.002375
v 0.215345 0.018938 0.055527
v 0.234496 0.050589 -0.002375
v 0.226474 0.050589 0.058525
v 0.215345 0.018938 0.055527
v 0.192979 0.018938 0.109526
v 0.226474 0.050589 0.058525
v 0.202957 0.050589 0.115326
v 0.202957 0.050589 0.115326
v 0.157400 0.018938 0.155926
v 0.165547 0.050589 0.164026
v 0.192979 0.018938 0.109526
v 0.157400 0.018938 -0.160675
v 0.192979 0.018938 -0.114374
v 0.202957 0.050589 -0.120073
v 0.165547 0.050589 -0.168875
v 0.211221 -0.099412 -0.214575
v -0.260718 -0.099412 0.147625
v -0.150910 -0.099412 -0.262175
v 0.076735 -0.099412 -0.292173
v 0.149089 -0.099412 -0.262175
v -0.000911 -0.099412 -0.302374
v -0.078556 -0.099412 -0.292173
v 0.211222 -0.099412 0.209726
v 0.258897 -0.099412 -0.152374
v -0.300910 -0.099412 -0.002375
v -0.290688 -0.099412 0.075226
v -0.290688 -0.099412 -0.080074
v -0.213043 -0.099412 -0.214575
v -0.260718 -0.099412 -0.152374
v 0.299089 -0.099412 -0.002375
v 0.288867 -0.099412 -0.080074
v 0.258897 -0.099412 0.147625
v 0.288867 -0.099412 0.075226
v -0.150910 -0.099412 0.257425
v -0.213043 -0.099412 0.209726
v -0.000911 -0.099412 0.297626
v -0.078556 -0.099412 0.287325
v 0.149090 -0.099412 0.257425
v 0.076735 -0.099412 0.287325
v -0.213043 0.050589 -0.214575
v -0.213043 -0.099412 -0.214575
v -0.150910 0.050589 -0.262175
v -0.150910 -0.099412 -0.262175
v -0.078556 0.050589 -0.292173
v -0.078556 -0.099412 -0.292173
v -0.000911 0.050589 -0.302374
v -0.000911 -0.099412 -0.302374
v 0.076735 0.050589 -0.292173
v 0.076735 -0.099412 -0.292173
v 0.149089 0.050589 -0.262175
v 0.149089 -0.099412 -0.262175
v 0.211221 0.050589 -0.214575
v 0.211221 -0.099412 -0.214575
v 0.111032 0.018938 0.191526
v 0.157400 0.018938 0.155926
v 0.116792 0.050589 0.201426
v 0.165547 0.050589 0.164026
v 0.057035 0.018938 0.213825
v 0.111032 0.018938 0.191526
v 0.060017 0.050589 0.225025
v 0.116792 0.050589 0.201426
v -0.000911 0.018938 0.221525
v -0.058856 0.018938 0.213825
v -0.000911 0.050589 0.233027
v -0.061838 0.050589 0.225025
v -0.112853 0.018938 0.191526
v -0.058856 0.018938 0.213825
v -0.061838 0.050589 0.225025
v -0.118614 0.050589 0.201426
v -0.112853 0.018938 0.191526
v -0.159221 0.018938 0.155926
v -0.118614 0.050589 0.201426
v -0.167368 0.050589 0.164026
v -0.000911 0.018938 0.221525
v 0.057035 0.018938 0.213825
v -0.000911 0.050589 0.233027
v 0.060017 0.050589 0.225025
vn 0.8644 -0.0000 -0.5028
vn 0.7072 -0.0000 -0.7071
vn 0.8643 -0.0000 -0.5029
vn 0.9659 -0.0000 -0.2589
vn 1.0000 -0.0000 0.0001
vn 0.9659 -0.0000 0.2591
vn 0.8644 -0.0000 0.5029
vn 0.7072 -0.0000 0.7070
vn 0.8128 0.3393 -0.4736
vn 0.5928 0.5452 -0.5927
vn 0.7266 0.5448 -0.4186
vn 0.6650 0.3404 -0.6648
vn 0.9081 0.3396 -0.2449
vn 0.7266 0.5449 -0.4186
vn 0.8104 0.5428 -0.2204
vn 0.8129 0.3393 -0.4734
vn 0.9405 0.3398 -0.0001
vn 0.8105 0.5428 -0.2203
vn 0.8381 0.5455 -0.0000
vn 0.9082 0.3396 -0.2447
vn 0.8104 0.5428 0.2203
vn 0.9405 0.3399 0.0001
vn 0.9082 0.3396 0.2447
vn 0.7266 0.5448 0.4185
vn 0.9081 0.3396 0.2449
vn 0.8104 0.5428 0.2204
vn 0.8129 0.3393 0.4734
vn 0.5928 0.5452 0.5927
vn 0.8128 0.3393 0.4736
vn 0.7266 0.5448 0.4186
vn 0.6649 0.3404 0.6649
vn -0.0000 1.0000 -0.0000
vn -0.1413 0.9892 0.0393
vn -0.3081 0.9481 0.0790
vn -0.1256 0.9896 0.0707
vn -0.2765 0.9479 0.1580
vn -0.5254 0.8391 0.1412
vn -0.4713 0.8406 0.2671
vn -0.8103 0.5430 0.2203
vn -0.7265 0.5450 0.4185
vn -0.5254 0.8391 0.1411
vn -0.3162 0.9487 -0.0000
vn -0.5420 0.8404 -0.0000
vn -0.8380 0.5456 -0.0000
vn -0.8104 0.5429 0.2202
vn -0.1491 0.9888 -0.0000
vn -0.8380 0.5456 -0.0001
vn -0.5254 0.8391 -0.1411
vn -0.8103 0.5430 -0.2203
vn -0.5419 0.8404 -0.0000
vn -0.3081 0.9481 -0.0790
vn -0.1413 0.9892 -0.0392
vn -0.1257 0.9896 -0.0707
vn -0.1413 0.9892 -0.0393
vn -0.2765 0.9479 -0.1580
vn -0.5254 0.8391 -0.1412
vn -0.4713 0.8405 -0.2671
vn -0.7265 0.5450 -0.4185
vn -0.5927 0.5454 -0.5927
vn -0.7265 0.5450 -0.4186
vn -0.3844 0.8394 -0.3844
vn -0.2287 0.9463 -0.2287
vn -0.1021 0.9895 -0.1021
vn -0.0707 0.9896 -0.1257
vn -0.1580 0.9480 -0.2765
vn -0.2671 0.8405 -0.4713
vn -0.3844 0.8393 -0.3844
vn -0.4185 0.5450 -0.7265
vn -0.0790 0.9481 -0.3081
vn -0.1580 0.9479 -0.2765
vn -0.0392 0.9892 -0.1413
vn -0.1411 0.8391 -0.5254
vn -0.2203 0.5430 -0.8104
vn 0.1411 0.8391 -0.5254
vn 0.0001 0.5456 -0.8380
vn -0.0000 0.8404 -0.5419
vn 0.2203 0.5430 -0.8103
vn 0.0790 0.9481 -0.3081
vn -0.0000 0.9487 -0.3162
vn 0.0392 0.9892 -0.1413
vn -0.0000 0.9888 -0.1491
vn 0.2670 0.8405 -0.4714
vn 0.4185 0.5450 -0.7265
vn 0.1580 0.9479 -0.2765
vn 0.2204 0.5429 -0.8103
vn 0.0707 0.9896 -0.1257
vn 0.1021 0.9895 -0.1021
vn 0.2287 0.9463 -0.2287
vn 0.1580 0.9480 -0.2765
vn 0.2671 0.8405 -0.4713
vn 0.3844 0.8393 -0.3844
vn 0.4186 0.5450 -0.7265
vn 0.5927 0.5454 -0.5927
vn 0.5927 0.5454 -0.5926
vn 0.4713 0.8405 -0.2671
vn 0.7265 0.5450 -0.4185
vn 0.3844 0.8394 -0.3844
vn 0.2765 0.9479 -0.1580
vn 0.1257 0.9896 -0.0707
vn 0.2765 0.9480 -0.1580
vn 0.1413 0.9892 -0.0393
vn 0.3081 0.9481 -0.0790
vn 0.1256 0.9896 -0.0707
vn 0.5254 0.8391 -0.1412
vn 0.8103 0.5430 -0.2203
vn 0.1580 0.9479 0.2765
vn 0.0707 0.9896 0.1257
vn 0.0790 0.9481 0.3081
vn 0.0392 0.9892 0.1413
vn 0.1412 0.8391 0.5254
vn 0.2671 0.8405 0.4713
vn 0.4185 0.5450 0.7265
vn 0.2203 0.5429 0.8104
vn -0.0000 0.8404 0.5419
vn 0.1411 0.8391 0.5254
vn 0.2202 0.5430 0.8104
vn -0.0000 0.9487 0.3162
vn -0.0000 0.5456 0.8380
vn -0.0000 0.9888 0.1491
vn -0.0790 0.9481 0.3081
vn -0.1411 0.8391 0.5254
vn -0.2203 0.5430 0.8103
vn -0.0000 0.5456 0.8381
vn -0.0392 0.9892 0.1413
vn -0.0707 0.9896 0.1257
vn -0.1580 0.9479 0.2765
vn -0.1412 0.8391 0.5254
vn -0.2671 0.8405 0.4713
vn -0.2204 0.5429 0.8103
vn -0.4185 0.5450 0.7265
vn -0.4186 0.5450 0.7265
vn -0.3844 0.8394 0.3844
vn -0.5927 0.5454 0.5927
vn -0.2671 0.8406 0.4713
vn -0.2287 0.9463 0.2287
vn -0.1021 0.9895 0.1021
vn -0.4713 0.8405 0.2671
vn -0.0000 0.5456 -0.8380
vn -0.2202 0.5429 -0.8104
vn 0.5419 0.8404 -0.0000
vn 0.3162 0.9487 -0.0000
vn 0.1491 0.9888 -0.0000
vn 0.1414 0.9892 -0.0392
vn 0.5254 0.8391 -0.1411
vn 0.8380 0.5456 -0.0000
vn 0.8104 0.5430 -0.2202
vn 0.5254 0.8391 0.1411
vn 0.3081 0.9481 0.0790
vn 0.5420 0.8404 -0.0000
vn 0.1413 0.9892 0.0392
vn 0.8104 0.5430 0.2203
vn 0.7265 0.5450 0.4185
vn 0.5254 0.8391 0.1412
vn 0.4713 0.8406 0.2671
vn 0.2765 0.9479 0.1580
vn 0.8103 0.5430 0.2203
vn 0.1256 0.9896 0.0707
vn 0.1021 0.9895 0.1021
vn 0.1257 0.9896 0.0707
vn 0.2287 0.9463 0.2287
vn 0.4713 0.8405 0.2671
vn 0.3844 0.8394 0.3844
vn 0.5927 0.5454 0.5927
vn 0.7265 0.5450 0.4186
vn 0.2671 0.8406 0.4713
vn 0.5927 0.5453 0.5927
vn -0.2589 -0.0000 0.9659
vn -0.0001 -0.0000 1.0000
vn -0.5029 -0.0000 0.8644
vn -0.7070 -0.0000 0.7072
vn 0.7071 -0.0000 0.7072
vn 0.7071 -0.0001 0.7072
vn 0.5028 -0.0000 0.8644
vn 0.5029 -0.0000 0.8644
vn 0.2589 -0.0000 0.9659
vn 0.0001 -0.0000 1.0000
vn 0.4186 0.5449 0.7266
vn 0.2204 0.5428 0.8104
vn 0.2449 0.3396 0.9081
vn 0.4734 0.3393 0.8128
vn 0.2203 0.5428 0.8105
vn -0.0000 0.5455 0.8381
vn 0.0001 0.3398 0.9405
vn 0.2447 0.3396 0.9082
vn -0.2202 0.5428 0.8105
vn -0.0000 0.3398 0.9405
vn -0.2447 0.3396 0.9082
vn -0.4186 0.5449 0.7266
vn -0.2449 0.3396 0.9081
vn -0.2203 0.5428 0.8104
vn -0.4734 0.3393 0.8128
vn -0.5927 0.5453 0.5928
vn -0.4736 0.3393 0.8128
vn -0.4186 0.5448 0.7266
vn -0.6648 0.3404 0.6650
vn 0.4186 0.5448 0.7266
vn 0.4735 0.3393 0.8128
vn 0.5927 0.5452 0.5928
vn 0.6648 0.3404 0.6650
vn -0.8644 -0.0000 0.5028
vn -0.7072 -0.0000 0.7070
vn -0.8644 -0.0000 0.5029
vn -0.9659 -0.0000 0.2587
vn -0.9659 -0.0000 0.2588
vn -1.0000 -0.0000 0.0001
vn -0.9659 -0.0000 -0.2589
vn -0.8643 -0.0000 -0.5029
vn -0.8644 -0.0000 -0.5029
vn -0.7072 -0.0000 -0.7070
vn -0.7266 0.5448 0.4186
vn -0.8104 0.5428 0.2203
vn -0.9081 0.3396 0.2449
vn -0.8129 0.3393 0.4734
vn -0.8381 0.5455 -0.0000
vn -0.9405 0.3398 0.0001
vn -0.9082 0.3396 0.2447
vn -0.8105 0.5428 -0.2203
vn -0.9405 0.3398 -0.0001
vn -0.9082 0.3396 -0.2447
vn -0.7266 0.5449 -0.4185
vn -0.9081 0.3396 -0.2449
vn -0.8104 0.5428 -0.2204
vn -0.8129 0.3393 -0.4734
vn -0.8128 0.3393 -0.4736
vn -0.5928 0.5452 -0.5927
vn -0.6650 0.3404 -0.6648
vn -0.7266 0.5448 -0.4186
vn -0.5928 0.5452 0.5928
vn -0.8128 0.3393 0.4736
vn -0.6649 0.3404 0.6649
vn -0.0000 -1.0000 -0.0000
vn -0.5029 -0.0000 -0.8643
vn -0.7070 -0.0000 -0.7072
vn -0.5029 -0.0000 -0.8644
vn -0.2592 -0.0000 -0.9658
vn -0.2589 -0.0000 -0.9659
vn -0.0000 -0.0000 -1.0000
vn 0.2589 -0.0000 -0.9659
vn 0.2588 -0.0000 -0.9659
vn 0.5029 -0.0000 -0.8644
vn 0.7071 -0.0000 -0.7072
vn -0.5927 0.5452 -0.5928
vn -0.4187 0.5448 -0.7266
vn -0.4736 0.3393 -0.8128
vn -0.6648 0.3404 -0.6649
vn -0.2449 0.3396 -0.9081
vn -0.4186 0.5449 -0.7266
vn -0.2204 0.5428 -0.8104
vn -0.4734 0.3393 -0.8129
vn 0.2202 0.5428 -0.8105
vn 0.0001 0.3398 -0.9405
vn 0.0001 0.5455 -0.8381
vn 0.2447 0.3387 -0.9085
vn 0.4185 0.5448 -0.7266
vn 0.2449 0.3396 -0.9081
vn 0.2204 0.5428 -0.8104
vn 0.4734 0.3393 -0.8129
vn 0.5927 0.5452 -0.5928
vn 0.4736 0.3393 -0.8128
vn 0.4186 0.5448 -0.7266
vn 0.6648 0.3404 -0.6650
vn -0.0001 0.3398 -0.9405
vn -0.2203 0.5428 -0.8105
vn -0.0001 0.5455 -0.8381
vn -0.2447 0.3396 -0.9082
vt 0.464757 1.393270
vt 0.545529 1.198270
vt 0.545529 1.393270
vt 0.464757 1.198270
vt 0.370696 1.393270
vt 0.370696 1.198270
vt 0.269757 1.393270
vt 0.269757 1.198270
vt 0.168818 1.393270
vt 0.168818 1.198270
vt 0.074757 1.393270
vt 0.074757 1.198270
vt -0.006014 1.393270
vt -0.006014 1.198270
vt 0.116743 1.393270
vt 0.063954 1.352120
vt 0.124232 1.352120
vt 0.053363 1.393270
vt 0.190551 1.393270
vt 0.194428 1.352120
vt 0.269757 1.352120
vt 0.345086 1.352120
vt 0.348963 1.393270
vt 0.415282 1.352120
vt 0.422771 1.393270
vt 0.475560 1.352120
vt 0.486152 1.393270
vt 0.464757 0.958018
vt 0.486151 1.079370
vt 0.422771 1.030740
vt 0.545529 1.020000
vt 0.534785 1.142750
vt 0.607507 1.100770
vt 0.269757 0.905767
vt 0.348963 1.000170
vt 0.269757 0.989740
vt 0.370696 0.919056
vt 0.646468 1.194830
vt 0.575785 1.295770
vt 0.565357 1.216560
vt 0.659757 1.295770
vt 0.646468 1.396710
vt 0.565357 1.374970
vt 0.607507 1.490770
vt 0.534785 1.448780
vt 0.422771 1.560800
vt 0.545529 1.571540
vt 0.464757 1.633520
vt 0.486151 1.512160
vt 0.348963 1.591370
vt 0.370696 1.672480
vt 0.269757 1.601800
vt 0.269757 1.685770
vt 0.190551 1.591370
vt 0.168817 1.672480
vt 0.116743 1.560800
vt 0.074757 1.633520
vt 0.053363 1.512160
vt -0.006015 1.571540
vt -0.067993 1.490770
vt 0.004729 1.448780
vt -0.025843 1.216560
vt -0.067993 1.100770
vt 0.004729 1.142750
vt -0.106954 1.194830
vt -0.106954 1.396710
vt -0.025843 1.374970
vt -0.120243 1.295770
vt -0.036271 1.295770
vt 0.074757 0.958017
vt 0.190551 1.000170
vt 0.116743 1.030740
vt 0.168818 0.919056
vt -0.006014 1.020000
vt 0.053363 1.079370
vt 0.178412 1.271290
vt 0.096008 1.249210
vt 0.187859 1.248480
vt 0.269757 1.295770
vt 0.113977 1.205830
vt 0.030611 1.231690
vt 0.055345 1.171980
vt -0.011375 1.220440
vt 0.017700 1.150240
vt 0.089878 1.295770
vt 0.022175 1.295770
vt -0.021293 1.295770
vt 0.175189 1.295770
vt 0.030611 1.359850
vt -0.011375 1.371100
vt 0.096008 1.342320
vt 0.178412 1.320240
vt 0.187859 1.343050
vt 0.113977 1.385710
vt 0.055345 1.419560
vt 0.017700 1.441290
vt 0.063954 1.501570
vt 0.094690 1.470830
vt 0.142564 1.422960
vt 0.202888 1.362640
vt 0.222473 1.377670
vt 0.179817 1.451550
vt 0.145966 1.510180
vt 0.124232 1.547820
vt 0.223201 1.469520
vt 0.245281 1.387110
vt 0.205678 1.534910
vt 0.194428 1.576900
vt 0.333836 1.534910
vt 0.269757 1.586820
vt 0.269757 1.543350
vt 0.345086 1.576900
vt 0.316313 1.469520
vt 0.269757 1.475650
vt 0.294233 1.387110
vt 0.269757 1.390330
vt 0.393548 1.510180
vt 0.415282 1.547820
vt 0.359696 1.451550
vt 0.317041 1.377670
vt 0.336626 1.362640
vt 0.396950 1.422960
vt 0.444824 1.470830
vt 0.475560 1.501570
vt 0.484169 1.419560
vt 0.521814 1.441290
vt 0.425537 1.385710
vt 0.351655 1.343050
vt 0.361102 1.320240
vt 0.443507 1.342320
vt 0.508903 1.359850
vt 0.550890 1.371100
vt 0.359696 1.139990
vt 0.317041 1.213870
vt 0.316313 1.122020
vt 0.294233 1.204420
vt 0.333836 1.056620
vt 0.393548 1.081360
vt 0.415282 1.043710
vt 0.345086 1.014630
vt 0.269757 1.048190
vt 0.269757 1.115890
vt 0.269757 1.004720
vt 0.269757 1.201200
vt 0.223201 1.122020
vt 0.205678 1.056620
vt 0.194428 1.014630
vt 0.245281 1.204420
vt 0.222473 1.213870
vt 0.179817 1.139990
vt 0.145966 1.081360
vt 0.124232 1.043710
vt 0.094690 1.120700
vt 0.063954 1.089960
vt 0.142564 1.168570
vt 0.202888 1.228900
vt 0.517339 1.295770
vt 0.449635 1.295770
vt 0.364325 1.295770
vt 0.560807 1.295770
vt 0.508903 1.231690
vt 0.443506 1.249210
vt 0.361102 1.271290
vt 0.550890 1.220440
vt 0.521814 1.150240
vt 0.484169 1.171980
vt 0.425537 1.205830
vt 0.351655 1.248480
vt 0.336626 1.228900
vt 0.396950 1.168570
vt 0.444824 1.120700
vt 0.475560 1.089960
vt 0.074757 1.393270
vt 0.074757 1.198270
vt -0.006015 1.393270
vt -0.006015 1.198270
vt 0.370697 1.393270
vt 0.370697 1.198270
vt 0.486151 1.393270
vt 0.063954 1.352120
vt 0.348962 1.393270
vt 0.053362 1.393270
vt 0.545528 1.020000
vt -0.067993 1.490770
vt 0.074757 0.958018
vt 0.464757 0.958017
vt -0.006015 1.020000
vt -0.067993 1.100770
vt 0.074757 1.633520
vt 0.168818 1.672480
vt 0.370697 1.672480
s 1
usemtl Output1Mtl.006
f 3/1/1 2/2/2 1/3/2
f 2/2/2 3/1/1 4/4/3
f 3/1/1 5/5/4 4/4/3
f 4/4/3 5/5/4 6/6/4
f 5/5/4 7/7/5 6/6/4
f 6/6/4 7/7/5 8/8/5
f 7/7/5 9/9/6 8/8/5
f 8/8/5 9/9/6 10/10/6
f 9/9/6 11/11/7 10/10/6
f 10/10/6 11/11/7 12/12/7
f 12/12/7 11/11/7 13/13/8
f 12/12/7 13/13/8 14/14/8
f 15/15/9 16/16/10 17/17/11
f 16/16/10 15/15/9 18/18/12
f 21/19/13 20/17/14 19/20/15
f 20/17/14 21/19/13 22/15/16
f 25/7/17 24/20/18 23/21/19
f 24/20/18 25/7/17 26/19/20
f 27/22/21 29/7/22 28/21/19
f 29/7/22 27/22/21 30/23/23
f 31/24/24 33/23/25 32/22/26
f 33/23/25 31/24/24 34/25/27
f 35/26/28 37/25/29 36/24/30
f 37/25/29 35/26/28 38/27/31
f 39/28/32 40/29/32 41/30/32
f 40/29/32 39/28/32 42/31/32
f 43/32/32 44/31/32 45/33/32
f 44/31/32 43/32/32 46/29/32
f 47/34/32 48/35/32 49/36/32
f 48/35/32 47/34/32 50/37/32
f 51/35/32 52/28/32 53/30/32
f 52/28/32 51/35/32 54/37/32
f 55/38/32 56/39/32 57/40/32
f 56/39/32 55/38/32 58/41/32
f 59/39/32 60/41/32 61/42/32
f 59/39/32 61/42/32 62/43/32
f 63/44/32 64/45/32 65/42/32
f 65/42/32 64/45/32 66/43/32
f 67/38/32 68/32/32 69/33/32
f 68/32/32 67/38/32 70/40/32
f 71/46/32 72/47/32 73/48/32
f 72/47/32 71/46/32 74/49/32
f 75/50/32 76/48/32 77/51/32
f 76/48/32 75/50/32 78/46/32
f 79/52/32 80/51/32 81/53/32
f 82/51/32 83/52/32 84/50/32
f 85/49/32 86/44/32 87/47/32
f 86/44/32 85/49/32 88/45/32
f 89/53/32 90/54/32 91/52/32
f 90/54/32 89/53/32 92/55/32
f 93/55/32 94/56/32 95/54/32
f 94/56/32 93/55/32 96/57/32
f 97/56/32 98/57/32 99/58/32
f 98/57/32 100/59/32 99/58/32
f 101/60/32 102/61/32 103/59/32
f 103/59/32 102/61/32 104/58/32
f 105/62/32 106/63/32 107/64/32
f 106/63/32 105/62/32 108/65/32
f 109/60/32 110/66/32 111/61/32
f 110/66/32 112/67/32 111/61/32
f 113/67/32 114/68/32 115/69/32
f 116/68/32 117/67/32 118/66/32
f 119/69/32 120/65/32 121/62/32
f 120/65/32 119/69/32 122/68/32
f 123/70/32 124/71/32 125/72/32
f 124/71/32 123/70/32 126/73/32
f 127/73/32 128/34/32 129/71/32
f 128/34/32 130/36/32 129/71/32
f 131/64/32 132/74/32 133/75/32
f 132/74/32 131/64/32 134/63/32
f 135/75/32 136/74/32 137/72/32
f 136/74/32 138/70/32 137/72/32
f 139/76/33 140/77/34 141/78/35
f 142/79/32 139/76/33 141/78/35
f 141/78/35 140/77/34 143/80/36
f 140/77/34 144/81/37 143/80/36
f 143/80/36 144/81/37 145/82/38
f 145/82/38 144/81/37 146/83/39
f 145/82/38 146/83/39 147/84/40
f 148/81/41 149/85/42 150/86/43
f 148/81/41 150/86/43 151/87/44
f 149/85/42 148/81/41 152/77/34
f 148/81/41 151/87/44 153/83/45
f 152/77/34 154/76/33 149/85/42
f 155/88/46 149/85/42 154/76/33
f 156/79/32 155/88/46 154/76/33
f 157/87/47 158/89/48 159/90/49
f 158/89/48 157/87/47 160/86/50
f 160/86/50 161/85/42 158/89/48
f 161/85/42 162/91/51 158/89/48
f 161/85/42 163/92/52 162/91/51
f 163/92/52 161/85/42 164/88/46
f 165/79/32 163/92/52 164/88/46
f 166/79/32 167/93/53 168/92/54
f 167/93/53 169/91/51 168/92/54
f 169/91/51 167/93/53 170/94/55
f 170/94/55 171/89/56 169/91/51
f 171/89/56 170/94/55 172/95/57
f 172/95/57 173/90/49 171/89/56
f 173/90/49 172/95/57 174/96/58
f 175/97/59 176/96/60 177/95/57
f 175/97/59 177/95/57 178/98/61
f 177/95/57 179/99/62 178/98/61
f 179/99/62 177/95/57 180/94/55
f 180/94/55 181/100/63 179/99/62
f 181/100/63 180/94/55 182/93/53
f 183/79/32 181/100/63 182/93/53
f 184/101/64 185/99/62 186/100/63
f 187/79/32 184/101/64 186/100/63
f 185/99/62 184/101/64 188/102/65
f 189/103/66 185/99/62 188/102/65
f 185/99/62 189/103/66 190/98/67
f 191/104/68 190/98/67 189/103/66
f 190/98/67 191/104/68 192/97/59
f 193/105/69 194/103/66 195/102/70
f 196/101/64 193/105/69 195/102/70
f 193/105/69 196/101/64 197/106/71
f 198/79/32 197/106/71 196/101/64
f 194/103/66 193/105/69 199/107/72
f 200/108/73 194/103/66 199/107/72
f 194/103/66 200/108/73 201/104/68
f 202/109/74 203/110/75 204/111/76
f 203/110/75 202/109/74 205/112/77
f 204/111/76 206/113/78 202/109/74
f 206/113/78 204/111/76 207/114/79
f 207/114/79 208/115/80 206/113/78
f 208/115/80 207/114/79 209/116/81
f 210/79/32 208/115/80 209/116/81
f 211/109/74 212/117/82 213/118/83
f 211/109/74 214/119/84 212/117/82
f 211/109/74 213/118/83 215/112/85
f 214/119/84 211/109/74 216/113/78
f 216/113/78 217/120/86 214/119/84
f 217/120/86 216/113/78 218/115/80
f 219/79/32 217/120/86 218/115/80
f 220/79/32 221/121/87 222/120/86
f 222/120/86 221/121/87 223/122/88
f 224/119/89 222/120/86 223/122/88
f 223/122/88 225/117/90 224/119/89
f 225/117/90 223/122/88 226/123/91
f 226/123/91 227/118/92 225/117/90
f 227/118/92 226/123/91 228/124/93
f 229/124/94 231/125/95 230/126/96
f 231/125/95 229/124/94 232/123/97
f 231/125/95 232/123/97 233/122/88
f 231/125/95 233/122/88 234/127/98
f 233/122/88 235/121/87 234/127/98
f 234/127/98 235/121/87 236/128/99
f 237/79/32 236/128/99 235/121/87
f 238/127/100 239/129/101 240/130/102
f 239/129/101 238/127/100 241/128/103
f 242/79/32 239/129/101 241/128/103
f 240/130/102 243/125/95 238/127/100
f 243/125/95 240/130/102 244/131/104
f 245/132/105 243/125/95 244/131/104
f 245/132/105 246/126/96 243/125/95
f 247/133/106 248/134/107 249/135/108
f 248/134/107 250/136/109 249/135/108
f 251/79/32 250/136/109 248/134/107
f 247/133/106 249/135/108 252/137/110
f 253/138/111 247/133/106 252/137/110
f 252/137/110 254/139/112 253/138/111
f 254/139/112 252/137/110 255/140/113
f 256/141/114 257/137/115 258/135/108
f 256/141/114 259/140/116 257/137/115
f 256/141/114 258/135/108 260/142/117
f 259/140/116 256/141/114 261/143/118
f 258/135/108 262/136/109 260/142/117
f 260/142/117 262/136/109 263/144/119
f 264/79/32 263/144/119 262/136/109
f 265/141/114 266/145/120 267/146/121
f 268/147/122 265/141/114 267/146/121
f 266/145/120 265/141/114 269/142/117
f 268/147/122 270/143/123 265/141/114
f 269/142/117 271/148/124 266/145/120
f 271/148/124 269/142/117 272/144/119
f 273/79/32 271/148/124 272/144/119
f 274/79/32 275/149/125 276/148/124
f 275/149/125 277/145/120 276/148/124
f 277/145/120 275/149/125 278/150/126
f 278/150/126 279/146/127 277/145/120
f 279/146/127 278/150/126 280/151/128
f 280/151/128 281/147/129 279/146/127
f 281/147/129 280/151/128 282/152/130
f 284/152/131 285/153/132 283/154/133
f 285/153/132 284/152/131 286/151/134
f 287/150/126 285/153/132 286/151/134
f 285/153/132 287/150/126 288/155/135
f 289/149/125 288/155/135 287/150/126
f 288/155/135 289/149/125 290/156/136
f 291/79/32 290/156/136 289/149/125
f 292/78/35 293/155/135 294/156/136
f 295/79/32 292/78/35 294/156/136
f 293/155/135 292/78/35 296/80/36
f 296/80/36 297/153/132 293/155/135
f 297/153/132 296/80/36 298/82/137
f 298/82/137 299/154/133 297/153/132
f 299/154/133 298/82/137 300/84/40
f 301/111/76 302/105/69 303/114/79
f 302/105/69 301/111/76 304/107/72
f 305/106/71 303/114/79 302/105/69
f 303/114/79 305/106/71 306/116/81
f 307/79/32 306/116/81 305/106/71
f 308/110/138 304/107/72 301/111/76
f 304/107/72 308/110/138 309/108/139
f 310/157/140 311/130/102 312/158/141
f 311/130/102 313/159/142 312/158/141
f 313/159/142 311/130/102 314/129/143
f 315/79/32 313/159/142 314/129/143
f 311/130/102 310/157/140 316/131/144
f 317/160/145 316/131/144 310/157/140
f 316/131/144 317/160/145 318/132/146
f 319/161/147 320/158/141 321/162/148
f 320/158/141 319/161/147 322/157/149
f 323/159/142 321/162/148 320/158/141
f 321/162/148 323/159/142 324/163/150
f 325/79/32 324/163/150 323/159/142
f 326/164/151 322/157/149 319/161/147
f 322/157/149 326/164/151 327/160/145
f 328/165/152 329/161/153 330/166/154
f 329/161/153 331/167/155 330/166/154
f 329/161/153 328/165/152 332/164/156
f 331/167/155 329/161/153 333/162/148
f 333/162/148 334/168/157 331/167/155
f 334/168/157 333/162/148 335/163/150
f 336/79/32 334/168/157 335/163/150
f 337/79/32 338/169/158 339/168/159
f 338/169/158 340/170/160 339/168/159
f 339/168/159 340/170/160 341/167/155
f 340/170/160 342/166/161 341/167/155
f 342/166/161 340/170/160 343/171/162
f 342/166/161 343/171/162 344/172/163
f 342/166/161 344/172/163 345/165/164
f 346/134/107 347/170/160 348/169/158
f 349/79/32 346/134/107 348/169/158
f 347/170/160 346/134/107 350/133/106
f 350/133/106 351/171/162 347/170/160
f 351/171/162 350/133/106 352/138/165
f 351/171/162 352/138/165 353/139/112
f 351/171/162 353/139/112 354/172/166
f 355/10/167 356/8/168 357/9/167
f 356/8/168 358/7/168 357/9/167
f 355/10/167 357/9/167 359/173/169
f 360/174/169 355/10/167 359/173/169
f 360/174/169 359/173/169 361/175/170
f 361/175/170 362/176/170 360/174/169
f 364/2/171 363/3/172 365/1/173
f 365/1/173 366/4/174 364/2/171
f 366/4/174 365/1/173 367/177/175
f 368/178/175 366/4/174 367/177/175
f 368/178/175 367/177/175 369/7/176
f 370/8/176 368/178/175 369/7/176
f 371/17/177 372/20/178 373/19/179
f 371/17/177 373/19/179 374/15/180
f 375/20/181 376/21/182 377/7/183
f 375/20/181 377/7/183 378/19/184
f 379/22/185 381/7/186 380/21/182
f 381/7/186 379/22/185 382/23/187
f 384/24/188 385/23/189 383/22/190
f 385/23/189 384/24/188 386/25/191
f 387/26/192 388/25/193 389/24/194
f 388/25/193 387/26/192 390/179/195
f 391/17/196 393/15/197 392/180/198
f 392/180/198 393/15/197 394/18/199
f 397/1/200 396/2/201 395/3/201
f 397/1/200 398/4/202 396/2/201
f 399/5/203 398/4/202 397/1/200
f 399/5/203 400/6/204 398/4/202
f 401/7/205 400/6/204 399/5/203
f 401/7/205 402/8/205 400/6/204
f 403/9/206 402/8/205 401/7/205
f 403/9/206 404/10/206 402/8/205
f 405/173/207 404/10/206 403/9/206
f 405/173/207 406/174/208 404/10/206
f 407/175/209 406/174/208 405/173/207
f 407/175/209 408/176/209 406/174/208
f 410/17/210 409/20/211 411/19/212
f 411/19/212 412/15/213 410/17/210
f 414/20/211 413/21/214 415/7/215
f 415/7/215 416/19/216 414/20/211
f 418/22/217 419/7/218 417/21/214
f 419/7/218 418/22/217 420/181/219
f 422/24/220 423/181/221 421/22/222
f 423/181/221 422/24/220 424/25/223
f 425/25/224 426/26/225 427/179/226
f 426/26/225 425/25/224 428/24/227
f 429/180/228 430/17/210 431/15/229
f 432/182/230 429/180/228 431/15/229
f 433/183/231 434/184/231 435/185/231
f 433/183/231 436/37/231 437/186/231
f 433/183/231 438/34/231 436/37/231
f 435/185/231 438/34/231 433/183/231
f 438/34/231 435/185/231 439/73/231
f 440/47/231 434/184/231 433/183/231
f 440/47/231 433/183/231 441/33/231
f 434/184/231 442/68/231 435/185/231
f 442/68/231 434/184/231 443/66/231
f 444/65/231 435/185/231 442/68/231
f 444/65/231 445/187/231 435/185/231
f 445/187/231 444/65/231 446/188/231
f 447/41/231 440/47/231 441/33/231
f 447/41/231 441/33/231 448/38/231
f 440/47/231 447/41/231 449/44/231
f 449/44/231 447/41/231 450/42/231
f 434/184/231 440/47/231 451/189/231
f 434/184/231 451/189/231 452/59/231
f 451/189/231 440/47/231 453/53/231
f 451/189/231 453/53/231 454/190/231
f 453/53/231 440/47/231 455/48/231
f 453/53/231 455/48/231 456/191/231
f 459/1/232 458/2/233 457/3/233
f 458/2/233 459/1/232 460/4/234
f 461/5/235 460/4/234 459/1/232
f 460/4/234 461/5/235 462/6/236
f 463/7/237 462/6/236 461/5/235
f 462/6/236 463/7/237 464/8/237
f 465/9/238 464/8/237 463/7/237
f 464/8/237 465/9/238 466/10/239
f 467/173/240 466/10/239 465/9/238
f 466/10/239 467/173/240 468/174/240
f 469/13/241 468/174/240 467/173/240
f 468/174/240 469/13/241 470/14/241
f 472/180/242 471/17/243 473/15/244
f 473/15/244 474/18/245 472/180/242
f 477/19/246 476/17/247 475/20/248
f 477/19/246 478/15/249 476/17/247
f 480/22/250 481/7/251 479/21/252
f 481/7/251 480/22/250 482/23/253
f 483/24/254 485/23/255 484/22/256
f 485/23/255 483/24/254 486/25/257
f 488/26/258 489/25/259 487/24/260
f 489/25/259 488/26/258 490/179/261
f 493/7/262 492/20/263 491/21/264
f 493/7/262 494/19/265 492/20/263
