# Blender 5.1.2
# www.blender.org
mtllib Board.mtl
o Board
v -3.619120 0.114725 0.572426
v -3.619120 0.114725 -0.462975
v -3.619120 -0.114725 0.572426
v -3.619120 -0.114725 -0.462975
v 3.181150 0.114725 -0.340374
v 3.181150 -0.114725 -0.340374
v 3.181150 -0.114725 -0.462975
v 3.181150 0.114725 -0.462975
v 3.181150 0.114725 0.763027
v 3.181150 -0.114725 0.763027
v 3.181150 -0.114725 -0.160675
v 3.181150 0.114725 -0.160675
v -3.619120 0.114725 0.572426
v -3.150120 -0.114725 0.617226
v -3.150120 0.114725 0.617226
v -3.619120 -0.114725 0.572426
v -3.150120 0.114725 0.617226
v -3.451220 -0.114725 0.763027
v -3.451220 0.114725 0.763027
v -3.150120 -0.114725 0.617226
v -3.451220 0.114725 0.763027
v 3.181150 -0.114725 0.763027
v 3.181150 0.114725 0.763027
v -3.451220 -0.114725 0.763027
v 3.181150 0.114725 -0.160675
v 3.181150 -0.114725 -0.160675
v 2.512930 -0.114725 -0.294971
v 2.512930 0.114725 -0.294971
v -0.178679 0.114725 -0.462975
v -0.178679 -0.114725 -0.462975
v -3.619120 -0.114725 -0.462975
v -3.619120 0.114725 -0.462975
v 0.655101 0.114725 -0.462975
v 0.655101 -0.114725 -0.462975
v -1.656019 -0.114725 -0.222172
v -1.656019 0.114725 -0.222172
v 3.181150 0.114725 -0.462975
v 3.181150 -0.114725 -0.462975
v 3.181150 0.114725 -0.462975
v 2.512930 0.114725 -0.294971
v 3.181150 0.114725 -0.340374
v 0.655101 0.114725 -0.462975
v -1.656019 0.114725 -0.222172
v 3.181150 0.114725 -0.160675
v 3.181150 0.114725 0.763027
v -3.150120 0.114725 0.617226
v -3.451220 0.114725 0.763027
v -3.619120 0.114725 0.572426
v -3.619120 0.114725 -0.462975
v -0.178679 0.114725 -0.462975
v 0.655101 -0.114725 -0.462975
v 2.512930 -0.114725 -0.294971
v -1.656019 -0.114725 -0.222172
v 3.181150 -0.114725 -0.462975
v 3.181150 -0.114725 -0.340374
v 3.181150 -0.114725 -0.160675
v 3.181150 -0.114725 0.763027
v -3.150120 -0.114725 0.617226
v -3.451220 -0.114725 0.763027
v -3.619120 -0.114725 0.572426
v -3.619120 -0.114725 -0.462975
v -0.178679 -0.114725 -0.462975
v 2.512930 0.114725 -0.294971
v 3.181150 -0.114725 -0.340374
v 3.181150 0.114725 -0.340374
v 2.512930 -0.114725 -0.294971
v -1.656019 0.114725 -0.222172
v -0.178679 -0.114725 -0.462975
v -0.178679 0.114725 -0.462975
v -1.656019 -0.114725 -0.222172
vn -1.0000 -0.0000 -0.0000
vn 1.0000 -0.0000 -0.0000
vn -0.0947 -0.0000 0.9955
vn -0.0946 -0.0000 0.9955
vn -0.4346 -0.0000 -0.9006
vn -0.4345 -0.0000 -0.9007
vn -0.0000 -0.0000 1.0000
vn 0.1961 -0.0000 -0.9806
vn 0.1960 -0.0000 -0.9806
vn 0.1962 -0.0000 -0.9806
vn -0.0000 -0.0000 -1.0000
vn -0.0472 -0.0000 -0.9989
vn -0.1026 -0.0000 -0.9947
vn -0.0000 1.0000 -0.0000
vn -0.0000 -1.0000 -0.0000
vn 0.0707 -0.0000 0.9975
vn 0.1580 -0.0000 0.9874
vt 1.000000 0.924961
vt 1.000000 0.517244
vt 0.000000 0.565520
vt 0.000000 0.517244
vt 0.000000 1.000000
vt 0.000000 0.636302
vt 0.931025 0.942590
vt 0.975309 1.000000
vt 0.098264 0.583418
vt 0.494072 0.517244
vt 0.371462 0.517244
vt 0.711314 0.612063
s 1
usemtl Board1Mtl
f 1/1/1 2/2/1 3/1/1
f 3/1/1 2/2/1 4/2/1
f 5/3/2 6/3/2 7/4/2
f 5/3/2 7/4/2 8/4/2
f 9/5/2 10/5/2 11/6/2
f 9/5/2 11/6/2 12/6/2
f 13/1/3 14/7/3 15/7/4
f 14/7/3 13/1/3 16/1/4
f 17/7/5 18/8/6 19/8/5
f 18/8/6 17/7/5 20/7/6
f 21/8/7 22/5/7 23/5/7
f 22/5/7 21/8/7 24/8/7
f 25/6/8 26/6/9 27/9/10
f 25/6/8 27/9/10 28/9/8
f 29/10/11 30/10/11 31/2/11
f 31/2/11 32/2/11 29/10/11
f 33/11/12 34/11/12 35/12/13
f 35/12/13 36/12/13 33/11/12
f 34/11/12 33/11/12 37/4/11
f 37/4/11 38/4/11 34/11/12
f 39/4/14 40/9/14 41/3/14
f 42/11/14 40/9/14 39/4/14
f 40/9/14 42/11/14 43/12/14
f 40/9/14 43/12/14 44/6/14
f 43/12/14 45/5/14 44/6/14
f 45/5/14 43/12/14 46/7/14
f 45/5/14 46/7/14 47/8/14
f 46/7/14 43/12/14 48/1/14
f 48/1/14 43/12/14 49/2/14
f 49/2/14 43/12/14 50/10/14
f 51/11/15 52/9/15 53/12/15
f 54/4/15 52/9/15 51/11/15
f 52/9/15 54/4/15 55/3/15
f 56/6/15 53/12/15 52/9/15
f 57/5/15 53/12/15 56/6/15
f 53/12/15 57/5/15 58/7/15
f 57/5/15 59/8/15 58/7/15
f 60/1/15 53/12/15 58/7/15
f 53/12/15 60/1/15 61/2/15
f 61/2/15 62/10/15 53/12/15
f 63/9/16 64/3/16 65/3/16
f 64/3/16 63/9/16 66/9/16
f 67/12/17 68/10/17 69/10/17
f 68/10/17 67/12/17 70/12/17
