# Blender 5.1.2
# www.blender.org
mtllib Gun.mtl
o Gun
v 0.360874 0.122784 0.008507
v 0.360874 0.110754 0.020508
v 0.360874 0.107774 0.013306
v 0.360874 0.115594 0.005505
v 0.360874 0.096704 0.013306
v 0.360874 0.107774 0.013306
v 0.360874 0.110754 0.020508
v 0.360874 0.093724 0.020508
v 0.360874 0.081694 0.008507
v 0.360874 0.096704 0.013306
v 0.360874 0.093724 0.020508
v 0.360874 0.088884 0.005505
v 0.360874 0.081694 -0.008495
v 0.360874 0.088884 0.005505
v 0.360874 0.081694 0.008507
v 0.360874 0.088884 -0.005592
v 0.360874 0.081694 -0.008495
v 0.360874 0.096704 -0.013393
v 0.360874 0.088884 -0.005592
v 0.360874 0.093724 -0.020596
v 0.360874 0.093724 -0.020596
v 0.360874 0.110754 -0.020596
v 0.360874 0.107774 -0.013393
v 0.360874 0.096704 -0.013393
v 0.360874 0.107774 -0.013393
v 0.360874 0.122784 -0.008495
v 0.360874 0.115594 -0.005592
v 0.360874 0.110754 -0.020596
v 0.360874 0.115594 -0.005592
v 0.360874 0.122784 0.008507
v 0.360874 0.115594 0.005505
v 0.360874 0.122784 -0.008495
v 0.357275 0.136464 0.029407
v 0.357275 0.136464 -0.029392
v 0.351376 0.143104 -0.034393
v 0.351376 0.143104 0.034306
v 0.357275 0.124834 -0.035393
v 0.357275 0.090344 -0.032093
v 0.357275 0.090344 -0.035393
v 0.357275 0.124834 -0.032093
v 0.357275 0.128014 -0.032093
v 0.357275 0.136464 -0.029392
v 0.357275 0.136464 0.029407
v 0.357275 0.128014 0.032104
v 0.357275 0.124834 0.035408
v 0.357275 0.124834 0.032104
v 0.357275 0.090344 0.035408
v 0.357275 0.090344 0.032104
v 0.354376 0.073574 -0.042694
v 0.354376 0.081394 -0.042694
v 0.354376 0.073574 -0.032093
v 0.354376 0.081394 -0.032093
v 0.354376 0.073574 0.032104
v 0.354376 0.081394 0.032104
v 0.354376 0.073574 0.042606
v 0.354376 0.081394 0.042606
v 0.353275 0.132634 -0.037094
v 0.353275 0.021294 0.037006
v 0.353275 0.021294 -0.037094
v 0.353275 0.132634 0.037006
v 0.351376 0.081394 -0.042694
v 0.351376 0.090344 -0.042694
v 0.351376 0.081394 -0.032093
v 0.351376 0.090344 -0.032093
v 0.351376 0.081394 0.032104
v 0.351376 0.090344 0.032104
v 0.351376 0.081394 0.042606
v 0.351376 0.090344 0.042606
v 0.341175 0.140454 -0.030094
v 0.341175 0.128134 0.037006
v 0.341175 0.128134 -0.037094
v 0.341175 0.140454 0.030106
v -0.313225 -0.317306 -0.037094
v -0.155424 -0.317306 -0.037094
v -0.155424 -0.317306 0.037006
v -0.313225 -0.317306 0.037006
v -0.327225 -0.311906 0.037006
v -0.327225 -0.311906 -0.037094
v -0.339725 -0.301866 0.037006
v -0.339725 -0.301866 -0.037094
v -0.354725 -0.280686 0.037006
v -0.354725 -0.280686 -0.037094
v 0.351376 0.143104 -0.034393
v 0.357275 0.136464 -0.029392
v 0.351376 0.129804 -0.042694
v 0.357275 0.124834 -0.035393
v 0.351376 0.090344 -0.042694
v 0.357275 0.090344 -0.035393
v 0.351376 0.129804 0.042606
v 0.357275 0.136464 0.029407
v 0.351376 0.143104 0.034306
v 0.357275 0.124834 0.035408
v 0.351376 0.090344 0.042606
v 0.357275 0.090344 0.035408
v 0.321476 0.157394 -0.004395
v 0.321476 0.157394 0.004307
v 0.333876 0.155194 -0.004395
v 0.333876 0.155194 0.004307
v 0.342175 0.150054 0.004307
v 0.342175 0.150054 -0.004395
v 0.346275 0.142784 0.004307
v 0.346275 0.142784 -0.004395
v -0.300024 -0.331666 -0.020092
v -0.187824 -0.331666 -0.020092
v -0.187824 -0.331666 0.020004
v -0.304726 -0.331666 -0.031593
v -0.161526 -0.331666 -0.031593
v -0.309925 -0.331666 0.024006
v -0.309925 -0.331666 -0.024094
v -0.304726 -0.331666 0.031506
v -0.300024 -0.331666 0.020004
v -0.161526 -0.331666 0.031506
v -0.156324 -0.331666 -0.024094
v -0.156324 -0.331666 0.024006
v -0.304726 -0.331666 0.031506
v -0.304726 -0.331666 -0.031593
v -0.300024 -0.331666 -0.020092
v -0.309925 -0.317496 0.024006
v -0.309925 -0.317496 -0.024094
v -0.309925 -0.331666 -0.024094
v -0.309925 -0.331666 0.024006
v -0.267925 0.142704 -0.009396
v -0.262325 0.160084 -0.009396
v -0.267925 0.142704 -0.017796
v -0.262325 0.160084 -0.017796
v -0.267925 0.142704 0.017807
v -0.262325 0.160084 0.017807
v -0.267925 0.142704 0.009308
v -0.262325 0.160084 0.009308
v -0.297325 0.135954 -0.042694
v -0.287226 0.143104 0.034306
v -0.287226 0.143104 -0.034393
v -0.297325 0.135954 0.042606
v -0.297325 0.090344 0.042606
v -0.297325 0.124454 0.042606
v -0.297325 0.090344 0.032104
v -0.297325 0.124454 0.032104
v -0.297325 0.128014 0.032104
v -0.297325 0.135954 0.042606
v -0.297325 0.128014 -0.032093
v -0.297325 0.135954 -0.042694
v -0.297325 0.124454 -0.042694
v -0.297325 0.124454 -0.032093
v -0.297325 0.090344 -0.042694
v -0.297325 0.090344 -0.032093
v -0.296825 0.082724 0.037006
v -0.296825 0.082724 -0.037094
v -0.296825 0.059914 -0.037094
v -0.296825 0.059914 0.037006
v -0.296825 0.088304 0.037006
v -0.296825 0.088304 -0.037094
v -0.296225 0.128144 0.037006
v -0.296225 0.128144 -0.037094
v -0.296225 0.091704 -0.037094
v -0.296225 0.091704 0.037006
v -0.287226 0.073574 0.032104
v -0.287226 0.081394 0.042606
v -0.287226 0.081394 0.032104
v -0.287226 0.073574 0.042606
v -0.287226 0.090344 0.042606
v -0.287226 0.090344 0.032104
v -0.287226 0.073574 -0.042694
v -0.287226 0.081394 -0.032093
v -0.287226 0.081394 -0.042694
v -0.287226 0.073574 -0.032093
v -0.287226 0.090344 -0.032093
v -0.287226 0.090344 -0.042694
v -0.286625 0.091704 0.037006
v -0.286625 0.091704 -0.037094
v -0.286625 0.082724 -0.037094
v -0.286625 0.082724 0.037006
v -0.355925 -0.248886 0.037006
v -0.355925 -0.248886 -0.037094
v -0.354725 -0.280686 -0.037094
v -0.354725 -0.280686 0.037006
v -0.352825 -0.235806 0.037006
v -0.352825 -0.235806 -0.037094
v -0.341326 -0.198286 0.037006
v -0.341326 -0.198286 -0.037094
v -0.328125 -0.166446 0.037006
v -0.328125 -0.166446 -0.037094
v -0.307625 -0.126966 0.037006
v -0.307625 -0.126966 -0.037094
v -0.295124 -0.107986 0.037006
v -0.295124 -0.107986 -0.037094
v -0.285524 -0.093596 0.037006
v -0.285524 -0.093596 -0.037094
v -0.259926 -0.057966 0.037006
v -0.259926 -0.057966 -0.037094
v -0.243826 -0.032296 0.037006
v -0.243826 -0.032296 -0.037094
v -0.240425 -0.016006 0.037006
v -0.240425 -0.016006 -0.037094
v -0.241024 -0.000626 0.037006
v -0.241024 -0.000626 -0.037094
v -0.252825 0.025784 0.037006
v -0.252825 0.025784 -0.037094
v -0.267324 0.039814 0.037006
v -0.267324 0.039814 -0.037094
v -0.286625 0.048484 0.037006
v -0.286625 0.048484 -0.037094
v -0.296825 0.059914 0.037006
v -0.296825 0.059914 -0.037094
v 0.353275 0.021294 -0.037094
v 0.341175 0.011524 0.037006
v 0.341175 0.011524 -0.037094
v 0.353275 0.021294 0.037006
v -0.300024 -0.317496 0.020004
v -0.217825 -0.040956 0.020004
v -0.300024 -0.317496 -0.020092
v -0.217825 -0.040956 -0.020092
v -0.262325 0.160084 -0.017796
v -0.262325 0.160084 -0.009396
v -0.249226 0.160084 -0.017796
v -0.249226 0.160084 -0.009396
v -0.262325 0.160084 0.017807
v -0.249226 0.160084 0.009308
v -0.262325 0.160084 0.009308
v -0.249226 0.160084 0.017807
v 0.124676 -0.087446 0.016308
v 0.120874 -0.094506 -0.016293
v 0.124676 -0.087446 -0.016293
v 0.120874 -0.094506 0.016308
v 0.351376 0.143104 -0.034393
v 0.070576 0.143104 -0.034393
v 0.070576 0.143104 0.034306
v 0.351376 0.143104 0.034306
v -0.287226 0.143104 -0.034393
v -0.035524 0.143104 0.034306
v -0.035524 0.143104 -0.034393
v -0.287226 0.143104 0.034306
v -0.040424 0.140454 0.030106
v 0.341175 0.140454 0.030106
v -0.040424 0.140454 -0.030094
v 0.341175 0.140454 -0.030094
v 0.129274 0.005714 -0.016293
v 0.125774 0.000744 0.016308
v 0.125774 0.000744 -0.016293
v 0.129274 0.005714 0.016308
v 0.121775 -0.005936 0.016308
v 0.121775 -0.005936 -0.016293
v 0.120275 -0.024176 0.016308
v 0.120275 -0.024176 -0.016293
v 0.120275 -0.039126 0.016308
v 0.120275 -0.039126 -0.016293
v 0.120275 -0.058566 0.016308
v 0.120275 -0.058566 -0.016293
v 0.120575 -0.073146 0.016308
v 0.120575 -0.073146 -0.016293
v 0.124275 -0.080486 0.016308
v 0.124275 -0.080486 -0.016293
v 0.124676 -0.087446 0.016308
v 0.124676 -0.087446 -0.016293
v -0.035524 0.129804 -0.042694
v -0.035524 0.129804 0.042606
v 0.070576 0.129804 -0.042694
v 0.070576 0.129804 0.042606
v -0.040424 0.128134 -0.037094
v -0.241024 0.128134 -0.037094
v -0.241024 0.128134 0.037006
v -0.040424 0.128134 0.037006
v -0.252825 0.128134 -0.037094
v -0.252825 0.128134 0.037006
v -0.267324 0.128134 -0.037094
v -0.267324 0.128134 0.037006
v -0.286625 0.128144 -0.037094
v -0.286625 0.128144 0.037006
v -0.296225 0.128144 -0.037094
v -0.296225 0.128144 0.037006
v 0.349174 0.122784 -0.008495
v 0.360874 0.122784 0.008507
v 0.360874 0.122784 -0.008495
v 0.349174 0.122784 0.008507
v 0.349174 0.122784 0.008507
v 0.360874 0.110754 0.020508
v 0.360874 0.122784 0.008507
v 0.349174 0.110754 0.020508
v 0.349174 0.110754 -0.020596
v 0.360874 0.122784 -0.008495
v 0.360874 0.110754 -0.020596
v 0.349174 0.122784 -0.008495
v 0.360874 0.088884 -0.005592
v 0.349174 0.088884 -0.005592
v 0.360874 0.088884 0.005505
v 0.349174 0.088884 0.005505
v -0.296825 0.088304 -0.037094
v -0.286625 0.088304 0.037006
v -0.286625 0.088304 -0.037094
v -0.296825 0.088304 0.037006
v -0.150925 -0.311906 -0.037094
v -0.155424 -0.317306 0.037006
v -0.155424 -0.317306 -0.037094
v -0.150925 -0.311906 0.037006
v 0.354376 0.081394 -0.032093
v 0.354376 0.081394 -0.042694
v 0.351376 0.081394 -0.042694
v 0.351376 0.081394 -0.032093
v 0.354376 0.081394 0.042606
v 0.354376 0.081394 0.032104
v 0.351376 0.081394 0.032104
v 0.351376 0.081394 0.042606
v 0.112076 -0.097536 -0.016293
v 0.088776 -0.098636 0.016308
v 0.088776 -0.098636 -0.016293
v 0.112076 -0.097536 0.016308
v 0.120874 -0.094506 -0.016293
v 0.120874 -0.094506 0.016308
v -0.021725 -0.104776 0.016308
v -0.021725 -0.104776 -0.016293
v -0.044125 -0.104136 0.016308
v -0.044125 -0.104136 -0.016293
v -0.059626 -0.098546 0.016308
v -0.059626 -0.098546 -0.016293
v -0.076025 -0.087446 0.016308
v -0.076025 -0.087446 -0.016293
v 0.360874 0.088884 0.005505
v 0.349174 0.088884 0.005505
v 0.360874 0.096704 0.013306
v 0.349174 0.096704 0.013306
v 0.360874 0.096704 -0.013393
v 0.349174 0.096704 -0.013393
v 0.360874 0.088884 -0.005592
v 0.349174 0.088884 -0.005592
v 0.070576 0.073574 0.042606
v 0.351376 0.073574 0.042606
v 0.351376 0.081394 0.042606
v 0.354376 0.073574 0.042606
v 0.354376 0.081394 0.042606
v 0.070576 0.081394 0.042606
v -0.035524 0.073574 0.042606
v 0.351376 0.090344 0.042606
v -0.035524 0.081394 0.042606
v -0.287226 0.073574 0.042606
v 0.070576 0.090344 0.042606
v -0.287226 0.081394 0.042606
v 0.351376 0.129804 0.042606
v 0.070576 0.129804 0.042606
v 0.351376 0.143104 0.034306
v 0.070576 0.143104 0.034306
v -0.035524 0.129804 0.042606
v -0.035524 0.090344 0.042606
v -0.287226 0.090344 0.042606
v -0.287226 0.129804 0.042606
v -0.035524 0.143104 0.034306
v -0.287226 0.143104 0.034306
v -0.297325 0.135954 0.042606
v -0.297325 0.124454 0.042606
v -0.297325 0.090344 0.042606
v 0.070576 0.081394 -0.042694
v 0.351376 0.081394 -0.042694
v 0.351376 0.073574 -0.042694
v 0.354376 0.081394 -0.042694
v 0.354376 0.073574 -0.042694
v 0.070576 0.073574 -0.042694
v 0.070576 0.090344 -0.042694
v 0.351376 0.090344 -0.042694
v 0.070576 0.129804 -0.042694
v 0.351376 0.129804 -0.042694
v 0.070576 0.143104 -0.034393
v 0.351376 0.143104 -0.034393
v -0.035524 0.129804 -0.042694
v -0.035524 0.090344 -0.042694
v -0.035524 0.081394 -0.042694
v -0.035524 0.073574 -0.042694
v -0.287226 0.081394 -0.042694
v -0.287226 0.073574 -0.042694
v -0.287226 0.090344 -0.042694
v -0.287226 0.129804 -0.042694
v -0.035524 0.143104 -0.034393
v -0.287226 0.143104 -0.034393
v -0.297325 0.135954 -0.042694
v -0.297325 0.124454 -0.042694
v -0.297325 0.090344 -0.042694
v -0.002926 -0.071126 0.006508
v -0.007025 -0.076136 0.000008
v 0.010975 -0.076346 0.000008
v -0.007025 -0.076136 0.000008
v -0.002926 -0.071126 -0.006493
v 0.010975 -0.076346 0.000008
v -0.064325 -0.057966 -0.037094
v -0.259926 -0.057966 -0.037094
v -0.243826 -0.032296 -0.037094
v -0.066225 -0.032296 -0.037094
v -0.240425 -0.016006 -0.037094
v -0.059425 -0.016006 -0.037094
v -0.241024 -0.000626 -0.037094
v -0.040424 -0.000626 -0.037094
v -0.241024 0.128134 -0.037094
v -0.252825 0.025784 -0.037094
v -0.040424 0.128134 -0.037094
v -0.252825 0.128134 -0.037094
v 0.341175 0.011524 -0.037094
v -0.267324 0.039814 -0.037094
v -0.267324 0.128134 -0.037094
v 0.341175 0.128134 -0.037094
v 0.353275 0.021294 -0.037094
v 0.353275 0.132634 -0.037094
v -0.040424 0.140454 -0.030094
v 0.341175 0.140454 -0.030094
v -0.286625 0.082724 -0.037094
v -0.286625 0.048484 -0.037094
v -0.296825 0.059914 -0.037094
v -0.296825 0.082724 -0.037094
v -0.296825 0.088304 -0.037094
v -0.286625 0.088304 -0.037094
v -0.286625 0.091704 -0.037094
v -0.286625 0.128144 -0.037094
v -0.296225 0.091704 -0.037094
v -0.296225 0.128144 -0.037094
v -0.064325 -0.057966 0.037006
v -0.243826 -0.032296 0.037006
v -0.259926 -0.057966 0.037006
v -0.066225 -0.032296 0.037006
v -0.240425 -0.016006 0.037006
v -0.059425 -0.016006 0.037006
v -0.241024 -0.000626 0.037006
v -0.040424 -0.000626 0.037006
v -0.040424 0.128134 0.037006
v 0.341175 0.011524 0.037006
v -0.241024 0.128134 0.037006
v -0.252825 0.025784 0.037006
v -0.252825 0.128134 0.037006
v -0.267324 0.039814 0.037006
v -0.267324 0.128134 0.037006
v 0.341175 0.128134 0.037006
v 0.353275 0.021294 0.037006
v 0.353275 0.132634 0.037006
v 0.341175 0.140454 0.030106
v -0.040424 0.140454 0.030106
v -0.286625 0.082724 0.037006
v -0.286625 0.048484 0.037006
v -0.296825 0.059914 0.037006
v -0.296825 0.082724 0.037006
v -0.286625 0.088304 0.037006
v -0.296825 0.088304 0.037006
v -0.286625 0.091704 0.037006
v -0.286625 0.128144 0.037006
v -0.296225 0.128144 0.037006
v -0.296225 0.091704 0.037006
v -0.313225 -0.317306 -0.037094
v -0.150925 -0.311906 -0.037094
v -0.155424 -0.317306 -0.037094
v -0.327225 -0.311906 -0.037094
v -0.153126 -0.301866 -0.037094
v -0.339725 -0.301866 -0.037094
v -0.154724 -0.280686 -0.037094
v -0.354725 -0.280686 -0.037094
v -0.355925 -0.248886 -0.037094
v -0.142225 -0.248886 -0.037094
v -0.352825 -0.235806 -0.037094
v -0.131926 -0.235806 -0.037094
v -0.341326 -0.198286 -0.037094
v -0.129326 -0.198286 -0.037094
v -0.328125 -0.166446 -0.037094
v -0.105326 -0.166446 -0.037094
v -0.307625 -0.126966 -0.037094
v -0.101324 -0.126966 -0.037094
v -0.295124 -0.107986 -0.037094
v -0.088625 -0.107986 -0.037094
v -0.285524 -0.093596 -0.037094
v -0.068424 -0.093596 -0.037094
v -0.150925 -0.311906 0.037006
v -0.327225 -0.311906 0.037006
v -0.313225 -0.317306 0.037006
v -0.155424 -0.317306 0.037006
v -0.153126 -0.301866 0.037006
v -0.339725 -0.301866 0.037006
v -0.154724 -0.280686 0.037006
v -0.354725 -0.280686 0.037006
v -0.355925 -0.248886 0.037006
v -0.142225 -0.248886 0.037006
v -0.352825 -0.235806 0.037006
v -0.131926 -0.235806 0.037006
v -0.341326 -0.198286 0.037006
v -0.129326 -0.198286 0.037006
v -0.328125 -0.166446 0.037006
v -0.105326 -0.166446 0.037006
v -0.307625 -0.126966 0.037006
v -0.101324 -0.126966 0.037006
v -0.295124 -0.107986 0.037006
v -0.088625 -0.107986 0.037006
v -0.285524 -0.093596 0.037006
v -0.068424 -0.093596 0.037006
v -0.304726 -0.317496 -0.031593
v -0.161526 -0.317496 -0.031593
v -0.161526 -0.331666 -0.031593
v -0.156324 -0.317496 -0.024094
v -0.156324 -0.331666 -0.024094
v -0.304726 -0.331666 -0.031593
v -0.309925 -0.331666 -0.024094
v -0.309925 -0.317496 -0.024094
v -0.304726 -0.331666 0.031506
v -0.161526 -0.331666 0.031506
v -0.161526 -0.317496 0.031506
v -0.156324 -0.331666 0.024006
v -0.156324 -0.317496 0.024006
v -0.304726 -0.317496 0.031506
v -0.309925 -0.317496 0.024006
v -0.309925 -0.331666 0.024006
v -0.031925 -0.042846 0.000008
v -0.040424 -0.040386 0.000008
v -0.018625 -0.040626 -0.008194
v -0.031925 -0.042846 0.000008
v -0.018625 -0.040626 0.008106
v -0.040424 -0.040386 0.000008
v -0.040924 0.006954 -0.008194
v -0.040924 0.006954 0.008106
v -0.022326 0.022844 0.000008
v -0.076025 -0.087446 0.016308
v -0.065725 -0.058936 -0.016293
v -0.076025 -0.087446 -0.016293
v -0.065725 -0.058936 0.016308
v -0.067924 -0.012706 0.000008
v -0.040924 0.006954 0.008106
v -0.040924 0.006954 -0.008194
v -0.105326 -0.166446 -0.037094
v -0.129326 -0.198286 0.037006
v -0.129326 -0.198286 -0.037094
v -0.105326 -0.166446 0.037006
v 0.349174 0.093724 0.020508
v 0.360874 0.093724 0.020508
v 0.349174 0.110754 0.020508
v 0.360874 0.110754 0.020508
v 0.349174 0.110754 -0.020596
v 0.360874 0.110754 -0.020596
v 0.349174 0.093724 -0.020596
v 0.360874 0.093724 -0.020596
v -0.040424 0.140454 0.030106
v -0.040424 0.140454 -0.030094
v -0.040424 0.128134 -0.037094
v -0.040424 0.128134 0.037006
v -0.105625 -0.040956 -0.020092
v -0.187824 -0.317496 -0.020092
v -0.217825 -0.040956 -0.020092
v -0.300024 -0.317496 -0.020092
v -0.187824 -0.317496 0.020004
v -0.217825 -0.040956 0.020004
v -0.300024 -0.317496 0.020004
v -0.105625 -0.040956 0.020004
v -0.243525 0.142704 -0.017796
v -0.267925 0.142704 -0.017796
v -0.262325 0.160084 -0.017796
v -0.249226 0.160084 -0.017796
v -0.267925 0.142704 0.017807
v -0.243525 0.142704 0.017807
v -0.249226 0.160084 0.017807
v -0.262325 0.160084 0.017807
v -0.002926 -0.071126 -0.006493
v -0.007025 -0.076136 0.000008
v -0.012726 -0.060516 -0.006493
v -0.020624 -0.066136 0.000008
v -0.017525 -0.050436 -0.007996
v -0.029325 -0.052626 0.000008
v -0.018625 -0.040626 -0.008194
v -0.031925 -0.042846 0.000008
v -0.002926 -0.071126 0.006508
v -0.012726 -0.060516 0.006508
v -0.007025 -0.076136 0.000008
v -0.020624 -0.066136 0.000008
v -0.017525 -0.050436 0.008007
v -0.029325 -0.052626 0.000008
v -0.018625 -0.040626 0.008106
v -0.031925 -0.042846 0.000008
v 0.129274 0.005714 -0.016293
v 0.090176 0.000744 -0.016293
v 0.086075 0.005164 -0.016293
v 0.125774 0.000744 -0.016293
v 0.121775 -0.005936 -0.016293
v 0.094074 -0.005936 -0.016293
v 0.101376 -0.024176 -0.016293
v 0.120275 -0.024176 -0.016293
v 0.120275 -0.039126 -0.016293
v 0.101376 -0.039126 -0.016293
v 0.120275 -0.058566 -0.016293
v 0.098175 -0.058566 -0.016293
v 0.120575 -0.073146 -0.016293
v 0.090275 -0.071866 -0.016293
v 0.124275 -0.080486 -0.016293
v 0.088776 -0.098636 -0.016293
v 0.080975 -0.077276 -0.016293
v -0.015825 -0.083506 -0.016293
v 0.112076 -0.097536 -0.016293
v 0.124676 -0.087446 -0.016293
v 0.120874 -0.094506 -0.016293
v -0.021725 -0.104776 -0.016293
v -0.036224 -0.082776 -0.016293
v -0.044125 -0.104136 -0.016293
v -0.059626 -0.098546 -0.016293
v -0.050924 -0.075896 -0.016293
v -0.076025 -0.087446 -0.016293
v -0.065725 -0.058936 -0.016293
v 0.129274 0.005714 0.016308
v 0.086075 0.005164 0.016308
v 0.090176 0.000744 0.016308
v 0.125774 0.000744 0.016308
v 0.094074 -0.005936 0.016308
v 0.121775 -0.005936 0.016308
v 0.101376 -0.024176 0.016308
v 0.120275 -0.024176 0.016308
v 0.101376 -0.039126 0.016308
v 0.120275 -0.039126 0.016308
v 0.120275 -0.058566 0.016308
v 0.098175 -0.058566 0.016308
v 0.120575 -0.073146 0.016308
v 0.090275 -0.071866 0.016308
v 0.124275 -0.080486 0.016308
v 0.088776 -0.098636 0.016308
v 0.080975 -0.077276 0.016308
v -0.015825 -0.083506 0.016308
v 0.112076 -0.097536 0.016308
v 0.124676 -0.087446 0.016308
v 0.120874 -0.094506 0.016308
v -0.021725 -0.104776 0.016308
v -0.036224 -0.082776 0.016308
v -0.044125 -0.104136 0.016308
v -0.059626 -0.098546 0.016308
v -0.050924 -0.075896 0.016308
v -0.076025 -0.087446 0.016308
v -0.065725 -0.058936 0.016308
v 0.086075 0.005164 -0.016293
v 0.086075 0.005164 0.016308
v 0.129274 0.005714 -0.016293
v 0.129274 0.005714 0.016308
v -0.018625 -0.040626 -0.008194
v -0.040424 -0.040386 0.000008
v -0.012726 -0.023576 -0.008194
v -0.053125 -0.032586 0.000008
v -0.026224 -0.012926 -0.008194
v -0.040924 0.006954 -0.008194
v -0.067924 -0.012706 0.000008
v -0.040424 -0.040386 0.000008
v -0.018625 -0.040626 0.008106
v -0.012726 -0.023576 0.008106
v -0.053125 -0.032586 0.000008
v -0.026224 -0.012926 0.008106
v -0.040924 0.006954 0.008106
v -0.067924 -0.012706 0.000008
v -0.012726 -0.023576 0.008106
v -0.006525 -0.015676 0.000008
v -0.026224 -0.012926 0.008106
v -0.007524 0.002964 0.000008
v -0.040924 0.006954 0.008106
v -0.022326 0.022844 0.000008
v -0.012726 -0.023576 -0.008194
v -0.026224 -0.012926 -0.008194
v -0.006525 -0.015676 0.000008
v -0.007524 0.002964 0.000008
v -0.040924 0.006954 -0.008194
v -0.022326 0.022844 0.000008
v -0.006725 -0.056516 0.000008
v -0.012726 -0.060516 0.006508
v 0.001274 -0.066126 0.000008
v -0.008825 -0.049066 0.000008
v -0.002926 -0.071126 0.006508
v 0.010975 -0.076346 0.000008
v -0.017525 -0.050436 0.008007
v -0.011024 -0.039226 0.000008
v -0.018625 -0.040626 0.008106
v -0.012726 -0.023576 0.008106
v -0.006525 -0.015676 0.000008
v -0.002926 -0.071126 -0.006493
v -0.012726 -0.060516 -0.006493
v 0.001274 -0.066126 0.000008
v 0.010975 -0.076346 0.000008
v -0.006725 -0.056516 0.000008
v -0.008825 -0.049066 0.000008
v -0.017525 -0.050436 -0.007996
v -0.011024 -0.039226 0.000008
v -0.018625 -0.040626 -0.008194
v -0.012726 -0.023576 -0.008194
v -0.006525 -0.015676 0.000008
v 0.333876 0.155194 -0.004395
v 0.321476 0.142784 -0.004395
v 0.321476 0.157394 -0.004395
v 0.333876 0.142784 -0.004395
v 0.342175 0.150054 -0.004395
v 0.346275 0.142784 -0.004395
v 0.321476 0.142784 0.004307
v 0.333876 0.142784 0.004307
v 0.333876 0.155194 0.004307
v 0.321476 0.157394 0.004307
v 0.342175 0.150054 0.004307
v 0.346275 0.142784 0.004307
v 0.353275 0.132634 0.037006
v 0.353275 0.132634 -0.037094
v 0.341175 0.128134 -0.037094
v 0.341175 0.128134 0.037006
v -0.267925 0.142704 -0.009396
v -0.243525 0.142704 -0.009396
v -0.249226 0.160084 -0.009396
v -0.262325 0.160084 -0.009396
v -0.243525 0.142704 0.009308
v -0.267925 0.142704 0.009308
v -0.262325 0.160084 0.009308
v -0.249226 0.160084 0.009308
v 0.341175 0.011524 -0.037094
v -0.040424 -0.000626 0.037006
v -0.040424 -0.000626 -0.037094
v 0.341175 0.011524 0.037006
v 0.360874 0.107774 0.013306
v 0.349174 0.096704 0.013306
v 0.349174 0.107774 0.013306
v 0.360874 0.096704 0.013306
v 0.360874 0.096704 -0.013393
v 0.349174 0.107774 -0.013393
v 0.349174 0.096704 -0.013393
v 0.360874 0.107774 -0.013393
v -0.101324 -0.126966 -0.037094
v -0.105326 -0.166446 0.037006
v -0.105326 -0.166446 -0.037094
v -0.101324 -0.126966 0.037006
v -0.088625 -0.107986 -0.037094
v -0.088625 -0.107986 0.037006
v -0.068424 -0.093596 -0.037094
v -0.068424 -0.093596 0.037006
v -0.035524 0.143104 -0.034393
v -0.035524 0.143104 0.034306
v -0.035524 0.129804 -0.042694
v -0.035524 0.129804 0.042606
v -0.105625 -0.040956 -0.020092
v -0.217825 -0.040956 -0.020092
v -0.217825 -0.040956 0.020004
v -0.105625 -0.040956 0.020004
v -0.064325 -0.057966 -0.037094
v -0.068424 -0.093596 0.037006
v -0.068424 -0.093596 -0.037094
v -0.064325 -0.057966 0.037006
v -0.066225 -0.032296 -0.037094
v -0.066225 -0.032296 0.037006
v -0.059425 -0.016006 -0.037094
v -0.059425 -0.016006 0.037006
v -0.040424 -0.000626 -0.037094
v -0.040424 -0.000626 0.037006
v 0.354376 0.081394 0.032104
v 0.354376 0.073574 0.032104
v 0.351376 0.081394 0.032104
v 0.351376 0.073574 0.032104
v 0.070576 0.073574 0.032104
v 0.351376 0.090344 0.032104
v 0.357275 0.128014 0.032104
v 0.357275 0.124834 0.032104
v 0.357275 0.090344 0.032104
v -0.297325 0.128014 0.032104
v -0.035524 0.073574 0.032104
v -0.287226 0.090344 0.032104
v -0.297325 0.124454 0.032104
v -0.297325 0.090344 0.032104
v -0.287226 0.081394 0.032104
v -0.287226 0.073574 0.032104
v 0.354376 0.081394 -0.032093
v 0.351376 0.081394 -0.032093
v 0.351376 0.073574 -0.032093
v 0.354376 0.073574 -0.032093
v 0.070576 0.073574 -0.032093
v 0.351376 0.090344 -0.032093
v 0.357275 0.128014 -0.032093
v 0.357275 0.124834 -0.032093
v 0.357275 0.090344 -0.032093
v -0.297325 0.128014 -0.032093
v -0.035524 0.073574 -0.032093
v -0.287226 0.090344 -0.032093
v -0.297325 0.124454 -0.032093
v -0.297325 0.090344 -0.032093
v -0.287226 0.081394 -0.032093
v -0.287226 0.073574 -0.032093
v 0.349174 0.081694 0.008507
v 0.360874 0.081694 0.008507
v 0.349174 0.093724 0.020508
v 0.360874 0.093724 0.020508
v 0.349174 0.093724 -0.020596
v 0.360874 0.093724 -0.020596
v 0.349174 0.081694 -0.008495
v 0.360874 0.081694 -0.008495
v -0.153126 -0.301866 -0.037094
v -0.150925 -0.311906 0.037006
v -0.150925 -0.311906 -0.037094
v -0.153126 -0.301866 0.037006
v -0.154724 -0.280686 -0.037094
v -0.154724 -0.280686 0.037006
v -0.142225 -0.248886 -0.037094
v -0.142225 -0.248886 0.037006
v -0.131926 -0.235806 -0.037094
v -0.131926 -0.235806 0.037006
v 0.086075 0.005164 0.016308
v 0.086075 0.005164 -0.016293
v 0.090176 0.000744 -0.016293
v 0.090176 0.000744 0.016308
v 0.094074 -0.005936 -0.016293
v 0.094074 -0.005936 0.016308
v 0.101376 -0.024176 -0.016293
v 0.101376 -0.024176 0.016308
v 0.101376 -0.039126 -0.016293
v 0.101376 -0.039126 0.016308
v 0.098175 -0.058566 -0.016293
v 0.098175 -0.058566 0.016308
v 0.090275 -0.071866 -0.016293
v 0.090275 -0.071866 0.016308
v 0.080975 -0.077276 -0.016293
v 0.080975 -0.077276 0.016308
v -0.015825 -0.083506 -0.016293
v -0.015825 -0.083506 0.016308
v -0.036224 -0.082776 -0.016293
v -0.036224 -0.082776 0.016308
v -0.050924 -0.075896 -0.016293
v -0.050924 -0.075896 0.016308
v -0.065725 -0.058936 -0.016293
v -0.065725 -0.058936 0.016308
v -0.105625 -0.040956 -0.020092
v -0.187824 -0.317496 0.020004
v -0.187824 -0.317496 -0.020092
v -0.105625 -0.040956 0.020004
v 0.070576 0.073574 0.032104
v 0.351376 0.073574 0.032104
v 0.351376 0.073574 0.042606
v 0.354376 0.073574 0.032104
v 0.354376 0.073574 0.042606
v 0.070576 0.073574 0.042606
v -0.035524 0.073574 0.042606
v -0.035524 0.073574 0.032104
v -0.287226 0.073574 0.042606
v -0.287226 0.073574 0.032104
v 0.351376 0.073574 -0.042694
v 0.070576 0.073574 -0.032093
v 0.070576 0.073574 -0.042694
v 0.351376 0.073574 -0.032093
v 0.354376 0.073574 -0.042694
v 0.354376 0.073574 -0.032093
v -0.035524 0.073574 -0.032093
v -0.035524 0.073574 -0.042694
v -0.287226 0.073574 -0.032093
v -0.287226 0.073574 -0.042694
v 0.070576 0.129804 -0.042694
v 0.070576 0.129804 0.042606
v 0.070576 0.143104 -0.034393
v 0.070576 0.143104 0.034306
v 0.349174 0.081694 -0.008495
v 0.360874 0.081694 -0.008495
v 0.349174 0.081694 0.008507
v 0.360874 0.081694 0.008507
v 0.360874 0.115594 0.005505
v 0.349174 0.107774 0.013306
v 0.349174 0.115594 0.005505
v 0.360874 0.107774 0.013306
v 0.360874 0.107774 -0.013393
v 0.349174 0.115594 -0.005592
v 0.349174 0.107774 -0.013393
v 0.360874 0.115594 -0.005592
v -0.129326 -0.198286 -0.037094
v -0.131926 -0.235806 0.037006
v -0.131926 -0.235806 -0.037094
v -0.129326 -0.198286 0.037006
v -0.297325 0.090344 0.032104
v -0.287226 0.090344 0.032104
v -0.297325 0.090344 0.042606
v -0.287226 0.090344 0.042606
v -0.297325 0.090344 -0.042694
v -0.287226 0.090344 -0.042694
v -0.297325 0.090344 -0.032093
v -0.287226 0.090344 -0.032093
v 0.351376 0.090344 -0.032093
v 0.351376 0.090344 -0.042694
v 0.357275 0.090344 -0.035393
v 0.357275 0.090344 -0.032093
v 0.351376 0.090344 0.032104
v 0.357275 0.090344 0.035408
v 0.351376 0.090344 0.042606
v 0.357275 0.090344 0.032104
v -0.296225 0.091704 0.037006
v -0.296225 0.091704 -0.037094
v -0.286625 0.091704 -0.037094
v -0.286625 0.091704 0.037006
v 0.360874 0.115594 -0.005592
v 0.349174 0.115594 0.005505
v 0.349174 0.115594 -0.005592
v 0.360874 0.115594 0.005505
v -0.156324 -0.317496 -0.024094
v -0.156324 -0.331666 0.024006
v -0.156324 -0.331666 -0.024094
v -0.156324 -0.317496 0.024006
v 0.357275 0.128014 0.032104
v -0.297325 0.128014 0.032104
v 0.357275 0.128014 -0.032093
v -0.297325 0.128014 -0.032093
v -0.249226 0.160084 -0.017796
v -0.243525 0.142704 -0.009396
v -0.243525 0.142704 -0.017796
v -0.249226 0.160084 -0.009396
v -0.249226 0.160084 0.009308
v -0.243525 0.142704 0.017807
v -0.243525 0.142704 0.009308
v -0.249226 0.160084 0.017807
v -0.286625 0.088304 -0.037094
v -0.286625 0.082724 0.037006
v -0.286625 0.082724 -0.037094
v -0.286625 0.088304 0.037006
v -0.304726 -0.317496 0.031506
v -0.304726 -0.317496 -0.031593
v -0.309925 -0.317496 -0.024094
v -0.309925 -0.317496 0.024006
v -0.300024 -0.317496 0.020004
v -0.300024 -0.317496 -0.020092
v -0.187824 -0.317496 0.020004
v -0.187824 -0.317496 -0.020092
v -0.161526 -0.317496 0.031506
v -0.161526 -0.317496 -0.031593
v -0.156324 -0.317496 0.024006
v -0.156324 -0.317496 -0.024094
v 0.321476 0.157394 -0.004395
v 0.321476 0.142784 -0.004395
v 0.321476 0.157394 0.004307
v 0.321476 0.142784 0.004307
vn 1.0000 0.0001 -0.0000
vn 1.0000 0.0002 -0.0000
vn 1.0000 -0.0002 -0.0000
vn 1.0000 -0.0000 -0.0000
vn 1.0000 -0.0001 -0.0000
vn 0.7492 0.6624 -0.0000
vn 1.0000 -0.0003 -0.0000
vn -0.0315 -0.9995 -0.0000
vn -0.0000 -1.0000 -0.0000
vn -0.5029 -0.8644 -0.0000
vn -0.5029 -0.8643 -0.0000
vn -0.7491 -0.6624 -0.0000
vn -0.8185 -0.5745 -0.0000
vn 0.8124 0.2919 -0.5048
vn 0.8124 0.2918 -0.5048
vn 0.8008 0.1099 -0.5888
vn 0.7933 0.0707 -0.6047
vn 0.7778 -0.0000 -0.6285
vn 0.7778 -0.0000 -0.6286
vn 0.8008 0.1099 0.5888
vn 0.8124 0.2918 0.5048
vn 0.8124 0.2919 0.5048
vn 0.7933 0.0707 0.6048
vn 0.7778 -0.0000 0.6285
vn 0.1733 0.9849 -0.0000
vn 0.3304 0.9439 -0.0000
vn 0.3303 0.9439 -0.0000
vn 0.7071 0.7071 -0.0000
vn 0.8730 0.4877 -0.0000
vn 0.8730 0.4876 -0.0000
vn -1.0000 -0.0000 -0.0000
vn -0.9519 0.3065 -0.0000
vn -0.9518 0.3068 -0.0000
vn -0.9518 0.3066 -0.0000
vn -0.9517 0.3069 -0.0000
vn -0.9518 0.3067 -0.0000
vn -0.5745 0.8185 -0.0000
vn -0.9992 0.0394 -0.0000
vn -0.9992 -0.0393 -0.0000
vn -0.9992 -0.0392 -0.0000
vn -0.9612 0.2758 -0.0000
vn -0.9413 0.3374 -0.0000
vn -0.9413 0.3375 -0.0000
vn -0.9052 0.4250 -0.0000
vn -0.8730 0.4877 -0.0000
vn -0.8730 0.4876 -0.0000
vn -0.8345 0.5511 -0.0000
vn -0.8345 0.5510 -0.0000
vn -0.8185 0.5745 -0.0000
vn -0.8247 0.5655 -0.0000
vn -0.9963 0.0862 -0.0000
vn -0.9591 -0.2830 -0.0000
vn -0.8404 -0.5420 -0.0000
vn -0.8404 -0.5419 -0.0000
vn -0.5602 -0.8283 -0.0000
vn -0.5601 -0.8284 -0.0000
vn -0.5602 -0.8284 -0.0000
vn -0.7452 -0.6668 -0.0000
vn -0.7453 -0.6668 -0.0000
vn 0.6285 -0.7778 -0.0000
vn 0.6286 -0.7777 -0.0000
vn -0.9591 0.2831 -0.0000
vn -0.9591 0.2830 -0.0000
vn -0.0000 1.0000 -0.0000
vn 0.8815 -0.4722 -0.0000
vn 0.8815 -0.4723 -0.0000
vn 0.8185 -0.5745 -0.0000
vn 0.8440 -0.5364 -0.0000
vn 0.9771 -0.2128 -0.0000
vn 0.9989 -0.0472 -0.0000
vn 1.0000 0.0079 -0.0000
vn 1.0000 0.0078 -0.0000
vn 0.9835 0.1810 -0.0000
vn 0.9612 0.2758 -0.0000
vn 0.9985 0.0550 -0.0000
vn 0.0003 1.0000 -0.0000
vn -0.0001 1.0000 -0.0000
vn -0.0000 0.7071 0.7071
vn -0.0000 0.7071 -0.7071
vn -0.0000 0.7072 -0.7071
vn 0.7708 -0.6371 -0.0000
vn 0.1260 -0.9920 -0.0000
vn 0.0550 -0.9985 -0.0000
vn 0.3234 -0.9463 -0.0000
vn 0.3233 -0.9463 -0.0000
vn 0.0393 -0.9992 -0.0000
vn -0.1657 -0.9862 -0.0000
vn -0.4628 -0.8864 -0.0000
vn -0.5606 -0.8281 -0.0000
vn -0.0000 0.7070 -0.7072
vn -0.0000 0.7070 0.7072
vn -0.0000 -0.0000 1.0000
vn -0.0000 0.1580 0.9874
vn -0.0000 0.1182 0.9930
vn -0.0000 0.5272 0.8497
vn -0.0000 0.5272 0.8498
vn 0.1896 0.3081 0.9323
vn 0.0314 0.0472 0.9984
vn -0.0000 -0.0000 -1.0000
vn -0.0000 0.1182 -0.9930
vn -0.0000 0.1580 -0.9874
vn -0.0000 0.5272 -0.8498
vn 0.1896 0.3081 -0.9323
vn 0.0314 0.0472 -0.9984
vn -0.0079 -0.7885 0.6150
vn -0.0079 -0.7885 -0.6150
vn -0.0002 -0.0000 -1.0000
vn -0.0000 0.0315 -0.9995
vn 0.0001 -0.0000 -1.0000
vn -0.0000 0.0472 -0.9989
vn -0.0000 0.4876 -0.8731
vn -0.0000 0.4877 -0.8730
vn -0.0001 -0.0000 -1.0000
vn -0.0000 0.0315 0.9995
vn -0.0002 -0.0000 1.0000
vn -0.0001 -0.0000 1.0000
vn -0.0000 0.0472 0.9989
vn -0.0000 0.4877 0.8730
vn 0.0001 -0.0000 1.0000
vn -0.0472 -0.0000 -0.9989
vn 0.0472 -0.0000 -0.9989
vn 0.8247 -0.0000 -0.5655
vn 0.8247 -0.0000 -0.5656
vn -0.0472 0.0002 -0.9989
vn -0.8247 -0.0000 -0.5655
vn -0.0472 -0.0000 0.9989
vn 0.0472 -0.0000 0.9989
vn 0.8247 -0.0000 0.5655
vn -0.0472 -0.0001 0.9989
vn -0.8247 -0.0000 0.5655
vn -0.2284 -0.7798 -0.5829
vn -0.2284 -0.7798 0.5829
vn -0.6150 0.7885 -0.0000
vn -0.6456 0.7637 -0.0000
vn -0.9405 0.3398 -0.0000
vn -0.9405 0.3397 -0.0000
vn -0.5886 0.8084 -0.0000
vn 0.7991 -0.6012 -0.0000
vn -1.0000 0.0001 -0.0000
vn -0.5218 -0.4823 -0.7036
vn -0.4344 -0.4738 -0.7660
vn -0.4109 -0.4109 -0.8139
vn -0.4174 -0.3938 -0.8190
vn -0.5133 -0.2211 -0.8292
vn -0.5041 -0.2205 -0.8350
vn -0.5283 -0.0946 -0.8438
vn -0.5018 -0.1333 -0.8547
vn -0.5218 -0.4823 0.7036
vn -0.4109 -0.4109 0.8138
vn -0.4344 -0.4738 0.7660
vn -0.4174 -0.3937 0.8190
vn -0.5133 -0.2211 0.8292
vn -0.5041 -0.2205 0.8350
vn -0.5283 -0.0946 0.8438
vn -0.5018 -0.1333 0.8547
vn 0.0003 -0.0000 -1.0000
vn -0.0157 0.9999 -0.0000
vn -0.0158 0.9999 -0.0000
vn -0.3469 0.1183 -0.9304
vn -0.1813 -0.1655 -0.9694
vn -0.2133 -0.1027 -0.9716
vn -0.1815 -0.1578 -0.9706
vn -0.1896 -0.1422 -0.9715
vn -0.1813 -0.1655 0.9694
vn -0.3469 0.1183 0.9304
vn -0.2133 -0.1027 0.9716
vn -0.1815 -0.1578 0.9706
vn -0.1896 -0.1422 0.9715
vn -0.1896 -0.1421 0.9715
vn 0.3920 0.4939 0.7761
vn 0.3938 0.1575 0.9056
vn 0.2822 0.1881 0.9407
vn 0.2761 0.1657 0.9467
vn 0.2530 0.1897 0.9487
vn 0.2530 0.1898 0.9487
vn 0.3920 0.4939 -0.7761
vn 0.2822 0.1881 -0.9407
vn 0.3937 0.1575 -0.9056
vn 0.2761 0.1657 -0.9467
vn 0.2530 0.1897 -0.9487
vn 0.5821 0.3382 0.7394
vn 0.5888 0.3297 0.7380
vn 0.5189 0.4796 0.7076
vn 0.6519 0.1728 0.7383
vn 0.5198 0.4883 0.7010
vn 0.5140 0.4903 0.7038
vn 0.6709 0.1500 0.7262
vn 0.7557 -0.1102 0.6455
vn 0.7329 -0.1182 0.6700
vn 0.8290 -0.1816 0.5290
vn 0.8573 -0.1652 0.4876
vn 0.5198 0.4883 -0.7010
vn 0.5888 0.3297 -0.7380
vn 0.5209 0.4735 -0.7103
vn 0.5140 0.4903 -0.7038
vn 0.5821 0.3382 -0.7394
vn 0.6519 0.1728 -0.7383
vn 0.6710 0.1500 -0.7262
vn 0.7557 -0.1102 -0.6455
vn 0.7330 -0.1182 -0.6699
vn 0.8290 -0.1816 -0.5290
vn 0.8573 -0.1651 -0.4877
vn -0.0003 -0.0000 -1.0000
vn -0.3468 0.9379 -0.0000
vn -0.3469 0.9379 -0.0000
vn 0.0315 -0.9995 -0.0000
vn 0.9612 -0.2758 -0.0000
vn 0.9947 -0.1026 -0.0000
vn 0.7111 -0.7031 -0.0000
vn 0.5799 -0.8147 -0.0000
vn 0.9992 -0.0393 -0.0000
vn 0.9939 -0.1105 -0.0000
vn 0.9939 -0.1104 -0.0000
vn 0.9930 -0.1182 -0.0000
vn 0.7778 -0.6285 -0.0000
vn 0.0002 -0.0000 -1.0000
vn -0.0000 -0.7071 0.7071
vn -0.0000 -0.7071 -0.7071
vn -0.0000 -0.7072 -0.7071
vn 0.9930 0.1182 -0.0000
vn 0.9771 0.2128 -0.0000
vn 0.9771 0.2127 -0.0000
vn 0.9787 -0.2052 -0.0000
vn 0.8928 -0.4504 -0.0000
vn 0.7885 -0.6150 -0.0000
vn -0.7342 -0.6789 -0.0000
vn -0.7342 -0.6790 -0.0000
vn -0.8121 -0.5835 -0.0000
vn -0.9125 -0.4091 -0.0000
vn -0.9771 -0.2128 -0.0000
vn -0.9955 0.0948 -0.0000
vn -0.9463 0.3233 -0.0000
vn -0.7342 0.6790 -0.0000
vn -0.7342 0.6789 -0.0000
vn -0.1104 0.9939 -0.0000
vn -0.1105 0.9939 -0.0000
vn -0.0472 0.9989 -0.0000
vn 0.2128 0.9771 -0.0000
vn 0.6285 0.7778 -0.0000
vn 0.7526 0.6585 -0.0000
vn 0.9591 -0.2830 -0.0000
vn 0.9591 -0.2831 -0.0000
vn -0.0000 -0.7070 -0.7072
vn -0.0000 -0.7070 0.7072
vn -0.0000 -0.7071 0.7072
vn 0.9975 -0.0706 -0.0000
vn 0.9975 -0.0707 -0.0000
vn 0.9518 0.3068 -0.0000
vt 0.647440 0.977363
vt 0.647440 0.697730
vt 0.647440 0.628525
vt 0.647440 0.810286
vt 0.647440 0.371475
vt 0.647440 0.302270
vt 0.647440 0.022638
vt 0.647440 0.189714
vt 0.686294 0.719873
vt 0.687895 0.794200
vt 0.686294 0.589685
vt 0.686294 0.203570
vt 0.686294 0.625254
vt 0.687078 0.015846
vt 0.687078 0.103461
vt 0.599282 0.958885
vt 0.599282 0.727751
vt 0.687895 0.103461
vt 0.687895 0.203570
vt 0.604404 0.975099
vt 0.604404 0.949526
vt 0.881810 0.024901
vt 0.814918 0.024901
vt 0.887732 0.036105
vt 0.893039 0.056940
vt 0.899393 0.100911
vt 0.687895 0.645271
vt 0.048344 0.956989
vt 0.048344 0.819558
vt 0.048344 0.497577
vt 0.048344 0.043011
vt 0.328446 0.047538
vt 0.213984 0.047538
vt 0.333261 0.047538
vt 0.187139 0.047538
vt 0.338537 0.047538
vt 0.181862 0.047538
vt 0.338537 0.091637
vt 0.295426 0.033956
vt 0.295426 0.966044
vt 0.865489 0.714136
vt 0.862728 0.794200
vt 0.865489 0.203570
vt 0.865489 0.585395
vt 0.865489 0.625254
vt 0.874863 0.855282
vt 0.874863 0.807924
vt 0.874863 0.866848
vt 0.874575 0.949551
vt 0.874575 0.873917
vt 0.862728 0.015846
vt 0.862728 0.103461
vt 0.862728 0.203570
vt 0.870543 0.873917
vt 0.870543 0.855282
vt 0.899882 0.166913
vt 0.898588 0.194078
vt 0.893688 0.271953
vt 0.888131 0.338056
vt 0.879435 0.420005
vt 0.874130 0.459395
vt 0.870073 0.489277
vt 0.859211 0.563237
vt 0.852371 0.616506
vt 0.850919 0.650337
vt 0.851212 0.682250
vt 0.856198 0.737081
vt 0.862320 0.766210
vt 0.870543 0.784201
vt 0.604404 0.707486
vt 0.328446 0.091637
vt 0.244565 0.952462
vt 0.585419 0.180136
vt 0.591534 0.120581
vt 0.764784 0.794200
vt 0.793818 0.794200
vt 0.766174 0.975099
vt 0.578000 0.966044
vt 0.583693 0.924152
vt 0.590055 0.867823
vt 0.592555 0.713934
vt 0.592555 0.587786
vt 0.592555 0.423768
vt 0.592108 0.300792
vt 0.586013 0.238916
vt 0.793818 0.645271
vt 0.764784 0.645271
vt 0.766174 0.949526
vt 0.851212 0.949526
vt 0.856198 0.949526
vt 0.862320 0.949526
vt 0.870543 0.949551
vt 0.841411 0.977363
vt 0.841411 0.697730
vt 0.841411 0.189714
vt 0.870543 0.866848
vt 0.813009 0.036105
vt 0.605805 0.095058
vt 0.643564 0.085776
vt 0.822846 0.033956
vt 0.859118 0.039370
vt 0.884241 0.086549
vt 0.910851 0.180135
vt 0.841411 0.371475
vt 0.764784 0.015846
vt 0.687895 0.015846
vt 0.764784 0.103461
vt 0.793818 0.015846
vt 0.793818 0.103461
vt 0.764784 0.203570
vt 0.793818 0.203570
vt 0.862728 0.645271
vt 0.234564 0.119414
vt 0.248294 0.076480
vt 0.188428 0.074703
vt 0.776296 0.563237
vt 0.777080 0.616506
vt 0.774228 0.650337
vt 0.766174 0.682250
vt 0.813917 0.056940
vt 0.814615 0.100911
vt 0.809308 0.166913
vt 0.804963 0.194078
vt 0.803854 0.271953
vt 0.793684 0.338056
vt 0.791992 0.420005
vt 0.786602 0.459395
vt 0.778018 0.489277
vt 0.333261 0.091637
vt 0.187139 0.091637
vt 0.181862 0.091637
vt 0.330956 0.361992
vt 0.359238 0.383052
vt 0.286858 0.381033
vt 0.286857 0.381033
vt 0.360771 0.789032
vt 0.298942 0.925297
vt 0.894201 0.420674
vt 0.450247 0.620457
vt 0.841411 0.302270
vt 0.130103 0.952462
vt 0.213984 0.091637
vt 0.267174 0.210459
vt 0.293555 0.162237
vt 0.283258 0.296841
vt 0.322375 0.278120
vt 0.641413 0.924152
vt 0.647999 0.961400
vt 0.635051 0.867823
vt 0.623176 0.713934
vt 0.623176 0.587786
vt 0.628401 0.423768
vt 0.641186 0.311620
vt 0.656349 0.265987
vt 0.813332 0.213393
vt 0.846334 0.219581
vt 0.870119 0.277589
vt 0.267204 0.527213
vt 0.401422 0.449948
vt 0.311946 0.618521
vt 0.311946 0.618522
vt 0.246761 0.594981
vt 0.250117 0.754787
vt 0.247305 0.244739
vt 0.220834 0.162347
vt 0.254204 0.308661
vt 0.261621 0.393055
vt 0.841411 0.628525
vt 0.841411 0.022638
vt 0.841411 0.810286
s 1
usemtl Handle1Mtl.023
f 1/1/1 2/2/2 3/3/3
f 1/1/1 3/3/3 4/4/4
f 5/5/4 6/3/4 7/2/4
f 5/5/4 7/2/4 8/6/4
f 9/7/5 10/5/2 11/6/3
f 10/5/2 9/7/5 12/8/4
f 13/7/4 14/8/1 15/7/1
f 14/8/1 13/7/4 16/8/4
f 17/7/4 18/5/4 19/8/4
f 18/5/4 17/7/4 20/6/4
f 21/6/4 22/2/4 23/3/4
f 21/6/4 23/3/4 24/5/4
f 25/3/4 26/1/4 27/4/4
f 26/1/4 25/3/4 28/2/4
f 29/4/5 30/1/4 31/4/2
f 30/1/4 29/4/5 32/1/3
f 33/9/6 34/9/6 35/10/6
f 35/10/6 36/10/6 33/9/6
f 37/11/4 38/12/4 39/12/4
f 38/12/4 37/11/4 40/11/4
f 37/11/4 41/13/7 40/11/4
f 37/11/4 42/9/2 41/13/7
f 43/9/2 41/13/7 42/9/2
f 41/13/7 43/9/2 44/13/1
f 43/9/2 45/11/4 44/13/1
f 44/13/1 45/11/4 46/11/4
f 47/12/4 46/11/4 45/11/4
f 46/11/4 47/12/4 48/12/4
f 49/14/4 50/15/4 51/14/4
f 50/15/4 52/15/4 51/14/4
f 53/14/4 54/15/4 55/14/4
f 54/15/4 56/15/4 55/14/4
f 57/16/4 58/17/4 59/17/4
f 58/17/4 57/16/4 60/16/4
f 61/18/4 62/19/4 63/18/4
f 62/19/4 64/19/4 63/18/4
f 65/18/4 66/19/4 67/18/4
f 66/19/4 68/19/4 67/18/4
f 69/20/2 70/21/4 71/21/2
f 70/21/4 69/20/2 72/20/4
f 73/22/8 74/23/9 75/23/9
f 73/22/8 75/23/9 76/22/8
f 73/22/8 76/22/8 77/24/10
f 77/24/10 78/24/11 73/22/8
f 78/24/11 77/24/10 79/25/12
f 79/25/12 80/25/12 78/24/11
f 80/25/12 79/25/12 81/26/13
f 81/26/13 82/26/13 80/25/12
f 83/10/14 84/9/15 85/27/16
f 84/9/15 86/11/17 85/27/16
f 87/19/18 85/27/16 86/11/17
f 87/19/18 86/11/17 88/12/19
f 89/27/20 90/9/21 91/10/22
f 89/27/20 92/11/23 90/9/21
f 89/27/20 93/19/24 92/11/23
f 94/12/24 92/11/23 93/19/24
f 95/28/25 96/28/25 97/29/26
f 97/29/26 96/28/25 98/29/27
f 97/29/26 98/29/27 99/30/28
f 100/30/28 97/29/26 99/30/28
f 101/31/29 100/30/28 99/30/28
f 100/30/28 101/31/29 102/31/30
f 103/32/9 104/33/9 105/33/9
f 106/34/9 104/33/9 103/32/9
f 106/34/9 107/35/9 104/33/9
f 105/33/9 104/33/9 107/35/9
f 106/34/9 108/36/9 109/36/9
f 106/34/9 110/34/9 108/36/9
f 103/32/9 105/33/9 111/32/9
f 110/34/9 103/32/9 111/32/9
f 105/33/9 110/34/9 111/32/9
f 110/34/9 105/33/9 112/35/9
f 107/35/9 112/35/9 105/33/9
f 112/35/9 107/35/9 113/37/9
f 112/35/9 113/37/9 114/37/9
f 115/34/9 116/34/9 117/32/9
f 118/38/31 119/38/31 120/36/31
f 120/36/31 121/36/31 118/38/31
f 122/39/32 123/40/33 124/39/34
f 125/40/35 124/39/34 123/40/33
f 126/39/36 127/40/36 128/39/36
f 129/40/36 128/39/36 127/40/36
f 130/41/37 131/42/37 132/42/37
f 130/41/37 133/41/37 131/42/37
f 134/43/31 135/44/31 136/43/31
f 137/44/31 136/43/31 135/44/31
f 137/44/31 135/44/31 138/45/31
f 138/45/31 135/44/31 139/41/31
f 139/41/31 140/45/31 138/45/31
f 139/41/31 141/41/31 140/45/31
f 140/45/31 141/41/31 142/44/31
f 142/44/31 143/44/31 140/45/31
f 142/44/31 144/43/31 143/44/31
f 145/43/31 143/44/31 144/43/31
f 146/46/31 147/46/31 148/47/31
f 148/47/31 149/47/31 146/46/31
f 147/46/31 146/46/31 150/48/31
f 150/48/31 151/48/31 147/46/31
f 152/49/31 153/49/31 154/50/31
f 154/50/31 155/50/31 152/49/31
f 156/51/31 157/52/31 158/52/31
f 157/52/31 156/51/31 159/51/31
f 160/53/31 158/52/31 157/52/31
f 158/52/31 160/53/31 161/53/31
f 162/51/31 163/52/31 164/52/31
f 163/52/31 162/51/31 165/51/31
f 166/53/31 164/52/31 163/52/31
f 164/52/31 166/53/31 167/53/31
f 168/54/31 169/54/31 170/55/31
f 170/55/31 171/55/31 168/54/31
f 172/56/38 173/56/38 174/26/39
f 174/26/39 175/26/40 172/56/38
f 173/56/38 172/56/38 176/57/41
f 176/57/41 177/57/41 173/56/38
f 177/57/41 176/57/41 178/58/42
f 178/58/42 179/58/43 177/57/41
f 179/58/43 178/58/42 180/59/44
f 180/59/44 181/59/44 179/58/43
f 181/59/44 180/59/44 182/60/45
f 182/60/45 183/60/46 181/59/44
f 183/60/46 182/60/45 184/61/47
f 184/61/47 185/61/48 183/60/46
f 185/61/48 184/61/47 186/62/49
f 186/62/49 187/62/49 185/61/48
f 187/62/49 186/62/49 188/63/50
f 188/63/50 189/63/50 187/62/49
f 189/63/50 188/63/50 190/64/44
f 190/64/44 191/64/44 189/63/50
f 191/64/44 190/64/44 192/65/51
f 192/65/51 193/65/51 191/64/44
f 193/65/51 192/65/51 194/66/52
f 194/66/52 195/66/52 193/65/51
f 195/66/52 194/66/52 196/67/53
f 196/67/53 197/67/54 195/66/52
f 197/67/54 196/67/53 198/68/55
f 198/68/55 199/68/55 197/67/54
f 199/68/55 198/68/55 200/69/56
f 200/69/56 201/69/57 199/68/55
f 201/69/57 200/69/56 202/47/58
f 202/47/58 203/47/59 201/69/57
f 204/17/60 205/70/61 206/70/60
f 205/70/61 204/17/60 207/17/60
f 208/71/62 209/72/62 210/71/63
f 211/72/62 210/71/63 209/72/62
f 212/40/64 213/40/64 214/40/64
f 214/40/64 213/40/64 215/40/64
f 216/40/64 217/40/64 218/40/64
f 217/40/64 216/40/64 219/40/64
f 220/73/65 221/74/65 222/73/65
f 221/74/65 220/73/65 223/74/66
f 224/10/64 225/75/64 226/75/64
f 224/10/64 226/75/64 227/10/64
f 228/42/64 229/76/64 230/76/64
f 229/76/64 228/42/64 231/42/64
f 232/77/64 233/20/64 234/77/64
f 235/20/64 234/77/64 233/20/64
f 236/78/67 237/79/68 238/79/68
f 237/79/68 236/78/67 239/78/67
f 238/79/68 237/79/68 240/80/69
f 240/80/69 241/80/69 238/79/68
f 241/80/69 240/80/69 242/81/70
f 242/81/70 243/81/70 241/80/69
f 243/81/70 242/81/70 244/82/4
f 244/82/4 245/82/4 243/81/70
f 245/82/4 244/82/4 246/83/71
f 247/83/72 245/82/4 246/83/71
f 247/83/72 246/83/71 248/84/73
f 248/84/73 249/84/73 247/83/72
f 249/84/73 248/84/73 250/85/74
f 250/85/74 251/85/74 249/84/73
f 251/85/74 250/85/74 252/73/75
f 252/73/75 253/73/75 251/85/74
f 254/86/64 255/86/64 256/87/64
f 256/87/64 255/86/64 257/87/64
f 258/88/64 259/89/64 260/89/64
f 258/88/64 260/89/64 261/88/64
f 262/90/64 260/89/64 259/89/64
f 260/89/64 262/90/64 263/90/64
f 264/91/76 263/90/64 262/90/64
f 263/90/64 264/91/76 265/91/77
f 266/92/77 265/91/77 264/91/76
f 265/91/77 266/92/77 267/92/77
f 268/49/64 267/92/77 266/92/77
f 267/92/77 268/49/64 269/49/64
f 270/93/64 271/1/64 272/1/64
f 271/1/64 270/93/64 273/93/64
f 274/93/78 275/2/78 276/1/78
f 275/2/78 274/93/78 277/94/78
f 278/94/79 279/1/79 280/2/80
f 279/1/79 278/94/79 281/93/79
f 282/8/64 283/95/64 284/8/64
f 283/95/64 285/95/64 284/8/64
f 286/48/64 287/96/64 288/96/64
f 287/96/64 286/48/64 289/48/64
f 290/97/81 291/23/81 292/23/81
f 291/23/81 290/97/81 293/97/81
f 294/15/64 295/15/64 296/18/64
f 296/18/64 297/18/64 294/15/64
f 298/15/64 299/15/64 300/18/64
f 300/18/64 301/18/64 298/15/64
f 302/98/82 303/99/83 304/99/83
f 303/99/83 302/98/82 305/98/82
f 306/74/84 305/98/82 302/98/82
f 305/98/82 306/74/84 307/74/85
f 303/99/83 308/100/86 304/99/83
f 309/100/86 304/99/83 308/100/86
f 309/100/86 308/100/86 310/101/87
f 311/101/87 309/100/86 310/101/87
f 311/101/87 310/101/87 312/102/88
f 312/102/88 313/102/88 311/101/87
f 313/102/88 312/102/88 314/103/89
f 314/103/89 315/103/56 313/102/88
f 316/8/90 317/95/79 318/5/79
f 317/95/79 319/104/79 318/5/79
f 320/5/91 321/104/78 322/8/78
f 321/104/78 323/95/78 322/8/78
f 324/105/92 325/106/92 326/18/92
f 327/14/92 326/18/92 325/106/92
f 326/18/92 327/14/92 328/15/92
f 324/105/92 326/18/92 329/107/92
f 330/108/92 324/105/92 329/107/92
f 329/107/92 326/18/92 331/19/92
f 330/108/92 329/107/92 332/109/92
f 333/51/92 330/108/92 332/109/92
f 329/107/92 331/19/92 334/110/92
f 332/109/92 329/107/92 334/110/92
f 333/51/92 332/109/92 335/52/92
f 334/110/92 331/19/92 336/27/93
f 334/110/92 336/27/93 337/87/94
f 337/87/94 336/27/93 338/10/95
f 337/87/94 338/10/95 339/75/95
f 337/87/94 340/86/94 334/110/92
f 332/109/92 334/110/92 341/111/92
f 335/52/92 332/109/92 341/111/92
f 341/111/92 334/110/92 340/86/94
f 335/52/92 341/111/92 342/53/92
f 340/86/94 343/112/93 341/111/92
f 342/53/92 341/111/92 343/112/93
f 343/112/93 340/86/94 344/76/96
f 343/112/93 344/76/96 345/42/96
f 343/112/93 345/42/96 346/41/97
f 343/112/93 346/41/97 347/44/98
f 342/53/92 343/112/93 347/44/98
f 347/44/98 348/43/92 342/53/92
f 349/107/99 350/18/99 351/106/99
f 352/15/99 351/106/99 350/18/99
f 351/106/99 352/15/99 353/14/99
f 349/107/99 351/106/99 354/105/99
f 355/110/99 350/18/99 349/107/99
f 355/110/99 356/19/99 350/18/99
f 357/87/100 356/19/99 355/110/99
f 357/87/100 358/27/101 356/19/99
f 359/75/102 358/27/101 357/87/100
f 359/75/102 360/10/102 358/27/101
f 355/110/99 361/86/100 357/87/100
f 362/111/99 355/110/99 349/107/99
f 361/86/100 355/110/99 362/111/99
f 354/105/99 363/109/99 349/107/99
f 362/111/99 349/107/99 363/109/99
f 363/109/99 354/105/99 364/108/99
f 364/108/99 365/52/99 363/109/99
f 365/52/99 364/108/99 366/51/99
f 367/53/99 363/109/99 365/52/99
f 363/109/99 367/53/99 362/111/99
f 368/112/101 361/86/100 362/111/99
f 368/112/101 362/111/99 367/53/99
f 361/86/100 368/112/101 369/76/102
f 370/42/102 369/76/102 368/112/101
f 371/41/103 370/42/102 368/112/101
f 371/41/103 368/112/101 372/44/104
f 368/112/101 367/53/99 372/44/104
f 372/44/104 367/53/99 373/43/99
f 374/113/105 375/114/105 376/115/105
f 377/114/106 378/113/106 379/115/106
f 380/116/99 381/63/99 382/64/99
f 382/64/99 383/117/99 380/116/99
f 384/65/99 383/117/99 382/64/99
f 384/65/99 385/118/99 383/117/99
f 386/66/99 385/118/99 384/65/99
f 386/66/99 387/119/99 385/118/99
f 388/89/99 387/119/99 386/66/99
f 388/89/99 386/66/99 389/67/107
f 388/89/99 390/88/108 387/119/99
f 389/67/107 391/90/99 388/89/99
f 390/88/108 392/70/99 387/119/99
f 391/90/99 389/67/107 393/68/109
f 393/68/109 394/91/99 391/90/99
f 392/70/99 390/88/108 395/21/110
f 395/21/110 396/17/99 392/70/99
f 396/17/99 395/21/110 397/16/99
f 398/77/111 395/21/110 390/88/108
f 398/77/111 399/20/112 395/21/110
f 393/68/109 400/55/99 394/91/99
f 400/55/99 393/68/109 401/69/113
f 400/55/99 401/69/113 402/47/99
f 402/47/99 403/46/99 400/55/99
f 404/48/99 400/55/99 403/46/99
f 404/48/99 405/96/99 400/55/99
f 394/91/99 400/55/99 406/54/99
f 394/91/99 406/54/99 407/92/99
f 407/92/99 406/54/99 408/50/99
f 408/50/99 409/49/99 407/92/99
f 410/116/92 411/64/92 412/63/92
f 411/64/92 410/116/92 413/117/92
f 413/117/92 414/65/92 411/64/92
f 414/65/92 413/117/92 415/118/92
f 415/118/92 416/66/92 414/65/92
f 416/66/92 415/118/92 417/119/92
f 417/119/92 418/88/114 416/66/92
f 419/70/92 418/88/114 417/119/92
f 416/66/92 418/88/114 420/89/92
f 420/89/92 421/67/115 416/66/92
f 421/67/115 420/89/92 422/90/92
f 422/90/92 423/68/116 421/67/115
f 423/68/116 422/90/92 424/91/92
f 418/88/114 419/70/92 425/21/117
f 426/17/92 425/21/117 419/70/92
f 426/17/92 427/16/116 425/21/117
f 418/88/114 425/21/117 428/20/118
f 418/88/114 428/20/118 429/77/118
f 423/68/116 424/91/92 430/55/92
f 431/69/115 423/68/116 430/55/92
f 430/55/92 432/47/119 431/69/115
f 432/47/119 430/55/92 433/46/92
f 433/46/92 430/55/92 434/96/92
f 433/46/92 434/96/92 435/48/92
f 430/55/92 424/91/92 436/54/92
f 436/54/92 424/91/92 437/92/92
f 436/54/92 437/92/92 438/49/92
f 438/49/92 439/50/92 436/54/92
f 440/22/99 441/97/99 442/23/99
f 443/24/99 441/97/99 440/22/99
f 443/24/99 444/120/99 441/97/99
f 444/120/99 443/24/99 445/25/99
f 445/25/99 446/121/99 444/120/99
f 446/121/99 445/25/99 447/26/99
f 448/56/99 446/121/99 447/26/99
f 448/56/99 449/122/99 446/121/99
f 450/57/99 449/122/99 448/56/99
f 450/57/99 451/123/99 449/122/99
f 451/123/99 450/57/99 452/58/99
f 452/58/99 453/124/99 451/123/99
f 453/124/99 452/58/99 454/59/99
f 454/59/99 455/125/99 453/124/99
f 455/125/99 454/59/99 456/60/99
f 456/60/99 457/126/99 455/125/99
f 457/126/99 456/60/99 458/61/99
f 458/61/99 459/127/99 457/126/99
f 459/127/99 458/61/99 460/62/99
f 460/62/99 461/128/99 459/127/99
f 461/128/99 460/62/99 381/63/99
f 381/63/99 380/116/99 461/128/99
f 462/97/92 463/24/92 464/22/92
f 462/97/92 464/22/92 465/23/92
f 463/24/92 462/97/92 466/120/92
f 463/24/92 466/120/92 467/25/92
f 467/25/92 466/120/92 468/121/92
f 467/25/92 468/121/92 469/26/92
f 468/121/92 470/56/92 469/26/92
f 470/56/92 468/121/92 471/122/92
f 471/122/92 472/57/92 470/56/92
f 472/57/92 471/122/92 473/123/92
f 473/123/92 474/58/92 472/57/92
f 474/58/92 473/123/92 475/124/92
f 475/124/92 476/59/92 474/58/92
f 476/59/92 475/124/92 477/125/92
f 477/125/92 478/60/92 476/59/92
f 478/60/92 477/125/92 479/126/92
f 479/126/92 480/61/92 478/60/92
f 480/61/92 479/126/92 481/127/92
f 481/127/92 482/62/92 480/61/92
f 482/62/92 481/127/92 483/128/92
f 483/128/92 412/63/92 482/62/92
f 412/63/92 483/128/92 410/116/92
f 484/129/120 485/130/121 486/35/121
f 486/35/121 485/130/121 487/131/122
f 486/35/121 487/131/122 488/37/123
f 484/129/120 486/35/121 489/34/124
f 484/129/120 489/34/124 490/36/125
f 484/129/120 490/36/125 491/38/125
f 492/34/126 493/35/127 494/130/127
f 495/37/128 494/130/127 493/35/127
f 495/37/128 496/131/128 494/130/127
f 492/34/126 494/130/127 497/129/129
f 498/38/130 492/34/126 497/129/129
f 498/38/130 499/36/130 492/34/126
f 500/132/131 501/133/131 502/134/131
f 503/132/132 504/135/132 505/133/132
f 506/136/133 507/136/133 508/137/134
f 509/103/135 510/138/135 511/103/136
f 510/138/135 509/103/135 512/138/135
f 513/139/137 514/136/133 515/136/133
f 516/125/138 517/124/138 518/124/138
f 517/124/138 516/125/138 519/125/138
f 520/140/92 521/6/92 522/94/92
f 521/6/92 523/2/92 522/94/92
f 524/94/99 525/2/99 526/140/99
f 525/2/99 527/6/99 526/140/99
f 528/77/139 529/77/31 530/88/31
f 530/88/31 531/88/139 528/77/139
f 532/141/99 533/142/99 534/72/99
f 533/142/99 535/71/99 534/72/99
f 536/142/92 537/72/92 538/71/92
f 537/72/92 536/142/92 539/141/92
f 540/39/99 541/39/99 542/40/99
f 540/39/99 542/40/99 543/40/99
f 544/39/92 545/39/92 546/40/92
f 544/39/92 546/40/92 547/40/92
f 548/113/140 549/114/141 550/143/142
f 550/143/142 549/114/141 551/144/143
f 550/143/142 551/144/143 552/145/144
f 552/145/144 551/144/143 553/146/145
f 552/145/144 553/146/145 554/134/146
f 554/134/146 553/146/145 555/132/147
f 556/113/148 557/143/149 558/114/150
f 558/114/150 557/143/149 559/144/151
f 557/143/149 560/145/152 559/144/151
f 559/144/151 560/145/152 561/146/153
f 560/145/152 562/135/154 561/146/153
f 561/146/153 562/135/154 563/132/155
f 564/78/99 565/147/99 566/148/99
f 565/147/99 564/78/99 567/79/99
f 565/147/99 567/79/99 568/80/99
f 565/147/99 568/80/99 569/149/99
f 568/80/99 570/150/99 569/149/99
f 570/150/99 568/80/99 571/81/99
f 571/81/99 572/82/99 570/150/99
f 570/150/99 572/82/99 573/151/99
f 572/82/99 574/83/99 573/151/99
f 573/151/99 574/83/99 575/152/99
f 574/83/99 576/84/99 575/152/99
f 575/152/99 576/84/99 577/153/99
f 578/85/109 577/153/99 576/84/99
f 577/153/99 578/85/109 579/99/99
f 577/153/99 579/99/99 580/154/99
f 579/99/99 581/155/113 580/154/99
f 578/85/109 582/98/99 579/99/99
f 582/98/99 578/85/109 583/73/156
f 582/98/99 583/73/156 584/74/99
f 581/155/113 579/99/99 585/100/99
f 585/100/99 586/156/99 581/155/113
f 586/156/99 585/100/99 587/101/109
f 586/156/99 587/101/109 588/102/99
f 586/156/99 588/102/99 589/157/99
f 588/102/99 590/103/99 589/157/99
f 589/157/99 590/103/99 591/138/99
f 592/78/92 593/148/92 594/147/92
f 592/78/92 594/147/92 595/79/92
f 595/79/92 594/147/92 596/149/92
f 595/79/92 596/149/92 597/80/92
f 597/80/92 596/149/92 598/150/92
f 598/150/92 599/81/92 597/80/92
f 600/151/92 599/81/92 598/150/92
f 600/151/92 601/82/92 599/81/92
f 600/151/92 602/83/92 601/82/92
f 602/83/92 600/151/92 603/152/92
f 603/152/92 604/84/116 602/83/92
f 604/84/116 603/152/92 605/153/92
f 605/153/92 606/85/119 604/84/116
f 606/85/119 605/153/92 607/99/92
f 607/99/92 605/153/92 608/154/92
f 608/154/92 609/155/92 607/99/92
f 606/85/119 607/99/92 610/98/116
f 610/98/116 611/73/116 606/85/119
f 611/73/116 610/98/116 612/74/92
f 613/100/92 607/99/92 609/155/92
f 613/100/92 609/155/92 614/156/92
f 615/101/116 613/100/92 614/156/92
f 614/156/92 616/102/92 615/101/116
f 616/102/92 614/156/92 617/157/92
f 617/157/92 618/103/92 616/102/92
f 618/103/92 617/157/92 619/138/92
f 620/148/157 621/148/157 622/78/158
f 622/78/158 621/148/157 623/78/158
f 624/134/159 625/133/160 626/158/161
f 625/133/160 627/159/162 626/158/161
f 626/158/161 627/159/162 628/160/162
f 627/159/162 629/136/163 628/160/162
f 629/136/163 627/159/162 630/139/163
f 631/133/164 632/135/165 633/158/166
f 631/133/164 633/158/166 634/159/167
f 634/159/167 633/158/166 635/161/167
f 636/136/168 634/159/167 635/161/167
f 634/159/167 636/136/168 637/139/169
f 638/158/170 639/162/171 640/161/172
f 639/162/171 641/163/173 640/161/172
f 641/163/173 642/136/174 640/161/172
f 642/136/174 641/163/173 643/137/175
f 644/158/176 645/160/177 646/162/178
f 646/162/178 645/160/177 647/163/179
f 648/136/180 647/163/179 645/160/177
f 647/163/179 648/136/180 649/137/180
f 650/164/181 651/143/182 652/165/183
f 650/164/181 653/166/184 651/143/182
f 652/165/183 651/143/182 654/113/185
f 652/165/183 654/113/185 655/115/186
f 651/143/182 653/166/184 656/145/187
f 653/166/184 657/167/188 656/145/187
f 656/145/187 657/167/188 658/135/189
f 658/135/189 657/167/188 659/158/190
f 659/158/190 657/167/188 660/162/191
f 661/113/192 662/143/193 663/165/194
f 661/113/192 663/165/194 664/115/195
f 663/165/194 662/143/193 665/164/196
f 665/164/196 662/143/193 666/166/197
f 666/166/197 662/143/193 667/145/198
f 666/166/197 667/145/198 668/167/199
f 668/167/199 667/145/198 669/134/200
f 669/134/200 670/158/201 668/167/199
f 668/167/199 670/158/201 671/162/202
f 672/29/113 673/31/107 674/28/203
f 673/31/107 672/29/113 675/31/99
f 676/30/99 675/31/99 672/29/113
f 675/31/99 676/30/99 677/31/99
f 678/31/116 679/31/92 680/29/116
f 678/31/116 680/29/116 681/28/115
f 679/31/92 682/30/92 680/29/116
f 682/30/92 679/31/92 683/31/92
f 684/16/204 685/16/205 686/21/204
f 686/21/204 687/21/204 684/16/204
f 688/39/92 689/39/92 690/40/92
f 688/39/92 690/40/92 691/40/92
f 692/39/99 693/39/99 694/40/99
f 692/39/99 694/40/99 695/40/99
f 696/70/206 697/119/206 698/119/206
f 697/119/206 696/70/206 699/70/206
f 700/3/99 701/104/99 702/168/99
f 701/104/99 700/3/99 703/5/99
f 704/5/92 705/168/92 706/104/92
f 705/168/92 704/5/92 707/3/92
f 708/126/207 709/125/208 710/125/208
f 709/125/208 708/126/207 711/126/207
f 712/127/209 711/126/207 708/126/207
f 711/126/207 712/127/209 713/127/209
f 714/128/210 713/127/209 712/127/209
f 713/127/209 714/128/210 715/128/210
f 716/76/4 717/76/4 718/86/4
f 718/86/4 717/76/4 719/86/4
f 720/141/64 721/72/64 722/72/64
f 720/141/64 722/72/64 723/141/64
f 724/116/211 725/128/212 726/128/213
f 725/128/212 724/116/211 727/116/211
f 728/117/214 727/116/211 724/116/211
f 727/116/211 728/117/214 729/117/214
f 730/118/215 729/117/214 728/117/214
f 729/117/214 730/118/215 731/118/215
f 732/119/61 731/118/215 730/118/215
f 731/118/215 732/119/61 733/119/60
f 734/15/99 735/14/99 736/18/99
f 736/18/99 735/14/99 737/106/99
f 736/18/99 737/106/99 738/105/99
f 738/105/99 739/19/99 736/18/99
f 738/105/99 740/13/216 739/19/99
f 739/19/99 740/13/216 741/11/99
f 742/12/99 739/19/99 741/11/99
f 738/105/99 743/45/109 740/13/216
f 743/45/109 738/105/99 744/108/99
f 743/45/109 744/108/99 745/53/99
f 745/53/99 746/44/99 743/45/109
f 746/44/99 745/53/99 747/43/99
f 744/108/99 748/52/99 745/53/99
f 744/108/99 749/51/99 748/52/99
f 750/15/92 751/18/92 752/106/92
f 753/14/92 750/15/92 752/106/92
f 754/105/92 752/106/92 751/18/92
f 754/105/92 751/18/92 755/19/92
f 756/13/92 754/105/92 755/19/92
f 756/13/92 755/19/92 757/11/92
f 755/19/92 758/12/92 757/11/92
f 759/45/92 754/105/92 756/13/92
f 754/105/92 759/45/92 760/108/92
f 760/108/92 759/45/92 761/53/92
f 762/44/92 761/53/92 759/45/92
f 763/43/92 761/53/92 762/44/92
f 760/108/92 761/53/92 764/52/92
f 760/108/92 764/52/92 765/51/92
f 766/169/217 767/7/217 768/140/217
f 767/7/217 769/6/217 768/140/217
f 770/140/218 771/6/219 772/169/218
f 771/6/219 773/7/218 772/169/218
f 774/120/220 775/97/221 776/97/222
f 775/97/221 774/120/220 777/120/220
f 778/121/223 777/120/220 774/120/220
f 777/120/220 778/121/223 779/121/223
f 780/122/224 779/121/223 778/121/223
f 779/121/223 780/122/224 781/122/224
f 782/123/225 781/122/224 780/122/224
f 781/122/224 782/123/225 783/123/225
f 784/148/226 785/148/227 786/147/228
f 786/147/228 787/147/228 784/148/226
f 788/149/229 787/147/228 786/147/228
f 787/147/228 788/149/229 789/149/229
f 790/150/230 789/149/229 788/149/229
f 789/149/229 790/150/230 791/150/230
f 792/151/231 791/150/230 790/150/230
f 791/150/230 792/151/231 793/151/231
f 794/152/232 793/151/231 792/151/231
f 793/151/231 794/152/232 795/152/232
f 796/153/233 795/152/232 794/152/232
f 795/152/232 796/153/233 797/153/234
f 798/154/235 797/153/234 796/153/233
f 797/153/234 798/154/235 799/154/236
f 800/155/237 799/154/236 798/154/235
f 799/154/236 800/155/237 801/155/237
f 802/156/238 801/155/237 800/155/237
f 801/155/237 802/156/238 803/156/238
f 804/157/239 803/156/238 802/156/238
f 803/156/238 804/157/239 805/157/239
f 806/138/240 805/157/239 804/157/239
f 805/157/239 806/138/240 807/138/240
f 808/141/241 809/142/242 810/142/242
f 809/142/242 808/141/241 811/141/242
f 812/105/9 813/106/9 814/106/9
f 815/14/9 814/106/9 813/106/9
f 814/106/9 815/14/9 816/14/9
f 812/105/9 814/106/9 817/105/9
f 817/105/9 818/108/9 812/105/9
f 819/108/9 812/105/9 818/108/9
f 818/108/9 820/51/9 819/108/9
f 821/51/9 819/108/9 820/51/9
f 822/106/9 823/105/9 824/105/9
f 823/105/9 822/106/9 825/106/9
f 826/14/9 825/106/9 822/106/9
f 825/106/9 826/14/9 827/14/9
f 823/105/9 828/108/9 824/105/9
f 829/108/9 824/105/9 828/108/9
f 828/108/9 830/51/9 829/108/9
f 831/51/9 829/108/9 830/51/9
f 832/87/31 833/87/31 834/75/31
f 834/75/31 833/87/31 835/75/31
f 836/169/9 837/7/9 838/169/9
f 837/7/9 839/7/9 838/169/9
f 840/4/218 841/168/218 842/170/218
f 841/168/218 840/4/218 843/3/243
f 844/3/244 845/170/217 846/168/245
f 845/170/217 844/3/244 847/4/244
f 848/124/246 849/123/247 850/123/247
f 849/123/247 848/124/246 851/124/247
f 852/43/9 853/53/9 854/43/9
f 853/53/9 855/53/9 854/43/9
f 856/43/9 857/53/9 858/43/9
f 857/53/9 859/53/9 858/43/9
f 860/19/9 861/19/9 862/12/9
f 860/19/9 862/12/9 863/12/9
f 864/19/9 865/12/9 866/19/9
f 865/12/9 864/19/9 867/12/9
f 868/50/9 869/50/9 870/54/9
f 870/54/9 871/54/9 868/50/9
f 872/4/9 873/170/9 874/170/9
f 873/170/9 872/4/9 875/4/9
f 876/131/4 877/37/4 878/37/4
f 877/37/4 876/131/4 879/131/4
f 880/13/9 881/45/9 882/13/9
f 883/45/9 882/13/9 881/45/9
f 884/40/248 885/39/248 886/39/248
f 885/39/248 884/40/248 887/40/248
f 888/40/248 889/39/248 890/39/248
f 889/39/248 888/40/248 891/40/248
f 892/96/4 893/55/4 894/55/4
f 893/55/4 892/96/4 895/96/4
f 896/129/64 897/129/64 898/38/64
f 896/129/64 898/38/64 899/38/64
f 897/129/64 896/129/64 900/71/64
f 897/129/64 900/71/64 901/71/64
f 896/129/64 902/142/64 900/71/64
f 903/142/64 897/129/64 901/71/64
f 896/129/64 904/130/64 902/142/64
f 904/130/64 903/142/64 902/142/64
f 897/129/64 903/142/64 905/130/64
f 903/142/64 904/130/64 905/130/64
f 905/130/64 904/130/64 906/131/64
f 905/130/64 906/131/64 907/131/64
f 908/28/31 909/31/31 910/28/31
f 909/31/31 911/31/31 910/28/31
