# Blender 5.1.2
# www.blender.org
mtllib SpringJuice.mtl
o SpringJuice
v 0.579923 -0.567388 1.004692
v 0.579923 -0.828938 -0.564510
v 0.579923 -0.567388 -0.564510
v 0.579923 -0.828938 1.004692
v 0.345912 -0.001028 -0.564510
v 0.345912 -0.001028 1.004692
v 0.345912 -0.567388 1.004692
v 0.345912 -0.567388 -0.564510
v 0.334402 0.071682 -0.564510
v 0.334402 0.071683 1.004692
v 0.300982 0.137282 -0.564510
v 0.300982 0.137272 1.004692
v 0.248922 0.189332 -0.564510
v 0.248922 0.189333 1.004692
v -0.152828 0.362602 -0.419708
v -0.152828 0.172312 -0.419708
v -0.110718 0.172312 -0.377609
v -0.110718 0.362602 -0.377609
v -0.095307 0.172312 -0.320110
v -0.095307 0.362602 -0.320110
v -0.110718 0.172312 -0.262608
v -0.110718 0.362602 -0.262608
v -0.152828 0.172312 -0.220509
v -0.152828 0.362602 -0.220509
v -0.310018 0.362602 -0.262608
v -0.210348 0.362602 -0.205109
v -0.110718 0.362602 -0.262608
v -0.152828 0.362602 -0.220509
v -0.267817 0.362602 -0.220509
v -0.210348 0.362602 -0.435207
v -0.095307 0.362602 -0.320110
v -0.110718 0.362602 -0.377609
v -0.152828 0.362602 -0.419708
v -0.310018 0.362602 -0.377609
v -0.325418 0.362602 -0.320110
v -0.267817 0.362602 -0.419708
v 0.248922 0.189332 -0.564510
v 0.248922 0.189333 1.004692
v 0.183332 0.222752 -0.564510
v 0.183332 0.222752 1.004692
v 0.110622 0.234272 -0.564510
v 0.110622 0.234273 1.004692
v 0.183332 0.222752 1.004692
v 0.183332 0.222752 -0.564510
v 0.110622 0.234272 -0.564510
v -0.435118 0.234273 1.004692
v 0.110622 0.234273 1.004692
v -0.435118 0.234272 -0.564510
v 0.579923 -0.567388 1.004692
v 0.579923 -0.567388 -0.564510
v 0.345912 -0.567388 1.004692
v 0.345912 -0.567388 -0.564510
v 0.345912 -0.567388 1.004692
v 0.579923 -0.828938 1.004692
v 0.579923 -0.567388 1.004692
v -0.435118 -0.828938 1.004692
v -0.435118 -0.567388 1.004692
v 0.345912 -0.001028 1.004692
v 0.110622 0.234273 1.004692
v -0.435118 0.234273 1.004692
v 0.334402 0.071683 1.004692
v 0.248922 0.189333 1.004692
v 0.183332 0.222752 1.004692
v 0.300982 0.137272 1.004692
v -0.152828 0.172312 -0.220509
v -0.152828 0.362602 -0.220509
v -0.210348 0.172312 -0.205109
v -0.210348 0.362602 -0.205109
v -0.267817 0.362602 -0.220509
v -0.267817 0.172312 -0.220509
v -0.435118 -0.567388 -0.564510
v -0.435118 -0.828938 1.004692
v -0.435118 -0.567388 1.004692
v -0.435118 -0.828938 -0.564510
v -0.435118 0.234273 1.004692
v -0.435118 0.234272 -0.564510
v -0.267817 0.362602 -0.419708
v -0.267817 0.172312 -0.419708
v -0.310018 0.362602 -0.377609
v -0.310018 0.172312 -0.377609
v -0.325418 0.362602 -0.320110
v -0.325418 0.172312 -0.320110
v -0.310018 0.362602 -0.262608
v -0.310018 0.172312 -0.262608
v -0.267817 0.362602 -0.220509
v -0.267817 0.172312 -0.220509
v -0.435118 -0.828938 -0.564510
v 0.579923 -0.828938 -0.564510
v 0.579923 -0.828938 1.004692
v -0.435118 -0.828938 1.004692
v 0.345912 -0.567388 -0.564510
v -0.435118 -0.828938 -0.564510
v -0.435118 -0.567388 -0.564510
v 0.579923 -0.828938 -0.564510
v 0.579923 -0.567388 -0.564510
v 0.345912 -0.001028 -0.564510
v 0.110622 0.234272 -0.564510
v -0.435118 0.234272 -0.564510
v 0.334402 0.071682 -0.564510
v 0.248922 0.189332 -0.564510
v 0.300982 0.137282 -0.564510
v 0.183332 0.222752 -0.564510
v -0.152828 0.362602 -0.419708
v -0.152828 0.172312 -0.419708
v -0.210348 0.362602 -0.435207
v -0.210348 0.172312 -0.435207
v -0.267817 0.362602 -0.419708
v -0.267817 0.172312 -0.419708
vn 1.0000 -0.0000 -0.0000
vn 0.9969 0.0784 -0.0000
vn 0.9518 0.3068 -0.0000
vn 0.8084 0.5887 -0.0000
vn 0.5887 0.8084 -0.0000
vn 0.4970 -0.0000 -0.8677
vn 0.8678 -0.0000 -0.4970
vn 0.8677 -0.0000 -0.4970
vn 0.8678 -0.0000 0.4970
vn 0.8677 -0.0000 0.4970
vn 0.5029 -0.0000 0.8643
vn -0.0000 1.0000 -0.0000
vn 0.5886 0.8084 -0.0000
vn 0.3068 0.9518 -0.0000
vn 0.0785 0.9969 -0.0000
vn -0.0000 -0.0000 1.0000
vn 0.0001 -0.0000 1.0000
vn 0.0002 -0.0000 1.0000
vn 0.5029 -0.0000 0.8644
vn -0.0001 -0.0000 1.0000
vn -0.0002 -0.0000 1.0000
vn -0.5028 -0.0000 0.8644
vn -1.0000 -0.0000 -0.0000
vn -0.4970 -0.0000 -0.8677
vn -0.8644 -0.0000 -0.5029
vn -0.8677 -0.0000 0.4970
vn -0.8678 -0.0000 0.4970
vn -0.5029 -0.0001 0.8643
vn -0.5029 -0.0000 0.8643
vn -0.0000 -1.0000 -0.0000
vn -0.0000 -0.0000 -1.0000
vn -0.0001 -0.0000 -1.0000
vn 0.4970 -0.0000 -0.8678
vn -0.0002 -0.0000 -1.0000
vn -0.4969 -0.0000 -0.8678
vt -1.847210 -0.694351
vt 0.192763 -1.034360
vt 0.192763 -0.694351
vt -1.847210 -1.034360
vt 0.192763 0.041925
vt -1.847210 0.041925
vt 0.192763 0.136449
vt -1.847210 0.136448
vt 0.192763 0.221719
vt -1.847210 0.221719
vt 0.192763 0.289390
vt -1.847210 0.289390
vt 0.004540 0.514647
vt -0.050200 0.267269
vt 0.004540 0.267269
vt -0.050200 0.514647
vt -0.124977 0.267269
vt -0.124977 0.514647
vt -0.199754 0.267269
vt -0.199754 0.514647
vt -0.254495 0.267269
vt -0.254495 0.514647
vt -0.330131 -0.887329
vt -0.459648 -0.812551
vt -0.589165 -0.887329
vt -0.534425 -0.832587
vt -0.384871 -0.832587
vt -0.459648 -1.111660
vt -0.609201 -0.962105
vt -0.589165 -1.036880
vt -0.534425 -1.091620
vt -0.330131 -1.036880
vt -0.310095 -0.962105
vt -0.384871 -1.091620
vt -1.056700 0.760132
vt -1.056700 -1.279840
vt -0.971426 -1.279840
vt -0.971426 0.760132
vt -0.876903 -1.279840
vt -0.876903 0.760132
vt -0.167455 0.760132
vt -0.167455 -1.279840
vt -1.487000 0.760132
vt -1.487000 -1.279840
vt -1.182790 0.760132
vt -1.182790 -1.279840
vt -0.471666 -0.694351
vt -0.167455 -1.034360
vt -0.167455 -0.694351
vt -1.487000 -1.034360
vt -1.487000 -0.694351
vt -0.471666 0.041925
vt -0.777549 0.347809
vt -1.487000 0.347809
vt -0.486637 0.136448
vt -0.597755 0.289390
vt -0.683026 0.332838
vt -0.530084 0.221719
vt -1.120030 0.514647
vt -1.194800 0.267269
vt -1.120030 0.267269
vt -1.194800 0.514647
vt -1.269580 0.267269
vt -1.269580 0.514647
vt -1.847220 -0.694351
vt 0.192762 -1.034360
vt 0.192762 -0.694351
vt -1.847220 -1.034360
vt 0.192762 0.347809
vt -1.847220 0.347809
vt -1.658990 0.514647
vt -1.658990 0.267269
vt -1.604250 0.514647
vt -1.604250 0.267269
vt -1.529480 0.514647
vt -1.529480 0.267269
vt -1.454700 0.514647
vt -1.454700 0.267269
vt -1.399960 0.514647
vt -1.399960 0.267269
vt -1.182790 -0.694351
vt -1.182790 0.041925
vt -0.876903 0.347809
vt -0.167455 0.347809
vt -1.167820 0.136449
vt -1.056700 0.289390
vt -1.124370 0.221719
vt -0.971426 0.332838
vt -0.534425 0.514647
vt -0.534425 0.267269
vt -0.459648 0.514647
vt -0.459648 0.267269
vt -0.384871 0.514647
vt -0.384871 0.267269
s 1
usemtl Springjuice1Mtl
f 1/1/1 2/2/1 3/3/1
f 2/2/1 1/1/1 4/4/1
f 5/5/2 6/6/2 7/1/1
f 5/5/2 7/1/1 8/3/1
f 9/7/3 6/6/2 5/5/2
f 9/7/3 10/8/3 6/6/2
f 11/9/4 10/8/3 9/7/3
f 11/9/4 12/10/4 10/8/3
f 12/10/4 11/9/4 13/11/5
f 13/11/5 14/12/5 12/10/4
f 15/13/6 17/14/7 16/15/6
f 18/16/8 17/14/7 15/13/6
f 18/16/8 19/17/1 17/14/7
f 20/18/1 19/17/1 18/16/8
f 20/18/1 21/19/9 19/17/1
f 22/20/10 21/19/9 20/18/1
f 22/20/10 23/21/11 21/19/9
f 24/22/11 23/21/11 22/20/10
f 25/23/12 26/24/12 27/25/12
f 27/25/12 26/24/12 28/26/12
f 26/24/12 25/23/12 29/27/12
f 30/28/12 25/23/12 27/25/12
f 30/28/12 27/25/12 31/29/12
f 30/28/12 31/29/12 32/30/12
f 30/28/12 32/30/12 33/31/12
f 25/23/12 30/28/12 34/32/12
f 25/23/12 34/32/12 35/33/12
f 34/32/12 30/28/12 36/34/12
f 38/35/13 37/36/13 39/37/14
f 39/37/14 40/38/14 38/35/13
f 41/39/15 42/40/15 43/38/14
f 43/38/14 44/37/14 41/39/15
f 45/39/15 46/41/12 47/40/15
f 46/41/12 45/39/15 48/42/12
f 49/43/12 50/44/12 51/45/12
f 51/45/12 50/44/12 52/46/12
f 53/47/16 54/48/16 55/49/16
f 53/47/16 56/50/16 54/48/16
f 56/50/16 53/47/16 57/51/16
f 58/52/16 57/51/16 53/47/16
f 58/52/16 59/53/16 57/51/16
f 59/53/16 60/54/16 57/51/16
f 61/55/16 59/53/16 58/52/16
f 59/53/16 61/55/16 62/56/16
f 59/53/16 62/56/16 63/57/17
f 62/56/16 61/55/16 64/58/18
f 66/59/19 67/60/20 65/61/19
f 68/62/21 67/60/20 66/59/19
f 68/62/21 70/63/22 67/60/20
f 69/64/22 70/63/22 68/62/21
f 71/65/23 72/66/23 73/67/23
f 72/66/23 71/65/23 74/68/23
f 75/69/23 71/65/23 73/67/23
f 75/69/23 76/70/23 71/65/23
f 77/71/24 78/72/24 79/73/25
f 79/73/25 78/72/24 80/74/25
f 79/73/25 80/74/25 81/75/23
f 81/75/23 80/74/25 82/76/23
f 81/75/23 82/76/23 83/77/26
f 83/77/26 82/76/23 84/78/27
f 83/77/26 84/78/27 85/79/28
f 85/79/28 84/78/27 86/80/29
f 87/44/30 88/42/30 89/41/30
f 87/44/30 89/41/30 90/43/30
f 91/81/31 92/48/31 93/49/31
f 92/48/31 91/81/31 94/50/31
f 95/51/31 94/50/31 91/81/31
f 93/49/31 96/82/31 91/81/31
f 97/83/31 96/82/31 93/49/31
f 97/83/31 93/49/31 98/84/31
f 96/82/31 97/83/31 99/85/31
f 100/86/31 99/85/31 97/83/31
f 99/85/31 100/86/31 101/87/31
f 100/86/31 97/83/31 102/88/32
f 103/89/33 104/90/33 105/91/32
f 105/91/32 104/90/33 106/92/34
f 105/91/32 106/92/34 107/93/35
f 107/93/35 106/92/34 108/94/35
