# Blender 5.1.2
# www.blender.org
mtllib Switch.mtl
o Switch
v 0.298250 0.021802 -1.049101
v 0.238250 -0.128198 -1.109100
v 0.238250 0.021802 -1.109100
v 0.298250 -0.128198 -1.049101
v 0.268250 0.071802 -1.019100
v 0.208250 0.021802 -1.079102
v 0.208250 0.071802 -1.079102
v 0.268250 0.021802 -1.019100
v 0.298250 0.021802 -0.569101
v 0.298250 -0.128198 -1.049101
v 0.298250 0.021802 -1.049101
v 0.298250 -0.128198 -0.569101
v 0.268250 0.071802 -0.599100
v 0.268250 0.021802 -1.019100
v 0.268250 0.071802 -1.019100
v 0.268250 0.021802 -0.599100
v -0.211751 0.071802 -0.539101
v 0.208250 0.071802 -0.539101
v 0.208250 0.071802 -1.079102
v 0.268250 0.071802 -0.599100
v 0.268250 0.071802 -1.019100
v -0.271750 0.071802 -0.599100
v -0.211751 0.071802 -1.079102
v -0.271750 0.071802 -1.019100
v -0.241750 0.021802 -0.509100
v 0.238250 0.021802 -0.509100
v 0.238250 0.021802 -1.109100
v 0.298250 0.021802 -0.569101
v 0.298250 0.021802 -1.049101
v -0.301750 0.021802 -0.569101
v -0.241750 0.021802 -1.109100
v -0.301750 0.021802 -1.049101
v -0.241750 0.021802 -0.509100
v -0.301750 0.021802 -0.569101
v -0.241750 -0.128198 -0.509100
v -0.301750 -0.128198 -0.569101
v 0.298250 0.021802 -0.569101
v 0.238250 0.021802 -0.509100
v 0.298250 -0.128198 -0.569101
v 0.238250 -0.128198 -0.509100
v -0.271750 0.021802 -0.599100
v -0.211751 0.021802 -0.539101
v -0.271750 0.071802 -0.599100
v -0.211751 0.071802 -0.539101
v 0.208250 0.021802 -0.539101
v 0.268250 0.021802 -0.599100
v 0.208250 0.071802 -0.539101
v 0.268250 0.071802 -0.599100
v -0.241750 0.021802 -0.509100
v 0.238250 -0.128198 -0.509100
v 0.238250 0.021802 -0.509100
v -0.241750 -0.128198 -0.509100
v -0.211751 0.071802 -0.539101
v 0.208250 0.021802 -0.539101
v 0.208250 0.071802 -0.539101
v -0.211751 0.021802 -0.539101
v -0.301750 0.021802 -1.049101
v -0.241750 0.021802 -1.109100
v -0.301750 -0.128198 -1.049101
v -0.241750 -0.128198 -1.109100
v -0.211751 0.021802 -1.079102
v -0.271750 0.021802 -1.019100
v -0.211751 0.071802 -1.079102
v -0.271750 0.071802 -1.019100
v -0.301750 0.021802 -1.049101
v -0.301750 -0.128198 -0.569101
v -0.301750 0.021802 -0.569101
v -0.301750 -0.128198 -1.049101
v -0.271750 0.071802 -1.019100
v -0.271750 0.021802 -0.599100
v -0.271750 0.071802 -0.599100
v -0.271750 0.021802 -1.019100
v -0.241750 -0.128198 -1.109100
v 0.238250 -0.128198 -1.109100
v 0.298250 -0.128198 -0.569101
v 0.298250 -0.128198 -1.049101
v 0.238250 -0.128198 -0.509100
v -0.241750 -0.128198 -0.509100
v -0.301750 -0.128198 -0.569101
v -0.301750 -0.128198 -1.049101
v 0.238250 0.021802 -1.109100
v -0.241750 -0.128198 -1.109100
v -0.241750 0.021802 -1.109100
v 0.238250 -0.128198 -1.109100
v 0.208250 0.071802 -1.079102
v -0.211751 0.021802 -1.079102
v -0.211751 0.071802 -1.079102
v 0.208250 0.021802 -1.079102
v 0.210381 0.046802 -0.021301
v 0.210381 -0.103198 -0.021301
v 0.258057 0.046802 0.040899
v 0.258057 -0.103198 0.040899
v 0.288027 0.046802 0.113199
v 0.288027 -0.103198 0.113199
v 0.298249 0.046802 0.190899
v 0.298249 -0.103198 0.190899
v 0.288027 0.046802 0.268499
v 0.288027 -0.103198 0.268499
v 0.258057 0.046802 0.340899
v 0.258057 -0.103198 0.340899
v 0.210382 0.046802 0.403000
v 0.210382 -0.103198 0.403000
v -0.205618 0.046802 0.308599
v -0.160061 0.015152 0.349199
v -0.195640 0.015152 0.302799
v -0.168208 0.046802 0.357300
v -0.218006 0.015152 0.248800
v -0.195640 0.015152 0.302799
v -0.229135 0.046802 0.251799
v -0.205618 0.046802 0.308599
v -0.225635 0.015152 0.190899
v -0.218006 0.015152 0.248800
v -0.237157 0.046802 0.190899
v -0.229135 0.046802 0.251799
v -0.218006 0.015152 0.132900
v -0.225635 0.015152 0.190899
v -0.237157 0.046802 0.190899
v -0.229135 0.046802 0.129900
v -0.195640 0.015152 0.078899
v -0.218006 0.015152 0.132900
v -0.229135 0.046802 0.129900
v -0.205618 0.046802 0.073200
v -0.160061 0.015152 0.032598
v -0.195640 0.015152 0.078899
v -0.205618 0.046802 0.073200
v -0.168208 0.046802 0.024399
v -0.151750 0.046802 -0.068901
v -0.168208 0.046802 0.024399
v -0.119453 0.046802 -0.013000
v -0.213883 0.046802 -0.021301
v -0.205618 0.046802 0.073200
v -0.213883 0.046802 -0.021301
v -0.261558 0.046802 0.040899
v -0.168208 0.046802 0.024399
v -0.001751 0.046802 -0.109100
v -0.062678 0.046802 -0.036501
v -0.001751 0.046802 -0.044500
v -0.079396 0.046802 -0.098900
v -0.062678 0.046802 -0.036501
v -0.151750 0.046802 -0.068901
v -0.119453 0.046802 -0.013000
v -0.079396 0.046802 -0.098900
v -0.291528 0.046802 0.113199
v -0.237157 0.046802 0.190899
v -0.229135 0.046802 0.129900
v -0.301750 0.046802 0.190899
v -0.237157 0.046802 0.190899
v -0.301750 0.046802 0.190899
v -0.291528 0.046802 0.268499
v -0.229135 0.046802 0.251799
v -0.261558 0.046802 0.340899
v -0.205618 0.046802 0.308599
v -0.291528 0.046802 0.268499
v -0.229135 0.046802 0.251799
v -0.291528 0.046802 0.113199
v -0.205618 0.046802 0.073200
v -0.261558 0.046802 0.040899
v -0.229135 0.046802 0.129900
v -0.119454 0.046802 0.394699
v -0.213883 0.046802 0.403000
v -0.151750 0.046802 0.450699
v -0.168208 0.046802 0.357300
v -0.062678 0.046802 0.418299
v -0.151750 0.046802 0.450699
v -0.079396 0.046802 0.480598
v -0.119454 0.046802 0.394699
v -0.001751 0.046802 0.426300
v -0.079396 0.046802 0.480598
v -0.001751 0.046802 0.490900
v -0.079396 0.046802 0.480598
v -0.001751 0.046802 0.426300
v -0.062678 0.046802 0.418299
v -0.168208 0.046802 0.357300
v -0.261558 0.046802 0.340899
v -0.213883 0.046802 0.403000
v -0.205618 0.046802 0.308599
v -0.001751 0.046802 0.490900
v 0.059177 0.046802 0.418299
v -0.001751 0.046802 0.426300
v 0.075895 0.046802 0.480598
v 0.075895 0.046802 0.480598
v 0.115952 0.046802 0.394699
v 0.059177 0.046802 0.418299
v 0.148250 0.046802 0.450699
v 0.115952 0.046802 0.394699
v 0.148250 0.046802 0.450699
v 0.164707 0.046802 0.357300
v 0.210382 0.046802 0.403000
v 0.258057 0.046802 0.340899
v 0.202117 0.046802 0.308599
v 0.210382 0.046802 0.403000
v 0.164707 0.046802 0.357300
v 0.225634 0.046802 0.129900
v 0.258057 0.046802 0.040899
v 0.202117 0.046802 0.073200
v 0.288027 0.046802 0.113199
v 0.258057 0.046802 0.340899
v 0.288027 0.046802 0.268499
v 0.202117 0.046802 0.308599
v 0.225634 0.046802 0.251799
v 0.225634 0.046802 0.251799
v 0.298249 0.046802 0.190899
v 0.233656 0.046802 0.190899
v 0.298249 0.046802 0.190899
v 0.225634 0.046802 0.251799
v 0.288027 0.046802 0.268499
v 0.233656 0.046802 0.190899
v 0.288027 0.046802 0.113199
v 0.225634 0.046802 0.129900
v 0.298249 0.046802 0.190899
v 0.148249 0.046802 -0.068901
v 0.059177 0.046802 -0.036501
v 0.115952 0.046802 -0.013000
v 0.075895 0.046802 -0.098900
v 0.075895 0.046802 -0.098900
v -0.001751 0.046802 -0.109100
v 0.059177 0.046802 -0.036501
v -0.001751 0.046802 -0.044500
v 0.202117 0.046802 0.073200
v 0.210381 0.046802 -0.021301
v 0.164707 0.046802 0.024399
v 0.258057 0.046802 0.040899
v 0.164707 0.046802 0.024399
v 0.210381 0.046802 -0.021301
v 0.115952 0.046802 -0.013000
v 0.148249 0.046802 -0.068901
v 0.068515 -0.050618 0.171999
v 0.131903 -0.036068 0.155100
v 0.061248 -0.050618 0.154499
v -0.001751 -0.055628 0.190899
v 0.118080 -0.036068 0.121700
v 0.182208 -0.013408 0.141600
v 0.163182 -0.013408 0.095600
v 0.214505 0.015152 0.132900
v 0.192139 0.015152 0.078899
v 0.182208 -0.013408 0.141600
v 0.136618 -0.036068 0.190899
v 0.188697 -0.013408 0.190899
v 0.222134 0.015152 0.190899
v 0.131903 -0.036068 0.155100
v 0.214505 0.015152 0.132900
v 0.068515 -0.050618 0.171999
v 0.070994 -0.050618 0.190899
v -0.001751 -0.055628 0.190899
v 0.222134 0.015152 0.190899
v 0.182208 -0.013408 0.240200
v 0.214505 0.015152 0.248800
v 0.188697 -0.013408 0.190899
v 0.136618 -0.036068 0.190899
v 0.131903 -0.036068 0.226700
v 0.068515 -0.050618 0.209700
v 0.070994 -0.050618 0.190899
v -0.001751 -0.055628 0.190899
v -0.001751 -0.055628 0.190899
v 0.061248 -0.050618 0.227200
v 0.068515 -0.050618 0.209700
v 0.131903 -0.036068 0.226700
v 0.118080 -0.036068 0.260099
v 0.182208 -0.013408 0.240200
v 0.163182 -0.013408 0.286098
v 0.214505 0.015152 0.248800
v 0.192139 0.015152 0.302799
v 0.156560 0.015152 0.349199
v 0.192139 0.015152 0.302799
v 0.163182 -0.013408 0.286098
v 0.132916 -0.013408 0.325499
v 0.096091 -0.036068 0.288700
v 0.118080 -0.036068 0.260099
v 0.049687 -0.050618 0.242300
v 0.061248 -0.050618 0.227200
v -0.001751 -0.055628 0.190899
v 0.034622 -0.050618 0.253899
v 0.096091 -0.036068 0.288700
v 0.049687 -0.050618 0.242300
v -0.001751 -0.055628 0.190899
v 0.067434 -0.036068 0.310699
v 0.093473 -0.013408 0.355799
v 0.132916 -0.013408 0.325499
v 0.110192 0.015152 0.384800
v 0.156560 0.015152 0.349199
v 0.034062 -0.036068 0.324499
v 0.093473 -0.013408 0.355799
v 0.067434 -0.036068 0.310699
v 0.034622 -0.050618 0.253899
v 0.017077 -0.050618 0.261099
v -0.001751 -0.055628 0.190899
v 0.047541 -0.013408 0.374800
v 0.056195 0.015152 0.407099
v 0.110192 0.015152 0.384800
v -0.051042 -0.013408 0.374800
v -0.001751 0.015152 0.414799
v -0.001751 -0.013408 0.381300
v -0.059696 0.015152 0.407099
v -0.037563 -0.036068 0.324499
v -0.001751 -0.036068 0.329199
v -0.020578 -0.050618 0.261099
v -0.001751 -0.050618 0.263599
v -0.001751 -0.055628 0.190899
v -0.051042 -0.013408 0.374800
v -0.096974 -0.013408 0.355799
v -0.113693 0.015152 0.384800
v -0.070935 -0.036068 0.310699
v -0.059696 0.015152 0.407099
v -0.037563 -0.036068 0.324499
v -0.038123 -0.050618 0.253899
v -0.020578 -0.050618 0.261099
v -0.001751 -0.055628 0.190899
v -0.001751 -0.055628 0.190899
v -0.053189 -0.050618 0.242300
v -0.038123 -0.050618 0.253899
v -0.099592 -0.036068 0.288700
v -0.070935 -0.036068 0.310699
v -0.096974 -0.013408 0.355799
v -0.136417 -0.013408 0.325499
v -0.113693 0.015152 0.384800
v -0.160061 0.015152 0.349199
v -0.160061 0.015152 0.349199
v -0.195640 0.015152 0.302799
v -0.166683 -0.013408 0.286098
v -0.136417 -0.013408 0.325499
v -0.099592 -0.036068 0.288700
v -0.121581 -0.036068 0.260099
v -0.053189 -0.050618 0.242300
v -0.064749 -0.050618 0.227200
v -0.001751 -0.055628 0.190899
v -0.121581 -0.036068 0.260099
v -0.072016 -0.050618 0.209700
v -0.135404 -0.036068 0.226700
v -0.064749 -0.050618 0.227200
v -0.001751 -0.055628 0.190899
v -0.166683 -0.013408 0.286098
v -0.185709 -0.013408 0.240200
v -0.218006 0.015152 0.248800
v -0.195640 0.015152 0.302799
v -0.070935 -0.036068 0.070999
v -0.038123 -0.050618 0.127899
v -0.037563 -0.036068 0.057199
v -0.020578 -0.050618 0.120600
v -0.001751 -0.055628 0.190899
v -0.051042 -0.013408 0.006899
v -0.096974 -0.013408 0.025900
v -0.113693 0.015152 -0.003000
v -0.059696 0.015152 -0.025400
v -0.001751 -0.013408 0.000399
v -0.051042 -0.013408 0.006899
v -0.037563 -0.036068 0.057199
v -0.059696 0.015152 -0.025400
v -0.001751 -0.036068 0.052500
v -0.001751 0.015152 -0.033001
v -0.020578 -0.050618 0.120600
v -0.001751 -0.050618 0.118099
v -0.001751 -0.055628 0.190899
v -0.001751 -0.013408 0.000399
v 0.034062 -0.036068 0.057199
v 0.047541 -0.013408 0.006899
v 0.056195 0.015152 -0.025400
v -0.001751 -0.036068 0.052500
v -0.001751 0.015152 -0.033001
v 0.017077 -0.050618 0.120600
v -0.001751 -0.050618 0.118099
v -0.001751 -0.055628 0.190899
v -0.001751 -0.055628 0.190899
v 0.034622 -0.050618 0.127899
v 0.017077 -0.050618 0.120600
v 0.034062 -0.036068 0.057199
v 0.067434 -0.036068 0.070999
v 0.047541 -0.013408 0.006899
v 0.093473 -0.013408 0.025900
v 0.056195 0.015152 -0.025400
v 0.110192 0.015152 -0.003000
v 0.156560 0.015152 0.032598
v 0.110192 0.015152 -0.003000
v 0.132916 -0.013408 0.056200
v 0.093473 -0.013408 0.025900
v 0.067434 -0.036068 0.070999
v 0.096091 -0.036068 0.092999
v 0.034622 -0.050618 0.127899
v 0.049687 -0.050618 0.139399
v -0.001751 -0.055628 0.190899
v 0.061248 -0.050618 0.154499
v 0.096091 -0.036068 0.092999
v 0.049687 -0.050618 0.139399
v -0.001751 -0.055628 0.190899
v 0.118080 -0.036068 0.121700
v 0.132916 -0.013408 0.056200
v 0.163182 -0.013408 0.095600
v 0.156560 0.015152 0.032598
v 0.192139 0.015152 0.078899
v -0.001751 -0.013408 0.381300
v 0.034062 -0.036068 0.324499
v -0.001751 -0.036068 0.329199
v 0.047541 -0.013408 0.374800
v 0.017077 -0.050618 0.261099
v -0.001751 -0.050618 0.263599
v -0.001751 -0.055628 0.190899
v -0.001751 0.015152 0.414799
v 0.056195 0.015152 0.407099
v -0.192198 -0.013408 0.190899
v -0.135404 -0.036068 0.226700
v -0.140119 -0.036068 0.190899
v -0.074495 -0.050618 0.190899
v -0.072016 -0.050618 0.209700
v -0.001751 -0.055628 0.190899
v -0.185709 -0.013408 0.240200
v -0.225635 0.015152 0.190899
v -0.218006 0.015152 0.248800
v -0.185709 -0.013408 0.141600
v -0.140119 -0.036068 0.190899
v -0.135404 -0.036068 0.155100
v -0.192198 -0.013408 0.190899
v -0.074495 -0.050618 0.190899
v -0.072016 -0.050618 0.171999
v -0.001751 -0.055628 0.190899
v -0.218006 0.015152 0.132900
v -0.225635 0.015152 0.190899
v -0.195640 0.015152 0.078899
v -0.185709 -0.013408 0.141600
v -0.166683 -0.013408 0.095600
v -0.121581 -0.036068 0.121700
v -0.218006 0.015152 0.132900
v -0.135404 -0.036068 0.155100
v -0.064749 -0.050618 0.154499
v -0.072016 -0.050618 0.171999
v -0.001751 -0.055628 0.190899
v -0.001751 -0.055628 0.190899
v -0.053189 -0.050618 0.139399
v -0.064749 -0.050618 0.154499
v -0.099592 -0.036068 0.092999
v -0.121581 -0.036068 0.121700
v -0.166683 -0.013408 0.095600
v -0.136417 -0.013408 0.056200
v -0.160061 0.015152 0.032598
v -0.195640 0.015152 0.078899
v -0.038123 -0.050618 0.127899
v -0.099592 -0.036068 0.092999
v -0.053189 -0.050618 0.139399
v -0.001751 -0.055628 0.190899
v -0.070935 -0.036068 0.070999
v -0.136417 -0.013408 0.056200
v -0.096974 -0.013408 0.025900
v -0.113693 0.015152 -0.003000
v -0.160061 0.015152 0.032598
v -0.079396 -0.103198 0.480598
v -0.001751 -0.103198 0.490900
v -0.079396 0.046802 0.480598
v -0.001751 0.046802 0.490900
v -0.151750 0.046802 0.450699
v -0.151750 -0.103198 0.450699
v -0.213883 0.046802 0.403000
v -0.213883 -0.103198 0.403000
v 0.210382 0.046802 0.403000
v 0.210382 -0.103198 0.403000
v 0.148250 0.046802 0.450699
v 0.148250 -0.103198 0.450699
v 0.075895 0.046802 0.480598
v 0.075895 -0.103198 0.480598
v -0.001751 0.046802 0.490900
v -0.001751 -0.103198 0.490900
v -0.113693 0.015152 -0.003000
v -0.059696 0.015152 -0.025400
v -0.062678 0.046802 -0.036501
v -0.119453 0.046802 -0.013000
v -0.059696 0.015152 -0.025400
v -0.001751 0.015152 -0.033001
v -0.001751 0.046802 -0.044500
v -0.062678 0.046802 -0.036501
v 0.056195 0.015152 -0.025400
v -0.001751 0.015152 -0.033001
v -0.001751 0.046802 -0.044500
v 0.059177 0.046802 -0.036501
v 0.056195 0.015152 -0.025400
v 0.110192 0.015152 -0.003000
v 0.059177 0.046802 -0.036501
v 0.115952 0.046802 -0.013000
v 0.156560 0.015152 0.032598
v 0.115952 0.046802 -0.013000
v 0.110192 0.015152 -0.003000
v 0.164707 0.046802 0.024399
v -0.113693 0.015152 -0.003000
v -0.160061 0.015152 0.032598
v -0.119453 0.046802 -0.013000
v -0.168208 0.046802 0.024399
v -0.213883 0.046802 0.403000
v -0.213883 -0.103198 0.403000
v -0.261558 0.046802 0.340899
v -0.261558 -0.103198 0.340899
v -0.291528 0.046802 0.268499
v -0.291528 -0.103198 0.268499
v -0.301750 0.046802 0.190899
v -0.301750 -0.103198 0.190899
v -0.291528 0.046802 0.113199
v -0.291528 -0.103198 0.113199
v -0.261558 0.046802 0.040899
v -0.261558 -0.103198 0.040899
v -0.213883 0.046802 -0.021301
v -0.213883 -0.103198 -0.021301
v 0.214505 0.015152 0.132900
v 0.192139 0.015152 0.078899
v 0.225634 0.046802 0.129900
v 0.202117 0.046802 0.073200
v 0.222134 0.015152 0.190899
v 0.214505 0.015152 0.132900
v 0.233656 0.046802 0.190899
v 0.225634 0.046802 0.129900
v 0.222134 0.015152 0.190899
v 0.214505 0.015152 0.248800
v 0.233656 0.046802 0.190899
v 0.225634 0.046802 0.251799
v 0.214505 0.015152 0.248800
v 0.192139 0.015152 0.302799
v 0.225634 0.046802 0.251799
v 0.202117 0.046802 0.308599
v 0.202117 0.046802 0.308599
v 0.156560 0.015152 0.349199
v 0.164707 0.046802 0.357300
v 0.192139 0.015152 0.302799
v 0.156560 0.015152 0.032598
v 0.192139 0.015152 0.078899
v 0.202117 0.046802 0.073200
v 0.164707 0.046802 0.024399
v 0.210381 -0.103198 -0.021301
v -0.261558 -0.103198 0.340899
v -0.151750 -0.103198 -0.068901
v 0.075895 -0.103198 -0.098900
v 0.148249 -0.103198 -0.068901
v -0.001751 -0.103198 -0.109100
v -0.079396 -0.103198 -0.098900
v 0.210382 -0.103198 0.403000
v 0.258057 -0.103198 0.040899
v -0.301750 -0.103198 0.190899
v -0.291528 -0.103198 0.268499
v -0.291528 -0.103198 0.113199
v -0.213883 -0.103198 -0.021301
v -0.261558 -0.103198 0.040899
v 0.298249 -0.103198 0.190899
v 0.288027 -0.103198 0.113199
v 0.258057 -0.103198 0.340899
v 0.288027 -0.103198 0.268499
v -0.151750 -0.103198 0.450699
v -0.213883 -0.103198 0.403000
v -0.001751 -0.103198 0.490900
v -0.079396 -0.103198 0.480598
v 0.148250 -0.103198 0.450699
v 0.075895 -0.103198 0.480598
v -0.213883 0.046802 -0.021301
v -0.213883 -0.103198 -0.021301
v -0.151750 0.046802 -0.068901
v -0.151750 -0.103198 -0.068901
v -0.079396 0.046802 -0.098900
v -0.079396 -0.103198 -0.098900
v -0.001751 0.046802 -0.109100
v -0.001751 -0.103198 -0.109100
v 0.075895 0.046802 -0.098900
v 0.075895 -0.103198 -0.098900
v 0.148249 0.046802 -0.068901
v 0.148249 -0.103198 -0.068901
v 0.210381 0.046802 -0.021301
v 0.210381 -0.103198 -0.021301
v 0.110192 0.015152 0.384800
v 0.156560 0.015152 0.349199
v 0.115952 0.046802 0.394699
v 0.164707 0.046802 0.357300
v 0.056195 0.015152 0.407099
v 0.110192 0.015152 0.384800
v 0.059177 0.046802 0.418299
v 0.115952 0.046802 0.394699
v -0.001751 0.015152 0.414799
v -0.059696 0.015152 0.407099
v -0.001751 0.046802 0.426300
v -0.062678 0.046802 0.418299
v -0.113693 0.015152 0.384800
v -0.059696 0.015152 0.407099
v -0.062678 0.046802 0.418299
v -0.119454 0.046802 0.394699
v -0.113693 0.015152 0.384800
v -0.160061 0.015152 0.349199
v -0.119454 0.046802 0.394699
v -0.168208 0.046802 0.357300
v -0.001751 0.015152 0.414799
v 0.056195 0.015152 0.407099
v -0.001751 0.046802 0.426300
v 0.059177 0.046802 0.418299
v 0.256946 0.128732 -1.033100
v 0.256946 0.128732 -0.585100
v 0.217484 -0.074278 -1.033100
v 0.217484 -0.074278 -0.585100
v -0.222285 0.011202 -0.585100
v 0.217484 -0.074278 -0.585100
v 0.025534 0.112172 -0.585100
v -0.182823 0.214222 -0.585100
v 0.256946 0.128732 -0.585100
v -0.222285 0.011202 -1.033100
v -0.222285 0.011202 -0.585100
v -0.182823 0.214222 -1.033100
v -0.182823 0.214222 -0.585100
v 0.025534 0.112172 -1.033100
v -0.222285 0.011202 -1.033100
v -0.182823 0.214222 -1.033100
v 0.217484 -0.074278 -1.033100
v 0.256946 0.128732 -1.033100
v -0.222285 0.011202 -1.033100
v 0.217484 -0.074278 -1.033100
v 0.217484 -0.074278 -0.585100
v -0.222285 0.011202 -0.585100
v 0.025534 0.112172 -1.033100
v 0.025534 0.112172 -0.585100
v 0.256946 0.128732 -1.033100
v 0.256946 0.128732 -0.585100
v -0.182823 0.214222 -1.033100
v -0.182823 0.214222 -0.585100
v 0.025534 0.112172 -1.033100
v 0.025534 0.112172 -0.585100
vn 0.7071 -0.0000 -0.7071
vn 1.0000 -0.0000 -0.0000
vn -0.0000 1.0000 -0.0000
vn -0.7071 -0.0000 0.7071
vn 0.7071 -0.0000 0.7071
vn -0.0000 -0.0000 1.0000
vn -0.7071 -0.0000 -0.7071
vn -1.0000 -0.0000 -0.0000
vn -0.0000 -1.0000 -0.0000
vn -0.0000 -0.0000 -1.0000
vn 0.8643 -0.0000 -0.5029
vn 0.9658 -0.0000 -0.2592
vn 0.9659 -0.0000 -0.2589
vn 1.0000 -0.0000 0.0001
vn 0.9658 -0.0000 0.2592
vn 0.8644 -0.0000 0.5029
vn 0.8128 0.3393 -0.4735
vn 0.5928 0.5452 -0.5927
vn 0.7266 0.5449 -0.4186
vn 0.6649 0.3404 -0.6649
vn 0.9082 0.3396 -0.2448
vn 0.8104 0.5428 -0.2203
vn 0.8128 0.3393 -0.4734
vn 0.9405 0.3398 -0.0000
vn 0.8381 0.5455 -0.0000
vn 0.8104 0.5429 0.2203
vn 0.9082 0.3396 0.2448
vn 0.7266 0.5449 0.4185
vn 0.8104 0.5428 0.2203
vn 0.8128 0.3393 0.4734
vn 0.5928 0.5453 0.5927
vn 0.8128 0.3393 0.4735
vn 0.7266 0.5449 0.4186
vn 0.6649 0.3404 0.6649
vn -0.1413 0.9892 0.0393
vn -0.3081 0.9481 0.0790
vn -0.1256 0.9896 0.0707
vn -0.2765 0.9479 0.1580
vn -0.5254 0.8391 0.1412
vn -0.4713 0.8405 0.2671
vn -0.8104 0.5429 0.2203
vn -0.7265 0.5450 0.4185
vn -0.5254 0.8391 0.1411
vn -0.3162 0.9487 -0.0000
vn -0.5419 0.8404 -0.0000
vn -0.8381 0.5456 -0.0000
vn -0.1491 0.9888 -0.0000
vn -0.5254 0.8391 -0.1411
vn -0.8104 0.5429 -0.2203
vn -0.3081 0.9481 -0.0790
vn -0.1413 0.9892 -0.0393
vn -0.1257 0.9896 -0.0707
vn -0.2765 0.9479 -0.1580
vn -0.5254 0.8391 -0.1412
vn -0.4713 0.8405 -0.2671
vn -0.7265 0.5450 -0.4185
vn -0.5927 0.5454 -0.5927
vn -0.7265 0.5449 -0.4186
vn -0.3844 0.8394 -0.3843
vn -0.2287 0.9463 -0.2287
vn -0.1021 0.9895 -0.1021
vn -0.0707 0.9896 -0.1257
vn -0.1580 0.9479 -0.2765
vn -0.2671 0.8405 -0.4713
vn -0.3843 0.8394 -0.3844
vn -0.4185 0.5450 -0.7265
vn -0.5927 0.5453 -0.5927
vn -0.0790 0.9481 -0.3081
vn -0.0393 0.9892 -0.1413
vn -0.1412 0.8391 -0.5254
vn -0.2203 0.5429 -0.8104
vn 0.1411 0.8391 -0.5254
vn -0.0000 0.5456 -0.8381
vn -0.0000 0.8404 -0.5419
vn 0.2203 0.5429 -0.8104
vn 0.0790 0.9481 -0.3081
vn -0.0000 0.9487 -0.3162
vn 0.0392 0.9892 -0.1413
vn -0.0000 0.9888 -0.1491
vn 0.1412 0.8391 -0.5254
vn 0.2671 0.8405 -0.4713
vn 0.4185 0.5450 -0.7265
vn 0.1580 0.9479 -0.2765
vn 0.0707 0.9896 -0.1257
vn 0.0393 0.9892 -0.1413
vn 0.1021 0.9895 -0.1021
vn 0.2287 0.9463 -0.2287
vn 0.3843 0.8394 -0.3844
vn 0.4186 0.5450 -0.7265
vn 0.5927 0.5453 -0.5927
vn 0.5927 0.5454 -0.5927
vn 0.4713 0.8405 -0.2671
vn 0.7265 0.5449 -0.4185
vn 0.3844 0.8394 -0.3843
vn 0.2765 0.9479 -0.1580
vn 0.1257 0.9896 -0.0707
vn 0.1413 0.9892 -0.0393
vn 0.3081 0.9481 -0.0790
vn 0.1256 0.9896 -0.0707
vn 0.5254 0.8391 -0.1412
vn 0.8104 0.5429 -0.2203
vn 0.7265 0.5450 -0.4185
vn 0.1580 0.9479 0.2765
vn 0.0707 0.9896 0.1257
vn 0.0790 0.9481 0.3081
vn 0.0392 0.9892 0.1413
vn 0.1412 0.8391 0.5254
vn 0.2671 0.8405 0.4713
vn 0.4185 0.5449 0.7265
vn 0.2203 0.5429 0.8104
vn -0.0000 0.8404 0.5419
vn 0.1411 0.8391 0.5254
vn -0.0000 0.9487 0.3162
vn -0.0000 0.5456 0.8381
vn 0.0393 0.9892 0.1413
vn -0.0000 0.9888 0.1491
vn -0.0790 0.9481 0.3081
vn -0.1411 0.8391 0.5254
vn -0.2203 0.5429 0.8104
vn -0.0393 0.9892 0.1413
vn -0.0707 0.9896 0.1257
vn -0.0392 0.9892 0.1413
vn -0.1580 0.9479 0.2765
vn -0.1412 0.8391 0.5254
vn -0.2671 0.8405 0.4713
vn -0.4185 0.5450 0.7265
vn -0.4186 0.5449 0.7265
vn -0.3844 0.8394 0.3844
vn -0.5927 0.5453 0.5927
vn -0.2287 0.9463 0.2287
vn -0.1021 0.9895 0.1021
vn -0.1257 0.9896 0.0707
vn -0.7265 0.5449 0.4185
vn -0.1411 0.8391 -0.5254
vn -0.0392 0.9892 -0.1413
vn 0.5419 0.8404 -0.0000
vn 0.3162 0.9487 -0.0000
vn 0.1491 0.9888 -0.0000
vn 0.1413 0.9892 -0.0392
vn 0.5254 0.8391 -0.1411
vn 0.8381 0.5456 -0.0000
vn 0.5254 0.8391 0.1411
vn 0.3081 0.9481 0.0790
vn 0.1413 0.9892 0.0392
vn 0.7265 0.5449 0.4185
vn 0.5254 0.8391 0.1412
vn 0.4713 0.8405 0.2671
vn 0.2765 0.9479 0.1580
vn 0.1256 0.9896 0.0707
vn 0.1021 0.9895 0.1021
vn 0.1257 0.9896 0.0707
vn 0.2287 0.9463 0.2287
vn 0.3844 0.8394 0.3844
vn 0.5927 0.5453 0.5927
vn 0.7265 0.5449 0.4186
vn 0.4185 0.5450 0.7265
vn -0.2589 -0.0000 0.9659
vn -0.5029 -0.0000 0.8644
vn 0.5029 -0.0000 0.8644
vn 0.2592 -0.0000 0.9658
vn 0.2589 -0.0000 0.9659
vn 0.4186 0.5449 0.7266
vn 0.2448 0.3396 0.9082
vn 0.4735 0.3393 0.8128
vn 0.2203 0.5428 0.8104
vn -0.0000 0.5455 0.8381
vn -0.0000 0.3398 0.9405
vn -0.2203 0.5428 0.8104
vn -0.2448 0.3396 0.9082
vn -0.4186 0.5449 0.7266
vn -0.4735 0.3393 0.8128
vn -0.6649 0.3404 0.6649
vn 0.5927 0.5453 0.5928
vn -0.8644 -0.0000 0.5029
vn -0.9658 -0.0000 0.2592
vn -1.0000 -0.0000 0.0001
vn -0.9659 -0.0000 -0.2589
vn -0.8644 -0.0000 -0.5029
vn -0.7266 0.5449 0.4186
vn -0.9082 0.3396 0.2448
vn -0.8128 0.3393 0.4734
vn -0.8381 0.5455 -0.0000
vn -0.9405 0.3398 -0.0000
vn -0.8104 0.5428 -0.2203
vn -0.9082 0.3396 -0.2448
vn -0.7266 0.5449 -0.4186
vn -0.8128 0.3393 -0.4734
vn -0.8128 0.3393 -0.4735
vn -0.5928 0.5453 -0.5927
vn -0.6649 0.3404 -0.6649
vn -0.5928 0.5453 0.5927
vn -0.8128 0.3393 0.4735
vn -0.5029 -0.0000 -0.8643
vn -0.2592 -0.0000 -0.9658
vn -0.2589 -0.0000 -0.9659
vn 0.2592 -0.0000 -0.9658
vn 0.5029 -0.0000 -0.8644
vn -0.5927 0.5453 -0.5928
vn -0.4186 0.5449 -0.7266
vn -0.4735 0.3393 -0.8128
vn -0.2449 0.3396 -0.9082
vn 0.2203 0.5428 -0.8104
vn -0.0000 0.3398 -0.9405
vn -0.0000 0.5455 -0.8381
vn 0.2448 0.3387 -0.9085
vn 0.4185 0.5449 -0.7266
vn 0.2449 0.3396 -0.9082
vn 0.4734 0.3393 -0.8128
vn 0.5927 0.5453 -0.5928
vn 0.4735 0.3393 -0.8128
vn 0.4186 0.5449 -0.7266
vn -0.2203 0.5428 -0.8104
vn -0.2448 0.3396 -0.9082
vn 0.9821 -0.1886 -0.0000
vn 0.9821 -0.1885 -0.0000
vn -0.9821 0.1885 -0.0000
vn -0.1886 -0.9821 -0.0000
vn -0.1885 -0.9821 -0.0000
vn -0.0708 0.9975 -0.0000
vn 0.4408 0.8976 -0.0000
vn 0.4409 0.8976 -0.0000
vt 0.601953 0.568118
vt 0.679953 0.373118
vt 0.679953 0.568118
vt 0.601953 0.373118
vt 0.562953 0.633118
vt 0.640953 0.568118
vt 0.640953 0.633118
vt 0.562953 0.568118
vt -0.022047 0.568117
vt -0.022047 0.373118
vt 0.016952 0.633117
vt 0.016952 0.568117
vt 0.562953 0.854118
vt 0.016952 0.854118
vt 0.016952 0.152118
vt -0.061048 0.776118
vt -0.061048 0.230118
vt 0.640953 0.776118
vt 0.562953 0.152118
vt 0.640953 0.230118
vt 0.601953 0.893118
vt -0.022047 0.893118
vt -0.022047 0.113118
vt -0.100047 0.815118
vt -0.100047 0.191118
vt 0.679953 0.815118
vt 0.601953 0.113118
vt 0.679953 0.191118
vt -0.022047 0.568117
vt -0.100047 0.568117
vt -0.022047 0.373118
vt -0.100047 0.373118
vt 0.679953 0.568117
vt 0.601953 0.568117
vt -0.061048 0.568117
vt -0.061048 0.633117
vt 0.562953 0.568117
vt 0.640953 0.568117
vt 0.562953 0.633117
vt 0.640953 0.633117
vt -0.022047 0.568118
vt -0.100047 0.568118
vt -0.061048 0.568118
vt 0.016952 0.568118
vt -0.061048 0.633118
vt 0.016952 0.633118
vt 0.464757 1.393270
vt 0.545529 1.198270
vt 0.545529 1.393270
vt 0.464757 1.198270
vt 0.370696 1.393270
vt 0.370696 1.198270
vt 0.269757 1.393270
vt 0.269757 1.198270
vt 0.168818 1.393270
vt 0.168818 1.198270
vt 0.074757 1.393270
vt 0.074757 1.198270
vt -0.006014 1.393270
vt -0.006014 1.198270
vt 0.116743 1.393270
vt 0.063954 1.352120
vt 0.124232 1.352120
vt 0.053363 1.393270
vt 0.190551 1.393270
vt 0.194428 1.352120
vt 0.269757 1.352120
vt 0.345086 1.352120
vt 0.348963 1.393270
vt 0.415282 1.352120
vt 0.422771 1.393270
vt 0.475560 1.352120
vt 0.486152 1.393270
vt 0.464757 0.958018
vt 0.486151 1.079370
vt 0.422771 1.030740
vt 0.545529 1.020000
vt 0.534785 1.142750
vt 0.607507 1.100770
vt 0.269757 0.905767
vt 0.348963 1.000170
vt 0.269757 0.989740
vt 0.370696 0.919056
vt 0.646468 1.194830
vt 0.575785 1.295770
vt 0.565357 1.216560
vt 0.659757 1.295770
vt 0.646468 1.396710
vt 0.565357 1.374970
vt 0.607507 1.490770
vt 0.534785 1.448780
vt 0.422771 1.560800
vt 0.545529 1.571540
vt 0.464757 1.633520
vt 0.486151 1.512160
vt 0.348963 1.591370
vt 0.370696 1.672480
vt 0.269757 1.601800
vt 0.269757 1.685770
vt 0.190551 1.591370
vt 0.168817 1.672480
vt 0.116743 1.560800
vt 0.074757 1.633520
vt 0.053363 1.512160
vt -0.006015 1.571540
vt -0.067993 1.490770
vt 0.004729 1.448780
vt -0.025843 1.216560
vt -0.067993 1.100770
vt 0.004729 1.142750
vt -0.106954 1.194830
vt -0.106954 1.396710
vt -0.025843 1.374970
vt -0.120243 1.295770
vt -0.036271 1.295770
vt 0.074757 0.958017
vt 0.190551 1.000170
vt 0.116743 1.030740
vt 0.168818 0.919056
vt -0.006014 1.020000
vt 0.053363 1.079370
vt 0.178412 1.271290
vt 0.096008 1.249210
vt 0.187859 1.248480
vt 0.269757 1.295770
vt 0.113977 1.205830
vt 0.030611 1.231690
vt 0.055345 1.171980
vt -0.011375 1.220440
vt 0.017700 1.150240
vt 0.089878 1.295770
vt 0.022175 1.295770
vt -0.021293 1.295770
vt 0.175189 1.295770
vt 0.030611 1.359850
vt -0.011375 1.371100
vt 0.096008 1.342320
vt 0.178412 1.320240
vt 0.187859 1.343050
vt 0.113977 1.385710
vt 0.055345 1.419560
vt 0.017700 1.441290
vt 0.063954 1.501570
vt 0.094690 1.470830
vt 0.142564 1.422960
vt 0.202888 1.362640
vt 0.222473 1.377670
vt 0.179817 1.451550
vt 0.145966 1.510180
vt 0.124232 1.547820
vt 0.223201 1.469520
vt 0.245281 1.387110
vt 0.205678 1.534910
vt 0.194428 1.576900
vt 0.333836 1.534910
vt 0.269757 1.586820
vt 0.269757 1.543350
vt 0.345086 1.576900
vt 0.316313 1.469520
vt 0.269757 1.475650
vt 0.294233 1.387110
vt 0.269757 1.390330
vt 0.393548 1.510180
vt 0.415282 1.547820
vt 0.359696 1.451550
vt 0.317041 1.377670
vt 0.336626 1.362640
vt 0.396950 1.422960
vt 0.444824 1.470830
vt 0.475560 1.501570
vt 0.484169 1.419560
vt 0.521814 1.441290
vt 0.425537 1.385710
vt 0.351655 1.343050
vt 0.361102 1.320240
vt 0.443507 1.342320
vt 0.508903 1.359850
vt 0.550890 1.371100
vt 0.359696 1.139990
vt 0.317041 1.213870
vt 0.316313 1.122020
vt 0.294233 1.204420
vt 0.333836 1.056620
vt 0.393548 1.081360
vt 0.415282 1.043710
vt 0.345086 1.014630
vt 0.269757 1.048190
vt 0.269757 1.115890
vt 0.269757 1.004720
vt 0.269757 1.201200
vt 0.223201 1.122020
vt 0.205678 1.056620
vt 0.194428 1.014630
vt 0.245281 1.204420
vt 0.222473 1.213870
vt 0.179817 1.139990
vt 0.145966 1.081360
vt 0.124232 1.043710
vt 0.094690 1.120700
vt 0.063954 1.089960
vt 0.142564 1.168570
vt 0.202888 1.228900
vt 0.517339 1.295770
vt 0.449635 1.295770
vt 0.364325 1.295770
vt 0.560807 1.295770
vt 0.508903 1.231690
vt 0.443506 1.249210
vt 0.361102 1.271290
vt 0.550890 1.220440
vt 0.521814 1.150240
vt 0.484169 1.171980
vt 0.425537 1.205830
vt 0.351655 1.248480
vt 0.336626 1.228900
vt 0.396950 1.168570
vt 0.444824 1.120700
vt 0.475560 1.089960
vt 0.074757 1.393270
vt 0.074757 1.198270
vt -0.006015 1.393270
vt -0.006015 1.198270
vt 0.370697 1.393270
vt 0.370697 1.198270
vt 0.486151 1.393270
vt 0.063954 1.352120
vt 0.348962 1.393270
vt 0.053362 1.393270
vt 0.545528 1.020000
vt -0.067993 1.490770
vt 0.074757 0.958018
vt 0.464757 0.958017
vt -0.006015 1.020000
vt -0.067993 1.100770
vt 0.074757 1.633520
vt 0.168818 1.672480
vt 0.370697 1.672480
vt 0.625000 0.000000
vt 0.625000 0.250000
vt 0.375000 0.000000
vt 0.375000 0.250000
vt 0.375000 0.500000
vt 0.625000 0.375000
vt 0.625000 0.500000
vt 0.375000 0.750000
vt 0.625000 0.750000
vt 0.625000 0.875000
vt 0.375000 1.000000
vt 0.625000 1.000000
vt 0.125000 0.750000
vt 0.125000 0.500000
vt 0.750000 0.750000
vt 0.750000 0.500000
vt 0.875000 0.750000
vt 0.875000 0.500000
s 1
usemtl Handle1Mtl.056
f 1/1/1 2/2/1 3/3/1
f 2/2/1 1/1/1 4/4/1
f 5/5/1 6/6/1 7/7/1
f 6/6/1 5/5/1 8/8/1
f 9/9/2 10/4/2 11/1/2
f 10/4/2 9/9/2 12/10/2
f 13/11/2 14/8/2 15/5/2
f 14/8/2 13/11/2 16/12/2
f 17/13/3 18/14/3 19/15/3
f 19/15/3 18/14/3 20/16/3
f 19/15/3 20/16/3 21/17/3
f 19/15/3 22/18/3 17/13/3
f 22/18/3 19/15/3 23/19/3
f 22/18/3 23/19/3 24/20/3
f 25/21/3 26/22/3 27/23/3
f 27/23/3 26/22/3 28/24/3
f 27/23/3 28/24/3 29/25/3
f 27/23/3 30/26/3 25/21/3
f 30/26/3 27/23/3 31/27/3
f 30/26/3 31/27/3 32/28/3
f 33/29/4 34/30/4 35/31/4
f 34/30/4 36/32/4 35/31/4
f 37/33/5 38/34/5 39/2/5
f 38/34/5 40/4/5 39/2/5
f 41/35/4 42/12/4 43/36/4
f 44/11/4 43/36/4 42/12/4
f 45/37/5 46/38/5 47/39/5
f 48/40/5 47/39/5 46/38/5
f 49/29/6 50/4/6 51/34/6
f 50/4/6 49/29/6 52/31/6
f 53/11/6 54/37/6 55/39/6
f 54/37/6 53/11/6 56/12/6
f 57/41/7 58/42/7 59/31/7
f 58/42/7 60/32/7 59/31/7
f 61/43/7 62/44/7 63/45/7
f 64/46/7 63/45/7 62/44/7
f 65/41/8 66/4/8 67/34/8
f 66/4/8 65/41/8 68/31/8
f 69/46/8 70/37/8 71/39/8
f 70/37/8 69/46/8 72/44/8
f 73/23/9 74/27/9 75/26/9
f 75/26/9 74/27/9 76/28/9
f 77/21/9 73/23/9 75/26/9
f 73/23/9 77/21/9 78/22/9
f 73/23/9 78/22/9 79/24/9
f 73/23/9 79/24/9 80/25/9
f 81/41/10 82/4/10 83/1/10
f 82/4/10 81/41/10 84/31/10
f 85/46/10 86/8/10 87/5/10
f 86/8/10 85/46/10 88/44/10
usemtl Output1Mtl.006
f 91/47/11 90/48/1 89/49/1
f 90/48/1 91/47/11 92/50/11
f 91/47/11 93/51/12 92/50/11
f 92/50/11 93/51/12 94/52/13
f 93/51/12 95/53/14 94/52/13
f 94/52/13 95/53/14 96/54/14
f 95/53/14 97/55/15 96/54/14
f 96/54/14 97/55/15 98/56/15
f 97/55/15 99/57/16 98/56/15
f 98/56/15 99/57/16 100/58/16
f 100/58/16 99/57/16 101/59/5
f 100/58/16 101/59/5 102/60/5
f 103/61/17 104/62/18 105/63/19
f 104/62/18 103/61/17 106/64/20
f 109/65/21 108/63/19 107/66/22
f 108/63/19 109/65/21 110/61/23
f 113/53/24 112/66/22 111/67/25
f 112/66/22 113/53/24 114/65/21
f 115/68/26 117/53/24 116/67/25
f 117/53/24 115/68/26 118/69/27
f 119/70/28 121/69/27 120/68/29
f 121/69/27 119/70/28 122/71/30
f 123/72/31 125/71/32 124/70/33
f 125/71/32 123/72/31 126/73/34
f 127/74/3 128/75/3 129/76/3
f 128/75/3 127/74/3 130/77/3
f 131/78/3 132/77/3 133/79/3
f 132/77/3 131/78/3 134/75/3
f 135/80/3 136/81/3 137/82/3
f 136/81/3 135/80/3 138/83/3
f 139/81/3 140/74/3 141/76/3
f 140/74/3 139/81/3 142/83/3
f 143/84/3 144/85/3 145/86/3
f 144/85/3 143/84/3 146/87/3
f 147/85/3 148/87/3 149/88/3
f 147/85/3 149/88/3 150/89/3
f 151/90/3 152/91/3 153/88/3
f 153/88/3 152/91/3 154/89/3
f 155/84/3 156/78/3 157/79/3
f 156/78/3 155/84/3 158/86/3
f 159/92/3 160/93/3 161/94/3
f 160/93/3 159/92/3 162/95/3
f 163/96/3 164/94/3 165/97/3
f 164/94/3 163/96/3 166/92/3
f 167/98/3 168/97/3 169/99/3
f 170/97/3 171/98/3 172/96/3
f 173/95/3 174/90/3 175/93/3
f 174/90/3 173/95/3 176/91/3
f 177/99/3 178/100/3 179/98/3
f 178/100/3 177/99/3 180/101/3
f 181/101/3 182/102/3 183/100/3
f 182/102/3 181/101/3 184/103/3
f 185/102/3 186/103/3 187/104/3
f 186/103/3 188/105/3 187/104/3
f 189/106/3 190/107/3 191/105/3
f 191/105/3 190/107/3 192/104/3
f 193/108/3 194/109/3 195/110/3
f 194/109/3 193/108/3 196/111/3
f 197/106/3 198/112/3 199/107/3
f 198/112/3 200/113/3 199/107/3
f 201/113/3 202/114/3 203/115/3
f 204/114/3 205/113/3 206/112/3
f 207/115/3 208/111/3 209/108/3
f 208/111/3 207/115/3 210/114/3
f 211/116/3 212/117/3 213/118/3
f 212/117/3 211/116/3 214/119/3
f 215/119/3 216/80/3 217/117/3
f 216/80/3 218/82/3 217/117/3
f 219/110/3 220/120/3 221/121/3
f 220/120/3 219/110/3 222/109/3
f 223/121/3 224/120/3 225/118/3
f 224/120/3 226/116/3 225/118/3
f 227/122/35 228/123/36 229/124/37
f 230/125/3 227/122/35 229/124/37
f 229/124/37 228/123/36 231/126/38
f 228/123/36 232/127/39 231/126/38
f 231/126/38 232/127/39 233/128/40
f 233/128/40 232/127/39 234/129/41
f 233/128/40 234/129/41 235/130/42
f 236/127/43 237/131/44 238/132/45
f 236/127/43 238/132/45 239/133/46
f 237/131/44 236/127/43 240/123/36
f 236/127/43 239/133/46 241/129/41
f 240/123/36 242/122/35 237/131/44
f 243/134/47 237/131/44 242/122/35
f 244/125/3 243/134/47 242/122/35
f 245/133/46 246/135/48 247/136/49
f 246/135/48 245/133/46 248/132/45
f 248/132/45 249/131/44 246/135/48
f 249/131/44 250/137/50 246/135/48
f 249/131/44 251/138/51 250/137/50
f 251/138/51 249/131/44 252/134/47
f 253/125/3 251/138/51 252/134/47
f 254/125/3 255/139/52 256/138/51
f 255/139/52 257/137/50 256/138/51
f 257/137/50 255/139/52 258/140/53
f 258/140/53 259/135/54 257/137/50
f 259/135/54 258/140/53 260/141/55
f 260/141/55 261/136/49 259/135/54
f 261/136/49 260/141/55 262/142/56
f 263/143/57 264/142/58 265/141/55
f 263/143/57 265/141/55 266/144/59
f 265/141/55 267/145/60 266/144/59
f 267/145/60 265/141/55 268/140/53
f 268/140/53 269/146/61 267/145/60
f 269/146/61 268/140/53 270/139/52
f 271/125/3 269/146/61 270/139/52
f 272/147/62 273/145/60 274/146/61
f 275/125/3 272/147/62 274/146/61
f 273/145/60 272/147/62 276/148/63
f 277/149/64 273/145/60 276/148/63
f 273/145/60 277/149/64 278/144/65
f 279/150/66 278/144/65 277/149/64
f 278/144/65 279/150/66 280/143/67
f 281/151/68 282/149/64 283/148/63
f 284/147/62 281/151/68 283/148/63
f 281/151/68 284/147/62 285/152/69
f 286/125/3 285/152/69 284/147/62
f 282/149/64 281/151/68 287/153/70
f 288/154/71 282/149/64 287/153/70
f 282/149/64 288/154/71 289/150/66
f 290/155/72 291/156/73 292/157/74
f 291/156/73 290/155/72 293/158/75
f 292/157/74 294/159/76 290/155/72
f 294/159/76 292/157/74 295/160/77
f 295/160/77 296/161/78 294/159/76
f 296/161/78 295/160/77 297/162/79
f 298/125/3 296/161/78 297/162/79
f 299/155/80 300/163/81 301/164/82
f 299/155/80 302/165/83 300/163/81
f 299/155/80 301/164/82 303/158/75
f 302/165/83 299/155/80 304/159/76
f 304/159/76 305/166/84 302/165/83
f 305/166/84 304/159/76 306/161/85
f 307/125/3 305/166/84 306/161/85
f 308/125/3 309/167/86 310/166/84
f 310/166/84 309/167/86 311/168/87
f 312/165/83 310/166/84 311/168/87
f 311/168/87 313/163/81 312/165/83
f 313/163/81 311/168/87 314/169/88
f 314/169/88 315/164/89 313/163/81
f 315/164/89 314/169/88 316/170/90
f 317/170/91 319/171/92 318/172/93
f 319/171/92 317/170/91 320/169/94
f 319/171/92 320/169/94 321/168/87
f 319/171/92 321/168/87 322/173/95
f 321/168/87 323/167/86 322/173/95
f 322/173/95 323/167/86 324/174/96
f 325/125/3 324/174/96 323/167/86
f 326/173/95 327/175/97 328/176/98
f 327/175/97 326/173/95 329/174/99
f 330/125/3 327/175/97 329/174/99
f 328/176/98 331/171/92 326/173/95
f 331/171/92 328/176/98 332/177/100
f 333/178/101 331/171/92 332/177/100
f 333/178/101 334/172/102 331/171/92
f 335/179/103 336/180/104 337/181/105
f 336/180/104 338/182/106 337/181/105
f 339/125/3 338/182/106 336/180/104
f 335/179/103 337/181/105 340/183/107
f 341/184/108 335/179/103 340/183/107
f 340/183/107 342/185/109 341/184/108
f 342/185/109 340/183/107 343/186/110
f 344/187/111 345/183/112 346/181/105
f 344/187/111 347/186/110 345/183/112
f 344/187/111 346/181/105 348/188/113
f 347/186/110 344/187/111 349/189/114
f 346/181/105 350/182/115 348/188/113
f 348/188/113 350/182/115 351/190/116
f 352/125/3 351/190/116 350/182/115
f 353/187/111 354/191/117 355/192/118
f 356/193/119 353/187/111 355/192/118
f 354/191/117 353/187/111 357/188/113
f 356/193/119 358/189/114 353/187/111
f 357/188/113 359/194/120 354/191/117
f 359/194/120 357/188/113 360/190/116
f 361/125/3 359/194/120 360/190/116
f 362/125/3 363/195/121 364/194/122
f 363/195/121 365/191/117 364/194/122
f 365/191/117 363/195/121 366/196/123
f 366/196/123 367/192/124 365/191/117
f 367/192/124 366/196/123 368/197/125
f 368/197/125 369/193/119 367/192/124
f 369/193/119 368/197/125 370/198/126
f 372/198/127 373/199/128 371/200/129
f 373/199/128 372/198/127 374/197/125
f 375/196/123 373/199/128 374/197/125
f 373/199/128 375/196/123 376/201/130
f 377/195/121 376/201/130 375/196/123
f 376/201/130 377/195/121 378/202/131
f 379/125/3 378/202/131 377/195/121
f 380/124/132 381/201/130 382/202/131
f 383/125/3 380/124/132 382/202/131
f 381/201/130 380/124/132 384/126/38
f 384/126/38 385/199/128 381/201/130
f 385/199/128 384/126/38 386/128/40
f 386/128/40 387/200/129 385/199/128
f 387/200/129 386/128/40 388/130/133
f 389/157/74 390/151/68 391/160/77
f 390/151/68 389/157/74 392/153/134
f 393/152/135 391/160/77 390/151/68
f 391/160/77 393/152/135 394/162/79
f 395/125/3 394/162/79 393/152/135
f 396/156/73 392/153/134 389/157/74
f 392/153/134 396/156/73 397/154/71
f 398/203/136 399/176/98 400/204/137
f 399/176/98 401/205/138 400/204/137
f 401/205/138 399/176/98 402/175/139
f 403/125/3 401/205/138 402/175/139
f 399/176/98 398/203/136 404/177/140
f 405/206/141 404/177/140 398/203/136
f 404/177/140 405/206/141 406/178/101
f 407/207/142 408/204/137 409/208/143
f 408/204/137 407/207/142 410/203/136
f 411/205/138 409/208/143 408/204/137
f 409/208/143 411/205/138 412/209/144
f 413/125/3 412/209/144 411/205/138
f 414/210/26 410/203/136 407/207/142
f 410/203/136 414/210/26 415/206/141
f 416/211/145 417/207/146 418/212/147
f 417/207/146 419/213/148 418/212/147
f 417/207/146 416/211/145 420/210/26
f 419/213/148 417/207/146 421/208/143
f 421/208/143 422/214/149 419/213/148
f 422/214/149 421/208/143 423/209/144
f 424/125/3 422/214/149 423/209/144
f 425/125/3 426/215/150 427/214/151
f 426/215/150 428/216/152 427/214/151
f 427/214/151 428/216/152 429/213/148
f 428/216/152 430/212/147 429/213/148
f 430/212/147 428/216/152 431/217/153
f 430/212/147 431/217/153 432/218/154
f 430/212/147 432/218/154 433/211/155
f 434/180/104 435/216/152 436/215/150
f 437/125/3 434/180/104 436/215/150
f 435/216/152 434/180/104 438/179/103
f 438/179/103 439/217/153 435/216/152
f 439/217/153 438/179/103 440/184/108
f 439/217/153 440/184/108 441/185/156
f 439/217/153 441/185/156 442/218/154
f 443/56/157 444/54/6 445/55/157
f 444/54/6 446/53/6 445/55/157
f 443/56/157 445/55/157 447/219/158
f 448/220/158 443/56/157 447/219/158
f 448/220/158 447/219/158 449/221/4
f 449/221/4 450/222/4 448/220/158
f 452/48/5 451/49/5 453/47/159
f 453/47/159 454/50/159 452/48/5
f 454/50/159 453/47/159 455/223/160
f 456/224/161 454/50/159 455/223/160
f 456/224/161 455/223/160 457/53/6
f 458/54/6 456/224/161 457/53/6
f 459/63/162 460/66/110 461/65/163
f 459/63/162 461/65/163 462/61/164
f 463/66/165 464/67/166 465/53/167
f 463/66/165 465/53/167 466/65/163
f 467/68/168 469/53/167 468/67/166
f 469/53/167 467/68/168 470/69/169
f 472/70/170 473/69/169 471/68/119
f 473/69/169 472/70/170 474/71/171
f 475/72/129 476/71/171 477/70/170
f 476/71/171 475/72/129 478/225/172
f 479/63/162 481/61/164 480/226/173
f 480/226/173 481/61/164 482/64/34
f 485/47/174 484/48/4 483/49/4
f 485/47/174 486/50/174 484/48/4
f 487/51/175 486/50/174 485/47/174
f 487/51/175 488/52/175 486/50/174
f 489/53/176 488/52/175 487/51/175
f 489/53/176 490/54/176 488/52/175
f 491/55/177 490/54/176 489/53/176
f 491/55/177 492/56/177 490/54/176
f 493/219/178 492/56/177 491/55/177
f 493/219/178 494/220/178 492/56/177
f 495/221/7 494/220/178 493/219/178
f 495/221/7 496/222/7 494/220/178
f 498/63/179 497/66/41 499/65/180
f 499/65/180 500/61/181 498/63/179
f 502/66/41 501/67/182 503/53/183
f 503/53/183 504/65/180 502/66/41
f 506/68/184 507/53/183 505/67/182
f 507/53/183 506/68/184 508/227/185
f 510/70/186 511/227/185 509/68/184
f 511/227/185 510/70/186 512/71/187
f 513/71/188 514/72/189 515/225/190
f 514/72/189 513/71/188 516/70/186
f 517/226/191 518/63/179 519/61/192
f 520/228/172 517/226/191 519/61/192
f 521/229/9 522/230/9 523/231/9
f 521/229/9 524/83/9 525/232/9
f 521/229/9 526/80/9 524/83/9
f 523/231/9 526/80/9 521/229/9
f 526/80/9 523/231/9 527/119/9
f 528/93/9 522/230/9 521/229/9
f 528/93/9 521/229/9 529/79/9
f 522/230/9 530/114/9 523/231/9
f 530/114/9 522/230/9 531/112/9
f 532/111/9 523/231/9 530/114/9
f 532/111/9 533/233/9 523/231/9
f 533/233/9 532/111/9 534/234/9
f 535/87/9 528/93/9 529/79/9
f 535/87/9 529/79/9 536/84/9
f 528/93/9 535/87/9 537/90/9
f 537/90/9 535/87/9 538/88/9
f 522/230/9 528/93/9 539/235/9
f 522/230/9 539/235/9 540/105/9
f 539/235/9 528/93/9 541/99/9
f 539/235/9 541/99/9 542/236/9
f 541/99/9 528/93/9 543/94/9
f 541/99/9 543/94/9 544/237/9
f 547/47/193 546/48/7 545/49/7
f 546/48/7 547/47/193 548/50/193
f 549/51/194 548/50/193 547/47/193
f 548/50/193 549/51/194 550/52/195
f 551/53/10 550/52/195 549/51/194
f 550/52/195 551/53/10 552/54/10
f 553/55/196 552/54/10 551/53/10
f 552/54/10 553/55/196 554/56/196
f 555/219/197 554/56/196 553/55/196
f 554/56/196 555/219/197 556/220/197
f 557/59/1 556/220/197 555/219/197
f 556/220/197 557/59/1 558/60/1
f 560/226/198 559/63/199 561/61/200
f 561/61/200 562/64/190 560/226/198
f 565/65/201 564/63/199 563/66/71
f 565/65/201 566/61/200 564/63/199
f 568/68/202 569/53/203 567/67/204
f 569/53/203 568/68/202 570/69/205
f 571/70/206 573/69/207 572/68/75
f 573/69/207 571/70/206 574/71/208
f 576/72/209 577/71/210 575/70/211
f 577/71/210 576/72/209 578/225/20
f 581/53/203 580/66/212 579/67/204
f 581/53/203 582/65/213 580/66/212
f 583/238/214 584/239/214 585/240/214
f 585/240/214 584/239/214 586/241/215
f 587/242/6 588/241/6 589/243/6
f 587/242/6 589/243/6 590/244/6
f 588/241/6 591/239/6 589/243/6
f 592/245/216 593/242/216 594/246/216
f 594/246/216 593/242/216 595/244/216
f 596/247/10 597/245/10 598/246/10
f 597/245/10 596/247/10 599/248/10
f 600/249/10 599/248/10 596/247/10
f 601/245/217 602/250/218 603/251/217
f 601/245/217 603/251/217 604/242/217
f 605/252/219 606/253/219 607/254/219
f 607/254/219 606/253/219 608/255/219
f 609/246/220 610/244/221 611/252/220
f 611/252/220 610/244/221 612/253/220
